<svg xmlns="http://www.w3.org/2000/svg" viewBox="0 0 595.28 850.36"><defs><style>.a{fill:#e5e8eb;}.a,.b,.c{fill-rule:evenodd;}.b{fill:#000100;}.c{fill:#ad1922;}</style></defs><title>4101_C</title><polyline class="a" points="0 850.36 595.28 850.36 595.28 0 0 0 0 850.36"/><path class="b" d="M109.34,687.16h46.51V676.43H122.23V659.3h29.37V649.08H122.3V635.25h33V624.81H109.34v62.35Zm376.54,0v-9.29h-4.46a4.33,4.33,0,0,1-3.46-1.66c-0.29-.36-0.57-1-0.57-3.45V650.52h8.13v-8.21H477.4l-0.07-14.11h-12v14.18H459v8.21l6.34-.07v23.11c0,10.22,4.11,13.53,10.8,13.53h9.72Zm-59.25,0h11.95l15.34-44.78H441.68l-8.92,29.45-8.93-29.38H411.59Zm-33.69,0h12V642.31h-12v44.85ZM393,635.61h12v-10.8H393v10.8ZM342.9,672.26c0.22,8.43,7.34,16.49,21,16.49,14,0,20.16-7.49,20.16-15.48a12.83,12.83,0,0,0-2.74-7.85c-1.73-2.09-3.89-3.74-9.14-5l-12.89-3c-2.74-.65-3.82-2.38-3.82-4S357.09,649,363,649c6.34,0,9.22,3.39,9.22,7l10.66-.15A15.84,15.84,0,0,0,376.45,644c-2.59-1.87-6.77-3.45-13.32-3.45-12.89,0-18.57,7-18.57,14.62a11.6,11.6,0,0,0,3.09,8.42c1.59,1.73,3.53,3.1,8.57,4.18l9.72,2.16c5.61,1.22,6.26,3,6.26,5.11s-1.8,5.11-8.43,5.11c-6.34,0-9.58-3.46-9.93-8.06Zm-31,16.56c13.53,0,23.54-9.58,23.54-24.26,0-14.11-9.79-23.91-23.69-23.91-13.54,0-23.4,9.72-23.4,23.91C288.33,679.32,298.19,688.82,311.87,688.82Zm-0.14-9.43c-5.69,0-11.23-4.32-11.23-14.33,0-10.73,5.4-15,11.3-15s11.31,4.32,11.31,14.54C323.1,675.07,317.63,679.39,311.73,679.39Zm-43.92,7.77h12V624.81H267.88ZM226.41,682c2.52,4.11,7,6.7,13.1,6.7,12.24,0,19.8-11.38,19.8-24.12,0-12.24-7.34-23.69-19.66-23.69a16.16,16.16,0,0,0-13,6.12l-0.58-4.54-11.81.07v59.33h12Zm10.8-2.59c-5.83,0-10.73-3.89-10.73-13.54,0-10.8,5.33-14.62,10.22-14.62,5.11,0,10.44,4,10.44,14C247.15,671.83,244.34,679.32,237.21,679.39Zm-75,7.77h13.39l9.36-14,8.21,14h14.4l-15.84-23.47,14-21.38H193.07l-7.41,12.6-7.34-12.53h-14l14.18,21.38Z"/><path class="c" d="M166.7,187.09L35.48,318.32,166.7,448.88,297.26,580.2,428.49,448.88,559.81,317.65,428.49,187.09C357,114.86,297.93,55.82,297.93,55.82c-0.67,0-59.67,59-131.23,131.27"/><path class="a" d="M407.67,207.91L518.13,317.65,407.67,428.72,297.26,539.18,187.53,428.06,77.07,317.65,187.53,207.91C247.94,146.78,297.26,97.51,297.93,97.51c0,0,49.36,49.28,109.74,110.41"/><path class="b" d="M320.88,176.66v0.71S312.49,201,302.1,230.15C292.38,259.32,284,282.94,284,282.94a0.69,0.69,0,0,1-.67-0.76s21.53-67.3,21.53-68a8.5,8.5,0,0,0-2-1.38c-2.08-.66-2.08-1.42-2.08-0.66L282.7,282.18h-0.76c-1.33-.66-4.13-0.66-5.5-1.33h-7c-7.64,1.33-13.23,4.17-18.07,9.72a27,27,0,0,0-8.3,13.19v0.71c0,0.67-2.75-1.37-6.26-4.22s-6.26-4.84-6.26-4.84a5.45,5.45,0,0,0,.71,2.08l0.66,1.42,5.55,3.42,4.93,3.51c0,0.71,0,.71,1.33,2.08s2.09,2,2.8,2.79v0.67l2.08-.67H250l2.79,2.09a12.92,12.92,0,0,0,2.75,2.08c0-.75-1.42-1.42-2.75-2.08l-2.08-2.09h4.84l4.17-.75,6.26,3.5c3.46,2.09,6.21,3.51,6.21,3.51a32.25,32.25,0,0,1,3.51-4.17c2.08-2.84,3.46-4.88,4.17-4.88,0,0-.71-0.71-2.09-4.17-0.71-2.08-1.37-3.51-1.37-3.51h4.84a20.35,20.35,0,0,0,4.84.75,7,7,0,0,0,.76-2.84l0.66-2.75h6.22l-7.64,8.34c-4.17,4.17-7.59,7.64-7.59,8.3,0,0,2.75-2.75,9.68-9.72l7-6.92H300l-0.66-.67a2.53,2.53,0,0,0-.67-1.42l-0.75-.66a13.84,13.84,0,0,1,2.08-2.8l2.08-2.08v0.71l0.76,0.71,3.42-1.42c1.38-.66,3.46-1.37,3.46-1.37a5.22,5.22,0,0,0,.71,2.08,7,7,0,0,0,.71,2.75s10.39-8.3,11.1-9.06a33.46,33.46,0,0,0,2.8-5.5c1.33-2.8,2.75-4.88,2.75-5.55h0A52.48,52.48,0,0,1,323,275.3l-4.88,3.46h-2.75a15.54,15.54,0,0,1-4.17.66c0-.66,2.09-2.08,32-32.63,17.31-18,32-32.63,32-32.63a7.75,7.75,0,0,1-1.42-2l-2.08-1.42s-15.32,16-32.63,35.38l-32.68,35.43-2.75,2.08a6.73,6.73,0,0,0-2.09,1.42c-0.66,0,0,.67,0,0.67v1.42l-4.17,4.13-0.66-.67a33.09,33.09,0,0,0-4.88-3.46L291,286.4l16-27.75c12.52-21.57,16-27.79,16-27.79a2.5,2.5,0,0,0-1.42-.71l-2-1.37v0.66c-0.71,0-7,13.23-14.61,28.46-8.3,16-14.61,27.79-14.61,27.79h0c0-.67,9.06-24.29,19.44-52.78,9.77-29.17,18.73-52.74,18.73-52.74s-6.93-2.8-6.93-3.51h-0.66ZM182,354.41v0.76a6.38,6.38,0,0,0-.75,2.75l-1.38,2.8,0.71,0.71c1.42,2,4.84,6.88,4.84,6.88a0.68,0.68,0,0,0,.71-0.67c0-.66.71-1.37,0.71-2.08l0.67-1.37v-0.71H191l0.71-.67,1.37-1.37V360a5.46,5.46,0,0,0,.71-2.09l-4.84-2.08a2.31,2.31,0,0,0-.71,1.42,0.67,0.67,0,0,0-.71.66c-0.67,0-1.38-.66-2.75-1.42A16.25,16.25,0,0,0,182,354.41Zm19.4-13.14,5.55,4.84a3.49,3.49,0,0,0,2.08-.66l2.09-.67v-3.51h-9.72Zm-17.31-17.4a12.2,12.2,0,0,1-2.84,2.08L178.51,328v2.09c0.66,0,14.56,1.42,15.27,1.42Zm66.64-2.75h0Zm100.68,0a2.5,2.5,0,0,0,1.42.71l0.66,1.37h-1.37c-1.38,0-2.8,0-3.51-.66h-2.08Zm-134-1.38v0.67h0v-0.67Zm33.34-1.42h0Zm-38.18-9a18.81,18.81,0,0,0-1.42,1.42,2.19,2.19,0,0,1-1.42.67c0,0.66,41,6.92,41,6.92Zm11.81-7.63h0a0.65,0.65,0,0,0,.66.66v0.76l13.9,6.88c7.64,3.5,13.19,6.26,13.19,6.26a136.55,136.55,0,0,0-13.19-6.93c-7.63-4.17-13.9-7.63-13.9-7.63h-0.66Zm232.58-13.9s-36.75,6.26-82.62,13.9c-45.1,7.63-82.62,13.9-82.62,13.9a1.45,1.45,0,0,1-1.42-.67l-1.33-.75v7l-2.08,1.42a18.94,18.94,0,0,0-2.84,2.08s-1.33-.75-2.75-1.42h0a6.84,6.84,0,0,1,2.08,1.42l-4.17,2.75S268.81,319,266,316.23h0l-4.84,4.17a58.66,58.66,0,0,0-4.93,4.22s-2.75-.75-6.21-2.08l-6.26-1.42h-2.08c-0.66-.71-5.55-0.71-10.39-0.71l-9-.67V319h-0.76c-0.66.71-.66,0.71-2,0h-2.75l-0.76-.71v-0.66h-3.42c-1.42,0-2.84-.66-3.51-0.66h0l-0.66.66v0.66h-0.76s-9.72-.66-20.11-1.33c-11.1-.76-20.15-1.42-20.15-1.42l-0.67.66,1.42,0.76a2.06,2.06,0,0,1,.66,1.33c0.66,0,9,0,19.44.71,10.43,0,18.73.71,18.73,0.71a2.21,2.21,0,0,1-.67,1.38,5.45,5.45,0,0,0-.71,2.08,11.6,11.6,0,0,1,2.8,2.09l2.75,2.08h2.75a8.13,8.13,0,0,0,3.51.66,2.06,2.06,0,0,1,.66-1.33l0.71-1.42H223v-2.75a5.78,5.78,0,0,1-.66-2.13l19.4,0.71h0.76c0,0.71,0,2.75.66,3.5V326s-23.62,2.84-51.41,6.26c-28.5,2.8-51.36,5.55-51.36,5.55v2.09s22.86-2.75,51.36-6.93c28.5-3.46,51.41-7,51.41-7a0.72,0.72,0,0,0,.66.76V328l0.71,0.76s-17.36,4.13-38.89,9c-20.82,4.17-38.22,8.35-38.22,8.35s-0.67,0-.67,1.42v1.37l77.78-19.44,0.71,0.67v0.75s-6.26,1.33-13.23,3.42l-12.48,3.46-0.71,1.42v1.33s6.26-2,13.19-4.79l13.9-4.17s-9.72,5.55-20.82,11.81l-21.53,11.06,0.71,0.76v1.33h0L225,344.78c11.1-7,20.82-12.56,20.82-12.56l0.71,1.42c0.71,0.67,1.37,2.09,2.75,3.46v0.66s-11.06,8.35-24.29,19.49l-24.28,19.4,1.38,1.42,2.08,2.09s3.42-2.8,14.56-13.19c7.68-7.64,14.61-13.23,14.61-13.23a0.68,0.68,0,0,0-.71.66h0s2.08,2.84,2.75,3.51l2.08-.66,1.42-.76,1.42,0.76,0.67,1.33,1.42-1.33,2-.76,0.71-2.75a7.57,7.57,0,0,1,.66-2.09l-1.38-1.37-2-.71h-4.93l6.26-5.55,6.26-6.26a8.2,8.2,0,0,1,1.37,2.09c0.71,0.66,2.08,1.42,2.75,2.08,5.59,4.17,12.56,7,19.49,6.26A25.27,25.27,0,0,0,289,343.36a11.93,11.93,0,0,0,4.8-3.51l1.42-1.38,16.64,13.19c9.06,7.68,16.65,13.9,16.65,13.9l-1.33-2.75-0.75-2.08-15.23-11.14-16-11.81h0.66a2.26,2.26,0,0,0,.76-1.37l0.66-.66s9.72,7,20.82,15.93S339,368.31,339,368.31h0.66l0.66-.67c0.76-.66,1.42-1.37,1.42-1.37S332,359.34,320.17,351c-12.52-9.06-22.24-16-22.24-16l0.75-.71a2.52,2.52,0,0,1,.67-1.38s9,5.55,19.44,12.52c10.43,6.21,19.44,11.81,19.44,11.81a3.33,3.33,0,0,0-.71-2.08l-1.38-2.8-18.07-9.68-18.73-10.48,0.66-.66a3.21,3.21,0,0,0,.76-2.09l0.66-.66,11.06,2.75c6.3,1.37,11.85,2.75,11.85,2.75a1.52,1.52,0,0,1-1.37,1.42,6.81,6.81,0,0,1-2.8-.71h-3.46c-0.71,0-.71,0-1.37,1.37l-0.66,2.08,2,1.38a12.77,12.77,0,0,1,3.46,2.84l1.37,0.66,9,1.42c5.59,1.33,9.72,2,9.72,2v-4.88L339,340.51l-1.42-2-2.09-.71a5.43,5.43,0,0,0-2-.66s6.21,1.37,13.14,3.42A87.68,87.68,0,0,1,359.77,344h0.66v-4.17a13.63,13.63,0,0,0,.76-4.13s-13.23-1.42-29.88-4.17c-16-2.09-29.21-4.17-29.21-4.17V326a2,2,0,0,0,.76-1.33,4.81,4.81,0,0,1-2.08-.75l-2.84-.67v-1.37a0.68,0.68,0,0,1-.67-0.71s12.48,0.71,28.46,1.42l28.46,1.33h0l0.76,0.75h4.84l5.55,0.67v-0.67h0l36.8,1.33c20.15,1.42,36.14,2.08,36.14,2.08l-1.42-1.33-1.37-1.42-34-.67c-19.49-.75-34.76-1.42-34.76-1.42a8.77,8.77,0,0,1,2.79-2.79,11,11,0,0,0,2.09-2.75s-4.17-2.08-9.06-4.17-9-4.17-9-4.17a11,11,0,0,0-2.75,2.09l-2.13,2.75-3.42.75a33.15,33.15,0,0,0-3.51,1.33,12.69,12.69,0,0,0,.67,3.51,7,7,0,0,0,.76,2.8s-10.43,0-23-.71c-12.52,0-22.91-.71-22.91-0.71a0.67,0.67,0,0,1-.66-0.71c0-.67-0.76-0.67-2.84-2.75l-2-1.42h0c0.66-.66,37.51-5.51,83.37-11.77l82.62-11.14v-5.55h-0.76Zm-109-5.59s-11.1,5.59-25,12.56c-13.9,6.26-25,11.81-25,11.81h0l50.7-19.44A3.51,3.51,0,0,0,348,285v-2.84Zm88.87-9.63s-34.05,8.3-75.65,19.4c-41,10.39-75.07,19.44-75.07,19.44l152.81-34.72Zm-70.14-1.42-2.09,1.42-1.37,2-1.37,2.09a7.26,7.26,0,0,1-.67,2.75l15.23,1.42s-2.09-2.08-4.84-4.88Zm8.39-23.61S355.6,260.69,332,277.34s-43,30.59-43,30.59,19.4-12.52,43-27.08l43.11-26.37v-7Zm-53.54-4.84h0s-0.66.67-1.37,1.33l-1.37,1.42v3.46a12,12,0,0,0-.71,3.51s0.71,0.67,2.08,2.09,2.08,2.08,2.08,2.08a5.79,5.79,0,0,0,2.09-2.08l1.37-2.09,0.67-1.42v-2.75h0.75l-1.42-2.8a7.22,7.22,0,0,1-.66-2.75,2.27,2.27,0,0,0-1.42.67L323,244l-0.71-.66Zm86.84-3.51h0c0,0.66-2.75,9.72-2.75,9.72h-8.34l-1.42.71c-0.67.71-1.38,1.37-1.38,1.37l-0.71,6.93L400,261.4a8.06,8.06,0,0,0,2.75-2.75,11.33,11.33,0,0,0,2.09-2.84c0.75,0,2.79,2.08,5.59,3.51l4.88,3.46V250.31l-3.5-5.55A17.64,17.64,0,0,0,408.38,239.16ZM289,217l-0.75,2.75-0.67,2.08-2.08-.71a2.19,2.19,0,0,0-1.42-.66,15.68,15.68,0,0,0-.67,4.17c-0.66,2.08-1.42,4.17-1.42,4.17,0,0.66.76,0.66,2.09,1.37,0.76,0,1.42.71,2.08,0.71a11.28,11.28,0,0,0,.76,3.46,12.48,12.48,0,0,1,.66,3.42,5.1,5.1,0,0,1,2.09-2c1.37-2.79,1.37-2.79,6.21-8.34h0.76l-1.42-4.84-1.42-4.88h-0.67A2.62,2.62,0,0,1,291,217h-2Z"/></svg>