<svg xmlns="http://www.w3.org/2000/svg" viewBox="0 0 595.28 850.37"><defs><style>.a{fill:#e5e8eb;}.a,.b,.c{fill-rule:evenodd;}.b{fill:#000100;}.c{fill:#ad1922;}</style></defs><title>4102_C</title><polyline class="a" points="0 850.37 595.28 850.37 595.28 0 0 0 0 850.37"/><path class="b" d="M70.25,649.88V634.76H86.66a7.51,7.51,0,0,1,7,7.63,7.68,7.68,0,0,1-8,7.63Zm467.69,37.29v-9.29h-4.54a4.33,4.33,0,0,1-3.45-1.65c-0.22-.36-0.58-1-0.58-3.45V650.53h8.14v-8.21h-8.14l-0.07-14.11H517.36v14.18H511v8.21l6.41-.07-0.07,23.11c0,10.23,4.17,13.54,10.8,13.54h9.79Zm-77.69,2.45c0.58,4.25,1.87,6.63,4.39,9,2.66,2.59,7.78,5.11,16.42,5.11,9.72,0,15.91-3.6,18.94-7.49,2-2.74,3.17-5.19,3.17-12l-0.07-41.9-11.52-.07-0.36,5.47c-0.87-1.37-3.31-7-13.25-7-10.8,0-20.3,8.57-20.3,22.46s9.5,22.46,20.16,22.46c7.2,0,11.59-3.24,13.32-6.69v4.82c0,7.56-3.45,10.8-10.37,10.8-5.26,0-7.7-2.67-8.14-5.47Zm20.45-14.26c-5.9,0-10.8-4.25-10.8-12.45,0-7.27,5-11.81,10.51-11.81S491,655.64,491,663.2C491,671,485.89,675.36,480.71,675.36Zm-43.56,11.81h12.1V642.32h-12Zm0.07-51.55h12v-10.8h-12v10.8Zm-21.53,51.55h12.1V624.82H415.84Zm-32.54,0h12.1V667.3c0-6.69,1.66-9.79,3.67-11.88a10.53,10.53,0,0,1,8.13-3.53,10.34,10.34,0,0,1,2.09.14l0.07-10.58a8.92,8.92,0,0,0-2.59-.29,11.49,11.49,0,0,0-11.16,8L395,642.39H383.22Zm-22.32-5.11a12.73,12.73,0,0,0,1.44,5.11h12.31a6.59,6.59,0,0,1-2-4.61V657.94c0-10.73-5.54-17.14-20.16-17.14-13.53,0-19.22,7.41-18.94,14.9l10.58,0.22c0-3.31,2.52-6.48,8.71-6.48,5.9,0,7.85,2.81,7.85,5,0,1.73-1.15,3.46-4.39,4l-6.91,1.15c-9.86,1.8-12.53,3.67-14.4,5.33a12.33,12.33,0,0,0-4.18,9.29c0,7.41,5.83,14.18,17.14,14.18C354.42,688.47,358.31,686.17,360.83,682.06Zm0.07-18.43-0.07,5.62c0,6.34-4,10.3-10.8,10.3-5,0-7.49-3-7.49-5.76,0-2.16.72-4.47,8.28-6.55l5.26-1.51A14,14,0,0,0,360.91,663.63Zm-56.45,23.55h12.1V650.31h8.71v-8l-8.78.07v-0.93c0-4,.72-5.11,1.51-6s2.3-1.8,5.26-1.73h2v-8.93h-6.91c-4.1,0-15,.72-13.9,17.57l-6.55-.07,0.07,8.06h6.48v36.79ZM278,682.57l0.5,4.61h12V624.82H278.32v22.61c-2.16-3.53-7.2-6.48-12.89-6.48-10,0-19.94,8.43-19.94,24a26.69,26.69,0,0,0,5.83,17.28A17.2,17.2,0,0,0,265,688.69,15.88,15.88,0,0,0,278,682.57Zm-9.5-4.32c-5.69,0-10.66-4-10.66-13.53,0-10.66,5.26-14.4,10.15-14.4s10.15,3.74,10.15,14C278.18,674.29,273,678.17,268.53,678.24ZM197,687.17h12.1l0.07-25.06c0-3.6.72-5.26,1.65-6.62a9.07,9.07,0,0,1,7.34-3.74c4.17,0,7.13,2.74,7.13,7.71v27.72h12V655.57c0-8.43-6.12-14.76-15.41-14.76-6.41,0-10.95,3.38-12.46,6.91l-0.5-5.26-11.81-.07Zm-22.32-5.11a12.8,12.8,0,0,0,1.44,5.11H188.4a6.57,6.57,0,0,1-2-4.61V657.94c0-10.73-5.54-17.14-20.16-17.14-13.53,0-19.22,7.41-18.94,14.9l10.58,0.22c0-3.31,2.52-6.48,8.71-6.48,5.91,0,7.85,2.81,7.85,5,0,1.73-1.15,3.46-4.39,4l-6.91,1.15c-9.86,1.8-12.53,3.67-14.4,5.33a12.34,12.34,0,0,0-4.17,9.29c0,7.41,5.83,14.18,17.14,14.18C168.24,688.47,172.12,686.17,174.64,682.06Zm0.07-18.43-0.07,5.62c0,6.34-4,10.3-10.8,10.3-5,0-7.49-3-7.49-5.76,0-2.16.72-4.47,8.28-6.55l5.26-1.51A14,14,0,0,0,174.72,663.63Zm-58.17,23.55h12.1V667.3c0-6.69,1.65-9.79,3.67-11.88a10.54,10.54,0,0,1,8.14-3.53,10.36,10.36,0,0,1,2.09.14l0.07-10.58a8.92,8.92,0,0,0-2.59-.29,11.49,11.49,0,0,0-11.16,8l-0.43-6.77H116.62Zm-59.25,0h32c5.83,0,8.71-1,11.81-3.17,4.39-3.1,7-7.85,7-14.11,0-8.14-4.68-14.11-12.31-16.05a13.26,13.26,0,0,0,10.08-13.25,15,15,0,0,0-7.13-13.32c-2.52-1.58-5-2.45-10.44-2.45h-31v62.35Zm13-10.15V659.24l15.19-.07c5.69,0,9.36,4,9.36,8.71a9.11,9.11,0,0,1-9.29,9.22Z"/><path class="c" d="M166.71,187.13L35.48,318.36,166.71,448.92,297.28,580.24,428.5,448.92,559.82,317.7,428.5,187.13C357,114.9,297.94,55.86,297.94,55.86c-0.67,0-59.67,59-131.23,131.27"/><path class="a" d="M407.68,208L518.14,317.7,407.68,428.11,297.28,539.22,187.54,428.11,77.08,317.7,187.54,208C248,146.82,297.28,97.54,297.94,97.54c0,0,49.36,49.28,109.74,110.41"/><path class="b" d="M297.94,162.14c-16.65,31.21,3.51,48.61-18.73,94.47-11.14-9.06-4.88-43.77-27.79-44.44,3.51,10.39.71,14.56,0.71,18.73-2.79,14.56-7.64,28.46,2.79,47.9-16-7.64-16.65-21.53-29.88-30.55,2.75,14.56-3.51,45.11,13.9,75-16-2.09-20.86-7.64-38.18-24.28,18,93,31.21,95.8,97.18,100.69-4.84-.67-38.18-5.55-50-43.77-0.66-9.72-1.37,8.34,30.59,8.34-20.15-32-14.61-25.7-12.52-44.44,8.3,13.19,1.37,13.9,25,23.62-7.64-23.62,11.1-40.26,7.68-67.39,4.84,11.81,23.57,9.72,22.86,67.39,15.32-17.4,16.7-5.59,24.33-24.33,0.67,10.43,4.88,23.66-16,45.86,5.55,1.38,14.56,2.75,29.21-7-14.65,16-1.42,16-37.56,42.35,45.15,0.76,74.32-27.79,73.65-90.3-1.42,5.59-2.79,16-27.12,19.49,15.32-15.32,23.66-45.19,11.14-70.14-4.13,4.13-10.43,22.86-26.37,27.79,7.59-13.23,6.26-30.54,6.26-30.54s2.08-23-11.81-41c-4.17,28.46-3.51,42.35-21.58,46.52,2.75-16.65,3.51-24.32-5.55-43.06C311.17,199.61,300.79,180.21,297.94,162.14ZM223.63,415.63v16.65H382V415.63H223.63Z"/></svg>