<svg xmlns="http://www.w3.org/2000/svg" viewBox="0 0 595.28 850.36"><defs><style>.a{fill:#e5e8eb;}.a,.b,.c{fill-rule:evenodd;}.b{fill:#000100;}.c{fill:#ad1922;}</style></defs><title>4103_C</title><polyline class="a" points="0 850.36 595.28 850.36 595.28 0 0 0 0 850.36"/><path class="b" d="M92.64,678.67c-15,0-17.5-16.77-17.5-22.53,0-15.62,8.93-22.68,17.21-22.68s17.21,7.12,17.21,22.68a27.51,27.51,0,0,1-4.75,16.13A14.56,14.56,0,0,1,92.64,678.67Zm407.29-10.58,33.26,0.07c0-13.25-6-27.36-22.68-27.36-17.2,0-22.53,13.61-22.53,23.83,0,14.9,9.86,24.12,22.39,24.12s20.16-6.77,22-14.62l-12.1-.79c-2.3,4.11-5.47,5.83-9.36,5.83C505.26,679.17,500.58,675.29,499.93,668.09Zm0.5-8.71c0.72-5.47,5.25-9.22,9.79-9.22,5,0,9.15,3.39,10,9.22h-19.8ZM467.1,682.56l0.5,4.61h11.95l-0.07-62.35h-12.1v22.61c-2.16-3.53-7.2-6.48-12.88-6.48-10,0-19.94,8.43-19.94,24a26.66,26.66,0,0,0,5.83,17.28A17.15,17.15,0,0,0,454,688.68,15.93,15.93,0,0,0,467.1,682.56Zm-9.51-4.32c-5.69,0-10.65-4-10.65-13.53,0-10.66,5.18-14.4,10.15-14.4s10.15,3.74,10.15,14C467.24,674.28,462.06,678.17,457.59,678.24ZM386,687.17h12.1l0.07-25.06c0-3.6.72-5.25,1.65-6.62a9,9,0,0,1,7.34-3.74c4.11,0,7.13,2.74,7.13,7.71v27.72h12V655.56c0-8.43-6.19-14.76-15.41-14.76-6.48,0-10.94,3.38-12.45,6.91l-0.5-5.25-11.88-.07Zm-22.32-5.11a12.73,12.73,0,0,0,1.44,5.11h12.31a7.05,7.05,0,0,1-2.09-4.61l0.07-24.62c0-10.73-5.62-17.14-20.16-17.14-13.61,0-19.22,7.41-18.94,14.9l10.58,0.22c0-3.31,2.52-6.48,8.71-6.48,5.83,0,7.85,2.81,7.85,5,0,1.73-1.15,3.46-4.39,4l-6.91,1.15c-9.86,1.8-12.53,3.67-14.47,5.33a12.52,12.52,0,0,0-4.11,9.29c0,7.41,5.83,14.18,17.14,14.18C357.3,688.46,361.12,686.16,363.71,682.06Zm0.07-18.43-0.07,5.62c0,6.34-4,10.29-10.87,10.29-5,0-7.42-3-7.42-5.76,0-2.16.72-4.47,8.28-6.55l5.26-1.51A14,14,0,0,0,363.78,663.62Zm-58.17,23.54h12.1V667.29c0-6.69,1.66-9.79,3.67-11.88a10.52,10.52,0,0,1,8.13-3.53,10.36,10.36,0,0,1,2.09.14V641.45a8.09,8.09,0,0,0-2.52-.29,11.64,11.64,0,0,0-11.23,8l-0.36-6.77H305.68ZM264,668.09l33.26,0.07c0-13.25-6-27.36-22.68-27.36-17.2,0-22.53,13.61-22.53,23.83,0,14.9,9.86,24.12,22.39,24.12s20.16-6.77,22-14.62l-12.1-.79c-2.3,4.11-5.47,5.83-9.36,5.83C269.32,679.17,264.64,675.29,264,668.09Zm0.5-8.71c0.72-5.47,5.25-9.22,9.79-9.22,5,0,9.14,3.39,10,9.22H264.5Zm-33.33,23.18,0.5,4.61h11.95l-0.07-62.35h-12.1v22.61c-2.16-3.53-7.2-6.48-12.89-6.48-10,0-19.94,8.43-19.94,24a26.68,26.68,0,0,0,5.83,17.28,17.16,17.16,0,0,0,13.61,6.48A15.94,15.94,0,0,0,231.17,682.56Zm-9.51-4.32c-5.69,0-10.66-4-10.66-13.53,0-10.66,5.19-14.4,10.15-14.4s10.15,3.74,10.15,14C231.31,674.28,226.13,678.17,221.66,678.24Zm-43.56,8.93h12V642.32H178.17Zm0.07-51.55h12v-10.8h-12v10.8ZM126,687.17h13.39l9.36-14,8.21,14h14.4L155.5,663.7l14.11-21.38H156.86l-7.41,12.6-7.34-12.53h-14l14.18,21.38Zm-33.62,2c21.74,0,30.31-19,30.31-33.34,0-14.9-9.43-33-29.88-33-10.94,0-18.65,4.25-24,11.66A36.91,36.91,0,0,0,62,656.14C62,673.42,73,689.19,92.35,689.19Z"/><path class="c" d="M166.77,187.13L35.54,318.36,166.77,448.92,297.33,580.23,428.56,448.92,559.87,317.69,428.56,187.13C357.08,114.9,298,55.86,298,55.86c-0.66,0-59.66,59-131.23,131.27"/><path class="a" d="M407.74,208L518.19,317.69,407.74,428.77,297.33,539.22,187.59,428.1,77.14,317.69,187.59,208C248,146.82,297.33,97.54,298,97.54c0,0,49.37,49.28,109.74,110.41"/><path class="b" d="M295.24,128.09c-8.3,9,0,45.15-16.65,79.15-9.06-9-12.52-26.37-22.29-35.43,4.93,13.23-9.68,12.56-4.13,59.09-7.64-2.09-8.35-4.93-25.66-26.42,3.42,20.82,1.33,33.3,5.51,56.25,0,0-4.17-.71-25-15.93,6.92,22.19-4.84,69.38,21.57,102.06h0c2,29.83,22.86,54.87,51.36,61.8h-50.7v21.53H370.22V408.66H315.4a68.2,68.2,0,0,0,50-53.45h0c6.93-11.14,38.22-47.23,13.9-104.85,0,0-7,12.47-19.44,16,0,0,16-27.12,2.75-49.32,0,0-4.17,15.93-17.31,16.64,0,0,6.21-34.72-11.14-56.24-6.26,14.61,3.46,20.11-17.36,32.67C313.31,164.89,304.26,157.25,295.24,128.09ZM296.66,292c27.75,0,49.94,22.2,49.94,49.33a49.74,49.74,0,0,1-49.94,50c-27.13,0-49.32-22.2-49.32-50A49.47,49.47,0,0,1,296.66,292Zm69.43-7.68c0.66,7.68.66,25.7-2.79,36.14h0a90,90,0,0,0-14.61-25C352.91,292.7,359.84,287.15,366.09,284.31Zm-137.49-7.59s6.21,6.26,22.86,13.9a71.86,71.86,0,0,0-14.56,18.07A256.12,256.12,0,0,1,228.61,276.72Zm104.85-22.95s2.75,20.86,6.88,34.05A76.25,76.25,0,0,0,318.15,276C321.61,269.08,327.21,260,333.46,253.77Zm-72.23-10.39s2.75,20.11,11.06,34a130.52,130.52,0,0,0-16,9.05C253.56,265.57,259.81,260.74,261.23,243.38ZM291.07,226c7.68,5.59,13.9,13.9,15.27,29.88,0.71,7.64,3.46,11.14,5.55,18.78-4.84-1.37-9.72-1.37-14.56-1.37A72.55,72.55,0,0,0,280,275.34C278.59,251.68,291.07,256.61,291.07,226Z"/></svg>