<svg xmlns="http://www.w3.org/2000/svg" viewBox="0 0 595.28 850.37"><defs><style>.a{fill:#e5e8eb;}.a,.b,.c{fill-rule:evenodd;}.b{fill:#000100;}.c{fill:#ad1922;}</style></defs><title>4104_C</title><polyline class="a" points="0 850.37 595.28 850.37 595.28 0 0 0 0 850.37"/><path class="b" d="M58.44,663.84H73.92a16.36,16.36,0,0,1-16.49,14.69c-9,0-17.49-6.84-17.49-22.25,0-12.67,6.77-23,17.71-23a14.35,14.35,0,0,1,14.47,11.3l12.6-.43c-1.3-6.26-3.82-10.58-7.63-14.11-4.75-4.39-11.37-7.2-20.37-7.2C37.85,622.88,27,638.72,27,656.5c0,11.09,3.6,19.08,9.51,24.77a26.11,26.11,0,0,0,18.65,7.92,24.87,24.87,0,0,0,11.81-2.59,18.41,18.41,0,0,0,7.85-7.71l0.57,8.28H85l-0.07-33H58.44v9.65ZM535,668.09l33.26,0.07c0-13.25-6-27.36-22.68-27.36-17.21,0-22.46,13.61-22.46,23.83,0,14.9,9.79,24.12,22.32,24.12s20.23-6.77,22-14.62l-12.1-.79c-2.3,4.11-5.47,5.83-9.36,5.83C540.32,679.18,535.64,675.29,535,668.09Zm0.5-8.71a10.36,10.36,0,0,1,9.86-9.22c4.89,0,9.14,3.39,9.93,9.22H535.5Zm-42.33,27.79h12.1V667.3c0-6.69,1.65-9.79,3.67-11.88a10.53,10.53,0,0,1,8.14-3.53,10.34,10.34,0,0,1,2.09.14l0.07-10.58a8.86,8.86,0,0,0-2.59-.29,11.49,11.49,0,0,0-11.16,8L505,642.39H493.24Zm-22.32-5.11a12.8,12.8,0,0,0,1.44,5.11H484.6a6.57,6.57,0,0,1-2-4.61V657.94c0-10.73-5.54-17.14-20.16-17.14-13.53,0-19.22,7.41-18.94,14.9l10.58,0.22c0-3.31,2.52-6.48,8.71-6.48,5.91,0,7.85,2.81,7.85,5,0,1.73-1.15,3.46-4.39,4l-6.91,1.15c-9.86,1.8-12.53,3.67-14.4,5.33a12.27,12.27,0,0,0-4.1,9.29c0,7.41,5.76,14.18,17.06,14.18C464.44,688.47,468.32,686.17,470.84,682.06Zm0.07-18.43-0.07,5.62c0,6.34-4,10.3-10.8,10.3-5,0-7.49-3-7.49-5.76,0-2.16.72-4.47,8.28-6.55l5.26-1.51A14,14,0,0,0,470.92,663.63Zm-50.47,23.54h12.1V624.82H420.59Zm-21.46,0h12.1V624.82H399.14Zm-21-5.11a19.2,19.2,0,0,0,1.59,5.11h12.16c-0.65-.65-1.87-2.67-1.87-6.34l-0.15-22.89c-0.07-4-.36-5.11-0.65-6-1.8-6.19-6.84-11.09-19-11.09-14,0-19.44,7.06-19.44,14.9l10.58,0.22c0.5-3,.94-3.6,1.95-4.47,1.08-1.08,3.38-2.16,7-2.16,5.69,0,7.78,3,7.78,5.11s-1.3,3.6-4.61,4.25l-12.1,2.08c-9.07,1.66-13.32,7.49-13.32,13.39,0,7.78,6,14.33,16.85,14.33C372.21,688.47,376.24,685.44,378,682.06ZM378,663.34L378,670c-0.29,5.61-4.11,9.43-10.66,9.43-5,0-7.49-3-7.49-5.62,0-2.16,1.08-4.75,8.21-6.62l5.19-1.3A11.47,11.47,0,0,0,378,663.34Zm-8.86-26.21a6.25,6.25,0,0,0,6-6.19,6.31,6.31,0,0,0-6.19-6.34,6.39,6.39,0,0,0-6.34,6.34A6.23,6.23,0,0,0,369.18,637.13Zm-0.07-2.59a3.64,3.64,0,0,1-3.89-3.6,3.92,3.92,0,0,1,3.67-3.82,3.66,3.66,0,0,1,3.67,3.74A3.6,3.6,0,0,1,369.11,634.54Zm-69.19,52.63H312V662.55c0-7.34,4-10.73,9-10.73,4.25,0,7.2,2.45,7.2,8.06l-0.07,27.29h12.1V656.28c0-5.47-1.87-9.14-4.76-11.66A16.47,16.47,0,0,0,325,640.81c-6.55,0-11,3.09-13,7.2L312,624.82h-12.1v62.35Zm-41.61-19.08,33.26,0.07c0-13.25-6-27.36-22.68-27.36-17.21,0-22.46,13.61-22.46,23.83,0,14.9,9.79,24.12,22.32,24.12s20.23-6.77,22-14.62l-12.1-.79c-2.3,4.11-5.48,5.83-9.36,5.83C263.63,679.18,259,675.29,258.31,668.09Zm0.5-8.71a10.36,10.36,0,0,1,9.86-9.22c4.9,0,9.14,3.39,9.94,9.22h-19.8Zm-65,27.79h11.88l0.72-4.61a15.53,15.53,0,0,0,12.82,6c9.93,0,19.72-8.21,19.72-24,0-15.41-9.93-23.83-19.58-23.83-6.48,0-11.09,2.88-13.39,6.77l-0.07-22.75h-12.1v62.35Zm22.46-8.93c-5,0-10.22-4-10.22-14s5.26-14,10.15-14c5.4,0,10.37,3.74,10.37,14.11C226.56,674.21,221.44,678.24,216.26,678.24Zm-72.5-6c0.29,8.42,7.34,16.48,21.09,16.48,14,0,20.09-7.49,20.09-15.48a12.39,12.39,0,0,0-2.74-7.85c-1.65-2.09-3.81-3.74-9.14-5l-12.89-3c-2.67-.65-3.74-2.37-3.74-4S158,649,163.84,649c6.41,0,9.22,3.39,9.29,7l10.66-.14A15.91,15.91,0,0,0,177.31,644c-2.59-1.87-6.77-3.46-13.25-3.46-13,0-18.65,7-18.65,14.62a11.34,11.34,0,0,0,3.17,8.43c1.59,1.73,3.53,3.1,8.49,4.17L166.8,670c5.69,1.22,6.33,3,6.33,5.11s-1.87,5.11-8.49,5.11c-6.34,0-9.58-3.45-9.93-8.06Zm-20.66,9.79a12.73,12.73,0,0,0,1.44,5.11h12.31a6.59,6.59,0,0,1-2-4.61V657.94c0-10.73-5.54-17.14-20.16-17.14-13.53,0-19.22,7.41-18.94,14.9l10.58,0.22c0-3.31,2.52-6.48,8.71-6.48,5.91,0,7.85,2.81,7.85,5,0,1.73-1.15,3.46-4.39,4l-6.91,1.15c-9.86,1.8-12.53,3.67-14.4,5.33a12.26,12.26,0,0,0-4.11,9.29c0,7.41,5.76,14.18,17.06,14.18C116.69,688.47,120.58,686.17,123.1,682.06Zm0.07-18.43-0.07,5.62c0,6.34-4,10.3-10.8,10.3-5,0-7.49-3-7.49-5.76,0-2.16.72-4.47,8.28-6.55l5.26-1.51A14,14,0,0,0,123.17,663.63Z"/><path class="c" d="M166.71,187.06L35.48,318.29,166.71,448.85,297.28,580.17,428.5,448.85,559.82,317.62,428.5,187.06C357,114.83,297.94,55.79,297.94,55.79c-0.67,0-59.67,59-131.23,131.27"/><path class="a" d="M407.68,207.88L518.14,317.62,407.68,428,297.28,539.15,187.54,428,77.08,317.62,187.54,207.88C248,146.75,297.28,97.47,297.94,97.47c0,0,49.36,49.28,109.74,110.41"/><path class="b" d="M353.52,263.42h-1.37c-1.38,0-171.54,45.86-172.25,45.86-4.84,2.09-7.63,6.93-9,14.57v6.26a33.79,33.79,0,0,0,1.38,8.34c2.79,11.81,9.76,20.86,18.07,23h3.46c0.71,0,169.45-45.86,171.54-45.86,3.46-1.42,5.59-3.51,7.68-6.93,0.66-2.08,1.33-4.17,2.08-7a8.15,8.15,0,0,1,1.33-4.84,10.71,10.71,0,0,1,5.55-4.17s9.06-2.09,18.73-4.88,18.07-4.84,18.82-4.84c4.13-2.09,5.51-7.64,2.75-13.23a9.38,9.38,0,0,0-5.59-4.84h-3.42s-8.39,2.09-18.07,4.84-18.07,4.88-18.07,4.88h-2c-2.08,0-2.84,0-4.17-.71a8.77,8.77,0,0,1-4.22-3.42c-2.75-2.84-4.84-4.93-7.59-6.3-1.42,0-2.09-.71-3.51-0.71h-2.08"/></svg>