<svg xmlns="http://www.w3.org/2000/svg" viewBox="0 0 595.28 850.37"><defs><style>.a{fill:#e5e8eb;}.a,.b,.c{fill-rule:evenodd;}.b{fill:#000100;}.c{fill:#ad1922;}</style></defs><title>4105_C</title><polyline class="a" points="0 850.37 595.28 850.37 595.28 0 0 0 0 850.37"/><path class="b" d="M117.55,687.17h12.89V660.53h27.22V650.31H130.51v-15h32V624.82H117.55v62.35Zm326.8-19.08,33.27,0.07c0-13.25-6-27.36-22.68-27.36-17.21,0-22.54,13.61-22.54,23.83,0,14.9,9.86,24.12,22.39,24.12s20.23-6.77,22-14.62l-12.1-.79c-2.3,4.11-5.48,5.83-9.36,5.83C449.68,679.18,445,675.29,444.35,668.09Zm0.51-8.71a10.36,10.36,0,0,1,9.86-9.22c4.9,0,9.14,3.39,9.94,9.22h-19.8Zm-33.34,23.18,0.5,4.61H424V624.82h-12.1v22.61c-2.23-3.53-7.27-6.48-13-6.48-10,0-19.94,8.43-19.94,24a26.69,26.69,0,0,0,5.83,17.28,17.19,17.19,0,0,0,13.68,6.48A15.89,15.89,0,0,0,411.52,682.57ZM402,678.24c-5.69,0-10.65-4-10.65-13.53,0-10.66,5.26-14.4,10.15-14.4s10.15,3.74,10.15,14C411.66,674.29,406.48,678.17,402,678.24Zm-71.57,8.93h12.1l0.07-25.06c0-3.6.72-5.26,1.66-6.62a9.06,9.06,0,0,1,7.34-3.74c4.18,0,7.13,2.74,7.13,7.71v27.72h12V655.57c0-8.43-6.12-14.76-15.4-14.76-6.41,0-10.95,3.38-12.46,6.91l-0.5-5.26-11.81-.07Zm-22.32-5.11a12.73,12.73,0,0,0,1.44,5.11h12.31a6.59,6.59,0,0,1-2-4.61V657.94c0-10.73-5.54-17.14-20.16-17.14-13.46,0-19.15,7.41-18.86,14.9l10.58,0.22c0-3.31,2.52-6.48,8.64-6.48,5.9,0,7.85,2.81,7.85,5,0,1.73-1.15,3.46-4.39,4l-6.84,1.15c-9.86,1.8-12.53,3.67-14.4,5.33a12.34,12.34,0,0,0-4.17,9.29c0,7.41,5.83,14.18,17.14,14.18C301.72,688.47,305.61,686.17,308.13,682.06Zm0.07-18.43-0.07,5.62c0,6.34-4,10.3-10.73,10.3-5,0-7.49-3-7.49-5.76,0-2.16.72-4.47,8.21-6.55l5.26-1.51A14,14,0,0,0,308.2,663.63Zm-37.73,23.55v-9.29h-4.54a4.33,4.33,0,0,1-3.45-1.65c-0.22-.36-0.58-1-0.58-3.45V650.53H270v-8.21H262l-0.14-14.12h-12v14.18h-6.34v8.21l6.41-.07-0.07,23.11c0,10.23,4.17,13.54,10.8,13.54h9.79Zm-45.21-5.11a19.18,19.18,0,0,0,1.58,5.11H239c-0.65-.65-1.87-2.67-1.87-6.34L237,657.94c-0.07-4-.36-5.11-0.65-6-1.8-6.19-6.84-11.09-19-11.09-14,0-19.44,7.06-19.44,14.9l10.58,0.22c0.5-3,.93-3.6,1.94-4.47,1.08-1.08,3.39-2.16,7-2.16,5.61,0,7.78,3,7.78,5.11s-1.3,3.6-4.61,4.25l-12.1,2.08c-9.07,1.66-13.32,7.49-13.32,13.39,0,7.78,6,14.33,16.85,14.33C219.5,688.47,223.53,685.44,225.26,682.06Zm0.07-18.72-0.07,6.7c-0.29,5.61-4.11,9.43-10.66,9.43-5,0-7.49-3-7.49-5.62,0-2.16,1.08-4.75,8.21-6.62l5.18-1.3A11.44,11.44,0,0,0,225.33,663.34ZM218.06,637l12.1,0.07,0.07-12.16-12.1-.07Zm-15.7,0h12l0.14-12.17h-12.1Zm-35.21,50.18h12.1V667.3c0-6.69,1.66-9.79,3.67-11.88a10.52,10.52,0,0,1,8.13-3.53,10.34,10.34,0,0,1,2.09.14l0.07-10.58a8.91,8.91,0,0,0-2.59-.29,11.49,11.49,0,0,0-11.16,8L179,642.39H167.23Z"/><path class="c" d="M166.71,187.06L35.48,318.29,166.71,448.85,297.28,580.17,428.5,448.85,559.82,317.62,428.5,187.06C357,114.83,297.94,55.79,297.94,55.79c-0.67,0-59.67,59-131.23,131.27"/><path class="a" d="M407.68,207.88L518.14,317.62,407.68,428,297.28,539.15,187.54,428,77.08,317.62,187.54,207.88C248,146.75,297.28,97.47,297.94,97.47c0,0,49.36,49.28,109.74,110.41"/><path class="b" d="M314.68,213.43h-1.42a15,15,0,0,0-8.35,2.79c-1.37.71-3.46,2.09-4.13,3.46a11.82,11.82,0,0,0,2.08,16,21.38,21.38,0,0,0,4.13,3.46,34.34,34.34,0,0,0,9.72,2.08c2.8,0.67,13.85,2.09,23.57,4.17,9.77,1.38,25,4.17,32.72,5.55,10.39,1.42,14.56,2.09,15.22,2.09,0.71,0.66,2.08,1.42,2.8,2.08l0.71,0.66a2.67,2.67,0,0,0-.71,1.42A6.33,6.33,0,0,0,389,262v5.55c0.71,2.84,2.09,4.93,4.17,5.59h0a11.77,11.77,0,0,1-.71,4.13,40.78,40.78,0,0,0-2.09,7.68c-2.08,4.84-2.08,4.84-1.37,6.93,0,4.13,1.37,6.21,3.46,7.63,1.37,0.67,2.79.67,4.88,0,2.08-1.42,3.42-4.84,3.42-9,0-2.08,0-2.79-1.33-7,0-1.42-.76-3.46-0.76-4.17-1.33-2.75-2-6.21-1.33-6.88l1.33-.75a19.28,19.28,0,0,1,2.09-3.42v-4.22c0-2.75,0-4.17-1.33-6.26S398,255.12,398,253.7v-4.84c0-1.37,2.08-15.27,3.51-24.28a12.81,12.81,0,0,0,.66-3.51h0c-0.66,0-1.42.71-2.75,2.09-2.08,2.08-2.79,2.75-4.88,3.5h-2.08a30,30,0,0,1-5.59-.76c-20.78-4.13-62.46-11.76-67.3-12.47h-4.84ZM125.78,322.51v27H271.57v-27H218.79l-0.71.66a23.63,23.63,0,0,1-14.56,6.93h-6.93c-1.42-.67-3.51-0.67-4.17-1.33-1.42,0-3.46-1.42-4.17-2.08a8.49,8.49,0,0,1-3.46-3.51l-0.66-.66H125.78ZM373,307.9a2.28,2.28,0,0,0,1.33.71,21.44,21.44,0,0,0,9.72,4.17H367.42c-2.09,0-3.46-1.42-4.88-2.84-0.66-.67-0.66-0.67,0-0.67h2.08c3.46,0,5.55,0,7-.66A2.67,2.67,0,0,0,373,307.9Zm-191-.71a0.67,0.67,0,0,1,.67.71,1.42,1.42,0,0,1,.66,1.37v3.51L182.7,312c-0.67,0-.67-0.66-0.67-1.33,0.67-1.42,0-2.79,0-3.5h0Zm192.31-5.55h-0.66c-2.75,1.42-4.17,2.08-9.06,2.08-4.17,0-4.84,0-6.26.71a7,7,0,0,0-2.75,3.46,2.49,2.49,0,0,0,.67,2c0,0.75.75,2.08,0.75,2.84H346.56c-4.17.66-6.26,2.08-7.59,4.84,0,0.66-.71,2.08-0.71,2.75v2.13h-2.09c-1.37,0-2.08,0-2.75.66a8.6,8.6,0,0,0-6.26,4.84c-0.75.76-.75,1.42-0.75,2.84a8.06,8.06,0,0,0,4.93,7.59c1.38,0.71,2.75.71,4.84,0.71h1.38v3.51c0.71,2.08,2.08,3.42,4.17,4.84a17.41,17.41,0,0,0,6.26,1.37h0v0.67a7.89,7.89,0,0,0,2.08,5.59c2.09,2.08,4.88,2.75,8.3,3.42,2.84,0,13.23.75,24.33,0.75H394.5c7.64,0,13.9-.75,18-2.08,2.09-.76,3.51-0.76,7.68-2.84,1.37-.66,2.75-1.33,4.17-2A40.14,40.14,0,0,1,434.1,351h2.09v-5.55H434.1a46.78,46.78,0,0,0-10.43,1.37,44.85,44.85,0,0,0-6.21,2.75,54.15,54.15,0,0,1-7.68,2.79A136.26,136.26,0,0,1,391,353.72c-4.22.66-24.33,0-30.59-.67-3.42,0-4.84-.71-5.5-1.42a2.36,2.36,0,0,1-1.42-.66c0-.71.66-1.42,2.08-1.42,1.42-.67.67-0.67,14.56-0.67H382l-2.75-2.79-2.79-2.75H361.87c-16,0-15.32,0-16.65-.66s-2.84-1.42-2.08-2.18c0-.66,1.33-0.66,2.75-1.33h25.71V333.6h-36.8c-1.37-.71-2.8-2.08-2.8-2.75a3.43,3.43,0,0,1,1.42-2.08c1.37-.76,0-0.76,20.11-0.76h18.07v-5.5h-25c-1.33,0-2.75-.71-2.75-1.42a1.37,1.37,0,0,1,.66-1.38c0.76-.71.76-0.71,2.09-0.71,0,0,4.22-.71,18.07-0.71H382v1.42c0.71,7.64,5.59,13.19,16,15.28a30.33,30.33,0,0,0,5.59,1.37l0.66-5.51a2.28,2.28,0,0,0-1.42-.75c-5.5-.67-9.68-2.09-12.48-4.84a10.82,10.82,0,0,1-2.08-2.75v-2.8l-0.66-1.42h0.66c0.71,0,17.4-3.42,17.4-3.42a49.68,49.68,0,0,0-4.93-1.42,17.6,17.6,0,0,1-4.84-.66h0V312h0.71A7.68,7.68,0,0,1,400,310.7c0.67-.75.67-0.75,1.42-0.75l0.66-.67,1.42,0.67c1.33,0.75,3.46,2.08,8.3,4.93,4.17,2.09,4.84,2.75,5.59,2.75,2.75,0.66,11.81,1.37,17.31,1.37h1.42v-5.55h-2.75c-5.59,0-11.85-.66-13.9-1.42-0.76,0-.76,0-4.93-2.08-6.93-4.13-9.72-5.51-12.48-6.22l-1.42-.66-0.67.66c-1.42.71-2.08,1.38-3.46,2.09a21.18,21.18,0,0,1-7.64,1.37,19.84,19.84,0,0,1-6.26-.66c-2.8-.71-4.84-2.09-7.59-4.22A0.68,0.68,0,0,1,374.34,301.64ZM168.14,282.15a11.22,11.22,0,0,0-2.09,1.42c-2.84,2.09-2.84,2.09-2.08,2.09l1.33,1.42c2.85,3.46,2.85,4.13,3.51,5.55a1.36,1.36,0,0,1,.66,1.37v2a3.65,3.65,0,0,0-.66,2.08,7.89,7.89,0,0,0,2.08,5.59c0.67,1.38,1.38,1.38,3.46,2.8a5.1,5.1,0,0,1,2.08,1.37v2.79c0,2.09,0,2.75.67,3.42a12.83,12.83,0,0,0,4.17,4.88,14.17,14.17,0,0,1,3.5,2.8h0.66v-0.71h0l0.71,0.71a28.37,28.37,0,0,1,2.8,3.46s1.37-1.42,2-2.09l2.08-2.08h0a21.2,21.2,0,0,1-4.13-5.55v-2.75c0.66-2.09.66-4.88,0-5.59,0-2.08-1.42-3.46-3.51-4.88-1.33-.66-2.08-0.66-2.08-1.33H182.7l0.66-.75v-2.09c0.76-2.08,1.42-3.42,1.42-5.5v-1.42h-5.59v1.42c-0.66,1.37-.66,2.08-1.37,3.42a10.28,10.28,0,0,0-.71,4.17v1.42l-0.67-.67c-1.37-.75-1.37-0.75-1.37-1.42-0.71,0-.71-0.66,0-2.08a20.94,20.94,0,0,0-.71-6.93c-0.71-1.37-2.08-3.46-3.46-5.55-0.66-.76-1.42-1.42-2.08-2.08Zm63.17-2a9.29,9.29,0,0,0-1.42,2,11.89,11.89,0,0,0-2.75,2.08c-1.42,2.14-2.75,4.22-2.75,6.3v6.93c0,1.42,0,2.08-2.08,2.75-4.22,2.08-4.88,2.84-5.55,7.68v3.46a7.87,7.87,0,0,0-1.42,2.08v-0.66a6.14,6.14,0,0,0,0-4.88c-0.66-1.37-.66-2.08,0-2.79,0-.67.67-1.38,2.09-2,1.37-1.42,2.79-2.84,2.79-4.17,0.67-.76.67-1.42,0.67-2.84a15.46,15.46,0,0,0-.67-4.13,9,9,0,0,1-.71-3.46v-0.71l-5.59-1.37v1.37a24.65,24.65,0,0,0,.76,6.26,2.59,2.59,0,0,1,.66,2v0.76c-0.66.66-1.42,1.33-1.42,1.33-2.08,2.09-3.42,2.84-4.17,4.93a2.54,2.54,0,0,1-.67,2,6.58,6.58,0,0,0,.67,3.51v2.75a9.76,9.76,0,0,1-1.33,2.75c0,0.75-1.42,1.42-2.09,2.08l-0.71.76c0.71,0,3.46,4.13,3.46,4.13a0.67,0.67,0,0,0,.67-0.71,5.57,5.57,0,0,0,2.84-2.75h0.66v2.75h0.66a5.31,5.31,0,0,0,2.85-1.38c2-.71,3.46-2.79,4.79-4.88,0.76-1.33.76-2.09,0.76-4.84a11.42,11.42,0,0,0,.66-2.75c0-.71.66-0.71,1.42-0.71,2.75-1.38,4.17-2.75,4.84-4.17a18,18,0,0,0,.67-6.26v-4.17c0.71-1.38,2.79-4.13,4.17-6.22h0.71l-1.37-2.84A4.8,4.8,0,0,1,231.31,280.11Zm143-18.07h-2.08c0,0.71-1.33.71-2.09,0.71h-2.08v0.66c0.71,0.71,0,1.42-.66,3.51a10.06,10.06,0,0,0-.71,4.17,7.92,7.92,0,0,0,2.08,5.55,3.8,3.8,0,0,1,2.13,1.37,2.28,2.28,0,0,1,1.33.71,2.38,2.38,0,0,1,.76,2.08v1.33a7.18,7.18,0,0,0,0,5.59,29.68,29.68,0,0,0,4.84,6.26l0.66,1.38,2.08-2.09,2.09-2.08-1.37-1.38c-1.42-1.37-2.09-2.08-2.09-2.75a4.22,4.22,0,0,1-.71-2.85v-0.66c0-1.42.71-2.08,0-3.46,0-2.08-.66-2.79-1.37-4.17-0.71-.67-1.38-2.09-2.8-2.75-0.66-.67-1.33-0.67-1.33-1.42-0.76,0-.76-0.67-0.76-1.33a7,7,0,0,0,.76-2.08,11,11,0,0,0,.66-4.22ZM357,259.29a8.46,8.46,0,0,0-2.08,1.37c-1.42,1.38-2.08,2.09-2.08,2.09s0.66,0.66,1.33,1.37a13,13,0,0,0,1.42,2.13c0.67,1.33,2.09,3.42,2.09,4.84v1.42a5.2,5.2,0,0,0-.67,2,7.7,7.7,0,0,0,2.09,5.55,5.7,5.7,0,0,0,3.42,3.46c1.42,0,1.42.66,1.42,1.42,0.66,0,.66.67,0.66,1.38-0.66,2.08-.66,2.79.71,4.84,1.38,3.5,4.17,6.26,6.26,6.92a2.06,2.06,0,0,0,1.42.76l1.33-5.59h-0.66a29.82,29.82,0,0,1-3.51-4.13v-2.08a14.41,14.41,0,0,0-.66-4.93c-0.71-.66-0.71-1.33-2.08-2L365.33,278c-1.37,0-2.08-.71-2.08-1.37-0.71-.71-0.71-1.38,0-2.8v-4.17c-0.71-2.08-2-5.55-3.46-6.92C359.12,262,357,259.29,357,259.29Zm54.83-1.42v1.42c0,1.37,0,3.46,1.42,4.84,0.66,2.13.66,2.8,0,3.46,0,1.42,0,1.42-1.42,2.08a8.31,8.31,0,0,0-3.46,4.88,5.76,5.76,0,0,0,0,4.84,6.27,6.27,0,0,1-.71,3.51c-0.66,2.08-.66,2.75-2.79,4.17-0.67.66-1.33,1.37-1.33,1.37l3.46,4.17s2.75-2.09,3.46-2.8a11.8,11.8,0,0,0,2.79-4.84,12.52,12.52,0,0,0,.66-4.88v-4.17c0-.67,0-1.38,1.42-2.09a5.21,5.21,0,0,0,2.75-2.75,10.39,10.39,0,0,0,1.42-4.17c0-2.09,0-2.09-1.42-4.88a2.6,2.6,0,0,1-.66-2.09v-0.66l-1.42-.66h-2.75A2.23,2.23,0,0,0,411.86,257.87ZM432,253.7l-0.66.76a23,23,0,0,0-2.09,2.08c-2.84,2.75-3.51,4.13-4.22,6.22v5.59c0.71,2.08.71,2.75,0,3.42a1.39,1.39,0,0,1-.67,1.42c-2.79,0-4.17,2.08-5.59,4.13-0.66,1.42-.66,2.08-0.66,4.17s0,2.08-.66,3.51a8.77,8.77,0,0,1-3.51,3.46h-0.66c0,0.71,1.33,5.55,1.33,5.55a3.33,3.33,0,0,0,2.08-.71,12.12,12.12,0,0,0,6.26-6.92c0.71-1.38.71-2.14,0.71-4.22v-2h0.71c0-.71,0-1.37.67-1.37l0.71-.71a7.86,7.86,0,0,0,4.84-3.46c0-1.37.76-2,.76-3.46a11.41,11.41,0,0,0-.76-4.17c0-2.8,0-3.51,2.84-6.26,0.66-.71,2-2,2-2.79l0.71-.66ZM277.83,221.06c0.71,0,2.8.71,3.46,0.71a13.6,13.6,0,0,1,6.26,3.46c0,1.42.67,2.09,0.67,3.51-0.67,4.84-4.17,7.63-11.1,7.63-5.55.67-41.68,4.17-69.48,6.26a9.22,9.22,0,0,1-3.42.67l-1.37-9s3.46-.71,36.09-6.3c25.7-4.84,36.14-6.22,36.8-6.22s1.37,0,1.37-.71h0.71ZM316,219h4.88c6.93,1.42,32,5.59,61.8,11.14,7,1.37,11.81,2.08,11.81,2.08l-1.37,9s-7-.66-16-1.42c-34-2.75-52.79-4.13-60.42-4.84a20.62,20.62,0,0,0-5.55-.66c-4.17-1.42-7-3.46-7-7.64,0-3.5,3.46-6.26,7.63-7.68H316Zm-38.18-3.46h-3.51c-3.42.71-41.64,7.64-63.17,11.14C207,228,206.31,228,204.89,228c-0.66,0-2-.66-2.75-0.66-1.38-.67-2.13-1.42-4.22-3.51a9.19,9.19,0,0,0-1.33-2,2.28,2.28,0,0,0-1.42-.71,32.29,32.29,0,0,1,.67,6.93c2.08,10.48,4.17,21.57,4.17,22.95v6.26c-0.67,1.42-.67,2.08-2.09,4.84-1.33,3.46-2.08,4.22-2.08,6.3a5.7,5.7,0,0,0,.75,3.42c0.67,2.08,1.33,3.51,2.75,4.17h0v1.37a21.07,21.07,0,0,1-2.08,9.06,23.4,23.4,0,0,1-1.42,4.84c-1.33,4.17-1.33,4.84-1.33,6.92V301c0.66,3.46,2.08,5.55,4.17,6.22h2.75c1.42,0,2.08-.66,3.46-2.08a16,16,0,0,0,2.09-7c0-.66-0.67-1.33-1.38-4.84-1.37-6.21-2.08-9.06-2.75-11.81a24.38,24.38,0,0,0-.71-4.17c0-.66,0-0.66.71-0.66a5,5,0,0,0,4.79-4.13c0.76-1.42.76-2.08,0.76-4.17,0-2.85-.76-4.93-2.09-8.39a5,5,0,0,1-.71-2.75c0-.67,1.38-2.09,2.8-2.75,1.33,0,1.33,0,12.48-2.09,5.59-.75,16-2.79,23.61-4.17,16.7-2.8,24.33-4.22,31.26-4.88,2.79-.67,5.55-1.42,6.21-1.42,3.51-.67,7-3.42,9.06-6.22,2.75-3.46,3.51-6.92,2.08-10.43a14.1,14.1,0,0,0-9.72-9C281.3,215.52,280.63,215.52,277.83,215.52Z"/></svg>