<svg xmlns="http://www.w3.org/2000/svg" viewBox="0 0 595.28 850.36"><defs><style>.a{fill:#e5e8eb;}.a,.b,.c{fill-rule:evenodd;}.b{fill:#000100;}.c{fill:#ad1922;}</style></defs><title>4106_C</title><polyline class="a" points="0 850.36 595.28 850.36 595.28 0 0 0 0 850.36"/><path class="b" d="M201.07,663.84h15.48a16.36,16.36,0,0,1-16.48,14.69c-9,0-17.5-6.84-17.5-22.25,0-12.67,6.77-23,17.71-23a14.36,14.36,0,0,1,14.47,11.3l12.6-.43c-1.3-6.26-3.82-10.58-7.63-14.11-4.75-4.39-11.38-7.2-20.37-7.2-18.86,0-29.73,15.84-29.73,33.62,0,11.09,3.6,19.08,9.5,24.77a26.11,26.11,0,0,0,18.65,7.92,24.84,24.84,0,0,0,11.81-2.59,18.39,18.39,0,0,0,7.85-7.71l0.58,8.28h9.65l-0.07-33h-26.5v9.65ZM425.7,687.17v-9.29h-4.54a4.34,4.34,0,0,1-3.46-1.65c-0.22-.36-0.57-1-0.57-3.45V650.52h8.13v-8.21H417.2l-0.14-14.12h-12v14.18h-6.33v8.21l6.41-.07-0.07,23.11c0,10.23,4.18,13.54,10.8,13.54h9.79ZM348,689.62c0.58,4.25,1.87,6.62,4.39,9,2.74,2.59,7.77,5.11,16.41,5.11,9.72,0,15.91-3.6,18.94-7.49,2-2.74,3.17-5.19,3.17-12l-0.07-41.9-11.52-.07L379,647.79c-0.86-1.37-3.31-7-13.25-7-10.8,0-20.31,8.57-20.31,22.46s9.51,22.46,20.16,22.46c7.2,0,11.59-3.24,13.32-6.69v4.82c0,7.56-3.45,10.8-10.36,10.8-5.26,0-7.71-2.67-8.14-5.47Zm20.45-14.26c-5.91,0-10.8-4.25-10.8-12.45,0-7.27,5-11.81,10.51-11.81s10.58,4.54,10.58,12.1C378.76,671,373.64,675.36,368.46,675.36Zm-43.56,11.81H337V642.32H325ZM325,635.62h12v-10.8H325v10.8Zm-8.42,51.55v-9.29H312a4.34,4.34,0,0,1-3.46-1.65c-0.22-.36-0.57-1-0.57-3.45V650.52h8.13v-8.21h-8.06l-0.14-14.12H296v14.18H289.7v8.21l6.41-.07L296,673.63c0,10.23,4.11,13.54,10.73,13.54h9.79Zm-54.14,0h12.1V650.31h8.71v-8l-8.78.07v-0.93c0-4,.72-5.11,1.51-6s2.3-1.8,5.26-1.73h2v-8.93H276.3c-4,0-15,.72-13.89,17.57l-6.55-.07,0.07,8.06h6.48v36.79Zm-26.14,0h12.1V642.32h-12Zm0.07-51.55h12v-10.8h-12v10.8Z"/><path class="c" d="M166.77,187.06L35.54,318.28,166.77,448.85,297.33,580.17,428.56,448.85,559.87,317.62,428.56,187.06C357.08,114.83,298,55.79,298,55.79c-0.66,0-59.66,59-131.23,131.27"/><path class="a" d="M407.74,207.88L518.19,317.62,407.74,428,297.33,539.15,187.59,428,77.14,317.62,187.59,207.88C248,146.75,297.33,97.47,298,97.47c0,0,49.37,49.28,109.74,110.41"/><path class="b" d="M299.23,170.72c24.68,0,36.71,11.5,50.43,23.57l6.57,6,2.75,2.18c11,9.32,18.6,16.47,18.6,24.1,0,12.08-7.1,23-13.14,31.25l-1.11,2.22c0.58,3.82,2.22,10.39,2.22,17,0,9.9-5.5,15.89-11,19.76,8.75-3.86,19.18-8.79,23-10.43,5-2.75,9.32-9.32,12.08-12.61l1.11-2.18c3.28-4.39,9.32-9.32,17.53-9.32a11.66,11.66,0,0,1,8.21,3.82c3.28,2.75,4.39,7.15,4.39,12.08,5.46,3.28,8.21,8.79,8.21,12.6v7.68c0,7.1-4.93,12-11.5,12-4.39,0-8.26-1.64-11.54-3.28-2.71-1.06-5.46-2.71-6.57-2.71h-1.07a17,17,0,0,0-7.68,1.64c-0.58,0-37.29,18.6-46,23.53a2,2,0,0,0-.58,1.69c13.19,6,35.64,17,38.4,18.07l2.71,1.11c1.11,0.54,1.11,1.07,4.93,1.07,1.64,0,3.86-1.07,6.57-2.18,3.33-1.11,7.68-2.75,13.72-2.75,7.68,0,19.18,5.51,19.18,14.25,0,7.68-4.93,9.86-13.14,13.72l-3.29,1.64c-1.11,4.4-1.64,8.21-2.22,9.86-1.06,7.15-8.21,11.5-14.25,11.5-8.21,0-15.89-8.75-16.43-14.25-1.11-7.11-4.4-11.5-10.39-14.25l-40-19.71a49.3,49.3,0,0,1-8.74,6h-0.58c-7.64,3.82-15.32,7.68-20.25,7.68-5.5,0-17.53-4.39-24.15-7.68-2.71-1.64-4.93-2.75-7.1-4.39l-32.9,15.36-5.46,2.71c-6,2.75-9.32,7.15-9.86,14.25-1.11,5.5-8.79,14.25-17,14.25-6,0-13.14-4.35-14.25-11.5-0.58-1.64-1.11-5.46-2.22-9.86l-3.29-1.64c-8.21-3.86-13.14-6-13.14-13.72,0-8.75,11.5-14.25,19.76-14.25,5.46,0,9.86,1.64,13.14,2.75,2.75,1.11,4.93,2.18,7.1,2.18,3.29,0,3.29-.53,4.4-1.07l2.75-1.11c2.75-1.11,22.46-10.43,35.6-17a16.38,16.38,0,0,1-1.06-4.93c-13.19-6.57-42.22-21.35-42.22-21.35a20.44,20.44,0,0,0-8.21-1.64h-1.11c-1.11,0-3.82,1.64-6,2.71-3.82,1.64-7.68,3.28-12,3.28-6.57,0-11.55-4.93-11.55-12v-7.68c0-3.82,3.29-9.32,8.26-12.6,0.53-4.93,1.06-9.32,4.35-12.08a11.76,11.76,0,0,1,8.26-3.82c8.21,0,14.25,4.93,17.54,9.32l1.64,2.18c2.18,3.29,6.57,9.86,11.5,12.61,2.75,1.11,9.32,4.39,16.43,7.68a21.5,21.5,0,0,1-7.68-16.43c0-4.93,1.11-12.61,1.64-18.11l-1.06-1.64c-5.51-8.21-13.19-19.17-13.19-31.25,0-7.64,7.68-14.21,18.11-24.1l3.82-2.71a83.42,83.42,0,0,1,7.15-7.15c5.46-5.46,10.39-9.86,15.89-13.14C276.18,173.48,287.73,170.72,299.23,170.72ZM257.58,339.55c-10.43,4.93-33.43,15.89-36.18,17l-2.22,1.11c-2.18,1.11-3.82,1.64-8.21,1.64-3.82,0-6.57-1.11-9.86-2.18-2.75-1.11-6-2.75-10.39-2.75-5.51,0-12.08,3.82-12.08,6.57,0,2.22.54,2.75,7.11,6a9.83,9.83,0,0,1-.54-2.75A3.41,3.41,0,0,1,188,359.8a4.43,4.43,0,0,1,4.93,2.75c0,1.11,3.28,17.54,4.39,22.46,0.53,2.75,3.82,4.39,6.57,4.39,4.39,0,8.75-4.93,9.32-7.1A23.84,23.84,0,0,1,227.44,362l5.46-2.75,29.61-13.67A37.88,37.88,0,0,1,257.58,339.55Zm83.28-1.64a59.9,59.9,0,0,1-4.93,6L373.23,362c6,2.75,13.14,8.75,14.78,20.29,0,2.18,4.39,7.1,8.75,7.1,2.75,0,6-1.64,6.62-4.39,1.06-4.93,4.35-21.35,4.93-22.46,0-1.64,2.18-3.28,4.39-2.75s3.29,2.22,2.71,4.39a9.91,9.91,0,0,1-.53,2.75c6.57-3.29,7.11-3.82,7.11-6,0-2.75-6.57-6.57-11.5-6.57a23.19,23.19,0,0,0-11,2.75c-3.29,1.07-6,2.18-9.32,2.18-4.93,0-6.57-.53-8.75-1.64l-2.22-1.11C376.51,354.87,348.55,341.73,340.87,337.91Zm-81.11-30.72v18.65c0,5.51,7.15,16.43,19.76,22.46,8.21,3.86,18.07,7.15,20.82,7.15,3.28,0,10.39-3.86,17-6.57V348.3c13.18-6,19.75-17,19.75-22.46V307.77c-7.15,4.35-7.68,4.93-7.68,8.75v4.93c0,8.79-17.53,17.53-30.14,17.53-12.08,0-30.67-7.63-30.67-17.53,0-2.71,0-4.35.53-5.46,0-3.28-.53-3.86-8.79-8.21A0.55,0.55,0,0,0,259.76,307.19Zm41.11-19.71c7.1,0,9.86,12.61,11,15.89,1.64,3.29,4.39,4.93,4.39,7.68,0,1.64-1.64,5.46-6.57,5.46-5.5,0-4.39-2.75-8.79-2.75-4.93,0-2.75,2.75-8.79,2.75s-6.57-3.82-6.57-4.93a11.73,11.73,0,0,1,2.75-7.11c2.17-2.75,2.17-9.32,6-13.18C295.94,288.59,297.59,287.48,300.87,287.48Zm107.43-17A15.54,15.54,0,0,0,396.76,276l-1.07,2.18c-2.75,4.39-8.21,11.5-14.83,14.78-6,3.29-29.57,14.25-36.14,17v11L386.9,299h0.58A28.47,28.47,0,0,1,399,296.8h0.54c3.28,0,6.57,1.64,9.86,3.28a18.24,18.24,0,0,0,8.26,2.75c2.71,0,3.82-2.22,3.82-4.39v-7.68a1.87,1.87,0,0,1-.53-1.11v1.64a3.84,3.84,0,1,1-7.68,0v-4.35c0-5.5.53-13.19-2.22-15.93A10.76,10.76,0,0,0,408.3,270.48Zm-215.93,0a11.32,11.32,0,0,0-2.75.54c-2.75,2.75-2.22,10.43-2.22,15.93v4.35a3.75,3.75,0,0,1-3.82,3.86,4.1,4.1,0,0,1-3.82-3.86v7.15c0,2.17.53,4.39,3.29,4.39a18.29,18.29,0,0,0,8.21-2.75c3.82-1.64,6.57-3.28,9.86-3.28h0.53A32.38,32.38,0,0,1,213.72,299h0l38.36,19.76V308.3c-8.75-4.4-27.39-12.61-32.32-15.36-6.57-3.29-11.5-10.39-14.78-14.78L203.87,276A14.56,14.56,0,0,0,192.37,270.48Zm126.57-12h24.69a5.92,5.92,0,0,1,5.46,6c0,4.4-5.46,20.29-18.6,20.29-8.79,0-12.6-6-16.47-12-2.71-3.33-3.82-6.62-3.82-7.68C310.19,260.62,316.76,258.44,318.94,258.44Zm-65.21,0h24.11c2.75,0,9.32,2.18,9.32,6.57,0,1.07-1.06,4.35-3.82,7.68-4.39,6-7.68,12-16.43,12-13.19,0-18.65-15.89-18.65-20.29A5.59,5.59,0,0,1,253.72,258.44Zm45.5-79.51c-10.43,0-20.29,1.64-31.25,7.68-4.93,2.22-9.32,6.57-14.25,11.54-2.71,2.18-4.93,4.93-7.68,7.1l-3.29,3.29c-8.21,7.15-15.89,14.25-15.89,18.07,0,6,2.75,12.61,6,18.11-1.11-4.39-.53-3.28-0.53-5.5V237c0-7.68,1.64-14.25,11-21.93,0.53-.53,2.71-1.06,3.82,0s1.11,1.64,2.22,2.22c0.53,1.06-.58,2.71-1.11,3.29-7.68,7.1-8.21,11-8.21,16.43v2.18c0,2.22,3.29,15.36,3.29,19.22,0,3.28-2.22,7.11-2.22,18.6,0,10.43,4.93,12.61,12.61,17.54l2.22,1.11c3.28,2.18,6,3.82,8.21,5.5,8.21,4.35,12.61,7.11,12.61,15.32a16.39,16.39,0,0,0-.58,4.93c0.58,2.75,12.08,9.9,23,9.9,11.5,0,21.93-7.15,21.93-9.9v-4.93c0-8.75,4.39-11,12.6-15.89l8.21-4.93,2.18-1.11c7.68-4.93,13.19-8.21,13.19-17.54a101.07,101.07,0,0,0-2.22-19.18l-0.53-.53,2.18-10.43c1.64-7.1,1.64-7.1,1.64-11,0-4.93-.53-7.11-8.21-15.32l5.5-4.93c8.21,8.75,10.39,12,10.39,20.25v5.5c2.22-4.93,3.86-9.86,3.86-14.83,0-4.35-7.68-10.92-15.89-18.07l-2.75-2.75-7.15-6C331,187.73,320.58,178.93,299.23,178.93Z"/></svg>