<svg xmlns="http://www.w3.org/2000/svg" viewBox="0 0 595.28 850.37"><defs><style>.a{fill:#e5e8eb;}.a,.b,.c{fill-rule:evenodd;}.b{fill:#000100;}.c{fill:#ad1922;}</style></defs><title>4108_C</title><polyline class="a" points="0 850.37 595.28 850.37 595.28 0 0 0 0 850.37"/><path class="b" d="M79.25,687.17H92v-27.5h24.77v27.5h12.67l0.07-62.35H116.69v24.62H92V624.9l-12.67-.07ZM473,689.62c0.58,4.25,1.87,6.63,4.39,9,2.74,2.59,7.78,5.11,16.49,5.11,9.65,0,15.91-3.6,18.86-7.49,2.09-2.74,3.17-5.19,3.17-12v-41.9l-11.52-.07L504,647.79c-0.79-1.37-3.24-7-13.18-7-10.87,0-20.3,8.57-20.3,22.46s9.43,22.46,20.16,22.46c7.13,0,11.59-3.24,13.32-6.69l-0.07,4.82c0,7.56-3.45,10.8-10.37,10.8-5.18,0-7.7-2.67-8.13-5.47Zm20.45-14.26c-5.83,0-10.73-4.25-10.73-12.45,0-7.27,5-11.81,10.51-11.81s10.51,4.54,10.51,12.1C503.75,671,498.63,675.36,493.45,675.36ZM450,687.17h12V642.32H450v44.86ZM450,635.62h12v-10.8H450v10.8Zm-21.53,51.55h12V624.82h-12Zm-32.54,0h12l0.07-19.88c0-6.69,1.66-9.79,3.6-11.88a10.68,10.68,0,0,1,8.21-3.53,9.65,9.65,0,0,1,2,.14L422,641.45a8.55,8.55,0,0,0-2.59-.29,11.55,11.55,0,0,0-11.16,8l-0.36-6.77H396Zm-22.32-5.11a14.05,14.05,0,0,0,1.37,5.11h12.31a7.26,7.26,0,0,1-2-4.61V657.94c0-10.73-5.54-17.14-20.16-17.14-13.54,0-19.15,7.42-18.94,14.9l10.66,0.22c0-3.31,2.52-6.48,8.64-6.48,5.91,0,7.92,2.81,7.92,5,0,1.73-1.15,3.46-4.46,4l-6.84,1.15c-9.94,1.8-12.6,3.67-14.47,5.33a12.27,12.27,0,0,0-4.11,9.29c0,7.41,5.83,14.18,17.14,14.18C367.24,688.47,371.05,686.17,373.65,682.06Zm0-18.43v5.62c0,6.34-4,10.3-10.87,10.3-5,0-7.41-3-7.41-5.76,0-2.16.72-4.47,8.28-6.55l5.18-1.51A13.39,13.39,0,0,0,373.65,663.63Zm-56.37,23.55h12V650.31H338v-8l-8.71.07v-0.93c0-4,.72-5.11,1.44-6,1-1,2.38-1.8,5.33-1.73H338v-8.93h-6.84c-4.1,0-15.12.72-13.89,17.57l-6.55-.07v8.07h6.55v36.79Zm-35.71,1.65c13.54,0,23.47-9.58,23.47-24.26,0-14.11-9.72-23.9-23.61-23.9-13.53,0-23.47,9.72-23.47,23.9C257.95,679.33,267.88,688.83,281.56,688.83Zm-0.14-9.43c-5.69,0-11.23-4.32-11.23-14.33,0-10.73,5.4-15,11.31-15s11.3,4.32,11.3,14.54C292.8,675.08,287.32,679.39,281.42,679.39Zm-72.57-7.12c0.22,8.42,7.34,16.48,21.09,16.48,14,0,20.09-7.49,20.09-15.48a12.82,12.82,0,0,0-2.74-7.85c-1.73-2.09-3.89-3.74-9.14-5l-12.89-3c-2.74-.65-3.82-2.37-3.82-4S223,649,228.93,649c6.34,0,9.22,3.39,9.22,7l10.65-.14A15.82,15.82,0,0,0,242.4,644c-2.59-1.87-6.77-3.46-13.32-3.46-12.88,0-18.57,7-18.57,14.62a11.59,11.59,0,0,0,3.1,8.43c1.59,1.73,3.53,3.1,8.57,4.17l9.72,2.16c5.62,1.22,6.27,3,6.27,5.11s-1.8,5.11-8.43,5.11c-6.34,0-9.58-3.45-9.94-8.06Zm-20.52,14.9h12V624.82H188.4Zm-21.46-5.11a16.9,16.9,0,0,0,1.51,5.11h12.24c-0.72-.65-1.87-2.67-1.87-6.34l-0.22-22.89c-0.07-4-.36-5.11-0.65-6-1.8-6.19-6.77-11.09-18.94-11.09-14,0-19.44,7.06-19.44,14.9l10.58,0.22c0.5-3,.93-3.6,1.87-4.47,1.15-1.08,3.46-2.16,7.06-2.16,5.62,0,7.78,3,7.78,5.11s-1.37,3.6-4.61,4.25L150,660.75c-9.07,1.66-13.25,7.49-13.25,13.39,0,7.78,6,14.33,16.77,14.33C161,688.47,165.14,685.44,166.87,682.06Zm0-18.72V670c-0.36,5.61-4.1,9.43-10.65,9.43-5.11,0-7.56-3-7.56-5.62,0-2.16,1.08-4.75,8.21-6.62l5.26-1.3A11.15,11.15,0,0,0,166.87,663.34ZM159.67,637l12.1,0.07V624.9l-12.1-.07V637ZM144,637h12l0.07-12.17H144V637Z"/><path class="c" d="M166.71,187.06L35.48,318.29,166.71,448.85,297.28,580.17,428.5,448.85,559.82,317.62,428.5,187.06C357,114.83,297.94,55.79,297.94,55.79c-0.67,0-59.67,59-131.23,131.27"/><path class="a" d="M407.68,207.88L518.14,317.62,407.68,428.7,297.28,539.15,187.54,428,77.08,317.62,187.54,207.88C248,146.75,297.28,97.47,297.94,97.47c0,0,49.36,49.28,109.74,110.4"/><path class="b" d="M298.7,148.83h-2.08a64.5,64.5,0,0,0-20.86,5.59,57.23,57.23,0,0,0-18.07,13.9,52.07,52.07,0,0,0-11.1,20.11c-3.46,9.77-4.88,20.16-2.8,34.05a129.49,129.49,0,0,0,9.72,35.38c0.67,2.08,3.51,7.63,4.17,9.06A97.68,97.68,0,0,0,266,279.4l0.71,0.71c0,0.71-2.09,19.44-2.09,19.44s-9.05,3.51-20.86,7.64c-11.1,4.17-20.82,7.68-20.82,7.68H222.3v0.67a7.52,7.52,0,0,0,5.5,5.55h3.51v0.71a7,7,0,0,0,4.13,3.46c0.71,0.66,1.42.66,2.84,0.66h1.33v0.76a7.43,7.43,0,0,0,3.51,4.17,7.92,7.92,0,0,0,5.55,0c0.67,0,.67,0,0.67.67,0.71,2.08,2.08,3.46,3.5,3.46h2.08v0.71a9.06,9.06,0,0,0,4.17,4.79h4.84c1.38,0,2.8-1.33,4.13-2,0-.71,0-0.71.75-1.37h0l0.67,0.66a7.56,7.56,0,0,0,5.59,0h0.66l0.71,0.71a8.1,8.1,0,0,0,3.46,3.46h0.71v0.76a2.72,2.72,0,0,0,.66,2.08,2.62,2.62,0,0,0,2.08.67c1.42,0,2.75-.67,2.75-2.09v-1.42h0.76a10.9,10.9,0,0,0,4.13-5.55v-2.08a5.91,5.91,0,0,0-.71-3.42V330.1h0a2.5,2.5,0,0,0,1.42-3.42,2.31,2.31,0,0,0-.71-1.42h-0.71l0.71-.67c0-.76.71-1.42,0.71-2.08a2.73,2.73,0,0,0,.66-2.13V319h0.71a6.62,6.62,0,0,0,3.51-5.55c0.66-2.08,0-3.5-1.42-5.55v-0.71h0.66c0.76,0,1.42,0,1.42-.66,0.67-.71.67-0.71,0.67-2.09a2.11,2.11,0,0,0-.67-1.37c0-.76-0.66-0.76-1.42-0.76h-2.08a0.65,0.65,0,0,0-.67-0.66l-1.37-.67v-0.75c0.66-.67.66-2.09,0.66-2.75,0.71-1.42.71-3.46,0-4.17v-0.66l0.71-.71a8.77,8.77,0,0,0,3.51-3.46v-4.88c0-.66-0.76-1.42-1.42-2.08v-0.67h0.66c1.42-.71,2.09-2.08,2.84-3.5v-2.75c-0.75-.71-1.42-2-2.08-2.79h0V271.1c0.66-.66.66-1.42,0.66-2.75v-0.76h0.67a2.2,2.2,0,0,0,1.42-.66H300v0.66c0,1.42,0,2.84,1.42,3.5l0.66,0.67v0.75c-0.66,1.33-.66,2.75,0,3.42a8.48,8.48,0,0,0,3.51,4.88c0.66,0,.66,0,0,0.67v1.42a10.42,10.42,0,0,0,2.75,7.63l0.71,0.67h0a5.55,5.55,0,0,0-2.8,2.79,7.17,7.17,0,0,0,2.09,7h0.71v0.67c-0.71,2.08,0,4.88,2.08,5.55v1.42a11.53,11.53,0,0,0,0,6.93h0.66l-0.66.66V317l-0.71-.76a3.37,3.37,0,0,0-4.17,1.42v2.08a3.7,3.7,0,0,0,2.8,1.38h0v1.42a10.06,10.06,0,0,0,1.37,4.17v0.66h0a11.67,11.67,0,0,0-.71,4.84,11.33,11.33,0,0,0,2.08,6.26v1.38c0,0.66-.66,2.08,0,2.84a3.27,3.27,0,0,0,3.51,3.42,2,2,0,0,0,2.75,0c1.42,0,2.79-1.33,3.46-3.42h0c0.71,0,2.09-.76,2.8-0.76,0.71-.66.71-0.66,0.71,0,0.66,0,1.33,1.42,2.08,1.42,1.33,0.67,3.42,0,4.84-2.08v-2.8c-0.66-.71-1.42-1.37-2.08-2.08h0v-0.66a2.53,2.53,0,0,0,.66-1.42V333.6l0.76,0.67h2.09V335c0.66,0.71,2,1.37,2.75,2.08H339a1.47,1.47,0,0,0,1.33-1.37H341c0.66,0.66,1.33,1.37,2.09,2,0.66,0,.66.71,1.33,0.71a5.43,5.43,0,0,0,3.51-1.37v-0.71h0.66a2.61,2.61,0,0,0,2.13.71h1.38c2-.71,3.46-2.08,3.46-3.46,0.67-1.42.67-2.75,0-3.5v-0.67h0.67c0.75,0.67,1.42,0,2.08,0a3.75,3.75,0,0,0,2.08-3.51v-0.66l0.76,0.66A7.55,7.55,0,0,0,364,328H366c1.38-.66,3.46-2.08,3.46-4.17,0.66,0,.66,0,0.66-0.66v-0.66c1.42-.71,2.09-1.42,2.09-2.8V319H373a2.61,2.61,0,0,0,2.08-.71,0.65,0.65,0,0,0,.66-0.66v-2.08s-10.43-3.51-22.9-7.64L329.24,301V282.91l0.66-.76a81.06,81.06,0,0,0,7-9.64c3.42-5.59,5.51-11.14,8.35-17.4a201.94,201.94,0,0,0,9.72-40.26V206.5c-1.42-13.9-8.39-29.17-19.49-40.26a54.36,54.36,0,0,0-21.53-14.65,100.91,100.91,0,0,0-13.14-2.75H298.7Zm0.67,257a0.65,0.65,0,0,0-.67.66,1.36,1.36,0,0,0-1.42.71,4.32,4.32,0,0,0-.66,2.75l0.66,0.71,0.67,0.71h-0.67a2.55,2.55,0,0,0-.66,2.09c-0.76,2.75,1.33,4.84,4.17,4.84a3.68,3.68,0,0,0,3.42-3.51,3.34,3.34,0,0,0-1.33-4.13h-0.76V410a0.68,0.68,0,0,0,.76-0.66c0-.71,0-0.71-0.76-1.38a1.48,1.48,0,0,0-1.33-1.42C300,406.5,300,405.83,299.37,405.83Zm-25-9.06h0.76v0h-0.76ZM316,389.85h-0.66a5,5,0,0,0-4.17,4.84v2.08h0a4.38,4.38,0,0,0-6.26,2.13V401c0,0.66,0,.66.71,1.33,0,0.75,1.37,1.42,2,2.08,0.71,0,.71,0,0,0.71v2.08c-0.67,2.75,0,4.17,2.08,5.51l0.71,0.76-0.71.66a9.38,9.38,0,0,0-.66,4.17,6.23,6.23,0,0,0,2.08,4.88v0.66h0c0,1.42-.71,2.08-0.71,3.51V428h-1.37v-0.67c0.66-.75.66-1.42,0.66-2.79a9.44,9.44,0,0,0-1.37-2.08l-0.71-.67a4.15,4.15,0,0,0-4.8.67,4.23,4.23,0,0,0-.76,5.55h0v0.66a1.9,1.9,0,0,0-2.08,2.09c-0.66,0-.66.75-0.66,1.42a1.52,1.52,0,0,0,.66,1.42c0,1.37,1.42,2.75,3.51,2.75h0.66l-0.66.71a10,10,0,0,0,0,6.26c0,0.66.66,2.08,0.66,2.75,0.71,0,1.42,1.42,2.08,1.42v0.67h0l-0.66.66a8.66,8.66,0,0,0-2.08,13.23l0.66,0.66-0.66.71c-0.67.71-1.42,1.37-1.42,2.08-0.66,1.38-.66,1.38-0.66,3.46v2.09l0.66,0.71h-0.66c-0.66,2.08-.66,4.17.66,5.55v0.71l-0.66.66a1.77,1.77,0,0,0,.66,2.8v0.66h0a2.68,2.68,0,0,0-.66,2.08c0,0.71,0,.71-0.66.71-0.76.71-.76,0.71-0.76,2,0,0.76,0,.76.76,0.76a2.34,2.34,0,0,0,.66,1.33s6.93-6.22,38.84-35.38l38.22-35.43v-0.67a1.29,1.29,0,0,0,0-2.08c0-1.42-1.37-2.08-2.75-2.84a2.42,2.42,0,0,0-2.08.76H373a2.63,2.63,0,0,1-.76-1.42c-0.66-.67-1.33-1.38-2.09-2.09a5.39,5.39,0,0,0-2.75-.66c-1.38,0-2.09,0-2.8.66H364V409.3c0-3.46-2.75-6.22-6.26-7h-2.75l-0.76.75v-0.75c0-.67-1.33-2.09-2-2.75a4.37,4.37,0,0,0-2.8-.67c-2,.67-3.46,2.09-3.46,4.17v0a3.48,3.48,0,0,0-2.08-1.42C343.14,401,341.71,401,341,401h-0.76l-0.66-.76c0-2.08-1.37-4.84-3.46-5.55a6.46,6.46,0,0,0-3.46-.66h-1.38v-0.71c0-1.38-.76-2.09-2.08-2.8a4.75,4.75,0,0,0-5.59,2.09h-2.09a0.68,0.68,0,0,0-.66.71,0.7,0.7,0,0,0-.71-0.71,3.7,3.7,0,0,0-1.37-2.09A4.38,4.38,0,0,0,316,389.85Zm-40.26-1.42c-0.66,0-.66.75-1.42,0.75-1.33,0-2.09,1.33-2.75,2.75v1.38a1.36,1.36,0,0,0,.66,1.37,2,2,0,0,0,.76,1.37h0a7.74,7.74,0,0,0-2.84-.66c-2.08.66-4.13,1.37-5.51,3.5h-0.71a3.48,3.48,0,0,0-2.08-1.42h-3.46a7.1,7.1,0,0,0-4.22,3.51v0.66H253.5c-0.66-.66-1.37-0.66-2.75-0.66-2.09,0-4.17.66-4.88,2.75a6.42,6.42,0,0,0-.67,3.46v0.71h0a13.69,13.69,0,0,0-3.5-2.08h-4.84a5.18,5.18,0,0,0-2.8,1.37,15.74,15.74,0,0,0-2.75,3.46H230.6a5.1,5.1,0,0,0-6.22.71,3.72,3.72,0,0,0-2.08,3.42V417s15.22,15.89,34,35.38c18.83,18.73,35.47,35.43,36.14,36.09l0.71,1.42,0.67-.75,0.76-.67a1.39,1.39,0,0,0,.66-1.42,1.34,1.34,0,0,0-.66-1.33,0.71,0.71,0,0,0-.76-0.71h0v-0.71c1.42-.66,2.08-2.08,1.42-2.75,0-.71-1.42-1.38-1.42-1.38l0.76-.71a2.63,2.63,0,0,0,.66-2.08,2.5,2.5,0,0,0-.66-2c0-.76-0.76-0.76-1.42-1.42h-0.71l0.71-.66c4.17-2.84,5.59-9.06,3.51-13.9a0.74,0.74,0,0,1-.76-0.76v-0.66h0c2.84-2.09,4.17-6.26,2.09-9.06,0-1.33-1.33-2.75-2.75-3.42h-0.66l0.66-.76c0.66-.66,1.42-1.33,1.42-2.08a5.38,5.38,0,0,0-1.42-3.42l-0.66-.71h0.66a4.39,4.39,0,0,0-.66-4.84c-0.76-1.42-2.14-1.42-3.51-1.42h-0.71c0.71-2.09,1.42-3.51.71-5.59-0.71-.67-0.71-0.67,0-0.67,1.37,0,2.08-1.37,2.75-2.08,1.42-2,.76-4.84-1.38-5.55h-0.66l0.66-.67a8.11,8.11,0,0,0,2.14-5.59c-0.76-1.38-.76-2.75-1.42-3.46s-1.37-2.09-2.08-2.09l0.71-.66c0-.71.66-1.42,0.66-2.08s0.71-.67.71-2.09-0.71-2.08-1.37-3.5v-0.67a4,4,0,0,0,1.37-2.08v-2.08c0-.71-0.71-0.71-1.37-1.38h-1.42a2.71,2.71,0,0,0-2.08.67h-0.67a3.79,3.79,0,0,0-2.08-1.38c-1.42-1.37-3.51-1.37-5.55-.71h-0.71a3.59,3.59,0,0,0-2.09-1.33A2,2,0,0,0,275.75,388.43Zm-4.84-7.59h0c-1.42,0-2.09.66-2.09,1.33V385a1.43,1.43,0,0,0,1.33,1.33h1.42a2.63,2.63,0,0,0,2.08-.66c1.42-1.42.67-3.51-.66-4.84h-2.08Zm22.19-.71h-1.37c-0.71.71-1.42,1.37-2.08,2v3.51c1.37,2.08,4.13,2.75,5.55.66,2.08-1.33,2.08-4.84-.66-5.5C293.77,380.13,293.77,380.13,293.1,380.13ZM323,375.29h0a8.7,8.7,0,0,0-2.8,2v3.51h-0.66c-0.71,0-.71.66-1.42,1.33V385l1.42,1.33h1.37a2.69,2.69,0,0,0,2.09-.66,2.63,2.63,0,0,0,.66-2.08v-0.67h0.71c3.46,0,4.88-4.17,2.79-7-0.75,0-1.42,0-1.42-.66H323Zm-51.41-18.83h-0.66a3.72,3.72,0,0,0-1.42,2.09,3.55,3.55,0,0,0,1.42,2.84h2.75a3.41,3.41,0,0,0,1.42,2c1.37,2.08,4.84,1.42,5.55-1.38,0.66,0,.66,0,0.66-1.37a1.37,1.37,0,0,0-.66-1.38,3.43,3.43,0,0,0-1.42-2.08h-1.38c-1.37,0-2.08,0-2.75.66h-0.76a2.73,2.73,0,0,0-.67-1.42h-2.08Zm42.35-6.92h-1.42c-1.33.71-2,1.42-2,2.08,0,1.42.71,2.75,1.37,2.75,0.67,0.76.67,0.76,1.42,0.76h0.66v0.66a5.47,5.47,0,0,0,2.79,2.75,2.94,2.94,0,0,0,3.46,0c0.71-.67,1.37-1.33,2.08-2.09v-2.08l-0.71-.66a5.2,5.2,0,0,0-2.75-2.75,2.64,2.64,0,0,0-2.09.66h0L316,351a1.48,1.48,0,0,0-1.33-1.42h-0.76Zm-44.44-6.88h0c-1.42.66-2.09,0.66-2.09,1.33a4.44,4.44,0,0,0-.66,2.79v1.37a4.49,4.49,0,0,0,6.26,1.38,4.57,4.57,0,0,0-.76-6.88h-2.75Zm25-2.84h0a3.43,3.43,0,0,0-2.14,1.42v2.08c0.71,1.42,1.38,2.09,2.8,2.09,0.66,0,.66,0,0.66-0.67a2.22,2.22,0,0,0,2.09-2.08,3.9,3.9,0,0,0-1.33-2.18C296.61,339.82,295.19,339.82,294.53,339.82Zm5.5-16h-0.66c-1.42,0-2.09.76-2.75,2.09v2.84c0.66,0.66.66,1.33,1.33,2.08h0a3.5,3.5,0,0,0-1.33,2.75v0.67c0.66,1.42,1.33,1.42,2.75,1.42,0.66,0,1.42,0,1.42-.71,0.66-.71,1.33-0.71,1.33-1.38s0-1.42-.66-1.42v-0.66l-0.66-.67h0.66a3.92,3.92,0,0,0,2.09-1.42c0-.66,0-0.66.66-2.08,0-.66-0.66-0.66-0.66-1.42-0.67-.66-0.67-1.33-2.09-2.09H300Zm89.63-3.46H389c-1.37,0-2.13,1.42-2.79,2.79h-0.67a3.33,3.33,0,0,0-4.17,1.42,2.43,2.43,0,0,0-.71,2.09v0.66h-0.71c-2.75-2.08-6.21-1.42-9,.66a6.13,6.13,0,0,0-2.13,4.17v1.42h-0.71c-2-.71-4.84,0-6.88.67-0.76.71-2.08,2.79-2.84,3.46-1.33,1.42-1.33,3.51-1.33,4.93V344h-0.75c-1.33-.67-2.75,0-4.13,1.42h-1.38c-2.13-.67-4.22,0-6.3.66a11.26,11.26,0,0,0-4.17,5.55V353l-0.66.67h-2.08a5.36,5.36,0,0,0-2.75,2.75,2.16,2.16,0,0,0,0,2.84V360h-0.71a2.14,2.14,0,0,0-2.75,0,3.41,3.41,0,0,0-2.08,1.42,2.52,2.52,0,0,0-1.42,3.46c0,1.37,0,2.08.66,2.75s0.76,0.67,0,.67l-1.33.75c0,0.67-.75.67-0.75,1.33v2.08a3.76,3.76,0,0,0,5.59.76v-0.76a4,4,0,0,0,2.8.76h0.66v0.67c0,1.42,0,2.08.71,2.75a0.7,0.7,0,0,1-.71.71,2.29,2.29,0,0,1-1.37.71,4.52,4.52,0,0,0,1.37,6.22h2.8c0.71-.66,1.37-1.33,2-2.09V381.5l0.76,0.66c1.33,0,2.75.76,4.17,0.76V385a2.73,2.73,0,0,0,.66,2.08h-0.66c-1.42,0-2.08.66-2.84,2.08v1.33a2.39,2.39,0,0,0,.76,2.09c0.66,0,1.33.71,2.08,0.71a5.47,5.47,0,0,0,2.75-2.8v0.71c0.66,2.09,2.79,3.46,4.88,4.17,0.66,0.66,1.33.66,2.75,0.66s2.09-.66,2.75-0.66l0.76-.71v0.71c0.66,0.66.66,2.08,1.33,2.75,1.42,0.75,2.09,1.42,2.8,1.42h3.46c0.71,0,1.37-.67,2.08-0.67v0c0,4.17,3.46,6.93,7.64,6.93h2.79l0.66-.71-0.66.71c-1.37,2.75,1.37,6.22,4.17,6.22a5.23,5.23,0,0,0,4.17-1.38c0.66-.71,9.72-9,20.11-18.73l18.73-17.4V345.42c-0.66-1.42-.66-2.75-1.37-4.17-1.38-2.8-3.46-4.88-5.51-7.64-3.5-2.75-7-5.59-11.14-6.92C407,325.92,389.66,320.38,389.66,320.38Zm-177.09-.67h-2.09a18.26,18.26,0,0,0-4.17,2.09c-13.23,4.88-18.07,6.21-19.44,7a22.37,22.37,0,0,0-10.43,16v25.62l19.4,20.15c10.47,11.14,19.49,20.15,19.49,20.15,0.67,0,2.09,0,2.75-.71a3.72,3.72,0,0,0,3.46-2h4.93a6.27,6.27,0,0,0,4.13-4.17c0.71-.67.71-1.42,0.71-2.75v-0.76H232a3.59,3.59,0,0,0,2.08,1.42h2.09c0.71,0.67,1.37,0,2.13,0a8.12,8.12,0,0,0,3.42-3.5V394l0.76-.71a2.28,2.28,0,0,1,1.33-.71l0.71-.67h0c0.71,0,.71.67,1.38,0.67h3.46a4.56,4.56,0,0,0,1.42-6.26l-0.71-.66a0.68,0.68,0,0,0,.71-0.66c0.66,0,2.08-1.42,2.08-2.85h0.66a4.88,4.88,0,0,0,2.75,1.42c0.76,0,.76,0,0.76.66-0.76,0-.76,0-0.76.76-1.33,2.08.76,4.84,2.84,5.5a4.1,4.1,0,0,0,4.84-4.84c0-1.42-.71-2.08-2.08-2.75l-0.66-.76h0.66a4.9,4.9,0,0,0,1.37-2.75v-2.8h0.71A2.64,2.64,0,0,0,266,376v0.66l0.71,1.42c0.66,0,.66.71,1.33,0.71h2.08c0.76-.71,1.42-1.42,1.42-1.42a2.21,2.21,0,0,0,0-2.79c0-.66-1.42-1.33-2.08-1.33V369a2.43,2.43,0,0,0,2.08-.75,3.18,3.18,0,0,0,0-3.42,3.68,3.68,0,0,0-2.08-1.42h0c-0.67-2-1.42-3.46-2.75-4.13l-0.71-.75v-1.33a2.43,2.43,0,0,0-.71-2.08,6.86,6.86,0,0,0-2.75-3.51,6.47,6.47,0,0,0-3.46-.66,6.62,6.62,0,0,0-3.5.66h-0.67c0.67,0,.67-1.37.67-2.08-0.67-1.38-2.75-3.46-4.17-2.75h-0.66v-1.37a6.53,6.53,0,0,0-2.09-4.93c-1.37-.66-2.08-1.33-3.46-2h-2.08a5,5,0,0,0-2.75.71h-0.75c0-.71-1.33-1.42-2.09-2.08l-0.66-.71h-0.71v-2.08a3.75,3.75,0,0,0-2.09-3.42h-2.75V330.1c-0.71-1.33-1.42-2.75-2.09-4.17a6.5,6.5,0,0,0-4.84-2.09h-2.84a3.74,3.74,0,0,0-1.33-2c-1.42,0-2.79,0-3.46.71H216V321.8a3.73,3.73,0,0,0-3.42-2.09h0Z"/></svg>