<svg xmlns="http://www.w3.org/2000/svg" viewBox="0 0 595.28 850.36"><defs><style>.a{fill:#e5e8eb;}.a,.b,.c{fill-rule:evenodd;}.b{fill:#000100;}.c{fill:#ad1922;}</style></defs><title>4109_C</title><polyline class="a" points="0 850.36 595.28 850.36 595.28 0 0 0 0 850.36"/><path class="b" d="M99.55,687.17h11.88V642.31l13.25,44.86h12.46l13.25-44.86v44.86h12.1l-0.14-62.35-18.51.07-13,45.36-12.81-45.36H99.55v62.28Zm353.29,2.45c0.5,4.25,1.8,6.63,4.32,9,2.74,2.59,7.78,5.11,16.49,5.11,9.64,0,15.91-3.6,18.86-7.49,2.08-2.74,3.17-5.19,3.17-12v-41.9l-11.52-.07-0.43,5.47c-0.79-1.37-3.24-7-13.18-7-10.87,0-20.31,8.57-20.31,22.46s9.51,22.46,20.16,22.46c7.13,0,11.59-3.24,13.32-6.69l-0.07,4.82c0,7.56-3.45,10.8-10.37,10.8-5.18,0-7.7-2.67-8.06-5.47Zm20.37-14.26c-5.83,0-10.73-4.25-10.73-12.45,0-7.27,5-11.81,10.51-11.81s10.51,4.54,10.51,12.1C483.51,671,478.4,675.36,473.22,675.36Zm-43.48,11.81h12V642.31h-12v44.86Zm0.07-51.55h12v-10.8h-12v10.8Zm-21.52,51.55h12.1V624.82h-12Zm-32.54,0h12.1V667.29c0-6.69,1.65-9.79,3.6-11.88a10.78,10.78,0,0,1,8.21-3.53,9.29,9.29,0,0,1,2,.14l0.07-10.58a8.61,8.61,0,0,0-2.59-.29,11.55,11.55,0,0,0-11.16,8l-0.36-6.77H375.81Zm-22.32-5.11a12.73,12.73,0,0,0,1.44,5.11h12.24a7.29,7.29,0,0,1-2-4.61l0.07-24.62c0-10.73-5.62-17.14-20.23-17.14-13.53,0-19.15,7.42-18.94,14.9l10.66,0.22c0-3.31,2.52-6.48,8.64-6.48,5.9,0,7.92,2.81,7.92,5,0,1.73-1.15,3.46-4.39,4l-6.91,1.15c-9.93,1.8-12.6,3.67-14.47,5.33a12.26,12.26,0,0,0-4.11,9.29c0,7.41,5.83,14.18,17.14,14.18C347,688.46,350.82,686.16,353.42,682.06Zm0-18.43v5.62c0,6.34-4,10.29-10.87,10.29-5,0-7.42-3-7.42-5.76,0-2.16.72-4.47,8.28-6.55l5.19-1.51A12.87,12.87,0,0,0,353.42,663.62Zm-56.3,23.54h11.95V650.31h8.71v-8l-8.71.07v-0.93c0-4,.72-5.11,1.44-6,1-1,2.37-1.8,5.33-1.73h1.94v-8.92h-6.84c-4.11,0-15,.72-13.82,17.57l-6.55-.07v8.07h6.55v36.79Zm-35.06,1.73c14.4,0,24.12-9.65,24.12-24.26,0-14.4-9.86-24-23.76-24-13.61,0-23.62,9.72-23.62,24C238.79,679.25,248.8,688.9,262.05,688.9Zm0.65-9.43c-6.26,0-11.59-4.46-11.59-14.83,0-10.08,5.4-14.54,11.52-14.54,5.83,0,11.23,4,11.23,14.9C273.86,675.5,268.1,679.46,262.7,679.46ZM264.43,637h12V624.82h-12V637Zm-15.77,0h12V624.82h-12V637Zm-37.08,55.08v9.72l8.35-.07c7.63,0,11.38-3.67,11.38-11.81l-0.07-47.59h-12l-0.07,42.41c0,6.34-1.87,7.34-4.82,7.34h-2.74Zm7.56-56.45h12.1v-10.8l-12.1.07v10.73Zm-25.84,51.55h12.1V624.82h-12Zm-21.46,0h12V642.31h-12v44.86Zm0.07-51.55h12v-10.8h-12v10.8Z"/><polyline class="c" points="35.54 318.29 297.33 580.16 559.87 317.62 297.99 55.79 35.54 318.29"/><polyline class="a" points="518.18 317.62 297.33 538.48 77.14 317.62 297.99 97.47 518.18 317.62"/><path class="b" d="M254.6,372.48l-3,.16,6.8,3.07h0l1.81,1.54,0.37-.55h0l14,6.31h-0.37l-5.85,2.45q-26.14,11-33.55,14.64a12.65,12.65,0,0,0-5.64-1q-7.49,0-22.95,3.61-7.67,1.79-13.89,3.58A1.76,1.76,0,0,0,191,408a1.74,1.74,0,0,0,1.74,1.75l214.86,1.07h0a1.75,1.75,0,0,0,1.75-1.75V397a1.75,1.75,0,0,0-1.75-1.75H394.13l6.12-8.17a1.7,1.7,0,0,0,.35-1A1.76,1.76,0,0,0,399,384.3l-25.09-2.21,17.51-8.74a1.7,1.7,0,0,0,.71-0.64,1.73,1.73,0,0,0,.26-0.92,1.75,1.75,0,0,0-.74-1.43l-14.78-10.43q15.21-10.91,23.2-25.53l0.22-.33h11.31V317.42h-5.25a34.88,34.88,0,0,0,.51-5.88h0l0-7.1-19.42,5.91q1.17-2.16,1.91-3.67l3.34-6.75-7.49-.79a47.5,47.5,0,0,0-4.91-.26q-21,0-41.25,18.55H273.88V304.93s16.47-18.65,20.29-23,13.72-4.4,13.72-4.4l20.82-32.85S315.57,260,310.07,264.89c-6,4.39-13.67,3.86-19.71,3.86-6,1.64-18.65,17-18.65,17s2.75-7.15,7.11-16.47,2.75-13.14,1.69-20.29c-1.11-6.57,23.53-37.25,23.53-37.25v-3.28l-25.21,29-4.35-32.32h-2.75s1.64,29.57,2.18,35.6c0.58,6.57.58,15.36,0.58,15.36L259.1,278.61s-10.43-38.93-13.14-46S247,202.42,247,202.42l-3.29,1.11-4.93,15.89L223.5,195.85l-2.22,1.64s4.93,9.32,11,20.29c6.57,10.39,5.51,28.5,5.51,28.5L206.5,227.64V232s23,18.07,28.5,22.46c6,4.93,8.21,21.35,8.21,21.35s-21.93-10.39-25.22-11.5c-2.75-1.11-19.71,13.14-19.71,13.14a39.22,39.22,0,0,1,5.46-1.64,13.94,13.94,0,0,1,11.5,1.11l31.26,17-0.62,23.43,0,0H188.77v16.65h56.67c-0.16,6.38-.36,13.78-0.59,22.35l-25.21,14.25,29.61-2.75Zm123.46-41.22c0-2.18,2.18-3.82,4.39-3.82,2.75,0,4.39,1.64,4.39,3.82s-1.64,3.86-4.39,3.86C380.23,335.12,378.06,333.47,378.06,331.26Zm-89.9,43.33c7.68-3.33,19.76-8.26,26.86-18.65s33.43-55.36,69.61-51.54c-2.18,4.4-8.21,14.83-8.21,14.83l25.22-7.68s0.53,34-47.68,55.36c-23,8.21-27.39,8.21-29.61,11-1.64,2.71-11,17-11,17l-40-18.07S283.23,376.22,288.16,374.58ZM263.79,372l4.16-6.24,32.85-4.93-26.86-13.14V334l0,0H324Q318.5,341.14,312.7,350l-2,3a36.45,36.45,0,0,1-11.09,10.11A100.92,100.92,0,0,1,287,369.34l-0.66.29q-4.25,1.36-13.2,1.85Z"/></svg>