<svg xmlns="http://www.w3.org/2000/svg" viewBox="0 0 992.92 113.82"><defs><style>.a,.d{fill:#fff;}.a{stroke:#000;stroke-miterlimit:10;stroke-width:0.5px;}.a,.c,.d{fill-rule:evenodd;}.b,.c{fill:#ac322d;}</style></defs><title>B001_C</title><polygon class="a" points="80.62 113.57 0.43 55.84 80.62 0.26 912.3 0.25 992.49 57.98 912.3 113.56 80.62 113.57"/><rect class="b" x="88.99" y="8.12" width="815.5" height="97.53"/><polygon class="c" points="911.45 8.12 980.48 56.88 911.45 105.65 911.45 8.12"/><polygon class="c" points="81.79 8.12 12.77 56.88 81.79 105.65 81.79 8.12"/><path class="d" d="M176.76,50.57V36.75h15a6.86,6.86,0,0,1,6.48,6.91,7,7,0,0,1-7.35,7Zm0,24.7V59.07h14c5.18,0,8.5,3.67,8.5,7.92a8.2,8.2,0,0,1-8.36,8.42ZM165,84.63h29.24c5.4,0,7.92-.94,10.8-2.88,4-2.88,6.33-7.13,6.33-12.89,0-7.42-4.25-12.89-11.16-14.76A12.06,12.06,0,0,0,209.38,42a13.44,13.44,0,0,0-6.55-12.09c-2.31-1.51-4.47-2.31-9.58-2.31H165Zm54.22,0h11.09V66.41c0-6.12,1.44-8.93,3.31-10.8a9.76,9.76,0,0,1,7.49-3.24,7.92,7.92,0,0,1,1.87.15L243,42.8a17.62,17.62,0,0,0-2.37-.22,10.58,10.58,0,0,0-10.3,7.27L230,43.73h-10.8ZM272.23,63.1v5.18c0,5.76-3.67,9.44-9.86,9.44-4.61,0-6.77-2.74-6.77-5.33,0-2,.58-4.11,7.56-6L267.91,65A12.69,12.69,0,0,0,272.23,63.1Zm0,16.92a15.41,15.41,0,0,0,1.3,4.61h11.3A6.35,6.35,0,0,1,283,80.38V57.92c0-9.8-5-15.7-18.43-15.7-12.38,0-17.57,6.84-17.35,13.61L257,56c0-2.95,2.3-6,7.92-6,5.33,0,7.13,2.66,7.13,4.61,0,1.72-1,3.24-4,3.81l-6.34,1c-8.93,1.66-11.38,3.38-13.1,4.82a11.37,11.37,0,0,0-3.82,8.57c0,6.77,5.33,12.89,15.7,12.89C266.4,85.78,269.93,83.69,272.23,80Zm20.52,4.61h11.09V61.73c0-3.24.65-4.75,1.59-6a8.16,8.16,0,0,1,6.69-3.46c3.82,0,6.55,2.38,6.55,7l-.14,25.35h11.09V55.76c0-7.64-5.62-13.54-14.19-13.54-5.83,0-9.86,3.17-11.23,6.34l-.5-4.83H292.9Zm65.45-8.21c-5.18,0-9.79-3.67-9.79-12.31,0-9.79,4.82-13.11,9.29-13.11s9.36,3.32,9.36,12.75C367.06,72.89,362.23,76.42,358.2,76.42Zm8.64,4,.43,4.18h11v-57H367.13V48.34c-1.94-3.24-6.62-6-11.81-6-9.14,0-18.21,7.71-18.21,22a24.67,24.67,0,0,0,5.32,15.84A15.43,15.43,0,0,0,355,86,14.59,14.59,0,0,0,366.84,80.45Zm40.9-2.88c-5.33,0-9.79-3.53-9.79-12.38,0-9.94,4.82-13.39,9.28-13.39,4.76,0,9.58,3.67,9.58,12.81C416.81,70.59,414.15,77.5,407.74,77.57Zm-9.94,2.31c2.31,3.74,6.48,6.12,11.95,6.12C421.06,86,428,75.63,428,63.89c0-11-6.77-21.53-17.93-21.53a14.41,14.41,0,0,0-11.88,5.55l-.57-4.18-10.88.15V98H397.8Zm58.54-2.31c-5.33,0-10.3-4-10.3-13.25,0-9.64,4.83-13.53,10.3-13.53S466.71,54.68,466.71,64,461.74,77.57,456.34,77.57Zm0,8.57c12.38,0,21.53-8.78,21.53-22.1,0-12.89-8.86-21.89-21.68-21.89-12.31,0-21.45,8.85-21.45,21.89C434.74,77.5,443.88,86.14,456.34,86.14ZM484.78,71c.21,7.7,6.62,15,19.08,15,12.81,0,18.43-6.77,18.43-14a12.41,12.41,0,0,0-2.52-7.28c-1.51-1.8-3.46-3.31-8.28-4.46l-11.88-2.74c-2.45-.57-3.31-2.08-3.31-3.6s1.37-4.17,6.62-4.17c5.91,0,8.57,3.17,8.57,6.48l9.79-.22a14.53,14.53,0,0,0-6-10.73C513,43.52,509.19,42,503.21,42c-11.81,0-17,6.48-17,13.47a10.35,10.35,0,0,0,2.88,7.63c1.44,1.58,3.24,2.88,7.77,3.82l8.86,2c5.18,1.15,5.76,2.81,5.76,4.61s-1.73,4.75-7.7,4.75-8.64-3.24-9-7.34Zm68.61,13.61V76.2h-4a3.85,3.85,0,0,1-3.24-1.58c-.21-.36-.43-.94-.43-3.1V51.15H553V43.66h-7.34l-.14-13H534.6v13h-5.76v7.56l5.76-.07V72.32c0,9.28,3.82,12.31,9.94,12.31Zm7.85,0h11v-57h-11Zm30.17-25.49a9.38,9.38,0,0,1,9-8.35c4.46,0,8.28,3.09,9.07,8.35Zm-.5,8.06h30.45c0-12-5.54-25-20.73-25C584.86,42.22,580,54.68,580,64c0,13.68,9,22.1,20.52,22.1s18.43-6.26,20.16-13.39L609.48,72c-2.09,3.81-5,5.4-8.49,5.4C595.8,77.36,591.48,73.83,590.91,67.2Zm58.32,9.22c-5.19,0-9.8-3.67-9.8-12.31,0-9.79,4.83-13.11,9.29-13.11s9.36,3.32,9.36,12.75C658.08,72.89,653.26,76.42,649.23,76.42Zm8.64,4,.43,4.18h10.94v-57h-11V48.34c-2-3.24-6.7-6-11.88-6-9.15,0-18.22,7.71-18.22,22a24.67,24.67,0,0,0,5.33,15.84A15.42,15.42,0,0,0,646,86,14.61,14.61,0,0,0,657.87,80.45Zm19.94,4.18h11V61.73c0-3.24.72-4.75,1.58-6a8.28,8.28,0,0,1,6.7-3.46c3.81,0,6.55,2.38,6.55,7l-.07,25.35h11V55.76c0-7.64-5.61-13.54-14.11-13.54-5.9,0-9.94,3.17-11.3,6.34l-.51-4.83h-10.8ZM723,37.54h11.08V27.6H723Zm0,47.09h11.08v-41H723Zm19.58,0H753.7V61.73c0-3.24.65-4.75,1.58-6A8.18,8.18,0,0,1,762,52.3c3.81,0,6.55,2.38,6.55,7l-.14,25.35h11.08V55.76c0-7.64-5.61-13.54-14.18-13.54-5.83,0-9.86,3.17-11.3,6.34l-.44-4.83h-10.8ZM808.06,73.9c-5.47,0-9.94-3.89-9.94-11.52,0-6.55,4.61-10.66,9.65-10.66s9.58,4.11,9.58,11C817.35,69.87,812.74,73.9,808.06,73.9ZM789.27,86.79c.57,4,1.72,6.12,4,8.35,2.52,2.3,7.13,4.61,15.05,4.61,8.92,0,14.54-3.24,17.28-6.84,1.87-2.52,2.88-4.68,2.88-11V43.73l-10.59-.07-.36,4.9c-.79-1.16-2.95-6.34-12.09-6.34-9.87,0-18.51,7.85-18.51,20.52s8.64,20.59,18.43,20.59c6.56,0,10.59-3,12.17-6V81.6c0,6.92-3.17,9.8-9.5,9.8-4.75,0-7.06-2.38-7.42-4.9Z"/></svg>