<svg xmlns="http://www.w3.org/2000/svg" viewBox="0 0 992.92 113.82"><defs><style>.a,.d{fill:#fff;}.a{stroke:#000;stroke-miterlimit:10;stroke-width:0.5px;}.a,.c,.d{fill-rule:evenodd;}.b,.c{fill:#ac322d;}</style></defs><title>B002_C</title><polygon class="a" points="80.62 113.57 0.43 55.84 80.62 0.26 912.3 0.25 992.49 57.98 912.3 113.56 80.62 113.57"/><rect class="b" x="88.99" y="8.19" width="815.5" height="97.53"/><polygon class="c" points="911.45 8.19 980.48 56.96 911.45 105.72 911.45 8.19"/><polygon class="c" points="81.79 8.19 12.77 56.96 81.79 105.72 81.79 8.19"/><path class="d" d="M282.75,50.64V36.82h15a7,7,0,0,1-.79,13.9Zm0,24.7V59.14h14c5.18,0,8.56,3.67,8.56,7.92a8.37,8.37,0,0,1-8.56,8.42ZM270.87,84.7h29.37c5.33,0,8-.94,10.73-2.88,4.1-2.88,6.41-7.13,6.41-12.89,0-7.41-4.25-12.89-11.23-14.76a12,12,0,0,0,9.21-12.09c0-5.4-2.3-9.58-6.48-12.1-2.37-1.51-4.61-2.3-9.65-2.3H270.87Zm54.28,0h11l.14-18.22c0-6.12,1.52-8.92,3.24-10.8A9.78,9.78,0,0,1,347,52.44a8.86,8.86,0,0,1,1.95.15V42.87a17.09,17.09,0,0,0-2.31-.22,10.65,10.65,0,0,0-10.29,7.27l-.29-6.12H325.23Zm53.21-21.53-.14,5.19c0,5.76-3.6,9.43-9.94,9.43-4.53,0-6.77-2.74-6.77-5.33,0-1.94.72-4.1,7.64-6l4.68-1.36A13.69,13.69,0,0,0,378.36,63.17Zm-.14,16.92a11.87,11.87,0,0,0,1.37,4.61h11.16a6.5,6.5,0,0,1-1.8-4.25V58c0-9.79-5.12-15.7-18.44-15.7-12.31,0-17.49,6.84-17.28,13.61l9.65.22c0-3,2.31-6,8-6,5.4,0,7.2,2.66,7.2,4.61,0,1.73-1,3.24-4,3.81l-6.33,1c-9.08,1.66-11.45,3.39-13.18,4.83A11.26,11.26,0,0,0,350.79,73c0,6.77,5.32,12.89,15.69,12.89C372.46,85.85,375.91,83.76,378.22,80.09Zm20.52,4.61h11l.15-22.9c0-3.24.57-4.75,1.51-6A8.35,8.35,0,0,1,418,52.37c3.82,0,6.63,2.38,6.63,7V84.7H435.6V55.83c0-7.63-5.54-13.54-14.11-13.54-5.83,0-10,3.17-11.38,6.34l-.43-4.83H398.81Zm65.37-8.21c-5.18,0-9.64-3.67-9.64-12.31,0-9.79,4.75-13.1,9.21-13.1,4.61,0,9.29,3.31,9.29,12.74C473,73,468.29,76.49,464.11,76.49Zm8.79,4,.43,4.18h10.94l-.07-57H473.11V48.41c-1.94-3.24-6.55-6-11.88-6-9.07,0-18.14,7.7-18.14,22a24.71,24.71,0,0,0,5.4,15.84A15.4,15.4,0,0,0,461,86.07,14.84,14.84,0,0,0,472.9,80.52Zm31,4.18H514.8l14-40.9H517.61L509.4,70.73,501.34,43.8H490.18Zm54.36-21.53-.07,5.19c0,5.76-3.6,9.43-9.94,9.43-4.61,0-6.77-2.74-6.77-5.33,0-1.94.65-4.1,7.56-6l4.75-1.36A14.07,14.07,0,0,0,558.22,63.17Zm-.07,16.92a10.8,10.8,0,0,0,1.36,4.61h11.16a7.14,7.14,0,0,1-1.87-4.25V58c0-9.79-5-15.7-18.43-15.7-12.31,0-17.5,6.84-17.28,13.61l9.72.22c0-3,2.3-6,7.92-6,5.4,0,7.27,2.66,7.27,4.61,0,1.73-1,3.24-4,3.81l-6.34,1c-9.07,1.66-11.52,3.39-13.24,4.83A11.2,11.2,0,0,0,530.71,73c0,6.77,5.26,12.89,15.63,12.89C552.39,85.85,555.84,83.76,558.15,80.09Zm42.26,4.61V76.28h-4.18a3.67,3.67,0,0,1-3.09-1.59c-.22-.36-.58-.93-.58-3.09V51.22h7.49V43.73h-7.49v-13H581.47v13h-5.76v7.56l5.91-.07V72.39c0,9.29,3.81,12.31,9.79,12.31Zm30.6,0V76.28h-4.1a3.8,3.8,0,0,1-3.17-1.59c-.22-.36-.58-.93-.58-3.09V51.22h7.49V43.73h-7.49v-13h-11v13h-5.76v7.56l5.83-.07V72.39c0,9.29,3.81,12.31,9.79,12.31Zm17.06-25.49a9.51,9.51,0,0,1,9-8.35c4.47,0,8.36,3.1,9.08,8.35Zm-.5,8.07H678c0-12-5.4-25-20.74-25-15.7,0-20.52,12.46-20.52,21.82,0,13.68,9,22.1,20.38,22.1,11.66,0,18.43-6.26,20.16-13.39l-11-.79c-2.09,3.81-5,5.4-8.57,5.4C652.47,77.43,648.15,73.9,647.57,67.28ZM685.73,84.7h11l.14-22.9c0-3.24.58-4.75,1.51-6a8.38,8.38,0,0,1,6.7-3.46c3.74,0,6.55,2.38,6.55,7V84.7h10.94V55.83c0-7.63-5.54-13.54-14-13.54-5.9,0-10.08,3.17-11.44,6.34l-.44-4.83H685.8Z"/></svg>