<svg xmlns="http://www.w3.org/2000/svg" viewBox="0 0 992.92 113.82"><defs><style>.a,.d{fill:#fff;}.a{stroke:#000;stroke-miterlimit:10;stroke-width:0.5px;}.a,.c,.d{fill-rule:evenodd;}.b,.c{fill:#ac322d;}</style></defs><title>B003_C</title><polygon class="a" points="80.62 113.57 0.43 55.84 80.62 0.26 912.3 0.25 992.49 57.98 912.3 113.56 80.62 113.57"/><rect class="b" x="88.99" y="8.12" width="815.5" height="97.53"/><polygon class="c" points="911.45 8.12 980.48 56.88 911.45 105.65 911.45 8.12"/><polygon class="c" points="81.79 8.12 12.77 56.88 81.79 105.65 81.79 8.12"/><path class="d" d="M188.43,66.77c0,10.51,7.84,19.8,24.4,19.8s24-8.85,24-18.5c0-7.2-4.54-13.75-14.33-16.13L209,48.48c-4-1.08-4.54-1.51-5.33-2.44a5.51,5.51,0,0,1-1.51-3.82c0-3.17,2.88-7.13,10.94-7.13,4,0,7.06,1.37,8.64,3a9.33,9.33,0,0,1,2.81,6.12l11.23.07c-.43-6.19-2.52-10-5.76-12.89s-9.29-5.62-17.57-5.62c-15.12,0-22,8.36-22,17.72,0,7.27,4,13.24,14,15.76l11.66,2.88c2.09.58,5,.94,7,3.32a6.85,6.85,0,0,1,1.44,3.81c0,3.67-2.81,7.85-12,7.85-8.92,0-12.67-4.61-12.52-10.37Zm77.4,10.8c-5.33,0-9.8-3.53-9.8-12.38,0-9.94,4.83-13.39,9.29-13.39,4.61,0,9.51,3.67,9.51,12.81C274.83,70.59,272.23,77.5,265.83,77.57Zm-9.94,2.31c2.3,3.74,6.48,6.12,12,6.12C279.07,86,286,75.63,286,63.89c0-11-6.7-21.53-18-21.53a14.65,14.65,0,0,0-11.81,5.55l-.51-4.18-10.8.15V98h11Zm37.94,4.75h11V66.41c0-6.12,1.51-8.93,3.38-10.8a9.51,9.51,0,0,1,7.42-3.24,7.83,7.83,0,0,1,1.87.15V42.8a13.66,13.66,0,0,0-2.3-.22A10.49,10.49,0,0,0,305,49.85l-.36-6.12h-10.8Zm29.81-47.09h11V27.6h-11Zm0,47.09h10.95v-41H323.64Zm19.59,0h11V61.73c0-3.24.72-4.75,1.66-6a8.18,8.18,0,0,1,6.69-3.46c3.75,0,6.41,2.38,6.41,7V84.63h11.09V55.76c0-7.64-5.69-13.54-14.18-13.54-5.91,0-10,3.17-11.38,6.34l-.5-4.83H343.3Zm45.21,0h11.09V71.16l4.61-4.53,11.3,18h13.47L412,59.43l14.68-15.77-13,.07L399.53,59.28l-.14-31.68H388.44Zm46,0h11v-57h-11Zm30.17-25.49a9.31,9.31,0,0,1,8.93-8.35c4.53,0,8.35,3.09,9.14,8.35Zm-.51,8.06h30.46c0-12-5.54-25-20.88-25-15.62,0-20.52,12.46-20.52,21.82,0,13.68,9,22.1,20.52,22.1s18.43-6.26,20-13.39l-11-.79c-2.09,3.81-5,5.4-8.57,5.4C469,77.36,464.69,73.83,464.11,67.2Zm38,17.43h11.09V66.41c0-6.12,1.51-8.93,3.31-10.8A9.76,9.76,0,0,1,524,52.37a7.92,7.92,0,0,1,1.87.15V42.8a15.44,15.44,0,0,0-2.3-.22,10.65,10.65,0,0,0-10.3,7.27L513,43.73H502.13Zm29-13.61c.21,7.7,6.69,15,19.22,15,12.82,0,18.43-6.77,18.43-14a11.89,11.89,0,0,0-2.52-7.28c-1.51-1.8-3.53-3.31-8.42-4.46l-11.74-2.74c-2.37-.57-3.45-2.08-3.45-3.6s1.51-4.17,6.84-4.17c5.83,0,8.35,3.17,8.49,6.48l9.65-.22a13.92,13.92,0,0,0-5.83-10.73c-2.31-1.72-6.12-3.24-12.1-3.24-11.88,0-17.06,6.48-17.06,13.47a10.35,10.35,0,0,0,2.88,7.63c1.37,1.58,3.24,2.88,7.85,3.82l8.85,2c5.19,1.15,5.76,2.81,5.76,4.61s-1.73,4.75-7.85,4.75c-5.76,0-8.64-3.24-9-7.34Zm48.16,18.22v8.64h8.07c9.65,0,11.88-7.49,12.74-10l15.55-44.14H604.08l-8.21,25.2-8.64-25.27h-11.8L588,78.15a14.65,14.65,0,0,1,1.08,5.69c0,3.31-1.73,5.54-6.56,5.54ZM621,71c.22,7.7,6.7,15,19.23,15,12.81,0,18.43-6.77,18.43-14a12.41,12.41,0,0,0-2.52-7.28c-1.51-1.8-3.6-3.31-8.43-4.46L636,57.48c-2.45-.57-3.46-2.08-3.46-3.6s1.51-4.17,6.77-4.17c5.9,0,8.42,3.17,8.57,6.48l9.65-.22a14,14,0,0,0-5.91-10.73c-2.3-1.72-6.05-3.24-12.09-3.24-11.81,0-17,6.48-17,13.47a10.39,10.39,0,0,0,2.88,7.63c1.37,1.58,3.17,2.88,7.78,3.82l8.93,2c5.18,1.15,5.76,2.81,5.76,4.61s-1.73,4.75-7.85,4.75c-5.76,0-8.64-3.24-9-7.34Zm68.76,13.61V76.2h-4a3.85,3.85,0,0,1-3.24-1.58c-.22-.36-.58-.94-.58-3.1V51.15h7.49V43.66h-7.34l-.15-13H671v13h-5.76v7.56l5.76-.07V72.32c0,9.28,3.82,12.31,9.94,12.31ZM706.9,59.14a9.38,9.38,0,0,1,9-8.35c4.46,0,8.28,3.09,9.07,8.35Zm-.43,8.06h30.38c0-12-5.54-25-20.81-25-15.69,0-20.52,12.46-20.52,21.82,0,13.68,9,22.1,20.52,22.1s18.36-6.26,20-13.39L725,72c-2,3.81-4.9,5.4-8.5,5.4C711.29,77.36,707,73.83,706.47,67.2Zm38.08,17.43h11.09V61c0-6,3.24-8.85,7.71-8.85,2.88,0,4.75,1.36,5.54,3.45a15.63,15.63,0,0,1,.43,4.47V84.63h10.95V60.29c0-5.25,3.24-8.28,7.63-8.28,3.74,0,6.19,2.23,6.19,7.06V84.63H805L804.89,56c-.22-8.64-5.76-13.61-13.1-13.61a14.05,14.05,0,0,0-12.68,7.13,13.32,13.32,0,0,0-12-7.13c-5.69,0-9.36,2.45-11.45,6.56l-.43-5.19-10.58-.07Z"/></svg>