<svg xmlns="http://www.w3.org/2000/svg" viewBox="0 0 992.77 113.82"><defs><style>.a,.f{fill:#fff;}.a{stroke:#000;stroke-miterlimit:10;stroke-width:0.5px;}.a,.c,.d,.e,.f{fill-rule:evenodd;}.b,.c{fill:#ef823d;}.d{fill:#000b0d;}.e{fill:#ac322d;}</style></defs><title>BG004_C</title><polygon class="a" points="80.62 113.57 0.43 55.84 80.62 0.26 912.15 0.25 992.34 57.98 912.15 113.56 80.62 113.57"/><rect class="b" x="89.07" y="8.05" width="815.35" height="97.53"/><polygon class="c" points="911.3 8.04 980.32 56.81 911.3 105.58 911.3 8.04"/><polygon class="c" points="81.79 8.04 12.77 56.81 81.79 105.58 81.79 8.04"/><path class="d" d="M535.47,40.28v-11h11.88a5.44,5.44,0,0,1,5,5.47,5.63,5.63,0,0,1-5.76,5.69Zm0,19.72V47h11c4.18,0,6.84,2.88,6.84,6.27A6.58,6.58,0,0,1,546.48,60ZM526,67.35h23.26c4.25,0,6.34-.72,8.5-2.31A11.67,11.67,0,0,0,563,54.82a11.44,11.44,0,0,0-9-11.66,9.83,9.83,0,0,0,7.42-9.65,11.16,11.16,0,0,0-5.19-9.72c-1.94-1.15-3.67-1.73-7.7-1.73H526Zm63.44-3.67.43,3.67h8.35V34.88l-8.78-.15V53.09c0,4.9-2.88,7.49-6.41,7.49-3.24,0-5.33-1.73-5.33-6.34V34.73H569V57.2c0,4.24,1.29,6.55,3.24,8.42a11.57,11.57,0,0,0,8.06,2.74C584.28,68.36,587.52,66.77,589.47,63.68Zm34,3.67v-6.7h-3.31a3.42,3.42,0,0,1-2.59-1.22,7.15,7.15,0,0,1-.29-2.59V40.78h5.83V34.73h-5.83l-.15-10.22h-8.49V34.73H604v6.05h4.61V57.56c0,7.34,2.88,9.79,7.7,9.79ZM651,50.21v4.11c0,4.6-2.88,7.48-7.92,7.48-3.67,0-5.4-2.16-5.4-4.1,0-1.66.58-3.24,6-4.9l3.82-1A8.61,8.61,0,0,0,651,50.21Zm0,13.47A8.39,8.39,0,0,0,652,67.35h8.86A4.91,4.91,0,0,1,659.52,64V46.18c0-7.85-4-12.6-14.76-12.6-9.79,0-14,5.47-13.68,10.94l7.71.15c0-2.45,1.8-4.75,6.33-4.75,4.25,0,5.62,2.08,5.62,3.67,0,1.29-.79,2.59-3.1,2.88l-5.11.93c-7.13,1.3-9.07,2.67-10.44,3.82a9,9,0,0,0-3,6.77c0,5.47,4.32,10.29,12.45,10.29C646.27,68.28,649.15,66.63,651,63.68Zm16.35,3.67h8.78V49.13a7.29,7.29,0,0,1,1.3-4.82,6.7,6.7,0,0,1,5.25-2.74c3,0,5.19,2,5.19,5.62V67.35h8.78V44.45c0-6.12-4.53-10.87-11.16-10.87-4.75,0-8,2.59-9.14,5.11l-.36-3.81-8.64-.15Z"/><path class="d" d="M578.74,96.22h4V88h8.42V84.87h-8.42V80.23h9.88V77H578.74Zm18.31-7.08,2.62-8.3,2.5,8.3Zm-6.29,7.08h4l1.28-4h7l1.22,4h4.09L601.81,77h-4.27ZM613.7,85.54V80.23h4.46a2.51,2.51,0,0,1,1.77.43,2.77,2.77,0,0,1,1.22,2.26c0,1.46-1.16,2.68-3.17,2.68Zm-3.9,10.68h3.9l.07-7.57h3.47a3.27,3.27,0,0,1,2.93,1.59,3.85,3.85,0,0,1,.37,1.22c.36,1.59,0,3.3.73,4.76h4a5.14,5.14,0,0,1-.61-2l-.31-3.36a3.58,3.58,0,0,0-1-2.56,4.17,4.17,0,0,0-2.57-1.16,4.59,4.59,0,0,0,4.21-4.76c0-3-2.38-5.55-6.46-5.37h-8.73Zm23.25-7.08,2.62-8.3,2.5,8.3Zm-6.29,7.08h4l1.28-4h7l1.22,4h4.08L637.81,77h-4.28Z"/><path class="e" d="M117.09,35.86,96,57l21.14,21,21,21.16L159.27,78,180.43,56.9l-21.16-21c-11.51-11.63-21-21.15-21-21.15S128.62,24.23,117.09,35.86Z"/><path class="f" d="M155.92,39.22,173.71,56.9,155.92,74.69l-17.79,17.9-17.68-17.9L102.65,56.9l17.8-17.68c9.73-9.85,17.68-17.79,17.79-17.79S146.19,29.37,155.92,39.22Z"/><path class="d" d="M138.24,31.84c-2.69,5,.56,7.83-3,15.22-1.8-1.46-.79-7.06-4.48-7.16a5.56,5.56,0,0,1,.11,3c-.45,2.34-1.23,4.58.45,7.71-2.57-1.23-2.68-3.47-4.81-4.92.44,2.35-.56,7.27,2.24,12.08-2.58-.33-3.36-1.23-6.15-3.91,2.9,15,5,15.44,15.66,16.22a9.74,9.74,0,0,1-8.06-7c-.11-1.57-.22,1.34,4.93,1.34-3.25-5.15-2.35-4.14-2-7.15,1.34,2.12.22,2.23,4,3.8-1.23-3.8,1.79-6.49,1.24-10.86.78,1.91,3.79,1.57,3.68,10.86,2.47-2.8,2.69-.9,3.92-3.92.11,1.68.79,3.81-2.57,7.39.89.22,2.34.44,4.7-1.12C145.73,66,147.86,66,142,70.21c7.27.12,12-4.48,11.87-14.55-.23.9-.45,2.58-4.37,3.14a10.2,10.2,0,0,0,1.79-11.3c-.66.67-1.68,3.68-4.25,4.48a9.7,9.7,0,0,0,1-4.92,10.4,10.4,0,0,0-1.9-6.61c-.67,4.58-.57,6.82-3.48,7.49.45-2.68.57-3.92-.89-6.93S138.69,34.75,138.24,31.84Zm-12,40.84v2.68h25.51V72.68H126.26Z"/><path class="e" d="M210,35.86,188.83,57,210,78,231,99.2,252.15,78,273.31,56.9l-21.16-21c-11.51-11.63-21-21.15-21-21.15S221.5,24.23,210,35.86Z"/><path class="f" d="M248.8,39.22,266.59,56.9,248.8,74.69,231,92.59l-17.68-17.9L195.53,56.9l17.8-17.68c9.73-9.85,17.68-17.79,17.79-17.79S239.07,29.37,248.8,39.22Z"/><path class="d" d="M240.07,48.17h-.22c-.22,0-27.64,7.38-27.75,7.38a2.86,2.86,0,0,0-1.46,2.35v1a5.16,5.16,0,0,0,.23,1.34c.45,1.91,1.57,3.37,2.91,3.7h.56c.11,0,27.3-7.39,27.63-7.39a2.47,2.47,0,0,0,1.24-1.11c.11-.34.21-.68.34-1.13a1.32,1.32,0,0,1,.21-.78,1.8,1.8,0,0,1,.89-.67s1.46-.33,3-.78,2.91-.78,3-.78a1.69,1.69,0,0,0-.46-2.92h-.55s-1.35.34-2.91.78-2.91.79-2.91.79h-.33a1.25,1.25,0,0,1-.68-.11,1.56,1.56,0,0,1-.68-.55,4.59,4.59,0,0,0-1.22-1c-.23,0-.33-.11-.56-.11Z"/></svg>