<svg xmlns="http://www.w3.org/2000/svg" viewBox="0 0 992.77 113.82"><defs><style>.a{fill:#fff;stroke:#000;stroke-miterlimit:10;stroke-width:0.5px;}.a,.c,.d{fill-rule:evenodd;}.b,.c{fill:#ef823d;}.d{fill:#000b0d;}</style></defs><title>BG002_C</title><polygon class="a" points="80.62 113.57 0.43 55.84 80.62 0.26 912.15 0.25 992.34 57.98 912.15 113.56 80.62 113.57"/><rect class="b" x="89.14" y="8.27" width="815.35" height="97.53"/><polygon class="c" points="911.23 8.26 980.25 57.03 911.23 105.8 911.23 8.26"/><polygon class="c" points="81.72 8.26 12.7 57.03 81.72 105.8 81.72 8.26"/><path class="d" d="M380.67,50.64V36.82h15a6.86,6.86,0,0,1,6.41,6.91,7,7,0,0,1-7.34,7Zm0,24.7V59.14h13.89c5.19,0,8.57,3.67,8.57,7.92a8.25,8.25,0,0,1-8.42,8.42ZM368.79,84.7H398c5.47,0,8-.94,10.87-2.88,4-2.88,6.34-7.13,6.34-12.89,0-7.41-4.25-12.89-11.16-14.76a12,12,0,0,0,9.21-12.09A13.52,13.52,0,0,0,406.66,30c-2.31-1.51-4.47-2.3-9.51-2.3H368.79Zm53.78-47.09h11.09V27.68H422.57Zm0,47.09h11.09v-41H422.57Zm40.32-7.06c-5.33,0-10.22-4-10.22-13.24,0-9.65,4.82-13.54,10.22-13.54s10.37,3.89,10.37,13.25S468.29,77.64,462.89,77.64Zm0,8.57c12.46,0,21.53-8.78,21.53-22.1,0-12.89-8.86-21.89-21.67-21.89-12.32,0-21.39,8.86-21.39,21.89C441.36,77.57,450.43,86.21,462.89,86.21ZM512.21,74c-5.47,0-9.94-3.89-9.94-11.52,0-6.55,4.61-10.65,9.65-10.65s9.58,4.1,9.58,11C521.5,69.94,516.89,74,512.21,74ZM493.49,86.86c.58,4,1.73,6.12,4,8.35,2.52,2.31,7.13,4.61,15.05,4.61,8.93,0,14.54-3.24,17.28-6.84,1.87-2.52,2.88-4.68,2.88-10.94V43.8l-10.59-.07-.36,4.9c-.79-1.15-3-6.34-12.09-6.34-9.87,0-18.43,7.85-18.43,20.52s8.56,20.59,18.36,20.59c6.55,0,10.58-3,12.16-6v4.32c0,6.91-3.16,9.79-9.5,9.79-4.75,0-7.06-2.38-7.42-4.9Zm74.23-23.69v5.19c0,5.76-3.74,9.43-9.93,9.43-4.61,0-6.77-2.74-6.77-5.33,0-1.94.57-4.1,7.56-6l4.75-1.36A13.37,13.37,0,0,0,567.72,63.17Zm0,16.92A13.65,13.65,0,0,0,569,84.7h11.3a6.28,6.28,0,0,1-1.87-4.25V58c0-9.79-5-15.7-18.43-15.7-12.39,0-17.57,6.84-17.36,13.61l9.8.22c0-3,2.3-6,7.92-6,5.32,0,7.12,2.66,7.12,4.61,0,1.73-1,3.24-4,3.81l-6.33,1C548.14,61.23,545.69,63,544,64.4A11.32,11.32,0,0,0,540.15,73c0,6.77,5.32,12.89,15.69,12.89C561.82,85.85,565.42,83.76,567.72,80.09Zm18.87-9c.21,7.71,6.69,15,19.22,15,12.82,0,18.43-6.77,18.43-14a12.29,12.29,0,0,0-2.52-7.27c-1.51-1.8-3.45-3.32-8.28-4.47l-11.88-2.73c-2.45-.58-3.45-2.09-3.45-3.6s1.51-4.18,6.76-4.18c5.91,0,8.57,3.17,8.57,6.48l9.79-.22a14.57,14.57,0,0,0-6-10.72c-2.31-1.73-6.05-3.24-12.1-3.24-11.81,0-17,6.48-17,13.46A10.08,10.08,0,0,0,591,63.17c1.37,1.59,3.17,2.88,7.77,3.82l8.93,2c5.19,1.16,5.76,2.81,5.76,4.61s-1.73,4.75-7.77,4.75c-5.84,0-8.72-3.24-9.08-7.34Z"/></svg>