<svg xmlns="http://www.w3.org/2000/svg" viewBox="0 0 992.77 113.82"><defs><style>.a,.f{fill:#fff;}.a{stroke:#000;stroke-miterlimit:10;stroke-width:0.5px;}.a,.c,.d,.e,.f{fill-rule:evenodd;}.b,.c{fill:#ef823d;}.d{fill:#000b0d;}.e{fill:#ac322d;}</style></defs><title>BG009_C</title><polygon class="a" points="80.62 113.57 0.43 55.84 80.62 0.26 912.15 0.25 992.34 57.98 912.15 113.56 80.62 113.57"/><rect class="b" x="89.21" y="8.05" width="815.35" height="97.53"/><polygon class="c" points="911.3 8.04 980.32 56.81 911.3 105.58 911.3 8.04"/><polygon class="c" points="81.79 8.04 12.77 56.81 81.79 105.58 81.79 8.04"/><path class="d" d="M477.07,67.42h9.08V36.89l18.57,30.53h9.58V22.13h-9.15V52.8l-19-30.67h-9.22Zm65.16-17.14-.07,4.11c0,4.61-2.88,7.49-7.85,7.49-3.67,0-5.4-2.16-5.4-4.11,0-1.65.44-3.24,6-4.89l3.82-1A8.4,8.4,0,0,0,542.23,50.28Zm-.07,13.47a12.89,12.89,0,0,0,1,3.67h9a4.84,4.84,0,0,1-1.51-3.31V46.25c0-7.85-4-12.6-14.62-12.6-9.93,0-14,5.47-13.82,11l7.85.14c0-2.45,1.72-4.75,6.19-4.75,4.25,0,5.76,2.09,5.76,3.67,0,1.3-.79,2.59-3.24,2.88l-5,.94c-7.2,1.29-9.14,2.66-10.58,3.81a9.5,9.5,0,0,0-3,6.77c0,5.47,4.25,10.3,12.53,10.3C537.55,68.36,540.29,66.7,542.16,63.75Zm33.63,3.67v-6.7h-3.24A3.26,3.26,0,0,1,570,59.5c-.22-.29-.51-.72-.51-2.59V40.85h6.05V34.8h-6.05V24.58h-8.71V34.8H556.2v6.05h4.68l-.07,16.78c0,7.34,3.1,9.79,7.85,9.79Zm26.92-3.67.44,3.67h8.2V35l-8.64-.15V53.16c0,4.9-3,7.49-6.55,7.49-3.24,0-5.33-1.73-5.33-6.33V34.8h-8.71V57.27c0,4.25,1.23,6.55,3.17,8.42a12,12,0,0,0,8.21,2.74C597.53,68.43,600.77,66.84,602.71,63.75Zm15.34,3.67h8.86V53c0-4.82,1.15-7.13,2.66-8.64a7.55,7.55,0,0,1,5.83-2.66c.58,0,1.08.14,1.51.14l.15-7.7a7.37,7.37,0,0,0-1.95-.15,8.38,8.38,0,0,0-8.06,5.76l-.36-5h-8.57Zm38.59-8.5c-4.32,0-7.85-3.16-7.85-9.14,0-5.26,3.53-8.64,7.56-8.64s7.78,3.38,7.78,8.86C664.13,55.68,660.31,58.92,656.64,58.92Zm-14.9,10.23a9.6,9.6,0,0,0,3.09,6.55c2,1.87,5.69,3.67,12,3.67,7,0,11.59-2.52,13.68-5.4,1.51-1.94,2.3-3.81,2.3-8.64V34.8h-8.28l-.36,4c-.57-1-2.37-5.19-9.65-5.19-7.84,0-14.76,6.34-14.76,16.35s6.92,16.41,14.76,16.41c5.19,0,8.43-2.3,9.65-4.89V65c0,5.55-2.52,7.85-7.56,7.85-3.81,0-5.69-1.94-5.9-4Zm59.11-18.87-.14,4.11c0,4.61-2.88,7.49-7.85,7.49-3.67,0-5.4-2.16-5.4-4.11,0-1.65.5-3.24,6-4.89l3.82-1A9.32,9.32,0,0,0,700.85,50.28Zm-.14,13.47a10.39,10.39,0,0,0,1.08,3.67h8.92a4.71,4.71,0,0,1-1.44-3.31V46.25c0-7.85-4-12.6-14.68-12.6-9.87,0-13.9,5.47-13.76,11l7.78.14c0-2.45,1.73-4.75,6.26-4.75,4.25,0,5.76,2.09,5.76,3.67,0,1.3-.86,2.59-3.24,2.88l-5,.94c-7.28,1.29-9.22,2.66-10.59,3.81a9.29,9.29,0,0,0-3,6.77c0,5.47,4.32,10.3,12.6,10.3C696.1,68.36,698.91,66.7,700.71,63.75Zm15-7.13c.22,6.05,5.4,11.95,15.34,11.95,10.22,0,14.61-5.4,14.61-11.3a9.51,9.51,0,0,0-1.94-5.62c-1.3-1.51-2.74-2.81-6.7-3.6l-9.28-2.16c-2-.5-2.81-1.73-2.81-2.88s1.15-3.31,5.4-3.31c4.75,0,6.69,2.52,6.84,5.11l7.7-.21a11.21,11.21,0,0,0-4.75-8.5c-1.8-1.37-4.82-2.52-9.65-2.52-9.36,0-13.46,5-13.46,10.66a8.52,8.52,0,0,0,2.16,6.12,11.87,11.87,0,0,0,6.26,3L732.53,55c4,.94,4.61,2.24,4.61,3.68s-1.37,3.74-6.27,3.74c-4.6,0-6.91-2.59-7.2-5.9Z"/><path class="d" d="M578.74,96.22h4V88h8.42V84.87h-8.42V80.23h9.88V77H578.74Zm18.31-7.08,2.62-8.3,2.5,8.3Zm-6.29,7.08h4l1.28-4h7l1.22,4h4.09L601.81,77h-4.27ZM613.7,85.54V80.23h4.46a2.51,2.51,0,0,1,1.77.43,2.77,2.77,0,0,1,1.22,2.26c0,1.46-1.16,2.68-3.17,2.68Zm-3.9,10.68h3.9l.07-7.57h3.47a3.27,3.27,0,0,1,2.93,1.59,3.85,3.85,0,0,1,.37,1.22c.36,1.59,0,3.3.73,4.76h4a5.14,5.14,0,0,1-.61-2l-.31-3.36a3.58,3.58,0,0,0-1-2.56,4.17,4.17,0,0,0-2.57-1.16,4.59,4.59,0,0,0,4.21-4.76c0-3-2.38-5.55-6.46-5.37h-8.73Zm23.25-7.08,2.62-8.3,2.5,8.3Zm-6.29,7.08h4l1.28-4h7l1.22,4h4.08L637.81,77h-4.28Z"/><path class="e" d="M117.09,35.86,96,57l21.14,21,21,21.16L159.27,78,180.43,56.9l-21.16-21c-11.51-11.63-21-21.15-21-21.15S128.62,24.23,117.09,35.86Z"/><path class="f" d="M155.92,39.22,173.71,56.9,155.92,74.69l-17.79,17.9-17.68-17.9L102.65,56.9l17.8-17.68c9.73-9.85,17.68-17.79,17.79-17.79S146.19,29.37,155.92,39.22Z"/><path class="d" d="M138.24,31.84c-2.69,5,.56,7.83-3,15.22-1.8-1.46-.79-7.06-4.48-7.16a5.56,5.56,0,0,1,.11,3c-.45,2.34-1.23,4.58.45,7.71-2.57-1.23-2.68-3.47-4.81-4.92.44,2.35-.56,7.27,2.24,12.08-2.58-.33-3.36-1.23-6.15-3.91,2.9,15,5,15.44,15.66,16.22a9.74,9.74,0,0,1-8.06-7c-.11-1.57-.22,1.34,4.93,1.34-3.25-5.15-2.35-4.14-2-7.15,1.34,2.12.22,2.23,4,3.8-1.23-3.8,1.79-6.49,1.24-10.86.78,1.91,3.79,1.57,3.68,10.86,2.47-2.8,2.69-.9,3.92-3.92.11,1.68.79,3.81-2.57,7.39.89.22,2.34.44,4.7-1.12C145.73,66,147.86,66,142,70.21c7.27.12,12-4.48,11.87-14.55-.23.9-.45,2.58-4.37,3.14a10.2,10.2,0,0,0,1.79-11.3c-.66.67-1.68,3.68-4.25,4.48a9.7,9.7,0,0,0,1-4.92,10.4,10.4,0,0,0-1.9-6.61c-.67,4.58-.57,6.82-3.48,7.49.45-2.68.57-3.92-.89-6.93S138.69,34.75,138.24,31.84Zm-12,40.84v2.68h25.51V72.68H126.26Z"/><path class="e" d="M210,35.86,188.9,57,210,78l21,21.16L252.22,78,273.38,56.9l-21.16-21c-11.51-11.63-21-21.15-21-21.15S221.57,24.23,210,35.86Z"/><path class="f" d="M248.87,39.22,266.66,56.9,248.87,74.69l-17.79,17.9L213.4,74.69,195.6,56.9l17.8-17.68c9.73-9.85,17.68-17.79,17.79-17.79S239.14,29.37,248.87,39.22Z"/><path class="d" d="M240.14,48.17h-.22c-.22,0-27.64,7.38-27.75,7.38a2.83,2.83,0,0,0-1.45,2.35v1a5.14,5.14,0,0,0,.22,1.34c.45,1.91,1.57,3.37,2.91,3.7h.56c.11,0,27.3-7.39,27.63-7.39a2.43,2.43,0,0,0,1.24-1.11c.11-.34.22-.68.34-1.13a1.4,1.4,0,0,1,.21-.78,1.78,1.78,0,0,1,.9-.67s1.46-.33,3-.78,2.91-.78,3-.78a1.55,1.55,0,0,0,.44-2.14,1.52,1.52,0,0,0-.9-.78h-.55s-1.35.34-2.91.78S244,50,244,50h-.33a1.19,1.19,0,0,1-.67-.11,1.45,1.45,0,0,1-.68-.55,4.62,4.62,0,0,0-1.23-1c-.23,0-.33-.11-.56-.11Z"/></svg>