<svg xmlns="http://www.w3.org/2000/svg" viewBox="0 0 992.77 113.82"><defs><style>.a,.f{fill:#fff;}.a{stroke:#000;stroke-miterlimit:10;stroke-width:0.5px;}.a,.c,.d,.e,.f{fill-rule:evenodd;}.b,.c{fill:#ef823d;}.d{fill:#000b0d;}.e{fill:#ac322d;}</style></defs><title>BG001_C</title><polygon class="a" points="80.62 113.57 0.43 55.84 80.62 0.26 912.15 0.25 992.34 57.98 912.15 113.56 80.62 113.57"/><rect class="b" x="89.14" y="8.12" width="815.35" height="97.53"/><polygon class="c" points="911.23 8.12 980.25 56.88 911.23 105.65 911.23 8.12"/><polygon class="c" points="81.72 8.12 12.7 56.88 81.72 105.65 81.72 8.12"/><path class="d" d="M494.5,50.79l6.19-19.59,5.76,19.59Zm-14.83,16.7h9.5l3-9.57h16.49l2.88,9.57h9.58L505.66,22.2H495.51Zm67.89-11.88c-.43,2.52-1.15,3.67-2.37,4.61a7.29,7.29,0,0,1-4.25,1.3c-4,0-7.63-2.81-7.63-10,0-8.07,3.88-10.95,7.84-10.95A6.43,6.43,0,0,1,547.49,46l8.42-.44c-.72-6.76-6-12-15-12-6.34,0-10.87,2.38-13.83,6.77A18.79,18.79,0,0,0,524,51.36c0,6.56,2.59,11.52,6.77,14.62a17,17,0,0,0,10.15,2.88,17.67,17.67,0,0,0,6.41-1c5-1.87,8-5.54,8.64-11.73Zm22.83-8.28a7.44,7.44,0,0,1,7.12-6.69c3.6,0,6.63,2.44,7.28,6.69ZM570,53.67h24.19c0-9.65-4.39-20-16.56-20-12.46,0-16.35,10-16.35,17.43,0,10.8,7.13,17.49,16.35,17.49s14.61-5,15.91-10.58l-8.78-.58c-1.73,3-3.89,4.25-6.77,4.25C573.84,61.73,570.53,58.85,570,53.67Zm47.44,13.82V60.8h-3.16a3.33,3.33,0,0,1-2.6-1.23c-.21-.29-.43-.72-.43-2.59V40.92h5.91v-6h-5.91V24.65h-8.64V34.88H598v6h4.61V57.7c0,7.34,3,9.79,7.85,9.79ZM626,71.16V78h6.41c7.7,0,9.43-6,10.15-8l12.46-35.13H645.7L639.29,55l-6.91-20.16H623L633,62.45a10.44,10.44,0,0,1,.86,4.47c0,2.52-1.44,4.39-5.18,4.24Zm33.7-3.67h8.78V22.2h-8.64Zm24-20.16a7.46,7.46,0,0,1,7.13-6.69c3.6,0,6.55,2.44,7.27,6.69Zm-.36,6.34h24.2c0-9.65-4.4-20-16.56-20-12.46,0-16.35,10-16.35,17.43,0,10.8,7.13,17.49,16.35,17.49s14.61-5,15.91-10.58l-8.79-.58c-1.72,3-3.88,4.25-6.76,4.25C687.17,61.73,683.86,58.85,683.35,53.67Zm30.17,13.82h8.79l.14-18.21c0-2.67.43-3.82,1.15-4.83a6.78,6.78,0,0,1,5.4-2.73c3,0,5.19,2,5.19,5.61V67.49h8.71V44.6c0-6.12-4.47-10.88-11.23-10.88-4.61,0-8,2.6-9,5.12L722.16,35l-8.49-.14Z"/><path class="d" d="M578.74,96.29h4V88.12h8.42V84.94h-8.42V80.31h9.88V77.07H578.74Zm18.31-7.08,2.62-8.29,2.5,8.29Zm-6.29,7.08h4l1.28-4h7l1.22,4h4.09l-6.59-19.22h-4.27ZM613.7,85.61v-5.3h4.46a2.52,2.52,0,0,1,1.77.42A2.77,2.77,0,0,1,621.15,83c0,1.47-1.16,2.69-3.17,2.69Zm-3.9,10.68h3.9l.07-7.56h3.47a3.29,3.29,0,0,1,2.93,1.58,3.93,3.93,0,0,1,.37,1.22c.36,1.59,0,3.3.73,4.76h4a5.14,5.14,0,0,1-.61-2l-.31-3.36a3.58,3.58,0,0,0-1-2.56,4.17,4.17,0,0,0-2.57-1.16,4.57,4.57,0,0,0,4.21-4.76c0-3-2.38-5.55-6.46-5.37h-8.73Zm23.25-7.08,2.62-8.29,2.5,8.29Zm-6.29,7.08h4l1.28-4h7l1.22,4h4.08l-6.58-19.22h-4.28Z"/><path class="e" d="M117,36,95.88,57.15l21.14,21,21,21.15L159.2,78.19,180.36,57,159.2,36c-11.52-11.64-21-21.15-21-21.15S128.55,24.37,117,36Z"/><path class="f" d="M155.84,39.36,173.64,57l-17.8,17.79-17.78,17.9-17.69-17.9L102.58,57l17.79-17.68c9.74-9.85,17.69-17.79,17.79-17.79S146.12,29.51,155.84,39.36Z"/><path class="d" d="M138.16,32c-2.68,5,.57,7.83-3,15.22-1.79-1.46-.78-7.05-4.47-7.16a5.55,5.55,0,0,1,.11,3c-.45,2.35-1.23,4.58.45,7.72-2.57-1.23-2.68-3.47-4.81-4.92.44,2.34-.57,7.26,2.24,12.08-2.58-.34-3.36-1.23-6.15-3.92,2.9,15,5,15.44,15.65,16.23a9.77,9.77,0,0,1-8-7.06c-.11-1.56-.22,1.35,4.93,1.35-3.25-5.15-2.36-4.14-2-7.16,1.34,2.12.22,2.24,4,3.8-1.23-3.8,1.79-6.48,1.23-10.85.78,1.9,3.8,1.56,3.69,10.85,2.47-2.8,2.69-.9,3.92-3.92.11,1.69.78,3.82-2.58,7.39.9.22,2.35.45,4.71-1.12-2.36,2.58-.23,2.58-6.05,6.82,7.27.13,12-4.47,11.86-14.54-.22.9-.45,2.57-4.37,3.14a10.2,10.2,0,0,0,1.8-11.31c-.67.67-1.68,3.69-4.25,4.48a9.82,9.82,0,0,0,1-4.92,10.4,10.4,0,0,0-1.9-6.61c-.68,4.59-.57,6.83-3.48,7.5.44-2.68.57-3.92-.89-6.94S138.62,34.89,138.16,32Zm-12,40.84V75.5H151.7V72.82H126.19Z"/><path class="e" d="M210,36,188.83,57.15l21.14,21,21,21.15,21.14-21.15L273.31,57,252.15,36c-11.51-11.64-21-21.15-21-21.15S221.5,24.37,210,36Z"/><path class="f" d="M248.8,39.36,266.59,57,248.8,74.83,231,92.73l-17.68-17.9L195.53,57l17.8-17.68c9.73-9.85,17.68-17.79,17.79-17.79S239.07,29.51,248.8,39.36Z"/><path class="d" d="M240.07,48.31h-.22c-.22,0-27.64,7.39-27.75,7.39A2.83,2.83,0,0,0,210.64,58v1a5.31,5.31,0,0,0,.23,1.35c.45,1.9,1.57,3.36,2.91,3.7h.56c.11,0,27.3-7.39,27.63-7.39a2.49,2.49,0,0,0,1.24-1.12c.11-.34.21-.67.34-1.12a1.28,1.28,0,0,1,.21-.78,1.69,1.69,0,0,1,.89-.67s1.46-.34,3-.79,2.91-.78,3-.78a1.54,1.54,0,0,0,.44-2.13,1.52,1.52,0,0,0-.9-.78h-.55s-1.35.33-2.91.78-2.91.78-2.91.78h-.33a1.25,1.25,0,0,1-.68-.11,1.49,1.49,0,0,1-.68-.55,4.79,4.79,0,0,0-1.22-1c-.23,0-.33-.11-.56-.11Z"/></svg>