<svg xmlns="http://www.w3.org/2000/svg" viewBox="0 0 992.77 113.82"><defs><style>.a,.f{fill:#fff;}.a{stroke:#000;stroke-miterlimit:10;stroke-width:0.5px;}.a,.c,.d,.e,.f{fill-rule:evenodd;}.b,.c{fill:#ef823d;}.d{fill:#000b0d;}.e{fill:#ac322d;}</style></defs><title>BG008_C</title><polygon class="a" points="80.62 113.57 0.43 55.84 80.62 0.26 912.15 0.25 992.34 57.98 912.15 113.56 80.62 113.57"/><rect class="b" x="89.21" y="8.19" width="815.35" height="97.53"/><polygon class="c" points="911.3 8.19 980.32 56.96 911.3 105.72 911.3 8.19"/><polygon class="c" points="81.79 8.19 12.77 56.96 81.79 105.72 81.79 8.19"/><path class="d" d="M464.76,67.49h8.64V34.88l9.65,32.61h9.07l9.58-32.61V67.49h8.78V22.2H497l-9.51,33.05-9.28-33H464.76Zm60.91-20.16a7.41,7.41,0,0,1,7.13-6.69c3.6,0,6.55,2.44,7.27,6.69Zm-.36,6.34h24.2c0-9.65-4.4-20-16.56-20-12.46,0-16.35,10-16.35,17.43,0,10.8,7.13,17.49,16.35,17.49,9.07,0,14.61-5,15.84-10.58l-8.72-.58c-1.72,3-4,4.25-6.84,4.25C529.13,61.73,525.82,58.85,525.31,53.67Zm47.6,13.82V60.8h-3.24a3,3,0,0,1-2.52-1.23c-.22-.29-.51-.72-.51-2.59V40.92h5.91v-6h-5.91V24.65h-8.71V34.88h-4.61v6h4.61V57.7c0,7.34,3,9.79,7.85,9.79Zm27.5-17.13v4.1c0,4.61-2.88,7.49-7.85,7.49-3.67,0-5.4-2.16-5.4-4.11,0-1.65.43-3.24,6-4.89l3.81-1A8.67,8.67,0,0,0,600.41,50.36Zm0,13.46a10.64,10.64,0,0,0,1,3.67h9a4.82,4.82,0,0,1-1.51-3.31V46.32c0-7.84-4-12.6-14.62-12.6-9.86,0-13.9,5.48-13.82,11l7.7.14c0-2.45,1.87-4.75,6.34-4.75s5.76,2.09,5.76,3.67c0,1.3-.87,2.59-3.17,2.88l-5.11.94c-7.13,1.29-9.08,2.66-10.44,3.81a9,9,0,0,0-3,6.77c0,5.47,4.25,10.3,12.46,10.3C595.8,68.43,598.54,66.77,600.41,63.82Zm16.27,3.67h8.71l.15-18.21c0-2.67.43-3.82,1.15-4.83a6.89,6.89,0,0,1,5.4-2.73c3,0,5.18,2,5.18,5.61V67.49H646V44.6c0-6.12-4.47-10.88-11.24-10.88-4.6,0-8,2.6-9,5.12L625.32,35l-8.57-.14ZM668.74,59c-4.32,0-7.85-3.17-7.85-9.15,0-5.25,3.67-8.64,7.7-8.64s7.64,3.39,7.64,8.86C676.23,55.76,672.48,59,668.74,59ZM653.83,69.22c.51,3.1,1.37,4.82,3.24,6.55s5.62,3.67,12,3.67c7.05,0,11.52-2.52,13.75-5.4,1.51-1.94,2.3-3.81,2.3-8.64V34.88h-8.42l-.22,4c-.72-1-2.45-5.19-9.72-5.19C659,33.72,652,40.06,652,50.07S659,66.48,666.65,66.48c5.26,0,8.5-2.3,9.79-4.89L676.3,65c0,5.55-2.52,7.85-7.49,7.85-3.82,0-5.62-1.94-5.83-4ZM713,50.36v4.1c0,4.61-2.88,7.49-7.85,7.49-3.67,0-5.4-2.16-5.4-4.11,0-1.65.43-3.24,6-4.89l3.82-1A8.67,8.67,0,0,0,713,50.36Zm0,13.46a9.3,9.3,0,0,0,1,3.67h9a4.82,4.82,0,0,1-1.51-3.31V46.32c0-7.84-4-12.6-14.61-12.6-9.94,0-14,5.48-13.83,11l7.71.14c0-2.45,1.87-4.75,6.33-4.75,4.25,0,5.76,2.09,5.76,3.67,0,1.3-.93,2.59-3.24,2.88l-5,.94c-7.13,1.29-9.07,2.66-10.51,3.81a9,9,0,0,0-3,6.77c0,5.47,4.25,10.3,12.45,10.3C708.34,68.43,711.07,66.77,713,63.82Zm15-7.13c.22,6.05,5.26,12,15.27,12s14.68-5.4,14.68-11.3a9.16,9.16,0,0,0-2-5.62c-1.23-1.51-2.88-2.8-6.63-3.6L739.87,46c-1.94-.5-2.73-1.72-2.73-2.88s1.15-3.31,5.4-3.31c4.61,0,6.69,2.52,6.69,5.11l7.78-.21a11.62,11.62,0,0,0-4.68-8.5c-1.87-1.37-5-2.52-9.65-2.52-9.36,0-13.53,5-13.53,10.66a8.57,8.57,0,0,0,2.23,6.12c1.15,1.15,2.66,2.23,6.19,3L744.63,55c4.1.93,4.6,2.23,4.6,3.67s-1.29,3.74-6.12,3.74c-4.6,0-6.91-2.59-7.27-5.9Z"/><path class="d" d="M578.74,96.36h4V88.19h8.42V85h-8.42V80.38h9.88V77.14H578.74Zm18.31-7.07,2.62-8.3,2.5,8.3Zm-6.29,7.07h4l1.28-4h7l1.22,4h4.09l-6.59-19.22h-4.27ZM613.7,85.69V80.38h4.46a2.46,2.46,0,0,1,1.77.43,2.74,2.74,0,0,1,1.22,2.25c0,1.47-1.16,2.69-3.17,2.69Zm-3.9,10.67h3.9l.07-7.56h3.47a3.29,3.29,0,0,1,2.93,1.58,3.93,3.93,0,0,1,.37,1.22c.36,1.59,0,3.3.73,4.76h4a5.08,5.08,0,0,1-.61-2L624.38,91a3.58,3.58,0,0,0-1-2.56,4.17,4.17,0,0,0-2.57-1.16,4.57,4.57,0,0,0,4.21-4.76c0-3-2.38-5.55-6.46-5.37h-8.73Zm23.25-7.07,2.62-8.3,2.5,8.3Zm-6.29,7.07h4l1.28-4h7l1.22,4h4.08l-6.58-19.22h-4.28Z"/><path class="e" d="M117.09,35.86,96,57l21.14,21,21,21.16L159.27,78,180.43,56.9l-21.16-21c-11.51-11.63-21-21.15-21-21.15S128.62,24.23,117.09,35.86Z"/><path class="f" d="M155.92,39.22,173.71,56.9,155.92,74.69l-17.79,17.9-17.68-17.9L102.65,56.9l17.8-17.68c9.73-9.85,17.68-17.79,17.79-17.79S146.19,29.37,155.92,39.22Z"/><path class="d" d="M138.24,31.84c-2.69,5,.56,7.83-3,15.22-1.8-1.46-.79-7.06-4.48-7.16a5.56,5.56,0,0,1,.11,3c-.45,2.34-1.23,4.58.45,7.71-2.57-1.23-2.68-3.47-4.81-4.92.44,2.35-.56,7.27,2.24,12.08-2.58-.33-3.36-1.23-6.15-3.91,2.9,15,5,15.44,15.66,16.22a9.74,9.74,0,0,1-8.06-7c-.11-1.57-.22,1.34,4.93,1.34-3.25-5.15-2.35-4.14-2-7.15,1.34,2.12.22,2.23,4,3.8-1.23-3.8,1.79-6.49,1.24-10.86.78,1.91,3.79,1.57,3.68,10.86,2.47-2.8,2.69-.9,3.92-3.92.11,1.68.79,3.81-2.57,7.39.89.22,2.34.44,4.7-1.12C145.73,66,147.86,66,142,70.21c7.27.12,12-4.48,11.87-14.55-.23.9-.45,2.58-4.37,3.14a10.2,10.2,0,0,0,1.79-11.3c-.66.67-1.68,3.68-4.25,4.48a9.7,9.7,0,0,0,1-4.92,10.4,10.4,0,0,0-1.9-6.61c-.67,4.58-.57,6.82-3.48,7.49.45-2.68.57-3.92-.89-6.93S138.69,34.75,138.24,31.84Zm-12,40.84v2.68h25.51V72.68H126.26Z"/><path class="e" d="M210,35.86,188.9,57,210,78l21,21.16L252.22,78,273.38,56.9l-21.16-21c-11.51-11.63-21-21.15-21-21.15S221.57,24.23,210,35.86Z"/><path class="f" d="M248.87,39.22,266.66,56.9,248.87,74.69l-17.79,17.9L213.4,74.69,195.6,56.9l17.8-17.68c9.73-9.85,17.68-17.79,17.79-17.79S239.14,29.37,248.87,39.22Z"/><path class="d" d="M240.14,48.17h-.22c-.22,0-27.64,7.38-27.75,7.38a2.83,2.83,0,0,0-1.45,2.35v1a5.14,5.14,0,0,0,.22,1.34c.45,1.91,1.57,3.37,2.91,3.7h.56c.11,0,27.3-7.39,27.63-7.39a2.43,2.43,0,0,0,1.24-1.11c.11-.34.22-.68.34-1.13a1.4,1.4,0,0,1,.21-.78,1.78,1.78,0,0,1,.9-.67s1.46-.33,3-.78,2.91-.78,3-.78a1.55,1.55,0,0,0,.44-2.14,1.52,1.52,0,0,0-.9-.78h-.55s-1.35.34-2.91.78S244,50,244,50h-.33a1.19,1.19,0,0,1-.67-.11,1.45,1.45,0,0,1-.68-.55,4.62,4.62,0,0,0-1.23-1c-.23,0-.33-.11-.56-.11Z"/></svg>