<svg xmlns="http://www.w3.org/2000/svg" viewBox="0 0 992.77 113.82"><defs><style>.a,.f{fill:#fff;}.a{stroke:#000;stroke-miterlimit:10;stroke-width:0.5px;}.a,.c,.d,.e,.f{fill-rule:evenodd;}.b,.c{fill:#ef823d;}.d{fill:#000b0d;}.e{fill:#ac322d;}</style></defs><title>BG007_C</title><polygon class="a" points="80.62 113.57 0.43 55.84 80.62 0.26 912.15 0.25 992.34 57.98 912.15 113.56 80.62 113.57"/><rect class="b" x="89.14" y="8.12" width="815.35" height="97.53"/><polygon class="c" points="911.23 8.12 980.25 56.88 911.23 105.65 911.23 8.12"/><polygon class="c" points="81.72 8.12 12.7 56.88 81.72 105.65 81.72 8.12"/><path class="d" d="M549.65,50.79h11.23a12.06,12.06,0,0,1-12,10.65c-6.55,0-12.67-5-12.67-16.2C536.19,36,541,28.47,549,28.47a10.46,10.46,0,0,1,10.59,8.28l9.07-.36a17.78,17.78,0,0,0-5.55-10.3c-3.38-3.17-8.28-5.18-14.68-5.18-13.83,0-21.75,11.52-21.75,24.41,0,8.13,2.74,14,6.91,18a18.76,18.76,0,0,0,13.54,5.76,19.68,19.68,0,0,0,8.64-1.8,12.8,12.8,0,0,0,5.62-5.62l.5,6h7v-24H549.65Zm46.94-.22-.07,4c0,4.68-2.81,7.49-7.85,7.49-3.67,0-5.4-2.16-5.4-4.17,0-1.59.58-3.17,6-4.76l3.89-1A13.33,13.33,0,0,0,596.59,50.57Zm-.07,13.32a9,9,0,0,0,1.15,3.75h8.93a4.65,4.65,0,0,1-1.51-3.39V46.47c0-7.85-4-12.6-14.69-12.6-9.86,0-13.89,5.47-13.82,10.87l7.85.29c0-2.52,1.8-4.75,6.19-4.75s5.76,2,5.76,3.6c0,1.36-.79,2.44-3.17,2.95l-5,.86c-7.2,1.3-9.07,2.59-10.44,3.89a8.76,8.76,0,0,0-3.1,6.77c0,5.33,4.32,10.22,12.46,10.22C591.84,68.57,594.72,67,596.52,63.89Zm15.05-7.13c.14,6.27,5.18,12,15.26,12s14.62-5.47,14.62-11.23a9.92,9.92,0,0,0-2-5.76c-1.29-1.52-2.88-2.6-6.69-3.53l-9.29-2.16c-2-.58-2.81-1.66-2.81-3s1.23-3.24,5.4-3.24c4.68,0,6.7,2.44,6.84,5.11l7.71-.15a11.83,11.83,0,0,0-4.68-8.64c-1.95-1.29-5-2.44-9.72-2.44-9.44,0-13.47,5.11-13.47,10.65A8.28,8.28,0,0,0,615,50.57c1.16,1.23,2.6,2.23,6.27,3l7,1.58c4.11.94,4.68,2.16,4.68,3.74,0,1.37-1.37,3.6-6.26,3.6-4.54,0-6.91-2.44-7.27-5.76ZM664.35,62c-4.11,0-8.21-3.17-8.21-10.37,0-7.85,4-10.87,8.28-10.87s8.13,3.17,8.13,10.51C672.55,58.92,668.59,62,664.35,62Zm.07,6.84c9.86,0,17.13-6.91,17.13-17.57,0-10.15-7.12-17.35-17.2-17.35-9.87,0-17.14,7.05-17.14,17.35C647.21,62,654.48,68.79,664.42,68.79Zm23.25-1.15h8.79V22.35h-8.71Z"/><path class="d" d="M578.74,96.29h4V88.12h8.42V84.94h-8.42V80.31h9.88V77.07H578.74Zm18.31-7.08,2.62-8.29,2.5,8.29Zm-6.29,7.08h4l1.28-4h7l1.22,4h4.09l-6.59-19.22h-4.27ZM613.7,85.61v-5.3h4.46a2.52,2.52,0,0,1,1.77.42A2.77,2.77,0,0,1,621.15,83c0,1.47-1.16,2.69-3.17,2.69Zm-3.9,10.68h3.9l.07-7.56h3.47a3.29,3.29,0,0,1,2.93,1.58,3.93,3.93,0,0,1,.37,1.22c.36,1.59,0,3.3.73,4.76h4a5.14,5.14,0,0,1-.61-2l-.31-3.36a3.58,3.58,0,0,0-1-2.56,4.17,4.17,0,0,0-2.57-1.16,4.57,4.57,0,0,0,4.21-4.76c0-3-2.38-5.55-6.46-5.37h-8.73Zm23.25-7.08,2.62-8.29,2.5,8.29Zm-6.29,7.08h4l1.28-4h7l1.22,4h4.08l-6.58-19.22h-4.28Z"/><path class="e" d="M116.88,35.94,95.73,57.08l21.15,21,21,21.16,21.14-21.16L180.21,57l-21.16-21c-11.51-11.64-21-21.15-21-21.15S128.41,24.3,116.88,35.94Z"/><path class="f" d="M155.7,39.29,173.5,57,155.7,74.76l-17.79,17.9-17.68-17.9L102.44,57l17.79-17.68C130,29.44,137.91,21.5,138,21.5S146,29.44,155.7,39.29Z"/><path class="d" d="M138,31.91c-2.68,5,.56,7.83-3,15.22-1.79-1.46-.79-7.05-4.48-7.16a5.49,5.49,0,0,1,.12,3c-.45,2.34-1.23,4.58.45,7.72-2.58-1.23-2.68-3.47-4.82-4.93.45,2.35-.56,7.27,2.24,12.08-2.57-.33-3.36-1.23-6.15-3.91,2.91,15,5,15.44,15.66,16.22A9.73,9.73,0,0,1,130,63.12c-.11-1.56-.23,1.35,4.92,1.35-3.24-5.15-2.35-4.14-2-7.16,1.33,2.12.22,2.24,4,3.8-1.23-3.8,1.79-6.49,1.24-10.86.78,1.91,3.8,1.57,3.68,10.86,2.47-2.8,2.69-.9,3.92-3.92.11,1.68.79,3.81-2.57,7.39.89.22,2.35.44,4.71-1.12-2.36,2.57-.23,2.57-6.06,6.82,7.28.12,12-4.48,11.87-14.55-.23.9-.45,2.58-4.37,3.14a10.2,10.2,0,0,0,1.8-11.3c-.67.67-1.69,3.69-4.25,4.48a9.82,9.82,0,0,0,1-4.92A10.44,10.44,0,0,0,146,40.52c-.67,4.58-.56,6.82-3.47,7.5.44-2.69.56-3.92-.9-6.94S138.48,34.82,138,31.91Zm-12,40.84v2.68h25.51V72.75H126.05Z"/><path class="e" d="M209.9,35.94,188.76,57.08l21.14,21,21,21.16,21.14-21.16L273.24,57l-21.16-21c-11.52-11.64-21-21.15-21-21.15S221.43,24.3,209.9,35.94Z"/><path class="f" d="M248.72,39.29,266.52,57l-17.8,17.79-17.78,17.9-17.69-17.9L195.46,57l17.79-17.68C223,29.44,230.94,21.5,231,21.5S239,29.44,248.72,39.29Z"/><path class="d" d="M240,48.24h-.22c-.23,0-27.64,7.39-27.76,7.39A2.8,2.8,0,0,0,210.57,58v1a5.76,5.76,0,0,0,.22,1.35c.45,1.9,1.58,3.36,2.92,3.69h.55c.12,0,27.3-7.39,27.64-7.39a2.42,2.42,0,0,0,1.24-1.11c.11-.34.21-.67.33-1.12a1.27,1.27,0,0,1,.22-.78,1.76,1.76,0,0,1,.89-.68s1.46-.33,3-.78,2.91-.78,3-.78a1.53,1.53,0,0,0,.45-2.13,1.48,1.48,0,0,0-.9-.78h-.55s-1.36.33-2.92.78-2.91.78-2.91.78h-.33a1.23,1.23,0,0,1-.67-.11,1.45,1.45,0,0,1-.68-.55,4.59,4.59,0,0,0-1.22-1c-.23,0-.34-.11-.57-.11Z"/><path class="e" d="M302.85,35.94,281.71,57.08l21.14,21,21,21.16L345,78.11,366.19,57,345,35.94c-11.51-11.64-21-21.15-21-21.15S314.38,24.3,302.85,35.94Z"/><path class="f" d="M341.68,39.29,359.47,57l-17.79,17.9L323.89,92.66l-17.68-17.9L288.41,57l17.8-17.68C315.94,29.44,323.89,21.5,324,21.5S332,29.44,341.68,39.29Z"/><path class="d" d="M324.12,29.78h-.34a10.21,10.21,0,0,0-3.36.9,9.14,9.14,0,0,0-2.91,2.24,8.41,8.41,0,0,0-1.79,3.24,10.7,10.7,0,0,0-.45,5.48,20.74,20.74,0,0,0,1.57,5.7,15.63,15.63,0,0,0,.67,1.46,15.91,15.91,0,0,0,1.34,2l.12.12c0,.11-.34,3.13-.34,3.13s-1.46.56-3.36,1.23l-3.36,1.24h-.1v.1a1.2,1.2,0,0,0,.88.9h.57v.11a1.17,1.17,0,0,0,.66.56c.12.11.23.11.46.11h.22v.12a1.16,1.16,0,0,0,.56.67,1.27,1.27,0,0,0,.9,0c.1,0,.1,0,.1.11.12.34.34.56.57.56h.33v.11a1.44,1.44,0,0,0,.68.77h.78c.22,0,.45-.21.66-.32,0-.12,0-.12.12-.23h0l.11.11a1.16,1.16,0,0,0,.9,0h.11l.11.12a1.29,1.29,0,0,0,.56.55h.12V61a.46.46,0,0,0,.1.34.42.42,0,0,0,.34.11c.23,0,.44-.11.44-.34v-.23h.12a1.75,1.75,0,0,0,.67-.89v-.34a.92.92,0,0,0-.12-.55V59h0a.4.4,0,0,0,.23-.55.39.39,0,0,0-.11-.23h-.12l.12-.11c0-.12.11-.23.11-.33a.45.45,0,0,0,.11-.35v-.22h.12a1.07,1.07,0,0,0,.56-.89.93.93,0,0,0-.23-.9v-.11h.11c.12,0,.23,0,.23-.11s.11-.11.11-.33a.35.35,0,0,0-.11-.23c0-.12-.11-.12-.23-.12h-.34a.1.1,0,0,0-.1-.1l-.23-.11v-.12a.69.69,0,0,0,.11-.45.66.66,0,0,0,0-.67v-.11l.12-.11a1.44,1.44,0,0,0,.56-.56v-.79c0-.1-.12-.22-.23-.33V51h.11a1.12,1.12,0,0,0,.46-.56V50c-.12-.11-.23-.33-.34-.45h0v-.1c.11-.11.11-.23.11-.45v-.12H324a.32.32,0,0,0,.22-.11h.11v.11c0,.23,0,.46.23.57l.11.1v.12a.49.49,0,0,0,0,.55,1.37,1.37,0,0,0,.56.79c.11,0,.11,0,0,.11v.23a1.68,1.68,0,0,0,.45,1.23l.11.11h0a.83.83,0,0,0-.45.45,1.15,1.15,0,0,0,.34,1.12h.11v.11h0a.7.7,0,0,0,.34.89v.23a1.76,1.76,0,0,0,0,1.11h.1l-.1.11v.12l-.12-.12a.54.54,0,0,0-.67.23v.34a.61.61,0,0,0,.45.22h0v.23a1.7,1.7,0,0,0,.22.67v.11h0a1.94,1.94,0,0,0-.11.78,1.86,1.86,0,0,0,.33,1v.22c0,.1-.1.33,0,.45a.53.53,0,0,0,.57.56.33.33,0,0,0,.44,0c.23,0,.45-.22.56-.56h0c.11,0,.34-.12.45-.12s.12-.1.12,0,.21.23.33.23a.66.66,0,0,0,.78-.33v-.45l-.33-.34h0v-.11a.4.4,0,0,0,.1-.23v-.1l.12.1h.34v.12c.11.11.33.22.44.33h.45a.24.24,0,0,0,.22-.22h.12c.11.11.21.22.34.33s.1.12.21.12a.88.88,0,0,0,.57-.23V60h.1a.45.45,0,0,0,.35.11h.22c.33-.11.56-.33.56-.55a.57.57,0,0,0,0-.57v-.11h.1c.13.11.23,0,.34,0a.59.59,0,0,0,.34-.56V58.2l.12.11a1.07,1.07,0,0,0,.44.33H335c.22-.1.56-.33.56-.67.1,0,.1,0,.1-.11v-.1c.23-.12.34-.23.34-.45v-.12h.12a.45.45,0,0,0,.34-.11.1.1,0,0,0,.1-.11v-.34l-3.69-1.23L329,54.29V51.38l.11-.12a13.77,13.77,0,0,0,1.12-1.56,25,25,0,0,0,1.34-2.8,32.52,32.52,0,0,0,1.57-6.49V39.07A11.12,11.12,0,0,0,330,32.58a8.81,8.81,0,0,0-3.47-2.36,16,16,0,0,0-2.12-.44ZM310.24,57.31h-.34a2.78,2.78,0,0,0-.67.33c-2.13.79-2.91,1-3.13,1.13a3.61,3.61,0,0,0-1.68,2.57v4.13l3.12,3.25c1.69,1.79,3.14,3.24,3.14,3.24a.69.69,0,0,0,.45-.11.61.61,0,0,0,.56-.33h.79a1,1,0,0,0,.66-.67c.12-.11.12-.23.12-.45v-.12h.11c.11.12.23.23.33.23H314c.11.11.22,0,.34,0a1.29,1.29,0,0,0,.55-.56v-.67l.12-.11a.38.38,0,0,1,.22-.12l.11-.11h0c.12,0,.12.11.23.11h.55a.73.73,0,0,0,.23-1l-.11-.1a.11.11,0,0,0,.11-.11.52.52,0,0,0,.34-.46h.11a.76.76,0,0,0,.44.23c.12,0,.12,0,.12.11s-.12,0-.12.12c-.22.33.12.78.46.89a.67.67,0,0,0,.78-.78c0-.23-.12-.34-.34-.45l-.11-.12h.11a.83.83,0,0,0,.22-.44v-.45h.12a.4.4,0,0,0,.33-.11v.11l.12.23c.1,0,.1.11.21.11h.34l.23-.23a.37.37,0,0,0,0-.45c0-.11-.23-.21-.34-.21v-.68a.4.4,0,0,0,.34-.12.54.54,0,0,0,0-.55c-.11-.11-.23-.23-.34-.23h0a1,1,0,0,0-.44-.66l-.12-.12v-.22a.41.41,0,0,0-.11-.34,1.09,1.09,0,0,0-.45-.56,1,1,0,0,0-.55-.11,1.06,1.06,0,0,0-.57.11h-.11c.11,0,.11-.22.11-.34s-.44-.55-.67-.44h-.11v-.22a1.06,1.06,0,0,0-.33-.8c-.23-.1-.34-.21-.56-.32h-.34a.81.81,0,0,0-.44.11h-.12c0-.11-.22-.23-.34-.34l-.11-.11H314v-.34a.61.61,0,0,0-.34-.55h-.44V59c-.12-.21-.23-.44-.34-.67a1,1,0,0,0-.78-.34h-.45c0-.11-.11-.21-.22-.33s-.45,0-.56.12h-.12v-.12a.59.59,0,0,0-.55-.33Zm28.53.1h-.11c-.22,0-.35.23-.45.45h-.11a.54.54,0,0,0-.67.23.39.39,0,0,0-.12.34v.11h-.11a1.18,1.18,0,0,0-1.45.1,1,1,0,0,0-.34.68v.23h-.11a1.93,1.93,0,0,0-1.11.1c-.12.12-.34.45-.46.56a1.15,1.15,0,0,0-.21.79v.22h-.13c-.21-.11-.44,0-.66.23h-.22a1.64,1.64,0,0,0-1,.11,1.71,1.71,0,0,0-.67.89v.23l-.11.11h-.33a.81.81,0,0,0-.45.44.36.36,0,0,0,0,.46v.1h-.11a.37.37,0,0,0-.45,0c-.12,0-.22.12-.33.23a.41.41,0,0,0-.23.56c0,.22,0,.34.11.44s.12.11,0,.11l-.22.12c0,.11-.12.11-.12.22v.33a.61.61,0,0,0,.9.13V65.8a.62.62,0,0,0,.45.13H330V66c0,.23,0,.34.11.45a.11.11,0,0,1-.11.11.38.38,0,0,1-.22.12.73.73,0,0,0,.22,1h.45l.33-.34v-.11l.12.11c.21,0,.44.12.67.12v.34a.41.41,0,0,0,.11.33h-.11c-.23,0-.33.11-.46.34v.22a.37.37,0,0,0,.13.33c.1,0,.21.12.33.12a.94.94,0,0,0,.45-.45v.11a1.15,1.15,0,0,0,.78.67c.11.11.22.11.45.11s.33-.11.44-.11l.12-.11v.11c.11.11.11.34.22.45s.33.22.45.22h.55c.12,0,.23-.1.34-.1v0a1.14,1.14,0,0,0,1.23,1.11h.45l.11-.11-.11.11a.75.75,0,0,0,.67,1,.86.86,0,0,0,.68-.22c.1-.11,1.56-1.45,3.24-3l3-2.8V61.45c-.1-.23-.1-.45-.22-.67a8.76,8.76,0,0,0-.88-1.23,5.89,5.89,0,0,0-1.8-1.12C341.57,58.31,338.77,57.41,338.77,57.41ZM324.33,58h-.11c-.22,0-.33.12-.44.34v.46c.11.1.11.21.22.33h0a.58.58,0,0,0-.22.45v.1c.11.23.22.23.44.23s.23,0,.23-.11.22-.12.22-.22,0-.23-.11-.23v-.11l-.11-.11h.11c.11,0,.23-.12.34-.23s0-.1.1-.33-.1-.11-.1-.23-.11-.22-.34-.34h-.23Zm-.89,2.58h0c-.12,0-.22.1-.34.23v.33c.12.23.22.34.45.34s.11,0,.11-.11A.36.36,0,0,0,324,61c0-.12-.11-.22-.22-.35S323.55,60.55,323.44,60.55Zm-4,.45h0c-.23.11-.34.11-.34.22a.76.76,0,0,0-.1.45v.22a.72.72,0,0,0,1,.22.74.74,0,0,0-.13-1.11h-.44Zm7.16,1.11h-.23c-.21.12-.33.23-.33.34s.12.44.22.44.11.12.23.12h.11v.11a.9.9,0,0,0,.45.45.48.48,0,0,0,.56,0l.33-.34v-.34l-.11-.1a.84.84,0,0,0-.44-.45.42.42,0,0,0-.34.11h0l-.11-.11a.25.25,0,0,0-.22-.23Zm-6.82,1.12h-.11c-.12.12-.23.23-.23.34a.57.57,0,0,0,.23.45h.44c0,.11.11.23.23.33a.51.51,0,0,0,.9-.22c.1,0,.1,0,.1-.22s0-.12-.1-.22-.12-.23-.23-.34h-.22c-.23,0-.34,0-.45.11h-.12a.43.43,0,0,0-.11-.23h-.33Zm8.28,3h0a1.45,1.45,0,0,0-.45.33v.57h-.11c-.11,0-.11.1-.23.21v.46l.23.21h.22a.46.46,0,0,0,.34-.1.42.42,0,0,0,.11-.34v-.11h.11a.67.67,0,0,0,.45-1.12c-.12,0-.23,0-.23-.11H328Zm-4.81.78H323c-.11.12-.23.22-.33.33v.57c.22.33.66.44.89.1a.48.48,0,0,0-.11-.88C323.32,67,323.32,67,323.22,67Zm-3.58.12h0c-.23,0-.34.1-.34.21v.46a.23.23,0,0,0,.22.21h.23a.43.43,0,0,0,.33-.1.55.55,0,0,0-.1-.78h-.34Zm.78,1.22c-.11,0-.11.12-.23.12s-.34.22-.44.44v.23c0,.11,0,.11.1.22a.32.32,0,0,0,.13.22h0a1.23,1.23,0,0,0-.46-.11,1.44,1.44,0,0,0-.89.57h-.11c-.12-.12-.23-.23-.34-.23h-.56a1.15,1.15,0,0,0-.68.56v.11h-.1c-.11-.11-.23-.11-.45-.11a.74.74,0,0,0-.78.45,1,1,0,0,0-.11.55v.12h0a2.25,2.25,0,0,0-.57-.34h-.78a.9.9,0,0,0-.45.22,3.12,3.12,0,0,0-.44.56h-.12a.82.82,0,0,0-1,.12.58.58,0,0,0-.33.55V73l5.47,5.7,5.82,5.81.12.23.1-.12.12-.11c.11-.1.11-.1.11-.23s0-.1-.11-.21a.11.11,0,0,0-.12-.11h0v-.12c.23-.11.34-.33.23-.44s-.23-.22-.23-.22l.12-.12a.4.4,0,0,0,.11-.33.38.38,0,0,0-.11-.33c0-.12-.12-.12-.22-.23h-.12l.12-.11a1.88,1.88,0,0,0,.56-2.24.12.12,0,0,1-.12-.12v-.11h0a1.09,1.09,0,0,0,.34-1.46.74.74,0,0,0-.45-.55h-.11l.11-.12c.11-.11.23-.21.23-.33a.87.87,0,0,0-.23-.56l-.11-.11h.11a.69.69,0,0,0-.11-.78c-.12-.23-.34-.23-.56-.23h-.12a1.24,1.24,0,0,0,.12-.9c-.12-.11-.12-.11,0-.11s.34-.22.44-.33a.59.59,0,0,0-.22-.9H323l.11-.1a1.33,1.33,0,0,0,.34-.91c-.12-.22-.12-.44-.22-.55s-.23-.34-.34-.34l.11-.11c0-.11.11-.23.11-.33s.12-.11.12-.34-.12-.34-.23-.56v-.11h0c.11-.12.23-.23.23-.34v-.33c0-.12-.12-.12-.23-.23h-.23a.42.42,0,0,0-.33.11h-.11c-.11-.11-.23-.22-.33-.22a.87.87,0,0,0-.9-.11H321c-.11-.11-.22-.22-.34-.22A.33.33,0,0,0,320.42,68.38Zm6.49.23h-.11a.8.8,0,0,0-.67.78v.33h0a.7.7,0,0,0-1,.35v.33c0,.11,0,.11.11.22s.22.23.33.33.12,0,0,.12v.33a.69.69,0,0,0,.34.89l.11.12-.11.11a1.48,1.48,0,0,0-.11.67,1,1,0,0,0,.34.79v.11h0c0,.23-.12.33-.12.56v.11h-.22v-.11c.11-.12.11-.23.11-.45a1.58,1.58,0,0,0-.22-.33l-.12-.11a.64.64,0,0,0-.77.11.67.67,0,0,0-.12.89h0v.11a.3.3,0,0,0-.34.33c-.11,0-.11.12-.11.23s0,.11.11.23a.52.52,0,0,0,.57.44h.1l-.1.12a1.59,1.59,0,0,0,0,1c0,.1.1.33.1.44s.23.23.34.23V78h0l-.11.1a1.4,1.4,0,0,0-.33,2.14l.1.1-.1.12c-.11.11-.23.22-.23.33a.84.84,0,0,0-.11.56v.34l.11.11h-.11a.87.87,0,0,0,.11.9v.11l-.11.11a.28.28,0,0,0,.11.45v.11h0a.4.4,0,0,0-.11.33c0,.12,0,.12-.11.12s-.12.11-.12.32,0,.13.12.13a.38.38,0,0,0,.11.21s1.12-1,6.26-5.7L337,73.19v-.1a.22.22,0,0,0,0-.34c0-.23-.22-.34-.45-.46a.38.38,0,0,0-.33.12h-.11a.42.42,0,0,1-.12-.23l-.34-.33a.83.83,0,0,0-.44-.11c-.22,0-.34,0-.45.11h-.11v-.11a1.19,1.19,0,0,0-1-1.12h-.44l-.12.12v-.12c0-.11-.22-.34-.33-.45a.76.76,0,0,0-.45-.1.7.7,0,0,0-.56.67v0c-.11-.12-.23-.23-.34-.23s-.33-.11-.44-.11h-.12l-.11-.12a1,1,0,0,0-1.11-1h-.23v-.11c0-.23-.12-.34-.33-.45a.76.76,0,0,0-.9.33h-.34c-.11,0-.11.12-.11.12s0-.12-.11-.12-.11-.22-.22-.33A.7.7,0,0,0,326.91,68.61Zm-6.72,1.11h.12v0Zm4,1.46a.1.1,0,0,0-.1.11c-.12,0-.12,0-.23.11a.7.7,0,0,0-.11.45l.11.11.11.12h-.11a.38.38,0,0,0-.11.33.62.62,0,0,0,.67.78.58.58,0,0,0,.55-.56.54.54,0,0,0-.21-.67h-.12v-.11a.11.11,0,0,0,.12-.11c0-.11,0-.11-.12-.22a.24.24,0,0,0-.22-.23C324.33,71.29,324.33,71.18,324.22,71.18Z"/></svg>