<svg xmlns="http://www.w3.org/2000/svg" viewBox="0 0 992.77 113.82"><defs><style>.a,.f{fill:#fff;}.a{stroke:#000;stroke-miterlimit:10;stroke-width:0.5px;}.a,.c,.d,.e,.f{fill-rule:evenodd;}.b,.c{fill:#ef823d;}.d{fill:#000b0d;}.e{fill:#ac322d;}</style></defs><title>BG005_C</title><polygon class="a" points="80.62 113.57 0.43 55.84 80.62 0.26 912.15 0.25 992.34 57.98 912.15 113.56 80.62 113.57"/><rect class="b" x="89.14" y="8.12" width="815.35" height="97.53"/><polygon class="c" points="911.23 8.12 980.25 56.88 911.23 105.65 911.23 8.12"/><polygon class="c" points="81.72 8.12 12.7 56.88 81.72 105.65 81.72 8.12"/><path class="d" d="M535.47,40.35v-11h11.88a5.51,5.51,0,0,1,5.18,5.47,5.6,5.6,0,0,1-5.83,5.69Zm0,19.73v-13H546.7a6.27,6.27,0,0,1,6.62,6.26,6.53,6.53,0,0,1-6.62,6.7ZM526,67.42h23.4c4.18,0,6.2-.72,8.5-2.3C561.17,63,563,59.5,563,54.89c0-5.9-3.38-10.29-8.85-11.66a9.8,9.8,0,0,0,7.2-9.65,10.85,10.85,0,0,0-5.19-9.72c-1.8-1.15-3.53-1.73-7.56-1.73H526Zm63.58-3.67.5,3.67h8.14V35l-8.64-.15V53.16c0,4.9-3,7.49-6.55,7.49-3.24,0-5.26-1.73-5.26-6.33V34.8H569V57.27c0,4.25,1.29,6.55,3.24,8.42a11.77,11.77,0,0,0,8.13,2.74C584.43,68.43,587.67,66.84,589.61,63.75Zm33.91,3.67v-6.7h-3.24a3.15,3.15,0,0,1-2.52-1.22c-.29-.29-.5-.72-.5-2.59V40.85h6V34.8h-6V24.58h-8.64V34.8H604v6.05h4.61V57.63c0,7.34,2.88,9.79,7.7,9.79Zm13.54-20.16a7.51,7.51,0,0,1,7.13-6.7c3.6,0,6.69,2.45,7.27,6.7Zm-.29,6.34h24.12c0-9.65-4.32-20-16.56-20-12.46,0-16.34,10-16.34,17.43,0,10.8,7.27,17.49,16.34,17.49s14.62-5,16-10.58l-8.85-.58a7.27,7.27,0,0,1-6.77,4.25C640.51,61.66,637.2,58.78,636.77,53.6Zm30.17,13.82h8.85V49.2c0-2.66.44-3.81,1.23-4.82a6.76,6.76,0,0,1,5.33-2.74c3,0,5.18,2,5.18,5.62V67.42h8.71V44.52c0-6.12-4.46-10.87-11.23-10.87-4.61,0-8,2.59-9,5.11L675.65,35,667,34.8Z"/><path class="d" d="M578.74,96.36h4V88.19h8.42V85h-8.42V80.38h9.88V77.14H578.74Zm18.31-7.07,2.62-8.3,2.5,8.3Zm-6.29,7.07h4l1.28-4h7l1.22,4h4.09l-6.59-19.22h-4.27ZM613.7,85.69V80.38h4.46a2.46,2.46,0,0,1,1.77.43,2.74,2.74,0,0,1,1.22,2.25c0,1.47-1.16,2.69-3.17,2.69Zm-3.9,10.67h3.9l.07-7.56h3.47a3.29,3.29,0,0,1,2.93,1.58,3.93,3.93,0,0,1,.37,1.22c.36,1.59,0,3.3.73,4.76h4a5.08,5.08,0,0,1-.61-2L624.38,91a3.58,3.58,0,0,0-1-2.56,4.17,4.17,0,0,0-2.57-1.16,4.57,4.57,0,0,0,4.21-4.76c0-3-2.38-5.55-6.46-5.37h-8.73Zm23.25-7.07,2.62-8.3,2.5,8.3Zm-6.29,7.07h4l1.28-4h7l1.22,4h4.08l-6.58-19.22h-4.28Z"/><path class="e" d="M117,35.79,95.88,56.93,117,78l21,21.16L159.2,78l21.16-21.14-21.16-21c-11.52-11.64-21-21.15-21-21.15S128.55,24.15,117,35.79Z"/><path class="f" d="M155.84,39.15l17.8,17.68-17.8,17.79-17.78,17.9-17.69-17.9L102.58,56.83l17.79-17.68c9.74-9.85,17.69-17.79,17.79-17.79S146.12,29.3,155.84,39.15Z"/><path class="d" d="M138.16,31.76c-2.68,5,.57,7.84-3,15.23-1.79-1.46-.78-7.06-4.47-7.16a5.52,5.52,0,0,1,.11,3c-.45,2.35-1.23,4.59.45,7.72-2.57-1.23-2.68-3.47-4.81-4.92.44,2.35-.57,7.27,2.24,12.08-2.58-.34-3.36-1.23-6.15-3.91,2.9,15,5,15.43,15.65,16.22a9.75,9.75,0,0,1-8-7.05c-.11-1.57-.22,1.34,4.93,1.34-3.25-5.15-2.36-4.14-2-7.16,1.34,2.13.22,2.24,4,3.81-1.23-3.81,1.79-6.49,1.23-10.86.78,1.9,3.8,1.57,3.69,10.86,2.47-2.81,2.69-.9,3.92-3.92.11,1.68.78,3.81-2.58,7.39.9.22,2.35.44,4.71-1.13-2.36,2.58-.23,2.58-6.05,6.83,7.27.12,12-4.48,11.86-14.55-.22.9-.45,2.57-4.37,3.14a10.18,10.18,0,0,0,1.8-11.3c-.67.66-1.68,3.68-4.25,4.48A9.83,9.83,0,0,0,148,47a10.4,10.4,0,0,0-1.9-6.61c-.68,4.58-.57,6.82-3.48,7.49.44-2.68.57-3.92-.89-6.94S138.62,34.68,138.16,31.76Zm-12,40.85v2.68H151.7V72.61H126.19Z"/><path class="e" d="M209.9,35.79,188.76,56.93,209.9,78l21,21.16L252.08,78l21.16-21.14-21.16-21c-11.52-11.64-21-21.15-21-21.15S221.43,24.15,209.9,35.79Z"/><path class="f" d="M248.72,39.15l17.8,17.68-17.8,17.79-17.78,17.9-17.69-17.9L195.46,56.83l17.79-17.68C223,29.3,230.94,21.36,231,21.36S239,29.3,248.72,39.15Z"/><path class="d" d="M240,48.09h-.22c-.23,0-27.64,7.39-27.76,7.39a2.83,2.83,0,0,0-1.45,2.35v1a5.6,5.6,0,0,0,.22,1.34c.45,1.9,1.58,3.36,2.92,3.7h.55c.12,0,27.3-7.39,27.64-7.39a2.44,2.44,0,0,0,1.24-1.12c.11-.33.21-.67.33-1.12a1.32,1.32,0,0,1,.22-.78,1.8,1.8,0,0,1,.89-.67s1.46-.34,3-.79,2.91-.78,3-.78a1.53,1.53,0,0,0,.45-2.13,1.55,1.55,0,0,0-.9-.78h-.55s-1.36.34-2.92.78-2.91.79-2.91.79h-.33a1.14,1.14,0,0,1-.67-.12,1.34,1.34,0,0,1-.68-.55,4.73,4.73,0,0,0-1.22-1c-.23,0-.34-.12-.57-.12Z"/></svg>