<svg xmlns="http://www.w3.org/2000/svg" viewBox="0 0 992.77 113.82"><defs><style>.a{fill:#fff;stroke:#000;stroke-miterlimit:10;stroke-width:0.5px;}.a,.c,.d{fill-rule:evenodd;}.b,.c{fill:#ef823d;}.d{fill:#000b0d;}</style></defs><title>BG006_C</title><polygon class="a" points="80.62 113.57 0.43 55.84 80.62 0.26 912.15 0.25 992.34 57.98 912.15 113.56 80.62 113.57"/><rect class="b" x="89.21" y="8.19" width="815.35" height="97.53"/><polygon class="c" points="911.3 8.19 980.32 56.96 911.3 105.72 911.3 8.19"/><polygon class="c" points="81.79 8.19 12.77 56.96 81.79 105.72 81.79 8.19"/><path class="d" d="M453.31,63.39h14a15,15,0,0,1-15.12,13.46c-8.13,0-16-6.33-16-20.37,0-11.6,6.19-21.1,16.2-21.1A13.19,13.19,0,0,1,465.7,45.75l11.52-.29a22.89,22.89,0,0,0-6.91-13C466,28.47,459.87,26,451.66,26c-17.28,0-27.29,14.4-27.29,30.67,0,10.22,3.31,17.5,8.78,22.68,5.19,5,11,7.27,17,7.27A23.46,23.46,0,0,0,461,84.27a18,18,0,0,0,7.13-7.2l.57,7.63h8.71V54.53H453.31Zm58.83-.22v5.19c0,5.76-3.6,9.43-9.94,9.43-4.61,0-6.62-2.74-6.62-5.33,0-1.94.57-4.1,7.49-6l4.68-1.36A12.78,12.78,0,0,0,512.14,63.17Zm0,16.92a13.54,13.54,0,0,0,1.29,4.61h11.24a6.16,6.16,0,0,1-1.8-4.25V58c0-9.79-5.12-15.7-18.44-15.7-12.31,0-17.49,6.84-17.28,13.61l9.65.22c0-3,2.31-6,8-6,5.4,0,7.13,2.66,7.13,4.61,0,1.73-1.08,3.24-4,3.81l-6.26,1c-8.93,1.66-11.38,3.39-13.11,4.83A11.32,11.32,0,0,0,484.71,73c0,6.77,5.32,12.89,15.55,12.89C506.23,85.85,509.83,83.76,512.14,80.09Zm18.86-9c.22,7.71,6.7,15,19.23,15,12.81,0,18.43-6.77,18.43-14a11.91,11.91,0,0,0-2.52-7.27c-1.51-1.8-3.46-3.32-8.28-4.47L546,57.56c-2.38-.58-3.46-2.09-3.46-3.6s1.51-4.18,6.91-4.18c5.76,0,8.43,3.17,8.43,6.48l9.79-.22a14.69,14.69,0,0,0-5.9-10.72c-2.38-1.73-6.2-3.24-12.17-3.24-11.88,0-17.07,6.48-17.07,13.46a10.39,10.39,0,0,0,2.88,7.63c1.52,1.59,3.24,2.88,7.85,3.82l8.86,2c5.18,1.16,5.76,2.81,5.76,4.61s-1.73,4.75-7.71,4.75c-5.76,0-8.78-3.24-9.14-7.34Z"/></svg>