<svg xmlns="http://www.w3.org/2000/svg" viewBox="0 0 992.77 113.82"><defs><style>.a{fill:#fff;stroke:#000;stroke-miterlimit:10;stroke-width:0.5px;}.a,.c,.d{fill-rule:evenodd;}.b,.c{fill:#ef823d;}.d{fill:#000b0d;}</style></defs><title>BG003_C</title><polygon class="a" points="80.62 113.57 0.43 55.84 80.62 0.26 912.15 0.25 992.34 57.98 912.15 113.56 80.62 113.57"/><rect class="b" x="89.14" y="8.19" width="815.35" height="97.53"/><polygon class="c" points="911.23 8.19 980.25 56.96 911.23 105.72 911.23 8.19"/><polygon class="c" points="81.72 8.19 12.7 56.96 81.72 105.72 81.72 8.19"/><path class="d" d="M335,50.64V36.82h15a6.86,6.86,0,0,1,6.48,6.91,7,7,0,0,1-7.27,7Zm0,24.7V59.14h14.11c5.18,0,8.5,3.67,8.5,7.92a8.32,8.32,0,0,1-8.5,8.42ZM323.21,84.7h29.38c5.25,0,7.92-.94,10.65-2.88,4.18-2.88,6.48-7.13,6.48-12.89,0-7.41-4.25-12.89-11.3-14.76a12,12,0,0,0,9.21-12.09c0-5.4-2.3-9.58-6.4-12.1-2.45-1.51-4.61-2.3-9.72-2.3h-28.3Zm53.78,0h11v-57H377.07Zm46.16-21.53L423,68.36c0,5.76-3.53,9.43-9.86,9.43-4.61,0-6.77-2.74-6.77-5.33,0-1.94.65-4.1,7.56-6l4.75-1.36A14.07,14.07,0,0,0,423.15,63.17ZM423,80.09a12,12,0,0,0,1.44,4.61H435.6a7,7,0,0,1-1.87-4.25V58c0-9.79-5-15.7-18.43-15.7C403,42.29,397.8,49.13,398,55.9l9.72.22c0-3,2.3-6,7.92-6,5.4,0,7.27,2.66,7.27,4.61,0,1.73-1.08,3.24-4,3.81l-6.34,1C403.49,61.23,401,63,399.31,64.4A11.23,11.23,0,0,0,395.64,73c0,6.77,5.26,12.89,15.63,12.89C417.31,85.85,420.7,83.76,423,80.09Zm20.52,4.61h11.09l.07-22.9c0-3.24.58-4.75,1.51-6a8.41,8.41,0,0,1,6.7-3.46c3.82,0,6.55,2.38,6.55,7V84.7h10.95V55.83c0-7.63-5.55-13.54-14-13.54-5.91,0-10,3.17-11.38,6.34l-.5-4.83h-10.8Zm65.31-8.21c-5.19,0-9.65-3.67-9.65-12.31,0-9.79,4.68-13.1,9.21-13.1s9.29,3.31,9.29,12.74C517.68,73,513,76.49,508.83,76.49Zm8.78,4L518,84.7h11l-.15-57h-11V48.41c-2-3.24-6.56-6-11.88-6-9.08,0-18.08,7.7-18.08,22a24.71,24.71,0,0,0,5.4,15.84,15.13,15.13,0,0,0,12.32,5.83A14.88,14.88,0,0,0,517.61,80.52Zm40-6.55c-5.25,0-9.79-3.89-9.79-11.52,0-6.55,4.54-10.65,9.58-10.65s9.72,4.1,9.72,11C567.15,69.94,562.39,74,557.64,74ZM539,86.86c.51,4,1.66,6.12,4,8.35s7.05,4.61,15,4.61c8.86,0,14.62-3.24,17.28-6.84,2-2.52,2.88-4.68,2.88-10.94V43.8l-10.44-.07-.36,4.9c-.79-1.15-3-6.34-12.09-6.34-10,0-18.65,7.85-18.65,20.52s8.71,20.59,18.43,20.59c6.55,0,10.66-3,12.17-6v4.32c0,6.91-3.1,9.79-9.43,9.79-4.83,0-7.13-2.38-7.49-4.9ZM613.3,63.17l-.15,5.19c0,5.76-3.52,9.43-9.86,9.43-4.61,0-6.84-2.74-6.84-5.33,0-1.94.72-4.1,7.63-6l4.75-1.36A14.07,14.07,0,0,0,613.3,63.17Zm-.15,16.92a12,12,0,0,0,1.44,4.61h11.16a7.14,7.14,0,0,1-1.87-4.25V58c0-9.79-5-15.7-18.43-15.7-12.31,0-17.5,6.84-17.28,13.61l9.72.22c0-3,2.3-6,7.92-6,5.4,0,7.27,2.66,7.27,4.61,0,1.73-1.08,3.24-4,3.81l-6.34,1c-9.14,1.66-11.52,3.39-13.24,4.83A11.2,11.2,0,0,0,585.79,73c0,6.77,5.26,12.89,15.63,12.89C607.39,85.85,610.85,83.76,613.15,80.09Zm18.94-9c.22,7.71,6.77,15,19.3,15,12.81,0,18.43-6.77,18.43-14a11.91,11.91,0,0,0-2.52-7.27c-1.59-1.8-3.53-3.32-8.43-4.47l-11.73-2.73c-2.52-.58-3.46-2.09-3.46-3.6s1.37-4.18,6.84-4.18c5.83,0,8.35,3.17,8.5,6.48l9.65-.22a14.59,14.59,0,0,0-5.84-10.72c-2.44-1.73-6.26-3.24-12.24-3.24-11.73,0-16.92,6.48-16.92,13.46a10.89,10.89,0,0,0,2.74,7.63c1.51,1.59,3.24,2.88,7.85,3.82l8.85,2c5.19,1.16,5.91,2.81,5.91,4.61s-1.73,4.75-7.85,4.75c-5.76,0-8.71-3.24-9.07-7.34Z"/></svg>