<svg xmlns="http://www.w3.org/2000/svg" viewBox="0 0 992.77 113.82"><defs><style>.a{fill:#fff;stroke:#000;stroke-miterlimit:10;stroke-width:0.5px;}.a,.c,.d{fill-rule:evenodd;}.b,.c{fill:#ef823d;}.d{fill:#000b0d;}</style></defs><title>BG011_C</title><polygon class="a" points="80.62 113.57 0.43 55.84 80.62 0.26 912.15 0.25 992.34 57.98 912.15 113.56 80.62 113.57"/><rect class="b" x="89.21" y="8.12" width="815.35" height="97.53"/><polygon class="c" points="911.3 8.12 980.32 56.88 911.3 105.65 911.3 8.12"/><polygon class="c" points="81.79 8.12 12.77 56.88 81.79 105.65 81.79 8.12"/><path class="d" d="M317.16,66.77c0,10.51,7.85,19.8,24.41,19.8s24-8.85,24-18.5c0-7.2-4.54-13.75-14.33-16.13l-13.47-3.46c-4-1.08-4.46-1.51-5.25-2.44A5,5,0,0,1,331,42.22c0-3.17,2.73-7.13,10.94-7.13a12.37,12.37,0,0,1,8.64,3,9.51,9.51,0,0,1,2.66,6.12l11.38.07c-.43-6.19-2.66-10-5.76-12.89s-9.36-5.62-17.64-5.62c-15,0-22.1,8.36-22.1,17.72,0,7.27,4.17,13.24,14,15.76l11.66,2.88c2.16.58,5.18.94,7,3.32a6,6,0,0,1,1.52,3.81c0,3.67-2.74,7.85-12.1,7.85-9,0-12.67-4.61-12.46-10.37Zm78.55,17.86V76.2h-4.17a3.77,3.77,0,0,1-3.1-1.58c-.21-.36-.57-.94-.57-3.1V51.15h7.48V43.66h-7.48l-.15-13H376.78v13H371v7.56l5.9-.07V72.32c0,9.28,3.67,12.31,9.79,12.31ZM430.35,63.1l-.08,5.18c0,5.76-3.6,9.44-9.93,9.44-4.61,0-6.77-2.74-6.77-5.33,0-2,.65-4.11,7.56-6L425.88,65A13.87,13.87,0,0,0,430.35,63.1ZM430.27,80a11,11,0,0,0,1.37,4.61H442.8a6.3,6.3,0,0,1-1.87-4.25V57.92c0-9.8-5-15.7-18.43-15.7-12.39,0-17.5,6.84-17.21,13.61l9.65.21c0-2.95,2.3-6,7.92-6,5.4,0,7.13,2.66,7.13,4.61,0,1.72-1,3.24-4,3.81l-6.19,1c-9.07,1.66-11.52,3.38-13.25,4.82a11.65,11.65,0,0,0-3.81,8.57c0,6.77,5.47,12.89,15.69,12.89C424.37,85.78,428,83.69,430.27,80Zm40-3.6c-5.18,0-9.72-3.67-9.72-12.31,0-9.79,4.76-13.11,9.22-13.11s9.36,3.32,9.36,12.75C479.09,72.89,474.34,76.42,470.23,76.42Zm8.72,4,.5,4.18h10.8v-57H479.16V48.34c-1.94-3.24-6.55-6-11.81-6-9.14,0-18.21,7.71-18.21,22a24.67,24.67,0,0,0,5.33,15.84A15.79,15.79,0,0,0,467,86,14.86,14.86,0,0,0,479,80.45ZM497.88,71c.22,7.7,6.63,15,19.3,15s18.36-6.77,18.36-14A12,12,0,0,0,533,64.68c-1.44-1.8-3.46-3.31-8.28-4.46l-11.74-2.74c-2.52-.57-3.53-2.08-3.53-3.6s1.44-4.17,6.91-4.17c5.76,0,8.36,3.17,8.36,6.48l9.79-.22a14.63,14.63,0,0,0-5.83-10.73c-2.45-1.72-6.27-3.24-12.24-3.24-11.74,0-17.07,6.48-17.07,13.47a10.39,10.39,0,0,0,2.88,7.63c1.51,1.58,3.24,2.88,7.85,3.82l8.86,2c5.18,1.15,5.76,2.81,5.76,4.61s-1.59,4.75-7.71,4.75c-5.76,0-8.71-3.24-9.07-7.34Zm66,2.88c-5.4,0-9.86-3.89-9.86-11.52,0-6.55,4.61-10.66,9.65-10.66s9.65,4.11,9.65,11C573.27,69.87,568.59,73.9,563.83,73.9ZM545.19,86.79c.43,4,1.58,6.12,3.88,8.35,2.6,2.3,7.2,4.61,15.12,4.61,8.86,0,14.48-3.24,17.28-6.84,1.8-2.52,2.88-4.68,2.88-11V43.73l-10.51-.07-.43,4.9c-.72-1.16-3-6.34-12.1-6.34-9.93,0-18.57,7.85-18.57,20.52s8.78,20.59,18.43,20.59c6.62,0,10.66-3,12.24-6V81.6c0,6.92-3.24,9.8-9.58,9.8-4.68,0-7-2.38-7.34-4.9Zm74.3-23.69-.14,5.18c0,5.76-3.53,9.44-9.87,9.44-4.61,0-6.84-2.74-6.84-5.33,0-2,.72-4.11,7.63-6L615,65A13.59,13.59,0,0,0,619.49,63.1ZM619.35,80a12.11,12.11,0,0,0,1.36,4.61h11.16a6.23,6.23,0,0,1-1.8-4.25V57.92c0-9.8-5-15.7-18.43-15.7-12.45,0-17.49,6.84-17.28,13.61L604,56c0-2.95,2.3-6,8-6,5.4,0,7.13,2.66,7.13,4.61,0,1.72-1,3.24-4,3.81l-6.19,1c-9.15,1.66-11.52,3.38-13.25,4.82a11.37,11.37,0,0,0-3.82,8.57c0,6.77,5.4,12.89,15.63,12.89C613.51,85.78,617,83.69,619.35,80Zm18.86-9c.29,7.7,6.7,15,19.37,15s18.36-6.77,18.36-14a12,12,0,0,0-2.59-7.28c-1.44-1.8-3.46-3.31-8.28-4.46l-11.74-2.74c-2.52-.57-3.6-2.08-3.6-3.6s1.51-4.17,6.91-4.17c5.76,0,8.43,3.17,8.43,6.48l9.79-.22A14.63,14.63,0,0,0,669,45.24c-2.45-1.72-6.27-3.24-12.24-3.24-11.74,0-17.07,6.48-17.07,13.47a10.39,10.39,0,0,0,2.88,7.63c1.51,1.58,3.24,2.88,7.85,3.82l8.86,2c5.18,1.15,5.76,2.81,5.76,4.61s-1.59,4.75-7.71,4.75c-5.76,0-8.78-3.24-9.07-7.34Z"/></svg>