<svg xmlns="http://www.w3.org/2000/svg" viewBox="0 0 992.77 113.82"><defs><style>.a,.f{fill:#fff;}.a{stroke:#000;stroke-miterlimit:10;stroke-width:0.5px;}.a,.c,.d,.e,.f{fill-rule:evenodd;}.b,.c{fill:#ef823d;}.d{fill:#000b0d;}.e{fill:#ac322d;}</style></defs><title>BG010_C</title><polygon class="a" points="80.62 113.57 0.43 55.84 80.62 0.26 912.15 0.25 992.34 57.98 912.15 113.56 80.62 113.57"/><rect class="b" x="89.21" y="8.05" width="815.35" height="97.53"/><polygon class="c" points="911.3 8.04 980.32 56.81 911.3 105.58 911.3 8.04"/><polygon class="c" points="81.79 8.04 12.77 56.81 81.79 105.58 81.79 8.04"/><path class="d" d="M518.19,44V29.55h8.06c5.62,0,7.92,3.67,7.92,7.34,0,4-2.88,7.27-8.5,7.27Zm-9.36,23.4h9.36v-16h9.21c6.34,0,10-2.09,12.46-5A16.59,16.59,0,0,0,543,36.89c0-8.85-5.76-14.76-15.41-14.76H508.83Zm38.16,0h8.71V53c0-4.82,1.29-7.13,2.66-8.64a8,8,0,0,1,6-2.66c.5,0,.93.14,1.51.14v-7.7a6.47,6.47,0,0,0-1.8-.15,8.56,8.56,0,0,0-8.21,5.76l-.21-5H547Zm38.8-5.62c-4.17,0-8.2-3.16-8.2-10.36,0-7.85,4-10.95,8.28-10.95s8.2,3.1,8.2,10.59S590.19,61.8,585.79,61.8Zm.08,6.77c9.93,0,17.06-6.91,17.06-17.49,0-10.23-7-17.43-17.14-17.43-9.93,0-17.06,7.06-17.06,17.43C568.73,61.8,576,68.57,585.87,68.57Zm39.74-6.77c-4.1,0-7.7-2.8-7.7-9.79,0-7.85,3.81-10.65,7.41-10.65s7.56,2.88,7.56,10.15C632.88,56.26,630.79,61.8,625.61,61.8Zm-7.78,1.8c1.8,3,5.19,4.83,9.51,4.83,8.93,0,14.4-8.14,14.4-17.5,0-8.85-5.26-17.13-14.26-17.13a11.66,11.66,0,0,0-9.43,4.46L617.69,35h-8.5V78h8.64Zm50.55-13.32v4.11c0,4.61-2.88,7.49-8,7.49-3.68,0-5.4-2.16-5.4-4.11,0-1.65.57-3.24,6.12-4.89l3.81-1A9.57,9.57,0,0,0,668.38,50.28Zm0,13.47a7.36,7.36,0,0,0,1,3.67h8.85a5.26,5.26,0,0,1-1.37-3.31V46.25c0-7.85-4-12.6-14.76-12.6-9.79,0-13.89,5.47-13.68,11l7.71.14c0-2.45,1.87-4.75,6.33-4.75,4.25,0,5.69,2.09,5.69,3.67,0,1.3-.86,2.59-3.17,2.88l-5,.94c-7.12,1.29-9.07,2.66-10.51,3.81a9,9,0,0,0-3,6.77c0,5.47,4.25,10.3,12.46,10.3C663.63,68.36,666.51,66.7,668.38,63.75Zm16.34,3.67h8.71V49.2a7.29,7.29,0,0,1,1.3-4.82,6.87,6.87,0,0,1,5.33-2.74c3,0,5.18,2,5.18,5.62V67.42H714V44.52c0-6.12-4.46-10.87-11.16-10.87-4.75,0-7.92,2.59-9.07,5.11L693.36,35l-8.64-.15Z"/><path class="d" d="M578.74,96.22h4V88h8.42V84.87h-8.42V80.23h9.88V77H578.74Zm18.31-7.08,2.62-8.3,2.5,8.3Zm-6.29,7.08h4l1.28-4h7l1.22,4h4.09L601.81,77h-4.27ZM613.7,85.54V80.23h4.46a2.51,2.51,0,0,1,1.77.43,2.77,2.77,0,0,1,1.22,2.26c0,1.46-1.16,2.68-3.17,2.68Zm-3.9,10.68h3.9l.07-7.57h3.47a3.27,3.27,0,0,1,2.93,1.59,3.85,3.85,0,0,1,.37,1.22c.36,1.59,0,3.3.73,4.76h4a5.14,5.14,0,0,1-.61-2l-.31-3.36a3.58,3.58,0,0,0-1-2.56,4.17,4.17,0,0,0-2.57-1.16,4.59,4.59,0,0,0,4.21-4.76c0-3-2.38-5.55-6.46-5.37h-8.73Zm23.25-7.08,2.62-8.3,2.5,8.3Zm-6.29,7.08h4l1.28-4h7l1.22,4h4.08L637.81,77h-4.28Z"/><path class="e" d="M117.09,35.79,96,56.93l21.14,21,21,21.16L159.27,78l21.16-21.14-21.16-21c-11.51-11.64-21-21.15-21-21.15S128.62,24.15,117.09,35.79Z"/><path class="f" d="M155.92,39.15l17.79,17.68L155.92,74.62l-17.79,17.9-17.68-17.9-17.8-17.79,17.8-17.68c9.73-9.85,17.68-17.79,17.79-17.79S146.19,29.3,155.92,39.15Z"/><path class="d" d="M138.24,31.76c-2.69,5,.56,7.84-3,15.23-1.8-1.46-.79-7.06-4.48-7.16a5.52,5.52,0,0,1,.11,3c-.45,2.35-1.23,4.59.45,7.72-2.57-1.23-2.68-3.47-4.81-4.92.44,2.35-.56,7.27,2.24,12.08-2.58-.34-3.36-1.23-6.15-3.91,2.9,15,5,15.43,15.66,16.22A9.76,9.76,0,0,1,130.18,63c-.11-1.57-.22,1.34,4.93,1.34-3.25-5.15-2.35-4.14-2-7.16,1.34,2.13.22,2.24,4,3.81-1.23-3.81,1.79-6.49,1.24-10.86.78,1.9,3.79,1.57,3.68,10.86,2.47-2.81,2.69-.9,3.92-3.92.11,1.68.79,3.81-2.57,7.39.89.22,2.34.44,4.7-1.13-2.36,2.58-.23,2.58-6.05,6.83,7.27.12,12-4.48,11.87-14.55-.23.9-.45,2.57-4.37,3.14a10.2,10.2,0,0,0,1.79-11.3c-.66.66-1.68,3.68-4.25,4.48a9.71,9.71,0,0,0,1-4.92,10.4,10.4,0,0,0-1.9-6.61c-.67,4.58-.57,6.82-3.48,7.49.45-2.68.57-3.92-.89-6.94S138.69,34.68,138.24,31.76Zm-12,40.85v2.68h25.51V72.61H126.26Z"/><path class="e" d="M210,35.79,188.83,56.93,210,78l21,21.16L252.15,78l21.16-21.14-21.16-21c-11.51-11.64-21-21.15-21-21.15S221.5,24.15,210,35.79Z"/><path class="f" d="M248.8,39.15l17.79,17.68L248.8,74.62,231,92.52l-17.68-17.9-17.8-17.79,17.8-17.68c9.73-9.85,17.68-17.79,17.79-17.79S239.07,29.3,248.8,39.15Z"/><path class="d" d="M240.07,48.09h-.22c-.22,0-27.64,7.39-27.75,7.39a2.86,2.86,0,0,0-1.46,2.35v1a5.16,5.16,0,0,0,.23,1.34c.45,1.9,1.57,3.36,2.91,3.7h.56c.11,0,27.3-7.39,27.63-7.39a2.44,2.44,0,0,0,1.24-1.12c.11-.33.21-.67.34-1.12a1.32,1.32,0,0,1,.21-.78,1.8,1.8,0,0,1,.89-.67s1.46-.34,3-.79,2.91-.78,3-.78a1.53,1.53,0,0,0,.44-2.13,1.55,1.55,0,0,0-.9-.78h-.55s-1.35.34-2.91.78-2.91.79-2.91.79h-.33a1.16,1.16,0,0,1-.68-.12,1.42,1.42,0,0,1-.68-.55,4.73,4.73,0,0,0-1.22-1c-.23,0-.33-.12-.56-.12Z"/></svg>