<svg xmlns="http://www.w3.org/2000/svg" viewBox="0 0 992.84 113.82"><defs><style>.a,.d{fill:#fff;}.a{stroke:#000;stroke-miterlimit:10;stroke-width:0.5px;}.a,.c,.d,.e,.f{fill-rule:evenodd;}.b,.c{fill:#473335;}.e{fill:#ac322d;}.f{fill:#000b0d;}</style></defs><title>BV006_C</title><polygon class="a" points="80.62 113.57 0.43 55.84 80.62 0.26 912.22 0.25 992.41 57.98 912.22 113.56 80.62 113.57"/><rect class="b" x="89.21" y="8.05" width="815.42" height="97.53"/><polygon class="c" points="911.45 8.04 980.47 56.81 911.45 105.58 911.45 8.04"/><polygon class="c" points="81.72 8.04 12.7 56.81 81.72 105.58 81.72 8.04"/><path class="d" d="M402.82,40.35v-11H414.7a5.55,5.55,0,0,1,5.18,5.47,5.66,5.66,0,0,1-5.9,5.69Zm0,19.73v-13H414a6.33,6.33,0,0,1,6.69,6.26,6.55,6.55,0,0,1-6.69,6.7Zm-9.43,7.34h23.32c4.18,0,6.27-.72,8.57-2.3,3.17-2.16,5-5.62,5-10.23,0-5.9-3.31-10.29-8.85-11.66a9.86,9.86,0,0,0,7.27-9.65,11,11,0,0,0-5.19-9.72c-1.87-1.15-3.6-1.73-7.63-1.73H393.39Zm43.05,0h8.86V53c0-4.82,1.15-7.13,2.66-8.64a7.57,7.57,0,0,1,5.83-2.66c.58,0,1.08.14,1.52.14l.14-7.7a7.29,7.29,0,0,0-1.94-.15,8.25,8.25,0,0,0-8.07,5.76l-.36-5h-8.57Zm25.71-36.5h8.71V22.06h-8.71Zm11.37,0,8.71.14.15-8.93h-8.86Zm5.19,19.22V55c-.22,4.18-3,6.92-7.71,6.92-3.67,0-5.4-2.16-5.4-4.11,0-1.51.65-3.45,5.83-4.89l3.82-.87A7.29,7.29,0,0,0,478.71,50.14Zm0,13.61a18.12,18.12,0,0,0,1.15,3.67h8.85c-.43-.43-1.36-1.87-1.36-4.61l-.15-16.56a12.9,12.9,0,0,0-.43-4.39c-1.3-4.61-5-8.06-13.82-8.06-10.16,0-14.19,5-14.19,10.8l7.71.14c.36-2.23.72-2.66,1.44-3.24.79-.79,2.52-1.58,5.18-1.58,4,0,5.62,2.16,5.62,3.74s-1,2.59-3.32,3l-8.92,1.52c-6.56,1.22-9.65,5.54-9.65,9.79,0,5.61,4.39,10.37,12.24,10.37C474.53,68.36,477.41,66.12,478.71,63.75Zm16.34,3.67h8.86V49.2c0-2.66.5-3.81,1.29-4.82a6.62,6.62,0,0,1,5.26-2.74c3,0,5.18,2,5.18,5.62V67.42h8.79V44.52c0-6.12-4.47-10.87-11.31-10.87-4.61,0-7.92,2.59-9,5.11L503.83,35l-8.64-.15Zm35.35-10.8c.22,6.05,5.4,11.95,15.34,11.95,10.22,0,14.61-5.4,14.61-11.3a9.51,9.51,0,0,0-1.94-5.62c-1.3-1.51-2.81-2.81-6.7-3.6l-9.36-2.16c-1.94-.5-2.73-1.73-2.73-2.88s1.15-3.31,5.4-3.31c4.61,0,6.69,2.52,6.84,5.11l7.7-.21a11.21,11.21,0,0,0-4.75-8.5c-1.8-1.37-5-2.52-9.65-2.52-9.36,0-13.46,5-13.46,10.66a8.52,8.52,0,0,0,2.16,6.12c1.15,1.15,2.66,2.23,6.19,3l7.2,1.58c4,.94,4.61,2.24,4.61,3.68s-1.44,3.74-6.27,3.74c-4.6,0-6.91-2.59-7.27-5.9Zm36.43,10.8h8.86V22.13h-8.78Zm23.91-20.16a7.51,7.51,0,0,1,7.13-6.7c3.6,0,6.69,2.45,7.27,6.7Zm-.36,6.34H614.5c0-9.65-4.25-20-16.49-20-12.46,0-16.34,10-16.34,17.43,0,10.8,7.27,17.49,16.34,17.49,9.22,0,14.54-5,15.91-10.58l-8.78-.58a7.27,7.27,0,0,1-6.77,4.25C594.19,61.66,590.88,58.78,590.38,53.6Zm74.81,13.82v-6.7H662a3.15,3.15,0,0,1-2.52-1.22c-.29-.29-.51-.72-.51-2.59V40.85h6V34.8h-6V24.58h-8.71V34.8H645.6v6.05h4.61V57.63c0,7.34,2.95,9.79,7.78,9.79ZM671.38,30h8.78V22.13h-8.78Zm-.15,37.44H680V34.8h-8.79Zm15.56,0h8.85V22.13h-8.71Zm15.55,0h8.85V22.13h-8.71Zm32-5.62c-4.18,0-8.21-3.16-8.21-10.36,0-7.85,4-10.95,8.21-10.95s8.21,3.1,8.21,10.59S738.63,61.8,734.38,61.8Zm0,6.77c9.86,0,17.13-6.91,17.13-17.49,0-10.23-7.12-17.43-17.28-17.43-9.79,0-17,7.06-17,17.43C717.24,61.8,724.44,68.57,734.38,68.57Zm40-6.77c-4.25,0-7.85-2.8-7.85-9.79,0-7.85,4-10.65,7.49-10.65s7.63,2.88,7.63,10.15C781.61,56.26,779.52,61.8,774.34,61.8Zm-7.85,1.8c1.87,3,5.11,4.83,9.58,4.83,8.85,0,14.4-8.14,14.4-17.5,0-8.85-5.4-17.13-14.26-17.13a11.61,11.61,0,0,0-9.5,4.46L766.27,35h-8.64V78h8.86Zm46.66-1.8c-4.25,0-7.85-2.8-7.85-9.79,0-7.85,4-10.65,7.49-10.65s7.63,2.88,7.63,10.15C820.42,56.26,818.33,61.8,813.15,61.8Zm-7.85,1.8c1.87,3,5.11,4.83,9.57,4.83,8.86,0,14.4-8.14,14.4-17.5,0-8.85-5.4-17.13-14.25-17.13a11.64,11.64,0,0,0-9.51,4.46L805.08,35h-8.64V78h8.86Z"/><path class="d" d="M561.65,96.22h3.82L572,77l-4.25.07-4.1,14.18L559.35,77H555.1Zm13.75-7.06,2.67-8.28,2.37,8.28Zm-6.33,7.06h4l1.37-4h6.91l1.29,4h4L580.08,77h-4.25Zm23.11-10.58v-5.4h4.39a3.68,3.68,0,0,1,1.87.43,2.88,2.88,0,0,1,1.15,2.3c0,1.37-1.15,2.67-3.16,2.67Zm-4,10.58h4V88.59h3.45a3.54,3.54,0,0,1,3,1.65,10,10,0,0,1,.36,1.23c.43,1.65,0,3.24.79,4.75h4a4.13,4.13,0,0,1-.72-1.94l-.36-3.39a3.37,3.37,0,0,0-.86-2.59,4.51,4.51,0,0,0-2.59-1.15,4.45,4.45,0,0,0,4.17-4.75c0-3-2.45-5.55-6.48-5.4h-8.71Zm18.21,0h3.82V83.33L618,96.22h4V77.07h-4v13L610.18,77h-4Zm18.43,0H629V77h-4.18Zm7.06,0h3.74V83.33l8,12.89h4V77.07h-4v13L635.59,77h-3.88Zm27.72-7.13h4.75a5,5,0,0,1-5.11,4.47c-2.74,0-5.4-2.09-5.4-6.77,0-4,2.16-7.13,5.54-7.13a4.51,4.51,0,0,1,4.47,3.46l3.81-.15a7.86,7.86,0,0,0-2.3-4.39A9.86,9.86,0,0,0,659,76.42c-5.76,0-9.07,5-9.07,10.37a10.16,10.16,0,0,0,2.88,7.7,8.41,8.41,0,0,0,5.76,2.31,9.31,9.31,0,0,0,3.67-.72,5.35,5.35,0,0,0,2.38-2.38l.14,2.52h3V86.07h-8.21Z"/><path class="e" d="M117,35.79,95.88,56.93,117,78l21,21.16L159.2,78l21.16-21.14-21.16-21c-11.52-11.64-21-21.15-21-21.15S128.55,24.15,117,35.79Z"/><path class="d" d="M155.84,39.15l17.8,17.68-17.8,17.89-17.78,17.8-17.69-17.9L102.58,56.83l17.79-17.68c9.74-9.85,17.69-17.79,17.79-17.79S146.12,29.3,155.84,39.15Z"/><path class="f" d="M138.28,29.63H138a10.72,10.72,0,0,0-3.36.9,9.14,9.14,0,0,0-2.91,2.24A8.35,8.35,0,0,0,129.89,36a10.75,10.75,0,0,0-.45,5.49A20.91,20.91,0,0,0,131,47.2c.11.34.57,1.23.68,1.46a15.91,15.91,0,0,0,1.34,2l.11.11c0,.12-.33,3.14-.33,3.14s-1.46.56-3.36,1.23-3.36,1.23-3.36,1.23H126v.11a1.19,1.19,0,0,0,.88.89h.57v.12a1.11,1.11,0,0,0,.66.56c.12.1.23.1.46.1h.21v.13a1.05,1.05,0,0,0,1.46.67c.11,0,.11,0,.11.11.12.33.34.55.57.55h.33v.12a1.46,1.46,0,0,0,.67.77h.78c.23,0,.45-.21.67-.33,0-.11,0-.11.12-.22h0l.11.11a1.26,1.26,0,0,0,.9,0h.11l.11.11a1.37,1.37,0,0,0,.56.56h.11v.12a.43.43,0,0,0,.11.34.45.45,0,0,0,.34.1c.23,0,.44-.1.44-.33v-.23h.12a1.8,1.8,0,0,0,.67-.89v-.34a.91.91,0,0,0-.12-.55v-.12h0a.4.4,0,0,0,.23-.55.35.35,0,0,0-.11-.23h-.12l.12-.11c0-.12.11-.23.11-.34a.42.42,0,0,0,.11-.34v-.22h.11a1.08,1.08,0,0,0,.57-.9.91.91,0,0,0-.23-.89v-.11h.11c.12,0,.23,0,.23-.11s.1-.12.1-.34a.36.36,0,0,0-.1-.22c0-.12-.11-.12-.23-.12h-.34a.11.11,0,0,0-.11-.11l-.22-.11V54c.11-.1.11-.33.11-.44a.71.71,0,0,0,0-.67V52.8l.11-.11a1.46,1.46,0,0,0,.57-.56v-.79c0-.11-.12-.23-.23-.34v-.1h.11a1.17,1.17,0,0,0,.45-.57v-.44c-.12-.12-.22-.33-.33-.45h0v-.11c.11-.11.11-.23.11-.44v-.12h.1a.35.35,0,0,0,.23-.11h.11v.11c0,.22,0,.45.23.56l.11.11v.12a.49.49,0,0,0,0,.55,1.33,1.33,0,0,0,.56.79c.11,0,.11,0,0,.1v.23a1.69,1.69,0,0,0,.44,1.23l.12.11h0a.9.9,0,0,0-.45.45,1.15,1.15,0,0,0,.33,1.12H140v.11h0a.7.7,0,0,0,.33.9v.22a1.94,1.94,0,0,0,0,1.12h.11l-.11.11v.12l-.11-.12a.54.54,0,0,0-.67.23v.33a.58.58,0,0,0,.45.22h0v.23a1.69,1.69,0,0,0,.22.68v.1h0a2,2,0,0,0-.11.78,1.81,1.81,0,0,0,.33,1v.22c0,.11-.11.34,0,.46a.53.53,0,0,0,.57.55.31.31,0,0,0,.44,0c.23,0,.45-.21.56-.55h0c.11,0,.33-.12.45-.12s.11-.11.11,0,.22.23.34.23.55,0,.78-.34v-.45l-.34-.33h0v-.11a.43.43,0,0,0,.11-.23V59.4l.12.11h.34v.11c.11.12.33.23.44.34h.45a.24.24,0,0,0,.22-.22h.12c.11.11.21.22.33.33s.11.11.22.11a.83.83,0,0,0,.56-.22v-.11h.11a.43.43,0,0,0,.34.11h.23c.33-.11.55-.34.55-.56a.51.51,0,0,0,0-.56v-.11h.11c.12.11.23,0,.34,0a.61.61,0,0,0,.33-.57v-.1l.13.1a1.08,1.08,0,0,0,.44.34h.34c.22-.11.55-.34.55-.67.11,0,.11,0,.11-.11v-.11c.23-.11.34-.23.34-.45v-.11h.12a.39.39,0,0,0,.33-.12s.11,0,.11-.1v-.34L147,55.26l-3.8-1.12V51.23l.1-.12a13.81,13.81,0,0,0,1.13-1.55,25.85,25.85,0,0,0,1.34-2.8,32.69,32.69,0,0,0,1.57-6.49V38.92a11.09,11.09,0,0,0-3.14-6.48,8.61,8.61,0,0,0-3.47-2.36,16,16,0,0,0-2.12-.45ZM124.41,57.16h-.34a3.08,3.08,0,0,0-.67.34c-2.13.79-2.91,1-3.13,1.12a3.58,3.58,0,0,0-1.68,2.58v4.12l3.12,3.25c1.69,1.8,3.14,3.25,3.14,3.25a.64.64,0,0,0,.45-.12.59.59,0,0,0,.55-.32h.8a1,1,0,0,0,.66-.68c.12-.1.12-.23.12-.44v-.12h.1c.12.12.23.23.34.23h.34c.11.1.22,0,.34,0a1.38,1.38,0,0,0,.55-.57v-.66l.12-.12a.38.38,0,0,1,.22-.11l.11-.11h0c.12,0,.12.11.22.11h.56a.73.73,0,0,0,.23-1l-.11-.11a.11.11,0,0,0,.11-.11.5.5,0,0,0,.34-.45h.1a.81.81,0,0,0,.45.23c.12,0,.12,0,.12.1s-.12,0-.12.12c-.22.34.12.78.45.89a.65.65,0,0,0,.78-.78c0-.23-.11-.33-.33-.44l-.11-.12h.11a.83.83,0,0,0,.22-.45v-.45h.11a.44.44,0,0,0,.34-.1v.1l.11.23c.11,0,.11.12.22.12h.34l.22-.23a.35.35,0,0,0,0-.45c0-.11-.22-.22-.33-.22v-.67a.37.37,0,0,0,.33-.12.5.5,0,0,0,0-.55c-.1-.12-.22-.23-.33-.23h0a1,1,0,0,0-.45-.67l-.11-.12v-.21a.41.41,0,0,0-.11-.34,1.1,1.1,0,0,0-.45-.56,1,1,0,0,0-.56-.11,1,1,0,0,0-.56.11h-.11c.11,0,.11-.23.11-.34s-.44-.56-.67-.44h-.11V61.3a1,1,0,0,0-.34-.79c-.22-.11-.33-.21-.55-.33h-.34a.76.76,0,0,0-.44.12h-.13c0-.12-.21-.23-.33-.34l-.11-.11h-.11v-.34a.61.61,0,0,0-.34-.55h-.44v-.12c-.12-.22-.23-.45-.34-.68a1.06,1.06,0,0,0-.78-.33h-.46c0-.11-.1-.22-.21-.33a.84.84,0,0,0-.56.11H125V57.5a.61.61,0,0,0-.55-.34Zm28.53.11h-.11c-.23,0-.35.23-.45.45h-.11a.53.53,0,0,0-.67.23.38.38,0,0,0-.12.34v.1h-.11a1.18,1.18,0,0,0-1.45.11,1,1,0,0,0-.34.67v.23h-.12a1.9,1.9,0,0,0-1.1.11c-.13.11-.34.45-.46.56a1.09,1.09,0,0,0-.22.79v.22h-.12c-.21-.11-.44,0-.66.22h-.23a1.69,1.69,0,0,0-1,.11,1.78,1.78,0,0,0-.67.9v.22l-.11.11h-.34a.88.88,0,0,0-.44.45.35.35,0,0,0,0,.45v.11H144a.35.35,0,0,0-.45,0c-.12,0-.23.11-.33.23a.41.41,0,0,0-.23.56c0,.22,0,.33.1.44s.13.11,0,.11l-.21.12c0,.11-.12.11-.12.21v.34a.6.6,0,0,0,.9.12v-.12a.66.66,0,0,0,.45.12h.11v.11c0,.23,0,.34.11.44s0,.12-.11.12a.38.38,0,0,1-.22.11.72.72,0,0,0,.22,1h.45q.17-.15.33-.33v-.11l.12.11c.21,0,.44.12.67.12v.33a.43.43,0,0,0,.11.34h-.11c-.23,0-.34.11-.46.34v.21a.39.39,0,0,0,.12.34c.11,0,.22.11.34.11a.81.81,0,0,0,.44-.45v.12a1.21,1.21,0,0,0,.79.67c.11.11.22.11.44.11s.34-.11.45-.11l.12-.12v.12c.11.11.11.33.21.44s.34.23.45.23h.56c.12,0,.22-.11.34-.11v0A1.15,1.15,0,0,0,150.81,71h.45l.11-.12-.11.12a.75.75,0,0,0,.67,1,.83.83,0,0,0,.67-.22c.11-.12,1.57-1.45,3.24-3l3-2.8V61.3c-.1-.22-.1-.44-.22-.67a8.63,8.63,0,0,0-.89-1.23A6,6,0,0,0,156,58.29C155.74,58.16,152.94,57.27,152.94,57.27Zm-14.44.56h-.11c-.23,0-.33.12-.44.33v.46c.11.11.11.22.21.34h0a.58.58,0,0,0-.21.44v.11c.11.23.21.23.44.23s.23,0,.23-.12.22-.11.22-.22,0-.23-.11-.23v-.1l-.11-.11h.11c.11,0,.23-.12.33-.23s0-.11.11-.34-.11-.1-.11-.23-.1-.21-.33-.33h-.23Zm-.89,2.57h0c-.12,0-.23.11-.34.23V61c.11.23.22.33.45.33s.11,0,.11-.1a.35.35,0,0,0,.33-.34.6.6,0,0,0-.21-.35C138,60.4,137.72,60.4,137.61,60.4Zm-4,.46h0c-.23.11-.34.11-.34.22a.67.67,0,0,0-.11.45v.22a.66.66,0,1,0,.89-.89h-.44ZM140.74,62h-.23c-.22.11-.33.23-.33.34s.11.44.22.44.11.12.23.12h.11V63a.88.88,0,0,0,.45.44.48.48,0,0,0,.56,0l.33-.33v-.34l-.11-.11a.84.84,0,0,0-.45-.44.4.4,0,0,0-.33.11h0l-.12-.11a.23.23,0,0,0-.21-.23Zm-6.83,1.12h-.1c-.12.12-.23.22-.23.33a.59.59,0,0,0,.23.46h.44c0,.11.11.22.23.33a.5.5,0,0,0,.89-.22c.11,0,.11,0,.11-.23s0-.11-.11-.22-.11-.23-.23-.33h-.22c-.22,0-.33,0-.44.1h-.12a.43.43,0,0,0-.11-.22h-.34Zm8.29,3h0a1.31,1.31,0,0,0-.45.33V67h-.11c-.12,0-.12.11-.23.22v.45l.23.22h.22a.43.43,0,0,0,.34-.11.44.44,0,0,0,.1-.33v-.11h.12a.67.67,0,0,0,.45-1.12c-.12,0-.23,0-.23-.11h-.44Zm-4.82.78h-.22c-.11.11-.23.22-.33.33v.56c.22.34.66.45.89.11a.49.49,0,0,0-.11-.89C137.49,66.9,137.49,66.9,137.38,66.9Zm-3.57.11h0c-.23,0-.34.11-.34.22v.45a.24.24,0,0,0,.22.22h.22a.42.42,0,0,0,.34-.11c.23-.23.11-.56-.11-.78h-.33Zm.78,1.23c-.11,0-.11.12-.23.12s-.34.21-.45.44V69c0,.12,0,.12.11.22a.34.34,0,0,0,.12.23h0a1.22,1.22,0,0,0-.45-.11,1.47,1.47,0,0,0-.89.56h-.12c-.11-.12-.22-.23-.33-.23h-.56a1.16,1.16,0,0,0-.68.57v.11H131c-.1-.11-.22-.11-.44-.11a.76.76,0,0,0-.79.44,1.11,1.11,0,0,0-.1.56v.12h0a2.25,2.25,0,0,0-.57-.34h-.78a.9.9,0,0,0-.45.22,2.43,2.43,0,0,0-.44.56h-.12a.82.82,0,0,0-1,.11.6.6,0,0,0-.33.55v.35l5.47,5.7,5.82,5.82.11.23.11-.12.12-.11c.11-.11.11-.11.11-.23s0-.11-.11-.21a.12.12,0,0,0-.12-.12h0v-.11c.23-.11.34-.34.23-.45s-.23-.22-.23-.22l.12-.11a.42.42,0,0,0,.11-.34.4.4,0,0,0-.11-.33c0-.12-.12-.12-.23-.23h-.11l.11-.1a1.88,1.88,0,0,0,.57-2.24.12.12,0,0,1-.12-.12v-.11h0a1.09,1.09,0,0,0,.33-1.46.73.73,0,0,0-.44-.55h-.11l.11-.12c.11-.11.23-.22.23-.34a.87.87,0,0,0-.23-.55l-.11-.11h.11a.69.69,0,0,0-.11-.78c-.12-.23-.34-.23-.56-.23h-.12a1.25,1.25,0,0,0,.12-.9c-.12-.11-.12-.11,0-.11s.33-.22.44-.34a.57.57,0,0,0-.22-.89h-.11l.11-.11a1.31,1.31,0,0,0,.34-.9c-.12-.22-.12-.44-.23-.56s-.22-.33-.33-.33l.11-.11c0-.12.11-.23.11-.34s.11-.1.11-.33-.11-.34-.22-.57v-.11h0c.11-.11.22-.22.22-.33V69c0-.11-.11-.11-.22-.22h-.23a.42.42,0,0,0-.33.11h-.11c-.11-.11-.23-.22-.34-.22a.83.83,0,0,0-.89-.12h-.12a.53.53,0,0,0-.33-.21A.33.33,0,0,0,134.59,68.24Zm6.48.22H141a.81.81,0,0,0-.68.78v.34h0a.7.7,0,0,0-1,.34v.34c0,.11,0,.11.11.21s.22.23.33.34.11,0,0,.11v.34a.7.7,0,0,0,.34.89l.11.12-.11.11a1.46,1.46,0,0,0-.11.67,1,1,0,0,0,.33.79v.1h0c0,.23-.11.34-.11.57v.11H140v-.11c.11-.12.11-.23.11-.45a1.59,1.59,0,0,0-.23-.34l-.11-.11a.7.7,0,0,0-.89,1h0v.1a.31.31,0,0,0-.34.34c-.11,0-.11.12-.11.23s0,.1.11.23a.51.51,0,0,0,.56.44h.11l-.11.11a1.74,1.74,0,0,0,0,1c0,.11.11.34.11.45s.23.23.34.23v.1h0l-.11.11a1.4,1.4,0,0,0-.34,2.13l.11.11-.11.11c-.1.12-.22.22-.22.34a.84.84,0,0,0-.11.56v.33l.11.12h-.11a.85.85,0,0,0,.11.89v.12l-.11.1a.28.28,0,0,0,.11.45v.11h0a.43.43,0,0,0-.11.34c0,.11,0,.11-.11.11s-.12.12-.12.33,0,.12.12.12a.38.38,0,0,0,.11.22s1.11-1,6.26-5.7l6.16-5.71v-.11a.21.21,0,0,0,0-.33c0-.23-.23-.34-.45-.46a.37.37,0,0,0-.33.12h-.11a.42.42,0,0,1-.12-.23l-.34-.34a.92.92,0,0,0-.44-.1c-.22,0-.34,0-.45.1h-.11v-.1a1.21,1.21,0,0,0-1-1.13h-.44l-.12.13v-.13c0-.1-.22-.33-.33-.44a.7.7,0,0,0-.45-.11.72.72,0,0,0-.56.68v0a.53.53,0,0,0-.34-.23.66.66,0,0,0-.44-.11H145l-.11-.12a1,1,0,0,0-.56-.9,1.1,1.1,0,0,0-.56-.1h-.22V69c0-.22-.12-.33-.33-.45a.77.77,0,0,0-.91.34H142a.11.11,0,0,1-.22,0c0-.11-.11-.22-.23-.34A.67.67,0,0,0,141.07,68.46Zm-6.71,1.12h.12v0Zm4,1.46a.11.11,0,0,0-.11.11c-.12,0-.12,0-.22.11a.69.69,0,0,0-.11.44l.11.12.1.11h-.1a.41.41,0,0,0-.11.34.62.62,0,0,0,.67.78.59.59,0,0,0,.55-.57.53.53,0,0,0-.21-.66h-.12V71.7a.11.11,0,0,0,.12-.1c0-.12,0-.12-.12-.22a.24.24,0,0,0-.22-.23C138.5,71.15,138.5,71,138.39,71Z"/></svg>