<svg xmlns="http://www.w3.org/2000/svg" viewBox="0 0 992.84 113.82"><defs><style>.a,.d{fill:#fff;}.a{stroke:#000;stroke-miterlimit:10;stroke-width:0.5px;}.a,.c,.d,.e,.f{fill-rule:evenodd;}.b,.c{fill:#473335;}.e{fill:#ac322d;}.f{fill:#000b0d;}</style></defs><title>BV002_C</title><polygon class="a" points="80.62 113.57 0.43 55.84 80.62 0.26 912.22 0.25 992.41 57.98 912.22 113.56 80.62 113.57"/><rect class="b" x="89.21" y="8.05" width="815.42" height="97.53"/><polygon class="c" points="911.45 8.04 980.47 56.81 911.45 105.58 911.45 8.04"/><polygon class="c" points="81.72 8.04 12.7 56.81 81.72 105.58 81.72 8.04"/><path class="d" d="M515.57,50.72l6.19-19.59,5.91,19.59Zm-14.76,16.7h9.43l3.1-9.58h16.41l2.81,9.58h9.72L526.73,22.13h-10Zm44.93,0h8.71V22.13h-8.71Zm15.55,0H570V56.69l3.75-3.53,8.92,14.26H593.4l-13.46-20,11.73-12.6H581.31L570,47.26l-.07-25.13h-8.64Zm52.85-5.62c-4,0-8.07-3.16-8.07-10.36,0-7.85,3.89-10.95,8.07-10.95,4.39,0,8.28,3.1,8.28,10.59S618.39,61.8,614.14,61.8Zm.14,6.77c9.87,0,17-6.91,17-17.49,0-10.23-7-17.43-17.13-17.43-9.79,0-16.92,7.06-16.92,17.43C597.22,61.8,604.49,68.57,614.28,68.57Zm23.26-1.15h8.71V49.56c0-5.32,2.88-7.84,6.55-7.84,3.17,0,5.19,1.72,5.19,5.9v19.8h8.78V45c0-4-1.37-6.7-3.46-8.5a12.2,12.2,0,0,0-7.63-2.81c-4.82,0-8.06,2.31-9.5,5.33l.07-16.85h-8.71Zm52.05-5.62c-4.17,0-8.2-3.16-8.2-10.36,0-7.85,4-10.95,8.2-10.95s8.28,3.1,8.28,10.59S693.84,61.8,689.59,61.8Zm.08,6.77c9.93,0,17.06-6.91,17.06-17.49,0-10.23-7.06-17.43-17.14-17.43s-17.06,7.06-17.06,17.43C672.53,61.8,679.8,68.57,689.67,68.57Zm23.25-1.15h8.79V22.13h-8.79Z"/><path class="d" d="M578.58,96.22h4V88H591V84.87h-8.42V80.23h9.89V77H578.58Zm18.3-7.08,2.62-8.3,2.51,8.3Zm-6.28,7.08h4l1.28-4h7l1.22,4h4.09L601.64,77h-4.27Zm22.94-10.68V80.23H618a2.51,2.51,0,0,1,1.77.43A2.77,2.77,0,0,1,621,82.92c0,1.46-1.16,2.68-3.17,2.68Zm-3.91,10.68h3.91l.06-7.57h3.48A3.27,3.27,0,0,1,620,90.24a3.85,3.85,0,0,1,.37,1.22c.37,1.59,0,3.3.73,4.76h4a5.31,5.31,0,0,1-.61-2l-.31-3.36a3.58,3.58,0,0,0-1-2.56,4.17,4.17,0,0,0-2.56-1.16,4.59,4.59,0,0,0,4.21-4.76c0-3-2.38-5.55-6.47-5.37h-8.73Zm23.25-7.08,2.62-8.3,2.5,8.3Zm-6.29,7.08h4l1.28-4h7l1.22,4h4.09L637.64,77h-4.27Z"/><path class="e" d="M117,35.79,95.88,56.93,117,78l21,21.16L159.2,78l21.16-21.14-21.16-21c-11.52-11.64-21-21.15-21-21.15S128.55,24.15,117,35.79Z"/><path class="d" d="M155.84,39.15l17.8,17.68-17.8,17.79-17.78,17.9-17.69-17.9L102.58,56.83l17.79-17.68c9.74-9.85,17.69-17.79,17.79-17.79S146.12,29.3,155.84,39.15Z"/><path class="f" d="M138.16,31.76c-2.68,5,.57,7.84-3,15.23-1.79-1.46-.78-7.06-4.47-7.16a5.52,5.52,0,0,1,.11,3c-.45,2.35-1.23,4.59.45,7.72-2.57-1.23-2.68-3.47-4.81-4.92.44,2.35-.57,7.27,2.24,12.08-2.58-.34-3.36-1.23-6.15-3.91,2.9,15,5,15.43,15.65,16.22a9.75,9.75,0,0,1-8-7.05c-.11-1.57-.22,1.34,4.93,1.34-3.25-5.15-2.36-4.14-2-7.16,1.34,2.13.22,2.24,4,3.81-1.23-3.81,1.79-6.49,1.23-10.86.78,1.9,3.8,1.57,3.69,10.86,2.47-2.81,2.69-.9,3.92-3.92.11,1.68.78,3.81-2.58,7.39.9.22,2.35.44,4.71-1.13-2.36,2.58-.23,2.58-6.05,6.83,7.27.12,12-4.48,11.86-14.55-.22.9-.45,2.57-4.37,3.14a10.18,10.18,0,0,0,1.8-11.3c-.67.66-1.68,3.68-4.25,4.48A9.83,9.83,0,0,0,148,47a10.4,10.4,0,0,0-1.9-6.61c-.68,4.58-.57,6.82-3.48,7.49.44-2.68.57-3.92-.89-6.94S138.62,34.68,138.16,31.76Zm-12,40.85v2.68H151.7V72.61H126.19Z"/></svg>