<svg xmlns="http://www.w3.org/2000/svg" viewBox="0 0 992.84 113.82"><defs><style>.a,.d{fill:#fff;}.a{stroke:#000;stroke-miterlimit:10;stroke-width:0.5px;}.a,.c,.d,.e,.f{fill-rule:evenodd;}.b,.c{fill:#473335;}.e{fill:#ac322d;}.f{fill:#000b0d;}</style></defs><title>BV003_C</title><polygon class="a" points="80.62 113.57 0.43 55.84 80.62 0.26 912.22 0.25 992.41 57.98 912.22 113.56 80.62 113.57"/><rect class="b" x="89.21" y="8.12" width="815.42" height="97.53"/><polygon class="c" points="911.45 8.12 980.47 56.88 911.45 105.65 911.45 8.12"/><polygon class="c" points="81.72 8.12 12.7 56.88 81.72 105.65 81.72 8.12"/><path class="d" d="M521.76,40.35v-11h11.88a5.39,5.39,0,0,1,5,5.47,5.58,5.58,0,0,1-5.76,5.69Zm0,19.73v-13h11.09c4.1,0,6.77,2.88,6.77,6.26a6.57,6.57,0,0,1-6.77,6.7Zm-9.43,7.34h23.26c4.24,0,6.33-.72,8.49-2.3a11.7,11.7,0,0,0,5.19-10.23,11.46,11.46,0,0,0-8.93-11.66,9.76,9.76,0,0,0,7.34-9.65,11.16,11.16,0,0,0-5.18-9.72c-2-1.15-3.67-1.73-7.71-1.73H512.33Zm51.34-20.16a7.52,7.52,0,0,1,7.2-6.7c3.52,0,6.62,2.45,7.2,6.7Zm-.29,6.34H587.5c0-9.65-4.32-20-16.42-20-12.6,0-16.34,10-16.34,17.43,0,10.8,7.13,17.49,16.2,17.49s14.76-5,16-10.58l-8.71-.58c-1.73,3-4,4.25-6.77,4.25C567.27,61.66,563.81,58.78,563.38,53.6Zm30.24,13.82h8.78V49.2a7.79,7.79,0,0,1,1.23-4.82A6.86,6.86,0,0,1,609,41.64c2.88,0,5,2,5,5.62V67.42h8.79V44.52c0-6.12-4.47-10.87-11.16-10.87-4.61,0-7.85,2.59-9,5.11L602.26,35l-8.64-.15Zm35.28-10.8c.07,6.05,5.25,11.95,15.26,11.95s14.69-5.4,14.69-11.3a8.76,8.76,0,0,0-2.09-5.62c-1.15-1.51-2.81-2.81-6.55-3.6l-9.5-2.16c-2-.5-2.74-1.73-2.74-2.88s1.3-3.31,5.54-3.31c4.61,0,6.7,2.52,6.7,5.11l7.7-.21a11.29,11.29,0,0,0-4.6-8.5c-1.95-1.37-5-2.52-9.72-2.52-9.44,0-13.54,5-13.54,10.66a8.62,8.62,0,0,0,2.3,6.12c1.16,1.15,2.52,2.23,6.2,3L645.6,55c4.11.94,4.61,2.24,4.61,3.68s-1.44,3.74-6.12,3.74-7.06-2.59-7.27-5.9ZM665.26,30H674V22.13h-8.78Zm0,37.44H674V34.8h-8.78Zm15.55,0h8.78V49.2a7.79,7.79,0,0,1,1.23-4.82,6.87,6.87,0,0,1,5.33-2.74c3,0,5.18,2,5.18,5.62V67.42H710V44.52c0-6.12-4.46-10.87-11.16-10.87-4.68,0-7.92,2.59-9.07,5.11L689.45,35l-8.64-.15Z"/><path class="d" d="M578.58,96.36h4V88.19H591V85h-8.42V80.38h9.89V77.14H578.58Zm18.3-7.07L599.5,81l2.51,8.3Zm-6.28,7.07h4l1.28-4h7l1.22,4h4.09l-6.59-19.22h-4.27Zm22.94-10.67V80.38H618a2.46,2.46,0,0,1,1.77.43A2.74,2.74,0,0,1,621,83.06c0,1.47-1.16,2.69-3.17,2.69Zm-3.91,10.67h3.91l.06-7.56h3.48A3.28,3.28,0,0,1,620,90.38a3.93,3.93,0,0,1,.37,1.22c.37,1.59,0,3.3.73,4.76h4a5.25,5.25,0,0,1-.61-2L624.21,91a3.58,3.58,0,0,0-1-2.56,4.17,4.17,0,0,0-2.56-1.16,4.58,4.58,0,0,0,4.21-4.76c0-3-2.38-5.55-6.47-5.37h-8.73Zm23.25-7.07L635.5,81l2.5,8.3Zm-6.29,7.07h4l1.28-4h7l1.22,4h4.09l-6.59-19.22h-4.27Z"/><path class="e" d="M116.88,35.86,95.73,57l21.15,21,21,21.16L159.05,78,180.21,56.9l-21.16-21c-11.51-11.63-21-21.15-21-21.15S128.41,24.23,116.88,35.86Z"/><path class="d" d="M155.7,39.22,173.5,56.9,155.7,74.79l-17.79,17.8-17.68-17.9L102.44,56.9l17.79-17.68C130,29.37,137.91,21.43,138,21.43S146,29.37,155.7,39.22Z"/><path class="f" d="M138.14,29.71h-.34a10.21,10.21,0,0,0-3.36.9,9.33,9.33,0,0,0-2.91,2.23,8.45,8.45,0,0,0-1.79,3.25,10.92,10.92,0,0,0-.45,5.48,20.93,20.93,0,0,0,1.57,5.7c.11.34.56,1.23.67,1.46a15.9,15.9,0,0,0,1.35,2l.11.12c0,.11-.34,3.13-.34,3.13s-1.45.56-3.36,1.23l-3.35,1.24h-.11v.1a1.22,1.22,0,0,0,.89.9h.56v.11a1.16,1.16,0,0,0,.67.56c.11.11.23.11.46.11h.21v.12a1.21,1.21,0,0,0,.57.67,1.24,1.24,0,0,0,.89,0c.11,0,.11,0,.11.11.11.33.33.56.56.56h.34v.11a1.42,1.42,0,0,0,.67.77h.78c.22,0,.45-.21.67-.33,0-.11,0-.11.12-.22h0l.1.11a1.29,1.29,0,0,0,.91,0h.1l.12.11a1.22,1.22,0,0,0,.56.56h.11v.12a.43.43,0,0,0,.11.34.4.4,0,0,0,.33.11c.23,0,.45-.11.45-.34v-.23h.12a1.77,1.77,0,0,0,.66-.89v-.34a1,1,0,0,0-.11-.55v-.12h0a.4.4,0,0,0,.23-.55.38.38,0,0,0-.12-.23h-.11l.11-.11c0-.12.12-.23.12-.33a.45.45,0,0,0,.11-.35v-.22h.11a1.05,1.05,0,0,0,.56-.89.94.94,0,0,0-.22-.9v-.11h.1c.12,0,.23,0,.23-.11s.11-.11.11-.34a.34.34,0,0,0-.11-.22c0-.12-.11-.12-.23-.12h-.33a.11.11,0,0,0-.11-.11l-.22-.1V54.1a.69.69,0,0,0,.11-.45.71.71,0,0,0,0-.67v-.11l.11-.11a1.44,1.44,0,0,0,.56-.56v-.79c0-.1-.12-.23-.22-.33V51h.1a1.14,1.14,0,0,0,.46-.57V50c-.12-.11-.23-.33-.34-.45h0V49.4c.11-.1.11-.23.11-.44v-.12H138a.35.35,0,0,0,.23-.11h.11v.11c0,.23,0,.46.22.56l.11.11v.12a.49.49,0,0,0,0,.55,1.35,1.35,0,0,0,.57.79c.1,0,.1,0,0,.11v.23a1.67,1.67,0,0,0,.44,1.23l.11.1h0a1,1,0,0,0-.45.45,1.18,1.18,0,0,0,.34,1.13h.11v.1h0a.71.71,0,0,0,.34.9v.23a1.91,1.91,0,0,0,0,1.11h.11l-.11.11v.12l-.11-.12a.55.55,0,0,0-.68.23v.34a.65.65,0,0,0,.45.22h0v.23a1.58,1.58,0,0,0,.23.67v.11h0a1.75,1.75,0,0,0-.12.77,1.82,1.82,0,0,0,.34,1v.23c0,.1-.11.33,0,.45a.52.52,0,0,0,.56.55.33.33,0,0,0,.45,0c.23,0,.45-.21.55-.55h0c.12,0,.34-.12.45-.12s.12-.11.12,0,.21.23.34.23.55,0,.78-.34v-.45l-.34-.33h0v-.11a.39.39,0,0,0,.11-.23v-.11l.12.11h.33v.12c.11.11.33.22.45.33h.45a.23.23,0,0,0,.21-.22H145l.34.33c.11,0,.11.11.22.11a.87.87,0,0,0,.56-.22v-.11h.11a.42.42,0,0,0,.34.11h.22c.33-.11.56-.33.56-.56a.51.51,0,0,0,0-.56V58.8h.11c.12.11.23,0,.33,0a.6.6,0,0,0,.34-.56v-.11l.12.11a1.19,1.19,0,0,0,.45.33H149c.22-.1.56-.33.56-.67.11,0,.11,0,.11-.11v-.1c.23-.12.33-.23.33-.45v-.12h.12a.43.43,0,0,0,.34-.11.11.11,0,0,0,.11-.11v-.34l-3.69-1.23-3.81-1.11V51.31l.11-.13a12.54,12.54,0,0,0,1.12-1.55,25,25,0,0,0,1.35-2.8,32.62,32.62,0,0,0,1.56-6.49V39a11.12,11.12,0,0,0-3.14-6.49,8.81,8.81,0,0,0-3.47-2.36,14.68,14.68,0,0,0-2.11-.44ZM124.26,57.24h-.33a2.6,2.6,0,0,0-.67.33c-2.14.79-2.91,1-3.14,1.12a3.61,3.61,0,0,0-1.68,2.58V65.4l3.13,3.24c1.69,1.8,3.14,3.25,3.14,3.25a.66.66,0,0,0,.44-.11.61.61,0,0,0,.56-.33h.79a1,1,0,0,0,.67-.68c.11-.1.11-.22.11-.44v-.12h.11c.11.12.23.23.34.23h.33c.12.11.22,0,.35,0a1.38,1.38,0,0,0,.55-.57v-.66l.12-.12a.38.38,0,0,1,.21-.11l.12-.11h0c.11,0,.11.11.22.11h.56a.74.74,0,0,0,.23-1l-.12-.11s.12,0,.12-.1a.52.52,0,0,0,.33-.46h.11a.82.82,0,0,0,.44.23c.12,0,.12,0,.12.1s-.12,0-.12.13c-.21.33.12.78.46.88a.66.66,0,0,0,.78-.78c0-.23-.11-.33-.34-.44l-.1-.12h.1a.79.79,0,0,0,.23-.44V66.4h.11a.46.46,0,0,0,.34-.1v.1l.11.23c.11,0,.11.12.22.12h.33l.23-.23a.35.35,0,0,0,0-.45c0-.11-.23-.22-.34-.22v-.67a.4.4,0,0,0,.34-.12.5.5,0,0,0,0-.55c-.11-.12-.23-.23-.34-.23h0a1,1,0,0,0-.44-.66l-.11-.13v-.21a.39.39,0,0,0-.12-.34,1.08,1.08,0,0,0-.44-.56,1,1,0,0,0-.56-.11,1,1,0,0,0-.56.11h-.11c.11,0,.11-.22.11-.34s-.45-.56-.68-.44h-.1v-.22a1.07,1.07,0,0,0-.34-.8c-.22-.1-.34-.21-.56-.33h-.33a.8.8,0,0,0-.45.12h-.12c0-.12-.21-.23-.34-.34l-.1-.11h-.12v-.34a.6.6,0,0,0-.33-.55h-.45v-.12c-.11-.22-.23-.44-.33-.67a1,1,0,0,0-.78-.34h-.46c0-.11-.11-.21-.21-.33s-.46,0-.56.12h-.12v-.12a.6.6,0,0,0-.56-.33Zm28.54.1h-.12c-.22,0-.34.23-.45.45h-.11a.55.55,0,0,0-.67.23.41.41,0,0,0-.11.34v.11h-.12a1.16,1.16,0,0,0-1.44.1,1,1,0,0,0-.35.67v.23h-.11a1.94,1.94,0,0,0-1.11.11c-.12.12-.33.45-.46.56a1.13,1.13,0,0,0-.21.79v.22h-.12c-.22-.11-.45,0-.67.23h-.22a1.67,1.67,0,0,0-1,.1,1.8,1.8,0,0,0-.68.9v.23l-.1.1h-.34a.84.84,0,0,0-.44.45.34.34,0,0,0,0,.46v.1h-.12a.36.36,0,0,0-.44,0c-.12,0-.23.12-.34.23a.41.41,0,0,0-.23.56c0,.22,0,.34.11.44s.12.11,0,.11l-.21.12c0,.11-.13.11-.13.22v.33a.61.61,0,0,0,.91.12v-.12a.63.63,0,0,0,.45.12h.1V66c0,.23,0,.34.12.44a.12.12,0,0,1-.12.12.35.35,0,0,1-.22.11.72.72,0,0,0,.22,1h.45a2.57,2.57,0,0,0,.33-.33v-.11l.12.11c.22,0,.45.12.68.12v.34a.45.45,0,0,0,.1.33h-.1c-.23,0-.34.11-.46.34v.21a.39.39,0,0,0,.12.34c.11,0,.22.11.34.11a.88.88,0,0,0,.44-.45v.12a1.19,1.19,0,0,0,.79.67c.1.11.21.11.44.11s.34-.11.44-.11l.13-.11v.11c.1.11.1.34.21.44s.34.23.45.23h.56c.11,0,.22-.1.33-.1v0a1.14,1.14,0,0,0,1.23,1.11h.46l.1-.11-.1.11a.75.75,0,0,0,.67,1,.85.85,0,0,0,.67-.22c.11-.11,1.57-1.45,3.24-3l3-2.8V61.38c-.11-.23-.11-.45-.22-.68a8.63,8.63,0,0,0-.89-1.23,6.05,6.05,0,0,0-1.8-1.11C155.59,58.24,152.8,57.34,152.8,57.34Zm-14.44.56h-.11c-.23,0-.34.12-.45.34v.45c.11.11.11.22.22.34h0a.56.56,0,0,0-.22.44v.11c.11.23.22.23.45.23s.23,0,.23-.11.21-.12.21-.23,0-.23-.11-.23v-.1l-.1-.11h.1c.11,0,.23-.12.34-.23s0-.11.11-.33-.11-.11-.11-.23-.11-.22-.34-.34h-.22Zm-.89,2.58h0a.53.53,0,0,0-.34.22V61c.11.23.22.34.45.34s.1,0,.1-.11a.36.36,0,0,0,.34-.34c0-.12-.11-.23-.22-.35S137.58,60.48,137.47,60.48Zm-4,.45h0c-.22.11-.33.11-.33.22a.7.7,0,0,0-.11.45v.22a.72.72,0,0,0,1,.22.74.74,0,0,0-.12-1.11h-.45ZM140.59,62h-.22c-.22.12-.33.23-.33.34s.11.44.22.44.11.12.23.12h.1v.11a.88.88,0,0,0,.45.44.45.45,0,0,0,.56,0c.12-.1.22-.21.34-.33v-.34l-.12-.11a.82.82,0,0,0-.44-.44.43.43,0,0,0-.34.11h0l-.11-.11a.25.25,0,0,0-.21-.23Zm-6.82,1.12h-.11c-.12.12-.23.23-.23.33a.57.57,0,0,0,.23.46h.45c0,.11.1.22.23.33a.5.5,0,0,0,.89-.22c.11,0,.11,0,.11-.22s0-.12-.11-.22-.11-.23-.23-.34h-.22c-.22,0-.34,0-.44.11h-.13a.44.44,0,0,0-.1-.23h-.34Zm8.28,3h0a1.42,1.42,0,0,0-.45.33v.56h-.1c-.12,0-.12.11-.23.22v.46l.23.21h.22a.41.41,0,0,0,.33-.11.4.4,0,0,0,.11-.33v-.11h.11a.68.68,0,0,0,.46-1.12c-.13,0-.23,0-.23-.11h-.45Zm-4.81.78H137l-.34.33v.56c.22.34.67.45.9.11a.49.49,0,0,0-.11-.89C137.35,67,137.35,67,137.24,67Zm-3.58.11h0c-.23,0-.33.11-.33.22v.46a.23.23,0,0,0,.21.21h.23a.42.42,0,0,0,.34-.11c.23-.23.1-.56-.11-.78h-.34Zm.78,1.23c-.1,0-.1.12-.23.12s-.33.21-.44.44v.22c0,.12,0,.12.11.23a.33.33,0,0,0,.12.22h0a1.23,1.23,0,0,0-.46-.11,1.5,1.5,0,0,0-.89.57h-.11c-.11-.13-.22-.23-.34-.23h-.55a1.09,1.09,0,0,0-.68.56v.11h-.11c-.11-.11-.22-.11-.44-.11a.76.76,0,0,0-.79.44,1,1,0,0,0-.11.56v.12h0a2,2,0,0,0-.56-.34h-.78a.83.83,0,0,0-.45.22,2.74,2.74,0,0,0-.45.56h-.11a.82.82,0,0,0-1,.12.59.59,0,0,0-.34.55v.35l5.47,5.7,5.83,5.81.11.23.11-.12.12-.11c.11-.11.11-.11.11-.23s0-.1-.11-.21a.12.12,0,0,0-.12-.12h0v-.11c.23-.11.33-.34.23-.44s-.23-.23-.23-.23l.12-.11a.41.41,0,0,0,.11-.34.4.4,0,0,0-.11-.33c0-.12-.12-.12-.23-.22h-.11l.11-.11a1.88,1.88,0,0,0,.56-2.24.12.12,0,0,1-.12-.12V79.5h0A1.08,1.08,0,0,0,138,78a.75.75,0,0,0-.44-.55h-.11l.11-.12c.1-.11.22-.22.22-.34a.92.92,0,0,0-.22-.55l-.11-.11h.11a.73.73,0,0,0-.11-.78c-.12-.23-.34-.23-.57-.23h-.11a1.25,1.25,0,0,0,.11-.9c-.11-.11-.11-.11,0-.11s.34-.22.45-.34a.58.58,0,0,0-.22-.89H137l.11-.11a1.31,1.31,0,0,0,.34-.9c-.12-.22-.12-.44-.23-.56s-.22-.33-.34-.33l.12-.11c0-.11.11-.23.11-.34s.11-.1.11-.33-.11-.34-.22-.57v-.1h0c.11-.12.22-.23.22-.34v-.34c0-.11-.11-.11-.22-.22h-.23a.43.43,0,0,0-.34.11h-.1c-.11-.11-.23-.22-.34-.22a.88.88,0,0,0-.89-.12H135c-.11-.1-.22-.21-.34-.21A.31.31,0,0,0,134.44,68.31Zm6.49.23h-.11a.8.8,0,0,0-.67.78v.33h0a.71.71,0,0,0-1,.35v.33c0,.11,0,.11.12.22s.22.22.33.33.11,0,0,.12v.33a.7.7,0,0,0,.33.89l.12.12-.12.11a1.48,1.48,0,0,0-.11.67,1,1,0,0,0,.34.79V74h0c0,.23-.11.34-.11.57v.11h-.23v-.11c.11-.12.11-.23.11-.45a1.84,1.84,0,0,0-.22-.34l-.11-.1a.67.67,0,0,0-.78.1.69.69,0,0,0-.12.9h0v.1a.31.31,0,0,0-.33.34c-.11,0-.11.12-.11.23s0,.11.11.23a.51.51,0,0,0,.56.44H139l-.11.12a1.56,1.56,0,0,0,0,1c0,.11.11.34.11.45s.23.23.33.23v.1h0l-.1.11a1.4,1.4,0,0,0-.34,2.13l.11.11-.11.11c-.11.12-.23.23-.23.34a.84.84,0,0,0-.11.56v.34l.11.11h-.11a.89.89,0,0,0,.11.89v.12l-.11.11a.29.29,0,0,0,.11.45v.1h0a.43.43,0,0,0-.11.34c0,.11,0,.11-.1.11s-.12.12-.12.33,0,.12.12.12a.4.4,0,0,0,.1.22s1.12-1,6.26-5.7L151,73.12V73a.2.2,0,0,0,0-.33c0-.23-.22-.34-.44-.46a.4.4,0,0,0-.34.12h-.11a.42.42,0,0,1-.12-.23c-.1-.1-.21-.22-.33-.33a.88.88,0,0,0-.45-.11c-.22,0-.33,0-.45.11h-.1v-.11a1.2,1.2,0,0,0-1-1.12h-.45l-.12.12v-.12c0-.11-.21-.34-.33-.45a.73.73,0,0,0-.45-.1.7.7,0,0,0-.56.67v0c-.1-.12-.22-.23-.33-.23a.69.69,0,0,0-.45-.11h-.12l-.1-.12a1,1,0,0,0-.56-.89,1,1,0,0,0-.56-.11h-.22v-.12c0-.22-.12-.33-.34-.45a.77.77,0,0,0-.9.34h-.34c-.1,0-.1.11-.1.11a.11.11,0,0,0-.12-.11c0-.11-.1-.22-.22-.34A.74.74,0,0,0,140.93,68.54Zm-6.72,1.11h.13v0Zm4,1.46a.11.11,0,0,0-.11.11c-.12,0-.12,0-.23.11a.7.7,0,0,0-.11.45l.11.11L138,72h-.11a.38.38,0,0,0-.11.33.63.63,0,0,0,.68.78.59.59,0,0,0,.55-.56.55.55,0,0,0-.22-.67h-.12v-.11a.11.11,0,0,0,.12-.11c0-.12,0-.12-.12-.22a.24.24,0,0,0-.21-.23C138.36,71.22,138.36,71.11,138.25,71.11Z"/></svg>