<svg xmlns="http://www.w3.org/2000/svg" viewBox="0 0 992.84 113.82"><defs><style>.a,.d{fill:#fff;}.a{stroke:#000;stroke-miterlimit:10;stroke-width:0.5px;}.a,.c,.d,.e,.f{fill-rule:evenodd;}.b,.c{fill:#473335;}.e{fill:#ac322d;}.f{fill:#000b0d;}</style></defs><title>BV001_C</title><polygon class="a" points="80.62 113.57 0.43 55.84 80.62 0.26 912.22 0.25 992.41 57.98 912.22 113.56 80.62 113.57"/><rect class="b" x="89.07" y="8.05" width="815.42" height="97.53"/><polygon class="c" points="911.45 8.04 980.47 56.81 911.45 105.58 911.45 8.04"/><polygon class="c" points="81.72 8.04 12.7 56.81 81.72 105.58 81.72 8.04"/><path class="d" d="M520,50.64l6.27-19.58,5.76,19.58ZM505.2,67.35h9.58l3-9.58h16.49l2.88,9.58h9.57L531.19,22.06H521.11Zm68-11.88c-.5,2.52-1.15,3.67-2.45,4.61a7.27,7.27,0,0,1-4.25,1.29c-4,0-7.63-2.81-7.63-10,0-8.06,4-10.94,7.85-10.94A6.42,6.42,0,0,1,573,45.89l8.42-.43c-.72-6.77-6-12-15-12-6.33,0-10.87,2.37-13.82,6.77a18.77,18.77,0,0,0-3.1,10.94c0,6.55,2.6,11.52,6.77,14.62a17.08,17.08,0,0,0,10.15,2.88,17.81,17.81,0,0,0,6.41-1c5-1.87,8-5.55,8.64-11.74Zm22.75-8.28a7.47,7.47,0,0,1,7.13-6.7c3.6,0,6.62,2.45,7.27,6.7Zm-.36,6.33h24.12c0-9.64-4.39-19.94-16.49-19.94-12.45,0-16.34,10-16.34,17.42,0,10.8,7.13,17.5,16.34,17.5s14.55-5,15.77-10.58l-8.64-.58c-1.73,2.95-3.89,4.25-6.77,4.25C599.38,61.59,596.07,58.71,595.56,53.52ZM643,67.35v-6.7h-3.17a3.05,3.05,0,0,1-2.52-1.22c-.29-.29-.5-.72-.5-2.59V40.78h5.9V34.73h-5.9V24.51h-8.71V34.73H623.5v6.05h4.61V57.56c0,7.34,2.95,9.79,7.77,9.79Zm21.67-5.62c-4.1,0-8.13-3.17-8.13-10.37,0-7.84,3.88-10.94,8.13-10.94s8.21,3.1,8.21,10.58S668.93,61.73,664.68,61.73Zm0,6.77c9.94,0,17.21-6.91,17.21-17.5,0-10.22-7.2-17.42-17.28-17.42-9.79,0-17.06,7.06-17.06,17.42C647.55,61.73,654.82,68.5,664.68,68.5Zm23.26-1.15h8.78l.07-18.22A7.87,7.87,0,0,1,698,44.31a6.9,6.9,0,0,1,5.47-2.74c3,0,5.18,2,5.18,5.62V67.35h8.71V44.45c0-6.12-4.46-10.87-11.3-10.87-4.61,0-7.92,2.59-8.93,5.11l-.5-3.81-8.5-.15Z"/><path class="d" d="M578.58,96.22h4V88H591V84.87h-8.42V80.23h9.89V77H578.58Zm18.3-7.08,2.62-8.3,2.51,8.3Zm-6.28,7.08h4l1.28-4h7l1.22,4h4.09L601.64,77h-4.27Zm22.94-10.68V80.23H618a2.51,2.51,0,0,1,1.77.43A2.77,2.77,0,0,1,621,82.92c0,1.46-1.16,2.68-3.17,2.68Zm-3.91,10.68h3.91l.06-7.57h3.48A3.27,3.27,0,0,1,620,90.24a3.85,3.85,0,0,1,.37,1.22c.37,1.59,0,3.3.73,4.76h4a5.31,5.31,0,0,1-.61-2l-.31-3.36a3.58,3.58,0,0,0-1-2.56,4.17,4.17,0,0,0-2.56-1.16,4.59,4.59,0,0,0,4.21-4.76c0-3-2.38-5.55-6.47-5.37h-8.73Zm23.25-7.08,2.62-8.3,2.5,8.3Zm-6.29,7.08h4l1.28-4h7l1.22,4h4.09L637.64,77h-4.27Z"/><polygon class="e" points="188.69 57.01 230.86 99.2 273.16 56.9 230.97 14.71 188.69 57.01"/><polygon class="d" points="266.45 56.9 230.86 92.48 195.39 56.9 230.97 21.43 266.45 56.9"/><path class="f" d="M230.86,35.08h-.22a7.42,7.42,0,0,0-4.59,1.78,10.41,10.41,0,0,0-.67,1,1.64,1.64,0,0,0-.22.68v1.12c0,.11,2.91,19.57,2.91,19.91a1.56,1.56,0,0,0,.22.67,3.21,3.21,0,0,0,2.47,2h.88a3.2,3.2,0,0,0,2.69-2.69c.12-.44,2.91-19.8,2.91-20s.11-.23.11-.46a1.94,1.94,0,0,0-.11-.78,5.51,5.51,0,0,0-.55-1.12,3.9,3.9,0,0,0-1-.89,6.69,6.69,0,0,0-3-1.12,5.52,5.52,0,0,0-1.34-.11Zm.34,30H231a4.76,4.76,0,0,0-3,1.34,6.27,6.27,0,0,0-.56.79,7.06,7.06,0,0,0-.9,2.24v1.24a7.83,7.83,0,0,0,1.13,2.57c.11.22.45.45.67.67a3.3,3.3,0,0,0,1.79.88,2.84,2.84,0,0,0,2.24,0,4.31,4.31,0,0,0,2.79-1.88,6.43,6.43,0,0,0,.78-2.47V69.32a7.43,7.43,0,0,0-.44-1.56,5.09,5.09,0,0,0-3.58-2.7Z"/><path class="e" d="M117,35.86,95.88,57,117,78l21,21.16L159.2,78,180.36,56.9l-21.16-21c-11.52-11.63-21-21.15-21-21.15S128.55,24.23,117,35.86Z"/><path class="d" d="M155.84,39.22l17.8,17.68-17.8,17.79-17.78,17.9-17.69-17.9L102.58,56.9l17.79-17.68c9.74-9.85,17.69-17.79,17.79-17.79S146.12,29.37,155.84,39.22Z"/><path class="f" d="M138.16,31.84c-2.68,5,.57,7.83-3,15.22-1.79-1.46-.78-7.06-4.47-7.16a5.56,5.56,0,0,1,.11,3c-.45,2.34-1.23,4.58.45,7.71-2.57-1.23-2.68-3.47-4.81-4.92.44,2.35-.57,7.27,2.24,12.08-2.58-.33-3.36-1.23-6.15-3.91,2.9,15,5,15.44,15.65,16.22a9.73,9.73,0,0,1-8-7c-.11-1.57-.22,1.34,4.93,1.34-3.25-5.15-2.36-4.14-2-7.15,1.34,2.12.22,2.23,4,3.8-1.23-3.8,1.79-6.49,1.23-10.86.78,1.91,3.8,1.57,3.69,10.86,2.47-2.8,2.69-.9,3.92-3.92.11,1.68.78,3.81-2.58,7.39.9.22,2.35.44,4.71-1.12C145.66,66,147.79,66,142,70.21c7.27.12,12-4.48,11.86-14.55-.22.9-.45,2.58-4.37,3.14a10.18,10.18,0,0,0,1.8-11.3c-.67.67-1.68,3.68-4.25,4.48a9.82,9.82,0,0,0,1-4.92,10.4,10.4,0,0,0-1.9-6.61c-.68,4.58-.57,6.82-3.48,7.49.44-2.68.57-3.92-.89-6.93S138.62,34.75,138.16,31.84Zm-12,40.84v2.68H151.7V72.68H126.19Z"/></svg>