<svg xmlns="http://www.w3.org/2000/svg" viewBox="0 0 992.84 113.82"><defs><style>.a,.d{fill:#fff;}.a{stroke:#000;stroke-miterlimit:10;stroke-width:0.5px;}.a,.c,.d,.e,.f{fill-rule:evenodd;}.b,.c{fill:#473335;}.e{fill:#ac322d;}.f{fill:#000b0d;}</style></defs><title>BV007_C</title><polygon class="a" points="80.62 113.57 0.43 55.84 80.62 0.26 912.22 0.25 992.41 57.98 912.22 113.56 80.62 113.57"/><rect class="b" x="88.99" y="8.12" width="815.42" height="97.53"/><polygon class="c" points="911.23 8.12 980.25 56.88 911.23 105.65 911.23 8.12"/><polygon class="c" points="81.5 8.12 12.48 56.88 81.5 105.65 81.5 8.12"/><path class="d" d="M474.1,59.79V29.69h6.33c5.62,0,8.07,1.51,10.16,4.18,1.8,2.3,3.31,6,3.31,12,0,10-4.83,14-11.16,14Zm-9.43,7.7h19.8c9.43,0,18.79-7.92,18.79-22.32,0-15.12-9.22-23-18.94-23H464.67ZM509,30.05h8.71V22.2H509Zm0,37.44h8.71V34.88H509Zm23.83-20.16A7.57,7.57,0,0,1,540,40.64c3.6,0,6.69,2.44,7.27,6.69Zm-.36,6.34h24.19c0-9.65-4.39-20-16.49-20-12.52,0-16.34,10-16.34,17.43,0,10.8,7.13,17.49,16.27,17.49s14.69-5,16-10.58l-8.79-.58c-1.73,3-4,4.25-6.77,4.25C536.38,61.73,532.92,58.85,532.49,53.67Zm29.74,3c.07,6.05,5.25,12,15.33,12s14.62-5.4,14.62-11.3a8.78,8.78,0,0,0-2.09-5.62c-1.15-1.51-2.81-2.8-6.55-3.6L574.11,46c-2-.5-2.81-1.72-2.81-2.88s1.29-3.31,5.54-3.31c4.61,0,6.7,2.52,6.7,5.11l7.7-.21a11.29,11.29,0,0,0-4.61-8.5c-1.94-1.37-5-2.52-9.64-2.52-9.51,0-13.61,5-13.61,10.66a8.62,8.62,0,0,0,2.3,6.12c1.15,1.15,2.52,2.23,6.19,3L578.93,55c4.1.93,4.61,2.23,4.61,3.67s-1.37,3.74-6.12,3.74-7.06-2.59-7.27-5.9Zm44.64-9.36a7.61,7.61,0,0,1,7-6.69,7.24,7.24,0,0,1,7.27,6.69Zm-.29,6.34h24c0-9.65-4.4-20-16.49-20-12.46,0-16.2,10-16.2,17.43,0,10.8,7.13,17.49,16.13,17.49,9.21,0,14.68-5,16-10.58l-8.78-.58c-1.73,3-4,4.25-6.77,4.25C610.47,61.73,607,58.85,606.58,53.67Zm30.17,13.82h8.71V22.2h-8.71Zm31.89-5.61c-4.17,0-8.21-3.17-8.21-10.37,0-7.85,4-10.95,8.28-10.95s8.21,3.1,8.21,10.59S673,61.88,668.64,61.88Zm.07,6.76c9.94,0,17.21-6.91,17.21-17.49,0-10.23-7.13-17.43-17.28-17.43-9.93,0-17.06,7.06-17.06,17.43C651.58,61.88,658.85,68.64,668.71,68.64ZM692,67.49h8.78V22.2H692Zm18.94-37.44h8.71V22.2h-8.71ZM705.36,71v7.13h6.12c5.55,0,8.14-2.74,8.14-8.64V34.88h-8.71V65.76c0,4.47-1.37,5.19-3.6,5.19Zm42.12-20.59v4.1c0,4.61-2.88,7.49-7.92,7.49-3.53,0-5.4-2.16-5.4-4.11,0-1.65.58-3.24,6.12-4.89l3.75-1A8.69,8.69,0,0,0,747.48,50.36Zm0,13.46a8.35,8.35,0,0,0,1.08,3.67h8.86a5.24,5.24,0,0,1-1.37-3.31V46.32c0-7.84-4-12.6-14.76-12.6-9.79,0-13.9,5.48-13.68,11l7.7.14c0-2.45,1.88-4.75,6.34-4.75,4.25,0,5.62,2.09,5.62,3.67,0,1.3-.8,2.59-3.1,2.88l-5,.94c-7.13,1.29-9.14,2.66-10.51,3.81a8.93,8.93,0,0,0-3,6.77c0,5.47,4.24,10.3,12.38,10.3C742.8,68.43,745.68,66.77,747.48,63.82Z"/><path class="d" d="M561.43,96.22h3.82L571.8,77l-4.25.07-4.1,14.18L559.13,77h-4.25Zm13.76-7.06,2.66-8.28,2.38,8.28Zm-6.34,7.06h4l1.37-4h6.91l1.3,4h4L579.87,77h-4.25ZM592,85.64v-5.4h4.39a3.76,3.76,0,0,1,1.88.43,2.91,2.91,0,0,1,1.15,2.3c0,1.37-1.15,2.67-3.17,2.67Zm-4,10.58h4V88.59h3.46a3.51,3.51,0,0,1,3,1.65,7.41,7.41,0,0,1,.36,1.23c.43,1.65,0,3.24.79,4.75h4a4,4,0,0,1-.72-1.94l-.36-3.39a3.37,3.37,0,0,0-.87-2.59,4.45,4.45,0,0,0-2.59-1.15,4.46,4.46,0,0,0,4.18-4.75c0-3-2.45-5.55-6.48-5.4h-8.72Zm18.22,0H610V83.33l7.85,12.89h4V77.07h-4v13L610,77h-4Zm18.43,0h4.17V77h-4.17Zm7,0h3.75V83.33l8,12.89h4V77.07h-4v13L635.38,77h-3.89Zm27.72-7.13h4.76A5.06,5.06,0,0,1,659,93.56c-2.73,0-5.4-2.09-5.4-6.77,0-4,2.16-7.13,5.55-7.13a4.5,4.5,0,0,1,4.46,3.46l3.82-.15a7.81,7.81,0,0,0-2.31-4.39,9.85,9.85,0,0,0-6.33-2.16c-5.76,0-9.07,5-9.07,10.37a10.12,10.12,0,0,0,2.88,7.7,8.37,8.37,0,0,0,5.76,2.31,9.34,9.34,0,0,0,3.67-.72,5.37,5.37,0,0,0,2.37-2.38l.15,2.52h3V86.07h-8.21Z"/><path class="e" d="M116.66,35.94,95.52,57.08l21.14,21,21,21.16,21.14-21.16L180,57l-21.16-21c-11.52-11.64-21-21.15-21-21.15S128.19,24.3,116.66,35.94Z"/><path class="d" d="M155.48,39.29,173.28,57l-17.8,17.9L137.7,92.66,120,74.76,102.22,57,120,39.29c9.74-9.85,17.69-17.79,17.79-17.79S145.76,29.44,155.48,39.29Z"/><path class="f" d="M137.92,29.78h-.33a10.21,10.21,0,0,0-3.36.9,9.14,9.14,0,0,0-2.91,2.24,8.28,8.28,0,0,0-1.79,3.24,10.7,10.7,0,0,0-.45,5.48,20.72,20.72,0,0,0,1.56,5.7c.11.34.57,1.23.68,1.46a15.91,15.91,0,0,0,1.34,2l.11.12c0,.11-.33,3.13-.33,3.13s-1.46.56-3.36,1.23l-3.36,1.24h-.1v.1a1.2,1.2,0,0,0,.88.9h.57v.11a1.11,1.11,0,0,0,.66.56c.12.11.23.11.46.11h.21v.12a1.21,1.21,0,0,0,.57.67,1.24,1.24,0,0,0,.89,0c.11,0,.11,0,.11.11.12.34.34.56.57.56h.33v.11a1.46,1.46,0,0,0,.67.77h.78c.23,0,.45-.21.67-.32,0-.12,0-.12.12-.23h0l.11.11a1.16,1.16,0,0,0,.9,0h.11l.11.12a1.29,1.29,0,0,0,.56.55H135V61a.43.43,0,0,0,.11.34.42.42,0,0,0,.34.11c.23,0,.44-.11.44-.34v-.23H136a1.75,1.75,0,0,0,.67-.89v-.34a.92.92,0,0,0-.12-.55V59h0a.4.4,0,0,0,.23-.55.39.39,0,0,0-.11-.23h-.12l.12-.11c0-.12.11-.23.11-.33a.45.45,0,0,0,.11-.35v-.22H137a1.06,1.06,0,0,0,.57-.89.93.93,0,0,0-.23-.9v-.11h.11c.12,0,.23,0,.23-.11s.1-.11.1-.33a.37.37,0,0,0-.1-.23c0-.12-.11-.12-.23-.12h-.34c0-.1-.11-.1-.11-.1l-.22-.11v-.12a.69.69,0,0,0,.11-.45.71.71,0,0,0,0-.67v-.11l.11-.11a1.4,1.4,0,0,0,.57-.56v-.79c0-.1-.12-.22-.23-.33V51h.11a1.1,1.1,0,0,0,.45-.56V50c-.12-.11-.22-.33-.33-.45h0v-.1c.11-.11.11-.23.11-.45v-.12h.1a.35.35,0,0,0,.23-.11h.11v.11c0,.23,0,.46.23.57l.11.1v.12a.49.49,0,0,0,0,.55A1.33,1.33,0,0,0,139,51c.11,0,.11,0,0,.11v.23a1.72,1.72,0,0,0,.44,1.23l.12.11h0a.83.83,0,0,0-.45.45,1.16,1.16,0,0,0,.33,1.12h.12v.11h0a.7.7,0,0,0,.33.89v.23a1.91,1.91,0,0,0,0,1.11H140l-.11.11v.12l-.11-.12a.54.54,0,0,0-.67.23v.34a.61.61,0,0,0,.45.22h0v.23a1.7,1.7,0,0,0,.22.67v.11h0a1.94,1.94,0,0,0-.11.78,1.86,1.86,0,0,0,.33,1v.22c0,.1-.11.33,0,.45a.53.53,0,0,0,.57.56.33.33,0,0,0,.44,0c.23,0,.45-.22.56-.56h0c.11,0,.33-.12.45-.12s.11-.1.11,0,.22.23.34.23a.66.66,0,0,0,.78-.33v-.45c-.11-.12-.23-.23-.34-.34h0v-.11a.39.39,0,0,0,.11-.23v-.1l.12.1h.34v.12c.11.11.33.22.44.33h.45a.24.24,0,0,0,.22-.22h.12l.33.33c.11,0,.11.12.22.12a.83.83,0,0,0,.56-.23V60H146a.43.43,0,0,0,.34.11h.23c.33-.11.55-.33.55-.55a.52.52,0,0,0,0-.57v-.11h.11c.12.11.23,0,.34,0a.58.58,0,0,0,.33-.56V58.2l.13.11a1.07,1.07,0,0,0,.44.33h.34c.22-.1.55-.33.55-.67.11,0,.11,0,.11-.11v-.1c.23-.12.34-.23.34-.45v-.12h.12a.41.41,0,0,0,.33-.11.11.11,0,0,0,.11-.11v-.34l-3.69-1.23-3.8-1.11V51.38l.1-.12a13.89,13.89,0,0,0,1.13-1.56,25,25,0,0,0,1.34-2.8A32.52,32.52,0,0,0,147,40.41V39.07a11.12,11.12,0,0,0-3.14-6.49,8.81,8.81,0,0,0-3.47-2.36,16,16,0,0,0-2.12-.44ZM124.05,57.31h-.34a2.78,2.78,0,0,0-.67.33c-2.13.79-2.91,1-3.13,1.13a3.58,3.58,0,0,0-1.68,2.57v4.13l3.12,3.25C123,70.51,124.49,72,124.49,72a.69.69,0,0,0,.45-.11.59.59,0,0,0,.55-.33h.8a1,1,0,0,0,.66-.67c.12-.11.12-.23.12-.45v-.12h.1c.12.12.23.23.34.23h.34c.11.11.22,0,.34,0a1.41,1.41,0,0,0,.55-.56v-.67l.12-.11a.38.38,0,0,1,.22-.12l.11-.11h0c.12,0,.12.11.22.11H130a.73.73,0,0,0,.23-1l-.11-.1a.11.11,0,0,0,.11-.11.52.52,0,0,0,.34-.46h.1a.81.81,0,0,0,.45.23c.12,0,.12,0,.12.11s-.12,0-.12.12c-.22.33.12.78.45.89a.66.66,0,0,0,.78-.78c0-.23-.11-.34-.33-.45l-.11-.12H132a.83.83,0,0,0,.22-.44v-.45h.11a.41.41,0,0,0,.34-.11v.11l.11.23c.11,0,.11.11.22.11h.34a2.7,2.7,0,0,0,.22-.23.35.35,0,0,0,0-.45c0-.11-.22-.21-.33-.21v-.68a.37.37,0,0,0,.33-.12.5.5,0,0,0,0-.55c-.1-.11-.22-.23-.33-.23h0a1,1,0,0,0-.45-.66l-.11-.12v-.22a.41.41,0,0,0-.11-.34,1.14,1.14,0,0,0-.45-.56,1,1,0,0,0-.56-.11,1,1,0,0,0-.56.11h-.11c.11,0,.11-.22.11-.34s-.44-.55-.67-.44h-.11v-.22a1,1,0,0,0-.34-.8c-.22-.1-.33-.21-.55-.32H129a.81.81,0,0,0-.44.11h-.13c0-.11-.21-.23-.33-.34L128,60h-.11v-.34a.61.61,0,0,0-.34-.55h-.44V59c-.12-.21-.23-.44-.34-.67A1,1,0,0,0,126,58h-.46c0-.11-.1-.21-.21-.33s-.45,0-.56.12h-.12v-.12a.6.6,0,0,0-.55-.33Zm28.53.1h-.11c-.23,0-.35.23-.45.45h-.11a.54.54,0,0,0-.67.23.39.39,0,0,0-.12.34v.11H151a1.18,1.18,0,0,0-1.45.1,1,1,0,0,0-.34.68v.23h-.12a1.9,1.9,0,0,0-1.1.1c-.13.12-.34.45-.46.56a1.11,1.11,0,0,0-.22.79v.22h-.12c-.21-.11-.44,0-.66.23h-.23a1.61,1.61,0,0,0-1,.11,1.71,1.71,0,0,0-.67.89v.23l-.11.11h-.34a.82.82,0,0,0-.44.44.36.36,0,0,0,0,.46v.1h-.11a.38.38,0,0,0-.45,0c-.12,0-.23.12-.33.23a.41.41,0,0,0-.23.56c0,.22,0,.34.1.44s.13.11,0,.11l-.21.12c0,.11-.12.11-.12.22v.33a.61.61,0,0,0,.9.13V65.8a.62.62,0,0,0,.45.13h.11V66c0,.23,0,.34.11.45a.11.11,0,0,1-.11.11.38.38,0,0,1-.22.12.72.72,0,0,0,.22,1h.45l.33-.34v-.11l.12.11c.21,0,.44.12.67.12v.34a.41.41,0,0,0,.11.33h-.11c-.23,0-.34.11-.46.34v.22a.38.38,0,0,0,.12.33c.11,0,.22.12.34.12a.88.88,0,0,0,.44-.45v.11a1.16,1.16,0,0,0,.79.67c.11.11.22.11.44.11s.34-.11.45-.11l.12-.11v.11c.11.11.11.34.21.45s.34.22.45.22h.56c.12,0,.22-.1.34-.1v0a1.14,1.14,0,0,0,1.23,1.11h.45l.11-.11-.11.11a.75.75,0,0,0,.67,1,.83.83,0,0,0,.67-.22c.11-.11,1.57-1.45,3.24-3l3-2.8V61.45c-.1-.23-.1-.45-.22-.67a8.1,8.1,0,0,0-.89-1.23,5.84,5.84,0,0,0-1.79-1.12C155.38,58.31,152.58,57.41,152.58,57.41ZM138.14,58H138c-.23,0-.33.12-.44.34v.46c.11.1.11.21.21.33h0a.6.6,0,0,0-.21.45v.1c.11.23.21.23.44.23s.23,0,.23-.11.22-.12.22-.22,0-.23-.11-.23v-.11l-.11-.11h.11c.11,0,.23-.12.33-.23s0-.1.11-.33-.11-.11-.11-.23-.1-.22-.33-.34h-.23Zm-.89,2.58h0c-.12,0-.23.1-.34.23v.33c.11.23.22.34.45.34s.11,0,.11-.11a.35.35,0,0,0,.33-.34c0-.12-.1-.22-.21-.35S137.36,60.55,137.25,60.55Zm-4,.45h0c-.23.11-.34.11-.34.22a.7.7,0,0,0-.11.45v.22a.72.72,0,0,0,1,.22.73.73,0,0,0-.12-1.11h-.44Zm7.16,1.11h-.23c-.22.12-.33.23-.33.34s.11.44.22.44.11.12.23.12h.11v.11a.9.9,0,0,0,.45.45.48.48,0,0,0,.56,0l.33-.34v-.34l-.11-.1a.83.83,0,0,0-.45-.45.4.4,0,0,0-.33.11h0l-.12-.11a.24.24,0,0,0-.21-.23Zm-6.83,1.12h-.1c-.12.12-.23.23-.23.34a.57.57,0,0,0,.23.45h.44c0,.11.11.23.23.33a.5.5,0,0,0,.89-.22c.11,0,.11,0,.11-.22s0-.12-.11-.22-.11-.23-.23-.34h-.22c-.22,0-.33,0-.44.11H134a.43.43,0,0,0-.11-.23h-.34Zm8.29,3h0a1.45,1.45,0,0,0-.45.33v.57h-.11c-.12,0-.12.1-.23.21v.46l.23.21h.22a.46.46,0,0,0,.34-.1.45.45,0,0,0,.1-.34v-.11h.12a.67.67,0,0,0,.45-1.12c-.12,0-.23,0-.23-.11h-.44ZM137,67h-.22c-.11.12-.23.22-.33.33v.57c.22.33.66.44.89.1a.48.48,0,0,0-.11-.88C137.13,67,137.13,67,137,67Zm-3.57.12h0c-.23,0-.34.1-.34.21v.46a.23.23,0,0,0,.22.21h.22a.45.45,0,0,0,.34-.1.54.54,0,0,0-.11-.78h-.33Zm.78,1.22c-.11,0-.11.12-.23.12s-.34.22-.45.44v.23c0,.11,0,.11.11.22a.33.33,0,0,0,.12.22h0a1.22,1.22,0,0,0-.45-.11,1.44,1.44,0,0,0-.89.57h-.12c-.11-.12-.22-.23-.33-.23h-.56a1.15,1.15,0,0,0-.68.56v.11h-.11c-.1-.11-.22-.11-.44-.11a.76.76,0,0,0-.79.45,1.08,1.08,0,0,0-.1.55v.12h0a2.25,2.25,0,0,0-.57-.34H128a.9.9,0,0,0-.45.22,2.43,2.43,0,0,0-.44.56H127a.82.82,0,0,0-1,.12.58.58,0,0,0-.33.55V73l5.47,5.7,5.82,5.81.11.23.11-.12.12-.11c.11-.1.11-.1.11-.23s0-.1-.11-.21a.11.11,0,0,0-.12-.11h0v-.12c.23-.11.34-.33.23-.44s-.23-.22-.23-.22l.12-.12a.4.4,0,0,0,.11-.33.38.38,0,0,0-.11-.33c0-.12-.12-.12-.23-.23h-.11L137,82a1.88,1.88,0,0,0,.57-2.24.12.12,0,0,1-.12-.12v-.11h0a1.09,1.09,0,0,0,.33-1.46.73.73,0,0,0-.44-.55h-.11l.11-.12c.11-.11.23-.21.23-.33a.87.87,0,0,0-.23-.56l-.11-.11h.11a.69.69,0,0,0-.11-.78c-.12-.23-.34-.23-.56-.23h-.12a1.24,1.24,0,0,0,.12-.9c-.12-.11-.12-.11,0-.11s.33-.22.44-.33a.59.59,0,0,0-.22-.9h-.11l.11-.1a1.33,1.33,0,0,0,.34-.91c-.12-.22-.12-.44-.23-.55s-.22-.34-.33-.34l.11-.11c0-.11.11-.23.11-.33s.11-.11.11-.34-.11-.34-.22-.56v-.11h0c.11-.12.22-.23.22-.34v-.33c0-.12-.11-.12-.22-.23h-.23a.42.42,0,0,0-.33.11h-.11c-.11-.11-.23-.22-.34-.22a.85.85,0,0,0-.89-.11h-.12c-.1-.11-.22-.22-.33-.22A.33.33,0,0,0,134.23,68.38Zm6.48.23h-.1a.81.81,0,0,0-.68.78v.33h0a.69.69,0,0,0-1,.35v.33c0,.11,0,.11.11.22s.22.23.33.33.11,0,0,.12v.33a.69.69,0,0,0,.34.89l.11.12-.11.11a1.48,1.48,0,0,0-.11.67,1,1,0,0,0,.33.79v.11h0c0,.23-.11.33-.11.56v.11h-.22v-.11c.11-.12.11-.23.11-.45a1.39,1.39,0,0,0-.23-.33l-.11-.11a.64.64,0,0,0-.77.11.67.67,0,0,0-.12.89h0v.11a.3.3,0,0,0-.34.33c-.11,0-.11.12-.11.23s0,.11.11.23a.51.51,0,0,0,.56.44h.11l-.11.12a1.74,1.74,0,0,0,0,1c0,.1.11.33.11.44s.23.23.34.23V78h0l-.11.1a1.41,1.41,0,0,0-.34,2.14l.11.1-.11.12c-.1.11-.22.22-.22.33a.84.84,0,0,0-.11.56v.34l.11.11h-.11a.87.87,0,0,0,.11.9v.11l-.11.11a.28.28,0,0,0,.11.45v.11h0a.4.4,0,0,0-.11.33c0,.12,0,.12-.11.12s-.12.11-.12.32,0,.13.12.13a.38.38,0,0,0,.11.21s1.11-1,6.26-5.7l6.16-5.71v-.1a.22.22,0,0,0,0-.34c0-.23-.23-.34-.45-.46a.37.37,0,0,0-.33.12h-.11a.42.42,0,0,1-.12-.23l-.34-.33a.85.85,0,0,0-.44-.11c-.22,0-.34,0-.45.11h-.11v-.11a1.19,1.19,0,0,0-1-1.12H147l-.12.12v-.12c0-.11-.22-.34-.33-.45a.76.76,0,0,0-.45-.1.7.7,0,0,0-.56.67v0c-.11-.12-.23-.23-.34-.23a.66.66,0,0,0-.44-.11h-.12l-.11-.12a1,1,0,0,0-.56-.89,1,1,0,0,0-.56-.11h-.22v-.11c0-.23-.12-.34-.33-.45a.78.78,0,0,0-.91.33h-.33c-.11,0-.11.12-.11.12s0-.12-.11-.12-.11-.22-.23-.33A.67.67,0,0,0,140.71,68.61ZM134,69.72h.12v0Zm4,1.46a.11.11,0,0,0-.11.11c-.12,0-.12,0-.22.11a.7.7,0,0,0-.11.45l.11.11.1.12h-.1a.38.38,0,0,0-.11.33.62.62,0,0,0,.67.78.58.58,0,0,0,.55-.56.54.54,0,0,0-.21-.67h-.12v-.11a.11.11,0,0,0,.12-.11c0-.11,0-.11-.12-.22a.24.24,0,0,0-.22-.23C138.14,71.29,138.14,71.18,138,71.18Z"/></svg>