<svg xmlns="http://www.w3.org/2000/svg" viewBox="0 0 992.84 113.82"><defs><style>.a,.d{fill:#fff;}.a{stroke:#000;stroke-miterlimit:10;stroke-width:0.5px;}.a,.c,.d{fill-rule:evenodd;}.b,.c{fill:#473335;}</style></defs><title>BV008_C</title><polygon class="a" points="80.62 113.57 0.43 55.84 80.62 0.26 912.22 0.25 992.41 57.98 912.22 113.56 80.62 113.57"/><rect class="b" x="89.21" y="7.98" width="815.42" height="97.53"/><polygon class="c" points="911.45 7.97 980.47 56.74 911.45 105.51 911.45 7.97"/><polygon class="c" points="81.72 7.97 12.7 56.74 81.72 105.51 81.72 7.97"/><path class="d" d="M328.87,84.41h42.48V74.62H340.61V58.92h26.86V49.64H340.61V37h30.31V27.39H328.87Zm50.69,0h10.95l.07-23.61c0-6,3.24-8.86,7.77-8.86,2.88,0,4.68,1.37,5.48,3.46.14.36.5,1.29.5,4.46V84.41h10.94V60.08c0-5.26,3.17-8.28,7.56-8.28,3.68,0,6.27,2.23,6.27,7.05V84.41h10.8V55.76c-.22-8.64-5.76-13.61-13.25-13.61a13.8,13.8,0,0,0-12.53,7.13,13.35,13.35,0,0,0-12-7.13c-5.62,0-9.29,2.45-11.38,6.55l-.43-5.18-10.73-.08Zm94.18-4.61.57,4.61h10.37V43.52H473.74V66.34c0,6.34-3.67,9.58-8.14,9.58-4.17,0-6.69-2.24-6.69-8V43.52H448V71.6c0,5.47,1.51,8.35,4,10.65,2.31,2.16,5.76,3.53,10.23,3.53A13.1,13.1,0,0,0,473.74,79.8Zm19.58,4.61h10.87v-57H493.32ZM512,70.8c.14,7.71,6.7,15,19.22,15,12.82,0,18.44-6.77,18.44-14a11.93,11.93,0,0,0-2.52-7.27c-1.59-1.8-3.53-3.31-8.43-4.47L527,57.27c-2.52-.58-3.46-2.09-3.46-3.6s1.51-4.18,6.84-4.18c5.83,0,8.35,3.17,8.5,6.48l9.64-.21A14.11,14.11,0,0,0,542.64,45c-2.45-1.73-6.26-3.24-12.09-3.24-11.88,0-17.07,6.48-17.07,13.46a10.61,10.61,0,0,0,2.81,7.63c1.44,1.59,3.31,2.88,7.78,3.82l8.85,2c5.19,1.15,5.91,2.8,5.91,4.6s-1.73,4.76-7.85,4.76c-5.76,0-8.71-3.24-8.93-7.35Zm45.86-33.48h11.09V27.39H557.83Zm0,47.09h10.95v-41H557.83Zm40.18-7c-5.18,0-10.22-4-10.22-13.25,0-9.65,5-13.54,10.36-13.54s10.23,3.89,10.23,13.25S603.41,77.36,598,77.36Zm.14,8.56c12.46,0,21.53-8.78,21.53-22.1,0-12.89-9-21.89-21.67-21.89-12.46,0-21.38,8.86-21.38,21.89C576.63,77.28,585.7,85.92,598.15,85.92Zm29.24-1.51h10.94l.14-22.89c0-3.24.65-4.76,1.44-6a8.41,8.41,0,0,1,6.7-3.46c3.82,0,6.55,2.38,6.55,7V84.41h11.09V55.54c0-7.63-5.62-13.54-14.18-13.54-5.84,0-10,3.17-11.38,6.34l-.5-4.82h-10.8Z"/></svg>