<svg xmlns="http://www.w3.org/2000/svg" viewBox="0 0 992.84 113.82"><defs><style>.a,.d{fill:#fff;}.a{stroke:#000;stroke-miterlimit:10;stroke-width:0.5px;}.a,.c,.d,.e,.f{fill-rule:evenodd;}.b,.c{fill:#473335;}.e{fill:#ac322d;}.f{fill:#000b0d;}</style></defs><title>BV009_C</title><polygon class="a" points="80.62 113.57 0.43 55.84 80.62 0.26 912.22 0.25 992.41 57.98 912.22 113.56 80.62 113.57"/><rect class="b" x="89.21" y="8.27" width="815.42" height="97.53"/><polygon class="c" points="911.45 8.26 980.47 57.03 911.45 105.8 911.45 8.26"/><polygon class="c" points="81.72 8.26 12.7 57.03 81.72 105.8 81.72 8.26"/><path class="d" d="M518.09,67.64h33.84V59.93H527.45V47.33h21.38V40H527.52V30h24V22.35H518.09Zm58,0v-6.7h-3.31a3.18,3.18,0,0,1-2.52-1.22,5.26,5.26,0,0,1-.36-2.6v-16h5.83V35h-5.83l-.14-10.22h-8.64V35h-4.61v6h4.61V57.84c0,7.35,3,9.8,7.84,9.8ZM603.63,50.5v4.1c0,4.61-2.88,7.49-7.92,7.49-3.6,0-5.4-2.16-5.4-4.1,0-1.66.57-3.24,6.12-4.9l3.74-1A8.54,8.54,0,0,0,603.63,50.5Zm0,13.46a9.12,9.12,0,0,0,1.08,3.68h8.85a4.86,4.86,0,0,1-1.51-3.32V46.47c0-7.85-3.89-12.6-14.47-12.6-9.94,0-14,5.47-13.83,10.94l7.71.15c0-2.45,1.8-4.76,6.33-4.76,4.25,0,5.62,2.09,5.62,3.68,0,1.29-.79,2.59-3.1,2.88l-5,.93c-7.2,1.3-9.14,2.67-10.51,3.82a9,9,0,0,0-3,6.77c0,5.47,4.25,10.29,12.38,10.29C599,68.57,601.83,66.92,603.63,64Zm16.27,3.68h8.78l.07-18.22a7.85,7.85,0,0,1,1.16-4.82,6.83,6.83,0,0,1,5.32-2.74c3.1,0,5.26,2,5.26,5.62l-.07,20.16h8.71V44.74c0-6.12-4.39-10.87-11.16-10.87-4.68,0-7.92,2.59-9.07,5.11l-.36-3.82L620,35ZM672.31,62c-4.17,0-8.06-3.17-8.06-10.37,0-7.85,3.82-10.94,8.14-10.94s8.2,3.09,8.2,10.58S676.71,62,672.31,62Zm.08,6.77c9.93,0,17.2-6.91,17.2-17.5,0-10.22-7.12-17.42-17.28-17.42-9.79,0-17.06,7.05-17.06,17.42C655.25,62,662.52,68.79,672.39,68.79Zm23.25-1.15h8.79V22.35h-8.64Z"/><path class="d" d="M578.58,96.44h4V88.26H591V85.09h-8.42V80.45h9.89V77.22H578.58Zm18.3-7.08,2.62-8.3,2.51,8.3Zm-6.28,7.08h4l1.28-4h7l1.22,4h4.09l-6.59-19.22h-4.27Zm22.94-10.68V80.45H618a2.46,2.46,0,0,1,1.77.43A2.74,2.74,0,0,1,621,83.14c0,1.46-1.16,2.68-3.17,2.68Zm-3.91,10.68h3.91l.06-7.57h3.48A3.27,3.27,0,0,1,620,90.46a3.77,3.77,0,0,1,.37,1.22c.37,1.58,0,3.29.73,4.76h4a5.31,5.31,0,0,1-.61-2l-.31-3.35a3.59,3.59,0,0,0-1-2.57,4.16,4.16,0,0,0-2.56-1.15,4.59,4.59,0,0,0,4.21-4.76c0-3-2.38-5.56-6.47-5.37h-8.73Zm23.25-7.08,2.62-8.3,2.5,8.3Zm-6.29,7.08h4l1.28-4h7l1.22,4h4.09l-6.59-19.22h-4.27Z"/><path class="e" d="M117,36,95.88,57.15l21.14,21,21,21.15L159.2,78.19,180.36,57,159.2,36c-11.52-11.64-21-21.15-21-21.15S128.55,24.37,117,36Z"/><path class="d" d="M155.84,39.36,173.64,57l-17.8,17.79-17.78,17.9-17.69-17.9L102.58,57l17.79-17.68c9.74-9.85,17.69-17.79,17.79-17.79S146.12,29.51,155.84,39.36Z"/><path class="f" d="M138.16,32c-2.68,5,.57,7.83-3,15.22-1.79-1.46-.78-7.05-4.47-7.16a5.55,5.55,0,0,1,.11,3c-.45,2.35-1.23,4.58.45,7.72-2.57-1.23-2.68-3.47-4.81-4.92.44,2.34-.57,7.26,2.24,12.08-2.58-.34-3.36-1.23-6.15-3.92,2.9,15,5,15.44,15.65,16.23a9.77,9.77,0,0,1-8-7.06c-.11-1.56-.22,1.35,4.93,1.35-3.25-5.15-2.36-4.14-2-7.16,1.34,2.12.22,2.24,4,3.8-1.23-3.8,1.79-6.48,1.23-10.85.78,1.9,3.8,1.56,3.69,10.85,2.47-2.8,2.69-.9,3.92-3.92.11,1.69.78,3.82-2.58,7.39.9.22,2.35.45,4.71-1.12-2.36,2.58-.23,2.58-6.05,6.82,7.27.13,12-4.47,11.86-14.54-.22.9-.45,2.57-4.37,3.14a10.2,10.2,0,0,0,1.8-11.31c-.67.67-1.68,3.69-4.25,4.48a9.82,9.82,0,0,0,1-4.92,10.4,10.4,0,0,0-1.9-6.61c-.68,4.59-.57,6.83-3.48,7.5.44-2.68.57-3.92-.89-6.94S138.62,34.89,138.16,32Zm-12,40.84V75.5H151.7V72.82H126.19Z"/></svg>