<svg xmlns="http://www.w3.org/2000/svg" viewBox="0 0 992.84 113.82"><defs><style>.a,.d{fill:#fff;}.a{stroke:#000;stroke-miterlimit:10;stroke-width:0.5px;}.a,.c,.d,.e,.f{fill-rule:evenodd;}.b,.c{fill:#473335;}.e{fill:#ac322d;}.f{fill:#000b0d;}</style></defs><title>BV018_C</title><polygon class="a" points="80.62 113.57 0.43 55.84 80.62 0.26 912.22 0.25 992.41 57.98 912.22 113.56 80.62 113.57"/><rect class="b" x="89.21" y="8.12" width="815.42" height="97.53"/><polygon class="c" points="911.45 8.12 980.47 56.88 911.45 105.65 911.45 8.12"/><polygon class="c" points="81.72 8.12 12.7 56.88 81.72 105.65 81.72 8.12"/><path class="d" d="M529.47,67.49h9.36V29.69h13.82V22.2H515.79v7.49h13.68Zm34.92-5.61c-4.18,0-8.07-3.17-8.07-10.37,0-7.85,3.82-10.95,8.21-10.95s8.14,3.1,8.14,10.59S568.78,61.88,564.39,61.88Zm.14,6.76c9.86,0,17.14-6.91,17.14-17.49,0-10.23-7.13-17.43-17.28-17.43-9.8,0-17.07,7.06-17.07,17.43C547.32,61.88,554.59,68.64,564.53,68.64Zm23.26-1.15h8.71V22.2h-8.64Zm35.78-3.67.5,3.67h8.28V35l-8.78-.14V53.24c0,4.89-2.88,7.48-6.41,7.48-3.24,0-5.33-1.72-5.33-6.33V34.88h-8.64V57.34c0,4.25,1.3,6.55,3.24,8.42S611,68.5,614.5,68.5A10.2,10.2,0,0,0,623.57,63.82Zm24-16.49a7.39,7.39,0,0,1,7.12-6.69c3.6,0,6.56,2.44,7.13,6.69ZM647,53.67h24.19c0-9.65-4.32-20-16.41-20-12.46,0-16.42,10-16.42,17.43,0,10.8,7.2,17.49,16.27,17.49,9.22,0,14.76-5,16-10.58L662,57.48c-1.73,3-4,4.25-6.84,4.25C651,61.73,647.55,58.85,647,53.67Zm30.31,13.82h8.79l.07-18.21c0-2.67.5-3.82,1.15-4.83a6.86,6.86,0,0,1,5.33-2.73c3.1,0,5.26,2,5.26,5.61l-.08,20.16h8.72V44.6c0-6.12-4.32-10.88-11.16-10.88-4.68,0-7.92,2.6-9.08,5.12L686,35l-8.49-.14Z"/><path class="d" d="M578.58,96.36h4V88.19H591V85h-8.42V80.38h9.89V77.14H578.58Zm18.3-7.07L599.5,81l2.51,8.3Zm-6.28,7.07h4l1.28-4h7l1.22,4h4.09l-6.59-19.22h-4.27Zm22.94-10.67V80.38H618a2.46,2.46,0,0,1,1.77.43A2.74,2.74,0,0,1,621,83.06c0,1.47-1.16,2.69-3.17,2.69Zm-3.91,10.67h3.91l.06-7.56h3.48A3.28,3.28,0,0,1,620,90.38a3.93,3.93,0,0,1,.37,1.22c.37,1.59,0,3.3.73,4.76h4a5.25,5.25,0,0,1-.61-2L624.21,91a3.58,3.58,0,0,0-1-2.56,4.17,4.17,0,0,0-2.56-1.16,4.58,4.58,0,0,0,4.21-4.76c0-3-2.38-5.55-6.47-5.37h-8.73Zm23.25-7.07L635.5,81l2.5,8.3Zm-6.29,7.07h4l1.28-4h7l1.22,4h4.09l-6.59-19.22h-4.27Z"/><path class="e" d="M302.92,35.72,281.78,56.86l21.14,21,21,21.15L345.1,77.9l21.16-21.15-21.16-21c-11.51-11.64-21-21.15-21-21.15S314.45,24.08,302.92,35.72Z"/><path class="d" d="M341.75,39.07l17.79,17.68-17.79,17.9L324,92.45,306.28,74.54l-17.8-17.79,17.8-17.68C316,29.22,324,21.29,324.07,21.29S332,29.22,341.75,39.07Z"/><path class="f" d="M324.19,29.56h-.34a10.46,10.46,0,0,0-3.36.9,9.25,9.25,0,0,0-2.91,2.24,8.48,8.48,0,0,0-1.79,3.24,10.74,10.74,0,0,0-.45,5.49,20.93,20.93,0,0,0,1.57,5.7c.1.33.56,1.23.67,1.46a15.91,15.91,0,0,0,1.34,2l.12.11c0,.12-.34,3.13-.34,3.13s-1.46.57-3.36,1.23S312,56.31,312,56.31h-.11v.11a1.2,1.2,0,0,0,.89.89h.56v.12A1.16,1.16,0,0,0,314,58c.11.1.23.1.45.1h.22v.12a1.22,1.22,0,0,0,.56.68,1.39,1.39,0,0,0,.9,0c.11,0,.11,0,.11.1.11.34.33.56.56.56h.34v.12a1.41,1.41,0,0,0,.67.77h.78c.22,0,.45-.22.66-.33,0-.11,0-.11.13-.22h0l.1.11a1.26,1.26,0,0,0,.9,0h.11l.12.11a1.29,1.29,0,0,0,.55.56h.12v.12a.48.48,0,0,0,.1.34.45.45,0,0,0,.34.1c.23,0,.44-.1.44-.33v-.23h.13a1.76,1.76,0,0,0,.66-.9v-.33a1,1,0,0,0-.11-.55v-.13h0a.4.4,0,0,0,.23-.55A.34.34,0,0,0,323,58h-.11l.11-.11c0-.12.12-.23.12-.34a.45.45,0,0,0,.1-.34V57h.12a1.07,1.07,0,0,0,.56-.9.91.91,0,0,0-.23-.89v-.12h.11c.12,0,.23,0,.23-.1s.11-.12.11-.34a.34.34,0,0,0-.11-.22c0-.12-.11-.12-.23-.12h-.34a.1.1,0,0,0-.1-.11l-.22-.11V54a.73.73,0,0,0,.1-.44.66.66,0,0,0,0-.67v-.11l.12-.12a1.35,1.35,0,0,0,.56-.55v-.79c0-.11-.12-.23-.23-.34v-.1h.11a1.18,1.18,0,0,0,.46-.57v-.44c-.12-.12-.23-.33-.34-.45h0v-.11c.11-.11.11-.23.11-.44v-.13h.11a.37.37,0,0,0,.23-.1h.1v.1c0,.23,0,.46.23.57l.11.11v.12a.49.49,0,0,0,0,.55,1.41,1.41,0,0,0,.56.79c.11,0,.11,0,0,.1v.23a1.65,1.65,0,0,0,.45,1.23l.11.11h0a.9.9,0,0,0-.45.45,1.13,1.13,0,0,0,.34,1.12h.11v.11h0a.69.69,0,0,0,.34.89v.23a1.79,1.79,0,0,0,0,1.12h.11l-.11.11v.12l-.12-.12a.55.55,0,0,0-.67.22v.34a.59.59,0,0,0,.45.22h0v.23a1.6,1.6,0,0,0,.22.67v.11h0a2,2,0,0,0-.11.78,1.77,1.77,0,0,0,.34,1v.22c0,.11-.11.34,0,.46a.52.52,0,0,0,.56.55.33.33,0,0,0,.44,0c.23,0,.46-.21.56-.55h0c.12,0,.34-.12.45-.12s.12-.11.12,0,.21.23.33.23a.67.67,0,0,0,.78-.34v-.45c-.1-.11-.23-.22-.33-.34h0v-.1a.44.44,0,0,0,.1-.23v-.11l.13.11h.33v.11c.11.12.33.22.45.34h.45a.24.24,0,0,0,.21-.22H331l.34.33c.11,0,.11.11.21.11a.87.87,0,0,0,.57-.22v-.12h.11a.39.39,0,0,0,.34.12h.22c.33-.12.56-.34.56-.56a.53.53,0,0,0,0-.57v-.1h.11c.12.1.22,0,.33,0a.62.62,0,0,0,.34-.57V58l.12.1a1.27,1.27,0,0,0,.44.34H335c.22-.11.56-.34.56-.67.1,0,.1,0,.1-.11v-.11c.23-.11.34-.23.34-.45V57h.12a.41.41,0,0,0,.34-.12.11.11,0,0,0,.11-.11v-.33l-3.7-1.23-3.8-1.12V51.16l.11-.12a13.68,13.68,0,0,0,1.12-1.55,23.5,23.5,0,0,0,1.34-2.81,32.44,32.44,0,0,0,1.57-6.48V38.85a11.12,11.12,0,0,0-3.14-6.49A8.81,8.81,0,0,0,326.64,30a17.75,17.75,0,0,0-2.12-.44ZM310.31,57.09H310a3,3,0,0,0-.68.34c-2.13.78-2.91,1-3.13,1.12a3.61,3.61,0,0,0-1.68,2.58v4.12l3.13,3.25c1.68,1.79,3.14,3.25,3.14,3.25a.63.63,0,0,0,.44-.12.61.61,0,0,0,.56-.33h.79a1,1,0,0,0,.67-.67c.11-.11.11-.23.11-.44v-.12h.11a.56.56,0,0,0,.33.22h.34c.12.11.22,0,.34,0a1.2,1.2,0,0,0,.55-.56v-.67l.13-.11a.34.34,0,0,1,.21-.11l.12-.11h0c.11,0,.11.11.22.11h.56a.73.73,0,0,0,.22-1l-.11-.11a.11.11,0,0,0,.11-.11.52.52,0,0,0,.34-.46h.11a.7.7,0,0,0,.44.23c.12,0,.12,0,.12.11s-.12,0-.12.12c-.21.34.12.78.46.89a.67.67,0,0,0,.78-.78c0-.23-.12-.34-.34-.44l-.11-.13h.11a.71.71,0,0,0,.22-.44v-.45h.12a.4.4,0,0,0,.33-.11v.11l.12.23c.11,0,.11.11.21.11h.34l.23-.22a.36.36,0,0,0,0-.46c0-.1-.23-.21-.34-.21V65a.4.4,0,0,0,.34-.12.5.5,0,0,0,0-.55c-.11-.12-.23-.23-.34-.23h0a1,1,0,0,0-.44-.67l-.12-.12v-.22a.39.39,0,0,0-.11-.33,1.15,1.15,0,0,0-.44-.57,1.13,1.13,0,0,0-.56-.1,1.15,1.15,0,0,0-.57.1h-.1c.1,0,.1-.22.1-.33s-.44-.56-.67-.45h-.11v-.22a1.06,1.06,0,0,0-.33-.79c-.22-.11-.34-.22-.56-.33h-.34a.83.83,0,0,0-.44.11h-.12c0-.11-.22-.22-.34-.33l-.1-.12h-.12v-.33a.59.59,0,0,0-.34-.55h-.44v-.13c-.11-.21-.23-.44-.33-.67a1.07,1.07,0,0,0-.78-.33h-.46c0-.11-.11-.22-.22-.33s-.45,0-.55.11h-.13v-.11a.59.59,0,0,0-.55-.34Zm28.53.11h-.11c-.22,0-.34.23-.45.45h-.11a.53.53,0,0,0-.67.23.39.39,0,0,0-.11.33v.11h-.12a1.17,1.17,0,0,0-1.44.11,1,1,0,0,0-.35.67v.23h-.11a1.94,1.94,0,0,0-1.11.11c-.12.11-.34.45-.46.56a1.12,1.12,0,0,0-.21.79V61h-.12c-.22-.1-.45,0-.67.23h-.22a1.72,1.72,0,0,0-1,.11,1.86,1.86,0,0,0-.67.89v.23l-.11.11h-.33A.92.92,0,0,0,330,63a.36.36,0,0,0,0,.46v.11h-.11a.33.33,0,0,0-.44,0c-.13,0-.23.11-.34.23a.4.4,0,0,0-.23.56c0,.22,0,.33.11.44s.12.11,0,.11l-.22.12c0,.1-.12.1-.12.21v.34a.61.61,0,0,0,.9.12v-.12a.66.66,0,0,0,.45.12h.11v.11c0,.23,0,.33.12.44a.12.12,0,0,1-.12.12.38.38,0,0,1-.22.11.72.72,0,0,0,.22,1h.45a3.55,3.55,0,0,0,.33-.34v-.1l.12.1c.22,0,.45.13.67.13v.33a.43.43,0,0,0,.11.34h-.11c-.22,0-.33.11-.45.33v.22a.4.4,0,0,0,.12.34c.11,0,.21.11.33.11a.86.86,0,0,0,.45-.45v.11a1.21,1.21,0,0,0,.78.68c.11.1.22.1.45.1s.33-.1.44-.1l.12-.12v.12c.11.1.11.33.22.44s.33.23.45.23h.56c.11,0,.22-.11.33-.11v0A1.15,1.15,0,0,0,336.71,71h.45l.11-.12-.11.12a.76.76,0,0,0,.68,1,.85.85,0,0,0,.67-.22c.11-.12,1.56-1.46,3.24-3l3-2.81V61.23c-.11-.23-.11-.44-.23-.67a8,8,0,0,0-.88-1.23,6.3,6.3,0,0,0-1.8-1.12C341.64,58.09,338.84,57.2,338.84,57.2Zm-14.44.56h-.1c-.23,0-.34.12-.45.33v.46c.11.11.11.21.22.34h0a.54.54,0,0,0-.22.44v.11c.11.23.22.23.45.23s.22,0,.22-.12.22-.11.22-.22,0-.23-.11-.23V59l-.11-.1h.11c.11,0,.23-.13.34-.23s0-.11.11-.34-.11-.11-.11-.23-.11-.21-.34-.33h-.23Zm-.88,2.57h0c-.13,0-.23.11-.35.23v.34c.12.23.22.33.45.33s.11,0,.11-.1a.36.36,0,0,0,.34-.34c0-.12-.11-.23-.22-.35S323.62,60.33,323.52,60.33Zm-4,.46h0c-.23.11-.33.11-.33.21a.7.7,0,0,0-.11.45v.23a.73.73,0,0,0,1,.22.75.75,0,0,0-.12-1.11h-.45Zm7.16,1.11h-.23c-.21.11-.33.23-.33.33s.12.45.23.45.1.12.22.12h.11v.11a.92.92,0,0,0,.45.44.48.48,0,0,0,.56,0L328,63v-.33l-.12-.11a.79.79,0,0,0-.44-.44.45.45,0,0,0-.34.1h0l-.11-.1a.24.24,0,0,0-.22-.23ZM319.82,63h-.11c-.12.12-.23.23-.23.34a.59.59,0,0,0,.23.46h.44c0,.1.11.22.23.33a.51.51,0,0,0,.9-.23c.1,0,.1,0,.1-.22s0-.11-.1-.22-.12-.23-.23-.34h-.22c-.22,0-.34,0-.45.11h-.12a.43.43,0,0,0-.11-.23h-.33Zm8.28,3h0a1.28,1.28,0,0,0-.45.33v.56h-.11c-.11,0-.11.11-.23.21v.46l.23.22h.23a.41.41,0,0,0,.33-.11.42.42,0,0,0,.11-.34v-.1h.11a.68.68,0,0,0,.45-1.13c-.12,0-.23,0-.23-.1h-.44Zm-4.81.78h-.22l-.34.32v.57a.53.53,0,0,0,.89.11.49.49,0,0,0-.1-.89C323.39,66.83,323.39,66.83,323.29,66.83Zm-3.58.11h0c-.23,0-.33.11-.33.21v.46a.23.23,0,0,0,.21.22h.23a.39.39,0,0,0,.33-.11.55.55,0,0,0-.1-.78h-.34Zm.78,1.22c-.11,0-.11.12-.23.12s-.33.22-.44.45V69c0,.11,0,.11.11.22a.31.31,0,0,0,.12.22h0a1.33,1.33,0,0,0-.46-.1,1.43,1.43,0,0,0-.89.56h-.11c-.12-.12-.22-.23-.34-.23h-.56a1.19,1.19,0,0,0-.68.57v.1h-.1c-.11-.1-.22-.1-.45-.1a.74.74,0,0,0-.78.44,1,1,0,0,0-.11.56v.11h0A2.09,2.09,0,0,0,315,71h-.77a.82.82,0,0,0-.46.22,2.54,2.54,0,0,0-.44.56h-.11a.8.8,0,0,0-1,.11.61.61,0,0,0-.34.55v.35l5.47,5.7,5.82,5.82.12.23.1-.12.13-.11c.1-.11.1-.11.1-.23s0-.11-.1-.22a.12.12,0,0,0-.13-.11h0v-.11c.23-.11.34-.34.23-.45s-.23-.22-.23-.22l.13-.11a.46.46,0,0,0,.1-.34.43.43,0,0,0-.1-.33c0-.12-.13-.12-.23-.23h-.12l.12-.11a1.86,1.86,0,0,0,.56-2.23c-.12,0-.12-.13-.12-.13v-.1h0a1.09,1.09,0,0,0,.34-1.46.71.71,0,0,0-.45-.55h-.1l.1-.12c.11-.11.23-.22.23-.34a.85.85,0,0,0-.23-.55l-.1-.12h.1a.71.71,0,0,0-.1-.78c-.13-.22-.35-.22-.57-.22h-.11a1.27,1.27,0,0,0,.11-.91c-.11-.1-.11-.1,0-.1s.34-.22.44-.34a.57.57,0,0,0-.22-.89h-.1l.1-.11a1.33,1.33,0,0,0,.35-.9c-.13-.22-.13-.45-.23-.56s-.22-.34-.34-.34l.12-.1c0-.12.1-.23.1-.34s.12-.11.12-.34-.12-.33-.22-.56v-.11h0c.1-.11.22-.23.22-.33V69c0-.11-.12-.11-.22-.22h-.23a.43.43,0,0,0-.34.11h-.11c-.1-.11-.23-.23-.33-.23a.87.87,0,0,0-.9-.11h-.11c-.11-.11-.22-.22-.34-.22A.31.31,0,0,0,320.49,68.16Zm6.49.23h-.11a.8.8,0,0,0-.67.78v.34h0a.71.71,0,0,0-1,.34v.34c0,.1,0,.1.11.21s.23.23.33.34.12,0,0,.11v.34a.71.71,0,0,0,.34.89l.11.12-.11.1a1.5,1.5,0,0,0-.11.68,1,1,0,0,0,.34.78v.11h0c0,.23-.12.34-.12.57v.1h-.22v-.1c.11-.13.11-.23.11-.45a1.55,1.55,0,0,0-.22-.34l-.12-.11a.68.68,0,0,0-.77.11.67.67,0,0,0-.12.89h0v.11a.31.31,0,0,0-.34.34c-.1,0-.1.12-.1.23s0,.1.1.22a.52.52,0,0,0,.57.45h.11L325,76a1.59,1.59,0,0,0,0,1c0,.11.11.34.11.44s.22.23.33.23v.11h0l-.11.11A1.39,1.39,0,0,0,325,80l.11.11-.11.11c-.11.12-.23.22-.23.34a.84.84,0,0,0-.11.56v.33l.11.12h-.11a.85.85,0,0,0,.11.89v.11l-.11.11a.28.28,0,0,0,.11.45v.11h0a.42.42,0,0,0-.11.34c0,.11,0,.11-.11.11s-.12.11-.12.33,0,.12.12.12a.38.38,0,0,0,.11.22s1.12-1,6.26-5.71l6.16-5.7v-.11a.22.22,0,0,0,0-.34c0-.23-.22-.33-.44-.45a.4.4,0,0,0-.34.12h-.11A.42.42,0,0,1,336,72l-.34-.34a.83.83,0,0,0-.44-.11c-.22,0-.34,0-.45.11h-.11v-.11a1.2,1.2,0,0,0-1-1.12h-.44l-.12.12V70.4c0-.11-.22-.33-.33-.44a.69.69,0,0,0-.45-.11.72.72,0,0,0-.56.67v0c-.11-.12-.23-.23-.33-.23a.74.74,0,0,0-.45-.1h-.12l-.11-.12a1,1,0,0,0-.55-.9,1,1,0,0,0-.56-.11h-.22V69c0-.22-.13-.34-.34-.45a.76.76,0,0,0-.9.34h-.34c-.1,0-.1.11-.1.11a.11.11,0,0,0-.12-.11c0-.11-.11-.23-.22-.34A.7.7,0,0,0,327,68.39Zm-6.72,1.12h.12v0Zm4,1.46s-.11,0-.11.1-.12,0-.23.12a.66.66,0,0,0-.11.44l.11.12.11.11H324a.41.41,0,0,0-.11.34.62.62,0,0,0,.67.78.6.6,0,0,0,.56-.57.53.53,0,0,0-.22-.66h-.12v-.12a.11.11,0,0,0,.12-.11c0-.11,0-.11-.12-.22a.25.25,0,0,0-.22-.23C324.4,71.07,324.4,71,324.3,71Z"/><polygon class="e" points="188.69 56.86 230.86 99.05 273.16 56.75 230.97 14.57 188.69 56.86"/><polygon class="d" points="266.45 56.75 230.86 92.34 195.39 56.75 230.97 21.29 266.45 56.75"/><path class="f" d="M230.86,34.94h-.22a7.42,7.42,0,0,0-4.59,1.78,10.41,10.41,0,0,0-.67,1,1.65,1.65,0,0,0-.22.67v1.12c0,.11,2.91,19.58,2.91,19.92a1.56,1.56,0,0,0,.22.67,3.23,3.23,0,0,0,2.47,2h.88a3.2,3.2,0,0,0,2.69-2.69c.12-.45,2.91-19.81,2.91-20s.11-.23.11-.46a1.92,1.92,0,0,0-.11-.78,5,5,0,0,0-.55-1.12,3.94,3.94,0,0,0-1-.9,6.57,6.57,0,0,0-3-1.11,5.52,5.52,0,0,0-1.34-.11Zm.34,30H231a4.71,4.71,0,0,0-3,1.34,5.62,5.62,0,0,0-.56.79,7,7,0,0,0-.9,2.24v1.23a7.74,7.74,0,0,0,1.13,2.57c.11.22.45.45.67.67a3.31,3.31,0,0,0,1.79.89,2.84,2.84,0,0,0,2.24,0,4.32,4.32,0,0,0,2.79-1.89,6.33,6.33,0,0,0,.78-2.47V69.17a7.43,7.43,0,0,0-.44-1.56,5.05,5.05,0,0,0-3.58-2.69Z"/><path class="e" d="M117,35.79,95.88,56.93,117,78l21,21.16L159.2,78l21.16-21.14-21.16-21c-11.52-11.64-21-21.15-21-21.15S128.55,24.15,117,35.79Z"/><path class="d" d="M155.84,39.15l17.8,17.68-17.8,17.79-17.78,17.9-17.69-17.9L102.58,56.83l17.79-17.68c9.74-9.85,17.69-17.79,17.79-17.79S146.12,29.3,155.84,39.15Z"/><path class="f" d="M138.16,31.76c-2.68,5,.57,7.84-3,15.23-1.79-1.46-.78-7.06-4.47-7.16a5.52,5.52,0,0,1,.11,3c-.45,2.35-1.23,4.59.45,7.72-2.57-1.23-2.68-3.47-4.81-4.92.44,2.35-.57,7.27,2.24,12.08-2.58-.34-3.36-1.23-6.15-3.91,2.9,15,5,15.43,15.65,16.22a9.75,9.75,0,0,1-8-7.05c-.11-1.57-.22,1.34,4.93,1.34-3.25-5.15-2.36-4.14-2-7.16,1.34,2.13.22,2.24,4,3.81-1.23-3.81,1.79-6.49,1.23-10.86.78,1.9,3.8,1.57,3.69,10.86,2.47-2.81,2.69-.9,3.92-3.92.11,1.68.78,3.81-2.58,7.39.9.22,2.35.44,4.71-1.13-2.36,2.58-.23,2.58-6.05,6.83,7.27.12,12-4.48,11.86-14.55-.22.9-.45,2.57-4.37,3.14a10.18,10.18,0,0,0,1.8-11.3c-.67.66-1.68,3.68-4.25,4.48A9.83,9.83,0,0,0,148,47a10.4,10.4,0,0,0-1.9-6.61c-.68,4.58-.57,6.82-3.48,7.49.44-2.68.57-3.92-.89-6.94S138.62,34.68,138.16,31.76Zm-12,40.85v2.68H151.7V72.61H126.19Z"/></svg>