<svg xmlns="http://www.w3.org/2000/svg" viewBox="0 0 992.84 113.82"><defs><style>.a,.d{fill:#fff;}.a{stroke:#000;stroke-miterlimit:10;stroke-width:0.5px;}.a,.c,.d{fill-rule:evenodd;}.b,.c{fill:#473335;}</style></defs><title>BV011_C</title><polygon class="a" points="80.62 113.57 0.43 55.84 80.62 0.26 912.22 0.25 992.41 57.98 912.22 113.56 80.62 113.57"/><rect class="b" x="89.21" y="8.19" width="815.42" height="97.53"/><polygon class="c" points="911.45 8.19 980.47 56.96 911.45 105.72 911.45 8.19"/><polygon class="c" points="81.72 8.19 12.7 56.96 81.72 105.72 81.72 8.19"/><path class="d" d="M288.12,84.7h11.74V59.57h22.53V84.7h11.67v-57H322.32v22.6H299.86V27.68H288.19Zm57.1,4.61V98h8.21c9.57,0,11.8-7.49,12.67-10L381.72,43.8H370L361.85,69l-8.64-25.27H341.33L354,78.22a13.51,13.51,0,0,1,1.15,5.69c0,3.31-1.87,5.54-6.55,5.54Zm61.2-12.82c-5.19,0-9.72-3.67-9.72-12.31,0-9.79,4.75-13.1,9.21-13.1s9.36,3.31,9.36,12.74C415.27,73,410.52,76.49,406.42,76.49Zm8.71,4,.5,4.18h10.8v-57H415.35V48.41c-2-3.24-6.56-6-11.81-6-9.15,0-18.22,7.7-18.22,22a25,25,0,0,0,5.26,15.84,16,16,0,0,0,12.6,5.83A14.83,14.83,0,0,0,415.13,80.52Zm19.8,4.18H446V66.48c0-6.12,1.51-8.92,3.31-10.8a10,10,0,0,1,7.49-3.24,7.31,7.31,0,0,1,1.87.15l.07-9.72a18.13,18.13,0,0,0-2.37-.22,10.55,10.55,0,0,0-10.16,7.27l-.36-6.12h-10.8Zm53.21-21.53-.07,5.19c0,5.76-3.6,9.43-9.94,9.43-4.61,0-6.77-2.74-6.77-5.33,0-1.94.65-4.1,7.56-6l4.75-1.36A14.07,14.07,0,0,0,488.14,63.17Zm-.07,16.92a13.43,13.43,0,0,0,1.22,4.61h11.16a6.16,6.16,0,0,1-1.8-4.25V58c0-9.79-5-15.7-18.36-15.7-12.38,0-17.5,6.84-17.21,13.61l9.65.22c0-3,2.3-6,7.92-6,5.4,0,7.13,2.66,7.13,4.61,0,1.73-1,3.24-4,3.81l-6.2,1C468.48,61.23,466,63,464.31,64.4A11.58,11.58,0,0,0,460.49,73c0,6.77,5.33,12.89,15.7,12.89C482.16,85.85,485.76,83.76,488.07,80.09Zm45.36,0,.64,4.61h10.37V43.8H533.5V66.63c0,6.33-3.75,9.57-8.14,9.57-4.17,0-6.69-2.23-6.69-8V43.8h-11V71.88c0,5.48,1.58,8.36,4,10.66a14.87,14.87,0,0,0,10.23,3.53A13.1,13.1,0,0,0,533.43,80.09ZM553,84.7h11v-57H553.08Zm40.32-7.06c-5.18,0-10.3-4-10.3-13.24,0-9.65,4.83-13.54,10.3-13.54s10.37,3.89,10.37,13.25S598.73,77.64,593.33,77.64Zm.07,8.57c12.46,0,21.53-8.78,21.53-22.1,0-12.89-8.93-21.89-21.74-21.89-12.32,0-21.39,8.86-21.39,21.89C571.8,77.57,580.87,86.21,593.4,86.21Zm29.16-1.51h11v-57H622.71Zm23.62-47.09h11.16l-.15-9.93h-11Zm-6.91,51.48v9L647,98c6.91,0,10.37-3.31,10.37-10.73l-.15-43.49H646.25l-.07,38.81c0,5.76-1.66,6.55-4.39,6.55Zm53.2-25.92-.14,5.19c0,5.76-3.53,9.43-9.86,9.43-4.61,0-6.84-2.74-6.84-5.33,0-1.94.72-4.1,7.63-6l4.68-1.36A13.69,13.69,0,0,0,692.47,63.17Zm-.14,16.92a13.53,13.53,0,0,0,1.3,4.61h11.3a6,6,0,0,1-1.87-4.25V58c0-9.79-5-15.7-18.43-15.7-12.46,0-17.5,6.84-17.28,13.61l9.72.22c0-3,2.3-6,7.92-6,5.4,0,7.12,2.66,7.12,4.61,0,1.73-1,3.24-4,3.81l-6.19,1c-9.14,1.66-11.52,3.39-13.25,4.83A11.32,11.32,0,0,0,664.83,73c0,6.77,5.32,12.89,15.69,12.89C686.5,85.85,690,83.76,692.33,80.09Z"/></svg>