<svg xmlns="http://www.w3.org/2000/svg" viewBox="0 0 992.84 113.82"><defs><style>.a,.d{fill:#fff;}.a{stroke:#000;stroke-miterlimit:10;stroke-width:0.5px;}.a,.c,.d{fill-rule:evenodd;}.b,.c{fill:#473335;}</style></defs><title>BV012_C</title><polygon class="a" points="80.62 113.57 0.43 55.84 80.62 0.26 912.22 0.25 992.41 57.98 912.22 113.56 80.62 113.57"/><rect class="b" x="89.21" y="8.19" width="815.42" height="97.53"/><polygon class="c" points="911.45 8.19 980.47 56.96 911.45 105.72 911.45 8.19"/><polygon class="c" points="81.72 8.19 12.7 56.96 81.72 105.72 81.72 8.19"/><path class="d" d="M266,84.7h11.73V64l5.84-6.12L302,84.7h14.4L292,50.28l21.53-22.6-14.62.14L277.75,50.36l-.14-22.54L266,27.68Zm60.77-45.86h11.08V27.68H326.79Zm14.4,0h11.08V27.68H341.19Zm-1.52,38.8c-5.76,0-10.58-4-10.58-13.53,0-9.22,5-13.39,10.51-13.39s10.23,3.67,10.23,13.68C349.83,74.12,344.64,77.64,339.67,77.64Zm-.57,8.64c13.17,0,22-8.85,22-22.17s-9-22-21.74-22c-12.39,0-21.6,8.85-21.6,22S327,86.28,339.1,86.28ZM368,84.7h11v-57H368.11Zm39.82-8.21c-5.19,0-9.79-3.67-9.79-12.31,0-9.79,4.89-13.1,9.36-13.1s9.36,3.31,9.36,12.74C416.79,73,411.89,76.49,407.86,76.49Zm8.64,4,.5,4.18H428v-57H416.86V48.41c-2.09-3.24-6.7-6-11.88-6-9.22,0-18.15,7.7-18.15,22a24.64,24.64,0,0,0,5.26,15.84,15.58,15.58,0,0,0,12.46,5.83A14.64,14.64,0,0,0,416.5,80.52Zm19.94,4.18h11.09V61.08c0-6,3.31-8.85,7.7-8.85a5.47,5.47,0,0,1,5.55,3.45,15.63,15.63,0,0,1,.43,4.47V84.7h10.94V60.36c0-5.25,3.24-8.28,7.56-8.28,3.82,0,6.27,2.24,6.27,7.06V84.7h10.8L496.71,56c-.15-8.64-5.55-13.6-13-13.6a13.77,13.77,0,0,0-12.6,7.12,13.52,13.52,0,0,0-12-7.12c-5.54,0-9.36,2.44-11.45,6.55l-.36-5.19-10.65-.07Zm79-25.49c.72-4.89,4.75-8.35,9-8.35,4.46,0,8.28,3.1,9.07,8.35ZM515,67.28h30.39c0-12-5.55-25-20.74-25-15.77,0-20.59,12.46-20.59,21.82,0,13.68,9,22.1,20.52,22.1S543,80,544.59,72.82L533.5,72c-2,3.81-4.9,5.4-8.5,5.4C519.82,77.43,515.57,73.9,515,67.28Zm58.25,9.21c-5.18,0-9.79-3.67-9.79-12.31,0-9.79,4.9-13.1,9.36-13.1,4.61,0,9.29,3.31,9.29,12.74C582.1,73,577.27,76.49,573.24,76.49Zm8.64,4,.51,4.18h10.94v-57H582.24V48.41c-2.09-3.24-6.69-6-11.88-6-9.21,0-18.14,7.7-18.14,22a24.64,24.64,0,0,0,5.25,15.84,15.61,15.61,0,0,0,12.46,5.83A14.64,14.64,0,0,0,581.88,80.52Zm20-42.91h11.08V27.68H601.83Zm0,47.09h11.08v-41H601.83Zm45.28-4.61.58,4.61h10.44l-.07-40.9H647.11V66.63c0,6.33-3.74,9.57-8.2,9.57-4,0-6.56-2.23-6.56-8V43.8H621.27V71.88c0,5.48,1.51,8.36,4,10.66a14.92,14.92,0,0,0,10.29,3.53A13.09,13.09,0,0,0,647.11,80.09ZM666.7,84.7h11V61.08c0-6,3.32-8.85,7.71-8.85,3,0,4.75,1.37,5.54,3.45.15.36.43,1.3.43,4.47V84.7h11V60.36c0-5.25,3.24-8.28,7.63-8.28,3.82,0,6.19,2.24,6.19,7.06V84.7h11L727,56c-.21-8.64-5.68-13.6-13.17-13.6a13.73,13.73,0,0,0-12.53,7.12,13.65,13.65,0,0,0-12.1-7.12c-5.54,0-9.28,2.44-11.37,6.55l-.36-5.19-10.73-.07Z"/></svg>