<svg xmlns="http://www.w3.org/2000/svg" viewBox="0 0 992.84 113.82"><defs><style>.a,.d{fill:#fff;}.a{stroke:#000;stroke-miterlimit:10;stroke-width:0.5px;}.a,.c,.d,.e,.f{fill-rule:evenodd;}.b,.c{fill:#473335;}.e{fill:#ac322d;}.f{fill:#000b0d;}</style></defs><title>BV013_C</title><polygon class="a" points="80.62 113.57 0.43 55.84 80.62 0.26 912.22 0.25 992.41 57.98 912.22 113.56 80.62 113.57"/><rect class="b" x="89.07" y="8.19" width="815.42" height="97.53"/><polygon class="c" points="911.45 8.19 980.47 56.96 911.45 105.72 911.45 8.19"/><polygon class="c" points="81.72 8.19 12.7 56.96 81.72 105.72 81.72 8.19"/><path class="d" d="M493.11,67.56h8.64V35l9.57,32.61h9.07L530,35V67.56h8.86l-.15-45.28H525.22l-9.29,33-9.36-33H493.11ZM553.87,47.4a7.52,7.52,0,0,1,7.2-6.69c3.53,0,6.63,2.45,7.2,6.69Zm-.28,6.34h24.19c0-9.65-4.39-19.94-16.49-19.94-12.6,0-16.34,10-16.34,17.42,0,10.8,7.12,17.5,16.2,17.5s14.61-5,16.05-10.59l-8.78-.57c-1.73,2.95-4,4.24-6.77,4.24C557.47,61.8,554,58.92,553.59,53.74Zm47.52,13.82V60.87h-3.24a3.39,3.39,0,0,1-2.52-1.23,5.45,5.45,0,0,1-.44-2.59V41h6V35H595l-.08-10.23h-8.78V35h-4.46v6h4.6V57.77c0,7.35,3,9.79,7.85,9.79Zm27.57-17.13v4.1c0,4.61-2.88,7.49-8,7.49-3.67,0-5.4-2.16-5.4-4.1,0-1.66.58-3.24,6.12-4.9l3.67-1A9.49,9.49,0,0,0,628.68,50.43Zm0,13.46a7.3,7.3,0,0,0,1,3.67h8.86A5.57,5.57,0,0,1,637,64.25l.15-17.85c0-7.85-4.18-12.6-14.76-12.6-9.79,0-13.83,5.47-13.61,10.94l7.63.14c0-2.44,1.87-4.75,6.19-4.75s5.76,2.09,5.76,3.67c0,1.3-.79,2.6-3.16,2.88l-5,.94c-7.27,1.3-9,2.66-10.37,3.82a9,9,0,0,0-3,6.76c0,5.48,4.17,10.3,12.31,10.3C623.93,68.5,626.67,66.84,628.68,63.89ZM645,67.56h8.71V49.35c0-2.67.57-3.82,1.29-4.83a6.85,6.85,0,0,1,5.26-2.73c3,0,5.18,2,5.18,5.61V67.56h8.79V44.67c0-6.12-4.47-10.87-11.16-10.87-4.75,0-8,2.59-9.15,5.11l-.28-3.82L645,35ZM697.37,62c-4.1,0-8.14-3.17-8.14-10.37,0-7.85,3.89-10.94,8.14-10.94s8.35,3.09,8.35,10.58S701.69,62,697.37,62Zm.14,6.77c9.94,0,17.07-6.92,17.07-17.5,0-10.22-7.06-17.42-17.21-17.42-9.86,0-17,7.05-17,17.42C680.38,62,687.65,68.72,697.51,68.72Zm23.26-1.16h8.78V22.28h-8.78Z"/><path class="d" d="M578.58,96.36h4V88.19H591V85h-8.42V80.38h9.89V77.14H578.58Zm18.3-7.07L599.5,81l2.51,8.3Zm-6.28,7.07h4l1.28-4h7l1.22,4h4.09l-6.59-19.22h-4.27Zm22.94-10.67V80.38H618a2.46,2.46,0,0,1,1.77.43A2.74,2.74,0,0,1,621,83.06c0,1.47-1.16,2.69-3.17,2.69Zm-3.91,10.67h3.91l.06-7.56h3.48A3.28,3.28,0,0,1,620,90.38a3.93,3.93,0,0,1,.37,1.22c.37,1.59,0,3.3.73,4.76h4a5.25,5.25,0,0,1-.61-2L624.21,91a3.58,3.58,0,0,0-1-2.56,4.17,4.17,0,0,0-2.56-1.16,4.58,4.58,0,0,0,4.21-4.76c0-3-2.38-5.55-6.47-5.37h-8.73Zm23.25-7.07L635.5,81l2.5,8.3Zm-6.29,7.07h4l1.28-4h7l1.22,4h4.09l-6.59-19.22h-4.27Z"/><path class="e" d="M302.92,35.79,281.78,56.93l21.14,21,21,21.16L345.1,78l21.16-21.14-21.16-21c-11.51-11.64-21-21.15-21-21.15S314.45,24.15,302.92,35.79Z"/><path class="d" d="M341.75,39.15l17.79,17.68L341.75,74.72,324,92.52l-17.68-17.9-17.8-17.79,17.8-17.68C316,29.3,324,21.36,324.07,21.36S332,29.3,341.75,39.15Z"/><path class="f" d="M324.19,29.63h-.34a10.72,10.72,0,0,0-3.36.9,9.25,9.25,0,0,0-2.91,2.24A8.48,8.48,0,0,0,315.79,36a10.75,10.75,0,0,0-.45,5.49,20.93,20.93,0,0,0,1.57,5.7,15.63,15.63,0,0,0,.67,1.46,15.91,15.91,0,0,0,1.34,2l.12.11c0,.12-.34,3.14-.34,3.14s-1.46.56-3.36,1.23S312,56.38,312,56.38h-.11v.11a1.2,1.2,0,0,0,.89.89h.56v.12a1.16,1.16,0,0,0,.67.56c.11.1.23.1.45.1h.22v.13a1.19,1.19,0,0,0,.56.67,1.27,1.27,0,0,0,.9,0c.11,0,.11,0,.11.11.11.33.33.55.56.55h.34v.12a1.38,1.38,0,0,0,.67.77h.78c.22,0,.45-.21.66-.33,0-.11,0-.11.13-.22h0l.1.11a1.26,1.26,0,0,0,.9,0h.11l.12.11a1.29,1.29,0,0,0,.55.56h.12v.12a.46.46,0,0,0,.1.34.45.45,0,0,0,.34.1c.23,0,.44-.1.44-.33v-.23h.13a1.77,1.77,0,0,0,.66-.89v-.34a1,1,0,0,0-.11-.55v-.12h0a.41.41,0,0,0,.23-.55.35.35,0,0,0-.12-.23h-.11L323,58c0-.12.12-.23.12-.34a.45.45,0,0,0,.1-.34v-.22h.12a1.07,1.07,0,0,0,.56-.9.91.91,0,0,0-.23-.89v-.11h.11c.12,0,.23,0,.23-.11s.11-.12.11-.34a.34.34,0,0,0-.11-.22c0-.12-.11-.12-.23-.12h-.34a.1.1,0,0,0-.1-.11l-.22-.11V54a.7.7,0,0,0,.1-.44.66.66,0,0,0,0-.67V52.8l.12-.11a1.44,1.44,0,0,0,.56-.56v-.79c0-.11-.12-.23-.23-.34v-.1h.11a1.18,1.18,0,0,0,.46-.57v-.44c-.12-.12-.23-.33-.34-.45h0v-.11c.11-.11.11-.23.11-.44v-.12h.11a.35.35,0,0,0,.23-.11h.1v.11c0,.22,0,.45.23.56l.11.11v.12a.49.49,0,0,0,0,.55,1.37,1.37,0,0,0,.56.79c.11,0,.11,0,0,.1v.23a1.65,1.65,0,0,0,.45,1.23l.11.11h0a.94.94,0,0,0-.45.45,1.13,1.13,0,0,0,.34,1.12h.11v.11h0a.71.71,0,0,0,.34.9v.22a1.79,1.79,0,0,0,0,1.12h.11l-.11.11v.12l-.12-.12a.54.54,0,0,0-.67.23v.33a.59.59,0,0,0,.45.22h0v.23a1.69,1.69,0,0,0,.22.68v.1h0a2,2,0,0,0-.11.78,1.75,1.75,0,0,0,.34,1v.22c0,.11-.11.34,0,.46a.52.52,0,0,0,.56.55.31.31,0,0,0,.44,0c.23,0,.46-.21.56-.55h0c.12,0,.34-.12.45-.12s.12-.11.12,0,.21.23.33.23.55,0,.78-.34v-.45c-.1-.11-.23-.22-.33-.33h0v-.11a.44.44,0,0,0,.1-.23V59.4l.13.11h.33v.11c.11.12.33.23.45.34h.45a.24.24,0,0,0,.21-.22H331l.34.33c.11,0,.11.11.21.11a.87.87,0,0,0,.57-.22v-.11h.11a.41.41,0,0,0,.34.11h.22c.33-.11.56-.34.56-.56a.51.51,0,0,0,0-.56v-.11h.11c.12.11.22,0,.33,0a.62.62,0,0,0,.34-.57v-.1l.12.1a1.16,1.16,0,0,0,.44.34H335c.22-.11.56-.34.56-.67.1,0,.1,0,.1-.11v-.11c.23-.11.34-.23.34-.45v-.11h.12a.41.41,0,0,0,.34-.12s.11,0,.11-.1v-.34l-3.7-1.23-3.8-1.12V51.23l.11-.12a13.68,13.68,0,0,0,1.12-1.55,24.1,24.1,0,0,0,1.34-2.8,32.69,32.69,0,0,0,1.57-6.49V38.92a11.09,11.09,0,0,0-3.14-6.48,8.61,8.61,0,0,0-3.47-2.36,16,16,0,0,0-2.12-.45ZM310.31,57.16H310a3,3,0,0,0-.68.34c-2.13.79-2.91,1-3.13,1.12a3.61,3.61,0,0,0-1.68,2.58v4.12l3.13,3.25c1.68,1.8,3.14,3.25,3.14,3.25a.63.63,0,0,0,.44-.12.6.6,0,0,0,.56-.32h.79a1,1,0,0,0,.67-.68c.11-.1.11-.23.11-.44v-.12h.11c.11.12.23.23.33.23h.34c.12.1.22,0,.34,0a1.26,1.26,0,0,0,.55-.57v-.66l.13-.12a.34.34,0,0,1,.21-.11l.12-.11h0c.11,0,.11.11.22.11h.56a.73.73,0,0,0,.22-1l-.11-.11a.11.11,0,0,0,.11-.11.5.5,0,0,0,.34-.45h.11a.76.76,0,0,0,.44.23c.12,0,.12,0,.12.1s-.12,0-.12.12c-.21.34.12.78.46.89a.66.66,0,0,0,.78-.78c0-.23-.12-.33-.34-.44l-.11-.12h.11a.76.76,0,0,0,.22-.45v-.45h.12a.43.43,0,0,0,.33-.1v.1l.12.23c.11,0,.11.12.21.12h.34l.23-.23a.35.35,0,0,0,0-.45c0-.11-.23-.22-.34-.22v-.67a.4.4,0,0,0,.34-.12.5.5,0,0,0,0-.55c-.11-.12-.23-.23-.34-.23h0a1,1,0,0,0-.44-.67l-.12-.12v-.21a.41.41,0,0,0-.11-.34,1.08,1.08,0,0,0-.44-.56,1,1,0,0,0-.56-.11,1.06,1.06,0,0,0-.57.11h-.1c.1,0,.1-.23.1-.34s-.44-.56-.67-.44h-.11V61.3a1.06,1.06,0,0,0-.33-.79c-.22-.11-.34-.21-.56-.33h-.34a.78.78,0,0,0-.44.12h-.12c0-.12-.22-.23-.34-.34l-.1-.11h-.12v-.34a.6.6,0,0,0-.34-.55h-.44v-.12c-.11-.22-.23-.45-.33-.68a1.07,1.07,0,0,0-.78-.33h-.46c0-.11-.11-.22-.22-.33s-.45,0-.55.11h-.13V57.5a.59.59,0,0,0-.55-.34Zm28.53.11h-.11c-.22,0-.34.23-.45.45h-.11a.53.53,0,0,0-.67.23.4.4,0,0,0-.11.34v.1h-.12a1.17,1.17,0,0,0-1.44.11,1,1,0,0,0-.35.67v.23h-.11a1.94,1.94,0,0,0-1.11.11c-.12.11-.34.45-.46.56a1.13,1.13,0,0,0-.21.79v.22h-.12c-.22-.11-.45,0-.67.22h-.22a1.72,1.72,0,0,0-1,.11,1.84,1.84,0,0,0-.67.9v.22l-.11.11h-.33a.9.9,0,0,0-.45.45.35.35,0,0,0,0,.45v.11h-.11a.33.33,0,0,0-.44,0c-.13,0-.23.11-.34.23a.41.41,0,0,0-.23.56c0,.22,0,.33.11.44s.12.11,0,.11l-.22.12c0,.11-.12.11-.12.21v.34a.6.6,0,0,0,.9.12v-.12a.66.66,0,0,0,.45.12h.11v.11c0,.23,0,.34.12.44a.12.12,0,0,1-.12.12.38.38,0,0,1-.22.11.72.72,0,0,0,.22,1h.45a3.43,3.43,0,0,0,.33-.33v-.11l.12.11c.22,0,.45.12.67.12v.33a.43.43,0,0,0,.11.34h-.11c-.22,0-.33.11-.45.34v.21a.39.39,0,0,0,.12.34c.11,0,.21.11.33.11a.86.86,0,0,0,.45-.45v.12a1.22,1.22,0,0,0,.78.67c.11.11.22.11.45.11s.33-.11.44-.11l.12-.12v.12c.11.11.11.33.22.44s.33.23.45.23h.56c.11,0,.22-.11.33-.11v0A1.15,1.15,0,0,0,336.71,71h.45l.11-.12-.11.12a.76.76,0,0,0,.68,1,.85.85,0,0,0,.67-.22c.11-.12,1.56-1.45,3.24-3l3-2.8V61.3c-.11-.22-.11-.44-.23-.67a8.53,8.53,0,0,0-.88-1.23,6.05,6.05,0,0,0-1.8-1.11C341.64,58.16,338.84,57.27,338.84,57.27Zm-14.44.56h-.1c-.23,0-.34.12-.45.33v.46c.11.11.11.22.22.34h0a.56.56,0,0,0-.22.44v.11c.11.23.22.23.45.23s.22,0,.22-.12.22-.11.22-.22,0-.23-.11-.23v-.1l-.11-.11h.11c.11,0,.23-.12.34-.23s0-.11.11-.34-.11-.1-.11-.23-.11-.21-.34-.33h-.23Zm-.88,2.57h0c-.13,0-.23.11-.35.23V61c.12.23.22.33.45.33s.11,0,.11-.1a.36.36,0,0,0,.34-.34c0-.12-.11-.23-.22-.35S323.62,60.4,323.52,60.4Zm-4,.46h0c-.23.11-.33.11-.33.22a.67.67,0,0,0-.11.45v.22a.73.73,0,0,0,1,.22.75.75,0,0,0-.12-1.11h-.45ZM326.64,62h-.23c-.21.11-.33.23-.33.34s.12.44.23.44.1.12.22.12h.11V63a.88.88,0,0,0,.45.44.48.48,0,0,0,.56,0l.34-.33v-.34l-.12-.11a.82.82,0,0,0-.44-.44.42.42,0,0,0-.34.11h0L327,62.2a.24.24,0,0,0-.22-.23Zm-6.82,1.12h-.11c-.12.12-.23.22-.23.33a.59.59,0,0,0,.23.46h.44c0,.11.11.22.23.33a.51.51,0,0,0,.9-.22c.1,0,.1,0,.1-.23s0-.11-.1-.22-.12-.23-.23-.33h-.22c-.22,0-.34,0-.45.1h-.12a.43.43,0,0,0-.11-.22h-.33Zm8.28,3h0a1.42,1.42,0,0,0-.45.33V67h-.11c-.11,0-.11.11-.23.22v.45l.23.22h.23a.39.39,0,0,0,.44-.44v-.11h.11a.67.67,0,0,0,.45-1.12c-.12,0-.23,0-.23-.11h-.44Zm-4.81.78h-.22l-.34.33v.56c.22.34.66.45.89.11a.49.49,0,0,0-.1-.89C323.39,66.9,323.39,66.9,323.29,66.9Zm-3.58.11h0c-.23,0-.33.11-.33.22v.45a.23.23,0,0,0,.21.22h.23a.39.39,0,0,0,.33-.11.55.55,0,0,0-.1-.78h-.34Zm.78,1.23c-.11,0-.11.12-.23.12s-.33.21-.44.44V69c0,.12,0,.12.11.22a.34.34,0,0,0,.12.23h0a1.23,1.23,0,0,0-.46-.11,1.47,1.47,0,0,0-.89.56h-.11c-.12-.12-.22-.23-.34-.23h-.56a1.19,1.19,0,0,0-.68.57v.11h-.1c-.11-.11-.22-.11-.45-.11a.75.75,0,0,0-.78.44,1,1,0,0,0-.11.56v.12h0A2.08,2.08,0,0,0,315,71h-.77a.89.89,0,0,0-.46.22,3.12,3.12,0,0,0-.44.56h-.11a.82.82,0,0,0-1,.11.61.61,0,0,0-.34.55v.35l5.47,5.7,5.82,5.82.12.23.1-.12.13-.11c.1-.11.1-.11.1-.23s0-.11-.1-.21a.12.12,0,0,0-.13-.12h0v-.11c.23-.11.34-.34.23-.45s-.23-.22-.23-.22l.13-.11a.45.45,0,0,0,.1-.34.43.43,0,0,0-.1-.33c0-.12-.13-.12-.23-.23h-.12l.12-.1a1.88,1.88,0,0,0,.56-2.24.12.12,0,0,1-.12-.12v-.11h0a1.09,1.09,0,0,0,.34-1.46.74.74,0,0,0-.45-.55h-.1l.1-.12c.11-.11.23-.22.23-.34a.87.87,0,0,0-.23-.55l-.1-.11h.1a.71.71,0,0,0-.1-.78c-.13-.23-.35-.23-.57-.23h-.11a1.25,1.25,0,0,0,.11-.9c-.11-.11-.11-.11,0-.11s.34-.22.44-.34a.57.57,0,0,0-.22-.89h-.1l.1-.11a1.31,1.31,0,0,0,.35-.9c-.13-.22-.13-.44-.23-.56s-.22-.33-.34-.33l.12-.11c0-.12.1-.23.1-.34s.12-.1.12-.33-.12-.34-.22-.57v-.11h0c.1-.11.22-.22.22-.33V69c0-.11-.12-.11-.22-.22h-.23a.43.43,0,0,0-.34.11h-.11c-.1-.11-.23-.22-.33-.22a.85.85,0,0,0-.9-.12h-.11a.55.55,0,0,0-.34-.21A.31.31,0,0,0,320.49,68.24Zm6.49.22h-.11a.8.8,0,0,0-.67.78v.34h0a.71.71,0,0,0-1,.34v.34c0,.11,0,.11.11.21s.23.23.33.34.12,0,0,.11v.34a.71.71,0,0,0,.34.89l.11.12-.11.11a1.46,1.46,0,0,0-.11.67,1,1,0,0,0,.34.79v.1h0c0,.23-.12.34-.12.57v.11h-.22v-.11c.11-.12.11-.23.11-.45a1.84,1.84,0,0,0-.22-.34l-.12-.11a.7.7,0,0,0-.89,1h0v.1a.31.31,0,0,0-.34.34c-.1,0-.1.12-.1.23s0,.1.1.23A.52.52,0,0,0,325,76h.11l-.11.11a1.59,1.59,0,0,0,0,1c0,.11.11.34.11.45s.22.23.33.23v.1h0l-.11.11A1.39,1.39,0,0,0,325,80.1l.11.11-.11.11c-.11.12-.23.22-.23.34a.84.84,0,0,0-.11.56v.33l.11.12h-.11a.85.85,0,0,0,.11.89v.12l-.11.1a.28.28,0,0,0,.11.45v.11h0a.43.43,0,0,0-.11.34c0,.11,0,.11-.11.11s-.12.12-.12.33,0,.12.12.12a.38.38,0,0,0,.11.22s1.12-1,6.26-5.7l6.16-5.71v-.11a.21.21,0,0,0,0-.33c0-.23-.22-.34-.44-.46a.4.4,0,0,0-.34.12h-.11A.42.42,0,0,1,336,72l-.34-.34a.9.9,0,0,0-.44-.1c-.22,0-.34,0-.45.1h-.11v-.1a1.21,1.21,0,0,0-1-1.13h-.44l-.12.13v-.13c0-.1-.22-.33-.33-.44a.69.69,0,0,0-.45-.11.72.72,0,0,0-.56.68v0a.54.54,0,0,0-.33-.23.69.69,0,0,0-.45-.11h-.12l-.11-.12a1,1,0,0,0-.55-.9,1.13,1.13,0,0,0-.56-.1h-.22V69c0-.22-.13-.33-.34-.45a.76.76,0,0,0-.9.34h-.34c-.1,0-.1.11-.1.11a.11.11,0,0,0-.12-.11c0-.11-.11-.22-.22-.34A.7.7,0,0,0,327,68.46Zm-6.72,1.12h.12v0Zm4,1.46a.11.11,0,0,0-.11.11c-.12,0-.12,0-.23.11a.69.69,0,0,0-.11.44l.11.12.11.11H324a.41.41,0,0,0-.11.34.62.62,0,0,0,.67.78.6.6,0,0,0,.56-.57.53.53,0,0,0-.22-.66h-.12V71.7a.11.11,0,0,0,.12-.1c0-.12,0-.12-.12-.22a.24.24,0,0,0-.22-.23C324.4,71.15,324.4,71,324.3,71Z"/><path class="e" d="M209.83,35.86,188.69,57l21.14,21,21,21.16L252,78,273.16,56.9,252,35.86c-11.52-11.63-21-21.15-21-21.15S221.36,24.23,209.83,35.86Z"/><path class="d" d="M248.65,39.22l17.8,17.68-17.8,17.79-17.79,17.9-17.68-17.9L195.39,56.9l17.79-17.68c9.74-9.85,17.68-17.79,17.79-17.79S238.92,29.37,248.65,39.22Z"/><path class="f" d="M231.41,33.41c4,0,5.92,1.85,8.13,3.8l1.06,1,.44.35c1.77,1.51,3,2.66,3,3.89a9,9,0,0,1-2.12,5l-.18.36a17,17,0,0,1,.36,2.73,3.79,3.79,0,0,1-1.77,3.19c1.41-.63,3.09-1.42,3.71-1.69A8.19,8.19,0,0,0,246,50l.18-.35a3.58,3.58,0,0,1,2.83-1.5,1.88,1.88,0,0,1,1.32.62,2.41,2.41,0,0,1,.71,1.94,2.61,2.61,0,0,1,1.32,2V54a1.83,1.83,0,0,1-1.85,1.94,4.21,4.21,0,0,1-1.86-.53,7.37,7.37,0,0,0-1.06-.44h-.17a2.72,2.72,0,0,0-1.24.27c-.09,0-6,3-7.42,3.79a.33.33,0,0,0-.09.27c2.12,1,5.74,2.73,6.19,2.91l.43.18c.18.09.18.17.8.17a3.57,3.57,0,0,0,1.06-.35,6.34,6.34,0,0,1,2.21-.44c1.23,0,3.09.88,3.09,2.29,0,1.24-.8,1.59-2.12,2.21l-.53.27c-.18.71-.26,1.32-.36,1.59A2.33,2.33,0,0,1,247.13,70a3,3,0,0,1-2.65-2.3,2.76,2.76,0,0,0-1.67-2.29l-6.46-3.18a7.74,7.74,0,0,1-1.4,1h-.1a9.49,9.49,0,0,1-3.26,1.24,12.38,12.38,0,0,1-3.89-1.24,12.65,12.65,0,0,1-1.14-.7l-5.3,2.47-.88.44a2.49,2.49,0,0,0-1.59,2.29,3.27,3.27,0,0,1-2.74,2.3,2.35,2.35,0,0,1-2.3-1.85c-.09-.27-.18-.88-.36-1.59l-.52-.27c-1.33-.62-2.12-1-2.12-2.21,0-1.41,1.85-2.29,3.18-2.29a6.29,6.29,0,0,1,2.12.44,3.26,3.26,0,0,0,1.14.35,1,1,0,0,0,.71-.17l.44-.18c.45-.18,3.62-1.68,5.74-2.74a2.49,2.49,0,0,1-.17-.79c-2.13-1.06-6.8-3.44-6.8-3.44a3.26,3.26,0,0,0-1.33-.27h-.18a4.82,4.82,0,0,0-1,.44,5,5,0,0,1-1.94.53A1.85,1.85,0,0,1,210.83,54V52.75a2.85,2.85,0,0,1,1.33-2,2.76,2.76,0,0,1,.71-1.94,1.88,1.88,0,0,1,1.33-.62,3.57,3.57,0,0,1,2.82,1.5l.27.35a6.44,6.44,0,0,0,1.85,2c.44.18,1.5.71,2.64,1.24a3.45,3.45,0,0,1-1.23-2.64c0-.8.18-2,.26-2.92l-.17-.27c-.89-1.32-2.12-3.09-2.12-5,0-1.23,1.23-2.29,2.91-3.89l.62-.43A12.47,12.47,0,0,1,223.2,37a13.37,13.37,0,0,1,2.56-2.12A12.46,12.46,0,0,1,231.41,33.41Zm0,1.33a9.84,9.84,0,0,0-5,1.23,8.4,8.4,0,0,0-2.3,1.86c-.44.35-.79.8-1.24,1.15l-.53.53c-1.32,1.15-2.56,2.29-2.56,2.91a6.09,6.09,0,0,0,1,2.92,1.71,1.71,0,0,1-.09-.89V44.1a4.06,4.06,0,0,1,1.77-3.54.54.54,0,0,1,.61,0c.18.18.18.27.36.36s-.09.44-.18.53a3,3,0,0,0-1.32,2.65v.35c0,.36.53,2.47.53,3.1a17,17,0,0,0-.36,3c0,1.68.79,2,2,2.83l.36.18c.53.35,1,.61,1.32.88,1.32.7,2,1.15,2,2.47a2.79,2.79,0,0,0-.09.8c.09.44,2,1.59,3.71,1.59S235,58.14,235,57.7v-.8c0-1.41.7-1.77,2-2.56l1.32-.79.35-.18c1.24-.8,2.12-1.33,2.12-2.83a16.67,16.67,0,0,0-.35-3.09l-.09-.08.35-1.68a5.43,5.43,0,0,0,.27-1.77c0-.79-.09-1.15-1.33-2.47l.89-.79c1.32,1.41,1.67,1.94,1.67,3.26v.89a5.91,5.91,0,0,0,.63-2.39c0-.7-1.24-1.76-2.56-2.91l-.45-.45-1.15-1C236.53,36.15,234.85,34.74,231.41,34.74Zm-7.33,12.81H228c.45,0,1.51.35,1.51,1.05a2.55,2.55,0,0,1-.62,1.24c-.71,1-1.24,1.94-2.65,1.94-2.12,0-3-2.56-3-3.27A.9.9,0,0,1,224.08,47.55Zm10.51,0h4a.94.94,0,0,1,.88,1c0,.71-.88,3.27-3,3.27-1.42,0-2-1-2.66-1.94a2.6,2.6,0,0,1-.61-1.24C233.18,47.9,234.24,47.55,234.59,47.55ZM214.2,49.48a1.83,1.83,0,0,0-.45.09c-.44.44-.36,1.68-.36,2.57v.7a.6.6,0,0,1-.61.62.67.67,0,0,1-.62-.62V54c0,.35.09.71.53.71a3,3,0,0,0,1.33-.45,4.23,4.23,0,0,1,1.58-.52h.09a5.26,5.26,0,0,1,1.95.35h0l6.18,3.18V55.58c-1.41-.71-4.42-2-5.21-2.48a7.59,7.59,0,0,1-2.38-2.38l-.18-.35A2.35,2.35,0,0,0,214.2,49.48Zm34.79,0a2.49,2.49,0,0,0-1.86.89l-.18.35a6.75,6.75,0,0,1-2.38,2.38c-1,.53-4.77,2.3-5.83,2.74v1.77l6.8-3.53h.09a4.6,4.6,0,0,1,1.85-.35h.09a3.82,3.82,0,0,1,1.59.52,2.88,2.88,0,0,0,1.33.45.63.63,0,0,0,.61-.71V52.75a.29.29,0,0,1-.08-.18v.27a.61.61,0,0,1-.63.62.6.6,0,0,1-.61-.62v-.7c0-.89.09-2.13-.36-2.57A1.6,1.6,0,0,0,249,49.48Zm-17.31,2.74c1.14,0,1.58,2,1.76,2.56s.71.8.71,1.24a1,1,0,0,1-1.06.88c-.88,0-.71-.44-1.41-.44s-.45.44-1.42.44-1.06-.61-1.06-.79a1.86,1.86,0,0,1,.45-1.15c.35-.44.35-1.5,1-2.12A1.07,1.07,0,0,1,231.68,52.22Zm-6.63,3.18v3c0,.89,1.15,2.65,3.19,3.62a13.3,13.3,0,0,0,3.35,1.15,13.18,13.18,0,0,0,2.73-1.05V62c2.13-1,3.19-2.73,3.19-3.62V55.49c-1.16.7-1.24.8-1.24,1.41v.8c0,1.41-2.83,2.82-4.86,2.82s-4.94-1.23-4.94-2.82a2.15,2.15,0,0,1,.09-.88c0-.53-.09-.63-1.42-1.33A.09.09,0,0,0,225.05,55.4Zm13.07,5a9,9,0,0,1-.79,1l6,2.92a4.13,4.13,0,0,1,2.38,3.27,1.66,1.66,0,0,0,1.41,1.15,1.07,1.07,0,0,0,1.06-.71c.17-.8.7-3.44.8-3.62a.57.57,0,0,1,.7-.45.55.55,0,0,1,.44.71A1.58,1.58,0,0,1,250,65c1.06-.53,1.15-.62,1.15-1s-1.06-1-1.85-1a3.68,3.68,0,0,0-1.77.44,4.81,4.81,0,0,1-1.5.35,2.56,2.56,0,0,1-1.41-.27l-.36-.17C243.86,63.08,239.36,61,238.12,60.35Zm-13.42.26c-1.68.8-5.38,2.56-5.83,2.74l-.35.17a2.45,2.45,0,0,1-1.33.27,4.85,4.85,0,0,1-1.59-.35,4.15,4.15,0,0,0-1.67-.44c-.89,0-1.94.61-1.94,1s.08.45,1.14,1a1.58,1.58,0,0,1-.09-.45.56.56,0,0,1,.45-.71.71.71,0,0,1,.79.45c0,.18.53,2.82.71,3.62a1.06,1.06,0,0,0,1.06.71,1.92,1.92,0,0,0,1.5-1.15,3.84,3.84,0,0,1,2.3-3.27l.88-.44,4.77-2.2A5.85,5.85,0,0,1,224.7,60.61Z"/><path class="e" d="M117,35.86,95.88,57,117,78l21,21.16L159.2,78,180.36,56.9l-21.16-21c-11.52-11.63-21-21.15-21-21.15S128.55,24.23,117,35.86Z"/><path class="d" d="M155.84,39.22l17.8,17.68-17.8,17.79-17.78,17.9-17.69-17.9L102.58,56.9l17.79-17.68c9.74-9.85,17.69-17.79,17.79-17.79S146.12,29.37,155.84,39.22Z"/><path class="f" d="M138.16,31.84c-2.68,5,.57,7.83-3,15.22-1.79-1.46-.78-7.06-4.47-7.16a5.56,5.56,0,0,1,.11,3c-.45,2.34-1.23,4.58.45,7.71-2.57-1.23-2.68-3.47-4.81-4.92.44,2.35-.57,7.27,2.24,12.08-2.58-.33-3.36-1.23-6.15-3.91,2.9,15,5,15.44,15.65,16.22a9.73,9.73,0,0,1-8-7c-.11-1.57-.22,1.34,4.93,1.34-3.25-5.15-2.36-4.14-2-7.15,1.34,2.12.22,2.23,4,3.8-1.23-3.8,1.79-6.49,1.23-10.86.78,1.91,3.8,1.57,3.69,10.86,2.47-2.8,2.69-.9,3.92-3.92.11,1.68.78,3.81-2.58,7.39.9.22,2.35.44,4.71-1.12C145.66,66,147.79,66,142,70.21c7.27.12,12-4.48,11.86-14.55-.22.9-.45,2.58-4.37,3.14a10.18,10.18,0,0,0,1.8-11.3c-.67.67-1.68,3.68-4.25,4.48a9.82,9.82,0,0,0,1-4.92,10.4,10.4,0,0,0-1.9-6.61c-.68,4.58-.57,6.82-3.48,7.49.44-2.68.57-3.92-.89-6.93S138.62,34.75,138.16,31.84Zm-12,40.84v2.68H151.7V72.68H126.19Z"/></svg>