<svg xmlns="http://www.w3.org/2000/svg" viewBox="0 0 992.84 113.82"><defs><style>.a,.d{fill:#fff;}.a{stroke:#000;stroke-miterlimit:10;stroke-width:0.5px;}.a,.c,.d{fill-rule:evenodd;}.b,.c{fill:#473335;}</style></defs><title>BV015_C</title><polygon class="a" points="80.62 113.57 0.43 55.84 80.62 0.26 912.22 0.25 992.41 57.98 912.22 113.56 80.62 113.57"/><rect class="b" x="89.07" y="8.12" width="815.42" height="97.53"/><polygon class="c" points="911.45 8.12 980.47 56.88 911.45 105.65 911.45 8.12"/><polygon class="c" points="81.72 8.12 12.7 56.88 81.72 105.65 81.72 8.12"/><path class="d" d="M341.91,66.77c0,10.51,7.84,19.8,24.4,19.8s24-8.85,24-18.5c0-7.2-4.54-13.75-14.33-16.13l-13.53-3.46c-4-1.08-4.54-1.51-5.33-2.44a5.51,5.51,0,0,1-1.51-3.82c0-3.17,2.88-7.13,10.94-7.13,4,0,7.06,1.37,8.64,3a9.3,9.3,0,0,1,2.74,6.12l11.3.07c-.43-6.19-2.52-10-5.76-12.89s-9.29-5.62-17.64-5.62c-15.05,0-22,8.36-22,17.72,0,7.27,4,13.24,14,15.76l11.66,2.88c2,.58,5,.94,7,3.32a6.71,6.71,0,0,1,1.37,3.81c0,3.67-2.74,7.85-12,7.85-9,0-12.67-4.61-12.52-10.37ZM398,84.63h11V71.16l4.61-4.53,11.3,18h13.47l-16.92-25.2,14.76-15.77-13,.07L409,59.28l-.07-31.68H398Zm51.27-45.94,10.94.07.07-11.16h-11Zm14.4.07h11V27.6h-11Zm6.55,24.12v6.05c-.36,5.19-3.82,8.64-9.79,8.64-4.61,0-6.91-2.59-6.91-5.18,0-1.8,1-4.32,7.56-6l4.75-1.22A10.23,10.23,0,0,0,470.21,62.88Zm0,17.14a13.89,13.89,0,0,0,1.37,4.61h11.16c-.72-.58-1.73-2.45-1.73-5.76l-.14-21c-.08-3.6-.29-4.61-.58-5.55-1.73-5.61-6.19-10.15-17.35-10.15-12.82,0-17.86,6.48-17.86,13.75l9.79.07c.36-2.73.8-3.16,1.73-4.1S459.7,50,462.94,50c5.18,0,7.13,2.73,7.13,4.68s-1.16,3.38-4.25,3.88l-11.09,1.88c-8.28,1.51-12.1,6.91-12.1,12.31,0,7,5.48,13,15.34,13C464.88,85.78,468.55,83.12,470.21,80Zm20.45,4.61H501.6V66.41c0-6.12,1.51-8.93,3.39-10.8a9.74,9.74,0,0,1,7.48-3.24,7.26,7.26,0,0,1,1.8.15V42.8a13.54,13.54,0,0,0-2.3-.22,10.55,10.55,0,0,0-10.22,7.27l-.36-6.12H490.66Zm48.89-7.06c-5.33,0-10.37-4-10.37-13.25,0-9.64,4.89-13.53,10.37-13.53S549.91,54.68,549.91,64,544.8,77.57,539.55,77.57Zm0,8.57c12.38,0,21.52-8.78,21.52-22.1,0-12.89-9-21.89-21.67-21.89C527.09,42.15,518,51,518,64,518,77.5,527.09,86.14,539.55,86.14Zm29.23-1.51h11v-57H568.92Zm23.61-47.09h11V27.6h-11ZM585.48,89v9l7.56-.14c7.06,0,10.37-3.32,10.37-10.73V43.66h-11V82.47c0,5.76-1.72,6.55-4.39,6.55ZM638.55,63.1v5.18c0,5.76-3.68,9.44-9.87,9.44-4.61,0-6.91-2.74-6.91-5.33,0-2,.65-4.11,7.56-6L634.15,65A14.09,14.09,0,0,0,638.55,63.1Zm0,16.92a12.18,12.18,0,0,0,1.29,4.61h11.31a5.69,5.69,0,0,1-1.88-4.25V57.92c0-9.8-5-15.7-18.43-15.7-12.45,0-17.64,6.84-17.35,13.61l9.79.21c0-2.95,2.31-6,7.78-6s7.27,2.66,7.27,4.61c0,1.72-1,3.24-4,3.81l-6.34,1c-9,1.66-11.37,3.38-13.1,4.82A11.13,11.13,0,0,0,611,72.89c0,6.77,5.33,12.89,15.7,12.89C632.71,85.78,636.17,83.69,638.55,80Z"/></svg>