<svg xmlns="http://www.w3.org/2000/svg" viewBox="0 0 992.84 113.82"><defs><style>.a,.d{fill:#fff;}.a{stroke:#000;stroke-miterlimit:10;stroke-width:0.5px;}.a,.c,.d,.e,.f{fill-rule:evenodd;}.b,.c{fill:#473335;}.e{fill:#ac322d;}.f{fill:#000b0d;}</style></defs><title>BV010_C</title><polygon class="a" points="80.62 113.57 0.43 55.84 80.62 0.26 912.22 0.25 992.41 57.98 912.22 113.56 80.62 113.57"/><rect class="b" x="89.21" y="8.19" width="815.42" height="97.53"/><polygon class="c" points="911.45 8.19 980.47 56.96 911.45 105.72 911.45 8.19"/><polygon class="c" points="81.72 8.19 12.7 56.96 81.72 105.72 81.72 8.19"/><path class="d" d="M489.51,67.56h9.43V48.2h19.87V40.85H498.94V29.76h23.33V22.28H489.51ZM540.77,62c-4.18,0-8.21-3.17-8.21-10.37,0-7.85,4-10.94,8.21-10.94s8.28,3.09,8.28,10.58S545,62,540.77,62Zm0,6.77c9.94,0,17.14-6.92,17.14-17.5,0-10.22-7.13-17.42-17.14-17.42s-17.14,7.05-17.14,17.42C523.63,62,530.91,68.72,540.77,68.72Zm40.54-1.16V60.87h-3.24a3.39,3.39,0,0,1-2.52-1.23c-.22-.28-.44-.72-.44-2.59V41h6V35h-6V24.72h-8.78V35h-4.61v6h4.75l-.14,16.77c0,7.35,3.1,9.79,8,9.79ZM603,62c-4.18,0-8.21-3.17-8.21-10.37,0-7.85,4-10.94,8.21-10.94s8.28,3.09,8.28,10.58S607.23,62,603,62Zm0,6.77c9.79,0,17.06-6.92,17.06-17.5C620,41,612.84,33.8,603,33.8s-17.21,7.05-17.21,17.42C585.77,62,593,68.72,603,68.72Zm39.24-9.65c-4.25,0-7.78-3.17-7.78-9.15,0-5.25,3.53-8.64,7.56-8.64s7.71,3.39,7.71,8.86C649.71,55.83,645.89,59.07,642.22,59.07ZM627.39,69.29a9.56,9.56,0,0,0,3.09,6.55c1.95,1.88,5.69,3.68,11.95,3.68,7.06,0,11.67-2.52,13.83-5.4,1.44-2,2.23-3.82,2.23-8.64V35h-8.28l-.36,4c-.58-1-2.45-5.18-9.58-5.18-7.92,0-14.83,6.33-14.83,16.34s6.91,16.42,14.69,16.42c5.18,0,8.42-2.31,9.72-4.9v3.46c0,5.54-2.52,7.84-7.63,7.84-3.82,0-5.62-1.94-5.83-4ZM673.68,47.4a7.51,7.51,0,0,1,7.13-6.69,7.25,7.25,0,0,1,7.27,6.69Zm-.36,6.34h24.19c0-9.65-4.39-19.94-16.48-19.94-12.53,0-16.42,10-16.42,17.42,0,10.8,7.2,17.5,16.34,17.5s14.62-5,16-10.59l-8.86-.57a7.26,7.26,0,0,1-6.77,4.24C677.14,61.8,673.83,58.92,673.32,53.74Zm30.17,13.82h8.86V49.35c0-2.67.57-3.82,1.29-4.83A6.86,6.86,0,0,1,719,41.79c2.95,0,5.18,2,5.18,5.61V67.56h8.72V44.67c0-6.12-4.47-10.87-11.31-10.87-4.61,0-7.92,2.59-8.93,5.11l-.36-3.82L703.63,35Z"/><path class="d" d="M578.58,96.36h4V88.19H591V85h-8.42V80.38h9.89V77.14H578.58Zm18.3-7.07L599.5,81l2.51,8.3Zm-6.28,7.07h4l1.28-4h7l1.22,4h4.09l-6.59-19.22h-4.27Zm22.94-10.67V80.38H618a2.46,2.46,0,0,1,1.77.43A2.74,2.74,0,0,1,621,83.06c0,1.47-1.16,2.69-3.17,2.69Zm-3.91,10.67h3.91l.06-7.56h3.48A3.28,3.28,0,0,1,620,90.38a3.93,3.93,0,0,1,.37,1.22c.37,1.59,0,3.3.73,4.76h4a5.25,5.25,0,0,1-.61-2L624.21,91a3.58,3.58,0,0,0-1-2.56,4.17,4.17,0,0,0-2.56-1.16,4.58,4.58,0,0,0,4.21-4.76c0-3-2.38-5.55-6.47-5.37h-8.73Zm23.25-7.07L635.5,81l2.5,8.3Zm-6.29,7.07h4l1.28-4h7l1.22,4h4.09l-6.59-19.22h-4.27Z"/><path class="e" d="M116.88,36,95.73,57.15l21.15,21,21,21.15,21.14-21.15L180.21,57,159.05,36c-11.51-11.64-21-21.15-21-21.15S128.41,24.37,116.88,36Z"/><path class="d" d="M155.7,39.36,173.5,57l-17.8,17.9L137.91,92.73l-17.68-17.9L102.44,57l17.79-17.68C130,29.51,137.91,21.57,138,21.57S146,29.51,155.7,39.36Z"/><path class="f" d="M138.14,29.85h-.34a10.21,10.21,0,0,0-3.36.9A9.36,9.36,0,0,0,131.53,33a8.41,8.41,0,0,0-1.79,3.24,11,11,0,0,0-.45,5.49,20.93,20.93,0,0,0,1.57,5.7c.11.33.56,1.23.67,1.45a15.21,15.21,0,0,0,1.35,2L133,51c0,.11-.34,3.13-.34,3.13s-1.45.57-3.36,1.23l-3.35,1.24h-.11v.11a1.2,1.2,0,0,0,.89.89h.56v.12a1.12,1.12,0,0,0,.67.55c.11.11.23.11.46.11h.21v.12a1.17,1.17,0,0,0,.57.67,1.24,1.24,0,0,0,.89,0c.11,0,.11,0,.11.11.11.34.33.56.56.56h.34V60a1.47,1.47,0,0,0,.67.78h.78c.22,0,.45-.22.67-.33,0-.12,0-.12.12-.22h0l.1.1a1.19,1.19,0,0,0,.91,0h.1l.12.12a1.26,1.26,0,0,0,.56.56h.11v.12a.42.42,0,0,0,.11.33.4.4,0,0,0,.33.11c.23,0,.45-.11.45-.34V61h.12a1.76,1.76,0,0,0,.66-.9v-.33a1,1,0,0,0-.11-.56v-.12h0a.4.4,0,0,0,.23-.55.38.38,0,0,0-.12-.23h-.11l.11-.1c0-.13.12-.23.12-.34a.42.42,0,0,0,.11-.34v-.23h.11a1.05,1.05,0,0,0,.56-.89.93.93,0,0,0-.22-.89v-.12h.1c.12,0,.23,0,.23-.11s.11-.11.11-.33a.32.32,0,0,0-.11-.22c0-.12-.11-.12-.23-.12h-.33a.11.11,0,0,0-.11-.11l-.22-.11v-.12a.67.67,0,0,0,.11-.44.73.73,0,0,0,0-.68V53l.11-.12a1.32,1.32,0,0,0,.56-.56v-.78c0-.11-.12-.23-.22-.34v-.11h.1a1.12,1.12,0,0,0,.46-.56V50.1a5.3,5.3,0,0,1-.34-.45h0v-.1c.11-.11.11-.23.11-.45V49H138a.35.35,0,0,0,.23-.11h.11V49c0,.23,0,.46.22.57l.11.1v.13a.49.49,0,0,0,0,.55,1.36,1.36,0,0,0,.57.78c.1,0,.1,0,0,.11v.23a1.67,1.67,0,0,0,.44,1.23l.11.11h0a.94.94,0,0,0-.45.45,1.16,1.16,0,0,0,.34,1.12h.11v.11h0a.7.7,0,0,0,.34.89v.23a1.94,1.94,0,0,0,0,1.12h.11l-.11.1v.13l-.11-.13a.56.56,0,0,0-.68.23v.34a.61.61,0,0,0,.45.22h0v.23a1.58,1.58,0,0,0,.23.67v.11h0a1.79,1.79,0,0,0-.12.78,1.85,1.85,0,0,0,.34,1v.22c0,.11-.11.34,0,.46a.53.53,0,0,0,.56.55.35.35,0,0,0,.45,0c.23,0,.45-.22.55-.55h0c.12,0,.34-.12.45-.12s.12-.11.12,0,.21.22.34.22a.66.66,0,0,0,.78-.33V60.4c-.11-.12-.23-.22-.34-.34h0V60a.38.38,0,0,0,.11-.22v-.11l.12.11h.33v.11c.11.11.33.22.45.34h.45a.24.24,0,0,0,.21-.23H145c.11.11.22.23.34.33s.11.12.22.12a.92.92,0,0,0,.56-.22v-.12h.11a.4.4,0,0,0,.34.12h.22c.33-.12.56-.34.56-.56a.52.52,0,0,0,0-.57V59h.11c.12.1.23,0,.33,0a.62.62,0,0,0,.34-.57v-.11l.12.11a1.32,1.32,0,0,0,.45.34H149c.22-.11.56-.34.56-.68.11,0,.11,0,.11-.1v-.11c.23-.11.33-.23.33-.45v-.12h.12a.43.43,0,0,0,.34-.11.11.11,0,0,0,.11-.11v-.33l-3.69-1.23-3.81-1.12V51.45l.11-.12a12.54,12.54,0,0,0,1.12-1.55A26.05,26.05,0,0,0,145.64,47a32.46,32.46,0,0,0,1.56-6.49V39.14a11.12,11.12,0,0,0-3.14-6.49,8.81,8.81,0,0,0-3.47-2.36,16.17,16.17,0,0,0-2.11-.44ZM124.26,57.38h-.33a2.85,2.85,0,0,0-.67.34c-2.14.78-2.91,1-3.14,1.12a3.61,3.61,0,0,0-1.68,2.57v4.13l3.13,3.25c1.69,1.79,3.14,3.24,3.14,3.24a.66.66,0,0,0,.44-.11.61.61,0,0,0,.56-.33h.79a1,1,0,0,0,.67-.67c.11-.11.11-.23.11-.44v-.13h.11a.53.53,0,0,0,.34.23h.33c.12.11.22,0,.35,0A1.29,1.29,0,0,0,129,70v-.67l.12-.11s.11-.12.21-.12l.12-.1h0c.11,0,.11.1.22.1h.56a.73.73,0,0,0,.23-1L130.3,68s.12,0,.12-.11a.52.52,0,0,0,.33-.46h.11a.82.82,0,0,0,.44.23c.12,0,.12,0,.12.11s-.12,0-.12.12c-.21.34.12.78.46.89a.67.67,0,0,0,.78-.78c0-.23-.11-.34-.34-.45l-.1-.12h.1a.76.76,0,0,0,.23-.44v-.45h.11a.43.43,0,0,0,.34-.11v.11l.11.23c.11,0,.11.11.22.11h.33l.23-.23a.35.35,0,0,0,0-.45c0-.1-.23-.21-.34-.21v-.67a.38.38,0,0,0,.34-.13.5.5,0,0,0,0-.55c-.11-.11-.23-.23-.34-.23h0a1,1,0,0,0-.44-.66l-.11-.12v-.22a.37.37,0,0,0-.12-.33,1.15,1.15,0,0,0-.44-.57,1,1,0,0,0-.56-.11,1,1,0,0,0-.56.11h-.11c.11,0,.11-.22.11-.33s-.45-.56-.68-.45h-.1v-.22a1,1,0,0,0-.34-.79c-.22-.11-.34-.22-.56-.33h-.33a.86.86,0,0,0-.45.11h-.12c0-.11-.21-.23-.34-.33l-.1-.12h-.12v-.33a.61.61,0,0,0-.33-.56h-.45v-.12c-.11-.21-.23-.44-.33-.67a1.08,1.08,0,0,0-.78-.34h-.46c0-.1-.11-.21-.21-.32s-.46,0-.56.11h-.12v-.11a.61.61,0,0,0-.56-.34Zm28.54.11h-.12c-.22,0-.34.23-.45.45h-.11a.54.54,0,0,0-.67.23.38.38,0,0,0-.11.33v.11h-.12a1.15,1.15,0,0,0-1.44.11,1,1,0,0,0-.35.67v.23h-.11a1.85,1.85,0,0,0-1.11.11c-.12.11-.33.45-.46.55a1.16,1.16,0,0,0-.21.8v.21h-.12c-.22-.11-.45,0-.67.23h-.22a1.61,1.61,0,0,0-1,.11,1.82,1.82,0,0,0-.68.89v.23l-.1.11h-.34a.86.86,0,0,0-.44.44.34.34,0,0,0,0,.46v.11h-.12a.33.33,0,0,0-.44,0c-.12,0-.23.11-.34.23a.4.4,0,0,0-.23.55c0,.22,0,.34.11.45s.12.1,0,.1l-.21.13c0,.1-.13.1-.13.21v.34a.62.62,0,0,0,.91.12v-.12A.63.63,0,0,0,144,66h.1v.11c0,.22,0,.33.12.44a.11.11,0,0,1-.12.11.34.34,0,0,1-.22.12.73.73,0,0,0,.22,1h.45a3.51,3.51,0,0,0,.33-.34v-.1l.12.1c.22,0,.45.12.68.12v.34a.46.46,0,0,0,.1.34h-.1c-.23,0-.34.1-.46.33v.22a.37.37,0,0,0,.12.33c.11,0,.22.12.34.12a.92.92,0,0,0,.44-.45v.11a1.16,1.16,0,0,0,.79.67c.1.11.21.11.44.11s.34-.11.44-.11l.13-.11v.11c.1.11.1.34.21.45s.34.23.45.23h.56c.11,0,.22-.11.33-.11v0a1.14,1.14,0,0,0,1.23,1.11h.46l.1-.11-.1.11a.75.75,0,0,0,.67,1,.83.83,0,0,0,.67-.23l3.24-3,3-2.81V61.52c-.11-.23-.11-.44-.22-.67a8.1,8.1,0,0,0-.89-1.23,6.08,6.08,0,0,0-1.8-1.12C155.59,58.38,152.8,57.49,152.8,57.49ZM138.36,58h-.11c-.23,0-.34.13-.45.34v.46c.11.11.11.21.22.33h0a.58.58,0,0,0-.22.45v.11c.11.22.22.22.45.22s.23,0,.23-.11.21-.11.21-.22,0-.23-.11-.23v-.11l-.1-.11h.1c.11,0,.23-.12.34-.22s0-.11.11-.34-.11-.11-.11-.23-.11-.21-.34-.34h-.22Zm-.89,2.58h0c-.12,0-.23.11-.34.23v.33c.11.23.22.34.45.34s.1,0,.1-.11a.36.36,0,0,0,.34-.33c0-.12-.11-.23-.22-.35S137.58,60.62,137.47,60.62Zm-4,.46h0c-.22.1-.33.1-.33.21a.7.7,0,0,0-.11.45V62a.66.66,0,1,0,.89-.88h-.45Zm7.16,1.11h-.22q-.33.16-.33.33c0,.23.11.45.22.45s.11.12.23.12h.1v.1a.94.94,0,0,0,.45.45.48.48,0,0,0,.56,0c.12-.11.22-.22.34-.34V63l-.12-.11a.84.84,0,0,0-.44-.45.43.43,0,0,0-.34.11h0l-.11-.11a.24.24,0,0,0-.21-.22Zm-6.82,1.11h-.11c-.12.12-.23.23-.23.34a.59.59,0,0,0,.23.46h.45a.61.61,0,0,0,1.12.1c.11,0,.11,0,.11-.22s0-.11-.11-.22-.11-.23-.23-.34h-.22c-.22,0-.34,0-.44.11h-.13a.44.44,0,0,0-.1-.23h-.34Zm8.28,3h0a1.59,1.59,0,0,0-.45.33v.57h-.1c-.12,0-.12.11-.23.21v.46l.23.22h.22a.41.41,0,0,0,.33-.11.42.42,0,0,0,.11-.34v-.11h.11a.68.68,0,0,0,.46-1.12c-.13,0-.23,0-.23-.11h-.45Zm-4.81.78H137l-.34.33V68a.54.54,0,0,0,.9.11.49.49,0,0,0-.11-.89C137.35,67.11,137.35,67.11,137.24,67.11Zm-3.58.12h0c-.23,0-.33.11-.33.21v.46a.23.23,0,0,0,.21.22h.23a.42.42,0,0,0,.34-.11.55.55,0,0,0-.11-.78h-.34Zm.78,1.22c-.1,0-.1.12-.23.12s-.33.22-.44.45v.22c0,.11,0,.11.11.22a.33.33,0,0,0,.12.22h0a1.23,1.23,0,0,0-.46-.11,1.55,1.55,0,0,0-.89.57h-.11c-.11-.12-.22-.23-.34-.23h-.55a1.13,1.13,0,0,0-.68.57v.1h-.11c-.11-.1-.22-.1-.44-.1a.74.74,0,0,0-.79.44,1,1,0,0,0-.11.56v.11h0a2.28,2.28,0,0,0-.56-.34h-.78a.78.78,0,0,0-.45.23,2.41,2.41,0,0,0-.45.55h-.11a.82.82,0,0,0-1,.12.61.61,0,0,0-.34.55v.35l5.47,5.7c3,3,5.72,5.71,5.83,5.82l.11.22.11-.12.12-.1c.11-.11.11-.11.11-.23s0-.11-.11-.22a.11.11,0,0,0-.12-.11h0v-.12c.23-.1.33-.33.23-.44s-.23-.22-.23-.22l.12-.12a.4.4,0,0,0,.11-.33.39.39,0,0,0-.11-.33c0-.12-.12-.12-.23-.23h-.11l.11-.11a1.88,1.88,0,0,0,.56-2.24.12.12,0,0,1-.12-.12v-.11h0a1.07,1.07,0,0,0,.34-1.45.72.72,0,0,0-.44-.55h-.11l.11-.13c.1-.1.22-.21.22-.33a.87.87,0,0,0-.22-.55l-.11-.12h.11a.73.73,0,0,0-.11-.78c-.12-.23-.34-.23-.57-.23h-.11a1.24,1.24,0,0,0,.11-.9c-.11-.1-.11-.1,0-.1s.34-.23.45-.34a.59.59,0,0,0-.22-.9H137l.11-.1a1.32,1.32,0,0,0,.34-.9c-.12-.23-.12-.45-.23-.56s-.22-.34-.34-.34l.12-.11c0-.11.11-.22.11-.33s.11-.11.11-.34-.11-.33-.22-.56v-.11h0c.11-.11.22-.23.22-.34v-.33c0-.12-.11-.12-.22-.22h-.23a.46.46,0,0,0-.34.1h-.1c-.11-.1-.23-.22-.34-.22a.85.85,0,0,0-.89-.11H135c-.11-.11-.22-.22-.34-.22A.31.31,0,0,0,134.44,68.45Zm6.49.23h-.11a.81.81,0,0,0-.67.78v.34h0a.7.7,0,0,0-1,.34v.34c0,.1,0,.1.12.21s.22.23.33.34.11,0,0,.11v.34a.69.69,0,0,0,.33.88l.12.13-.12.1a1.48,1.48,0,0,0-.11.67,1,1,0,0,0,.34.79v.11h0c0,.23-.11.34-.11.56v.11h-.23v-.11c.11-.12.11-.22.11-.45a1.58,1.58,0,0,0-.22-.33l-.11-.11a.69.69,0,0,0-.78.11.68.68,0,0,0-.12.89h0v.11a.3.3,0,0,0-.33.33c-.11,0-.11.13-.11.23s0,.11.11.23a.51.51,0,0,0,.56.45H139l-.11.11a1.59,1.59,0,0,0,0,1c0,.11.11.34.11.44s.23.23.33.23v.11h0l-.1.11a1.4,1.4,0,0,0-.34,2.13l.11.1-.11.12c-.11.11-.23.22-.23.34a.82.82,0,0,0-.11.55v.34l.11.11h-.11a.91.91,0,0,0,.11.9v.11l-.11.11a.29.29,0,0,0,.11.45v.11h0a.41.41,0,0,0-.11.33c0,.12,0,.12-.1.12s-.12.11-.12.33,0,.12.12.12a.35.35,0,0,0,.1.21s1.12-1,6.26-5.7L151,73.26v-.1a.21.21,0,0,0,0-.34c0-.23-.22-.33-.44-.46a.38.38,0,0,0-.34.13h-.11a.46.46,0,0,1-.12-.23c-.1-.11-.21-.23-.33-.34a.88.88,0,0,0-.45-.11c-.22,0-.33,0-.45.11h-.1v-.11a1.2,1.2,0,0,0-1-1.12h-.45l-.12.12v-.12c0-.11-.21-.34-.33-.44a.67.67,0,0,0-.45-.11.72.72,0,0,0-.56.67v0c-.1-.12-.22-.23-.33-.23a.74.74,0,0,0-.45-.1h-.12l-.1-.13a1,1,0,0,0-.56-.89,1,1,0,0,0-.56-.11h-.22v-.11c0-.22-.12-.34-.34-.45a.77.77,0,0,0-.9.33h-.34c-.1,0-.1.12-.1.12a.12.12,0,0,0-.12-.12.56.56,0,0,0-.22-.33A.69.69,0,0,0,140.93,68.68Zm-6.72,1.12h.13v0Zm4,1.45a.11.11,0,0,0-.11.11c-.12,0-.12,0-.23.12a.66.66,0,0,0-.11.44l.11.11.11.12h-.11a.4.4,0,0,0-.11.34c-.12.44.22.77.68.77a.59.59,0,0,0,.55-.56.55.55,0,0,0-.22-.67h-.12v-.11a.11.11,0,0,0,.12-.11c0-.11,0-.11-.12-.22a.25.25,0,0,0-.21-.23C138.36,71.36,138.36,71.25,138.25,71.25Z"/></svg>