<svg xmlns="http://www.w3.org/2000/svg" viewBox="0 0 992.84 113.82"><defs><style>.a,.d{fill:#fff;}.a{stroke:#000;stroke-miterlimit:10;stroke-width:0.5px;}.a,.c,.d,.e,.f{fill-rule:evenodd;}.b,.c{fill:#473335;}.e{fill:#ac322d;}.f{fill:#000b0d;}</style></defs><title>BV019_C</title><polygon class="a" points="80.62 113.57 0.43 55.84 80.62 0.26 912.22 0.25 992.41 57.98 912.22 113.56 80.62 113.57"/><rect class="b" x="89.21" y="7.98" width="815.42" height="97.53"/><polygon class="c" points="911.45 7.97 980.47 56.74 911.45 105.51 911.45 7.97"/><polygon class="c" points="81.72 7.97 12.7 56.74 81.72 105.51 81.72 7.97"/><path class="d" d="M502.18,67.35h9.36V29.55h13.82V22.06H488.5v7.49h13.68Zm38.95-3.67.43,3.67h8.28V34.88l-8.71-.15V53.09c0,4.9-2.88,7.49-6.48,7.49-3.17,0-5.26-1.73-5.26-6.34V34.73h-8.78V57.2c0,4.24,1.3,6.55,3.24,8.42s4.61,2.74,8.21,2.74A10.22,10.22,0,0,0,541.13,63.68Zm15.55,3.67h8.71l.15-18.22c0-2.66.43-3.81,1.15-4.82A6.84,6.84,0,0,1,572,41.57c3.09,0,5.25,2,5.25,5.62l-.07,20.16h8.71V44.45c0-6.12-4.39-10.87-11.16-10.87-4.75,0-7.92,2.59-9.07,5.11l-.36-3.81-8.57-.15Zm36,0h8.79l.14-18.22c0-2.66.43-3.81,1.15-4.82A6.7,6.7,0,0,1,608,41.57c3.09,0,5.18,2,5.18,5.62l-.07,20.16h8.71V44.45a10.55,10.55,0,0,0-11-10.87c-4.76,0-8,2.59-9.15,5.11l-.36-3.81-8.49-.15ZM645,61.73c-4.18,0-8.07-3.17-8.07-10.37,0-7.84,3.75-10.94,8.14-10.94s8.21,3.1,8.21,10.58S649.35,61.73,645,61.73Zm.07,6.77c9.93,0,17.21-6.91,17.21-17.5,0-10.22-7.2-17.42-17.28-17.42C635.23,33.58,628,40.64,628,51,628,61.73,635.23,68.5,645.1,68.5Zm23.25-1.15h8.79V22.06H668.5Zm18.94-37.44H696V22.06h-8.71ZM681.75,70.8v7.13h6.12c5.47,0,8.13-2.73,8.13-8.64V34.73h-8.71V65.62c0,4.46-1.37,5.18-3.6,5.18Zm42.12-20.59v4.11c0,4.6-2.88,7.48-7.92,7.48-3.6,0-5.4-2.16-5.4-4.1,0-1.66.57-3.24,6.12-4.9l3.74-1A8.66,8.66,0,0,0,723.87,50.21Zm0,13.47A9.12,9.12,0,0,0,725,67.35h9A4.83,4.83,0,0,1,732.43,64V46.18c0-7.85-4-12.6-14.61-12.6-9.94,0-14.11,5.47-13.83,10.94l7.71.15c0-2.45,1.8-4.75,6.33-4.75,4.25,0,5.62,2.08,5.62,3.67,0,1.29-.79,2.59-3.1,2.88l-5,.93c-7.2,1.3-9.14,2.67-10.51,3.82A9,9,0,0,0,702,58c0,5.47,4.32,10.29,12.45,10.29C719.19,68.28,722.07,66.63,723.87,63.68Z"/><path class="d" d="M561.65,96.15h3.82L572,76.92l-4.25.08-4.1,14.18-4.32-14.26H555.1Zm13.75-7.06,2.67-8.28,2.37,8.28Zm-6.33,7.06h4l1.37-4h6.91l1.29,4h4l-6.55-19.23h-4.25Zm23.11-10.59v-5.4h4.39a3.67,3.67,0,0,1,1.87.44,2.87,2.87,0,0,1,1.15,2.3c0,1.37-1.15,2.66-3.16,2.66Zm-4,10.59h4V88.52h3.45a3.54,3.54,0,0,1,3,1.65A9.08,9.08,0,0,1,599,91.4c.43,1.65,0,3.24.79,4.75h4a4.13,4.13,0,0,1-.72-2l-.36-3.38a3.35,3.35,0,0,0-.86-2.59,4.51,4.51,0,0,0-2.59-1.15,4.46,4.46,0,0,0,4.17-4.76c0-3-2.45-5.54-6.48-5.4h-8.71Zm18.21,0h3.82V83.26L618,96.15h4V77h-4V90l-7.92-13.11h-4Zm18.43,0H629V76.92h-4.18Zm7.06,0h3.74V83.26l8,12.89h4V77h-4V90l-8.07-13.11h-3.88ZM659.57,89h4.75a5,5,0,0,1-5.11,4.46c-2.74,0-5.4-2.08-5.4-6.76,0-4,2.16-7.13,5.54-7.13A4.51,4.51,0,0,1,663.82,83l3.81-.14a7.86,7.86,0,0,0-2.3-4.39A9.81,9.81,0,0,0,659,76.35c-5.76,0-9.07,5-9.07,10.37a10.16,10.16,0,0,0,2.88,7.7,8.44,8.44,0,0,0,5.76,2.3,9.13,9.13,0,0,0,3.67-.72,5.33,5.33,0,0,0,2.38-2.37l.14,2.52h3V86h-8.21Z"/><path class="e" d="M117,35.65,95.88,56.79l21.14,21,21,21.15L159.2,77.83l21.16-21.15-21.16-21c-11.52-11.64-21-21.15-21-21.15S128.55,24,117,35.65Z"/><path class="d" d="M155.84,39l17.8,17.68-17.8,17.9L138.06,92.37l-17.69-17.9L102.58,56.68,120.37,39c9.74-9.85,17.69-17.79,17.79-17.79S146.12,29.15,155.84,39Z"/><path class="f" d="M138.28,29.49H138a10.21,10.21,0,0,0-3.36.9,9.14,9.14,0,0,0-2.91,2.24,8.28,8.28,0,0,0-1.79,3.24,10.74,10.74,0,0,0-.45,5.49,20.91,20.91,0,0,0,1.56,5.7c.11.33.57,1.23.68,1.45a15.22,15.22,0,0,0,1.34,2l.11.12c0,.11-.33,3.13-.33,3.13s-1.46.57-3.36,1.23l-3.36,1.24H126v.11a1.19,1.19,0,0,0,.88.89h.57v.12a1.07,1.07,0,0,0,.66.55c.12.11.23.11.46.11h.21v.12a1.21,1.21,0,0,0,.57.67,1.24,1.24,0,0,0,.89,0c.11,0,.11,0,.11.11.12.34.34.56.57.56h.33v.11a1.52,1.52,0,0,0,.67.78h.78c.23,0,.45-.22.67-.33,0-.12,0-.12.12-.22h0l.11.1a1.16,1.16,0,0,0,.9,0h.11l.11.12a1.37,1.37,0,0,0,.56.56h.11v.12a.39.39,0,0,0,.45.44c.23,0,.44-.11.44-.34V60.6h.12a1.78,1.78,0,0,0,.67-.9v-.33a.94.94,0,0,0-.12-.56v-.12h0a.4.4,0,0,0,.23-.55.39.39,0,0,0-.11-.23h-.12l.12-.1c0-.13.11-.23.11-.34a.42.42,0,0,0,.11-.34V56.9h.11A1.06,1.06,0,0,0,138,56a.91.91,0,0,0-.23-.89V55h.11c.12,0,.23,0,.23-.11s.1-.11.1-.33a.34.34,0,0,0-.1-.22c0-.12-.11-.12-.23-.12h-.34a.11.11,0,0,0-.11-.11l-.22-.11v-.12a.67.67,0,0,0,.11-.44.73.73,0,0,0,0-.68v-.1l.11-.12A1.34,1.34,0,0,0,138,52V51.2c0-.11-.12-.23-.23-.34v-.11h.11a1.1,1.1,0,0,0,.45-.56v-.45a5.22,5.22,0,0,1-.33-.45h0v-.1c.11-.11.11-.23.11-.45v-.12h.1a.35.35,0,0,0,.23-.11h.11v.11c0,.23,0,.46.23.57l.11.1v.13a.49.49,0,0,0,0,.55,1.34,1.34,0,0,0,.56.78c.11,0,.11,0,0,.11v.23a1.72,1.72,0,0,0,.44,1.23l.12.11h0a.86.86,0,0,0-.45.45,1.16,1.16,0,0,0,.33,1.12H140v.11h0a.7.7,0,0,0,.33.89v.23a1.94,1.94,0,0,0,0,1.12h.11l-.11.1v.13l-.11-.13a.55.55,0,0,0-.67.23V57a.58.58,0,0,0,.45.22h0v.23a1.7,1.7,0,0,0,.22.67v.11h0a1.94,1.94,0,0,0-.11.78,1.83,1.83,0,0,0,.33,1v.22c0,.11-.11.34,0,.46a.53.53,0,0,0,.57.55.33.33,0,0,0,.44,0c.23,0,.45-.22.56-.55h0c.11,0,.33-.12.45-.12s.11-.11.11,0,.22.22.34.22a.66.66,0,0,0,.78-.33V60c-.11-.12-.23-.22-.34-.34h0v-.11a.38.38,0,0,0,.11-.22v-.11l.12.11h.34v.11c.11.11.33.22.44.34h.45a.25.25,0,0,0,.22-.23h.12c.11.11.21.23.33.33s.11.12.22.12a.88.88,0,0,0,.56-.22V59.7h.11a.41.41,0,0,0,.34.12h.23c.33-.12.55-.34.55-.56a.52.52,0,0,0,0-.57v-.1h.11c.12.1.23,0,.34,0a.61.61,0,0,0,.33-.57v-.11l.13.11a1.18,1.18,0,0,0,.44.34h.34c.22-.11.55-.34.55-.68.11,0,.11,0,.11-.1v-.11c.23-.11.34-.23.34-.45V56.9h.12a.41.41,0,0,0,.33-.11.11.11,0,0,0,.11-.11v-.33S149,55.78,147,55.12L143.21,54V51.09l.1-.12a13.81,13.81,0,0,0,1.13-1.55,26,26,0,0,0,1.34-2.81,32.52,32.52,0,0,0,1.57-6.49V38.78a11.12,11.12,0,0,0-3.14-6.49,8.81,8.81,0,0,0-3.47-2.36,16,16,0,0,0-2.12-.44ZM124.41,57h-.34a3.08,3.08,0,0,0-.67.34c-2.13.78-2.91,1-3.13,1.12a3.58,3.58,0,0,0-1.68,2.57v4.13l3.12,3.25c1.69,1.79,3.14,3.24,3.14,3.24a.69.69,0,0,0,.45-.11.59.59,0,0,0,.55-.33h.8a1,1,0,0,0,.66-.67c.12-.11.12-.23.12-.44V70h.1c.12.13.23.23.34.23h.34c.11.11.22,0,.34,0a1.29,1.29,0,0,0,.55-.56V69l.12-.11a.38.38,0,0,1,.22-.12l.11-.1h0c.12,0,.12.1.22.1h.56a.72.72,0,0,0,.23-1l-.11-.11a.11.11,0,0,0,.11-.11.52.52,0,0,0,.34-.46h.1a.81.81,0,0,0,.45.23c.12,0,.12,0,.12.11s-.12,0-.12.12c-.22.34.12.78.45.89a.66.66,0,0,0,.78-.78c0-.23-.11-.34-.33-.45l-.11-.12h.11a.8.8,0,0,0,.22-.44v-.45h.11a.41.41,0,0,0,.34-.11v.11l.11.23c.11,0,.11.11.22.11h.34a2.7,2.7,0,0,0,.22-.23.35.35,0,0,0,0-.45c0-.1-.22-.21-.33-.21V65a.36.36,0,0,0,.33-.13.5.5,0,0,0,0-.55c-.1-.11-.22-.23-.33-.23h0a1,1,0,0,0-.45-.66l-.11-.12v-.22a.38.38,0,0,0-.11-.33,1.17,1.17,0,0,0-.45-.57,1,1,0,0,0-.56-.11,1,1,0,0,0-.56.11h-.11c.11,0,.11-.22.11-.33s-.44-.56-.67-.45h-.11v-.22a1,1,0,0,0-.34-.79c-.22-.11-.33-.22-.55-.33h-.34a.81.81,0,0,0-.44.11h-.13c0-.11-.21-.23-.33-.33l-.11-.12h-.11v-.33a.62.62,0,0,0-.34-.56h-.44v-.12c-.12-.21-.23-.44-.34-.67a1.06,1.06,0,0,0-.78-.34h-.46c0-.1-.1-.21-.21-.32a.84.84,0,0,0-.56.11H125v-.11a.61.61,0,0,0-.55-.34Zm28.53.11h-.11c-.23,0-.35.23-.45.45h-.11a.53.53,0,0,0-.67.23.37.37,0,0,0-.12.33v.11h-.11a1.17,1.17,0,0,0-1.45.11,1,1,0,0,0-.34.67v.23h-.12a1.82,1.82,0,0,0-1.1.11c-.13.11-.34.45-.46.55a1.12,1.12,0,0,0-.22.8v.21h-.12c-.21-.11-.44,0-.66.23h-.23a1.61,1.61,0,0,0-1,.11,1.8,1.8,0,0,0-.67.89v.23l-.11.11h-.34a.9.9,0,0,0-.44.44.36.36,0,0,0,0,.46v.11H144a.35.35,0,0,0-.45,0c-.12,0-.23.11-.33.23a.39.39,0,0,0-.23.55c0,.22,0,.34.1.45s.13.1,0,.1l-.21.13c0,.1-.12.1-.12.21v.34a.61.61,0,0,0,.9.12v-.12a.66.66,0,0,0,.45.12h.11v.11c0,.22,0,.33.11.44a.11.11,0,0,1-.11.11.38.38,0,0,1-.22.12.72.72,0,0,0,.22,1h.45l.33-.34V67l.12.1c.21,0,.44.12.67.12v.34a.43.43,0,0,0,.11.34h-.11c-.23,0-.34.1-.46.33v.22a.37.37,0,0,0,.12.33c.11,0,.22.12.34.12a.84.84,0,0,0,.44-.45v.11a1.16,1.16,0,0,0,.79.67c.11.11.22.11.44.11s.34-.11.45-.11l.12-.11v.11c.11.11.11.34.21.45s.34.23.45.23h.56c.12,0,.22-.11.34-.11v0a1.14,1.14,0,0,0,1.23,1.11h.45l.11-.11-.11.11a.76.76,0,0,0,.67,1,.81.81,0,0,0,.67-.23l3.24-3,3-2.81V61.16c-.1-.23-.1-.44-.22-.67a8.1,8.1,0,0,0-.89-1.23A6,6,0,0,0,156,58.14C155.74,58,152.94,57.13,152.94,57.13Zm-14.44.55h-.11c-.23,0-.33.13-.44.34v.46c.11.11.11.21.21.33h0a.6.6,0,0,0-.21.45v.11c.11.22.21.22.44.22s.23,0,.23-.11.22-.11.22-.22,0-.23-.11-.23v-.11l-.11-.11h.11c.11,0,.23-.12.33-.22s0-.11.11-.34-.11-.11-.11-.23-.1-.21-.33-.34h-.23Zm-.89,2.58h0c-.12,0-.23.11-.34.23v.33c.11.23.22.34.45.34s.11,0,.11-.11a.35.35,0,0,0,.33-.33.6.6,0,0,0-.21-.35C138,60.26,137.72,60.26,137.61,60.26Zm-4,.46h0c-.23.1-.34.1-.34.21a.7.7,0,0,0-.11.45v.22a.66.66,0,1,0,.89-.88h-.44Zm7.16,1.11h-.23q-.33.16-.33.33c0,.23.11.45.22.45s.11.12.23.12h.11v.1a.9.9,0,0,0,.45.45.48.48,0,0,0,.56,0l.33-.34v-.33L142,62.5a.86.86,0,0,0-.45-.45.4.4,0,0,0-.33.11h0l-.12-.11a.23.23,0,0,0-.21-.22Zm-6.83,1.11h-.1c-.12.12-.23.23-.23.34a.59.59,0,0,0,.23.46h.44c0,.1.11.22.23.32a.5.5,0,0,0,.89-.22c.11,0,.11,0,.11-.22s0-.11-.11-.22-.11-.23-.23-.34h-.22c-.22,0-.33,0-.44.11h-.12a.43.43,0,0,0-.11-.23h-.34Zm8.29,3h0a1.45,1.45,0,0,0-.45.33v.57h-.11c-.12,0-.12.11-.23.21v.46l.23.22h.22a.43.43,0,0,0,.34-.11.45.45,0,0,0,.1-.34V67.2h.12a.67.67,0,0,0,.45-1.12c-.12,0-.23,0-.23-.11h-.44Zm-4.82.78h-.22c-.11.12-.23.23-.33.33v.57c.22.33.66.44.89.11a.49.49,0,0,0-.11-.89C137.49,66.75,137.49,66.75,137.38,66.75Zm-3.57.12h0c-.23,0-.34.11-.34.21v.46a.24.24,0,0,0,.22.22h.22a.42.42,0,0,0,.34-.11.54.54,0,0,0-.11-.78h-.33Zm.78,1.22c-.11,0-.11.12-.23.12s-.34.22-.45.45v.22c0,.11,0,.11.11.22a.33.33,0,0,0,.12.22h0a1.22,1.22,0,0,0-.45-.11,1.49,1.49,0,0,0-.89.57h-.12c-.11-.12-.22-.23-.33-.23h-.56a1.16,1.16,0,0,0-.68.57v.1H131c-.1-.1-.22-.1-.44-.1a.75.75,0,0,0-.79.44,1.1,1.1,0,0,0-.1.56v.11h0a2.59,2.59,0,0,0-.57-.34h-.78a.84.84,0,0,0-.45.23,2.16,2.16,0,0,0-.44.55h-.12a.82.82,0,0,0-1,.12.6.6,0,0,0-.33.55v.35l5.47,5.7,5.82,5.82.11.22.11-.12.12-.1c.11-.11.11-.11.11-.23s0-.11-.11-.22a.11.11,0,0,0-.12-.11h0v-.12c.23-.1.34-.33.23-.44s-.23-.22-.23-.22l.12-.12a.4.4,0,0,0,.11-.33.39.39,0,0,0-.11-.33c0-.12-.12-.12-.23-.23h-.11l.11-.11a1.88,1.88,0,0,0,.57-2.24.12.12,0,0,1-.12-.12v-.11h0a1.07,1.07,0,0,0,.33-1.45.7.7,0,0,0-.44-.55h-.11l.11-.13c.11-.1.23-.21.23-.33a.82.82,0,0,0-.23-.55l-.11-.12h.11a.69.69,0,0,0-.11-.78c-.12-.23-.34-.23-.56-.23h-.12a1.24,1.24,0,0,0,.12-.9c-.12-.1-.12-.1,0-.1s.33-.23.44-.34a.59.59,0,0,0-.22-.9h-.11l.11-.1a1.32,1.32,0,0,0,.34-.9c-.12-.23-.12-.45-.23-.56s-.22-.34-.33-.34l.11-.11c0-.11.11-.22.11-.33s.11-.11.11-.34-.11-.33-.22-.56v-.11h0c.11-.11.22-.23.22-.34v-.33c0-.12-.11-.12-.22-.22h-.23a.45.45,0,0,0-.33.1h-.11c-.11-.1-.23-.22-.34-.22a.85.85,0,0,0-.89-.11h-.12c-.1-.11-.22-.22-.33-.22A.33.33,0,0,0,134.59,68.09Zm6.48.23H141a.81.81,0,0,0-.68.78v.34h0a.69.69,0,0,0-1,.34v.34c0,.1,0,.1.11.21s.22.23.33.34.11,0,0,.11v.34a.68.68,0,0,0,.34.88l.11.13-.11.1a1.48,1.48,0,0,0-.11.67,1,1,0,0,0,.33.79v.11h0c0,.23-.11.34-.11.56v.11H140v-.11c.11-.12.11-.22.11-.45a1.39,1.39,0,0,0-.23-.33l-.11-.11a.7.7,0,0,0-.89,1h0v.11a.3.3,0,0,0-.34.33c-.11,0-.11.13-.11.23s0,.11.11.23a.52.52,0,0,0,.56.45h.11l-.11.11a1.74,1.74,0,0,0,0,1c0,.11.11.34.11.44s.23.23.34.23v.11h0l-.11.11a1.4,1.4,0,0,0-.34,2.13l.11.1-.11.12c-.1.11-.22.22-.22.34a.82.82,0,0,0-.11.55v.34l.11.11h-.11a.86.86,0,0,0,.11.9v.11l-.11.11a.28.28,0,0,0,.11.45v.11h0a.41.41,0,0,0-.11.33c0,.12,0,.12-.11.12s-.12.11-.12.33,0,.12.12.12a.34.34,0,0,0,.11.21s1.11-1,6.26-5.7l6.16-5.71v-.1a.22.22,0,0,0,0-.34c0-.23-.23-.33-.45-.46a.36.36,0,0,0-.33.13h-.11a.46.46,0,0,1-.12-.23l-.34-.34a.85.85,0,0,0-.44-.11c-.22,0-.34,0-.45.11h-.11v-.11a1.19,1.19,0,0,0-1-1.12h-.44l-.12.12v-.12c0-.11-.22-.34-.33-.44a.7.7,0,0,0-.45-.11.72.72,0,0,0-.56.67v0c-.11-.12-.23-.23-.34-.23a.71.71,0,0,0-.44-.1H145l-.11-.13a1,1,0,0,0-.56-.89,1,1,0,0,0-.56-.11h-.22v-.11c0-.22-.12-.34-.33-.45a.78.78,0,0,0-.91.33H142c-.11,0-.11.12-.11.12s0-.12-.11-.12-.11-.22-.23-.33A.67.67,0,0,0,141.07,68.32Zm-6.71,1.12h.12v0Zm4,1.45a.11.11,0,0,0-.11.11c-.12,0-.12,0-.22.12a.66.66,0,0,0-.11.44l.11.11.1.12h-.1a.4.4,0,0,0-.11.34.61.61,0,0,0,.67.77.58.58,0,0,0,.55-.56.54.54,0,0,0-.21-.67h-.12v-.11a.11.11,0,0,0,.12-.11c0-.11,0-.11-.12-.22a.25.25,0,0,0-.22-.23C138.5,71,138.5,70.89,138.39,70.89Z"/></svg>