<svg xmlns="http://www.w3.org/2000/svg" viewBox="0 0 992.84 113.82"><defs><style>.a,.d{fill:#fff;}.a{stroke:#000;stroke-miterlimit:10;stroke-width:0.5px;}.a,.c,.d{fill-rule:evenodd;}.b,.c{fill:#473335;}</style></defs><title>BV014_C</title><polygon class="a" points="80.62 113.57 0.43 55.84 80.62 0.26 912.22 0.25 992.41 57.98 912.22 113.56 80.62 113.57"/><rect class="b" x="89.21" y="8.12" width="815.42" height="97.53"/><polygon class="c" points="911.45 8.12 980.47 56.88 911.45 105.65 911.45 8.12"/><polygon class="c" points="81.72 8.12 12.7 56.88 81.72 105.65 81.72 8.12"/><path class="d" d="M452.35,76.92c-13.82,0-16.05-15.48-16.05-20.59,0-14.33,8.21-20.88,15.69-20.88,7.64,0,15.77,6.55,15.77,20.88A24.43,24.43,0,0,1,463.37,71,13.41,13.41,0,0,1,452.35,76.92ZM452,86.5c19.95,0,27.72-17.42,27.72-30.46,0-13.68-8.64-30.16-27.28-30.16-10,0-17,3.81-22,10.58a34,34,0,0,0-6.27,19.87C424.2,72.1,434.35,86.5,452,86.5Zm34.56-1.87H497.5v-57H486.63ZM510,37.54h11.08V27.6H510ZM503.11,89v9l7.71-.14c6.91,0,10.37-3.32,10.37-10.73l-.08-43.49H510.17L510,82.47c0,5.76-1.59,6.55-4.4,6.55ZM556.32,63.1l-.07,5.18c0,5.76-3.6,9.44-9.94,9.44-4.6,0-6.76-2.74-6.76-5.33,0-2,.64-4.11,7.56-6L551.86,65A13.69,13.69,0,0,0,556.32,63.1ZM556.25,80a14,14,0,0,0,1.22,4.61h11.31a6.3,6.3,0,0,1-1.87-4.25V57.92c0-9.8-5-15.7-18.44-15.7-12.38,0-17.49,6.84-17.28,13.61l9.72.21c0-2.95,2.31-6,7.92-6,5.4,0,7.13,2.66,7.13,4.61,0,1.72-1,3.24-4,3.81l-6.19,1c-9.07,1.66-11.52,3.38-13.25,4.82a11.37,11.37,0,0,0-3.82,8.57c0,6.77,5.33,12.89,15.7,12.89C550.35,85.78,554,83.69,556.25,80Z"/></svg>