<svg xmlns="http://www.w3.org/2000/svg" viewBox="0 0 992.84 113.82"><defs><style>.a,.d{fill:#fff;}.a{stroke:#000;stroke-miterlimit:10;stroke-width:0.5px;}.a,.c,.d{fill-rule:evenodd;}.b,.c{fill:#473335;}</style></defs><title>BV016_C</title><polygon class="a" points="80.62 113.57 0.43 55.84 80.62 0.26 912.22 0.25 992.41 57.98 912.22 113.56 80.62 113.57"/><rect class="b" x="89.21" y="8.05" width="815.42" height="97.53"/><polygon class="c" points="911.45 8.04 980.47 56.81 911.45 105.58 911.45 8.04"/><polygon class="c" points="81.72 8.04 12.7 56.81 81.72 105.58 81.72 8.04"/><path class="d" d="M316,66.77c0,10.51,7.84,19.8,24.4,19.8,16.71,0,24-8.85,24-18.5,0-7.2-4.54-13.75-14.33-16.13l-13.46-3.46c-4-1.08-4.47-1.51-5.26-2.44a5,5,0,0,1-1.51-3.82c0-3.17,2.74-7.13,10.94-7.13a12.36,12.36,0,0,1,8.64,3,9.52,9.52,0,0,1,2.67,6.12l11.37.07c-.43-6.19-2.66-10-5.76-12.89S348.31,25.8,340,25.8c-15,0-22.1,8.36-22.1,17.72,0,7.27,4.18,13.24,14,15.76l11.66,2.88c2.16.58,5.19.94,7,3.32a6,6,0,0,1,1.51,3.81c0,3.67-2.74,7.85-12.1,7.85-9,0-12.67-4.61-12.45-10.37Zm56.44,17.86h11V61c0-6,3.38-8.85,7.7-8.85,3,0,4.76,1.36,5.55,3.45.21.36.57,1.3.57,4.47V84.63h10.88V60.29c0-5.25,3.31-8.28,7.7-8.28,3.67,0,6.19,2.23,6.19,7.06V84.63h10.8L432.77,56c-.22-8.64-5.69-13.61-13.18-13.61a13.72,13.72,0,0,0-12.52,7.13A13.57,13.57,0,0,0,395,42.36c-5.54,0-9.22,2.45-11.38,6.56l-.36-5.19-10.72-.07Zm76.83-45.87H460.2V27.6H449.26Zm14.4,0h11l-.14-11.16H463.66ZM462,77.57c-5.61,0-10.58-4-10.58-13.53,0-9.22,5-13.4,10.58-13.4,5.33,0,10.23,3.68,10.23,13.68C472.23,74,467,77.57,462,77.57Zm-.57,8.64c13.24,0,22.1-8.85,22.1-22.17s-9.07-22-21.74-22c-12.46,0-21.68,8.86-21.68,22S449.33,86.21,461.43,86.21Zm29.8-1.58h10.95V66.41c0-6.12,1.51-8.93,3.38-10.8a9.88,9.88,0,0,1,7.49-3.24,7,7,0,0,1,1.8.15L515,42.8a17.68,17.68,0,0,0-2.44-.22,10.43,10.43,0,0,0-10.08,7.27l-.36-6.12H491.38ZM525,37.54h11.16l-.07-9.94H525ZM518.23,89l-.14,9,7.7-.14c6.92,0,10.37-3.32,10.37-10.73l-.07-43.49H525.15L525,82.47c0,5.76-1.58,6.55-4.39,6.55Zm47.24-11.45c-5.19,0-10.3-4-10.3-13.25,0-9.64,4.82-13.53,10.3-13.53S575.76,54.68,575.76,64,570.87,77.57,565.47,77.57Zm.07,8.57c12.45,0,21.53-8.78,21.53-22.1,0-12.89-9-21.89-21.6-21.89S543.87,51,543.87,64C543.87,77.5,553,86.14,565.54,86.14Zm29.16-1.51h11v-57H594.77Zm23.61-47.09h11.16l-.14-9.94h-11ZM611.47,89l-.07,9,7.71-.14c6.91,0,10.36-3.32,10.36-10.73l-.14-43.49H618.39l-.08,38.81c0,5.76-1.65,6.55-4.39,6.55ZM664.61,63.1l-.14,5.18c0,5.76-3.53,9.44-9.87,9.44-4.61,0-6.84-2.74-6.84-5.33,0-2,.72-4.11,7.63-6L660.07,65A13.59,13.59,0,0,0,664.61,63.1ZM664.47,80a12.11,12.11,0,0,0,1.36,4.61h11.24a6,6,0,0,1-1.88-4.25V57.92c0-9.8-5-15.7-18.43-15.7-12.45,0-17.49,6.84-17.28,13.61l9.65.21c0-2.95,2.3-6,8-6,5.4,0,7.13,2.66,7.13,4.61,0,1.72-1,3.24-4,3.81l-6.19,1c-9.15,1.66-11.52,3.38-13.25,4.82A11.37,11.37,0,0,0,637,72.89c0,6.77,5.4,12.89,15.63,12.89C658.63,85.78,662.16,83.69,664.47,80Z"/></svg>