<svg xmlns="http://www.w3.org/2000/svg" viewBox="0 0 595.28 850.36"><defs><style>.a{fill:#017e49;}.a,.b{fill-rule:evenodd;}.b{fill:#e5e8eb;}</style></defs><title>E002_C</title><polyline class="a" points="0 850.36 595.28 850.36 595.28 0 0 0 0 850.36"/><path class="b" d="M422.29,553.63l33.28-33.28v-217l0,0h-61c-5.56,0-9.72-2.08-14.55-6.24l-30.56-38.88L321,319.23l91.58,185.84H376.52c-6.24,0-15.28-.68-22.19-13.15l-77-148.43v0.68L269,425.35c-0.68,7.59-8.32,18-27.75,18H94.89S98.38,426,108.09,417c9.72-9.66,24.27-16,54.77-16h59c2.08,0,4.83-1.35,4.83-6.23l3.48-37.42s-0.67-42.31,10.39-65.23l29.83-59.66H232.93a7.24,7.24,0,0,0-6.91,4.89l-29.83,49.95,0.68-1.41c-2.75,5.56-8.32,8.32-14.55,8.32-10.39,0-18-7.64-18-17.3A15.86,15.86,0,0,1,167,267.2h0l32.64-54.83c10.39-14.55,31.18-13.88,45.06-13.88h77c22.86,0,33.93,4.21,45.06,20.11l38.82,49.27h50l0,0.05V70.24H140.68V394.11c-19.38,0-31.91,9-40.22,17.36S79.67,453,79.67,453H140v68l-32.56,32.57v0H316.54v0l19-18.05c11.8-12.47,23.6-20.11,29.83-20.11h38.88l-39.42,38.13h57.42v0Zm23.93,92.31a10.73,10.73,0,0,0,3.6,7.34c2.23,2.16,6.33,4.18,13.46,4.18,7.92,0,13-3,15.48-6.12,1.66-2.23,2.52-4.25,2.52-9.72V607.28h-9.43l-0.29,4.46c-0.72-1.15-2.66-5.76-10.87-5.76-8.86,0-16.56,7.06-16.56,18.36s7.78,18.43,16.49,18.43c5.83,0,9.5-2.66,10.87-5.47v4c0,6.19-2.81,8.79-8.49,8.79-4.25,0-6.27-2.16-6.62-4.47Zm16.7-11.66c-4.75,0-8.78-3.46-8.78-10.22,0-5.9,4.11-9.65,8.57-9.65s8.64,3.74,8.64,9.94S467.17,634.28,462.92,634.28Zm-58.53,9.65h9.87l0.07-20.52c0-2.88.58-4.25,1.37-5.4a7.39,7.39,0,0,1,6-3.1c3.38,0,5.83,2.23,5.83,6.33v22.68h9.86V618.07c0-6.84-5-12.09-12.6-12.09-5.26,0-9,2.81-10.22,5.69l-0.43-4.32-9.65-.07Zm-18.29-4.18a15,15,0,0,0,1.22,4.18h10c-0.57-.5-1.51-2.16-1.51-5.19L395.68,620c-0.07-3.24-.29-4.18-0.57-5-1.44-5-5.54-9.07-15.48-9.07-11.45,0-15.91,5.83-15.91,12.24l8.64,0.14c0.43-2.45.79-3,1.58-3.67s2.8-1.73,5.76-1.73c4.61,0,6.34,2.45,6.34,4.18s-1.08,3-3.74,3.46l-9.94,1.73c-7.42,1.3-10.87,6.12-10.87,10.95,0,6.33,4.89,11.73,13.75,11.73C381.35,645,384.66,642.56,386.1,639.75Zm0-15.33v5.47c-0.29,4.61-3.38,7.78-8.71,7.78-4.18,0-6.19-2.45-6.19-4.61,0-1.73.87-4,6.77-5.4l4.25-1.15A8.08,8.08,0,0,0,386.1,624.41ZM378.91,603a5.11,5.11,0,1,0-5.33-5.11A5.14,5.14,0,0,0,378.91,603Zm-0.07-2.09a3,3,0,0,1-3.17-3,3.21,3.21,0,0,1,3-3.1,3.06,3.06,0,0,1,3,3.1A3,3,0,0,1,378.83,600.94Zm-59.11,45a10.74,10.74,0,0,0,3.6,7.34c2.23,2.16,6.34,4.18,13.47,4.18,7.92,0,13-3,15.48-6.12,1.65-2.23,2.52-4.25,2.52-9.72V607.28h-9.43l-0.29,4.46c-0.72-1.15-2.66-5.76-10.87-5.76-8.86,0-16.56,7.06-16.56,18.36s7.78,18.43,16.49,18.43c5.83,0,9.5-2.66,10.87-5.47v4c0,6.19-2.81,8.79-8.49,8.79-4.25,0-6.27-2.16-6.63-4.47Zm16.7-11.66c-4.75,0-8.78-3.46-8.78-10.22,0-5.9,4.1-9.65,8.56-9.65s8.64,3.74,8.64,9.94S340.68,634.28,336.43,634.28Zm-23.9,9.65v-7.56h-3.67A3.64,3.64,0,0,1,306,635c-0.22-.29-0.5-0.86-0.5-2.88V614h6.7v-6.7h-6.62l-0.07-11.59h-9.72v11.59h-5.19V614l5.19-.07v18.94c0,8.28,3.31,11,8.78,11h7.92Zm-38.16-4.11,0.5,4.11h9.29V607.35l-9.79-.07V627.8c0,5.62-3.31,8.49-7.34,8.49-3.6,0-5.9-1.94-5.9-7.13V607.28h-9.86v25.2c0,4.82,1.37,7.41,3.6,9.5a13.24,13.24,0,0,0,9.15,3.17A11.9,11.9,0,0,0,274.37,639.82Zm-40.75.36,0.36,3.74h9.79v-51h-9.94v18.5c-1.8-2.88-5.9-5.33-10.58-5.33C215,606.12,207,613,207,625.78a21.41,21.41,0,0,0,4.75,14,13.88,13.88,0,0,0,11.16,5.33A13.29,13.29,0,0,0,233.61,640.18Zm-7.85-3.53c-4.61,0-8.64-3.31-8.64-11.09,0-8.71,4.25-11.81,8.28-11.81s8.28,3.1,8.28,11.52C233.69,633.34,229.44,636.58,225.77,636.65Zm-44.71,8.71c11.81,0,19.73-7.92,19.73-19.87,0-11.74-8.06-19.66-19.44-19.66-11.09,0-19.3,7.92-19.3,19.66C162,637.45,170.26,645.36,181.06,645.36Zm0.57-7.71c-5.11,0-9.5-3.67-9.5-12.17,0-8.21,4.39-12,9.43-12,4.75,0,9.15,3.31,9.15,12.24C190.71,634.42,186,637.66,181.63,637.66ZM183,602.88h9.87v-9.94l-9.87-.07v10Zm-12.89,0H180v-9.94l-9.87-.07v10Zm-56.16,41h10.22V609.58l21,34.34h10.8V593H145.56v34.49l-21.31-34.56H114v51ZM341.13,190.18a37.69,37.69,0,0,1-37.42-37.42,37.44,37.44,0,1,1,74.89,0A37.7,37.7,0,0,1,341.13,190.18Z"/></svg>