<svg xmlns="http://www.w3.org/2000/svg" viewBox="0 0 595.28 850.36"><defs><style>.a{fill:#017e49;}.a,.b{fill-rule:evenodd;}.b{fill:#e5e8eb;}</style></defs><title>E003_C</title><polyline class="a" points="0 850.36 595.28 850.36 595.28 0 0 0 0 850.36"/><path class="b" d="M510.29,226.66h-142v-142H226.93v142H85.56V368H226.93V509.35H368.25V368h142V226.66ZM191,643.92H201.5V622.18h22.25v-8.35H201.57V601.44h26.14v-8.5H191v51ZM384.23,731h9.86V710.48c0-2.88.57-4.24,1.37-5.4a7.64,7.64,0,0,1,6-3.1c3.38,0,5.83,2.23,5.83,6.33V731h9.79V705.15c0-6.84-5-12.1-12.6-12.1-5.26,0-8.93,2.81-10.15,5.69l-0.43-4.32-9.65-.07ZM350,715.38l27.22,0.07c0-10.87-4.9-22.39-18.58-22.39-14,0-18.36,11.16-18.36,19.51,0,12.16,8.06,19.73,18.29,19.73s16.48-5.55,18-12l-9.94-.65c-1.87,3.38-4.39,4.75-7.63,4.75C354.35,724.45,350.53,721.28,350,715.38Zm0.43-7.13a8.38,8.38,0,0,1,8.06-7.49c4,0,7.41,2.73,8.14,7.49h-16.2Zm-43.27,18.5c2.09,3.39,5.76,5.47,10.73,5.47,10,0,16.2-9.29,16.2-19.73,0-10-6-19.3-16.05-19.3a13.13,13.13,0,0,0-10.58,5l-0.5-3.74-9.57.07V743h9.79v-16.2Zm8.86-2.09c-4.75,0-8.79-3.17-8.79-11.09,0-8.86,4.32-12,8.35-12s8.5,3.31,8.5,11.45C324.11,718.48,321.81,724.59,316,724.67ZM279.9,731h9.87V680H280Zm-17.64-4.18a14.88,14.88,0,0,0,1.3,4.18h9.94c-0.5-.5-1.51-2.16-1.51-5.19l-0.14-18.72a18.66,18.66,0,0,0-.5-5c-1.51-5-5.55-9.07-15.55-9.07-11.38,0-15.91,5.83-15.91,12.24l8.71,0.14c0.36-2.45.79-3,1.58-3.67s2.73-1.73,5.69-1.73c4.61,0,6.34,2.45,6.34,4.18s-1.08,3-3.74,3.46l-9.87,1.73c-7.49,1.3-10.87,6.12-10.87,10.95,0,6.33,4.82,11.73,13.75,11.73C257.51,732.08,260.9,729.63,262.26,726.83Zm0.07-15.33L262.26,717c-0.22,4.61-3.31,7.78-8.71,7.78-4.11,0-6.12-2.45-6.12-4.61,0-1.73.87-4,6.7-5.4l4.25-1.15A8.32,8.32,0,0,0,262.33,711.49ZM256.43,690l9.86,0.07,0.07-10h-9.94V690Zm-12.89,0h9.87l0.07-10h-9.87Zm-27.86,45v8l6.77-.07c6.27,0,9.29-3,9.29-9.65V694.36h-9.87V729c0,5.19-1.58,6-4,6h-2.23Zm6.19-46.15h9.87V680h-9.87v8.79ZM178,731h9.79l0.07-20.16c0-6,3.24-8.79,7.34-8.79,3.45,0,5.9,2,5.9,6.63L201.07,731h9.87V705.73c0-4.46-1.51-7.49-3.89-9.58a14,14,0,0,0-8.57-3.1c-5.33,0-9,2.52-10.66,5.9V680H178v51Zm214.92-91.26a10.25,10.25,0,0,0,1.15,4.18h10.08a5.47,5.47,0,0,1-1.66-3.81V620c0-8.78-4.53-14-16.48-14-11.09,0-15.7,6-15.48,12.24l8.71,0.14c0-2.74,2-5.33,7.06-5.33,4.82,0,6.41,2.38,6.41,4.11,0,1.51-.94,2.88-3.6,3.38l-5.62.94c-8.06,1.44-10.22,3-11.81,4.32a10.19,10.19,0,0,0-3.38,7.63c0,6,4.75,11.52,14,11.52C387.69,644.93,390.86,643.13,392.94,639.74ZM393,624.62l-0.07,4.61c0,5.18-3.24,8.42-8.86,8.42-4.18,0-6.12-2.45-6.12-4.68,0-1.73.57-3.67,6.77-5.4l4.32-1.15A12.84,12.84,0,0,0,393,624.62Zm-31,19.3v-7.56h-3.67a3.7,3.7,0,0,1-2.88-1.37c-0.21-.29-0.5-0.87-0.5-2.88V614h6.7v-6.7h-6.62L355,595.68h-9.79v11.59H340V614l5.19-.07V632.9c0,8.28,3.38,11,8.85,11h8ZM300.5,631.68c0.22,6.91,6,13.54,17.28,13.54s16.41-6.12,16.41-12.67a10.33,10.33,0,0,0-2.23-6.41c-1.37-1.73-3.17-3-7.49-4L314,619.66c-2.23-.58-3.17-1.94-3.17-3.24s1.37-3.67,6.12-3.67c5.26,0,7.56,2.73,7.63,5.69l8.64-.14a12.78,12.78,0,0,0-5.26-9.65c-2.09-1.51-5.47-2.81-10.87-2.81-10.51,0-15.19,5.69-15.19,12a9.43,9.43,0,0,0,2.52,6.91c1.3,1.37,3,2.52,7,3.38l8,1.8c4.61,1,5.19,2.45,5.19,4.18s-1.58,4.1-7,4.1c-5.19,0-7.78-2.73-8.07-6.55Zm-25.77,12.24h9.87l0.07-16.27c0-5.47,1.3-8,3-9.72a8.63,8.63,0,0,1,6.7-2.88,13.31,13.31,0,0,1,1.66.14l0.07-8.71a14.77,14.77,0,0,0-2.16-.21,9.51,9.51,0,0,0-9.14,6.55l-0.29-5.54H274.8ZM248,645.36c11.81,0,19.8-7.92,19.8-19.87,0-11.74-8.06-19.66-19.51-19.66-11.09,0-19.3,7.92-19.3,19.66C229,637.44,237.21,645.36,248,645.36Zm0.58-7.71c-5.11,0-9.5-3.67-9.5-12.16,0-8.21,4.46-12,9.43-12,4.75,0,9.14,3.31,9.14,12.24C257.66,634.42,253,637.65,248.59,637.65ZM250,602.88h9.86v-9.94l-9.86-.07v10Zm-12.89,0h9.86v-9.94l-9.86-.07v10Z"/></svg>