<svg xmlns="http://www.w3.org/2000/svg" viewBox="0 0 595.28 850.36"><defs><style>.a{fill:#017e49;}.a,.b{fill-rule:evenodd;}.b{fill:#e5e8eb;}</style></defs><title>E004_C</title><polyline class="a" points="0 850.36 595.28 850.36 595.28 0 0 0 0 850.36"/><path class="b" d="M512.28,126.3V170H468.56v43.72H424.85V170H381.19V126.3h43.65V82.59h43.72V126.3h43.71ZM354.11,455.1s-22.19-25.68-43-49.28c-17.36-19.38-31.91-37.42-31.91-37.42s-9.72,0-16,3.48C257.7,376,253.54,383,253.54,383l83.94,92.93s9.72-4.83,13.88-10.39A12.34,12.34,0,0,0,354.11,455.1ZM208.48,205.41c6.24-2.08,11.07-9,11.07-9s-6.91-29.83-13.15-58.94c-6.29-25-11.8-49.95-11.8-49.95s-4.16-4.16-8.31-4.89c-7.64-.68-18,2.81-18,2.81l24.95,120S201.51,207.49,208.48,205.41Zm11.8,206.71a50.65,50.65,0,0,1-9-13.21c-8.32-17.36-20.79-55.51-34-92.26-16.63-45.79-28.43-92.26-28.43-92.26s6.24-9,14.55-6.91a117.23,117.23,0,0,0,21.52,3.43l-25-122s-24.95-.73-43,7.59a107.73,107.73,0,0,0-31.24,23.6s-4.83,37.48-2.08,87.43c2.81,57.54,21.52,115.8,21.52,115.8s20.11,62.43,52,108.22C193.87,484.26,236.91,512,236.91,512s30.51-3.43,54.11-11.07a172.55,172.55,0,0,0,38.15-18.71l-83.94-93.66Zm-108,231.8h10.22V609.58l21,34.34h10.8V593H143.83v34.49l-21.31-34.56H112.23v51Zm337.88,0H460L460,623.4c0-2.88.57-4.25,1.37-5.4a7.4,7.4,0,0,1,6-3.1c3.39,0,5.83,2.23,5.83,6.33v22.68h9.86V618.07c0-6.84-5-12.1-12.6-12.1-5.26,0-9,2.81-10.23,5.69l-0.43-4.32-9.65-.07Zm-26.21,1.37c11.16,0,19.29-7.85,19.29-19.8,0-11.59-8.06-19.58-19.44-19.58-11,0-19.15,7.92-19.15,19.51C404.61,637.51,412.74,645.29,423.9,645.29Zm-0.07-7.7c-4.68,0-9.14-3.6-9.14-11.74,0-8.78,4.39-12.24,9.22-12.24s9.21,3.53,9.21,11.88C433.12,634.06,428.65,637.59,423.83,637.59Zm-41,6.33h9.86V613.83h7.13v-6.55h-7.13v-0.72c0-3.31.58-4.25,1.22-4.9,0.79-.86,1.87-1.51,4.32-1.44h1.58v-7.27h-5.61c-3.31,0-12.31.58-11.38,14.33h-5.33v6.55h5.33v30.09ZM345.64,628.3l27.22,0.07c0-10.87-5-22.39-18.57-22.39-14.11,0-18.43,11.16-18.43,19.51,0,12.16,8.06,19.73,18.29,19.73s16.56-5.55,18-12l-9.87-.65c-1.87,3.38-4.46,4.75-7.63,4.75C350,637.37,346.14,634.2,345.64,628.3Zm0.36-7.13a8.5,8.5,0,0,1,8.06-7.49c4,0,7.49,2.73,8.14,7.49H346Zm-26.92,22.75h9.86v-51h-9.79ZM285,628.3l27.14,0.07c0-10.87-5-22.39-18.5-22.39-14.11,0-18.43,11.16-18.43,19.51,0,12.16,8.06,19.73,18.29,19.73s16.49-5.55,17.93-12l-9.87-.65c-1.87,3.38-4.39,4.75-7.56,4.75C289.34,637.37,285.53,634.2,285,628.3Zm0.36-7.13a8.49,8.49,0,0,1,8.06-7.49c4,0,7.41,2.73,8.06,7.49H285.38Zm-15.26,22.75v-7.56h-3.67a3.65,3.65,0,0,1-2.8-1.37c-0.22-.29-0.5-0.87-0.5-2.88V614h6.7v-6.7H263.2l-0.07-11.59h-9.79v11.59h-5.19V614l5.19-.07v18.94c0,8.28,3.38,11,8.86,11h7.92Zm-38.23-3.74,0.36,3.74H242v-51H232.1v18.5c-1.8-2.88-5.9-5.33-10.58-5.33-8.21,0-16.27,6.84-16.27,19.66a21.41,21.41,0,0,0,4.75,14,13.88,13.88,0,0,0,11.16,5.33A13.3,13.3,0,0,0,231.89,640.18ZM224,636.65c-4.61,0-8.64-3.31-8.64-11.09,0-8.71,4.25-11.81,8.28-11.81s8.28,3.1,8.28,11.52C232,633.34,227.71,636.58,224,636.65Zm-44.71,8.71c11.8,0,19.72-7.92,19.72-19.87,0-11.74-8.06-19.66-19.44-19.66-11.09,0-19.3,7.92-19.3,19.66C160.32,637.44,168.53,645.36,179.33,645.36Zm0.57-7.71c-5.11,0-9.5-3.67-9.5-12.16,0-8.21,4.39-12,9.43-12,4.75,0,9.14,3.31,9.14,12.24C189,634.42,184.3,637.65,179.9,637.65Zm1.37-34.77h9.86v-9.94l-9.86-.07v10Zm-12.89,0h9.86v-9.94l-9.86-.07v10Z"/></svg>