<svg xmlns="http://www.w3.org/2000/svg" viewBox="0 0 595.28 850.37"><defs><style>.a{fill:#017e49;}.a,.b{fill-rule:evenodd;}.b{fill:#e5e8eb;}</style></defs><title>E007_C</title><polyline class="a" points="0 850.37 595.28 850.37 595.28 0 0 0 0 850.37"/><path class="b" d="M365.83,413.64V263.14a1.74,1.74,0,0,1,3.48,0v63.14c0,10.64,16,10.64,16,0V261.79a23.6,23.6,0,0,0-23.6-23.6h-30.5a23.59,23.59,0,0,0-23.6,23.6v64.49c0,10.64,16,10.64,16,0V263.14a1.41,1.41,0,0,1,2.81,0V413.64c0,12.47,18.71,12.47,18.71,0V322.8a1.38,1.38,0,0,1,2.75,0v90.85C347.79,425.66,365.83,425.66,365.83,413.64Zm-97.4-.16V263a1.74,1.74,0,1,1,3.48,0v63.14c0,10.64,16,10.64,16,0v-64.5A23.59,23.59,0,0,0,264.27,238H233.76a23.59,23.59,0,0,0-23.6,23.59v64.5c0,10.64,16,10.64,16,0V263a1.4,1.4,0,1,1,2.81,0v150.5c0,12.47,18.71,12.47,18.71,0V322.64a1.38,1.38,0,1,1,2.75,0v90.84C250.39,425.51,268.43,425.51,268.43,413.48ZM232.78,217.57a15.88,15.88,0,1,0,15.84-15.91A15.79,15.79,0,0,0,232.78,217.57Zm97.79,0.05a15.88,15.88,0,1,0,15.84-15.91A15.79,15.79,0,0,0,330.57,217.62Zm-48.92-30.2a15.88,15.88,0,1,0,15.84-15.91A15.79,15.79,0,0,0,281.65,187.42ZM111,401.67h82.53v82.58l-27.75,28.42V450.94L104,512.68,82.55,491.16l61.69-61.74H82.55Zm401.57,89.49-61.74-61.74h61.74l-28.42-27.75H401.6v82.58L430,512.68V450.94l61,61.74Zm0-326H450.81l61.74-61.07L491,82.62l-61,61.74V82.62L401.6,111.1v82.53h82.53ZM165.76,82.62v61.74L104,82.62,82.55,104.14l61.69,61.07H82.55L111,193.63h82.53V111.1Zm-106,545.33c0,9.36,7.06,17.71,21.89,17.71s21.38-8,21.38-16.56c0-6.41-4-12.24-12.74-14.47l-12.1-3c-3.6-.94-4-1.37-4.75-2.16a4.93,4.93,0,0,1-1.37-3.38c0-3,2.52-6.48,9.79-6.48a11,11,0,0,1,7.78,2.74A8.32,8.32,0,0,1,92,607.79l10.15,0.14c-0.43-5.62-2.3-9-5.11-11.59s-8.35-5.11-15.77-5.11c-13.54,0-19.73,7.56-19.73,16,0,6.48,3.6,11.74,12.6,14l10.37,2.66c1.87,0.43,4.61.79,6.27,3a6.08,6.08,0,0,1,1.29,3.38c0,3.31-2.52,7.06-10.8,7.06-8,0-11.3-4.18-11.16-9.22Zm441.93,3.74c0.21,6.91,6,13.54,17.28,13.54,11.45,0,16.42-6.12,16.42-12.67a10.35,10.35,0,0,0-2.23-6.41c-1.37-1.72-3.17-3-7.49-4l-10.51-2.45c-2.23-.57-3.1-1.94-3.1-3.24s1.29-3.67,6.12-3.67c5.19,0,7.49,2.73,7.56,5.69l8.71-.14a13.23,13.23,0,0,0-5.26-9.65c-2.16-1.51-5.54-2.81-10.87-2.81-10.58,0-15.26,5.69-15.26,12a9.46,9.46,0,0,0,2.59,6.91c1.3,1.37,2.88,2.52,7,3.38l7.92,1.8c4.61,1,5.19,2.45,5.19,4.18s-1.51,4.11-7,4.11c-5.11,0-7.78-2.73-8.06-6.55Zm-6.48,12.24v-7.56h-3.67a3.8,3.8,0,0,1-2.88-1.37,5.78,5.78,0,0,1-.44-2.88V614h6.63v-6.7H488.2l-0.07-11.59h-9.79v11.59h-5.19V614l5.25-.07-0.07,18.94c0,8.28,3.38,11,8.86,11h8Zm-37.73-4.18a11.64,11.64,0,0,0,1.15,4.18h10.08a5.79,5.79,0,0,1-1.65-3.82V620c0-8.79-4.54-14-16.49-14-11.09,0-15.7,6-15.48,12.24l8.71,0.14c0-2.73,2-5.33,7.06-5.33,4.82,0,6.48,2.37,6.48,4.1,0,1.51-.94,2.88-3.6,3.39l-5.69.94c-8.06,1.44-10.22,3-11.81,4.32a10.13,10.13,0,0,0-3.31,7.63c0,6,4.75,11.52,14,11.52C452.2,644.93,455.37,643.14,457.45,639.75Zm0.07-15.12-0.07,4.61c0,5.19-3.24,8.42-8.86,8.42-4.1,0-6.12-2.45-6.12-4.68,0-1.73.65-3.67,6.84-5.4l4.25-1.15A12.13,12.13,0,0,0,457.53,624.63Zm-41.26,19.3h9.94V593h-9.86Zm-33.84-4.25c2.09,3.38,5.76,5.47,10.73,5.47,10,0,16.2-9.29,16.2-19.73,0-10-6-19.3-16.06-19.3a13.37,13.37,0,0,0-10.65,5l-0.43-3.74-9.72.07,0.07,48.46h9.86v-16.2Zm8.79-2.09c-4.68,0-8.71-3.17-8.71-11.09,0-8.86,4.32-12,8.35-12s8.49,3.31,8.49,11.45C399.35,631.4,397,637.52,391.22,637.59Zm-59.69-5.9c0.22,6.91,6,13.54,17.28,13.54,11.45,0,16.41-6.12,16.41-12.67a10.37,10.37,0,0,0-2.23-6.41c-1.37-1.72-3.17-3-7.49-4L345,619.66c-2.23-.57-3.1-1.94-3.1-3.24s1.3-3.67,6.12-3.67c5.19,0,7.49,2.73,7.56,5.69l8.71-.14a13.23,13.23,0,0,0-5.25-9.65c-2.16-1.51-5.54-2.81-10.87-2.81-10.58,0-15.26,5.69-15.26,12a9.46,9.46,0,0,0,2.59,6.91c1.29,1.37,2.88,2.52,7,3.38l7.92,1.8c4.61,1,5.18,2.45,5.18,4.18s-1.51,4.11-7,4.11c-5.11,0-7.78-2.73-8.06-6.55ZM289.7,645.94c0.43,3.46,1.44,5.4,3.53,7.35,2.23,2.16,6.33,4.18,13.39,4.18,7.92,0,13-3,15.48-6.12,1.65-2.23,2.59-4.25,2.59-9.72l-0.07-34.34h-9.36l-0.36,4.46c-0.65-1.15-2.66-5.76-10.8-5.76-8.79,0-16.56,7.06-16.56,18.36s7.78,18.43,16.42,18.43c5.9,0,9.5-2.66,10.94-5.47l-0.07,4c0,6.19-2.81,8.78-8.5,8.78-4.24,0-6.26-2.16-6.62-4.46Zm16.63-11.66c-4.82,0-8.78-3.46-8.78-10.22,0-5.9,4-9.65,8.57-9.65s8.64,3.74,8.64,9.94S310.51,634.28,306.33,634.28Zm-58.53,9.65h9.94V623.41c0-2.88.58-4.25,1.37-5.4a7.53,7.53,0,0,1,6-3.1c3.38,0,5.83,2.23,5.83,6.33l-0.07,22.68h9.86V618.08c0-6.84-5-12.1-12.6-12.1-5.26,0-8.93,2.81-10.22,5.69l-0.36-4.32-9.72-.07Zm-17.49,0h9.87V607.28h-9.79Zm0.07-42.19h9.86V593h-9.86v8.79Zm-17.57,42.19h9.94V593h-9.87Zm-61.34,0h9.94V622.76c0-5.25,3-7.92,6.91-7.92a4.89,4.89,0,0,1,4.9,3.1c0.14,0.36.43,1.15,0.43,4v22h9.79V622.19c0-4.75,3-7.49,6.84-7.49,3.31,0,5.54,2,5.54,6.33v22.9h9.72l-0.07-25.71c-0.22-7.7-5.11-12.1-11.73-12.1a12.22,12.22,0,0,0-11.23,6.41,12,12,0,0,0-10.8-6.41c-5,0-8.28,2.16-10.22,5.83l-0.36-4.61-9.58-.07Zm-18.29-4.18a11.59,11.59,0,0,0,1.15,4.18h10.08a5.81,5.81,0,0,1-1.65-3.82V620c0-8.79-4.54-14-16.49-14-11.09,0-15.7,6-15.48,12.24l8.71,0.14c0-2.73,2-5.33,7.05-5.33,4.82,0,6.48,2.37,6.48,4.1,0,1.51-.94,2.88-3.6,3.39l-5.69.94c-8.06,1.44-10.22,3-11.81,4.32a10.13,10.13,0,0,0-3.31,7.63c0,6,4.75,11.52,14,11.52C127.92,644.93,131.09,643.14,133.18,639.75Zm0.07-15.12-0.07,4.61c0,5.19-3.24,8.42-8.86,8.42-4.11,0-6.12-2.45-6.12-4.68,0-1.73.65-3.67,6.84-5.4l4.25-1.15A12.11,12.11,0,0,0,133.25,624.63Z"/></svg>