<svg xmlns="http://www.w3.org/2000/svg" viewBox="0 0 595.28 850.37"><defs><style>.a{fill:#017e49;}.a,.b{fill-rule:evenodd;}.b{fill:#e5e8eb;}</style></defs><title>E008_C</title><polyline class="a" points="0 850.37 595.28 850.37 595.28 0 0 0 0 850.37"/><path class="b" d="M356.16,233.89l18.77,20.79c4.64,5.13-3.45,10.88-7.64,6.23l-31.91-35.34c-6.46-7.15-17.88,2.23-11.12,9.66l13.88,15.28c6.31,6.95-4.35,15.83-10.39,9l-34-38.15c-6-6.74-16.57,2-10.39,9l22.19,24.94c6.57,7.39-4.58,16.94-11.07,9.72l-30.56-34a8.81,8.81,0,0,0-14.55,2.08l-13.2,28.49h22.92l19.44,22.19-1.41,37.42c-0.16,4.3-7.34,5.83-9,2.81l-2.75-4.89h-35.4L258.4,356l76.3,30.51L512.25,513.42V388.57L420,346.27,395,258.84l-29.16-33.26C360.33,219.24,350.29,227.39,356.16,233.89Zm-84.62-9c1.81-15.16,18.31-21.89,29.16-10.4l12.47,13.21c1.62-15.41,21.44-19.23,29.83-9l3.43,4.16c4-9.61,18.69-12.73,26.41-4.16L404.71,254l2.81,11.8h61l-20.11,53.38H422.74l5.56,20.12L465.11,356,515,338.62l-34-71.47,31.24-135.24L345.77,197.82,295.14,82.64,239.63,177,82.87,125.68,161.93,263,85.62,382.34l102,6.23L182.1,512l102.65-82.54,111.65,79.78V442.68l-66.58-47.2L252.1,364.3l-34.67-45.12h-74.9l34-53.38h47.14L240.36,229C247.82,212.55,267.5,216.62,271.54,224.85ZM116.4,643.93h10.51V625.35l5.25-5.47,16.49,24h12.81l-21.89-30.81L158.88,593l-13,.07-18.94,20.23L126.84,593,116.4,593v51ZM435.78,731v-7.56h-3.67a3.81,3.81,0,0,1-2.88-1.37,5.88,5.88,0,0,1-.43-2.88V701.06h6.62v-6.7h-6.62l-0.07-11.59h-9.79v11.59h-5.18v6.77l5.26-.07L418.93,720c0,8.28,3.39,11,8.86,11h8Zm-61.56-12.24c0.22,6.91,6,13.54,17.28,13.54s16.41-6.12,16.41-12.67a10.36,10.36,0,0,0-2.23-6.41c-1.37-1.73-3.17-3-7.49-4l-10.51-2.45c-2.23-.58-3.1-1.95-3.1-3.24s1.29-3.67,6-3.67c5.26,0,7.56,2.74,7.63,5.69l8.71-.15a13.22,13.22,0,0,0-5.25-9.64c-2.16-1.51-5.54-2.81-10.94-2.81-10.51,0-15.19,5.69-15.19,12a9.72,9.72,0,0,0,2.52,6.91c1.37,1.37,3,2.52,7.06,3.38l7.92,1.8c4.61,1,5.18,2.45,5.18,4.18s-1.51,4.11-7,4.11c-5.18,0-7.78-2.74-8.06-6.55ZM313.6,731h9.86l0.07-21.16c0-5.26,3-7.92,6.91-7.92a4.88,4.88,0,0,1,4.9,3.1c0.14,0.36.43,1.15,0.43,4v22h9.79V709.26c0-4.75,3-7.48,6.84-7.48,3.31,0,5.54,2,5.54,6.34V731h9.72l-0.07-25.7c-0.22-7.7-5.11-12.1-11.73-12.1a12.34,12.34,0,0,0-11.31,6.41,11.75,11.75,0,0,0-10.73-6.41c-5,0-8.28,2.16-10.22,5.83l-0.36-4.61-9.58-.07Zm-26.14,1.37c11.09,0,19.22-7.85,19.22-19.8,0-11.59-8-19.58-19.3-19.58-11.09,0-19.22,7.92-19.22,19.51C268.17,724.6,276.3,732.38,287.46,732.38Zm-0.07-7.71c-4.68,0-9.14-3.6-9.14-11.73,0-8.79,4.39-12.24,9.22-12.24s9.22,3.53,9.22,11.88C296.68,721.15,292.21,724.67,287.39,724.67ZM227.7,731h9.86l-0.07-12,4.18-4.11L251.75,731h12l-15.05-22.53,13.11-14.11H250.24l-12.67,14L237.5,680h-9.87Zm-6.91,0v-7.56h-3.67a3.81,3.81,0,0,1-2.88-1.37,5.8,5.8,0,0,1-.43-2.88V701.06h6.63v-6.7h-6.63l-0.07-11.59h-9.79v11.59h-5.19v6.77l5.26-.07L203.94,720c0,8.28,3.38,11,8.86,11h8Zm-36.65-4.18a15,15,0,0,0,1.3,4.18h9.94c-0.58-.5-1.51-2.16-1.51-5.18l-0.14-18.72a18.57,18.57,0,0,0-.5-5c-1.51-5-5.62-9.07-15.55-9.07-11.38,0-15.91,5.83-15.91,12.24l8.71,0.14c0.36-2.45.72-3,1.51-3.67s2.81-1.73,5.76-1.73c4.61,0,6.33,2.45,6.33,4.18s-1.08,3-3.74,3.46l-9.94,1.73c-7.42,1.29-10.87,6.12-10.87,10.94,0,6.34,4.89,11.73,13.75,11.73C179.39,732.09,182.78,729.64,184.14,726.83Zm0-15.33V717c-0.21,4.61-3.38,7.78-8.71,7.78-4.18,0-6.12-2.45-6.12-4.61,0-1.72.86-4,6.7-5.4l4.25-1.15A7.79,7.79,0,0,0,184.14,711.5Zm-7.2-21.38a5.11,5.11,0,1,0-5.33-5.11A5.14,5.14,0,0,0,176.95,690.12ZM176.87,688a3,3,0,0,1-3.17-3,3.2,3.2,0,0,1,3-3.1A3.06,3.06,0,0,1,176.87,688Zm280.66-44.1h9.86V627.65c0-5.47,1.37-8,3-9.72a8.83,8.83,0,0,1,6.7-2.88,14.51,14.51,0,0,1,1.73.14v-8.71a14.12,14.12,0,0,0-2.09-.22,9.45,9.45,0,0,0-9.14,6.55l-0.29-5.55h-9.72v36.65Zm-26.71,1.44c11.81,0,19.73-7.92,19.73-19.87,0-11.73-8.07-19.65-19.44-19.65-11.09,0-19.3,7.92-19.3,19.65C411.81,637.45,420,645.37,430.82,645.37Zm0.57-7.7c-5.11,0-9.5-3.67-9.5-12.17,0-8.21,4.39-12,9.43-12,4.75,0,9.14,3.31,9.14,12.24C440.46,634.42,435.79,637.66,431.39,637.66Zm1.37-34.77h9.87L442.55,593l-9.79-.07v10Zm-12.89,0h9.87L429.66,593l-9.79-.07v10Zm-29.45,41h9.86V613.83h7.13v-6.55h-7.13v-0.72c0-3.31.57-4.25,1.22-4.89,0.79-.87,1.87-1.51,4.25-1.44h1.65V593H401.8c-3.38,0-12.31.57-11.37,14.32H385.1v6.55h5.33v30.09Zm-52-4.18a11.46,11.46,0,0,0,1.23,4.18h10a6.19,6.19,0,0,1-1.65-3.81L348.09,620c0-8.78-4.61-14-16.56-14-11.09,0-15.7,6-15.48,12.24l8.71,0.14c0-2.73,2.09-5.33,7.13-5.33,4.75,0,6.41,2.38,6.41,4.11,0,1.51-.94,2.88-3.6,3.38l-5.62.94c-8.14,1.44-10.3,3-11.81,4.32a9.94,9.94,0,0,0-3.38,7.63c0,6,4.75,11.52,14,11.52C333.26,644.93,336.36,643.14,338.44,639.75Zm0.07-15.12-0.07,4.61c0,5.19-3.17,8.42-8.86,8.42-4.1,0-6-2.45-6-4.68,0-1.73.58-3.67,6.77-5.4l4.24-1.15A11.42,11.42,0,0,0,338.51,624.63Zm-63.86,7.05c0.14,6.91,6,13.54,17.21,13.54s16.42-6.12,16.42-12.67a10.43,10.43,0,0,0-2.3-6.41c-1.37-1.73-3.1-3-7.49-4L288,619.66c-2.23-.58-3.1-1.95-3.1-3.24s1.3-3.67,6.12-3.67c5.18,0,7.42,2.74,7.48,5.69l8.71-.14a13,13,0,0,0-5.26-9.65c-2.16-1.51-5.47-2.81-10.8-2.81-10.58,0-15.26,5.69-15.26,12a9.45,9.45,0,0,0,2.59,6.91c1.3,1.37,2.88,2.52,7,3.38l7.92,1.8c4.54,1,5.11,2.45,5.11,4.18s-1.44,4.11-6.84,4.11c-5.18,0-7.85-2.74-8.13-6.55Zm-40.25,0c0.14,6.91,6,13.54,17.21,13.54,11.45,0,16.48-6.12,16.48-12.67a10.41,10.41,0,0,0-2.3-6.41c-1.37-1.73-3.1-3-7.49-4l-10.51-2.45c-2.23-.58-3.1-1.95-3.1-3.24s1.3-3.67,6.12-3.67c5.18,0,7.48,2.74,7.56,5.69l8.71-.14a13,13,0,0,0-5.26-9.65c-2.16-1.51-5.55-2.81-10.87-2.81-10.58,0-15.26,5.69-15.26,12a9.45,9.45,0,0,0,2.59,6.91c1.3,1.37,2.88,2.52,7,3.38l7.92,1.8c4.61,1,5.19,2.45,5.19,4.18s-1.51,4.11-6.91,4.11c-5.19,0-7.85-2.74-8.14-6.55ZM209.06,645.3c11.09,0,19.22-7.85,19.22-19.8,0-11.59-8-19.58-19.37-19.58-11.09,0-19.15,7.92-19.15,19.51C189.77,637.52,197.9,645.3,209.06,645.3ZM209,637.59c-4.68,0-9.22-3.6-9.22-11.73,0-8.79,4.39-12.24,9.22-12.24s9.29,3.53,9.29,11.88C218.28,634.06,213.81,637.59,209,637.59Zm-43.7,6.34h9.87V627.65c0-5.47,1.37-8,3-9.72a8.83,8.83,0,0,1,6.7-2.88,14.51,14.51,0,0,1,1.73.14v-8.71a14.12,14.12,0,0,0-2.09-.22,9.45,9.45,0,0,0-9.14,6.55L175,607.28h-9.72v36.65Z"/></svg>