<svg xmlns="http://www.w3.org/2000/svg" viewBox="0 0 595.28 850.36"><defs><style>.a{fill:#017e49;}.a,.b{fill-rule:evenodd;}.b{fill:#e5e8eb;}</style></defs><title>E009_C</title><polyline class="a" points="0 850.36 595.28 850.36 595.28 0 0 0 0 850.36"/><path class="b" d="M158.79,400.81a6.63,6.63,0,1,0,6.63-6.63A6.64,6.64,0,0,0,158.79,400.81Zm3.9,27.49c3.5,30.67,18.7,71.25,57.56,69.08,20.78-2.08,37.47-18.71,40.22-39.49V343.45c55.57-6,81.78-73.28,82.53-120,0.12-7.52-10.53-8.52-11.07-.68-2.37,34.71-10.08,59-27.75,83.2-26,35.65-74.47,34-98.48,0a144.85,144.85,0,0,1-27.08-83.2c0-7.34-12-7.34-11.8.68,1,48.46,27.65,114.39,82.53,120V457.16c-2.75,16.69-16,28.48-32.58,29.16-28.39-.94-37.14-27.82-42.9-59.24h0a27.66,27.66,0,1,0-11.19,1.2Zm92.24-296.42c-92,0-92,152.49,0,152.59C346.72,284.56,346.72,131.85,254.92,131.88Zm257.27-5.46H468.54V82.71H424.83v43.71H381.12v43.65h43.71v43.71h43.71V170.07h43.65V126.42ZM254.89,474.57l-6.24-13.88-72.81-163-7.64,1.4A109.77,109.77,0,0,0,82.86,406.59V512H351.29V410.75h13.2V512h62.41V406.59a110.49,110.49,0,0,0-85.33-107.47l-7.59-1.4L257,471.08Zm-71,169.35h35.28v-8.78H194.52V592.95H183.94v51ZM384,628.3l27.21,0.07c0-10.87-5-22.39-18.57-22.39-14,0-18.43,11.16-18.43,19.51,0,12.17,8.06,19.73,18.29,19.73s16.56-5.54,18-12l-9.86-.65c-1.87,3.38-4.47,4.75-7.63,4.75C388.34,637.37,384.52,634.2,384,628.3Zm0.43-7.13a8.38,8.38,0,0,1,8-7.49c4,0,7.49,2.74,8.14,7.49H384.45Zm-34.7,22.75h9.87l0.07-16.27c0-5.47,1.3-8,3-9.72a8.62,8.62,0,0,1,6.7-2.88,13.32,13.32,0,0,1,1.66.14l0.07-8.71a14.16,14.16,0,0,0-2.16-.22,9.51,9.51,0,0,0-9.14,6.55l-0.29-5.55h-9.65Zm-18.29-4.18a10.24,10.24,0,0,0,1.15,4.18h10.08a5.47,5.47,0,0,1-1.66-3.81V620c0-8.78-4.53-14-16.48-14-11.09,0-15.7,6-15.48,12.24l8.64,0.14c0-2.73,2.09-5.33,7.13-5.33,4.82,0,6.41,2.38,6.41,4.11,0,1.51-.94,2.88-3.6,3.38l-5.62.94c-8.06,1.44-10.3,3-11.81,4.32a10.2,10.2,0,0,0-3.38,7.63c0,6,4.75,11.52,14,11.52C326.2,644.93,329.37,643.13,331.46,639.74Zm0-15.12v4.61c0,5.19-3.24,8.42-8.86,8.42-4.18,0-6.12-2.45-6.12-4.68,0-1.73.57-3.67,6.77-5.4l4.32-1.15A11.62,11.62,0,0,0,331.46,624.63Zm-66.24,19.29h9.94l-0.07-12,4.18-4.11,10.08,16.13h12l-15-22.53,13.1-14.12H287.76l-12.6,14L275,592.95h-9.79v51Zm-17.57-4.18a14.79,14.79,0,0,0,1.22,4.18h10c-0.58-.5-1.51-2.16-1.51-5.18L257.23,620a18.38,18.38,0,0,0-.5-5c-1.51-5-5.61-9.07-15.55-9.07-11.45,0-15.91,5.83-15.91,12.24l8.64,0.14c0.44-2.45.79-3,1.59-3.67s2.81-1.73,5.76-1.73c4.61,0,6.33,2.45,6.33,4.18s-1.08,3-3.74,3.46l-9.94,1.73c-7.41,1.29-10.87,6.12-10.87,10.94,0,6.33,4.9,11.74,13.75,11.74C242.9,645,246.21,642.55,247.65,639.74Zm0-15.33v5.47c-0.29,4.61-3.38,7.78-8.71,7.78-4.18,0-6.12-2.45-6.12-4.61,0-1.72.79-4,6.7-5.4l4.25-1.15A8.11,8.11,0,0,0,247.65,624.41Zm-5.9-21.53,9.86,0.07,0.07-10h-9.87Zm-12.82,0h9.79l0.14-10h-9.94v10Z"/></svg>