<svg xmlns="http://www.w3.org/2000/svg" viewBox="0 0 595.28 850.36"><defs><style>.a{fill:#017e49;}.a,.b{fill-rule:evenodd;}.b{fill:#e5e8eb;}</style></defs><title>E010_C</title><polyline class="a" points="0 850.36 595.28 850.36 595.28 0 0 0 0 850.36"/><path class="b" d="M512.61,126.36v43.72H468.95v43.71H425.24V170.07H381.53V126.36h43.71V82.65h43.71v43.71h43.66ZM257.36,499.54C148.47,426.05,96.44,353.18,96.44,295.64c0-50.68,38.15-92.26,86-92.26,31.92,0,60.34,18.71,74.9,47.14,15.28-28.43,43-47.14,75-47.14,47.82,0,86.7,41.58,86.7,92.26C419,353.18,367,426.05,257.36,499.54Zm40.93-255.22-43,89.5H310L212.94,448.28l36.74-89.51H195.58ZM80.62,643.92H91.06V621.39h20.23v22.53h10.37l0.07-51H111.22V613H91.06V592.95H80.69ZM487.33,628.3l27.14,0.07c0-10.87-4.89-22.39-18.57-22.39-14,0-18.36,11.16-18.36,19.51,0,12.17,8.06,19.73,18.29,19.73s16.49-5.54,18-12l-9.86-.65c-1.94,3.38-4.46,4.75-7.63,4.75C491.65,637.37,487.84,634.2,487.33,628.3Zm0.36-7.13a8.5,8.5,0,0,1,8.06-7.49c4,0,7.49,2.74,8.13,7.49h-16.2Zm-34.63,22.75h9.86V627.65c0-5.47,1.37-8,3-9.72a8.83,8.83,0,0,1,6.7-2.88,14.45,14.45,0,0,1,1.73.14v-8.71a13.06,13.06,0,0,0-2.09-.22,9.52,9.52,0,0,0-9.14,6.55l-0.29-5.55h-9.65Zm-18.29-4.18a10.31,10.31,0,0,0,1.15,4.18h10a6.22,6.22,0,0,1-1.66-3.81L444.35,620c0-8.78-4.61-14-16.49-14-11.09,0-15.7,6-15.55,12.24l8.71,0.14c0-2.73,2.09-5.33,7.13-5.33,4.82,0,6.41,2.38,6.41,4.11,0,1.51-.94,2.88-3.6,3.38l-5.62.94c-8.13,1.44-10.29,3-11.81,4.32a10,10,0,0,0-3.38,7.63c0,6,4.75,11.52,14,11.52C429.52,644.93,432.61,643.13,434.78,639.74Zm0-15.12v4.61c0,5.19-3.24,8.42-8.93,8.42-4.11,0-6-2.45-6-4.68,0-1.73.57-3.67,6.77-5.4l4.25-1.15A11.42,11.42,0,0,0,434.78,624.63Zm-31,19.29v-7.56h-3.67a3.65,3.65,0,0,1-2.81-1.37c-0.22-.29-0.5-0.86-0.5-2.88V614h6.7v-6.7H396.9l-0.14-11.59H387v11.59h-5.11V614L387,614V632.9c0,8.28,3.38,11,8.78,11h8Zm-47.45,0h9.87V627.65c0-5.47,1.37-8,3-9.72a8.83,8.83,0,0,1,6.7-2.88,14.51,14.51,0,0,1,1.73.14v-8.71a13.07,13.07,0,0,0-2.09-.22,9.52,9.52,0,0,0-9.14,6.55l-0.29-5.55h-9.65Zm-18.29-4.18a10.31,10.31,0,0,0,1.15,4.18h10a6.21,6.21,0,0,1-1.65-3.81L347.66,620c0-8.78-4.61-14-16.49-14-11.09,0-15.7,6-15.55,12.24l8.71,0.14c0-2.73,2.09-5.33,7.13-5.33,4.82,0,6.41,2.38,6.41,4.11,0,1.51-.94,2.88-3.6,3.38l-5.62.94c-8.14,1.44-10.3,3-11.81,4.32a9.94,9.94,0,0,0-3.38,7.63c0,6,4.75,11.52,14,11.52C332.83,644.93,335.92,643.13,338.08,639.74Zm0-15.12v4.61c0,5.19-3.24,8.42-8.93,8.42-4.11,0-6-2.45-6-4.68,0-1.73.58-3.67,6.77-5.4l4.25-1.15A11.43,11.43,0,0,0,338.08,624.63Zm-31,19.29v-7.56h-3.67a3.66,3.66,0,0,1-2.81-1.37c-0.21-.29-0.5-0.86-0.5-2.88V614h6.69v-6.7h-6.62l-0.14-11.59h-9.72v11.59h-5.11V614l5.18-.07V632.9c0,8.28,3.38,11,8.71,11h8Zm-61.42-12.24c0.14,6.91,6,13.54,17.21,13.54,11.45,0,16.49-6.12,16.49-12.67a10.41,10.41,0,0,0-2.3-6.41c-1.37-1.73-3.1-3-7.41-4l-10.58-2.45c-2.16-.58-3.1-1.95-3.1-3.24s1.29-3.67,6.12-3.67c5.26,0,7.56,2.74,7.56,5.69l8.71-.14a13,13,0,0,0-5.26-9.65c-2.16-1.51-5.54-2.81-10.87-2.81-10.58,0-15.19,5.69-15.19,12a9.4,9.4,0,0,0,2.52,6.91c1.3,1.37,2.88,2.52,7,3.38l7.92,1.8c4.68,1,5.19,2.45,5.19,4.18s-1.51,4.11-6.91,4.11c-5.18,0-7.85-2.74-8.13-6.55Zm-6.55,12.24v-7.56h-3.67a3.66,3.66,0,0,1-2.81-1.37c-0.22-.29-0.5-0.86-0.5-2.88V614h6.7v-6.7h-6.62l-0.14-11.59h-9.79v11.59H217.2V614l5.18-.07V632.9c0,8.28,3.39,11,8.79,11h8Zm-47.44,0h9.86V627.65c0-5.47,1.37-8,3-9.72a8.83,8.83,0,0,1,6.7-2.88,14.45,14.45,0,0,1,1.73.14v-8.71a13.07,13.07,0,0,0-2.09-.22,9.52,9.52,0,0,0-9.15,6.55l-0.29-5.55h-9.65Zm-18.29-4.18a12.72,12.72,0,0,0,1.22,4.18h10c-0.57-.5-1.51-2.16-1.51-5.18L183,620c-0.07-3.24-.29-4.18-0.57-5-1.44-5-5.55-9.07-15.48-9.07C155.5,606,151,611.81,151,618.22l8.64,0.14c0.43-2.45.79-3,1.59-3.67S164,613,166.94,613c4.61,0,6.41,2.45,6.41,4.18s-1.08,3-3.81,3.46l-9.87,1.73c-7.41,1.29-10.87,6.12-10.87,10.94,0,6.33,4.9,11.74,13.75,11.74C168.67,645,172,642.55,173.43,639.74Zm0-15.33v5.47c-0.29,4.61-3.39,7.78-8.79,7.78-4.1,0-6.12-2.45-6.12-4.61,0-1.72.86-4,6.69-5.4l4.32-1.15A8.13,8.13,0,0,0,173.43,624.41Zm-5.9-21.53,9.86,0.07,0.07-10h-9.94v9.94Zm-12.89,0h9.86l0.07-10H154.7Zm-27.86,45v8l6.84-.07c6.19,0,9.29-3,9.29-9.65l-0.07-38.88H133V641.9c0,5.19-1.51,6-4,6h-2.23ZM133,601.73h9.87v-8.78H133v8.78Z"/></svg>