<svg xmlns="http://www.w3.org/2000/svg" viewBox="0 0 595.28 850.37"><defs><style>.a{fill:#017e49;}.a,.b{fill-rule:evenodd;}.b{fill:#e5e8eb;}</style></defs><title>E011_C</title><polyline class="a" points="0 850.37 595.28 850.37 595.28 0 0 0 0 850.37"/><path class="b" d="M287.22,352.06a8.29,8.29,0,1,0,16.57,0A8.29,8.29,0,0,0,287.22,352.06Zm-24,0a8.29,8.29,0,1,0,16.58,0A8.29,8.29,0,0,0,263.24,352.06Zm-21.81,0a8.29,8.29,0,1,0,16.57,0A8.29,8.29,0,0,0,241.43,352.06Zm-19.44,0a8.29,8.29,0,1,0,16.57,0A8.29,8.29,0,0,0,222,352.06Zm-19.44,0a8.29,8.29,0,1,0,16.58,0A8.29,8.29,0,0,0,202.55,352.06Zm-21.46,0a8.29,8.29,0,1,0,16.58,0A8.29,8.29,0,0,0,181.09,352.06Zm-24.33,0a8.29,8.29,0,1,0,16.58,0A8.29,8.29,0,0,0,156.76,352.06ZM292,332a8.29,8.29,0,1,0,16.57,0A8.29,8.29,0,0,0,292,332Zm-26.35,0a8.29,8.29,0,1,0,16.57,0A8.29,8.29,0,0,0,265.69,332Zm-24.26,0A8.29,8.29,0,1,0,258,332,8.29,8.29,0,0,0,241.43,332ZM222,332a8.29,8.29,0,1,0,16.57,0A8.29,8.29,0,0,0,222,332Zm-19.44,0a8.29,8.29,0,1,0,16.58,0A8.29,8.29,0,0,0,202.55,332Zm-24.26-.07a8.29,8.29,0,1,0,16.57,0A8.29,8.29,0,0,0,178.29,331.9Zm-26.35,0a8.29,8.29,0,1,0,16.58,0A8.29,8.29,0,0,0,151.93,331.9Zm145.29-20.45a8.29,8.29,0,1,0,16.57,0A8.29,8.29,0,0,0,297.23,311.45Zm-29.16,0a8.29,8.29,0,1,0,16.58,0A8.29,8.29,0,0,0,268.06,311.45Zm-24.26,0a8.29,8.29,0,1,0,16.57,0A8.29,8.29,0,0,0,243.8,311.45Zm-21.82,0a8.29,8.29,0,1,0,16.57,0A8.29,8.29,0,0,0,222,311.45Zm-21.89.07a8.29,8.29,0,1,0,16.57,0A8.29,8.29,0,0,0,200.1,311.52Zm-23.9,0a8.29,8.29,0,1,0,16.57,0A8.29,8.29,0,0,0,176.2,311.52Zm-29.16,0a8.29,8.29,0,1,0,16.57,0A8.29,8.29,0,0,0,147,311.52Zm157.1-22.89a8.29,8.29,0,1,0,16.57,0A8.29,8.29,0,0,0,304.14,288.63Zm-31.53,0a8.29,8.29,0,1,0,16.58,0A8.29,8.29,0,0,0,272.6,288.63Zm-77.33,0a8.29,8.29,0,1,0,16.57,0A8.29,8.29,0,0,0,195.28,288.63Zm53.35,0a8.29,8.29,0,1,0,16.57,0A8.29,8.29,0,0,0,248.63,288.63Zm-77.26,0a8.29,8.29,0,1,0,16.57,0A8.29,8.29,0,0,0,171.37,288.63Zm-31.61,0a8.29,8.29,0,1,0,16.57,0A8.29,8.29,0,0,0,139.77,288.63Zm176.54-25.34a8.29,8.29,0,1,0,16.57,0A8.29,8.29,0,0,0,316.31,263.29Zm-34,0a8.29,8.29,0,1,0,16.57,0A8.29,8.29,0,0,0,282.32,263.29Zm-26.35,0a8.29,8.29,0,1,0,16.58,0A8.29,8.29,0,0,0,256,263.29Zm-34,0a8.29,8.29,0,1,0,16.57,0A8.29,8.29,0,0,0,222,263.29Zm-34,0a8.29,8.29,0,1,0,16.57,0A8.29,8.29,0,0,0,188,263.29Zm-60.33,0a8.29,8.29,0,1,0,16.57,0A8.29,8.29,0,0,0,127.67,263.29Zm34,0a8.29,8.29,0,1,0,16.57,0A8.29,8.29,0,0,0,161.65,263.29Zm-2.45,108.5a8.29,8.29,0,1,0,16.58,0A8.29,8.29,0,0,0,159.2,371.79Zm21.89,0a8.29,8.29,0,1,0,16.58,0A8.29,8.29,0,0,0,181.09,371.79Zm21.53,0a8.29,8.29,0,1,0,16.57,0A8.29,8.29,0,0,0,202.62,371.79Zm19.37,0a8.29,8.29,0,1,0,16.57,0A8.29,8.29,0,0,0,222,371.79Zm19.44,0a8.29,8.29,0,1,0,16.57,0A8.29,8.29,0,0,0,241.43,371.79Zm21.81,0a8.29,8.29,0,1,0,16.58,0A8.29,8.29,0,0,0,263.24,371.79Zm21.89,0a8.29,8.29,0,1,0,16.57,0A8.29,8.29,0,0,0,285.13,371.79ZM361.45,200.5a8.29,8.29,0,1,0,16.57,0A8.29,8.29,0,0,0,361.45,200.5ZM333,234.85a8.29,8.29,0,1,0,16.58,0A8.29,8.29,0,0,0,333,234.85Zm-40,0a8.29,8.29,0,1,0,16.57,0A8.29,8.29,0,0,0,293.05,234.85Zm-142.12,0a8.29,8.29,0,1,0,16.57,0A8.29,8.29,0,0,0,150.93,234.85Zm-68-34.34a8.29,8.29,0,1,0,16.57,0A8.29,8.29,0,0,0,82.89,200.5ZM222,288.63a8.29,8.29,0,1,0,16.57,0A8.29,8.29,0,0,0,222,288.63ZM204.65,148.38a24.78,24.78,0,1,0,24.78-24.78A24.75,24.75,0,0,0,204.65,148.38ZM424.85,82.6h43.71v43.72h43.66V170H468.56v43.71H424.85V170H381.13V126.32h43.71V82.6ZM318.71,160.31a104.35,104.35,0,0,0-11.13-13.15,91.2,91.2,0,0,0-28.43-20.84c3.48,7,4.89,13.88,4.89,22.19,0,29.83-24.27,54.11-54.84,54.11-29.83,0-54.78-24.27-54.78-54.11a50.93,50.93,0,0,1,4.16-20.79c-15.23,7.64-27.76,19.44-37.47,33.26a82.91,82.91,0,0,0,16,18.76c18.77,17.31,42.31,24.95,68,26.35,13.21,0.67,25.68-1.41,38.15-4.83C286.13,194.3,304.84,178.35,318.71,160.31Zm37.47,0,0.68,0.68-0.68,1.41c-29.83,47.87-70.8,76.3-127,75.62-62.42-.73-100.58-31.91-125.52-75.62L103,161l0.73-1.35c24.27-45.79,72.82-76.3,126.93-77C279.89,84.69,326.35,105.53,356.19,160.31ZM128,234.58a9.19,9.19,0,0,1-9,9c-4.16,0-8.32-4.16-8.32-9,0-4.16,4.16-8.32,8.32-8.32C123.8,226.26,128,230.41,128,234.58Zm186.62,154c0,16.63-3.48,31.18-22.19,35.34-7,1.4-13.2,2.13-20.11,3.48-13.88,1.41-20.12,7.64-20.85,19.44v65.91H209.85V446.84c-0.73-11.8-7.64-18-20.85-19.44-6.91-1.35-13.88-2.08-20.79-3.48C149.5,419.76,146,405.21,146,388.58v-4.16l0.67-.73H314.58v4.89ZM131.81,588.49h9.87v-10l-9.87.07v9.94Zm325.5,55.44h9.86V623.77c0-6,3.24-8.79,7.34-8.79,3.53,0,5.9,2,5.9,6.63l-0.07,22.32h9.86V618.66c0-4.47-1.51-7.49-3.89-9.58a13.8,13.8,0,0,0-8.57-3.1c-5.33,0-9,2.52-10.65,5.9L467.17,593h-9.86v51ZM441,630.61c-0.58,2.88-1.37,4-2.81,5.11a7.87,7.87,0,0,1-4.82,1.51c-4.39,0-8.49-3.17-8.49-11.38,0-9,4.39-12.31,8.86-12.31a7.18,7.18,0,0,1,7.05,6.26l9.5-.5c-0.86-7.63-6.77-13.53-16.78-13.53-7.2,0-12.24,2.81-15.62,7.7a21,21,0,0,0-3.46,12.24c0,7.42,3,13,7.56,16.41a18.58,18.58,0,0,0,11.38,3.39,18.36,18.36,0,0,0,7.35-1.22c5.54-2,8.93-6.2,9.64-13.25Zm-66.74,1.08c0.14,6.91,6,13.54,17.21,13.54,11.45,0,16.49-6.12,16.49-12.67a10.42,10.42,0,0,0-2.31-6.41c-1.37-1.72-3.1-3-7.41-4l-10.58-2.45c-2.16-.57-3.1-1.94-3.1-3.24s1.3-3.67,6.12-3.67c5.26,0,7.56,2.73,7.56,5.69l8.71-.14a13,13,0,0,0-5.26-9.65c-2.16-1.51-5.54-2.81-10.87-2.81-10.58,0-15.19,5.69-15.19,12a9.41,9.41,0,0,0,2.52,6.91c1.29,1.37,2.88,2.52,7,3.38l7.92,1.8c4.68,1,5.18,2.45,5.18,4.18s-1.51,4.11-6.91,4.11c-5.19,0-7.85-2.73-8.14-6.55Zm-16.7,8.13,0.5,4.11h9.29V607.35l-9.79-.07V627.8c0,5.62-3.31,8.49-7.35,8.49-3.67,0-5.9-1.94-5.9-7.13V607.28h-9.86v25.2c0,4.82,1.37,7.42,3.6,9.5a13.23,13.23,0,0,0,9.14,3.17A11.9,11.9,0,0,0,357.59,639.82Zm-40.82.36,0.43,3.74H327l-0.07-51h-9.87v18.5c-1.8-2.88-5.9-5.33-10.58-5.33-8.21,0-16.2,6.84-16.2,19.66a21.41,21.41,0,0,0,4.75,14,13.55,13.55,0,0,0,11.09,5.33A13.05,13.05,0,0,0,316.77,640.18ZM309,636.66c-4.61,0-8.71-3.31-8.71-11.09,0-8.71,4.32-11.81,8.35-11.81s8.28,3.1,8.28,11.52C316.91,633.34,312.67,636.58,309,636.66Zm-58.46,7.27h9.86l0.07-20.52c0-2.88.57-4.25,1.37-5.4a7.39,7.39,0,0,1,6-3.1c3.38,0,5.83,2.23,5.83,6.33v22.68h9.86V618.08c0-6.84-5-12.1-12.67-12.1-5.26,0-8.93,2.81-10.15,5.69l-0.43-4.32-9.65-.07Zm-26.21,1.37c11.09,0,19.23-7.85,19.23-19.8,0-11.59-8-19.58-19.37-19.58-11.09,0-19.15,7.92-19.15,19.51C205,637.52,213.17,645.3,224.33,645.3Zm-0.07-7.7c-4.68,0-9.22-3.6-9.22-11.74,0-8.78,4.39-12.24,9.22-12.24s9.29,3.53,9.29,11.88C233.54,634.06,229.08,637.59,224.25,637.59Zm-61.2,8.35a10.73,10.73,0,0,0,3.6,7.34c2.23,2.16,6.34,4.18,13.39,4.18,8,0,13-3,15.48-6.12,1.73-2.23,2.59-4.25,2.59-9.72V607.28h-9.43l-0.36,4.46c-0.65-1.15-2.66-5.76-10.8-5.76C168.67,606,161,613,161,624.34s7.78,18.43,16.49,18.43c5.83,0,9.5-2.66,10.87-5.47v4c0,6.19-2.88,8.78-8.49,8.78-4.32,0-6.34-2.16-6.62-4.46Zm16.7-11.66c-4.82,0-8.78-3.46-8.78-10.22,0-5.9,4.1-9.65,8.57-9.65s8.64,3.74,8.64,9.94S184,634.28,179.76,634.28Zm-50.33,11.23c8.71,0,14-2.59,18.5-7.71a29.44,29.44,0,0,0,6.91-19.51c0-12.67-8.06-27.14-24.77-27.14-7.49,0-13.82,2.59-18.65,8.42a30.46,30.46,0,0,0-6.4,19C105,632.12,113.74,645.51,129.43,645.51Zm0.94-8.57c-11.45,0-14.54-11.59-14.54-18.43,0-7.28,3.46-18.65,14.19-18.65,6.62,0,14,5.83,14,18.5S136.56,636.94,130.37,636.94Zm-11.45-48.38,9.86-.07v-10l-9.86.07v10Z"/></svg>