<svg xmlns="http://www.w3.org/2000/svg" viewBox="0 0 595.28 850.36"><defs><style>.a{fill:#017e49;}.a,.b{fill-rule:evenodd;}.b{fill:#e5e8eb;}</style></defs><title>E012_C</title><polyline class="a" points="0 850.36 595.28 850.36 595.28 0 0 0 0 850.36"/><path class="b" d="M278.56,134.66h-99.9c0-9.07,7.66-20.78,16.63-20.79h20.79V82.63h24.33v31.24H261.2C269.41,113.88,278.58,125.66,278.56,134.66ZM116.11,321a7.67,7.67,0,0,0,15.33,0A7.67,7.67,0,1,0,116.11,321Zm-8.32,21.83a7.67,7.67,0,0,0,15.33,0A7.67,7.67,0,1,0,107.79,342.82Zm16.6-43.72a7.67,7.67,0,0,0,15.33,0A7.67,7.67,0,1,0,124.39,299.1Zm209.15,43.7a7.67,7.67,0,0,0,15.34,0A7.67,7.67,0,1,0,333.54,342.81ZM133.1,277.29a7.67,7.67,0,0,0,15.33,0A7.67,7.67,0,1,0,133.1,277.29Zm8.39-21.9a7.67,7.67,0,0,0,15.34,0A7.67,7.67,0,1,0,141.5,255.39Zm166.75,21.89a7.67,7.67,0,0,0,15.33,0A7.67,7.67,0,1,0,308.24,277.28Zm8.35,21.82a7.67,7.67,0,0,0,15.33,0A7.67,7.67,0,1,0,316.59,299.09ZM324.92,321a7.67,7.67,0,0,0,15.33,0A7.67,7.67,0,1,0,324.92,321Zm-25-65.58a7.67,7.67,0,0,0,15.33,0A7.67,7.67,0,1,0,300,255.39ZM261.16,237a7.67,7.67,0,0,0,15.33,0A7.67,7.67,0,1,0,261.16,237Zm30.42-3.83a7.67,7.67,0,0,0,15.33,0A7.67,7.67,0,1,0,291.58,233.2Zm-8.64-21.89a7.67,7.67,0,0,0,15.33,0A7.67,7.67,0,1,0,282.94,211.31ZM149.75,233.2a7.67,7.67,0,0,0,15.33,0A7.67,7.67,0,1,0,149.75,233.2Zm30.57,3.87a7.67,7.67,0,0,0,15.33,0A7.67,7.67,0,1,0,180.32,237.07ZM191,191.28a7.67,7.67,0,0,0,15.33,0A7.67,7.67,0,1,0,191,191.28Zm29.52,1a7.67,7.67,0,0,0,15.33,0A7.67,7.67,0,1,0,220.56,192.29Zm29.45-1a7.67,7.67,0,0,0,15.34,0A7.67,7.67,0,1,0,250,191.28Zm24.62-1.73a7.67,7.67,0,0,0,15.33,0A7.67,7.67,0,1,0,274.63,189.55ZM158.5,211.37a7.67,7.67,0,0,0,15.33,0A7.67,7.67,0,1,0,158.5,211.37Zm27.36,2.8a7.67,7.67,0,0,0,15.34,0A7.67,7.67,0,1,0,185.86,214.17Zm69.7,0a7.67,7.67,0,0,0,15.33,0A7.67,7.67,0,1,0,255.56,214.17Zm-88.78-24.62a7.67,7.67,0,0,0,15.34,0A7.67,7.67,0,1,0,166.78,189.55Zm99.57-21.89a7.67,7.67,0,0,0,15.33,0A7.67,7.67,0,1,0,266.35,167.67Zm-21.89,1a7.67,7.67,0,0,0,15.33,0A7.67,7.67,0,1,0,244.47,168.67Zm-23.9.36a7.67,7.67,0,0,0,15.33,0A7.67,7.67,0,1,0,220.56,169Zm-24-.36a7.67,7.67,0,0,0,15.34,0A7.67,7.67,0,1,0,196.59,168.67Zm-21.45-1a7.67,7.67,0,0,0,15.33,0A7.67,7.67,0,1,0,175.14,167.67Zm82.51-21.82a7.67,7.67,0,0,0,15.33,0A7.67,7.67,0,1,0,257.64,145.85Zm-18.36,0a7.67,7.67,0,0,0,15.34,0A7.67,7.67,0,1,0,239.28,145.85Zm-18.72,0a7.67,7.67,0,0,0,15.33,0A7.67,7.67,0,1,0,220.56,145.85Zm-18.36,0a7.67,7.67,0,0,0,15.33,0A7.67,7.67,0,1,0,202.2,145.85Zm-18.82,0a7.67,7.67,0,0,0,15.33,0A7.67,7.67,0,1,0,183.39,145.83Zm22.17,81.86A22.68,22.68,0,1,0,228.24,205,22.68,22.68,0,0,0,205.56,227.69Zm49.66,272.07V291.1a2.41,2.41,0,1,1,4.83,0v87.54c0,14.75,22.12,14.75,22.12,0V289.23a32.71,32.71,0,0,0-32.71-32.71H207.17a32.71,32.71,0,0,0-32.71,32.71v89.41c0,14.75,22.12,14.75,22.12,0V291.1a2,2,0,1,1,3.9,0V499.75c0,17.29,25.93,17.29,25.93,0V373.82a1.91,1.91,0,0,1,3.82,0V499.75C230.22,516.42,255.22,516.42,255.22,499.75Zm257-373.39v43.71H468.55v43.72H424.84V170.08H381.18V126.37h43.66V82.65h43.72v43.71h43.71Zm-383,517.55h10.22V609.58l21,34.34h10.8V593H160.9v34.49l-21.31-34.56h-10.3v51Zm303.76,0h9.86V623.76c0-6,3.24-8.78,7.35-8.78,3.53,0,5.9,2,5.9,6.62v22.32H466V618.65c0-4.46-1.44-7.49-3.81-9.57a14.16,14.16,0,0,0-8.64-3.1c-5.33,0-8.93,2.52-10.65,5.9l0.07-18.94H433v51ZM416.78,630.6c-0.51,2.88-1.37,4-2.81,5.11a7.71,7.71,0,0,1-4.82,1.51c-4.39,0-8.49-3.17-8.49-11.37,0-9,4.39-12.31,8.86-12.31a7.18,7.18,0,0,1,7.05,6.27l9.5-.5c-0.79-7.63-6.77-13.54-16.78-13.54-7.2,0-12.24,2.81-15.55,7.7a20.58,20.58,0,0,0-3.53,12.24c0,7.41,3,13,7.56,16.41a18.6,18.6,0,0,0,11.38,3.38,18.35,18.35,0,0,0,7.34-1.22c5.54-2,8.93-6.19,9.65-13.25ZM350,631.68c0.21,6.91,6,13.54,17.21,13.54,11.45,0,16.49-6.12,16.49-12.67a10.33,10.33,0,0,0-2.23-6.4c-1.37-1.73-3.17-3-7.49-4l-10.58-2.45c-2.16-.57-3.1-1.94-3.1-3.24s1.37-3.67,6.12-3.67c5.26,0,7.56,2.73,7.56,5.69l8.71-.14a12.78,12.78,0,0,0-5.26-9.65c-2.09-1.51-5.54-2.81-10.87-2.81-10.58,0-15.19,5.69-15.19,12a9.4,9.4,0,0,0,2.52,6.91c1.29,1.37,2.88,2.52,7,3.38l7.92,1.8c4.68,1,5.18,2.45,5.18,4.18s-1.51,4.1-6.91,4.1c-5.19,0-7.85-2.73-8.14-6.55Zm-16.71,8.14,0.51,4.1h9.29V607.35l-9.79-.07v20.52c0,5.62-3.31,8.49-7.34,8.49-3.6,0-5.9-1.94-5.9-7.13V607.27h-9.86v25.2c0,4.82,1.37,7.41,3.6,9.5a13.24,13.24,0,0,0,9.14,3.17A11.89,11.89,0,0,0,333.33,639.82Zm-40.68.36,0.36,3.74h9.72v-51h-9.86v18.5c-1.8-2.88-5.9-5.33-10.58-5.33-8.21,0-16.27,6.84-16.27,19.65a21.43,21.43,0,0,0,4.75,14,13.89,13.89,0,0,0,11.16,5.33A13.3,13.3,0,0,0,292.65,640.18Zm-7.85-3.53c-4.61,0-8.64-3.31-8.64-11.09,0-8.71,4.25-11.81,8.28-11.81s8.28,3.1,8.28,11.52C292.73,633.34,288.48,636.58,284.81,636.65ZM249,640.18l0.36,3.74h9.79v-51h-9.94v18.5c-1.8-2.88-5.9-5.33-10.58-5.33-8.21,0-16.27,6.84-16.27,19.65a21.42,21.42,0,0,0,4.75,14,13.89,13.89,0,0,0,11.16,5.33A13.3,13.3,0,0,0,249,640.18Zm-7.85-3.53c-4.61,0-8.64-3.31-8.64-11.09,0-8.71,4.25-11.81,8.28-11.81s8.28,3.1,8.28,11.52C249,633.34,244.77,636.58,241.1,636.65Zm-44.71,8.71c11.81,0,19.73-7.92,19.73-19.87,0-11.74-8.06-19.66-19.44-19.66-11.09,0-19.3,7.92-19.3,19.66C177.38,637.44,185.6,645.36,196.39,645.36Zm0.57-7.7c-5.11,0-9.5-3.67-9.5-12.17,0-8.21,4.39-12,9.43-12,4.75,0,9.14,3.31,9.14,12.24C206,634.42,201.36,637.66,197,637.66Zm1.37-34.77h9.86v-9.94l-9.86-.07v10Zm-12.89,0h9.87v-9.94l-9.87-.07v10Z"/></svg>