<svg xmlns="http://www.w3.org/2000/svg" viewBox="0 0 595.28 850.36"><defs><style>.a{fill:#017e49;}.a,.b{fill-rule:evenodd;}.b{fill:#e5e8eb;}</style></defs><title>E013_C</title><polyline class="a" points="0 850.36 595.28 850.36 595.28 0 0 0 0 850.36"/><path class="b" d="M92.28,286.52h22.19V436.35H92.28c-12.47,0-12.47,18.71,0,18.71H502.84c12.47,0,12.47-18.71,0-18.71H481.32V286.52h21.52c12.47,0,12.47-18.71,0-18.71H92.28C79.81,267.82,79.81,286.52,92.28,286.52Zm41,74.52a23.79,23.79,0,1,0,23.83-23.76A23.81,23.81,0,0,0,133.31,361Zm316.4-29H225.18a2.6,2.6,0,1,1,0-5.2h94.2c15.87,0,15.87-23.8,0-23.8H223.17a35.2,35.2,0,0,0-35.2,35.2V383.8a35.2,35.2,0,0,0,35.2,35.2h96.21c15.87,0,15.87-23.8,0-23.8h-94.2a2.1,2.1,0,1,1,0-4.19H449.71c18.61,0,18.61-27.91,0-27.91H314.19a2.05,2.05,0,0,1,0-4.11H449.71C467.64,359,467.64,332.09,449.71,332.09ZM512.52,170h-43.7v43.71H425.11V170H381.46V126.29h43.65V82.58h43.71v43.71h43.7V170ZM253.42,613.39V601.09H266.8a6.09,6.09,0,0,1,5.69,6.19,6.23,6.23,0,0,1-6.48,6.26Zm77.68,30.53H341V627.65c0-5.47,1.37-8,3-9.72a8.73,8.73,0,0,1,6.7-2.88,11.53,11.53,0,0,1,1.65.14l0.07-8.71a14.12,14.12,0,0,0-2.09-.22,9.45,9.45,0,0,0-9.14,6.55l-0.29-5.54H331.1v36.65Zm-18.36-4.18a14.92,14.92,0,0,0,1.29,4.18h10c-0.58-.5-1.59-2.16-1.59-5.19L322.39,620a20.47,20.47,0,0,0-.58-5c-1.44-5-5.54-9.07-15.48-9.07-11.38,0-15.84,5.83-15.84,12.24l8.57,0.14c0.36-2.45.79-3,1.58-3.67s2.74-1.73,5.69-1.73c4.61,0,6.33,2.45,6.33,4.18s-1.08,3-3.74,3.46l-9.86,1.73c-7.34,1.3-10.8,6.12-10.8,10.94,0,6.34,4.82,11.74,13.68,11.74C308,645,311.37,642.56,312.74,639.75Zm0.07-15.34-0.07,5.47c-0.22,4.61-3.31,7.78-8.71,7.78-4.11,0-6.12-2.45-6.12-4.61,0-1.73.86-4,6.7-5.4l4.25-1.15A8.37,8.37,0,0,0,312.81,624.41ZM305.61,603a5.12,5.12,0,0,0-.21-10.22,5.19,5.19,0,0,0-5.19,5.11A5.11,5.11,0,0,0,305.61,603Zm-0.14-2.09a3,3,0,0,1-3.17-3,3.22,3.22,0,0,1,3.1-3.1A3.06,3.06,0,0,1,305.47,600.94Zm-62.64,43H269c4.82,0,7.13-.79,9.65-2.59,3.67-2.52,5.76-6.4,5.76-11.52a13,13,0,0,0-10.08-13.17,10.74,10.74,0,0,0,8.21-10.8A12.05,12.05,0,0,0,276.67,595c-2-1.3-4-2-8.57-2H242.83v51Zm10.58-8.28V621.1l12.45-.07c4.68,0,7.63,3.31,7.63,7.13a7.41,7.41,0,0,1-7.56,7.49H253.42Z"/></svg>