<svg xmlns="http://www.w3.org/2000/svg" viewBox="0 0 595.28 850.37"><defs><style>.a{fill:#017e49;}.a,.b{fill-rule:evenodd;}.b{fill:#e5e8eb;}</style></defs><title>E014_C</title><polyline class="a" points="0 850.37 595.28 850.37 595.28 0 0 0 0 850.37"/><path class="b" d="M506.29,225.5c-25,2.08-45.79,22.92-45.79,49.27,0,25.67,20.78,47.13,46.46,48.54,2.81-16,4.89-31.91,4.89-48.54A232.52,232.52,0,0,0,506.29,225.5ZM283,251.17c-6.24-4.16-14.61-2.75-18.76,2.75h0l-3.43,4.89H222.64a8.75,8.75,0,0,0-9,9,9.19,9.19,0,0,0,9,9h24.27l-20.11,27H188.65L158.82,324c-5.56,4.89-6.23,13.2-1.4,19.44a14.73,14.73,0,0,0,18,2.08h0L197,331.62h34c6.24,0,11.07-6.23,13.88-9.72l41.57-52A13.36,13.36,0,0,0,283,251.17Zm12.47,56.18a194.39,194.39,0,0,0,24.94-36.07c6.23-13.88,3.48-25.67,3.48-32.58,0-6.24-2.08-8.32-4.83-8.32-3.48,0-4.89,4.83-6.29,9.72-0.68,3.43-11.74,25.62-18.71,35.34l-13.15,16-30.56,37.47c-4.16,6.24-10.39,11.8-19.38,11.8H199.72l-20.79,13.87h71.41l20.11-18.76Zm-13.2-64.5c12.53,0,22.92-9.72,22.92-22.19s-10.39-22.19-22.92-22.19A22.19,22.19,0,1,0,282.25,242.86Zm125.56-25c32.59,31.24,33.26,83.93,1.41,116.57L416.8,342c36.07-37.42,35.39-96.4-1.35-131.74ZM389.1,236.62c22.19,21.51,22.19,56.85,1.35,79l7.64,7.64a66.78,66.78,0,0,0-1.4-94.33ZM370.34,256a28.75,28.75,0,0,1,.73,41l7.59,7.64c15.28-16,15.28-41-.68-56.18Zm-9,28.48a13.43,13.43,0,0,1-18.76,3.43c-6.24-4.16-8.32-12.47-4.16-18.71,4.89-6.91,13.2-8.32,19.44-4.16C364.1,269.88,366.18,278.25,361.35,284.49ZM135.23,369.77c-1.41-23.6-13.2-72.14-20.12-95-4.83-17.36-14.55-36.07-14.55-36.07l-1.4-2.81,0.67-2.75c0.73-6.24,2.08-16.63,2.08-22.19,0-1.41-.67-2.08-0.67-2.75A6,6,0,0,0,95,203.3H92.25v41.63l24.27,147H231l5.51-15.22c0.62-1.73.06-4.16-2.08-4.16H140.05S135.23,371.84,135.23,369.77ZM124.1,272c7,22.92,18.76,67.3,20.11,86.74,0,2.75,2.81,4.16,4.89,4.16h85.28c6.29,0,11.8,5.5,11.8,12.47a12.77,12.77,0,0,1-1.35,4.83L237.19,401H108.88L83.2,245.61l-0.68-51.29H95c3.48,0,12.47,1.35,15.28,11.8,1.35,4.16,0,21.46-1.41,28.42C108.88,234.54,118.59,253.92,124.1,272ZM90.63,613.4V601.09H104a6.09,6.09,0,0,1,5.76,6.19,6.29,6.29,0,0,1-6.55,6.26ZM477.47,818.14h9.86L487.4,797c0-5.26,3-7.92,6.91-7.92a4.89,4.89,0,0,1,4.9,3.1c0.14,0.36.43,1.15,0.43,4v22h9.79V796.4c0-4.75,3-7.49,6.84-7.49,3.31,0,5.54,2,5.54,6.33v22.9h9.72l-0.07-25.71c-0.22-7.7-5.11-12.09-11.73-12.09a12.34,12.34,0,0,0-11.31,6.41,11.75,11.75,0,0,0-10.73-6.41c-5,0-8.28,2.16-10.22,5.83l-0.36-4.61-9.58-.07Zm-34.13-15.63,27.21,0.07c0-10.87-4.89-22.39-18.57-22.39-14,0-18.43,11.16-18.43,19.51,0,12.17,8.06,19.73,18.36,19.73s16.49-5.54,18-12l-9.94-.65c-1.87,3.39-4.46,4.75-7.63,4.75C447.66,811.59,443.84,808.42,443.34,802.52Zm0.43-7.13a8.37,8.37,0,0,1,8-7.49c4,0,7.49,2.74,8.14,7.49H443.77Zm-15.26,22.75v-7.56h-3.67a3.82,3.82,0,0,1-2.88-1.37,5.85,5.85,0,0,1-.43-2.88V788.19h6.62v-6.69h-6.62l-0.07-11.59h-9.79v11.59h-5.19v6.77l5.26-.07-0.07,18.94c0,8.28,3.38,11,8.86,11h8ZM366.95,805.9c0.22,6.91,6.05,13.54,17.28,13.54s16.41-6.12,16.41-12.67a10.35,10.35,0,0,0-2.23-6.41c-1.37-1.73-3.17-3-7.49-4l-10.51-2.45c-2.23-.58-3.1-1.95-3.1-3.24s1.29-3.67,6-3.67c5.26,0,7.56,2.74,7.63,5.69l8.71-.14a13.24,13.24,0,0,0-5.26-9.65c-2.16-1.51-5.54-2.81-10.94-2.81-10.51,0-15.19,5.69-15.19,12a9.71,9.71,0,0,0,2.52,6.91c1.37,1.37,3,2.52,7.06,3.39l7.92,1.8c4.61,1,5.19,2.45,5.19,4.18s-1.51,4.11-7,4.11c-5.19,0-7.78-2.74-8.06-6.55ZM329.8,822.32V830h7.27c8.57,0,10.58-6.77,11.38-9l14-39.52H351.9l-7.27,22.68-7.7-22.68H326.27l11.38,30.89a13.85,13.85,0,0,1,1,5c0,3-1.66,5-5.9,4.9h-3Zm-43-16.42c0.21,6.91,6,13.54,17.21,13.54,11.37,0,16.41-6.12,16.41-12.67a10.35,10.35,0,0,0-2.23-6.41c-1.37-1.73-3.17-3-7.48-4l-10.51-2.45c-2.23-.58-3-1.95-3-3.24s1.22-3.67,6-3.67c5.26,0,7.56,2.74,7.63,5.69l8.71-.14a13.23,13.23,0,0,0-5.25-9.65c-2.16-1.51-5.54-2.81-10.95-2.81-10.44,0-15.12,5.69-15.12,12a9.71,9.71,0,0,0,2.52,6.91c1.37,1.37,3,2.52,7,3.39l7.92,1.8c4.61,1,5.18,2.45,5.18,4.18s-1.51,4.11-7,4.11c-5.19,0-7.7-2.74-8-6.55Zm-6.48,12.24v-7.56h-3.67a3.83,3.83,0,0,1-2.88-1.37,5.87,5.87,0,0,1-.43-2.88V788.19H280v-6.69h-6.63l-0.07-11.59h-9.79v11.59H258.3v6.77l5.26-.07-0.07,18.94c0,8.28,3.38,11,8.86,11h8Zm-60.55,0h9.87l-0.07-12,4.18-4.11,10.08,16.13h12l-15-22.54,13.1-14.11H242.32l-12.67,14-0.07-28.3h-9.86Zm-34.2-15.63,27.22,0.07c0-10.87-4.89-22.39-18.57-22.39-14,0-18.43,11.16-18.43,19.51,0,12.17,8.07,19.73,18.36,19.73s16.49-5.54,18-12l-9.94-.65c-1.87,3.39-4.46,4.75-7.63,4.75C189.91,811.59,186.09,808.42,185.58,802.52Zm0.43-7.13a8.37,8.37,0,0,1,8-7.49c4,0,7.49,2.74,8.14,7.49H186Zm-15.26,22.75v-7.56h-3.67a3.81,3.81,0,0,1-2.88-1.37,5.85,5.85,0,0,1-.43-2.88V788.19h6.62v-6.69h-6.62L163.7,769.9h-9.79v11.59h-5.18v6.77l5.26-.07-0.07,18.94c0,8.28,3.39,11,8.86,11h8Zm-53.57-15.63,27.22,0.07c0-10.87-4.9-22.39-18.58-22.39-14,0-18.43,11.16-18.43,19.51,0,12.17,8.06,19.73,18.36,19.73s16.49-5.54,18-12l-9.94-.65c-1.87,3.39-4.46,4.75-7.63,4.75C121.51,811.59,117.69,808.42,117.19,802.52Zm0.43-7.13a8.38,8.38,0,0,1,8-7.49c4,0,7.48,2.74,8.13,7.49H117.62Zm-27.29,19,0.43,3.74h9.72v-51H90.55v18.5c-1.72-2.88-5.9-5.33-10.58-5.33-8.14,0-16.27,6.84-16.27,19.65a21.4,21.4,0,0,0,4.75,14,13.89,13.89,0,0,0,11.16,5.33A13.2,13.2,0,0,0,90.33,814.4Zm-7.78-3.53c-4.68,0-8.71-3.31-8.71-11.09,0-8.71,4.25-11.81,8.28-11.81s8.35,3.1,8.35,11.52C90.48,807.56,86.23,810.8,82.56,810.87Zm406.07-101h29.45v-8.71H488.69Zm-41,8.93c0.21,6.91,6,13.53,17.28,13.53,11.45,0,16.42-6.12,16.42-12.67a10.35,10.35,0,0,0-2.23-6.41c-1.37-1.73-3.17-3-7.49-4l-10.51-2.45c-2.23-.58-3.1-1.94-3.1-3.24s1.3-3.67,6.12-3.67c5.18,0,7.48,2.73,7.56,5.69l8.71-.14a13,13,0,0,0-5.26-9.65c-2.16-1.51-5.55-2.81-10.87-2.81-10.58,0-15.26,5.69-15.26,12a9.46,9.46,0,0,0,2.59,6.91c1.3,1.37,2.88,2.52,7,3.38l7.92,1.8c4.61,1,5.19,2.45,5.19,4.18s-1.51,4.11-6.91,4.11c-5.18,0-7.85-2.74-8.13-6.55ZM405.76,733a11,11,0,0,0,3.53,7.34c2.23,2.16,6.41,4.18,13.46,4.18,7.92,0,13-3,15.48-6.12,1.66-2.23,2.59-4.25,2.59-9.72V694.36h-9.43L431,698.83c-0.65-1.15-2.66-5.76-10.8-5.76-8.86,0-16.63,7.06-16.63,18.36s7.78,18.43,16.49,18.43c5.9,0,9.5-2.66,10.95-5.47l-0.07,4c0,6.19-2.81,8.78-8.49,8.78-4.25,0-6.27-2.16-6.62-4.46Zm16.7-11.66c-4.82,0-8.86-3.46-8.86-10.22,0-5.9,4.11-9.65,8.64-9.65s8.64,3.74,8.64,9.94S426.71,721.36,422.46,721.36ZM363.85,731h9.94V710.49c0-2.88.58-4.25,1.37-5.4a7.63,7.63,0,0,1,6-3.1c3.38,0,5.83,2.23,5.83,6.33V731h9.79V705.16c0-6.84-5-12.09-12.6-12.09-5.26,0-8.93,2.81-10.15,5.69l-0.43-4.32-9.65-.07Zm-17.49,0h9.87V694.36h-9.79Zm0.07-42.19h9.86V680h-9.86v8.78ZM319.72,731h9.94V714.74c0-5.47,1.37-8,3-9.72a8.73,8.73,0,0,1,6.69-2.88,11.62,11.62,0,0,1,1.66.14l0.07-8.71a14,14,0,0,0-2.09-.22,9.45,9.45,0,0,0-9.14,6.55l-0.36-5.54h-9.65Zm-34.06-15.63,27.14,0.07c0-10.87-4.89-22.39-18.5-22.39-14,0-18.36,11.16-18.36,19.51,0,12.17,8.06,19.73,18.29,19.73s16.41-5.54,17.93-12l-9.94-.64c-1.87,3.38-4.39,4.75-7.56,4.75C290,724.46,286.17,721.29,285.66,715.39Zm0.43-7.13a8.37,8.37,0,0,1,8-7.48c4,0,7.42,2.73,8.13,7.48H286.09ZM270.83,731v-7.56h-3.67a3.54,3.54,0,0,1-2.81-1.37c-0.21-.29-0.5-0.86-0.5-2.88V701.06h6.63v-6.7h-6.63l-0.07-11.59H254v11.59H248.8v6.77l5.26-.07L254,720c0,8.28,3.46,11,8.86,11h8ZM210,731h9.94V710.49c0-2.88.58-4.25,1.37-5.4a7.64,7.64,0,0,1,6-3.1c3.39,0,5.83,2.23,5.83,6.33V731H243V705.16c0-6.84-5-12.09-12.6-12.09-5.25,0-8.93,2.81-10.15,5.69l-0.43-4.32-9.65-.07Zm-34.13-15.63,27.22,0.07c0-10.87-4.9-22.39-18.58-22.39-14,0-18.36,11.16-18.36,19.51,0,12.17,8.06,19.73,18.29,19.73s16.49-5.54,18-12l-9.94-.64c-1.87,3.38-4.39,4.75-7.63,4.75C180.19,724.46,176.37,721.29,175.87,715.39Zm0.43-7.13a8.37,8.37,0,0,1,8-7.48c4,0,7.49,2.73,8.21,7.48H176.3ZM149.3,731h9.87V694.36h-9.79Zm0.07-42.19h9.86V680h-9.86v8.78ZM122.66,731h9.94V714.74c0-5.47,1.37-8,3-9.72a8.72,8.72,0,0,1,6.69-2.88,11.6,11.6,0,0,1,1.66.14l0.07-8.71a14,14,0,0,0-2.09-.22,9.45,9.45,0,0,0-9.14,6.55l-0.36-5.54h-9.65Zm-26.14,1.37c11.09,0,19.22-7.85,19.22-19.8,0-11.59-8-19.58-19.37-19.58-11.09,0-19.22,7.92-19.22,19.51C77.16,724.6,85.37,732.38,96.52,732.38Zm-0.07-7.7c-4.68,0-9.21-3.6-9.21-11.74,0-8.78,4.39-12.24,9.21-12.24s9.22,3.53,9.22,11.88C105.67,721.15,101.28,724.68,96.45,724.68Zm385.84-80.75h9.87V623.77c0-6,3.31-8.79,7.34-8.79,3.53,0,5.9,2,5.9,6.63v22.32h9.86V618.66c0-4.47-1.51-7.49-3.89-9.58a14,14,0,0,0-8.64-3.1c-5.33,0-8.93,2.52-10.58,5.9V593h-9.87v51ZM466,630.61c-0.51,2.88-1.37,4-2.81,5.11a7.64,7.64,0,0,1-4.75,1.51c-4.46,0-8.57-3.17-8.57-11.38,0-9,4.39-12.31,8.86-12.31a7.08,7.08,0,0,1,7.06,6.26l9.5-.5c-0.79-7.63-6.77-13.53-16.78-13.53-7.2,0-12.24,2.8-15.55,7.7a20.55,20.55,0,0,0-3.53,12.24c0,7.42,3,13,7.56,16.41a18.64,18.64,0,0,0,11.45,3.39,18.1,18.1,0,0,0,7.27-1.23c5.54-2,8.93-6.19,9.65-13.25ZM414,645.3c11.16,0,19.3-7.85,19.3-19.8,0-11.59-8.06-19.58-19.37-19.58-11.09,0-19.22,7.92-19.22,19.51C394.75,637.52,402.88,645.3,414,645.3Zm-0.07-7.7c-4.68,0-9.14-3.6-9.14-11.74,0-8.78,4.39-12.24,9.22-12.24s9.22,3.53,9.22,11.88C423.26,634.06,418.79,637.59,414,637.59Zm-65.8,6.34H358V593h-9.79ZM322,645.3c11.16,0,19.3-7.85,19.3-19.8,0-11.59-8.06-19.58-19.37-19.58-11.09,0-19.22,7.92-19.22,19.51C302.66,637.52,310.8,645.3,322,645.3Zm-0.07-7.7c-4.68,0-9.14-3.6-9.14-11.74,0-8.78,4.39-12.24,9.22-12.24s9.22,3.53,9.22,11.88C331.17,634.06,326.71,637.59,321.88,637.59Zm-24.26,6.34v-7.56h-3.67a3.65,3.65,0,0,1-2.81-1.37c-0.21-.29-0.5-0.86-0.5-2.88V614h6.69v-6.7h-6.62l-0.07-11.59h-9.79v11.59h-5.19V614l5.19-.07v18.94c0,8.28,3.38,11,8.86,11h7.92Zm-61.49-12.24c0.21,6.91,6,13.53,17.21,13.53,11.45,0,16.49-6.12,16.49-12.67a10.35,10.35,0,0,0-2.23-6.41c-1.37-1.73-3.17-3-7.49-4l-10.58-2.45c-2.16-.57-3.1-1.94-3.1-3.24s1.37-3.67,6.12-3.67c5.26,0,7.56,2.73,7.63,5.69l8.64-.14a12.77,12.77,0,0,0-5.26-9.65c-2.09-1.51-5.54-2.81-10.87-2.81-10.51,0-15.19,5.69-15.19,12a9.41,9.41,0,0,0,2.52,6.91c1.29,1.37,3,2.52,7,3.38l8,1.8c4.61,1,5.19,2.45,5.19,4.18s-1.58,4.11-7,4.11c-5.19,0-7.78-2.73-8.14-6.55Zm-39.74,12.24h9.86l0.07-20.52c0-2.88.57-4.25,1.37-5.4a7.39,7.39,0,0,1,6-3.1c3.38,0,5.83,2.23,5.83,6.33v22.68h9.86V618.08c0-6.84-5-12.1-12.6-12.1-5.26,0-9,2.81-10.22,5.69l-0.43-4.32-9.65-.07Zm-26.64,0h9.87l0.07-16.27c0-5.47,1.3-8,3-9.72a8.62,8.62,0,0,1,6.7-2.88,12.49,12.49,0,0,1,1.65.14l0.07-8.71a14.17,14.17,0,0,0-2.16-.22,9.51,9.51,0,0,0-9.14,6.55l-0.29-5.54h-9.64Zm-18.29-4.18a10.32,10.32,0,0,0,1.15,4.18H162.7a5.48,5.48,0,0,1-1.66-3.82V620c0-8.79-4.54-14-16.49-14-11.09,0-15.7,6-15.48,12.24l8.71,0.14c0-2.73,2-5.33,7.05-5.33,4.82,0,6.41,2.37,6.41,4.1,0,1.51-.94,2.88-3.6,3.38l-5.61.94c-8.06,1.44-10.3,3-11.81,4.32a10.2,10.2,0,0,0-3.39,7.63c0,6,4.75,11.52,14,11.52C146.21,644.93,149.38,643.14,151.47,639.75Zm0-15.12v4.61c0,5.19-3.24,8.42-8.86,8.42-4.18,0-6.12-2.45-6.12-4.68,0-1.73.58-3.67,6.77-5.4l4.32-1.15A11.54,11.54,0,0,0,151.47,624.63ZM80,643.93h26.21c4.75,0,7.06-.79,9.65-2.59a13.36,13.36,0,0,0,5.69-11.52c0-6.63-3.81-11.52-10-13.17a10.81,10.81,0,0,0,8.21-10.8A12.05,12.05,0,0,0,114,595c-2.09-1.3-4-2-8.56-2H80v51Zm10.58-8.28V621.11l12.53-.07c4.61,0,7.63,3.31,7.63,7.13a7.43,7.43,0,0,1-7.63,7.49H90.63Z"/></svg>