<svg xmlns="http://www.w3.org/2000/svg" viewBox="0 0 595.28 850.37"><defs><style>.a{fill:#017e49;}.a,.b{fill-rule:evenodd;}.b{fill:#e5e8eb;}</style></defs><title>E015_C</title><polyline class="a" points="0 850.37 595.28 850.37 595.28 0 0 0 0 850.37"/><path class="b" d="M131.78,354.8L126.52,336c14-.27,29.59,1.39,42,5.32,10.39,2.75,14.55,6.24,18.71,9.72,5.56,3.48,11.07,7.64,24.27,7.64,10.39,0,19.44-5.56,27.75-11.12,13.88-9,27-17.36,49.22-7.64,17.27,7.38,34.53,9.85,45.93,9.36l-5.29,18.88,0,0c-9.24-.95-22.28-3.94-35.74-8.09-26.35-9-41.63,0-54.77,7.64-8.37,5.56-16,9.72-26.4,9.72-16-.67-24.27-6.23-31.91-11.12l-6.91-4.83c-9.78-4.89-23.43-7.22-41.58-6.67v0ZM314.16,508.47l59-209.44-22.92-6.23-12,42.82-1.17.16c-7.64.73-25,0-43-8.31-29.1-12.47-47.13-.68-61.74,9-7.59,4.83-13.88,9-20.79,9-9,0-11.12-2.08-16.63-5.56-4.16-3.43-10.39-7.64-22.19-11.07-15.14-4.85-33.45-6.54-49.85-6h0l-8.41-30.1L91.51,299l59,209.44H314.16ZM168.54,484.93l-33-116.76v0c13.89-.07,24.68,1.62,31.59,5.1l6.23,3.48c7.64,5.5,18.71,13.14,38.82,13.87,13.87,0,24.27-5.56,33.31-11.12,12.47-7.64,22.87-13.87,43.71-6.91,13.37,4.59,26.11,7.67,36.21,8.81l-29.3,103.55H168.54ZM335,86.81h0a19.76,19.76,0,1,0,0,39.53h22.15v19.44H288.48c-52,.68-59.61,11.74-59.61,11.74-20.11,16.69-55.51,53.43-42.31,120.73h58.26S232.3,213,279.49,205.39h34.66s58.26,46.46,120,0h69.38V145.78H394.65l0,0V126.32l22.47,0a19.76,19.76,0,0,0,0-39.53ZM96.31,635.14V601.38h7.13c6.34,0,9.14,1.65,11.45,4.68,2.09,2.59,3.82,6.77,3.82,13.46,0,11.3-5.4,15.62-12.53,15.62H96.31Zm380.15,8.79h9.86l0.07-20.52c0-2.88.57-4.25,1.37-5.4a7.4,7.4,0,0,1,6-3.1c3.39,0,5.83,2.23,5.83,6.33v22.68h9.86V618.08c0-6.84-5-12.1-12.6-12.1-5.26,0-9,2.81-10.22,5.69l-0.43-4.32-9.65-.07ZM442.33,628.3l27.22,0.07c0-10.87-5-22.39-18.57-22.39-14,0-18.43,11.16-18.43,19.51,0,12.16,8.06,19.72,18.29,19.72s16.56-5.54,18-12l-9.86-.64c-1.87,3.38-4.46,4.75-7.63,4.75C446.66,637.38,442.84,634.21,442.33,628.3Zm0.44-7.13a8.37,8.37,0,0,1,8-7.48c4,0,7.49,2.73,8.14,7.48H442.77ZM427.5,643.93v-7.56h-3.74A3.64,3.64,0,0,1,421,635c-0.21-.29-0.51-0.86-0.51-2.88V614h6.7v-6.7h-6.62l-0.07-11.59h-9.79v11.59h-5.18V614l5.18-.07v18.94c0,8.28,3.39,11,8.86,11h8Zm-27.29,0v-7.56h-3.74a3.64,3.64,0,0,1-2.81-1.37c-0.22-.29-0.51-0.86-0.51-2.88V614h6.7v-6.7h-6.62l-0.07-11.59h-9.79v11.59h-5.18V614l5.18-.07v18.94c0,8.28,3.38,11,8.86,11h8Zm-37.73-4.18a10.34,10.34,0,0,0,1.15,4.18h10.08a5.49,5.49,0,0,1-1.65-3.82V620c0-8.79-4.54-14-16.49-14-11.09,0-15.7,6-15.48,12.24l8.64,0.14c0-2.73,2.09-5.33,7.13-5.33,4.82,0,6.41,2.37,6.41,4.1,0,1.51-.94,2.88-3.6,3.38l-5.62.94c-8.06,1.44-10.29,3-11.81,4.32a10.2,10.2,0,0,0-3.38,7.63c0,6,4.75,11.52,14,11.52C357.23,644.93,360.4,643.14,362.49,639.75Zm0-15.12v4.61c0,5.19-3.24,8.42-8.86,8.42-4.18,0-6.12-2.45-6.12-4.68,0-1.73.57-3.67,6.77-5.4l4.32-1.15A11.55,11.55,0,0,0,362.49,624.63ZM314,643.93h9.72l12.53-36.65h-10l-7.35,24.12-7.27-24h-10Zm-50.69-12.24c0.22,6.91,6,13.53,17.21,13.53,11.45,0,16.49-6.12,16.49-12.67a10.35,10.35,0,0,0-2.23-6.41c-1.37-1.73-3.17-3-7.48-4l-10.58-2.45c-2.16-.57-3.1-1.94-3.1-3.24s1.37-3.67,6.12-3.67c5.26,0,7.56,2.73,7.56,5.69l8.71-.14a12.77,12.77,0,0,0-5.26-9.65c-2.09-1.51-5.54-2.81-10.87-2.81-10.51,0-15.19,5.69-15.19,12a9.41,9.41,0,0,0,2.52,6.91c1.3,1.37,3,2.52,7,3.38l8,1.8c4.61,1,5.11,2.45,5.11,4.18s-1.51,4.11-6.91,4.11c-5.18,0-7.78-2.73-8.13-6.55Zm-41.11,12.24h9.94l-0.07-12,4.18-4.1,10.08,16.13h12l-15.12-22.54,13.18-14.11H244.77l-12.6,14L232,593h-9.79v51ZM206,630.61c-0.5,2.88-1.37,4-2.81,5.11a7.65,7.65,0,0,1-4.75,1.51c-4.46,0-8.57-3.17-8.57-11.38,0-9,4.39-12.31,8.86-12.31a7.08,7.08,0,0,1,7.06,6.26l9.5-.5c-0.79-7.63-6.77-13.53-16.78-13.53-7.2,0-12.24,2.8-15.55,7.7a20.55,20.55,0,0,0-3.53,12.24c0,7.42,3,13,7.56,16.41a18.64,18.64,0,0,0,11.45,3.39,18.09,18.09,0,0,0,7.27-1.23c5.55-2,8.93-6.19,9.65-13.25Zm-43.34,13.32h9.86V607.28h-9.86v36.65Zm0.07-42.19h9.87V593h-9.87v8.79ZM136,643.93h9.87l0.07-16.27c0-5.47,1.3-8,3-9.72a8.63,8.63,0,0,1,6.7-2.88,12.62,12.62,0,0,1,1.66.14l0.07-8.71a14.16,14.16,0,0,0-2.16-.22,9.52,9.52,0,0,0-9.14,6.55l-0.29-5.54h-9.65Zm-50.25,0H108c10.73,0,21.09-9,21.09-25.13,0-17-10.3-25.85-21.17-25.85H85.73v51Z"/></svg>