<svg xmlns="http://www.w3.org/2000/svg" viewBox="0 0 595.28 850.37"><defs><style>.a{fill:#017e49;}.a,.b{fill-rule:evenodd;}.b{fill:#e5e8eb;}</style></defs><title>E016_C</title><polyline class="a" points="0 850.37 595.28 850.37 595.28 0 0 0 0 850.37"/><path class="b" d="M454.36,802.51l27.21,0.07c0-10.87-4.89-22.39-18.57-22.39-14,0-18.43,11.16-18.43,19.51,0,12.17,8.06,19.73,18.36,19.73s16.49-5.54,18-12l-9.94-.65c-1.87,3.39-4.39,4.75-7.63,4.75C458.67,811.59,454.86,808.42,454.36,802.51Zm0.43-7.13a8.37,8.37,0,0,1,8-7.49c4,0,7.49,2.74,8.14,7.49H454.79Zm-52.13,24.77c0.44,3.45,1.44,5.4,3.53,7.34,2.23,2.16,6.4,4.18,13.46,4.18,7.92,0,13-2.95,15.48-6.12,1.66-2.23,2.59-4.25,2.59-9.72l-0.07-34.34h-9.36L427.93,786c-0.65-1.15-2.66-5.76-10.8-5.76-8.86,0-16.63,7.06-16.63,18.36S408.27,817,417,817c5.83,0,9.5-2.66,10.95-5.47l-0.07,4c0,6.19-2.81,8.78-8.49,8.78-4.25,0-6.27-2.16-6.62-4.46Zm16.71-11.66c-4.82,0-8.86-3.46-8.86-10.22,0-5.9,4.1-9.65,8.64-9.65s8.64,3.74,8.64,9.94S423.54,808.49,419.36,808.49Zm-52.2-6,27.22,0.07c0-10.87-4.9-22.39-18.58-22.39-14,0-18.43,11.16-18.43,19.51,0,12.17,8.06,19.73,18.36,19.73s16.49-5.54,18-12l-9.94-.65c-1.87,3.39-4.39,4.75-7.63,4.75C371.48,811.59,367.67,808.42,367.16,802.51Zm0.43-7.13a8.38,8.38,0,0,1,8-7.49c4,0,7.49,2.74,8.13,7.49H367.6Zm-15.26,22.75v-7.56h-3.67a3.8,3.8,0,0,1-2.88-1.37,5.86,5.86,0,0,1-.43-2.88V788.19H352v-6.7h-6.62l-0.07-11.59h-9.79v11.59H330.3v6.77l5.26-.07-0.07,18.94c0,8.28,3.38,11,8.86,11h8ZM290.84,805.9c0.22,6.91,6.05,13.54,17.21,13.54,11.37,0,16.41-6.12,16.41-12.67a10.35,10.35,0,0,0-2.23-6.41c-1.37-1.73-3.17-3-7.48-4l-10.51-2.45c-2.23-.57-3.1-1.95-3.1-3.24s1.3-3.67,6.12-3.67c5.18,0,7.49,2.74,7.56,5.69l8.71-.14a13.23,13.23,0,0,0-5.26-9.65c-2.16-1.51-5.54-2.81-10.87-2.81-10.51,0-15.19,5.69-15.19,12a9.44,9.44,0,0,0,2.59,6.91c1.3,1.37,2.81,2.52,6.91,3.39l7.92,1.8c4.61,1,5.19,2.45,5.19,4.18s-1.51,4.11-7,4.11c-5.19,0-7.78-2.74-8.06-6.55ZM244,814.4l0.44,3.74h9.72v-51h-9.94v18.5c-1.73-2.88-5.9-5.33-10.58-5.33-8.14,0-16.27,6.84-16.27,19.66a21.41,21.41,0,0,0,4.75,14,13.89,13.89,0,0,0,11.16,5.33A13.19,13.19,0,0,0,244,814.4Zm-7.78-3.53c-4.68,0-8.71-3.31-8.71-11.09,0-8.71,4.25-11.81,8.28-11.81s8.35,3.1,8.35,11.52C244.12,807.56,239.87,810.79,236.2,810.86ZM184,802.51l27.21,0.07c0-10.87-4.89-22.39-18.57-22.39-14,0-18.43,11.16-18.43,19.51,0,12.17,8.06,19.73,18.36,19.73s16.49-5.54,18-12l-9.94-.65c-1.87,3.39-4.39,4.75-7.63,4.75C188.32,811.59,184.5,808.42,184,802.51Zm0.43-7.13a8.37,8.37,0,0,1,8-7.49c4,0,7.49,2.74,8.14,7.49H184.43Zm-70.77,22.75h9.86L123.6,797c0-5.26,3-7.92,6.91-7.92a4.89,4.89,0,0,1,4.9,3.1c0.14,0.36.43,1.15,0.43,4v22h9.79V796.4c0-4.75,3-7.49,6.84-7.49,3.31,0,5.54,2,5.54,6.33v22.9h9.72l-0.07-25.71c-0.22-7.7-5.11-12.1-11.74-12.1a12.34,12.34,0,0,0-11.3,6.41,11.75,11.75,0,0,0-10.73-6.41c-5,0-8.28,2.16-10.22,5.83l-0.36-4.61-9.57-.07ZM398.34,731h9.87V714.74c0-5.47,1.37-8,3-9.72a8.73,8.73,0,0,1,6.7-2.88,11.54,11.54,0,0,1,1.65.14l0.07-8.71a14,14,0,0,0-2.09-.22,9.45,9.45,0,0,0-9.14,6.55l-0.29-5.54h-9.72V731Zm-34.2-15.63,27.22,0.07c0-10.87-4.89-22.39-18.57-22.39-14,0-18.36,11.16-18.36,19.51,0,12.16,8.06,19.73,18.29,19.73s16.49-5.55,18-12l-9.94-.64c-1.87,3.38-4.39,4.75-7.63,4.75C368.46,724.46,364.64,721.29,364.14,715.39Zm0.44-7.13a8.38,8.38,0,0,1,8.06-7.48c4,0,7.41,2.73,8.13,7.48h-16.2ZM349.31,731v-7.56h-3.67a3.64,3.64,0,0,1-2.81-1.37c-0.22-.29-0.5-0.86-0.5-2.88V701.06h6.62v-6.7h-6.62l-0.07-11.59h-9.79v11.59h-5.11v6.77l5.19-.07L332.46,720c0,8.28,3.46,11,8.86,11h8Zm-61.42-12.24c0.15,6.91,6,13.54,17.14,13.54,11.45,0,16.49-6.12,16.49-12.67a10.42,10.42,0,0,0-2.3-6.41c-1.37-1.72-3.17-3-7.49-4l-10.51-2.45c-2.23-.57-3.1-1.94-3.1-3.24s1.29-3.67,6.12-3.67c5.19,0,7.49,2.73,7.56,5.69l8.71-.14a13,13,0,0,0-5.26-9.65c-2.16-1.51-5.54-2.81-10.87-2.81-10.51,0-15.19,5.69-15.19,12a9.47,9.47,0,0,0,2.59,6.91c1.3,1.37,2.88,2.52,6.91,3.38l7.92,1.8c4.61,1,5.19,2.45,5.19,4.18s-1.51,4.11-6.91,4.11c-5.19,0-7.78-2.73-8.06-6.55ZM248.15,731H258V710.49c0-2.88.57-4.25,1.44-5.4a7.39,7.39,0,0,1,6-3.1c3.38,0,5.83,2.23,5.83,6.33V731h9.79V705.16c0-6.84-5-12.1-12.6-12.1-5.26,0-8.93,2.81-10.15,5.69l-0.43-4.32-9.65-.07Zm-26.71,1.44c11.81,0,19.73-7.92,19.73-19.87,0-11.74-8.06-19.66-19.44-19.66-11.09,0-19.3,7.92-19.3,19.66C202.43,724.53,210.64,732.45,221.44,732.45Zm0.58-7.71c-5.19,0-9.5-3.67-9.5-12.16,0-8.21,4.39-12,9.43-12,4.75,0,9.14,3.31,9.14,12.24C231.09,721.51,226.41,724.75,222,724.75ZM223.31,690h9.94L233.18,680l-9.87-.07v10Zm-12.81,0h9.86L220.29,680,210.5,680v10Zm-29.45,41h9.86V700.92H198v-6.55h-7.2v-0.72c0-3.31.65-4.25,1.23-4.9,0.79-.86,1.94-1.51,4.32-1.44H198V680h-5.62c-3.38,0-12.31.57-11.37,14.33h-5.33v6.55h5.33V731ZM476.46,622.76h29.45V614H476.53Zm-41,8.93c0.21,6.91,6,13.54,17.28,13.54,11.45,0,16.42-6.12,16.42-12.67a10.35,10.35,0,0,0-2.23-6.41c-1.37-1.72-3.17-3-7.49-4L449,619.66c-2.23-.57-3.1-1.94-3.1-3.24s1.3-3.67,6.12-3.67c5.18,0,7.48,2.73,7.56,5.69l8.71-.14a13.24,13.24,0,0,0-5.26-9.65c-2.16-1.51-5.55-2.81-10.87-2.81-10.58,0-15.26,5.69-15.26,12a9.46,9.46,0,0,0,2.59,6.91c1.3,1.37,2.88,2.52,7,3.38l7.92,1.8c4.61,1,5.19,2.45,5.19,4.18s-1.51,4.11-7,4.11c-5.11,0-7.78-2.73-8.06-6.55Zm-41.9,14.25a11,11,0,0,0,3.53,7.34c2.23,2.16,6.41,4.18,13.46,4.18,7.92,0,13-3,15.48-6.12,1.66-2.23,2.59-4.25,2.59-9.72l-0.07-34.34h-9.36l-0.36,4.46c-0.65-1.15-2.66-5.76-10.8-5.76-8.86,0-16.63,7.06-16.63,18.36s7.78,18.43,16.49,18.43c5.9,0,9.5-2.66,10.95-5.47l-0.07,4c0,6.19-2.81,8.78-8.49,8.78-4.25,0-6.27-2.16-6.62-4.46Zm16.7-11.66c-4.82,0-8.86-3.46-8.86-10.22,0-5.9,4.11-9.65,8.64-9.65s8.64,3.74,8.64,9.94S414.55,634.28,410.3,634.28Zm-58.61,9.65h9.94V623.41c0-2.88.58-4.25,1.37-5.4a7.53,7.53,0,0,1,6-3.1c3.38,0,5.83,2.23,5.83,6.33l-0.07,22.68h9.86V618.08c0-6.84-5-12.1-12.6-12.1-5.26,0-8.93,2.81-10.22,5.69l-0.36-4.32-9.72-.07Zm-17.49,0h9.87V607.28h-9.79Zm0.07-42.19h9.86V593h-9.86v8.79ZM293.8,643.93h9.87V623.41c0-2.88.57-4.25,1.37-5.4a7.53,7.53,0,0,1,6-3.1c3.38,0,5.83,2.23,5.83,6.33l-0.07,22.68h9.86V618.08c0-6.84-5-12.1-12.6-12.1-5.26,0-8.93,2.81-10.22,5.69l-0.36-4.32-9.65-.07Zm-61.34,0h9.94V622.76c0-5.26,3-7.92,6.91-7.92a4.88,4.88,0,0,1,4.89,3.1c0.14,0.36.43,1.15,0.43,4v22h9.79V622.19c0-4.75,3-7.49,6.84-7.49,3.31,0,5.55,2,5.55,6.34v22.9h9.72l-0.07-25.71c-0.21-7.7-5.11-12.1-11.73-12.1a12.22,12.22,0,0,0-11.23,6.41,11.94,11.94,0,0,0-10.8-6.41c-5,0-8.28,2.16-10.22,5.83l-0.36-4.61-9.57-.07Zm-37.87,4.18v7.7h7.27c8.57,0,10.58-6.77,11.38-9l14-39.53H216.77L209.43,630l-7.71-22.68H191.06l11.38,30.89a12.59,12.59,0,0,1,1,5c0,3-1.65,5-5.9,4.89h-3Zm-29-4.18h9.94V627.66c0-5.47,1.37-8,3-9.72a8.73,8.73,0,0,1,6.7-2.88,11.57,11.57,0,0,1,1.65.14l0.07-8.71a14.15,14.15,0,0,0-2.09-.22,9.45,9.45,0,0,0-9.14,6.55l-0.36-5.54h-9.65Zm-7.2,0v-7.56h-3.67A3.54,3.54,0,0,1,151.9,635c-0.22-.29-0.5-0.86-0.5-2.88V614H158v-6.7h-6.63l-0.07-11.59h-9.79v11.59h-5.19V614l5.26-.07-0.07,18.94c0,8.28,3.38,11,8.86,11h8Zm-69-51-0.07,35.71c0,5.26,1.3,8.28,3.81,11,3,3.24,7.92,5.83,16.85,5.83,13.75,0,20.45-6.84,20.45-17.06L130.37,593H119.86v33.91c0,4.18-.57,5.54-1.58,6.91-1.51,2.16-4.18,3.74-8.28,3.74-6.63,0-10.22-3.67-10.22-9.86L99.84,593H89.4ZM289.23,278.3l-16-16v38.83l16-16V278.3ZM212.89,82.63v54.11a40.69,40.69,0,0,0-12.47,12.47V126.35H106.76v60.34h93.67v-4.16A39.85,39.85,0,0,0,212.89,195V217.2l-12.47,12.47V197.76H106.76v60.4h5.56v6.24c0,1.86-.21,3.57.68,5.51h-6.24v60.34h93.67V283.11c4-.79,6.92-2.19,12.47-8.32v86.7L200.42,374V341.37H106.76v60.34H190c1.25,5.6,4.3,8.82,8.32,11.8H106.76v60.34h93.67V414.19c4,2.11,8.73,3.59,12.47,2.81v95.69H200.42V485H106.76v27.7H93.61V82.63h13.15v31.92h93.67V82.63h12.47ZM401.66,297.68H360l-15.23-16L221.3,405.22c-13.89,13.9-34.65-7-20.79-20.84L303.16,281.73l-53.43-54.11-45.06,45.12a12.62,12.62,0,0,1-9,3.43h-63.1c-17.08,0-17.08-25.62,0-25.62h57.59l82.54-81.86a13,13,0,0,1,9-4.16H344.8c7.16,0,12.48,6.14,12.48,13.15v65.91L332.33,217.9V190.2H294.18ZM203.18,165.95a25.67,25.67,0,1,0,25.63-25.71A25.59,25.59,0,0,0,203.18,165.95Zm86.06-8.42V99.26H484.88V304.62H332.27l-16.69,16.63H500.84V82.63H273.28v76.3a15.58,15.58,0,0,1,6.24-1.41h9.72Z"/></svg>