<svg xmlns="http://www.w3.org/2000/svg" viewBox="0 0 595.28 850.37"><defs><style>.a{fill:#017e49;}.a,.b{fill-rule:evenodd;}.b{fill:#e5e8eb;}</style></defs><title>E017_C</title><polyline class="a" points="0 850.37 595.28 850.37 595.28 0 0 0 0 850.37"/><path class="b" d="M398.34,731h9.87V714.74c0-5.47,1.37-8,3-9.72a8.71,8.71,0,0,1,6.69-2.88,12.15,12.15,0,0,1,1.66.14l0.07-8.71a14.63,14.63,0,0,0-2.09-.21,9.45,9.45,0,0,0-9.14,6.55l-0.29-5.55h-9.72V731Zm-34.2-15.62,27.22,0.07c0-10.87-4.89-22.39-18.57-22.39-14,0-18.36,11.16-18.36,19.51,0,12.17,8.06,19.73,18.29,19.73s16.49-5.54,18-12l-9.94-.65c-1.87,3.38-4.39,4.75-7.63,4.75C368.46,724.45,364.64,721.29,364.14,715.38Zm0.43-7.13a8.39,8.39,0,0,1,8.07-7.49c4,0,7.41,2.73,8.13,7.49h-16.2ZM349.31,731v-7.56h-3.67a3.65,3.65,0,0,1-2.8-1.37c-0.22-.29-0.5-0.87-0.5-2.88V701.06h6.62v-6.7h-6.62l-0.07-11.59h-9.79v11.59h-5.11v6.77l5.19-.07L332.46,720c0,8.28,3.46,11,8.86,11h8Zm-61.42-12.24c0.14,6.91,6,13.54,17.14,13.54,11.45,0,16.49-6.12,16.49-12.67a10.42,10.42,0,0,0-2.3-6.4c-1.37-1.73-3.17-3-7.49-4l-10.51-2.45c-2.23-.57-3.1-1.94-3.1-3.24s1.3-3.67,6.12-3.67c5.19,0,7.49,2.73,7.56,5.69l8.71-.14a13,13,0,0,0-5.26-9.65c-2.16-1.51-5.54-2.81-10.87-2.81-10.51,0-15.19,5.69-15.19,12a9.45,9.45,0,0,0,2.59,6.91c1.3,1.37,2.88,2.52,6.91,3.38l7.92,1.8c4.61,1,5.18,2.45,5.18,4.18s-1.51,4.1-6.91,4.1c-5.19,0-7.78-2.73-8.06-6.55ZM248.15,731H258V710.49c0-2.88.57-4.25,1.44-5.4a7.4,7.4,0,0,1,6-3.1c3.38,0,5.83,2.23,5.83,6.33V731h9.79V705.16c0-6.84-5-12.1-12.6-12.1-5.26,0-8.93,2.8-10.15,5.69l-0.43-4.32-9.65-.07Zm-26.71,1.44c11.81,0,19.73-7.92,19.73-19.87,0-11.74-8.06-19.66-19.44-19.66-11.09,0-19.29,7.92-19.29,19.66C202.43,724.53,210.64,732.45,221.44,732.45Zm0.58-7.7c-5.19,0-9.5-3.67-9.5-12.17,0-8.21,4.39-12,9.43-12,4.75,0,9.14,3.31,9.14,12.24C231.09,721.5,226.41,724.75,222,724.75ZM223.31,690h9.94L233.18,680l-9.87-.07v10Zm-12.81,0h9.86L220.29,680,210.5,680v10ZM181,731h9.87V700.91H198v-6.55h-7.2v-0.72c0-3.31.65-4.25,1.22-4.9,0.79-.86,1.95-1.51,4.32-1.44H198V680h-5.62c-3.38,0-12.31.58-11.38,14.33h-5.33v6.55H181V731ZM462.13,622.76h29.38V614H462.13v8.71Zm-41,8.93c0.14,6.91,6,13.54,17.21,13.54,11.45,0,16.49-6.12,16.49-12.67a10.42,10.42,0,0,0-2.3-6.4c-1.37-1.73-3.1-3-7.49-4l-10.51-2.45c-2.16-.57-3.1-1.94-3.1-3.24s1.3-3.67,6.12-3.67c5.19,0,7.49,2.73,7.56,5.69l8.71-.14a13,13,0,0,0-5.26-9.65c-2.16-1.51-5.54-2.8-10.87-2.8-10.58,0-15.19,5.69-15.19,12a9.4,9.4,0,0,0,2.52,6.91c1.29,1.37,2.88,2.52,7,3.38l7.92,1.8c4.68,1,5.18,2.45,5.18,4.18s-1.51,4.1-6.91,4.1c-5.19,0-7.85-2.73-8.14-6.55Zm-42,14.25a10.73,10.73,0,0,0,3.6,7.34c2.16,2.16,6.34,4.18,13.39,4.18,8,0,13-3,15.48-6.12,1.73-2.23,2.59-4.25,2.59-9.72V607.28h-9.43l-0.36,4.46c-0.65-1.15-2.66-5.76-10.8-5.76-8.86,0-16.56,7.05-16.56,18.36s7.71,18.43,16.49,18.43c5.83,0,9.43-2.66,10.87-5.47v4c0,6.2-2.88,8.79-8.49,8.79-4.32,0-6.33-2.16-6.62-4.46Zm16.7-11.66c-4.82,0-8.78-3.45-8.78-10.22,0-5.9,4-9.65,8.57-9.65s8.64,3.74,8.64,9.94S400.14,634.28,395.89,634.28Zm-58.53,9.65h9.87l0.07-20.52c0-2.88.58-4.25,1.37-5.4a7.39,7.39,0,0,1,6-3.1c3.38,0,5.83,2.23,5.83,6.34v22.68h9.86V618.08c0-6.84-5-12.1-12.67-12.1-5.26,0-8.93,2.81-10.15,5.69l-0.43-4.32-9.65-.07Zm-17.49,0h9.87V607.28h-9.87v36.65Zm0-42.19h9.87V593h-9.87v8.78Zm-40.39,42.19h9.87l0.07-20.52c0-2.88.58-4.25,1.37-5.4a7.4,7.4,0,0,1,6-3.1c3.31,0,5.76,2.23,5.76,6.34v22.68h9.86V618.08c0-6.84-5-12.1-12.67-12.1-5.19,0-8.86,2.81-10.08,5.69l-0.43-4.32-9.65-.07Zm-17.86-3.74,0.43,3.74h9.79l-0.07-51h-9.87v18.5c-1.8-2.88-5.9-5.33-10.58-5.33-8.21,0-16.27,6.84-16.27,19.65a21.4,21.4,0,0,0,4.75,14A13.78,13.78,0,0,0,251,645.15,13.05,13.05,0,0,0,261.62,640.18Zm-7.78-3.53c-4.61,0-8.71-3.31-8.71-11.09,0-8.71,4.25-11.8,8.35-11.8s8.28,3.1,8.28,11.52C261.76,633.34,257.52,636.58,253.84,636.65Zm-35.92,3.53,0.43,3.74h9.79l-0.07-51h-9.86v18.5c-1.8-2.88-5.9-5.33-10.58-5.33-8.21,0-16.27,6.84-16.27,19.65a21.42,21.42,0,0,0,4.75,14,13.79,13.79,0,0,0,11.16,5.33A13.07,13.07,0,0,0,217.92,640.18Zm-7.78-3.53c-4.61,0-8.71-3.31-8.71-11.09,0-8.71,4.25-11.8,8.35-11.8s8.28,3.1,8.28,11.52C218.06,633.34,213.81,636.58,210.14,636.65Zm-35.71,3.1a14.84,14.84,0,0,0,1.29,4.18h10c-0.57-.5-1.58-2.16-1.58-5.18L184.08,620a17.12,17.12,0,0,0-.58-5C182.07,610,178,606,168,606c-11.45,0-15.91,5.83-15.91,12.24l8.64,0.14c0.43-2.45.79-3,1.58-3.67S165.07,613,168,613c4.61,0,6.41,2.45,6.41,4.18s-1.08,3-3.82,3.45l-9.86,1.73c-7.41,1.3-10.87,6.12-10.87,10.95,0,6.33,4.89,11.73,13.75,11.73C169.75,645,173.06,642.56,174.43,639.75Zm0.07-15.33-0.07,5.47c-0.22,4.61-3.31,7.78-8.71,7.78-4.11,0-6.12-2.45-6.12-4.61,0-1.73.87-4,6.7-5.4l4.32-1.15A8.08,8.08,0,0,0,174.5,624.41Zm-5.9-21.53,9.87,0.07,0.07-10H168.6v9.94Zm-12.89,0h9.87l0.07-10h-9.86Zm-52.06,41h10.51l0.07-20.16,9.22,0.07a8.45,8.45,0,0,1,7.78,4.18,10.52,10.52,0,0,1,1,3.24c1.08,4.18-.07,8.71,1.95,12.67h10.73a13.64,13.64,0,0,1-1.66-5.33l-0.86-9c-0.29-3.67-1.15-5.26-2.52-6.77a11.19,11.19,0,0,0-6.77-3.1c6.62-.72,11.09-5.69,11.09-12.53,0-8-6.34-14.83-17.13-14.25H103.73Zm10.51-28.3V601.52h11.66c2.81,0,3.6.36,4.75,1a7.51,7.51,0,0,1,3.24,6.12c0,3.89-3,7.13-8.35,7.06ZM346.76,263l-6.91,24.27-18-24.27h24.94ZM119.26,376.77l-13.88,36.74a5.07,5.07,0,0,0,5.56,6.91l56.85-6.24v-43l-45.06,3.48A3.77,3.77,0,0,0,119.26,376.77ZM338.2,483.7A28.76,28.76,0,1,0,367,455,28.79,28.79,0,0,0,338.2,483.7Zm-220.34,0A28.76,28.76,0,1,0,146.65,455,28.79,28.79,0,0,0,117.85,483.72Zm6.28-123.67,45.11-3.43h34.67v75.56H329.48V381.57h37.41l10.45-7.64-39.55-52.7,5.56-20.11L214.3,130.5h44.44l45.06,59.66c-1.67,0-4.12,2.33-4.83,3.43l-9-11.8-7.64,28.48,2.81,4.16h29.83l-1.4-1.41h7.64l27.7,36.74v31.91l-3.43,12.47,2.75,4.21H378L371.78,290c1.5-1.28,2.37-3.38,2.75-6.24l74.94,99.89L437.68,426H416.83l-8.32-10.39-4.16,2.75v13.88h45.11v42.3l-25,9H404.36l-0.68-2.08c-4.89-46.46-69.38-46.46-74.21,0v2.08H183.8v-2.08c-4.83-46.46-69.33-46.46-74.21,0v2.08h-6.24A8.31,8.31,0,0,1,95,475.22V423.88a9.83,9.83,0,0,1,.67-3.48l20.84-54.77A8.77,8.77,0,0,1,124.14,360.06ZM323.26,132.3a15.23,15.23,0,1,0,15.26-15.19A15.27,15.27,0,0,0,323.26,132.3Zm91.47,6.53v39.55L400.18,163.1V146.47H377.32L441.81,211h-25l-9.66-9.72L370.35,238v44.44c0,11.54-17.3,11.54-17.3,0V234.56c0-2.25.42-4.61,2.08-6.23l27.7-27.08L353,171.41v29.83a7.64,7.64,0,0,1-7.64,7.64H307.93c-10.22,0-10.12-15.28,0-15.28h29.79V163.77a7.57,7.57,0,0,1,2.08-5.51L364.79,134a7.06,7.06,0,0,1,4.89-2.08h38.15A6.91,6.91,0,0,1,414.73,138.83ZM364.8,213l9.72-9.72v-4.83l-9.72-9.72V213Zm34.72,2.08-9.72,9h111V82.62h-136v45.79a11.07,11.07,0,0,1,4.89-.68h4.83V92.34H491V215.1H399.52ZM195.59,342.74c0-13.86-20.79-13.86-20.79,0v10.39h20.79V342.74ZM251.76,137.4l-6.91,24.27-18-24.27h24.94Zm7,2.81L283,172.79H253.17l-2.81-4.16Zm0,38.82,18,24.27L283.67,179H258.73Zm56.85,42.3-7,24.27-18-24.27h25Zm38.15,83.93,18,24.27,6.91-24.27H353.73Zm56.18,41.63-7,24.27-18-24.27h25Zm-25-38.88,25,32.64H380.08l-3.48-4.16Zm31.91,41.63-8.31,28.43,3.48,4.16h29.1Zm0,39.55,18,24.27,7-24.27h-25Zm-95-165.06,24.27,32.59H317l-3.48-4.16Z"/></svg>