<svg xmlns="http://www.w3.org/2000/svg" viewBox="0 0 595.28 850.36"><defs><style>.a{fill:#017e49;}.a,.b{fill-rule:evenodd;}.b{fill:#e5e8eb;}</style></defs><title>E018_C</title><polyline class="a" points="0 850.36 595.28 850.36 595.28 0 0 0 0 850.36"/><path class="b" d="M380.12,718.77c0.14,6.91,6,13.53,17.21,13.53,11.45,0,16.49-6.12,16.49-12.67a10.42,10.42,0,0,0-2.3-6.41c-1.37-1.73-3.1-3-7.41-4l-10.58-2.45c-2.16-.57-3.1-1.94-3.1-3.24s1.29-3.67,6.12-3.67c5.26,0,7.56,2.73,7.56,5.69l8.71-.14a13,13,0,0,0-5.26-9.65c-2.16-1.51-5.54-2.81-10.87-2.81-10.58,0-15.19,5.69-15.19,12a9.41,9.41,0,0,0,2.52,6.91c1.3,1.37,2.88,2.52,7,3.38l7.92,1.8c4.68,1,5.19,2.45,5.19,4.18s-1.51,4.11-6.91,4.11c-5.18,0-7.85-2.73-8.13-6.55ZM354.28,731h9.86V714.74c0-5.47,1.37-8,3-9.72a8.84,8.84,0,0,1,6.7-2.88,13.72,13.72,0,0,1,1.73.14v-8.71a13.07,13.07,0,0,0-2.09-.22,9.52,9.52,0,0,0-9.14,6.55L364,694.36h-9.65Zm-17.42-4.11,0.5,4.11h9.29V694.43l-9.79-.07v20.52c0,5.61-3.31,8.49-7.34,8.49-3.67,0-5.9-1.95-5.9-7.13V694.36h-9.86v25.2c0,4.82,1.37,7.41,3.6,9.5a13.24,13.24,0,0,0,9.15,3.17A11.91,11.91,0,0,0,336.85,726.9ZM306.61,731v-7.56h-3.67a3.65,3.65,0,0,1-2.81-1.37c-0.21-.29-0.5-0.86-0.5-2.88V701.06h6.7v-6.7H299.7l-0.14-11.59h-9.72v11.59h-5.11v6.77l5.19-.07V720c0,8.28,3.38,11,8.71,11h8Zm-45.5,1.37c11.09,0,19.23-7.85,19.23-19.8,0-11.59-8-19.58-19.37-19.58-11,0-19.15,7.92-19.15,19.51C241.82,724.6,250,732.37,261.11,732.37Zm-0.07-7.7c-4.68,0-9.22-3.6-9.22-11.74,0-8.78,4.39-12.24,9.22-12.24s9.29,3.53,9.29,11.88C270.33,721.14,265.86,724.67,261,724.67ZM181.27,731h9.86V709.84c0-5.26,3-7.92,6.91-7.92a4.93,4.93,0,0,1,5,3.1c0.14,0.36.43,1.15,0.43,4v22h9.72V709.26c0-4.75,3-7.49,6.84-7.49,3.38,0,5.55,2,5.55,6.33V731h9.79l-0.07-25.7c-0.22-7.7-5.11-12.1-11.81-12.1a12.22,12.22,0,0,0-11.23,6.41,11.87,11.87,0,0,0-10.8-6.41c-5,0-8.28,2.16-10.15,5.83l-0.36-4.61-9.58-.07Zm212.11-99.32c0.22,6.91,6.05,13.53,17.28,13.53s16.41-6.12,16.41-12.67a10.35,10.35,0,0,0-2.23-6.41c-1.37-1.73-3.17-3-7.49-4l-10.51-2.45c-2.23-.57-3.1-1.94-3.1-3.24s1.29-3.67,6-3.67c5.26,0,7.56,2.73,7.63,5.69l8.71-.14a13.25,13.25,0,0,0-5.26-9.65c-2.16-1.51-5.54-2.81-10.87-2.81-10.58,0-15.26,5.69-15.26,12a9.46,9.46,0,0,0,2.59,6.91c1.3,1.37,2.88,2.52,7,3.38l7.92,1.8c4.61,1,5.19,2.45,5.19,4.18s-1.51,4.11-7,4.11c-5.19,0-7.78-2.73-8.06-6.55Zm-16.92,8.06a11.65,11.65,0,0,0,1.15,4.18h10.08a5.46,5.46,0,0,1-1.65-3.82V620c0-8.79-4.54-14-16.49-14-11.09,0-15.7,6-15.48,12.24l8.71,0.14c0-2.73,2-5.33,7.05-5.33,4.82,0,6.48,2.37,6.48,4.1,0,1.51-.94,2.88-3.6,3.39l-5.69.93c-8.06,1.44-10.22,3-11.81,4.32a10.19,10.19,0,0,0-3.38,7.63c0,6,4.75,11.52,14,11.52C371.2,644.93,374.37,643.13,376.46,639.75Zm0.07-15.12-0.07,4.61c0,5.19-3.24,8.42-8.86,8.42-4.1,0-6.12-2.45-6.12-4.68,0-1.73.65-3.67,6.84-5.4l4.25-1.15A12.06,12.06,0,0,0,376.53,624.63Zm-64.22,19.3h9.86l0.07-20.52c0-2.88.57-4.25,1.37-5.4a7.39,7.39,0,0,1,6-3.1c3.46,0,5.9,2.23,5.9,6.33l-0.07,22.68h9.86V618.08c0-6.84-5-12.1-12.6-12.1-5.26,0-8.93,2.81-10.22,5.69l-0.36-4.32-9.72-.07Zm-33.77-4.25c2.09,3.38,5.76,5.47,10.73,5.47,9.94,0,16.13-9.29,16.13-19.73,0-10-6-19.3-16-19.3a13.27,13.27,0,0,0-10.65,5l-0.44-3.74-9.72.07,0.07,48.45h9.79Zm8.78-2.09c-4.68,0-8.71-3.17-8.71-11.09,0-8.86,4.32-12,8.35-12s8.49,3.31,8.49,11.45C295.46,631.39,293.16,637.52,287.32,637.59Zm-52.56,2.09c2.09,3.38,5.76,5.47,10.73,5.47,10,0,16.2-9.29,16.2-19.73,0-10-6-19.3-16.05-19.3a13.28,13.28,0,0,0-10.66,5l-0.43-3.74-9.72.07,0.07,48.45h9.79Zm8.78-2.09c-4.68,0-8.71-3.17-8.71-11.09,0-8.86,4.32-12,8.35-12s8.49,3.31,8.49,11.45C251.69,631.39,249.38,637.52,243.55,637.59Zm-51,7.92c8.78,0,14.11-2.59,18.57-7.71a29.77,29.77,0,0,0,6.84-19.51c0-12.67-8-27.14-24.77-27.14-7.41,0-13.75,2.59-18.58,8.42a30.08,30.08,0,0,0-6.48,19C168.1,632.12,176.88,645.51,192.5,645.51Zm0.94-8.57C182,636.94,179,625.35,179,618.51c0-7.27,3.38-18.64,14.18-18.64,6.62,0,14,5.83,14,18.5S199.71,636.94,193.44,636.94ZM182,588.56l9.94-.07v-10l-9.94.07v10Zm13-.07h9.87l-0.07-10-9.86.07Zm61.68-75.88H473.77v-430H256.63l0,154.44c-16.79,10.3-28.77,37-28.77,68.24s12,57.95,28.77,68.25Zm-107-264.27H121.32l52.13,57.34,52.13-57.34H196.72l0,0a109.91,109.91,0,0,1,219,13.63l46.94,0.07a156.81,156.81,0,0,0-313-13.73v0ZM272,232.54h0c24.4,0,44.21,32.61,44.21,72.79s-19.8,72.79-44.21,72.79l89.38,0c24.41,0,44.21-32.61,44.21-72.79s-19.8-72.79-44.21-72.79Z"/></svg>