<svg xmlns="http://www.w3.org/2000/svg" viewBox="0 0 595.28 850.36"><defs><style>.a{fill:#017e49;}.a,.b{fill-rule:evenodd;}.b{fill:#e5e8eb;}</style></defs><title>E019_C</title><polyline class="a" points="0 850.36 595.28 850.36 595.28 0 0 0 0 850.36"/><path class="b" d="M387.83,718.77c0.22,6.91,6,13.53,17.28,13.53s16.41-6.12,16.41-12.67a10.37,10.37,0,0,0-2.23-6.41c-1.37-1.73-3.17-3-7.49-4l-10.51-2.45c-2.23-.57-3.1-1.94-3.1-3.24s1.3-3.67,6.12-3.67c5.19,0,7.49,2.73,7.56,5.69l8.71-.14a13.22,13.22,0,0,0-5.26-9.65c-2.16-1.51-5.54-2.81-10.87-2.81-10.58,0-15.26,5.69-15.26,12a9.46,9.46,0,0,0,2.59,6.91c1.29,1.37,2.88,2.52,7,3.38l7.92,1.8c4.61,1,5.18,2.45,5.18,4.18s-1.51,4.11-7,4.11c-5.18,0-7.78-2.73-8.06-6.55ZM362,731h9.86l0.07-16.27c0-5.47,1.29-8,3-9.72a8.73,8.73,0,0,1,6.7-2.88,12.53,12.53,0,0,1,1.65.14l0.07-8.71a14,14,0,0,0-2.09-.22,9.39,9.39,0,0,0-9.14,6.55l-0.36-5.54h-9.65Zm-17.42-4.11,0.57,4.11h9.29l-0.07-36.58-9.79-.07v20.52c0,5.61-3.31,8.49-7.27,8.49-3.67,0-6-1.95-6-7.13V694.36h-9.86v25.2c0,4.82,1.44,7.41,3.67,9.5a13.11,13.11,0,0,0,9.14,3.17A11.78,11.78,0,0,0,344.56,726.9Zm-40.75.36,0.44,3.74H314V680H304v18.5c-1.73-2.88-5.9-5.33-10.51-5.33-8.14,0-16.27,6.84-16.27,19.66a21.39,21.39,0,0,0,4.75,14,13.87,13.87,0,0,0,11.16,5.33A13.05,13.05,0,0,0,303.8,727.26Zm-7.7-3.53c-4.68,0-8.71-3.31-8.71-11.09,0-8.71,4.25-11.81,8.28-11.81s8.28,3.1,8.28,11.52C303.95,720.42,299.7,723.66,296.1,723.73Zm-52.2-8.35,27.22,0.07c0-10.87-4.9-22.39-18.58-22.39-14,0-18.43,11.16-18.43,19.51,0,12.17,8.06,19.73,18.36,19.73s16.49-5.54,18-12l-9.94-.64c-1.87,3.38-4.39,4.75-7.63,4.75C248.22,724.45,244.41,721.28,243.9,715.38Zm0.43-7.13a8.38,8.38,0,0,1,8-7.48c4,0,7.49,2.73,8.13,7.48H244.33ZM173.56,731h9.87l0.07-21.17c0-5.26,3-7.92,6.91-7.92a4.88,4.88,0,0,1,4.89,3.1c0.14,0.36.43,1.15,0.43,4v22h9.79V709.26c0-4.75,3-7.49,6.84-7.49,3.31,0,5.54,2,5.54,6.33V731h9.72l-0.07-25.71c-0.21-7.7-5.11-12.1-11.73-12.1a12.33,12.33,0,0,0-11.3,6.41,11.76,11.76,0,0,0-10.73-6.41c-5,0-8.28,2.16-10.22,5.83l-0.36-4.61-9.57-.07Zm219.81-99.32c0.22,6.91,6,13.53,17.28,13.53s16.41-6.12,16.41-12.67a10.37,10.37,0,0,0-2.23-6.41c-1.37-1.73-3.17-3-7.49-4l-10.51-2.45c-2.23-.57-3.1-1.94-3.1-3.24s1.3-3.67,6.05-3.67c5.26,0,7.56,2.73,7.63,5.69l8.71-.14a13.23,13.23,0,0,0-5.26-9.65c-2.16-1.51-5.54-2.81-10.87-2.81-10.58,0-15.26,5.69-15.26,12a9.46,9.46,0,0,0,2.59,6.91c1.29,1.37,2.88,2.52,7,3.38l7.92,1.8c4.61,1,5.18,2.45,5.18,4.18s-1.51,4.11-7,4.11c-5.18,0-7.78-2.73-8.06-6.55Zm-16.92,8.06a11.58,11.58,0,0,0,1.15,4.18h10.08a5.46,5.46,0,0,1-1.65-3.82V620c0-8.79-4.54-14-16.49-14-11.09,0-15.7,6-15.48,12.24l8.71,0.14c0-2.73,2-5.33,7.06-5.33,4.82,0,6.48,2.37,6.48,4.1,0,1.51-.94,2.88-3.6,3.39l-5.69.93c-8.06,1.44-10.22,3-11.81,4.32a10.19,10.19,0,0,0-3.38,7.63c0,6,4.75,11.52,14,11.52C371.2,644.93,374.37,643.13,376.46,639.75Zm0.07-15.12-0.07,4.61c0,5.19-3.24,8.42-8.86,8.42-4.1,0-6.12-2.45-6.12-4.68,0-1.73.64-3.67,6.84-5.4l4.25-1.15A12.06,12.06,0,0,0,376.53,624.63Zm-64.22,19.3h9.87l0.07-20.52c0-2.88.58-4.25,1.37-5.4a7.4,7.4,0,0,1,6-3.1c3.46,0,5.9,2.23,5.9,6.33l-0.07,22.68h9.87V618.08c0-6.84-5-12.1-12.6-12.1-5.26,0-8.93,2.81-10.22,5.69l-0.36-4.32-9.72-.07Zm-33.76-4.25c2.09,3.38,5.76,5.47,10.73,5.47,9.94,0,16.13-9.29,16.13-19.73,0-10-6-19.3-16-19.3a13.27,13.27,0,0,0-10.66,5l-0.43-3.74-9.72.07,0.07,48.45h9.79Zm8.78-2.09c-4.68,0-8.71-3.17-8.71-11.09,0-8.86,4.32-12,8.35-12s8.5,3.31,8.5,11.45C295.46,631.39,293.16,637.52,287.32,637.59Zm-52.56,2.09c2.09,3.38,5.76,5.47,10.73,5.47,10,0,16.2-9.29,16.2-19.73,0-10-6-19.3-16.05-19.3a13.27,13.27,0,0,0-10.66,5l-0.43-3.74-9.72.07,0.07,48.45h9.79Zm8.78-2.09c-4.68,0-8.71-3.17-8.71-11.09,0-8.86,4.32-12,8.35-12s8.5,3.31,8.5,11.45C251.69,631.39,249.38,637.52,243.55,637.59Zm-51,7.92c8.78,0,14.11-2.59,18.57-7.71a29.77,29.77,0,0,0,6.84-19.51c0-12.67-8-27.14-24.77-27.14-7.42,0-13.75,2.59-18.58,8.42a30.08,30.08,0,0,0-6.48,19C168.1,632.12,176.88,645.51,192.5,645.51Zm0.94-8.57C182,636.94,179,625.35,179,618.51c0-7.27,3.38-18.64,14.18-18.64,6.62,0,14,5.83,14,18.5S199.7,636.94,193.44,636.94ZM182,588.56l9.94-.07v-10l-9.94.07v10Zm13-.07h9.87l-0.07-10-9.87.07Zm143.62-75.87H121.43v-430H338.57l0,154.44c16.78,10.3,28.77,37,28.77,68.25s-12,57.94-28.77,68.24Zm107-264.27h28.28l-52.13,57.34-52.13-57.34h28.85l0,0a109.91,109.91,0,0,0-219,13.63l-46.94.07a156.82,156.82,0,0,1,313-13.73Zm-122.44-15.8h0c-24.41,0-44.21,32.61-44.21,72.79s19.8,72.79,44.21,72.79l-89.39,0c-24.41,0-44.21-32.61-44.21-72.79s19.8-72.79,44.21-72.79Z"/></svg>