<svg xmlns="http://www.w3.org/2000/svg" viewBox="0 0 595.28 850.37"><defs><style>.a{fill:#017e49;}.a,.b{fill-rule:evenodd;}.b{fill:#e5e8eb;}</style></defs><title>E020_C</title><polyline class="a" points="0 850.37 595.28 850.37 595.28 0 0 0 0 850.37"/><path class="b" d="M435.35,639.68c2.16,3.38,5.76,5.47,10.8,5.47,10,0,16.2-9.29,16.2-19.73,0-10-6-19.3-16.13-19.3a13.13,13.13,0,0,0-10.58,5l-0.43-3.74-9.72.07v48.45h9.87v-16.2Zm8.86-2.09c-4.75,0-8.79-3.17-8.79-11.09,0-8.86,4.39-12,8.42-12s8.49,3.31,8.49,11.45C452.34,631.4,450,637.52,444.21,637.59Zm-52.63,2.09c2.16,3.38,5.76,5.47,10.8,5.47,10,0,16.2-9.29,16.2-19.73,0-10-6-19.3-16.13-19.3a13.12,13.12,0,0,0-10.58,5l-0.44-3.74-9.72.07v48.45h9.87v-16.2Zm8.86-2.09c-4.75,0-8.79-3.17-8.79-11.09,0-8.86,4.39-12,8.42-12s8.49,3.31,8.49,11.45C408.57,631.4,406.27,637.52,400.44,637.59Zm-44.93,7.7c11.16,0,19.3-7.85,19.3-19.8,0-11.59-8.06-19.58-19.44-19.58-11,0-19.15,7.92-19.15,19.51C336.21,637.52,344.35,645.3,355.51,645.3Zm-0.07-7.7c-4.68,0-9.14-3.6-9.14-11.74,0-8.78,4.39-12.24,9.22-12.24s9.22,3.53,9.22,11.88C364.72,634.06,360.26,637.59,355.43,637.59Zm-24.33,6.34v-7.56h-3.67a3.65,3.65,0,0,1-2.81-1.37c-0.22-.29-0.5-0.86-0.5-2.88V614h6.7v-6.7h-6.62l-0.07-11.59h-9.79v11.59h-5.19V614l5.19-.07v18.94c0,8.28,3.38,11,8.86,11h7.92Zm-61.41-12.24c0.21,6.91,6,13.53,17.21,13.53s16.41-6.12,16.41-12.67a10.35,10.35,0,0,0-2.23-6.41c-1.37-1.73-3.17-3-7.41-4l-10.58-2.45c-2.16-.57-3.1-1.94-3.1-3.24s1.37-3.67,6.12-3.67c5.26,0,7.56,2.73,7.56,5.69l8.64-.14a12.92,12.92,0,0,0-5.18-9.65c-2.09-1.51-5.54-2.81-10.87-2.81-10.58,0-15.19,5.69-15.19,12a9.42,9.42,0,0,0,2.52,6.91c1.3,1.37,2.88,2.52,7,3.38l7.92,1.8c4.68,1,5.18,2.45,5.18,4.18s-1.51,4.11-6.91,4.11c-5.19,0-7.85-2.73-8.14-6.55Zm-17.07,8.49,0.36,3.74h9.79V593h-9.94v18.5c-1.8-2.88-5.9-5.33-10.58-5.33C234,606.13,226,613,226,625.79a21.41,21.41,0,0,0,4.75,14,13.88,13.88,0,0,0,11.16,5.33A13.29,13.29,0,0,0,252.62,640.18Zm-7.85-3.53c-4.61,0-8.64-3.31-8.64-11.09,0-8.71,4.25-11.81,8.28-11.81s8.28,3.1,8.28,11.52C252.69,633.34,248.45,636.58,244.77,636.66Zm-44.71,8.71c11.81,0,19.73-7.92,19.73-19.87,0-11.74-8.06-19.66-19.44-19.66-11.09,0-19.3,7.92-19.3,19.66C181.06,637.45,189.26,645.37,200.06,645.37Zm0.57-7.71c-5.11,0-9.5-3.67-9.5-12.16,0-8.21,4.39-12,9.43-12,4.75,0,9.14,3.31,9.14,12.24C209.71,634.42,205,637.66,200.64,637.66ZM202,602.89h9.87V593l-9.87-.07v10Zm-12.89,0H199V593l-9.87-.07v10Zm-56.16,41h10.22V609.58l21,34.34h10.8V593H164.57v34.49L143.26,593H133v51ZM447.43,231c24.27-34.66,46.46-80.09,65.17-118.24V83.35H414.11L412,91c-10.39,27.7-6.93,63.37-45.74,60.61-25.78,1.62-99,3.05-107.15,8.2l-54.65,23.63a17.55,17.55,0,0,0-4,2.19c-17.37,13.66-49.81,35.89-52.12,41l-29.87,65.8,1.33,1.53c13.88,9.72,38.45-.81,45-17.39l13-28.92,42.16-32,35.21-12.77a22.64,22.64,0,0,1,6.48-1.15l38.4,0.14c8.48-.09,14.44,24,17.87,33l3.15,11.58L282.3,264.51c-17.36,6.24-31.4,6.1-46.19,17.39-12.71,9.7-18.24,30-14.7,37.31a14.73,14.73,0,0,0,2.26,3.4c3.29-.84,73.65-19.36,110-31.9,17.41-4.86,42.14-15.36,62.13-23.26C415.89,260.45,432,248.59,447.43,231ZM285.14,211.62l-36.84,32L236,272.35c-18.64,12.11-7.71,17.82-30.56,19.59l-3.7-.24c5.78-3.8,13.75-22.76,21.27-39.17L261.75,221ZM160,294.53c11.91-9,16.93-29.22,24-42.43L223.69,222l25-9.05c6.38-2.42,9.3-4.77,23.92-4.07l-15,6-40.84,33.23c-13.14,25.36-17.1,53-53.17,47.48A22.13,22.13,0,0,1,160,294.53Zm183.37,189H329.5v-18H512.59v9H343.37v9Zm-260.79-18H265.68v18h-13.2v-9H82.59v-9Zm274.65-83.17v-2.81c-7-75.56-112.36-75.56-119.32,0v2.81h41.63v106.8H237.91v23.6H357.24v-23.6H315.61V382.29h41.63Zm-89.6-121.18L246,267.82l8.11-18.72a5.29,5.29,0,0,1,1.42-1.88l35.81-31,10.38-4.57,2.84,5.82L276,241.87Z"/></svg>