<svg xmlns="http://www.w3.org/2000/svg" viewBox="0 0 595.28 850.36"><defs><style>.a{fill:#017e49;}.a,.b{fill-rule:evenodd;}.b{fill:#e5e8eb;}</style></defs><title>E022_C</title><polyline class="a" points="0 850.36 595.28 850.36 595.28 0 0 0 0 850.36"/><path class="b" d="M467,818.13h9.86V801.86c0-5.47,1.37-8,3-9.72a8.61,8.61,0,0,1,6.69-2.88,14.52,14.52,0,0,1,1.66.14V780.7a12.17,12.17,0,0,0-2.09-.22A9.52,9.52,0,0,0,477,787l-0.29-5.55H467Zm-26.64,0h9.87V801.86c0-5.47,1.37-8,3-9.72a8.62,8.62,0,0,1,6.7-2.88,14.44,14.44,0,0,1,1.65.14V780.7a12.15,12.15,0,0,0-2.09-.22,9.51,9.51,0,0,0-9.14,6.55L450,781.48h-9.65Zm-26.71,1.44c11.81,0,19.73-7.92,19.73-19.87,0-11.73-8.06-19.65-19.44-19.65-11.09,0-19.29,7.92-19.29,19.65C394.59,811.65,402.8,819.57,413.6,819.57Zm0.57-7.7c-5.11,0-9.5-3.67-9.5-12.17,0-8.21,4.39-12,9.43-12,4.75,0,9.14,3.31,9.14,12.24C423.25,808.63,418.57,811.87,414.17,811.87Zm1.37-34.77h9.86v-9.94l-9.86-.07v10Zm-12.89,0h9.86v-9.94l-9.86-.07v10Zm-24.34,37.3,0.36,3.74h9.79v-51h-9.94v18.5c-1.8-2.88-5.9-5.33-10.58-5.33-8.21,0-16.27,6.84-16.27,19.65a21.42,21.42,0,0,0,4.75,14,13.89,13.89,0,0,0,11.16,5.33A13.29,13.29,0,0,0,378.32,814.39Zm-7.85-3.53c-4.61,0-8.64-3.31-8.64-11.09,0-8.71,4.25-11.81,8.28-11.81s8.28,3.1,8.28,11.52C378.39,807.55,374.14,810.79,370.47,810.86ZM304.31,814a10.24,10.24,0,0,0,1.15,4.18h10.08a5.47,5.47,0,0,1-1.66-3.81V794.23c0-8.78-4.53-14-16.41-14-11.09,0-15.7,6-15.48,12.24l8.64,0.14c0-2.73,2.09-5.33,7.06-5.33s6.4,2.38,6.4,4.11c0,1.51-.94,2.88-3.6,3.38l-5.55.94c-8.13,1.44-10.29,3-11.81,4.32a10.2,10.2,0,0,0-3.38,7.63c0,6,4.75,11.52,14,11.52C299.05,819.14,302.22,817.34,304.31,814Zm0-15.12v4.61c0,5.19-3.24,8.42-8.78,8.42-4.18,0-6.12-2.45-6.12-4.68,0-1.73.57-3.67,6.77-5.4l4.18-1.15A11.42,11.42,0,0,0,304.31,798.84Zm-64.08,19.29h9.86l0.07-20.52c0-2.88.57-4.25,1.37-5.4a7.39,7.39,0,0,1,6-3.1c3.39,0,5.83,2.23,5.83,6.34v22.68h9.86V792.29c0-6.84-5-12.1-12.67-12.1-5.25,0-8.93,2.81-10.15,5.69L250,781.56l-9.65-.07Zm-33.91-4.25c2.09,3.38,5.76,5.47,10.8,5.47,10,0,16.2-9.29,16.2-19.73,0-10-6-19.3-16.13-19.3a13.12,13.12,0,0,0-10.58,5l-0.43-3.74-9.72.07v48.45h9.86v-16.2Zm8.86-2.09c-4.75,0-8.78-3.17-8.78-11.09,0-8.86,4.39-12,8.42-12s8.5,3.31,8.5,11.45C223.31,805.6,221,811.73,215.18,811.8Zm-52.63,2.09c2.09,3.38,5.76,5.47,10.8,5.47,10,0,16.2-9.29,16.2-19.73,0-10-6-19.3-16.13-19.3a13.12,13.12,0,0,0-10.58,5l-0.43-3.74-9.72.07v48.45h9.87v-16.2Zm8.86-2.09c-4.75,0-8.79-3.17-8.79-11.09,0-8.86,4.39-12,8.42-12s8.49,3.31,8.49,11.45C179.54,805.6,177.23,811.73,171.4,811.8ZM126,819.57c11.81,0,19.73-7.92,19.73-19.87,0-11.73-8.06-19.65-19.44-19.65C115.17,780,107,788,107,799.7,107,811.65,115.17,819.57,126,819.57Zm0.58-7.7c-5.11,0-9.5-3.67-9.5-12.17,0-8.21,4.39-12,9.43-12,4.75,0,9.14,3.31,9.14,12.24C135.62,808.63,130.94,811.87,126.55,811.87Zm1.37-34.77h9.86v-9.94l-9.86-.07v10Zm-12.89,0h9.86v-9.94l-9.86-.07v10ZM492.58,731v-7.56h-3.67a3.81,3.81,0,0,1-2.88-1.37,5.83,5.83,0,0,1-.43-2.88V701.06h6.63v-6.7H485.6l-0.07-11.59h-9.79v11.59h-5.19v6.77l5.26-.07L475.73,720c0,8.28,3.38,11,8.86,11h8Zm-27.29,0v-7.56h-3.67a3.82,3.82,0,0,1-2.88-1.37,5.86,5.86,0,0,1-.43-2.88V701.06h6.63v-6.7h-6.63l-0.07-11.59h-9.79v11.59h-5.19v6.77l5.26-.07L448.45,720c0,8.28,3.38,11,8.86,11h8Zm-37.73-4.18a11.58,11.58,0,0,0,1.15,4.18H438.8a5.47,5.47,0,0,1-1.65-3.82V707.1c0-8.79-4.54-14-16.49-14-11.09,0-15.7,6-15.48,12.24l8.71,0.14c0-2.73,2-5.33,7.06-5.33,4.82,0,6.41,2.37,6.41,4.1,0,1.51-.94,2.88-3.53,3.38l-5.69.94c-8.06,1.44-10.22,3-11.81,4.32a10.2,10.2,0,0,0-3.38,7.63c0,6,4.75,11.52,14,11.52C422.31,732,425.48,730.21,427.57,726.83Zm0.07-15.12-0.07,4.61c0,5.19-3.24,8.42-8.86,8.42-4.1,0-6.12-2.45-6.12-4.68,0-1.73.57-3.67,6.84-5.4l4.25-1.15A12.06,12.06,0,0,0,427.64,711.71ZM347.43,731h9.87l0.07-16.27c0-5.47,1.3-8,3-9.72a8.63,8.63,0,0,1,6.7-2.88,12.53,12.53,0,0,1,1.65.14l0.07-8.71a14.16,14.16,0,0,0-2.09-.22,9.38,9.38,0,0,0-9.14,6.55l-0.36-5.54h-9.65Zm-26.71,1.44c11.81,0,19.8-7.92,19.8-19.87,0-11.73-8.06-19.65-19.44-19.65-11.16,0-19.37,7.92-19.37,19.65C301.72,724.52,309.93,732.44,320.72,732.44Zm0.58-7.7c-5.12,0-9.5-3.67-9.5-12.17,0-8.21,4.46-12,9.43-12,4.75,0,9.14,3.31,9.14,12.24C330.37,721.5,325.69,724.74,321.3,724.74ZM322.67,690h9.86V680l-9.86-.07v10Zm-12.89,0h9.86V680l-9.79-.07Zm-29.31,41h9.79v-30.1h7.2v-6.55h-7.2v-0.72c0-3.31.58-4.25,1.22-4.89,0.79-.87,1.95-1.51,4.32-1.44h1.65V680h-5.69c-3.31,0-12.31.57-11.31,14.33h-5.4l0.07,6.55h5.33V731Zm-52-4.18a11.56,11.56,0,0,0,1.15,4.18h10.08a5.47,5.47,0,0,1-1.65-3.82V707.1c0-8.79-4.54-14-16.49-14-11.09,0-15.7,6-15.48,12.24l8.71,0.14c0-2.73,2-5.33,7.06-5.33,4.82,0,6.41,2.37,6.41,4.1,0,1.51-.94,2.88-3.53,3.38l-5.69.94c-8.06,1.44-10.22,3-11.81,4.32a10.2,10.2,0,0,0-3.38,7.63c0,6,4.75,11.52,14,11.52C223.24,732,226.41,730.21,228.49,726.83Zm0.07-15.12-0.07,4.61c0,5.19-3.24,8.42-8.86,8.42-4.1,0-6.12-2.45-6.12-4.68,0-1.73.58-3.67,6.84-5.4l4.24-1.15A12.06,12.06,0,0,0,228.57,711.71ZM187,727.26l0.43,3.74h9.72V680h-9.94v18.5c-1.73-2.88-5.9-5.33-10.58-5.33-8.14,0-16.27,6.84-16.27,19.65a21.41,21.41,0,0,0,4.75,14,13.89,13.89,0,0,0,11.16,5.33A13.19,13.19,0,0,0,187,727.26Zm-7.78-3.53c-4.68,0-8.71-3.31-8.71-11.09,0-8.71,4.25-11.81,8.28-11.81s8.35,3.1,8.35,11.52C187.17,720.42,182.92,723.66,179.25,723.73ZM143.61,731h9.86V694.36h-9.79Zm0.07-42.19h9.87V680h-9.87v8.78Zm-41,30c0.21,6.91,6,13.54,17.28,13.54s16.42-6.12,16.42-12.67a10.35,10.35,0,0,0-2.23-6.41c-1.37-1.73-3.17-3-7.49-4l-10.51-2.45c-2.23-.57-3.1-1.95-3.1-3.24s1.3-3.67,6-3.67c5.26,0,7.56,2.74,7.63,5.69l8.71-.14a13.24,13.24,0,0,0-5.26-9.65c-2.16-1.51-5.55-2.81-10.95-2.81-10.51,0-15.19,5.69-15.19,12a9.7,9.7,0,0,0,2.52,6.91c1.37,1.37,3,2.52,7.05,3.39l7.92,1.8c4.61,1,5.19,2.45,5.19,4.18s-1.51,4.11-7,4.11c-5.19,0-7.78-2.74-8.06-6.55Zm405.28-74.84h9.87l0.07-16.27c0-5.47,1.3-8,3-9.72a8.63,8.63,0,0,1,6.7-2.88,12.58,12.58,0,0,1,1.66.14l0.07-8.71a14.06,14.06,0,0,0-2.09-.22,9.54,9.54,0,0,0-9.22,6.55l-0.29-5.54H508ZM473.8,628.3L501,628.37c0-10.87-5-22.39-18.57-22.39-14,0-18.43,11.16-18.43,19.51,0,12.17,8.06,19.73,18.36,19.73s16.49-5.54,18-12l-9.94-.65c-1.87,3.39-4.46,4.75-7.63,4.75C478.12,637.37,474.3,634.2,473.8,628.3Zm0.43-7.13a8.38,8.38,0,0,1,8-7.49c4,0,7.49,2.74,8.14,7.49H474.23ZM459,643.92v-7.56h-3.67a3.68,3.68,0,0,1-2.88-1.37,5.86,5.86,0,0,1-.43-2.88V614h6.62v-6.7H452l-0.07-11.59h-9.79v11.59h-5.18V614l5.18-.07v18.94c0,8.28,3.38,11,8.86,11h8Zm-61.56-12.24c0.22,6.91,6,13.54,17.28,13.54s16.41-6.12,16.41-12.67a10.37,10.37,0,0,0-2.23-6.41c-1.37-1.73-3.17-3-7.49-4l-10.51-2.45c-2.23-.57-3.17-1.95-3.17-3.24s1.37-3.67,6.12-3.67c5.26,0,7.56,2.74,7.63,5.69l8.64-.14a12.77,12.77,0,0,0-5.26-9.65c-2.09-1.51-5.47-2.81-10.87-2.81-10.51,0-15.19,5.69-15.19,12a9.71,9.71,0,0,0,2.52,6.91c1.3,1.37,3,2.52,7.06,3.39l7.92,1.8c4.61,1,5.18,2.45,5.18,4.18s-1.58,4.11-7,4.11c-5.18,0-7.78-2.74-8.06-6.55Zm-39.74,12.24h9.87l0.07-20.52c0-2.88.57-4.25,1.37-5.4a7.4,7.4,0,0,1,6-3.1c3.38,0,5.9,2.23,5.9,6.33l-0.07,22.68h9.87V618.08c0-6.84-5-12.09-12.6-12.09-5.26,0-8.93,2.81-10.22,5.69l-0.36-4.32-9.72-.07Zm-18.29-4.18a12.93,12.93,0,0,0,1.29,4.18h9.94c-0.58-.5-1.51-2.16-1.51-5.19L349,620a18.32,18.32,0,0,0-.5-5c-1.51-5-5.61-9.07-15.55-9.07-11.38,0-15.91,5.83-15.91,12.24l8.71,0.14c0.36-2.45.72-3,1.51-3.67S330,613,333,613c4.61,0,6.33,2.45,6.33,4.18s-1.08,3-3.74,3.46l-9.94,1.73c-7.42,1.29-10.87,6.12-10.87,10.94,0,6.34,4.9,11.74,13.75,11.74C334.62,645,338,642.55,339.38,639.75Zm0-15.34v5.47c-0.29,4.61-3.38,7.78-8.71,7.78-4.18,0-6.12-2.45-6.12-4.61,0-1.73.87-4,6.7-5.4l4.25-1.15A8.12,8.12,0,0,0,339.38,624.41Zm-5.9-21.53,9.94,0.07v-10h-9.87Zm-12.82,0h9.87l0.07-10h-9.86Zm-29.66,41h9.65l12.53-36.65h-10l-7.27,24.12-7.27-24h-10Zm-80.92,0h9.86l-0.07-12,4.18-4.1,10.08,16.13h12l-15-22.54,13.11-14.11H232.53l-12.6,14-0.07-28.3H210ZM193.73,630.6c-0.5,2.88-1.37,4-2.81,5.12a7.52,7.52,0,0,1-4.75,1.51c-4.46,0-8.49-3.17-8.49-11.38,0-9,4.32-12.31,8.86-12.31a7.07,7.07,0,0,1,7,6.26l9.5-.5c-0.79-7.63-6.7-13.54-16.78-13.54-7.2,0-12.24,2.81-15.55,7.71a20.57,20.57,0,0,0-3.53,12.24c0,7.41,3,13,7.63,16.41a18.41,18.41,0,0,0,11.37,3.38,18.14,18.14,0,0,0,7.28-1.22c5.54-2,8.93-6.19,9.65-13.24Zm-62.35,17.5v7.7h7.27c8.57,0,10.58-6.77,11.38-9l14-39.52H153.48L146.21,630l-7.71-22.68H127.85l11.38,30.89a13.72,13.72,0,0,1,.94,5c0,3-1.58,5-5.83,4.9h-3Zm-29-4.18h9.87l0.07-16.27c0-5.47,1.3-8,3-9.72a8.63,8.63,0,0,1,6.7-2.88,12.53,12.53,0,0,1,1.65.14l0.07-8.71a14.12,14.12,0,0,0-2.09-.22,9.54,9.54,0,0,0-9.21,6.55l-0.29-5.54h-9.65Zm-20.81,0H92.07V601.44h15.41v-8.49H66.08v8.49H81.55v42.48Zm64.7-561.1V480.24L96,512.68H404.67L449,480.24V82.83H146.26Zm92.12,160.29,48.69,117.54V317.55c26.62,23.9,79.45,39.7,131.56,31.13v-88.4c-51.11,8.41-103.92-.26-131.56-20v-36.9ZM225.2,97.83V414.47l209,63.27V97.83h-209Z"/></svg>