<svg xmlns="http://www.w3.org/2000/svg" viewBox="0 0 595.28 850.37"><defs><style>.a{fill:#ad1922;}.a,.b{fill-rule:evenodd;}.b{fill:#e5e8eb;}</style></defs><title>F001_C</title><polyline class="a" points="0 850.37 595.28 850.37 595.28 0 0 0 0 850.37"/><path class="b" d="M505.16,399.9V341.74h-4.92c-41.32-3.9-93.43-42.81-114.74-76.87l-5.38-8.25-0.36,6.49c-2.3,58.7,45.35,113.56,100.63,129l12.34,4Zm0-115.13V226.24l-3.06-1.12c-26.29-10.29-39.21-45-48.56-69.17l-3.9-12.33-2.31,10c-11,57.73,4.54,88.36,49.48,125.22l4.09,3.05Zm0,26.31-6.68,1.75-3.43.66c-24.16,4.82-49-5.7-66.17-22.42l-4.45-5.28-4.28-5.46c-31.46-38.14-21.74-79.2-46.43-102.72l-2.59-2.32L365.68,171l6.56-.56c72.68,0.38,61.18,105.12,124,136.43l2.87,1.57Zm0,201.25V456l-8.16,2c-37.59,10.94-81.5,2.87-110.94-23.33l-5.93-6.13,2.69,10.3c14.15,55.84,45.88,73.26,101.3,73.61h10.57Zm0-84.46-11.5-3.24c-62.3-9.21-80-96.92-151.16-58.17l-5,3.45,6,1.48c61.52,16,59.54,103.28,151.72,63.89l5-3.61ZM135.86,309.5H246.75V243.19H135.86V309.5Zm82.34-143.65V134l12.47-.54,19.08-5V106.15l-17.47-5L213,100.79v-18H171V98H148.67S136.37,106.86,125,117c-14.08,12.48-27.81,26.56-27.81,26.56a112.76,112.76,0,0,0-5.88,24.24,246.72,246.72,0,0,0-1.07,32.82l15.88-.37,3.2-28.53s11.76-11.59,22.28-21.39c9.8-9.45,17.48-17.3,17.48-17.3h15l0.05,32.78c-31.95,0-45.6,23.69-45.62,49.55l-0.26,287.77a9.48,9.48,0,0,0,9.46,9.52H253.7a9.53,9.53,0,0,0,9.52-9.52l0.33-287.77C263.59,189.61,249.66,165.84,218.21,165.84ZM65.79,613.4V601.09H79.18a6.1,6.1,0,0,1,5.76,6.19,6.29,6.29,0,0,1-6.55,6.27Zm447,14.9L540,628.37c0-10.87-5-22.39-18.57-22.39-14,0-18.43,11.16-18.43,19.51,0,12.17,8.06,19.73,18.29,19.73s16.56-5.54,18-12l-9.87-.65c-1.87,3.38-4.46,4.75-7.63,4.75C517.07,637.38,513.25,634.21,512.75,628.3Zm0.43-7.13a8.38,8.38,0,0,1,8-7.49c4,0,7.49,2.73,8.14,7.49H513.18Zm-34.7,22.75h9.86l0.07-16.27c0-5.47,1.3-8,3-9.72a8.61,8.61,0,0,1,6.7-2.88,13.21,13.21,0,0,1,1.65.14l0.07-8.71a14.79,14.79,0,0,0-2.16-.21,9.52,9.52,0,0,0-9.15,6.55l-0.29-5.55h-9.65Zm-18.29-4.18a10.3,10.3,0,0,0,1.15,4.18h10.08a5.48,5.48,0,0,1-1.65-3.81V620c0-8.78-4.54-14-16.49-14-11.09,0-15.7,6-15.48,12.24l8.71,0.14c0-2.73,2-5.33,7.05-5.33,4.82,0,6.41,2.38,6.41,4.11,0,1.51-.94,2.88-3.6,3.38l-5.62.94c-8.06,1.44-10.29,3-11.81,4.32a10.2,10.2,0,0,0-3.38,7.63c0,6,4.75,11.52,14,11.52C454.94,644.93,458.1,643.13,460.19,639.75Zm0-15.12v4.61c0,5.19-3.24,8.42-8.86,8.42-4.18,0-6.12-2.45-6.12-4.68,0-1.73.57-3.67,6.77-5.4l4.32-1.15A11.61,11.61,0,0,0,460.19,624.63Zm-66.31,19.29h9.94l-0.07-12,4.18-4.11L418,643.92h12L414.9,621.39l13.17-14.11H416.42l-12.6,14L403.74,593h-9.86v51Zm-16.27-13.32c-0.5,2.88-1.37,4-2.8,5.11a7.66,7.66,0,0,1-4.75,1.51c-4.46,0-8.57-3.17-8.57-11.37,0-9,4.39-12.31,8.86-12.31a7.08,7.08,0,0,1,7.06,6.27l9.5-.5c-0.79-7.63-6.77-13.54-16.78-13.54-7.2,0-12.24,2.81-15.55,7.7A20.56,20.56,0,0,0,351,625.71c0,7.41,3,13,7.56,16.41A18.67,18.67,0,0,0,370,645.51a18.18,18.18,0,0,0,7.27-1.22c5.55-2,8.93-6.19,9.65-13.25Zm-43.41,9.14a14.92,14.92,0,0,0,1.22,4.18h10c-0.58-.5-1.51-2.16-1.51-5.18L343.77,620a18.66,18.66,0,0,0-.5-5c-1.51-5-5.62-9.07-15.55-9.07-11.45,0-15.91,5.83-15.91,12.24l8.71,0.14c0.36-2.45.72-3,1.51-3.67s2.81-1.73,5.76-1.73c4.61,0,6.34,2.45,6.34,4.18s-1.08,3-3.74,3.46l-9.94,1.72c-7.42,1.3-10.87,6.12-10.87,10.95,0,6.33,4.89,11.73,13.75,11.73C329.45,645,332.75,642.56,334.2,639.75Zm0-15.33v5.47c-0.29,4.61-3.38,7.78-8.71,7.78-4.18,0-6.12-2.45-6.12-4.61,0-1.73.79-4,6.69-5.4l4.25-1.15A8.12,8.12,0,0,0,334.2,624.41Zm-5.9-21.53,9.87,0.07,0.07-10h-9.86Zm-12.81,0h9.79l0.14-10h-9.94v10Zm-21.6,41h9.79V593h-9.72Zm-41-12.24c0.22,6.91,6,13.54,17.21,13.54,11.45,0,16.49-6.12,16.49-12.67a10.33,10.33,0,0,0-2.23-6.41c-1.37-1.73-3.17-3-7.49-4l-10.58-2.45c-2.16-.58-3.1-1.95-3.1-3.24s1.37-3.67,6.12-3.67c5.26,0,7.56,2.73,7.63,5.69l8.64-.14a12.77,12.77,0,0,0-5.26-9.64c-2.09-1.51-5.54-2.81-10.87-2.81-10.51,0-15.19,5.69-15.19,12a9.42,9.42,0,0,0,2.52,6.91c1.3,1.37,3,2.52,7,3.38l8,1.8c4.61,1,5.19,2.45,5.19,4.18s-1.58,4.1-7,4.1c-5.19,0-7.78-2.73-8.14-6.55Zm-17.06,8.49,0.36,3.74H246V593h-9.94v18.5c-1.73-2.88-5.9-5.33-10.58-5.33-8.13,0-16.27,6.84-16.27,19.65a21.42,21.42,0,0,0,4.75,14,13.89,13.89,0,0,0,11.16,5.33A13.18,13.18,0,0,0,235.85,640.18Zm-7.78-3.53c-4.68,0-8.71-3.31-8.71-11.09,0-8.71,4.25-11.81,8.28-11.81s8.28,3.1,8.28,11.52C235.92,633.34,231.67,636.58,228.07,636.65Zm-58.6,7.27h9.86l0.07-20.52c0-2.88.57-4.25,1.37-5.4a7.4,7.4,0,0,1,6-3.1c3.38,0,5.83,2.23,5.83,6.33v22.68h9.87V618.08c0-6.84-5-12.1-12.6-12.1-5.26,0-9,2.81-10.23,5.69l-0.43-4.32-9.65-.07Zm-18.29-4.18a10.3,10.3,0,0,0,1.15,4.18h10.08a5.48,5.48,0,0,1-1.65-3.81V620c0-8.78-4.54-14-16.49-14-11.09,0-15.7,6-15.48,12.24l8.71,0.14c0-2.73,2-5.33,7.05-5.33,4.82,0,6.41,2.38,6.41,4.11,0,1.51-.94,2.88-3.6,3.38l-5.62.94c-8.06,1.44-10.29,3-11.81,4.32a10.2,10.2,0,0,0-3.38,7.63c0,6,4.75,11.52,14,11.52C145.92,644.93,149.09,643.13,151.18,639.75Zm0-15.12v4.61c0,5.19-3.24,8.42-8.86,8.42-4.18,0-6.12-2.45-6.12-4.68,0-1.73.57-3.67,6.77-5.4l4.32-1.15A11.61,11.61,0,0,0,151.18,624.63Zm-47.52,19.29h9.86l0.07-16.27c0-5.47,1.29-8,3-9.72a8.61,8.61,0,0,1,6.7-2.88,13.21,13.21,0,0,1,1.65.14l0.07-8.71a14.67,14.67,0,0,0-2.16-.21,9.52,9.52,0,0,0-9.14,6.55l-0.29-5.55h-9.65Zm-48.45,0H81.41c4.75,0,7.05-.79,9.65-2.59a13.37,13.37,0,0,0,5.69-11.52c0-6.62-3.81-11.52-10-13.17a10.81,10.81,0,0,0,8.21-10.8A12.05,12.05,0,0,0,89.11,595c-2.09-1.3-4-2-8.57-2H55.21v51Zm10.58-8.28V621.1L78.32,621c4.61,0,7.63,3.31,7.63,7.13a7.43,7.43,0,0,1-7.63,7.49H65.79Z"/></svg>