<?xml version="1.0" encoding="UTF-8"?>
<svg id="Lager_1" data-name="Lager 1" xmlns="http://www.w3.org/2000/svg" viewBox="0 0 153.26 218.93">
  <defs>
    <style>
      .cls-1 {
        fill: #aa2825;
      }

      .cls-1, .cls-2 {
        fill-rule: evenodd;
      }

      .cls-2 {
        fill: #fff;
      }
    </style>
  </defs>
  <polyline class="cls-2" points="0 218.93 153.26 218.93 153.26 0 0 0 0 218.93"/>
  <polyline class="cls-1" points="10.06 8.88 143.2 8.88 143.2 125.92 10.06 125.92 10.06 8.88"/>
  <polyline class="cls-1" points="10.07 135.37 143.21 135.37 143.21 210.69 10.07 210.69 10.07 135.37"/>
  <path class="cls-2" d="M16.96,148.84v-3.17h3.45c.59,0,1.48.54,1.48,1.59,0,.89-.7,1.61-1.69,1.61l-3.24-.04ZM126.32,91.85v-13.92h-1.18c-9.89-.93-22.36-10.25-27.47-18.4l-1.29-1.97-.09,1.55c-.55,14.05,10.85,27.18,24.09,30.89l2.96.95,2.97.91ZM126.32,64.29v-14.01l-.73-.27c-6.29-2.46-9.39-10.78-11.63-16.56l-.93-2.95-.55,2.4c-2.63,13.82,1.09,21.15,11.85,29.98l.98.73,1.02.69ZM126.32,70.59l-1.6.42-.82.16c-5.78,1.15-11.72-1.36-15.84-5.37l-1.07-1.26-1.02-1.31c-7.53-9.13-5.21-18.96-11.12-24.59l-.62-.56-1.31-1.02,1.57-.13c17.4.09,14.65,25.16,29.69,32.66l.69.38,1.44.62ZM126.32,118.77v-13.48l-1.95.49c-9,2.62-19.51.69-26.56-5.58l-1.42-1.47.64,2.46c3.39,13.37,10.99,17.54,24.25,17.62h2.53l2.51-.04ZM126.32,98.55l-2.75-.78c-14.91-2.21-19.15-23.2-36.19-13.93l-1.2.83,1.44.36c14.73,3.84,14.25,24.73,36.32,15.29l1.19-.86,1.18-.91ZM37.91,70.21h26.55v-15.87h-26.55v15.87ZM57.62,35.84v-7.63s2.99-.13,2.99-.13l4.57-1.19v-5.34l-4.18-1.2-4.61-.09v-4.31h-10.07v3.63h-5.34s-2.94,2.13-5.68,4.56c-3.37,2.99-6.66,6.36-6.66,6.36,0,0-1.02,2.65-1.41,5.8-.43,3.63-.26,7.86-.26,7.86l3.8-.09.77-6.83s2.82-2.77,5.33-5.12c2.35-2.26,4.18-4.14,4.18-4.14h3.58v7.85c-7.64,0-10.9,5.67-10.91,11.86l-.06,68.89c0,1.25,1.01,2.28,2.26,2.28h30.18c1.26,0,2.28-1.02,2.28-2.28l.08-68.89c0-6.17-3.33-11.86-10.86-11.86ZM132.03,152.68l7.01.02c0-2.8-1.28-5.76-4.78-5.76s-4.74,2.87-4.74,5.02c0,3.13,2.08,5.08,4.71,5.08s4.26-1.43,4.63-3.08l-2.54-.17c-.48.87-1.15,1.22-1.96,1.22-1.21,0-2.19-.82-2.32-2.34ZM132.14,150.84c.15-1.15,1.09-1.93,2.06-1.93,1.04,0,1.93.7,2.1,1.93h-4.15ZM123.21,156.7h2.54l.02-4.19c0-1.41.33-2.06.76-2.5.46-.5,1.02-.74,1.72-.74.15,0,.28.02.43.04l.02-2.24c-.13-.02-.33-.06-.56-.06-1.09,0-2.06.71-2.35,1.69l-.07-1.43h-2.48l-.02,9.43ZM118.5,155.63c.04.46.15.8.3,1.07h2.6c-.33-.39-.43-.67-.43-.98v-5.17c0-2.26-1.17-3.61-4.25-3.61-2.86,0-4.04,1.56-3.99,3.15l2.24.04c0-.71.52-1.37,1.82-1.37s1.65.61,1.65,1.06c0,.39-.24.74-.93.87l-1.45.24c-2.08.37-2.65.76-3.04,1.11-.56.5-.87,1.2-.87,1.96,0,1.56,1.22,2.96,3.61,2.96,1.37,0,2.19-.46,2.72-1.33ZM118.5,151.73v1.19c0,1.33-.83,2.17-2.28,2.17-1.08,0-1.58-.63-1.58-1.2,0-.44.15-.95,1.74-1.39l1.11-.3c.48-.13.8-.32,1-.46ZM101.43,156.7h2.56l-.02-3.1,1.07-1.06,2.6,4.15h3.1l-3.89-5.8,3.39-3.63h-3l-3.24,3.6-.02-7.29h-2.54v13.12ZM97.24,153.27c-.13.74-.35,1.04-.72,1.32-.32.24-.72.39-1.22.39-1.15,0-2.21-.82-2.21-2.93,0-2.32,1.13-3.17,2.28-3.17.93,0,1.69.67,1.82,1.61l2.45-.13c-.2-1.96-1.74-3.49-4.32-3.49-1.85,0-3.15.72-4,1.98-.57.82-.91,1.84-.91,3.15,0,1.91.78,3.36,1.95,4.23.74.54,1.67.87,2.95.87.89,0,1.41-.13,1.87-.31,1.43-.52,2.3-1.59,2.48-3.41l-2.41-.11ZM86.06,155.63c.06.37.17.78.32,1.07h2.58c-.15-.13-.39-.56-.39-1.33l-.04-4.82c-.02-.83-.07-1.08-.13-1.28-.39-1.3-1.45-2.34-4-2.34-2.95,0-4.1,1.5-4.1,3.15l2.24.04c.09-.63.18-.76.39-.95.24-.22.72-.45,1.48-.45,1.19,0,1.63.63,1.63,1.08s-.28.76-.96.89l-2.56.44c-1.91.33-2.8,1.58-2.8,2.82,0,1.63,1.26,3.02,3.54,3.02,1.57,0,2.43-.63,2.8-1.35ZM86.06,151.68v1.41c-.07,1.19-.87,2-2.24,2-1.07,0-1.58-.63-1.58-1.19,0-.44.2-1.02,1.72-1.39l1.09-.3c.41-.09.76-.3,1-.54ZM84.54,146.13l2.54.02.02-2.58h-2.54l-.02,2.56ZM81.24,146.13h2.52l.04-2.58h-2.56v2.58ZM75.68,156.7h2.52v-13.12h-2.5l-.02,13.12ZM65.13,153.55c.06,1.78,1.54,3.49,4.43,3.49s4.24-1.58,4.24-3.26c0-.59-.2-1.19-.57-1.65-.35-.44-.82-.78-1.93-1.04l-2.72-.63c-.56-.15-.8-.5-.8-.83,0-.37.35-.95,1.57-.95,1.35,0,1.95.7,1.96,1.46l2.23-.04c-.04-.95-.54-1.89-1.35-2.48-.54-.39-1.43-.72-2.8-.72-2.71,0-3.91,1.46-3.91,3.08,0,.76.2,1.3.65,1.78.33.35.76.65,1.8.87l2.06.46c1.19.26,1.33.63,1.33,1.07,0,.41-.41,1.06-1.8,1.06s-2-.7-2.09-1.69l-2.3.02ZM60.74,155.74l.09.96h2.52v-13.12h-2.56v4.76c-.44-.74-1.52-1.37-2.73-1.37-2.09,0-4.19,1.76-4.19,5.06,0,1.5.48,2.74,1.22,3.61.78.95,1.76,1.37,2.87,1.37s2.1-.45,2.76-1.28ZM58.74,154.83c-1.2,0-2.24-.85-2.24-2.85,0-2.24,1.09-3.04,2.13-3.04s2.13.8,2.13,2.97-1.09,2.91-2.02,2.93ZM43.65,156.7h2.54l.02-5.28c0-.74.15-1.09.35-1.39.33-.48.93-.8,1.54-.8.87,0,1.5.57,1.5,1.63v5.84h2.54v-6.65c0-1.76-1.3-3.11-3.24-3.11-1.35,0-2.32.72-2.63,1.46l-.11-1.11-2.48-.02-.02,9.43ZM38.94,155.63c.04.46.15.8.3,1.07h2.6c-.33-.39-.43-.67-.43-.98v-5.17c0-2.26-1.17-3.61-4.25-3.61-2.85,0-4.04,1.56-3.99,3.15l2.24.04c0-.71.52-1.37,1.82-1.37s1.65.61,1.65,1.06c0,.39-.24.74-.93.87l-1.45.24c-2.08.37-2.65.76-3.04,1.11-.56.5-.87,1.2-.87,1.96,0,1.56,1.22,2.96,3.61,2.96,1.37,0,2.19-.46,2.73-1.33ZM38.94,151.73v1.19c0,1.33-.83,2.17-2.28,2.17-1.07,0-1.57-.63-1.57-1.2,0-.44.15-.95,1.74-1.39l1.11-.3c.48-.13.8-.32,1-.46ZM26.71,156.7h2.54l.02-4.19c0-1.41.33-2.06.76-2.5.46-.5,1.02-.74,1.72-.74.15,0,.28.02.43.04l.02-2.24c-.13-.02-.33-.06-.56-.06-1.09,0-2.06.71-2.35,1.69l-.07-1.43h-2.48l-.02,9.43ZM14.23,156.7h6.75c1.22,0,1.82-.2,2.48-.67.93-.65,1.47-1.65,1.47-2.97,0-1.71-.98-2.97-2.58-3.39,1.32-.37,2.11-1.43,2.11-2.78,0-1.26-.54-2.21-1.5-2.8-.54-.33-1.04-.52-2.21-.52h-6.52v13.12ZM16.96,154.57v-3.74l3.23-.02c1.19,0,1.97.85,1.97,1.83,0,1.08-.83,1.93-1.97,1.93h-3.23Z"/>
</svg>