<?xml version="1.0" encoding="UTF-8"?>
<svg id="Lager_1" data-name="Lager 1" xmlns="http://www.w3.org/2000/svg" viewBox="0 0 153.26 218.93">
  <defs>
    <style>
      .cls-1 {
        fill: #aa2825;
      }

      .cls-1, .cls-2 {
        fill-rule: evenodd;
      }

      .cls-2 {
        fill: #fff;
      }
    </style>
  </defs>
  <polyline class="cls-2" points="0 218.93 153.26 218.93 153.26 0 0 0 0 218.93"/>
  <polyline class="cls-1" points="10.05 8.87 143.19 8.87 143.19 125.92 10.05 125.92 10.05 8.87"/>
  <polyline class="cls-1" points="10.07 135.36 143.21 135.36 143.21 210.68 10.07 210.68 10.07 135.36"/>
  <path class="cls-2" d="M127.96,91.83v-13.89h-1.17c-9.86-.92-22.33-10.23-27.4-18.36l-1.28-1.97-.09,1.55c-.55,14.02,10.83,27.13,24.04,30.81l2.95.95,2.96.9ZM127.96,64.33v-13.98l-.73-.27c-6.28-2.46-9.37-10.76-11.6-16.52l-.93-2.94-.55,2.39c-2.63,13.78,1.09,21.11,11.82,29.9l.98.73,1.02.68ZM127.96,70.62l-1.6.42-.82.16c-5.77,1.15-11.69-1.36-15.8-5.35l-1.06-1.26-1.02-1.31c-7.53-9.11-5.19-18.91-11.09-24.53l-.62-.56-1.3-1.02,1.57-.13c17.35.1,14.61,25.1,29.61,32.58l.69.38,1.44.62ZM127.96,118.68v-13.45l-1.95.48c-8.98,2.62-19.47.69-26.49-5.57l-1.42-1.46.64,2.46c3.38,13.35,10.95,17.49,24.19,17.58h2.53l2.5-.04ZM127.96,98.51l-2.74-.77c-14.94-2.22-19.03-23.13-36.1-13.89l-1.2.82,1.44.35c14.7,3.83,14.22,24.67,36.23,15.26l1.2-.86,1.17-.91ZM36.35,19.18c-2.39,0-3.1,2.17-3.1,2.17l.09,78.26,5.81.04V21.31s-.44-2.13-2.79-2.13ZM68.37,19.49c-2.39,0-3.06,2.17-3.06,2.17l.05,61.15s.09,2.48,2.71,2.62c2.84.17,3.15-2.57,3.15-2.57V21.58s-.44-2.08-2.84-2.08ZM60.34,19.49c-2.39,0-3.11,2.17-3.11,2.17l.04,61.15s.09,2.48,2.71,2.62c2.84.17,3.19-2.57,3.19-2.57V21.58s-.45-2.08-2.84-2.08ZM52.32,19.49c-2.39,0-3.06,2.17-3.06,2.17l.04,61.15s.04,2.48,2.71,2.62c2.84.17,3.15-2.57,3.15-2.57V21.58s-.44-2.08-2.84-2.08ZM44.24,19.49c-2.35,0-3.06,2.17-3.06,2.17l.04,61.15s.09,2.48,2.71,2.62c2.84.17,3.15-2.57,3.15-2.57V21.58s-.45-2.08-2.84-2.08ZM89.21,43.71c-4.22,0-7.67,3.19-8.25,7.32h-2V18.43l-2.4-2.35h-3.5v72.68h3.81l2.08-2.71v-32.24h2.08c.71,3.9,4.12,6.83,8.16,6.83,4.61,0,8.34-3.77,8.34-8.47s-3.72-8.47-8.34-8.47ZM95.55,51.02h-4.92v-5.28c2.53.58,4.48,2.61,4.92,5.28ZM87.44,45.83v5.19h-4.61c.44-2.53,2.26-4.48,4.61-5.19ZM82.96,53.82h4.48v4.7c-2.17-.67-3.9-2.44-4.48-4.7ZM90.63,58.6v-4.79h4.88c-.62,2.39-2.53,4.26-4.88,4.79ZM33.6,103.92s-.27.04-.31.13c-.04.18.09.35.09.35,0,0,.22,1.33.44,2.84.27,1.86.62,3.9.62,3.9,0,0,.93.04,1.64,0,.88,0,1.59.04,1.59.04,0,0,.4-2.22.8-4.12.26-1.51.57-2.88.57-2.88,0,0,.09-.13,0-.22-.13-.04-.4-.04-.4-.04h-5.05ZM25.31,18.47v67.62l2.13,2.71h3.82V16.12h-3.55l-2.39,2.35ZM31.08,147.3v-3.17h3.45c.57,0,1.46.54,1.46,1.59,0,.89-.69,1.61-1.67,1.61l-3.24-.04ZM115.87,155.68c.11.89.39,1.39.91,1.89.57.56,1.65,1.07,3.47,1.07,2.04,0,3.35-.76,3.99-1.58.43-.57.67-1.09.67-2.5v-8.84h-2.43l-.09,1.15c-.17-.3-.69-1.48-2.78-1.48-2.28,0-4.26,1.82-4.26,4.73s1.98,4.74,4.23,4.74c1.52,0,2.45-.69,2.82-1.41v1.02c0,1.59-.74,2.26-2.19,2.26-1.11,0-1.63-.56-1.72-1.15l-2.6.09ZM120.17,152.68c-1.24,0-2.28-.89-2.28-2.63,0-1.52,1.06-2.48,2.23-2.48s2.22.96,2.22,2.56-1.08,2.56-2.17,2.56ZM105.1,155.16h2.54v-5.28c0-.74.15-1.09.37-1.39.33-.48.93-.8,1.54-.8.87,0,1.5.57,1.5,1.63v5.84h2.52v-6.65c0-1.76-1.3-3.11-3.24-3.11-1.35,0-2.3.72-2.61,1.46l-.11-1.11-2.48-.02-.02,9.43ZM100.37,154.09c.06.46.17.8.32,1.08h2.58c-.32-.39-.41-.67-.43-.98l.02-5.17c0-2.26-1.19-3.62-4.26-3.62-2.86,0-4.04,1.56-3.99,3.15l2.24.04c0-.7.52-1.37,1.82-1.37s1.67.61,1.67,1.06c0,.39-.24.74-.93.87l-1.45.24c-2.1.37-2.65.76-3.06,1.11-.56.5-.85,1.2-.85,1.96,0,1.56,1.22,2.97,3.6,2.97,1.39,0,2.19-.46,2.72-1.33ZM100.39,150.19l-.02,1.19c0,1.34-.83,2.17-2.28,2.17-1.06,0-1.56-.63-1.56-1.2,0-.45.15-.95,1.74-1.39l1.09-.3c.48-.13.82-.32,1.02-.46ZM89.78,155.16h2.54v-13.12h-2.52l-.02,13.12ZM79.24,152.01c.04,1.78,1.54,3.48,4.43,3.48s4.25-1.58,4.25-3.26c0-.59-.22-1.19-.59-1.65-.35-.44-.82-.78-1.93-1.04l-2.71-.63c-.57-.15-.8-.5-.8-.83,0-.37.33-.95,1.58-.95,1.33,0,1.93.7,1.95,1.46l2.24-.04c-.04-.95-.56-1.89-1.35-2.48-.56-.39-1.43-.72-2.8-.72-2.72,0-3.93,1.46-3.93,3.08,0,.76.22,1.3.67,1.78.33.35.74.65,1.8.87l2.04.46c1.19.26,1.33.63,1.33,1.07,0,.41-.39,1.06-1.78,1.06s-2.02-.7-2.1-1.69l-2.3.02ZM74.84,154.2l.11.96h2.5l-.02-13.12h-2.52v4.76c-.46-.74-1.52-1.37-2.73-1.37-2.11,0-4.19,1.76-4.19,5.06,0,1.5.46,2.74,1.21,3.61.8.95,1.76,1.37,2.89,1.37s2.08-.45,2.74-1.28ZM72.84,153.29c-1.19,0-2.24-.85-2.24-2.85,0-2.24,1.09-3.04,2.15-3.04s2.13.8,2.13,2.97-1.09,2.91-2.04,2.93ZM57.77,155.16h2.54v-5.28c0-.74.15-1.09.37-1.39.33-.48.93-.8,1.54-.8.87,0,1.5.57,1.5,1.63v5.84h2.52v-6.65c0-1.76-1.3-3.11-3.24-3.11-1.35,0-2.3.72-2.61,1.46l-.11-1.11-2.48-.02-.02,9.43ZM53.05,154.09c.06.46.17.8.31,1.08h2.58c-.32-.39-.41-.67-.43-.98l.02-5.17c0-2.26-1.19-3.62-4.26-3.62-2.85,0-4.04,1.56-3.99,3.15l2.24.04c0-.7.52-1.37,1.82-1.37s1.67.61,1.67,1.06c0,.39-.24.74-.93.87l-1.45.24c-2.09.37-2.65.76-3.06,1.11-.56.5-.85,1.2-.85,1.96,0,1.56,1.22,2.97,3.6,2.97,1.39,0,2.19-.46,2.73-1.33ZM53.07,150.19l-.02,1.19c0,1.34-.83,2.17-2.28,2.17-1.06,0-1.56-.63-1.56-1.2,0-.45.15-.95,1.74-1.39l1.09-.3c.48-.13.82-.32,1.02-.46ZM40.83,155.16h2.54v-4.19c0-1.41.35-2.06.76-2.5.48-.5,1.02-.74,1.72-.74.15,0,.3.02.43.04l.02-2.24c-.13-.02-.33-.06-.54-.06-1.11,0-2.06.71-2.35,1.69l-.07-1.43h-2.5v9.43ZM28.36,155.16h6.73c1.24,0,1.83-.2,2.48-.67.95-.65,1.48-1.65,1.48-2.96,0-1.71-.98-2.97-2.6-3.39,1.34-.37,2.11-1.43,2.11-2.78,0-1.26-.54-2.21-1.5-2.8-.52-.33-1.04-.52-2.21-.52h-6.51v13.12ZM31.08,153.03v-3.74l3.21-.02c1.21,0,1.96.85,1.96,1.83,0,1.08-.83,1.93-1.95,1.93h-3.23Z"/>
</svg>