<svg xmlns="http://www.w3.org/2000/svg" viewBox="0 0 595.28 850.37"><defs><style>.a{fill:#ad1922;}.a,.b{fill-rule:evenodd;}.b{fill:#e5e8eb;}</style></defs><title>F002_C</title><polyline class="a" points="0 850.37 595.28 850.37 595.28 0 0 0 0 850.37"/><path class="b" d="M512.51,399.91V341.75h-4.91c-41.29-3.85-93.48-42.85-114.74-76.87l-5.37-8.24-0.37,6.48c-2.3,58.69,45.35,113.58,100.66,129l12.33,4Zm0-115.12V226.26l-3-1.11c-26.28-10.3-39.24-45.06-48.58-69.18L457,143.64l-2.31,10c-11,57.7,4.56,88.37,49.49,125.21l4.08,3.06Zm0,26.3-6.68,1.76-3.43.65c-24.16,4.84-49-5.7-66.17-22.41l-4.44-5.29-4.27-5.46c-31.51-38.16-21.74-79.19-46.43-102.7l-2.6-2.33L373,171.05l6.59-.55c72.65,0.4,61.17,105.11,124,136.43l2.87,1.57Zm0,201.25V456l-8.16,2c-37.58,11-81.5,2.88-110.93-23.33l-5.94-6.11,2.69,10.29c14.15,55.88,45.86,73.24,101.29,73.62H502Zm0-84.47L501,424.64c-62.56-9.31-79.69-96.84-151.16-58.16l-5,3.43,6,1.47c61.54,16,59.55,103.3,151.71,63.9l5-3.62ZM128.94,95.75c-10,0-13,9.1-13,9.1l0.37,327.69,24.33,0.18V104.66A11.67,11.67,0,0,0,128.94,95.75ZM263,97c-10,0-12.81,9.1-12.81,9.1l0.19,256s0.37,10.39,11.33,10.95c11.87,0.73,13.17-10.77,13.17-10.77V105.77S273,97,263,97Zm-33.61,0c-10,0-13,9.1-13,9.1l0.19,256s0.37,10.39,11.33,10.95c11.88,0.73,13.37-10.77,13.37-10.77V105.77S239.41,97,229.39,97ZM195.8,97c-10,0-12.82,9.1-12.82,9.1l0.19,256s0.19,10.39,11.33,10.95c11.87,0.73,13.17-10.77,13.17-10.77V105.77S205.81,97,195.8,97ZM162,97c-9.83,0-12.81,9.1-12.81,9.1l0.19,256s0.37,10.39,11.33,10.95c11.87,0.73,13.19-10.77,13.19-10.77V105.77S172,97,162,97ZM350.28,198.42c-17.65,0-32.13,13.36-34.54,30.63h-8.35V92.59l-10-9.84H282.68v304.3h16l8.73-11.33v-135h8.73a34.82,34.82,0,0,0,69.07-6.87C385.18,214.39,369.58,198.42,350.28,198.42ZM376.82,229H356.21V207A27,27,0,0,1,376.82,229Zm-34-21.72V229H323.53A27.64,27.64,0,0,1,342.84,207.32Zm-18.76,33.42h18.76v19.68A27.89,27.89,0,0,1,324.08,240.75Zm32.13,20v-20h20.42A27.64,27.64,0,0,1,356.21,260.79ZM117.43,450.54a2.46,2.46,0,0,0-1.3.56,2,2,0,0,0,.37,1.48s0.93,5.59,1.85,11.89c1.13,7.8,2.61,16.34,2.61,16.34s3.9,0.18,6.88,0c3.7,0,6.67.18,6.67,0.18s1.67-9.29,3.34-17.27c1.11-6.32,2.41-12.07,2.41-12.07a0.76,0.76,0,0,0,0-.92,7.26,7.26,0,0,0-1.67-.18H117.43ZM82.71,92.77V375.9l8.91,11.33h16V82.93H92.73Zm38,520.63V601.09h13.39a6.09,6.09,0,0,1,5.69,6.19,6.23,6.23,0,0,1-6.48,6.26ZM450,645.94a11,11,0,0,0,3.53,7.34c2.23,2.16,6.41,4.18,13.46,4.18,7.92,0,13-3,15.48-6.12,1.65-2.23,2.59-4.25,2.59-9.72V607.28h-9.43l-0.36,4.46c-0.65-1.15-2.66-5.76-10.8-5.76C455.66,606,448,613,448,624.34s7.71,18.43,16.42,18.43c5.9,0,9.5-2.66,10.94-5.47v4c0,6.19-2.88,8.78-8.49,8.78-4.32,0-6.34-2.16-6.7-4.46Zm16.7-11.66c-4.82,0-8.86-3.46-8.86-10.22,0-5.9,4.11-9.65,8.64-9.65s8.64,3.74,8.64,9.94S471,634.28,466.74,634.28Zm-58.53,9.65h9.87V623.41c0-2.88.57-4.25,1.44-5.4a7.4,7.4,0,0,1,6-3.1c3.38,0,5.83,2.23,5.83,6.33v22.68h9.79V618.08c0-6.84-5-12.1-12.6-12.1-5.26,0-8.93,2.81-10.15,5.69l-0.43-4.32-9.65-.07Zm-18.36-4.18a11.48,11.48,0,0,0,1.23,4.18h10a6.2,6.2,0,0,1-1.65-3.82L399.5,620c0-8.79-4.61-14-16.56-14-11.09,0-15.7,6-15.48,12.24l8.71,0.14c0-2.73,2-5.33,7.05-5.33,4.82,0,6.48,2.37,6.48,4.1,0,1.51-.94,2.88-3.6,3.38l-5.62.94c-8.14,1.44-10.3,3-11.88,4.32a10.12,10.12,0,0,0-3.31,7.63c0,6,4.75,11.52,14,11.52C384.67,644.93,387.76,643.14,389.85,639.75Zm0.07-15.12-0.07,4.61c0,5.19-3.24,8.42-8.86,8.42-4.1,0-6-2.45-6-4.68,0-1.73.58-3.67,6.77-5.4l4.25-1.15A12.05,12.05,0,0,0,389.92,624.63Zm-41.18,19.3h9.87V593h-9.79Zm-41-12.24c0.14,6.91,6,13.54,17.21,13.54,11.45,0,16.49-6.12,16.49-12.67a10.42,10.42,0,0,0-2.3-6.41c-1.37-1.73-3.17-3-7.49-4l-10.51-2.45c-2.23-.57-3.1-1.95-3.1-3.24s1.29-3.67,6.12-3.67c5.19,0,7.49,2.74,7.56,5.69l8.71-.14a13,13,0,0,0-5.26-9.65c-2.16-1.51-5.54-2.81-10.87-2.81-10.58,0-15.26,5.69-15.26,12a9.44,9.44,0,0,0,2.59,6.91c1.3,1.37,2.88,2.52,7,3.39l7.92,1.8c4.61,1,5.19,2.45,5.19,4.18s-1.51,4.11-6.91,4.11c-5.19,0-7.85-2.74-8.14-6.55Zm-17.06,8.5,0.43,3.74h9.72l-0.07-51H291v18.5c-1.8-2.88-5.9-5.33-10.58-5.33-8.21,0-16.27,6.84-16.27,19.66a21.36,21.36,0,0,0,4.68,14,14,14,0,0,0,11.23,5.33A13.16,13.16,0,0,0,290.71,640.18Zm-7.78-3.53c-4.61,0-8.71-3.31-8.71-11.09,0-8.71,4.25-11.81,8.35-11.81s8.28,3.1,8.28,11.52C290.85,633.34,286.6,636.58,282.93,636.65Zm-58.53,7.27h9.86V623.41c0-2.88.58-4.25,1.44-5.4a7.4,7.4,0,0,1,6-3.1c3.38,0,5.83,2.23,5.83,6.33v22.68h9.79V618.08c0-6.84-5-12.1-12.6-12.1-5.26,0-8.93,2.81-10.15,5.69l-0.44-4.32-9.65-.07ZM206,639.75a11.56,11.56,0,0,0,1.22,4.18h10a6.23,6.23,0,0,1-1.66-3.82L215.69,620c0-8.79-4.61-14-16.56-14-11.09,0-15.7,6-15.48,12.24l8.71,0.14c0-2.73,2-5.33,7.06-5.33,4.82,0,6.48,2.37,6.48,4.1,0,1.51-.94,2.88-3.6,3.38l-5.62.94c-8.13,1.44-10.29,3-11.88,4.32a10.12,10.12,0,0,0-3.31,7.63c0,6,4.75,11.52,14,11.52C200.86,644.93,204,643.14,206,639.75Zm0.07-15.12L206,629.24c0,5.19-3.24,8.42-8.86,8.42-4.1,0-6-2.45-6-4.68,0-1.73.57-3.67,6.77-5.4l4.25-1.15A12.06,12.06,0,0,0,206.11,624.63Zm-47.52,19.3h9.86V627.65c0-5.47,1.37-8,3-9.72a8.73,8.73,0,0,1,6.7-2.88,11.52,11.52,0,0,1,1.65.14l0.07-8.71a14.12,14.12,0,0,0-2.09-.22,9.45,9.45,0,0,0-9.14,6.55l-0.29-5.54h-9.72v36.65Zm-48.45,0h26.13c4.82,0,7.13-.79,9.65-2.59,3.67-2.52,5.76-6.41,5.76-11.52a13,13,0,0,0-10.08-13.18,10.73,10.73,0,0,0,8.21-10.8A12,12,0,0,0,144,595c-2-1.3-4-2-8.57-2H110.14v51Zm10.58-8.28V621.11l12.45-.07c4.68,0,7.63,3.31,7.63,7.13a7.41,7.41,0,0,1-7.56,7.49H120.72Z"/></svg>