<?xml version="1.0" encoding="UTF-8"?>
<svg id="Lager_1" data-name="Lager 1" xmlns="http://www.w3.org/2000/svg" viewBox="0 0 153.26 218.93">
  <defs>
    <style>
      .cls-1 {
        fill: #aa2825;
      }

      .cls-1, .cls-2 {
        fill-rule: evenodd;
      }

      .cls-2 {
        fill: #fff;
      }
    </style>
  </defs>
  <polyline class="cls-2" points="0 218.93 153.26 218.93 153.26 0 0 0 0 218.93"/>
  <polyline class="cls-1" points="10.07 8.86 143.2 8.86 143.2 125.91 10.07 125.91 10.07 8.86"/>
  <polyline class="cls-1" points="10.08 135.35 143.22 135.35 143.22 210.67 10.08 210.67 10.08 135.35"/>
  <path class="cls-2" d="M73.69,118.76h4.44l-8.61-102.75h-3.9l.62,8.08h-23.75l.67-8.08h-3.91l-8.66,102.75h4.48l.93-11.85h36.75l.93,11.85ZM69.97,71.27h-31.16l.89-11.41h29.39l.89,11.41ZM68.73,55.69h-28.72l.93-11.67h26.9l.89,11.67ZM38.53,75.44h31.75s.89,11.45.89,11.45h-33.55s.91-11.45.91-11.45ZM66.6,28.26l.89,11.54h-26.23l.93-11.54h24.41ZM36.33,102.74l.93-11.67h34.27l.93,11.67h-36.13ZM122.7,91.84v-13.91h-1.18c-9.87-.93-22.35-10.25-27.43-18.39l-1.29-1.97-.09,1.55c-.55,14.03,10.85,27.17,24.07,30.86l2.95.95,2.97.91ZM122.7,64.31v-14l-.73-.27c-6.29-2.46-9.38-10.78-11.62-16.54l-.93-2.95-.56,2.4c-2.63,13.81,1.09,21.13,11.84,29.95l.98.73,1.02.69ZM122.7,70.6l-1.6.42-.82.15c-5.78,1.15-11.72-1.36-15.83-5.36l-1.07-1.26-1.02-1.31c-7.52-9.11-5.2-18.94-11.1-24.56l-.62-.56-1.31-1.02,1.58-.13c17.38.1,14.63,25.14,29.66,32.63l.69.38,1.44.62ZM122.7,118.73v-13.47l-1.95.49c-8.99,2.62-19.49.69-26.53-5.58l-1.42-1.46.64,2.46c3.38,13.35,10.98,17.52,24.23,17.61h2.52l2.51-.04ZM122.7,98.53l-2.75-.78c-14.9-2.21-19.13-23.18-36.15-13.91l-1.2.82,1.44.35c14.72,3.84,14.24,24.7,36.29,15.29l1.19-.86,1.18-.91ZM29.39,147.86v-3.63h3c.72,0,.93.09,1.22.26.52.33.83.98.83,1.58,0,1-.78,1.83-2.15,1.82l-2.91-.02ZM94.18,173.19l6.99.02c0-2.8-1.26-5.76-4.78-5.76s-4.73,2.87-4.73,5.02c0,3.13,2.08,5.08,4.71,5.08s4.24-1.43,4.63-3.08l-2.54-.17c-.5.87-1.15,1.22-1.96,1.22-1.2,0-2.19-.82-2.32-2.34ZM94.27,171.35c.17-1.15,1.11-1.93,2.08-1.93,1.04,0,1.93.7,2.1,1.93h-4.17ZM80.85,177.73c.11.89.39,1.39.93,1.89.56.56,1.63,1.08,3.45,1.08,2.06,0,3.35-.76,3.99-1.58.44-.57.67-1.09.67-2.5v-8.84h-2.43l-.09,1.15c-.17-.3-.69-1.48-2.78-1.48-2.28,0-4.26,1.82-4.26,4.73s1.98,4.74,4.25,4.74c1.5,0,2.43-.69,2.8-1.41v1.02c0,1.59-.74,2.26-2.19,2.26-1.11,0-1.63-.56-1.71-1.15l-2.61.09ZM85.15,174.73c-1.24,0-2.26-.89-2.26-2.63,0-1.52,1.04-2.48,2.21-2.48s2.22.96,2.22,2.56-1.08,2.56-2.17,2.56ZM71.75,173.19l6.97.02c0-2.8-1.26-5.76-4.76-5.76s-4.73,2.87-4.73,5.02c0,3.13,2.08,5.08,4.71,5.08s4.23-1.43,4.61-3.08l-2.52-.17c-.5.87-1.15,1.22-1.96,1.22-1.2,0-2.19-.82-2.32-2.34ZM71.84,171.35c.17-1.15,1.11-1.93,2.08-1.93,1.04,0,1.93.7,2.1,1.93h-4.17ZM67.91,177.21v-1.95h-.94c-.3,0-.59-.17-.72-.35-.06-.07-.13-.22-.13-.74v-4.67h1.72v-1.72h-1.72l-.02-2.98h-2.52v2.98h-1.32v1.74l1.33-.02v4.88c0,2.13.87,2.84,2.26,2.84h2.06ZM52.08,174.06c.04,1.78,1.54,3.49,4.43,3.49s4.24-1.58,4.24-3.26c0-.59-.22-1.19-.59-1.65-.35-.44-.8-.78-1.93-1.04l-2.71-.63c-.56-.15-.8-.5-.8-.83,0-.37.33-.95,1.58-.95,1.33,0,1.93.71,1.95,1.47l2.24-.04c-.04-.95-.56-1.89-1.35-2.48-.56-.39-1.43-.72-2.8-.72-2.73,0-3.91,1.46-3.91,3.08,0,.76.2,1.3.65,1.78.33.35.74.65,1.8.87l2.04.46c1.2.26,1.33.63,1.33,1.07,0,.41-.39,1.06-1.78,1.06s-2.02-.7-2.09-1.69l-2.3.02ZM118.98,149.69h7.56v-2.24h-7.56v2.24ZM108.43,151.99c.04,1.78,1.54,3.48,4.43,3.48s4.24-1.58,4.24-3.26c0-.59-.22-1.19-.59-1.65-.35-.44-.8-.78-1.93-1.04l-2.71-.63c-.56-.15-.8-.5-.8-.83,0-.37.33-.95,1.58-.95,1.33,0,1.93.7,1.95,1.46l2.24-.04c-.04-.95-.56-1.89-1.35-2.48-.56-.39-1.43-.72-2.8-.72-2.73,0-3.91,1.46-3.91,3.08,0,.76.2,1.3.65,1.78.33.35.74.65,1.8.87l2.04.46c1.2.26,1.33.63,1.33,1.07,0,.41-.39,1.06-1.78,1.06s-2.02-.7-2.1-1.69l-2.3.02ZM97.63,155.66c.11.89.39,1.39.93,1.89.56.56,1.63,1.07,3.45,1.07,2.06,0,3.35-.76,3.99-1.58.45-.58.67-1.09.67-2.5v-8.84h-2.43l-.09,1.15c-.17-.3-.69-1.48-2.78-1.48-2.28,0-4.26,1.82-4.26,4.73s1.98,4.74,4.24,4.74c1.5,0,2.43-.69,2.8-1.41v1.02c0,1.59-.74,2.26-2.19,2.26-1.11,0-1.63-.56-1.71-1.15l-2.61.09ZM101.93,152.66c-1.24,0-2.26-.89-2.26-2.63,0-1.52,1.04-2.48,2.21-2.48s2.22.96,2.22,2.56-1.07,2.56-2.17,2.56ZM86.86,155.14h2.54l.02-5.28c0-.74.15-1.09.35-1.39.33-.48.93-.8,1.54-.8.87,0,1.5.57,1.5,1.63v5.84h2.54v-6.65c0-1.76-1.3-3.11-3.26-3.11-1.35,0-2.3.72-2.61,1.46l-.11-1.11-2.48-.02-.02,9.43ZM82.35,155.14h2.54v-9.43h-2.54v9.43ZM82.35,144.28h2.54v-2.26h-2.54v2.26ZM71.95,155.14h2.54l.02-5.28c0-.74.15-1.09.35-1.39.33-.48.93-.8,1.54-.8.85,0,1.48.57,1.48,1.63v5.84h2.54v-6.65c0-1.76-1.3-3.11-3.26-3.11-1.33,0-2.28.72-2.6,1.46l-.11-1.11-2.48-.02-.02,9.43ZM67.36,154.18l.11.96h2.52l-.02-13.12h-2.54v4.76c-.46-.74-1.52-1.37-2.73-1.37-2.11,0-4.19,1.76-4.19,5.06,0,1.5.48,2.74,1.22,3.61.78.95,1.74,1.37,2.87,1.37s2.08-.45,2.74-1.28ZM65.35,153.27c-1.19,0-2.24-.85-2.24-2.85,0-2.24,1.09-3.04,2.15-3.04s2.13.8,2.13,2.97-1.09,2.91-2.04,2.93ZM56.1,154.18l.11.96h2.52l-.02-13.12h-2.54v4.76c-.46-.74-1.52-1.37-2.73-1.37-2.11,0-4.19,1.76-4.19,5.06,0,1.5.48,2.74,1.22,3.61.78.95,1.74,1.37,2.87,1.37s2.08-.45,2.74-1.28ZM54.1,153.27c-1.19,0-2.24-.85-2.24-2.85,0-2.24,1.09-3.04,2.15-3.04s2.13.8,2.13,2.97-1.09,2.91-2.04,2.93ZM44.91,154.07c.06.37.19.78.33,1.08h2.58c-.15-.13-.41-.56-.41-1.33l-.02-4.82c-.02-.83-.09-1.08-.15-1.28-.37-1.3-1.43-2.34-3.99-2.34-2.95,0-4.1,1.5-4.1,3.15l2.23.04c.11-.63.2-.76.41-.95.22-.22.71-.45,1.46-.45,1.19,0,1.65.63,1.65,1.08s-.28.76-.98.89l-2.54.45c-1.91.33-2.8,1.58-2.8,2.82,0,1.63,1.26,3.02,3.54,3.02,1.58,0,2.43-.63,2.78-1.35ZM44.93,150.12l-.02,1.41c-.05,1.19-.85,2-2.24,2-1.06,0-1.58-.63-1.58-1.19,0-.44.22-1.02,1.72-1.39l1.11-.3c.41-.09.76-.3,1-.54ZM43.41,144.58l2.54.02.02-2.58h-2.56v2.56ZM40.09,144.58h2.54l.02-2.58h-2.54l-.02,2.58ZM26.69,155.14h2.71l.02-5.19,2.37.02c.95,0,1.61.41,2,1.07.15.26.2.56.26.83.28,1.08-.02,2.24.5,3.26h2.76c-.19-.3-.37-.83-.43-1.37l-.22-2.32c-.07-.95-.3-1.35-.65-1.74-.43-.43-1.08-.74-1.74-.8,1.71-.19,2.85-1.46,2.85-3.23,0-2.06-1.63-3.82-4.41-3.67h-6.01l-.02,13.12Z"/>
</svg>