<svg xmlns="http://www.w3.org/2000/svg" viewBox="0 0 595.28 850.36"><defs><style>.a{fill:#ad1922;}.a,.b{fill-rule:evenodd;}.b{fill:#e5e8eb;}</style></defs><title>F003_C</title><polyline class="a" points="0 850.36 595.28 850.36 595.28 0 0 0 0 850.36"/><path class="b" d="M285.29,512.54h18.56l-36-429.65H251.52l2.59,33.77H154.82l2.79-33.77H141.28l-36.2,429.65h18.75l3.9-49.54H281.4ZM269.71,313.92H139.43l3.72-47.7H266Zm-5.2-65.15H144.44l3.9-48.8H260.81ZM138.25,331.36l132.75,0,3.73,47.88-140.28,0ZM255.61,134.08l3.71,48.25H149.64l3.9-48.25H255.61ZM129,445.5l3.9-48.8H276.22l3.89,48.8H129Zm361.15-45.56V341.77h-4.93c-41.28-3.87-93.47-42.85-114.71-76.88l-5.38-8.24-0.38,6.48c-2.3,58.67,45.37,113.59,100.66,129l12.33,4Zm0-115.12V226.27l-3.05-1.11c-26.28-10.29-39.22-45.06-48.57-69.17l-3.89-12.33-2.32,10c-11,57.74,4.54,88.34,49.5,125.21l4.08,3.06Zm0,26.3-6.68,1.76-3.41.65c-24.17,4.82-49-5.67-66.17-22.42l-4.46-5.28-4.27-5.46c-31.47-38.11-21.74-79.2-46.43-102.7l-2.6-2.32-5.47-4.26,6.59-.55c72.67,0.41,61.17,105.11,124,136.43l2.88,1.57Zm0,201.26V456.05l-8.16,2C444.44,469,400.53,461,371.09,434.76l-5.92-6.12,2.68,10.29c14.14,55.83,45.91,73.26,101.31,73.62h10.56Zm0-84.47-11.5-3.25c-62.31-9.22-80-96.91-151.17-58.17l-5,3.44,6,1.47c61.54,16.07,59.56,103.27,151.72,63.91l5-3.61Zm-376,187.72V601.51h11.66c2.81,0,3.6.36,4.75,1a7.51,7.51,0,0,1,3.24,6.12c0,3.89-3,7.13-8.35,7.06Zm251.62,99.76,27.15,0.07c0-10.87-4.9-22.39-18.58-22.39-14,0-18.36,11.16-18.36,19.51,0,12.17,8.06,19.73,18.29,19.73s16.48-5.54,18-12l-9.87-.65c-1.94,3.38-4.46,4.75-7.63,4.75C370.12,724.45,366.3,721.28,365.79,715.38Zm0.36-7.13a8.5,8.5,0,0,1,8.06-7.49c4,0,7.49,2.73,8.14,7.49h-16.2ZM314,733a10.73,10.73,0,0,0,3.6,7.34c2.16,2.16,6.34,4.18,13.39,4.18,8,0,13-3,15.48-6.12,1.72-2.23,2.59-4.25,2.59-9.72V694.36h-9.43l-0.36,4.46c-0.65-1.15-2.66-5.76-10.8-5.76-8.86,0-16.56,7.05-16.56,18.36s7.71,18.43,16.49,18.43c5.83,0,9.43-2.66,10.87-5.47v4c0,6.2-2.88,8.79-8.49,8.79-4.32,0-6.34-2.16-6.63-4.46Zm16.7-11.66c-4.82,0-8.78-3.45-8.78-10.22,0-5.9,4-9.65,8.57-9.65s8.64,3.74,8.64,9.94S335,721.35,330.73,721.35Zm-52.05-6,27.07,0.07c0-10.87-4.89-22.39-18.5-22.39-14,0-18.36,11.16-18.36,19.51,0,12.17,8.06,19.73,18.29,19.73s16.41-5.54,17.93-12l-9.79-.65c-1.94,3.38-4.46,4.75-7.63,4.75C283,724.45,279.18,721.28,278.68,715.38Zm0.36-7.13a8.5,8.5,0,0,1,8.06-7.49c4,0,7.49,2.73,8.14,7.49H279ZM263.77,731v-7.56H260.1a3.66,3.66,0,0,1-2.81-1.37c-0.22-.29-0.5-0.87-0.5-2.88V701.05h6.7v-6.7h-6.7l-0.07-11.59h-9.79v11.59h-5.11v6.77l5.18-.07V720c0,8.28,3.39,11,8.79,11h8Zm-61.49-12.24c0.14,6.91,6,13.54,17.21,13.54,11.45,0,16.49-6.12,16.49-12.67a10.4,10.4,0,0,0-2.3-6.4c-1.37-1.73-3.1-3-7.49-4l-10.51-2.45c-2.16-.57-3.1-1.94-3.1-3.24s1.3-3.67,6.12-3.67c5.18,0,7.48,2.73,7.56,5.69l8.71-.14a13,13,0,0,0-5.26-9.65c-2.16-1.51-5.55-2.81-10.87-2.81-10.58,0-15.19,5.69-15.19,12a9.4,9.4,0,0,0,2.52,6.91c1.3,1.37,2.88,2.52,7,3.38l7.92,1.8c4.68,1,5.19,2.45,5.19,4.18s-1.51,4.1-6.91,4.1c-5.18,0-7.85-2.73-8.13-6.55Zm259.85-96h29.38V614H462.14v8.71Zm-41,8.93c0.15,6.91,6,13.54,17.21,13.54,11.45,0,16.49-6.12,16.49-12.67a10.41,10.41,0,0,0-2.31-6.41c-1.37-1.73-3.1-3-7.48-4l-10.51-2.45c-2.16-.58-3.1-1.95-3.1-3.24s1.3-3.67,6.12-3.67c5.18,0,7.49,2.73,7.56,5.69l8.71-.14a13,13,0,0,0-5.26-9.65c-2.16-1.51-5.54-2.8-10.87-2.8-10.58,0-15.19,5.69-15.19,12a9.42,9.42,0,0,0,2.52,6.91c1.3,1.37,2.88,2.52,7,3.38l7.92,1.8c4.68,1,5.19,2.45,5.19,4.18s-1.51,4.1-6.91,4.1c-5.19,0-7.85-2.73-8.14-6.55Zm-42,14.25a10.73,10.73,0,0,0,3.6,7.34c2.16,2.16,6.34,4.18,13.39,4.18,8,0,13-3,15.48-6.12,1.73-2.23,2.59-4.25,2.59-9.72V607.27h-9.43l-0.36,4.47c-0.65-1.15-2.66-5.76-10.8-5.76-8.86,0-16.56,7.05-16.56,18.36s7.71,18.43,16.49,18.43c5.83,0,9.43-2.66,10.87-5.47v4c0,6.2-2.88,8.79-8.49,8.79-4.32,0-6.33-2.16-6.63-4.46Zm16.7-11.66c-4.82,0-8.78-3.45-8.78-10.22,0-5.9,4-9.65,8.57-9.65s8.64,3.74,8.64,9.94S400.15,634.27,395.9,634.27Zm-58.53,9.65h9.87l0.07-20.52c0-2.88.57-4.25,1.37-5.4a7.4,7.4,0,0,1,6-3.1c3.38,0,5.83,2.23,5.83,6.33v22.68h9.87V618.08c0-6.84-5-12.09-12.67-12.09-5.26,0-8.93,2.81-10.15,5.69l-0.43-4.32-9.65-.07Zm-17.49,0h9.86V607.27h-9.86v36.65Zm0-42.19h9.86v-8.78h-9.86v8.78Zm-40.39,42.19h9.86l0.07-20.52c0-2.88.57-4.25,1.37-5.4a7.4,7.4,0,0,1,6-3.1c3.31,0,5.76,2.23,5.76,6.33v22.68h9.86V618.08c0-6.84-5-12.09-12.67-12.09-5.19,0-8.86,2.81-10.08,5.69l-0.44-4.32-9.65-.07Zm-17.86-3.74,0.43,3.74h9.79l-0.07-51h-9.87v18.5c-1.8-2.88-5.9-5.33-10.58-5.33-8.21,0-16.27,6.84-16.27,19.65a21.42,21.42,0,0,0,4.75,14A13.8,13.8,0,0,0,251,645.14,13,13,0,0,0,261.62,640.18Zm-7.78-3.53c-4.61,0-8.71-3.31-8.71-11.09,0-8.71,4.25-11.8,8.35-11.8s8.28,3.1,8.28,11.52C261.77,633.34,257.52,636.58,253.85,636.65Zm-35.93,3.53,0.44,3.74h9.79l-0.07-51h-9.86v18.5c-1.8-2.88-5.9-5.33-10.58-5.33-8.21,0-16.27,6.84-16.27,19.65a21.4,21.4,0,0,0,4.75,14,13.78,13.78,0,0,0,11.16,5.33A13,13,0,0,0,217.92,640.18Zm-7.78-3.53c-4.61,0-8.71-3.31-8.71-11.09,0-8.71,4.25-11.8,8.35-11.8s8.28,3.1,8.28,11.52C218.06,633.34,213.82,636.58,210.14,636.65Zm-35.71,3.1a15,15,0,0,0,1.3,4.18h10c-0.58-.5-1.58-2.16-1.58-5.18L184.08,620a17,17,0,0,0-.57-5C182.06,610,178,606,168,606c-11.45,0-15.91,5.83-15.91,12.24l8.64,0.14c0.43-2.45.79-3,1.58-3.67S165.07,613,168,613c4.61,0,6.4,2.45,6.4,4.18s-1.08,3-3.81,3.45l-9.86,1.73c-7.42,1.3-10.87,6.12-10.87,10.95,0,6.33,4.89,11.73,13.75,11.73C169.76,645,173.06,642.55,174.43,639.74Zm0.07-15.33-0.07,5.47c-0.21,4.61-3.31,7.78-8.71,7.78-4.11,0-6.12-2.45-6.12-4.61,0-1.73.86-4,6.7-5.4l4.32-1.15A8.08,8.08,0,0,0,174.51,624.41Zm-5.9-21.53,9.86,0.07,0.07-10H168.6v9.94Zm-12.89,0h9.86l0.07-10h-9.87Zm-52.05,41h10.51l0.07-20.16,9.22,0.07a8.45,8.45,0,0,1,7.78,4.18,10.63,10.63,0,0,1,1,3.24c1.08,4.18-.07,8.71,1.95,12.67h10.73a13.64,13.64,0,0,1-1.66-5.33l-0.86-9c-0.29-3.67-1.15-5.26-2.52-6.77a11.19,11.19,0,0,0-6.77-3.1c6.62-.72,11.09-5.69,11.09-12.53,0-8-6.34-14.83-17.14-14.25H103.73Z"/></svg>