<svg xmlns="http://www.w3.org/2000/svg" viewBox="0 0 595.28 850.36"><defs><style>.a{fill:#ad1922;}.a,.b{fill-rule:evenodd;}.b{fill:#e5e8eb;}</style></defs><title>F004_C</title><polyline class="a" points="0 850.36 595.28 850.36 595.28 0 0 0 0 850.36"/><path class="b" d="M512.59,400V341.79h-4.92c-41.24-3.83-93.51-42.87-114.73-76.87l-5.38-8.24-0.37,6.48c-2.31,58.68,45.36,113.59,100.65,129l12.33,4Zm0-115.12V226.3l-3.05-1.11C483.27,214.91,470.3,180.12,461,156l-3.89-12.32-2.31,10c-11,57.73,4.55,88.37,49.49,125.22l4.08,3.05Zm0,26.31-6.67,1.75-3.43.66c-24.17,4.82-49-5.7-66.17-22.42l-4.44-5.28-4.26-5.46c-31.48-38.09-21.75-79.2-46.44-102.71l-2.6-2.33-5.46-4.26,6.59-.56c72.64,0.4,61.17,105.12,124,136.43l2.89,1.57Zm0,201.24V456.08l-8.16,2c-37.58,10.93-81.51,2.88-110.93-23.35l-5.93-6.11,2.69,10.3c14.19,55.9,45.84,73.22,101.29,73.61h10.57Zm0-84.46-11.5-3.24c-62.29-9.22-80-96.92-151.16-58.16l-5,3.44,6,1.48c61.52,16,59.55,103.28,151.71,63.89l5-3.6ZM219.86,103.24s20,3.27,28.9,7.45c14.53,6.73,28.34,17.09,28.34,17.09a188.1,188.1,0,0,1,19.45,26A215.79,215.79,0,0,1,312,186.83s6.18,17.62,13.26,28.54c12.36,19.44,34.9,24.16,34.9,24.16l1.45-2.36s-19.08-6-28.71-28c-4.36-10-7.64-22.72-11.27-34.17a129.19,129.19,0,0,0-16.54-33.25S294.37,121.05,279.46,110c-18.53-13.81-42-18.71-42-18.71s-16.17-5.82-31.8-7.64a138,138,0,0,0-31.08,0l-2.53,29.62a156.21,156.21,0,0,1,31.24-9.45C214,101.78,219.86,103.24,219.86,103.24ZM373.77,249.16s-28.72,1.28-50.35-24.89c-9.08-10.74-16.52-28.72-22.52-43.81a168,168,0,0,0-14-26.72s-14-22.16-34.89-34.15c-15.45-8.91-39.62-8.54-39.62-8.54s-20.53-.36-39.43,10c-17.45,9.63-33.44,30.34-33.44,30.34l-3.81-.72-18,58.16h4.73s0.36,9.45-4.19,17.62c-5.27,9.81-14.35,17.27-14.35,17.27s-7.08,3.82-12.55,3.82c-6.53,0-6.89,7.09-6.89,7.09H375.41Zm-290.93,28h294V260.07h-294v17.08ZM194.3,613.4V601.08H207.7a6.09,6.09,0,0,1,5.69,6.19,6.23,6.23,0,0,1-6.48,6.27ZM431.74,820.15c0.5,3.46,1.51,5.4,3.6,7.34,2.23,2.16,6.33,4.18,13.47,4.18,7.92,0,13-3,15.48-6.12,1.65-2.23,2.59-4.25,2.59-9.72l-0.07-34.34h-9.43l-0.29,4.46c-0.72-1.15-2.66-5.76-10.8-5.76-8.86,0-16.63,7.06-16.63,18.36S437.43,817,446.15,817c5.83,0,9.5-2.66,10.87-5.47v4c0,6.19-2.81,8.79-8.5,8.79-4.25,0-6.26-2.16-6.62-4.47Zm16.78-11.66c-4.82,0-8.86-3.46-8.86-10.22,0-5.9,4.11-9.65,8.57-9.65s8.64,3.74,8.64,9.94S452.7,808.48,448.52,808.48Zm-58.6,9.65h9.86l0.07-20.52c0-2.88.57-4.25,1.37-5.4a7.4,7.4,0,0,1,6-3.1c3.38,0,5.9,2.23,5.9,6.34L413,818.13h9.86V792.28c0-6.84-5-12.1-12.6-12.1-5.26,0-8.93,2.81-10.23,5.69l-0.36-4.32-9.72-.07Zm-17.5,0h9.87V781.48h-9.79Zm0.07-42.19h9.86v-8.79h-9.86v8.79ZM332,818.13h9.87l0.07-20.52c0-2.88.57-4.25,1.37-5.4a7.4,7.4,0,0,1,6-3.1c3.38,0,5.9,2.23,5.9,6.34l-0.07,22.68h9.87V792.28c0-6.84-5-12.1-12.6-12.1-5.26,0-8.93,2.81-10.22,5.69l-0.36-4.32-9.72-.07Zm-7.2,0v-7.56h-3.67a3.69,3.69,0,0,1-2.88-1.37,5.42,5.42,0,0,1-.5-2.88V788.18h6.7v-6.7h-6.63l-0.07-11.59h-9.79v11.59h-5.19v6.77l5.19-.07v18.94c0,8.28,3.38,11,8.86,11h8Zm-61.49-12.24c0.22,6.91,6,13.54,17.28,13.54S297,813.31,297,806.75a10.35,10.35,0,0,0-2.23-6.4c-1.37-1.73-3.17-3-7.49-4l-10.51-2.45c-2.23-.57-3.17-1.94-3.17-3.24s1.37-3.67,6.12-3.67c5.26,0,7.56,2.73,7.63,5.69l8.64-.14a12.78,12.78,0,0,0-5.26-9.65c-2.09-1.51-5.47-2.81-10.87-2.81-10.51,0-15.19,5.69-15.19,12a9.72,9.72,0,0,0,2.52,6.91c1.3,1.37,3,2.52,7,3.38l8,1.8c4.61,1,5.19,2.45,5.19,4.18s-1.58,4.1-7,4.1c-5.18,0-7.77-2.73-8.06-6.55ZM246.57,814l0.5,4.11h9.29V781.56l-9.79-.07V802c0,5.62-3.31,8.49-7.27,8.49-3.67,0-6-1.94-6-7.13V781.48h-9.86v25.2c0,4.82,1.44,7.41,3.67,9.5a13.12,13.12,0,0,0,9.14,3.17A11.86,11.86,0,0,0,246.57,814ZM197,818.13h9.87l0.07-16.27c0-5.47,1.3-8,3-9.72a8.63,8.63,0,0,1,6.7-2.88,12.57,12.57,0,0,1,1.66.14l0.07-8.71a14.8,14.8,0,0,0-2.16-.21A9.52,9.52,0,0,0,207,787l-0.29-5.54H197Zm-7.2,0v-7.56h-3.67a3.69,3.69,0,0,1-2.88-1.37,5.42,5.42,0,0,1-.5-2.88V788.18h6.7v-6.7h-6.62l-0.07-11.59h-9.79v11.59h-5.18v6.77l5.18-.07v18.94c0,8.28,3.38,11,8.86,11h8ZM151.46,814l0.5,4.11h9.29V781.56l-9.79-.07V802c0,5.62-3.31,8.49-7.27,8.49-3.67,0-6-1.94-6-7.13V781.48h-9.87v25.2c0,4.82,1.44,7.41,3.67,9.5a13.11,13.11,0,0,0,9.14,3.17A11.85,11.85,0,0,0,151.46,814ZM466,709.84h29.45v-8.71H466.09Zm-41,8.93c0.21,6.91,6,13.54,17.28,13.54s16.42-6.12,16.42-12.67a10.33,10.33,0,0,0-2.23-6.4c-1.37-1.73-3.17-3-7.49-4l-10.51-2.45c-2.23-.57-3.1-1.94-3.1-3.24s1.29-3.67,6-3.67c5.26,0,7.56,2.73,7.63,5.69l8.71-.14a13.25,13.25,0,0,0-5.26-9.65c-2.16-1.51-5.54-2.81-10.94-2.81-10.51,0-15.19,5.69-15.19,12a9.71,9.71,0,0,0,2.52,6.91c1.37,1.37,3,2.52,7.06,3.38l7.92,1.8c4.61,1,5.19,2.45,5.19,4.18s-1.51,4.1-7,4.1c-5.19,0-7.78-2.73-8.06-6.55Zm-42,14.25c0.5,3.46,1.51,5.4,3.6,7.34,2.23,2.16,6.41,4.18,13.46,4.18,7.92,0,13-3,15.48-6.12,1.66-2.23,2.59-4.25,2.59-9.72l-0.07-34.34h-9.36l-0.36,4.46c-0.72-1.15-2.66-5.76-10.8-5.76-8.86,0-16.63,7.05-16.63,18.36s7.78,18.43,16.49,18.43c5.83,0,9.5-2.66,10.95-5.47l-0.07,4c0,6.2-2.81,8.79-8.49,8.79-4.25,0-6.27-2.16-6.63-4.46Zm16.78-11.66c-4.82,0-8.86-3.45-8.86-10.22,0-5.9,4.1-9.65,8.64-9.65s8.57,3.74,8.57,9.94S404,721.35,399.85,721.35ZM341.24,731h9.87l0.07-20.52c0-2.88.58-4.25,1.37-5.4a7.4,7.4,0,0,1,6-3.1c3.46,0,5.9,2.23,5.9,6.34L364.35,731h9.87V705.16c0-6.84-5-12.1-12.6-12.1-5.26,0-8.93,2.8-10.22,5.69L351,694.43l-9.72-.07Zm-17.49,0h9.86V694.36h-9.79Zm0.07-42.19h9.87V680h-9.87v8.79ZM283.36,731h9.86l0.07-20.52c0-2.88.57-4.25,1.37-5.4a7.26,7.26,0,0,1,5.9-3.1c3.46,0,5.9,2.23,5.9,6.34L306.4,731h9.86V705.16c0-6.84-5-12.1-12.6-12.1-5.26,0-8.86,2.8-10.15,5.69l-0.36-4.32-9.72-.07Zm-42.55,0h9.86l-0.07-12,4.18-4.11L264.85,731h12l-15-22.54,13.1-14.11H263.34l-12.67,14L250.6,680h-9.87Zm-16.34-13.32c-0.5,2.88-1.37,4-2.81,5.11a7.49,7.49,0,0,1-4.75,1.51c-4.46,0-8.49-3.17-8.49-11.37,0-9,4.32-12.31,8.86-12.31a7.06,7.06,0,0,1,7,6.27l9.5-.5c-0.79-7.63-6.69-13.54-16.78-13.54-7.2,0-12.24,2.81-15.55,7.7a20.55,20.55,0,0,0-3.53,12.24c0,7.41,3,13,7.63,16.41a18.46,18.46,0,0,0,11.38,3.38,18.18,18.18,0,0,0,7.27-1.22c5.54-2,8.93-6.19,9.65-13.25Zm-43.41,9.14a14.83,14.83,0,0,0,1.29,4.18h9.94c-0.57-.5-1.51-2.16-1.51-5.18l-0.14-18.72a18.4,18.4,0,0,0-.5-5c-1.51-5-5.61-9.07-15.55-9.07-11.38,0-15.91,5.83-15.91,12.24l8.71,0.14c0.36-2.45.72-3,1.51-3.67s2.81-1.72,5.76-1.72c4.61,0,6.33,2.45,6.33,4.18s-1.08,3-3.74,3.45l-9.94,1.73c-7.41,1.3-10.87,6.12-10.87,10.95,0,6.33,4.9,11.73,13.75,11.73C176.3,732.08,179.68,729.63,181.05,726.83Zm0-15.33V717c-0.22,4.61-3.38,7.78-8.71,7.78-4.18,0-6.12-2.45-6.12-4.61,0-1.73.87-4,6.7-5.4l4.25-1.15A7.77,7.77,0,0,0,181.05,711.49ZM175.15,690l9.94,0.07V680h-9.87Zm-12.82,0h9.87l0.07-10H162.4Zm-21.67,41h9.86V680h-9.79Zm-41-12.24c0.21,6.91,6,13.54,17.28,13.54s16.42-6.12,16.42-12.67a10.33,10.33,0,0,0-2.23-6.4c-1.37-1.73-3.17-3-7.49-4l-10.51-2.45c-2.23-.57-3.1-1.94-3.1-3.24s1.3-3.67,6-3.67c5.26,0,7.56,2.73,7.63,5.69l8.71-.14a13.25,13.25,0,0,0-5.26-9.65c-2.16-1.51-5.55-2.81-10.95-2.81-10.51,0-15.19,5.69-15.19,12a9.7,9.7,0,0,0,2.52,6.91c1.37,1.37,3,2.52,7.05,3.38l7.92,1.8c4.61,1,5.19,2.45,5.19,4.18s-1.51,4.1-7,4.1c-5.19,0-7.78-2.73-8.06-6.55Zm282.38-96h29.38V614H382.07v8.71Zm-17.86,17.42,0.43,3.74h9.79l-0.07-51H364.5v18.5c-1.8-2.88-5.9-5.33-10.58-5.33-8.21,0-16.27,6.84-16.27,19.65a21.37,21.37,0,0,0,4.68,14,14,14,0,0,0,11.23,5.33A13.14,13.14,0,0,0,364.22,640.18Zm-7.78-3.53c-4.61,0-8.71-3.31-8.71-11.09,0-8.71,4.25-11.8,8.35-11.8s8.28,3.1,8.28,11.52C364.36,633.34,360.11,636.58,356.44,636.65Zm-58.53,7.27h9.86V623.4c0-2.88.58-4.25,1.44-5.4a7.4,7.4,0,0,1,6-3.1c3.38,0,5.83,2.23,5.83,6.33v22.68h9.79V618.08c0-6.84-5-12.09-12.6-12.09-5.26,0-8.93,2.81-10.15,5.69l-0.44-4.32-9.64-.07Zm-18.29-4.18a11.47,11.47,0,0,0,1.22,4.18h10a6.21,6.21,0,0,1-1.65-3.81L289.27,620c0-8.78-4.61-14-16.56-14-11.09,0-15.7,6-15.48,12.24l8.71,0.14c0-2.74,2-5.33,7.05-5.33,4.82,0,6.48,2.38,6.48,4.11,0,1.51-.94,2.88-3.6,3.38l-5.62.94c-8.14,1.44-10.3,3-11.88,4.32a10.12,10.12,0,0,0-3.31,7.63c0,6,4.75,11.52,14,11.52C274.44,644.93,277.53,643.13,279.62,639.74Zm0.07-15.12-0.07,4.61c0,5.18-3.24,8.42-8.86,8.42-4.11,0-6-2.45-6-4.68,0-1.73.57-3.67,6.77-5.4l4.25-1.15A12.11,12.11,0,0,0,279.69,624.63Zm-47.52,19.29H242V627.65c0-5.47,1.37-8,3-9.72a8.72,8.72,0,0,1,6.7-2.88,12.14,12.14,0,0,1,1.65.14l0.07-8.71a14.76,14.76,0,0,0-2.09-.21,9.45,9.45,0,0,0-9.14,6.55l-0.29-5.55h-9.72v36.65Zm-48.45,0h26.14c4.82,0,7.13-.79,9.65-2.59a13.27,13.27,0,0,0,5.76-11.52,13,13,0,0,0-10.08-13.17,10.74,10.74,0,0,0,8.21-10.8A12.05,12.05,0,0,0,217.56,595c-2-1.3-4-2-8.56-2H183.72v51Zm10.58-8.28V621.1l12.46-.07c4.68,0,7.63,3.31,7.63,7.13a7.41,7.41,0,0,1-7.56,7.49H194.3Z"/></svg>