<?xml version="1.0" encoding="UTF-8"?>
<svg id="Lager_1" data-name="Lager 1" xmlns="http://www.w3.org/2000/svg" viewBox="0 0 153.26 218.93">
  <defs>
    <style>
      .cls-1 {
        fill: #aa2825;
      }

      .cls-1, .cls-2 {
        fill-rule: evenodd;
      }

      .cls-2 {
        fill: #fff;
      }
    </style>
  </defs>
  <polyline class="cls-2" points="0 218.93 153.26 218.93 153.26 0 0 0 0 218.93"/>
  <polyline class="cls-1" points="10.06 8.86 143.21 8.86 143.21 125.91 10.06 125.91 10.06 8.86"/>
  <polyline class="cls-1" points="10.08 135.35 143.22 135.35 143.22 210.67 10.08 210.67 10.08 135.35"/>
  <path class="cls-2" d="M128.01,91.86v-13.91h-1.18c-9.86-.92-22.36-10.25-27.43-18.38l-1.29-1.97-.09,1.55c-.55,14.03,10.85,27.16,24.06,30.85l2.95.95,2.97.91ZM128.01,64.33v-14l-.73-.27c-6.28-2.46-9.38-10.77-11.61-16.54l-.93-2.95-.55,2.39c-2.62,13.8,1.09,21.13,11.83,29.94l.97.73,1.02.69ZM128.01,70.62l-1.59.42-.82.16c-5.78,1.15-11.71-1.36-15.82-5.36l-1.06-1.26-1.02-1.31c-7.53-9.11-5.2-18.93-11.1-24.56l-.62-.56-1.3-1.02,1.57-.13c17.37.1,14.63,25.13,29.65,32.62l.69.38,1.44.62ZM128.01,118.74v-13.46l-1.95.49c-8.98,2.61-19.49.69-26.52-5.58l-1.42-1.46.64,2.46c3.39,13.37,10.96,17.51,24.22,17.6h2.53l2.51-.04ZM128.01,98.55l-2.75-.78c-14.89-2.2-19.13-23.17-36.14-13.91l-1.19.82,1.44.35c14.71,3.83,14.24,24.69,36.27,15.28l1.2-.86,1.18-.91ZM58.02,20.92s4.78.78,6.91,1.78c3.47,1.61,6.78,4.09,6.78,4.09,0,0,2.7,2.95,4.65,6.21,2.22,3.74,3.69,7.91,3.69,7.91,0,0,1.48,4.21,3.17,6.82,2.95,4.65,8.34,5.78,8.34,5.78l.35-.57s-4.56-1.43-6.86-6.69c-1.04-2.39-1.83-5.43-2.69-8.17-1.39-4.43-3.96-7.95-3.96-7.95,0,0-2.56-4.95-6.13-7.6-4.43-3.3-10.04-4.47-10.04-4.47,0,0-3.86-1.39-7.6-1.83-3.78-.48-7.43,0-7.43,0l-.61,7.08s3.56-1.57,7.47-2.26c2.57-.48,3.95-.13,3.95-.13ZM94.82,55.8s-6.87.31-12.04-5.95c-2.17-2.57-3.95-6.87-5.38-10.47-1.48-3.6-3.35-6.39-3.35-6.39,0,0-3.35-5.3-8.34-8.17-3.69-2.13-9.47-2.04-9.47-2.04,0,0-4.91-.09-9.43,2.39-4.17,2.3-7.99,7.25-7.99,7.25l-.91-.17-4.3,13.91h1.13s.09,2.26-1,4.21c-1.26,2.35-3.43,4.13-3.43,4.13,0,0-1.69.91-3,.91-1.56,0-1.65,1.7-1.65,1.7h69.56l-.39-1.31ZM25.26,62.5h70.3v-4.08H25.26v4.08ZM50.03,148.86v-3.17h3.45c.57,0,1.46.54,1.46,1.59,0,.89-.69,1.61-1.67,1.61l-3.24-.04ZM111.16,200.52c.13.89.39,1.39.93,1.89.58.56,1.63,1.08,3.47,1.08,2.04,0,3.35-.76,3.98-1.58.43-.57.67-1.09.67-2.5l-.02-8.84h-2.43l-.07,1.15c-.18-.3-.69-1.48-2.78-1.48-2.28,0-4.28,1.82-4.28,4.73s2,4.74,4.24,4.74c1.5,0,2.45-.69,2.8-1.41v1.02c0,1.59-.72,2.26-2.19,2.26-1.09,0-1.61-.56-1.7-1.15l-2.61.09ZM115.47,197.51c-1.24,0-2.28-.89-2.28-2.63,0-1.52,1.06-2.48,2.21-2.48s2.22.96,2.22,2.56-1.07,2.56-2.15,2.56ZM100.39,200h2.54l.02-5.28c0-.74.15-1.09.35-1.39.33-.48.93-.8,1.54-.8.87,0,1.52.57,1.52,1.63l-.02,5.84h2.54v-6.65c0-1.76-1.3-3.11-3.24-3.11-1.35,0-2.3.72-2.63,1.46l-.09-1.11-2.5-.02-.02,9.43ZM95.88,200h2.54v-9.43h-2.52l-.02,9.43ZM95.9,189.13h2.54v-2.26h-2.54v2.26ZM85.47,200h2.54l.02-5.28c0-.74.15-1.09.35-1.39.33-.48.93-.8,1.54-.8.87,0,1.52.57,1.52,1.63l-.02,5.84h2.54v-6.65c0-1.76-1.3-3.11-3.24-3.11-1.35,0-2.3.72-2.63,1.46l-.09-1.11-2.5-.02-.02,9.43ZM83.61,200v-1.95h-.95c-.32,0-.61-.17-.74-.35-.04-.07-.13-.22-.13-.74v-4.67h1.72v-1.72h-1.71l-.02-2.98h-2.52v2.98h-1.33v1.74l1.33-.02v4.88c0,2.13.87,2.84,2.28,2.84h2.06ZM67.78,196.84c.06,1.78,1.54,3.48,4.45,3.48s4.23-1.58,4.23-3.26c0-.59-.2-1.19-.57-1.65-.35-.45-.82-.78-1.93-1.04l-2.71-.63c-.58-.15-.82-.5-.82-.83,0-.37.35-.95,1.58-.95,1.35,0,1.95.7,1.97,1.46l2.22-.04c-.04-.95-.54-1.89-1.35-2.48-.54-.39-1.41-.72-2.8-.72-2.71,0-3.91,1.46-3.91,3.08,0,.76.22,1.3.65,1.78.33.35.76.65,1.8.87l2.06.46c1.19.26,1.34.63,1.34,1.08,0,.41-.41,1.06-1.8,1.06s-2-.7-2.08-1.69l-2.32.02ZM63.48,198.94l.13,1.06h2.39v-9.42l-2.52-.02v5.28c0,1.45-.85,2.19-1.87,2.19-.95,0-1.54-.5-1.54-1.83v-5.64h-2.54v6.49c0,1.24.37,1.91.95,2.45.54.5,1.33.82,2.35.82,1.15,0,2.08-.5,2.65-1.37ZM50.71,200h2.54l.02-4.19c0-1.41.33-2.06.76-2.5.46-.5,1.02-.74,1.72-.74.15,0,.28.02.43.04l.02-2.24c-.13-.02-.33-.06-.56-.06-1.09,0-2.06.7-2.35,1.69l-.07-1.43h-2.48l-.02,9.43ZM48.86,200v-1.95h-.95c-.32,0-.61-.17-.74-.35-.04-.07-.13-.22-.13-.74v-4.67h1.72v-1.72h-1.71l-.02-2.98h-2.52v2.98h-1.33v1.74l1.33-.02v4.88c0,2.13.87,2.84,2.28,2.84h2.06ZM38.99,198.94l.13,1.06h2.39v-9.42l-2.52-.02v5.28c0,1.45-.85,2.19-1.87,2.19-.95,0-1.54-.5-1.54-1.83v-5.64h-2.54v6.49c0,1.24.37,1.91.95,2.45.54.5,1.33.82,2.35.82,1.15,0,2.08-.5,2.65-1.37ZM119.98,172.11h7.58v-2.24h-7.56l-.02,2.24ZM109.43,174.41c.05,1.78,1.56,3.48,4.45,3.48s4.23-1.57,4.23-3.26c0-.59-.2-1.19-.57-1.65-.35-.45-.82-.78-1.93-1.04l-2.71-.63c-.58-.15-.8-.5-.8-.83,0-.37.33-.94,1.56-.94,1.35,0,1.95.7,1.97,1.46l2.24-.04c-.06-.95-.56-1.89-1.35-2.48-.56-.39-1.43-.72-2.82-.72-2.71,0-3.91,1.46-3.91,3.08,0,.76.22,1.3.65,1.78.35.35.76.65,1.82.87l2.04.46c1.19.26,1.34.63,1.34,1.08,0,.41-.39,1.06-1.8,1.06-1.34,0-2-.7-2.08-1.69l-2.32.02ZM98.63,178.08c.13.89.39,1.39.93,1.89.57.56,1.65,1.08,3.47,1.08,2.04,0,3.36-.76,3.98-1.58.43-.58.67-1.09.67-2.5l-.02-8.84h-2.41l-.09,1.15c-.19-.3-.69-1.48-2.78-1.48-2.28,0-4.28,1.82-4.28,4.73s2,4.74,4.24,4.74c1.5,0,2.45-.69,2.82-1.41l-.02,1.02c0,1.59-.72,2.26-2.19,2.26-1.09,0-1.61-.56-1.71-1.15l-2.61.09ZM102.95,175.08c-1.24,0-2.28-.89-2.28-2.63,0-1.52,1.06-2.48,2.22-2.48s2.21.96,2.21,2.56-1.07,2.56-2.15,2.56ZM87.86,177.56h2.54l.02-5.28c0-.74.15-1.09.35-1.39.33-.48.93-.8,1.54-.8.89,0,1.52.57,1.52,1.63l-.02,5.84h2.54v-6.66c0-1.76-1.3-3.11-3.24-3.11-1.35,0-2.3.72-2.63,1.46l-.09-1.11-2.5-.02-.02,9.44ZM83.35,177.56h2.54v-9.44h-2.52l-.02,9.44ZM83.37,166.7h2.54v-2.26h-2.54v2.26ZM72.95,177.56h2.54l.02-5.28c0-.74.15-1.09.35-1.39.33-.48.91-.8,1.52-.8.89,0,1.52.57,1.52,1.63l-.02,5.84h2.54v-6.66c0-1.76-1.3-3.11-3.24-3.11-1.35,0-2.28.72-2.61,1.46l-.09-1.11-2.5-.02-.02,9.44ZM62,177.56h2.54l-.02-3.1,1.08-1.06,2.6,4.15h3.1l-3.87-5.8,3.37-3.63h-2.98l-3.26,3.6-.02-7.29h-2.54l.02,13.12ZM57.79,174.14c-.13.74-.35,1.04-.72,1.32-.32.24-.7.39-1.22.39-1.15,0-2.19-.82-2.19-2.93,0-2.32,1.11-3.17,2.28-3.17.91,0,1.67.67,1.8,1.61l2.45-.13c-.2-1.96-1.72-3.48-4.32-3.48-1.85,0-3.15.72-4,1.98-.58.82-.91,1.83-.91,3.15,0,1.91.78,3.35,1.96,4.23.74.54,1.65.87,2.93.87.89,0,1.41-.13,1.87-.32,1.43-.52,2.3-1.59,2.48-3.41l-2.41-.11ZM46.61,176.49c.05.37.18.78.33,1.08h2.56c-.15-.13-.39-.56-.39-1.34l-.04-4.82c-.02-.83-.07-1.07-.13-1.28-.39-1.3-1.45-2.34-4-2.34-2.93,0-4.1,1.5-4.1,3.15l2.24.04c.09-.63.18-.76.39-.94.24-.22.72-.45,1.48-.45,1.19,0,1.63.63,1.63,1.07s-.28.76-.96.89l-2.56.45c-1.91.33-2.8,1.57-2.8,2.82,0,1.63,1.26,3.02,3.54,3.02,1.57,0,2.45-.63,2.8-1.35ZM46.61,172.54v1.41c-.06,1.19-.87,2-2.24,2-1.08,0-1.58-.63-1.58-1.19,0-.45.22-1.02,1.72-1.39l1.09-.3c.43-.09.76-.3,1-.54ZM45.09,167l2.56.02v-2.58h-2.54l-.02,2.56ZM41.79,167h2.54l.02-2.58h-2.54l-.02,2.58ZM36.21,177.56h2.54v-13.12h-2.52l-.02,13.12ZM25.67,174.41c.05,1.78,1.56,3.48,4.45,3.48s4.23-1.57,4.23-3.26c0-.59-.2-1.19-.58-1.65-.35-.45-.81-.78-1.93-1.04l-2.71-.63c-.58-.15-.8-.5-.8-.83,0-.37.33-.94,1.56-.94,1.35,0,1.95.7,1.96,1.46l2.24-.04c-.06-.95-.56-1.89-1.35-2.48-.56-.39-1.43-.72-2.82-.72-2.71,0-3.91,1.46-3.91,3.08,0,.76.22,1.3.65,1.78.35.35.76.65,1.82.87l2.04.46c1.19.26,1.33.63,1.33,1.08,0,.41-.39,1.06-1.8,1.06-1.34,0-2-.7-2.08-1.69l-2.32.02ZM98.37,151.27h7.56v-2.24h-7.56v2.24ZM93.77,155.76l.11.96h2.52l-.02-13.12h-2.54v4.76c-.46-.74-1.52-1.37-2.72-1.37-2.11,0-4.19,1.76-4.19,5.06,0,1.5.46,2.74,1.21,3.62.8.94,1.76,1.37,2.89,1.37s2.08-.45,2.74-1.28ZM91.77,154.85c-1.19,0-2.24-.85-2.24-2.85,0-2.24,1.09-3.04,2.15-3.04s2.13.8,2.13,2.97-1.09,2.91-2.04,2.93ZM76.7,156.72h2.54v-5.28c0-.74.15-1.09.37-1.39.33-.48.93-.8,1.54-.8.87,0,1.5.57,1.5,1.63v5.84h2.52v-6.65c0-1.76-1.3-3.11-3.24-3.11-1.35,0-2.3.72-2.61,1.46l-.11-1.11-2.48-.02-.02,9.44ZM71.99,155.64c.06.46.17.8.32,1.08h2.58c-.32-.39-.41-.67-.43-.98l.02-5.17c0-2.26-1.19-3.61-4.26-3.61-2.85,0-4.04,1.56-3.98,3.15l2.24.04c0-.7.52-1.37,1.82-1.37s1.67.61,1.67,1.06c0,.39-.24.74-.93.87l-1.45.24c-2.09.37-2.65.76-3.06,1.11-.56.5-.85,1.21-.85,1.96,0,1.56,1.22,2.97,3.6,2.97,1.39,0,2.19-.46,2.72-1.33ZM72.01,151.75l-.02,1.19c0,1.33-.83,2.17-2.28,2.17-1.06,0-1.56-.63-1.56-1.21,0-.45.15-.95,1.74-1.39l1.09-.3c.48-.13.82-.31,1.02-.46ZM59.78,156.72h2.54v-4.19c0-1.41.35-2.06.76-2.5.48-.5,1.02-.74,1.72-.74.15,0,.3.02.43.04l.02-2.24c-.13-.02-.33-.06-.54-.06-1.11,0-2.06.7-2.35,1.69l-.07-1.43h-2.5v9.44ZM47.3,156.72h6.73c1.24,0,1.84-.2,2.48-.67.95-.65,1.48-1.65,1.48-2.97,0-1.7-.98-2.97-2.59-3.39,1.33-.37,2.11-1.43,2.11-2.78,0-1.26-.54-2.21-1.5-2.8-.52-.33-1.04-.52-2.21-.52h-6.51v13.12ZM50.03,154.59v-3.74l3.21-.02c1.21,0,1.97.85,1.97,1.83,0,1.08-.83,1.93-1.95,1.93h-3.23Z"/>
</svg>