<svg xmlns="http://www.w3.org/2000/svg" viewBox="0 0 595.28 850.37"><defs><style>.a{fill:#ad1922;}.a,.b{fill-rule:evenodd;}.b{fill:#e5e8eb;}</style></defs><title>F005_C</title><polyline class="a" points="0 850.37 595.28 850.37 595.28 0 0 0 0 850.37"/><path class="b" d="M512.59,400V341.85h-4.92C466.45,338,414.13,299,392.95,265l-5.38-8.24-0.37,6.48c-2.32,58.69,45.36,113.58,100.66,129l12.32,4Zm0-115.13V226.38l-3.05-1.11c-26.31-10.35-39.2-45-48.58-69.19l-3.89-12.31-2.31,10c-11,57.69,4.56,88.4,49.49,125.22l4.08,3Zm0,26.3L505.91,313l-3.43.64c-24.16,4.84-49-5.69-66.17-22.4l-4.44-5.29-4.27-5.46c-31.52-38.2-21.73-79.21-46.44-102.72l-2.58-2.31-5.47-4.26,6.57-.56C452.34,171,440.87,275.74,503.7,307l2.88,1.57Zm0,201.26V456.15l-8.16,2c-37.58,10.95-81.5,2.87-110.94-23.34l-5.93-6.11L390.24,439c14.16,55.85,45.89,73.26,101.31,73.62h10.56Zm0-84.47-11.5-3.25c-62.3-9.21-80-96.92-151.16-58.17l-5,3.43,6,1.49c61.52,16,59.56,103.29,151.71,63.89l5-3.6ZM282.67,303c-10.58,0-16.71,13.37-18.38,18h-1.48v-19.5s-3.15-14.85-18.94-16.52c-11.13-1.12-16.9,9.28-19,14.11H221V282s-7.43-14.1-19.87-14.1c-5.56,0-19.48,4.26-19.3,13.73-4.08,2.59-6.87,1.48-7.8.74V196.58s1.48-16.34-19.13-16.34c-18.2,0-18.94,16.34-18.94,16.34V387.45H124.3l0.56-65.73s-1.69-28.23-30.27-25.07c-7.62.93-11.88,9.47-11.88,9.47V406.95s28.76,52.54,42.52,82.25a57.45,57.45,0,0,1,5.2,20.8v2.23H280.25V482.7a45.55,45.55,0,0,0,8-6.88c7.62-8.52,11.15-21.9,11.15-21.9V322.46S302.54,303,282.67,303ZM131.16,183.77H117.79V99.3h83.37v84.48H182.78v16.34h35.47V82.77H100.89V200.12h30.27V183.77ZM157.34,108a33.8,33.8,0,1,0,34.16,33.79A34,34,0,0,0,157.34,108ZM120.58,613.4V601.09H134a6.09,6.09,0,0,1,5.69,6.19,6.23,6.23,0,0,1-6.48,6.27ZM385.09,731H395V680h-9.79Zm-18.29-4.18A11.62,11.62,0,0,0,368,731H378a5.46,5.46,0,0,1-1.65-3.81V707.1c0-8.78-4.54-14-16.49-14-11.09,0-15.7,6-15.48,12.24l8.71,0.14c0-2.74,2-5.33,7.06-5.33,4.82,0,6.41,2.38,6.41,4.11,0,1.51-.94,2.88-3.53,3.38l-5.69.94c-8.06,1.44-10.22,3-11.81,4.32a10.2,10.2,0,0,0-3.38,7.63c0,6,4.75,11.52,14,11.52C361.55,732,364.72,730.21,366.8,726.83Zm0.07-15.12-0.07,4.61c0,5.18-3.24,8.42-8.86,8.42-4.1,0-6.12-2.45-6.12-4.68,0-1.73.57-3.67,6.84-5.4l4.25-1.15A12,12,0,0,0,366.88,711.71ZM302.65,731h9.87l0.07-20.52c0-2.88.57-4.25,1.37-5.4a7.39,7.39,0,0,1,6-3.1c3.46,0,5.9,2.23,5.9,6.34L325.77,731h9.86V705.16c0-6.84-5-12.1-12.6-12.1-5.26,0-8.93,2.8-10.22,5.69l-0.36-4.32-9.72-.07ZM260,733c0.5,3.46,1.51,5.4,3.6,7.34,2.23,2.16,6.41,4.18,13.46,4.18,7.92,0,13-3,15.48-6.12,1.66-2.23,2.59-4.25,2.59-9.72l-0.07-34.34h-9.36l-0.36,4.46c-0.72-1.15-2.66-5.76-10.8-5.76-8.86,0-16.63,7.05-16.63,18.36s7.78,18.43,16.49,18.43c5.83,0,9.5-2.66,10.95-5.47l-0.07,4c0,6.2-2.81,8.79-8.49,8.79-4.25,0-6.27-2.16-6.62-4.46Zm16.78-11.66c-4.82,0-8.86-3.45-8.86-10.22,0-5.9,4.11-9.65,8.64-9.65s8.57,3.74,8.57,9.94S281,721.36,276.81,721.36ZM241.17,731H251V694.36h-9.79Zm0.07-42.19h9.86V680h-9.86v8.79Zm-41,30c0.22,6.91,6,13.54,17.28,13.54s16.41-6.12,16.41-12.67a10.35,10.35,0,0,0-2.23-6.41c-1.37-1.73-3.17-3-7.49-4l-10.51-2.45c-2.23-.57-3.1-1.94-3.1-3.24s1.3-3.67,6.05-3.67c5.26,0,7.56,2.73,7.63,5.69l8.71-.14a13.24,13.24,0,0,0-5.26-9.65c-2.16-1.51-5.54-2.81-10.94-2.81-10.51,0-15.19,5.69-15.19,12a9.71,9.71,0,0,0,2.52,6.91c1.37,1.37,3,2.52,7.06,3.38l7.92,1.8c4.61,1,5.18,2.45,5.18,4.18s-1.51,4.1-7,4.1c-5.18,0-7.78-2.73-8.06-6.55Zm255.6-96h29.38V614H455.8v8.71Zm-61.34,21.16h9.87V622.76c0-5.26,2.95-7.92,6.91-7.92a4.88,4.88,0,0,1,4.89,3.1c0.22,0.36.5,1.15,0.5,4v22h9.72V622.18c0-4.75,3-7.49,6.84-7.49,3.31,0,5.54,2,5.54,6.34v22.89h9.72l-0.07-25.7c-0.14-7.71-5-12.1-11.74-12.1a12.22,12.22,0,0,0-11.23,6.4,11.87,11.87,0,0,0-10.8-6.4c-5,0-8.28,2.16-10.22,5.83l-0.29-4.61-9.57-.07Zm-26.64,0h9.86V627.65c0-5.47,1.37-8,3-9.72a8.72,8.72,0,0,1,6.7-2.88,12.1,12.1,0,0,1,1.65.14l0.07-8.71a14.76,14.76,0,0,0-2.09-.21,9.45,9.45,0,0,0-9.14,6.55l-0.29-5.55h-9.72v36.65Zm-18.36-4.18a11.47,11.47,0,0,0,1.22,4.18h10a6.21,6.21,0,0,1-1.65-3.81L359.11,620c0-8.78-4.61-14-16.56-14-11.09,0-15.7,6-15.48,12.24l8.71,0.14c0-2.74,2-5.33,7.05-5.33,4.82,0,6.48,2.38,6.48,4.11,0,1.51-.94,2.88-3.6,3.38l-5.62.94c-8.14,1.44-10.3,3-11.88,4.32a10.12,10.12,0,0,0-3.31,7.63c0,6,4.75,11.52,14,11.52C344.27,644.93,347.37,643.13,349.46,639.75Zm0.07-15.12-0.07,4.61c0,5.18-3.24,8.42-8.86,8.42-4.11,0-6-2.45-6-4.68,0-1.73.57-3.67,6.77-5.4l4.25-1.15A12.11,12.11,0,0,0,349.53,624.63Zm-41.18,19.29h9.86V593h-9.79Zm-17.79-3.74,0.43,3.74h9.72l-0.07-51h-9.79v18.5c-1.8-2.88-5.9-5.33-10.58-5.33-8.21,0-16.27,6.84-16.27,19.65a21.39,21.39,0,0,0,4.68,14,14,14,0,0,0,11.23,5.33A13.14,13.14,0,0,0,290.56,640.18Zm-7.78-3.53c-4.61,0-8.71-3.31-8.71-11.09,0-8.71,4.25-11.8,8.35-11.8s8.28,3.1,8.28,11.52C290.71,633.34,286.46,636.58,282.79,636.65Zm-58.53,7.27h9.87V623.4c0-2.88.57-4.25,1.44-5.4a7.4,7.4,0,0,1,6-3.1c3.38,0,5.83,2.23,5.83,6.33v22.68h9.79V618.08c0-6.84-5-12.1-12.6-12.1-5.26,0-8.93,2.81-10.15,5.69L234,607.35l-9.64-.07Zm-18.36-4.18a11.53,11.53,0,0,0,1.22,4.18h10a6.18,6.18,0,0,1-1.65-3.81L215.54,620c0-8.78-4.61-14-16.56-14-11.09,0-15.7,6-15.48,12.24l8.71,0.14c0-2.74,2-5.33,7.06-5.33,4.82,0,6.48,2.38,6.48,4.11,0,1.51-.94,2.88-3.6,3.38l-5.61.94c-8.14,1.44-10.3,3-11.88,4.32a10.14,10.14,0,0,0-3.31,7.63c0,6,4.75,11.52,14,11.52C200.71,644.93,203.81,643.13,205.89,639.75ZM206,624.63l-0.07,4.61c0,5.18-3.24,8.42-8.86,8.42-4.1,0-6-2.45-6-4.68,0-1.73.58-3.67,6.77-5.4l4.25-1.15A12.14,12.14,0,0,0,206,624.63Zm-47.52,19.29h9.86V627.65c0-5.47,1.37-8,3-9.72a8.72,8.72,0,0,1,6.7-2.88,12.21,12.21,0,0,1,1.66.14l0.07-8.71a14.76,14.76,0,0,0-2.09-.21,9.45,9.45,0,0,0-9.15,6.55l-0.29-5.55h-9.72v36.65Zm-48.45,0h26.14c4.82,0,7.13-.79,9.64-2.59a13.26,13.26,0,0,0,5.76-11.52,13,13,0,0,0-10.08-13.17,10.73,10.73,0,0,0,8.21-10.8A12,12,0,0,0,143.83,595c-2-1.3-4-2-8.57-2H110v51Zm10.58-8.28V621.1L133,621c4.68,0,7.63,3.31,7.63,7.13a7.41,7.41,0,0,1-7.56,7.49H120.58Z"/></svg>