<?xml version="1.0" encoding="UTF-8"?>
<svg id="Lager_1" data-name="Lager 1" xmlns="http://www.w3.org/2000/svg" viewBox="0 0 153.26 218.93">
  <defs>
    <style>
      .cls-1 {
        fill: #aa2825;
      }

      .cls-1, .cls-2 {
        fill-rule: evenodd;
      }

      .cls-2 {
        fill: #fff;
      }
    </style>
  </defs>
  <polyline class="cls-2" points="0 218.93 153.26 218.93 153.26 0 0 0 0 218.93"/>
  <polyline class="cls-1" points="10.08 8.86 143.22 8.86 143.22 125.91 10.08 125.91 10.08 8.86"/>
  <polyline class="cls-1" points="10.08 135.35 143.22 135.35 143.22 210.67 10.08 210.67 10.08 135.35"/>
  <path class="cls-2" d="M127.98,91.84v-13.9h-1.17c-9.85-.91-22.35-10.24-27.41-18.36l-1.28-1.97-.09,1.55c-.55,14.02,10.84,27.14,24.05,30.82l2.94.95,2.97.91ZM127.98,64.33v-13.98l-.73-.27c-6.28-2.47-9.36-10.75-11.6-16.53l-.93-2.94-.55,2.39c-2.63,13.78,1.09,21.12,11.82,29.91l.97.73,1.02.69ZM127.98,70.62l-1.6.42-.82.15c-5.77,1.16-11.7-1.36-15.81-5.35l-1.06-1.26-1.02-1.3c-7.53-9.12-5.19-18.92-11.09-24.54l-.62-.55-1.31-1.02,1.57-.13c17.36.09,14.62,25.11,29.63,32.59l.69.38,1.44.62ZM127.98,118.7v-13.45l-1.95.49c-8.98,2.62-19.47.68-26.5-5.58l-1.42-1.46.64,2.46c3.38,13.34,10.96,17.5,24.2,17.59h2.53l2.5-.04ZM127.98,98.52l-2.75-.77c-14.88-2.2-19.11-23.15-36.11-13.9l-1.2.82,1.44.36c14.7,3.83,14.23,24.67,36.24,15.26l1.2-.86,1.17-.91ZM73.06,68.65c-2.53,0-3.99,3.19-4.39,4.3h-.35v-4.66s-.75-3.55-4.52-3.95c-2.66-.27-4.04,2.22-4.53,3.37h-.93v-4.08s-1.77-3.37-4.75-3.37c-1.33,0-4.66,1.02-4.61,3.28-.97.62-1.64.35-1.86.18v-20.49s.35-3.9-4.57-3.9c-4.35,0-4.52,3.9-4.52,3.9v45.6h-2.79l.13-15.7s-.4-6.74-7.23-5.99c-1.82.22-2.84,2.26-2.84,2.26v24.09s6.87,12.55,10.16,19.65c1.2,2.62,1.24,4.92,1.24,4.97v.53h35.79v-7.05c.67-.44,1.33-1.02,1.91-1.64,1.82-2.04,2.66-5.23,2.66-5.23v-31.4s.75-4.66-3.99-4.66ZM36.87,40.18h-3.19v-20.18h19.91v20.18h-4.39v3.9h8.47v-28.03h-28.03v28.03h7.23v-3.9ZM43.12,22.08c-4.52,0-8.16,3.64-8.16,8.07s3.64,8.07,8.16,8.07,8.16-3.64,8.16-8.07-3.64-8.07-8.16-8.07ZM31.04,148.86v-3.17h3.45c.58,0,1.47.54,1.47,1.59,0,.89-.69,1.61-1.67,1.61l-3.24-.04ZM99.14,177.56h2.54v-13.12h-2.52l-.02,13.12ZM94.44,176.49c.06.46.15.8.3,1.08h2.59c-.33-.39-.43-.67-.43-.98v-5.17c0-2.26-1.17-3.61-4.24-3.61-2.86,0-4.04,1.56-3.98,3.15l2.24.04c0-.7.52-1.37,1.82-1.37s1.65.61,1.65,1.06c0,.39-.24.74-.91.87l-1.46.24c-2.08.37-2.63.76-3.04,1.11-.56.5-.87,1.2-.87,1.96,0,1.56,1.22,2.97,3.61,2.97,1.37,0,2.19-.46,2.72-1.33ZM94.45,172.6l-.02,1.19c0,1.33-.83,2.17-2.28,2.17-1.06,0-1.57-.63-1.57-1.21,0-.44.15-.94,1.76-1.39l1.09-.3c.48-.13.82-.32,1.02-.46ZM77.92,177.56h2.54l.02-5.28c0-.74.15-1.09.35-1.39.33-.48.93-.8,1.54-.8.89,0,1.52.57,1.52,1.63l-.02,5.84h2.54v-6.66c0-1.76-1.3-3.11-3.24-3.11-1.35,0-2.3.72-2.63,1.46l-.09-1.11-2.5-.02-.02,9.44ZM66.95,178.08c.13.89.39,1.39.93,1.89.57.56,1.65,1.08,3.47,1.08,2.04,0,3.35-.76,3.98-1.58.43-.58.67-1.09.67-2.5l-.02-8.84h-2.41l-.09,1.15c-.19-.3-.69-1.48-2.78-1.48-2.28,0-4.28,1.82-4.28,4.73s2,4.74,4.24,4.74c1.5,0,2.45-.69,2.82-1.41l-.02,1.02c0,1.59-.72,2.26-2.19,2.26-1.09,0-1.61-.56-1.71-1.15l-2.61.09ZM71.27,175.08c-1.24,0-2.28-.89-2.28-2.63,0-1.52,1.06-2.48,2.22-2.48s2.21.96,2.21,2.56-1.08,2.56-2.15,2.56ZM62.09,177.56h2.54v-9.44h-2.52l-.02,9.44ZM62.11,166.7h2.54v-2.26h-2.54v2.26ZM51.54,174.41c.06,1.78,1.56,3.48,4.45,3.48s4.23-1.57,4.23-3.26c0-.59-.2-1.19-.57-1.65-.35-.45-.82-.78-1.93-1.04l-2.71-.63c-.57-.15-.8-.5-.8-.83,0-.37.33-.94,1.56-.94,1.35,0,1.95.7,1.96,1.46l2.24-.04c-.05-.95-.56-1.89-1.35-2.48-.56-.39-1.43-.72-2.82-.72-2.71,0-3.91,1.46-3.91,3.08,0,.76.22,1.3.65,1.78.35.35.76.65,1.82.87l2.04.46c1.19.26,1.33.63,1.33,1.08,0,.41-.39,1.06-1.8,1.06-1.33,0-2-.7-2.08-1.69l-2.32.02ZM117.35,151.27h7.56v-2.24h-7.56v2.24ZM101.56,156.72h2.54v-5.45c0-1.35.76-2.04,1.78-2.04.67,0,1.07.33,1.26.8.06.09.13.3.13,1.04v5.65h2.5v-5.6c0-1.22.76-1.93,1.76-1.93.85,0,1.43.52,1.43,1.63v5.89h2.5l-.02-6.62c-.04-1.98-1.3-3.11-3.02-3.11-1.3,0-2.34.61-2.89,1.65-.48-.98-1.54-1.65-2.78-1.65s-2.13.56-2.63,1.5l-.07-1.19-2.47-.02-.02,9.44ZM94.7,156.72h2.54v-4.19c0-1.41.35-2.06.76-2.5.48-.5,1.02-.74,1.72-.74.15,0,.3.02.43.04l.02-2.24c-.13-.02-.33-.06-.54-.06-1.11,0-2.06.7-2.35,1.69l-.07-1.43h-2.5v9.44ZM89.97,155.64c.06.46.17.8.32,1.08h2.58c-.32-.39-.41-.67-.43-.98l.02-5.17c0-2.26-1.19-3.61-4.26-3.61-2.85,0-4.04,1.56-3.98,3.15l2.24.04c0-.7.52-1.37,1.82-1.37s1.67.61,1.67,1.06c0,.39-.24.74-.93.87l-1.45.24c-2.1.37-2.65.76-3.06,1.11-.56.5-.85,1.21-.85,1.96,0,1.56,1.22,2.97,3.6,2.97,1.39,0,2.19-.46,2.72-1.33ZM89.99,151.75l-.02,1.19c0,1.33-.83,2.17-2.28,2.17-1.06,0-1.56-.63-1.56-1.21,0-.45.15-.95,1.74-1.39l1.09-.3c.48-.13.82-.31,1.02-.46ZM79.39,156.72h2.54v-13.12h-2.52l-.02,13.12ZM74.81,155.76l.11.96h2.5l-.02-13.12h-2.52v4.76c-.46-.74-1.52-1.37-2.72-1.37-2.11,0-4.19,1.76-4.19,5.06,0,1.5.46,2.74,1.21,3.62.8.94,1.76,1.37,2.89,1.37s2.08-.45,2.74-1.28ZM72.81,154.85c-1.19,0-2.24-.85-2.24-2.85,0-2.24,1.09-3.04,2.15-3.04s2.13.8,2.13,2.97-1.09,2.91-2.04,2.93ZM57.74,156.72h2.54v-5.28c0-.74.15-1.09.37-1.39.33-.48.93-.8,1.54-.8.87,0,1.5.57,1.5,1.63v5.84h2.52v-6.65c0-1.76-1.3-3.11-3.24-3.11-1.35,0-2.3.72-2.61,1.46l-.11-1.11-2.48-.02-.02,9.44ZM53.01,155.64c.06.46.17.8.32,1.08h2.58c-.32-.39-.41-.67-.43-.98l.02-5.17c0-2.26-1.19-3.61-4.26-3.61-2.85,0-4.04,1.56-3.98,3.15l2.24.04c0-.7.52-1.37,1.82-1.37s1.67.61,1.67,1.06c0,.39-.24.74-.93.87l-1.45.24c-2.1.37-2.65.76-3.06,1.11-.56.5-.85,1.21-.85,1.96,0,1.56,1.22,2.97,3.6,2.97,1.39,0,2.19-.46,2.72-1.33ZM53.03,151.75l-.02,1.19c0,1.33-.83,2.17-2.28,2.17-1.06,0-1.56-.63-1.56-1.21,0-.45.15-.95,1.74-1.39l1.09-.3c.48-.13.82-.31,1.02-.46ZM40.79,156.72h2.54v-4.19c0-1.41.35-2.06.76-2.5.48-.5,1.02-.74,1.72-.74.15,0,.3.02.43.04l.02-2.24c-.13-.02-.33-.06-.54-.06-1.11,0-2.06.7-2.35,1.69l-.07-1.43h-2.5v9.44ZM28.32,156.72h6.73c1.24,0,1.84-.2,2.48-.67.95-.65,1.48-1.65,1.48-2.97,0-1.7-.98-2.97-2.6-3.39,1.34-.37,2.11-1.43,2.11-2.78,0-1.26-.54-2.21-1.5-2.8-.52-.33-1.04-.52-2.21-.52h-6.51v13.12ZM31.04,154.59v-3.74l3.21-.02c1.2,0,1.96.85,1.96,1.83,0,1.08-.83,1.93-1.95,1.93h-3.23Z"/>
</svg>