<?xml version="1.0" encoding="UTF-8"?>
<svg id="Lager_1" data-name="Lager 1" xmlns="http://www.w3.org/2000/svg" viewBox="0 0 153.26 218.93">
  <defs>
    <style>
      .cls-1 {
        fill: #aa2825;
      }

      .cls-1, .cls-2 {
        fill-rule: evenodd;
      }

      .cls-2 {
        fill: #fff;
      }
    </style>
  </defs>
  <polyline class="cls-2" points="0 218.93 153.26 218.93 153.26 0 0 0 0 218.93"/>
  <polyline class="cls-1" points="10.06 8.87 143.2 8.87 143.2 125.92 10.06 125.92 10.06 8.87"/>
  <polyline class="cls-1" points="10.07 135.36 143.21 135.36 143.21 210.68 10.07 210.68 10.07 135.36"/>
  <path class="cls-2" d="M28.89,156.72h2.63v-8.84l5.39,8.84h2.78v-13.1h-2.67v8.88l-5.49-8.9h-2.65v13.12ZM86.42,105.29s-5.35-6.2-10.3-11.77c-4.15-4.68-7.71-9.09-7.71-9.09,0,0-2.18.04-3.75.93-1.43.85-2.27,2.54-2.27,2.54l20.06,22.42s2.31-1.16,3.43-2.54c.89-1.11.54-2.5.54-2.5ZM51.52,45.29c1.47-.53,2.58-2.23,2.58-2.23,0,0-1.56-7.13-3.17-14.04-1.38-6.06-2.85-12.03-2.85-12.03,0,0-.89-1.02-2.01-1.11-1.83-.18-4.28.54-4.28.54l6.02,28.88s2.01.58,3.7,0ZM54.37,94.9s-1.42-1.29-2.27-3.08c-2.01-4.14-4.86-13.41-8.03-22.15-4.01-11.1-6.86-22.15-6.86-22.15,0,0,1.42-2.14,3.43-1.65,2.27.54,5.17.8,5.17.8l-6.02-29.42s-5.93-.09-10.3,1.96c-4.46,2.1-7.45,5.62-7.45,5.62,0,0-1.16,8.96-.58,21.04.67,13.69,5.17,27.72,5.17,27.72,0,0,4.81,14.98,12.57,26.08,8.83,12.62,19.17,19.35,19.17,19.35,0,0,7.27-.94,12.88-2.81,5.39-1.78,9.18-4.46,9.18-4.46l-20.06-22.46-6.02,5.62ZM124.5,91.98v-13.97h-1.18c-9.9-.92-22.46-10.3-27.56-18.46l-1.29-1.98-.09,1.56c-.55,14.1,10.89,27.27,24.17,30.98l2.96.96,2.98.91ZM124.5,64.33v-14.06l-.74-.27c-6.31-2.48-9.41-10.81-11.66-16.62l-.94-2.96-.56,2.4c-2.64,13.86,1.09,21.22,11.88,30.07l.98.73,1.03.69ZM124.5,70.64l-1.6.42-.83.15c-5.8,1.16-11.76-1.37-15.89-5.38l-1.07-1.27-1.02-1.31c-7.57-9.17-5.22-19.01-11.15-24.67l-.62-.56-1.31-1.02,1.58-.13c17.45.09,14.69,25.25,29.78,32.77l.69.38,1.45.62ZM124.5,118.98v-13.52l-1.96.49c-9.02,2.63-19.57.69-26.64-5.6l-1.42-1.47.64,2.47c3.4,13.41,11.02,17.59,24.33,17.68h2.54l2.52-.04ZM124.5,98.69l-2.76-.78c-14.96-2.21-19.22-23.28-36.3-13.97l-1.2.82,1.45.36c14.78,3.87,14.29,24.8,36.43,15.35l1.2-.87,1.18-.91ZM115.89,156.72h2.54l.02-5.28c0-.74.15-1.09.35-1.39.33-.48.93-.8,1.54-.8.87,0,1.5.57,1.5,1.63v5.84h2.54v-6.65c0-1.76-1.3-3.11-3.24-3.11-1.35,0-2.32.72-2.63,1.46l-.11-1.11-2.48-.02-.02,9.43ZM109.14,157.07c2.87,0,4.97-2.02,4.97-5.1s-2.08-5.04-5-5.04-4.93,2.04-4.93,5.02,2.09,5.12,4.97,5.12ZM109.12,155.09c-1.2,0-2.35-.93-2.35-3.02,0-2.26,1.13-3.15,2.37-3.15s2.37.91,2.37,3.06-1.15,3.11-2.39,3.11ZM98.57,156.72h2.54v-7.75h1.84v-1.69h-1.84v-.18c0-.85.15-1.09.32-1.26.2-.22.48-.39,1.11-.37h.41v-1.87h-1.45c-.85,0-3.17.15-2.93,3.69h-1.37v1.69h1.37v7.75ZM88.99,152.7l7.01.02c0-2.8-1.28-5.76-4.78-5.76s-4.74,2.87-4.74,5.02c0,3.13,2.08,5.08,4.71,5.08s4.26-1.43,4.63-3.08l-2.54-.17c-.48.87-1.15,1.22-1.96,1.22-1.2,0-2.19-.82-2.32-2.34ZM89.08,150.86c.17-1.15,1.11-1.93,2.08-1.93,1.04,0,1.93.7,2.1,1.93h-4.17ZM82.15,156.72h2.54v-13.12h-2.52l-.02,13.12ZM73.38,152.7l6.99.02c0-2.8-1.28-5.76-4.76-5.76s-4.74,2.87-4.74,5.02c0,3.13,2.08,5.08,4.71,5.08s4.24-1.43,4.62-3.08l-2.54-.17c-.48.87-1.13,1.22-1.95,1.22-1.2,0-2.19-.82-2.32-2.34ZM73.47,150.86c.17-1.15,1.11-1.93,2.08-1.93,1.04,0,1.91.7,2.08,1.93h-4.15ZM69.54,156.72v-1.95h-.95c-.3,0-.59-.17-.72-.35-.06-.07-.13-.22-.13-.74v-4.67h1.72v-1.72h-1.7l-.02-2.98h-2.52v2.98h-1.33v1.74l1.33-.02v4.88c0,2.13.87,2.84,2.28,2.84h2.04ZM59.7,155.76l.09.96h2.52v-13.12h-2.56v4.76c-.46-.74-1.52-1.37-2.72-1.37-2.11,0-4.19,1.76-4.19,5.06,0,1.5.48,2.74,1.22,3.61.78.95,1.76,1.37,2.87,1.37s2.08-.45,2.76-1.28ZM57.68,154.85c-1.19,0-2.22-.85-2.22-2.86,0-2.24,1.09-3.04,2.13-3.04s2.13.8,2.13,2.97-1.09,2.91-2.04,2.93ZM46.17,157.09c3.04,0,5.08-2.04,5.08-5.12s-2.08-5.06-5.01-5.06-4.97,2.04-4.97,5.06,2.11,5.12,4.89,5.12ZM46.32,155.11c-1.32,0-2.45-.94-2.45-3.13s1.13-3.08,2.43-3.08c1.22,0,2.35.85,2.35,3.15s-1.21,3.06-2.34,3.06ZM46.67,146.15h2.54v-2.56l-2.54-.02v2.58ZM43.35,146.15h2.54v-2.56l-2.54-.02v2.58Z"/>
</svg>