<svg xmlns="http://www.w3.org/2000/svg" viewBox="0 0 595.28 850.36"><defs><style>.a{fill:#ad1922;}.a,.b{fill-rule:evenodd;}.b{fill:#e5e8eb;}</style></defs><title>F006_C</title><polyline class="a" points="0 850.36 595.28 850.36 595.28 0 0 0 0 850.36"/><path class="b" d="M353.91,455.27s-22.29-25.8-42.89-49c-17.26-19.49-32.1-37.85-32.1-37.85s-9.1.18-15.6,3.89c-5.94,3.53-9.46,10.59-9.46,10.59l83.54,93.35s9.64-4.82,14.27-10.58C355.38,461,353.91,455.27,353.91,455.27ZM208.57,205.43c6.12-2.22,10.76-9.29,10.76-9.29s-6.49-29.69-13.18-58.47c-5.75-25.24-11.88-50.11-11.88-50.11s-3.72-4.26-8.35-4.64c-7.61-.75-17.81,2.23-17.81,2.23l25.06,120.28S201.52,207.85,208.57,205.43ZM220.45,412A46.21,46.21,0,0,1,211,399.21C202.64,382,190.76,343.35,177.57,307,160.88,260.75,149,214.73,149,214.73s5.93-8.92,14.29-6.87a188.29,188.29,0,0,0,21.53,3.34L159.76,88.68s-24.68-.36-42.87,8.18c-18.57,8.74-31,23.39-31,23.39s-4.82,37.3-2.42,87.6C86.26,264.84,105,323.3,105,323.3s20,62.36,52.33,108.58c36.77,52.53,79.82,80.56,79.82,80.56s30.26-3.91,53.64-11.7A159.65,159.65,0,0,0,329,482.17l-83.52-93.54Zm292-12.17V341.67h-4.91c-41.23-3.81-93.53-42.88-114.74-76.86l-5.38-8.25-0.37,6.49c-2.31,58.69,45.36,113.56,100.66,129L500,396Zm0-115.13V226.19l-3.06-1.11c-26.29-10.34-39.21-45-48.56-69.18l-3.9-12.33-2.32,10c-11,57.71,4.56,88.37,49.48,125.22l4.08,3.05Zm0,26.3-6.67,1.76-3.43.64c-24.16,4.84-49-5.69-66.18-22.42l-4.45-5.28-4.26-5.46c-31.52-38.19-21.74-79.17-46.43-102.7l-2.59-2.33L373,171l6.57-.55c72.68,0.38,61.18,105.12,124,136.43l2.88,1.57Zm0,201.26V456l-8.16,2c-37.58,11-81.5,2.87-110.93-23.33l-5.93-6.11,2.68,10.29c14.15,55.85,45.88,73.25,101.3,73.62H502Zm0-84.48L501,424.56c-62.27-9.2-80-96.93-151.16-58.16l-5,3.41,6,1.49c61.56,16.1,59.5,103.26,151.71,63.91l5-3.62ZM112.23,643.92h10.22V609.58l21,34.34h10.8V593H143.83v34.48l-21.31-34.56h-10.3v51Zm337.88,0H460L460,623.4c0-2.88.58-4.25,1.37-5.4a7.4,7.4,0,0,1,6-3.1c3.38,0,5.83,2.23,5.83,6.33v22.68h9.87V618.08c0-6.84-5-12.1-12.6-12.1-5.25,0-9,2.81-10.22,5.69l-0.44-4.32-9.64-.07Zm-26.21,1.37c11.16,0,19.29-7.85,19.29-19.8,0-11.59-8.06-19.58-19.44-19.58-11,0-19.15,7.92-19.15,19.51C404.61,637.52,412.75,645.29,423.9,645.29Zm-0.07-7.7c-4.68,0-9.14-3.6-9.14-11.74,0-8.78,4.39-12.24,9.22-12.24s9.21,3.53,9.21,11.88C433.12,634.06,428.65,637.59,423.83,637.59Zm-41,6.33h9.86V613.83h7.13v-6.55h-7.13v-0.72c0-3.31.58-4.25,1.23-4.89,0.79-.87,1.87-1.51,4.32-1.44h1.58v-7.27h-5.62c-3.31,0-12.31.57-11.38,14.33h-5.33v6.55h5.33v30.09ZM345.64,628.3l27.21,0.07c0-10.87-5-22.39-18.57-22.39-14.11,0-18.43,11.16-18.43,19.51,0,12.17,8.06,19.73,18.29,19.73s16.56-5.54,18-12l-9.86-.64c-1.87,3.38-4.47,4.75-7.63,4.75C350,637.37,346.14,634.2,345.64,628.3Zm0.36-7.13a8.5,8.5,0,0,1,8.06-7.49c4,0,7.49,2.74,8.14,7.49H346Zm-26.92,22.75h9.86v-51h-9.79ZM285,628.3l27.14,0.07c0-10.87-5-22.39-18.5-22.39-14.11,0-18.43,11.16-18.43,19.51,0,12.17,8.06,19.73,18.29,19.73s16.49-5.54,17.93-12l-9.87-.64c-1.87,3.38-4.39,4.75-7.56,4.75C289.34,637.37,285.53,634.2,285,628.3Zm0.36-7.13a8.5,8.5,0,0,1,8.06-7.49c4,0,7.41,2.74,8.06,7.49H285.38Zm-15.26,22.75v-7.56h-3.67a3.65,3.65,0,0,1-2.81-1.37c-0.22-.29-0.5-0.86-0.5-2.88V614h6.7v-6.7h-6.62l-0.07-11.59h-9.79v11.59h-5.19V614l5.19-.07v18.94c0,8.28,3.38,11,8.86,11h7.92Zm-38.23-3.74,0.36,3.74H242v-51H232.1v18.5c-1.8-2.88-5.9-5.33-10.58-5.33-8.21,0-16.27,6.84-16.27,19.66a21.41,21.41,0,0,0,4.75,14,13.88,13.88,0,0,0,11.16,5.33A13.29,13.29,0,0,0,231.89,640.18ZM224,636.65c-4.61,0-8.64-3.31-8.64-11.09,0-8.71,4.25-11.81,8.28-11.81s8.28,3.1,8.28,11.52C232,633.34,227.71,636.58,224,636.65Zm-44.71,8.71c11.81,0,19.73-7.92,19.73-19.87,0-11.73-8.06-19.65-19.44-19.65-11.09,0-19.3,7.92-19.3,19.65C160.32,637.44,168.53,645.36,179.33,645.36Zm0.57-7.7c-5.11,0-9.5-3.67-9.5-12.17,0-8.21,4.39-12,9.43-12,4.75,0,9.14,3.31,9.14,12.24C189,634.42,184.3,637.66,179.9,637.66Zm1.37-34.77h9.87v-9.94l-9.87-.07v10Zm-12.89,0h9.87v-9.94l-9.87-.07v10Z"/></svg>