<svg xmlns="http://www.w3.org/2000/svg" viewBox="0 0 992.94 113.82"><defs><style>.a,.d{fill:#fff;}.a{stroke:#000;stroke-miterlimit:10;stroke-width:0.5px;}.a,.c,.d,.e,.f{fill-rule:evenodd;}.b,.c{fill:#564a7f;}.e{fill:#ac322d;}.f{fill:#000b0d;}</style></defs><title>FG007_C</title><polygon class="a" points="80.62 113.57 0.43 55.84 80.62 0.26 912.32 0.25 992.51 57.98 912.32 113.56 80.62 113.57"/><rect class="b" x="88.92" y="8.12" width="815.52" height="97.53"/><polygon class="c" points="911.33 8.12 980.35 56.88 911.33 105.65 911.33 8.12"/><polygon class="c" points="81.58 8.12 12.56 56.88 81.58 105.65 81.58 8.12"/><path class="d" d="M421.33,67.42h9.07V36.89l18.72,30.53h9.51V22.13h-9.22V52.8l-19-30.67h-9.07Zm65.16-17.14v4.11c0,4.61-2.88,7.49-7.92,7.49-3.53,0-5.4-2.16-5.4-4.11,0-1.65.58-3.24,6.12-4.89l3.74-1A8.53,8.53,0,0,0,486.49,50.28Zm0,13.47a8.13,8.13,0,0,0,1.08,3.67h8.86a5.26,5.26,0,0,1-1.37-3.31V46.25c0-7.85-4-12.6-14.76-12.6-9.79,0-13.9,5.47-13.68,11l7.7.14c0-2.45,1.87-4.75,6.34-4.75,4.25,0,5.61,2.09,5.61,3.67,0,1.3-.79,2.59-3.09,2.88l-5,.94c-7.13,1.29-9.15,2.66-10.51,3.81a8.94,8.94,0,0,0-3,6.77c0,5.47,4.25,10.3,12.39,10.3C481.81,68.36,484.69,66.7,486.49,63.75Zm33.7,3.67v-6.7H516.8a3.26,3.26,0,0,1-2.52-1.22,5.24,5.24,0,0,1-.36-2.59V40.85h5.91V34.8h-5.91l-.07-10.22h-8.64V34.8H500.6v6.05h4.61V57.63c0,7.34,3,9.79,7.78,9.79Zm6.4,0h8.79V53c0-4.82,1.22-7.13,2.59-8.64a8,8,0,0,1,6-2.66c.43,0,.86.14,1.44.14v-7.7a6.47,6.47,0,0,0-1.8-.15,8.63,8.63,0,0,0-8.21,5.76l-.22-5h-8.64ZM550.21,30H559V22.13h-8.78Zm0,37.44H559V34.8h-8.78Zm35.93-3.67.43,3.67h8.35V35l-8.78-.15V53.16c0,4.9-2.88,7.49-6.41,7.49-3.24,0-5.33-1.73-5.33-6.33V34.8h-8.78V57.27c0,4.25,1.29,6.55,3.24,8.42a11.59,11.59,0,0,0,8.06,2.74C581,68.43,584.19,66.84,586.14,63.75Zm15.55,3.67h8.78V48.63c0-4.68,2.52-7,6-7a4.41,4.41,0,0,1,4.39,2.74c.15.22.36.94.36,3.6V67.42h8.64V48.05c0-4.1,2.67-6.55,6.12-6.55,3,0,4.9,1.73,4.9,5.54V67.42h8.64V44.6c-.22-6.77-4.61-10.8-10.44-10.8a11,11,0,0,0-10,5.76,10.7,10.7,0,0,0-9.57-5.62c-4.47,0-7.35,1.8-9,5.18L610.19,35l-8.5-.15Zm53.64-10.8c.14,6.05,5.33,11.95,15.34,11.95s14.61-5.4,14.61-11.3a9.06,9.06,0,0,0-1.94-5.62c-1.23-1.51-2.88-2.81-6.7-3.6l-9.43-2.16c-1.94-.5-2.74-1.73-2.74-2.88S665.7,39.7,670,39.7c4.61,0,6.62,2.52,6.62,5.11l7.78-.21a11.3,11.3,0,0,0-4.61-8.5c-2-1.37-5-2.52-9.72-2.52-9.43,0-13.61,5-13.61,10.66a8.94,8.94,0,0,0,2.31,6.12c1.15,1.15,2.59,2.23,6.26,3L672,55c4.18.94,4.61,2.24,4.61,3.68s-1.37,3.74-6,3.74-7.05-2.59-7.27-5.9Zm56.81,7.13.43,3.67h8.35V35l-8.78-.15V53.16c0,4.9-2.88,7.49-6.48,7.49-3.17,0-5.26-1.73-5.26-6.33V34.8h-8.78V57.27c0,4.25,1.29,6.55,3.24,8.42a11.59,11.59,0,0,0,8.06,2.74C707,68.43,710.19,66.84,712.14,63.75Zm15.55,3.67h8.78V22.13h-8.78Zm18.86,0h8.79V40.71h6.33V34.8h-6.33v-.57c0-2.95.57-3.75,1-4.32.79-.87,1.72-1.3,4-1.3h1.36V22.13h-5c-3,0-11,.51-10.16,12.67h-4.68v5.91h4.68ZM767.87,30h8.78V22.13h-8.78Zm0,37.44h8.78V34.8h-8.78Zm33.76,0v-6.7h-3.38a3.38,3.38,0,0,1-2.52-1.22,7.43,7.43,0,0,1-.29-2.59V40.85h5.83V34.8h-5.83l-.14-10.22h-8.64V34.8h-4.61v6.05h4.61V57.63c0,7.34,3,9.79,7.85,9.79Z"/><path class="d" d="M578.73,96.36h4V88.19h8.42V85H582.7V80.38h9.88V77.14H578.73ZM597,89.29l2.63-8.3,2.5,8.3Zm-6.28,7.07h4l1.28-4h7l1.22,4h4.09l-6.59-19.22h-4.27Zm22.94-10.67V80.38h4.45a2.45,2.45,0,0,1,1.77.43,2.71,2.71,0,0,1,1.22,2.25c0,1.47-1.16,2.69-3.17,2.69Zm-3.9,10.67h3.9l.06-7.56h3.48a3.3,3.3,0,0,1,2.93,1.58,4.2,4.2,0,0,1,.36,1.22c.37,1.59,0,3.3.74,4.76h4a5.25,5.25,0,0,1-.61-2l-.3-3.36a3.58,3.58,0,0,0-1-2.56,4.15,4.15,0,0,0-2.56-1.16A4.58,4.58,0,0,0,625,82.51c0-3-2.38-5.55-6.47-5.37h-8.72ZM633,89.29l2.62-8.3,2.51,8.3Zm-6.28,7.07h4l1.29-4h7l1.22,4h4.09l-6.59-19.22h-4.27Z"/><polygon class="e" points="188.54 56.93 230.72 99.13 273.02 56.83 230.83 14.64 188.54 56.93"/><polygon class="d" points="266.3 56.83 230.72 92.41 195.24 56.83 230.83 21.36 266.3 56.83"/><path class="f" d="M223.87,65.71l-.48,0,1.09.49h0l.29.25.06-.09h0l2.25,1H227l-.95.39c-2.8,1.18-4.61,2-5.4,2.36a2.15,2.15,0,0,0-.91-.16,18.61,18.61,0,0,0-3.7.58c-.82.2-1.57.39-2.24.58a.24.24,0,0,0-.14.1.27.27,0,0,0-.06.17.27.27,0,0,0,.28.28l34.62.17h0a.26.26,0,0,0,.2-.08.28.28,0,0,0,.08-.2V69.66a.32.32,0,0,0-.08-.2.3.3,0,0,0-.2-.08h-2.18l1-1.31a.27.27,0,0,0,.06-.17.26.26,0,0,0-.08-.19.23.23,0,0,0-.18-.09l-4-.36,2.82-1.41a.35.35,0,0,0,.11-.1.28.28,0,0,0,0-.15.31.31,0,0,0,0-.13.28.28,0,0,0-.09-.1l-2.38-1.68a12.42,12.42,0,0,0,3.74-4.11l0-.06h1.82V56.84h-.84a6.17,6.17,0,0,0,.08-.94h0V54.75l-3.13,1,.31-.59.53-1.09-1.2-.12a7.13,7.13,0,0,0-.79,0,9.88,9.88,0,0,0-6.65,3H227v-2l3.27-3.71a3.55,3.55,0,0,1,2.21-.71l3.35-5.29s-2.11,2.46-3,3.26a5.13,5.13,0,0,1-3.18.62c-1,.27-3,2.74-3,2.74s.44-1.15,1.14-2.65a4.36,4.36,0,0,0,.28-3.27c-.18-1.06,3.79-6,3.79-6v-.53L227.77,44l-.7-5.21h-.44s.26,4.76.35,5.73.09,2.48.09,2.48l-2.47,3.62s-1.68-6.27-2.12-7.42.17-4.86.17-4.86l-.53.18-.79,2.56-2.47-3.79-.36.26s.8,1.5,1.77,3.27.89,4.59.89,4.59l-5-3v.71l4.59,3.61c1,.8,1.33,3.44,1.33,3.44s-3.54-1.67-4.07-1.85-3.17,2.12-3.17,2.12a7.31,7.31,0,0,1,.88-.27,2.24,2.24,0,0,1,1.85.18l5,2.74-.1,3.78h-9.2v2.68h9.13c0,1-.06,2.22-.1,3.6l-4.06,2.29L223,65Zm1.42-.09.67-1,5.29-.8-4.32-2.12V59.51H235c-.59.76-1.2,1.62-1.82,2.56l-.32.49a5.92,5.92,0,0,1-1.79,1.62,16.28,16.28,0,0,1-2,1l-.11,0a8.75,8.75,0,0,1-2.13.3Zm4,.25a9.46,9.46,0,0,0,4.33-3c1.15-1.68,5.39-8.92,11.21-8.3-.35.71-1.32,2.39-1.32,2.39l4.06-1.24s.09,5.47-7.68,8.92c-3.71,1.32-4.41,1.32-4.77,1.77s-1.76,2.73-1.76,2.73l-6.45-2.91A12.7,12.7,0,0,0,229.32,65.87Zm14.49-7a.68.68,0,0,1,.7-.62.63.63,0,1,1,0,1.24A.68.68,0,0,1,243.81,58.89Z"/><path class="e" d="M116.66,35.79,95.52,56.93l21.14,21,21,21.16L158.84,78,180,56.83l-21.16-21c-11.52-11.64-21-21.15-21-21.15S128.19,24.15,116.66,35.79Z"/><path class="d" d="M155.48,39.15l17.8,17.68-17.8,17.79L137.7,92.52,120,74.62,102.22,56.83,120,39.15c9.74-9.85,17.69-17.79,17.79-17.79S145.76,29.3,155.48,39.15Z"/><path class="f" d="M140.5,40h-.23a2.4,2.4,0,0,0-1.34.45,1.6,1.6,0,0,0-.67.56,1.9,1.9,0,0,0,.34,2.57,3.21,3.21,0,0,0,.66.56,5.53,5.53,0,0,0,1.57.34c.45.1,2.23.33,3.8.67s4,.67,5.27.89c1.67.23,2.34.34,2.45.34s.34.23.45.34l.12.1a.46.46,0,0,0-.12.23,1,1,0,0,0-.33.78v.9a1.15,1.15,0,0,0,.67.9h0a1.82,1.82,0,0,1-.12.66,7.06,7.06,0,0,0-.33,1.24c-.34.78-.34.78-.22,1.12a1.34,1.34,0,0,0,.55,1.23,1.07,1.07,0,0,0,.79,0,1.76,1.76,0,0,0,.55-1.46,2.86,2.86,0,0,0-.21-1.12c0-.23-.12-.56-.12-.67-.22-.44-.33-1-.22-1.11l.22-.12a2.55,2.55,0,0,1,.33-.55v-.68a1.6,1.6,0,0,0-.21-1,.92.92,0,0,1-.23-.67v-.78c0-.22.33-2.46.56-3.91a2,2,0,0,0,.11-.57h0c-.11,0-.23.11-.44.34a1.84,1.84,0,0,1-.79.56H153a5,5,0,0,1-.9-.12c-3.34-.67-10.06-1.9-10.84-2Zm-5.94.34H134c-.55.11-6.71,1.23-10.18,1.79a2.61,2.61,0,0,1-1,.22c-.11,0-.33-.11-.44-.11a2.41,2.41,0,0,1-.68-.57,1.69,1.69,0,0,0-.22-.33.36.36,0,0,0-.22-.11,5.56,5.56,0,0,1,.1,1.12c.34,1.68.67,3.47.67,3.69v1a6,6,0,0,1-.33.78c-.22.56-.34.68-.34,1a.94.94,0,0,0,.12.55c.11.33.22.56.45.67h0v.22a3.38,3.38,0,0,1-.34,1.46,3.78,3.78,0,0,1-.23.78,2.83,2.83,0,0,0-.21,1.12v.45c.11.56.33.9.67,1h.44c.23,0,.34-.11.56-.34a2.51,2.51,0,0,0,.34-1.12c0-.11-.11-.22-.22-.78-.23-1-.34-1.46-.45-1.91a4.07,4.07,0,0,0-.11-.67c0-.1,0-.1.11-.1a.81.81,0,0,0,.77-.67,1.08,1.08,0,0,0,.13-.67,3.57,3.57,0,0,0-.34-1.35.86.86,0,0,1-.11-.45c0-.1.22-.33.45-.44a12.74,12.74,0,0,0,2-.34c.9-.12,2.57-.45,3.8-.67,2.69-.45,3.92-.68,5-.79.45-.1.89-.23,1-.23a2.57,2.57,0,0,0,1.46-1,1.6,1.6,0,0,0,.33-1.68,2.48,2.48,0,0,0-2.46-1.56Zm6.15.55h.79c1.12.23,5.15.91,10,1.8,1.12.22,1.9.34,1.9.34l-.22,1.45s-1.12-.11-2.58-.23c-5.48-.44-8.5-.67-9.73-.78a3.25,3.25,0,0,0-.9-.11c-.67-.23-1.12-.56-1.12-1.23s.56-1,1.23-1.24Zm-6.15.34c.12,0,.45.11.56.11a2.27,2.27,0,0,1,1,.56c0,.23.11.34.11.57-.11.78-.68,1.23-1.79,1.23-.9.11-6.72.67-11.2,1a1.57,1.57,0,0,1-.55.1l-.22-1.45s.56-.11,5.82-1c4.14-.78,5.82-1,5.93-1s.22,0,.22-.11Zm24.84,5.26-.1.12A2.73,2.73,0,0,0,159,47a2.15,2.15,0,0,0-.68,1v.9c.12.33.12.44,0,.55s0,.12-.11.23c-.45,0-.67.33-.9.66a1.36,1.36,0,0,0-.1.67.89.89,0,0,1-.11.57,1.46,1.46,0,0,1-.57.56h-.1c0,.11.21.89.21.89a.57.57,0,0,0,.34-.11,2,2,0,0,0,1-1.12,1.16,1.16,0,0,0,.12-.68v-.33h.11c0-.11,0-.22.11-.22l.12-.11a1.26,1.26,0,0,0,.77-.56c0-.22.13-.33.13-.56a1.7,1.7,0,0,0-.13-.67c0-.45,0-.57.46-1,.11-.11.33-.33.33-.45l.12-.11Zm-3.24.67v.23a1,1,0,0,0,.23.78c.1.34.1.45,0,.56s0,.22-.23.33a1.32,1.32,0,0,0-.56.79.89.89,0,0,0,0,.78,1,1,0,0,1-.12.56c-.1.34-.1.45-.45.68l-.21.22.56.67s.44-.34.55-.45a1.88,1.88,0,0,0,.46-.78,2.18,2.18,0,0,0,.1-.79v-.67c0-.11,0-.22.23-.34a.81.81,0,0,0,.45-.44,1.76,1.76,0,0,0,.22-.67,1.24,1.24,0,0,0-.22-.79.4.4,0,0,1-.11-.33v-.11l-.23-.11h-.44A.38.38,0,0,0,156.16,47.2Zm-8.84.23a1.35,1.35,0,0,0-.33.22c-.23.22-.34.34-.34.34l.22.22a2.29,2.29,0,0,0,.22.34,2.32,2.32,0,0,1,.34.78v.23a.8.8,0,0,0-.11.33,1.22,1.22,0,0,0,.34.89,1,1,0,0,0,.55.56c.23,0,.23.11.23.23s.11.11.11.22a.69.69,0,0,0,.11.78,2,2,0,0,0,1,1.12.34.34,0,0,0,.23.12l.21-.9H150a4.83,4.83,0,0,1-.57-.67v-.33a2.3,2.3,0,0,0-.11-.8c-.11-.11-.11-.21-.33-.33l-.34-.33c-.22,0-.34-.12-.34-.22s-.11-.23,0-.46V49.1a3.3,3.3,0,0,0-.55-1.11C147.66,47.87,147.32,47.43,147.32,47.43Zm2.79.44h-.33c0,.12-.22.12-.34.12h-.34v.1c.12.12,0,.23-.1.57a1.53,1.53,0,0,0-.12.67,1.31,1.31,0,0,0,.34.9c.11,0,.22.1.34.22a.38.38,0,0,1,.22.11.39.39,0,0,1,.12.34v.21a1.17,1.17,0,0,0,0,.9,4.36,4.36,0,0,0,.78,1l.11.22.33-.33.34-.34-.22-.22c-.23-.22-.34-.34-.34-.44a.72.72,0,0,1-.11-.46v-.11c0-.23.11-.34,0-.56a1.14,1.14,0,0,0-.23-.67c-.11-.11-.22-.34-.45-.44s-.21-.11-.21-.23-.12-.11-.12-.22a1.16,1.16,0,0,0,.12-.33,1.75,1.75,0,0,0,.11-.68Zm-23,2.91a1.47,1.47,0,0,0-.23.33,1.8,1.8,0,0,0-.45.34,2.07,2.07,0,0,0-.44,1v1.12c0,.23,0,.34-.33.44-.68.34-.79.46-.9,1.24v.56a1.39,1.39,0,0,0-.23.33v-.1a1,1,0,0,0,0-.79c-.1-.22-.1-.34,0-.45s.11-.22.34-.33.45-.46.45-.67.11-.23.11-.46a2.4,2.4,0,0,0-.11-.66,1.43,1.43,0,0,1-.12-.56V52l-.9-.22V52a3.74,3.74,0,0,0,.13,1,.44.44,0,0,1,.1.33v.12a2.86,2.86,0,0,1-.23.22c-.33.33-.55.45-.67.79a.4.4,0,0,1-.11.33,1,1,0,0,0,.11.56v.45a1.77,1.77,0,0,1-.21.44c0,.12-.23.23-.34.34l-.11.12c.11,0,.55.66.55.66a.11.11,0,0,0,.11-.11.9.9,0,0,0,.46-.44h.11v.44h.1a.85.85,0,0,0,.46-.22,1.73,1.73,0,0,0,.77-.79c.13-.21.13-.33.13-.78a1.88,1.88,0,0,0,.1-.44c0-.12.11-.12.23-.12a1.58,1.58,0,0,0,.78-.67,2.82,2.82,0,0,0,.11-1v-.67c.11-.22.45-.66.67-1h.12l-.23-.46A.75.75,0,0,1,127.07,50.78Zm-10.18.33a1.76,1.76,0,0,0-.34.23c-.45.34-.45.34-.33.34l.21.23a2.75,2.75,0,0,1,.57.89c.1.11.1.11.1.22v.33a.63.63,0,0,0-.1.34,1.27,1.27,0,0,0,.33.9c.11.22.22.22.56.45a1,1,0,0,1,.34.22v.45c0,.34,0,.44.1.55a2.1,2.1,0,0,0,.68.79,2.07,2.07,0,0,1,.56.45h.11v-.12h0l.11.12a4.58,4.58,0,0,1,.45.56l.33-.34.34-.34h0a3.3,3.3,0,0,1-.67-.89v-.44a1.23,1.23,0,0,0,0-.9c0-.34-.23-.56-.56-.79s-.34-.11-.34-.22h-.1l.1-.12v-.33a2.44,2.44,0,0,0,.23-.89v-.23h-.9v.23c-.11.22-.11.34-.22.55a1.6,1.6,0,0,0-.12.67v.23l-.1-.11C118,54,118,54,118,53.92s-.11-.11,0-.34a3.55,3.55,0,0,0-.11-1.12c-.11-.22-.34-.55-.56-.89-.1-.12-.23-.23-.33-.34Zm33.22,3.14H150a2.52,2.52,0,0,1-1.46.34c-.68,0-.78,0-1,.11a1.14,1.14,0,0,0-.45.56.4.4,0,0,0,.11.33c0,.12.12.34.12.46h-1.68a1.39,1.39,0,0,0-1.23.78c0,.1-.11.33-.11.44v.34H144c-.22,0-.33,0-.44.11a1.39,1.39,0,0,0-1,.78c-.12.12-.12.23-.12.46a1.3,1.3,0,0,0,.79,1.22,1.55,1.55,0,0,0,.78.12h.22v.56a1.54,1.54,0,0,0,.68.78,2.68,2.68,0,0,0,1,.22h0V62a1.26,1.26,0,0,0,.34.9,2.44,2.44,0,0,0,1.34.55c.46,0,2.13.12,3.92.12h1.9a10.25,10.25,0,0,0,2.9-.33,6.09,6.09,0,0,0,1.24-.46l.67-.33a6.68,6.68,0,0,1,1.57-.22h.34v-.9h-.34a7.18,7.18,0,0,0-1.68.23,6.54,6.54,0,0,0-1,.44,8.41,8.41,0,0,1-1.24.45,22.74,22.74,0,0,1-3,.22,38.07,38.07,0,0,1-4.93-.11c-.55,0-.78-.11-.88-.22a.39.39,0,0,1-.23-.11c0-.12.11-.23.33-.23s.11-.11,2.35-.11h1.9l-.44-.45-.45-.44H148.1c-2.57,0-2.46,0-2.68-.11s-.46-.23-.34-.35.22-.11.45-.21h4.14v-.9h-5.93c-.22-.11-.45-.33-.45-.44s.11-.23.23-.34,0-.12,3.24-.12h2.91v-.89h-4c-.22,0-.45-.11-.45-.23s0-.11.11-.22.12-.11.34-.11a20.49,20.49,0,0,1,2.91-.12h2.79v.23c.12,1.23.9,2.13,2.58,2.46a4.66,4.66,0,0,0,.9.23l.11-.89a.38.38,0,0,0-.23-.12,3.37,3.37,0,0,1-2-.78,1.8,1.8,0,0,1-.34-.45v-.45l-.11-.23h.11c.12,0,2.81-.55,2.81-.55s-.34-.12-.8-.23a3.06,3.06,0,0,1-.78-.1h0v-.12h.12a1.2,1.2,0,0,1,.55-.22c.11-.12.11-.12.23-.12l.11-.11.23.11,1.34.79c.67.34.78.45.9.45a19.09,19.09,0,0,0,2.79.22h.23v-.9h-.45a9.35,9.35,0,0,1-2.24-.22c-.12,0-.12,0-.79-.34a7.81,7.81,0,0,0-2-1l-.23-.11-.11.11c-.22.11-.33.22-.55.33a3.32,3.32,0,0,1-1.23.23,3.11,3.11,0,0,1-1-.11,3.45,3.45,0,0,1-1.23-.68A.11.11,0,0,1,150.11,54.25Zm-31,.9a.11.11,0,0,1,.11.11c.1.11.1.11.1.22v.57l-.1-.12c-.11,0-.11-.11-.11-.22a1,1,0,0,0,0-.56Zm30.77.11a.38.38,0,0,0,.21.11,3.42,3.42,0,0,0,1.57.68H149a1.14,1.14,0,0,1-.79-.46c-.11-.11-.11-.11,0-.11h.34a2.9,2.9,0,0,0,1.12-.11A.43.43,0,0,0,149.9,55.26Zm-39.83,2.35V62h23.48V57.61h-8.5l-.11.11a3.81,3.81,0,0,1-2.35,1.12h-1.12c-.22-.11-.56-.11-.67-.22a1.32,1.32,0,0,1-.67-.33,1.46,1.46,0,0,1-.56-.57l-.11-.11h-9.39Z"/></svg>