<svg xmlns="http://www.w3.org/2000/svg" viewBox="0 0 992.94 113.82"><defs><style>.a,.d{fill:#fff;}.a{stroke:#000;stroke-miterlimit:10;stroke-width:0.5px;}.a,.c,.d,.e,.f{fill-rule:evenodd;}.b,.c{fill:#564a7f;}.e{fill:#ac322d;}.f{fill:#000b0d;}</style></defs><title>FG009_C</title><polygon class="a" points="80.62 113.57 0.43 55.84 80.62 0.26 912.32 0.25 992.51 57.98 912.32 113.56 80.62 113.57"/><rect class="b" x="88.92" y="8.27" width="815.52" height="97.53"/><polygon class="c" points="911.33 8.26 980.35 57.03 911.33 105.8 911.33 8.26"/><polygon class="c" points="81.58 8.26 12.56 57.03 81.58 105.8 81.58 8.26"/><path class="d" d="M488.79,53.45c0,8.28,6.2,15.7,19.37,15.7s19.08-7.06,19.08-14.62c0-5.76-3.53-10.94-11.37-13L505.14,39c-3.24-.94-3.53-1.3-4.25-1.94a4.46,4.46,0,0,1-1.15-3c0-2.66,2.16-5.76,8.64-5.76,3.24,0,5.61,1,6.91,2.45a7,7,0,0,1,2.16,4.82l9,.08c-.36-4.9-2.09-7.92-4.61-10.23S514.5,20.91,508,20.91c-12.1,0-17.64,6.62-17.64,14.11,0,5.76,3.24,10.51,11.16,12.46l9.36,2.3c1.58.43,4,.72,5.47,2.66a4.71,4.71,0,0,1,1.15,3c0,3-2.16,6.33-9.5,6.33S497.79,58,498,53.45Zm65.16-3v4.1c0,4.61-2.88,7.49-7.92,7.49-3.67,0-5.4-2.16-5.4-4.1,0-1.66.58-3.24,6.12-4.9l3.75-1A8.48,8.48,0,0,0,554,50.5ZM554,64A8.4,8.4,0,0,0,555,67.64h8.86a5.29,5.29,0,0,1-1.37-3.32V46.47c0-7.85-4-12.6-14.76-12.6-9.79,0-14,5.47-13.68,10.94l7.71.15c0-2.45,1.8-4.76,6.33-4.76,4.25,0,5.62,2.09,5.62,3.68,0,1.29-.79,2.59-3.1,2.88l-5,.93c-7.2,1.3-9.14,2.67-10.51,3.82a9,9,0,0,0-3,6.77c0,5.47,4.25,10.29,12.38,10.29C549.27,68.57,552.15,66.92,554,64Zm16.42,3.68h8.71V22.35h-8.71Zm33.7,0v-6.7h-3.32a3.2,3.2,0,0,1-2.52-1.22,5.26,5.26,0,0,1-.36-2.6v-16h5.84V35h-5.84l-.14-10.22h-8.64V35h-4.61v6h4.61V57.84c0,7.35,3,9.8,7.85,9.8Zm5.76-10.8c.14,6,5.18,12,15.19,12s14.61-5.4,14.61-11.31a8.65,8.65,0,0,0-2-5.61c-1.15-1.51-2.81-2.81-6.55-3.6l-9.51-2.16c-1.94-.51-2.73-1.73-2.73-2.88s1.29-3.31,5.54-3.31c4.61,0,6.7,2.52,6.7,5.11l7.7-.22a11.25,11.25,0,0,0-4.61-8.49c-1.94-1.37-5-2.52-9.72-2.52-9.43,0-13.46,5-13.46,10.65a8.57,8.57,0,0,0,2.23,6.12c1.15,1.15,2.52,2.23,6.19,3l7.06,1.58c4.1.94,4.61,2.23,4.61,3.67S629.63,62.6,625,62.6s-7.06-2.6-7.28-5.91ZM648,71.31v6.84h6.4c7.64,0,9.44-6.05,10.16-8L676.86,35h-9.22l-6.55,20.16L654.32,35h-9.5L654.9,62.6a11.57,11.57,0,0,1,.86,4.46c0,2.52-1.37,4.39-5.25,4.25Zm33.69-3.67h8.79V53.24c0-4.83,1.22-7.13,2.66-8.64a7.75,7.75,0,0,1,6-2.67c.43,0,.93.15,1.51.15V34.37a7.53,7.53,0,0,0-1.87-.14A8.63,8.63,0,0,0,690.54,40l-.22-5h-8.64ZM724,50.5v4.1c0,4.61-2.88,7.49-7.92,7.49-3.68,0-5.4-2.16-5.4-4.1,0-1.66.57-3.24,6.12-4.9l3.74-1A8.54,8.54,0,0,0,724,50.5ZM724,64A8.14,8.14,0,0,0,725,67.64h8.85a5.29,5.29,0,0,1-1.37-3.32V46.47c0-7.85-4-12.6-14.76-12.6-9.79,0-14,5.47-13.68,10.94l7.71.15c0-2.45,1.8-4.76,6.33-4.76,4.25,0,5.62,2.09,5.62,3.68,0,1.29-.79,2.59-3.1,2.88l-5,.93c-7.2,1.3-9.14,2.67-10.51,3.82a9,9,0,0,0-3,6.77c0,5.47,4.32,10.29,12.45,10.29C719.27,68.57,722.15,66.92,724,64Z"/><path class="d" d="M578.73,96.44h4V88.26h8.42V85.09H582.7V80.45h9.88V77.22H578.73ZM597,89.36l2.63-8.3,2.5,8.3Zm-6.28,7.08h4l1.28-4h7l1.22,4h4.09l-6.59-19.22h-4.27Zm22.94-10.68V80.45h4.45a2.45,2.45,0,0,1,1.77.43,2.72,2.72,0,0,1,1.22,2.26c0,1.46-1.16,2.68-3.17,2.68Zm-3.9,10.68h3.9l.06-7.57h3.48a3.29,3.29,0,0,1,2.93,1.59,4,4,0,0,1,.36,1.22c.37,1.58,0,3.29.74,4.76h4a5.31,5.31,0,0,1-.61-2l-.3-3.35a3.59,3.59,0,0,0-1-2.57,4.14,4.14,0,0,0-2.56-1.15A4.59,4.59,0,0,0,625,82.59c0-3-2.38-5.56-6.47-5.37h-8.72ZM633,89.36l2.62-8.3,2.51,8.3Zm-6.28,7.08h4l1.29-4h7l1.22,4h4.09l-6.59-19.22h-4.27Z"/><path class="e" d="M116.66,36,95.52,57.15l21.14,21,21,21.15,21.14-21.15L180,57,158.84,36c-11.52-11.64-21-21.15-21-21.15S128.19,24.37,116.66,36Z"/><path class="d" d="M155.48,39.36,173.28,57l-17.8,17.79L137.7,92.73,120,74.83,102.22,57,120,39.36c9.74-9.85,17.69-17.79,17.79-17.79S145.76,29.51,155.48,39.36Z"/><path class="f" d="M140.5,40.26h-.23a2.33,2.33,0,0,0-1.34.45,1.58,1.58,0,0,0-.67.55,1.91,1.91,0,0,0,.34,2.58,3.55,3.55,0,0,0,.66.56,5.67,5.67,0,0,0,1.57.33c.45.11,2.23.34,3.8.68s4,.67,5.27.89c1.67.23,2.34.34,2.45.34s.34.22.45.33l.12.11a.42.42,0,0,0-.12.23,1,1,0,0,0-.33.78V49a1.12,1.12,0,0,0,.67.9h0a1.83,1.83,0,0,1-.12.67,6.58,6.58,0,0,0-.33,1.24c-.34.78-.34.78-.22,1.11a1.32,1.32,0,0,0,.55,1.23,1,1,0,0,0,.79,0,1.75,1.75,0,0,0,.55-1.45,2.83,2.83,0,0,0-.21-1.12c0-.23-.12-.56-.12-.68-.22-.44-.33-1-.22-1.1l.22-.13a3.17,3.17,0,0,1,.33-.55v-.68a1.57,1.57,0,0,0-.21-1,.94.94,0,0,1-.23-.68V46c0-.22.33-2.46.56-3.91a2,2,0,0,0,.11-.56h0c-.11,0-.23.11-.44.33a1.79,1.79,0,0,1-.79.57H153a5,5,0,0,1-.9-.12c-3.34-.67-10.06-1.9-10.84-2Zm-5.94.33H134c-.55.12-6.71,1.23-10.18,1.8a2.72,2.72,0,0,1-1,.21c-.11,0-.33-.11-.44-.11a2.17,2.17,0,0,1-.68-.56,1.69,1.69,0,0,0-.22-.33.36.36,0,0,0-.22-.11,5.52,5.52,0,0,1,.1,1.11c.34,1.69.67,3.48.67,3.7v1a6.68,6.68,0,0,1-.33.78c-.22.56-.34.68-.34,1a.91.91,0,0,0,.12.55c.11.34.22.57.45.68h0v.22a3.38,3.38,0,0,1-.34,1.46,4,4,0,0,1-.23.78,2.82,2.82,0,0,0-.21,1.11v.46c.11.56.33.89.67,1h.44c.23,0,.34-.11.56-.33a2.56,2.56,0,0,0,.34-1.13,8.08,8.08,0,0,1-.22-.78c-.23-1-.34-1.46-.45-1.9a4.07,4.07,0,0,0-.11-.67c0-.11,0-.11.11-.11a.8.8,0,0,0,.77-.66,1.1,1.1,0,0,0,.13-.68,3.66,3.66,0,0,0-.34-1.35.81.81,0,0,1-.11-.44c0-.11.22-.34.45-.45a13.1,13.1,0,0,0,2-.33c.9-.12,2.57-.45,3.8-.67,2.69-.45,3.92-.68,5-.79.45-.11.89-.23,1-.23a2.62,2.62,0,0,0,1.46-1,1.61,1.61,0,0,0,.33-1.68,2.26,2.26,0,0,0-1.56-1.45A2.07,2.07,0,0,0,134.56,40.59Zm6.15.56h.79c1.12.23,5.15.9,10,1.8,1.12.22,1.9.33,1.9.33l-.22,1.45-2.58-.23c-5.48-.44-8.5-.66-9.73-.78a3.56,3.56,0,0,0-.9-.1c-.67-.23-1.12-.56-1.12-1.23s.56-1,1.23-1.24Zm-6.15.34c.12,0,.45.11.56.11a2.27,2.27,0,0,1,1,.56c0,.23.11.33.11.56-.11.78-.68,1.23-1.79,1.23-.9.11-6.72.68-11.2,1a1.44,1.44,0,0,1-.55.11l-.22-1.45s.56-.12,5.82-1c4.14-.78,5.82-1,5.93-1s.22,0,.22-.11Zm24.84,5.25-.1.12a3.64,3.64,0,0,0-.34.34,2.2,2.2,0,0,0-.68,1v.9c.12.34.12.45,0,.55s0,.13-.11.23c-.45,0-.67.34-.9.67a1.34,1.34,0,0,0-.1.67.89.89,0,0,1-.11.57,1.37,1.37,0,0,1-.57.55h-.1c0,.12.21.9.21.9a.53.53,0,0,0,.34-.12,1.94,1.94,0,0,0,1-1.11,1.17,1.17,0,0,0,.12-.68V51h.11c0-.12,0-.22.11-.22l.12-.12a1.22,1.22,0,0,0,.77-.56c0-.22.13-.32.13-.55a1.77,1.77,0,0,0-.13-.68c0-.45,0-.56.46-1,.11-.12.33-.33.33-.45l.12-.11Zm-3.24.68v.22a1,1,0,0,0,.23.78c.1.35.1.45,0,.56s0,.23-.23.34a1.33,1.33,0,0,0-.56.78.89.89,0,0,0,0,.78,1,1,0,0,1-.12.57c-.1.34-.1.44-.45.67l-.21.22.56.68s.44-.34.55-.45a2,2,0,0,0,.46-.78,2.18,2.18,0,0,0,.1-.79v-.67c0-.11,0-.23.23-.34a.84.84,0,0,0,.45-.44,1.81,1.81,0,0,0,.22-.68,1.23,1.23,0,0,0-.22-.78.41.41,0,0,1-.11-.34v-.11l-.23-.1h-.44A.38.38,0,0,0,156.16,47.42Zm-8.84.22a1.21,1.21,0,0,0-.33.23l-.34.33.22.22a2.14,2.14,0,0,0,.22.35,2.24,2.24,0,0,1,.34.78v.23a.79.79,0,0,0-.11.32,1.25,1.25,0,0,0,.34.9,1,1,0,0,0,.55.56c.23,0,.23.1.23.23s.11.1.11.22a.69.69,0,0,0,.11.78,1.93,1.93,0,0,0,1,1.11.34.34,0,0,0,.23.12l.21-.9H150a4.07,4.07,0,0,1-.57-.66v-.34a2.22,2.22,0,0,0-.11-.79c-.11-.11-.11-.22-.33-.33l-.34-.34c-.22,0-.34-.11-.34-.22s-.11-.22,0-.45v-.67a3.26,3.26,0,0,0-.55-1.12C147.66,48.09,147.32,47.64,147.32,47.64Zm2.79.45h-.33c0,.11-.22.11-.34.11h-.34v.11c.12.11,0,.23-.1.56a1.59,1.59,0,0,0-.12.68,1.28,1.28,0,0,0,.34.89c.11,0,.22.11.34.22a.43.43,0,0,1,.34.45v.22a1.17,1.17,0,0,0,0,.9,4.36,4.36,0,0,0,.78,1l.11.22.33-.34.34-.33-.22-.22c-.23-.23-.34-.34-.34-.45a.69.69,0,0,1-.11-.46v-.1c0-.23.11-.34,0-.56a1.12,1.12,0,0,0-.23-.67c-.11-.11-.22-.34-.45-.45s-.21-.1-.21-.23-.12-.1-.12-.21a1.14,1.14,0,0,0,.12-.34,1.7,1.7,0,0,0,.11-.68Zm-23,2.91a1.21,1.21,0,0,0-.23.33,1.6,1.6,0,0,0-.89,1.35V53.8c0,.22,0,.33-.33.44-.68.34-.79.46-.9,1.24V56a1.37,1.37,0,0,0-.23.34v-.11a1,1,0,0,0,0-.78c-.1-.23-.1-.34,0-.45s.11-.23.34-.33.45-.46.45-.68.11-.22.11-.45a2.45,2.45,0,0,0-.11-.67,1.37,1.37,0,0,1-.12-.56v-.11l-.9-.22v.22a3.74,3.74,0,0,0,.13,1,.43.43,0,0,1,.1.33v.12a2,2,0,0,1-.23.21c-.33.34-.55.46-.67.8a.41.41,0,0,1-.11.33,1,1,0,0,0,.11.56V56a1.79,1.79,0,0,1-.21.45c0,.12-.23.23-.34.33l-.11.13c.11,0,.55.66.55.66a.11.11,0,0,0,.11-.11.92.92,0,0,0,.46-.45h.11v.45h.1a.81.81,0,0,0,.46-.23,1.71,1.71,0,0,0,.77-.78,1.26,1.26,0,0,0,.13-.78,2,2,0,0,0,.1-.45c0-.11.11-.11.23-.11a1.58,1.58,0,0,0,.78-.67,2.87,2.87,0,0,0,.11-1v-.67c.11-.22.45-.67.67-1h.12l-.23-.46A.75.75,0,0,1,127.07,51Zm-10.18.33a1.76,1.76,0,0,0-.34.23c-.45.33-.45.33-.33.33s.1.12.21.23a2.86,2.86,0,0,1,.57.9c.1.1.1.1.1.22v.33a.6.6,0,0,0-.1.33,1.24,1.24,0,0,0,.33.9c.11.23.22.23.56.45a.87.87,0,0,1,.34.23v.45c0,.33,0,.44.1.55a2.08,2.08,0,0,0,.68.78,2.29,2.29,0,0,1,.56.46h.11V57.6h0l.11.12a4.86,4.86,0,0,1,.45.55l.33-.33.34-.34h0a3.46,3.46,0,0,1-.67-.89v-.45a1.23,1.23,0,0,0,0-.9c0-.33-.23-.56-.56-.78s-.34-.11-.34-.22h-.1l.1-.12V53.9a2.4,2.4,0,0,0,.23-.88v-.23h-.9V53c-.11.22-.11.33-.22.55a1.55,1.55,0,0,0-.12.67v.23l-.1-.11c-.23-.12-.23-.12-.23-.23s-.11-.11,0-.33a3.52,3.52,0,0,0-.11-1.12c-.11-.22-.34-.56-.56-.89-.1-.13-.23-.23-.33-.34Zm33.22,3.14H150a2.53,2.53,0,0,1-1.46.33c-.68,0-.78,0-1,.12a1.1,1.1,0,0,0-.45.56.4.4,0,0,0,.11.33c0,.12.12.33.12.45h-1.68a1.43,1.43,0,0,0-1.23.78c0,.11-.11.34-.11.45v.34H144c-.22,0-.33,0-.44.11a1.34,1.34,0,0,0-1,.78c-.12.12-.12.23-.12.45a1.3,1.3,0,0,0,.79,1.23,1.67,1.67,0,0,0,.78.11h.22v.57a1.58,1.58,0,0,0,.68.78,2.89,2.89,0,0,0,1,.22h0v.11a1.28,1.28,0,0,0,.34.9,2.51,2.51,0,0,0,1.34.55c.46,0,2.13.12,3.92.12h1.9a9.84,9.84,0,0,0,2.9-.34A6.53,6.53,0,0,0,157.5,63l.67-.33a6.18,6.18,0,0,1,1.57-.23h.34v-.89h-.34a7.77,7.77,0,0,0-1.68.22,6.71,6.71,0,0,0-1,.45,11.6,11.6,0,0,1-1.24.45,22.74,22.74,0,0,1-3,.22,38.07,38.07,0,0,1-4.93-.11c-.55,0-.78-.11-.88-.23a.39.39,0,0,1-.23-.11c0-.11.11-.22.33-.22s.11-.11,2.35-.11h1.9l-.44-.45-.45-.45H148.1c-2.57,0-2.46,0-2.68-.1s-.46-.23-.34-.35.22-.11.45-.22h4.14v-.89h-5.93c-.22-.12-.45-.34-.45-.45s.11-.22.23-.33,0-.12,3.24-.12h2.91v-.89h-4c-.22,0-.45-.11-.45-.23s0-.11.11-.22.12-.12.34-.12a22.34,22.34,0,0,1,2.91-.11h2.79v.23c.12,1.23.9,2.12,2.58,2.46a5.26,5.26,0,0,0,.9.22l.11-.89a.38.38,0,0,0-.23-.12,3.25,3.25,0,0,1-2-.78,1.72,1.72,0,0,1-.34-.44v-.45l-.11-.23h.11c.12,0,2.81-.55,2.81-.55s-.34-.12-.8-.23a2.8,2.8,0,0,1-.78-.11h0v-.12h.12a1.18,1.18,0,0,1,.55-.21c.11-.12.11-.12.23-.12l.11-.11.23.11,1.34.79c.67.34.78.44.9.44a17.78,17.78,0,0,0,2.79.22h.23v-.89h-.45a9.23,9.23,0,0,1-2.24-.23c-.12,0-.12,0-.79-.33a8.37,8.37,0,0,0-2-1l-.23-.1-.11.1c-.22.12-.33.23-.55.34a3.57,3.57,0,0,1-1.23.22,3.11,3.11,0,0,1-1-.11,3.26,3.26,0,0,1-1.23-.67A.11.11,0,0,1,150.11,54.47Zm-31,.89a.11.11,0,0,1,.11.12c.1.11.1.11.1.22v.56l-.1-.12c-.11,0-.11-.11-.11-.21a1,1,0,0,0,0-.57Zm30.77.12a.38.38,0,0,0,.21.11,3.41,3.41,0,0,0,1.57.67H149a1.17,1.17,0,0,1-.79-.45c-.11-.11-.11-.11,0-.11h.34a2.9,2.9,0,0,0,1.12-.11A.43.43,0,0,0,149.9,55.48Zm-39.83,2.35v4.36h23.48V57.83h-8.5l-.11.11a3.8,3.8,0,0,1-2.35,1.11h-1.12c-.22-.1-.56-.1-.67-.21a1.26,1.26,0,0,1-.67-.34,1.37,1.37,0,0,1-.56-.56l-.11-.11h-9.39Z"/><polygon class="e" points="188.54 57.15 230.72 99.34 273.02 57.04 230.83 14.86 188.54 57.15"/><polygon class="d" points="266.3 57.04 230.72 92.63 195.24 57.04 230.83 21.57 266.3 57.04"/><path class="f" d="M230.72,35.23h-.23A7.34,7.34,0,0,0,225.91,37a7.36,7.36,0,0,0-.68,1,1.82,1.82,0,0,0-.22.67v1.12c0,.11,2.91,19.58,2.91,19.92a1.76,1.76,0,0,0,.22.67,3.23,3.23,0,0,0,2.47,2h.89a3.18,3.18,0,0,0,2.69-2.68c.11-.45,2.91-19.81,2.91-20s.11-.23.11-.46a1.9,1.9,0,0,0-.11-.78,5.39,5.39,0,0,0-.56-1.13,3.92,3.92,0,0,0-1-.89,6.61,6.61,0,0,0-3-1.12,6.1,6.1,0,0,0-1.35-.1Zm.34,30h-.23a4.7,4.7,0,0,0-3,1.35,4.9,4.9,0,0,0-.56.79,7,7,0,0,0-.9,2.23v1.24a7.71,7.71,0,0,0,1.12,2.57,4.23,4.23,0,0,0,.67.67,3.38,3.38,0,0,0,1.79.89,3.79,3.79,0,0,0,1.13.23,3.67,3.67,0,0,0,1.11-.23,4.4,4.4,0,0,0,2.8-1.89,6.5,6.5,0,0,0,.78-2.47V69.46a7.46,7.46,0,0,0-.45-1.56,5.08,5.08,0,0,0-3.57-2.7Z"/></svg>