<svg xmlns="http://www.w3.org/2000/svg" viewBox="0 0 992.94 113.82"><defs><style>.a,.d{fill:#fff;}.a{stroke:#000;stroke-miterlimit:10;stroke-width:0.5px;}.a,.c,.d,.e,.f{fill-rule:evenodd;}.b,.c{fill:#564a7f;}.e{fill:#ac322d;}.f{fill:#000b0d;}</style></defs><title>FG001_C</title><polygon class="a" points="80.62 113.57 0.43 55.84 80.62 0.26 912.32 0.25 992.51 57.98 912.32 113.56 80.62 113.57"/><rect class="b" x="88.92" y="8.12" width="815.52" height="97.53"/><polygon class="c" points="911.33 8.12 980.35 56.88 911.33 105.65 911.33 8.12"/><polygon class="c" points="81.58 8.12 12.56 56.88 81.58 105.65 81.58 8.12"/><path class="d" d="M468.2,50.79l6.19-19.59,5.76,19.59Zm-14.9,16.7h9.57l3-9.57h16.41l2.88,9.57h9.58L479.36,22.2H469.21Zm46.22,0h8.71l.15-18.79c0-4.68,2.52-7,6.12-7a4.48,4.48,0,0,1,4.39,2.73,12.29,12.29,0,0,1,.29,3.6V67.49H528V48.12c0-4.1,2.52-6.55,6-6.55,3,0,5,1.73,5,5.55V67.49h8.64V44.67c-.22-6.77-4.54-10.8-10.52-10.8a11,11,0,0,0-10,5.76A10.48,10.48,0,0,0,517.45,34c-4.32,0-7.34,1.8-9.07,5.19L508.16,35l-8.57-.14Zm54.43,0h8.79l.14-18.79c0-4.68,2.52-7,6-7a4.42,4.42,0,0,1,4.39,2.73c.15.22.36.94.36,3.6V67.49h8.79V48.12c0-4.1,2.52-6.55,6-6.55,2.95,0,4.9,1.73,4.9,5.55V67.49H602V44.67c-.22-6.77-4.47-10.8-10.44-10.8a10.89,10.89,0,0,0-10,5.76A10.64,10.64,0,0,0,572,34c-4.39,0-7.34,1.8-9.07,5.19L562.59,35l-8.49-.14Zm70.85-5.61c-4.1,0-8.13-3.17-8.13-10.37,0-7.85,3.88-10.95,8.13-10.95S633,43.66,633,51.15,629.05,61.88,624.8,61.88Zm0,6.76c9.94,0,17.14-6.91,17.14-17.49,0-10.23-7.13-17.43-17.21-17.43-9.79,0-17,7.06-17,17.43C607.74,61.88,614.94,68.64,624.8,68.64Zm23.26-1.15h8.78l.07-18.21a7.88,7.88,0,0,1,1.16-4.83,6.92,6.92,0,0,1,5.47-2.73c3,0,5.18,2,5.18,5.61V67.49h8.71V44.6c0-6.12-4.46-10.88-11.3-10.88-4.61,0-7.92,2.6-8.93,5.12L656.7,35l-8.5-.14Zm36.21-37.44H693V22.2h-8.72Zm-.14,37.44h8.71V34.88h-8.71Zm36.65-17.13v4.1c0,4.61-2.88,7.49-7.85,7.49-3.67,0-5.4-2.16-5.4-4.11,0-1.65.43-3.24,6-4.89l3.81-1A8.67,8.67,0,0,0,720.78,50.36Zm0,13.46a12.17,12.17,0,0,0,1,3.67h9a4.79,4.79,0,0,1-1.52-3.31V46.32c0-7.84-4-12.6-14.61-12.6-9.94,0-14,5.48-13.83,11l7.71.14c0-2.45,1.87-4.75,6.33-4.75,4.25,0,5.76,2.09,5.76,3.67,0,1.3-.93,2.59-3.24,2.88l-5,.94c-7.12,1.29-9.14,2.66-10.51,3.81a9,9,0,0,0-3,6.77c0,5.47,4.25,10.3,12.38,10.3C716.17,68.43,718.91,66.77,720.78,63.82Zm16.34,3.67H746l-.15-10.73,3.68-3.52,9,14.25h10.72l-13.39-20,11.67-12.6H757.14L746,47.33l-.15-25.13h-8.71Z"/><path class="d" d="M578.73,96.29h4V88.12h8.42V84.94H582.7V80.31h9.88V77.07H578.73ZM597,89.21l2.63-8.29,2.5,8.29Zm-6.28,7.08h4l1.28-4h7l1.22,4h4.09l-6.59-19.22h-4.27Zm22.94-10.68v-5.3h4.45a2.5,2.5,0,0,1,1.77.42A2.74,2.74,0,0,1,621.13,83c0,1.47-1.16,2.69-3.17,2.69Zm-3.9,10.68h3.9l.06-7.56h3.48a3.3,3.3,0,0,1,2.93,1.58,4.2,4.2,0,0,1,.36,1.22c.37,1.59,0,3.3.74,4.76h4a5.31,5.31,0,0,1-.61-2l-.3-3.36a3.58,3.58,0,0,0-1-2.56,4.15,4.15,0,0,0-2.56-1.16A4.58,4.58,0,0,0,625,82.44c0-3-2.38-5.55-6.47-5.37h-8.72ZM633,89.21l2.62-8.29,2.51,8.29Zm-6.28,7.08h4l1.29-4h7l1.22,4h4.09l-6.59-19.22h-4.27Z"/><path class="e" d="M116.66,35.94,95.52,57.08l21.14,21,21,21.16,21.14-21.16L180,57l-21.16-21c-11.52-11.64-21-21.15-21-21.15S128.19,24.3,116.66,35.94Z"/><path class="d" d="M155.48,39.29,173.28,57l-17.8,17.79L137.7,92.66,120,74.76,102.22,57,120,39.29c9.74-9.85,17.69-17.79,17.79-17.79S145.76,29.44,155.48,39.29Z"/><path class="f" d="M140.5,40.18h-.23a2.4,2.4,0,0,0-1.34.45,1.68,1.68,0,0,0-.67.56,1.91,1.91,0,0,0,.34,2.58,3.55,3.55,0,0,0,.66.56,6.1,6.1,0,0,0,1.57.33c.45.11,2.23.34,3.8.67s4,.68,5.27.9c1.67.23,2.34.33,2.45.33s.34.23.45.34l.12.11a.42.42,0,0,0-.12.23,1,1,0,0,0-.33.78v.89a1.13,1.13,0,0,0,.67.9h0a1.83,1.83,0,0,1-.12.67,6.65,6.65,0,0,0-.33,1.23c-.34.78-.34.78-.22,1.12a1.34,1.34,0,0,0,.55,1.23,1,1,0,0,0,.79,0,1.75,1.75,0,0,0,.55-1.45,2.9,2.9,0,0,0-.21-1.13c0-.22-.12-.55-.12-.67-.22-.44-.33-1-.22-1.11l.22-.12a3.17,3.17,0,0,1,.33-.55v-.68a1.61,1.61,0,0,0-.21-1,.91.91,0,0,1-.23-.67v-.78c0-.22.33-2.46.56-3.91a2,2,0,0,0,.11-.57h0c-.11,0-.23.12-.44.34a1.87,1.87,0,0,1-.79.57H153a4.6,4.6,0,0,1-.9-.13c-3.34-.66-10.06-1.89-10.84-2Zm-5.94.34H134c-.55.11-6.71,1.23-10.18,1.8a2.72,2.72,0,0,1-1,.21c-.11,0-.33-.11-.44-.11a2.33,2.33,0,0,1-.68-.56,1.36,1.36,0,0,0-.22-.33.35.35,0,0,0-.22-.12,5.69,5.69,0,0,1,.1,1.12c.34,1.69.67,3.48.67,3.7v1a6.68,6.68,0,0,1-.33.78c-.22.55-.34.68-.34,1a.91.91,0,0,0,.12.55c.11.34.22.57.45.67h0v.23a3.42,3.42,0,0,1-.34,1.46,4,4,0,0,1-.23.78,2.79,2.79,0,0,0-.21,1.11v.46c.11.56.33.89.67,1h.44c.23,0,.34-.11.56-.34a2.47,2.47,0,0,0,.34-1.12c0-.11-.11-.21-.22-.78-.23-1-.34-1.46-.45-1.9a4.07,4.07,0,0,0-.11-.67c0-.11,0-.11.11-.11a.8.8,0,0,0,.77-.67,1,1,0,0,0,.13-.67,3.62,3.62,0,0,0-.34-1.35.83.83,0,0,1-.11-.44c0-.11.22-.34.45-.45a13.1,13.1,0,0,0,2-.33c.9-.12,2.57-.45,3.8-.68,2.69-.45,3.92-.68,5-.78.45-.11.89-.23,1-.23a2.62,2.62,0,0,0,1.46-1,1.61,1.61,0,0,0,.33-1.68,2.27,2.27,0,0,0-1.56-1.46A2.25,2.25,0,0,0,134.56,40.52Zm6.15.56h.79c1.12.23,5.15.9,10,1.79,1.12.23,1.9.34,1.9.34l-.22,1.45s-1.12-.11-2.58-.23c-5.48-.44-8.5-.66-9.73-.78a3.56,3.56,0,0,0-.9-.1c-.67-.23-1.12-.56-1.12-1.23s.56-1,1.23-1.24Zm-6.15.33c.12,0,.45.12.56.12a2.17,2.17,0,0,1,1,.56c0,.23.11.33.11.56-.11.78-.68,1.23-1.79,1.23-.9.11-6.72.67-11.2,1a1.44,1.44,0,0,1-.55.11l-.22-1.45s.56-.12,5.82-1c4.14-.78,5.82-1,5.93-1s.22,0,.22-.12Zm24.84,5.26-.1.12a3.64,3.64,0,0,0-.34.34,2.15,2.15,0,0,0-.68,1V49c.12.34.12.45,0,.55s0,.12-.11.23c-.45,0-.67.34-.9.67a1.34,1.34,0,0,0-.1.67.87.87,0,0,1-.11.56,1.34,1.34,0,0,1-.57.56h-.1c0,.12.21.9.21.9a.53.53,0,0,0,.34-.12,2,2,0,0,0,1-1.11,1.19,1.19,0,0,0,.12-.68v-.33h.11c0-.12,0-.22.11-.22l.12-.12a1.22,1.22,0,0,0,.77-.56c0-.22.13-.33.13-.55a1.77,1.77,0,0,0-.13-.68c0-.45,0-.56.46-1,.11-.11.33-.32.33-.45l.12-.1Zm-3.24.67v.23a1,1,0,0,0,.23.78c.1.35.1.45,0,.56s0,.23-.23.34a1.3,1.3,0,0,0-.56.78.89.89,0,0,0,0,.78,1,1,0,0,1-.12.57.87.87,0,0,1-.45.67l-.21.22.56.67a7,7,0,0,0,.55-.45,1.88,1.88,0,0,0,.46-.78,2.1,2.1,0,0,0,.1-.78v-.68c0-.1,0-.22.23-.33a.88.88,0,0,0,.45-.44,1.81,1.81,0,0,0,.22-.68,1.23,1.23,0,0,0-.22-.78.42.42,0,0,1-.11-.34v-.11l-.23-.1h-.44A.37.37,0,0,0,156.16,47.34Zm-8.84.23a1.35,1.35,0,0,0-.33.22l-.34.34.22.22a2.93,2.93,0,0,0,.22.35,2.24,2.24,0,0,1,.34.78v.22a.85.85,0,0,0-.11.33,1.25,1.25,0,0,0,.34.9.9.9,0,0,0,.55.55c.23,0,.23.11.23.23s.11.11.11.23a.69.69,0,0,0,.11.78,2,2,0,0,0,1,1.11.34.34,0,0,0,.23.12l.21-.9H150a4.58,4.58,0,0,1-.57-.66v-.34a2.22,2.22,0,0,0-.11-.79c-.11-.11-.11-.22-.33-.33l-.34-.34c-.22,0-.34-.11-.34-.22s-.11-.22,0-.45v-.67a3.26,3.26,0,0,0-.55-1.12C147.66,48,147.32,47.57,147.32,47.57Zm2.79.45h-.33c0,.11-.22.11-.34.11h-.34v.11c.12.11,0,.23-.1.56a1.59,1.59,0,0,0-.12.68,1.28,1.28,0,0,0,.34.89c.11,0,.22.11.34.22a.43.43,0,0,1,.34.45v.22a1.17,1.17,0,0,0,0,.9,4.58,4.58,0,0,0,.78,1l.11.22.33-.34.34-.33-.22-.23c-.23-.22-.34-.33-.34-.44a.7.7,0,0,1-.11-.46v-.11c0-.22.11-.33,0-.55a1.18,1.18,0,0,0-.23-.68c-.11-.1-.22-.33-.45-.44s-.21-.11-.21-.23-.12-.1-.12-.21a1.14,1.14,0,0,0,.12-.34,1.72,1.72,0,0,0,.11-.68Zm-23,2.91a1.21,1.21,0,0,0-.23.33,1.8,1.8,0,0,0-.45.33,2.11,2.11,0,0,0-.44,1v1.11c0,.23,0,.34-.33.45-.68.33-.79.45-.9,1.23V56a1.37,1.37,0,0,0-.23.34v-.11a1,1,0,0,0,0-.79c-.1-.22-.1-.33,0-.45s.11-.22.34-.33.45-.45.45-.67.11-.23.11-.46a2.46,2.46,0,0,0-.11-.66,1.4,1.4,0,0,1-.12-.56v-.11l-.9-.22v.22a3.74,3.74,0,0,0,.13,1,.42.42,0,0,1,.1.32v.13l-.23.21c-.33.34-.55.46-.67.79a.39.39,0,0,1-.11.33,1.06,1.06,0,0,0,.11.57V56a1.79,1.79,0,0,1-.21.45c0,.12-.23.22-.34.33l-.11.12c.11,0,.55.67.55.67a.11.11,0,0,0,.11-.12.86.86,0,0,0,.46-.44h.11v.44h.1a.79.79,0,0,0,.46-.22,1.71,1.71,0,0,0,.77-.78,1.26,1.26,0,0,0,.13-.78,2,2,0,0,0,.1-.45c0-.11.11-.11.23-.11a1.63,1.63,0,0,0,.78-.67,2.87,2.87,0,0,0,.11-1v-.67c.11-.23.45-.67.67-1h.12l-.23-.45A.75.75,0,0,1,127.07,50.93Zm-10.18.33a2.1,2.1,0,0,0-.34.22c-.45.34-.45.34-.33.34s.1.12.21.23a3,3,0,0,1,.57.89c.1.11.1.11.1.23v.32a.65.65,0,0,0-.1.34,1.25,1.25,0,0,0,.33.9c.11.22.22.22.56.45a1,1,0,0,1,.34.22v.46c0,.33,0,.44.1.55a2.16,2.16,0,0,0,.68.78,2.54,2.54,0,0,1,.56.45h.11v-.11h0l.11.11a4.58,4.58,0,0,1,.45.56l.33-.34.34-.33h0a3.48,3.48,0,0,1-.67-.9v-.44a1.23,1.23,0,0,0,0-.9c0-.34-.23-.56-.56-.79s-.34-.1-.34-.21h-.1l.1-.12v-.34a2.44,2.44,0,0,0,.23-.89v-.22h-.9v.22c-.11.23-.11.34-.22.55a1.61,1.61,0,0,0-.12.68v.23l-.1-.11c-.23-.12-.23-.12-.23-.23s-.11-.11,0-.34a3.45,3.45,0,0,0-.11-1.11c-.11-.22-.34-.56-.56-.9-.1-.12-.23-.23-.33-.33Zm33.22,3.14H150a2.61,2.61,0,0,1-1.46.33c-.68,0-.78,0-1,.12a1.07,1.07,0,0,0-.45.55.38.38,0,0,0,.11.33c0,.13.12.34.12.46h-1.68a1.43,1.43,0,0,0-1.23.78c0,.11-.11.34-.11.44v.35H144c-.22,0-.33,0-.44.1a1.39,1.39,0,0,0-1,.78c-.12.13-.12.23-.12.46a1.31,1.31,0,0,0,.79,1.23,1.67,1.67,0,0,0,.78.11h.22V61a1.5,1.5,0,0,0,.68.78,2.68,2.68,0,0,0,1,.23h0v.1a1.25,1.25,0,0,0,.34.9,2.45,2.45,0,0,0,1.34.56c.46,0,2.13.12,3.92.12h1.9a9.84,9.84,0,0,0,2.9-.34,6.09,6.09,0,0,0,1.24-.46l.67-.33a6.68,6.68,0,0,1,1.57-.22h.34v-.89h-.34a7.77,7.77,0,0,0-1.68.22,6.54,6.54,0,0,0-1,.44,8.41,8.41,0,0,1-1.24.45,21,21,0,0,1-3,.23,40,40,0,0,1-4.93-.11c-.55,0-.78-.12-.88-.23a.39.39,0,0,1-.23-.11c0-.11.11-.23.33-.23s.11-.1,2.35-.1h1.9l-.44-.45-.45-.45H148.1c-2.57,0-2.46,0-2.68-.11s-.46-.22-.34-.35.22-.1.45-.21h4.14v-.89h-5.93c-.22-.12-.45-.34-.45-.45s.11-.23.23-.33,0-.13,3.24-.13h2.91v-.88h-4c-.22,0-.45-.12-.45-.23s0-.12.11-.22.12-.12.34-.12a22.34,22.34,0,0,1,2.91-.11h2.79v.23c.12,1.23.9,2.12,2.58,2.46a5.26,5.26,0,0,0,.9.22l.11-.89a.38.38,0,0,0-.23-.12,3.37,3.37,0,0,1-2-.78,1.92,1.92,0,0,1-.34-.44v-.45l-.11-.23h.11c.12,0,2.81-.55,2.81-.55s-.34-.12-.8-.23a2.8,2.8,0,0,1-.78-.11h0v-.12h.12a1.18,1.18,0,0,1,.55-.21c.11-.13.11-.13.23-.13l.11-.1.23.1,1.34.8c.67.33.78.44.9.44a17.78,17.78,0,0,0,2.79.22h.23V56.3h-.45a9.23,9.23,0,0,1-2.24-.23c-.12,0-.12,0-.79-.34a8.59,8.59,0,0,0-2-1l-.23-.11-.11.11c-.22.12-.33.22-.55.34a3.57,3.57,0,0,1-1.23.22,3.11,3.11,0,0,1-1-.11,3.16,3.16,0,0,1-1.23-.68A.11.11,0,0,1,150.11,54.4Zm-31,.89a.11.11,0,0,1,.11.11c.1.12.1.12.1.23v.56l-.1-.12c-.11,0-.11-.11-.11-.21a1,1,0,0,0,0-.57Zm30.77.11s.11.12.21.12a3.41,3.41,0,0,0,1.57.67H149a1.14,1.14,0,0,1-.79-.46c-.11-.1-.11-.1,0-.1h.34a2.9,2.9,0,0,0,1.12-.11A.42.42,0,0,0,149.9,55.4Zm-39.83,2.36v4.35h23.48V57.76h-8.5l-.11.1A3.81,3.81,0,0,1,122.59,59h-1.12c-.22-.11-.56-.11-.67-.21a1.26,1.26,0,0,1-.67-.34,1.4,1.4,0,0,1-.56-.57l-.11-.1h-9.39Z"/><polygon class="e" points="188.54 57.08 230.72 99.27 273.02 56.97 230.83 14.79 188.54 57.08"/><polygon class="d" points="266.3 56.97 230.72 92.55 195.24 56.97 230.83 21.5 266.3 56.97"/><path class="f" d="M223.87,65.64l-.48,0,1.09.49h0l.29.25.06-.09h0l2.25,1H227l-.95.39c-2.8,1.18-4.61,2-5.4,2.36a2,2,0,0,0-.91-.16,17.88,17.88,0,0,0-3.7.58c-.82.19-1.57.39-2.24.58a.24.24,0,0,0-.14.1.27.27,0,0,0-.06.17.27.27,0,0,0,.28.28l34.62.17h0a.27.27,0,0,0,.28-.28V69.59a.27.27,0,0,0-.28-.28h-2.18l1-1.32a.25.25,0,0,0,.06-.16.26.26,0,0,0-.08-.19.27.27,0,0,0-.18-.1l-4-.35,2.82-1.41a.35.35,0,0,0,.11-.1.28.28,0,0,0,0-.15.28.28,0,0,0,0-.13.28.28,0,0,0-.09-.1l-2.38-1.68a12.42,12.42,0,0,0,3.74-4.11l0-.06h1.82V56.77h-.84a6.19,6.19,0,0,0,.08-1h0V54.68l-3.13,1,.31-.59.53-1.09-1.2-.13c-.27,0-.53,0-.79,0a9.88,9.88,0,0,0-6.65,3H227v-2l3.27-3.71a3.55,3.55,0,0,1,2.21-.71l3.35-5.3s-2.11,2.47-3,3.27a5.2,5.2,0,0,1-3.18.62c-1,.26-3,2.74-3,2.74s.44-1.15,1.14-2.66a4.34,4.34,0,0,0,.28-3.26c-.18-1.06,3.79-6,3.79-6v-.52l-4.07,4.67-.7-5.2h-.44s.26,4.76.35,5.73.09,2.48.09,2.48l-2.47,3.62s-1.68-6.28-2.12-7.42.17-4.86.17-4.86l-.53.18L221.33,41l-2.47-3.8-.36.27s.8,1.5,1.77,3.27.89,4.59.89,4.59l-5-3V43s3.71,2.91,4.59,3.62S222,50.07,222,50.07,218.5,48.4,218,48.22s-3.17,2.12-3.17,2.12a7.31,7.31,0,0,1,.88-.27,2.24,2.24,0,0,1,1.85.18l5,2.74-.1,3.78h-9.2v2.68h9.13c0,1-.06,2.22-.1,3.6l-4.06,2.3,4.77-.44Zm1.42,0,.67-1,5.29-.8-4.32-2.12V59.51H235c-.59.76-1.2,1.62-1.82,2.56l-.32.49a5.92,5.92,0,0,1-1.79,1.62,16.28,16.28,0,0,1-2,1l-.11,0a8.75,8.75,0,0,1-2.13.3Zm4,.39a9.51,9.51,0,0,0,4.33-3c1.15-1.68,5.39-8.92,11.21-8.31-.35.71-1.32,2.39-1.32,2.39l4.06-1.24s.09,5.48-7.68,8.92c-3.71,1.33-4.41,1.33-4.77,1.77s-1.76,2.73-1.76,2.73l-6.45-2.91A11.88,11.88,0,0,0,229.32,66Zm14.49-7a.68.68,0,0,1,.7-.62.63.63,0,1,1,0,1.24A.68.68,0,0,1,243.81,59Z"/></svg>