<svg xmlns="http://www.w3.org/2000/svg" viewBox="0 0 992.94 113.82"><defs><style>.a,.d{fill:#fff;}.a{stroke:#000;stroke-miterlimit:10;stroke-width:0.5px;}.a,.c,.d,.e,.f{fill-rule:evenodd;}.b,.c{fill:#564a7f;}.e{fill:#ac322d;}.f{fill:#000b0d;}</style></defs><title>FG005_C</title><polygon class="a" points="80.62 113.57 0.43 55.84 80.62 0.26 912.32 0.25 992.51 57.98 912.32 113.56 80.62 113.57"/><rect class="b" x="88.92" y="8.05" width="815.52" height="97.53"/><polygon class="c" points="911.33 8.04 980.35 56.81 911.33 105.58 911.33 8.04"/><polygon class="c" points="81.58 8.04 12.56 56.81 81.58 105.58 81.58 8.04"/><path class="d" d="M400.81,67.35h9.07V36.82l18.58,30.53H438V22.06h-9.14V52.73l-19-30.67h-9.21ZM466,50.21l-.07,4.11c0,4.6-2.88,7.48-7.85,7.48-3.67,0-5.4-2.16-5.4-4.1,0-1.66.43-3.24,6-4.9l3.81-1A8.58,8.58,0,0,0,466,50.21Zm-.07,13.47a12.26,12.26,0,0,0,1,3.67h9A4.83,4.83,0,0,1,474.39,64V46.18c0-7.85-4-12.6-14.61-12.6-9.94,0-14,5.47-13.83,10.94l7.85.15c0-2.45,1.73-4.75,6.19-4.75,4.25,0,5.76,2.08,5.76,3.67,0,1.29-.79,2.59-3.24,2.88l-4.89.93c-7.27,1.3-9.22,2.67-10.66,3.82A9.49,9.49,0,0,0,444,58c0,5.47,4.25,10.29,12.53,10.29C461.29,68.28,464,66.63,465.9,63.68Zm33.62,3.67v-6.7h-3.24a3.26,3.26,0,0,1-2.52-1.22c-.21-.29-.5-.72-.5-2.59V40.78h6.05V34.73h-6.05V24.51h-8.71V34.73h-4.61v6.05h4.68l-.07,16.78c0,7.34,3.09,9.79,7.84,9.79Zm6.41,0h8.93V53c0-4.83,1.15-7.13,2.59-8.64a7.72,7.72,0,0,1,5.9-2.67c.58,0,1,.15,1.52.15l.07-7.71a7.56,7.56,0,0,0-2-.14,8.44,8.44,0,0,0-8.06,5.76l-.36-5h-8.5Zm23.76-37.44h8.71V22.06h-8.71Zm-.14,37.44h8.78V34.73h-8.64Zm36.07-3.67.43,3.67h8.21V34.88l-8.64-.15V53.09c0,4.9-3,7.49-6.55,7.49-3.24,0-5.33-1.73-5.33-6.34V34.73H545V57.2c0,4.24,1.22,6.55,3.16,8.42a12,12,0,0,0,8.21,2.74C560.43,68.36,563.67,66.77,565.62,63.68ZM581,67.35h8.85V48.56c0-4.68,2.59-7,6.12-7a4.33,4.33,0,0,1,4.39,2.74c.15.21.44.93.44,3.6V67.35h8.64V48c0-4.1,2.59-6.55,6-6.55,2.88,0,4.83,1.73,4.83,5.54V67.35h8.71L629,44.52c-.15-6.76-4.54-10.8-10.51-10.8a10.76,10.76,0,0,0-9.87,5.76A10.45,10.45,0,0,0,599,33.87c-4.4,0-7.42,1.8-9,5.18l-.36-4.17-8.5-.15Zm57.38,0h8.71V40.64h6.34V34.73h-6.34v-.57c0-3,.51-3.75,1.08-4.32.65-.87,1.73-1.3,3.82-1.3h1.44V22.06h-5c-2.88,0-10.95.5-10,12.67h-4.82l.07,5.91h4.75Zm21.17,0h8.85V22.06h-8.71Zm32-5.62c-4.18,0-8.21-3.17-8.21-10.37,0-7.84,4-10.94,8.21-10.94s8.13,3.1,8.13,10.58S695.87,61.73,691.62,61.73Zm0,6.77c9.86,0,17.13-6.91,17.13-17.5,0-10.22-7.12-17.42-17.28-17.42-9.79,0-17,7.06-17,17.42C674.48,61.73,681.68,68.5,691.62,68.5Zm43.77-4.82.44,3.67H744V34.88l-8.64-.15V53.09c0,4.9-3,7.49-6.55,7.49-3.24,0-5.33-1.73-5.33-6.34V34.73h-8.78V57.2c0,4.24,1.3,6.55,3.24,8.42a11.85,11.85,0,0,0,8.21,2.74C730.21,68.36,733.45,66.77,735.39,63.68Zm15.41,3.67h8.86V53c0-4.83,1.15-7.13,2.66-8.64a7.62,7.62,0,0,1,5.91-2.67c.57,0,1,.15,1.44.15l.14-7.71a7.51,7.51,0,0,0-1.94-.14,8.38,8.38,0,0,0-8.07,5.76l-.36-5H751Zm23.76-37.44h8.71V22.06h-8.71Zm-.14,37.44h8.78V34.73h-8.64Zm31.68-6.48c-4.18,0-7.71-2.95-7.71-9.87,0-7.7,3.68-10.36,7.35-10.36s7.34,2.66,7.34,10.15C813.08,58,809.34,60.87,806.1,60.87ZM813,64l.36,3.31H822V22.06h-8.78V38.48c-1.59-2.6-5.33-4.76-9.44-4.76-7.27,0-14.54,6.12-14.54,17.5a19.24,19.24,0,0,0,4.32,12.53,12.08,12.08,0,0,0,9.86,4.61A11.64,11.64,0,0,0,813,64Z"/><path class="d" d="M578.66,96.22h4V88H591V84.87h-8.42V80.23h9.89V77H578.66ZM597,89.14l2.63-8.3,2.5,8.3Zm-6.28,7.08h4l1.29-4h7l1.22,4h4.09L601.72,77h-4.27Zm22.94-10.68V80.23h4.45a2.51,2.51,0,0,1,1.77.43,2.77,2.77,0,0,1,1.22,2.26c0,1.46-1.16,2.68-3.17,2.68Zm-3.91,10.68h3.91l.06-7.57h3.48a3.29,3.29,0,0,1,2.93,1.59,4.11,4.11,0,0,1,.36,1.22c.37,1.59,0,3.3.73,4.76h4a5.31,5.31,0,0,1-.61-2l-.3-3.36a3.62,3.62,0,0,0-1-2.56,4.17,4.17,0,0,0-2.56-1.16A4.59,4.59,0,0,0,625,82.37c0-3-2.38-5.55-6.47-5.37h-8.73ZM633,89.14l2.62-8.3,2.5,8.3Zm-6.28,7.08h4l1.28-4h7l1.22,4h4.09L637.72,77h-4.27Z"/><path class="e" d="M116.66,35.65,95.52,56.79l21.14,21L137.7,99l21.14-21.15L180,56.68l-21.16-21c-11.52-11.64-21-21.15-21-21.15S128.19,24,116.66,35.65Z"/><path class="d" d="M155.48,39l17.8,17.68-17.8,17.79L137.7,92.37,120,74.47,102.22,56.68,120,39c9.74-9.85,17.69-17.79,17.79-17.79S145.76,29.15,155.48,39Z"/><path class="f" d="M138.32,33.34c4,0,5.91,1.85,8.12,3.8l1.06,1,.44.35c1.77,1.5,3,2.66,3,3.89a8.89,8.89,0,0,1-2.12,5l-.18.36a15.81,15.81,0,0,1,.36,2.73,3.77,3.77,0,0,1-1.76,3.18c1.4-.62,3.09-1.41,3.7-1.68a8.43,8.43,0,0,0,1.95-2l.17-.35a3.59,3.59,0,0,1,2.83-1.5,1.87,1.87,0,0,1,1.32.61,2.45,2.45,0,0,1,.71,1.95,2.61,2.61,0,0,1,1.32,2v1.24a1.83,1.83,0,0,1-1.85,1.94,4.21,4.21,0,0,1-1.86-.53,6.92,6.92,0,0,0-1.06-.44h-.17a2.72,2.72,0,0,0-1.24.27c-.09,0-6,3-7.41,3.79a.31.31,0,0,0-.1.27c2.13,1,5.75,2.73,6.19,2.91l.44.18a1.15,1.15,0,0,0,.79.17,3.48,3.48,0,0,0,1.06-.35,6.44,6.44,0,0,1,2.21-.44c1.24,0,3.09.88,3.09,2.29,0,1.24-.79,1.59-2.12,2.21l-.53.27c-.18.7-.26,1.32-.35,1.58A2.35,2.35,0,0,1,154,69.9a3,3,0,0,1-2.65-2.3,2.77,2.77,0,0,0-1.67-2.3l-6.45-3.17a7.82,7.82,0,0,1-1.41,1h-.09a9.46,9.46,0,0,1-3.27,1.24,12.46,12.46,0,0,1-3.89-1.24,11.83,11.83,0,0,1-1.14-.71l-5.3,2.48-.88.43a2.54,2.54,0,0,0-1.59,2.3A3.26,3.26,0,0,1,123,69.9,2.34,2.34,0,0,1,120.66,68c-.1-.26-.18-.88-.36-1.58l-.53-.27c-1.32-.62-2.12-1-2.12-2.21,0-1.41,1.85-2.29,3.19-2.29a6.28,6.28,0,0,1,2.11.44,3.36,3.36,0,0,0,1.15.35,1,1,0,0,0,.7-.17l.45-.18c.44-.18,3.62-1.68,5.73-2.74a2.8,2.8,0,0,1-.17-.79c-2.12-1.06-6.8-3.44-6.8-3.44a3.25,3.25,0,0,0-1.32-.27h-.18a4.37,4.37,0,0,0-1,.44,5,5,0,0,1-1.94.53,1.84,1.84,0,0,1-1.86-1.94V52.68a2.85,2.85,0,0,1,1.33-2,2.75,2.75,0,0,1,.7-1.95,1.89,1.89,0,0,1,1.33-.61,3.59,3.59,0,0,1,2.83,1.5l.26.35A6.56,6.56,0,0,0,126,52c.45.18,1.5.71,2.65,1.24a3.48,3.48,0,0,1-1.24-2.65c0-.79.18-2,.27-2.91l-.18-.27c-.88-1.32-2.12-3.09-2.12-5,0-1.23,1.24-2.29,2.92-3.89L129,38a14,14,0,0,1,1.15-1.16,13.33,13.33,0,0,1,2.57-2.11A12.28,12.28,0,0,1,138.32,33.34Zm0,1.32a9.91,9.91,0,0,0-5,1.24,8.7,8.7,0,0,0-2.3,1.86c-.43.35-.79.79-1.23,1.14l-.53.53c-1.33,1.16-2.56,2.3-2.56,2.92a6,6,0,0,0,1,2.91,1.68,1.68,0,0,1-.09-.88V44a4.09,4.09,0,0,1,1.77-3.54.55.55,0,0,1,.62,0c.17.18.17.27.35.36s-.09.44-.18.53A3,3,0,0,0,128.78,44v.35c0,.35.53,2.47.53,3.09a17.34,17.34,0,0,0-.36,3c0,1.68.8,2,2,2.83l.36.17c.53.36,1,.62,1.33.89,1.32.7,2,1.15,2,2.47a2.42,2.42,0,0,0-.1.79c.1.45,2,1.6,3.72,1.6s3.53-1.15,3.53-1.6v-.79c0-1.41.71-1.77,2-2.56l1.32-.8.35-.17c1.24-.8,2.13-1.33,2.13-2.83a16.23,16.23,0,0,0-.36-3.09l-.08-.09.35-1.68a5.54,5.54,0,0,0,.26-1.76c0-.8-.09-1.15-1.32-2.47l.88-.79c1.33,1.4,1.68,1.93,1.68,3.26v.88a5.81,5.81,0,0,0,.62-2.38c0-.71-1.24-1.76-2.56-2.92l-.44-.44-1.16-1C143.44,36.08,141.76,34.66,138.32,34.66ZM131,47.47h3.89c.44,0,1.5.35,1.5,1.06a2.58,2.58,0,0,1-.61,1.24c-.71,1-1.24,1.94-2.65,1.94-2.13,0-3-2.56-3-3.27A.91.91,0,0,1,131,47.47Zm10.51,0h4a1,1,0,0,1,.88,1c0,.71-.88,3.27-3,3.27-1.41,0-2-1-2.65-1.94a2.63,2.63,0,0,1-.62-1.24C140.08,47.82,141.14,47.47,141.49,47.47ZM121.1,49.41a1.71,1.71,0,0,0-.44.09c-.45.44-.36,1.68-.36,2.57v.7a.61.61,0,0,1-.62.62.66.66,0,0,1-.61-.62v1.15c0,.35.08.71.53.71a2.88,2.88,0,0,0,1.32-.45,4.31,4.31,0,0,1,1.59-.53h.08a5.23,5.23,0,0,1,2,.35h0l6.18,3.19V55.51c-1.41-.71-4.41-2-5.21-2.48a7.59,7.59,0,0,1-2.38-2.38L123,50.3A2.35,2.35,0,0,0,121.1,49.41Zm34.79,0a2.53,2.53,0,0,0-1.86.89l-.17.35A6.79,6.79,0,0,1,151.47,53c-1,.53-4.76,2.3-5.82,2.74v1.77L152.44,54h.1a4.55,4.55,0,0,1,1.85-.35h.08a3.84,3.84,0,0,1,1.59.53,2.88,2.88,0,0,0,1.33.45.63.63,0,0,0,.62-.71V52.68a.31.31,0,0,1-.09-.18v.27a.62.62,0,1,1-1.24,0v-.7c0-.89.09-2.13-.35-2.57A1.83,1.83,0,0,0,155.89,49.41Zm-17.31,2.74c1.15,0,1.59,2,1.77,2.56s.71.8.71,1.24a1,1,0,0,1-1.06.88c-.89,0-.71-.44-1.42-.44s-.44.44-1.42.44-1-.62-1-.79a1.89,1.89,0,0,1,.44-1.15c.35-.44.35-1.5,1-2.12A1.08,1.08,0,0,1,138.58,52.15ZM132,55.33v3c0,.89,1.15,2.65,3.18,3.62a13.3,13.3,0,0,0,3.35,1.15A12.81,12.81,0,0,0,141.23,62V62c2.12-1,3.18-2.73,3.18-3.62V55.42c-1.15.7-1.24.79-1.24,1.41v.79c0,1.42-2.82,2.83-4.85,2.83s-4.95-1.23-4.95-2.83a2.2,2.2,0,0,1,.09-.88c0-.53-.09-.62-1.42-1.32C132,55.42,132,55.33,132,55.33Zm13.07,5a9,9,0,0,1-.8,1l6,2.92a4.09,4.09,0,0,1,2.38,3.27A1.65,1.65,0,0,0,154,68.57a1.09,1.09,0,0,0,1.07-.7c.17-.8.7-3.44.79-3.62a.57.57,0,0,1,.71-.45.54.54,0,0,1,.43.71A1.65,1.65,0,0,1,157,65c1.06-.52,1.14-.61,1.14-1s-1.06-1.06-1.85-1.06a3.68,3.68,0,0,0-1.77.45,4.81,4.81,0,0,1-1.5.35,2.59,2.59,0,0,1-1.41-.27l-.36-.18C150.77,63,146.26,60.89,145,60.28Zm-13.42.26c-1.68.8-5.39,2.56-5.83,2.73l-.36.18a2.43,2.43,0,0,1-1.32.27,4.8,4.8,0,0,1-1.59-.35,4.14,4.14,0,0,0-1.67-.45c-.89,0-2,.62-2,1.06s.09.45,1.14,1a1.65,1.65,0,0,1-.08-.44.55.55,0,0,1,.44-.71.73.73,0,0,1,.8.45c0,.18.52,2.82.7,3.62a1.06,1.06,0,0,0,1.06.7,1.91,1.91,0,0,0,1.5-1.14,3.86,3.86,0,0,1,2.3-3.27l.88-.44,4.77-2.21A5.34,5.34,0,0,1,131.61,60.54Z"/></svg>