<svg xmlns="http://www.w3.org/2000/svg" viewBox="0 0 992.94 113.82"><defs><style>.a,.d{fill:#fff;}.a{stroke:#000;stroke-miterlimit:10;stroke-width:0.5px;}.a,.c,.d,.e,.f{fill-rule:evenodd;}.b,.c{fill:#564a7f;}.e{fill:#ac322d;}.f{fill:#000b0d;}</style></defs><title>FG004_C</title><polygon class="a" points="80.62 113.57 0.43 55.84 80.62 0.26 912.32 0.25 992.51 57.98 912.32 113.56 80.62 113.57"/><rect class="b" x="88.92" y="8.12" width="815.52" height="97.53"/><polygon class="c" points="911.33 8.12 980.35 56.88 911.33 105.65 911.33 8.12"/><polygon class="c" points="81.58 8.12 12.56 56.88 81.58 105.65 81.58 8.12"/><path class="d" d="M566.77,67.49h31.46V59.64h-22V22.2h-9.5Zm55.3-3.67.5,3.67h8.28L630.71,35l-8.64-.14V53.24c0,4.89-3,7.48-6.56,7.48-3.24,0-5-1.72-5-6.33V34.88h-8.78V57.34c0,4.25,1.15,6.55,3.1,8.42a11.69,11.69,0,0,0,8.06,2.74C616.88,68.5,620.12,66.92,622.07,63.82Zm34,3.67V60.8h-3.24a3.27,3.27,0,0,1-2.52-1.23c-.22-.29-.43-.72-.43-2.59V40.92h6v-6h-6V24.65h-8.79V34.88h-4.6v6h4.75l-.15,16.78c0,7.34,3.1,9.79,7.92,9.79Z"/><path class="d" d="M578.73,96.29h4V88.12h8.42V84.94H582.7V80.31h9.88V77.07H578.73ZM597,89.21l2.63-8.29,2.5,8.29Zm-6.28,7.08h4l1.28-4h7l1.22,4h4.09l-6.59-19.22h-4.27Zm22.94-10.68v-5.3h4.45a2.5,2.5,0,0,1,1.77.42A2.74,2.74,0,0,1,621.13,83c0,1.47-1.16,2.69-3.17,2.69Zm-3.9,10.68h3.9l.06-7.56h3.48a3.3,3.3,0,0,1,2.93,1.58,4.2,4.2,0,0,1,.36,1.22c.37,1.59,0,3.3.74,4.76h4a5.31,5.31,0,0,1-.61-2l-.3-3.36a3.58,3.58,0,0,0-1-2.56,4.15,4.15,0,0,0-2.56-1.16A4.58,4.58,0,0,0,625,82.44c0-3-2.38-5.55-6.47-5.37h-8.72ZM633,89.21l2.62-8.29,2.51,8.29Zm-6.28,7.08h4l1.29-4h7l1.22,4h4.09l-6.59-19.22h-4.27Z"/><path class="e" d="M116.8,35.79,95.66,56.93,116.8,78l21,21.16L159,78l21.16-21.14L159,35.79c-11.51-11.64-21-21.15-21-21.15S128.33,24.15,116.8,35.79Z"/><path class="d" d="M155.63,39.15l17.79,17.68L155.63,74.62l-17.79,17.9-17.68-17.9-17.8-17.79,17.8-17.68c9.73-9.85,17.68-17.79,17.79-17.79S145.9,29.3,155.63,39.15Z"/><path class="f" d="M140.64,40h-.23a2.43,2.43,0,0,0-1.34.45,1.67,1.67,0,0,0-.67.56,1.91,1.91,0,0,0,.34,2.57,3.3,3.3,0,0,0,.67.56,5.33,5.33,0,0,0,1.56.34c.45.1,2.23.33,3.8.67s4,.67,5.27.89c1.68.23,2.35.34,2.46.34s.33.23.45.34l.11.1a.48.48,0,0,0-.11.23,1,1,0,0,0-.34.78v.9a1.17,1.17,0,0,0,.67.9h0a2,2,0,0,1-.11.66,6.87,6.87,0,0,0-.34,1.24c-.33.78-.33.78-.22,1.12a1.32,1.32,0,0,0,.56,1.23,1,1,0,0,0,.78,0,1.76,1.76,0,0,0,.56-1.46,2.74,2.74,0,0,0-.22-1.12c0-.23-.12-.56-.12-.67-.22-.44-.33-1-.22-1.11l.22-.12a2.52,2.52,0,0,1,.34-.55v-.68a1.54,1.54,0,0,0-.22-1,.92.92,0,0,1-.23-.67v-.78c0-.22.34-2.46.57-3.91a2.24,2.24,0,0,0,.1-.57h0c-.1,0-.22.11-.44.34a1.84,1.84,0,0,1-.79.56h-.33a4.86,4.86,0,0,1-.9-.12c-3.35-.67-10.07-1.9-10.85-2Zm-5.93.34h-.57c-.55.11-6.71,1.23-10.18,1.79a2.61,2.61,0,0,1-1,.22c-.11,0-.33-.11-.45-.11a2.56,2.56,0,0,1-.68-.57,1.45,1.45,0,0,0-.21-.33.37.37,0,0,0-.23-.11,5.08,5.08,0,0,1,.11,1.12c.33,1.68.67,3.47.67,3.69v1c-.11.23-.11.34-.34.78s-.33.68-.33,1a.94.94,0,0,0,.12.55c.11.33.21.56.44.67h0v.22a3.52,3.52,0,0,1-.33,1.46,3.78,3.78,0,0,1-.23.78,2.72,2.72,0,0,0-.22,1.12v.45c.11.56.34.9.67,1h.45c.23,0,.33-.11.56-.34a2.66,2.66,0,0,0,.33-1.12c0-.11-.11-.22-.22-.78-.22-1-.34-1.46-.44-1.91a3.76,3.76,0,0,0-.12-.67c0-.1,0-.1.12-.1a.81.81,0,0,0,.77-.67,1.16,1.16,0,0,0,.12-.67,3.39,3.39,0,0,0-.34-1.35.86.86,0,0,1-.11-.45c0-.1.22-.33.45-.44a12.33,12.33,0,0,0,2-.34c.9-.12,2.58-.45,3.81-.67,2.68-.45,3.92-.68,5-.79.45-.1.89-.23,1-.23a2.54,2.54,0,0,0,1.46-1,1.6,1.6,0,0,0,.34-1.68,2.27,2.27,0,0,0-1.57-1.45A2.19,2.19,0,0,0,134.71,40.38Zm6.15.55h.79c1.11.23,5.14.91,9.95,1.8,1.12.22,1.9.34,1.9.34l-.22,1.45-2.57-.23c-5.48-.44-8.51-.67-9.74-.78a3.23,3.23,0,0,0-.89-.11c-.67-.23-1.12-.56-1.12-1.23s.55-1,1.23-1.24Zm-6.15.34c.11,0,.45.11.55.11a2.21,2.21,0,0,1,1,.56c0,.23.11.34.11.57-.11.78-.67,1.23-1.79,1.23-.89.11-6.71.67-11.19,1a1.6,1.6,0,0,1-.55.1l-.22-1.45s.55-.11,5.81-1c4.14-.78,5.82-1,5.93-1s.22,0,.22-.11Zm24.84,5.26-.11.12a3.64,3.64,0,0,0-.34.34,2.23,2.23,0,0,0-.68,1v.9c.12.33.12.44,0,.55s0,.12-.1.23c-.45,0-.67.33-.9.66a1.25,1.25,0,0,0-.11.67.89.89,0,0,1-.11.57,1.44,1.44,0,0,1-.56.56h-.11c0,.11.21.89.21.89a.57.57,0,0,0,.34-.11,1.94,1.94,0,0,0,1-1.12,1.25,1.25,0,0,0,.11-.68v-.33h.12c0-.11,0-.22.1-.22l.12-.11a1.28,1.28,0,0,0,.78-.56c0-.22.12-.33.12-.56a1.83,1.83,0,0,0-.12-.67c0-.45,0-.57.46-1,.1-.11.33-.33.33-.45l.11-.11Zm-3.25.67v.23a1,1,0,0,0,.23.78c.11.34.11.45,0,.56s0,.22-.23.33a1.36,1.36,0,0,0-.56.79,1,1,0,0,0,0,.78,1,1,0,0,1-.11.56c-.11.34-.11.45-.45.68-.11.1-.22.22-.22.22l.56.67s.44-.34.56-.45a1.87,1.87,0,0,0,.45-.78,2,2,0,0,0,.11-.79v-.67c0-.11,0-.22.23-.34a.82.82,0,0,0,.44-.44,1.62,1.62,0,0,0,.23-.67,1.2,1.2,0,0,0-.23-.79.4.4,0,0,1-.11-.33v-.11l-.23-.11h-.44A.36.36,0,0,0,156.3,47.2Zm-8.83.23a1.55,1.55,0,0,0-.34.22l-.34.34s.11.1.22.22a1.87,1.87,0,0,0,.23.34,2.29,2.29,0,0,1,.33.78v.23a.86.86,0,0,0-.1.33,1.21,1.21,0,0,0,.33.89,1,1,0,0,0,.55.56c.23,0,.23.11.23.23s.11.11.11.22a.69.69,0,0,0,.11.78,2,2,0,0,0,1,1.12.34.34,0,0,0,.23.12l.22-.9h-.11a4.83,4.83,0,0,1-.57-.67v-.33a2.52,2.52,0,0,0-.1-.8c-.12-.11-.12-.21-.34-.33l-.34-.33c-.22,0-.33-.12-.33-.22s-.12-.23,0-.46V49.1a3.51,3.51,0,0,0-.56-1.11C147.8,47.87,147.47,47.43,147.47,47.43Zm2.79.44h-.34c0,.12-.21.12-.34.12h-.33v.1c.11.12,0,.23-.11.57a1.65,1.65,0,0,0-.11.67,1.3,1.3,0,0,0,.33.9c.12,0,.22.1.35.22a.38.38,0,0,1,.21.11.39.39,0,0,1,.12.34v.21a1.17,1.17,0,0,0,0,.9,5,5,0,0,0,.78,1l.11.22.34-.33.33-.34-.22-.22c-.23-.22-.34-.34-.34-.44a.72.72,0,0,1-.11-.46v-.11c0-.23.11-.34,0-.56a1.21,1.21,0,0,0-.22-.67c-.12-.11-.22-.34-.45-.44s-.22-.11-.22-.23-.12-.11-.12-.22a1.16,1.16,0,0,0,.12-.33,1.75,1.75,0,0,0,.11-.68Zm-23,2.91a2,2,0,0,0-.23.33,1.92,1.92,0,0,0-.44.34,2,2,0,0,0-.44,1v1.12c0,.23,0,.34-.34.44-.68.34-.79.46-.89,1.24v.56a1.13,1.13,0,0,0-.23.33v-.1a1.07,1.07,0,0,0,0-.79c-.11-.22-.11-.34,0-.45s.1-.22.33-.33.45-.46.45-.67.11-.23.11-.46a2.4,2.4,0,0,0-.11-.66,1.54,1.54,0,0,1-.11-.56V52l-.9-.22V52a4,4,0,0,0,.12,1,.41.41,0,0,1,.11.33v.12l-.23.22c-.34.33-.55.45-.67.79a.4.4,0,0,1-.11.33,1,1,0,0,0,.11.56v.45a1.57,1.57,0,0,1-.22.44c0,.12-.23.23-.34.34l-.11.12c.11,0,.56.66.56.66a.11.11,0,0,0,.11-.11.92.92,0,0,0,.45-.44h.11v.44h.11a.92.92,0,0,0,.46-.22,1.84,1.84,0,0,0,.77-.79c.12-.21.12-.33.12-.78a1.73,1.73,0,0,0,.11-.44c0-.12.1-.12.23-.12a1.58,1.58,0,0,0,.78-.67,3.08,3.08,0,0,0,.1-1v-.67c.12-.22.45-.66.67-1h.12l-.22-.46A.81.81,0,0,1,127.21,50.78ZM117,51.11a1.52,1.52,0,0,0-.33.23c-.46.34-.46.34-.34.34l.22.23a2.84,2.84,0,0,1,.56.89c.11.11.11.11.11.22v.33a.58.58,0,0,0-.11.34,1.28,1.28,0,0,0,.34.9c.1.22.22.22.55.45a.82.82,0,0,1,.34.22v.45c0,.34,0,.44.11.55a2,2,0,0,0,.67.79,2.14,2.14,0,0,1,.57.45h.1v-.12h0l.12.12a4.58,4.58,0,0,1,.45.56l.33-.34.33-.34h0a3.44,3.44,0,0,1-.66-.89v-.44a1.23,1.23,0,0,0,0-.9c0-.34-.23-.56-.57-.79s-.33-.11-.33-.22h-.11l.11-.12v-.33a2.44,2.44,0,0,0,.23-.89v-.23h-.91v.23a5.25,5.25,0,0,1-.22.55,1.73,1.73,0,0,0-.11.67v.23l-.11-.11c-.22-.12-.22-.12-.22-.22s-.12-.11,0-.34a3.27,3.27,0,0,0-.12-1.12c-.11-.22-.33-.55-.55-.89l-.34-.34Zm33.23,3.14h-.11a2.48,2.48,0,0,1-1.46.34c-.67,0-.78,0-1,.11a1.18,1.18,0,0,0-.44.56.4.4,0,0,0,.11.33c0,.12.12.34.12.46h-1.69a1.38,1.38,0,0,0-1.22.78c0,.1-.12.33-.12.44v.34h-.33c-.23,0-.34,0-.45.11a1.41,1.41,0,0,0-1,.78c-.12.12-.12.23-.12.46a1.3,1.3,0,0,0,.8,1.22,1.53,1.53,0,0,0,.78.12h.22v.56a1.47,1.47,0,0,0,.67.78,2.74,2.74,0,0,0,1,.22h0V62a1.3,1.3,0,0,0,.33.9,2.44,2.44,0,0,0,1.34.55c.46,0,2.13.12,3.92.12h1.9a10.38,10.38,0,0,0,2.91-.33,6.55,6.55,0,0,0,1.24-.46l.67-.33a6.67,6.67,0,0,1,1.56-.22h.34v-.9h-.34a7.25,7.25,0,0,0-1.68.23,7.52,7.52,0,0,0-1,.44,7.67,7.67,0,0,1-1.24.45,22.58,22.58,0,0,1-3,.22,38.07,38.07,0,0,1-4.93-.11c-.55,0-.78-.11-.89-.22a.39.39,0,0,1-.23-.11c0-.12.11-.23.34-.23s.11-.11,2.34-.11h1.91l-.45-.45-.45-.44h-2.34c-2.58,0-2.47,0-2.69-.11s-.45-.23-.33-.35.21-.11.44-.21h4.14v-.9h-5.93c-.22-.11-.45-.33-.45-.44s.12-.23.23-.34,0-.12,3.24-.12h2.91v-.89h-4c-.22,0-.44-.11-.44-.23s0-.11.1-.22.12-.11.34-.11a20.68,20.68,0,0,1,2.91-.12h2.8v.23c.11,1.23.9,2.13,2.57,2.46a4.66,4.66,0,0,0,.9.23l.11-.89a.38.38,0,0,0-.23-.12,3.37,3.37,0,0,1-2-.78,1.59,1.59,0,0,1-.33-.45v-.45l-.11-.23h.11c.11,0,2.8-.55,2.8-.55s-.34-.12-.79-.23a3,3,0,0,1-.78-.1h0v-.12h.11a1.19,1.19,0,0,1,.56-.22c.11-.12.11-.12.23-.12l.1-.11.23.11,1.34.79c.67.34.78.45.9.45a19.21,19.21,0,0,0,2.79.22h.23v-.9h-.44a9.35,9.35,0,0,1-2.24-.22c-.12,0-.12,0-.8-.34a7.51,7.51,0,0,0-2-1l-.22-.11-.11.11c-.23.11-.34.22-.56.33a3.28,3.28,0,0,1-1.23.23,3.14,3.14,0,0,1-1-.11,3.33,3.33,0,0,1-1.22-.68A.11.11,0,0,1,150.26,54.25Zm-31,.9a.11.11,0,0,1,.11.11c.11.11.11.11.11.22v.57l-.11-.12c-.11,0-.11-.11-.11-.22a1,1,0,0,0,0-.56Zm30.77.11a.38.38,0,0,0,.22.11,3.38,3.38,0,0,0,1.56.68h-2.68a1.14,1.14,0,0,1-.79-.46c-.1-.11-.1-.11,0-.11h.34a2.87,2.87,0,0,0,1.12-.11A.43.43,0,0,0,150,55.26Zm-39.83,2.35V62H133.7V57.61h-8.51l-.11.11a3.79,3.79,0,0,1-2.35,1.12h-1.11c-.23-.11-.57-.11-.67-.22a1.4,1.4,0,0,1-.68-.33,1.37,1.37,0,0,1-.55-.57l-.11-.11h-9.4Z"/></svg>