<svg xmlns="http://www.w3.org/2000/svg" viewBox="0 0 992.94 113.82"><defs><style>.a,.d{fill:#fff;}.a{stroke:#000;stroke-miterlimit:10;stroke-width:0.5px;}.a,.c,.d,.e,.f{fill-rule:evenodd;}.b,.c{fill:#564a7f;}.e{fill:#ac322d;}.f{fill:#000b0d;}</style></defs><title>FG008_C</title><polygon class="a" points="80.62 113.57 0.43 55.84 80.62 0.26 912.32 0.25 992.51 57.98 912.32 113.56 80.62 113.57"/><rect class="b" x="88.92" y="8.05" width="815.52" height="97.53"/><polygon class="c" points="911.33 8.04 980.35 56.81 911.33 105.58 911.33 8.04"/><polygon class="c" points="81.58 8.04 12.56 56.81 81.58 105.58 81.58 8.04"/><path class="d" d="M420.25,53.24c0,8.28,6.26,15.69,19.51,15.69s19-7.05,19-14.61c0-5.76-3.6-11-11.3-13l-10.88-2.6c-3.16-.93-3.52-1.29-4.1-1.94a4.6,4.6,0,0,1-1.3-3c0-2.67,2.31-5.76,8.79-5.76a9.52,9.52,0,0,1,6.91,2.44A7.7,7.7,0,0,1,449,35.31l8.93.07c-.29-4.9-2-7.92-4.47-10.22s-7.49-4.47-14-4.47c-12,0-17.49,6.63-17.49,14.11,0,5.76,3.24,10.52,11.16,12.46l9.21,2.3c1.73.44,4.11.72,5.62,2.67a5.15,5.15,0,0,1,1.15,3c0,3-2.3,6.34-9.58,6.34s-10.08-3.75-10-8.28Zm65.3-3-.07,4.11c0,4.61-2.88,7.49-7.85,7.49-3.67,0-5.4-2.16-5.4-4.11,0-1.65.44-3.24,6-4.89l3.82-1A9.45,9.45,0,0,0,485.55,50.28Zm-.07,13.47a12.89,12.89,0,0,0,1,3.67h9A4.84,4.84,0,0,1,494,64.11V46.25c0-7.85-4-12.6-14.62-12.6-9.93,0-14,5.47-13.82,11l7.7.14c0-2.45,1.87-4.75,6.34-4.75,4.25,0,5.76,2.09,5.76,3.67,0,1.3-.79,2.59-3.24,2.88l-4.9.94c-7.27,1.29-9.21,2.66-10.65,3.81a9.5,9.5,0,0,0-3,6.77c0,5.47,4.25,10.3,12.53,10.3C480.87,68.36,483.61,66.7,485.48,63.75Zm16.35,3.67h8.85V22.13H501.9Zm32.25-5.62c-4.25,0-7.85-2.8-7.85-9.79,0-7.85,3.89-10.65,7.49-10.65s7.56,2.88,7.56,10.15C541.28,56.26,539.27,61.8,534.08,61.8Zm-7.85,1.8c1.88,3,5,4.83,9.58,4.83,8.86,0,14.4-8.14,14.4-17.5,0-8.85-5.47-17.13-14.33-17.13a11.57,11.57,0,0,0-9.43,4.46L526,35h-8.64V78h8.85Zm38.38-16.34a7.46,7.46,0,0,1,7.13-6.7,7.31,7.31,0,0,1,7.27,6.7Zm-.36,6.34h24.19c0-9.65-4.39-20-16.63-20s-16.34,10-16.34,17.43c0,10.8,7.27,17.49,16.34,17.49,9.22,0,14.62-5,16.06-10.58L579,57.41c-1.66,3-4,4.25-6.84,4.25C568.07,61.66,564.68,58.78,564.25,53.6ZM611.7,67.42v-6.7h-3.1A3.42,3.42,0,0,1,606,59.5c-.22-.29-.43-.72-.43-2.59V40.85h5.9V34.8h-5.9V24.58h-8.79V34.8h-4.6v6.05h4.6V57.63c0,7.34,3,9.79,7.85,9.79Zm13.61-20.16a7.45,7.45,0,0,1,7.12-6.7c3.53,0,6.63,2.45,7.2,6.7ZM625,53.6h24.19c0-9.65-4.39-20-16.63-20s-16.35,10-16.35,17.43c0,10.8,7.27,17.49,16.35,17.49s14.61-5,16-10.58l-8.93-.58a7.25,7.25,0,0,1-6.76,4.25C628.76,61.66,625.38,58.78,625,53.6Zm30.16,13.82H664V53c0-4.82,1.15-7.13,2.66-8.64a7.57,7.57,0,0,1,5.84-2.66c.57,0,1.08.14,1.51.14l.14-7.7a7.29,7.29,0,0,0-1.94-.15,8.25,8.25,0,0,0-8.07,5.76l-.36-5h-8.56Zm23-10.8c.22,6.05,5.4,11.95,15.27,11.95,10.29,0,14.69-5.4,14.69-11.3a9.09,9.09,0,0,0-2-5.62c-1.22-1.51-2.74-2.81-6.62-3.6l-9.36-2.16c-2-.5-2.74-1.73-2.74-2.88s1.15-3.31,5.4-3.31c4.61,0,6.7,2.52,6.77,5.11l7.7-.21a11.14,11.14,0,0,0-4.68-8.5c-1.87-1.37-5-2.52-9.72-2.52-9.29,0-13.46,5-13.46,10.66a8.57,8.57,0,0,0,2.23,6.12c1.15,1.15,2.66,2.23,6.19,3L694.93,55c4,.94,4.61,2.24,4.61,3.68s-1.37,3.74-6.19,3.74c-4.61,0-6.92-2.59-7.28-5.9Zm38.24,14.47v6.84h6.4c7.78,0,9.51-6.05,10.16-8L745.4,34.8H736L729.63,55,722.72,34.8h-9.43l10.08,27.58a10.43,10.43,0,0,1,.86,4.46c0,2.52-1.44,4.4-5.18,4.25Zm33.69-3.67H759V53c0-4.82,1.15-7.13,2.59-8.64a7.72,7.72,0,0,1,5.91-2.66c.57,0,1,.14,1.51.14l.07-7.7a7,7,0,0,0-1.94-.15,8.32,8.32,0,0,0-8.07,5.76l-.36-5h-8.49Zm42.41-17.14-.07,4.11c0,4.61-2.88,7.49-7.85,7.49-3.67,0-5.4-2.16-5.4-4.11,0-1.65.43-3.24,6-4.89l3.81-1A9.43,9.43,0,0,0,792.49,50.28Zm-.07,13.47a12.26,12.26,0,0,0,1,3.67h9a4.81,4.81,0,0,1-1.52-3.31V46.25c0-7.85-4-12.6-14.61-12.6-9.94,0-14,5.47-13.83,11l7.71.14c0-2.45,1.87-4.75,6.33-4.75,4.25,0,5.76,2.09,5.76,3.67,0,1.3-.79,2.59-3.24,2.88l-5,.94c-7.2,1.29-9.22,2.66-10.59,3.81a9.49,9.49,0,0,0-3,6.77c0,5.47,4.25,10.3,12.53,10.3C787.81,68.36,790.55,66.7,792.42,63.75Z"/><path class="d" d="M578.73,96.22h4V88h8.42V84.87H582.7V80.23h9.88V77H578.73ZM597,89.14l2.63-8.3,2.5,8.3Zm-6.28,7.08h4l1.28-4h7l1.22,4h4.09L601.79,77h-4.27Zm22.94-10.68V80.23h4.45a2.49,2.49,0,0,1,1.77.43,2.74,2.74,0,0,1,1.22,2.26c0,1.46-1.16,2.68-3.17,2.68Zm-3.9,10.68h3.9l.06-7.57h3.48a3.29,3.29,0,0,1,2.93,1.59,4.11,4.11,0,0,1,.36,1.22c.37,1.59,0,3.3.74,4.76h4a5.31,5.31,0,0,1-.61-2l-.3-3.36a3.58,3.58,0,0,0-1-2.56,4.15,4.15,0,0,0-2.56-1.16A4.59,4.59,0,0,0,625,82.37c0-3-2.38-5.55-6.47-5.37h-8.72ZM633,89.14l2.62-8.3,2.51,8.3Zm-6.28,7.08h4l1.29-4h7l1.22,4h4.09L637.79,77h-4.27Z"/><path class="e" d="M116.66,35.72,95.52,56.86l21.14,21,21,21.15L158.84,77.9,180,56.75l-21.16-21c-11.52-11.64-21-21.15-21-21.15S128.19,24.08,116.66,35.72Z"/><path class="d" d="M155.48,39.07l17.8,17.68-17.8,17.79L137.7,92.45,120,74.54,102.22,56.75,120,39.07c9.74-9.85,17.69-17.78,17.79-17.78S145.76,29.22,155.48,39.07Z"/><path class="f" d="M140.5,40h-.23a2.4,2.4,0,0,0-1.34.45,1.54,1.54,0,0,0-.67.56,1.9,1.9,0,0,0,.34,2.57,3.55,3.55,0,0,0,.66.56,5.53,5.53,0,0,0,1.57.34c.45.1,2.23.33,3.8.67s4,.67,5.27.89c1.67.23,2.34.34,2.45.34s.34.23.45.33l.12.11a.42.42,0,0,0-.12.23,1,1,0,0,0-.33.78v.89a1.15,1.15,0,0,0,.67.91h0a1.82,1.82,0,0,1-.12.66,7.06,7.06,0,0,0-.33,1.24c-.34.78-.34.78-.22,1.11a1.32,1.32,0,0,0,.55,1.23,1,1,0,0,0,.79,0,1.75,1.75,0,0,0,.55-1.45,2.86,2.86,0,0,0-.21-1.12c0-.23-.12-.56-.12-.67-.22-.45-.33-1-.22-1.11l.22-.12a2.55,2.55,0,0,1,.33-.55v-.68a1.58,1.58,0,0,0-.21-1,.94.94,0,0,1-.23-.67v-.78c0-.23.33-2.46.56-3.92a2,2,0,0,0,.11-.56h0c-.11,0-.23.11-.44.33a1.79,1.79,0,0,1-.79.57H153a5,5,0,0,1-.9-.12c-3.34-.67-10.06-1.9-10.84-2Zm-5.94.33H134c-.55.12-6.71,1.23-10.18,1.8a2.72,2.72,0,0,1-1,.21c-.11,0-.33-.1-.44-.1a2.41,2.41,0,0,1-.68-.57,1.69,1.69,0,0,0-.22-.33.36.36,0,0,0-.22-.11,5.52,5.52,0,0,1,.1,1.11c.34,1.69.67,3.48.67,3.7v1a6,6,0,0,1-.33.78c-.22.56-.34.68-.34,1a.94.94,0,0,0,.12.55c.11.33.22.56.45.67h0v.22a3.38,3.38,0,0,1-.34,1.46,4,4,0,0,1-.23.78,2.82,2.82,0,0,0-.21,1.11v.46c.11.56.33.9.67,1h.44c.23,0,.34-.1.56-.33a2.52,2.52,0,0,0,.34-1.13c0-.1-.11-.21-.22-.77-.23-1-.34-1.46-.45-1.91a4.07,4.07,0,0,0-.11-.67c0-.11,0-.11.11-.11a.8.8,0,0,0,.77-.66,1.08,1.08,0,0,0,.13-.67,3.66,3.66,0,0,0-.34-1.36.81.81,0,0,1-.11-.44c0-.11.22-.34.45-.44a12.74,12.74,0,0,0,2-.34c.9-.12,2.57-.45,3.8-.67,2.69-.45,3.92-.68,5-.79.45-.11.89-.23,1-.23a2.57,2.57,0,0,0,1.46-1,1.6,1.6,0,0,0,.33-1.68,2.26,2.26,0,0,0-1.56-1.45A2.07,2.07,0,0,0,134.56,40.3Zm6.15.56h.79c1.12.23,5.15.9,10,1.8,1.12.22,1.9.33,1.9.33l-.22,1.46s-1.12-.11-2.58-.23c-5.48-.45-8.5-.67-9.73-.78a3.25,3.25,0,0,0-.9-.11c-.67-.23-1.12-.56-1.12-1.23s.56-1,1.23-1.24Zm-6.15.34c.12,0,.45.11.56.11a2.27,2.27,0,0,1,1,.56c0,.23.11.34.11.57-.11.78-.68,1.23-1.79,1.23-.9.1-6.72.67-11.2,1a1.44,1.44,0,0,1-.55.11l-.22-1.45s.56-.11,5.82-1c4.14-.78,5.82-1,5.93-1s.22,0,.22-.11Zm24.84,5.26-.1.12a2.65,2.65,0,0,0-.34.33,2.25,2.25,0,0,0-.68,1v.91c.12.33.12.44,0,.55s0,.12-.11.23c-.45,0-.67.33-.9.66a1.36,1.36,0,0,0-.1.67.89.89,0,0,1-.11.57,1.46,1.46,0,0,1-.57.56h-.1c0,.11.21.89.21.89a.57.57,0,0,0,.34-.11,2,2,0,0,0,1-1.12,1.16,1.16,0,0,0,.12-.68v-.33h.11c0-.11,0-.22.11-.22l.12-.12a1.25,1.25,0,0,0,.77-.55c0-.22.13-.33.13-.56a1.7,1.7,0,0,0-.13-.67c0-.45,0-.57.46-1,.11-.12.33-.33.33-.45l.12-.11Zm-3.24.67v.23a1,1,0,0,0,.23.78c.1.34.1.45,0,.55s0,.23-.23.34a1.32,1.32,0,0,0-.56.79.89.89,0,0,0,0,.78,1,1,0,0,1-.12.56c-.1.34-.1.45-.45.67l-.21.23.56.67s.44-.34.55-.45a2,2,0,0,0,.46-.78,2.18,2.18,0,0,0,.1-.79V50c0-.11,0-.22.23-.34a.81.81,0,0,0,.45-.44,1.76,1.76,0,0,0,.22-.67,1.24,1.24,0,0,0-.22-.79.41.41,0,0,1-.11-.34v-.1l-.23-.11h-.44A.38.38,0,0,0,156.16,47.13Zm-8.84.23a1.1,1.1,0,0,0-.33.22l-.34.33.22.23a2.29,2.29,0,0,0,.22.34,2.24,2.24,0,0,1,.34.78v.23a.8.8,0,0,0-.11.33,1.24,1.24,0,0,0,.34.89,1,1,0,0,0,.55.56c.23,0,.23.11.23.23s.11.11.11.22a.69.69,0,0,0,.11.78,1.93,1.93,0,0,0,1,1.11.33.33,0,0,0,.23.13l.21-.9H150a4.83,4.83,0,0,1-.57-.67v-.34a2.28,2.28,0,0,0-.11-.79c-.11-.11-.11-.21-.33-.33s-.22-.22-.34-.34-.34-.11-.34-.22-.11-.22,0-.45V49a3.35,3.35,0,0,0-.55-1.12C147.66,47.8,147.32,47.36,147.32,47.36Zm2.79.44h-.33c0,.11-.22.11-.34.11h-.34V48c.12.12,0,.23-.1.57a1.53,1.53,0,0,0-.12.67,1.26,1.26,0,0,0,.34.89c.11,0,.22.11.34.22a.38.38,0,0,1,.22.12.39.39,0,0,1,.12.34V51a1.17,1.17,0,0,0,0,.9,4.36,4.36,0,0,0,.78,1l.11.22.33-.33.34-.34-.22-.22c-.23-.22-.34-.34-.34-.45a.67.67,0,0,1-.11-.45v-.11c0-.23.11-.34,0-.56a1.12,1.12,0,0,0-.23-.67c-.11-.11-.22-.34-.45-.44s-.21-.11-.21-.23-.12-.11-.12-.22a1.16,1.16,0,0,0,.12-.33,1.75,1.75,0,0,0,.11-.68Zm-23,2.91a1.47,1.47,0,0,0-.23.33,1.8,1.8,0,0,0-.45.34,2.07,2.07,0,0,0-.44,1v1.12c0,.23,0,.33-.33.44-.68.34-.79.46-.9,1.24v.56a1.21,1.21,0,0,0-.23.33V56a1,1,0,0,0,0-.79c-.1-.22-.1-.34,0-.45s.11-.22.34-.33.45-.46.45-.67.11-.23.11-.46a2.45,2.45,0,0,0-.11-.67,1.36,1.36,0,0,1-.12-.55v-.12l-.9-.22v.22a3.74,3.74,0,0,0,.13,1,.43.43,0,0,1,.1.33v.12a2,2,0,0,1-.23.21c-.33.34-.55.46-.67.8a.4.4,0,0,1-.11.33,1,1,0,0,0,.11.56v.45a1.77,1.77,0,0,1-.21.44c0,.12-.23.23-.34.34l-.11.12c.11,0,.55.66.55.66a.11.11,0,0,0,.11-.11.88.88,0,0,0,.46-.45h.11v.45h.1a.85.85,0,0,0,.46-.22,1.73,1.73,0,0,0,.77-.79c.13-.21.13-.34.13-.78a2,2,0,0,0,.1-.44c0-.12.11-.12.23-.12a1.58,1.58,0,0,0,.78-.67,2.87,2.87,0,0,0,.11-1V52.5c.11-.22.45-.67.67-1h.12L127.4,51A.75.75,0,0,1,127.07,50.71ZM116.89,51a1.76,1.76,0,0,0-.34.23c-.45.34-.45.34-.33.34l.21.22a2.86,2.86,0,0,1,.57.9c.1.11.1.11.1.22v.33a.6.6,0,0,0-.1.33,1.28,1.28,0,0,0,.33.91c.11.22.22.22.56.45a.77.77,0,0,1,.34.22v.45c0,.34,0,.44.1.55A2.18,2.18,0,0,0,119,57a2.07,2.07,0,0,1,.56.45h.11v-.12h0l.11.12a4.58,4.58,0,0,1,.45.56l.33-.34.34-.34h0a3.3,3.3,0,0,1-.67-.89V56a1.26,1.26,0,0,0,0-.91c0-.33-.23-.55-.56-.78s-.34-.11-.34-.22h-.1l.1-.12v-.34a2.4,2.4,0,0,0,.23-.88V52.5h-.9v.23c-.11.22-.11.33-.22.55a1.57,1.57,0,0,0-.12.67v.23l-.1-.11C118,54,118,54,118,53.84s-.11-.1,0-.33a3.52,3.52,0,0,0-.11-1.12c-.11-.22-.34-.56-.56-.89-.1-.12-.23-.23-.33-.34Zm33.22,3.14H150a2.52,2.52,0,0,1-1.46.34c-.68,0-.78,0-1,.11a1.14,1.14,0,0,0-.45.56.4.4,0,0,0,.11.33c0,.12.12.33.12.46h-1.68a1.41,1.41,0,0,0-1.23.77c0,.11-.11.34-.11.45v.34H144c-.22,0-.33,0-.44.11a1.39,1.39,0,0,0-1,.78c-.12.12-.12.23-.12.46a1.3,1.3,0,0,0,.79,1.22,1.67,1.67,0,0,0,.78.11h.22v.57a1.54,1.54,0,0,0,.68.78,2.68,2.68,0,0,0,1,.22h0v.11a1.28,1.28,0,0,0,.34.9,2.51,2.51,0,0,0,1.34.55c.46,0,2.13.12,3.92.12h1.9a9.84,9.84,0,0,0,2.9-.34,6.53,6.53,0,0,0,1.24-.45l.67-.33a6.19,6.19,0,0,1,1.57-.22h.34v-.9h-.34a7.77,7.77,0,0,0-1.68.22,7.94,7.94,0,0,0-1,.45,9.75,9.75,0,0,1-1.24.45,22.74,22.74,0,0,1-3,.22,38.07,38.07,0,0,1-4.93-.11c-.55,0-.78-.11-.88-.23a.4.4,0,0,1-.23-.1c0-.12.11-.23.33-.23s.11-.11,2.35-.11h1.9l-.44-.45-.45-.44H148.1c-2.57,0-2.46,0-2.68-.11s-.46-.23-.34-.35.22-.11.45-.22h4.14v-.89h-5.93c-.22-.11-.45-.34-.45-.44s.11-.23.23-.34,0-.12,3.24-.12h2.91v-.89h-4c-.22,0-.45-.11-.45-.23s0-.11.11-.22.12-.11.34-.11a20.49,20.49,0,0,1,2.91-.12h2.79v.23c.12,1.23.9,2.13,2.58,2.46a4.44,4.44,0,0,0,.9.22l.11-.88a.37.37,0,0,0-.23-.13,3.31,3.31,0,0,1-2-.77,1.8,1.8,0,0,1-.34-.45v-.45l-.11-.23h.11c.12,0,2.81-.55,2.81-.55s-.34-.12-.8-.23a3.06,3.06,0,0,1-.78-.1h0v-.13h.12a1.3,1.3,0,0,1,.55-.21c.11-.12.11-.12.23-.12l.11-.11.23.11,1.34.79c.67.34.78.44.9.44a17.6,17.6,0,0,0,2.79.23h.23v-.9h-.45a8.74,8.74,0,0,1-2.24-.23c-.12,0-.12,0-.79-.33a7.81,7.81,0,0,0-2-1l-.23-.11-.11.11c-.22.11-.33.22-.55.33a3.34,3.34,0,0,1-1.23.22,3.4,3.4,0,0,1-1-.1,3.45,3.45,0,0,1-1.23-.68A.11.11,0,0,1,150.11,54.18Zm-31,.89a.11.11,0,0,1,.11.12c.1.11.1.11.1.22V56l-.1-.13c-.11,0-.11-.1-.11-.21a1,1,0,0,0,0-.57Zm30.77.12a.38.38,0,0,0,.21.11,3.53,3.53,0,0,0,1.57.68H149a1.14,1.14,0,0,1-.79-.46c-.11-.11-.11-.11,0-.11h.34a2.9,2.9,0,0,0,1.12-.11A.43.43,0,0,0,149.9,55.19Zm-39.83,2.35V61.9h23.48V57.54h-8.5l-.11.11a3.8,3.8,0,0,1-2.35,1.11h-1.12c-.22-.1-.56-.1-.67-.21a1.26,1.26,0,0,1-.67-.34,1.37,1.37,0,0,1-.56-.56l-.11-.11h-9.39Z"/><path class="e" d="M209.68,35.72,188.54,56.86l21.14,21,21,21.15L251.86,77.9,273,56.75l-21.16-21c-11.51-11.64-21-21.15-21-21.15S221.21,24.08,209.68,35.72Z"/><path class="d" d="M248.51,39.07,266.3,56.75l-17.79,17.9-17.79,17.8L213,74.54l-17.8-17.79L213,39.07c9.73-9.85,17.68-17.78,17.79-17.78S238.78,29.22,248.51,39.07Z"/><path class="f" d="M230.38,26.21c-1.33,1.45,0,7.27-2.68,12.75-1.46-1.45-2-4.25-3.59-5.71.79,2.13-1.56,2-.66,9.52-1.23-.33-1.35-.79-4.14-4.25.55,3.35.22,5.36.89,9.06,0,0-.67-.12-4-2.57,1.12,3.58-.78,11.18,3.48,16.44h0a11,11,0,0,0,8.27,10h-8.16v3.47h22.7V71.41h-8.83a11,11,0,0,0,8.05-8.61h0c1.12-1.8,6.16-7.61,2.24-16.9a5.92,5.92,0,0,1-3.13,2.58s2.58-4.37.44-7.95c0,0-.67,2.57-2.79,2.69,0,0,1-5.6-1.79-9.07-1,2.36.56,3.24-2.8,5.27C233.29,32.14,231.84,30.91,230.38,26.21ZM229.71,42a6,6,0,0,1,2.46,4.81,15.83,15.83,0,0,0,.9,3,8.52,8.52,0,0,0-2.35-.22,11.7,11.7,0,0,0-2.8.33C227.7,46.12,229.71,46.91,229.71,42Zm-4.81,2.8a17.19,17.19,0,0,0,1.79,5.48,20.23,20.23,0,0,0-2.58,1.46C223.67,48.36,224.68,47.58,224.9,44.78Zm11.64,1.68a42.11,42.11,0,0,0,1.11,5.48,12.22,12.22,0,0,0-3.58-1.9A14.45,14.45,0,0,1,236.54,46.46Zm-16.89,3.69a13.47,13.47,0,0,0,3.68,2.24A11.66,11.66,0,0,0,221,55.3,39.82,39.82,0,0,1,219.65,50.15Zm22.15,1.23a18,18,0,0,1-.45,5.82h0a14.76,14.76,0,0,0-2.35-4A21,21,0,0,1,241.8,51.38Zm-11.19,1.23a8,8,0,1,1-7.94,8A8,8,0,0,1,230.61,52.61Z"/></svg>