<svg xmlns="http://www.w3.org/2000/svg" viewBox="0 0 992.94 113.82"><defs><style>.a,.d{fill:#fff;}.a{stroke:#000;stroke-miterlimit:10;stroke-width:0.5px;}.a,.c,.d,.e,.f{fill-rule:evenodd;}.b,.c{fill:#564a7f;}.e{fill:#ac322d;}.f{fill:#000b0d;}</style></defs><title>FG006_C</title><polygon class="a" points="80.62 113.57 0.43 55.84 80.62 0.26 912.32 0.25 992.51 57.98 912.32 113.56 80.62 113.57"/><rect class="b" x="88.92" y="8.12" width="815.52" height="97.53"/><polygon class="c" points="911.33 8.12 980.35 56.88 911.33 105.65 911.33 8.12"/><polygon class="c" points="81.58 8.12 12.56 56.88 81.58 105.65 81.58 8.12"/><path class="d" d="M427.16,67.56h9.15V37L455,67.56h9.58V22.28h-9.22V53l-19-30.67h-9.15Zm65.23-17.13v4.1c0,4.61-2.88,7.49-8,7.49-3.53,0-5.4-2.16-5.4-4.1,0-1.66.58-3.24,6.12-4.9l3.82-1A9.78,9.78,0,0,0,492.39,50.43Zm0,13.46a7.51,7.51,0,0,0,1,3.67h8.86a5.24,5.24,0,0,1-1.37-3.31V46.4c0-7.85-4-12.6-14.76-12.6-9.79,0-13.9,5.47-13.68,10.94l7.7.14c0-2.44,1.88-4.75,6.34-4.75,4.25,0,5.62,2.09,5.62,3.67,0,1.3-.8,2.6-3.1,2.88l-5,.94c-7.13,1.3-9.07,2.66-10.51,3.82a8.89,8.89,0,0,0-2.95,6.76c0,5.48,4.24,10.3,12.38,10.3C487.64,68.5,490.52,66.84,492.39,63.89ZM526,67.56V60.87h-3.39a3.42,3.42,0,0,1-2.52-1.23,6.39,6.39,0,0,1-.36-2.59V41h5.91V35h-5.91l-.07-10.23H511V35h-4.61v6H511V57.77c0,7.35,2.95,9.79,7.85,9.79Zm6.41,0h8.78V53.16c0-4.82,1.22-7.12,2.66-8.64a7.79,7.79,0,0,1,6-2.66c.43,0,.94.14,1.51.14V34.3a7.49,7.49,0,0,0-1.87-.14,8.61,8.61,0,0,0-8.21,5.76l-.21-5h-8.64ZM556,30.12h8.79V22.28H556Zm0,37.44h8.79V35H556ZM592,63.89l.5,3.67h8.28V35.09L592,35V53.31c0,4.89-2.88,7.49-6.41,7.49-3.24,0-5.33-1.73-5.33-6.34V35h-8.71V57.41c0,4.25,1.23,6.55,3.17,8.43a11.63,11.63,0,0,0,8.06,2.73C586.79,68.57,590,67,592,63.89Zm15.55,3.67h8.64V48.77c0-4.68,2.67-7,6.27-7a4.32,4.32,0,0,1,4.32,2.73c.14.22.36.94.36,3.6V67.56h8.64V48.2c0-4.11,2.66-6.56,6.12-6.56,3,0,5,1.73,5,5.55V67.56h8.64V44.74c-.28-6.77-4.6-10.8-10.51-10.8a11,11,0,0,0-10,5.76,10.69,10.69,0,0,0-9.57-5.62c-4.47,0-7.35,1.8-9.07,5.19L616,35.09,607.52,35Zm54.36,0h8.79V49.35a7.81,7.81,0,0,1,1.22-4.83,6.86,6.86,0,0,1,5.33-2.73c3.09,0,5.18,2,5.18,5.61V67.56h8.71V44.67c0-6.12-4.46-10.87-11.16-10.87-4.68,0-7.92,2.59-9.07,5.11l-.36-3.82L661.88,35ZM698,30.12h8.72V22.28H698Zm0,37.44h8.72V35H698Zm33.77,0V60.87h-3.38a3.27,3.27,0,0,1-2.52-1.23,5.07,5.07,0,0,1-.36-2.59V41h5.9V35h-5.9l-.07-10.23h-8.64V35h-4.61v6h4.61V57.77c0,7.35,3,9.79,7.77,9.79Zm6.41,0h8.78V53.16c0-4.82,1.23-7.12,2.6-8.64a8,8,0,0,1,6-2.66c.44,0,.87.14,1.44.14V34.3a6.91,6.91,0,0,0-1.8-.14,8.61,8.61,0,0,0-8.2,5.76l-.22-5h-8.64Zm23.62-37.44h8.78V22.28h-8.78Zm0,37.44h8.78V35h-8.78Zm33.76,0V60.87h-3.38a3.39,3.39,0,0,1-2.52-1.23,6.39,6.39,0,0,1-.36-2.59V41h5.9V35h-5.9l-.07-10.23h-8.64V35h-4.61v6h4.61V57.77c0,7.35,3,9.79,7.85,9.79Z"/><path class="d" d="M578.73,96.36h4V88.19h8.42V85H582.7V80.38h9.88V77.14H578.73ZM597,89.29l2.63-8.3,2.5,8.3Zm-6.28,7.07h4l1.28-4h7l1.22,4h4.09l-6.59-19.22h-4.27Zm22.94-10.67V80.38h4.45a2.45,2.45,0,0,1,1.77.43,2.71,2.71,0,0,1,1.22,2.25c0,1.47-1.16,2.69-3.17,2.69Zm-3.9,10.67h3.9l.06-7.56h3.48a3.3,3.3,0,0,1,2.93,1.58,4.2,4.2,0,0,1,.36,1.22c.37,1.59,0,3.3.74,4.76h4a5.25,5.25,0,0,1-.61-2l-.3-3.36a3.58,3.58,0,0,0-1-2.56,4.15,4.15,0,0,0-2.56-1.16A4.58,4.58,0,0,0,625,82.51c0-3-2.38-5.55-6.47-5.37h-8.72ZM633,89.29l2.62-8.3,2.51,8.3Zm-6.28,7.07h4l1.29-4h7l1.22,4h4.09l-6.59-19.22h-4.27Z"/><polygon class="e" points="281.49 57.01 323.67 99.2 365.97 56.9 323.78 14.71 281.49 57.01"/><polygon class="d" points="359.25 56.9 323.67 92.48 288.19 56.9 323.78 21.43 359.25 56.9"/><path class="f" d="M316.75,65.64l-.48,0,1.09.49h0l.29.25.06-.09h0l2.25,1h-.06l-1,.39c-2.8,1.18-4.61,2-5.4,2.36a2,2,0,0,0-.91-.16,17.88,17.88,0,0,0-3.7.58c-.82.19-1.57.39-2.24.58a.24.24,0,0,0-.14.1.27.27,0,0,0-.06.17.27.27,0,0,0,.28.28l34.62.17h0a.27.27,0,0,0,.28-.28V69.59a.27.27,0,0,0-.28-.28h-2.18l1-1.32a.25.25,0,0,0,.06-.16.26.26,0,0,0-.08-.19.27.27,0,0,0-.18-.1l-4-.35,2.82-1.41a.35.35,0,0,0,.11-.1.28.28,0,0,0,0-.15.28.28,0,0,0,0-.13.28.28,0,0,0-.09-.1l-2.38-1.68a12.42,12.42,0,0,0,3.74-4.11l0-.06H342V56.77h-.84a6.19,6.19,0,0,0,.08-1h0V54.68l-3.13,1,.31-.59L339,54l-1.2-.13c-.27,0-.53,0-.79,0a9.88,9.88,0,0,0-6.65,3H319.86v-2l3.27-3.71a3.55,3.55,0,0,1,2.21-.71l3.35-5.3s-2.11,2.47-3,3.27a5.2,5.2,0,0,1-3.18.62c-1,.26-3,2.74-3,2.74s.44-1.15,1.14-2.66a4.34,4.34,0,0,0,.28-3.26c-.18-1.06,3.79-6,3.79-6v-.52l-4.07,4.67-.7-5.2h-.44s.26,4.76.35,5.73.09,2.48.09,2.48l-2.47,3.62s-1.68-6.28-2.12-7.42.17-4.86.17-4.86l-.53.18L314.21,41l-2.47-3.8-.36.27s.8,1.5,1.77,3.27.89,4.59.89,4.59l-5-3V43s3.71,2.91,4.59,3.62,1.33,3.44,1.33,3.44-3.54-1.67-4.07-1.85-3.17,2.12-3.17,2.12a7.31,7.31,0,0,1,.88-.27,2.24,2.24,0,0,1,1.85.18l5,2.74-.1,3.78h-9.2v2.68h9.13c0,1-.06,2.22-.1,3.6l-4.06,2.3,4.77-.44Zm1.49-.16.67-1,5.3-.79-4.33-2.12v-2.2h8.06c-.59.76-1.2,1.61-1.82,2.56l-.32.48A5.71,5.71,0,0,1,324,64a15.16,15.16,0,0,1-2,1l-.11,0a9.39,9.39,0,0,1-2.12.29Zm4,.53a9.51,9.51,0,0,0,4.33-3c1.15-1.68,5.39-8.92,11.22-8.31-.35.71-1.33,2.39-1.33,2.39l4.07-1.24s.08,5.48-7.69,8.92c-3.71,1.33-4.41,1.33-4.77,1.77s-1.76,2.73-1.76,2.73l-6.45-2.91A11.88,11.88,0,0,0,322.27,66Zm14.49-7a.69.69,0,0,1,.71-.62.62.62,0,1,1,0,1.24A.68.68,0,0,1,336.76,59Z"/><path class="e" d="M116.66,35.86,95.52,57l21.14,21,21,21.16L158.84,78,180,56.9l-21.16-21c-11.52-11.63-21-21.15-21-21.15S128.19,24.23,116.66,35.86Z"/><path class="d" d="M155.48,39.22l17.8,17.68-17.8,17.79L137.7,92.59,120,74.69,102.22,56.9,120,39.22c9.74-9.85,17.69-17.79,17.79-17.79S145.76,29.37,155.48,39.22Z"/><path class="f" d="M137.8,31.84c-2.68,5,.57,7.83-3,15.22C133,45.6,134,40,130.31,39.9a5.56,5.56,0,0,1,.11,3c-.45,2.34-1.23,4.58.45,7.71-2.57-1.23-2.68-3.47-4.81-4.92.44,2.35-.57,7.27,2.24,12.08-2.58-.33-3.36-1.23-6.15-3.91,2.9,15,5,15.44,15.65,16.22a9.73,9.73,0,0,1-8.05-7c-.11-1.57-.22,1.34,4.93,1.34-3.25-5.15-2.36-4.14-2-7.15,1.34,2.12.22,2.23,4,3.8-1.23-3.8,1.79-6.49,1.23-10.86.78,1.91,3.8,1.57,3.69,10.86,2.47-2.8,2.69-.9,3.92-3.92.11,1.68.78,3.81-2.58,7.39.9.22,2.35.44,4.71-1.12-2.36,2.57-.23,2.57-6,6.82,7.27.12,12-4.48,11.86-14.55-.22.9-.45,2.58-4.37,3.14a10.18,10.18,0,0,0,1.8-11.3c-.67.67-1.68,3.68-4.25,4.48a9.82,9.82,0,0,0,1-4.92,10.4,10.4,0,0,0-1.9-6.61c-.68,4.58-.57,6.82-3.48,7.49.44-2.68.57-3.92-.89-6.93S138.26,34.75,137.8,31.84Zm-12,40.84v2.68h25.51V72.68H125.83Z"/><path class="e" d="M209.68,35.86,188.54,57l21.14,21,21,21.16L251.86,78,273,56.9l-21.16-21c-11.51-11.63-21-21.15-21-21.15S221.21,24.23,209.68,35.86Z"/><path class="d" d="M248.51,39.22,266.3,56.9,248.51,74.69l-17.79,17.9L213,74.69,195.24,56.9,213,39.22c9.73-9.85,17.68-17.79,17.79-17.79S238.78,29.37,248.51,39.22Z"/><path class="f" d="M231.27,33.41c4,0,5.91,1.85,8.12,3.8l1.06,1,.45.35c1.76,1.51,3,2.66,3,3.89a9,9,0,0,1-2.11,5l-.18.36a17.18,17.18,0,0,1,.35,2.73,3.78,3.78,0,0,1-1.76,3.19c1.41-.63,3.09-1.42,3.7-1.69a8.43,8.43,0,0,0,2-2l.18-.35a3.57,3.57,0,0,1,2.82-1.5,1.88,1.88,0,0,1,1.32.62,2.41,2.41,0,0,1,.71,1.94,2.63,2.63,0,0,1,1.33,2V54a1.84,1.84,0,0,1-1.86,1.94,4.25,4.25,0,0,1-1.86-.53,7.37,7.37,0,0,0-1-.44h-.18a2.66,2.66,0,0,0-1.23.27c-.1,0-6,3-7.42,3.79a.33.33,0,0,0-.09.27c2.12,1,5.74,2.73,6.18,2.91l.44.18c.18.09.18.17.79.17A3.4,3.4,0,0,0,247,62.2a6.44,6.44,0,0,1,2.21-.44c1.24,0,3.09.88,3.09,2.29,0,1.24-.79,1.59-2.12,2.21l-.52.27c-.18.71-.27,1.32-.36,1.59A2.34,2.34,0,0,1,247,70a3,3,0,0,1-2.64-2.3,2.75,2.75,0,0,0-1.68-2.29l-6.45-3.18a7.82,7.82,0,0,1-1.41,1h-.09a9.49,9.49,0,0,1-3.26,1.24,12.3,12.3,0,0,1-3.89-1.24,12.9,12.9,0,0,1-1.15-.7l-5.3,2.47-.88.44a2.52,2.52,0,0,0-1.59,2.29A3.26,3.26,0,0,1,215.9,70a2.34,2.34,0,0,1-2.29-1.85c-.09-.27-.18-.88-.36-1.59l-.53-.27c-1.32-.62-2.12-1-2.12-2.21,0-1.41,1.86-2.29,3.19-2.29a6.17,6.17,0,0,1,2.11.44,3.36,3.36,0,0,0,1.15.35,1,1,0,0,0,.71-.17l.44-.18c.44-.18,3.62-1.68,5.74-2.74a2.51,2.51,0,0,1-.18-.79c-2.12-1.06-6.8-3.44-6.8-3.44a3.25,3.25,0,0,0-1.32-.27h-.18a4.59,4.59,0,0,0-1,.44,5,5,0,0,1-1.94.53A1.84,1.84,0,0,1,210.69,54V52.75a2.85,2.85,0,0,1,1.33-2,2.75,2.75,0,0,1,.7-1.94,1.92,1.92,0,0,1,1.33-.62,3.58,3.58,0,0,1,2.83,1.5l.26.35A6.56,6.56,0,0,0,219,52c.45.18,1.51.71,2.65,1.24a3.46,3.46,0,0,1-1.24-2.64c0-.8.18-2,.27-2.92l-.17-.27c-.89-1.32-2.13-3.09-2.13-5,0-1.23,1.24-2.29,2.92-3.89l.62-.43A11.34,11.34,0,0,1,223.06,37a13.37,13.37,0,0,1,2.56-2.12A12.46,12.46,0,0,1,231.27,33.41Zm0,1.33a9.89,9.89,0,0,0-5,1.23,8.52,8.52,0,0,0-2.29,1.86c-.44.35-.8.8-1.24,1.15l-.53.53c-1.32,1.15-2.56,2.29-2.56,2.91a6.07,6.07,0,0,0,1,2.92,1.66,1.66,0,0,1-.08-.89V44.1a4.08,4.08,0,0,1,1.76-3.54.55.55,0,0,1,.62,0c.18.18.18.27.36.36s-.1.44-.18.53c-1.24,1.15-1.33,1.77-1.33,2.65v.35c0,.36.53,2.47.53,3.1a17.46,17.46,0,0,0-.35,3c0,1.68.79,2,2,2.83l.35.18c.53.35,1,.61,1.33.88,1.32.7,2,1.15,2,2.47a2.79,2.79,0,0,0-.09.8c.09.44,1.94,1.59,3.71,1.59s3.53-1.15,3.53-1.59v-.8c0-1.41.71-1.77,2-2.56l1.33-.79.35-.18c1.23-.8,2.12-1.33,2.12-2.83a16.23,16.23,0,0,0-.36-3.09l-.08-.08.35-1.68a5.63,5.63,0,0,0,.26-1.77c0-.79-.08-1.15-1.32-2.47l.89-.79c1.32,1.41,1.67,1.94,1.67,3.26v.89a5.89,5.89,0,0,0,.62-2.39c0-.7-1.24-1.76-2.56-2.91l-.44-.45-1.15-1C236.39,36.15,234.71,34.74,231.27,34.74Zm-7.33,12.81h3.88c.44,0,1.5.35,1.5,1.05a2.5,2.5,0,0,1-.61,1.24c-.71,1-1.24,1.94-2.65,1.94-2.12,0-3-2.56-3-3.27A.9.9,0,0,1,223.94,47.55Zm10.5,0h4a.94.94,0,0,1,.88,1c0,.71-.88,3.27-3,3.27-1.41,0-2-1-2.65-1.94A2.55,2.55,0,0,1,233,48.6C233,47.9,234.09,47.55,234.44,47.55Zm-20.39,1.93a1.71,1.71,0,0,0-.44.09c-.45.44-.36,1.68-.36,2.57v.7a.6.6,0,0,1-.61.62.66.66,0,0,1-.62-.62V54c0,.35.09.71.53.71a2.88,2.88,0,0,0,1.32-.45,4.27,4.27,0,0,1,1.59-.52h.09a5.22,5.22,0,0,1,1.94.35h0l6.18,3.18V55.58c-1.41-.71-4.41-2-5.21-2.48a7.7,7.7,0,0,1-2.38-2.38l-.18-.35A2.34,2.34,0,0,0,214.05,49.48Zm34.79,0a2.53,2.53,0,0,0-1.86.89l-.17.35a6.7,6.7,0,0,1-2.39,2.38c-1,.53-4.76,2.3-5.82,2.74v1.77l6.79-3.53h.1a4.58,4.58,0,0,1,1.85-.35h.09a3.82,3.82,0,0,1,1.58.52,3,3,0,0,0,1.33.45A.63.63,0,0,0,251,54V52.75a.28.28,0,0,1-.09-.18v.27a.62.62,0,1,1-1.23,0v-.7c0-.89.08-2.13-.36-2.57A1.71,1.71,0,0,0,248.84,49.48Zm-17.31,2.74c1.15,0,1.59,2,1.77,2.56s.71.8.71,1.24a1,1,0,0,1-1.06.88c-.89,0-.71-.44-1.42-.44s-.44.44-1.41.44-1.06-.61-1.06-.79A1.89,1.89,0,0,1,229.5,55c.35-.44.35-1.5,1-2.12A1.08,1.08,0,0,1,231.53,52.22Zm-6.62,3.18v3c0,.89,1.15,2.65,3.18,3.62a13.34,13.34,0,0,0,3.36,1.15,13.18,13.18,0,0,0,2.73-1.05V62c2.12-1,3.18-2.73,3.18-3.62V55.49c-1.15.7-1.24.8-1.24,1.41v.8c0,1.41-2.82,2.82-4.85,2.82s-4.94-1.23-4.94-2.82a2.4,2.4,0,0,1,.08-.88c0-.53-.08-.63-1.41-1.33A.09.09,0,0,0,224.91,55.4Zm13.07,5a9,9,0,0,1-.8,1l6,2.92a4.09,4.09,0,0,1,2.38,3.27A1.66,1.66,0,0,0,247,68.65a1.09,1.09,0,0,0,1.07-.71c.17-.8.7-3.44.79-3.62a.57.57,0,0,1,.71-.45.55.55,0,0,1,.44.71,1.58,1.58,0,0,1-.09.45c1.06-.53,1.14-.62,1.14-1s-1-1-1.85-1a3.61,3.61,0,0,0-1.76.44,4.87,4.87,0,0,1-1.51.35,2.59,2.59,0,0,1-1.41-.27l-.35-.17C243.72,63.08,239.21,61,238,60.35Zm-13.42.26c-1.68.8-5.39,2.56-5.83,2.74l-.36.17a2.41,2.41,0,0,1-1.32.27,4.8,4.8,0,0,1-1.59-.35,4.15,4.15,0,0,0-1.67-.44c-.89,0-1.95.61-1.95,1s.09.45,1.15,1a1.58,1.58,0,0,1-.09-.45.55.55,0,0,1,.44-.71.73.73,0,0,1,.8.45c0,.18.53,2.82.71,3.62a1.05,1.05,0,0,0,1.05.71,2,2,0,0,0,1.51-1.15,3.85,3.85,0,0,1,2.29-3.27l.88-.44,4.77-2.2A6.25,6.25,0,0,1,224.56,60.61Z"/></svg>