<svg xmlns="http://www.w3.org/2000/svg" viewBox="0 0 992.94 113.82"><defs><style>.a,.d{fill:#fff;}.a{stroke:#000;stroke-miterlimit:10;stroke-width:0.5px;}.a,.c,.d,.e,.f{fill-rule:evenodd;}.b,.c{fill:#564a7f;}.e{fill:#ac322d;}.f{fill:#000b0d;}</style></defs><title>FG002_C</title><polygon class="a" points="80.62 113.57 0.43 55.84 80.62 0.26 912.32 0.25 992.51 57.98 912.32 113.56 80.62 113.57"/><rect class="b" x="88.92" y="8.19" width="815.52" height="97.53"/><polygon class="c" points="911.33 8.19 980.35 56.96 911.33 105.72 911.33 8.19"/><polygon class="c" points="81.58 8.19 12.56 56.96 81.58 105.72 81.58 8.19"/><path class="d" d="M513,67.64h9.36V51.15L527,46.32l14.61,21.32h11.45L533.58,40.2l17.21-17.85H539.12l-16.77,18-.15-18H513ZM578.43,50.5v4.1c0,4.61-2.88,7.49-8,7.49-3.67,0-5.4-2.16-5.4-4.1,0-1.66.58-3.24,6.12-4.9l3.82-1A9.61,9.61,0,0,0,578.43,50.5Zm0,13.46a7.58,7.58,0,0,0,1,3.68h8.86a5.29,5.29,0,0,1-1.37-3.32V46.47c0-7.85-4-12.6-14.76-12.6-9.79,0-13.9,5.47-13.68,10.94l7.7.15c0-2.45,1.88-4.76,6.34-4.76,4.25,0,5.62,2.09,5.62,3.68,0,1.29-.8,2.59-3.1,2.88l-5,.93c-7.27,1.3-9.14,2.67-10.51,3.82a8.91,8.91,0,0,0-3,6.77c0,5.47,4.1,10.29,12.38,10.29C573.68,68.57,576.56,66.92,578.43,64Zm16.35,3.68h8.71V22.35h-8.71ZM610.33,30.2H619V22.35h-8.64Zm0,37.44H619V35h-8.64ZM646.11,64l.44,3.68h8.35V35.16L646.11,35V53.38c0,4.9-3,7.49-6.48,7.49-3.31,0-5.25-1.73-5.25-6.34V35h-8.79V57.48c0,4.25,1.16,6.56,3.24,8.43a11.61,11.61,0,0,0,8.07,2.73C640.93,68.64,644.17,67.06,646.11,64Zm15.56,3.68h8.78V48.84c0-4.68,2.59-7,6-7A4.54,4.54,0,0,1,681,44.6a10.11,10.11,0,0,1,.36,3.6V67.64H690V48.27c0-4.11,2.6-6.55,6.05-6.55,3,0,5,1.72,5,5.54V67.64h8.64V44.81C709.47,38,705.08,34,699.18,34a11,11,0,0,0-10,5.76,10.6,10.6,0,0,0-9.5-5.61c-4.54,0-7.42,1.8-9.15,5.18l-.36-4.18L661.67,35Z"/><path class="d" d="M578.73,96.44h4V88.26h8.42V85.09H582.7V80.45h9.88V77.22H578.73ZM597,89.36l2.63-8.3,2.5,8.3Zm-6.28,7.08h4l1.28-4h7l1.22,4h4.09l-6.59-19.22h-4.27Zm22.94-10.68V80.45h4.45a2.45,2.45,0,0,1,1.77.43,2.72,2.72,0,0,1,1.22,2.26c0,1.46-1.16,2.68-3.17,2.68Zm-3.9,10.68h3.9l.06-7.57h3.48a3.29,3.29,0,0,1,2.93,1.59,4,4,0,0,1,.36,1.22c.37,1.58,0,3.29.74,4.76h4a5.31,5.31,0,0,1-.61-2l-.3-3.35a3.59,3.59,0,0,0-1-2.57,4.14,4.14,0,0,0-2.56-1.15A4.59,4.59,0,0,0,625,82.59c0-3-2.38-5.56-6.47-5.37h-8.72ZM633,89.36l2.62-8.3,2.51,8.3Zm-6.28,7.08h4l1.29-4h7l1.22,4h4.09l-6.59-19.22h-4.27Z"/><path class="e" d="M116.66,35.86,95.52,57l21.14,21,21,21.16L158.84,78,180,56.9l-21.16-21c-11.52-11.63-21-21.15-21-21.15S128.19,24.23,116.66,35.86Z"/><path class="d" d="M155.48,39.22l17.8,17.68-17.8,17.79L137.7,92.59,120,74.69,102.22,56.9,120,39.22c9.74-9.85,17.69-17.79,17.79-17.79S145.76,29.37,155.48,39.22Z"/><path class="f" d="M140.5,40.11h-.23a2.4,2.4,0,0,0-1.34.45,1.68,1.68,0,0,0-.67.56,1.91,1.91,0,0,0,.34,2.58,3.55,3.55,0,0,0,.66.55,5.53,5.53,0,0,0,1.57.34c.45.11,2.23.34,3.8.67s4,.67,5.27.9c1.67.22,2.34.33,2.45.33s.34.23.45.34l.12.11a.42.42,0,0,0-.12.22,1,1,0,0,0-.33.78v.9a1.13,1.13,0,0,0,.67.9h0a1.76,1.76,0,0,1-.12.66,7.06,7.06,0,0,0-.33,1.24c-.34.78-.34.78-.22,1.12A1.34,1.34,0,0,0,153,54a1,1,0,0,0,.79,0,1.75,1.75,0,0,0,.55-1.45,2.9,2.9,0,0,0-.21-1.13c0-.23-.12-.55-.12-.67-.22-.44-.33-1-.22-1.11l.22-.12a3.17,3.17,0,0,1,.33-.55v-.68a1.61,1.61,0,0,0-.21-1,.91.91,0,0,1-.23-.67v-.78c0-.22.33-2.46.56-3.91a2,2,0,0,0,.11-.57h0c-.11,0-.23.12-.44.34a1.84,1.84,0,0,1-.79.56H153a5,5,0,0,1-.9-.12c-3.34-.66-10.06-1.89-10.84-2Zm-5.94.34H134c-.55.11-6.71,1.23-10.18,1.79a2.61,2.61,0,0,1-1,.22c-.11,0-.33-.11-.44-.11a2.51,2.51,0,0,1-.68-.56,1.36,1.36,0,0,0-.22-.33.35.35,0,0,0-.22-.12,5.69,5.69,0,0,1,.1,1.12c.34,1.69.67,3.47.67,3.7v1a6,6,0,0,1-.33.78c-.22.56-.34.68-.34,1a.92.92,0,0,0,.12.55c.11.34.22.57.45.67h0v.22a3.35,3.35,0,0,1-.34,1.46,3.78,3.78,0,0,1-.23.78,2.86,2.86,0,0,0-.21,1.12v.46c.11.55.33.89.67,1h.44c.23,0,.34-.11.56-.34a2.47,2.47,0,0,0,.34-1.12c0-.11-.11-.22-.22-.78-.23-1-.34-1.46-.45-1.9a4.26,4.26,0,0,0-.11-.68c0-.1,0-.1.11-.1a.8.8,0,0,0,.77-.67,1.06,1.06,0,0,0,.13-.67,3.62,3.62,0,0,0-.34-1.35.86.86,0,0,1-.11-.45c0-.1.22-.33.45-.44a12.74,12.74,0,0,0,2-.34c.9-.12,2.57-.45,3.8-.67,2.69-.45,3.92-.68,5-.78.45-.11.89-.23,1-.23a2.62,2.62,0,0,0,1.46-1A1.62,1.62,0,0,0,137,42a2.48,2.48,0,0,0-2.46-1.56Zm6.15.56h.79c1.12.22,5.15.9,10,1.79,1.12.22,1.9.34,1.9.34l-.22,1.45s-1.12-.11-2.58-.23c-5.48-.44-8.5-.66-9.73-.78a3.25,3.25,0,0,0-.9-.11c-.67-.23-1.12-.55-1.12-1.23s.56-1,1.23-1.23Zm-6.15.33c.12,0,.45.12.56.12a2.26,2.26,0,0,1,1,.55c0,.23.11.34.11.57-.11.78-.68,1.23-1.79,1.23-.9.11-6.72.67-11.2,1a1.44,1.44,0,0,1-.55.11l-.22-1.46s.56-.11,5.82-1c4.14-.78,5.82-1,5.93-1s.22,0,.22-.12ZM159.4,46.6l-.1.12a3.64,3.64,0,0,0-.34.34,2.15,2.15,0,0,0-.68,1V49c.12.34.12.44,0,.55s0,.12-.11.23c-.45,0-.67.34-.9.66a1.38,1.38,0,0,0-.1.68.87.87,0,0,1-.11.56,1.4,1.4,0,0,1-.57.56h-.1c0,.11.21.89.21.89a.57.57,0,0,0,.34-.11,2,2,0,0,0,1-1.12,1.16,1.16,0,0,0,.12-.68v-.32h.11c0-.12,0-.23.11-.23l.12-.11a1.26,1.26,0,0,0,.77-.56c0-.22.13-.33.13-.56a1.76,1.76,0,0,0-.13-.67c0-.45,0-.56.46-1,.11-.11.33-.33.33-.45l.12-.11Zm-3.24.67v.23a1,1,0,0,0,.23.78c.1.34.1.45,0,.56s0,.23-.23.33a1.32,1.32,0,0,0-.56.79.89.89,0,0,0,0,.78,1,1,0,0,1-.12.57A.87.87,0,0,1,155,52l-.21.22.56.67a7,7,0,0,0,.55-.45,1.88,1.88,0,0,0,.46-.78,2.12,2.12,0,0,0,.1-.78v-.68c0-.1,0-.22.23-.33a.86.86,0,0,0,.45-.45,1.76,1.76,0,0,0,.22-.67,1.24,1.24,0,0,0-.22-.79.39.39,0,0,1-.11-.33V47.5l-.23-.11h-.44A.38.38,0,0,0,156.16,47.27Zm-8.84.23a1.35,1.35,0,0,0-.33.22c-.23.22-.34.34-.34.34l.22.22a2.29,2.29,0,0,0,.22.34,2.32,2.32,0,0,1,.34.78v.23a.85.85,0,0,0-.11.33,1.26,1.26,0,0,0,.34.9.93.93,0,0,0,.55.55c.23,0,.23.11.23.23s.11.11.11.22a.69.69,0,0,0,.11.78,2,2,0,0,0,1,1.12.34.34,0,0,0,.23.12l.21-.9H150a4.83,4.83,0,0,1-.57-.67V52a2.3,2.3,0,0,0-.11-.8c-.11-.1-.11-.21-.33-.32s-.22-.23-.34-.34-.34-.12-.34-.22-.11-.22,0-.45v-.68a3.3,3.3,0,0,0-.55-1.11C147.66,47.94,147.32,47.5,147.32,47.5Zm2.79.44h-.33c0,.12-.22.12-.34.12h-.34v.11c.12.11,0,.22-.1.56a1.55,1.55,0,0,0-.12.67,1.29,1.29,0,0,0,.34.9c.11,0,.22.1.34.22a.38.38,0,0,1,.22.11.4.4,0,0,1,.12.34v.21a1.2,1.2,0,0,0,0,.91,4.57,4.57,0,0,0,.78,1l.11.23.33-.34.34-.34-.22-.22c-.23-.22-.34-.33-.34-.44a.72.72,0,0,1-.11-.46v-.11c0-.23.11-.33,0-.55a1.15,1.15,0,0,0-.23-.68c-.11-.1-.22-.33-.45-.44s-.21-.11-.21-.23-.12-.11-.12-.21a1.14,1.14,0,0,0,.12-.34,1.75,1.75,0,0,0,.11-.68Zm-23,2.92a1.26,1.26,0,0,0-.23.32,1.65,1.65,0,0,0-.89,1.36v1.11c0,.23,0,.34-.33.45-.68.33-.79.45-.9,1.23v.56a1.37,1.37,0,0,0-.23.34v-.11a1,1,0,0,0,0-.79c-.1-.22-.1-.33,0-.45s.11-.22.34-.33.45-.45.45-.67.11-.23.11-.46a2.46,2.46,0,0,0-.11-.66,1.43,1.43,0,0,1-.12-.56v-.11l-.9-.23v.23a3.69,3.69,0,0,0,.13,1,.45.45,0,0,1,.1.33v.12a2.86,2.86,0,0,1-.23.22c-.33.34-.55.46-.67.79a.4.4,0,0,1-.11.33,1.06,1.06,0,0,0,.11.57v.44a1.62,1.62,0,0,1-.21.44c0,.13-.23.23-.34.34l-.11.12c.11,0,.55.67.55.67a.11.11,0,0,0,.11-.12.86.86,0,0,0,.46-.44h.11v.44h.1a.79.79,0,0,0,.46-.22,1.69,1.69,0,0,0,.77-.79c.13-.21.13-.33.13-.78a1.88,1.88,0,0,0,.1-.44c0-.11.11-.11.23-.11a1.64,1.64,0,0,0,.78-.68,2.79,2.79,0,0,0,.11-1v-.68c.11-.22.45-.66.67-1h.12l-.23-.46A.7.7,0,0,1,127.07,50.86Zm-10.18.32a2.46,2.46,0,0,0-.34.23c-.45.34-.45.34-.33.34l.21.23a2.87,2.87,0,0,1,.57.89c.1.11.1.11.1.22v.33a.63.63,0,0,0-.1.34,1.25,1.25,0,0,0,.33.9c.11.22.22.22.56.45a1,1,0,0,1,.34.22v.45c0,.34,0,.45.1.55a2.1,2.1,0,0,0,.68.79,2.54,2.54,0,0,1,.56.45h.11v-.11h0l.11.11a4.58,4.58,0,0,1,.45.56l.33-.34.34-.33h0a3.48,3.48,0,0,1-.67-.9v-.44a1.23,1.23,0,0,0,0-.9c0-.34-.23-.56-.56-.79s-.34-.11-.34-.21h-.1l.1-.12v-.34a2.44,2.44,0,0,0,.23-.89v-.23h-.9v.23c-.11.22-.11.34-.22.55a1.61,1.61,0,0,0-.12.68v.22l-.1-.1C118,54.1,118,54.1,118,54s-.11-.11,0-.34a3.45,3.45,0,0,0-.11-1.11,10.5,10.5,0,0,0-.56-.9c-.1-.12-.23-.23-.33-.33Zm33.22,3.14H150a2.52,2.52,0,0,1-1.46.34c-.68,0-.78,0-1,.11a1.14,1.14,0,0,0-.45.56.39.39,0,0,0,.11.33c0,.12.12.34.12.46h-1.68a1.43,1.43,0,0,0-1.23.78c0,.11-.11.34-.11.44v.35H144c-.22,0-.33,0-.44.1a1.39,1.39,0,0,0-1,.78c-.12.12-.12.23-.12.46a1.3,1.3,0,0,0,.79,1.22,1.55,1.55,0,0,0,.78.12h.22v.56a1.54,1.54,0,0,0,.68.78,2.68,2.68,0,0,0,1,.22h0V62a1.26,1.26,0,0,0,.34.9,2.37,2.37,0,0,0,1.34.55c.46,0,2.13.13,3.92.13h1.9a10.19,10.19,0,0,0,2.9-.34,6.09,6.09,0,0,0,1.24-.46l.67-.33a6.68,6.68,0,0,1,1.57-.22h.34v-.89h-.34a7.19,7.19,0,0,0-1.68.22,6.54,6.54,0,0,0-1,.44,8.41,8.41,0,0,1-1.24.45,21.17,21.17,0,0,1-3,.22,39.81,39.81,0,0,1-4.93-.1c-.55,0-.78-.12-.88-.23a.39.39,0,0,1-.23-.11c0-.11.11-.23.33-.23s.11-.11,2.35-.11h1.9l-.44-.45-.45-.44H148.1c-2.57,0-2.46,0-2.68-.11s-.46-.23-.34-.35.22-.1.45-.21h4.14v-.9h-5.93c-.22-.11-.45-.33-.45-.44s.11-.23.23-.34,0-.12,3.24-.12h2.91v-.88h-4c-.22,0-.45-.12-.45-.23s0-.12.11-.22.12-.12.34-.12a22.34,22.34,0,0,1,2.91-.11h2.79v.23c.12,1.23.9,2.12,2.58,2.46a5.26,5.26,0,0,0,.9.22l.11-.89a.38.38,0,0,0-.23-.12,3.37,3.37,0,0,1-2-.78,1.92,1.92,0,0,1-.34-.44v-.45l-.11-.23h.11c.12,0,2.81-.55,2.81-.55a6.13,6.13,0,0,0-.8-.23,2.8,2.8,0,0,1-.78-.11h0V56h.12a1.2,1.2,0,0,1,.55-.22c.11-.12.11-.12.23-.12l.11-.11.23.11,1.34.8c.67.33.78.44.9.44a17.78,17.78,0,0,0,2.79.22h.23v-.89h-.45a9.23,9.23,0,0,1-2.24-.23c-.12,0-.12,0-.79-.34a8.18,8.18,0,0,0-2-1l-.23-.11-.11.11c-.22.11-.33.22-.55.34a3.57,3.57,0,0,1-1.23.22,3.11,3.11,0,0,1-1-.11,3.3,3.3,0,0,1-1.23-.68A.11.11,0,0,1,150.11,54.32Zm-31,.9a.11.11,0,0,1,.11.11c.1.12.1.12.1.22v.57l-.1-.12c-.11,0-.11-.11-.11-.22a1,1,0,0,0,0-.56Zm30.77.11s.11.12.21.12a3.52,3.52,0,0,0,1.57.67H149a1.14,1.14,0,0,1-.79-.46c-.11-.11-.11-.11,0-.11h.34a3.18,3.18,0,0,0,1.12-.1A.42.42,0,0,0,149.9,55.33Zm-39.83,2.36V62h23.48V57.69h-8.5l-.11.1a3.81,3.81,0,0,1-2.35,1.12h-1.12c-.22-.11-.56-.11-.67-.22a1.25,1.25,0,0,1-.67-.33,1.4,1.4,0,0,1-.56-.57l-.11-.1h-9.39Z"/><path class="e" d="M209.68,35.86,188.54,57l21.14,21,21,21.16L251.86,78,273,56.9l-21.16-21c-11.51-11.63-21-21.15-21-21.15S221.21,24.23,209.68,35.86Z"/><path class="d" d="M248.51,39.22,266.3,56.9,248.51,74.69l-17.79,17.9L213,74.69,195.24,56.9,213,39.22c9.73-9.85,17.68-17.79,17.79-17.79S238.78,29.37,248.51,39.22Z"/><path class="f" d="M230.83,31.84c-2.69,5,.56,7.83-3,15.22C226,45.6,227,40,223.33,39.9a5.49,5.49,0,0,1,.12,3c-.45,2.34-1.23,4.58.45,7.71-2.58-1.23-2.69-3.47-4.82-4.92.45,2.35-.56,7.27,2.24,12.08-2.57-.33-3.36-1.23-6.15-3.91,2.9,15,5,15.44,15.66,16.22a9.75,9.75,0,0,1-8.06-7c-.1-1.57-.22,1.34,4.93,1.34-3.25-5.15-2.35-4.14-2-7.15,1.34,2.12.23,2.23,4,3.8-1.23-3.8,1.79-6.49,1.24-10.86.78,1.91,3.8,1.57,3.68,10.86,2.47-2.8,2.69-.9,3.92-3.92.11,1.68.79,3.81-2.57,7.39.89.22,2.34.44,4.7-1.12-2.36,2.57-.23,2.57-6.05,6.82,7.28.12,12-4.48,11.87-14.55-.23.9-.45,2.58-4.37,3.14a10.18,10.18,0,0,0,1.79-11.3c-.66.67-1.68,3.68-4.25,4.48a9.7,9.7,0,0,0,1-4.92,10.4,10.4,0,0,0-1.9-6.61c-.67,4.58-.56,6.82-3.48,7.49.45-2.68.57-3.92-.89-6.93S231.28,34.75,230.83,31.84Zm-12,40.84v2.68h25.52V72.68H218.85Z"/></svg>