<svg xmlns="http://www.w3.org/2000/svg" viewBox="0 0 992.94 113.82"><defs><style>.a,.d{fill:#fff;}.a{stroke:#000;stroke-miterlimit:10;stroke-width:0.5px;}.a,.c,.d{fill-rule:evenodd;}.b,.c{fill:#564a7f;}</style></defs><title>FG011_C</title><polygon class="a" points="80.62 113.57 0.43 55.84 80.62 0.26 912.32 0.25 992.51 57.98 912.32 113.56 80.62 113.57"/><rect class="b" x="88.92" y="8.19" width="815.52" height="97.53"/><polygon class="c" points="911.33 8.19 980.35 56.96 911.33 105.72 911.33 8.19"/><polygon class="c" points="81.58 8.19 12.56 56.96 81.58 105.72 81.58 8.19"/><path class="d" d="M413.34,66.84c0,10.52,7.77,19.8,24.41,19.8s23.9-8.85,23.9-18.5c0-7.2-4.46-13.75-14.26-16.13l-13.46-3.45c-4-1.08-4.54-1.52-5.33-2.45a5.22,5.22,0,0,1-1.51-3.82c0-3.17,2.81-7.13,10.94-7.13,4,0,7.06,1.37,8.64,3a8.82,8.82,0,0,1,2.67,6.12l11.45.07c-.51-6.19-2.67-10-5.76-12.89s-9.36-5.61-17.64-5.61c-15.12,0-22.11,8.35-22.11,17.71,0,7.27,4.11,13.25,14,15.77l11.59,2.88c2.24.57,5.19.93,7.06,3.31a6.43,6.43,0,0,1,1.51,3.81c0,3.68-2.81,7.85-12.09,7.85-9,0-12.68-4.61-12.46-10.37Zm58.32,22.47V98h8.21c9.57,0,11.88-7.49,12.81-10L508.09,43.8H496.43L488.29,69l-8.64-25.27H467.77l12.82,34.49a15.86,15.86,0,0,1,1,5.69c0,3.31-1.87,5.54-6.55,5.54Zm42.41-4.61h11.08V66.48c0-6.12,1.44-8.92,3.32-10.8A9.84,9.84,0,0,1,536,52.44a7.39,7.39,0,0,1,1.88.15l.07-9.72a19.62,19.62,0,0,0-2.38-.22,10.47,10.47,0,0,0-10.15,7.27L525,43.8h-10.8Zm53.2-21.53-.07,5.19c0,5.76-3.6,9.43-9.93,9.43-4.61,0-6.77-2.74-6.77-5.33,0-1.94.65-4.1,7.56-6l4.75-1.36A13.89,13.89,0,0,0,567.27,63.17Zm-.07,16.92a10.93,10.93,0,0,0,1.37,4.61h11.16a6.28,6.28,0,0,1-1.87-4.25V58c0-9.79-5-15.7-18.43-15.7-12.39,0-17.5,6.84-17.28,13.61l9.72.22c0-3,2.3-6,7.92-6,5.4,0,7.12,2.66,7.12,4.61,0,1.73-1,3.24-4,3.81l-6.19,1c-9.07,1.66-11.52,3.39-13.25,4.83A11.32,11.32,0,0,0,539.63,73c0,6.77,5.4,12.89,15.69,12.89C561.3,85.85,564.9,83.76,567.2,80.09Z"/></svg>