<svg xmlns="http://www.w3.org/2000/svg" viewBox="0 0 992.96 113.82"><defs><style>.a,.d{fill:#fff;}.a{stroke:#000;stroke-miterlimit:10;stroke-width:0.5px;}.a,.c,.d{fill-rule:evenodd;}.b,.c{fill:#00b1b8;}</style></defs><title>LV004_C</title><polygon class="a" points="80.62 113.57 0.43 55.84 80.62 0.26 912.33 0.25 992.52 57.98 912.33 113.56 80.62 113.57"/><rect class="b" x="89.21" y="8.19" width="815.53" height="97.53"/><polygon class="c" points="911.56 8.19 980.58 56.96 911.56 105.72 911.56 8.19"/><polygon class="c" points="81.79 8.19 12.77 56.96 81.79 105.72 81.79 8.19"/><path class="d" d="M311.76,53.16V37.25h13c3.1,0,4,.43,5.33,1.15a8.44,8.44,0,0,1,3.67,6.92c0,4.24-3.45,7.92-9.36,7.84ZM299.88,84.7h11.88l.07-22.61,10.23.15A9.3,9.3,0,0,1,330.7,67a8.55,8.55,0,0,1,1.15,3.53c1.15,4.75,0,9.72,2.23,14.18H346a15.17,15.17,0,0,1-1.8-6l-.93-10c-.36-4.18-1.37-5.91-2.88-7.49a11.2,11.2,0,0,0-7.49-3.6,13.51,13.51,0,0,0,12.46-13.9c0-9-7.28-16.63-19.3-16H300Zm62.86-25.49c.72-4.89,4.82-8.35,9-8.35a9.06,9.06,0,0,1,9.07,8.35Zm-.43,8.07h30.38c0-12-5.4-25-20.74-25-15.62,0-20.52,12.46-20.52,21.82,0,13.68,9,22.1,20.38,22.1,11.66,0,18.58-6.26,20.16-13.39L381,72c-2.08,3.81-5,5.4-8.56,5.4C367.13,77.43,362.88,73.9,362.31,67.28ZM400.39,84.7h11.09l.07-22.9c0-3.24.58-4.75,1.52-6a8.38,8.38,0,0,1,6.69-3.46c3.82,0,6.55,2.38,6.55,7V84.7H437.4V55.83c0-7.63-5.69-13.54-14.18-13.54-5.91,0-10,3.17-11.38,6.34l-.5-4.83h-10.8Zm71.86-21.53-.07,5.19c0,5.76-3.6,9.43-9.94,9.43-4.61,0-6.77-2.74-6.77-5.33,0-1.94.65-4.1,7.56-6l4.76-1.36A14,14,0,0,0,472.25,63.17Zm-.07,16.92a10.79,10.79,0,0,0,1.37,4.61h11.16a7.1,7.1,0,0,1-1.88-4.25V58c0-9.79-5-15.7-18.36-15.7-12.38,0-17.56,6.84-17.28,13.61l9.65.22c0-3,2.31-6,7.92-6S472,52.8,472,54.75c0,1.73-1,3.24-4,3.81l-6.33,1c-9.08,1.66-11.52,3.39-13.25,4.83A11.44,11.44,0,0,0,444.75,73c0,6.77,5.32,12.89,15.69,12.89C466.42,85.85,469.87,83.76,472.18,80.09ZM512,76.49c-5.18,0-9.64-3.67-9.64-12.31,0-9.79,4.68-13.1,9.21-13.1s9.29,3.31,9.29,12.74C520.85,73,516.17,76.49,512,76.49Zm8.79,4,.43,4.18h10.94l-.14-57H521V48.41c-1.94-3.24-6.55-6-11.73-6-9.22,0-18.22,7.7-18.22,22a24.71,24.71,0,0,0,5.4,15.84,15.13,15.13,0,0,0,12.31,5.83A14.89,14.89,0,0,0,520.78,80.52ZM574,84.7h11v-57H574.06Zm45.36-4.61.57,4.61h10.37V43.8H619.35V66.63c0,6.33-3.68,9.57-8.21,9.57-4.11,0-6.63-2.23-6.63-8V43.8H593.57V71.88c0,5.48,1.44,8.36,4,10.66a14.48,14.48,0,0,0,10.08,3.53A13.36,13.36,0,0,0,619.35,80.09ZM644,84.7h11.09V51.08H663V43.73h-7.92v-.86c0-3.67.65-4.68,1.37-5.4.79-.94,2.08-1.73,4.82-1.59H663v-8.2h-6.19c-3.82,0-13.83.72-12.82,16h-6l.15,7.35H644Zm49.68,0V76.28h-4.18a3.67,3.67,0,0,1-3.09-1.59c-.22-.36-.58-.93-.58-3.09V51.22h7.49V43.73H685.8v-13H674.86v13H669v7.56l5.91-.07V72.39c0,9.29,3.81,12.31,9.79,12.31Z"/></svg>