<svg xmlns="http://www.w3.org/2000/svg" viewBox="0 0 992.96 113.82"><defs><style>.a,.d{fill:#fff;}.a{stroke:#000;stroke-miterlimit:10;stroke-width:0.5px;}.a,.c,.d{fill-rule:evenodd;}.b,.c{fill:#00b1b8;}</style></defs><title>LV007_C</title><polygon class="a" points="80.62 113.57 0.43 55.84 80.62 0.26 912.33 0.25 992.52 57.98 912.33 113.56 80.62 113.57"/><rect class="b" x="88.92" y="8.19" width="815.53" height="97.53"/><polygon class="c" points="911.27 8.19 980.29 56.96 911.27 105.72 911.27 8.19"/><polygon class="c" points="81.5 8.19 12.48 56.96 81.5 105.72 81.5 8.19"/><path class="d" d="M350.57,84.7h11.66V37.25h17.28V27.68H333.22v9.57h17.35Zm23.18,0h11V66.48c0-6.12,1.51-8.92,3.38-10.8a9.88,9.88,0,0,1,7.49-3.24,7,7,0,0,1,1.8.15l.15-9.72a19.77,19.77,0,0,0-2.45-.22,10.45,10.45,0,0,0-10.08,7.27l-.36-6.12H373.83Zm32.48,4.61V98h8.2c9.51,0,11.81-7.49,12.6-10l15.7-44.14H431L422.79,69l-8.64-25.27H402.34L415,78.22a14.88,14.88,0,0,1,1.15,5.69c0,3.31-1.87,5.54-6.62,5.54ZM476,69.87c-.57,3.09-1.51,4.46-3.09,5.61a7.94,7.94,0,0,1-5.4,1.73c-4.83,0-9.43-3.6-9.43-12.81,0-10,4.82-13.68,9.86-13.68a7.93,7.93,0,0,1,7.85,7.05l10.58-.57c-.93-8.57-7.49-15.12-18.65-15.12-8.06,0-13.68,3.09-17.49,8.56a23.15,23.15,0,0,0-3.89,13.68c0,8.43,3.31,14.48,8.5,18.44,3.24,2.3,7.12,3.67,12.67,3.67a20.21,20.21,0,0,0,8.13-1.37c6.27-2.23,10.08-6.84,10.88-14.76ZM494.21,84.7h10.94V71.24l4.61-4.54,11.31,18h13.46L517.68,59.5,532.3,43.73l-13,.07L505.15,59.36V27.68H494.21Zm45.86,0h11v-57H540.15Zm45.22-4.61L586,84.7h10.37V43.8h-11V66.63c0,6.33-3.81,9.57-8.2,9.57-4.11,0-6.63-2.23-6.63-8V43.8H559.51V71.88c0,5.48,1.59,8.36,4,10.66a15.1,15.1,0,0,0,10.22,3.53C578.88,86.07,582.91,83.91,585.29,80.09Zm24.77,4.61h11.09V51.08h7.92V43.73h-7.92v-.86c0-3.67.57-4.68,1.36-5.4.8-.94,2.09-1.73,4.76-1.59h1.8v-8.2h-6.34c-3.67,0-13.68.72-12.67,16h-6v7.35h6Zm49.68,0V76.28h-4.18a3.67,3.67,0,0,1-3.09-1.59c-.22-.36-.58-.93-.58-3.09V51.22h7.49V43.73h-7.49l-.14-13h-11v13H635v7.56l5.91-.07V72.39c0,9.29,3.67,12.31,9.79,12.31Z"/></svg>