<svg xmlns="http://www.w3.org/2000/svg" viewBox="0 0 992.96 113.82"><defs><style>.a,.d{fill:#fff;}.a{stroke:#000;stroke-miterlimit:10;stroke-width:0.5px;}.a,.c,.d{fill-rule:evenodd;}.b,.c{fill:#00b1b8;}</style></defs><title>LV008_C</title><polygon class="a" points="80.62 113.57 0.43 55.84 80.62 0.26 912.33 0.25 992.52 57.98 912.33 113.56 80.62 113.57"/><rect class="b" x="88.92" y="8.12" width="815.53" height="97.53"/><polygon class="c" points="911.27 8.12 980.29 56.88 911.27 105.65 911.27 8.12"/><polygon class="c" points="81.5 8.12 12.48 56.88 81.5 105.65 81.5 8.12"/><path class="d" d="M369.58,84.63h11.3l19.73-57-12.67.15L375.48,69.87,363,27.6H350.5Zm54.5-21.53v5.18c0,5.76-3.6,9.44-9.93,9.44-4.61,0-6.77-2.74-6.77-5.33,0-2,.57-4.11,7.63-6L419.69,65A12.53,12.53,0,0,0,424.08,63.1Zm0,16.92a13.71,13.71,0,0,0,1.23,4.61h11.3a6.18,6.18,0,0,1-1.8-4.25V57.92c0-9.8-5.11-15.7-18.43-15.7-12.46,0-17.64,6.84-17.43,13.61l9.8.21c0-2.95,2.3-6,8-6,5.25,0,7.13,2.66,7.13,4.61,0,1.72-1.08,3.24-4,3.81l-6.33,1c-9,1.66-11.45,3.38-13.18,4.82a11.58,11.58,0,0,0-3.74,8.57c0,6.77,5.25,12.89,15.62,12.89C418.18,85.78,421.78,83.69,424.08,80Zm20.52,4.61h11V71.16l4.61-4.53,11.3,18H485l-16.92-25.2,14.76-15.77-13,.07L455.62,59.28l-.07-31.68H444.6ZM517.11,80l.57,4.61h10.51l-.14-40.9h-10.8V66.56c0,6.33-3.82,9.57-8.28,9.57-4,0-6.55-2.23-6.55-8V43.73H491.47V71.81c0,5.47,1.59,8.35,4,10.66A14.47,14.47,0,0,0,505.59,86C510.7,86,514.73,83.84,517.11,80Zm45.28,0,.58,4.61h10.51l-.14-40.9h-10.8V66.56c0,6.33-3.82,9.57-8.35,9.57-4,0-6.56-2.23-6.56-8V43.73h-11V71.81c0,5.47,1.58,8.35,4,10.66A14.86,14.86,0,0,0,550.87,86,13.09,13.09,0,0,0,562.39,80ZM582,84.63h11V61c0-6,3.39-8.85,7.78-8.85,3,0,4.68,1.36,5.47,3.45.29.36.51,1.3.51,4.47V84.63h10.94V60.29C617.69,55,621,52,625.25,52c3.82,0,6.26,2.23,6.26,7.06V84.63h11L642.31,56c-.21-8.64-5.61-13.61-13.1-13.61a13.77,13.77,0,0,0-12.6,7.13,13.56,13.56,0,0,0-12.1-7.13c-5.47,0-9.21,2.45-11.37,6.56l-.36-5.19-10.73-.07Z"/></svg>