<svg xmlns="http://www.w3.org/2000/svg" viewBox="0 0 992.96 113.82"><defs><style>.a,.d{fill:#fff;}.a{stroke:#000;stroke-miterlimit:10;stroke-width:0.5px;}.a,.c,.d{fill-rule:evenodd;}.b,.c{fill:#00b1b8;}</style></defs><title>LV006_C</title><polygon class="a" points="80.62 113.57 0.43 55.84 80.62 0.26 912.33 0.25 992.52 57.98 912.33 113.56 80.62 113.57"/><rect class="b" x="89.21" y="8.05" width="815.53" height="97.53"/><polygon class="c" points="911.56 8.04 980.58 56.81 911.56 105.58 911.56 8.04"/><polygon class="c" points="81.79 8.04 12.77 56.81 81.79 105.58 81.79 8.04"/><path class="d" d="M319.18,66.77c0,10.51,7.85,19.8,24.48,19.8s23.9-8.85,23.9-18.5c0-7.2-4.46-13.75-14.25-16.13L339.7,48.48c-4-1.08-4.47-1.51-5.26-2.44a5.56,5.56,0,0,1-1.51-3.82c0-3.17,2.88-7.13,10.94-7.13,4,0,7,1.37,8.64,3a9.21,9.21,0,0,1,2.74,6.12l11.3.07c-.5-6.19-2.52-10-5.76-12.89s-9.36-5.62-17.64-5.62c-15,0-22,8.36-22,17.72,0,7.27,4,13.24,14,15.76l11.6,2.88c2.08.58,5.11.94,7.05,3.32a6.64,6.64,0,0,1,1.37,3.81c0,3.67-2.74,7.85-11.95,7.85-9,0-12.67-4.61-12.6-10.37Zm78.48,17.86V76.2h-4a3.83,3.83,0,0,1-3.24-1.58c-.22-.36-.58-.94-.58-3.1V51.15h7.49V43.66H390l-.14-13H378.87v13h-5.76v7.56l5.76-.07V72.32c0,9.28,3.81,12.31,9.93,12.31Zm17.13-25.49a9.39,9.39,0,0,1,9-8.35c4.47,0,8.28,3.09,9.08,8.35Zm-.43,8.06h30.39c0-12-5.55-25-20.88-25-15.63,0-20.45,12.46-20.45,21.82,0,13.68,9,22.1,20.45,22.1S442.3,79.88,444,72.75L432.87,72c-2.09,3.81-5,5.4-8.5,5.4C419.19,77.36,414.94,73.83,414.36,67.2Zm38.09,17.43h11.09V66.41c0-6.12,1.51-8.93,3.31-10.8a9.76,9.76,0,0,1,7.49-3.24,7.92,7.92,0,0,1,1.87.15V42.8a15.44,15.44,0,0,0-2.3-.22,10.65,10.65,0,0,0-10.3,7.27l-.29-6.12H452.45Zm29.81-47.09h11.09V27.6H482.26Zm0,47.09H493.2v-41H482.26Zm19.51,0h11v-57H501.84Zm53,0h11v-57H554.83ZM600,80l.57,4.61h10.37V43.73H600V66.56c0,6.33-3.67,9.57-8.14,9.57-4,0-6.69-2.23-6.69-8V43.73H574.2V71.81c0,5.47,1.51,8.35,4,10.66A14.74,14.74,0,0,0,588.46,86C593.57,86,597.6,83.84,600,80Zm24.77,4.61h10.94V51h8.06V43.66h-8.06V42.8c0-3.68.72-4.68,1.37-5.4a5.68,5.68,0,0,1,4.82-1.59h1.87V27.6h-6.33c-3.67,0-13.83.72-12.67,16.06h-6V51h6Zm49.53,0V76.2h-4A3.85,3.85,0,0,1,667,74.62c-.22-.36-.58-.94-.58-3.1V51.15h7.49V43.66h-7.34l-.15-13H655.49v13h-5.76v7.56l5.76-.07V72.32c0,9.28,3.82,12.31,9.94,12.31Z"/></svg>