<svg xmlns="http://www.w3.org/2000/svg" viewBox="0 0 992.96 113.82"><defs><style>.a,.d{fill:#fff;}.a{stroke:#000;stroke-miterlimit:10;stroke-width:0.5px;}.a,.c,.d{fill-rule:evenodd;}.b,.c{fill:#00b1b8;}</style></defs><title>LV002_C</title><polygon class="a" points="80.62 113.57 0.43 55.84 80.62 0.26 912.33 0.25 992.52 57.98 912.33 113.56 80.62 113.57"/><rect class="b" x="88.92" y="8.12" width="815.53" height="97.53"/><polygon class="c" points="911.27 8.12 980.29 56.88 911.27 105.65 911.27 8.12"/><polygon class="c" points="81.5 8.12 12.48 56.88 81.5 105.65 81.5 8.12"/><path class="d" d="M424.66,84.63h39.53V74.84h-27.8V27.6H424.66ZM494.07,80l.57,4.61h10.3V43.73H494.07V66.56c0,6.33-3.68,9.57-8.14,9.57-4,0-6.55-2.23-6.55-8V43.73H468.29V71.81c0,5.47,1.51,8.35,4,10.66A14.87,14.87,0,0,0,482.55,86C487.66,86,491.69,83.84,494.07,80Zm24.69,4.61h11V51h8.06V43.66h-8.06V42.8c0-3.68.64-4.68,1.36-5.4.94-.94,2.16-1.73,4.83-1.59h1.87V27.6h-6.34c-3.74,0-13.75.72-12.67,16.06h-6V51h6Zm49.54,0V76.2h-4A3.74,3.74,0,0,1,561,74.62c-.22-.36-.58-.94-.58-3.1V51.15h7.49V43.66h-7.42l-.07-13H549.51v13h-5.76v7.56l5.76-.07V72.32c0,9.28,3.81,12.31,9.86,12.31Z"/></svg>