<svg xmlns="http://www.w3.org/2000/svg" viewBox="0 0 992.96 113.82"><defs><style>.a,.d{fill:#fff;}.a{stroke:#000;stroke-miterlimit:10;stroke-width:0.5px;}.a,.c,.d{fill-rule:evenodd;}.b,.c{fill:#00b1b8;}</style></defs><title>LV001_C</title><polygon class="a" points="80.62 113.57 0.43 55.84 80.62 0.26 912.33 0.25 992.52 57.98 912.33 113.56 80.62 113.57"/><rect class="b" x="89.21" y="8.05" width="815.53" height="97.53"/><polygon class="c" points="911.56 8.04 980.58 56.81 911.56 105.58 911.56 8.04"/><polygon class="c" points="81.79 8.04 12.77 56.81 81.79 105.58 81.79 8.04"/><path class="d" d="M375.84,84.48h11.81V63.75l5.83-6.12,18.43,26.85h14.4l-24.4-34.41,21.52-22.61-14.61.14L387.65,50.14l-.14-22.54-11.67-.14ZM458.14,63v5.18c0,5.76-3.75,9.43-9.94,9.43-4.61,0-6.77-2.73-6.77-5.33,0-1.94.58-4.1,7.56-6l4.76-1.37A13.82,13.82,0,0,0,458.14,63Zm0,16.92a13.67,13.67,0,0,0,1.22,4.6h11.31a5.67,5.67,0,0,1-1.88-4.24V57.77c0-9.79-5-15.69-18.43-15.69-12.38,0-17.57,6.84-17.35,13.6l9.79.22c0-2.95,2.31-6,7.92-6,5.33,0,7.13,2.67,7.13,4.61,0,1.73-1,3.24-4,3.82l-6.34,1c-8.93,1.65-11.37,3.38-13.1,4.82a11.34,11.34,0,0,0-3.82,8.57c0,6.77,5.33,12.89,15.7,12.89C452.23,85.64,455.69,83.55,458.14,79.88Zm20.45,4.6h11.08v-57H478.73Zm19.51,0h11v-57H498.17Zm45.21-4.6.58,4.6H554.4l-.14-40.89h-11V66.41c0,6.34-3.67,9.58-8.13,9.58-4,0-6.63-2.23-6.63-8V43.59h-11V71.67c0,5.47,1.51,8.35,4,10.65a14.73,14.73,0,0,0,10.22,3.53C536.91,85.85,540.94,83.69,543.31,79.88Zm24.77,4.6h11.09V50.86h7.92V43.52H579v-.87c0-3.67.72-4.68,1.36-5.4a5.71,5.71,0,0,1,4.83-1.58h1.87V27.46h-6.34c-3.67,0-13.68.72-12.67,16.06h-6v7.34h6Zm49.54,0V76.06h-4a3.86,3.86,0,0,1-3.24-1.58c-.22-.36-.44-.94-.44-3.1V51h7.35V43.52h-7.35l-.14-13H598.83v13h-5.76v7.56l5.76-.08V72.17c0,9.29,3.81,12.31,9.93,12.31Z"/></svg>