<svg xmlns="http://www.w3.org/2000/svg" viewBox="0 0 992.96 113.82"><defs><style>.a,.d{fill:#fff;}.a{stroke:#000;stroke-miterlimit:10;stroke-width:0.5px;}.a,.c,.d{fill-rule:evenodd;}.b,.c{fill:#00b1b8;}</style></defs><title>LV005_C</title><polygon class="a" points="80.62 113.57 0.43 55.84 80.62 0.26 912.33 0.25 992.52 57.98 912.33 113.56 80.62 113.57"/><rect class="b" x="89.21" y="8.19" width="815.53" height="97.53"/><polygon class="c" points="911.56 8.19 980.58 56.96 911.56 105.72 911.56 8.19"/><polygon class="c" points="81.79 8.19 12.77 56.96 81.79 105.72 81.79 8.19"/><path class="d" d="M346.11,53.16,346,37.25h13.18c3.09,0,4,.43,5.18,1.15A8.62,8.62,0,0,1,368,45.32c0,4.24-3.38,7.92-9.36,7.84ZM334.23,84.7h11.88V62.09l10.22.15c4.18,0,7.06,1.72,8.78,4.75a16.61,16.61,0,0,1,1.16,3.53c1.15,4.75-.15,9.72,2.16,14.18h11.95a15,15,0,0,1-1.8-6l-.94-10c-.43-4.18-1.37-5.91-3-7.49a11.2,11.2,0,0,0-7.49-3.6,13.45,13.45,0,0,0,12.46-13.9c0-9-7.13-16.63-19.08-16H334.37Zm62.85-25.49c.72-4.89,4.75-8.35,9-8.35,4.54,0,8.28,3.1,9.15,8.35Zm-.43,8.07H427c0-12-5.54-25-20.73-25-15.77,0-20.59,12.46-20.59,21.82,0,13.68,9,22.1,20.52,22.1S424.66,80,426.39,72.82L415.23,72c-2.09,3.81-5,5.4-8.57,5.4C401.47,77.43,397.23,73.9,396.65,67.28Zm59.9,17.42V76.28h-4.17a3.84,3.84,0,0,1-3.24-1.59c-.22-.36-.43-.93-.43-3.09V51.22h7.34V43.73h-7.34l-.15-13H437.62v13h-5.76v7.56l5.9-.07-.14,21.17c0,9.29,3.81,12.31,9.93,12.31Zm33.7-4.61.58,4.61h10.36l-.07-40.9H490.25V66.63c0,6.33-3.67,9.57-8.14,9.57-4,0-6.55-2.23-6.55-8V43.8H464.47V71.88c0,5.48,1.66,8.36,4,10.66a15.1,15.1,0,0,0,10.22,3.53C483.84,86.07,487.87,83.91,490.25,80.09Zm19.51,4.61h11V66.48c0-6.12,1.51-8.92,3.38-10.8a9.56,9.56,0,0,1,7.49-3.24,7.3,7.3,0,0,1,1.8.15l.14-9.72a19.4,19.4,0,0,0-2.44-.22,10.57,10.57,0,0,0-10.23,7.27l-.36-6.12h-10.8Zm29.81,0h11.09v-57H539.71Zm45.29-4.61.57,4.61h10.44l-.07-40.9H584.86V66.63c0,6.33-3.75,9.57-8.21,9.57-4,0-6.55-2.23-6.55-8V43.8H559V71.88c0,5.48,1.66,8.36,4,10.66a15.2,15.2,0,0,0,10.3,3.53A13.1,13.1,0,0,0,584.86,80.09Zm24.77,4.61h11V51.08h7.92V43.73h-8v-.86c0-3.67.65-4.68,1.37-5.4.93-.94,2.16-1.73,4.82-1.59h1.8v-8.2H622.3c-3.75,0-13.75.72-12.67,16h-6v7.35h6Zm49.6,0V76.28h-4.17a3.72,3.72,0,0,1-3.17-1.59c-.29-.36-.5-.93-.5-3.09V51.22h7.41V43.73h-7.41l-.08-13H640.37v13h-5.76v7.56l5.83-.07-.07,21.17c0,9.29,3.74,12.31,9.86,12.31Z"/></svg>