<svg xmlns="http://www.w3.org/2000/svg" viewBox="0 0 992.96 113.82"><defs><style>.a,.d{fill:#fff;}.a{stroke:#000;stroke-miterlimit:10;stroke-width:0.5px;}.a,.c,.d{fill-rule:evenodd;}.b,.c{fill:#00b1b8;}</style></defs><title>LV009_C</title><polygon class="a" points="80.62 113.57 0.43 55.84 80.62 0.26 912.33 0.25 992.52 57.98 912.33 113.56 80.62 113.57"/><rect class="b" x="88.92" y="8.12" width="815.53" height="97.53"/><polygon class="c" points="911.27 8.12 980.29 56.88 911.27 105.65 911.27 8.12"/><polygon class="c" points="81.5 8.12 12.48 56.88 81.5 105.65 81.5 8.12"/><path class="d" d="M359.64,84.63H371l19.58-57-12.6.15L365.4,69.87,353.09,27.6H340.42ZM414.15,63.1,414,68.28c0,5.76-3.53,9.44-9.86,9.44-4.61,0-6.84-2.74-6.84-5.33,0-2,.72-4.11,7.63-6L409.61,65A13.68,13.68,0,0,0,414.15,63.1ZM414,80a12.1,12.1,0,0,0,1.37,4.61h11.16a6.52,6.52,0,0,1-1.8-4.25l.07-22.46c0-9.8-5.18-15.7-18.5-15.7-12.31,0-17.5,6.84-17.28,13.61l9.65.21c0-2.95,2.3-6,8-6,5.4,0,7.27,2.66,7.27,4.61,0,1.72-1.08,3.24-4,3.81l-6.34,1c-9.14,1.66-11.52,3.38-13.25,4.82a11.33,11.33,0,0,0-3.74,8.57c0,6.77,5.33,12.89,15.7,12.89C408.24,85.78,411.7,83.69,414,80Zm20.52,4.61h11l.14-18.22c0-6.12,1.51-8.93,3.24-10.8a9.88,9.88,0,0,1,7.49-3.24,8.77,8.77,0,0,1,1.94.15V42.8a15.3,15.3,0,0,0-2.3-.22,10.48,10.48,0,0,0-10.22,7.27l-.36-6.12H434.59Zm29.81,0h11.09L475.49,61c0-6,3.24-8.85,7.7-8.85a5.59,5.59,0,0,1,5.55,3.45c.14.36.5,1.3.5,4.47V84.63H500V60.29C500,55,503.28,52,507.67,52c3.68,0,6.2,2.23,6.2,7.06V84.63h10.8V56c-.22-8.64-5.76-13.61-13.25-13.61a13.74,13.74,0,0,0-12.53,7.13A13.3,13.3,0,0,0,487,42.36c-5.62,0-9.29,2.45-11.38,6.56l-.5-5.19-10.66-.07Zm68.54,0h11v-57H533ZM578.23,80l.58,4.61h10.37V43.73H578.23V66.56c0,6.33-3.67,9.57-8.13,9.57-4.18,0-6.7-2.23-6.7-8V43.73H552.46V71.81c0,5.47,1.51,8.35,4,10.66,2.3,2.16,5.76,3.53,10.22,3.53A13.27,13.27,0,0,0,578.23,80ZM603,84.63h11V51H622V43.66H614V42.8c0-3.68.72-4.68,1.36-5.4.8-.94,2.09-1.73,4.83-1.59H622V27.6h-6.34c-3.81,0-13.82.72-12.67,16.06h-6.12L597,51h6Zm49.54,0V76.2h-4.18a3.75,3.75,0,0,1-3.09-1.58c-.22-.36-.58-.94-.58-3.1V51.15h7.49V43.66h-7.49v-13H633.75v13h-5.84v7.56l5.84-.07V72.32c0,9.28,3.81,12.31,9.79,12.31Z"/></svg>