<svg xmlns="http://www.w3.org/2000/svg" viewBox="0 0 992.96 113.82"><defs><style>.a,.d{fill:#fff;}.a{stroke:#000;stroke-miterlimit:10;stroke-width:0.5px;}.a,.c,.d{fill-rule:evenodd;}.b,.c{fill:#00b1b8;}</style></defs><title>LV003_C</title><polygon class="a" points="80.62 113.57 0.43 55.84 80.62 0.26 912.33 0.25 992.52 57.98 912.33 113.56 80.62 113.57"/><rect class="b" x="88.92" y="8.27" width="815.53" height="97.53"/><polygon class="c" points="911.27 8.26 980.29 57.03 911.27 105.8 911.27 8.26"/><polygon class="c" points="81.5 8.26 12.48 57.03 81.5 105.8 81.5 8.26"/><path class="d" d="M151.49,84.7H191V74.91H163.23V27.68H151.49Zm69.41-4.61.57,4.61h10.37V43.8H220.9V66.63c0,6.33-3.67,9.57-8.14,9.57-4,0-6.55-2.23-6.55-8V43.8H195.12V71.88c0,5.48,1.51,8.36,4,10.66a14.87,14.87,0,0,0,10.23,3.53C214.49,86.07,218.52,83.91,220.9,80.09Zm24.77,4.61h10.94V51.08h8.06V43.73h-8.06v-.86c0-3.67.72-4.68,1.37-5.4a5.68,5.68,0,0,1,4.82-1.59h1.87v-8.2h-6.33c-3.67,0-13.68.72-12.67,16h-6v7.35h6Zm49.53,0V76.28h-4a3.85,3.85,0,0,1-3.24-1.59c-.22-.36-.58-.93-.58-3.09V51.22h7.49V43.73H287.5l-.15-13H276.41v13h-5.76v7.56l5.76-.07V72.39c0,9.29,3.82,12.31,9.94,12.31Zm7.85,0h11V71.24l4.6-4.54L330,84.7h13.46L326.52,59.5l14.76-15.77-13,.07L314.07,59.36,314,27.68H303.05Zm66.74-7.06c-5.25,0-10.29-4-10.29-13.24,0-9.65,4.89-13.54,10.29-13.54s10.37,3.89,10.37,13.25S375.12,77.64,369.79,77.64Zm0,8.57c12.46,0,21.6-8.78,21.6-22.1,0-12.89-8.92-21.89-21.67-21.89-12.31,0-21.45,8.86-21.45,21.89C348.27,77.57,357.41,86.21,369.79,86.21ZM399.1,84.7h11V61.8c0-3.24.72-4.75,1.66-6a8.15,8.15,0,0,1,6.62-3.46c3.82,0,6.63,2.38,6.63,7l-.15,25.34H436V55.83c0-7.63-5.69-13.54-14.18-13.54-5.91,0-9.94,3.17-11.38,6.34l-.5-4.83H399.17Zm65.37-8.21c-5.18,0-9.79-3.67-9.79-12.31,0-9.79,4.75-13.1,9.36-13.1s9.22,3.31,9.22,12.74C473.26,73,468.51,76.49,464.47,76.49Zm8.64,4,.51,4.18h10.94v-57H473.47V48.41c-2.08-3.24-6.69-6-11.88-6-9.21,0-18.14,7.7-18.14,22a24.64,24.64,0,0,0,5.26,15.84,15.58,15.58,0,0,0,12.45,5.83A14.64,14.64,0,0,0,473.11,80.52Zm19.95-42.91H504V27.68H493.06Zm0,47.09h10.8v-41h-10.8Zm42.26,0V76.28h-4a3.85,3.85,0,0,1-3.24-1.59c-.22-.36-.58-.93-.58-3.09V51.22H535V43.73h-7.34l-.15-13H516.53v13h-5.76v7.56l5.76-.07V72.39c0,9.29,3.82,12.31,9.94,12.31Zm7.85-47.09h11V27.68h-11Zm0,47.09h10.94v-41H543.17Zm40.32-7.06c-5.33,0-10.37-4-10.37-13.24,0-9.65,4.9-13.54,10.37-13.54s10.37,3.89,10.37,13.25S588.75,77.64,583.49,77.64Zm0,8.57c12.38,0,21.53-8.78,21.53-22.1,0-12.89-8.86-21.89-21.67-21.89C571,42.22,562,51.08,562,64.11,562,77.57,571,86.21,583.49,86.21Zm29.23-1.51h11.09V61.8c0-3.24.65-4.75,1.58-6a8.2,8.2,0,0,1,6.7-3.46c3.74,0,6.55,2.38,6.55,7L638.5,84.7h11.09V55.83c0-7.63-5.69-13.54-14.19-13.54-5.9,0-9.86,3.17-11.37,6.34l-.51-4.83H612.87Zm55.73-25.49c.72-4.89,4.75-8.35,9-8.35,4.46,0,8.28,3.1,9.07,8.35ZM668,67.28H698.4c0-12-5.54-25-20.73-25-15.77,0-20.6,12.46-20.6,21.82,0,13.68,9,22.1,20.52,22.1S696,80,697.61,72.82L686.52,72c-2.09,3.81-5,5.4-8.49,5.4C672.84,77.43,668.59,73.9,668,67.28ZM706.11,84.7h11.08V66.48c0-6.12,1.52-8.92,3.32-10.8A9.74,9.74,0,0,1,728,52.44a8,8,0,0,1,1.88.15V42.87a16,16,0,0,0-2.31-.22,10.65,10.65,0,0,0-10.29,7.27L717,43.8H706.11Zm29.8-47.09H747V27.68H735.91Zm0,47.09h11v-41h-11Zm19.59,0h11.09V61.8c0-3.24.72-4.75,1.58-6a8.28,8.28,0,0,1,6.7-3.46c3.81,0,6.55,2.38,6.55,7l-.07,25.34h11V55.83c0-7.63-5.61-13.54-14.11-13.54-5.9,0-9.94,3.17-11.45,6.34l-.43-4.83H755.64ZM821,74c-5.4,0-9.94-3.89-9.94-11.52,0-6.55,4.61-10.65,9.58-10.65,5.18,0,9.72,4.1,9.72,11C830.31,69.94,825.7,74,821,74Zm-18.8,12.89c.58,4,1.73,6.12,4,8.35,2.52,2.31,7.12,4.61,15.12,4.61,8.85,0,14.47-3.24,17.28-6.84,1.8-2.52,2.88-4.68,2.88-10.94V43.8l-10.59-.07-.36,4.9c-.79-1.15-3-6.34-12.09-6.34-9.94,0-18.58,7.85-18.58,20.52s8.64,20.59,18.43,20.59c6.55,0,10.59-3,12.24-6l-.14,4.32c0,6.91-3.1,9.79-9.43,9.79-4.76,0-7.06-2.38-7.35-4.9Z"/></svg>