<?xml version="1.0" encoding="UTF-8"?>
<svg id="Layer_1" data-name="Layer 1" xmlns="http://www.w3.org/2000/svg" viewBox="0 0 153.09 218.69">
  <defs>
    <style>
      .cls-1 {
        fill: #fff;
      }

      .cls-1, .cls-2 {
        fill-rule: evenodd;
      }

      .cls-2 {
        fill: #204181;
      }
    </style>
  </defs>
  <polyline class="cls-1" points="0 218.69 153.09 218.69 153.09 0 0 0 0 218.69"/>
  <path class="cls-2" d="M65.34,38.99l-.06-1.25-.19-1.23c-3.09-13.62-22.12-13.61-25.21,0l-.19,1.23-.07,1.25c.49,14.66,20.43,17.57,25.17,3.67l.3-1.21.19-1.23.06-1.23ZM65.9,111.96l-2.35-.59c-10.8-2.94-20.43-9.71-26.8-18.82l-1.33-1.98v-28.93l.06-.96c.32-2.53,2.16-4.76,4.58-5.61l.92-.26.95-.15h.97l16.33.94.84.11.84.23.8.32.73.45.67.53.58.62.49.68,13.69,22.09,15-8.51.8-.38c4.83-1.89,9.85,1.93,9.22,7.03l-.17.87-.28.8-.41.79-.47.72-.58.66-.67.57-.73.47-21.43,12.17-.8.38-.84.29-.88.17c-2.05.34-4.2-.36-5.74-1.72l-.6-.62-.54-.7-10.94-16.27-1.31.36,9.39,13.97v20.26ZM105.55,54.71l-19.65,13.21,6.73,2.93c4.53-2.19,9.87.12,11.26,4.93l3.12,1.36,18.25-14.34-19.71-8.09ZM83.69,68.77l-8.4-10.03-7.61,2.68,6.47,10.43,9.54-3.08ZM92.91,35.59l1.53,2.48-18.74,11.38,7.37,15.89-13.62-16.12,23.47-13.64ZM97.53,37.76l-19.9,12.19,7.54,16.84,18.94-12.74-6.58-16.29ZM17.27,65.19c0,32.37,26.55,58.63,59.28,58.63s59.27-26.26,59.27-58.63S109.29,6.58,76.56,6.58s-59.28,26.24-59.28,58.61Z"/>
  <polyline class="cls-2" points="10.06 133.71 143.06 133.71 143.06 208.94 10.06 208.94 10.06 133.71"/>
  <path class="cls-1" d="M28.49,155.06h9.07v-2.26h-6.37v-10.85h-2.7v13.11ZM117.01,149.62h7.55v-2.24h-7.55v2.24ZM106.48,151.92c.04,1.78,1.54,3.48,4.43,3.48s4.24-1.57,4.24-3.26c0-.59-.22-1.18-.59-1.65-.35-.44-.81-.78-1.93-1.04l-2.7-.63c-.57-.15-.8-.5-.8-.83,0-.37.33-.94,1.57-.94,1.33,0,1.92.7,1.94,1.46l2.24-.04c-.04-.94-.55-1.89-1.35-2.48-.56-.39-1.43-.72-2.8-.72-2.72,0-3.93,1.46-3.93,3.07,0,.76.22,1.3.67,1.78.33.35.74.65,1.8.87l2.04.46c1.18.26,1.33.63,1.33,1.07,0,.41-.39,1.06-1.78,1.06s-2.02-.7-2.09-1.69l-2.3.02ZM95.91,155.06h2.54v-3.09l1.06-1.06,2.59,4.15h3.11l-3.89-5.8,3.39-3.63h-3l-3.26,3.59-.02-7.28h-2.52v13.11ZM91.41,154.01l.15,1.06h2.39l-.02-9.41-2.5-.02v5.28c0,1.44-.87,2.18-1.89,2.18-.94,0-1.54-.5-1.54-1.83v-5.63h-2.52v6.48c0,1.24.35,1.91.93,2.44.54.5,1.33.82,2.35.82,1.17,0,2.09-.5,2.65-1.37ZM78.67,155.06h2.54v-4.18c0-1.41.35-2.06.76-2.5.48-.5,1.02-.74,1.72-.74.15,0,.3.02.43.04l.02-2.24c-.13-.02-.33-.06-.54-.06-1.11,0-2.06.7-2.35,1.68l-.07-1.43h-2.5v9.42ZM67.43,155.06h2.5l.13-.96c.67.83,1.57,1.26,2.7,1.26,2.09,0,4.13-1.7,4.13-5.04s-2.05-5-4.11-5c-1.35,0-2.32.59-2.82,1.41v-4.78h-2.54v13.11ZM72.15,153.17c-1.06,0-2.15-.83-2.15-2.94s1.09-2.94,2.13-2.94c1.13,0,2.17.8,2.17,2.98s-1.07,2.91-2.15,2.91ZM49.23,151.92c.04,1.78,1.54,3.48,4.43,3.48s4.24-1.57,4.24-3.26c0-.59-.22-1.18-.59-1.65-.35-.44-.81-.78-1.92-1.04l-2.7-.63c-.57-.15-.8-.5-.8-.83,0-.37.33-.94,1.57-.94,1.33,0,1.93.7,1.94,1.46l2.24-.04c-.04-.94-.56-1.89-1.35-2.48-.56-.39-1.43-.72-2.8-.72-2.72,0-3.93,1.46-3.93,3.07,0,.76.22,1.3.67,1.78.33.35.74.65,1.8.87l2.04.46c1.18.26,1.33.63,1.33,1.07,0,.41-.39,1.06-1.78,1.06s-2.02-.7-2.09-1.69l-2.3.02ZM44.86,153.99c.05.37.18.78.33,1.07h2.57c-.15-.13-.41-.56-.41-1.33l-.04-4.81c-.02-.83-.07-1.07-.13-1.28-.39-1.3-1.43-2.33-4-2.33-2.93,0-4.09,1.5-4.09,3.15l2.24.04c.09-.63.2-.76.41-.94.22-.22.7-.44,1.46-.44,1.18,0,1.63.63,1.63,1.07s-.28.76-.96.89l-2.54.44c-1.91.33-2.8,1.57-2.8,2.81,0,1.63,1.24,3.02,3.54,3.02,1.56,0,2.43-.63,2.78-1.35ZM44.88,150.05l-.02,1.41c-.06,1.18-.85,2-2.24,2-1.05,0-1.57-.63-1.57-1.19,0-.44.22-1.02,1.72-1.39l1.09-.3c.43-.09.76-.3,1.02-.54ZM43.36,144.51l2.54.02.02-2.57h-2.55v2.56ZM40.04,144.51h2.54l.02-2.57h-2.54l-.02,2.57Z"/>
  <path class="cls-1" d="M31.84,170.9v1.19c0,1.33-.83,2.17-2.28,2.17-1.07,0-1.57-.63-1.57-1.2,0-.44.15-.94,1.74-1.39l1.09-.3c.5-.13.82-.31,1.02-.46ZM119.09,175.87h2.54l.02-5.28c0-.74.15-1.09.35-1.39.33-.48.92-.8,1.54-.8.87,0,1.5.57,1.5,1.63v5.83h2.54v-6.65c0-1.76-1.3-3.11-3.26-3.11-1.35,0-2.3.72-2.61,1.46l-.11-1.11-2.48-.02-.02,9.42ZM110.31,171.85l6.98.02c0-2.8-1.26-5.76-4.76-5.76s-4.74,2.87-4.74,5.02c0,3.13,2.07,5.07,4.7,5.07s4.24-1.43,4.63-3.07l-2.54-.17c-.48.87-1.15,1.22-1.96,1.22-1.2,0-2.19-.82-2.32-2.33ZM110.4,170.02c.17-1.15,1.11-1.93,2.07-1.93,1.04,0,1.92.7,2.09,1.93h-4.17ZM97,176.39c.11.89.39,1.39.93,1.89.57.56,1.63,1.07,3.46,1.07,2.04,0,3.33-.76,3.98-1.57.43-.57.65-1.09.65-2.5v-8.83h-2.43l-.07,1.15c-.18-.3-.68-1.48-2.8-1.48-2.28,0-4.26,1.81-4.26,4.72s2,4.74,4.24,4.74c1.5,0,2.44-.68,2.79-1.41v1.02c0,1.59-.72,2.26-2.18,2.26-1.09,0-1.61-.55-1.7-1.15l-2.61.09ZM101.29,173.39c-1.22,0-2.26-.89-2.26-2.63,0-1.52,1.06-2.48,2.2-2.48s2.22.96,2.22,2.55-1.07,2.56-2.17,2.56ZM86.24,175.87h2.54l.02-5.28c0-.74.15-1.09.35-1.39.33-.48.93-.8,1.54-.8.87,0,1.5.57,1.5,1.63v5.83h2.54v-6.65c0-1.76-1.3-3.11-3.26-3.11-1.35,0-2.3.72-2.61,1.46l-.11-1.11-2.48-.02-.02,9.42ZM81.74,175.87h2.54v-9.42h-2.54v9.42ZM81.76,165.02h2.52v-2.26h-2.52v2.26ZM71.35,175.87h2.54l.02-5.28c0-.74.15-1.09.35-1.39.33-.48.93-.8,1.54-.8.85,0,1.48.57,1.48,1.63v5.83h2.54v-6.65c0-1.76-1.3-3.11-3.26-3.11-1.33,0-2.28.72-2.59,1.46l-.11-1.11-2.48-.02-.02,9.42ZM60.82,172.72c.05,1.78,1.54,3.48,4.42,3.48s4.24-1.57,4.24-3.26c0-.59-.2-1.19-.59-1.65-.35-.44-.8-.78-1.91-1.04l-2.72-.63c-.56-.15-.8-.5-.8-.83,0-.37.35-.94,1.57-.94,1.35,0,1.94.7,1.94,1.46l2.24-.04c-.04-.94-.54-1.89-1.35-2.48-.54-.39-1.43-.72-2.8-.72-2.72,0-3.91,1.46-3.91,3.07,0,.76.2,1.3.65,1.78.33.35.74.65,1.8.87l2.04.46c1.2.26,1.33.63,1.33,1.07,0,.41-.39,1.06-1.78,1.06s-2.02-.7-2.09-1.69l-2.3.02ZM56.5,175.87h2.54v-9.42h-2.54v9.42ZM56.52,165.02h2.52v-2.26h-2.52v2.26ZM49.39,175.87h2.52l3.22-9.42h-2.57l-1.89,6.2-1.87-6.18h-2.57l3.17,9.41ZM36.54,175.87h2.54l.02-5.28c0-.74.15-1.09.35-1.39.33-.48.93-.8,1.54-.8.87,0,1.5.57,1.5,1.63v5.83h2.54v-6.65c0-1.76-1.3-3.11-3.26-3.11-1.35,0-2.3.72-2.61,1.46l-.11-1.11-2.48-.02-.02,9.42ZM31.84,174.79c.04.46.15.8.3,1.07h2.59c-.33-.39-.43-.67-.43-.98v-5.17c0-2.26-1.17-3.61-4.24-3.61-2.85,0-4.04,1.55-3.98,3.15l2.22.04c0-.7.54-1.37,1.83-1.37s1.65.61,1.65,1.06c0,.39-.24.74-.93.87l-1.44.24c-2.09.37-2.65.76-3.04,1.11-.56.5-.87,1.2-.87,1.96,0,1.56,1.22,2.96,3.61,2.96,1.37,0,2.18-.46,2.72-1.33Z"/>
</svg>