<svg xmlns="http://www.w3.org/2000/svg" viewBox="0 0 595.28 850.37"><defs><style>.a{fill:#e5e8eb;}.a,.b,.c{fill-rule:evenodd;}.b{fill:#000100;}.c{fill:#1e3b72;}</style></defs><title>Varselmärkning_Kortsystem</title><polyline class="a" points="0 850.37 595.28 850.37 595.28 0 0 0 0 850.37"/><path class="b" d="M110.79,643.92h35.28v-8.78H121.3V593H110.79v51ZM455,622.76h29.37V614H455v8.71Zm-41,8.93c0.14,6.91,6,13.54,17.21,13.54,11.45,0,16.49-6.12,16.49-12.67a10.42,10.42,0,0,0-2.31-6.41c-1.37-1.73-3.17-3-7.49-4l-10.51-2.45c-2.23-.58-3.1-1.94-3.1-3.24s1.29-3.67,6.12-3.67c5.18,0,7.49,2.74,7.56,5.69l8.71-.14a13,13,0,0,0-5.25-9.65c-2.16-1.51-5.55-2.81-10.87-2.81-10.58,0-15.27,5.69-15.27,11.95a9.47,9.47,0,0,0,2.59,6.91c1.29,1.36,2.88,2.52,7,3.38l7.92,1.8c4.61,1,5.18,2.45,5.18,4.18s-1.51,4.1-6.91,4.1c-5.18,0-7.85-2.74-8.13-6.55Zm-41.11,12.24h9.86v-12l4.11-4.1L397,643.92h12.1L394,621.39l13.18-14.11H395.46l-12.67,14L382.72,593h-9.79v51Zm-17.5-4.1,0.58,4.1h9.29l-0.07-36.57-9.72-.07V627.8c0,5.61-3.38,8.5-7.35,8.5-3.67,0-6-1.94-6-7.13V607.28h-9.79v25.2c0,4.83,1.37,7.42,3.6,9.5a13.11,13.11,0,0,0,9.15,3.17A11.69,11.69,0,0,0,355.43,639.82Zm-49.53,4.1h9.86V627.65c0-5.47,1.37-8,3-9.72a8.73,8.73,0,0,1,6.7-2.88,11.5,11.5,0,0,1,1.66.14l0.07-8.71a14.81,14.81,0,0,0-2.09-.21,9.45,9.45,0,0,0-9.15,6.55l-0.29-5.55H305.9v36.65Zm-43.71,0h9.72l0.51-3.74a12.81,12.81,0,0,0,10.51,4.9c8.13,0,16.06-6.63,16.06-19.59,0-12.6-8-19.44-16-19.44-5.26,0-9,2.31-10.95,5.47V593h-9.86v51Zm18.36-7.34c-4.1,0-8.35-3.24-8.35-11.45s4.25-11.45,8.28-11.45c4.39,0,8.43,3.1,8.43,11.59C288.91,633.34,284.73,636.58,280.56,636.58Zm-89.14-4.9c0.14,6.91,6,13.54,17.21,13.54,11.45,0,16.49-6.12,16.49-12.67a10.4,10.4,0,0,0-2.31-6.41c-1.36-1.73-3.17-3-7.49-4l-10.51-2.45c-2.23-.58-3.1-1.94-3.1-3.24s1.3-3.67,6.12-3.67c5.18,0,7.49,2.74,7.56,5.69l8.71-.14a13,13,0,0,0-5.26-9.65c-2.16-1.51-5.54-2.81-10.87-2.81-10.58,0-15.26,5.69-15.26,11.95a9.47,9.47,0,0,0,2.59,6.91c1.3,1.36,2.88,2.52,7,3.38l7.92,1.8c4.61,1,5.18,2.45,5.18,4.18s-1.51,4.1-6.91,4.1c-5.18,0-7.85-2.74-8.14-6.55Zm-17,8.06a14.83,14.83,0,0,0,1.29,4.18h10c-0.58-.5-1.59-2.16-1.59-5.18L184,620a18.6,18.6,0,0,0-.5-5C182,610,178,606,168,606c-11.37,0-15.91,5.83-15.91,12.24l8.71,0.14c0.36-2.45.79-3,1.58-3.67S165.07,613,168,613c4.61,0,6.33,2.45,6.33,4.17s-1.08,3-3.74,3.46l-9.86,1.73c-7.42,1.29-10.87,6.12-10.87,10.94,0,6.33,4.82,11.74,13.75,11.74C169.68,645,173.06,642.56,174.43,639.75Zm0.07-15.33-0.07,5.47c-0.22,4.61-3.31,7.77-8.71,7.77-4.1,0-6.12-2.45-6.12-4.61,0-1.73.87-4,6.7-5.4l4.25-1.15A8.39,8.39,0,0,0,174.5,624.42Zm-5.9-21.53,9.86,0.07,0.07-10H168.6v9.94Zm-12.89,0h9.86l0.07-10h-9.87Z"/><path class="b" d="M123.81,711.71v4.61c0,5.18-3.24,8.43-8.85,8.43-4.18,0-6.12-2.45-6.12-4.68,0-1.73.58-3.67,6.77-5.4l4.25-1.15A11.38,11.38,0,0,0,123.81,711.71ZM463.06,731h9.86L473,710.49c0-2.88.58-4.25,1.37-5.4a7.38,7.38,0,0,1,6-3.1c3.38,0,5.83,2.23,5.83,6.33V731H496V705.16c0-6.84-5-12.09-12.67-12.09-5.25,0-8.93,2.81-10.15,5.69l-0.43-4.32-9.65-.07Zm-34.13-15.62,27.15,0.07c0-10.87-4.9-22.39-18.51-22.39-14.11,0-18.43,11.16-18.43,19.51,0,12.17,8.06,19.73,18.29,19.73s16.49-5.55,18-12l-9.87-.65c-1.87,3.39-4.46,4.75-7.63,4.75C433.26,724.45,429.44,721.29,428.94,715.38Zm0.36-7.13a8.49,8.49,0,0,1,8.06-7.48c4,0,7.49,2.73,8.13,7.48H429.3ZM377.17,733a10.73,10.73,0,0,0,3.6,7.34c2.23,2.16,6.34,4.18,13.47,4.18,7.92,0,13-3,15.48-6.12,1.65-2.23,2.52-4.25,2.52-9.72V694.36H402.8l-0.29,4.46c-0.72-1.15-2.66-5.76-10.87-5.76-8.85,0-16.56,7.05-16.56,18.36s7.78,18.43,16.49,18.43c5.83,0,9.5-2.66,10.87-5.47v4c0,6.19-2.81,8.78-8.49,8.78-4.25,0-6.26-2.16-6.63-4.46Zm16.7-11.67c-4.75,0-8.78-3.45-8.78-10.22,0-5.9,4.11-9.65,8.57-9.65s8.64,3.74,8.64,9.94S398.12,721.36,393.87,721.36ZM335.34,731h9.86l0.07-20.52c0-2.88.58-4.25,1.37-5.4a7.39,7.39,0,0,1,6-3.1c3.38,0,5.83,2.23,5.83,6.33V731h9.87V705.16c0-6.84-5-12.09-12.67-12.09-5.25,0-8.93,2.81-10.15,5.69l-0.43-4.32-9.65-.07Zm-17.5,0h9.86V694.36h-9.86V731Zm0.07-42.19h9.79V680h-9.79v8.78ZM277.45,731h9.86l0.07-20.52c0-2.88.58-4.25,1.37-5.4a7.39,7.39,0,0,1,6-3.1c3.31,0,5.76,2.23,5.76,6.33V731h9.86V705.16c0-6.84-5-12.09-12.67-12.09-5.18,0-8.85,2.81-10.08,5.69l-0.43-4.32-9.65-.07Zm-41-12.24c0.21,6.91,6,13.54,17.21,13.54,11.45,0,16.49-6.12,16.49-12.67a10,10,0,0,0-2.3-6.41c-1.37-1.73-3.1-3-7.42-4l-10.58-2.45c-2.16-.58-3.1-1.94-3.1-3.24s1.37-3.67,6.12-3.67c5.26,0,7.56,2.74,7.56,5.69l8.71-.14a12.76,12.76,0,0,0-5.26-9.65c-2.09-1.51-5.54-2.81-10.87-2.81-10.58,0-15.19,5.69-15.19,11.95a9.42,9.42,0,0,0,2.52,6.91c1.3,1.36,2.88,2.52,7,3.38l7.92,1.8c4.68,1,5.18,2.45,5.18,4.18s-1.51,4.1-6.91,4.1c-5.18,0-7.85-2.73-8.13-6.55ZM219.71,731h9.87V694.36h-9.87V731Zm0.07-42.19h9.79V680h-9.79v8.78ZM192.06,731h9.8l12.52-36.65h-10L197,718.48l-7.27-24h-10Zm-50,0H152L152,710.49c0-2.88.58-4.25,1.36-5.4a7.4,7.4,0,0,1,6-3.1c3.39,0,5.83,2.23,5.83,6.33V731h9.87V705.16c0-6.84-5-12.09-12.67-12.09-5.26,0-8.93,2.81-10.15,5.69l-0.43-4.32-9.65-.07Zm-18.29-4.18A10.35,10.35,0,0,0,125,731H135a5.47,5.47,0,0,1-1.66-3.81V707.1c0-8.78-4.53-14-16.49-14-11.09,0-15.69,6-15.48,12.24l8.64,0.14c0-2.73,2.09-5.33,7.13-5.33,4.83,0,6.41,2.38,6.41,4.11,0,1.51-.94,2.88-3.6,3.38l-5.61.93c-8.13,1.44-10.3,3-11.81,4.32a10.2,10.2,0,0,0-3.38,7.63c0,6,4.75,11.52,14,11.52C118.56,732,121.72,730.22,123.81,726.83Z"/><path class="c" d="M248.09,180.43l-0.28-5.61L247,169.31c-13.68-60.9-97.83-60.89-111.51,0l-0.86,5.51-0.28,5.61c2.18,65.56,90.36,78.6,111.32,16.44l1.33-5.42,0.86-5.51Zm2.48,326.38-10.37-2.66A214.67,214.67,0,0,1,121.67,420l-5.89-8.84V281.78l0.28-4.28a31.24,31.24,0,0,1,20.25-25.07l4.08-1.14,4.18-.67h4.29l72.23,4.19,3.72,0.47,3.7,1,3.52,1.42,3.23,2,3,2.38,2.57,2.76,2.19,3,60.56,98.79,66.35-38.08,3.52-1.71a29.8,29.8,0,0,1,40.79,31.44l-0.77,3.89-1.24,3.59-1.81,3.53-2.09,3.22-2.55,3-3,2.55-3.24,2.1-94.77,54.44-3.53,1.72-3.7,1.31-3.9.77a31,31,0,0,1-25.38-7.7L265.6,428l-2.38-3.13-48.4-72.76L209,353.7l41.55,62.51v90.6ZM426,250.72l-86.9,59.09,29.77,13.11a35.28,35.28,0,0,1,49.8,22L432.42,351l80.72-64.12ZM329.28,313.6l-37.16-44.84-33.66,12,28.62,46.65Zm40.78-148.38,6.76,11.12-82.9,50.92,32.6,71.05-60.26-72.1Zm20.44,9.69-88,54.52,33.36,75.33,83.76-57ZM35.42,297.64c0,144.79,117.43,262.22,262.22,262.22S559.78,442.42,559.78,297.64,442.42,35.49,297.64,35.49,35.42,152.85,35.42,297.64Z"/></svg>