<svg xmlns="http://www.w3.org/2000/svg" viewBox="0 0 595.28 850.36"><defs><style>.a{fill:#e5e8eb;}.a,.b,.c{fill-rule:evenodd;}.b{fill:#000100;}.c{fill:#1e3b72;}</style></defs><title>Varselmärkning_Kortsystem</title><polyline class="a" points="0 850.36 595.28 850.36 595.28 0 0 0 0 850.36"/><path class="b" d="M192.51,625.84l7-22,6.55,22H192.51Zm218.37,15,0.43,3.74h9.79l-0.07-51h-9.86v18.51c-1.8-2.88-5.9-5.33-10.58-5.33-8.2,0-16.27,6.84-16.27,19.65a21.4,21.4,0,0,0,4.75,14,13.78,13.78,0,0,0,11.16,5.33A13.05,13.05,0,0,0,410.87,640.88Zm-7.78-3.53c-4.61,0-8.71-3.31-8.71-11.09,0-8.71,4.25-11.81,8.35-11.81S411,617.55,411,626C411,634,406.77,637.28,403.1,637.35Zm-58.53,7.27h9.86l0.07-20.52c0-2.88.58-4.25,1.37-5.4a7.39,7.39,0,0,1,6-3.1c3.38,0,5.83,2.23,5.83,6.33v22.68h9.86V618.78c0-6.84-5-12.09-12.67-12.09-5.25,0-8.92,2.81-10.15,5.68l-0.43-4.32-9.65-.07Zm-18.36-4.18a14.83,14.83,0,0,0,1.29,4.18h10c-0.58-.5-1.58-2.16-1.58-5.18l-0.07-18.72a20.65,20.65,0,0,0-.58-5c-1.44-5-5.54-9.07-15.48-9.07-11.45,0-15.91,5.83-15.91,12.24l8.64,0.14c0.43-2.45.79-3,1.58-3.67s2.73-1.73,5.69-1.73c4.61,0,6.41,2.45,6.41,4.17s-1.15,3-3.82,3.46L312.53,623c-7.42,1.29-10.87,6.12-10.87,10.94,0,6.33,4.9,11.74,13.75,11.74C321.53,645.71,324.84,643.26,326.21,640.45Zm0.07-15.33-0.07,5.47c-0.22,4.61-3.31,7.77-8.71,7.77-4.1,0-6.12-2.45-6.12-4.61,0-1.73.86-4,6.7-5.4l4.32-1.15A8.14,8.14,0,0,0,326.28,625.12Zm-5.9-21.53,9.86,0.07,0.07-10h-9.94v9.94Zm-12.89,0h9.87l0.07-10h-9.86Zm-29.66,41h9.79L300.07,608h-9.93l-7.34,24.12-7.28-24h-10Zm-50,0h9.87l0.07-20.52c0-2.88.58-4.25,1.37-5.4a7.39,7.39,0,0,1,6-3.1c3.38,0,5.83,2.23,5.83,6.33v22.68h9.86V618.78c0-6.84-5-12.09-12.67-12.09-5.25,0-8.93,2.81-10.15,5.68l-0.43-4.32-9.65-.07Zm-52,0h10.65L190,633.9h18.43l3.31,10.72h10.8l-17.49-51h-11.3Z" transform="translate(-0.87 -0.71)"/><path class="b" d="M92.13,731.71h9.79L102,711.55c0-6,3.24-8.78,7.34-8.78,3.46,0,5.91,2,5.91,6.63l-0.07,22.32H125V706.44c0-4.46-1.51-7.49-3.89-9.57a14,14,0,0,0-8.57-3.1c-5.33,0-9,2.52-10.66,5.9V680.73H92.13v51ZM494.53,728l0.43,3.74h9.72v-51h-9.86v18.51c-1.8-2.88-5.91-5.33-10.58-5.33-8.21,0-16.27,6.84-16.27,19.65a21.37,21.37,0,0,0,4.68,14,13.93,13.93,0,0,0,11.23,5.33A13.16,13.16,0,0,0,494.53,728Zm-7.78-3.53c-4.61,0-8.71-3.31-8.71-11.09,0-8.71,4.25-11.81,8.35-11.81s8.28,3.1,8.28,11.52C494.67,721.13,490.42,724.37,486.75,724.44ZM450.83,728l0.43,3.74H461v-51h-9.86v18.51c-1.8-2.88-5.91-5.33-10.58-5.33-8.21,0-16.27,6.84-16.27,19.65a21.37,21.37,0,0,0,4.68,14,13.92,13.92,0,0,0,11.23,5.33A13.16,13.16,0,0,0,450.83,728Zm-7.78-3.53c-4.61,0-8.71-3.31-8.71-11.09,0-8.71,4.25-11.81,8.35-11.81s8.28,3.1,8.28,11.52C451,721.13,446.72,724.37,443.05,724.44ZM388.4,735.88v7.71h7.28c8.64,0,10.65-6.77,11.37-9l14-39.53H410.58l-7.34,22.68-7.7-22.68H384.95l11.3,30.89a12.58,12.58,0,0,1,1,5c0,3-1.58,5-5.9,4.9h-3Zm-43.56-4.18h9.87v-12l4.1-4.1,10.08,16.13H381l-15.12-22.53L379,695.06H367.38l-12.67,14-0.07-28.3h-9.8v51Zm-41-12.24c0.14,6.91,6,13.54,17.21,13.54,11.45,0,16.42-6.12,16.42-12.67a10.35,10.35,0,0,0-2.23-6.41c-1.37-1.73-3.17-3-7.49-4l-10.51-2.45c-2.23-.58-3.1-1.94-3.1-3.24s1.29-3.67,6.12-3.67c5.18,0,7.49,2.74,7.56,5.69l8.71-.14a13,13,0,0,0-5.26-9.65c-2.16-1.51-5.54-2.81-10.87-2.81-10.58,0-15.27,5.69-15.27,11.95a9.46,9.46,0,0,0,2.59,6.91c1.29,1.36,2.88,2.52,7,3.38l7.92,1.8c4.61,1,5.18,2.45,5.18,4.18s-1.51,4.1-6.91,4.1c-5.18,0-7.85-2.73-8.13-6.55Zm-16.7,12.24H297v-51h-9.79ZM253,716.08l27.22,0.07c0-10.87-4.9-22.39-18.58-22.39-14,0-18.36,11.16-18.36,19.51,0,12.17,8.06,19.73,18.29,19.73s16.49-5.54,18-12l-9.94-.65c-1.87,3.39-4.39,4.75-7.63,4.75C257.3,725.16,253.48,722,253,716.08Zm0.43-7.13a8.39,8.39,0,0,1,8.06-7.48c4,0,7.42,2.73,8.13,7.48h-16.2Zm-50.32,10.51c0.14,6.91,6,13.54,17.21,13.54,11.45,0,16.42-6.12,16.42-12.67a10.35,10.35,0,0,0-2.23-6.41c-1.37-1.73-3.17-3-7.49-4l-10.51-2.45c-2.23-.58-3.1-1.94-3.1-3.24s1.29-3.67,6.12-3.67c5.19,0,7.49,2.74,7.56,5.69l8.71-.14a13,13,0,0,0-5.26-9.65c-2.16-1.51-5.54-2.81-10.87-2.81-10.58,0-15.27,5.69-15.27,11.95a9.46,9.46,0,0,0,2.59,6.91c1.29,1.36,2.88,2.52,7,3.38l7.92,1.8c4.61,1,5.18,2.45,5.18,4.18s-1.51,4.1-6.91,4.1c-5.18,0-7.85-2.73-8.13-6.55Zm-25.85,12.24h9.86V715.44c0-5.47,1.37-8,3-9.72a8.72,8.72,0,0,1,6.7-2.88,11.51,11.51,0,0,1,1.65.14l0.07-8.71a14.75,14.75,0,0,0-2.09-.21,9.45,9.45,0,0,0-9.15,6.55L187,695.06h-9.72v36.64Zm-26.71,1.44c11.81,0,19.73-7.92,19.73-19.87,0-11.74-8.06-19.65-19.44-19.65-11.09,0-19.29,7.92-19.29,19.65C131.52,725.23,139.73,733.15,150.52,733.15Zm0.58-7.7c-5.19,0-9.58-3.67-9.58-12.17,0-8.2,4.46-11.95,9.5-11.95,4.75,0,9.15,3.31,9.15,12.24C160.17,722.2,155.49,725.45,151.1,725.45Zm1.29-34.78h9.94l-0.07-9.93-9.86-.07v10Zm-12.89,0h9.94l-0.07-9.93-9.79-.07Z" transform="translate(-0.87 -0.71)"/><path class="c" d="M187,402.73c36.2,130.92,186.83,130.9,223.19.13l12.89-.25c15.31,1.62,30-1.62,41.45-9,9.51-6.34,15.48-14.93,17.55-24.82L497,296.37c2.05-10.08-.18-20.34-6.35-29.86-8.43-12.58-22.75-22-39.8-26.06l0.05,0.12V199.32h-7l0.07-.08c-2.81-20-9.93-43.3-26.31-63-22-26.69-56-40.68-101-41.62H280.34c-45.16.94-79.12,14.93-101.15,41.62C162.87,156,155.8,179.34,153,199.37l-0.05-.05h-8.29v41.59l-0.09-.05c-16.17,4.23-30,13.48-38,25.64-6.35,9.52-8.59,19.78-6.53,29.86L115,368.77c2.05,9.89,8.21,18.48,17.72,24.82,11.32,7.44,26.27,10.68,41.59,9ZM168.46,206.78c2-18.82,7.84-41.7,23.21-60.23,19-22.76,48.9-34.89,88.83-35.64h36c39.76,0.75,69.6,12.87,88.65,35.64,15.21,18.33,21.14,40.95,23.18,59.65l0.14-.07C382,94.33,214.43,94.51,168.43,206.78h0Zm4.88,83.85,2.87,11.81,0.05,0c0.33-.11.68-0.2,1-0.28,4.5-.93,8.77,1.5,9.52,5.24l4.3,21.09c0.94,3.73-2.06,7.66-6.52,8.59v-0.05l8.87,36.6,0,0a12.7,12.7,0,0,1,1.94,2.1L196,377l0.37,1.12c2,10.09,3.09,17.84,6.73,27.81l1.68,5.23,2.25,5,2.23,5c8.88,19.83,27.72,44.59,46.84,55.43l3,1.49,3,1.31,3,1.12c66.31,16.89,101.09-9.11,127.29-69.42l1.85-5.23,1.67-5.21,1.52-5.23,1.29-5.41,0.95-5.41,0.93-5.41a7.39,7.39,0,0,1,2-4.39h0l9.1-37.56v0a9,9,0,0,1-1.53-.19c-4.48-.94-7.46-4.86-6.53-8.59l4.29-21.09c0.93-3.73,5-6.16,9.52-5.24a9.34,9.34,0,0,1,2.61,1l-0.09.07L426,277.8l-0.1-.23C436.88,130.9,243.53,80.16,181,213.38L179.18,218l-1.68,4.66-1.5,4.84-1.49,4.86-1.12,4.86a139.58,139.58,0,0,0-2.8,25.19v5l0.37,5.05c0,6.51,1.54,12.31,2.46,18.1h-0.08ZM36.29,298.34c0,144.79,117.43,262.22,262.22,262.22S560.64,443.13,560.64,298.34,443.29,36.2,298.51,36.2,36.29,153.56,36.29,298.34Z" transform="translate(-0.87 -0.71)"/></svg>