<?xml version="1.0" encoding="UTF-8"?>
<svg id="Layer_1" data-name="Layer 1" xmlns="http://www.w3.org/2000/svg" viewBox="0 0 153.09 218.69">
  <defs>
    <style>
      .cls-1 {
        fill: #fff;
      }

      .cls-1, .cls-2 {
        fill-rule: evenodd;
      }

      .cls-2 {
        fill: #204181;
      }
    </style>
  </defs>
  <polyline class="cls-1" points="0 218.69 153.09 218.69 153.09 0 0 0 0 218.69"/>
  <path class="cls-2" d="M51.37,88.53c8.18,29.27,42.24,29.27,50.46.03l2.91-.05c3.46.36,6.79-.36,9.37-2.02,2.15-1.42,3.5-3.34,3.97-5.55l3.37-16.19c.46-2.25-.04-4.55-1.44-6.68-1.91-2.81-5.14-4.93-9-5.83v.03s.01-9.22.01-9.22h-1.58v-.02c-.62-4.47-2.23-9.68-5.93-14.09-4.98-5.97-12.66-9.09-22.83-9.3h-8.23c-10.21.21-17.89,3.34-22.87,9.3-3.69,4.42-5.29,9.64-5.92,14.12h-.01s-1.87-.01-1.87-.01v9.3h-.02c-3.66.94-6.78,3-8.59,5.72-1.43,2.13-1.94,4.42-1.48,6.68l3.37,16.19c.46,2.21,1.86,4.13,4.01,5.55,2.56,1.66,5.94,2.39,9.4,2.01l2.87.03ZM47.17,44.74c.44-4.21,1.77-9.32,5.25-13.47,4.3-5.09,11.05-7.8,20.08-7.97h8.14c8.99.17,15.74,2.88,20.04,7.97,3.44,4.1,4.78,9.15,5.24,13.34l.03-.02c-10.52-25-48.4-24.96-58.8.14h0ZM48.27,63.48l.65,2.64h.01c.08-.02.15-.04.23-.06,1.02-.21,1.98.34,2.15,1.17l.97,4.71c.21.84-.46,1.71-1.47,1.92h0s2.01,8.17,2.01,8.17h0c.16.13.3.29.44.47l.12.29.08.25c.46,2.26.7,3.99,1.52,6.22l.38,1.17.51,1.13.51,1.12c2.01,4.43,6.27,9.97,10.59,12.39l.68.33.67.29.68.25c14.99,3.78,22.86-2.04,28.78-15.52l.42-1.17.38-1.17.34-1.17.29-1.21.21-1.21.21-1.21c.06-.47.21-.69.45-.98h0s2.06-8.4,2.06-8.4h0c-.11,0-.23-.02-.35-.05-1.01-.21-1.69-1.09-1.48-1.92l.97-4.71c.21-.83,1.14-1.38,2.15-1.17.21.04.41.12.59.22l-.02.02,1.39-5.69-.02-.05c2.49-32.79-41.23-44.14-55.36-14.35l-.42,1.04-.38,1.04-.34,1.08-.34,1.09-.25,1.09c-.38,1.85-.6,3.74-.63,5.63v1.12l.09,1.13c0,1.45.35,2.75.56,4.05h-.02ZM17.27,65.19c0,32.37,26.55,58.63,59.28,58.63s59.27-26.26,59.27-58.63S109.29,6.58,76.56,6.58s-59.28,26.24-59.28,58.61Z"/>
  <polyline class="cls-2" points="10.06 133.71 143.06 133.71 143.06 208.94 10.06 208.94 10.06 133.71"/>
  <path class="cls-1" d="M49.28,150.23l1.8-5.67,1.68,5.67h-3.48ZM105.44,154.1l.11.96h2.52l-.02-13.11h-2.54v4.76c-.46-.74-1.52-1.37-2.72-1.37-2.11,0-4.18,1.76-4.18,5.05,0,1.5.48,2.74,1.22,3.61.78.95,1.74,1.37,2.87,1.37s2.07-.45,2.74-1.28ZM103.44,153.19c-1.18,0-2.24-.85-2.24-2.85,0-2.24,1.09-3.04,2.15-3.04s2.13.8,2.13,2.96-1.09,2.91-2.04,2.93ZM88.39,155.06h2.54l.02-5.28c0-.74.15-1.09.35-1.39.33-.48.93-.8,1.54-.8.87,0,1.5.57,1.5,1.63v5.83h2.54v-6.65c0-1.76-1.3-3.11-3.26-3.11-1.35,0-2.3.72-2.61,1.46l-.11-1.11-2.48-.02-.02,9.42ZM83.67,153.99c.06.37.18.78.33,1.07h2.57c-.15-.13-.41-.56-.41-1.33l-.02-4.81c-.04-.83-.09-1.07-.15-1.28-.37-1.3-1.43-2.33-3.98-2.33-2.94,0-4.09,1.5-4.09,3.15l2.22.04c.11-.63.2-.76.41-.94.22-.22.7-.44,1.46-.44,1.18,0,1.65.63,1.65,1.07s-.3.76-.98.89l-2.54.44c-1.91.33-2.8,1.57-2.8,2.81,0,1.63,1.26,3.02,3.54,3.02,1.57,0,2.43-.63,2.78-1.35ZM83.69,150.05l-.02,1.41c-.06,1.18-.85,2-2.24,2-1.05,0-1.57-.63-1.57-1.19,0-.44.22-1.02,1.72-1.39l1.11-.3c.41-.09.76-.3,1-.54ZM82.17,144.51l2.54.02.02-2.57h-2.56v2.56ZM78.85,144.51h2.54l.02-2.57h-2.54l-.02,2.57ZM71.23,155.06h2.52l3.2-9.42h-2.55l-1.89,6.2-1.87-6.18h-2.57l3.17,9.41ZM58.38,155.06h2.54l.02-5.28c0-.74.15-1.09.35-1.39.33-.48.93-.8,1.54-.8.87,0,1.5.57,1.5,1.63v5.83h2.54v-6.65c0-1.76-1.3-3.11-3.26-3.11-1.35,0-2.3.72-2.61,1.46l-.11-1.11-2.48-.02-.02,9.42ZM45.01,155.06h2.74l.89-2.76h4.74l.85,2.76h2.78l-4.5-13.11h-2.91l-4.59,13.11Z"/>
  <path class="cls-1" d="M23.47,176.09h2.52l.02-5.19c0-1.54.83-2.26,1.89-2.26.89,0,1.52.52,1.52,1.7l-.02,5.74h2.54v-6.5c0-1.15-.39-1.93-1-2.46-.56-.46-1.39-.8-2.2-.8-1.37,0-2.32.65-2.74,1.52v-4.87h-2.52v13.11ZM126.96,175.13l.11.96h2.5v-13.11h-2.54v4.76c-.46-.74-1.52-1.37-2.72-1.37-2.11,0-4.18,1.76-4.18,5.05,0,1.5.46,2.74,1.2,3.61.78.95,1.76,1.37,2.89,1.37s2.07-.44,2.74-1.28ZM124.96,174.22c-1.18,0-2.24-.85-2.24-2.85,0-2.24,1.09-3.04,2.15-3.04s2.13.8,2.13,2.96-1.09,2.91-2.04,2.93ZM115.72,175.13l.11.96h2.5v-13.11h-2.54v4.76c-.46-.74-1.52-1.37-2.72-1.37-2.11,0-4.18,1.76-4.18,5.05,0,1.5.46,2.74,1.2,3.61.78.95,1.76,1.37,2.89,1.37s2.07-.44,2.74-1.28ZM113.72,174.22c-1.18,0-2.24-.85-2.24-2.85,0-2.24,1.09-3.04,2.15-3.04s2.13.8,2.13,2.96-1.09,2.91-2.04,2.93ZM99.66,177.16v1.98h1.87c2.22,0,2.74-1.74,2.93-2.32l3.59-10.17h-2.68l-1.89,5.83-1.98-5.83h-2.72l2.91,7.94c.2.52.26.87.26,1.3,0,.76-.41,1.28-1.52,1.26h-.76ZM88.46,176.09h2.54v-3.09l1.05-1.06,2.59,4.15h3.11l-3.89-5.8,3.39-3.63h-3l-3.26,3.59-.02-7.28h-2.52v13.11ZM77.93,172.94c.04,1.78,1.54,3.48,4.43,3.48s4.22-1.57,4.22-3.26c0-.59-.2-1.18-.57-1.65-.35-.44-.82-.78-1.93-1.04l-2.7-.63c-.57-.15-.8-.5-.8-.83,0-.37.33-.94,1.57-.94,1.33,0,1.92.7,1.94,1.46l2.24-.04c-.04-.94-.55-1.89-1.35-2.48-.55-.39-1.42-.72-2.8-.72-2.72,0-3.93,1.46-3.93,3.07,0,.76.22,1.3.67,1.78.33.35.74.65,1.8.87l2.04.46c1.18.26,1.33.63,1.33,1.07,0,.41-.39,1.06-1.78,1.06s-2.02-.7-2.09-1.69l-2.3.02ZM73.63,176.09h2.54v-13.11h-2.52l-.02,13.11ZM64.84,172.07l7,.02c0-2.8-1.26-5.76-4.78-5.76s-4.72,2.87-4.72,5.02c0,3.13,2.07,5.07,4.7,5.07s4.24-1.43,4.63-3.07l-2.56-.17c-.48.87-1.13,1.22-1.96,1.22-1.2,0-2.18-.81-2.31-2.33ZM64.95,170.24c.15-1.15,1.09-1.93,2.07-1.93s1.91.7,2.09,1.93h-4.17ZM52,172.94c.04,1.78,1.54,3.48,4.43,3.48s4.22-1.57,4.22-3.26c0-.59-.2-1.18-.57-1.65-.35-.44-.82-.78-1.93-1.04l-2.7-.63c-.57-.15-.8-.5-.8-.83,0-.37.33-.94,1.57-.94,1.33,0,1.93.7,1.95,1.46l2.24-.04c-.04-.94-.55-1.89-1.35-2.48-.55-.39-1.43-.72-2.8-.72-2.72,0-3.93,1.46-3.93,3.07,0,.76.22,1.3.67,1.78.33.35.74.65,1.8.87l2.04.46c1.18.26,1.33.63,1.33,1.07,0,.41-.39,1.06-1.78,1.06s-2.02-.7-2.09-1.69l-2.3.02ZM45.36,176.09h2.54v-4.19c0-1.41.35-2.05.76-2.5.48-.5,1.02-.74,1.72-.74.15,0,.3.02.43.04l.02-2.24c-.13-.02-.33-.06-.54-.06-1.11,0-2.05.7-2.35,1.68l-.07-1.43h-2.5v9.43ZM38.49,176.46c3.04,0,5.07-2.04,5.07-5.11s-2.07-5.06-5-5.06-4.96,2.04-4.96,5.06,2.11,5.11,4.89,5.11ZM38.64,174.48c-1.33,0-2.46-.94-2.46-3.13s1.15-3.07,2.44-3.07c1.22,0,2.35.85,2.35,3.15s-1.2,3.06-2.33,3.06ZM38.97,165.54h2.56l-.02-2.56-2.54-.02v2.57ZM35.65,165.54h2.56l-.02-2.56-2.52-.02-.02,2.57Z"/>
</svg>