<svg xmlns="http://www.w3.org/2000/svg" viewBox="0 0 595.28 850.37"><defs><style>.a{fill:#e5e8eb;}.a,.b,.c{fill-rule:evenodd;}.b{fill:#000100;}.c{fill:#1e3b72;}</style></defs><title>M004_C</title><polyline class="a" points="0 850.37 595.28 850.37 595.28 0 0 0 0 850.37"/><path class="b" d="M193.48,625.84l7-22,6.55,22H193.48Zm218.37,15,0.43,3.74h9.79l-0.07-51h-9.86v18.51c-1.8-2.88-5.9-5.33-10.58-5.33-8.21,0-16.27,6.84-16.27,19.65a21.4,21.4,0,0,0,4.76,14,13.78,13.78,0,0,0,11.16,5.33A13.06,13.06,0,0,0,411.85,640.89Zm-7.78-3.53c-4.61,0-8.71-3.31-8.71-11.09,0-8.71,4.25-11.81,8.35-11.81S412,617.56,412,626C412,634,407.74,637.29,404.07,637.36Zm-58.53,7.27h9.86l0.07-20.52c0-2.88.58-4.25,1.37-5.4a7.39,7.39,0,0,1,6-3.1c3.38,0,5.83,2.23,5.83,6.33v22.68h9.86V618.78c0-6.84-5-12.09-12.67-12.09-5.25,0-8.93,2.81-10.15,5.68l-0.44-4.32-9.65-.07Zm-18.36-4.18a14.83,14.83,0,0,0,1.3,4.18h10c-0.58-.5-1.58-2.16-1.58-5.18l-0.07-18.72a20.43,20.43,0,0,0-.58-5c-1.44-5-5.54-9.07-15.48-9.07-11.45,0-15.91,5.83-15.91,12.24l8.64,0.14c0.43-2.45.79-3,1.59-3.67s2.73-1.73,5.69-1.73c4.61,0,6.41,2.45,6.41,4.17s-1.15,3-3.81,3.46L313.5,623c-7.42,1.29-10.87,6.12-10.87,10.94,0,6.33,4.9,11.74,13.75,11.74C322.5,645.71,325.81,643.26,327.18,640.45Zm0.07-15.33-0.07,5.47c-0.21,4.61-3.31,7.77-8.71,7.77-4.11,0-6.12-2.45-6.12-4.61,0-1.73.86-4,6.7-5.4l4.32-1.15A8.16,8.16,0,0,0,327.25,625.12Zm-5.91-21.53,9.86,0.07,0.07-10h-9.94v9.94Zm-12.89,0h9.86l0.07-10h-9.86Zm-29.66,41h9.79L301,608h-9.93l-7.35,24.12-7.27-24h-10Zm-50,0h9.86l0.07-20.52c0-2.88.58-4.25,1.37-5.4a7.39,7.39,0,0,1,6-3.1c3.38,0,5.83,2.23,5.83,6.33v22.68h9.86V618.78c0-6.84-5-12.09-12.67-12.09-5.25,0-8.93,2.81-10.15,5.68l-0.43-4.32L228.9,608Zm-52,0H187.5L191,633.9h18.43l3.31,10.72h10.8l-17.5-51H194.7Z" transform="translate(-1.84 -0.7)"/><path class="b" d="M20.31,719.47c0.14,6.91,6,13.54,17.21,13.54C49,733,54,726.89,54,720.34a10.4,10.4,0,0,0-2.31-6.41c-1.36-1.73-3.1-3-7.49-4l-10.51-2.45c-2.16-.58-3.1-1.94-3.1-3.24s1.29-3.67,6.12-3.67c5.18,0,7.49,2.74,7.56,5.69l8.71-.14a13,13,0,0,0-5.26-9.65c-2.16-1.51-5.55-2.81-10.87-2.81-10.58,0-15.19,5.69-15.19,11.95a9.42,9.42,0,0,0,2.52,6.91c1.3,1.36,2.88,2.52,7,3.38l7.92,1.8c4.68,1,5.18,2.45,5.18,4.18s-1.51,4.1-6.91,4.1c-5.18,0-7.85-2.73-8.14-6.55Zm525.44,12.24h9.86l0.07-20.52c0-2.88.58-4.25,1.36-5.4a7.4,7.4,0,0,1,6-3.1c3.38,0,5.83,2.23,5.83,6.33v22.68h9.86V705.86c0-6.84-5-12.09-12.67-12.09-5.26,0-8.93,2.81-10.15,5.69l-0.43-4.32-9.65-.07Zm-26.2,1.37c11.09,0,19.22-7.85,19.22-19.8,0-11.59-8-19.58-19.36-19.58-11.09,0-19.15,7.92-19.15,19.51C500.25,725.3,508.39,733.08,519.55,733.08Zm-0.07-7.7c-4.68,0-9.22-3.6-9.22-11.74,0-8.78,4.39-12.24,9.22-12.24s9.29,3.53,9.29,11.88C528.76,721.85,524.3,725.37,519.47,725.37Zm-61.2,8.35a10.71,10.71,0,0,0,3.6,7.34c2.16,2.16,6.33,4.18,13.39,4.18,8,0,13-3,15.48-6.12,1.73-2.23,2.59-4.25,2.59-9.72V695.06h-9.43l-0.36,4.46c-0.65-1.15-2.66-5.76-10.8-5.76-8.85,0-16.56,7.05-16.56,18.36s7.7,18.43,16.49,18.43c5.83,0,9.43-2.66,10.87-5.47v4c0,6.19-2.88,8.78-8.5,8.78-4.32,0-6.33-2.16-6.62-4.46ZM475,722.06c-4.82,0-8.78-3.45-8.78-10.22,0-5.9,4-9.65,8.57-9.65s8.64,3.74,8.64,9.94S479.23,722.06,475,722.06Zm-44.71,11.09c11.81,0,19.73-7.92,19.73-19.87,0-11.74-8.06-19.65-19.44-19.65-11.09,0-19.29,7.92-19.29,19.65C411.26,725.23,419.47,733.15,430.27,733.15Zm0.58-7.7c-5.11,0-9.5-3.67-9.5-12.17,0-8.2,4.39-11.95,9.43-11.95,4.75,0,9.14,3.31,9.14,12.24C439.92,722.21,435.24,725.45,430.85,725.45Zm1.37-34.78h9.86L442,680.74l-9.79-.07v10Zm-12.89,0h9.86v-9.93l-9.86-.07v10Zm-48.24,28.8c0.14,6.91,6,13.54,17.21,13.54,11.45,0,16.49-6.12,16.49-12.67a10.42,10.42,0,0,0-2.31-6.41c-1.37-1.73-3.1-3-7.49-4l-10.51-2.45c-2.16-.58-3.1-1.94-3.1-3.24s1.29-3.67,6.12-3.67c5.18,0,7.49,2.74,7.56,5.69l8.71-.14a13,13,0,0,0-5.25-9.65c-2.16-1.51-5.54-2.81-10.87-2.81-10.58,0-15.19,5.69-15.19,11.95a9.43,9.43,0,0,0,2.52,6.91c1.29,1.36,2.88,2.52,7,3.38l7.92,1.8c4.68,1,5.18,2.45,5.18,4.18s-1.51,4.1-6.91,4.1c-5.18,0-7.85-2.73-8.13-6.55Zm-17,8.06a11.53,11.53,0,0,0,1.22,4.18h10a6.2,6.2,0,0,1-1.66-3.81l0.07-20.09c0-8.78-4.61-14-16.49-14-11.09,0-15.69,6-15.55,12.24l8.71,0.14c0-2.73,2.09-5.33,7.13-5.33,4.82,0,6.4,2.38,6.4,4.11,0,1.51-.93,2.88-3.6,3.38l-5.62.93c-8.13,1.44-10.29,3-11.81,4.32a10,10,0,0,0-3.38,7.63c0,6,4.75,11.52,14,11.52C348.91,732.72,352,730.92,354.1,727.53Zm0.07-15.12L354.1,717c0,5.18-3.17,8.43-8.85,8.43-4.1,0-6-2.45-6-4.68,0-1.73.58-3.67,6.77-5.4l4.25-1.15A11.42,11.42,0,0,0,354.17,712.41ZM313,731.71h9.87v-51h-9.79Zm-42.62,2a10.71,10.71,0,0,0,3.6,7.34c2.16,2.16,6.34,4.18,13.39,4.18,8,0,13-3,15.41-6.12,1.73-2.23,2.59-4.25,2.59-9.72V695.06H296l-0.36,4.46c-0.65-1.15-2.66-5.76-10.8-5.76-8.85,0-16.56,7.05-16.56,18.36s7.7,18.43,16.49,18.43c5.83,0,9.43-2.66,10.87-5.47v4c0,6.19-2.88,8.78-8.5,8.78-4.32,0-6.34-2.16-6.63-4.46Zm16.7-11.67c-4.82,0-8.78-3.45-8.78-10.22,0-5.9,4-9.65,8.57-9.65s8.64,3.74,8.64,9.94S291.32,722.06,287.07,722.06Zm-59-2.59c0.14,6.91,6,13.54,17.21,13.54,11.45,0,16.49-6.12,16.49-12.67a10.42,10.42,0,0,0-2.3-6.41c-1.37-1.73-3.1-3-7.49-4l-10.51-2.45c-2.16-.58-3.1-1.94-3.1-3.24s1.29-3.67,6.12-3.67c5.18,0,7.49,2.74,7.56,5.69l8.71-.14a13,13,0,0,0-5.26-9.65c-2.16-1.51-5.54-2.81-10.87-2.81-10.58,0-15.19,5.69-15.19,11.95a9.41,9.41,0,0,0,2.52,6.91c1.29,1.36,2.88,2.52,7,3.38l7.92,1.8c4.68,1,5.18,2.45,5.18,4.18s-1.51,4.1-6.91,4.1c-5.18,0-7.85-2.73-8.13-6.55ZM211,728l0.43,3.74h9.79l-0.07-51h-9.86v18.51c-1.8-2.88-5.9-5.33-10.58-5.33-8.2,0-16.27,6.84-16.27,19.65a21.4,21.4,0,0,0,4.75,14,13.79,13.79,0,0,0,11.16,5.33A13,13,0,0,0,211,728Zm-7.78-3.53c-4.61,0-8.71-3.31-8.71-11.09,0-8.71,4.25-11.81,8.35-11.81s8.28,3.1,8.28,11.52C211.11,721.13,206.86,724.37,203.19,724.44ZM167.26,728l0.43,3.74h9.79l-0.07-51h-9.86v18.51c-1.8-2.88-5.9-5.33-10.58-5.33-8.2,0-16.27,6.84-16.27,19.65a21.4,21.4,0,0,0,4.75,14,13.78,13.78,0,0,0,11.16,5.33A13,13,0,0,0,167.26,728Zm-7.78-3.53c-4.61,0-8.71-3.31-8.71-11.09,0-8.71,4.25-11.81,8.35-11.81s8.28,3.1,8.28,11.52C167.41,721.13,163.16,724.37,159.49,724.44Zm-54.64,11.45v7.71h7.27c8.64,0,10.65-6.77,11.45-9l13.9-39.53H127l-7.35,22.68L112,695.06H101.38L112.69,726a12.52,12.52,0,0,1,1,5c0,3-1.58,5-5.9,4.9h-3Zm-43.56-4.18h9.86v-12l4.1-4.1,10.08,16.13h12.1L82.31,709.18l13.17-14.11H83.82L71.15,709l-0.07-28.3H61.28v51Z" transform="translate(-1.84 -0.7)"/><path class="c" d="M363.81,343.75c14.22,0,26.38-10.7,26.55-23.37l0.87-35.78c-6.58-.57-20.83-1.77-27.08-1.77-6.7.16-23.93,0.31-31.43,0.36l-0.86,34.68c0.33,15,11,25.7,25.25,25.7Zm-122.39-.18c14.58,0,25.2-10.72,25.36-25.47l-0.69-34.91c-7.51-.05-24.66-0.21-30.56-0.35h-0.05c-7.05,0-21.31,1.19-27.86,1.76l0.86,35.74c0.16,12.93,12,23.41,26.36,23.41ZM122.78,281.64a0.6,0.6,0,0,0,.2-0.38,0.64,0.64,0,0,0,.19-0.39ZM476,280.87a17.75,17.75,0,0,0-5.33-8l-2.87-2.28a21.49,21.49,0,0,0-14.27-4,5.13,5.13,0,0,0-1.71.19,167.93,167.93,0,0,0,1.32-19.41c0-84.48-68.74-153.73-153.47-154.31h-1c-84.34.58-153.45,69.83-153.45,154.31a172.64,172.64,0,0,0,1.33,19.79,2.38,2.38,0,0,0-1.15-.19,22.34,22.34,0,0,0-14.47,4.2l-2.48,2.08a17.91,17.91,0,0,0-5.52,8c-1.71,4-2.48,9.31-2.48,15.41,0,10.47,2.48,23.41,7.24,36.54,8.76,25.11,22.46,44.13,34.85,48.71l2.85,0.76c-0.38-.19,4.37.56,4.37,0.56a17.54,17.54,0,0,0,5.52-.56c2.86,10.85,7.43,28.73,12.75,40,20,43,52.95,73.64,84,77.63a281.36,281.36,0,0,0,32.93,2.3h6.48a8.53,8.53,0,0,0,.19-1c5.33-.2,10.66-0.77,15-1.33,30.86-4,63.81-34.62,83.8-77.63a179.52,179.52,0,0,0,13.33-40.34,16.74,16.74,0,0,0,5.31.58l4.77-.77,2.49-.75c12.37-4.57,26.09-23.41,35-48.51,4.77-13.12,7.05-26.07,7.05-36.53C478.46,290.19,477.71,284.86,476,280.87Zm-0.2-.38c0.2,0,.2.2,0.2,0.38a0.65,0.65,0,0,1,.18.39ZM363.87,351.15l-6.8-.18c-18.39,0-32.11-13.77-32.54-32.74l1-42.37,3.59,0s26.23-.19,34-0.38h1c8.55,0,30.28,2,31.2,2.12l3.43,0.33-1,42.64C397.59,337.4,382.36,351.15,363.87,351.15Zm0.94,8c21.84,0,39.74-16,39.92-35.73l1.43-53.29c-8.77-.78-31.88-2.73-41.46-2.73h-1c-9,.3-36,0.62-45.78.72L316.7,320c0.35,22.69,16.33,38.83,38,38.83l9.5,0.38h0.6Zm46.57-96A82.5,82.5,0,0,1,427,254.41h0l-53.06,6,0,0c14.5,0.76,35.21,2.66,36.29,2.76l1.14,0.1h0Zm0.22,65.67a35.5,35.5,0,0,0,6.26-5.58c1.74-2.7,5.1-21,8.15-41.52l0,0a62.35,62.35,0,0,0-13.06,9.06l0,0-0.88,32.8a39.4,39.4,0,0,1-.4,5.32ZM234.9,351.15c-18.4,0-33.55-13.75-33.75-30.66l-1-42.6,3.43-.33c0.91-.09,22.45-2.12,31.18-2.12h1c7.61,0.19,34,.38,34,0.38l3.6,0,0.83,41.85C274,336.88,260,351,241.59,351Zm-49.47-79.92c-5.84-5.22-15.17-9.58-23.55-12.76l-0.4-.14q-0.43-5.43-.43-11c0-75.91,61.69-138.13,137.85-138.52h0.76c76,0.38,137.85,62.61,137.85,138.52q0,5.57-.45,11.05c-8.45,3.19-17.83,7.57-23.62,12.82l0,0.05-0.26,9.52,0,0c6.67-4.79,15.12-9,22.56-12.2l0,0q-0.5,3.09-1.16,6.15l-0.19.58c0,0.56-.18,1.14-0.18,1.71a5.29,5.29,0,0,0-.19,1.72,8.21,8.21,0,0,0,8.19,8,7.88,7.88,0,0,0,5.9-2.66c0.31-.34.41-0.84,0.75-1.15a0.94,0.94,0,0,0,.38-0.56,6.07,6.07,0,0,1,5-2.48,5.56,5.56,0,0,1,4.21,1.9,8.21,8.21,0,0,1,3.23,5,1.48,1.48,0,0,1,.18.76A26,26,0,0,1,463,296.3c0,7.8-1.72,18.65-6.28,31.4-8.39,23.58-20,37.27-25.71,39.37l-0.59.19c-0.36,0-2.08.21-2.08,0.21-1,0-4-1.15-6.1-2.29a6.78,6.78,0,0,0-3.42-1.34,7.67,7.67,0,0,0-8.94,6.47,161.75,161.75,0,0,1-13.71,45.87c-17.51,37.69-46.26,65.06-71.59,68.5A195.06,195.06,0,0,1,305,486.18l-6.28.19v0.19a213.68,213.68,0,0,1-24.55-1.9c-25.52-3.44-54.46-30.81-71.78-68.5-7.25-15.22-13.91-46.24-14.1-46.43a7.55,7.55,0,0,0-9.14-5.9,8.16,8.16,0,0,0-4.37,2.67,16.61,16.61,0,0,1-4.19,1.53l-1.71-.38a8.27,8.27,0,0,1-.95-0.18c-5.51-2.1-17.33-15.8-25.51-39.39-4.57-12.56-6.47-23.59-6.47-31.4a32.5,32.5,0,0,1,1.14-8.75c0-.19.19-0.38,0.19-0.58a8,8,0,0,1,3.23-5.13,5.44,5.44,0,0,1,4.18-1.9,5.5,5.5,0,0,1,4.59,2.36c0.09,0.13.23,0.22,0.31,0.36a8.31,8.31,0,0,0,7.1,4.31,8.15,8.15,0,0,0,8-6.65,6.62,6.62,0,0,0-.2-2.68q-1.07-4.68-1.82-9.47a0.09,0.09,0,0,1,.14-0.08c7.47,3.22,16,7.44,22.8,12.28,0.05,0,.06,0,0.05,0l-0.22-9.3v-0.19Zm49.24,88,8.85-.38c22.22,0,38.2-16.15,38.54-38.41l-1.24-52.22c-9.78-.1-36.84-0.42-45.83-0.72h-0.91c-9.58,0-32.56,1.95-41.28,2.73L194,323.42c0.34,19.74,18.24,35.78,39.91,35.78h0.7ZM171.91,254.48a83.51,83.51,0,0,1,15.69,8.84c0.06,0-.07,0,0-0.05l1.12-.1c1.07-.1,21.55-2,36-2.75,0.07,0,.07,0,0,0l-52.8-6C171.85,254.45,171.85,254.46,171.91,254.48Zm14,36.24a64.24,64.24,0,0,0-13.12-9c-0.06,0,0-.05,0,0,3.13,20.59,6.56,38.92,8.36,41.69a32.27,32.27,0,0,0,5.91,5.39c0.05,0,.05,0,0,0a40.22,40.22,0,0,1-.42-5.15l-0.77-32.85h0Zm125,6.7v-3.82c0-4-4.77-7-10.67-7h-1.71c-5.9,0-10.66,3-10.66,7v3.82h23Zm0-14.65v-4c0-3.8-4.77-6.85-10.67-6.85h-1.71c-5.9,0-10.66,3.05-10.66,6.85v4h23ZM37.26,298.34c0,144.79,117.43,262.22,262.21,262.22S561.62,443.13,561.62,298.34,444.26,36.2,299.47,36.2,37.26,153.55,37.26,298.34Z" transform="translate(-1.84 -0.7)"/></svg>