<?xml version="1.0" encoding="UTF-8"?>
<svg id="Lager_1" data-name="Lager 1" xmlns="http://www.w3.org/2000/svg" viewBox="0 0 153.09 218.69">
  <defs>
    <style>
      .cls-1 {
        fill: #1a4080;
      }

      .cls-1, .cls-2 {
        fill-rule: evenodd;
      }

      .cls-2 {
        fill: #fff;
      }
    </style>
  </defs>
  <polyline class="cls-2" points="0 218.69 153.09 218.69 153.09 0 0 0 0 218.69"/>
  <path class="cls-1" d="M91.11,75.34c3.22,0,5.97-2.39,6-5.22l.2-8c-1.49-.13-4.71-.4-6.12-.4-1.52.03-5.41.07-7.11.08l-.2,7.75c.08,3.35,2.48,5.75,5.71,5.75l1.52.04ZM63.44,75.3c3.3,0,5.7-2.4,5.73-5.69l-.16-7.8c-1.7-.01-5.58-.05-6.91-.08h-.01c-1.59,0-4.82.27-6.3.39l.2,7.99c.04,2.89,2.71,5.23,5.96,5.23l1.49-.04ZM102.74,65.88c.05-.05.05-.1.05-.1.05-.05.05-.1.05-.1l-.1.2ZM116.47,61.3c-.22-.68-.65-1.32-1.21-1.79l-.65-.51c-.86-.64-2.02-.98-3.23-.9-.13,0-.26,0-.39.04.17-1.45.3-2.89.3-4.34,0-18.89-15.54-34.37-34.7-34.5h-.22c-19.07.13-34.69,15.61-34.69,34.5,0,1.49.13,2.94.3,4.43-.09-.04-.17-.04-.26-.04-1.2-.04-2.37.26-3.27.94l-.56.46c-.6.47-.99,1.11-1.25,1.79-.39.89-.56,2.08-.56,3.45,0,2.34.56,5.23,1.64,8.17,1.98,5.61,5.08,9.87,7.88,10.89l.64.17c-.08-.04.99.13.99.13.43.04.86-.04,1.25-.13.65,2.43,1.68,6.42,2.88,8.93,4.52,9.62,11.97,16.46,18.99,17.36,1.76.25,5.16.51,7.44.51h1.47s.04-.17.04-.22c1.21-.05,2.41-.17,3.4-.3,6.98-.89,14.43-7.74,18.95-17.36,1.38-2.94,2.41-6,3.01-9.02.39.09.82.17,1.2.13l1.08-.17.56-.17c2.8-1.02,5.9-5.23,7.92-10.85,1.08-2.93,1.59-5.83,1.59-8.17,0-1.36-.17-2.56-.56-3.45ZM121.89,71.95c.05,0,.05.05.05.1,0,0,.05.05.05.1l-.1-.2ZM91.12,77.02l-1.54-.04c-4.16,0-7.26-3.08-7.36-7.32l.24-9.47h.81s5.93-.05,7.69-.09h.23c1.93,0,6.85.45,7.06.47l.77.07-.23,9.54c-.05,3.77-3.49,6.85-7.67,6.85ZM91.33,78.8c4.94,0,8.98-3.58,9.03-7.99l.32-11.91c-1.98-.17-7.21-.61-9.37-.61h-.22c-2.02.07-8.14.14-10.35.16l-.28,11.58c.08,5.07,3.69,8.68,8.59,8.68l2.15.08h.14ZM101.86,57.35c1.02-.76,2.28-1.41,3.54-1.97h0s-12,1.34-12,1.34h0c3.28.16,7.96.59,8.21.61l.26.02h0ZM101.92,72.02c.55-.4,1.08-.84,1.42-1.25.39-.6,1.15-4.69,1.84-9.28h0c-1.14.61-2.2,1.29-2.95,2.02h0s-.2,7.34-.2,7.34c0,.4-.03.8-.09,1.19l-.02-.02ZM61.96,77.02c-4.16,0-7.59-3.08-7.63-6.86l-.23-9.53.78-.07c.21-.02,5.08-.47,7.05-.47h.24c1.72.05,7.69.09,7.69.09h.81s.19,9.36.19,9.36c-.05,4.29-3.22,7.44-7.38,7.44l-1.51.04ZM50.77,59.12c-1.32-1.17-3.43-2.14-5.33-2.85l-.09-.03c-.06-.81-.1-1.63-.1-2.45,0-16.97,13.95-30.88,31.17-30.97h.17c17.18.09,31.17,14,31.17,30.97,0,.83-.03,1.65-.1,2.47-1.91.71-4.03,1.69-5.34,2.87h0s-.06,2.14-.06,2.14h0c1.51-1.08,3.42-2.02,5.1-2.74h.01c-.08.47-.16.93-.26,1.38l-.04.13c0,.13-.04.26-.04.38-.04.13-.04.26-.04.38,0,.98.86,1.79,1.85,1.79.52,0,.99-.21,1.33-.59.07-.08.09-.19.17-.26.05-.04.09-.08.09-.13.26-.34.65-.55,1.12-.55.39,0,.73.17.95.43.3.17.6.6.73,1.11.04.08.04.13.04.17.17.47.26,1.11.26,1.96,0,1.74-.39,4.17-1.42,7.02-1.9,5.27-4.52,8.33-5.81,8.8l-.13.04c-.08,0-.47.04-.47.04-.22,0-.9-.26-1.38-.51-.21-.17-.47-.26-.77-.3-.99-.17-1.89.51-2.02,1.44-.48,3.36-1.51,6.9-3.1,10.26-3.96,8.43-10.46,14.55-16.19,15.32-1.29.17-2.84.29-4.44.34l-1.42.04v.04c-1.89-.04-4.22-.21-5.55-.42-5.77-.77-12.31-6.89-16.23-15.32-1.64-3.4-3.14-10.34-3.19-10.38-.17-.94-1.12-1.53-2.07-1.32-.39.09-.73.3-.99.6-.39.17-.78.34-.95.34l-.39-.09s-.21-.04-.21-.04c-1.25-.47-3.92-3.53-5.77-8.81-1.03-2.81-1.46-5.28-1.46-7.02,0-.85.13-1.49.26-1.96,0-.04.05-.09.05-.13.13-.55.43-.98.73-1.15.22-.26.56-.43.95-.43.41,0,.81.19,1.04.53.02.03.05.05.07.08.31.56.94.96,1.6.96.91,0,1.64-.64,1.81-1.49.04-.17,0-.38-.04-.6-.16-.7-.3-1.4-.41-2.12,0-.02.02-.02.03-.02,1.69.72,3.62,1.66,5.15,2.74.01,0,.01,0,.01,0l-.05-2.08v-.04ZM61.89,78.81l2-.09c5.02,0,8.64-3.61,8.71-8.59l-.28-11.68c-2.21-.02-8.33-.09-10.36-.16h-.21c-2.16,0-7.36.43-9.33.61l.28,11.9c.08,4.41,4.12,8,9.03,8,.05,0,.14,0,.16,0ZM47.74,55.4c1.26.56,2.52,1.22,3.55,1.98.02.01-.01-.01,0-.01l.25-.02c.24-.02,4.87-.44,8.14-.61.01,0,.01,0,0,0l-11.94-1.34s-.01,0,0,0ZM50.87,63.48c-.77-.72-1.83-1.4-2.97-2.02-.01,0,0-.01,0,0,.71,4.6,1.48,8.7,1.89,9.32.31.39.81.82,1.34,1.2.01,0,.01,0,0,0-.06-.38-.09-.76-.09-1.15l-.17-7.34h0ZM79.14,65v-.85c0-.89-1.08-1.57-2.41-1.57h-.39c-1.33,0-2.41.68-2.41,1.57v.85h5.21ZM79.14,61.73v-.89c0-.85-1.08-1.53-2.41-1.53h-.39c-1.33,0-2.41.68-2.41,1.53v.89h5.21ZM17.28,65.19c0,32.37,26.55,58.63,59.28,58.63s59.27-26.26,59.27-58.63S109.29,6.58,76.56,6.58s-59.28,26.24-59.28,58.61Z"/>
  <polyline class="cls-1" points="10.07 133.71 143.06 133.71 143.06 208.94 10.07 208.94 10.07 133.71"/>
  <path class="cls-2" d="M49.29,150.23l1.8-5.67,1.68,5.67h-3.48ZM105.44,154.1l.11.96h2.52l-.02-13.11h-2.54v4.76c-.46-.74-1.52-1.37-2.72-1.37-2.11,0-4.18,1.76-4.18,5.05,0,1.5.48,2.74,1.22,3.61.78.95,1.74,1.37,2.87,1.37s2.07-.45,2.74-1.28ZM103.44,153.19c-1.18,0-2.24-.85-2.24-2.85,0-2.24,1.09-3.04,2.15-3.04s2.13.8,2.13,2.96-1.09,2.91-2.04,2.93ZM88.39,155.06h2.54l.02-5.28c0-.74.15-1.09.35-1.39.33-.48.93-.8,1.54-.8.87,0,1.5.57,1.5,1.63v5.83h2.54v-6.65c0-1.76-1.3-3.11-3.26-3.11-1.35,0-2.3.72-2.61,1.46l-.11-1.11-2.48-.02-.02,9.42ZM83.67,153.99c.06.37.18.78.33,1.07h2.57c-.15-.13-.41-.56-.41-1.33l-.02-4.81c-.04-.83-.09-1.07-.15-1.28-.37-1.3-1.43-2.33-3.98-2.33-2.94,0-4.09,1.5-4.09,3.15l2.22.04c.11-.63.2-.76.41-.94.22-.22.7-.44,1.46-.44,1.18,0,1.65.63,1.65,1.07s-.3.76-.98.89l-2.54.44c-1.91.33-2.8,1.57-2.8,2.81,0,1.63,1.26,3.02,3.54,3.02,1.57,0,2.42-.63,2.78-1.35ZM83.69,150.05l-.02,1.41c-.05,1.18-.85,2-2.24,2-1.06,0-1.57-.63-1.57-1.19,0-.44.22-1.02,1.72-1.39l1.11-.3c.41-.09.76-.3,1-.54ZM82.17,144.51l2.54.02.02-2.57h-2.56v2.56ZM78.85,144.51h2.54l.02-2.57h-2.54l-.02,2.57ZM71.23,155.06h2.52l3.2-9.42h-2.55l-1.89,6.2-1.87-6.18h-2.57l3.17,9.41ZM58.38,155.06h2.54l.02-5.28c0-.74.15-1.09.35-1.39.33-.48.93-.8,1.54-.8.87,0,1.5.57,1.5,1.63v5.83h2.54v-6.65c0-1.76-1.3-3.11-3.26-3.11-1.35,0-2.3.72-2.61,1.46l-.11-1.11-2.48-.02-.02,9.42ZM45.01,155.06h2.74l.89-2.76h4.74l.85,2.76h2.78l-4.5-13.11h-2.91l-4.59,13.11Z"/>
  <path class="cls-2" d="M14.1,172.72c.03,1.78,1.34,3.48,3.85,3.48s3.69-1.57,3.69-3.26c0-.59-.19-1.19-.52-1.65-.31-.44-.69-.78-1.67-1.04l-2.35-.63c-.48-.15-.69-.5-.69-.83,0-.37.29-.94,1.37-.94,1.16,0,1.67.7,1.69,1.46l1.95-.04c-.03-.95-.48-1.89-1.18-2.48-.48-.39-1.24-.72-2.43-.72-2.37,0-3.4,1.46-3.4,3.07,0,.76.18,1.3.56,1.78.29.35.64.65,1.56.87l1.77.46c1.05.26,1.16.63,1.16,1.07,0,.41-.34,1.06-1.55,1.06s-1.76-.7-1.82-1.69l-2,.02ZM131.62,175.87h2.21l.02-5.28c0-.74.13-1.09.31-1.39.29-.48.8-.8,1.34-.8.76,0,1.3.57,1.3,1.63v5.83h2.21v-6.65c0-1.76-1.13-3.11-2.83-3.11-1.18,0-2,.72-2.27,1.46l-.1-1.11-2.16-.02-.02,9.42ZM125.76,176.22c2.48,0,4.3-2.02,4.3-5.09s-1.79-5.04-4.33-5.04-4.28,2.04-4.28,5.02,1.82,5.11,4.32,5.11ZM125.74,174.24c-1.05,0-2.06-.93-2.06-3.02,0-2.26.98-3.15,2.06-3.15s2.08.91,2.08,3.05-1,3.11-2.08,3.11ZM112.06,176.39c.1.89.34,1.39.8,1.89.48.56,1.42,1.07,3,1.07,1.79,0,2.91-.76,3.46-1.57.39-.57.58-1.09.58-2.5v-8.83h-2.11l-.08,1.15c-.15-.3-.59-1.48-2.41-1.48-1.98,0-3.7,1.81-3.7,4.72s1.72,4.74,3.69,4.74c1.3,0,2.11-.69,2.43-1.41v1.02c0,1.59-.64,2.26-1.9,2.26-.97,0-1.42-.56-1.48-1.15l-2.27.09ZM115.79,173.39c-1.08,0-1.96-.89-1.96-2.63,0-1.52.9-2.48,1.92-2.48s1.93.96,1.93,2.55-.93,2.56-1.88,2.56ZM105.79,176.24c2.64,0,4.41-2.04,4.41-5.11s-1.8-5.05-4.35-5.05-4.32,2.04-4.32,5.05,1.84,5.11,4.25,5.11ZM105.92,174.26c-1.14,0-2.12-.94-2.12-3.13s.98-3.07,2.11-3.07c1.06,0,2.04.85,2.04,3.15s-1.05,3.06-2.03,3.06ZM106.23,165.31h2.21l-.02-2.56-2.19-.02v2.57ZM103.35,165.31h2.21v-2.56l-2.21-.02v2.57ZM92.56,172.72c.03,1.78,1.34,3.48,3.85,3.48s3.69-1.57,3.69-3.26c0-.59-.19-1.19-.51-1.65-.31-.44-.69-.78-1.68-1.04l-2.35-.63c-.48-.15-.69-.5-.69-.83,0-.37.29-.94,1.37-.94,1.16,0,1.67.7,1.69,1.46l1.95-.04c-.03-.95-.48-1.89-1.18-2.48-.48-.39-1.24-.72-2.43-.72-2.37,0-3.4,1.46-3.4,3.07,0,.76.18,1.3.56,1.78.29.35.64.65,1.56.87l1.77.46c1.05.26,1.16.63,1.16,1.07,0,.41-.34,1.06-1.55,1.06s-1.76-.7-1.82-1.69l-2,.02ZM88.76,174.79c.05.46.15.8.27,1.07h2.24c-.27-.39-.35-.67-.37-.98l.02-5.17c0-2.26-1.03-3.61-3.69-3.61-2.48,0-3.51,1.56-3.48,3.15l1.95.04c0-.7.47-1.37,1.6-1.37s1.43.61,1.43,1.06c0,.39-.21.74-.8.87l-1.26.24c-1.82.37-2.3.76-2.64,1.11-.5.5-.76,1.2-.76,1.96,0,1.56,1.06,2.96,3.14,2.96,1.19,0,1.88-.46,2.35-1.33ZM88.77,170.91l-.02,1.18c0,1.33-.71,2.17-1.98,2.17-.92,0-1.35-.63-1.35-1.2,0-.44.13-.94,1.51-1.39l.95-.3c.43-.13.71-.32.89-.46ZM79.56,175.87h2.21v-13.11h-2.19l-.02,13.11ZM70.03,176.39c.1.89.34,1.39.8,1.89.48.56,1.42,1.07,2.99,1.07,1.79,0,2.9-.76,3.45-1.57.39-.57.58-1.09.58-2.5v-8.83h-2.09l-.08,1.15c-.15-.3-.6-1.48-2.42-1.48-1.98,0-3.7,1.81-3.7,4.72s1.72,4.74,3.69,4.74c1.3,0,2.11-.69,2.43-1.41v1.02c0,1.59-.65,2.26-1.9,2.26-.97,0-1.42-.56-1.48-1.15l-2.27.09ZM73.76,173.39c-1.08,0-1.96-.89-1.96-2.63,0-1.52.9-2.48,1.92-2.48s1.93.96,1.93,2.55-.93,2.56-1.88,2.56ZM60.58,172.72c.03,1.78,1.34,3.48,3.85,3.48s3.69-1.57,3.69-3.26c0-.59-.19-1.19-.52-1.65-.31-.44-.69-.78-1.67-1.04l-2.35-.63c-.48-.15-.69-.5-.69-.83,0-.37.29-.94,1.37-.94,1.16,0,1.67.7,1.69,1.46l1.95-.04c-.03-.95-.48-1.89-1.18-2.48-.48-.39-1.24-.72-2.43-.72-2.37,0-3.4,1.46-3.4,3.07,0,.76.18,1.3.56,1.78.29.35.64.65,1.56.87l1.77.46c1.05.26,1.16.63,1.16,1.07,0,.41-.34,1.06-1.54,1.06s-1.76-.7-1.82-1.69l-2,.02ZM56.74,174.9l.1.96h2.19l-.02-13.11h-2.21v4.76c-.4-.74-1.32-1.37-2.37-1.37-1.83,0-3.64,1.76-3.64,5.05,0,1.5.42,2.74,1.06,3.61.68.94,1.51,1.37,2.5,1.37s1.8-.44,2.38-1.28ZM55.01,174c-1.03,0-1.95-.85-1.95-2.85,0-2.24.95-3.04,1.87-3.04s1.85.8,1.85,2.96-.95,2.91-1.77,2.92ZM46.97,174.9l.1.96h2.19l-.02-13.11h-2.21v4.76c-.4-.74-1.32-1.37-2.37-1.37-1.84,0-3.64,1.76-3.64,5.05,0,1.5.42,2.74,1.06,3.61.68.94,1.51,1.37,2.49,1.37s1.8-.44,2.38-1.28ZM45.23,174c-1.03,0-1.95-.85-1.95-2.85,0-2.24.95-3.04,1.87-3.04s1.85.8,1.85,2.96-.95,2.91-1.77,2.92ZM33.01,176.94v1.98h1.63c1.93,0,2.38-1.74,2.56-2.31l3.11-10.17h-2.33l-1.64,5.83-1.72-5.83h-2.37l2.53,7.94c.18.52.23.87.23,1.3,0,.76-.35,1.28-1.32,1.26h-.66ZM23.27,175.87h2.21v-3.09l.92-1.06,2.26,4.15h2.71l-3.38-5.79,2.95-3.63h-2.61l-2.83,3.59-.02-7.28h-2.19v13.11Z"/>
</svg>