<?xml version="1.0" encoding="UTF-8"?>
<svg id="Lager_1" data-name="Lager 1" xmlns="http://www.w3.org/2000/svg" viewBox="0 0 153.09 218.69">
  <defs>
    <style>
      .cls-1 {
        fill: #1a4080;
      }

      .cls-1, .cls-2 {
        fill-rule: evenodd;
      }

      .cls-2 {
        fill: #fff;
      }
    </style>
  </defs>
  <polyline class="cls-2" points="0 218.69 153.09 218.69 153.09 0 0 0 0 218.69"/>
  <path class="cls-1" d="M45.4,82.95h62.29v-5.53h-28.73V22.12h-4.82v55.3h-28.73v5.53ZM64.54,107.2h23.96v-5.53h-23.96v5.53ZM54.39,95.12h44.31v-5.53h-44.31v5.53ZM17.27,65.22c0,32.37,26.55,58.63,59.28,58.63s59.27-26.26,59.27-58.63S109.29,6.61,76.56,6.61s-59.28,26.24-59.28,58.61Z"/>
  <polyline class="cls-1" points="10.06 133.71 143.06 133.71 143.06 208.94 10.06 208.94 10.06 133.71"/>
  <path class="cls-2" d="M52.25,150.27v1.11c0,1.57.28,2.15.89,2.81.68.78,1.7,1.26,3.29,1.26,1.24,0,2.41-.24,3.32-1.15.68-.7,1.02-1.44,1.02-2.63l-.02-9.74h-2.68v9.5c-.04.83-.13,1-.33,1.26-.28.37-.74.61-1.31.61-1.02,0-1.72-.59-1.68-2.05v-.98h-2.48ZM97.91,153.97c.05.46.17.8.31,1.07h2.57c-.32-.39-.41-.67-.43-.98l.02-5.17c0-2.26-1.18-3.61-4.24-3.61-2.85,0-4.04,1.56-4,3.15l2.24.04c0-.7.54-1.37,1.83-1.37s1.65.61,1.65,1.06c0,.39-.24.74-.93.87l-1.44.24c-2.09.37-2.65.76-3.04,1.11-.57.5-.87,1.2-.87,1.96,0,1.55,1.22,2.96,3.61,2.96,1.37,0,2.17-.46,2.7-1.33ZM97.92,150.08l-.02,1.18c0,1.33-.82,2.17-2.28,2.17-1.06,0-1.56-.63-1.56-1.2,0-.44.15-.94,1.74-1.39l1.09-.3c.5-.13.81-.32,1.02-.46ZM87.24,154.08l.11.96h2.52l-.02-13.11h-2.54v4.76c-.46-.74-1.52-1.37-2.72-1.37-2.11,0-4.18,1.76-4.18,5.05,0,1.5.48,2.74,1.22,3.61.78.94,1.74,1.37,2.87,1.37s2.07-.44,2.74-1.28ZM85.24,153.17c-1.18,0-2.24-.85-2.24-2.85,0-2.24,1.11-3.04,2.15-3.04s2.13.8,2.13,2.96-1.09,2.91-2.04,2.92ZM74.13,155.05h2.52v-4.18c0-1.41.35-2.05.76-2.5.48-.5,1.04-.74,1.72-.74.15,0,.3.02.44.04v-2.24c-.13-.02-.33-.06-.54-.06-1.11,0-2.05.7-2.35,1.69l-.07-1.43h-2.48v9.42ZM67.39,155.4c2.85,0,4.94-2.02,4.94-5.09s-2.05-5.04-4.98-5.04-4.93,2.04-4.93,5.02,2.09,5.11,4.96,5.11ZM67.37,153.42c-1.2,0-2.37-.93-2.37-3.02,0-2.26,1.13-3.15,2.37-3.15s2.39.91,2.39,3.05-1.15,3.11-2.39,3.11Z"/>
  <path class="cls-2" d="M27.82,170.9l-.02,1.19c0,1.33-.83,2.17-2.28,2.17-1.06,0-1.57-.63-1.57-1.2,0-.44.17-.94,1.76-1.39l1.09-.3c.48-.13.82-.31,1.02-.46ZM123.1,175.87h2.55v-5.28c0-.74.15-1.09.35-1.39.33-.48.94-.8,1.55-.8.87,0,1.5.57,1.5,1.63l-.02,5.83h2.54v-6.65c0-1.76-1.3-3.11-3.24-3.11-1.35,0-2.3.72-2.63,1.46l-.09-1.11-2.48-.02-.04,9.42ZM114.33,171.85l7,.02c0-2.8-1.26-5.76-4.78-5.76s-4.72,2.87-4.72,5.02c0,3.13,2.07,5.07,4.7,5.07s4.24-1.43,4.63-3.07l-2.55-.17c-.48.87-1.13,1.22-1.96,1.22-1.2,0-2.18-.82-2.32-2.33ZM114.44,170.02c.15-1.15,1.09-1.93,2.05-1.93,1.04,0,1.92.7,2.11,1.93h-4.17ZM101.03,176.39c.11.89.39,1.39.91,1.89.57.56,1.65,1.07,3.46,1.07,2.04,0,3.35-.76,3.98-1.57.43-.57.67-1.09.67-2.5l-.02-8.83h-2.41l-.09,1.15c-.17-.3-.68-1.48-2.78-1.48-2.28,0-4.28,1.81-4.28,4.72s2,4.74,4.24,4.74c1.52,0,2.44-.68,2.81-1.41l-.02,1.02c0,1.59-.72,2.26-2.18,2.26-1.09,0-1.61-.55-1.7-1.15l-2.59.09ZM105.33,173.39c-1.24,0-2.28-.89-2.28-2.63,0-1.52,1.06-2.48,2.22-2.48s2.22.96,2.22,2.55-1.07,2.56-2.17,2.56ZM90.26,175.87h2.55v-5.28c0-.74.15-1.09.35-1.39.33-.48.94-.8,1.55-.8.87,0,1.5.57,1.5,1.63l-.02,5.83h2.54v-6.65c0-1.76-1.3-3.11-3.24-3.11-1.35,0-2.3.72-2.63,1.46l-.09-1.11-2.48-.02-.04,9.42ZM85.76,175.87h2.54v-9.42h-2.52l-.02,9.42ZM85.78,165.02h2.54v-2.26h-2.54v2.26ZM75.37,175.87h2.54v-5.28c0-.74.15-1.09.35-1.39.33-.48.94-.8,1.55-.8.87,0,1.5.57,1.5,1.63l-.02,5.83h2.54v-6.65c0-1.76-1.3-3.11-3.24-3.11-1.35,0-2.3.72-2.63,1.46l-.09-1.11-2.46-.02-.04,9.42ZM73.52,175.87v-1.94h-.95c-.31,0-.59-.17-.72-.35-.06-.07-.13-.22-.13-.74v-4.67h1.7v-1.72h-1.7l-.02-2.98h-2.52v2.98h-1.33v1.74l1.35-.02-.02,4.87c0,2.13.89,2.83,2.28,2.83h2.06ZM63.67,174.81l.15,1.06h2.39l-.02-9.41-2.5-.02v5.28c0,1.44-.87,2.18-1.89,2.18-.94,0-1.54-.5-1.54-1.83v-5.63h-2.52v6.48c0,1.24.35,1.91.93,2.44.54.5,1.33.81,2.35.81,1.17,0,2.09-.5,2.65-1.37ZM53.26,175.87h2.56v-13.11h-2.52l-.04,13.11ZM42.73,172.72c.06,1.78,1.55,3.48,4.44,3.48s4.22-1.57,4.22-3.26c0-.59-.2-1.19-.57-1.65-.35-.44-.81-.78-1.92-1.04l-2.7-.63c-.57-.15-.8-.5-.8-.83,0-.37.33-.94,1.57-.94,1.33,0,1.93.7,1.94,1.46l2.24-.04c-.06-.94-.56-1.89-1.35-2.48-.56-.39-1.43-.72-2.8-.72-2.72,0-3.92,1.46-3.92,3.07,0,.76.22,1.3.67,1.78.33.35.74.65,1.8.87l2.04.46c1.18.26,1.33.63,1.33,1.07,0,.41-.39,1.06-1.8,1.06-1.31,0-2-.7-2.07-1.69l-2.31.02ZM32.51,175.87h2.55v-5.28c0-.74.15-1.09.35-1.39.33-.48.95-.8,1.56-.8.87,0,1.5.57,1.5,1.63l-.02,5.83h2.54v-6.65c0-1.76-1.3-3.11-3.24-3.11-1.35,0-2.3.72-2.63,1.46l-.09-1.11-2.48-.02-.04,9.42ZM27.8,174.79c.06.46.17.8.3,1.07h2.59c-.33-.39-.41-.67-.43-.98v-5.17c0-2.26-1.17-3.61-4.24-3.61-2.85,0-4.04,1.55-3.98,3.15l2.24.04c0-.7.52-1.37,1.82-1.37s1.67.61,1.67,1.06c0,.39-.24.74-.93.87l-1.46.24c-2.07.37-2.63.76-3.04,1.11-.55.5-.85,1.2-.85,1.96,0,1.56,1.22,2.96,3.59,2.96,1.39,0,2.19-.46,2.72-1.33Z"/>
</svg>