<svg xmlns="http://www.w3.org/2000/svg" viewBox="0 0 595.28 850.37"><defs><style>.a{fill:#e5e8eb;}.a,.b,.c{fill-rule:evenodd;}.b{fill:#000100;}.c{fill:#1e3b72;}</style></defs><title>M005_C</title><polyline class="a" points="0 850.37 595.28 850.37 595.28 0 0 0 0 850.37"/><path class="b" d="M205,626.05v4.32c0,6.12,1.08,8.35,3.46,10.95,2.66,3,6.62,4.9,12.81,4.9,4.83,0,9.36-.94,12.89-4.46,2.66-2.74,4-5.62,4-10.23L238,593.65H227.57v36.94c-0.14,3.24-.51,3.89-1.3,4.9a6.22,6.22,0,0,1-5.11,2.38c-4,0-6.7-2.31-6.55-8v-3.82H205Zm177.55,14.4a11.46,11.46,0,0,0,1.22,4.18h10a6.2,6.2,0,0,1-1.66-3.81l0.07-20.09c0-8.78-4.61-14-16.49-14-11.09,0-15.7,6-15.55,12.24l8.71,0.14c0-2.73,2.09-5.33,7.13-5.33,4.82,0,6.41,2.38,6.41,4.1,0,1.51-.94,2.88-3.6,3.39l-5.61.93c-8.14,1.44-10.3,3-11.81,4.32a10,10,0,0,0-3.38,7.63c0,6,4.75,11.52,14,11.52C377.33,645.64,380.43,643.84,382.51,640.45Zm0.07-15.12-0.07,4.61c0,5.18-3.17,8.42-8.86,8.42-4.1,0-6-2.45-6-4.68,0-1.73.58-3.67,6.77-5.4l4.25-1.15A11.41,11.41,0,0,0,382.58,625.33ZM341,640.89l0.43,3.74h9.79l-0.07-51h-9.86v18.51c-1.8-2.88-5.91-5.33-10.58-5.33-8.21,0-16.27,6.84-16.27,19.65a21.42,21.42,0,0,0,4.75,14,13.79,13.79,0,0,0,11.16,5.33A13.06,13.06,0,0,0,341,640.89Zm-7.78-3.53c-4.61,0-8.71-3.31-8.71-11.09,0-8.71,4.32-11.81,8.35-11.81s8.28,3.1,8.28,11.52C341.19,634,336.94,637.29,333.27,637.36Zm-43.2,7.27h9.79V628.36c0-5.47,1.36-8,3-9.72a8.83,8.83,0,0,1,6.7-2.88,13.57,13.57,0,0,1,1.73.14v-8.71a14.75,14.75,0,0,0-2.09-.21,9.44,9.44,0,0,0-9.14,6.55L299.72,608h-9.65v36.65ZM263.86,646c11.09,0,19.22-7.85,19.22-19.8,0-11.59-8-19.58-19.36-19.58-11.09,0-19.15,7.92-19.15,19.51C244.56,638.22,252.7,646,263.86,646Zm-0.07-7.7c-4.68,0-9.22-3.6-9.22-11.74,0-8.78,4.39-12.24,9.22-12.24s9.29,3.53,9.29,11.88C273.08,634.77,268.61,638.29,263.79,638.29Z" transform="translate(-1.81 -0.7)"/><path class="b" d="M110,712.41L109.92,717c0,5.18-3.24,8.43-8.85,8.43-4.11,0-6.12-2.45-6.12-4.68,0-1.73.65-3.67,6.84-5.4l4.25-1.15A12.13,12.13,0,0,0,110,712.41Zm370.5,19.29h9.93V711.19c0-2.88.58-4.25,1.37-5.4a7.52,7.52,0,0,1,6-3.1c3.38,0,5.83,2.23,5.83,6.33l-0.07,22.68h9.87V705.86c0-6.84-5-12.09-12.6-12.09-5.26,0-8.93,2.81-10.22,5.69l-0.36-4.32-9.65-.07Zm-34.13-15.62,27.22,0.07c0-10.87-4.9-22.39-18.58-22.39-14,0-18.36,11.16-18.36,19.51,0,12.17,8.06,19.73,18.29,19.73s16.49-5.55,18-12l-9.93-.65c-1.87,3.39-4.39,4.75-7.63,4.75C450.69,725.16,446.87,722,446.37,716.09ZM446.8,709a8.37,8.37,0,0,1,8-7.48c4,0,7.49,2.73,8.21,7.48H446.8Zm-52.13,24.77a11,11,0,0,0,3.53,7.34c2.23,2.16,6.41,4.18,13.47,4.18,7.92,0,13-3,15.48-6.12,1.66-2.23,2.59-4.25,2.59-9.72l-0.07-34.34h-9.36l-0.36,4.46c-0.65-1.15-2.66-5.76-10.8-5.76-8.86,0-16.63,7.05-16.63,18.36s7.77,18.43,16.49,18.43c5.9,0,9.5-2.66,10.94-5.47l-0.07,4c0,6.19-2.81,8.78-8.5,8.78-4.25,0-6.26-2.16-6.63-4.46Zm16.7-11.67c-4.83,0-8.86-3.45-8.86-10.22,0-5.9,4.11-9.65,8.64-9.65s8.64,3.74,8.64,9.94S415.62,722.06,411.38,722.06Zm-58.61,9.65h9.93V711.19c0-2.88.58-4.25,1.37-5.4a7.52,7.52,0,0,1,6-3.1c3.38,0,5.83,2.23,5.83,6.33l-0.07,22.68h9.86V705.86c0-6.84-5-12.09-12.6-12.09-5.26,0-8.93,2.81-10.22,5.69l-0.36-4.32-9.65-.07Zm-17.49,0h9.86V695.06h-9.79Zm0.07-42.19h9.87v-8.78h-9.87v8.78Zm-40.46,42.19h9.87V711.19c0-2.88.58-4.25,1.37-5.4a7.52,7.52,0,0,1,6-3.1c3.38,0,5.83,2.23,5.83,6.33l-0.07,22.68h9.86V705.86c0-6.84-5-12.09-12.6-12.09-5.26,0-8.93,2.81-10.23,5.69l-0.36-4.32-9.58-.07Zm-7.2,0v-7.56H284a3.54,3.54,0,0,1-2.81-1.37c-0.21-.29-0.5-0.86-0.5-2.88V701.76h6.62v-6.7H280.7l-0.07-11.59h-9.79v11.59h-5.18v6.77l5.26-.07-0.07,18.93c0,8.28,3.46,11,8.85,11h8Zm-38.31-4.1,0.58,4.1h9.29l-0.07-36.57-9.72-.07v20.52c0,5.62-3.38,8.5-7.35,8.5-3.67,0-6-1.94-6-7.13V695.06h-9.79v25.2c0,4.83,1.37,7.42,3.6,9.5a13.11,13.11,0,0,0,9.15,3.17A11.69,11.69,0,0,0,249.38,727.61Zm-40.46,4.1h9.94v-51h-9.79Zm-41-12.24c0.22,6.91,6,13.54,17.28,13.54,11.45,0,16.41-6.12,16.41-12.67a10.33,10.33,0,0,0-2.23-6.41c-1.36-1.73-3.17-3-7.49-4l-10.51-2.45c-2.23-.58-3.1-1.94-3.1-3.24s1.3-3.67,6.12-3.67c5.18,0,7.49,2.74,7.56,5.69l8.71-.14a13.24,13.24,0,0,0-5.26-9.65c-2.16-1.51-5.55-2.81-10.87-2.81-10.58,0-15.26,5.69-15.26,11.95a9.47,9.47,0,0,0,2.59,6.91c1.3,1.36,2.88,2.52,7,3.38l7.92,1.8c4.61,1,5.18,2.45,5.18,4.18s-1.51,4.1-7,4.1c-5.11,0-7.77-2.73-8.06-6.55Zm-39.74,12.24h9.93V711.19c0-2.88.58-4.25,1.37-5.4a7.53,7.53,0,0,1,6.05-3.1c3.38,0,5.83,2.23,5.83,6.33l-0.07,22.68h9.86V705.86c0-6.84-5-12.09-12.6-12.09-5.25,0-8.93,2.81-10.22,5.69L138,695.13l-9.65-.07Zm-18.29-4.18a13.25,13.25,0,0,0,1.15,4.18h10.08a5.78,5.78,0,0,1-1.66-3.81V707.81c0-8.78-4.54-14-16.49-14-11.09,0-15.7,6-15.48,12.24l8.71,0.14c0-2.73,2-5.33,7.06-5.33,4.82,0,6.48,2.38,6.48,4.11,0,1.51-.93,2.88-3.6,3.38l-5.68.93c-8.06,1.44-10.22,3-11.81,4.32a10.14,10.14,0,0,0-3.31,7.63c0,6,4.75,11.52,14,11.52C104.74,732.72,107.83,730.92,109.92,727.53Z" transform="translate(-1.81 -0.7)"/><path class="c" d="M161.7,377.54H437.21V352.81H310.11V105.45H288.79V352.81H161.7v24.73ZM246.35,486h106V461.27h-106V486Zm-44.88-54h196V407.23h-196V432ZM37.23,298.34c0,144.79,117.43,262.22,262.21,262.22S561.59,443.13,561.59,298.34,444.23,36.2,299.45,36.2,37.23,153.55,37.23,298.34Z" transform="translate(-1.81 -0.7)"/></svg>