<svg xmlns="http://www.w3.org/2000/svg" viewBox="0 0 595.28 850.36"><defs><style>.a{fill:#e5e8eb;}.a,.b,.c{fill-rule:evenodd;}.b{fill:#000100;}.c{fill:#1e3b72;}</style></defs><title>M006_C</title><polyline class="a" points="0 850.36 595.28 850.36 595.28 0 0 0 0 850.36"/><path class="b" d="M54.6,614.08V601.77H68A6.1,6.1,0,0,1,73.76,608a6.29,6.29,0,0,1-6.55,6.26Zm466.25,30.53h9.86l0.07-20.52c0-2.88.58-4.25,1.36-5.4a7.41,7.41,0,0,1,6-3.1c3.38,0,5.83,2.23,5.83,6.33v22.68h9.86V618.76c0-6.84-5-12.1-12.6-12.1-5.25,0-9,2.81-10.22,5.69L530.58,608l-9.65-.07ZM486.73,629l27.22,0.07c0-10.87-5-22.39-18.57-22.39-14,0-18.43,11.16-18.43,19.51,0,12.17,8.06,19.73,18.29,19.73s16.56-5.54,18-11.95l-9.87-.65c-1.87,3.38-4.46,4.75-7.63,4.75C491.05,638.06,487.24,634.89,486.73,629Zm0.43-7.13a8.38,8.38,0,0,1,8-7.49c4,0,7.49,2.74,8.14,7.49H487.17Zm-70.77,22.75h9.86l0.07-21.17c0-5.25,2.88-7.92,6.84-7.92a4.92,4.92,0,0,1,5,3.1c0.14,0.36.43,1.15,0.43,4v22h9.79V622.87c0-4.75,2.88-7.49,6.77-7.49,3.38,0,5.61,2,5.61,6.34v22.89h9.72l-0.07-25.7c-0.22-7.7-5.11-12.1-11.81-12.1a12.3,12.3,0,0,0-11.23,6.41,11.79,11.79,0,0,0-10.8-6.41c-5,0-8.28,2.16-10.15,5.83L426,608l-9.57-.07Zm-61.34,0h9.86L365,623.44c0-5.25,2.88-7.92,6.84-7.92a4.92,4.92,0,0,1,5,3.1c0.14,0.36.44,1.15,0.44,4v22H387V622.87c0-4.75,2.88-7.49,6.77-7.49,3.38,0,5.61,2,5.61,6.34v22.89h9.72L409,618.91c-0.21-7.7-5.11-12.1-11.81-12.1A12.3,12.3,0,0,0,386,613.22a11.78,11.78,0,0,0-10.8-6.41c-5,0-8.28,2.16-10.15,5.83L364.7,608l-9.58-.07ZM328.34,646c11.81,0,19.8-7.92,19.8-19.87,0-11.74-8.06-19.66-19.51-19.66-11.09,0-19.29,7.92-19.29,19.66C309.33,638.13,317.54,646,328.34,646Zm0.58-7.7c-5.11,0-9.5-3.67-9.5-12.17,0-8.21,4.39-12,9.43-12,4.75,0,9.14,3.31,9.14,12.24C338,635.11,333.31,638.34,328.91,638.34Zm1.37-34.77h9.86v-9.94l-9.86-.07v10Zm-12.89,0h9.86v-9.94l-9.86-.07v10Zm-32.47,41h9.87l0.07-16.27c0-5.47,1.29-8,3-9.72a8.37,8.37,0,0,1,6.62-2.88,13.19,13.19,0,0,1,1.66.14l0.07-8.71A14.07,14.07,0,0,0,304,607a9.43,9.43,0,0,0-9.07,6.55L294.64,608H285Zm-7.2,0V637H274a3.65,3.65,0,0,1-2.81-1.37c-0.22-.29-0.51-0.86-0.51-2.88V614.66h6.7V608h-6.62l-0.07-11.59h-9.79V608h-5.18v6.77l5.18-.07v18.94c0,8.28,3.38,11,8.86,11h8Zm-61.56-12.24c0.21,6.91,6,13.54,17.21,13.54,11.45,0,16.49-6.12,16.49-12.67a10.36,10.36,0,0,0-2.23-6.41c-1.37-1.73-3.17-3-7.49-4l-10.58-2.45c-2.16-.58-3.1-1.94-3.1-3.24s1.36-3.67,6.12-3.67c5.26,0,7.56,2.73,7.63,5.69l8.64-.14a12.78,12.78,0,0,0-5.26-9.65c-2.09-1.51-5.54-2.81-10.87-2.81-10.51,0-15.19,5.69-15.19,12a9.39,9.39,0,0,0,2.52,6.91c1.29,1.37,3,2.52,7,3.38l8,1.8c4.61,1,5.18,2.45,5.18,4.18s-1.58,4.11-7,4.11c-5.18,0-7.78-2.74-8.13-6.55Zm-35.93,12.24V637H176.5a3.66,3.66,0,0,1-2.81-1.37c-0.21-.29-0.5-0.86-0.5-2.88V614.66h6.7V608h-6.63l-0.07-11.59H163.4V608h-5.18v6.77l5.18-.07v18.94c0,8.28,3.38,11,8.85,11h8Zm-58.75,4.18v7.7h7.27c8.57,0,10.58-6.77,11.37-9L154,608H143.6l-7.35,22.68L128.55,608H118l11.38,30.89a13.68,13.68,0,0,1,.93,5c0,3-1.58,5-5.9,4.9h-2.88Zm-29-4.18h9.86l0.07-16.27c0-5.47,1.29-8,3-9.72a8.62,8.62,0,0,1,6.7-2.88,13.19,13.19,0,0,1,1.66.14l0.07-8.71a14.07,14.07,0,0,0-2.16-.22,9.52,9.52,0,0,0-9.15,6.55L102.2,608H92.55Zm-48.45,0h26.2c4.75,0,7.06-.79,9.65-2.59a13.37,13.37,0,0,0,5.69-11.52c0-6.63-3.81-11.52-10-13.18a10.81,10.81,0,0,0,8.2-10.8,12.06,12.06,0,0,0-5.83-10.87c-2.09-1.29-4-2-8.57-2H44v51Zm10.58-8.28V621.78l12.53-.07c4.61,0,7.63,3.31,7.63,7.13a7.43,7.43,0,0,1-7.63,7.49H54.6Z" transform="translate(-1.34 -0.69)"/><path class="b" d="M110.54,731.69h9.86v-30.1h7.13V695h-7.2v-0.72c0-3.31.65-4.25,1.22-4.9,0.79-.86,1.94-1.51,4.32-1.44h1.66v-7.27h-5.61c-3.38,0-12.31.58-11.38,14.33h-5.33v6.55h5.33v30.1Zm354.95-15.62,27.22,0.07c0-10.87-4.9-22.39-18.57-22.39-14,0-18.36,11.16-18.36,19.51,0,12.17,8.06,19.73,18.29,19.73s16.49-5.54,18-11.95l-9.94-.65c-1.87,3.38-4.39,4.75-7.63,4.75C469.81,725.14,466,722,465.49,716.07Zm0.43-7.13a8.39,8.39,0,0,1,8.06-7.49c4,0,7.42,2.74,8.13,7.49h-16.2Zm-15.26,22.75v-7.56H447a3.66,3.66,0,0,1-2.81-1.37c-0.21-.29-0.5-0.86-0.5-2.88V701.74h6.62V695h-6.62l-0.07-11.59h-9.79V695H428.7v6.77l5.18-.07-0.07,18.94c0,8.28,3.46,11,8.86,11h8Zm-53.57-15.62,27.22,0.07c0-10.87-4.9-22.39-18.57-22.39-14,0-18.36,11.16-18.36,19.51,0,12.17,8.06,19.73,18.29,19.73s16.49-5.54,18-11.95l-9.94-.65c-1.87,3.38-4.39,4.75-7.63,4.75C401.41,725.14,397.6,722,397.09,716.07Zm0.43-7.13a8.39,8.39,0,0,1,8.06-7.49c4,0,7.42,2.74,8.13,7.49h-16.2Zm-53.13,22.75h9.72l0.51-3.74a12.81,12.81,0,0,0,10.51,4.9c8.13,0,16.13-6.62,16.13-19.58,0-12.6-8.06-19.44-16.06-19.44-5.26,0-9,2.3-10.95,5.47V680.72h-9.86v51Zm18.36-7.34c-4.1,0-8.35-3.24-8.35-11.45s4.25-11.45,8.28-11.45c4.39,0,8.42,3.1,8.42,11.59C371.1,721.11,366.92,724.35,362.75,724.35Zm-45,7.34h9.86V715.42c0-5.47,1.37-8,3-9.72a8.72,8.72,0,0,1,6.7-2.88,12,12,0,0,1,1.65.14l0.07-8.71a14.07,14.07,0,0,0-2.09-.22,9.45,9.45,0,0,0-9.14,6.55L327.47,695h-9.72v36.65Zm-18.36-4.18a11.55,11.55,0,0,0,1.22,4.18h10a6.19,6.19,0,0,1-1.66-3.81V707.79c0-8.78-4.54-14-16.42-14-11.09,0-15.69,6-15.48,12.24l8.71,0.14c0-2.74,2-5.33,7.05-5.33,4.83,0,6.41,2.38,6.41,4.1,0,1.51-.86,2.88-3.53,3.38l-5.69.94c-8.06,1.44-10.22,3-11.81,4.32a10.12,10.12,0,0,0-3.31,7.63c0,6,4.75,11.52,14,11.52C294.28,732.7,297.37,730.9,299.39,727.51Zm0.07-15.12L299.39,717c0,5.18-3.17,8.42-8.78,8.42-4.1,0-6.12-2.45-6.12-4.68,0-1.73.65-3.67,6.84-5.4l4.25-1.15A10.94,10.94,0,0,0,299.46,712.4Zm-87.62,3.67,27.22,0.07c0-10.87-4.9-22.39-18.58-22.39-14,0-18.36,11.16-18.36,19.51,0,12.17,8.06,19.73,18.29,19.73s16.49-5.54,18-11.95l-9.94-.65c-1.87,3.38-4.39,4.75-7.63,4.75C216.16,725.14,212.35,722,211.84,716.07Zm0.43-7.13a8.39,8.39,0,0,1,8.06-7.49c4,0,7.42,2.74,8.13,7.49h-16.2Zm-34.63,22.75h9.86V715.42c0-5.47,1.37-8,3-9.72a8.72,8.72,0,0,1,6.7-2.88,12.12,12.12,0,0,1,1.66.14l0.07-8.71a14,14,0,0,0-2.09-.22,9.45,9.45,0,0,0-9.14,6.55L187.36,695h-9.72v36.65Zm-26.71,1.44c11.81,0,19.73-7.92,19.73-19.87,0-11.74-8.06-19.66-19.44-19.66-11.09,0-19.29,7.92-19.29,19.66C131.93,725.21,140.13,733.13,150.93,733.13Zm0.58-7.7c-5.18,0-9.5-3.67-9.5-12.17,0-8.21,4.39-12,9.43-12,4.75,0,9.15,3.31,9.15,12.24C160.58,722.19,155.9,725.43,151.51,725.43Zm1.29-34.77h9.93l-0.07-9.94-9.86-.07v10Zm-12.82,0h9.86l-0.07-9.94-9.8-.07v10Z" transform="translate(-1.34 -0.69)"/><path class="c" d="M505,280.09c-0.38,3.24-1.51,5.14-5.13,8H430.45c4.76-5,8.75-9.13,9.32-9.9,1.9-1,29.87-15.42,30.44-15.6a24.93,24.93,0,0,1,13.51-2.68c12,1.15,21.31,9.52,21.31,18.85v1.33ZM337.8,419.75l34.63-31.58H423l3,25.69a17.15,17.15,0,0,1-4.17,12.37A22.54,22.54,0,0,1,406.68,434c-7.24.57-14.08-1.9-18.46-6.84l-9.15-10.29-1.51,13.7c-1.72,8.55-9.52,14.07-19.6,15.78-11,1.9-21.5-11.22-21.5-11.22s-5.51-7.79-10.66-15.41h12Zm-60.7-70.21V326.31H322a46.11,46.11,0,0,0-1.52,11.42,47.76,47.76,0,0,0,1.52,11.8H277.1ZM484.87,246.8a40.24,40.24,0,0,0-20.18,3.81h-0.38l-32.54,16.93s-17.29,18.08-19.58,20.55H374.14l-1.71-1.71-36.55-30.25c21.32-25.5,45.49-54,45.68-54.24l0.75-.76c1-.38,48.13-23.39,86.76-42.24-2.47-3.23-5.14-6.45-8-9.51L376,190.85l-0.76.58-2.67,2.48-52.33,62.22H267v27H211.46a13.31,13.31,0,0,0-13.12,13.32,13.13,13.13,0,0,0,13.12,13.11H267v56.52H211.46a13.31,13.31,0,0,0-13.12,13.32,13.15,13.15,0,0,0,13.12,13.13H267v27.2h43.75c6.85,9.9,14.65,21.5,14.84,21.69,10.27,13.5,19.22,19.6,33.67,18.26,12.38-1.14,22.65-8.18,27.59-18.07a35.54,35.54,0,0,0,20.94,4.56A34.5,34.5,0,0,0,431.39,434a28.53,28.53,0,0,0,6.86-21.3l-2.86-24.36c21.88,0,44.15,0,64.31-.19,1.92-4.18,3.82-8.57,5.53-13.13-57.27.19-133.56,0.19-137,0-20.18-1.14-36-17.51-36-37.3,0-19.4,15.79-35.56,36-36.51H504.47l1.71-1.33c5.34-4,11-8.95,11.81-18.46C519.7,264.31,504.85,248.69,484.87,246.8ZM280,84.9l-9.71,15.79s18.08,10.85,34.07,20.55H199.11V139.7H303.18c-15.8,8.94-32.55,18.44-32.55,18.44l9.13,16.17L356.07,131ZM144.3,441.26h22.83v-290H144.3v290ZM36.77,298.33c0,144.79,117.43,262.21,262.21,262.21S561.12,443.11,561.12,298.33,443.77,36.18,299,36.18,36.77,153.54,36.77,298.33Z" transform="translate(-1.34 -0.69)"/></svg>