<?xml version="1.0" encoding="UTF-8"?>
<svg id="Lager_1" data-name="Lager 1" xmlns="http://www.w3.org/2000/svg" viewBox="0 0 153.09 218.69">
  <defs>
    <style>
      .cls-1 {
        fill: #1a4080;
      }

      .cls-1, .cls-2 {
        fill-rule: evenodd;
      }

      .cls-2 {
        fill: #fff;
      }
    </style>
  </defs>
  <polyline class="cls-2" points="0 218.69 153.09 218.69 153.09 0 0 0 0 218.69"/>
  <path class="cls-1" d="M123.15,61.16c-.09.72-.34,1.15-1.16,1.79h-15.7c1.08-1.11,1.98-2.04,2.11-2.21.43-.21,6.76-3.45,6.88-3.49,1.04-.51,2.07-.68,3.06-.6,2.71.26,4.82,2.13,4.82,4.21v.3ZM85.34,92.37l7.83-7.06h11.44l.69,5.74c.08.98-.26,1.96-.94,2.77-.82.98-2.07,1.61-3.44,1.74-1.64.13-3.19-.43-4.17-1.53l-2.07-2.3-.34,3.06c-.39,1.91-2.15,3.15-4.43,3.53-2.49.42-4.86-2.51-4.86-2.51,0,0-1.25-1.74-2.41-3.44h2.71ZM71.62,76.68v-5.19h10.15c-.21.81-.34,1.7-.34,2.55,0,.94.13,1.79.34,2.64h-10.15ZM118.59,53.72c-1.51-.13-3.06.17-4.56.85h-.09l-7.36,3.78s-3.91,4.04-4.43,4.59h-8.6l-.39-.38-8.27-6.76c4.82-5.7,10.29-12.08,10.33-12.12,0,0,.09-.08.17-.17.21-.09,10.88-5.23,19.62-9.44-.56-.72-1.16-1.44-1.81-2.12l-19.23,9.27-.17.13-.6.55-11.83,13.91h-12.04v6.04h-12.56c-1.64,0-2.97,1.36-2.97,2.98s1.33,2.93,2.97,2.93h12.56v12.63h-12.56c-1.64,0-2.97,1.36-2.97,2.98s1.33,2.94,2.97,2.94h12.56v6.08h9.89c1.55,2.21,3.31,4.81,3.36,4.85,2.32,3.02,4.34,4.38,7.61,4.08,2.8-.26,5.12-1.83,6.24-4.04,1.38.76,3.01,1.19,4.74,1.02,2.11-.17,4.04-1.19,5.33-2.72,1.17-1.36,1.72-3.06,1.55-4.76l-.65-5.44c4.95,0,9.98,0,14.54-.04.43-.93.86-1.91,1.25-2.94-12.95.04-30.2.04-30.97,0-4.56-.26-8.13-3.91-8.13-8.34s3.57-7.95,8.13-8.16h30.8l.39-.3c1.21-.89,2.5-2,2.67-4.12.39-3.83-2.97-7.32-7.49-7.74ZM72.26,17.54l-2.2,3.53s4.09,2.42,7.7,4.59h-23.79v4.13h23.53c-3.57,2-7.36,4.12-7.36,4.12l2.07,3.61,17.25-9.69-17.21-10.29ZM41.59,97.18h5.16V32.37h-5.16v64.81ZM17.28,65.24c0,32.36,26.55,58.6,59.29,58.6s59.27-26.24,59.27-58.6S109.3,6.65,76.57,6.65s-59.29,26.23-59.29,58.59Z"/>
  <polyline class="cls-1" points="10.07 133.73 143.06 133.73 143.06 208.97 10.07 208.97 10.07 133.73"/>
  <path class="cls-2" d="M16.78,145.89v-3.17h3.29c.57,0,1.42.54,1.42,1.59,0,.89-.67,1.61-1.61,1.61l-3.1-.04ZM131.35,153.74h2.42l.02-5.28c0-.74.14-1.09.34-1.39.32-.48.88-.8,1.47-.8.83,0,1.43.57,1.43,1.63v5.83h2.42v-6.65c0-1.76-1.24-3.11-3.1-3.11-1.29,0-2.21.72-2.51,1.46l-.11-1.11-2.37-.02-.02,9.42ZM122.97,149.72l6.69.02c0-2.8-1.22-5.76-4.56-5.76s-4.53,2.87-4.53,5.02c0,3.13,1.98,5.07,4.49,5.07s4.07-1.43,4.42-3.07l-2.42-.17c-.46.87-1.1,1.22-1.88,1.22-1.15,0-2.09-.81-2.21-2.33ZM123.07,147.89c.14-1.15,1.04-1.92,1.96-1.92.99,0,1.84.7,2,1.92h-3.96ZM105.68,153.74h2.42l.02-5.44c0-1.35.71-2.04,1.68-2.04.66,0,1.04.33,1.22.8.04.09.11.3.11,1.04v5.65h2.41v-5.59c0-1.22.71-1.93,1.66-1.93.83,0,1.38.52,1.38,1.63v5.89h2.39l-.02-6.61c-.05-1.98-1.26-3.11-2.9-3.11-1.24,0-2.21.61-2.76,1.65-.46-.98-1.45-1.65-2.65-1.65s-2.04.56-2.49,1.5l-.09-1.18-2.35-.02-.02,9.42ZM90.61,153.74h2.42l.02-5.44c0-1.35.71-2.04,1.68-2.04.65,0,1.04.33,1.22.8.04.09.11.3.11,1.04v5.65h2.41v-5.59c0-1.22.71-1.93,1.66-1.93.83,0,1.38.52,1.38,1.63v5.89h2.39l-.02-6.61c-.05-1.98-1.26-3.11-2.9-3.11-1.24,0-2.21.61-2.76,1.65-.46-.98-1.45-1.65-2.65-1.65s-2.03.56-2.49,1.5l-.09-1.18-2.35-.02-.02,9.42ZM84.05,154.11c2.9,0,4.87-2.04,4.87-5.11s-1.98-5.05-4.79-5.05-4.74,2.04-4.74,5.05,2.02,5.11,4.67,5.11ZM84.19,152.13c-1.26,0-2.33-.94-2.33-3.13s1.08-3.07,2.32-3.07c1.17,0,2.25.85,2.25,3.15s-1.15,3.05-2.23,3.05ZM84.52,143.19h2.42v-2.55l-2.42-.02v2.57ZM81.36,143.19h2.42v-2.55l-2.42-.02v2.57ZM73.38,153.74h2.42l.02-4.18c0-1.41.32-2.05.72-2.5.42-.5.95-.74,1.63-.74.14,0,.27.02.41.04l.02-2.24c-.12-.02-.32-.06-.53-.06-1.04,0-1.95.7-2.23,1.69l-.07-1.43h-2.37l-.02,9.42ZM71.61,153.74v-1.94h-.92c-.28,0-.57-.17-.69-.35-.05-.07-.12-.22-.12-.74v-4.67h1.65v-1.72h-1.63l-.02-2.98h-2.41v2.98h-1.27v1.74l1.27-.02v4.87c0,2.13.83,2.83,2.18,2.83h1.96ZM56.48,150.59c.05,1.78,1.47,3.48,4.23,3.48s4.05-1.57,4.05-3.26c0-.59-.19-1.19-.55-1.65-.34-.44-.78-.78-1.84-1.04l-2.6-.63c-.53-.15-.76-.5-.76-.83,0-.37.34-.94,1.5-.94,1.29,0,1.86.7,1.88,1.46l2.12-.04c-.04-.94-.51-1.89-1.29-2.48-.51-.39-1.36-.72-2.67-.72-2.58,0-3.73,1.46-3.73,3.07,0,.76.2,1.3.62,1.78.32.35.73.65,1.72.87l1.96.46c1.13.26,1.27.63,1.27,1.07,0,.41-.39,1.05-1.72,1.05s-1.91-.7-2-1.68l-2.19.02ZM47.65,153.74v-1.94h-.92c-.28,0-.57-.17-.69-.35-.05-.07-.12-.22-.12-.74v-4.67h1.65v-1.72h-1.63l-.02-2.98h-2.41v2.98h-1.27v1.74l1.27-.02v4.87c0,2.13.83,2.83,2.18,2.83h1.96ZM33.22,154.81v1.98h1.79c2.1,0,2.6-1.74,2.8-2.31l3.41-10.17h-2.57l-1.8,5.83-1.89-5.83h-2.6l2.8,7.94c.18.52.23.87.23,1.3,0,.76-.39,1.28-1.45,1.26h-.71ZM26.09,153.74h2.42l.02-4.18c0-1.41.32-2.05.72-2.5.44-.5.97-.74,1.65-.74.14,0,.27.02.41.04l.02-2.24c-.12-.02-.32-.06-.53-.06-1.04,0-1.96.7-2.25,1.69l-.07-1.43h-2.37l-.02,9.42ZM14.18,153.74h6.44c1.17,0,1.73-.2,2.37-.67.89-.65,1.4-1.65,1.4-2.96,0-1.7-.94-2.96-2.46-3.39,1.26-.37,2.02-1.43,2.02-2.78,0-1.26-.51-2.2-1.43-2.8-.51-.33-.99-.52-2.11-.52h-6.23v13.11ZM16.78,151.61v-3.74l3.08-.02c1.13,0,1.88.85,1.88,1.83,0,1.07-.8,1.93-1.88,1.93h-3.08Z"/>
  <path class="cls-2" d="M28.08,177.44h2.54v-7.74h1.83v-1.69h-1.85v-.18c0-.85.17-1.09.31-1.26.2-.22.5-.39,1.11-.37h.43v-1.87h-1.44c-.87,0-3.17.15-2.93,3.68h-1.37v1.69h1.37v7.74ZM119.36,173.42l7,.02c0-2.8-1.26-5.76-4.78-5.76s-4.72,2.87-4.72,5.02c0,3.13,2.07,5.07,4.7,5.07s4.24-1.43,4.63-3.07l-2.56-.17c-.48.87-1.13,1.22-1.96,1.22-1.2,0-2.19-.81-2.32-2.33ZM119.48,171.59c.15-1.15,1.09-1.93,2.07-1.93s1.91.7,2.09,1.93h-4.17ZM115.55,177.44v-1.94h-.94c-.3,0-.59-.17-.72-.35-.06-.07-.13-.22-.13-.74v-4.67h1.7v-1.72h-1.7l-.02-2.98h-2.52v2.98h-1.31v1.74l1.33-.02-.02,4.87c0,2.13.89,2.83,2.28,2.83h2.06ZM101.78,173.42l7,.02c0-2.8-1.26-5.76-4.78-5.76s-4.72,2.87-4.72,5.02c0,3.13,2.07,5.07,4.7,5.07s4.24-1.43,4.63-3.07l-2.56-.17c-.48.87-1.13,1.22-1.96,1.22-1.2,0-2.18-.81-2.31-2.33ZM101.89,171.59c.15-1.15,1.09-1.93,2.07-1.93s1.91.7,2.09,1.93h-4.17ZM88.22,177.44h2.5l.13-.96c.67.83,1.57,1.26,2.7,1.26,2.09,0,4.15-1.7,4.15-5.04s-2.07-5-4.13-5c-1.35,0-2.31.59-2.81,1.41v-4.78h-2.54v13.11ZM92.94,175.55c-1.05,0-2.15-.83-2.15-2.94s1.09-2.94,2.13-2.94c1.13,0,2.17.8,2.17,2.98s-1.07,2.91-2.15,2.91ZM81.37,177.44h2.54v-4.19c0-1.41.35-2.05.76-2.5.48-.5,1.02-.74,1.72-.74.15,0,.3.02.42.04l.02-2.24c-.13-.02-.33-.06-.54-.06-1.11,0-2.06.7-2.35,1.68l-.08-1.43h-2.5v9.43ZM76.65,176.37c.06.46.17.8.31,1.07h2.57c-.31-.39-.41-.67-.43-.98v-5.17c0-2.26-1.17-3.61-4.22-3.61-2.85,0-4.04,1.56-3.98,3.15l2.24.04c0-.7.52-1.37,1.81-1.37s1.65.61,1.65,1.05c0,.39-.22.74-.91.87l-1.46.24c-2.07.37-2.63.76-3.04,1.11-.56.5-.85,1.2-.85,1.96,0,1.55,1.22,2.96,3.59,2.96,1.39,0,2.18-.46,2.7-1.33ZM76.67,172.48l-.02,1.19c0,1.33-.81,2.17-2.26,2.17-1.06,0-1.57-.63-1.57-1.2,0-.45.17-.95,1.76-1.39l1.09-.3c.48-.13.82-.31,1-.46ZM54.13,173.42l7,.02c0-2.8-1.26-5.76-4.78-5.76s-4.72,2.87-4.72,5.02c0,3.13,2.07,5.07,4.7,5.07s4.24-1.43,4.63-3.07l-2.56-.17c-.48.87-1.13,1.22-1.96,1.22-1.2,0-2.18-.81-2.31-2.33ZM54.24,171.59c.15-1.15,1.09-1.93,2.07-1.93s1.91.7,2.09,1.93h-4.17ZM45.34,177.44h2.54v-4.19c0-1.41.35-2.05.76-2.5.48-.5,1.02-.74,1.72-.74.15,0,.3.02.43.04l.02-2.24c-.13-.02-.33-.06-.54-.06-1.11,0-2.06.7-2.35,1.68l-.07-1.43h-2.5v9.43ZM38.47,177.81c3.04,0,5.07-2.04,5.07-5.11s-2.07-5.06-5-5.06-4.96,2.04-4.96,5.06,2.11,5.11,4.89,5.11ZM38.62,175.83c-1.33,0-2.44-.94-2.44-3.13s1.13-3.07,2.42-3.07c1.22,0,2.35.85,2.35,3.15s-1.2,3.06-2.33,3.06ZM38.95,166.89h2.55l-.02-2.56-2.54-.02v2.57ZM35.66,166.89h2.54l-.02-2.56-2.52-.02v2.57Z"/>
</svg>