<svg xmlns="http://www.w3.org/2000/svg" viewBox="0 0 595.28 850.37"><defs><style>.a{fill:#e5e8eb;}.a,.b,.c{fill-rule:evenodd;}.b{fill:#000100;}.c{fill:#1e3b72;}</style></defs><title>M007_C</title><polyline class="a" points="0 850.37 595.28 850.37 595.28 0 0 0 0 850.37"/><path class="b" d="M69,625.82l6.91-22,6.63,22H69Zm465.18,14.62a11.65,11.65,0,0,0,1.15,4.18h10.08a5.47,5.47,0,0,1-1.66-3.82V620.7c0-8.78-4.54-14-16.49-14-11.09,0-15.7,6-15.48,12.24l8.71,0.14c0-2.74,2-5.33,7.06-5.33,4.82,0,6.41,2.38,6.41,4.11,0,1.51-.94,2.88-3.6,3.38l-5.61.94c-8.06,1.44-10.23,3-11.81,4.32a10.2,10.2,0,0,0-3.38,7.63c0,6.05,4.75,11.52,14,11.52C529,645.62,532.13,643.82,534.22,640.43Zm0.07-15.12-0.07,4.61c0,5.19-3.24,8.43-8.85,8.43-4.11,0-6.12-2.45-6.12-4.68,0-1.73.58-3.67,6.84-5.4l4.25-1.15A12,12,0,0,0,534.29,625.31ZM468,644.61h9.86l-0.07-12,4.18-4.11L492,644.61h12l-15-22.54L502.11,608H490.45l-12.6,14-0.07-28.29h-9.86Zm-26.71,0h9.86l0.07-16.27c0-5.47,1.29-8,3-9.72a8.62,8.62,0,0,1,6.7-2.88,12.57,12.57,0,0,1,1.66.14l0.07-8.71a14.07,14.07,0,0,0-2.09-.22,9.54,9.54,0,0,0-9.22,6.55L451,608h-9.65ZM414.56,646c11.81,0,19.8-7.92,19.8-19.87,0-11.74-8.07-19.66-19.51-19.66-11.09,0-19.29,7.92-19.29,19.66C395.55,638.13,403.76,646,414.56,646Zm0.58-7.7c-5.11,0-9.5-3.67-9.5-12.17,0-8.21,4.46-12,9.43-12,4.75,0,9.14,3.31,9.14,12.24C424.21,635.11,419.53,638.35,415.14,638.35Zm1.37-34.77h9.86v-9.94l-9.86-.07v10Zm-12.89,0h9.86v-9.94l-9.79-.07Zm-68.62,41h9.86l0.07-21.17c0-5.26,3-7.92,6.91-7.92a4.89,4.89,0,0,1,4.9,3.1c0.14,0.36.43,1.15,0.43,4v22H367V622.87c0-4.75,2.88-7.49,6.77-7.49,3.38,0,5.62,2,5.62,6.34v22.89h9.72L389,618.91c-0.22-7.71-5.11-12.1-11.74-12.1a12.33,12.33,0,0,0-11.3,6.41,11.75,11.75,0,0,0-10.73-6.41c-5,0-8.28,2.16-10.22,5.83L344.65,608l-9.57-.07Zm-47.52-3.74,0.36,3.74h9.79v-51H287.7v18.5c-1.73-2.88-5.9-5.33-10.58-5.33-8.13,0-16.27,6.84-16.27,19.66a21.39,21.39,0,0,0,4.75,14,13.88,13.88,0,0,0,11.16,5.33A13.2,13.2,0,0,0,287.49,640.87Zm-7.78-3.53c-4.68,0-8.71-3.31-8.71-11.09,0-8.71,4.25-11.81,8.28-11.81s8.35,3.1,8.35,11.52C287.63,634,283.38,637.27,279.71,637.34Zm-58.61,7.27H231L231,624.09c0-2.88.58-4.25,1.37-5.4a7.4,7.4,0,0,1,6-3.09c3.38,0,5.9,2.23,5.9,6.33l-0.07,22.68h9.86V618.76c0-6.84-5-12.1-12.6-12.1-5.25,0-8.93,2.81-10.22,5.69L230.89,608l-9.72-.07Zm-18.29-4.18a12.92,12.92,0,0,0,1.3,4.18H214c-0.58-.51-1.51-2.16-1.51-5.18l-0.14-18.72a18.55,18.55,0,0,0-.51-5c-1.51-5-5.62-9.07-15.55-9.07-11.38,0-15.91,5.83-15.91,12.24l8.71,0.14c0.36-2.45.72-3,1.51-3.67s2.81-1.73,5.76-1.73c4.61,0,6.34,2.45,6.34,4.18s-1.08,3-3.74,3.46L189.07,623c-7.42,1.29-10.87,6.12-10.87,10.94,0,6.34,4.9,11.74,13.75,11.74C198.06,645.69,201.45,643.24,202.82,640.43Zm0-15.34v5.47c-0.29,4.61-3.38,7.78-8.71,7.78-4.18,0-6.12-2.45-6.12-4.61,0-1.73.86-4,6.7-5.4l4.25-1.15A8.09,8.09,0,0,0,202.82,625.1Zm-5.9-21.53,9.94,0.07v-10H197Zm-12.82,0H194l0.07-10h-9.86Zm-29.73,41h9.72L176.61,608h-10l-7.34,24.12L152,608H142Zm-50,0h9.86l0.07-20.52c0-2.88.58-4.25,1.37-5.4a7.39,7.39,0,0,1,6-3.09c3.39,0,5.91,2.23,5.91,6.33l-0.07,22.68h9.87V618.76c0-6.84-5-12.1-12.6-12.1-5.26,0-8.93,2.81-10.23,5.69L114.12,608,104.4,608Zm-52,0H63.07l3.38-10.73H85l3.24,10.73H99l-17.42-51H70.27Z" transform="translate(-1.31 -0.68)"/><path class="b" d="M19.72,719.45c0.14,6.91,6,13.54,17.21,13.54,11.45,0,16.49-6.12,16.49-12.67a10.43,10.43,0,0,0-2.3-6.41c-1.37-1.73-3.1-3-7.49-4l-10.51-2.45c-2.16-.58-3.1-1.94-3.1-3.24s1.29-3.67,6.12-3.67c5.18,0,7.48,2.74,7.56,5.69l8.71-.14a13,13,0,0,0-5.26-9.65c-2.16-1.51-5.54-2.81-10.87-2.81-10.58,0-15.19,5.69-15.19,12a9.39,9.39,0,0,0,2.52,6.91c1.29,1.37,2.88,2.52,7,3.38l7.92,1.8c4.68,1,5.18,2.45,5.18,4.18s-1.51,4.1-6.91,4.1c-5.18,0-7.85-2.73-8.13-6.55Zm525.44,12.24H555l0.07-20.52c0-2.88.58-4.25,1.37-5.4a7.4,7.4,0,0,1,6-3.1c3.38,0,5.83,2.23,5.83,6.33v22.68h9.86V705.85c0-6.84-5-12.1-12.67-12.1-5.25,0-8.93,2.81-10.15,5.69l-0.43-4.32-9.65-.07ZM519,733.06c11.09,0,19.22-7.85,19.22-19.8,0-11.59-8-19.59-19.37-19.59-11.09,0-19.15,7.92-19.15,19.51C499.66,725.28,507.79,733.06,519,733.06Zm-0.07-7.71c-4.68,0-9.22-3.6-9.22-11.74,0-8.78,4.39-12.24,9.22-12.24s9.29,3.53,9.29,11.88C528.17,721.83,523.7,725.35,518.88,725.35Zm-61.2,8.35a10.73,10.73,0,0,0,3.6,7.34c2.16,2.16,6.33,4.18,13.39,4.18,8,0,13-3,15.48-6.12,1.73-2.23,2.59-4.25,2.59-9.72V695h-9.43L483,699.51c-0.65-1.15-2.66-5.76-10.8-5.76-8.85,0-16.56,7.05-16.56,18.36s7.71,18.44,16.49,18.44c5.83,0,9.43-2.67,10.87-5.47v4c0,6.19-2.88,8.78-8.5,8.78-4.32,0-6.33-2.16-6.62-4.46ZM474.39,722c-4.83,0-8.78-3.46-8.78-10.23,0-5.9,4-9.65,8.57-9.65s8.64,3.74,8.64,9.94S478.63,722,474.39,722Zm-44.71,11.09c11.81,0,19.73-7.92,19.73-19.87,0-11.74-8.06-19.66-19.44-19.66-11.09,0-19.29,7.92-19.29,19.66C410.67,725.21,418.87,733.13,429.68,733.13Zm0.58-7.7c-5.11,0-9.5-3.67-9.5-12.17,0-8.21,4.39-12,9.43-12,4.75,0,9.15,3.31,9.15,12.24C439.32,722.19,434.64,725.43,430.25,725.43Zm1.37-34.77h9.86l-0.07-9.94-9.79-.07v10Zm-12.89,0h9.86v-9.94l-9.86-.07v10Zm-48.24,28.8c0.14,6.91,6,13.54,17.21,13.54,11.45,0,16.49-6.12,16.49-12.67a10.43,10.43,0,0,0-2.3-6.41c-1.37-1.73-3.1-3-7.49-4l-10.51-2.45c-2.16-.58-3.1-1.94-3.1-3.24s1.3-3.67,6.12-3.67c5.18,0,7.49,2.74,7.56,5.69l8.71-.14a13,13,0,0,0-5.26-9.65c-2.16-1.51-5.54-2.81-10.87-2.81-10.58,0-15.19,5.69-15.19,12a9.39,9.39,0,0,0,2.52,6.91c1.29,1.37,2.88,2.52,7,3.38l7.92,1.8c4.68,1,5.18,2.45,5.18,4.18s-1.51,4.1-6.91,4.1c-5.18,0-7.85-2.73-8.13-6.55Zm-17,8.06a11.56,11.56,0,0,0,1.22,4.18h10a6.2,6.2,0,0,1-1.65-3.82l0.07-20.08c0-8.78-4.61-14-16.49-14-11.09,0-15.69,6-15.55,12.24l8.71,0.14c0-2.74,2.09-5.33,7.13-5.33,4.83,0,6.41,2.38,6.41,4.11,0,1.51-.94,2.88-3.6,3.38l-5.61.94c-8.13,1.44-10.3,3-11.81,4.32a9.94,9.94,0,0,0-3.38,7.63c0,6.05,4.75,11.52,14,11.52C348.32,732.7,351.41,730.9,353.5,727.52Zm0.07-15.12L353.5,717c0,5.18-3.17,8.42-8.85,8.42-4.11,0-6.05-2.45-6.05-4.68,0-1.73.58-3.67,6.77-5.4l4.25-1.15A11.38,11.38,0,0,0,353.58,712.4Zm-41.18,19.29h9.86v-51h-9.79Zm-42.63,2a10.73,10.73,0,0,0,3.6,7.34c2.16,2.16,6.33,4.18,13.39,4.18,8,0,13-3,15.41-6.12,1.73-2.23,2.59-4.25,2.59-9.72V695H295.4L295,699.51c-0.65-1.15-2.66-5.76-10.8-5.76-8.86,0-16.56,7.05-16.56,18.36s7.7,18.44,16.49,18.44c5.83,0,9.43-2.67,10.87-5.47v4c0,6.19-2.88,8.78-8.5,8.78-4.32,0-6.33-2.16-6.62-4.46ZM286.47,722c-4.83,0-8.78-3.46-8.78-10.23,0-5.9,4-9.65,8.57-9.65s8.64,3.74,8.64,9.94S290.72,722,286.47,722Zm-59-2.59c0.14,6.91,6,13.54,17.21,13.54,11.45,0,16.49-6.12,16.49-12.67a10.41,10.41,0,0,0-2.31-6.41c-1.37-1.73-3.1-3-7.49-4l-10.51-2.45c-2.16-.58-3.1-1.94-3.1-3.24s1.29-3.67,6.12-3.67c5.18,0,7.49,2.74,7.56,5.69l8.71-.14a13,13,0,0,0-5.26-9.65c-2.16-1.51-5.55-2.81-10.87-2.81-10.58,0-15.19,5.69-15.19,12a9.41,9.41,0,0,0,2.52,6.91c1.3,1.37,2.88,2.52,7,3.38l7.92,1.8c4.68,1,5.18,2.45,5.18,4.18s-1.51,4.1-6.91,4.1c-5.18,0-7.85-2.73-8.14-6.55Zm-17.13,8.5,0.43,3.74h9.79l-0.07-51h-9.86v18.5c-1.8-2.88-5.91-5.33-10.58-5.33-8.21,0-16.27,6.84-16.27,19.66a21.41,21.41,0,0,0,4.75,14,13.79,13.79,0,0,0,11.16,5.33A13.07,13.07,0,0,0,210.37,727.95Zm-7.78-3.53c-4.61,0-8.71-3.31-8.71-11.09,0-8.71,4.25-11.8,8.35-11.8s8.28,3.09,8.28,11.52C210.51,721.11,206.26,724.35,202.59,724.42Zm-35.93,3.53,0.43,3.74h9.79l-0.07-51H167v18.5c-1.8-2.88-5.91-5.33-10.58-5.33-8.21,0-16.27,6.84-16.27,19.66a21.41,21.41,0,0,0,4.75,14A13.79,13.79,0,0,0,156,732.92,13.07,13.07,0,0,0,166.67,727.95Zm-7.78-3.53c-4.61,0-8.71-3.31-8.71-11.09,0-8.71,4.25-11.8,8.35-11.8s8.28,3.09,8.28,11.52C166.81,721.11,162.56,724.35,158.89,724.42Zm-54.65,11.45v7.7h7.28c8.64,0,10.65-6.77,11.45-9L136.86,695H126.42l-7.34,22.68L111.38,695H100.79l11.3,30.89a12.6,12.6,0,0,1,1,5c0,3-1.58,5-5.9,4.9h-3Zm-43.56-4.18h9.86v-12l4.1-4.11,10.08,16.13H96.83L81.71,709.16,94.88,695H83.22L70.55,709l-0.07-28.29H60.69v51Z" transform="translate(-1.31 -0.68)"/><path class="c" d="M426.23,367.23a21.1,21.1,0,0,1-6.06-2.27,6.8,6.8,0,0,0-3.41-1.33,7.64,7.64,0,0,0-8.88,6.64A161.71,161.71,0,0,1,394,415.94c-17.43,37.71-46.23,65.18-71.61,68.6A191.86,191.86,0,0,1,302.9,486l-6.3.07c-8.52-.18-18.7-0.63-24.56-1.58-25.58-3.41-54.38-30.88-71.8-68.6-7.2-15.17-13.83-46.06-14-46.24a7.6,7.6,0,0,0-9.28-6.07,8,8,0,0,0-4.36,2.66,16.75,16.75,0,0,1-4.17,1.51,7.48,7.48,0,0,1-2.65-.57c-5.49-2.09-17.23-15.74-25.57-39.23-4.55-12.69-6.44-23.69-6.44-31.45a41.53,41.53,0,0,1,1.32-9.29,8,8,0,0,1,3.23-5.11,5.39,5.39,0,0,1,4.16-1.9,5.49,5.49,0,0,1,4.92,2.66V282.7a8.23,8.23,0,0,0,7.2,4.55,8.12,8.12,0,0,0,8-6.63,6.4,6.4,0,0,0-.2-2.64,138.8,138.8,0,0,1-3.4-30.7c0-76,61.74-138.15,137.89-138.54h0.76c76,0.38,137.72,62.54,137.72,138.54a133.83,133.83,0,0,1-2.84,27.48,20.54,20.54,0,0,0-.57,4,8.17,8.17,0,0,0,8.15,8,7.84,7.84,0,0,0,6-2.66c0.45-.51.73-1.15,1.14-1.7a6,6,0,0,1,4.93-2.46,5.44,5.44,0,0,1,4.17,1.88,8.15,8.15,0,0,1,3.23,4.94,1.48,1.48,0,0,1,.18.76,26.57,26.57,0,0,1,1.13,8.71c0,7.77-1.7,18.58-6.25,31.47-8.33,23.49-20.08,37.14-25.76,39.22A7.75,7.75,0,0,1,426.23,367.23ZM309.55,501.41c5.31-.18,10.61-0.75,15-1.32,30.88-4,63.86-34.48,83.93-77.52a182.4,182.4,0,0,0,13.25-40.36,16.74,16.74,0,0,0,5.32.56l4.72-.76,2.47-.75c12.5-4.55,26.15-23.51,35.06-48.52,4.74-13.26,7-26.15,7-36.58,0-6.06-.77-11.36-2.46-15.34a19,19,0,0,0-5.3-8.15l-2.85-2.29a21.23,21.23,0,0,0-14.2-4,5.22,5.22,0,0,0-1.71.19,166.48,166.48,0,0,0,1.32-19.33c0-84.52-68.76-153.7-153.44-154.26h-0.95c-84.5.56-153.43,69.74-153.43,154.26a170.3,170.3,0,0,0,1.33,19.7,2.41,2.41,0,0,0-1.15-.19A22.54,22.54,0,0,0,128.83,271L126.37,273a19.48,19.48,0,0,0-5.49,8.16c-1.71,4-2.46,9.29-2.46,15.35,0,10.43,2.46,23.32,7.2,36.59,8.71,25,22.55,44.15,34.86,48.69l2.84,0.76c-0.38-.19,4.35.56,4.35,0.56a18.07,18.07,0,0,0,5.49-.56c2.84,10.79,7.58,28.62,12.88,40,19.9,43,52.86,73.54,83.93,77.52,7.77,1.14,22.93,1.58,33,1.58C305.13,501.67,307.34,501.48,309.55,501.41ZM274.71,341.56c2.85-2.09,8.15-7.68,8.72-7.87,3.61-2.47,9.1-4,15.16-4,8.33,0,15.53,2.85,18.38,6.81a25.06,25.06,0,0,1,2.65,2.09c9.67,8.14,23.49,13.44,38.27,13.44,21.2,0,39.58-10.4,47.92-25.75h32.39V314.36h-28c0.18-2.08.56-4.16,0.56-6.44,0-2.09-.38-4.17-0.56-6.26h28V289.72H405.81C397.47,274.37,379.09,264,357.89,264a59.15,59.15,0,0,0-34.49,10.61c-0.94.56-1.7,1.31-2.65,1.9-0.18.18-12.88,6.05-22,6.05-8.13,0-15.34-1.7-19.88-4.36a57,57,0,0,0-4.75-4.17c-9.65-7-23.1-10-37.87-10-21.41,0-39.79,10.42-48.12,25.77H156.5v11.94H184a35.81,35.81,0,0,0,0,12.7H156.5v11.95h31.65c8.33,15.35,26.71,25.75,48.12,25.75C251.42,352.06,265.06,348.75,274.71,341.56Zm-238-43.24c0,144.79,117.43,262.21,262.21,262.21S561.09,443.11,561.09,298.32,443.74,36.18,298.95,36.18,36.74,153.53,36.74,298.32Z" transform="translate(-1.31 -0.68)"/></svg>