<?xml version="1.0" encoding="UTF-8"?>
<svg id="Lager_1" data-name="Lager 1" xmlns="http://www.w3.org/2000/svg" viewBox="0 0 153.09 218.69">
  <defs>
    <style>
      .cls-1 {
        fill: #1a4080;
      }

      .cls-1, .cls-2 {
        fill-rule: evenodd;
      }

      .cls-2 {
        fill: #fff;
      }
    </style>
  </defs>
  <polyline class="cls-2" points="0 218.69 153.09 218.69 153.09 0 0 0 0 218.69"/>
  <path class="cls-1" d="M105.7,80.64c-.21,0-.9-.26-1.37-.51-.21-.17-.47-.26-.77-.3-.98-.17-1.88.51-2.01,1.48-.47,3.35-1.54,6.86-3.13,10.21-3.94,8.43-10.45,14.57-16.19,15.33-1.29.17-2.83.3-4.41.34l-1.43.02c-1.93-.04-4.23-.14-5.55-.35-5.78-.76-12.3-6.9-16.23-15.33-1.63-3.39-3.13-10.29-3.17-10.33-.17-.97-1.12-1.57-2.1-1.36-.39.08-.73.3-.99.59-.39.17-.77.34-.94.34-.21,0-.41-.05-.6-.13-1.24-.47-3.9-3.52-5.78-8.77-1.03-2.84-1.46-5.29-1.46-7.03,0-.7.14-1.39.3-2.08.13-.55.43-.97.73-1.14.21-.26.56-.43.94-.43.47,0,.9.21,1.11.59v-.05c.3.6.94,1.02,1.63,1.02.9,0,1.63-.63,1.8-1.48.04-.17,0-.38-.05-.59-.51-2.24-.77-4.53-.77-6.86,0-16.99,13.96-30.88,31.18-30.96h.17c17.18.09,31.14,13.98,31.14,30.96,0,2.07-.21,4.11-.64,6.14-.06.29-.13.61-.13.89,0,.97.86,1.78,1.84,1.78.56,0,1.03-.21,1.37-.59.1-.11.17-.26.26-.38.26-.34.64-.55,1.11-.55.39,0,.73.17.94.42.3.17.6.6.73,1.1.04.09.04.13.04.17.17.47.26,1.1.26,1.95,0,1.73-.38,4.15-1.41,7.03-1.88,5.25-4.54,8.3-5.82,8.77-.19.07-.4.09-.6.09ZM79.31,110.62c1.2-.04,2.4-.17,3.38-.3,6.98-.89,14.44-7.71,18.98-17.32,1.37-2.96,2.4-6.01,3-9.02.39.09.81.17,1.2.13l1.07-.17.56-.17c2.83-1.02,5.91-5.25,7.93-10.84,1.07-2.96,1.58-5.84,1.58-8.17,0-1.35-.17-2.54-.56-3.43-.22-.68-.64-1.32-1.2-1.82l-.64-.51c-.86-.64-2.01-.98-3.21-.89-.13,0-.26,0-.39.04.17-1.44.3-2.88.3-4.32,0-18.89-15.55-34.35-34.69-34.47h-.21c-19.1.13-34.69,15.59-34.69,34.47,0,1.48.13,2.92.3,4.4-.09-.04-.17-.04-.26-.04-1.24-.04-2.4.26-3.3.93l-.56.47c-.6.51-.98,1.14-1.24,1.82-.39.89-.56,2.08-.56,3.43,0,2.33.56,5.21,1.63,8.18,1.97,5.59,5.1,9.87,7.88,10.88l.64.17c-.09-.04.98.13.98.13.43.04.86-.04,1.24-.13.64,2.41,1.71,6.4,2.91,8.93,4.5,9.62,11.95,16.43,18.98,17.32,1.76.26,5.18.35,7.45.35.5,0,1-.04,1.5-.06ZM71.43,74.91c.64-.47,1.84-1.72,1.97-1.76.82-.55,2.06-.89,3.43-.89,1.88,0,3.51.64,4.15,1.52.22.13.39.3.6.47,2.19,1.82,5.31,3,8.65,3,4.79,0,8.95-2.32,10.84-5.75h7.32v-2.67h-6.34c.04-.46.13-.93.13-1.44,0-.47-.09-.93-.13-1.4h6.34v-2.67h-7.32c-1.89-3.43-6.04-5.76-10.84-5.76-3,0-5.7.89-7.8,2.37-.21.13-.39.29-.6.42-.04.04-2.91,1.35-4.97,1.35-1.84,0-3.47-.38-4.49-.97-.26-.3-1.03-.89-1.07-.93-2.18-1.57-5.22-2.24-8.56-2.24-4.84,0-9,2.33-10.88,5.76h-7.15v2.67h6.21c-.08.47-.13.93-.13,1.4,0,.51.04.97.13,1.44h-6.21v2.67h7.15c1.88,3.43,6.04,5.75,10.88,5.75,3.43,0,6.51-.74,8.69-2.34ZM17.28,65.24c0,32.36,26.55,58.6,59.29,58.6s59.27-26.24,59.27-58.6S109.31,6.65,76.57,6.65s-59.29,26.23-59.29,58.59Z"/>
  <polyline class="cls-1" points="10.07 133.73 143.06 133.73 143.06 208.97 10.07 208.97 10.07 133.73"/>
  <path class="cls-2" d="M17.42,150.25l1.78-5.67,1.7,5.67h-3.48ZM137.05,154.01c.06.46.15.8.3,1.07h2.59c-.33-.39-.43-.67-.43-.98v-5.16c0-2.26-1.17-3.61-4.24-3.61-2.85,0-4.04,1.56-3.98,3.15l2.24.04c0-.7.52-1.37,1.81-1.37s1.65.61,1.65,1.06c0,.39-.24.74-.93.87l-1.44.24c-2.07.37-2.63.76-3.04,1.11-.56.5-.87,1.2-.87,1.96,0,1.56,1.22,2.96,3.61,2.96,1.37,0,2.18-.46,2.72-1.33ZM137.07,150.12l-.02,1.19c0,1.33-.83,2.17-2.28,2.17-1.06,0-1.57-.63-1.57-1.2,0-.44.15-.94,1.76-1.39l1.09-.3c.48-.13.82-.31,1.02-.46ZM120.02,155.08h2.54l-.02-3.09,1.07-1.06,2.59,4.15h3.09l-3.87-5.8,3.37-3.63h-3l-3.24,3.59-.02-7.28h-2.54l.02,13.11ZM113.15,155.08h2.54l.02-4.19c0-1.41.33-2.05.76-2.5.46-.5,1.02-.74,1.72-.74.15,0,.28.02.43.04l.02-2.24c-.13-.02-.33-.06-.54-.06-1.11,0-2.07.7-2.37,1.68l-.07-1.43h-2.48l-.02,9.43ZM106.28,155.45c3.04,0,5.09-2.04,5.09-5.11s-2.07-5.06-5.02-5.06-4.96,2.04-4.96,5.06,2.11,5.11,4.89,5.11ZM106.42,153.47c-1.31,0-2.44-.94-2.44-3.13s1.15-3.07,2.43-3.07,2.35.85,2.35,3.15-1.2,3.06-2.33,3.06ZM106.78,144.53h2.54v-2.56l-2.54-.02v2.57ZM103.46,144.53h2.54v-2.56l-2.52-.02-.02,2.57ZM85.82,155.08h2.54l.02-5.44c0-1.35.76-2.04,1.78-2.04.67,0,1.07.33,1.26.8.04.09.11.3.11,1.04v5.65h2.52v-5.59c0-1.22.74-1.93,1.74-1.93.87,0,1.44.52,1.44,1.63v5.89h2.5l-.02-6.61c-.06-1.98-1.32-3.11-3.02-3.11-1.31,0-2.33.61-2.91,1.65-.48-.98-1.52-1.65-2.76-1.65s-2.13.55-2.63,1.5l-.09-1.19-2.46-.02-.02,9.43ZM73.6,154.12l.09.96h2.52v-13.11h-2.56v4.76c-.44-.74-1.52-1.37-2.72-1.37-2.09,0-4.18,1.76-4.18,5.05,0,1.5.48,2.74,1.22,3.61.78.95,1.76,1.37,2.87,1.37s2.09-.44,2.76-1.28ZM71.6,153.21c-1.2,0-2.24-.85-2.24-2.85,0-2.24,1.09-3.04,2.13-3.04s2.15.8,2.15,2.96-1.09,2.91-2.04,2.93ZM56.52,155.08h2.54l.02-5.28c0-.74.15-1.09.35-1.39.33-.48.93-.8,1.54-.8.87,0,1.52.57,1.52,1.63l-.02,5.83h2.54v-6.65c0-1.76-1.3-3.11-3.24-3.11-1.35,0-2.3.72-2.63,1.46l-.09-1.11-2.5-.02-.02,9.43ZM51.82,154.01c.06.37.17.78.33,1.07h2.55c-.15-.13-.39-.56-.39-1.33l-.04-4.81c-.02-.83-.07-1.07-.13-1.28-.39-1.3-1.44-2.33-4-2.33-2.93,0-4.09,1.5-4.09,3.15l2.24.04c.09-.63.19-.76.39-.94.24-.22.72-.44,1.48-.44,1.19,0,1.63.63,1.63,1.07s-.28.76-.96.89l-2.55.44c-1.91.33-2.8,1.57-2.8,2.81,0,1.63,1.26,3.02,3.54,3.02,1.57,0,2.44-.63,2.8-1.35ZM51.82,150.07v1.41c-.07,1.18-.87,2-2.24,2-1.07,0-1.57-.63-1.57-1.19,0-.44.22-1.02,1.72-1.39l1.09-.3c.41-.09.76-.3,1-.54ZM50.3,144.53l2.56.02v-2.57h-2.54l-.02,2.56ZM47.01,144.53h2.54l.02-2.57h-2.54l-.02,2.57ZM39.36,155.08h2.5l3.22-9.43h-2.57l-1.89,6.2-1.87-6.18h-2.57l3.18,9.41ZM26.49,155.08h2.54l.02-5.28c0-.74.15-1.09.35-1.39.33-.48.92-.8,1.54-.8.87,0,1.52.57,1.52,1.63l-.02,5.83h2.54v-6.65c0-1.76-1.3-3.11-3.24-3.11-1.35,0-2.3.72-2.63,1.46l-.09-1.11-2.5-.02-.02,9.43ZM13.12,155.08h2.76l.87-2.76h4.76l.83,2.76h2.78l-4.48-13.11h-2.91l-4.61,13.11Z"/>
  <path class="cls-2" d="M12.91,172.74c.03,1.78,1.35,3.48,3.9,3.48s3.73-1.57,3.73-3.26c0-.59-.2-1.19-.52-1.65-.31-.44-.7-.78-1.69-1.04l-2.38-.63c-.49-.15-.7-.5-.7-.83,0-.37.29-.94,1.39-.94,1.17,0,1.69.7,1.71,1.46l1.97-.04c-.03-.95-.49-1.89-1.19-2.48-.49-.39-1.26-.72-2.46-.72-2.4,0-3.44,1.46-3.44,3.07,0,.76.18,1.3.57,1.78.29.35.65.65,1.58.87l1.79.46c1.06.26,1.17.63,1.17,1.07,0,.41-.34,1.06-1.56,1.06s-1.78-.7-1.84-1.69l-2.02.02ZM131.85,175.89h2.23l.02-5.28c0-.74.13-1.09.31-1.39.29-.48.81-.8,1.35-.8.77,0,1.32.57,1.32,1.63v5.83h2.23v-6.65c0-1.76-1.14-3.11-2.87-3.11-1.19,0-2.02.72-2.3,1.46l-.1-1.11-2.18-.02-.02,9.42ZM125.91,176.24c2.51,0,4.35-2.02,4.35-5.09s-1.81-5.04-4.38-5.04-4.33,2.04-4.33,5.02,1.84,5.11,4.37,5.11ZM125.9,174.26c-1.06,0-2.09-.93-2.09-3.02,0-2.26.99-3.15,2.09-3.15s2.1.91,2.1,3.05-1.01,3.11-2.1,3.11ZM112.04,176.41c.1.89.34,1.39.82,1.89.49.56,1.43,1.07,3.03,1.07,1.81,0,2.95-.76,3.5-1.57.39-.57.59-1.09.59-2.5v-8.83h-2.14l-.08,1.15c-.15-.3-.6-1.48-2.45-1.48-2,0-3.75,1.81-3.75,4.72s1.74,4.74,3.73,4.74c1.32,0,2.14-.69,2.46-1.41v1.02c0,1.59-.65,2.26-1.92,2.26-.98,0-1.43-.56-1.5-1.15l-2.3.09ZM115.82,173.41c-1.09,0-1.99-.89-1.99-2.63,0-1.52.91-2.48,1.94-2.48s1.96.96,1.96,2.55-.94,2.56-1.91,2.56ZM105.7,176.26c2.67,0,4.47-2.04,4.47-5.11s-1.83-5.05-4.4-5.05-4.37,2.04-4.37,5.05,1.86,5.11,4.3,5.11ZM105.83,174.28c-1.16,0-2.15-.94-2.15-3.13s.99-3.07,2.14-3.07c1.08,0,2.07.85,2.07,3.15s-1.06,3.06-2.05,3.06ZM106.15,165.33h2.23l-.02-2.56-2.22-.02v2.57ZM103.23,165.33h2.23v-2.56l-2.23-.02v2.57ZM92.31,172.74c.03,1.78,1.35,3.48,3.9,3.48s3.73-1.57,3.73-3.26c0-.59-.19-1.19-.52-1.65-.31-.44-.7-.78-1.69-1.04l-2.38-.63c-.49-.15-.7-.5-.7-.83,0-.37.29-.94,1.39-.94,1.17,0,1.69.7,1.71,1.46l1.97-.04c-.03-.95-.49-1.89-1.19-2.48-.49-.39-1.26-.72-2.46-.72-2.4,0-3.44,1.46-3.44,3.07,0,.76.18,1.3.57,1.78.29.35.65.65,1.58.87l1.79.46c1.06.26,1.17.63,1.17,1.07,0,.41-.34,1.06-1.56,1.06s-1.78-.7-1.84-1.69l-2.02.02ZM88.46,174.81c.05.46.15.8.28,1.07h2.27c-.28-.39-.36-.67-.37-.98l.02-5.17c0-2.26-1.04-3.61-3.73-3.61-2.51,0-3.55,1.56-3.52,3.15l1.97.04c0-.7.47-1.37,1.61-1.37s1.45.61,1.45,1.06c0,.39-.21.74-.81.87l-1.27.24c-1.84.37-2.33.76-2.67,1.11-.51.5-.77,1.2-.77,1.96,0,1.56,1.07,2.96,3.18,2.96,1.21,0,1.91-.46,2.38-1.33ZM88.48,170.93l-.02,1.18c0,1.33-.72,2.17-2,2.17-.93,0-1.37-.63-1.37-1.2,0-.44.13-.94,1.53-1.39l.96-.3c.44-.13.72-.32.9-.46ZM79.16,175.89h2.23v-13.11h-2.22l-.02,13.11ZM69.51,176.41c.1.89.34,1.39.82,1.89.49.56,1.43,1.07,3.03,1.07,1.81,0,2.93-.76,3.49-1.57.39-.57.59-1.09.59-2.5v-8.83h-2.12l-.08,1.15c-.15-.3-.6-1.48-2.45-1.48-2,0-3.75,1.81-3.75,4.72s1.74,4.74,3.73,4.74c1.32,0,2.14-.69,2.46-1.41v1.02c0,1.59-.65,2.26-1.92,2.26-.98,0-1.44-.56-1.5-1.15l-2.3.09ZM73.29,173.41c-1.09,0-1.99-.89-1.99-2.63,0-1.52.91-2.48,1.94-2.48s1.96.96,1.96,2.55-.95,2.56-1.91,2.56ZM59.94,172.74c.03,1.78,1.35,3.48,3.9,3.48s3.73-1.57,3.73-3.26c0-.59-.2-1.19-.52-1.65-.31-.44-.7-.78-1.69-1.04l-2.38-.63c-.49-.15-.7-.5-.7-.83,0-.37.29-.94,1.39-.94,1.17,0,1.7.7,1.71,1.46l1.97-.04c-.03-.95-.49-1.89-1.19-2.48-.49-.39-1.26-.72-2.46-.72-2.4,0-3.44,1.46-3.44,3.07,0,.76.18,1.3.57,1.78.29.35.65.65,1.58.87l1.79.46c1.06.26,1.17.63,1.17,1.07,0,.41-.34,1.06-1.57,1.06s-1.78-.7-1.84-1.69l-2.02.02ZM56.06,174.92l.1.96h2.22l-.02-13.11h-2.23v4.76c-.41-.74-1.34-1.37-2.4-1.37-1.86,0-3.68,1.76-3.68,5.05,0,1.5.42,2.74,1.08,3.61.68.94,1.53,1.37,2.53,1.37s1.82-.44,2.41-1.28ZM54.3,174.02c-1.04,0-1.97-.85-1.97-2.85,0-2.24.96-3.04,1.89-3.04s1.87.8,1.87,2.96-.96,2.91-1.79,2.92ZM46.17,174.92l.1.96h2.22l-.02-13.11h-2.23v4.76c-.41-.74-1.34-1.37-2.4-1.37-1.86,0-3.68,1.76-3.68,5.05,0,1.5.42,2.74,1.07,3.61.69.94,1.53,1.37,2.53,1.37s1.83-.44,2.41-1.28ZM44.41,174.02c-1.04,0-1.97-.85-1.97-2.85,0-2.24.96-3.04,1.89-3.04s1.87.8,1.87,2.96-.96,2.91-1.79,2.92ZM32.04,176.96v1.98h1.65c1.95,0,2.41-1.74,2.59-2.31l3.15-10.17h-2.36l-1.66,5.83-1.74-5.83h-2.4l2.56,7.94c.18.52.23.87.23,1.3,0,.76-.36,1.28-1.34,1.26h-.67ZM22.18,175.89h2.23v-3.09l.93-1.06,2.28,4.15h2.74l-3.42-5.79,2.98-3.63h-2.64l-2.87,3.59-.02-7.28h-2.22v13.11Z"/>
</svg>