<?xml version="1.0" encoding="UTF-8"?>
<svg id="Lager_1" data-name="Lager 1" xmlns="http://www.w3.org/2000/svg" viewBox="0 0 153.09 218.69">
  <defs>
    <style>
      .cls-1 {
        fill: #1a4080;
      }

      .cls-1, .cls-2 {
        fill-rule: evenodd;
      }

      .cls-2 {
        fill: #fff;
      }
    </style>
  </defs>
  <polyline class="cls-2" points="0 218.69 153.09 218.69 153.09 0 0 0 0 218.69"/>
  <path class="cls-1" d="M65.14,87.14c4.22.17,10.2,5.15,16.09,6.04h21.03l.04,1.87h-21.68c-4.43-.17-11.91-5.57-15.66-5.87h-21.72v-2.04h21.9ZM102.96,87.61c.3.81,1.04,1.79.34,2.68-.6.77-1.72.77-2.58.55-1.76-2.43-4.39-3.28-6.97-4.04-.73-.38-.73-1.28-.52-1.96,2.28-1.66,5.51-.25,7.74.81l1.98,1.95ZM71.77,34.54c.13,10.04-.69,20.33-.82,30.15.13,1.45.73,2.68,1.77,3.78,5.25,4.08,10.16,7.32,15.06,12.29,5.55,3.23,16.69.47,16.73,9.91.6,1.32-1.33,3.23.69,3.4,0-.04.04,3.61.09,3.61h-28.91c-4.82-1.57-8.82-5.49-13.9-6.38l-.26,6.38h-20.43c-.6-3.45-.39-7.23-.77-10.71-2.58-3.53-1.38-9.06-.56-12.97,1.29-5.02,3.14-10,1.98-15.69l-.48-7.95c-.17-4.97-.73-10.67-1.12-15.82h30.93ZM115.44,91.48s-.86,3.15-.82,3.11c-.04,0-6.71-1.53-6.71-1.53,0,0,.26-2.25.26-2.21l3.27.64c1.38-2.04,2.28-5.49,1.42-7.27-2.84-5.01-9.98-4.34-13.08-8.51-3.61-5.99-8.35-11.48-12.56-17.22-.82-1.79-.99-3.45-.26-5.82l6.97-25.69-25.3-5.91-1.98,10.24h-2.07l2.37-12.84,29.73,6.89-7.87,28.87c-.43,1.96.6,3.57,1.68,5.02,3.83,4.98,7.74,9.87,11.05,15.05,2.97,3.7,14.58,3.95,13.98,12.16-.04,1.66-.69,3.19-1.08,4.72l.99.3ZM17.28,65.24c0,32.36,26.55,58.6,59.29,58.6s59.27-26.24,59.27-58.6S109.31,6.65,76.57,6.65s-59.29,26.23-59.29,58.59Z"/>
  <polyline class="cls-1" points="10.07 133.73 143.06 133.73 143.06 208.97 10.07 208.97 10.07 133.73"/>
  <path class="cls-2" d="M49.28,150.27l1.8-5.67,1.68,5.67h-3.48ZM105.44,154.14l.11.96h2.52l-.02-13.11h-2.54v4.76c-.46-.74-1.52-1.37-2.72-1.37-2.11,0-4.18,1.76-4.18,5.06,0,1.5.48,2.74,1.22,3.61.78.94,1.74,1.37,2.87,1.37s2.07-.44,2.74-1.28ZM103.44,153.23c-1.18,0-2.24-.85-2.24-2.85,0-2.24,1.09-3.04,2.15-3.04s2.13.8,2.13,2.96-1.09,2.91-2.04,2.92ZM88.39,155.1h2.54l.02-5.28c0-.74.15-1.09.35-1.39.33-.48.93-.8,1.54-.8.87,0,1.5.57,1.5,1.63v5.83h2.54v-6.65c0-1.76-1.3-3.11-3.26-3.11-1.35,0-2.3.72-2.61,1.46l-.11-1.11-2.48-.02-.02,9.42ZM83.67,154.03c.06.37.18.78.33,1.07h2.57c-.15-.13-.41-.55-.41-1.33l-.02-4.81c-.04-.83-.09-1.07-.15-1.28-.37-1.3-1.43-2.33-3.98-2.33-2.94,0-4.09,1.5-4.09,3.15l2.22.04c.11-.63.2-.76.41-.94.22-.22.7-.44,1.46-.44,1.19,0,1.65.63,1.65,1.07s-.3.76-.98.89l-2.54.44c-1.91.33-2.8,1.57-2.8,2.81,0,1.63,1.26,3.02,3.54,3.02,1.57,0,2.43-.63,2.78-1.35ZM83.69,150.08l-.02,1.41c-.06,1.19-.85,2-2.24,2-1.06,0-1.57-.63-1.57-1.18,0-.44.22-1.02,1.72-1.39l1.11-.3c.41-.09.76-.3,1-.54ZM82.17,144.55l2.54.02.02-2.57h-2.55v2.56ZM78.85,144.55h2.54l.02-2.57h-2.54l-.02,2.57ZM71.23,155.1h2.52l3.2-9.42h-2.55l-1.89,6.2-1.87-6.19h-2.57l3.17,9.41ZM58.38,155.1h2.54l.02-5.28c0-.74.15-1.09.35-1.39.33-.48.92-.8,1.54-.8.87,0,1.5.57,1.5,1.63v5.83h2.54v-6.65c0-1.76-1.3-3.11-3.26-3.11-1.35,0-2.3.72-2.61,1.46l-.11-1.11-2.48-.02-.02,9.42ZM45.01,155.1h2.74l.89-2.76h4.74l.85,2.76h2.78l-4.5-13.11h-2.91l-4.59,13.11Z"/>
  <path class="cls-2" d="M25.58,172.94c.06,1.78,1.56,3.48,4.44,3.48s4.22-1.57,4.22-3.26c0-.59-.2-1.19-.57-1.65-.35-.44-.82-.78-1.93-1.04l-2.7-.63c-.57-.15-.8-.5-.8-.83,0-.37.33-.94,1.56-.94,1.35,0,1.94.7,1.96,1.46l2.24-.04c-.06-.95-.56-1.89-1.35-2.48-.55-.39-1.42-.72-2.81-.72-2.7,0-3.91,1.46-3.91,3.07,0,.76.22,1.3.65,1.78.35.35.76.65,1.82.87l2.04.46c1.18.26,1.33.63,1.33,1.07,0,.41-.39,1.06-1.8,1.06-1.33,0-2-.7-2.07-1.69l-2.32.02ZM122.01,176.09h2.54l.02-4.18c0-1.41.33-2.06.76-2.5.46-.5,1.02-.74,1.72-.74.15,0,.28.02.43.04l.02-2.24c-.13-.02-.33-.06-.54-.06-1.11,0-2.07.7-2.35,1.68l-.09-1.42h-2.48l-.02,9.42ZM115.27,176.44c2.87,0,4.96-2.02,4.96-5.09s-2.06-5.04-4.98-5.04-4.94,2.04-4.94,5.02,2.09,5.11,4.96,5.11ZM115.25,174.46c-1.2,0-2.35-.93-2.35-3.02,0-2.26,1.13-3.15,2.37-3.15s2.37.91,2.37,3.06-1.15,3.11-2.39,3.11ZM99.91,176.09h2.54l-.02-3.09,1.07-1.05,2.59,4.15h3.09l-3.87-5.8,3.37-3.63h-2.98l-3.26,3.59-.02-7.28h-2.54l.02,13.11ZM89.35,172.94c.05,1.78,1.55,3.48,4.44,3.48s4.22-1.57,4.22-3.26c0-.59-.2-1.19-.57-1.65-.35-.44-.81-.78-1.93-1.04l-2.7-.63c-.57-.15-.8-.5-.8-.83,0-.37.33-.94,1.55-.94,1.35,0,1.94.7,1.96,1.46l2.24-.04c-.05-.95-.55-1.89-1.35-2.48-.56-.39-1.43-.72-2.82-.72-2.7,0-3.91,1.46-3.91,3.07,0,.76.22,1.3.65,1.78.35.35.76.65,1.81.87l2.04.46c1.19.26,1.33.63,1.33,1.07,0,.41-.39,1.06-1.8,1.06-1.33,0-2-.7-2.07-1.69l-2.31.02ZM79,172.94c.06,1.78,1.56,3.48,4.44,3.48s4.22-1.57,4.22-3.26c0-.59-.2-1.19-.57-1.65-.35-.44-.81-.78-1.93-1.04l-2.7-.63c-.57-.15-.8-.5-.8-.83,0-.37.33-.94,1.56-.94,1.35,0,1.94.7,1.96,1.46l2.24-.04c-.06-.95-.56-1.89-1.35-2.48-.55-.39-1.42-.72-2.81-.72-2.7,0-3.91,1.46-3.91,3.07,0,.76.22,1.3.65,1.78.35.35.76.65,1.82.87l2.04.46c1.18.26,1.33.63,1.33,1.07,0,.41-.39,1.06-1.8,1.06-1.33,0-2-.7-2.07-1.69l-2.32.02ZM74.63,175.13l.11.96h2.48v-13.11h-2.54v4.76c-.44-.74-1.52-1.37-2.72-1.37-2.09,0-4.18,1.76-4.18,5.05,0,1.5.48,2.74,1.22,3.61.78.94,1.76,1.37,2.87,1.37s2.09-.44,2.76-1.28ZM72.63,174.22c-1.2,0-2.24-.85-2.24-2.85,0-2.24,1.09-3.04,2.13-3.04s2.15.8,2.15,2.96-1.09,2.91-2.04,2.93ZM63.39,175.13l.11.96h2.5v-13.11h-2.56v4.76c-.44-.74-1.52-1.37-2.72-1.37-2.09,0-4.18,1.76-4.18,5.05,0,1.5.48,2.74,1.22,3.61.78.94,1.76,1.37,2.87,1.37s2.09-.44,2.76-1.28ZM61.39,174.22c-1.2,0-2.24-.85-2.24-2.85,0-2.24,1.09-3.04,2.13-3.04s2.15.8,2.15,2.96-1.09,2.91-2.04,2.93ZM47.34,177.16v1.98h1.87c2.2,0,2.72-1.74,2.92-2.31l3.59-10.16h-2.7l-1.87,5.83-1.98-5.83h-2.74l2.93,7.94c.18.52.26.87.26,1.3,0,.76-.43,1.28-1.52,1.26h-.76ZM36.14,176.09h2.54l-.02-3.09,1.07-1.05,2.59,4.15h3.09l-3.87-5.8,3.37-3.63h-2.98l-3.26,3.59-.02-7.28h-2.54l.02,13.11Z"/>
</svg>