<?xml version="1.0" encoding="UTF-8"?>
<svg id="Lager_1" data-name="Lager 1" xmlns="http://www.w3.org/2000/svg" viewBox="0 0 153.09 218.69">
  <defs>
    <style>
      .cls-1 {
        fill: #1a4080;
      }

      .cls-1, .cls-2 {
        fill-rule: evenodd;
      }

      .cls-2 {
        fill: #fff;
      }
    </style>
  </defs>
  <polyline class="cls-2" points="0 218.69 153.09 218.69 153.09 0 0 0 0 218.69"/>
  <path class="cls-1" d="M78.5,75.15l-2.19-5.19,2.15-11.18c.26-.64.26-1.23.26-1.45.05-3.27-2.41-5.19-4.26-5.19-1.07-.04-1.94.13-2.8,2l-.73,2.34-1.42-3.53-.09-.09c1.29-2.68,3.19-3.66,5.25-3.61,3.36.04,6.84,3.19,6.76,8.12,0,.81,0,1.87-.26,2.51l-2.67,15.26ZM82.97,84.25c2.11-.6,13.29-4.13,17.51-4.76-1.03-5.1-2.11-10.08-2.97-15.26-.81-5.74-1.85-11.53-2.28-17.31-.39-5.14-.39-10.29-.39-15.65v-4.55c0-1.45-1.08-2.68-2.5-2.68s-2.75,1.23-2.75,2.68v7.23c0,.6-.65,1.45-1.46,1.45-.61,0-1.47-.85-1.47-1.45l.21-11.99c0-1.45-1.24-2.68-2.71-2.68-1.63,0-2.71,1.23-2.71,2.68v12.8c0,.81-.65,1.45-1.46,1.45s-1.46-.64-1.46-1.45v-10.72c0-1.49-1.25-2.51-2.49-2.51-1.47,0-2.54,1.02-2.54,2.51l-.18,15.69c0,.81-.64,1.45-1.46,1.45-.86,0-1.47-.64-1.47-1.45v-12.42c0-1.02-.81-1.83-2.06-1.83-1.03,0-2.1.81-2.1,1.83l-.17,19.94c-1.12-1.02-2.32-1.23-2.75-1.23l.21-18.71c0-2.42,2.32-4.76,4.82-4.76.82,0,1.42.26,2.06.47.43-2.51,2.93-4.55,5.64-4.55,1.24,0,2.28.42,3.14,1.02,1.03-1.83,2.67-2.89,4.99-2.89,3.14,0,5.42,2.3,5.42,5.36,1.04-.43,1.72-.59,2.75-.59,3.1,0,5.38,2.29,5.38,5.36v2.89c0,14.41.21,15.26.43,17.09.6,9.53,2.75,22.92,5.85,35.08-4.34.64-16.82,4.12-19.79,5.19l-1.25-2.72ZM57.12,110.53l-17.34-48.26c-.17-.43-.38-.64-.38-1.23,0-1.66,1.63-3.28,3.31-3.28,1.51,0,2.54.81,3.14,1.83l4.6,11.95c.17.26.39.47.82.47s.6-.47.6-.89v-.17l-6.2-16.33c0-.38-.21-.6-.21-1.02,0-1.45,1.25-2.64,2.71-2.64,1.04,0,2.07.59,2.28,1.61l5.85,13.82c.22.21.39.21.82.21s.82-.21.82-.59c0,0,0-.22-.17-.43l-6.07-14.63c0-.21-.22-.64-.22-1.06,0-1.83,1.46-3.06,3.14-3.06,1.46,0,2.49.81,2.92,1.83l6.07,14.42c.17.21.39.47.6.47.43,0,.82-.26.82-.68q0-.17-.17-.17l-4.43-11.14v-.81c0-1.45,1.29-2.68,2.54-2.68,1.04,0,2.07.59,2.49,1.66l21.73,50.3c-10.67,2.47-20.69,6-30.07,10.5ZM17.28,65.24c0,32.36,26.55,58.6,59.29,58.6s59.27-26.24,59.27-58.6S109.31,6.65,76.57,6.65s-59.29,26.23-59.29,58.59Z"/>
  <polyline class="cls-1" points="10.07 133.73 143.06 133.73 143.06 208.97 10.07 208.97 10.07 133.73"/>
  <path class="cls-2" d="M49.28,150.27l1.8-5.67,1.69,5.67h-3.48ZM105.44,154.14l.11.96h2.52l-.02-13.11h-2.54v4.76c-.46-.74-1.52-1.37-2.72-1.37-2.11,0-4.18,1.76-4.18,5.06,0,1.5.48,2.74,1.22,3.61.78.94,1.74,1.37,2.87,1.37s2.07-.44,2.74-1.28ZM103.44,153.23c-1.19,0-2.24-.85-2.24-2.85,0-2.24,1.09-3.04,2.15-3.04s2.13.8,2.13,2.96-1.09,2.91-2.04,2.92ZM88.39,155.1h2.54l.02-5.28c0-.74.15-1.09.35-1.39.33-.48.93-.8,1.54-.8.87,0,1.5.57,1.5,1.63v5.83h2.54v-6.65c0-1.76-1.3-3.11-3.26-3.11-1.35,0-2.3.72-2.61,1.46l-.11-1.11-2.48-.02-.02,9.42ZM83.67,154.03c.06.37.19.78.33,1.07h2.57c-.15-.13-.41-.55-.41-1.33l-.02-4.81c-.04-.83-.09-1.07-.15-1.28-.37-1.3-1.43-2.33-3.98-2.33-2.94,0-4.09,1.5-4.09,3.15l2.22.04c.11-.63.2-.76.41-.94.22-.22.7-.44,1.46-.44,1.18,0,1.65.63,1.65,1.07s-.3.76-.98.89l-2.54.44c-1.91.33-2.8,1.57-2.8,2.81,0,1.63,1.26,3.02,3.54,3.02,1.57,0,2.43-.63,2.78-1.35ZM83.69,150.08l-.02,1.41c-.06,1.19-.85,2-2.24,2-1.06,0-1.57-.63-1.57-1.18,0-.44.22-1.02,1.72-1.39l1.11-.3c.41-.09.76-.3,1-.54ZM82.17,144.55l2.54.02.02-2.57h-2.56v2.56ZM78.85,144.55h2.54l.02-2.57h-2.54l-.02,2.57ZM71.22,155.1h2.52l3.2-9.42h-2.56l-1.89,6.2-1.87-6.19h-2.57l3.17,9.41ZM58.38,155.1h2.54l.02-5.28c0-.74.15-1.09.35-1.39.33-.48.93-.8,1.54-.8.87,0,1.5.57,1.5,1.63v5.83h2.54v-6.65c0-1.76-1.3-3.11-3.26-3.11-1.35,0-2.3.72-2.61,1.46l-.11-1.11-2.48-.02-.02,9.42ZM45.01,155.1h2.74l.89-2.76h4.74l.85,2.76h2.78l-4.5-13.11h-2.91l-4.59,13.11Z"/>
  <path class="cls-2" d="M13.71,172.94c.03,1.78,1.35,3.48,3.88,3.48s3.71-1.57,3.71-3.26c0-.59-.19-1.19-.52-1.65-.31-.44-.7-.78-1.69-1.04l-2.37-.63c-.49-.15-.7-.5-.7-.83,0-.37.29-.94,1.38-.94,1.17,0,1.69.7,1.7,1.46l1.96-.04c-.03-.94-.49-1.89-1.19-2.48-.49-.39-1.25-.72-2.45-.72-2.39,0-3.42,1.46-3.42,3.07,0,.76.18,1.3.57,1.78.29.35.65.65,1.57.87l1.78.46c1.05.26,1.17.63,1.17,1.07,0,.41-.34,1.06-1.56,1.06s-1.77-.7-1.83-1.68l-2.01.02ZM135.34,176.09h2.22v-4.19c0-1.41.31-2.06.67-2.5.42-.5.91-.74,1.51-.74.13,0,.26.02.39.04v-2.24c-.11-.02-.29-.06-.47-.06-.97,0-1.8.7-2.06,1.69l-.06-1.43h-2.19v9.43ZM131.2,175.02c.05.46.15.8.28,1.07h2.26c-.28-.39-.36-.67-.37-.98l.02-5.17c0-2.26-1.04-3.61-3.71-3.61-2.5,0-3.54,1.56-3.5,3.15l1.96.04c0-.7.47-1.37,1.61-1.37s1.44.61,1.44,1.06c0,.39-.21.74-.81.87l-1.27.24c-1.83.37-2.32.76-2.66,1.11-.5.5-.76,1.2-.76,1.96,0,1.55,1.07,2.96,3.16,2.96,1.2,0,1.9-.46,2.37-1.33ZM131.22,171.13l-.02,1.18c0,1.33-.71,2.17-2,2.17-.92,0-1.36-.63-1.36-1.2,0-.44.13-.94,1.52-1.39l.96-.3c.44-.13.71-.32.89-.46ZM116.28,176.09h2.22v-3.09l.92-1.06,2.27,4.15h2.72l-3.41-5.8,2.97-3.63h-2.63l-2.85,3.59-.02-7.28h-2.21v13.11ZM107.05,172.94c.03,1.78,1.35,3.48,3.88,3.48s3.71-1.57,3.71-3.26c0-.59-.19-1.19-.52-1.65-.31-.44-.7-.78-1.69-1.04l-2.37-.63c-.49-.15-.7-.5-.7-.83,0-.37.29-.94,1.38-.94,1.17,0,1.69.7,1.7,1.46l1.96-.04c-.03-.94-.49-1.89-1.18-2.48-.49-.39-1.25-.72-2.45-.72-2.38,0-3.42,1.46-3.42,3.07,0,.76.18,1.3.57,1.78.29.35.65.65,1.57.87l1.78.46c1.05.26,1.17.63,1.17,1.07,0,.41-.34,1.06-1.56,1.06s-1.77-.7-1.83-1.68l-2.01.02ZM103.19,175.13l.1.96h2.21l-.02-13.11h-2.22v4.76c-.41-.74-1.33-1.37-2.39-1.37-1.85,0-3.67,1.76-3.67,5.06,0,1.5.42,2.74,1.07,3.61.68.94,1.52,1.37,2.51,1.37s1.82-.44,2.4-1.28ZM101.43,174.22c-1.04,0-1.96-.85-1.96-2.85,0-2.24.96-3.04,1.88-3.04s1.86.8,1.86,2.96-.96,2.91-1.78,2.93ZM88.25,176.09h2.22l.02-5.28c0-.74.13-1.09.31-1.39.29-.48.81-.8,1.35-.8.76,0,1.31.57,1.31,1.63v5.83h2.22v-6.65c0-1.76-1.14-3.11-2.85-3.11-1.18,0-2.01.72-2.29,1.46l-.1-1.11-2.17-.02-.02,9.43ZM84.11,175.02c.05.46.15.8.28,1.07h2.26c-.28-.39-.36-.67-.37-.98l.02-5.17c0-2.26-1.04-3.61-3.71-3.61-2.5,0-3.54,1.56-3.5,3.15l1.96.04c0-.7.47-1.37,1.61-1.37s1.44.61,1.44,1.06c0,.39-.21.74-.81.87l-1.27.24c-1.83.37-2.32.76-2.66,1.11-.5.5-.76,1.2-.76,1.96,0,1.55,1.07,2.96,3.16,2.96,1.2,0,1.9-.46,2.37-1.33ZM84.12,171.13l-.02,1.18c0,1.33-.71,2.17-1.99,2.17-.93,0-1.36-.63-1.36-1.2,0-.44.13-.94,1.53-1.39l.96-.3c.44-.13.71-.32.89-.46ZM69.75,176.09h2.22v-5.19c0-1.54.73-2.26,1.66-2.26.78,0,1.33.52,1.33,1.7l-.02,5.74h2.21v-6.5c0-1.15-.32-1.93-.86-2.46-.47-.46-1.22-.8-1.93-.8-1.2,0-2.03.65-2.4,1.52l.02-4.87h-2.22v13.11ZM60.52,172.94c.03,1.78,1.35,3.48,3.88,3.48s3.71-1.57,3.71-3.26c0-.59-.19-1.19-.52-1.65-.31-.44-.7-.78-1.69-1.04l-2.37-.63c-.49-.15-.7-.5-.7-.83,0-.37.29-.94,1.38-.94,1.17,0,1.69.7,1.7,1.46l1.96-.04c-.03-.94-.49-1.89-1.18-2.48-.49-.39-1.25-.72-2.45-.72-2.39,0-3.42,1.46-3.42,3.07,0,.76.18,1.3.57,1.78.29.35.65.65,1.57.87l1.79.46c1.05.26,1.17.63,1.17,1.07,0,.41-.34,1.06-1.56,1.06s-1.77-.7-1.83-1.68l-2.01.02ZM56.66,175.13l.1.96h2.21l-.02-13.11h-2.22v4.76c-.41-.74-1.33-1.37-2.39-1.37-1.85,0-3.67,1.76-3.67,5.06,0,1.5.42,2.74,1.07,3.61.68.94,1.53,1.37,2.51,1.37s1.82-.44,2.4-1.28ZM54.91,174.22c-1.04,0-1.96-.85-1.96-2.85,0-2.24.96-3.04,1.88-3.04s1.86.8,1.86,2.96-.96,2.91-1.78,2.93ZM46.81,175.13l.1.96h2.21l-.02-13.11h-2.22v4.76c-.41-.74-1.33-1.37-2.38-1.37-1.85,0-3.67,1.76-3.67,5.06,0,1.5.42,2.74,1.07,3.61.68.94,1.52,1.37,2.51,1.37s1.82-.44,2.4-1.28ZM45.06,174.22c-1.04,0-1.96-.85-1.96-2.85,0-2.24.96-3.04,1.88-3.04s1.87.8,1.87,2.96-.96,2.91-1.78,2.93ZM32.75,177.17v1.98h1.64c1.95,0,2.4-1.74,2.58-2.31l3.13-10.17h-2.35l-1.65,5.83-1.74-5.83h-2.38l2.55,7.94c.18.52.23.87.23,1.3,0,.76-.36,1.28-1.33,1.26h-.67ZM22.94,176.09h2.22v-3.09l.92-1.06,2.27,4.15h2.72l-3.41-5.8,2.97-3.63h-2.63l-2.85,3.59-.02-7.28h-2.21v13.11Z"/>
</svg>