<svg xmlns="http://www.w3.org/2000/svg" viewBox="0 0 595.28 850.37"><defs><style>.a{fill:#e5e8eb;}.a,.b,.c{fill-rule:evenodd;}.b{fill:#000100;}.c{fill:#1e3b72;}</style></defs><title>M009_C</title><polyline class="a" points="0 850.37 595.28 850.37 595.28 0 0 0 0 850.37"/><path class="b" d="M192.89,625.82l7-22,6.55,22H192.89Zm218.37,15,0.43,3.74h9.8l-0.07-51h-9.86v18.5c-1.8-2.88-5.9-5.33-10.58-5.33-8.21,0-16.27,6.84-16.27,19.66a21.39,21.39,0,0,0,4.75,14,13.78,13.78,0,0,0,11.16,5.33A13.05,13.05,0,0,0,411.26,640.87Zm-7.77-3.53c-4.61,0-8.71-3.31-8.71-11.09,0-8.71,4.25-11.81,8.35-11.81s8.28,3.1,8.28,11.52C411.4,634,407.16,637.27,403.49,637.34ZM345,644.61h9.86l0.07-20.52c0-2.88.58-4.25,1.37-5.4a7.41,7.41,0,0,1,6-3.09c3.38,0,5.83,2.23,5.83,6.33v22.68h9.86V618.76c0-6.84-5-12.1-12.67-12.1-5.26,0-8.93,2.81-10.15,5.69L354.67,608,345,608Zm-18.36-4.18a14.92,14.92,0,0,0,1.29,4.18h10c-0.58-.51-1.59-2.16-1.59-5.18l-0.07-18.72a20.67,20.67,0,0,0-.58-5c-1.44-5-5.55-9.07-15.48-9.07-11.45,0-15.91,5.83-15.91,12.24l8.64,0.14c0.43-2.45.79-3,1.58-3.67s2.74-1.73,5.69-1.73c4.61,0,6.41,2.45,6.41,4.18s-1.15,3-3.82,3.46L312.91,623C305.5,624.31,302,629.13,302,634c0,6.34,4.9,11.74,13.75,11.74C321.91,645.69,325.22,643.24,326.59,640.43Zm0.07-15.34-0.07,5.47c-0.22,4.61-3.31,7.78-8.71,7.78-4.1,0-6.12-2.45-6.12-4.61,0-1.73.86-4,6.7-5.4l4.32-1.15A8.09,8.09,0,0,0,326.66,625.1Zm-5.9-21.53,9.86,0.07,0.07-10h-9.94v9.94Zm-12.89,0h9.86l0.07-10h-9.86Zm-29.67,41H288L300.46,608h-9.94l-7.34,24.12-7.27-24h-10Zm-50,0h9.86l0.07-20.52c0-2.88.58-4.25,1.37-5.4a7.41,7.41,0,0,1,6-3.09c3.38,0,5.83,2.23,5.83,6.33v22.68h9.86V618.76c0-6.84-5-12.1-12.67-12.1-5.26,0-8.93,2.81-10.15,5.69L238,608l-9.65-.07Zm-52,0h10.65l3.46-10.73H208.8l3.31,10.73h10.8l-17.49-51h-11.3Z" transform="translate(-1.25 -0.68)"/><path class="b" d="M18.29,719.45c0.14,6.91,6,13.54,17.21,13.54C46.95,733,52,726.87,52,720.32a10.43,10.43,0,0,0-2.3-6.41c-1.37-1.73-3.1-3-7.49-4l-10.51-2.45c-2.16-.58-3.1-1.94-3.1-3.24s1.3-3.67,6.12-3.67c5.18,0,7.49,2.74,7.56,5.69l8.71-.14a13,13,0,0,0-5.26-9.65c-2.16-1.51-5.55-2.81-10.87-2.81-10.58,0-15.19,5.69-15.19,12a9.4,9.4,0,0,0,2.52,6.91c1.29,1.37,2.88,2.52,7,3.38l7.92,1.8c4.68,1,5.18,2.45,5.18,4.18s-1.51,4.1-6.91,4.1c-5.18,0-7.85-2.73-8.13-6.55Zm539.84,12.24H568V715.42c0-5.47,1.37-8,3-9.72a8.82,8.82,0,0,1,6.7-2.88,13.56,13.56,0,0,1,1.73.14v-8.71a14.15,14.15,0,0,0-2.09-.22,9.46,9.46,0,0,0-9.15,6.55L567.85,695h-9.72v36.65Zm-18.36-4.18a11.55,11.55,0,0,0,1.23,4.18h10a6.19,6.19,0,0,1-1.66-3.82l0.07-20.08c0-8.78-4.61-14-16.49-14-11.09,0-15.69,6-15.55,12.24l8.71,0.14c0-2.74,2.09-5.33,7.13-5.33,4.83,0,6.41,2.38,6.41,4.11,0,1.51-.93,2.88-3.6,3.38l-5.61.94c-8.13,1.44-10.3,3-11.81,4.32a9.94,9.94,0,0,0-3.39,7.63c0,6.05,4.75,11.52,14,11.52C534.59,732.7,537.68,730.9,539.77,727.52Zm0.07-15.12L539.77,717c0,5.18-3.17,8.42-8.85,8.42-4.11,0-6-2.45-6-4.68,0-1.73.58-3.67,6.77-5.4l4.25-1.15A11.38,11.38,0,0,0,539.84,712.4Zm-66.31,19.29h9.86v-12l4.11-4.11,10.08,16.13h12.1l-15.12-22.54L507.73,695H496.07l-12.67,14-0.07-28.29h-9.79v51Zm-41-12.24c0.14,6.91,6,13.54,17.21,13.54,11.45,0,16.49-6.12,16.49-12.67a10.41,10.41,0,0,0-2.31-6.41c-1.37-1.73-3.1-3-7.49-4L446,707.43c-2.16-.58-3.1-1.94-3.1-3.24s1.29-3.67,6.12-3.67c5.18,0,7.49,2.74,7.56,5.69l8.71-.14a13,13,0,0,0-5.25-9.65c-2.16-1.51-5.55-2.81-10.87-2.81-10.58,0-15.19,5.69-15.19,12a9.41,9.41,0,0,0,2.52,6.91c1.29,1.37,2.88,2.52,7,3.38l7.92,1.8c4.68,1,5.18,2.45,5.18,4.18s-1.51,4.1-6.91,4.1c-5.19,0-7.85-2.73-8.14-6.55Zm-17.13,8.5,0.43,3.74h9.79l-0.07-51h-9.86v18.5c-1.8-2.88-5.91-5.33-10.58-5.33-8.21,0-16.27,6.84-16.27,19.66a21.41,21.41,0,0,0,4.75,14,13.79,13.79,0,0,0,11.16,5.33A13.07,13.07,0,0,0,415.43,727.95Zm-7.78-3.53c-4.61,0-8.71-3.31-8.71-11.09,0-8.71,4.25-11.8,8.35-11.8s8.28,3.09,8.28,11.52C415.58,721.11,411.33,724.35,407.66,724.42Zm-58.53,7.27H359l0.07-20.52c0-2.88.58-4.25,1.37-5.4a7.39,7.39,0,0,1,6-3.1c3.39,0,5.83,2.23,5.83,6.33v22.68h9.86V705.85c0-6.84-5-12.1-12.67-12.1-5.26,0-8.93,2.81-10.15,5.69l-0.43-4.32-9.65-.07Zm-18.36-4.18a11.56,11.56,0,0,0,1.22,4.18h10a6.19,6.19,0,0,1-1.66-3.82l0.07-20.08c0-8.78-4.61-14-16.49-14-11.09,0-15.69,6-15.55,12.24l8.71,0.14c0-2.74,2.09-5.33,7.13-5.33,4.83,0,6.41,2.38,6.41,4.11,0,1.51-.94,2.88-3.6,3.38l-5.61.94c-8.13,1.44-10.3,3-11.81,4.32a9.94,9.94,0,0,0-3.38,7.63c0,6.05,4.75,11.52,14,11.52C325.58,732.7,328.67,730.9,330.76,727.52Zm0.07-15.12L330.76,717c0,5.18-3.17,8.42-8.85,8.42-4.11,0-6.05-2.45-6.05-4.68,0-1.73.58-3.67,6.77-5.4l4.25-1.15A11.38,11.38,0,0,0,330.84,712.4ZM267,731.69h9.86V711.53c0-6,3.24-8.78,7.34-8.78,3.46,0,5.9,2,5.9,6.63l-0.07,22.32h9.79V706.42c0-4.46-1.44-7.49-3.82-9.58a13.78,13.78,0,0,0-8.57-3.09c-5.33,0-9,2.52-10.65,5.9l0.07-18.93H267v51Zm-41-12.24c0.14,6.91,6,13.54,17.21,13.54,11.45,0,16.49-6.12,16.49-12.67a10.43,10.43,0,0,0-2.31-6.41c-1.37-1.73-3.1-3-7.49-4l-10.51-2.45c-2.16-.58-3.1-1.94-3.1-3.24s1.29-3.67,6.12-3.67c5.18,0,7.49,2.74,7.56,5.69l8.71-.14a13,13,0,0,0-5.25-9.65c-2.16-1.51-5.54-2.81-10.87-2.81-10.58,0-15.19,5.69-15.19,12a9.41,9.41,0,0,0,2.52,6.91c1.29,1.37,2.88,2.52,7,3.38l7.92,1.8c4.68,1,5.18,2.45,5.18,4.18s-1.51,4.1-6.91,4.1c-5.18,0-7.85-2.73-8.13-6.55Zm-17.14,8.5,0.43,3.74h9.8l-0.07-51h-9.86v18.5c-1.8-2.88-5.9-5.33-10.58-5.33-8.21,0-16.27,6.84-16.27,19.66a21.39,21.39,0,0,0,4.75,14,13.79,13.79,0,0,0,11.16,5.33A13.05,13.05,0,0,0,208.94,727.95Zm-7.77-3.53c-4.61,0-8.71-3.31-8.71-11.09,0-8.71,4.25-11.8,8.35-11.8s8.28,3.09,8.28,11.52C209.08,721.11,204.84,724.35,201.17,724.42Zm-35.93,3.53,0.43,3.74h9.8l-0.07-51h-9.86v18.5c-1.8-2.88-5.9-5.33-10.58-5.33-8.21,0-16.27,6.84-16.27,19.66a21.39,21.39,0,0,0,4.75,14,13.79,13.79,0,0,0,11.16,5.33A13.05,13.05,0,0,0,165.24,727.95Zm-7.77-3.53c-4.61,0-8.71-3.31-8.71-11.09,0-8.71,4.25-11.8,8.35-11.8s8.28,3.09,8.28,11.52C165.38,721.11,161.14,724.35,157.46,724.42Zm-54.65,11.45v7.7h7.27c8.64,0,10.66-6.77,11.45-9L135.43,695H125l-7.35,22.68L109.94,695H99.36l11.3,30.89a12.54,12.54,0,0,1,1,5c0,3-1.59,5-5.91,4.9h-3Zm-43.56-4.18h9.86v-12l4.1-4.11L83.3,731.69H95.4L80.28,709.16,93.46,695H81.8L69.12,709,69,680.72H59.26v51Z" transform="translate(-1.25 -0.68)"/><path class="c" d="M307.47,342.7l-9.7-23.21,9.52-50a17.41,17.41,0,0,0,1.13-6.47c0.2-14.66-10.65-23.21-18.83-23.21-4.75-.2-8.56.56-12.37,8.94L274,259.18l-6.29-15.79-0.38-.38c5.71-12,14.09-16.36,23.22-16.17,14.84,0.19,30.26,14.27,29.87,36.35,0,3.61,0,8.37-1.13,11.23Zm19.78,40.72c9.34-2.67,58.79-18.47,77.44-21.32-4.56-22.83-9.32-45.09-13.13-68.29-3.6-25.7-8.17-51.58-10.08-77.46-1.7-23-1.7-46-1.7-70V126c0-6.47-4.77-12-11.05-12a12.36,12.36,0,0,0-12.17,12v32.35c0,2.66-2.86,6.47-6.45,6.47-2.68,0-6.49-3.81-6.49-6.47l0.95-53.66a12.18,12.18,0,0,0-12-12,11.71,11.71,0,0,0-12,12v57.27a6.47,6.47,0,0,1-12.94,0V114a11.21,11.21,0,0,0-11-11.22A10.78,10.78,0,0,0,285.4,114l-0.78,70.23a6.41,6.41,0,0,1-6.45,6.47,6.31,6.31,0,0,1-6.49-6.47V128.63c0-4.56-3.6-8.18-9.13-8.18-4.54,0-9.31,3.62-9.31,8.18l-0.77,89.24a19.71,19.71,0,0,0-12.16-5.52l0.94-83.72c0-10.85,10.28-21.31,21.3-21.31,3.63,0,6.28,1.14,9.13,2.1,1.91-11.23,12.94-20.36,24.94-20.36a23.81,23.81,0,0,1,13.88,4.56c4.58-8.18,11.81-12.94,22.09-12.94,13.88,0,24,10.28,24,24A28.16,28.16,0,0,1,368.72,102c13.71,0,23.79,10.27,23.79,24v12.94c0,64.49.95,68.3,1.9,76.49,2.67,42.63,12.17,102.57,25.87,157-19.2,2.85-74.39,18.45-87.52,23.21ZM212.89,501L136.21,285c-0.75-1.91-1.7-2.86-1.7-5.52,0-7.42,7.22-14.66,14.64-14.66A15.64,15.64,0,0,1,163,273l20.36,53.46a4,4,0,0,0,3.62,2.08c1.91,0,2.66-2.08,2.66-4v-0.75l-27.4-73.06c0-1.71-1-2.67-1-4.57a12,12,0,0,1,12-11.8c4.58,0,9.13,2.66,10.09,7.22l25.87,61.84c1,1,1.72,1,3.62,1s3.63-1,3.63-2.67a3.33,3.33,0,0,0-.77-1.91l-26.82-65.45c0-.95-1-2.86-1-4.76a14.06,14.06,0,0,1,26.83-5.53l26.83,64.51c0.75,0.95,1.72,2.09,2.66,2.09,1.9,0,3.62-1.14,3.62-3,0-.76,0-0.76-0.77-0.76l-19.59-49.86v-3.61c0-6.48,5.71-12,11.23-12a11.83,11.83,0,0,1,11,7.42L345.9,454A633.51,633.51,0,0,0,212.89,501ZM36.67,298.32c0,144.79,117.43,262.21,262.22,262.21S561,443.11,561,298.32,443.68,36.18,298.89,36.18,36.67,153.53,36.67,298.32Z" transform="translate(-1.25 -0.68)"/></svg>