<?xml version="1.0" encoding="UTF-8"?>
<svg id="Lager_1" data-name="Lager 1" xmlns="http://www.w3.org/2000/svg" viewBox="0 0 153.09 218.69">
  <defs>
    <style>
      .cls-1 {
        fill: #1a4080;
      }

      .cls-1, .cls-2 {
        fill-rule: evenodd;
      }

      .cls-2 {
        fill: #fff;
      }
    </style>
  </defs>
  <polyline class="cls-2" points="0 218.69 153.09 218.69 153.09 0 0 0 0 218.69"/>
  <path class="cls-1" d="M95.64,108.84l-8.43-53.03c.04-.34.04-.68.04-1.06l.94-20.62h.04l8.86,25.26,7.49-2c-.05-.13-.13-.25-.17-.38h.04l-10.54-30.32c-.65-2.89-3.36-5.02-6.67-5.02h-4.78c0-1.91-1.46-3.44-3.27-3.44h-1.55v38.06h-2.07V18.23h-1.59c-1.81,0-3.27,1.53-3.27,3.44h-4.82c-3.27,0-5.98,2.13-6.62,4.98l-10.5,30.23c-.09.13-.17.26-.22.42l7.53,2,8.69-24.84,1.64,20.84s-7.36,44.82-8.78,53.45l9.59,1.66.73.04,8.82-44.27,8.43,44.44,10.41-1.79ZM80.5,32.09h5.38v2.3h-5.38v-2.3ZM17.28,65.24c0,32.36,26.55,58.6,59.29,58.6s59.27-26.24,59.27-58.6S109.31,6.65,76.57,6.65s-59.29,26.23-59.29,58.59Z"/>
  <polyline class="cls-1" points="10.07 133.73 143.06 133.73 143.06 208.97 10.07 208.97 10.07 133.73"/>
  <path class="cls-2" d="M49.29,150.27l1.8-5.67,1.68,5.67h-3.48ZM105.44,154.14l.11.96h2.52l-.02-13.11h-2.54v4.76c-.46-.74-1.52-1.37-2.72-1.37-2.11,0-4.18,1.76-4.18,5.06,0,1.5.48,2.74,1.22,3.61.78.94,1.74,1.37,2.87,1.37s2.07-.44,2.74-1.28ZM103.44,153.23c-1.18,0-2.24-.85-2.24-2.85,0-2.24,1.09-3.04,2.15-3.04s2.13.8,2.13,2.96-1.09,2.91-2.04,2.92ZM88.39,155.1h2.54l.02-5.28c0-.74.15-1.09.35-1.39.33-.48.93-.8,1.54-.8.87,0,1.5.57,1.5,1.63v5.83h2.54v-6.65c0-1.76-1.3-3.11-3.26-3.11-1.35,0-2.3.72-2.61,1.46l-.11-1.11-2.48-.02-.02,9.42ZM83.67,154.03c.05.37.18.78.33,1.07h2.57c-.15-.13-.41-.55-.41-1.33l-.02-4.81c-.04-.83-.09-1.07-.15-1.28-.37-1.3-1.43-2.33-3.98-2.33-2.94,0-4.09,1.5-4.09,3.15l2.22.04c.11-.63.2-.76.41-.94.22-.22.7-.44,1.46-.44,1.19,0,1.65.63,1.65,1.07s-.3.76-.98.89l-2.54.44c-1.91.33-2.8,1.57-2.8,2.81,0,1.63,1.26,3.02,3.54,3.02,1.57,0,2.43-.63,2.78-1.35ZM83.69,150.08l-.02,1.41c-.06,1.19-.85,2-2.24,2-1.05,0-1.57-.63-1.57-1.18,0-.44.22-1.02,1.72-1.39l1.11-.3c.41-.09.76-.3,1-.54ZM82.17,144.55l2.54.02.02-2.57h-2.55v2.56ZM78.85,144.55h2.54l.02-2.57h-2.54l-.02,2.57ZM71.23,155.1h2.52l3.2-9.42h-2.56l-1.89,6.2-1.87-6.19h-2.57l3.17,9.41ZM58.38,155.1h2.54l.02-5.28c0-.74.15-1.09.35-1.39.33-.48.93-.8,1.54-.8.87,0,1.5.57,1.5,1.63v5.83h2.54v-6.65c0-1.76-1.3-3.11-3.26-3.11-1.35,0-2.3.72-2.61,1.46l-.11-1.11-2.48-.02-.02,9.42ZM45.01,155.1h2.74l.89-2.76h4.74l.85,2.76h2.78l-4.5-13.11h-2.91l-4.59,13.11Z"/>
  <path class="cls-2" d="M17.9,172.96c.05,1.78,1.55,3.48,4.44,3.48s4.22-1.57,4.22-3.26c0-.59-.2-1.19-.57-1.65-.35-.44-.81-.78-1.92-1.04l-2.7-.63c-.57-.15-.8-.5-.8-.83,0-.37.33-.95,1.56-.95,1.35,0,1.94.7,1.96,1.46l2.24-.04c-.06-.94-.56-1.89-1.35-2.48-.56-.39-1.43-.72-2.81-.72-2.7,0-3.91,1.46-3.91,3.07,0,.76.22,1.3.65,1.78.35.35.76.65,1.81.87l2.04.46c1.19.26,1.33.63,1.33,1.07,0,.41-.39,1.05-1.8,1.05-1.33,0-2-.7-2.07-1.68l-2.31.02ZM129.68,176.11h2.54l.02-4.19c0-1.41.33-2.05.76-2.5.46-.5,1.02-.74,1.72-.74.15,0,.28.02.43.04l.02-2.24c-.13-.02-.33-.06-.54-.06-1.11,0-2.07.7-2.35,1.69l-.09-1.43h-2.48l-.02,9.43ZM120.9,172.09l7,.02c0-2.8-1.26-5.76-4.78-5.76s-4.74,2.87-4.74,5.02c0,3.13,2.07,5.07,4.72,5.07s4.24-1.43,4.63-3.07l-2.55-.17c-.48.87-1.15,1.22-1.96,1.22-1.2,0-2.18-.81-2.31-2.33ZM121.01,170.26c.15-1.15,1.09-1.93,2.05-1.93,1.04,0,1.93.7,2.09,1.93h-4.15ZM114,175.15l.11.96h2.5v-13.11h-2.56v4.76c-.44-.74-1.52-1.37-2.72-1.37-2.09,0-4.18,1.76-4.18,5.06,0,1.5.48,2.74,1.22,3.61.78.94,1.76,1.37,2.87,1.37s2.09-.44,2.76-1.28ZM112,174.24c-1.2,0-2.24-.85-2.24-2.85,0-2.24,1.09-3.04,2.13-3.04s2.15.8,2.15,2.96-1.09,2.91-2.04,2.93ZM102.81,175.03c.06.37.18.78.33,1.07h2.56c-.15-.13-.39-.56-.39-1.33l-.04-4.82c-.02-.83-.07-1.07-.13-1.28-.39-1.3-1.44-2.33-4-2.33-2.93,0-4.09,1.5-4.09,3.15l2.24.04c.09-.63.18-.76.39-.95.24-.22.72-.44,1.48-.44,1.18,0,1.63.63,1.63,1.07s-.28.76-.96.89l-2.56.44c-1.91.33-2.8,1.57-2.8,2.81,0,1.63,1.26,3.02,3.54,3.02,1.57,0,2.44-.63,2.8-1.35ZM102.81,171.09v1.41c-.06,1.19-.87,2-2.24,2-1.07,0-1.57-.63-1.57-1.18,0-.45.22-1.02,1.72-1.39l1.09-.3c.43-.09.76-.3,1-.54ZM101.29,165.55l2.55.02v-2.57h-2.54l-.02,2.56ZM98,165.55h2.54l.02-2.57h-2.54l-.02,2.57ZM92.43,176.11h2.54v-13.11h-2.52l-.02,13.11ZM81.87,176.11h2.54l-.02-3.09,1.07-1.06,2.59,4.15h3.09l-3.87-5.8,3.37-3.63h-2.98l-3.26,3.59-.02-7.28h-2.54l.02,13.11ZM71.33,172.96c.06,1.78,1.56,3.48,4.44,3.48s4.2-1.57,4.2-3.26c0-.59-.2-1.19-.57-1.65-.35-.44-.81-.78-1.92-1.04l-2.69-.63c-.57-.15-.8-.5-.8-.83,0-.37.33-.95,1.56-.95,1.33,0,1.93.7,1.94,1.46l2.24-.04c-.06-.94-.56-1.89-1.35-2.48-.56-.39-1.43-.72-2.8-.72-2.7,0-3.91,1.46-3.91,3.07,0,.76.22,1.3.65,1.78.35.35.76.65,1.82.87l2.04.46c1.17.26,1.31.63,1.31,1.07,0,.41-.39,1.05-1.78,1.05s-2-.7-2.07-1.68l-2.32.02ZM66.95,175.15l.11.96h2.5v-13.11h-2.55v4.76c-.45-.74-1.52-1.37-2.72-1.37-2.09,0-4.19,1.76-4.19,5.06,0,1.5.48,2.74,1.22,3.61.78.94,1.76,1.37,2.87,1.37s2.09-.44,2.76-1.28ZM64.95,174.24c-1.2,0-2.24-.85-2.24-2.85,0-2.24,1.09-3.04,2.13-3.04s2.15.8,2.15,2.96-1.09,2.91-2.04,2.93ZM55.71,175.15l.11.96h2.5v-13.11h-2.55v4.76c-.45-.74-1.52-1.37-2.72-1.37-2.09,0-4.18,1.76-4.18,5.06,0,1.5.48,2.74,1.22,3.61.78.94,1.76,1.37,2.87,1.37s2.09-.44,2.76-1.28ZM53.71,174.24c-1.2,0-2.24-.85-2.24-2.85,0-2.24,1.09-3.04,2.13-3.04s2.15.8,2.15,2.96-1.09,2.91-2.04,2.93ZM39.66,177.18v1.98h1.87c2.2,0,2.72-1.74,2.93-2.31l3.59-10.17h-2.7l-1.87,5.83-1.98-5.83h-2.74l2.92,7.94c.19.52.26.87.26,1.3,0,.76-.43,1.28-1.52,1.26h-.76ZM28.45,176.11h2.54l-.02-3.09,1.07-1.06,2.59,4.15h3.09l-3.87-5.8,3.37-3.63h-2.98l-3.26,3.59-.02-7.28h-2.54l.02,13.11Z"/>
</svg>