<svg xmlns="http://www.w3.org/2000/svg" viewBox="0 0 595.28 850.36"><defs><style>.a{fill:#e5e8eb;}.a,.b,.c{fill-rule:evenodd;}.b{fill:#000100;}.c{fill:#1e3b72;}</style></defs><title>M010_C</title><polyline class="a" points="0 850.36 595.28 850.36 595.28 0 0 0 0 850.36"/><path class="b" d="M192.87,625.82l7-22,6.55,22H192.87Zm218.37,15,0.43,3.74h9.79l-0.07-51h-9.86v18.5c-1.8-2.88-5.9-5.33-10.58-5.33-8.2,0-16.27,6.84-16.27,19.66a21.39,21.39,0,0,0,4.75,14,13.77,13.77,0,0,0,11.16,5.33A13.05,13.05,0,0,0,411.23,640.86Zm-7.78-3.53c-4.61,0-8.71-3.31-8.71-11.09,0-8.71,4.25-11.81,8.35-11.81s8.28,3.1,8.28,11.52C411.38,634,407.13,637.26,403.46,637.34Zm-58.53,7.27h9.86l0.07-20.52c0-2.88.58-4.25,1.37-5.4a7.4,7.4,0,0,1,6-3.09c3.38,0,5.83,2.23,5.83,6.33v22.68h9.86V618.76c0-6.84-5-12.1-12.67-12.1-5.26,0-8.93,2.81-10.15,5.69L354.64,608,345,608Zm-18.36-4.18a14.9,14.9,0,0,0,1.29,4.18h10c-0.58-.51-1.59-2.16-1.59-5.18l-0.07-18.72a20.65,20.65,0,0,0-.58-5c-1.44-5-5.54-9.07-15.48-9.07-11.45,0-15.91,5.83-15.91,12.24l8.64,0.14c0.43-2.45.79-3,1.58-3.67s2.74-1.73,5.69-1.73c4.61,0,6.41,2.45,6.41,4.18s-1.16,3-3.82,3.46L312.89,623C305.47,624.3,302,629.13,302,634c0,6.34,4.9,11.74,13.75,11.74C321.88,645.69,325.2,643.24,326.57,640.43Zm0.07-15.34-0.07,5.47c-0.22,4.61-3.31,7.78-8.71,7.78-4.1,0-6.12-2.45-6.12-4.61,0-1.73.87-4,6.7-5.4l4.32-1.15A8.11,8.11,0,0,0,326.64,625.1Zm-5.9-21.53,9.86,0.07,0.07-10h-9.93v9.94Zm-12.89,0h9.86l0.07-10h-9.86Zm-29.66,41H288L300.43,608h-9.94l-7.34,24.12-7.28-24h-10Zm-50,0h9.86l0.07-20.52c0-2.88.58-4.25,1.37-5.4a7.4,7.4,0,0,1,6-3.09c3.38,0,5.83,2.23,5.83,6.33v22.68h9.86V618.76c0-6.84-5-12.1-12.67-12.1-5.26,0-8.93,2.81-10.15,5.69L237.94,608l-9.65-.07Zm-52,0h10.65l3.46-10.73h18.43l3.31,10.73h10.8l-17.49-51h-11.3Z" transform="translate(-1.22 -0.69)"/><path class="b" d="M70.82,719.45C71,726.36,76.87,733,88.1,733s16.41-6.12,16.41-12.67a10.34,10.34,0,0,0-2.23-6.41c-1.36-1.73-3.17-3-7.48-4l-10.51-2.45c-2.23-.58-3.09-1.94-3.09-3.24s1.29-3.67,6.05-3.67c5.25,0,7.56,2.74,7.63,5.69l8.71-.14a13.25,13.25,0,0,0-5.26-9.65c-2.16-1.51-5.54-2.81-10.94-2.81-10.51,0-15.19,5.69-15.19,12a9.7,9.7,0,0,0,2.52,6.91c1.37,1.37,3,2.52,7.05,3.38l7.92,1.8c4.61,1,5.18,2.45,5.18,4.18s-1.51,4.1-7,4.1c-5.18,0-7.78-2.73-8.06-6.55Zm434.65,12.24h9.86l0.07-16.27c0-5.47,1.29-8,3-9.72a8.62,8.62,0,0,1,6.7-2.88,12.51,12.51,0,0,1,1.66.14l0.07-8.71a14.1,14.1,0,0,0-2.09-.22,9.38,9.38,0,0,0-9.14,6.55L515.19,695h-9.65Zm-34.13-15.62,27.22,0.07c0-10.87-4.9-22.39-18.58-22.39-14,0-18.43,11.16-18.43,19.51,0,12.17,8.06,19.73,18.36,19.73s16.49-5.54,18-12l-9.93-.65c-1.87,3.38-4.46,4.75-7.63,4.75C475.66,725.14,471.85,722,471.34,716.07Zm0.43-7.13a8.38,8.38,0,0,1,8-7.49c4,0,7.49,2.74,8.14,7.49H471.78Zm-27.29,19,0.43,3.74h9.72v-51H444.7v18.5c-1.73-2.88-5.9-5.33-10.58-5.33-8.13,0-16.27,6.84-16.27,19.66a21.39,21.39,0,0,0,4.75,14,13.88,13.88,0,0,0,11.16,5.33A13.2,13.2,0,0,0,444.49,727.95Zm-7.78-3.53c-4.68,0-8.71-3.31-8.71-11.09,0-8.71,4.25-11.8,8.28-11.8s8.35,3.09,8.35,11.52C444.63,721.11,440.38,724.35,436.71,724.42ZM401,727.51a15,15,0,0,0,1.29,4.18h9.94c-0.58-.51-1.51-2.16-1.51-5.18l-0.14-18.72a18.56,18.56,0,0,0-.51-5c-1.51-5-5.61-9.07-15.55-9.07-11.38,0-15.91,5.83-15.91,12.24l8.71,0.14c0.36-2.45.72-3,1.51-3.67s2.81-1.73,5.76-1.73c4.61,0,6.34,2.45,6.34,4.18s-1.08,3-3.74,3.46l-9.94,1.73c-7.42,1.29-10.87,6.12-10.87,10.94,0,6.34,4.9,11.74,13.75,11.74C396.25,732.77,399.63,730.32,401,727.51Zm0-15.34v5.47c-0.21,4.61-3.38,7.78-8.71,7.78-4.18,0-6.12-2.45-6.12-4.61,0-1.73.86-4,6.7-5.4l4.25-1.15A7.79,7.79,0,0,0,401,712.18Zm-5.9-21.53,9.93,0.07v-10h-9.86Zm-12.82,0h9.86l0.07-10h-9.86Zm-21.67,41h9.86v-51h-9.8Zm-41,0h9.86l-0.07-12,4.18-4.11,10.08,16.13h12l-15-22.54L353.7,695H342.11l-12.67,14-0.07-28.29H319.5Zm-41-12.24c0.22,6.91,6.05,13.54,17.28,13.54s16.34-6.12,16.34-12.67a10.33,10.33,0,0,0-2.23-6.41c-1.37-1.73-3.17-3-7.48-4l-10.44-2.45c-2.23-.58-3.1-1.94-3.1-3.24s1.29-3.67,6-3.67c5.18,0,7.49,2.74,7.56,5.69l8.71-.14a13.25,13.25,0,0,0-5.26-9.65c-2.16-1.51-5.54-2.81-10.87-2.81-10.51,0-15.19,5.69-15.19,12a9.7,9.7,0,0,0,2.52,6.91c1.37,1.37,3,2.52,7.06,3.38l7.92,1.8c4.53,1,5.11,2.45,5.11,4.18s-1.51,4.1-6.91,4.1c-5.18,0-7.78-2.73-8.06-6.55Zm-17.06,8.5,0.43,3.74h9.72v-51h-9.93v18.5c-1.73-2.88-5.91-5.33-10.58-5.33-8.13,0-16.27,6.84-16.27,19.66a21.41,21.41,0,0,0,4.75,14,13.88,13.88,0,0,0,11.16,5.33A13.2,13.2,0,0,0,261.54,727.95Zm-7.78-3.53c-4.68,0-8.71-3.31-8.71-11.09,0-8.71,4.25-11.8,8.28-11.8s8.35,3.09,8.35,11.52C261.69,721.11,257.44,724.35,253.77,724.42Zm-35.93,3.53,0.43,3.74H228v-51h-9.93v18.5c-1.73-2.88-5.91-5.33-10.58-5.33-8.13,0-16.27,6.84-16.27,19.66a21.41,21.41,0,0,0,4.75,14,13.88,13.88,0,0,0,11.16,5.33A13.2,13.2,0,0,0,217.84,727.95Zm-7.78-3.53c-4.68,0-8.71-3.31-8.71-11.09,0-8.71,4.25-11.8,8.28-11.8S218,704.62,218,713C218,721.11,213.74,724.35,210.06,724.42Zm-54.64,11.45v7.7h7.27c8.57,0,10.58-6.77,11.38-9L188,695H177.52l-7.27,22.68L162.55,695H151.89l11.37,30.89a13.93,13.93,0,0,1,1,5c0,3-1.65,5-5.9,4.9h-3Zm-43.56-4.18h9.86l-0.07-12,4.18-4.11,10.08,16.13h12l-15-22.54L146,695H134.4l-12.67,14-0.07-28.29h-9.86Z" transform="translate(-1.22 -0.69)"/><path class="c" d="M383.16,493.45L345.87,256.18a38.31,38.31,0,0,0,.19-4.76l4.18-92.28h0.19l39.2,113,33.12-8.94c-0.2-.56-0.59-1.13-0.77-1.71h0.18L375.55,125.84c-2.86-12.94-14.84-22.46-29.49-22.46H324.94c0-8.56-6.47-15.39-14.46-15.39h-6.84V258.28H294.5V88h-7c-8,0-14.46,6.84-14.46,15.39H251.68c-14.46,0-26.45,9.52-29.3,22.28L176,260.94a5.81,5.81,0,0,0-.95,1.9l33.29,9,38.44-111.12L254,253.9s-32.55,200.54-38.83,239.17l42.43,7.43,3.24,0.19,39-198.06,37.28,198.83ZM316.2,150H340v10.27H316.2V150ZM36.65,298.33c0,144.79,117.43,262.21,262.22,262.21S561,443.11,561,298.33,443.65,36.18,298.86,36.18,36.65,153.54,36.65,298.33Z" transform="translate(-1.22 -0.69)"/></svg>