<svg xmlns="http://www.w3.org/2000/svg" viewBox="0 0 595.28 850.36"><defs><style>.a{fill:#e5e8eb;}.a,.b,.c{fill-rule:evenodd;}.b{fill:#000100;}.c{fill:#1e3b72;}</style></defs><title>M011_C</title><polyline class="a" points="0 850.36 595.28 850.36 595.28 0 0 0 0 850.36"/><path class="b" d="M213.57,644.61h10.51V602.13h15.41v-8.5h-41.4v8.5h15.48v42.48Zm174.52-4.18a11.57,11.57,0,0,0,1.15,4.18h10.08a5.48,5.48,0,0,1-1.66-3.81V620.71c0-8.78-4.53-14-16.49-14-11.09,0-15.69,6-15.48,12.24l8.71,0.14c0-2.74,2-5.33,7.05-5.33,4.83,0,6.41,2.38,6.41,4.1,0,1.51-.93,2.88-3.6,3.38l-5.62.94c-8.06,1.44-10.22,3-11.8,4.32a10.19,10.19,0,0,0-3.39,7.63c0,6,4.75,11.52,14,11.52C382.83,645.62,386,643.82,388.09,640.43Zm0.07-15.12-0.07,4.61c0,5.18-3.24,8.42-8.86,8.42-4.1,0-6.12-2.45-6.12-4.68,0-1.73.58-3.67,6.84-5.4l4.25-1.15A12.11,12.11,0,0,0,388.16,625.32Zm-31,19.29v-7.56h-3.67a3.68,3.68,0,0,1-2.88-1.37,5.86,5.86,0,0,1-.43-2.88V614.66h6.62V608h-6.62l-0.07-11.59h-9.79V608h-5.18v6.77l5.18-.07v18.94c0,8.28,3.38,11,8.85,11h8Zm-27.29,0v-7.56h-3.67a3.7,3.7,0,0,1-2.88-1.37,5.86,5.86,0,0,1-.43-2.88V614.66h6.63V608h-6.63l-0.07-11.59h-9.8V608h-5.18v6.77l5.18-.07v18.94c0,8.28,3.39,11,8.86,11h8Zm-37-4.18a13,13,0,0,0,1.29,4.18h9.87c-0.58-.51-1.51-2.16-1.51-5.18l-0.14-18.72a18.34,18.34,0,0,0-.51-5c-1.51-5-5.54-9.07-15.48-9.07-11.38,0-15.91,5.83-15.91,12.24l8.71,0.14c0.36-2.45.72-3,1.51-3.67s2.81-1.73,5.76-1.73c4.61,0,6.33,2.45,6.33,4.18s-1.08,3-3.74,3.46L279.15,623c-7.42,1.29-10.87,6.12-10.87,10.95,0,6.33,4.9,11.74,13.75,11.74C288.16,645.69,291.54,643.24,292.91,640.43Zm0-15.34v5.47c-0.29,4.61-3.38,7.78-8.71,7.78-4.18,0-6.12-2.45-6.12-4.61,0-1.73.86-4,6.7-5.4l4.25-1.15A8.13,8.13,0,0,0,292.91,625.1ZM287,603.57l9.94,0.07v-10h-9.87Zm-12.82,0h9.87l0.07-10h-9.86Zm-29.73,41h9.72L266.7,608h-10l-7.34,24.12-7.27-24h-10Z" transform="translate(-1.12 -0.69)"/><path class="b" d="M143,731.69h9.8l0.07-20.16c0-6,3.24-8.78,7.34-8.78,3.46,0,5.9,2,5.9,6.62L166,731.69h9.86V706.42c0-4.46-1.51-7.49-3.89-9.58a14,14,0,0,0-8.57-3.1c-5.33,0-9,2.52-10.65,5.9V680.72H143v51Zm300.16-4.18a11.48,11.48,0,0,0,1.22,4.18h10a6.21,6.21,0,0,1-1.66-3.81V707.79c0-8.78-4.53-14-16.49-14-11.09,0-15.69,6-15.48,12.24l8.71,0.14c0-2.74,2-5.33,7.05-5.33,4.83,0,6.48,2.38,6.48,4.1,0,1.51-.94,2.88-3.6,3.38l-5.69.94c-8.06,1.44-10.22,3-11.81,4.32a10.12,10.12,0,0,0-3.31,7.63c0,6,4.75,11.52,14,11.52C438,732.7,441.07,730.9,443.16,727.52Zm0.07-15.12L443.16,717c0,5.18-3.24,8.42-8.86,8.42-4.1,0-6.12-2.45-6.12-4.68,0-1.73.65-3.67,6.84-5.4l4.25-1.15A12.09,12.09,0,0,0,443.23,712.4Zm-64.15,19.29h9.86V711.17c0-2.88.58-4.25,1.37-5.4a7.64,7.64,0,0,1,6-3.09c3.39,0,5.83,2.23,5.83,6.33v22.68H412V705.85c0-6.84-5-12.1-12.6-12.1-5.26,0-8.93,2.81-10.15,5.69l-0.43-4.32-9.65-.07Zm-26.64,0h9.86V715.42c0-5.47,1.37-8,3-9.72a8.72,8.72,0,0,1,6.7-2.88,12,12,0,0,1,1.65.14l0.07-8.71a14.07,14.07,0,0,0-2.09-.22,9.45,9.45,0,0,0-9.14,6.55L362.16,695h-9.72v36.65Zm-34.2-15.62,27.22,0.07c0-10.87-4.9-22.39-18.58-22.39-14,0-18.36,11.16-18.36,19.51,0,12.17,8.06,19.73,18.29,19.73s16.49-5.55,18-11.95l-9.94-.65c-1.87,3.38-4.39,4.75-7.63,4.75C322.56,725.14,318.75,722,318.24,716.07Zm0.43-7.13a8.39,8.39,0,0,1,8.06-7.49c4,0,7.42,2.74,8.13,7.49h-16.2Zm-27.22,19,0.43,3.74h9.65v-51h-9.79v18.5c-1.8-2.88-5.9-5.33-10.58-5.33-8.21,0-16.27,6.84-16.27,19.66a21.38,21.38,0,0,0,4.68,14,13.92,13.92,0,0,0,11.23,5.33A13.16,13.16,0,0,0,291.46,727.95Zm-7.78-3.53c-4.61,0-8.71-3.31-8.71-11.09,0-8.71,4.25-11.81,8.35-11.81s8.28,3.1,8.28,11.52C291.6,721.11,287.36,724.35,283.68,724.42Zm-58.53,7.27H235V711.17c0-2.88.58-4.25,1.37-5.4a7.65,7.65,0,0,1,6.05-3.09c3.38,0,5.83,2.23,5.83,6.33v22.68h9.79V705.85c0-6.84-5-12.1-12.6-12.1-5.25,0-8.93,2.81-10.15,5.69l-0.43-4.32-9.65-.07Zm-18.36-4.18a15,15,0,0,0,1.3,4.18H218c-0.51-.51-1.51-2.16-1.51-5.18l-0.14-18.72a18.36,18.36,0,0,0-.51-5c-1.51-5-5.54-9.07-15.55-9.07-11.37,0-15.91,5.83-15.91,12.24l8.71,0.14c0.36-2.45.79-3,1.59-3.67s2.73-1.73,5.69-1.73c4.61,0,6.33,2.45,6.33,4.18s-1.08,3-3.74,3.46l-9.87,1.73c-7.49,1.29-10.87,6.12-10.87,10.95,0,6.33,4.82,11.74,13.75,11.74C202,732.77,205.42,730.32,206.79,727.52Zm0.07-15.34-0.07,5.47c-0.21,4.61-3.31,7.78-8.71,7.78-4.1,0-6.12-2.45-6.12-4.61,0-1.73.86-4,6.7-5.4l4.25-1.15A8.37,8.37,0,0,0,206.86,712.18ZM201,690.65l9.86,0.07,0.07-10H201v9.94Zm-12.89,0h9.86l0.07-10h-9.86Z" transform="translate(-1.12 -0.69)"/><path class="c" d="M326.4,287.05a4.46,4.46,0,1,0,4.46-4.46A4.48,4.48,0,0,0,326.4,287.05Zm-41.26-8.35a4.46,4.46,0,1,0,4.46-4.46A4.49,4.49,0,0,0,285.14,278.7ZM360,260.77a4.46,4.46,0,1,0,4.46-4.46A4.49,4.49,0,0,0,360,260.77Zm-33.62,6.84a4.46,4.46,0,1,0,4.46-4.46A4.49,4.49,0,0,0,326.4,267.61Zm-33.62-6.84a4.46,4.46,0,1,0,4.46-4.46A4.49,4.49,0,0,0,292.78,260.77Zm59.61-18a4.46,4.46,0,1,0,4.46-4.46A4.48,4.48,0,0,0,352.39,242.77Zm-26,5.33a4.46,4.46,0,1,0,4.46-4.46A4.48,4.48,0,0,0,326.4,248.1Zm-26-5.26a4.46,4.46,0,1,0,4.46-4.46A4.48,4.48,0,0,0,300.41,242.84Zm44.42-18a4.46,4.46,0,1,0,4.46-4.46A4.49,4.49,0,0,0,344.83,224.85Zm-18.43,3.74a4.46,4.46,0,1,0,4.46-4.46A4.48,4.48,0,0,0,326.4,228.59ZM308,224.85a4.46,4.46,0,1,0,4.46-4.46A4.49,4.49,0,0,0,308,224.85Zm59.64,53.84a4.46,4.46,0,1,0,4.46-4.46A4.49,4.49,0,0,0,367.61,278.68Zm1.19,73.55,85.44-45.18c12-6.35,21.95,11.25,10.28,18.23L381.42,375c-2.8,1.68-.38,5.85,2.47,4.35l77-40.45c12-6.3,21.9,11.27,10.24,18.24l-84,50.19a2.5,2.5,0,0,0,2.43,4.36L449,381.21c10.7-5.5,22.27,8.63,12.07,16.83C435.6,418.49,403.81,430.41,377,449c-2.09,1.45-3.93,3.22-5.95,4.76a167.74,167.74,0,0,1-24.51,15.81c-2.26,1.17-8.79,4.23-13.21,6.3-22.09,10.34-41.75,9.3-62.69,18.46a113.2,113.2,0,0,0-10.2,5.09L246.89,507l-35.16-62.41c-25.18-3.69-40.52-14.72-67-14.17h-15.6V336.79h7.63a52.23,52.23,0,0,0,5.57-.29c15.67-1.67,28.49-9.19,38.39-21.34,5.56-6.82,12.94-11.75,20.66-15.87l64.07-34.17,1-.45c4.53-2,9.46.73,11.16,5.2,3,7.77-10.38,24.94-16.66,28.89-2.24,1.41-4.34,3-6.68,4.28l-20,10.66a5,5,0,0,0,2.4,9.46h30.57l17.25-27.06c3.1-4.86,9.81-4.88,13.77-1,3.76,3.65,3,18.17,1.87,22.85l-0.61,2.65-0.84,2.58,53.4,1.93,67.17-34.63c11.93-6.15,21.7,11.13,10.31,18.2l-63.26,39.27A2.5,2.5,0,0,0,368.79,352.23Zm-80.87,8.55a5,5,0,0,1-6.72-7.1l12.19-19.12,1.17-1.93,1.1-2,2.79,0,40.3,1.46Zm-44.18-.69c-14.46,25.38-5.21,42.24-36.2,61.59l-6.63,3.76,6,10.69-4.6-1c-21.62-5.63-34.08-12.4-57.67-12.19h-8.09V344.27h0.12l3-.07,3-.19a62.62,62.62,0,0,0,39.53-19.33c2.21-2.33,4.24-4.82,6.55-7a72.79,72.79,0,0,1,16.11-11.75l64-34.15a1.12,1.12,0,0,1,1.58,1.36l-0.83,2.28a43.42,43.42,0,0,1-3.27,6.4c-10.49,18.06-31.29,17.79-40.43,29.81a8.25,8.25,0,0,0-1.15,2.38,12.64,12.64,0,0,0,11.84,16.72h25.79Zm97.07-190.7,68.79,1.48V164h31.85v48.72H409.6v-10l-56-1.22a7.53,7.53,0,0,0-7.66,7.51v6.48h-30V193.74A24.35,24.35,0,0,1,340.81,169.4Zm100.64-31.62H409.6V156.5h31.85V137.77ZM36.54,298.32c0,144.79,117.43,262.21,262.21,262.21S560.9,443.11,560.9,298.32,443.55,36.18,298.75,36.18,36.54,153.53,36.54,298.32Z" transform="translate(-1.12 -0.69)"/></svg>