<?xml version="1.0" encoding="UTF-8"?>
<svg id="Lager_1" data-name="Lager 1" xmlns="http://www.w3.org/2000/svg" viewBox="0 0 153.09 218.69">
  <defs>
    <style>
      .cls-1 {
        fill: #1a4080;
      }

      .cls-1, .cls-2 {
        fill-rule: evenodd;
      }

      .cls-2 {
        fill: #fff;
      }
    </style>
  </defs>
  <polyline class="cls-2" points="0 218.69 153.09 218.69 153.09 0 0 0 0 218.69"/>
  <path class="cls-1" d="M82.83,62.73c0,.55.46,1,1.01,1s1.01-.45,1.01-1-.46-1-1.01-1-1.01.45-1.01,1ZM73.5,60.84c0,.55.46,1,1.01,1s1.01-.45,1.01-1-.46-1-1.01-1-1.01.45-1.01,1ZM90.44,56.82c0,.55.46,1,1.01,1s1.01-.45,1.01-1-.46-1-1.01-1-1.01.45-1.01,1ZM82.83,58.36c0,.55.46,1,1.01,1s1.01-.45,1.01-1-.46-1-1.01-1-1.01.45-1.01,1ZM75.22,56.82c0,.55.46,1,1.01,1s1.01-.45,1.01-1-.46-1-1.01-1-1.01.45-1.01,1ZM88.7,52.8c0,.55.46,1,1.01,1s1.01-.45,1.01-1-.45-1-1.01-1-1.01.45-1.01,1ZM82.83,54.01c0,.55.46,1,1.01,1s1.01-.45,1.01-1-.46-1-1.01-1-1.01.45-1.01,1ZM76.96,52.82c0,.55.46,1,1.01,1s1.01-.45,1.01-1-.45-1-1.01-1-1.01.45-1.01,1ZM87,48.82c0,.55.46,1,1.01,1s1.01-.45,1.01-1-.46-1-1.01-1-1.01.45-1.01,1ZM82.83,49.64c0,.55.46,1,1.01,1s1.01-.45,1.01-1-.46-1-1.01-1-1.01.45-1.01,1ZM78.67,48.82c0,.55.46,1,1.01,1s1.01-.45,1.01-1-.46-1-1.01-1-1.01.45-1.01,1ZM92.16,60.84c0,.55.46,1,1.01,1s1.01-.45,1.01-1-.46-1-1.01-1-1.01.45-1.01,1ZM92.42,77.28l19.32-10.1c2.72-1.42,4.96,2.51,2.32,4.07l-18.79,11.11c-.63.38-.09,1.31.56.97l17.41-9.04c2.72-1.41,4.95,2.52,2.32,4.08l-18.99,11.22c-.63.37-.1,1.3.55.97l13.42-6.81c2.42-1.23,5.04,1.93,2.73,3.76-5.75,4.57-12.94,7.23-19.01,11.39-.47.32-.89.72-1.34,1.06-1.75,1.32-3.59,2.53-5.54,3.53-.51.26-1.99.95-2.98,1.41-5,2.31-9.44,2.08-14.18,4.12-.79.34-1.56.72-2.3,1.14l-3.06,1.7-7.95-13.95c-5.69-.83-9.16-3.29-15.16-3.17h-3.52v-20.93h1.72c.42,0,.84-.02,1.26-.06,3.54-.37,6.44-2.05,8.68-4.77,1.26-1.53,2.93-2.63,4.67-3.55l14.49-7.64.23-.1c1.02-.45,2.14.16,2.52,1.16.67,1.74-2.35,5.58-3.77,6.46-.51.31-.98.68-1.51.96l-4.52,2.38c-1.05.55-.64,2.11.54,2.11h6.91l3.9-6.05c.7-1.09,2.22-1.09,3.11-.23.85.82.69,4.06.42,5.11l-.14.59-.19.58,12.07.43,15.19-7.74c2.69-1.37,4.91,2.49,2.33,4.07l-14.3,8.77c-.62.38-.07,1.3.57.97ZM74.13,79.19c-1.03.58-2.16-.6-1.52-1.59l2.76-4.27.26-.43.25-.44h.63s9.11.32,9.11.32l-11.49,6.41ZM64.14,79.03c-3.27,5.67-1.18,9.44-8.18,13.77l-1.5.84,1.36,2.39-1.04-.22c-4.89-1.26-7.71-2.77-13.04-2.72h-1.83v-17.58h.71s.67-.06.67-.06c3.41-.33,6.58-1.85,8.94-4.32.5-.52.96-1.08,1.48-1.58,1.07-1.02,2.33-1.93,3.64-2.63l14.48-7.63c.2-.11.44.09.36.3l-.19.51c-.17.47-.47.97-.74,1.43-2.37,4.04-7.07,3.98-9.14,6.66-.12.16-.2.34-.26.53-.55,1.6.4,3.31,2.08,3.67.2.04.4.07.6.07h5.83l-4.23,6.58ZM86.08,36.42l15.55.33v-1.54h7.2v10.89h-7.2v-2.23l-12.67-.27c-.95-.02-1.73.74-1.73,1.68v1.45h-6.78v-4.86c0-3.05,2.54-5.51,5.63-5.44ZM108.84,29.35h-7.2v4.19h7.2v-4.19ZM17.28,65.24c0,32.36,26.55,58.6,59.29,58.6s59.27-26.24,59.27-58.6S109.3,6.65,76.57,6.65s-59.29,26.23-59.29,58.59Z"/>
  <polyline class="cls-1" points="10.07 133.73 143.06 133.73 143.06 208.97 10.07 208.97 10.07 133.73"/>
  <path class="cls-2" d="M54.64,155.12h2.7v-10.92h3.96v-2.19h-10.65v2.19h3.98v10.92ZM99.52,154.05c.05.46.15.8.3,1.07h2.59c-.33-.39-.43-.67-.43-.98v-5.17c0-2.26-1.17-3.61-4.24-3.61-2.85,0-4.04,1.55-3.98,3.15l2.24.04c0-.7.52-1.37,1.81-1.37s1.65.61,1.65,1.06c0,.39-.24.74-.93.87l-1.44.24c-2.07.37-2.63.76-3.04,1.11-.56.5-.87,1.2-.87,1.96,0,1.56,1.22,2.96,3.61,2.96,1.37,0,2.18-.46,2.72-1.33ZM99.54,150.16l-.02,1.18c0,1.33-.83,2.17-2.28,2.17-1.05,0-1.57-.63-1.57-1.2,0-.44.15-.94,1.76-1.39l1.09-.3c.48-.13.81-.31,1.02-.46ZM91.57,155.12v-1.94h-.94c-.32,0-.61-.17-.74-.35-.04-.07-.11-.22-.11-.74v-4.67h1.7v-1.72h-1.7l-.02-2.98h-2.52v2.98h-1.33v1.74l1.33-.02v4.87c0,2.13.87,2.83,2.28,2.83h2.06ZM84.56,155.12v-1.94h-.94c-.31,0-.61-.17-.74-.35-.04-.07-.11-.22-.11-.74v-4.67h1.7v-1.72h-1.7l-.02-2.98h-2.52v2.98h-1.33v1.74l1.33-.02v4.87c0,2.13.87,2.83,2.28,2.83h2.06ZM75.04,154.05c.06.37.17.78.33,1.07h2.54c-.15-.13-.39-.56-.39-1.33l-.04-4.81c-.02-.83-.07-1.07-.13-1.28-.39-1.3-1.43-2.33-3.98-2.33-2.93,0-4.09,1.5-4.09,3.15l2.24.04c.09-.63.19-.76.39-.94.24-.22.72-.44,1.48-.44,1.19,0,1.63.63,1.63,1.07s-.28.76-.96.89l-2.56.44c-1.91.33-2.8,1.57-2.8,2.81,0,1.63,1.26,3.02,3.54,3.02,1.57,0,2.44-.63,2.8-1.35ZM75.04,150.1v1.41c-.07,1.18-.87,2-2.24,2-1.07,0-1.57-.63-1.57-1.19,0-.44.22-1.02,1.72-1.39l1.09-.3c.41-.09.76-.3,1-.54ZM73.52,144.57l2.56.02v-2.57h-2.54l-.02,2.56ZM70.23,144.57h2.54l.02-2.57h-2.54l-.02,2.57ZM62.58,155.12h2.5l3.22-9.42h-2.57l-1.89,6.2-1.87-6.18h-2.57l3.19,9.41Z"/>
  <path class="cls-2" d="M36.49,177.46h2.52l.02-5.18c0-1.54.83-2.26,1.89-2.26.89,0,1.52.52,1.52,1.7l-.02,5.74h2.54v-6.5c0-1.15-.39-1.93-1-2.46-.55-.46-1.39-.8-2.2-.8-1.37,0-2.31.65-2.74,1.52v-4.87h-2.52v13.11ZM113.68,176.39c.05.46.17.8.31,1.07h2.57c-.31-.39-.41-.67-.43-.98v-5.17c0-2.26-1.17-3.61-4.24-3.61-2.85,0-4.04,1.56-3.98,3.15l2.24.04c0-.7.52-1.37,1.81-1.37s1.67.61,1.67,1.06c0,.39-.24.74-.93.87l-1.46.24c-2.07.37-2.63.76-3.04,1.11-.56.5-.85,1.2-.85,1.96,0,1.56,1.22,2.96,3.59,2.96,1.39,0,2.19-.46,2.72-1.33ZM113.7,172.5l-.02,1.18c0,1.33-.83,2.17-2.28,2.17-1.05,0-1.57-.63-1.57-1.2,0-.44.17-.94,1.76-1.39l1.09-.3c.48-.13.81-.32,1.02-.46ZM97.2,177.46h2.54v-5.28c0-.74.15-1.09.35-1.39.35-.48.94-.8,1.55-.8.87,0,1.5.57,1.5,1.63v5.83h2.52v-6.65c0-1.76-1.3-3.11-3.24-3.11-1.35,0-2.3.72-2.61,1.46l-.11-1.11-2.48-.02-.02,9.42ZM90.35,177.46h2.54v-4.18c0-1.41.35-2.06.76-2.5.48-.5,1.02-.74,1.72-.74.15,0,.3.02.42.04l.02-2.24c-.13-.02-.33-.06-.54-.06-1.11,0-2.06.7-2.35,1.69l-.07-1.43h-2.5v9.42ZM81.56,173.44l7,.02c0-2.8-1.26-5.76-4.78-5.76s-4.72,2.87-4.72,5.02c0,3.13,2.07,5.07,4.7,5.07s4.24-1.43,4.63-3.07l-2.56-.17c-.48.87-1.13,1.22-1.96,1.22-1.2,0-2.19-.81-2.31-2.33ZM81.67,171.61c.15-1.15,1.09-1.93,2.07-1.93s1.91.7,2.09,1.93h-4.17ZM74.67,176.5l.11.96h2.48v-13.11h-2.52v4.76c-.46-.74-1.52-1.37-2.72-1.37-2.11,0-4.18,1.76-4.18,5.05,0,1.5.46,2.74,1.2,3.61.78.94,1.76,1.37,2.89,1.37s2.07-.44,2.74-1.28ZM72.67,175.59c-1.18,0-2.24-.85-2.24-2.85,0-2.24,1.09-3.04,2.15-3.04s2.13.8,2.13,2.96-1.09,2.91-2.04,2.92ZM57.61,177.46h2.54v-5.28c0-.74.15-1.09.35-1.39.35-.48.94-.8,1.56-.8.87,0,1.5.57,1.5,1.63v5.83h2.52v-6.65c0-1.76-1.3-3.11-3.24-3.11-1.35,0-2.3.72-2.61,1.46l-.11-1.11-2.48-.02-.02,9.42ZM52.89,176.39c.06.37.19.78.33,1.07h2.55c-.13-.13-.39-.55-.39-1.33l-.04-4.81c-.02-.83-.07-1.07-.13-1.28-.39-1.3-1.43-2.33-4-2.33-2.93,0-4.09,1.5-4.09,3.15l2.24.04c.09-.63.2-.76.41-.94.22-.22.7-.44,1.46-.44,1.19,0,1.63.63,1.63,1.07s-.28.76-.96.89l-2.54.44c-1.93.33-2.79,1.57-2.79,2.81,0,1.63,1.24,3.02,3.54,3.02,1.56,0,2.43-.63,2.78-1.35ZM52.91,172.44l-.02,1.41c-.05,1.19-.85,2-2.24,2-1.05,0-1.57-.63-1.57-1.18,0-.45.22-1.02,1.72-1.39l1.09-.3c.43-.09.76-.3,1.02-.54ZM51.39,166.9l2.54.02.02-2.57h-2.55v2.56ZM48.08,166.9h2.54l.02-2.57h-2.54l-.02,2.57Z"/>
</svg>