<svg xmlns="http://www.w3.org/2000/svg" viewBox="0 0 595.28 850.37"><defs><style>.a{fill:#e5e8eb;}.a,.b,.c{fill-rule:evenodd;}.b{fill:#000100;}.c{fill:#1e3b72;}</style></defs><title>M012_C</title><polyline class="a" points="0 850.37 595.28 850.37 595.28 0 0 0 0 850.37"/><path class="b" d="M192.72,625.82l7-22,6.55,22H192.72Zm218.37,15,0.43,3.74h9.79l-0.07-51h-9.86v18.5c-1.8-2.88-5.91-5.33-10.58-5.33-8.21,0-16.27,6.84-16.27,19.66a21.41,21.41,0,0,0,4.75,14,13.78,13.78,0,0,0,11.16,5.33A13.06,13.06,0,0,0,411.1,640.87Zm-7.78-3.53c-4.61,0-8.71-3.31-8.71-11.09,0-8.71,4.25-11.81,8.35-11.81s8.28,3.1,8.28,11.52C411.24,634,407,637.27,403.32,637.34Zm-58.53,7.27h9.86l0.07-20.52c0-2.88.58-4.25,1.37-5.4a7.39,7.39,0,0,1,6-3.09c3.39,0,5.83,2.23,5.83,6.33v22.68h9.87V618.76c0-6.84-5-12.1-12.67-12.1-5.26,0-8.93,2.81-10.15,5.69L354.5,608l-9.65-.07Zm-18.36-4.18a15.06,15.06,0,0,0,1.29,4.18h10c-0.58-.51-1.58-2.16-1.58-5.18l-0.07-18.72a20.4,20.4,0,0,0-.58-5c-1.44-5-5.55-9.07-15.48-9.07-11.45,0-15.91,5.83-15.91,12.24l8.64,0.14c0.43-2.45.79-3,1.59-3.67s2.73-1.73,5.68-1.73c4.61,0,6.41,2.45,6.41,4.18s-1.15,3-3.81,3.46L312.75,623c-7.42,1.29-10.87,6.12-10.87,10.94,0,6.34,4.9,11.74,13.75,11.74C321.75,645.69,325.06,643.24,326.42,640.43Zm0.07-15.34-0.07,5.47c-0.21,4.61-3.31,7.78-8.71,7.78-4.11,0-6.12-2.45-6.12-4.61,0-1.73.86-4,6.7-5.4l4.32-1.15A8.13,8.13,0,0,0,326.5,625.1Zm-5.91-21.53,9.87,0.07,0.07-10h-9.94v9.94Zm-12.89,0h9.87l0.07-10h-9.86Zm-29.66,41h9.79L300.29,608h-9.93L283,632.08l-7.27-24h-10Zm-50,0h9.86L238,624.09c0-2.88.58-4.25,1.37-5.4a7.39,7.39,0,0,1,6-3.09c3.39,0,5.83,2.23,5.83,6.33v22.68h9.86V618.76c0-6.84-5-12.1-12.67-12.1-5.26,0-8.93,2.81-10.15,5.69L237.79,608l-9.65-.07Zm-52,0h10.66l3.45-10.73h18.43l3.31,10.73h10.8l-17.49-51h-11.3Z" transform="translate(-1.09 -0.68)"/><path class="b" d="M153.84,731.69h9.87v-51h-9.79Zm254.59,2c0.51,3.46,1.51,5.4,3.6,7.34,2.23,2.16,6.33,4.18,13.46,4.18,7.92,0,13-3,15.48-6.12,1.66-2.23,2.59-4.25,2.59-9.72L443.49,695h-9.43l-0.29,4.46c-0.72-1.15-2.66-5.76-10.8-5.76-8.85,0-16.63,7.05-16.63,18.36s7.78,18.44,16.49,18.44c5.83,0,9.5-2.67,10.94-5.47l-0.07,4c0,6.19-2.81,8.78-8.5,8.78-4.25,0-6.26-2.16-6.62-4.46ZM425.2,722c-4.82,0-8.85-3.46-8.85-10.23,0-5.9,4.1-9.65,8.57-9.65s8.64,3.74,8.64,9.94S429.37,722,425.2,722Zm-58.61,9.65h9.87l0.07-20.52c0-2.88.58-4.25,1.37-5.4a7.41,7.41,0,0,1,6-3.1c3.38,0,5.9,2.23,5.9,6.33l-0.07,22.68h9.86V705.85c0-6.84-5-12.1-12.6-12.1-5.25,0-8.93,2.81-10.22,5.69l-0.36-4.32-9.72-.07Zm-18.29-4.18a12.89,12.89,0,0,0,1.3,4.18h9.93c-0.58-.51-1.51-2.16-1.51-5.18l-0.14-18.72a18.53,18.53,0,0,0-.51-5c-1.51-5-5.61-9.07-15.55-9.07-11.45,0-15.91,5.83-15.91,12.24l8.71,0.14c0.36-2.45.72-3,1.51-3.67s2.81-1.73,5.76-1.73c4.61,0,6.34,2.45,6.34,4.18s-1.08,3-3.75,3.46l-9.93,1.73c-7.42,1.29-10.87,6.12-10.87,10.94,0,6.34,4.89,11.74,13.75,11.74C343.55,732.77,346.94,730.32,348.31,727.52Zm0-15.34v5.47c-0.29,4.61-3.38,7.78-8.71,7.78-4.18,0-6.12-2.45-6.12-4.61,0-1.73.86-4,6.7-5.4l4.25-1.15A8.1,8.1,0,0,0,348.31,712.18Zm-7.2-21.38a5.11,5.11,0,1,0-5.33-5.11A5.14,5.14,0,0,0,341.11,690.8ZM341,688.71a3,3,0,0,1-3.17-3,3.21,3.21,0,0,1,3-3.1A3.06,3.06,0,0,1,341,688.71Zm-22.1,43v-7.56h-3.67a3.7,3.7,0,0,1-2.88-1.37,5.85,5.85,0,0,1-.43-2.88V701.74h6.62V695h-6.62l-0.07-11.59h-9.79V695H297v6.77l5.11-.07v18.94c0,8.28,3.38,11,8.86,11h8Zm-61.49-12.24c0.22,6.91,6,13.54,17.28,13.54s16.42-6.12,16.42-12.67a10.36,10.36,0,0,0-2.23-6.41c-1.37-1.73-3.17-3-7.49-4l-10.51-2.45c-2.23-.58-3.17-1.94-3.17-3.24s1.37-3.67,6.12-3.67c5.26,0,7.56,2.74,7.63,5.69l8.64-.14a12.77,12.77,0,0,0-5.26-9.65c-2.09-1.51-5.47-2.81-10.87-2.81-10.51,0-15.19,5.69-15.19,12a9.7,9.7,0,0,0,2.52,6.91c1.3,1.37,3,2.52,7,3.38l8,1.8c4.61,1,5.18,2.45,5.18,4.18s-1.59,4.1-7,4.1c-5.19,0-7.78-2.73-8.06-6.55Zm-17.06,8.5,0.36,3.74h9.79v-51H240.6v18.5c-1.73-2.88-5.91-5.33-10.58-5.33-8.13,0-16.27,6.84-16.27,19.66a21.41,21.41,0,0,0,4.75,14,13.88,13.88,0,0,0,11.16,5.33A13.2,13.2,0,0,0,240.38,727.95Zm-7.78-3.53c-4.68,0-8.71-3.31-8.71-11.09,0-8.71,4.25-11.8,8.28-11.8s8.35,3.09,8.35,11.52C240.52,721.11,236.28,724.35,232.6,724.42Zm-52.2-8.35,27.21,0.07c0-10.87-5-22.39-18.57-22.39-14,0-18.43,11.16-18.43,19.51,0,12.17,8.06,19.73,18.36,19.73s16.49-5.55,18-12l-9.93-.65c-1.87,3.38-4.46,4.75-7.63,4.75C184.73,725.14,180.91,722,180.41,716.07Zm0.43-7.13a8.37,8.37,0,0,1,8-7.49c4,0,7.49,2.74,8.13,7.49H180.84Z" transform="translate(-1.09 -0.68)"/><path class="c" d="M298.72,36.18h0c-144.79,0-262.21,117.35-262.21,262.14S153.94,560.54,298.72,560.54,560.87,443.11,560.87,298.32,443.5,36.18,298.72,36.18Zm6.08,54.67h0a34.88,34.88,0,1,0,34.92,34.92A34.94,34.94,0,0,0,304.8,90.85ZM144.92,455.36l134.64-74.07-1.75-3.2c-3.6-6.59-3-14.43.09-21.14L283.34,345,124.45,432.48Zm369.29-203.2L337.27,349.49l21-45.66,147.54-81.24ZM285.67,175.37a17.88,17.88,0,0,0-15.79,9.6L230.29,260.2l-79.83,29c-22.46,8.15-10.29,41.89,12.21,33.74l86.44-31.32a17.93,17.93,0,0,0,9.79-8.53l3.7-7.07v62.34l-9,14.55,35-19.31,24.26-53.12-6.11-36.54c-0.7-4.94,6.4-6.05,7.37-1.26l6.49,38.87-35.89,78.54c-10,21.8,22.74,36.72,32.7,14.93l38.21-83.56A18,18,0,0,0,357,280.94l-15.33-90.55a18,18,0,0,0-17.65-15H285.67Z" transform="translate(-1.09 -0.68)"/></svg>