<?xml version="1.0" encoding="UTF-8"?>
<svg id="Lager_1" data-name="Lager 1" xmlns="http://www.w3.org/2000/svg" viewBox="0 0 153.09 218.69">
  <defs>
    <style>
      .cls-1 {
        fill: #1a4080;
      }

      .cls-1, .cls-2 {
        fill-rule: evenodd;
      }

      .cls-2 {
        fill: #fff;
      }
    </style>
  </defs>
  <polyline class="cls-2" points="0 218.69 153.09 218.69 153.09 0 0 0 0 218.69"/>
  <path class="cls-1" d="M76.57,6.65h0c-32.74,0-59.29,26.23-59.29,58.59s26.55,58.6,59.29,58.6,59.27-26.24,59.27-58.6S109.3,6.65,76.57,6.65ZM77.95,18.87h0c-4.35,0-7.88,3.51-7.88,7.8s3.53,7.79,7.88,7.79,7.9-3.49,7.9-7.79-3.53-7.8-7.9-7.8ZM41.8,100.32l30.44-16.55-.4-.71c-.81-1.47-.67-3.22.02-4.72l1.23-2.67-35.92,19.54,4.63,5.11ZM125.3,54.91l-40.01,21.75,4.74-10.2,33.36-18.16,1.91,6.61ZM73.62,37.75c-1.5,0-2.87.83-3.57,2.15l-8.95,16.81-18.05,6.48c-5.08,1.82-2.33,9.36,2.76,7.54l19.54-7c.95-.34,1.74-1.02,2.21-1.91l.84-1.58v13.93l-2.04,3.25,7.91-4.31,5.49-11.87-1.38-8.17c-.16-1.1,1.45-1.35,1.67-.28l1.47,8.69-8.12,17.55c-2.25,4.87,5.14,8.21,7.39,3.34l8.64-18.67c.34-.73.44-1.55.31-2.34l-3.47-20.24c-.33-1.93-2.01-3.36-3.99-3.36h-8.66Z"/>
  <polyline class="cls-1" points="10.07 133.73 143.06 133.73 143.06 208.97 10.07 208.97 10.07 133.73"/>
  <path class="cls-2" d="M49.28,150.27l1.8-5.67,1.69,5.67h-3.48ZM105.44,154.14l.11.96h2.52l-.02-13.11h-2.54v4.76c-.46-.74-1.52-1.37-2.72-1.37-2.11,0-4.19,1.76-4.19,5.06,0,1.5.48,2.74,1.22,3.61.78.94,1.74,1.37,2.87,1.37s2.07-.44,2.74-1.28ZM103.44,153.23c-1.19,0-2.24-.85-2.24-2.85,0-2.24,1.09-3.04,2.15-3.04s2.13.8,2.13,2.96-1.09,2.91-2.04,2.92ZM88.39,155.1h2.54l.02-5.28c0-.74.15-1.09.35-1.39.33-.48.92-.8,1.54-.8.87,0,1.5.57,1.5,1.63v5.83h2.54v-6.65c0-1.76-1.3-3.11-3.26-3.11-1.35,0-2.3.72-2.61,1.46l-.11-1.11-2.48-.02-.02,9.42ZM83.67,154.03c.06.37.19.78.33,1.07h2.57c-.15-.13-.41-.55-.41-1.33l-.02-4.81c-.04-.83-.09-1.07-.15-1.28-.37-1.3-1.43-2.33-3.98-2.33-2.94,0-4.09,1.5-4.09,3.15l2.22.04c.11-.63.2-.76.41-.94.22-.22.7-.44,1.46-.44,1.19,0,1.65.63,1.65,1.07s-.3.76-.98.89l-2.54.44c-1.91.33-2.8,1.57-2.8,2.81,0,1.63,1.26,3.02,3.54,3.02,1.57,0,2.43-.63,2.78-1.35ZM83.69,150.08l-.02,1.41c-.05,1.19-.85,2-2.24,2-1.06,0-1.57-.63-1.57-1.18,0-.44.22-1.02,1.72-1.39l1.11-.3c.41-.09.76-.3,1-.54ZM82.17,144.55l2.54.02.02-2.57h-2.56v2.56ZM78.85,144.55h2.54l.02-2.57h-2.54l-.02,2.57ZM71.23,155.1h2.52l3.2-9.42h-2.55l-1.89,6.2-1.87-6.19h-2.57l3.17,9.41ZM58.38,155.1h2.54l.02-5.28c0-.74.15-1.09.35-1.39.33-.48.93-.8,1.54-.8.87,0,1.5.57,1.5,1.63v5.83h2.54v-6.65c0-1.76-1.3-3.11-3.26-3.11-1.35,0-2.3.72-2.61,1.46l-.11-1.11-2.48-.02-.02,9.42ZM45.01,155.1h2.74l.89-2.76h4.74l.85,2.76h2.78l-4.5-13.11h-2.91l-4.59,13.11Z"/>
  <path class="cls-2" d="M39.28,175.9h2.54v-13.11h-2.52l-.02,13.11ZM104.76,176.42c.13.89.39,1.39.93,1.89.57.55,1.63,1.07,3.46,1.07,2.04,0,3.35-.76,3.98-1.57.43-.57.67-1.09.67-2.5l-.02-8.83h-2.42l-.08,1.15c-.18-.3-.68-1.48-2.78-1.48-2.28,0-4.28,1.82-4.28,4.72s2,4.74,4.24,4.74c1.5,0,2.44-.69,2.81-1.41l-.02,1.02c0,1.59-.72,2.26-2.19,2.26-1.09,0-1.61-.56-1.7-1.15l-2.61.09ZM109.07,173.42c-1.24,0-2.28-.89-2.28-2.63,0-1.52,1.06-2.48,2.2-2.48s2.22.96,2.22,2.56-1.07,2.55-2.15,2.55ZM94,175.9h2.54l.02-5.28c0-.74.15-1.09.35-1.39.33-.48.93-.8,1.54-.8.87,0,1.52.57,1.52,1.63l-.02,5.83h2.54v-6.65c0-1.76-1.3-3.11-3.24-3.11-1.35,0-2.3.72-2.63,1.46l-.09-1.11-2.5-.02-.02,9.43ZM89.3,174.83c.06.37.17.78.33,1.07h2.55c-.15-.13-.39-.56-.39-1.33l-.04-4.81c-.02-.83-.07-1.07-.13-1.28-.39-1.3-1.44-2.33-4-2.33-2.94,0-4.09,1.5-4.09,3.15l2.24.04c.09-.63.19-.76.39-.94.24-.22.72-.44,1.48-.44,1.19,0,1.63.63,1.63,1.07s-.28.76-.96.89l-2.55.44c-1.91.33-2.8,1.57-2.8,2.82,0,1.63,1.26,3.02,3.54,3.02,1.57,0,2.44-.63,2.8-1.35ZM89.3,170.89v1.41c-.07,1.19-.87,2-2.24,2-1.07,0-1.57-.63-1.57-1.18,0-.44.22-1.02,1.72-1.39l1.09-.3c.41-.09.76-.3,1-.54ZM87.44,165.39c.65,0,1.26-.59,1.26-1.31s-.59-1.31-1.32-1.31-1.31.61-1.31,1.31c0,.74.57,1.31,1.37,1.31ZM87.43,164.85c-.48,0-.81-.35-.81-.78s.37-.78.78-.8c.43,0,.78.33.78.8s-.37.78-.74.78ZM81.74,175.9v-1.94h-.94c-.32,0-.61-.17-.74-.35-.04-.07-.11-.22-.11-.74v-4.67h1.7v-1.72h-1.7l-.02-2.98h-2.52v2.98h-1.31v1.74l1.31-.02v4.87c0,2.13.87,2.83,2.28,2.83h2.05ZM65.93,172.76c.06,1.78,1.54,3.48,4.44,3.48s4.22-1.57,4.22-3.26c0-.59-.2-1.19-.57-1.65-.35-.45-.81-.78-1.93-1.04l-2.7-.63c-.57-.15-.82-.5-.82-.83,0-.37.35-.94,1.57-.94,1.35,0,1.94.7,1.96,1.46l2.22-.04c-.04-.94-.54-1.89-1.35-2.48-.54-.39-1.41-.72-2.8-.72-2.7,0-3.91,1.46-3.91,3.07,0,.76.22,1.3.65,1.78.33.35.76.65,1.8.87l2.06.46c1.19.26,1.33.63,1.33,1.07,0,.41-.41,1.06-1.8,1.06s-2-.7-2.07-1.68l-2.32.02ZM61.54,174.94l.09.96h2.52v-13.11h-2.56v4.76c-.44-.74-1.52-1.37-2.72-1.37-2.09,0-4.19,1.76-4.19,5.06,0,1.5.48,2.74,1.22,3.61.78.94,1.76,1.37,2.87,1.37s2.09-.44,2.76-1.28ZM59.54,174.03c-1.2,0-2.24-.85-2.24-2.85,0-2.24,1.09-3.04,2.13-3.04s2.15.8,2.15,2.96-1.09,2.91-2.04,2.93ZM46.12,171.89l7,.02c0-2.8-1.28-5.76-4.78-5.76s-4.74,2.87-4.74,5.02c0,3.13,2.07,5.07,4.72,5.07s4.24-1.43,4.63-3.07l-2.55-.17c-.48.87-1.15,1.22-1.96,1.22-1.2,0-2.19-.81-2.31-2.33ZM46.23,170.05c.15-1.15,1.09-1.93,2.05-1.93,1.04,0,1.93.7,2.09,1.93h-4.15Z"/>
</svg>