<svg xmlns="http://www.w3.org/2000/svg" viewBox="0 0 595.28 850.37"><defs><style>.a{fill:#e5e8eb;}.a,.b,.c{fill-rule:evenodd;}.b{fill:#000100;}.c{fill:#1e3b72;}</style></defs><title>M013_C</title><polyline class="a" points="0 850.37 595.28 850.37 595.28 0 0 0 0 850.37"/><path class="b" d="M192.7,625.82l7-22,6.55,22H192.7Zm218.37,15,0.44,3.74h9.79l-0.07-51h-9.86v18.5c-1.8-2.88-5.91-5.33-10.58-5.33-8.21,0-16.27,6.84-16.27,19.66a21.41,21.41,0,0,0,4.75,14,13.78,13.78,0,0,0,11.16,5.33A13.05,13.05,0,0,0,411.06,640.87Zm-7.77-3.53c-4.61,0-8.71-3.31-8.71-11.09,0-8.71,4.25-11.81,8.35-11.81s8.28,3.1,8.28,11.52C411.21,634,407,637.27,403.29,637.34Zm-58.54,7.27h9.86l0.07-20.52c0-2.88.58-4.25,1.37-5.4a7.41,7.41,0,0,1,6-3.09c3.38,0,5.83,2.23,5.83,6.33v22.68h9.87V618.76c0-6.84-5-12.1-12.67-12.1-5.26,0-8.93,2.81-10.15,5.69L354.47,608l-9.65-.07Zm-18.36-4.18a14.9,14.9,0,0,0,1.29,4.18h10c-0.58-.51-1.58-2.16-1.58-5.18L336,620.7a20.64,20.64,0,0,0-.58-5c-1.44-5-5.54-9.07-15.48-9.07-11.45,0-15.91,5.83-15.91,12.24l8.64,0.14c0.43-2.45.79-3,1.58-3.67s2.74-1.73,5.69-1.73c4.61,0,6.41,2.45,6.41,4.18s-1.15,3-3.82,3.46L312.72,623c-7.42,1.29-10.87,6.12-10.87,10.94,0,6.34,4.9,11.74,13.75,11.74C321.71,645.69,325,643.24,326.4,640.43Zm0.07-15.34-0.07,5.47c-0.22,4.61-3.31,7.78-8.71,7.78-4.11,0-6.12-2.45-6.12-4.61,0-1.73.86-4,6.7-5.4l4.32-1.15A8.1,8.1,0,0,0,326.47,625.1Zm-5.9-21.53,9.86,0.07,0.07-10h-9.93v9.94Zm-12.89,0h9.86l0.07-10h-9.87Zm-29.66,41h9.79L300.26,608h-9.93L283,632.08l-7.27-24h-10Zm-50,0h9.87L238,624.09c0-2.88.58-4.25,1.36-5.4a7.41,7.41,0,0,1,6-3.09c3.38,0,5.83,2.23,5.83,6.33v22.68H261V618.76c0-6.84-5-12.1-12.67-12.1-5.26,0-8.93,2.81-10.15,5.69L237.77,608l-9.65-.07Zm-52,0h10.65l3.46-10.73h18.43l3.31,10.73h10.8l-17.49-51h-11.3Z" transform="translate(-1.06 -0.68)"/><path class="b" d="M98.66,712.4V717c0,5.18-3.24,8.42-8.86,8.42-4.17,0-6.12-2.45-6.12-4.68,0-1.73.58-3.67,6.77-5.4l4.25-1.15A11.38,11.38,0,0,0,98.66,712.4Zm414.49,15.55,0.36,3.74h9.79v-51h-9.93v18.5c-1.8-2.88-5.91-5.33-10.59-5.33-8.21,0-16.27,6.84-16.27,19.66a21.41,21.41,0,0,0,4.75,14,13.88,13.88,0,0,0,11.16,5.33A13.3,13.3,0,0,0,513.15,727.95Zm-7.85-3.53c-4.61,0-8.64-3.31-8.64-11.09,0-8.71,4.25-11.8,8.28-11.8s8.28,3.09,8.28,11.52C513.22,721.11,509,724.35,505.3,724.42Zm-35.86,3.53,0.36,3.74h9.79v-51h-9.93v18.5c-1.8-2.88-5.91-5.33-10.59-5.33-8.21,0-16.27,6.84-16.27,19.66a21.41,21.41,0,0,0,4.75,14,13.88,13.88,0,0,0,11.16,5.33A13.3,13.3,0,0,0,469.45,727.95Zm-7.85-3.53c-4.61,0-8.64-3.31-8.64-11.09,0-8.71,4.25-11.8,8.28-11.8s8.28,3.09,8.28,11.52C469.52,721.11,465.27,724.35,461.6,724.42ZM407,735.87v7.7h7.27c8.64,0,10.66-6.77,11.45-9L439.57,695H429.13l-7.34,22.68L414.08,695H403.5l11.37,30.89a13.72,13.72,0,0,1,.94,5c0,3-1.59,5-5.9,4.9h-3Zm-43.56-4.18h9.87v-12l4.1-4.11,10.08,16.13h12.09l-15.12-22.54L397.59,695H385.93l-12.67,14-0.07-28.29h-9.79v51Zm-41-12.24c0.21,6.91,6,13.54,17.21,13.54,11.45,0,16.49-6.12,16.49-12.67a10,10,0,0,0-2.3-6.41c-1.37-1.73-3.1-3-7.42-4l-10.59-2.45c-2.16-.58-3.09-1.94-3.09-3.24s1.37-3.67,6.12-3.67c5.26,0,7.56,2.74,7.56,5.69l8.71-.14a12.78,12.78,0,0,0-5.26-9.65c-2.09-1.51-5.54-2.81-10.87-2.81-10.58,0-15.19,5.69-15.19,12a9.39,9.39,0,0,0,2.52,6.91c1.29,1.37,2.88,2.52,7,3.38l7.92,1.8c4.68,1,5.19,2.45,5.19,4.18s-1.51,4.1-6.91,4.1c-5.18,0-7.85-2.73-8.13-6.55Zm-40.18,0c0.22,6.91,6,13.54,17.14,13.54,11.45,0,16.49-6.12,16.49-12.67a10,10,0,0,0-2.31-6.41c-1.37-1.73-3.09-3-7.42-4l-10.51-2.45c-2.16-.58-3.09-1.94-3.09-3.24s1.37-3.67,6.12-3.67c5.18,0,7.49,2.74,7.49,5.69l8.71-.14a12.78,12.78,0,0,0-5.26-9.65c-2.09-1.51-5.55-2.81-10.87-2.81-10.51,0-15.12,5.69-15.12,12a9.41,9.41,0,0,0,2.52,6.91c1.29,1.37,2.88,2.52,7,3.38l7.85,1.8c4.68,1,5.18,2.45,5.18,4.18s-1.51,4.1-6.91,4.1c-5.11,0-7.78-2.73-8.06-6.55Zm-6.55,12.24v-7.56H272a3.65,3.65,0,0,1-2.81-1.37c-0.22-.29-0.51-0.86-0.51-2.88V701.74h6.7V695h-6.62l-0.07-11.59h-9.79V695h-5.18v6.77l5.18-.07v18.94c0,8.28,3.38,11,8.78,11h8Zm-60.55,0H225v-12l4.1-4.11,10.08,16.13h12.09l-15.12-22.54L249.35,695H237.69L225,709l-0.07-28.29h-9.8v51Zm-17.49,0h9.87V695h-9.87v36.65Zm0.07-42.19h9.79v-8.78h-9.79v8.78Zm-41,29.95c0.21,6.91,6,13.54,17.21,13.54,11.45,0,16.49-6.12,16.49-12.67a10,10,0,0,0-2.31-6.41c-1.37-1.73-3.1-3-7.42-4l-10.58-2.45c-2.16-.58-3.1-1.94-3.1-3.24s1.37-3.67,6.12-3.67c5.26,0,7.56,2.74,7.56,5.69l8.71-.14a12.78,12.78,0,0,0-5.26-9.65c-2.09-1.51-5.55-2.81-10.87-2.81-10.59,0-15.19,5.69-15.19,12a9.41,9.41,0,0,0,2.52,6.91c1.3,1.37,2.88,2.52,7,3.38l7.92,1.8c4.68,1,5.18,2.45,5.18,4.18s-1.51,4.1-6.91,4.1c-5.18,0-7.85-2.73-8.13-6.55Zm-39.74,12.24h9.86l0.07-20.52c0-2.88.58-4.25,1.37-5.4a7.4,7.4,0,0,1,6-3.1c3.38,0,5.83,2.23,5.83,6.33v22.68h9.87V705.85c0-6.84-5-12.1-12.67-12.1-5.25,0-8.93,2.81-10.15,5.69l-0.43-4.32L117,695Zm-18.29-4.18a10.31,10.31,0,0,0,1.15,4.18h10.08a5.47,5.47,0,0,1-1.65-3.82V707.79c0-8.78-4.54-14-16.49-14-11.09,0-15.69,6-15.48,12.24l8.64,0.14c0-2.74,2.09-5.33,7.13-5.33,4.83,0,6.41,2.38,6.41,4.11,0,1.51-.93,2.88-3.6,3.38l-5.62.94c-8.13,1.44-10.29,3-11.8,4.32A10.18,10.18,0,0,0,74,721.18c0,6.05,4.75,11.52,14,11.52C93.4,732.7,96.57,730.9,98.66,727.52Z" transform="translate(-1.06 -0.68)"/><path class="c" d="M253.7,415.2l21.79-2a11.55,11.55,0,0,0,10.29-9.4L322.86,203a7.76,7.76,0,0,0-7.58-9.21H195.39L165,313.26A11.88,11.88,0,0,0,176.56,328h23v40A39.47,39.47,0,0,0,239,407.53h14.7v7.66Zm154.58,35.3c0-12.7,0-32.05.28-38.1a215.88,215.88,0,0,1,12.21-61.82,176.24,176.24,0,0,1,8.07-19.49c10.42-21.14,20.87-34.47,25.55-58.65l1.54-8.45,1-8.54H328.18l-28,151A26.26,26.26,0,0,1,277,427.75l-23.24,2.2v20.74A15.27,15.27,0,0,0,269,466H392.81A15.47,15.47,0,0,0,408.28,450.49Zm14.69,0c0-16.39,0-37.21,1.15-49.14,5.13-53,25.57-70,41.39-113.36a108.93,108.93,0,0,0,4.13-17c7.17-38.2-1.85-78.93-23.72-111a148.05,148.05,0,0,0-17.1-20.83c-68-68.7-181.7-57.06-234.1,24.19l-4.6,7.68-4.24,8H157a26.21,26.21,0,0,0-26.22,26.2V412.87A26.23,26.23,0,0,0,159.47,439L239,431.4v19.29a30,30,0,0,0,30,30H392.79A30.17,30.17,0,0,0,423,450.5ZM247.39,249c-6.59-17.51-32.83-13.2-32.76,5.76,0.06,17.28,22.81,23.41,31.52,8.45A16.63,16.63,0,0,0,247.39,249Zm207.94-27.38H334.39l3-16a22.67,22.67,0,0,0-12.58-24.48l-3.46-1.23v-71l8.64,0.3a135.94,135.94,0,0,1,121.33,95.69l2.31,8.36ZM202.4,179l4.52-7.58a136,136,0,0,1,59.36-50.88l8.16-3.35V179h-72ZM36.48,298.32c0,144.79,117.43,262.21,262.21,262.21S560.84,443.11,560.84,298.32,443.48,36.18,298.69,36.18,36.48,153.53,36.48,298.32Z" transform="translate(-1.06 -0.68)"/></svg>