<?xml version="1.0" encoding="UTF-8"?>
<svg id="Lager_1" data-name="Lager 1" xmlns="http://www.w3.org/2000/svg" viewBox="0 0 153.09 218.69">
  <defs>
    <style>
      .cls-1 {
        fill: #1a4080;
      }

      .cls-1, .cls-2 {
        fill-rule: evenodd;
      }

      .cls-2 {
        fill: #fff;
      }
    </style>
  </defs>
  <polyline class="cls-2" points="0 218.69 153.09 218.69 153.09 0 0 0 0 218.69"/>
  <path class="cls-1" d="M66.4,91.36l4.93-.45c1.16-.11,2.11-.96,2.33-2.1l8.38-44.88c.2-1.06-.61-2.06-1.71-2.06h-27.11l-6.86,26.71c-.41,1.67.87,3.28,2.61,3.28h5.19v8.94c.03,4.91,3.94,8.81,8.93,8.84h3.32v1.71ZM101.33,99.24c0-2.84,0-7.16.06-8.52.23-4.73,1.17-9.35,2.76-13.82.53-1.48,1.12-2.95,1.82-4.36,2.36-4.72,4.72-7.71,5.78-13.11l.35-1.89.22-1.91h-29.1l-6.32,33.74c-.43,2.51-2.69,4.57-5.26,4.77l-5.25.49v4.64c0,1.88,1.54,3.41,3.45,3.41h27.99c1.93,0,3.5-1.55,3.5-3.46ZM104.66,99.23c0-3.66,0-8.32.26-10.98,1.16-11.85,5.78-15.65,9.36-25.33.44-1.18.69-2.52.93-3.8,1.62-8.54-.42-17.64-5.36-24.8-1.15-1.66-2.43-3.22-3.87-4.66-15.37-15.35-41.08-12.75-52.93,5.41l-1.04,1.72-.96,1.78h-6.54c-3.27,0-5.93,2.62-5.93,5.85v46.4c0,3.46,3.01,6.16,6.49,5.84l17.98-1.7v4.31c0,3.7,3.03,6.7,6.78,6.7h27.99c3.77,0,6.82-3.01,6.82-6.74ZM64.96,54.22c-1.49-3.92-7.42-2.95-7.41,1.29.01,3.86,5.16,5.23,7.13,1.89.57-.96.68-2.13.28-3.17ZM111.98,48.09h-27.34l.67-3.58c.37-2.31-.73-4.44-2.84-5.47l-.78-.28v-15.88l1.95.07c12.76.82,23.68,9.31,27.43,21.39l.52,1.87.39,1.88ZM54.79,38.57l1.02-1.69c3.35-5.09,7.82-8.88,13.42-11.37l1.84-.75v13.81h-16.29ZM17.28,65.24c0,32.36,26.55,58.6,59.29,58.6s59.27-26.24,59.27-58.6S109.31,6.65,76.57,6.65s-59.29,26.23-59.29,58.59Z"/>
  <polyline class="cls-1" points="10.07 133.73 143.06 133.73 143.06 208.97 10.07 208.97 10.07 133.73"/>
  <path class="cls-2" d="M49.28,150.27l1.8-5.67,1.69,5.67h-3.48ZM105.44,154.14l.11.96h2.52l-.02-13.11h-2.54v4.76c-.46-.74-1.52-1.37-2.72-1.37-2.11,0-4.19,1.76-4.19,5.06,0,1.5.48,2.74,1.22,3.61.78.94,1.74,1.37,2.87,1.37s2.07-.44,2.74-1.28ZM103.44,153.23c-1.19,0-2.24-.85-2.24-2.85,0-2.24,1.09-3.04,2.15-3.04s2.13.8,2.13,2.96-1.09,2.91-2.04,2.92ZM88.39,155.1h2.54l.02-5.28c0-.74.15-1.09.35-1.39.33-.48.93-.8,1.54-.8.87,0,1.5.57,1.5,1.63v5.83h2.54v-6.65c0-1.76-1.3-3.11-3.26-3.11-1.35,0-2.3.72-2.61,1.46l-.11-1.11-2.48-.02-.02,9.42ZM83.67,154.03c.05.37.18.78.33,1.07h2.57c-.15-.13-.41-.55-.41-1.33l-.02-4.81c-.04-.83-.09-1.07-.15-1.28-.37-1.3-1.43-2.33-3.98-2.33-2.94,0-4.09,1.5-4.09,3.15l2.22.04c.11-.63.2-.76.41-.94.22-.22.7-.44,1.46-.44,1.19,0,1.65.63,1.65,1.07s-.3.76-.98.89l-2.54.44c-1.91.33-2.8,1.57-2.8,2.81,0,1.63,1.26,3.02,3.54,3.02,1.57,0,2.43-.63,2.78-1.35ZM83.69,150.08l-.02,1.41c-.06,1.19-.85,2-2.24,2-1.06,0-1.57-.63-1.57-1.18,0-.44.22-1.02,1.72-1.39l1.11-.3c.41-.09.76-.3,1-.54ZM82.17,144.55l2.54.02.02-2.57h-2.55v2.56ZM78.85,144.55h2.54l.02-2.57h-2.54l-.02,2.57ZM71.23,155.1h2.52l3.2-9.42h-2.55l-1.89,6.2-1.87-6.19h-2.57l3.17,9.41ZM58.38,155.1h2.54l.02-5.28c0-.74.15-1.09.35-1.39.33-.48.93-.8,1.54-.8.87,0,1.5.57,1.5,1.63v5.83h2.54v-6.65c0-1.76-1.3-3.11-3.26-3.11-1.35,0-2.3.72-2.61,1.46l-.11-1.11-2.48-.02-.02,9.42ZM45.01,155.1h2.74l.89-2.76h4.74l.85,2.76h2.78l-4.5-13.11h-2.91l-4.59,13.11Z"/>
  <path class="cls-2" d="M25.1,171.13v1.19c0,1.33-.83,2.17-2.28,2.17-1.07,0-1.57-.63-1.57-1.2,0-.45.15-.95,1.74-1.39l1.09-.3c.5-.13.81-.31,1.02-.46ZM131.7,175.13l.09.96h2.52v-13.11h-2.55v4.76c-.46-.74-1.52-1.37-2.72-1.37-2.11,0-4.18,1.76-4.18,5.05,0,1.5.48,2.74,1.22,3.61.78.94,1.76,1.37,2.87,1.37s2.07-.44,2.76-1.28ZM129.68,174.22c-1.18,0-2.22-.85-2.22-2.85,0-2.24,1.09-3.04,2.13-3.04s2.13.8,2.13,2.96-1.09,2.91-2.04,2.93ZM120.46,175.13l.09.96h2.52v-13.11h-2.55v4.76c-.46-.74-1.52-1.37-2.72-1.37-2.11,0-4.18,1.76-4.18,5.05,0,1.5.48,2.74,1.22,3.61.78.94,1.76,1.37,2.87,1.37s2.07-.44,2.76-1.28ZM118.44,174.22c-1.19,0-2.22-.85-2.22-2.85,0-2.24,1.09-3.04,2.13-3.04s2.13.8,2.13,2.96-1.09,2.91-2.04,2.93ZM104.39,177.16v1.98h1.87c2.22,0,2.74-1.74,2.94-2.31l3.57-10.16h-2.69l-1.89,5.83-1.98-5.83h-2.72l2.93,7.94c.19.52.24.87.24,1.3,0,.76-.41,1.28-1.52,1.26h-.76ZM93.18,176.09h2.54v-3.09l1.05-1.05,2.59,4.15h3.11l-3.89-5.8,3.39-3.63h-3l-3.26,3.59-.02-7.28h-2.52v13.11ZM82.65,172.94c.05,1.78,1.54,3.48,4.42,3.48s4.24-1.57,4.24-3.26c0-.59-.2-1.19-.59-1.65-.35-.44-.8-.78-1.91-1.04l-2.72-.63c-.56-.15-.8-.5-.8-.83,0-.37.35-.94,1.57-.94,1.35,0,1.95.7,1.95,1.46l2.24-.04c-.04-.95-.54-1.89-1.35-2.48-.54-.39-1.43-.72-2.8-.72-2.72,0-3.91,1.46-3.91,3.07,0,.76.2,1.3.65,1.78.33.35.74.65,1.8.87l2.04.46c1.2.26,1.33.63,1.33,1.07,0,.41-.39,1.06-1.78,1.06s-2.02-.7-2.09-1.69l-2.3.02ZM72.32,172.94c.06,1.78,1.54,3.48,4.41,3.48s4.24-1.57,4.24-3.26c0-.59-.2-1.19-.59-1.65-.35-.44-.8-.78-1.91-1.04l-2.7-.63c-.55-.15-.8-.5-.8-.83,0-.37.35-.94,1.57-.94,1.33,0,1.93.7,1.93,1.46l2.24-.04c-.04-.95-.54-1.89-1.35-2.48-.54-.39-1.43-.72-2.8-.72-2.7,0-3.89,1.46-3.89,3.07,0,.76.2,1.3.65,1.78.33.35.74.65,1.8.87l2.02.46c1.2.26,1.33.63,1.33,1.07,0,.41-.39,1.06-1.78,1.06-1.31,0-2-.7-2.07-1.69l-2.3.02ZM70.63,176.09v-1.94h-.94c-.3,0-.59-.17-.72-.35-.06-.07-.13-.22-.13-.74v-4.67h1.72v-1.72h-1.7l-.02-2.98h-2.52v2.98h-1.33v1.74l1.33-.02v4.87c0,2.13.87,2.83,2.26,2.83h2.05ZM55.06,176.09h2.54v-3.09l1.05-1.05,2.59,4.15h3.11l-3.89-5.8,3.39-3.63h-3l-3.26,3.59-.02-7.28h-2.52v13.11ZM50.56,176.09h2.54v-9.42h-2.54v9.42ZM50.58,165.24h2.52v-2.26h-2.52v2.26ZM40.03,172.94c.05,1.78,1.54,3.48,4.43,3.48s4.24-1.57,4.24-3.26c0-.59-.2-1.19-.59-1.65-.35-.44-.8-.78-1.91-1.04l-2.72-.63c-.56-.15-.8-.5-.8-.83,0-.37.35-.94,1.57-.94,1.35,0,1.94.7,1.94,1.46l2.24-.04c-.04-.95-.54-1.89-1.35-2.48-.54-.39-1.43-.72-2.8-.72-2.72,0-3.91,1.46-3.91,3.07,0,.76.2,1.3.65,1.78.33.35.74.65,1.8.87l2.04.46c1.2.26,1.33.63,1.33,1.07,0,.41-.39,1.06-1.78,1.06s-2.02-.7-2.09-1.69l-2.3.02ZM29.8,176.09h2.54l.02-5.28c0-.74.15-1.09.35-1.39.33-.48.93-.8,1.54-.8.87,0,1.5.57,1.5,1.63v5.83h2.54v-6.65c0-1.76-1.3-3.11-3.26-3.11-1.35,0-2.3.72-2.61,1.46l-.11-1.11-2.48-.02-.02,9.42ZM25.1,175.02c.04.46.15.8.3,1.07h2.59c-.33-.39-.42-.67-.42-.98v-5.17c0-2.26-1.17-3.61-4.24-3.61-2.85,0-4.04,1.56-3.98,3.15l2.22.04c0-.7.54-1.37,1.83-1.37s1.65.61,1.65,1.06c0,.39-.24.74-.93.87l-1.45.24c-2.09.37-2.65.76-3.04,1.11-.56.5-.87,1.2-.87,1.96,0,1.56,1.22,2.96,3.61,2.96,1.37,0,2.19-.46,2.72-1.33Z"/>
</svg>