<?xml version="1.0" encoding="UTF-8"?>
<svg id="Lager_1" data-name="Lager 1" xmlns="http://www.w3.org/2000/svg" viewBox="0 0 153.09 218.69">
  <defs>
    <style>
      .cls-1 {
        fill: #1a4080;
      }

      .cls-1, .cls-2 {
        fill-rule: evenodd;
      }

      .cls-2 {
        fill: #fff;
      }
    </style>
  </defs>
  <polyline class="cls-2" points="0 218.69 153.09 218.69 153.09 0 0 0 0 218.69"/>
  <path class="cls-1" d="M54.57,60.56c0,2.04,1.69,3.71,3.75,3.71s3.75-1.67,3.75-3.71-1.69-3.71-3.75-3.71-3.75,1.67-3.75,3.71ZM111.65,56.04l.09,2.33c.05,1.28-.09,2.55-.24,3.82-.68,5.63-2.61,9.93-5.54,14.73-.77,1.26-1.41,2.84-2,4.31-3.05,7.57-3.34,14.18-3.13,22.26.1,3.69-2.99,6.62-6.68,6.62h-27.51l-.87-.06c-2.68-.39-4.84-2.23-5.56-4.83l-.15-.84-.06-.86v-6.24l-1.17-.06c-6.18-.61-10.86-5.7-10.86-11.83v-5.58h-1.84c-3.8.01-6.62-3.51-5.73-7.18l4.06-16.6h3.34l-4.23,17.34c-.4,1.66.86,3.21,2.56,3.22h5.1v8.79c0,4.79,3.92,8.67,8.77,8.67h3.26v9.47l.07.64.2.64c.56,1.25,1.74,2.04,3.13,2.06h27.51c1.89,0,3.43-1.52,3.43-3.39v-6.05l.05-2.32c-.7-13,9.69-22.43,10.78-34.82l.07-1.93-.11-2.33h3.28ZM114.21,52.81l-.06-2.06-.19-2.04c-3.12-23.48-27.8-37.31-49.78-27.86-1.91.82-3.74,1.8-5.45,2.96-7.96,5.37-12.87,12.77-15.09,22-.1.4-.41.69-.74.92-3.67,2.65-9.53.45-8.95,5.75.02.2.2.32.39.32h79.87ZM17.28,65.24c0,32.36,26.55,58.6,59.29,58.6s59.27-26.24,59.27-58.6S109.31,6.65,76.57,6.65s-59.29,26.23-59.29,58.59Z"/>
  <polyline class="cls-1" points="10.06 133.73 143.05 133.73 143.05 208.96 10.06 208.96 10.06 133.73"/>
  <path class="cls-2" d="M49.28,150.27l1.8-5.67,1.69,5.67h-3.48ZM105.44,154.14l.11.96h2.52l-.02-13.11h-2.54v4.76c-.46-.74-1.52-1.37-2.72-1.37-2.11,0-4.18,1.76-4.18,5.06,0,1.5.48,2.74,1.22,3.61.78.94,1.74,1.37,2.87,1.37s2.07-.44,2.74-1.28ZM103.44,153.23c-1.19,0-2.24-.85-2.24-2.85,0-2.24,1.09-3.04,2.15-3.04s2.13.8,2.13,2.96-1.09,2.91-2.04,2.92ZM88.39,155.1h2.54l.02-5.28c0-.74.15-1.09.35-1.39.33-.48.93-.8,1.54-.8.87,0,1.5.57,1.5,1.63v5.83h2.54v-6.65c0-1.76-1.3-3.11-3.26-3.11-1.35,0-2.3.72-2.61,1.46l-.11-1.11-2.48-.02-.02,9.42ZM83.67,154.03c.05.37.19.78.33,1.07h2.57c-.15-.13-.41-.55-.41-1.33l-.02-4.81c-.04-.83-.09-1.07-.15-1.28-.37-1.3-1.43-2.33-3.98-2.33-2.94,0-4.09,1.5-4.09,3.15l2.22.04c.11-.63.2-.76.41-.94.22-.22.7-.44,1.46-.44,1.18,0,1.65.63,1.65,1.07s-.3.76-.98.89l-2.54.44c-1.91.33-2.8,1.57-2.8,2.81,0,1.63,1.26,3.02,3.54,3.02,1.57,0,2.43-.63,2.78-1.35ZM83.69,150.08l-.02,1.41c-.06,1.19-.85,2-2.24,2-1.06,0-1.57-.63-1.57-1.18,0-.44.22-1.02,1.72-1.39l1.11-.3c.41-.09.76-.3,1-.54ZM82.17,144.55l2.54.02.02-2.57h-2.55v2.56ZM78.85,144.55h2.54l.02-2.57h-2.54l-.02,2.57ZM71.22,155.1h2.52l3.2-9.42h-2.55l-1.89,6.2-1.87-6.19h-2.57l3.17,9.41ZM58.38,155.1h2.54l.02-5.28c0-.74.15-1.09.35-1.39.33-.48.93-.8,1.54-.8.87,0,1.5.57,1.5,1.63v5.83h2.54v-6.65c0-1.76-1.3-3.11-3.26-3.11-1.35,0-2.3.72-2.61,1.46l-.11-1.11-2.48-.02-.02,9.42ZM45.01,155.1h2.74l.89-2.76h4.74l.85,2.76h2.78l-4.5-13.11h-2.91l-4.59,13.11Z"/>
  <path class="cls-2" d="M22.25,172.94c.06,1.78,1.56,3.48,4.44,3.48s4.22-1.57,4.22-3.26c0-.59-.2-1.19-.57-1.65-.35-.44-.81-.78-1.93-1.04l-2.7-.63c-.57-.15-.8-.5-.8-.83,0-.37.33-.94,1.55-.94,1.35,0,1.94.7,1.96,1.46l2.24-.04c-.06-.95-.56-1.89-1.35-2.48-.56-.39-1.43-.72-2.81-.72-2.7,0-3.91,1.46-3.91,3.07,0,.76.22,1.3.65,1.78.35.35.76.65,1.81.87l2.04.46c1.19.26,1.33.63,1.33,1.07,0,.41-.39,1.06-1.8,1.06-1.33,0-2-.7-2.07-1.69l-2.31.02ZM116.9,176.09h2.54l.02-5.44c0-1.35.76-2.04,1.78-2.04.67,0,1.07.33,1.26.8.04.09.11.3.11,1.04v5.65h2.52v-5.59c0-1.22.76-1.92,1.76-1.92.85,0,1.43.52,1.43,1.63v5.89h2.5l-.02-6.61c-.06-1.98-1.31-3.11-3.02-3.11-1.32,0-2.33.61-2.91,1.65-.48-.98-1.52-1.65-2.76-1.65s-2.13.56-2.63,1.5l-.09-1.19-2.46-.02-.02,9.42ZM112.4,176.09h2.54v-13.11h-2.52l-.02,13.11ZM107.89,175.02c.05.37.18.78.33,1.07h2.55c-.15-.13-.39-.55-.39-1.33l-.04-4.81c-.02-.83-.07-1.07-.13-1.28-.39-1.3-1.45-2.33-4-2.33-2.93,0-4.09,1.5-4.09,3.15l2.24.04c.09-.63.19-.76.39-.94.24-.22.72-.45,1.48-.45,1.19,0,1.63.63,1.63,1.07s-.28.76-.96.89l-2.55.44c-1.91.33-2.8,1.57-2.8,2.81,0,1.63,1.26,3.02,3.54,3.02,1.57,0,2.44-.63,2.8-1.35ZM107.89,171.07v1.41c-.06,1.19-.87,2-2.24,2-1.07,0-1.57-.63-1.57-1.19,0-.44.22-1.02,1.72-1.39l1.09-.3c.43-.09.76-.3,1-.54ZM106.37,165.54l2.55.02v-2.57h-2.54l-.02,2.56ZM103.07,165.54h2.54l.02-2.57h-2.54l-.02,2.57ZM95.9,177.11l-.02,2.06,1.76-.02c1.61,0,2.39-.78,2.39-2.48v-10h-2.54l-.02,8.91c0,1.33-.39,1.54-1,1.54h-.57ZM97.48,165.24h2.55v-2.26h-2.55v2.26ZM86.2,176.09h2.54v-5.18c0-1.54.85-2.26,1.91-2.26.89,0,1.5.52,1.5,1.7v5.74h2.54v-6.5c0-1.15-.39-1.93-1-2.46-.55-.46-1.39-.8-2.2-.8-1.39,0-2.32.65-2.74,1.52v-4.87h-2.54v13.11ZM75.69,172.94c.06,1.78,1.54,3.48,4.43,3.48s4.22-1.57,4.22-3.26c0-.59-.2-1.19-.57-1.65-.35-.44-.81-.78-1.93-1.04l-2.7-.63c-.57-.15-.8-.5-.8-.83,0-.37.33-.94,1.56-.94,1.35,0,1.94.7,1.96,1.46l2.24-.04c-.06-.95-.56-1.89-1.35-2.48-.56-.39-1.43-.72-2.81-.72-2.7,0-3.89,1.46-3.89,3.07,0,.76.22,1.3.63,1.78.35.35.76.65,1.81.87l2.04.46c1.19.26,1.33.63,1.33,1.07,0,.41-.39,1.06-1.8,1.06-1.33,0-2-.7-2.07-1.69l-2.3.02ZM71.3,175.13l.11.96h2.5v-13.11h-2.55v4.76c-.44-.74-1.52-1.37-2.72-1.37-2.09,0-4.18,1.76-4.18,5.05,0,1.5.48,2.74,1.22,3.61.78.94,1.76,1.37,2.87,1.37s2.09-.44,2.76-1.28ZM69.3,174.22c-1.2,0-2.24-.85-2.24-2.85,0-2.24,1.09-3.04,2.13-3.04s2.15.8,2.15,2.96-1.09,2.91-2.04,2.93ZM60.06,175.13l.11.96h2.5v-13.11h-2.55v4.76c-.44-.74-1.52-1.37-2.72-1.37-2.09,0-4.18,1.76-4.18,5.05,0,1.5.48,2.74,1.22,3.61.78.94,1.76,1.37,2.87,1.37s2.09-.44,2.76-1.28ZM58.06,174.22c-1.2,0-2.24-.85-2.24-2.85,0-2.24,1.09-3.04,2.13-3.04s2.15.8,2.15,2.96-1.09,2.91-2.04,2.93ZM44,177.16v1.98h1.87c2.2,0,2.72-1.74,2.93-2.31l3.59-10.16h-2.7l-1.87,5.83-1.98-5.83h-2.74l2.93,7.94c.19.52.26.87.26,1.3,0,.76-.43,1.28-1.52,1.26h-.76ZM32.8,176.09h2.54l-.02-3.09,1.07-1.05,2.59,4.15h3.09l-3.87-5.8,3.37-3.63h-2.98l-3.26,3.59-.02-7.28h-2.54l.02,13.11Z"/>
</svg>