<svg xmlns="http://www.w3.org/2000/svg" viewBox="0 0 595.28 850.37"><defs><style>.a{fill:#e5e8eb;}.a,.b,.c{fill-rule:evenodd;}.b{fill:#000100;}.c{fill:#1e3b72;}</style></defs><title>M014_C</title><polyline class="a" points="0 850.37 595.28 850.37 595.28 0 0 0 0 850.37"/><path class="b" d="M192.67,625.82l7-22,6.55,22H192.67Zm218.37,15,0.43,3.74h9.79l-0.07-51h-9.87v18.5c-1.8-2.88-5.9-5.33-10.58-5.33-8.21,0-16.27,6.84-16.27,19.66a21.39,21.39,0,0,0,4.75,14,13.78,13.78,0,0,0,11.16,5.33A13.05,13.05,0,0,0,411,640.87Zm-7.77-3.53c-4.61,0-8.71-3.31-8.71-11.09,0-8.71,4.25-11.81,8.35-11.81s8.28,3.1,8.28,11.52C411.18,634,406.93,637.27,403.26,637.34Zm-58.54,7.27h9.87l0.07-20.52c0-2.88.58-4.25,1.37-5.4a7.4,7.4,0,0,1,6-3.09c3.38,0,5.83,2.23,5.83,6.33v22.68h9.86V618.76c0-6.84-5-12.1-12.67-12.1-5.26,0-8.93,2.81-10.15,5.69L354.44,608,344.8,608Zm-18.36-4.18a14.9,14.9,0,0,0,1.29,4.18h10c-0.58-.51-1.59-2.16-1.59-5.18L336,620.7a20.72,20.72,0,0,0-.58-5c-1.44-5-5.55-9.07-15.48-9.07-11.45,0-15.91,5.83-15.91,12.24l8.64,0.14c0.43-2.45.79-3,1.58-3.67s2.74-1.73,5.69-1.73c4.61,0,6.41,2.45,6.41,4.18s-1.16,3-3.82,3.46L312.69,623c-7.42,1.29-10.87,6.12-10.87,10.94,0,6.34,4.89,11.74,13.75,11.74C321.68,645.69,325,643.24,326.37,640.43Zm0.07-15.34-0.07,5.47c-0.22,4.61-3.31,7.78-8.71,7.78-4.1,0-6.12-2.45-6.12-4.61,0-1.73.87-4,6.7-5.4l4.32-1.15A8.1,8.1,0,0,0,326.44,625.1Zm-5.9-21.53,9.86,0.07,0.07-10h-9.93v9.94Zm-12.89,0h9.86l0.07-10h-9.87Zm-29.67,41h9.79L300.23,608h-9.93L283,632.08l-7.27-24h-10Zm-50,0h9.86L238,624.09c0-2.88.58-4.25,1.37-5.4a7.4,7.4,0,0,1,6-3.09c3.38,0,5.83,2.23,5.83,6.33v22.68H261V618.76c0-6.84-5-12.1-12.67-12.1-5.26,0-8.93,2.81-10.15,5.69L237.74,608l-9.65-.07Zm-52,0h10.65l3.46-10.73h18.43l3.31,10.73h10.8l-17.49-51h-11.3Z" transform="translate(-1.03 -0.68)"/><path class="b" d="M87.54,719.45c0.22,6.91,6.05,13.54,17.28,13.54s16.42-6.12,16.42-12.67a10.36,10.36,0,0,0-2.23-6.41c-1.37-1.73-3.17-3-7.49-4L101,707.43c-2.23-.58-3.09-1.94-3.09-3.24s1.29-3.67,6-3.67c5.25,0,7.56,2.74,7.63,5.69l8.71-.14a13.25,13.25,0,0,0-5.26-9.65c-2.16-1.51-5.54-2.81-10.94-2.81-10.51,0-15.19,5.69-15.19,12a9.7,9.7,0,0,0,2.52,6.91c1.37,1.37,3,2.52,7.06,3.38l7.92,1.8c4.61,1,5.18,2.45,5.18,4.18s-1.51,4.1-7,4.1c-5.18,0-7.77-2.73-8.06-6.55ZM455.6,731.69h9.86l0.07-21.17c0-5.26,3-7.92,6.91-7.92a4.89,4.89,0,0,1,4.9,3.1c0.14,0.36.43,1.15,0.43,4v22h9.79V709.95c0-4.75,3-7.49,6.84-7.49,3.31,0,5.54,2,5.54,6.34v22.89h9.72L509.59,706c-0.22-7.71-5.11-12.1-11.73-12.1a12.33,12.33,0,0,0-11.3,6.41,11.76,11.76,0,0,0-10.73-6.41c-5,0-8.28,2.16-10.23,5.83l-0.36-4.61-9.58-.07Zm-17.5,0H448v-51h-9.79Zm-17.56-4.18a14.83,14.83,0,0,0,1.29,4.18h9.93c-0.58-.51-1.51-2.16-1.51-5.18l-0.14-18.72a18.67,18.67,0,0,0-.5-5c-1.51-5-5.62-9.07-15.55-9.07-11.37,0-15.91,5.83-15.91,12.24l8.71,0.14c0.36-2.45.72-3,1.51-3.67s2.81-1.73,5.76-1.73c4.61,0,6.33,2.45,6.33,4.18s-1.08,3-3.75,3.46l-9.93,1.73c-7.42,1.29-10.87,6.12-10.87,10.94,0,6.34,4.89,11.74,13.75,11.74C415.78,732.77,419.16,730.32,420.53,727.52Zm0-15.34v5.47c-0.22,4.61-3.39,7.78-8.71,7.78-4.18,0-6.12-2.45-6.12-4.61,0-1.73.87-4,6.7-5.4l4.25-1.15A7.8,7.8,0,0,0,420.53,712.18Zm-5.91-21.53,9.93,0.07v-10H414.7Zm-12.81,0h9.86l0.07-10h-9.87Zm-27.86,45-0.07,8,6.84-.07c6.26,0,9.29-3,9.29-9.65V695h-9.87l-0.07,34.63c0,5.18-1.51,6-3.89,6h-2.23Zm6.12-46.15H390v-8.78h-9.93v8.78Zm-43.85,42.19h9.86V711.53c0-6,3.31-8.78,7.42-8.78,3.46,0,5.83,2,5.83,6.63v22.32h9.86V706.42c0-4.46-1.51-7.49-3.89-9.58a14,14,0,0,0-8.57-3.09c-5.4,0-9,2.52-10.66,5.9V680.72h-9.86v51Zm-40.9-12.24c0.21,6.91,6,13.54,17.21,13.54S329,726.87,329,720.32a10.36,10.36,0,0,0-2.23-6.41c-1.37-1.73-3.17-3-7.49-4l-10.51-2.45c-2.23-.58-3.1-1.94-3.1-3.24s1.3-3.67,6.05-3.67c5.25,0,7.56,2.74,7.63,5.69l8.71-.14a13.25,13.25,0,0,0-5.26-9.65c-2.16-1.51-5.55-2.81-10.94-2.81-10.51,0-15.12,5.69-15.12,12a10,10,0,0,0,2.45,6.91c1.37,1.37,3,2.52,7.06,3.38l7.92,1.8c4.61,1,5.18,2.45,5.18,4.18s-1.51,4.1-7,4.1c-5.18,0-7.77-2.73-8.06-6.55Zm-17.07,8.5,0.44,3.74h9.72v-51h-9.93v18.5c-1.73-2.88-5.9-5.33-10.59-5.33-8.13,0-16.27,6.84-16.27,19.66a21.39,21.39,0,0,0,4.75,14,13.87,13.87,0,0,0,11.16,5.33A13.19,13.19,0,0,0,278.26,727.95Zm-7.77-3.53c-4.68,0-8.71-3.31-8.71-11.09,0-8.71,4.25-11.8,8.28-11.8s8.35,3.09,8.35,11.52C278.41,721.11,274.16,724.35,270.49,724.42Zm-35.93,3.53,0.43,3.74h9.72v-51h-9.93v18.5c-1.73-2.88-5.9-5.33-10.59-5.33-8.13,0-16.27,6.84-16.27,19.66a21.39,21.39,0,0,0,4.75,14,13.87,13.87,0,0,0,11.16,5.33A13.19,13.19,0,0,0,234.56,727.95Zm-7.77-3.53c-4.68,0-8.71-3.31-8.71-11.09,0-8.71,4.25-11.8,8.28-11.8s8.35,3.09,8.35,11.52C234.7,721.11,230.46,724.35,226.79,724.42Zm-54.65,11.45v7.7h7.27c8.57,0,10.58-6.77,11.38-9l14-39.53H194.24L187,717.73,179.27,695H168.61L180,725.93a13.87,13.87,0,0,1,1,5c0,3-1.66,5-5.91,4.9h-3Zm-43.56-4.18h9.86l-0.07-12,4.18-4.11,10.08,16.13h12l-15-22.54L162.71,695H151.12l-12.67,14-0.07-28.29h-9.86Z" transform="translate(-1.03 -0.68)"/><path class="c" d="M201.34,277.44a16.58,16.58,0,1,0,16.58-16.58A16.62,16.62,0,0,0,201.34,277.44Zm252.44-20.27,0.4,10.44a109.69,109.69,0,0,1-1.06,17.09c-3,25.2-11.53,44.41-24.49,65.91-3.39,5.63-6.22,12.72-8.84,19.29C406.3,403.78,405,433.35,406,469.51c0.43,16.51-13.21,29.64-29.56,29.64H254.74l-3.85-.27a29.58,29.58,0,0,1-24.58-21.6l-0.67-3.74-0.29-3.84V441.76l-5.18-.28a53.15,53.15,0,0,1-48-53v-25H164a26,26,0,0,1-25.33-32.13l17.94-74.26h14.79l-18.71,77.61A11.65,11.65,0,0,0,164,349.17h22.57v39.35a38.73,38.73,0,0,0,38.8,38.77h14.4v42.4l0.29,2.88,0.87,2.88a15.12,15.12,0,0,0,13.83,9.22H376.4a15.17,15.17,0,0,0,15.17-15.16V442.45l0.2-10.38c-3.11-58.16,42.84-100.38,47.7-155.81l0.3-8.65-0.47-10.44h14.49Zm11.37-14.4-0.28-9.21L464,224.43A157.79,157.79,0,0,0,243.82,99.79,145.69,145.69,0,0,0,219.71,113c-35.19,24-56.92,57.14-66.73,98.44a7.57,7.57,0,0,1-3.26,4.13c-16.24,11.86-42.17,2-39.57,25.73a1.69,1.69,0,0,0,1.74,1.43H465.15ZM36.45,298.32c0,144.79,117.43,262.21,262.22,262.21S560.81,443.11,560.81,298.32,443.45,36.18,298.67,36.18,36.45,153.53,36.45,298.32Z" transform="translate(-1.03 -0.68)"/></svg>