<svg xmlns="http://www.w3.org/2000/svg" viewBox="0 0 595.28 850.36"><defs><style>.a{fill:#e5e8eb;}.a,.b,.c{fill-rule:evenodd;}.b{fill:#000100;}.c{fill:#1e3b72;}</style></defs><title>M015_C</title><polyline class="a" points="0 850.36 595.28 850.36 595.28 0 0 0 0 850.36"/><path class="b" d="M192.64,625.82l7-22,6.55,22H192.64Zm218.37,15,0.43,3.74h9.79l-0.07-51h-9.87v18.5c-1.8-2.88-5.9-5.33-10.58-5.33-8.21,0-16.27,6.84-16.27,19.66a21.39,21.39,0,0,0,4.75,14,13.77,13.77,0,0,0,11.16,5.33A13.06,13.06,0,0,0,411,640.86Zm-7.78-3.53c-4.61,0-8.71-3.31-8.71-11.09,0-8.71,4.25-11.81,8.35-11.81s8.28,3.1,8.28,11.52C411.15,634,406.9,637.26,403.23,637.34Zm-58.53,7.27h9.87l0.07-20.52c0-2.88.58-4.25,1.37-5.4a7.4,7.4,0,0,1,6-3.09c3.38,0,5.83,2.23,5.83,6.33v22.68h9.86V618.76c0-6.84-5-12.1-12.67-12.1-5.25,0-8.93,2.81-10.15,5.69L354.42,608l-9.65-.07Zm-18.36-4.18a15,15,0,0,0,1.3,4.18h10c-0.58-.51-1.58-2.16-1.58-5.18L336,620.7a20.35,20.35,0,0,0-.58-5c-1.44-5-5.54-9.07-15.48-9.07-11.45,0-15.91,5.83-15.91,12.24l8.64,0.14c0.44-2.45.79-3,1.59-3.67s2.73-1.73,5.69-1.73c4.61,0,6.4,2.45,6.4,4.18s-1.15,3-3.81,3.46L312.66,623c-7.42,1.29-10.87,6.12-10.87,10.94,0,6.34,4.9,11.74,13.75,11.74C321.66,645.69,325,643.24,326.33,640.43Zm0.07-15.34-0.07,5.47c-0.21,4.61-3.31,7.78-8.71,7.78-4.1,0-6.12-2.45-6.12-4.61,0-1.73.86-4,6.7-5.4l4.32-1.15A8.13,8.13,0,0,0,326.41,625.1Zm-5.9-21.53,9.86,0.07,0.07-10h-9.93v9.94Zm-12.89,0h9.86l0.07-10h-9.86Zm-29.66,41h9.79L300.2,608h-9.94l-7.34,24.12-7.27-24h-10Zm-50,0h9.86l0.07-20.52c0-2.88.58-4.25,1.37-5.4a7.4,7.4,0,0,1,6-3.09c3.38,0,5.83,2.23,5.83,6.33v22.68H261V618.76c0-6.84-5-12.1-12.67-12.1-5.25,0-8.93,2.81-10.15,5.69L237.71,608l-9.65-.07Zm-52,0h10.65l3.46-10.73h18.43l3.31,10.73h10.8l-17.5-51h-11.3Z" transform="translate(-1 -0.69)"/><path class="b" d="M84.85,731.69h9.79L107.17,695h-10l-7.34,24.12-7.27-24h-10Zm439.69,0v-7.56h-3.67a3.66,3.66,0,0,1-2.81-1.37c-0.21-.29-0.5-0.86-0.5-2.88V701.74h6.62V695h-6.62l-0.07-11.59h-9.79V695h-5.11v6.77l5.18-.07v18.94c0,8.28,3.39,11,8.78,11h8ZM471,716.07l27.22,0.07c0-10.87-4.9-22.39-18.58-22.39-14,0-18.36,11.16-18.36,19.51,0,12.17,8.06,19.73,18.29,19.73s16.49-5.55,18-12l-9.86-.65c-1.94,3.38-4.46,4.75-7.63,4.75C475.36,725.14,471.55,722,471,716.07Zm0.43-7.13a8.44,8.44,0,0,1,8.07-7.49c4,0,7.42,2.74,8.13,7.49H471.4Zm-50.33,10.51c0.15,6.91,6,13.54,17.21,13.54,11.45,0,16.49-6.12,16.49-12.67a10.41,10.41,0,0,0-2.31-6.41c-1.37-1.73-3.17-3-7.49-4l-10.51-2.45c-2.23-.58-3.1-1.94-3.1-3.24s1.3-3.67,6.12-3.67c5.18,0,7.49,2.74,7.56,5.69l8.71-.14a13,13,0,0,0-5.26-9.65c-2.16-1.51-5.55-2.81-10.87-2.81-10.58,0-15.26,5.69-15.26,12a9.45,9.45,0,0,0,2.59,6.91c1.3,1.37,2.88,2.52,7,3.38l7.92,1.8c4.61,1,5.18,2.45,5.18,4.18s-1.51,4.1-6.91,4.1c-5.18,0-7.85-2.73-8.14-6.55Zm-17.13,8.5,0.43,3.74h9.79l-0.07-51h-9.86v18.5c-1.8-2.88-5.9-5.33-10.58-5.33-8.21,0-16.27,6.84-16.27,19.66a21.41,21.41,0,0,0,4.75,14,13.79,13.79,0,0,0,11.16,5.33A13.07,13.07,0,0,0,403.94,727.95Zm-7.78-3.53c-4.61,0-8.71-3.31-8.71-11.09,0-8.71,4.25-11.8,8.35-11.8s8.28,3.09,8.28,11.52C404.09,721.11,399.84,724.35,396.17,724.42Zm-35.71,3.1a15,15,0,0,0,1.29,4.18h10c-0.58-.51-1.58-2.16-1.58-5.18l-0.07-18.72a20.42,20.42,0,0,0-.58-5c-1.44-5-5.55-9.07-15.48-9.07-11.45,0-15.91,5.83-15.91,12.24l8.64,0.14c0.43-2.45.79-3,1.59-3.67s2.73-1.73,5.68-1.73c4.61,0,6.41,2.45,6.41,4.18s-1.15,3-3.81,3.46l-9.86,1.73c-7.42,1.29-10.87,6.12-10.87,10.94,0,6.34,4.83,11.74,13.75,11.74C355.7,732.77,359.09,730.32,360.46,727.51Zm0.07-15.34-0.07,5.47c-0.21,4.61-3.31,7.78-8.71,7.78-4.11,0-6.12-2.45-6.12-4.61,0-1.73.86-4,6.7-5.4l4.25-1.15A8.37,8.37,0,0,0,360.53,712.18Zm-5.91-21.53,9.87,0.07,0.07-10h-9.94v9.94Zm-12.89,0h9.87l0.07-10h-9.86Zm-21.6,41H330v-51h-9.79Zm-41,0H289v-12l4.1-4.11,10,16.13h12.1L300,709.15,313.23,695H301.56L289,709l-0.07-28.29H279.1v51Zm-17.49,0h9.86v-51h-9.79Zm-34.2-15.62,27.22,0.07c0-10.87-4.9-22.39-18.57-22.39-14,0-18.36,11.16-18.36,19.51,0,12.17,8.07,19.73,18.29,19.73s16.49-5.55,18-12l-9.86-.65c-1.94,3.38-4.46,4.75-7.63,4.75C231.8,725.14,228,722,227.4,716.07Zm0.43-7.13a8.44,8.44,0,0,1,8.06-7.49c4,0,7.42,2.74,8.13,7.49h-16.2Zm-50.32,10.51c0.14,6.91,6,13.54,17.21,13.54,11.45,0,16.49-6.12,16.49-12.67a10.43,10.43,0,0,0-2.3-6.41c-1.37-1.73-3.17-3-7.49-4l-10.51-2.45c-2.23-.58-3.1-1.94-3.1-3.24s1.3-3.67,6.12-3.67c5.18,0,7.49,2.74,7.56,5.69l8.71-.14a13,13,0,0,0-5.26-9.65c-2.16-1.51-5.55-2.81-10.87-2.81-10.58,0-15.26,5.69-15.26,12a9.44,9.44,0,0,0,2.59,6.91c1.29,1.37,2.88,2.52,7,3.38l7.92,1.8c4.61,1,5.18,2.45,5.18,4.18s-1.51,4.1-6.91,4.1c-5.18,0-7.85-2.73-8.13-6.55Zm-25.85,12.24h9.86V715.42c0-5.47,1.37-8,3-9.72a8.84,8.84,0,0,1,6.7-2.88,11.5,11.5,0,0,1,1.66.14l0.07-8.71a14.21,14.21,0,0,0-2.09-.22,9.45,9.45,0,0,0-9.14,6.55L161.38,695h-9.72v36.65Zm-18.36-4.18a11.57,11.57,0,0,0,1.22,4.18h10a6.2,6.2,0,0,1-1.65-3.82L143,707.79c0-8.78-4.61-14-16.56-14-11.09,0-15.69,6-15.48,12.24l8.71,0.14c0-2.74,2.09-5.33,7.06-5.33s6.48,2.38,6.48,4.11c0,1.51-.94,2.88-3.6,3.38l-5.62.94c-8.13,1.44-10.3,3-11.81,4.32a9.94,9.94,0,0,0-3.38,7.63c0,6.05,4.75,11.52,14,11.52C128.12,732.7,131.22,730.9,133.31,727.51Zm0.07-15.12L133.31,717c0,5.18-3.24,8.42-8.85,8.42-4.11,0-6.05-2.45-6.05-4.68,0-1.73.58-3.67,6.77-5.4l4.25-1.15A12,12,0,0,0,133.38,712.4Z" transform="translate(-1 -0.69)"/><path class="c" d="M343.32,136.92l-44.67,95.19L254,136.92c5.29,3.23,12.93,5.88,22.63,7.64a127.75,127.75,0,0,0,22,2.06,125.27,125.27,0,0,0,22-2.06C330.67,142.8,338,140.15,343.32,136.92ZM302.7,392.27H429.59V364.05l-38.15,0V134.32l-27.33-6.85V364.07h-61.4V245.69l55.53-124.28,45,11.76c0,96.95,30,122.5,30.55,123.09V457.8l-131,.31V441.05H429.58V413.74H302.73Zm-8.67,0,0,21.46H167.31l0,27.32H294.15l0.06,17-131.33-.28V256.2s30.56-25.26,30.56-123.09l45.25-11.46,54.94,124L294,364l-62.35,0V127.87l-27.31,6.83V364h-37l0,28.21H294ZM36.42,298.33c0,144.79,117.43,262.21,262.21,262.21S560.78,443.11,560.78,298.33,443.42,36.18,298.63,36.18,36.42,153.54,36.42,298.33Z" transform="translate(-1 -0.69)"/></svg>