<?xml version="1.0" encoding="UTF-8"?>
<svg id="Lager_1" data-name="Lager 1" xmlns="http://www.w3.org/2000/svg" viewBox="0 0 153.09 218.69">
  <defs>
    <style>
      .cls-1 {
        fill: #1a4080;
      }

      .cls-1, .cls-2 {
        fill-rule: evenodd;
      }

      .cls-2 {
        fill: #fff;
      }
    </style>
  </defs>
  <polyline class="cls-2" points="0 218.69 153.09 218.69 153.09 0 0 0 0 218.69"/>
  <path class="cls-1" d="M86.67,29.16l-10.1,21.27-10.09-21.27c1.2.72,2.92,1.31,5.12,1.71,1.53.26,3.18.46,4.98.46s3.52-.2,4.98-.46c2.26-.39,3.92-.98,5.12-1.71ZM77.5,86.24h28.69v-6.31s-8.62,0-8.62,0V28.59s-6.18-1.53-6.18-1.53v52.88h-13.88v-26.46l12.56-27.77,10.16,2.63c0,21.67,6.78,27.38,6.91,27.51v45.04l-29.63.07v-3.81h28.68v-6.1h-28.68s0-4.8,0-4.8ZM75.54,86.23v4.8s-28.65,0-28.65,0v6.1s28.68,0,28.68,0v3.8s-29.68-.06-29.68-.06v-45.04s6.91-5.65,6.91-27.51l10.23-2.56,12.42,27.71.08,26.45h-14.1s0-52.77,0-52.77l-6.18,1.53v51.25h-8.38v6.3h28.66ZM17.28,65.24c0,32.36,26.55,58.6,59.29,58.6s59.27-26.24,59.27-58.6S109.31,6.65,76.57,6.65s-59.29,26.23-59.29,58.59Z"/>
  <polyline class="cls-1" points="10.06 133.73 143.05 133.73 143.05 208.96 10.06 208.96 10.06 133.73"/>
  <path class="cls-2" d="M49.28,150.27l1.8-5.67,1.68,5.67h-3.48ZM105.44,154.14l.11.96h2.52l-.02-13.11h-2.54v4.76c-.46-.74-1.52-1.37-2.72-1.37-2.11,0-4.18,1.76-4.18,5.06,0,1.5.48,2.74,1.22,3.61.78.94,1.74,1.37,2.87,1.37s2.07-.44,2.74-1.28ZM103.44,153.23c-1.18,0-2.24-.85-2.24-2.85,0-2.24,1.09-3.04,2.15-3.04s2.13.8,2.13,2.96-1.09,2.91-2.04,2.92ZM88.39,155.1h2.54l.02-5.28c0-.74.15-1.09.35-1.39.33-.48.93-.8,1.54-.8.87,0,1.5.57,1.5,1.63v5.83h2.54v-6.65c0-1.76-1.3-3.11-3.26-3.11-1.35,0-2.3.72-2.61,1.46l-.11-1.11-2.48-.02-.02,9.42ZM83.67,154.03c.06.37.19.78.33,1.07h2.57c-.15-.13-.41-.55-.41-1.33l-.02-4.81c-.04-.83-.09-1.07-.15-1.28-.37-1.3-1.43-2.33-3.98-2.33-2.94,0-4.09,1.5-4.09,3.15l2.22.04c.11-.63.2-.76.41-.94.22-.22.7-.44,1.46-.44,1.19,0,1.65.63,1.65,1.07s-.3.76-.98.89l-2.54.44c-1.91.33-2.79,1.57-2.79,2.81,0,1.63,1.26,3.02,3.54,3.02,1.57,0,2.43-.63,2.78-1.35ZM83.69,150.08l-.02,1.41c-.05,1.19-.85,2-2.24,2-1.05,0-1.57-.63-1.57-1.18,0-.44.22-1.02,1.72-1.39l1.11-.3c.41-.09.76-.3,1-.54ZM82.17,144.55l2.54.02.02-2.57h-2.55v2.56ZM78.85,144.55h2.54l.02-2.57h-2.54l-.02,2.57ZM71.23,155.1h2.52l3.2-9.42h-2.56l-1.89,6.2-1.87-6.19h-2.57l3.17,9.41ZM58.38,155.1h2.54l.02-5.28c0-.74.15-1.09.35-1.39.33-.48.93-.8,1.54-.8.87,0,1.5.57,1.5,1.63v5.83h2.54v-6.65c0-1.76-1.3-3.11-3.26-3.11-1.35,0-2.3.72-2.61,1.46l-.11-1.11-2.48-.02-.02,9.42ZM45.01,155.1h2.74l.89-2.76h4.74l.85,2.76h2.78l-4.5-13.11h-2.91l-4.59,13.11Z"/>
  <path class="cls-2" d="M21.56,177.46h2.52l3.22-9.42h-2.57l-1.89,6.2-1.87-6.19h-2.57l3.17,9.41ZM134.64,177.46v-1.94h-.94c-.3,0-.59-.17-.72-.35-.05-.07-.13-.22-.13-.74v-4.67h1.7v-1.72h-1.7l-.02-2.98h-2.52v2.98h-1.31v1.74l1.33-.02v4.87c0,2.13.87,2.83,2.26,2.83h2.06ZM120.86,173.44l7,.02c0-2.8-1.26-5.76-4.78-5.76s-4.72,2.87-4.72,5.02c0,3.13,2.07,5.07,4.7,5.07s4.24-1.43,4.63-3.07l-2.54-.17c-.5.87-1.15,1.22-1.96,1.22-1.2,0-2.19-.81-2.33-2.33ZM120.98,171.61c.15-1.15,1.11-1.93,2.07-1.93,1.02,0,1.91.7,2.09,1.93h-4.17ZM108.03,174.31c.04,1.78,1.54,3.48,4.43,3.48s4.24-1.57,4.24-3.26c0-.59-.22-1.19-.59-1.65-.35-.44-.81-.78-1.93-1.04l-2.7-.63c-.57-.15-.8-.5-.8-.83,0-.37.33-.94,1.57-.94,1.33,0,1.93.7,1.94,1.46l2.24-.04c-.04-.95-.56-1.89-1.35-2.48-.55-.39-1.43-.72-2.8-.72-2.72,0-3.93,1.46-3.93,3.07,0,.76.22,1.3.67,1.78.33.35.74.65,1.8.87l2.04.46c1.19.26,1.33.63,1.33,1.07,0,.41-.39,1.06-1.78,1.06s-2.02-.7-2.09-1.69l-2.3.02ZM103.63,176.5l.11.96h2.52l-.02-13.11h-2.54v4.76c-.46-.74-1.52-1.37-2.72-1.37-2.11,0-4.19,1.76-4.19,5.05,0,1.5.48,2.74,1.22,3.61.78.94,1.74,1.37,2.87,1.37s2.07-.44,2.74-1.28ZM101.63,175.59c-1.19,0-2.24-.85-2.24-2.85,0-2.24,1.09-3.04,2.15-3.04s2.13.8,2.13,2.96-1.09,2.91-2.04,2.92ZM92.44,176.39c.06.37.19.78.33,1.07h2.57c-.15-.13-.41-.55-.41-1.33l-.02-4.81c-.04-.83-.09-1.07-.15-1.28-.37-1.3-1.43-2.33-3.98-2.33-2.94,0-4.09,1.5-4.09,3.15l2.22.04c.11-.63.2-.76.41-.94.22-.22.7-.44,1.46-.44,1.19,0,1.65.63,1.65,1.07s-.3.76-.98.89l-2.54.45c-1.91.33-2.8,1.57-2.8,2.81,0,1.63,1.24,3.02,3.54,3.02,1.55,0,2.42-.63,2.78-1.35ZM92.46,172.44l-.02,1.41c-.05,1.19-.85,2-2.24,2-1.06,0-1.57-.63-1.57-1.19,0-.44.22-1.02,1.72-1.39l1.09-.3c.43-.09.76-.3,1.02-.54ZM90.94,166.91l2.54.02.02-2.57h-2.56v2.56ZM87.63,166.91h2.54l.02-2.57h-2.54l-.02,2.57ZM82.07,177.46h2.54v-13.11h-2.52l-.02,13.11ZM71.52,177.46h2.54v-3.09l1.05-1.05,2.57,4.15h3.11l-3.89-5.79,3.39-3.63h-3l-3.24,3.59-.02-7.28h-2.52v13.11ZM67.02,177.46h2.54v-13.11h-2.52l-.02,13.11ZM58.23,173.44l7,.02c0-2.8-1.26-5.76-4.78-5.76s-4.72,2.87-4.72,5.02c0,3.13,2.07,5.07,4.7,5.07s4.24-1.43,4.63-3.07l-2.54-.17c-.5.87-1.15,1.22-1.96,1.22-1.2,0-2.18-.81-2.33-2.33ZM58.34,171.61c.15-1.15,1.11-1.93,2.07-1.93,1.02,0,1.91.7,2.09,1.93h-4.17ZM45.4,174.31c.04,1.78,1.54,3.48,4.42,3.48s4.24-1.57,4.24-3.26c0-.59-.22-1.19-.59-1.65-.35-.44-.82-.78-1.93-1.04l-2.7-.63c-.57-.15-.8-.5-.8-.83,0-.37.33-.94,1.57-.94,1.33,0,1.93.7,1.94,1.46l2.24-.04c-.04-.95-.56-1.89-1.35-2.48-.55-.39-1.43-.72-2.8-.72-2.72,0-3.92,1.46-3.92,3.07,0,.76.22,1.3.67,1.78.33.35.74.65,1.8.87l2.04.46c1.18.26,1.33.63,1.33,1.07,0,.41-.39,1.06-1.78,1.06s-2.02-.7-2.09-1.69l-2.3.02ZM38.75,177.46h2.54v-4.18c0-1.41.35-2.06.76-2.5.48-.5,1.04-.74,1.72-.74.15,0,.3.02.43.04l.02-2.24c-.13-.02-.33-.06-.54-.06-1.11,0-2.06.7-2.35,1.68l-.07-1.42h-2.5v9.42ZM34.03,176.39c.06.46.17.8.31,1.07h2.57c-.31-.39-.41-.67-.42-.98l.02-5.17c0-2.26-1.18-3.61-4.26-3.61-2.85,0-4.04,1.56-3.98,3.15l2.24.04c0-.7.54-1.37,1.81-1.37s1.67.61,1.67,1.06c0,.39-.24.74-.93.87l-1.44.24c-2.09.37-2.65.76-3.04,1.11-.57.5-.87,1.2-.87,1.96,0,1.56,1.22,2.96,3.59,2.96,1.39,0,2.19-.46,2.72-1.33ZM34.04,172.5l-.02,1.19c0,1.33-.83,2.17-2.28,2.17-1.06,0-1.56-.63-1.56-1.2,0-.44.15-.94,1.74-1.39l1.09-.3c.48-.13.81-.31,1.02-.46Z"/>
</svg>