<svg xmlns="http://www.w3.org/2000/svg" viewBox="0 0 595.28 850.37"><defs><style>.a{fill:#e5e8eb;}.a,.b,.c{fill-rule:evenodd;}.b{fill:#000100;}.c{fill:#1e3b72;}</style></defs><title>M016_C</title><polyline class="a" points="0 850.37 595.28 850.37 595.28 0 0 0 0 850.37"/><path class="b" d="M84.35,626.1l6.91-22,6.62,22H84.35ZM493.3,644.89h9.86l-0.07-12,4.18-4.1,10.08,16.13h12l-15-22.53,13.1-14.11H515.76l-12.6,14-0.07-28.3h-9.86Zm-41-12.24c0.21,6.91,6,13.54,17.28,13.54S486,640.07,486,633.51a10.35,10.35,0,0,0-2.23-6.41c-1.37-1.73-3.17-3-7.49-4l-10.51-2.45c-2.23-.58-3.17-1.94-3.17-3.24s1.37-3.67,6.12-3.67c5.26,0,7.56,2.74,7.63,5.69l8.64-.14a12.77,12.77,0,0,0-5.26-9.65c-2.09-1.51-5.47-2.81-10.87-2.81-10.51,0-15.19,5.68-15.19,11.95a9.74,9.74,0,0,0,2.52,6.91c1.3,1.37,3,2.52,7.06,3.38l7.92,1.8c4.61,1,5.18,2.45,5.18,4.18s-1.58,4.1-7,4.1c-5.18,0-7.78-2.73-8.06-6.55Zm-16.92,8.06a11.62,11.62,0,0,0,1.15,4.17h10.08a5.47,5.47,0,0,1-1.66-3.81V621c0-8.78-4.54-14-16.49-14-11.09,0-15.7,6-15.48,12.24l8.71,0.14c0-2.73,2-5.33,7.06-5.33,4.82,0,6.41,2.38,6.41,4.11,0,1.51-.94,2.88-3.6,3.38l-5.61.94c-8.06,1.44-10.22,3-11.81,4.32a10.21,10.21,0,0,0-3.38,7.63c0,6,4.75,11.52,14,11.52C430.09,645.9,433.25,644.1,435.34,640.72Zm0.07-15.12-0.07,4.61c0,5.18-3.24,8.43-8.85,8.43-4.1,0-6.12-2.45-6.12-4.68,0-1.73.58-3.67,6.84-5.4l4.25-1.15A12.06,12.06,0,0,0,435.41,625.59Zm-85.1,19.29h9.86l0.07-21.16c0-5.26,3-7.92,6.91-7.92a4.88,4.88,0,0,1,4.9,3.1c0.14,0.36.43,1.15,0.43,4v22h9.79V623.15c0-4.75,2.88-7.49,6.77-7.49,3.38,0,5.61,2,5.61,6.33v22.9h9.72l-0.07-25.7c-0.21-7.7-5.11-12.09-11.74-12.09a12.33,12.33,0,0,0-11.3,6.41,11.75,11.75,0,0,0-10.73-6.41c-5,0-8.28,2.16-10.22,5.83L360,608.31l-9.57-.07Zm-47.59-3.74,0.36,3.74h9.79v-51h-9.94v18.51c-1.73-2.88-5.83-5.33-10.51-5.33-8.14,0-16.27,6.84-16.27,19.65a21.4,21.4,0,0,0,4.75,14,13.89,13.89,0,0,0,11.16,5.33A13.05,13.05,0,0,0,302.72,641.15Zm-7.7-3.53c-4.68,0-8.71-3.31-8.71-11.09,0-8.71,4.25-11.81,8.28-11.81s8.28,3.1,8.28,11.52C302.86,634.31,298.62,637.55,295,637.62Zm-58.61,7.27h9.87l0.07-20.52c0-2.88.58-4.25,1.36-5.4a7.4,7.4,0,0,1,6-3.1c3.38,0,5.9,2.23,5.9,6.33l-0.07,22.68h9.86V619c0-6.84-5-12.09-12.6-12.09-5.25,0-8.93,2.81-10.22,5.69l-0.36-4.32-9.72-.07Zm-18.29-4.17a12.88,12.88,0,0,0,1.3,4.17h9.94c-0.58-.5-1.51-2.16-1.51-5.18L227.7,621a18.51,18.51,0,0,0-.51-5c-1.51-5-5.61-9.07-15.55-9.07-11.38,0-15.91,5.83-15.91,12.24l8.71,0.14c0.36-2.45.72-3,1.51-3.67s2.81-1.73,5.76-1.73c4.61,0,6.34,2.45,6.34,4.18s-1.08,3-3.74,3.45l-9.94,1.73c-7.42,1.29-10.87,6.12-10.87,10.94,0,6.34,4.9,11.74,13.75,11.74C213.37,646,216.76,643.52,218.12,640.72Zm0-15.34v5.47c-0.29,4.61-3.38,7.78-8.71,7.78-4.18,0-6.12-2.45-6.12-4.61,0-1.73.86-4,6.7-5.4l4.25-1.15A8.13,8.13,0,0,0,218.12,625.38Zm-5.9-21.53,9.94,0.07v-10h-9.86Zm-12.82,0h9.87l0.07-10h-9.86Zm-29.74,41h9.72l12.53-36.64h-10l-7.35,24.12-7.27-24.05h-10Zm-50,0h9.86l0.07-20.52c0-2.88.58-4.25,1.37-5.4a7.39,7.39,0,0,1,6-3.1c3.38,0,5.9,2.23,5.9,6.33l-0.07,22.68h9.87V619c0-6.84-5-12.09-12.6-12.09-5.26,0-8.93,2.81-10.22,5.69l-0.36-4.32-9.72-.07Zm-52,0H78.37l3.39-10.72h18.5l3.24,10.72h10.8l-17.42-51H85.58Z" transform="translate(-0.92 -0.96)"/><path class="c" d="M203.6,245A16.91,16.91,0,1,0,220.51,228,16.94,16.94,0,0,0,203.6,245Zm63.56,148.64,0.38,3.85A30,30,0,0,1,246.63,427l-3.84,1v30.51a15.32,15.32,0,0,0,15.37,15.26H382.29a15.45,15.45,0,0,0,15.45-15.45V430.64a183.53,183.53,0,0,1,1.91-29.07l1.54-9.6-134,1.83v-0.19ZM461.42,243C445.53,69.86,210,48.95,163.91,216.58l-14.8,61.52H143a7.35,7.35,0,0,0-7.28,5.75A213,213,0,0,0,161,435.17a7.33,7.33,0,0,0,7.38,3.46l59.72-8.55v28.39a30,30,0,0,0,30.07,29.94H382.32c12.19,0,23.68-7,27.84-18.62l1.34-3.74c2.79-32.4-1.85-55.17,8.25-88.94,2.07-6.91,4.2-13.81,6.82-20.54,10-25.73,24.77-41.47,30.91-69.67C460.62,272.49,462.78,257.73,461.42,243ZM446.7,244.3l-0.77-8.54C423.56,85.13,218.09,73.09,178.27,220l-14.22,58.62,54.54,2.22a38,38,0,0,1,30.15,17.46l2.1,4ZM446.41,264l-191,56.51,9.11,56.41L405,375.08l3.36-11.52c8-29.32,29.66-52.81,35.42-82.89l1.54-8.36ZM36.35,298.6c0,144.79,117.43,262.22,262.21,262.22S560.71,443.39,560.71,298.6,443.35,36.46,298.56,36.46,36.35,153.82,36.35,298.6Z" transform="translate(-0.92 -0.96)"/></svg>