<?xml version="1.0" encoding="UTF-8"?>
<svg id="Lager_1" data-name="Lager 1" xmlns="http://www.w3.org/2000/svg" viewBox="0 0 153.09 218.69">
  <defs>
    <style>
      .cls-1 {
        fill: #1a4080;
      }

      .cls-1, .cls-2 {
        fill-rule: evenodd;
      }

      .cls-2 {
        fill: #fff;
      }
    </style>
  </defs>
  <polyline class="cls-2" points="0 218.69 153.09 218.69 153.09 0 0 0 0 218.69"/>
  <path class="cls-1" d="M55.23,53.21c0,2.09,1.71,3.8,3.8,3.8s3.8-1.71,3.8-3.8-1.7-3.8-3.8-3.8-3.8,1.71-3.8,3.8ZM69.51,86.59l.09.86c.07,3.04-1.8,5.69-4.7,6.64l-.86.22v6.85c0,1.9,1.56,3.43,3.45,3.43h27.88c1.92,0,3.47-1.55,3.47-3.47v-6.21c0-2.18.08-4.37.43-6.53l.35-2.16-30.1.41v-.04ZM113.15,52.74c-3.57-38.88-56.46-43.57-66.82-5.93l-3.32,13.82h-1.38c-.78,0-1.48.52-1.64,1.29-2.4,11.64-.35,23.75,5.69,33.98.34.58,1,.87,1.66.78l13.41-1.92v6.38c0,3.72,3.03,6.72,6.75,6.72h27.88c2.74,0,5.32-1.56,6.25-4.18l.3-.84c.63-7.28-.42-12.39,1.85-19.97.47-1.55.94-3.1,1.53-4.61,2.26-5.78,5.56-9.31,6.94-15.65.71-3.24,1.19-6.55.89-9.87ZM109.82,53.05l-.17-1.92c-5.03-33.83-51.17-36.53-60.11-3.53l-3.19,13.17,12.25.5c2.79.14,5.25,1.59,6.77,3.92l.47.91,43.99-13.04ZM109.76,57.46l-42.9,12.69,2.04,12.67,31.57-.41.75-2.59c1.8-6.58,6.66-11.86,7.96-18.62l.35-1.88.24-1.87ZM17.68,65.24c0,32.52,26.37,58.89,58.89,58.89s58.87-26.37,58.87-58.89S109.08,6.37,76.57,6.37s-58.89,26.36-58.89,58.87Z"/>
  <polyline class="cls-1" points="10.06 133.7 143.05 133.7 143.05 208.94 10.06 208.94 10.06 133.7"/>
  <path class="cls-2" d="M21.45,150.23l1.78-5.67,1.7,5.67h-3.48ZM126.62,155.06h2.54l-.02-3.09,1.07-1.06,2.59,4.15h3.09l-3.87-5.8,3.37-3.63h-3l-3.24,3.59-.02-7.28h-2.54l.02,13.11ZM116.07,151.92c.06,1.78,1.54,3.48,4.44,3.48s4.22-1.57,4.22-3.26c0-.59-.2-1.18-.57-1.65-.35-.45-.82-.78-1.93-1.04l-2.7-.63c-.57-.15-.82-.5-.82-.83,0-.37.35-.94,1.57-.94,1.35,0,1.94.7,1.96,1.46l2.22-.04c-.04-.94-.54-1.89-1.35-2.48-.54-.39-1.41-.72-2.8-.72-2.7,0-3.91,1.46-3.91,3.07,0,.76.22,1.3.65,1.78.33.35.76.65,1.82.87l2.04.46c1.18.26,1.33.63,1.33,1.07,0,.41-.41,1.06-1.8,1.06s-2-.7-2.07-1.68l-2.31.02ZM111.72,153.99c.06.46.15.8.3,1.07h2.59c-.33-.39-.43-.67-.43-.98v-5.17c0-2.26-1.17-3.61-4.24-3.61-2.85,0-4.04,1.56-3.98,3.15l2.24.04c0-.7.52-1.37,1.81-1.37s1.65.61,1.65,1.06c0,.39-.24.74-.93.87l-1.44.24c-2.07.37-2.63.76-3.04,1.11-.56.5-.87,1.2-.87,1.96,0,1.55,1.22,2.96,3.61,2.96,1.37,0,2.18-.46,2.72-1.33ZM111.74,150.1l-.02,1.18c0,1.33-.83,2.17-2.28,2.17-1.06,0-1.57-.63-1.57-1.2,0-.45.15-.95,1.76-1.39l1.09-.3c.48-.13.81-.32,1.02-.46ZM89.85,155.06h2.54l.02-5.44c0-1.35.76-2.04,1.78-2.04.67,0,1.07.33,1.26.8.04.09.11.3.11,1.04v5.65h2.52v-5.59c0-1.22.74-1.92,1.74-1.92.87,0,1.44.52,1.44,1.63v5.89h2.5l-.02-6.61c-.06-1.98-1.32-3.11-3.02-3.11-1.31,0-2.33.61-2.91,1.65-.48-.98-1.52-1.65-2.76-1.65s-2.13.56-2.63,1.5l-.09-1.18-2.46-.02-.02,9.43ZM77.61,154.1l.09.96h2.52v-13.11h-2.56v4.76c-.44-.74-1.5-1.37-2.7-1.37-2.09,0-4.18,1.76-4.18,5.05,0,1.5.48,2.74,1.22,3.61.78.94,1.76,1.37,2.87,1.37s2.07-.45,2.74-1.28ZM75.63,153.19c-1.2,0-2.24-.85-2.24-2.85,0-2.24,1.09-3.04,2.13-3.04s2.13.8,2.13,2.96-1.09,2.91-2.02,2.93ZM60.56,155.06h2.54l.02-5.28c0-.74.15-1.09.35-1.39.33-.48.93-.8,1.54-.8.87,0,1.52.57,1.52,1.63l-.02,5.83h2.54v-6.65c0-1.76-1.3-3.11-3.24-3.11-1.35,0-2.3.72-2.63,1.46l-.09-1.11-2.5-.02-.02,9.43ZM55.86,153.99c.06.37.17.78.33,1.07h2.56c-.15-.13-.39-.56-.39-1.33l-.04-4.81c-.02-.83-.07-1.07-.13-1.28-.39-1.3-1.44-2.33-4-2.33-2.93,0-4.09,1.5-4.09,3.15l2.24.04c.09-.63.19-.76.39-.94.24-.22.72-.45,1.48-.45,1.18,0,1.63.63,1.63,1.07s-.28.76-.96.89l-2.56.44c-1.91.33-2.8,1.57-2.8,2.82,0,1.63,1.26,3.02,3.54,3.02,1.57,0,2.44-.63,2.8-1.35ZM55.86,150.05v1.41c-.07,1.18-.87,2-2.24,2-1.07,0-1.57-.63-1.57-1.18,0-.44.22-1.02,1.72-1.39l1.09-.3c.41-.09.76-.3,1-.54ZM54.34,144.51l2.56.02v-2.57h-2.54l-.02,2.55ZM51.04,144.51h2.54l.02-2.57h-2.54l-.02,2.57ZM43.4,155.06h2.5l3.22-9.43h-2.57l-1.89,6.2-1.87-6.18h-2.57l3.18,9.41ZM30.53,155.06h2.54l.02-5.28c0-.74.15-1.09.35-1.39.33-.48.93-.8,1.54-.8.87,0,1.52.57,1.52,1.63l-.02,5.83h2.54v-6.65c0-1.76-1.3-3.11-3.24-3.11-1.35,0-2.3.72-2.63,1.46l-.09-1.11-2.5-.02-.02,9.43ZM17.16,155.06h2.76l.87-2.76h4.76l.83,2.76h2.78l-4.48-13.11h-2.91l-4.61,13.11Z"/>
</svg>