<?xml version="1.0" encoding="UTF-8"?>
<svg id="Lager_1" data-name="Lager 1" xmlns="http://www.w3.org/2000/svg" viewBox="0 0 153.09 218.69">
  <defs>
    <style>
      .cls-1 {
        fill: #1a4080;
      }

      .cls-1, .cls-2 {
        fill-rule: evenodd;
      }

      .cls-2 {
        fill: #fff;
      }
    </style>
  </defs>
  <polyline class="cls-2" points="0 218.69 153.09 218.69 153.09 0 0 0 0 218.69"/>
  <path class="cls-1" d="M85.74,111.52c0,.63.96,1.15,2.12,1.15s2.11-.52,2.11-1.15-.94-1.15-2.11-1.15-2.12.51-2.12,1.15ZM78.96,110.19c0,.63.96,1.15,2.12,1.15s2.11-.52,2.11-1.15-.94-1.15-2.11-1.15-2.12.51-2.12,1.15ZM72.28,110.06c0,.63.96,1.15,2.12,1.15s2.11-.52,2.11-1.15-.94-1.15-2.11-1.15-2.12.51-2.12,1.15ZM64.83,110.98c0,.63.96,1.15,2.12,1.15s2.11-.52,2.11-1.15-.94-1.15-2.11-1.15-2.12.51-2.12,1.15ZM67.35,108.34c0,.63.96,1.15,2.12,1.15s2.11-.52,2.11-1.15-.94-1.15-2.11-1.15-2.12.51-2.12,1.15ZM60.02,106.78c0,.63.96,1.15,2.12,1.15s2.11-.52,2.11-1.15-.94-1.15-2.11-1.15-2.12.51-2.12,1.15ZM91.14,107.32c0,.63.96,1.15,2.12,1.15s2.11-.52,2.11-1.15-.94-1.15-2.11-1.15-2.12.51-2.12,1.15ZM83.87,108.65c0,.63.96,1.15,2.12,1.15s2.11-.52,2.11-1.15-.94-1.15-2.11-1.15-2.12.51-2.12,1.15ZM75.87,106.93c0,.63.96,1.15,2.12,1.15s2.11-.52,2.11-1.15-.94-1.14-2.11-1.14-2.12.51-2.12,1.14ZM84.49,105.74c0,.64,1.05,1.16,2.33,1.16s2.32-.52,2.32-1.16-1.03-1.15-2.32-1.15-2.33.51-2.33,1.15ZM67.05,105.44c0,.64,1.05,1.16,2.33,1.16s2.32-.52,2.32-1.16-1.03-1.15-2.32-1.15-2.33.51-2.33,1.15ZM64.51,102.28c0,.64,1.05,1.16,2.33,1.16s2.32-.52,2.32-1.16-1.03-1.15-2.32-1.15-2.33.51-2.33,1.15ZM87.5,102.67c0,.64,1.05,1.16,2.33,1.16s2.32-.52,2.32-1.16-1.03-1.15-2.32-1.15-2.33.51-2.33,1.15ZM79.52,103.61c0,.64,1.05,1.16,2.33,1.16s2.32-.52,2.32-1.16-1.03-1.15-2.32-1.15-2.33.51-2.33,1.15ZM72.19,103.35c0,.64,1.05,1.16,2.33,1.16s2.32-.52,2.32-1.16-1.03-1.15-2.32-1.15-2.33.51-2.33,1.15ZM76.19,100.33c0,.64,1.05,1.16,2.33,1.16s2.32-.52,2.32-1.16-1.03-1.15-2.32-1.15-2.33.51-2.33,1.15ZM80.72,56.62c0,4.54,4.22,8.22,9.42,8.22s9.42-3.68,9.42-8.22-4.22-8.22-9.42-8.22-9.42,3.68-9.42,8.22ZM55.97,56.62c0,4.54,4.22,8.22,9.42,8.22s9.42-3.68,9.42-8.22-4.22-8.22-9.42-8.22-9.42,3.68-9.42,8.22ZM108.52,73.41l-.56.73c-1.2,1.3-2.23,2.33-3.75.86l-.37-.13-.41-4.65c-.27-3.11-.32-6.23-.32-9.35v-16.79c0-.39-.26-.73-.65-.82-8.11-1.85-16.39-2.89-24.71-3.04-8.34-.15-16.6,1.18-24.71,3.04-.38.09-.63.44-.63.82v16.79c0,3.12-.08,6.24-.34,9.35l-.39,4.65-.37.13c-.36.13-.58.52-.95.63-3.13.92-6.96-8.82-7.29-10.89l-.39-1.87-.24-1.9c-.32-1.71.83-5.89,3.06-3.45l.28.33c1.15,1.33,3.08.05,2.78-1.53-.8-4.33-.97-8.77-.02-13.09,1.63-7.44,6.07-13.98,12.36-18.27,2.6-1.77,5.47-3.11,8.49-3.99,18.08-5.24,36.38,7.24,38.15,25.97.3,3.14-.02,6.29-.63,9.38-.32,1.61,1.67,2.94,2.8,1.53.17-.21.33-.42.5-.63.54-.68,1.61-.68,2.07.09l.19.32c.84,1.88.67,3.22.33,5.24-.65,3.78-1.95,7.47-4.29,10.54ZM114.39,55c5.8,3.92-2.02,25.16-9.19,24.05l-.6-.13-.47,2.09c-1.19,4.84-3.4,9.42-6.38,13.41v8.34l-.54-.43c-.92-.71-2.04-1.33-3.1-1.81l-1.42-.6-1.19.97,1.08.43c14.27,7.24-5.44,13.21-12.66,12.76l-1.55.04.39-.08.35-.13c1.51-.75.53-1.83-.73-2l-.41-.04h-.41c-1.25-.03-2.96,1.16-1.14,2.05l.34.13.37.08-1.53-.04c-7.23.45-26.89-5.55-12.61-12.76l1.06-.43-1.16-.97-1.45.6c-1.06.5-2.15,1.1-3.08,1.81l-.54.43v-8.34c-3.04-4.06-5.15-8.5-6.41-13.41l-.45-2.09-.61.13c-7.68,1.25-17.15-24.66-6.36-25.09h.8l-.19-2.03c-.56-47.17,66.92-47.17,66.4,0l-.2,2.03h.8c1.03,0,1.98.46,2.82,1.03ZM88.74,98.69l-1.27-.28c-6.28-1.23-13.13-1.23-19.41,0l-1.27.28,1.61.93c5.54-1.15,11.81-1.19,17.38-.26l1.36.26,1.6-.93ZM97.56,88.55l-.95-.58c-9.33-5.44-28.35-5.45-37.67,0l-.95.6.86,1.44.84-.54c8.81-5.21,27.34-5.21,36.14,0l.86.54.86-1.47ZM17.68,65.24c0,32.52,26.37,58.89,58.89,58.89s58.87-26.37,58.87-58.89S109.09,6.37,76.57,6.37s-58.89,26.36-58.89,58.87Z"/>
  <polyline class="cls-1" points="10.06 133.7 143.05 133.7 143.05 208.94 10.06 208.94 10.06 133.7"/>
  <path class="cls-2" d="M49.28,150.23l1.8-5.67,1.69,5.67h-3.48ZM105.44,154.1l.11.96h2.52l-.02-13.11h-2.54v4.76c-.46-.74-1.52-1.37-2.72-1.37-2.11,0-4.18,1.76-4.18,5.05,0,1.5.48,2.74,1.22,3.61.78.95,1.74,1.37,2.87,1.37s2.07-.45,2.74-1.28ZM103.44,153.19c-1.18,0-2.24-.85-2.24-2.85,0-2.24,1.09-3.04,2.15-3.04s2.13.8,2.13,2.96-1.09,2.91-2.04,2.93ZM88.39,155.06h2.54l.02-5.28c0-.74.15-1.09.35-1.39.33-.48.93-.8,1.54-.8.87,0,1.5.57,1.5,1.63v5.83h2.54v-6.65c0-1.76-1.3-3.11-3.26-3.11-1.35,0-2.3.72-2.61,1.46l-.11-1.11-2.48-.02-.02,9.42ZM83.67,153.99c.06.37.18.78.33,1.07h2.57c-.15-.13-.41-.56-.41-1.33l-.02-4.81c-.04-.83-.09-1.07-.15-1.28-.37-1.3-1.43-2.33-3.98-2.33-2.94,0-4.09,1.5-4.09,3.15l2.22.04c.11-.63.2-.76.41-.95.22-.22.7-.44,1.46-.44,1.18,0,1.65.63,1.65,1.07s-.3.76-.98.89l-2.54.44c-1.91.33-2.8,1.57-2.8,2.82,0,1.63,1.26,3.02,3.54,3.02,1.57,0,2.42-.63,2.78-1.35ZM83.69,150.05l-.02,1.41c-.06,1.18-.85,2-2.24,2-1.05,0-1.57-.63-1.57-1.19,0-.44.22-1.02,1.72-1.39l1.11-.3c.41-.09.76-.3,1-.54ZM82.17,144.51l2.54.02.02-2.57h-2.56v2.55ZM78.85,144.51h2.54l.02-2.57h-2.54l-.02,2.57ZM71.23,155.06h2.52l3.2-9.42h-2.56l-1.89,6.2-1.87-6.18h-2.57l3.17,9.41ZM58.38,155.06h2.54l.02-5.28c0-.74.15-1.09.35-1.39.33-.48.93-.8,1.54-.8.87,0,1.5.57,1.5,1.63v5.83h2.54v-6.65c0-1.76-1.3-3.11-3.26-3.11-1.35,0-2.3.72-2.61,1.46l-.11-1.11-2.48-.02-.02,9.42ZM45.01,155.06h2.74l.89-2.76h4.74l.85,2.76h2.78l-4.5-13.11h-2.91l-4.59,13.11Z"/>
  <path class="cls-2" d="M20.73,170.91v1.18c0,1.33-.79,2.17-2.15,2.17-1.01,0-1.48-.63-1.48-1.2,0-.44.14-.94,1.64-1.39l1.03-.3c.47-.13.77-.32.96-.46ZM135.88,174.91l.09.96h2.37v-13.11h-2.41v4.76c-.44-.74-1.43-1.37-2.57-1.37-1.99,0-3.94,1.76-3.94,5.05,0,1.5.45,2.74,1.15,3.61.73.94,1.66,1.37,2.71,1.37s1.95-.45,2.6-1.28ZM133.98,174c-1.12,0-2.09-.85-2.09-2.85,0-2.24,1.03-3.04,2.01-3.04s2.01.8,2.01,2.96-1.03,2.91-1.92,2.93ZM125.29,174.91l.09.96h2.37v-13.11h-2.41v4.76c-.44-.74-1.43-1.37-2.57-1.37-1.99,0-3.94,1.76-3.94,5.05,0,1.5.45,2.74,1.15,3.61.73.94,1.66,1.37,2.7,1.37s1.96-.45,2.6-1.28ZM123.39,174c-1.12,0-2.09-.85-2.09-2.85,0-2.24,1.03-3.04,2.01-3.04s2.01.8,2.01,2.96-1.03,2.91-1.92,2.93ZM110.14,176.94v1.98h1.76c2.09,0,2.58-1.74,2.77-2.31l3.37-10.17h-2.53l-1.78,5.83-1.87-5.83h-2.57l2.76,7.94c.17.52.23.87.23,1.3,0,.76-.38,1.28-1.43,1.26h-.71ZM99.59,175.87h2.39v-3.09l.99-1.06,2.44,4.15h2.93l-3.66-5.79,3.19-3.63h-2.83l-3.07,3.59-.02-7.28h-2.37v13.11ZM89.66,172.72c.05,1.78,1.45,3.48,4.17,3.48s4-1.57,4-3.26c0-.59-.19-1.18-.56-1.65-.33-.45-.75-.78-1.8-1.04l-2.57-.63c-.52-.15-.75-.5-.75-.83,0-.37.33-.94,1.48-.94,1.27,0,1.83.7,1.83,1.46l2.11-.04c-.04-.94-.51-1.89-1.27-2.48-.51-.39-1.34-.72-2.63-.72-2.57,0-3.68,1.46-3.68,3.07,0,.76.19,1.3.61,1.78.31.35.7.65,1.69.87l1.92.46c1.13.26,1.26.63,1.26,1.07,0,.41-.37,1.06-1.68,1.06s-1.9-.7-1.97-1.68l-2.16.02ZM79.9,172.72c.05,1.78,1.45,3.48,4.17,3.48s4-1.57,4-3.26c0-.59-.19-1.18-.56-1.65-.33-.45-.75-.78-1.8-1.04l-2.57-.63c-.52-.15-.75-.5-.75-.83,0-.37.33-.94,1.48-.94,1.27,0,1.83.7,1.83,1.46l2.11-.04c-.04-.94-.51-1.89-1.27-2.48-.51-.39-1.34-.72-2.63-.72-2.57,0-3.68,1.46-3.68,3.07,0,.76.19,1.3.61,1.78.31.35.7.65,1.69.87l1.92.46c1.14.26,1.26.63,1.26,1.07,0,.41-.37,1.06-1.68,1.06s-1.9-.7-1.97-1.68l-2.16.02ZM69.75,176.39c.11.89.37,1.39.87,1.89.54.55,1.54,1.07,3.26,1.07,1.92,0,3.12-.76,3.73-1.57.4-.57.61-1.09.61-2.5v-8.83h-2.27l-.07,1.15c-.17-.3-.64-1.48-2.63-1.48-2.15,0-4.01,1.82-4.01,4.72s1.89,4.74,4,4.74c1.41,0,2.3-.68,2.64-1.41v1.02c0,1.59-.68,2.26-2.06,2.26-1.03,0-1.52-.56-1.61-1.15l-2.46.09ZM73.8,173.39c-1.15,0-2.13-.89-2.13-2.63,0-1.52.99-2.48,2.08-2.48s2.09.96,2.09,2.56-1.01,2.55-2.04,2.55ZM59.61,175.87h2.39l.02-5.28c0-.74.14-1.09.33-1.39.31-.48.87-.8,1.45-.8.82,0,1.41.57,1.41,1.63v5.83h2.39v-6.65c0-1.76-1.22-3.11-3.07-3.11-1.27,0-2.16.72-2.46,1.46l-.1-1.11-2.34-.02-.02,9.42ZM55.37,175.87h2.39v-9.42h-2.39v9.42ZM55.39,165.02h2.37v-2.26h-2.37v2.26ZM45.56,175.87h2.39l.02-5.28c0-.74.14-1.09.33-1.39.31-.48.87-.8,1.45-.8.82,0,1.41.57,1.41,1.63v5.83h2.39v-6.65c0-1.76-1.22-3.11-3.07-3.11-1.27,0-2.16.72-2.46,1.46l-.1-1.11-2.34-.02-.02,9.42ZM41.25,174.91l.09.96h2.37v-13.11h-2.41v4.76c-.44-.74-1.43-1.37-2.57-1.37-1.99,0-3.94,1.76-3.94,5.05,0,1.5.45,2.74,1.15,3.61.73.94,1.66,1.37,2.7,1.37s1.96-.45,2.6-1.28ZM39.35,174c-1.12,0-2.09-.85-2.09-2.85,0-2.24,1.03-3.04,2.01-3.04s2.01.8,2.01,2.96-1.03,2.91-1.92,2.93ZM25.16,175.87h2.39l.02-5.28c0-.74.14-1.09.33-1.39.31-.48.87-.8,1.45-.8.82,0,1.41.57,1.41,1.63v5.83h2.39v-6.65c0-1.76-1.22-3.11-3.07-3.11-1.27,0-2.16.72-2.46,1.46l-.1-1.11-2.34-.02-.02,9.42ZM20.73,174.8c.04.46.14.8.28,1.07h2.44c-.31-.39-.4-.67-.4-.98v-5.17c0-2.26-1.1-3.61-4-3.61-2.69,0-3.8,1.55-3.75,3.15l2.09.04c0-.7.51-1.37,1.73-1.37s1.55.61,1.55,1.05c0,.39-.23.74-.87.87l-1.36.24c-1.97.37-2.49.76-2.86,1.11-.52.5-.82,1.2-.82,1.96,0,1.55,1.15,2.96,3.4,2.96,1.29,0,2.06-.46,2.57-1.33Z"/>
</svg>