<svg xmlns="http://www.w3.org/2000/svg" viewBox="0 0 595.28 850.37"><defs><style>.a{fill:#e5e8eb;}.a,.b,.c{fill-rule:evenodd;}.b{fill:#000100;}.c{fill:#1e3b72;}</style></defs><title>M017_C</title><polyline class="a" points="0 850.37 595.28 850.37 595.28 0 0 0 0 850.37"/><path class="b" d="M192.53,626.1l7-22,6.55,22H192.53Zm218.37,15,0.43,3.74h9.8l-0.07-51h-9.86v18.51c-1.8-2.88-5.9-5.33-10.58-5.33-8.21,0-16.27,6.84-16.27,19.65a21.4,21.4,0,0,0,4.75,14,13.79,13.79,0,0,0,11.16,5.33A13,13,0,0,0,410.9,641.15Zm-7.77-3.53c-4.61,0-8.71-3.31-8.71-11.09,0-8.71,4.25-11.81,8.35-11.81s8.28,3.1,8.28,11.52C411,634.31,406.8,637.55,403.13,637.62Zm-58.54,7.27h9.86l0.07-20.52c0-2.88.58-4.25,1.36-5.4a7.4,7.4,0,0,1,6-3.1c3.38,0,5.83,2.23,5.83,6.34v22.68h9.86V619c0-6.84-5-12.09-12.67-12.09-5.26,0-8.93,2.81-10.15,5.68l-0.43-4.32-9.65-.07Zm-18.36-4.18a14.83,14.83,0,0,0,1.29,4.18h10c-0.58-.5-1.59-2.16-1.59-5.18L335.88,621a20.64,20.64,0,0,0-.58-5c-1.44-5-5.54-9.07-15.48-9.07-11.45,0-15.91,5.83-15.91,12.24l8.64,0.14c0.43-2.45.79-3,1.58-3.67s2.74-1.73,5.69-1.73c4.61,0,6.41,2.45,6.41,4.17s-1.15,3-3.81,3.46l-9.87,1.73c-7.42,1.29-10.87,6.12-10.87,10.94,0,6.33,4.9,11.74,13.75,11.74C321.55,646,324.86,643.52,326.23,640.71Zm0.07-15.33-0.07,5.47c-0.22,4.61-3.31,7.77-8.71,7.77-4.1,0-6.12-2.45-6.12-4.61,0-1.73.86-4,6.7-5.4l4.32-1.15A8.13,8.13,0,0,0,326.3,625.38Zm-5.9-21.53,9.87,0.07,0.07-10H320.4v9.93Zm-12.89,0h9.86l0.07-10h-9.86Zm-29.67,41h9.79l12.46-36.64h-9.94l-7.34,24.12-7.27-24.05h-10Zm-50,0h9.87l0.07-20.52c0-2.88.58-4.25,1.36-5.4a7.4,7.4,0,0,1,6-3.1c3.38,0,5.83,2.23,5.83,6.34v22.68h9.87V619c0-6.84-5-12.09-12.67-12.09-5.26,0-8.93,2.81-10.15,5.68l-0.43-4.32-9.65-.07Zm-52,0h10.65L190,634.16h18.43l3.31,10.73h10.8l-17.49-51h-11.3Z" transform="translate(-0.89 -0.96)"/><path class="b" d="M68.19,712.67v4.61c0,5.18-3.24,8.43-8.86,8.43-4.18,0-6.12-2.45-6.12-4.68,0-1.73.58-3.67,6.77-5.4l4.25-1.15A11.44,11.44,0,0,0,68.19,712.67ZM543.3,728.23l0.36,3.74h9.79V681h-9.94V699.5c-1.8-2.88-5.91-5.33-10.58-5.33-8.21,0-16.27,6.84-16.27,19.65a21.42,21.42,0,0,0,4.75,14,13.89,13.89,0,0,0,11.16,5.33A13.29,13.29,0,0,0,543.3,728.23Zm-7.85-3.53c-4.61,0-8.64-3.31-8.64-11.09,0-8.71,4.25-11.81,8.28-11.81s8.28,3.1,8.28,11.52C543.37,721.39,539.12,724.63,535.45,724.7Zm-35.86,3.53L500,732h9.79V681h-9.93V699.5c-1.8-2.88-5.91-5.33-10.58-5.33C481,694.17,473,701,473,713.83a21.42,21.42,0,0,0,4.75,14,13.89,13.89,0,0,0,11.16,5.33A13.29,13.29,0,0,0,499.59,728.23Zm-7.85-3.53c-4.61,0-8.64-3.31-8.64-11.09,0-8.71,4.25-11.81,8.28-11.81s8.28,3.1,8.28,11.52C499.67,721.39,495.42,724.63,491.75,724.7ZM437.1,736.15v7.7h7.28c8.64,0,10.65-6.77,11.45-9l13.89-39.53H459.27L451.93,718l-7.7-22.68H433.65L445,726.21a13.71,13.71,0,0,1,.94,5c0,3-1.58,5-5.9,4.9h-3ZM393.54,732h9.87v-12l4.1-4.1L417.59,732h12.09l-15.12-22.53,13.17-14.11H416.08l-12.67,14L403.34,681h-9.8v51Zm-41-12.24c0.21,6.91,6,13.54,17.21,13.54,11.45,0,16.49-6.12,16.49-12.67a10,10,0,0,0-2.3-6.41c-1.37-1.73-3.1-3-7.42-4L366,707.71c-2.16-.58-3.1-1.94-3.1-3.24s1.36-3.67,6.12-3.67c5.25,0,7.56,2.74,7.56,5.69l8.71-.14a12.76,12.76,0,0,0-5.26-9.65c-2.09-1.51-5.54-2.81-10.87-2.81-10.58,0-15.19,5.69-15.19,11.95a9.41,9.41,0,0,0,2.52,6.91c1.29,1.36,2.88,2.52,7,3.38l7.92,1.8c4.68,1,5.18,2.45,5.18,4.18s-1.51,4.1-6.91,4.1c-5.18,0-7.85-2.73-8.13-6.55Zm-40.25,0c0.21,6.91,6,13.54,17.21,13.54,11.45,0,16.49-6.12,16.49-12.67a10,10,0,0,0-2.3-6.41c-1.37-1.73-3.1-3-7.42-4l-10.58-2.45c-2.16-.58-3.1-1.94-3.1-3.24s1.37-3.67,6.12-3.67c5.26,0,7.56,2.74,7.56,5.69l8.71-.14a12.76,12.76,0,0,0-5.26-9.65c-2.09-1.51-5.54-2.81-10.87-2.81-10.58,0-15.19,5.69-15.19,11.95a9.42,9.42,0,0,0,2.52,6.91c1.3,1.36,2.88,2.52,7,3.38l7.92,1.8c4.68,1,5.18,2.45,5.18,4.18s-1.51,4.1-6.91,4.1c-5.18,0-7.85-2.73-8.13-6.55ZM270.42,734a10.73,10.73,0,0,0,3.6,7.34c2.23,2.16,6.34,4.18,13.47,4.18,7.92,0,12.89-3,15.41-6.12,1.66-2.23,2.52-4.25,2.52-9.72V695.32h-9.36l-0.29,4.46C295,698.64,293.11,694,284.9,694c-8.85,0-16.56,7.05-16.56,18.36s7.77,18.43,16.49,18.43c5.83,0,9.5-2.66,10.87-5.47v4c0,6.19-2.81,8.78-8.49,8.78-4.25,0-6.26-2.16-6.63-4.46Zm16.7-11.67c-4.75,0-8.78-3.45-8.78-10.22,0-5.9,4.11-9.65,8.57-9.65s8.64,3.74,8.64,9.93S291.38,722.32,287.13,722.32ZM228.6,732h9.86l0.07-20.52c0-2.88.58-4.25,1.37-5.4a7.39,7.39,0,0,1,6-3.1c3.38,0,5.83,2.23,5.83,6.33V732h9.86V706.12c0-6.84-5-12.09-12.67-12.09-5.25,0-8.93,2.81-10.15,5.68l-0.44-4.32-9.65-.07Zm-17.5,0H221V695.32H211.1V732Zm0.07-42.19H221V681h-9.79v8.78ZM170.64,732h9.86l0.07-20.52c0-2.88.58-4.25,1.37-5.4a7.38,7.38,0,0,1,6-3.1c3.39,0,5.83,2.23,5.83,6.33V732h9.87V706.12c0-6.84-5-12.09-12.67-12.09-5.26,0-8.93,2.81-10.15,5.68l-0.43-4.32-9.65-.07Zm-17.79-3.74,0.36,3.74H163V681h-9.94V699.5c-1.8-2.88-5.91-5.33-10.58-5.33-8.21,0-16.27,6.84-16.27,19.65a21.42,21.42,0,0,0,4.75,14,13.89,13.89,0,0,0,11.16,5.33A13.29,13.29,0,0,0,152.85,728.23ZM145,724.7c-4.61,0-8.64-3.31-8.64-11.09,0-8.71,4.25-11.81,8.28-11.81s8.28,3.1,8.28,11.52C152.93,721.39,148.68,724.63,145,724.7ZM86.47,732h9.86l0.07-20.52c0-2.88.58-4.25,1.37-5.4a7.38,7.38,0,0,1,6-3.1c3.39,0,5.83,2.23,5.83,6.33V732h9.87V706.12c0-6.84-5-12.09-12.67-12.09-5.25,0-8.93,2.81-10.15,5.68l-0.43-4.32-9.65-.07Zm-18.29-4.18A10.29,10.29,0,0,0,69.34,732H79.42a5.47,5.47,0,0,1-1.66-3.81V708.07c0-8.78-4.53-14-16.49-14-11.09,0-15.69,6-15.48,12.24l8.64,0.14c0-2.73,2.09-5.33,7.13-5.33,4.83,0,6.41,2.38,6.41,4.11,0,1.51-.94,2.88-3.6,3.38l-5.61.93c-8.13,1.44-10.3,3-11.81,4.32a10.19,10.19,0,0,0-3.39,7.63c0,6,4.75,11.52,14,11.52C62.93,733,66.1,731.18,68.19,727.79Z" transform="translate(-0.89 -0.96)"/><path class="c" d="M339.35,504.56c0,2.82,4.26,5.14,9.46,5.14s9.39-2.32,9.39-5.14-4.2-5.1-9.39-5.1S339.35,501.73,339.35,504.56Zm-30.24-5.76c0,2.82,4.26,5.14,9.46,5.14s9.39-2.32,9.39-5.14-4.2-5.1-9.39-5.1S309.11,496,309.11,498.79Zm-29.67-.65c0,2.82,4.26,5.14,9.46,5.14s9.39-2.32,9.39-5.14-4.2-5.1-9.39-5.1S279.45,495.33,279.45,498.15Zm-33.19,4.1c0,2.82,4.26,5.14,9.46,5.14s9.39-2.31,9.39-5.14-4.2-5.1-9.39-5.1S246.26,499.43,246.26,502.25Zm11.23-11.74c0,2.82,4.26,5.14,9.46,5.14s9.39-2.31,9.39-5.14-4.2-5.1-9.39-5.1S257.49,487.69,257.49,490.52Zm-32.69-7.06c0,2.82,4.26,5.14,9.46,5.14s9.39-2.32,9.39-5.14-4.2-5.1-9.39-5.1S224.8,480.64,224.8,483.46Zm138.59,2.45c0,2.82,4.27,5.14,9.46,5.14s9.39-2.31,9.39-5.14-4.2-5.1-9.39-5.1S363.4,483.08,363.4,485.91Zm-32.4,5.9c0,2.82,4.27,5.14,9.46,5.14s9.39-2.32,9.39-5.14-4.2-5.1-9.39-5.1S331,489,331,491.81Zm-35.56-7.7c0,2.82,4.26,5.14,9.46,5.14s9.39-2.31,9.39-5.14-4.2-5.1-9.39-5.1S295.43,481.28,295.43,484.11Zm38.29-5.2c0,2.85,4.66,5.16,10.39,5.16s10.32-2.31,10.32-5.16-4.6-5.12-10.32-5.12S333.72,476.06,333.72,478.9ZM256,477.54c0,2.84,4.66,5.16,10.39,5.16s10.32-2.31,10.32-5.16-4.59-5.12-10.32-5.12S256,474.69,256,477.54Zm-11.16-14c0,2.84,4.66,5.16,10.39,5.16s10.32-2.31,10.32-5.16-4.59-5.12-10.32-5.12S244.88,460.66,244.88,463.5Zm102.31,1.73c0,2.85,4.66,5.16,10.39,5.16s10.32-2.31,10.32-5.16-4.6-5.12-10.32-5.12S347.19,462.38,347.19,465.23Zm-35.57,4.25c0,2.84,4.66,5.16,10.39,5.16s10.32-2.31,10.32-5.16-4.59-5.12-10.32-5.12S311.62,466.63,311.62,469.47ZM279,468.32c0,2.84,4.66,5.16,10.39,5.16s10.32-2.31,10.32-5.16-4.6-5.12-10.32-5.12S279,465.48,279,468.32Zm17.86-13.54c0,2.84,4.66,5.16,10.39,5.16s10.32-2.31,10.32-5.16-4.6-5.12-10.32-5.12S296.86,451.95,296.86,454.79Zm20.06-194.63c0,20.22,18.78,36.6,42,36.6s42-16.38,42-36.6-18.78-36.6-42-36.6S316.92,239.94,316.92,260.16Zm-110.16,0c0,20.22,18.78,36.6,42,36.6s42-16.38,42-36.6-18.78-36.6-42-36.6S206.77,239.94,206.77,260.16Zm234,74.72-2.5,3.26c-5.33,5.79-9.93,10.38-16.71,3.83L420,341.4l-1.82-20.71c-1.22-13.85-1.45-27.76-1.45-41.65V204.27a3.73,3.73,0,0,0-2.87-3.65,538.39,538.39,0,0,0-110-13.53c-37.13-.69-73.92,5.26-110,13.53a3.69,3.69,0,0,0-2.79,3.65V279c0,13.9-.36,27.8-1.52,41.65l-1.73,20.71-1.64.58c-1.61.57-2.57,2.3-4.23,2.79-13.93,4.11-31-39.27-32.45-48.47L147.64,288l-1.05-8.44c-1.45-7.59,3.69-26.21,13.64-15.36l1.25,1.45c5.1,5.93,13.71.24,12.39-6.82-3.58-19.25-4.3-39.07-.1-58.26a132.74,132.74,0,0,1,92.85-99.14C347.1,78,428.59,133.61,436.5,217c1.33,14-.07,28-2.8,41.75-1.42,7.16,7.43,13.11,12.48,6.82l2.23-2.8a5.59,5.59,0,0,1,9.21.38l0.86,1.45c3.73,8.36,3,14.34,1.45,23.32C457,304.81,451.25,321.23,440.8,334.88ZM466.89,253c25.82,17.44-9,112-40.92,107.11l-2.68-.58-2.12,9.32a166.82,166.82,0,0,1-28.41,59.69v37.13l-2.42-1.92a72,72,0,0,0-13.82-8.06l-6.33-2.69-5.29,4.32,4.81,1.92C433.25,491.44,345.49,518,313.34,516l-6.91.18,1.73-.37,1.54-.59c6.72-3.33,2.37-8.15-3.27-8.92l-1.82-.2h-1.83c-5.57-.14-13.18,5.19-5.08,9.12l1.53,0.59,1.63,0.37L294,516c-32.17,2-119.73-24.72-56.16-56.83l4.7-1.92-5.19-4.32L231,455.64a76,76,0,0,0-13.73,8.06l-2.41,1.92V428.49a167.21,167.21,0,0,1-28.51-59.69l-2-9.32-2.69.58c-34.2,5.57-76.35-109.83-28.32-111.71h3.55l-0.87-9c-2.48-210,298-210,295.67,0l-0.87,9h3.56C458.92,248.35,463.14,250.42,466.89,253ZM352.65,447.52L347,446.27a229.84,229.84,0,0,0-86.43,0l-5.66,1.26,7.19,4.13c24.66-5.11,52.6-5.32,77.41-1.17l6,1.17ZM391.9,402.4l-4.22-2.58c-41.54-24.23-126.22-24.27-167.74,0l-4.23,2.69,3.84,6.43,3.74-2.41c39.24-23.19,121.72-23.21,160.94,0l3.84,2.41ZM36.31,298.6c0,144.79,117.43,262.22,262.22,262.22S560.67,443.39,560.67,298.6,443.32,36.46,298.53,36.46,36.31,153.81,36.31,298.6Z" transform="translate(-0.89 -0.96)"/></svg>