<svg xmlns="http://www.w3.org/2000/svg" viewBox="0 0 595.28 850.36"><defs><style>.a{fill:#e5e8eb;}.a,.b,.c{fill-rule:evenodd;}.b{fill:#000100;}.c{fill:#1e3b72;}</style></defs><title>M018_C</title><polyline class="a" points="0 850.36 595.28 850.36 595.28 0 0 0 0 850.36"/><path class="b" d="M192.5,626.1l7-22,6.55,22H192.5Zm218.37,15,0.43,3.74h9.79l-0.07-51h-9.87v18.5c-1.8-2.88-5.9-5.33-10.58-5.33-8.2,0-16.27,6.84-16.27,19.65a21.4,21.4,0,0,0,4.75,14,13.79,13.79,0,0,0,11.16,5.33A13,13,0,0,0,410.87,641.14Zm-7.78-3.53c-4.61,0-8.71-3.31-8.71-11.09,0-8.71,4.25-11.81,8.35-11.81s8.28,3.1,8.28,11.52C411,634.31,406.77,637.54,403.09,637.61Zm-58.53,7.27h9.86l0.07-20.52c0-2.88.58-4.25,1.37-5.4a7.39,7.39,0,0,1,6-3.1c3.38,0,5.83,2.23,5.83,6.34v22.68h9.86V619c0-6.84-5-12.09-12.67-12.09-5.26,0-8.93,2.81-10.15,5.68l-0.43-4.32-9.65-.07Zm-18.36-4.18a14.83,14.83,0,0,0,1.29,4.18h10c-0.58-.5-1.59-2.16-1.59-5.18L335.85,621a20.64,20.64,0,0,0-.58-5c-1.44-5-5.54-9.07-15.48-9.07-11.45,0-15.91,5.83-15.91,12.24l8.64,0.14c0.43-2.45.79-3,1.58-3.67s2.74-1.73,5.69-1.73c4.61,0,6.41,2.45,6.41,4.17s-1.15,3-3.82,3.46l-9.86,1.73c-7.42,1.29-10.87,6.12-10.87,10.94,0,6.33,4.9,11.74,13.75,11.74C321.52,646,324.83,643.52,326.2,640.71Zm0.07-15.33-0.07,5.47c-0.22,4.61-3.31,7.77-8.71,7.77-4.1,0-6.12-2.45-6.12-4.61,0-1.73.87-4,6.7-5.4l4.32-1.15A8.14,8.14,0,0,0,326.27,625.38Zm-5.9-21.53,9.86,0.07,0.07-10h-9.93v9.93Zm-12.89,0h9.86l0.07-10h-9.86Zm-29.66,41h9.79l12.45-36.64h-9.94l-7.34,24.12-7.27-24h-10Zm-50,0h9.86l0.07-20.52c0-2.88.58-4.25,1.37-5.4a7.39,7.39,0,0,1,6-3.1c3.38,0,5.83,2.23,5.83,6.34v22.68h9.86V619c0-6.84-5-12.09-12.67-12.09-5.26,0-8.93,2.81-10.15,5.68l-0.43-4.32-9.65-.07Zm-52,0h10.65L190,634.16h18.43l3.31,10.73h10.8l-17.49-51h-11.3Z" transform="translate(-0.86 -0.97)"/><path class="b" d="M58.51,719.73c0.22,6.91,6.05,13.54,17.28,13.54s16.42-6.12,16.42-12.67A10.35,10.35,0,0,0,90,714.19c-1.37-1.73-3.17-3-7.49-4L72,707.71c-2.23-.58-3.1-1.94-3.1-3.24s1.29-3.67,6-3.67c5.26,0,7.56,2.74,7.63,5.69l8.71-.14A13.22,13.22,0,0,0,86,696.69c-2.16-1.51-5.54-2.81-10.94-2.81-10.51,0-15.19,5.69-15.19,11.95a9.72,9.72,0,0,0,2.52,6.91c1.37,1.36,3,2.52,7.06,3.38l7.92,1.8c4.61,1,5.19,2.45,5.19,4.18s-1.51,4.1-7,4.1c-5.19,0-7.78-2.73-8.06-6.55Zm452.65-3.39,27.22,0.07c0-10.87-4.9-22.39-18.58-22.39-14,0-18.43,11.16-18.43,19.51,0,12.17,8.06,19.73,18.36,19.73s16.49-5.54,18-12l-9.93-.65c-1.87,3.39-4.46,4.75-7.63,4.75C515.48,725.41,511.66,722.25,511.16,716.34Zm0.43-7.13a8.37,8.37,0,0,1,8-7.49c4,0,7.49,2.73,8.14,7.49H511.59Zm-27,22.75h9.86V681h-9.79Zm-34.13-15.62,27.22,0.07c0-10.87-4.9-22.39-18.58-22.39-14,0-18.43,11.16-18.43,19.51,0,12.17,8.06,19.73,18.36,19.73s16.49-5.54,18-12l-9.94-.65c-1.87,3.39-4.46,4.75-7.63,4.75C454.78,725.41,451,722.25,450.46,716.34Zm0.43-7.13a8.37,8.37,0,0,1,8-7.49c4,0,7.49,2.73,8.14,7.49H450.89Zm-50.4,10.51c0.22,6.91,6.05,13.54,17.28,13.54s16.42-6.12,16.42-12.67a10.35,10.35,0,0,0-2.23-6.41c-1.37-1.73-3.17-3-7.49-4L414,707.71c-2.23-.58-3.1-1.94-3.1-3.24s1.3-3.67,6.05-3.67c5.25,0,7.56,2.74,7.63,5.69l8.71-.14a13.23,13.23,0,0,0-5.26-9.65c-2.16-1.51-5.54-2.81-10.94-2.81-10.51,0-15.19,5.69-15.19,11.95a9.72,9.72,0,0,0,2.52,6.91c1.37,1.36,3,2.52,7.06,3.38l7.92,1.8c4.61,1,5.18,2.45,5.18,4.18s-1.51,4.1-7,4.1c-5.18,0-7.77-2.73-8.06-6.55Zm-40.25,0c0.21,6.91,6,13.54,17.28,13.54s16.41-6.12,16.41-12.67a10.33,10.33,0,0,0-2.23-6.41c-1.37-1.73-3.17-3-7.49-4l-10.51-2.45c-2.23-.58-3.1-1.94-3.1-3.24s1.29-3.67,6-3.67c5.26,0,7.56,2.74,7.63,5.69l8.71-.14a13.23,13.23,0,0,0-5.26-9.65c-2.16-1.51-5.54-2.81-10.94-2.81-10.51,0-15.19,5.69-15.19,11.95a9.72,9.72,0,0,0,2.52,6.91c1.37,1.36,3,2.52,7.05,3.38l7.92,1.8c4.61,1,5.18,2.45,5.18,4.18s-1.51,4.1-7,4.1c-5.18,0-7.78-2.73-8.06-6.55ZM353.77,732v-7.56H350.1a3.79,3.79,0,0,1-2.88-1.37,5.83,5.83,0,0,1-.44-2.88V702h6.63v-6.7h-6.63l-0.07-11.59h-9.79v11.59h-5.18v6.77L337,702,336.92,721c0,8.28,3.38,11,8.85,11h8Zm-53.56-15.62,27.22,0.07c0-10.87-4.9-22.39-18.57-22.39-14,0-18.36,11.16-18.36,19.51,0,12.17,8,19.73,18.29,19.73s16.49-5.54,18-12l-9.93-.65c-1.87,3.39-4.46,4.75-7.63,4.75C304.53,725.41,300.71,722.25,300.21,716.34Zm0.43-7.13a8.37,8.37,0,0,1,8-7.49c4,0,7.49,2.73,8.13,7.49H300.64ZM251.1,732H261V711.81c0-6,3.31-8.78,7.42-8.78,3.46,0,5.83,2,5.83,6.63V732h9.86V706.7c0-4.46-1.51-7.49-3.89-9.57a14,14,0,0,0-8.57-3.1c-5.4,0-9,2.52-10.65,5.9V681H251.1v51Zm-26.64,0h9.87l0.07-16.27c0-5.47,1.3-8,3-9.72a8.62,8.62,0,0,1,6.7-2.88,12.45,12.45,0,0,1,1.66.14l0.07-8.71a14.71,14.71,0,0,0-2.09-.21,9.38,9.38,0,0,0-9.15,6.55l-0.36-5.54h-9.65Zm-34.12-15.62,27.22,0.07c0-10.87-4.9-22.39-18.58-22.39-14,0-18.43,11.16-18.43,19.51,0,12.17,8.06,19.73,18.36,19.73s16.49-5.54,18-12l-9.93-.65c-1.87,3.39-4.46,4.75-7.63,4.75C194.66,725.41,190.84,722.25,190.34,716.34Zm0.43-7.13a8.37,8.37,0,0,1,8-7.49c4,0,7.49,2.73,8.13,7.49H190.77ZM140.08,732h9.86l-0.07-12,4.18-4.1L164.13,732h12l-15-22.53,13.1-14.11H162.62l-12.67,14L149.88,681H140Zm-17.64-4.18a15,15,0,0,0,1.3,4.18h9.93c-0.58-.5-1.51-2.16-1.51-5.18L132,708.06a18.51,18.51,0,0,0-.51-5C130,698.06,125.9,694,116,694c-11.38,0-15.91,5.83-15.91,12.24l8.71,0.14c0.36-2.45.72-3,1.51-3.67S113.08,701,116,701c4.61,0,6.34,2.45,6.34,4.18s-1.08,3-3.74,3.45l-9.93,1.73c-7.42,1.29-10.87,6.12-10.87,10.94,0,6.33,4.9,11.74,13.75,11.74C117.69,733,121.08,730.6,122.44,727.79Zm0-15.33v5.47c-0.21,4.61-3.38,7.78-8.71,7.78-4.18,0-6.12-2.45-6.12-4.61,0-1.73.86-4,6.7-5.4l4.25-1.15A7.81,7.81,0,0,0,122.44,712.46Zm-5.9-21.53,9.94,0.07V681h-9.86Zm-12.82,0h9.87l0.07-10H103.8Z" transform="translate(-0.86 -0.97)"/><path class="c" d="M287.54,136.2a21.88,21.88,0,1,0,21.91-21.84A21.88,21.88,0,0,0,287.54,136.2Zm-6.55,0a28.44,28.44,0,1,0,28.44-28.44A28.42,28.42,0,0,0,281,136.25ZM155.54,257.67H226.4a14.19,14.19,0,0,0,10-4.13l34-33.4V208.79c0-7.11.14-14.22,0.74-21.3l0.6-7.06-1.31.59a12.16,12.16,0,0,0-3.53,2.51l-46.28,45.65h-65C136.54,229.17,136.54,257.67,155.54,257.67ZM208.94,348l61.36-49.17V229.34l-29.38,28.9a20.79,20.79,0,0,1-14.57,6H155.49c-27.73,0-27.73-41.59,0-41.59h62.34l44.43-43.74a20.78,20.78,0,0,1,14.57-6H342a21,21,0,0,1,11.31,3.34l12.21,9.32,1.61-5.67a253.79,253.79,0,0,0,9-75.73l-0.26-5.88,14,6,0.12,6.12a266.9,266.9,0,0,1-11.09,78.3l-1.81,5.83,33.68,26a20.78,20.78,0,0,1,8.1,16.47v70.88c0,27.73-41.59,27.73-41.59,0V247.2l-26-20a1.73,1.73,0,0,0-2.77,1.39V488.94c0,30.44-45.66,30.44-45.66,0V331.21l-52.37,42,26.08,68.11c10.9,28.46-31.8,44.78-42.68,16.32l-32-83.68A22.83,22.83,0,0,1,208.94,348Zm4.12,5.07L272,305.81l22.51,23.7L242.68,371l27.76,72.59c7.75,20.27-22.66,32-30.42,11.65l-32-83.67A16.28,16.28,0,0,1,213.07,353Zm70.21-70.14V234l39.5,0.74-0.56,9.47q-1.13,18.93-.95,37.9l0.09,9.46-3.94-.26a100.33,100.33,0,0,1-30.47-7Zm100.62,24.92V244l-28.56-22A8.27,8.27,0,0,0,342,228.51v62.3l-3.84.44-3.87.31-0.07-10.22a690.52,690.52,0,0,1,6-91.77l1.42-10.15H342a14.28,14.28,0,0,1,8.73,3l56.09,43.28a14.24,14.24,0,0,1,5.54,11.27v70.88C412.35,326.78,383.89,326.78,383.89,307.81ZM342,315.29v173.6c0,21.7-32.55,21.7-32.55,0v-157A60.26,60.26,0,0,1,331,318.2a56.26,56.26,0,0,1,8.25-2.36Zm-58.68-17.62,4.08,1.43a127.28,127.28,0,0,0,33.91,6.29l4.32,0.1-3.05,1.24a74.31,74.31,0,0,0-16.7,9.95l-2.51,2.1Zm0-77.5L323.81,221l0.93-10.45c0.61-6.94,1.45-13.87,2.4-20.78l1.42-10.37H284.82l-0.57,5.84c-0.76,7.81-1,15.66-1,23.51v11.41Zm-247,78.43c0,144.79,117.43,262.22,262.22,262.22S560.64,443.39,560.64,298.6,443.29,36.46,298.5,36.46,36.29,153.82,36.29,298.6Z" transform="translate(-0.86 -0.97)"/></svg>