<?xml version="1.0" encoding="UTF-8"?>
<svg id="Lager_1" data-name="Lager 1" xmlns="http://www.w3.org/2000/svg" viewBox="0 0 153.09 218.69">
  <defs>
    <style>
      .cls-1 {
        fill: #1a4080;
      }

      .cls-1, .cls-2 {
        fill-rule: evenodd;
      }

      .cls-2 {
        fill: #fff;
      }
    </style>
  </defs>
  <polyline class="cls-2" points="0 218.69 153.09 218.69 153.09 0 0 0 0 218.69"/>
  <path class="cls-1" d="M74.1,28.76c0,2.72,2.2,4.92,4.92,4.92s4.91-2.2,4.91-4.92-2.18-4.91-4.91-4.91-4.92,2.18-4.92,4.91ZM72.61,28.8c0,3.53,2.86,6.39,6.39,6.39s6.39-2.86,6.39-6.39-2.86-6.39-6.39-6.39-6.39,2.86-6.39,6.39ZM44.44,56.06h15.92c.83,0,1.66-.34,2.24-.93l7.63-7.5v-2.55c0-1.6.03-3.19.17-4.79l.13-1.59-.29.13c-.3.13-.56.33-.79.56l-10.39,10.25h-14.61c-4.27,0-4.27,6.4,0,6.4ZM56.44,76.33l13.78-11.04v-15.6l-6.6,6.49c-.87.86-2.05,1.34-3.27,1.34h-15.92c-6.23,0-6.23-9.34,0-9.34h14l9.98-9.82c.87-.86,2.05-1.35,3.27-1.35h14.63c.91.01,1.77.25,2.54.75l2.74,2.09.36-1.27c1.52-5.51,2.21-11.29,2.02-17.01l-.06-1.32,3.15,1.35.03,1.38c.04,5.97-.78,11.87-2.49,17.58l-.41,1.31,7.56,5.83c1.15.88,1.82,2.25,1.82,3.7v15.92c0,6.23-9.34,6.23-9.34,0v-13.62l-5.84-4.5c-.26-.2-.62,0-.62.31v58.48c0,6.84-10.25,6.84-10.25,0v-35.42l-11.76,9.43,5.86,15.29c2.45,6.39-7.14,10.06-9.58,3.67l-7.18-18.79c-.8-2.08-.16-4.44,1.58-5.83ZM57.35,77.48l13.23-10.61,5.06,5.32-11.64,9.32,6.23,16.3c1.74,4.55-5.09,7.18-6.83,2.62l-7.18-18.79c-.57-1.48-.11-3.17,1.13-4.16ZM73.11,61.71v-10.98l8.87.17-.13,2.13c-.17,2.83-.24,5.67-.21,8.51l.02,2.12-.88-.06c-2.35-.15-4.66-.7-6.84-1.57l-.82-.33ZM95.73,67.31v-14.34l-6.42-4.94c-1.23-.94-2.98-.08-2.99,1.47v13.99l-.86.1-.87.07-.02-2.3c-.03-6.89.46-13.78,1.35-20.61l.32-2.28h.08c.71,0,1.4.23,1.96.67l12.6,9.72c.78.61,1.24,1.54,1.24,2.53v15.92c0,4.26-6.39,4.26-6.39,0ZM86.33,68.98v38.99c0,4.87-7.31,4.87-7.31,0v-35.25c1.37-1.36,3.03-2.42,4.84-3.08.6-.22,1.22-.4,1.85-.53l.62-.12ZM73.13,65.04l.92.32c2.51.82,4.98,1.28,7.62,1.41l.97.02-.68.28c-1.35.57-2.6,1.34-3.75,2.23l-.56.47-4.5-4.74ZM73.11,47.64l9.11.19.21-2.35c.14-1.56.33-3.11.54-4.67l.32-2.33h-9.82l-.13,1.31c-.17,1.75-.22,3.52-.22,5.28v2.56ZM17.68,65.24c0,32.52,26.37,58.89,58.89,58.89s58.87-26.37,58.87-58.89S109.09,6.37,76.57,6.37s-58.89,26.36-58.89,58.87Z"/>
  <polyline class="cls-1" points="10.06 133.7 143.05 133.7 143.05 208.94 10.06 208.94 10.06 133.7"/>
  <path class="cls-2" d="M49.29,150.23l1.8-5.67,1.68,5.67h-3.48ZM105.44,154.1l.11.96h2.52l-.02-13.11h-2.54v4.76c-.46-.74-1.52-1.37-2.72-1.37-2.11,0-4.18,1.76-4.18,5.05,0,1.5.48,2.74,1.22,3.61.78.95,1.74,1.37,2.87,1.37s2.07-.45,2.74-1.28ZM103.44,153.19c-1.18,0-2.24-.85-2.24-2.85,0-2.24,1.09-3.04,2.15-3.04s2.13.8,2.13,2.96-1.09,2.91-2.04,2.93ZM88.39,155.06h2.54l.02-5.28c0-.74.15-1.09.35-1.39.33-.48.93-.8,1.54-.8.87,0,1.5.57,1.5,1.63v5.83h2.54v-6.65c0-1.76-1.3-3.11-3.26-3.11-1.35,0-2.3.72-2.61,1.46l-.11-1.11-2.48-.02-.02,9.42ZM83.67,153.99c.05.37.18.78.33,1.07h2.57c-.15-.13-.41-.56-.41-1.33l-.02-4.81c-.04-.83-.09-1.07-.15-1.28-.37-1.3-1.43-2.33-3.98-2.33-2.94,0-4.09,1.5-4.09,3.15l2.22.04c.11-.63.2-.76.41-.95.22-.22.7-.44,1.46-.44,1.18,0,1.65.63,1.65,1.07s-.3.76-.98.89l-2.54.44c-1.91.33-2.8,1.57-2.8,2.82,0,1.63,1.26,3.02,3.54,3.02,1.57,0,2.43-.63,2.78-1.35ZM83.69,150.05l-.02,1.41c-.06,1.18-.85,2-2.24,2-1.05,0-1.57-.63-1.57-1.19,0-.44.22-1.02,1.72-1.39l1.11-.3c.41-.09.76-.3,1-.54ZM82.17,144.51l2.54.02.02-2.57h-2.55v2.55ZM78.86,144.51h2.54l.02-2.57h-2.54l-.02,2.57ZM71.23,155.06h2.52l3.2-9.42h-2.56l-1.89,6.2-1.87-6.18h-2.57l3.17,9.41ZM58.38,155.06h2.54l.02-5.28c0-.74.15-1.09.35-1.39.33-.48.93-.8,1.54-.8.87,0,1.5.57,1.5,1.63v5.83h2.54v-6.65c0-1.76-1.3-3.11-3.26-3.11-1.35,0-2.3.72-2.61,1.46l-.11-1.11-2.48-.02-.02,9.42ZM45.01,155.06h2.74l.89-2.76h4.74l.85,2.76h2.78l-4.5-13.11h-2.91l-4.59,13.11Z"/>
  <path class="cls-2" d="M14.83,174.29c.06,1.78,1.56,3.48,4.44,3.48s4.22-1.57,4.22-3.26c0-.59-.2-1.18-.57-1.65-.35-.44-.81-.78-1.93-1.04l-2.7-.63c-.57-.15-.8-.5-.8-.83,0-.37.33-.94,1.55-.94,1.35,0,1.94.7,1.96,1.46l2.24-.04c-.06-.95-.55-1.89-1.35-2.48-.55-.39-1.43-.72-2.81-.72-2.7,0-3.91,1.46-3.91,3.07,0,.76.22,1.3.65,1.78.35.35.76.65,1.82.87l2.04.46c1.18.26,1.33.63,1.33,1.07,0,.41-.39,1.05-1.8,1.05-1.33,0-2-.7-2.07-1.68l-2.32.02ZM131.23,173.42l7,.02c0-2.8-1.26-5.76-4.78-5.76s-4.74,2.87-4.74,5.02c0,3.13,2.07,5.07,4.72,5.07s4.24-1.43,4.63-3.07l-2.55-.17c-.48.87-1.15,1.22-1.96,1.22-1.2,0-2.18-.81-2.31-2.33ZM131.35,171.59c.15-1.15,1.09-1.92,2.05-1.92,1.04,0,1.93.7,2.09,1.92h-4.15ZM124.4,177.44h2.54v-13.11h-2.52l-.02,13.11ZM115.62,173.42l7,.02c0-2.8-1.26-5.76-4.78-5.76s-4.74,2.87-4.74,5.02c0,3.13,2.07,5.07,4.72,5.07s4.24-1.43,4.63-3.07l-2.56-.17c-.48.87-1.15,1.22-1.96,1.22-1.2,0-2.18-.81-2.32-2.33ZM115.74,171.59c.15-1.15,1.09-1.92,2.06-1.92,1.04,0,1.93.7,2.09,1.92h-4.15ZM102.77,174.29c.06,1.78,1.56,3.48,4.44,3.48s4.22-1.57,4.22-3.26c0-.59-.2-1.18-.57-1.65-.35-.44-.82-.78-1.93-1.04l-2.7-.63c-.57-.15-.8-.5-.8-.83,0-.37.33-.94,1.56-.94,1.35,0,1.94.7,1.96,1.46l2.24-.04c-.06-.95-.56-1.89-1.35-2.48-.55-.39-1.43-.72-2.81-.72-2.7,0-3.91,1.46-3.91,3.07,0,.76.22,1.3.65,1.78.35.35.76.65,1.82.87l2.04.46c1.18.26,1.33.63,1.33,1.07,0,.41-.39,1.05-1.8,1.05-1.33,0-2-.7-2.07-1.68l-2.32.02ZM92.43,174.29c.05,1.78,1.55,3.48,4.44,3.48s4.22-1.57,4.22-3.26c0-.59-.2-1.18-.57-1.65-.35-.44-.81-.78-1.92-1.04l-2.7-.63c-.57-.15-.8-.5-.8-.83,0-.37.33-.94,1.55-.94,1.35,0,1.95.7,1.96,1.46l2.24-.04c-.06-.95-.56-1.89-1.35-2.48-.56-.39-1.43-.72-2.81-.72-2.7,0-3.91,1.46-3.91,3.07,0,.76.22,1.3.65,1.78.35.35.76.65,1.81.87l2.04.46c1.18.26,1.33.63,1.33,1.07,0,.41-.39,1.05-1.8,1.05-1.33,0-2-.7-2.07-1.68l-2.31.02ZM90.76,177.44v-1.94h-.94c-.32,0-.59-.17-.74-.35-.04-.07-.11-.22-.11-.74v-4.67h1.7v-1.72h-1.7l-.02-2.98h-2.52v2.98h-1.33v1.74l1.35-.02-.02,4.87c0,2.13.87,2.83,2.28,2.83h2.05ZM76.98,173.42l7,.02c0-2.8-1.26-5.76-4.78-5.76s-4.72,2.87-4.72,5.02c0,3.13,2.05,5.07,4.7,5.07s4.24-1.43,4.63-3.07l-2.55-.17c-.48.87-1.15,1.22-1.96,1.22-1.2,0-2.18-.81-2.31-2.33ZM77.09,171.59c.15-1.15,1.09-1.92,2.06-1.92,1.04,0,1.93.7,2.09,1.92h-4.15ZM64.36,177.44h2.54v-5.18c0-1.54.85-2.26,1.91-2.26.89,0,1.5.52,1.5,1.7v5.74h2.54v-6.5c0-1.15-.39-1.92-1-2.46-.55-.46-1.39-.8-2.2-.8-1.39,0-2.31.65-2.74,1.52v-4.87h-2.54v13.11ZM57.5,177.44h2.54l.02-4.18c0-1.41.33-2.05.76-2.5.46-.5,1.02-.74,1.72-.74.15,0,.28.02.43.04l.02-2.24c-.13-.02-.33-.05-.54-.05-1.11,0-2.07.7-2.35,1.68l-.09-1.43h-2.48l-.02,9.42ZM48.73,173.42l7,.02c0-2.8-1.26-5.76-4.78-5.76s-4.74,2.87-4.74,5.02c0,3.13,2.07,5.07,4.72,5.07s4.24-1.43,4.63-3.07l-2.55-.17c-.48.87-1.15,1.22-1.96,1.22-1.2,0-2.18-.81-2.31-2.33ZM48.84,171.59c.15-1.15,1.09-1.92,2.05-1.92,1.04,0,1.93.7,2.09,1.92h-4.15ZM35.8,177.44h2.54l-.02-3.09,1.07-1.05,2.59,4.15h3.09l-3.87-5.8,3.37-3.63h-2.98l-3.26,3.59-.02-7.28h-2.54l.02,13.11ZM31.27,176.37c.06.37.19.78.33,1.07h2.55c-.15-.13-.39-.56-.39-1.33l-.04-4.81c-.02-.83-.07-1.07-.13-1.28-.39-1.3-1.44-2.33-4-2.33-2.93,0-4.09,1.5-4.09,3.15l2.24.04c.09-.63.19-.76.39-.94.24-.22.72-.44,1.48-.44,1.18,0,1.63.63,1.63,1.07s-.28.76-.96.89l-2.55.45c-1.91.33-2.8,1.57-2.8,2.81,0,1.63,1.26,3.02,3.54,3.02,1.57,0,2.45-.63,2.8-1.35ZM31.27,172.42v1.41c-.05,1.18-.87,2-2.24,2-1.07,0-1.57-.63-1.57-1.18,0-.45.22-1.02,1.72-1.39l1.09-.3c.43-.09.76-.3,1-.54ZM29.75,166.89l2.56.02v-2.57h-2.54l-.02,2.55ZM26.45,166.89h2.54l.02-2.57h-2.54l-.02,2.57Z"/>
</svg>