<?xml version="1.0" encoding="UTF-8"?>
<svg id="Lager_1" data-name="Lager 1" xmlns="http://www.w3.org/2000/svg" viewBox="0 0 153.09 218.69">
  <defs>
    <style>
      .cls-1 {
        fill: #1a4080;
      }

      .cls-1, .cls-2 {
        fill-rule: evenodd;
      }

      .cls-2 {
        fill: #fff;
      }
    </style>
  </defs>
  <polyline class="cls-2" points="0 218.69 153.09 218.69 153.09 0 0 0 0 218.69"/>
  <path class="cls-1" d="M58.06,85.35c0,.97.79,1.77,1.77,1.77s1.76-.79,1.76-1.77-.79-1.77-1.76-1.77-1.77.79-1.77,1.77ZM53.11,85.36c0,.98.8,1.78,1.78,1.78s1.78-.8,1.78-1.78-.8-1.78-1.78-1.78-1.78.8-1.78,1.78ZM48.28,85.37c0,.97.79,1.77,1.77,1.77s1.77-.79,1.77-1.77-.79-1.76-1.77-1.76-1.77.79-1.77,1.76ZM112.14,57.88h-24.29v31.67c0,5.09-4.17,9.25-9.26,9.25h-8.17v.36c0,1.73,1.4,3.12,3.13,3.12h25.36c1.74,0,3.17-1.4,3.17-3.15v-5.65c0-3.87.54-8.02,1.6-11.75.25-.87.99-3.01,1.51-4.51,1.43-4.11,4.26-7.55,5.56-11.71.58-1.86,1.08-3.76,1.23-5.71l.15-1.94ZM114.88,53.06c-1.73-13.47-12.11-24.28-25.52-26.5-1.3-.21-2.61-.41-3.92-.41h-1.96l-.91-.5c-1.22-.67-2.61-.91-3.99-.91h-22.69c-1.39,0-2.78.29-4.03.91-3.18,1.56-5.22,4.79-5.22,8.34v7.46h14.77c.93,0,1.68.75,1.68,1.68v14.66c0,.93-.75,1.68-1.68,1.68h-14.77v30.08c-.02,5.11,4.14,9.24,9.25,9.25h11.52v.36c0,3.39,2.74,6.15,6.13,6.15h25.36c3.08,0,6.07-2.07,6.13-5.31.11-6.52-.22-11.15,1.53-17.46.4-1.43.86-2.83,1.4-4.21,2.08-5.29,5.05-8.46,6.32-14.23.79-3.63,1.08-7.37.61-11.06ZM111.34,50.52l-.47-1.79c-3.23-10.23-11.91-17.67-22.52-19.26l-1.83-.21.47.88c.64,1.19.84,2.54.84,3.88v16.49h23.51ZM61.83,57.79v-14.66c0-.23-.17-.43-.41-.43h-14.77v1.94h12.33v10.63h-12.33v2.93h14.77c.23,0,.41-.19.41-.41ZM17.68,65.24c0,32.52,26.37,58.89,58.89,58.89s58.87-26.37,58.87-58.89S109.09,6.37,76.57,6.37s-58.89,26.36-58.89,58.87Z"/>
  <polyline class="cls-1" points="10.06 133.7 143.05 133.7 143.05 208.94 10.06 208.94 10.06 133.7"/>
  <path class="cls-2" d="M49.28,150.23l1.8-5.67,1.68,5.67h-3.48ZM105.44,154.1l.11.96h2.52l-.02-13.11h-2.54v4.76c-.46-.74-1.52-1.37-2.72-1.37-2.11,0-4.18,1.76-4.18,5.05,0,1.5.48,2.74,1.22,3.61.78.95,1.74,1.37,2.87,1.37s2.07-.45,2.74-1.28ZM103.44,153.19c-1.18,0-2.24-.85-2.24-2.85,0-2.24,1.09-3.04,2.15-3.04s2.13.8,2.13,2.96-1.09,2.91-2.04,2.93ZM88.39,155.06h2.54l.02-5.28c0-.74.15-1.09.35-1.39.33-.48.93-.8,1.54-.8.87,0,1.5.57,1.5,1.63v5.83h2.54v-6.65c0-1.76-1.3-3.11-3.26-3.11-1.35,0-2.3.72-2.61,1.46l-.11-1.11-2.48-.02-.02,9.42ZM83.67,153.99c.06.37.19.78.33,1.07h2.57c-.15-.13-.41-.56-.41-1.33l-.02-4.81c-.04-.83-.09-1.07-.15-1.28-.37-1.3-1.42-2.33-3.98-2.33-2.94,0-4.09,1.5-4.09,3.15l2.22.04c.11-.63.2-.76.41-.95.22-.22.7-.44,1.46-.44,1.18,0,1.65.63,1.65,1.07s-.3.76-.98.89l-2.54.44c-1.91.33-2.8,1.57-2.8,2.82,0,1.63,1.26,3.02,3.54,3.02,1.57,0,2.43-.63,2.78-1.35ZM83.69,150.05l-.02,1.41c-.05,1.18-.85,2-2.24,2-1.05,0-1.57-.63-1.57-1.19,0-.44.22-1.02,1.72-1.39l1.11-.3c.41-.09.76-.3,1-.54ZM82.17,144.51l2.54.02.02-2.57h-2.55v2.55ZM78.85,144.51h2.54l.02-2.57h-2.54l-.02,2.57ZM71.23,155.06h2.52l3.2-9.42h-2.56l-1.89,6.2-1.87-6.18h-2.57l3.17,9.41ZM58.38,155.06h2.54l.02-5.28c0-.74.15-1.09.35-1.39.33-.48.93-.8,1.54-.8.87,0,1.5.57,1.5,1.63v5.83h2.54v-6.65c0-1.76-1.3-3.11-3.26-3.11-1.35,0-2.3.72-2.61,1.46l-.11-1.11-2.48-.02-.02,9.42ZM45.01,155.06h2.74l.89-2.76h4.74l.85,2.76h2.78l-4.5-13.11h-2.91l-4.59,13.11Z"/>
  <path class="cls-2" d="M29.47,174.29c.04,1.78,1.54,3.48,4.42,3.48s4.24-1.57,4.24-3.26c0-.59-.22-1.18-.59-1.65-.35-.44-.8-.78-1.93-1.04l-2.7-.63c-.55-.15-.8-.5-.8-.83,0-.37.33-.94,1.57-.94,1.33,0,1.92.7,1.94,1.46l2.24-.04c-.04-.95-.55-1.89-1.35-2.48-.56-.39-1.43-.72-2.8-.72-2.72,0-3.91,1.46-3.91,3.07,0,.76.2,1.3.65,1.78.33.35.74.65,1.8.87l2.04.46c1.2.26,1.33.63,1.33,1.07,0,.41-.39,1.05-1.78,1.05s-2.02-.7-2.09-1.68l-2.3.02ZM114.31,177.44h2.54v-3.09l1.05-1.05,2.59,4.15h3.11l-3.89-5.8,3.39-3.63h-3l-3.26,3.59-.02-7.28h-2.52v13.11ZM103.78,174.29c.04,1.78,1.54,3.48,4.42,3.48s4.24-1.57,4.24-3.26c0-.59-.22-1.18-.59-1.65-.35-.44-.8-.78-1.93-1.04l-2.7-.63c-.56-.15-.8-.5-.8-.83,0-.37.33-.94,1.57-.94,1.33,0,1.93.7,1.95,1.46l2.24-.04c-.04-.95-.56-1.89-1.35-2.48-.55-.39-1.42-.72-2.8-.72-2.72,0-3.91,1.46-3.91,3.07,0,.76.2,1.3.65,1.78.33.35.74.65,1.8.87l2.04.46c1.2.26,1.33.63,1.33,1.07,0,.41-.39,1.05-1.78,1.05s-2.02-.7-2.09-1.68l-2.3.02ZM99.4,176.37c.06.46.17.8.32,1.07h2.57c-.32-.39-.41-.67-.43-.98l.02-5.17c0-2.26-1.18-3.61-4.24-3.61-2.85,0-4.04,1.55-4,3.15l2.24.04c0-.7.54-1.37,1.83-1.37s1.65.61,1.65,1.06c0,.39-.24.74-.93.87l-1.44.24c-2.09.37-2.65.76-3.04,1.11-.57.5-.87,1.2-.87,1.96,0,1.55,1.22,2.96,3.61,2.96,1.37,0,2.17-.46,2.7-1.33ZM99.42,172.48l-.02,1.18c0,1.33-.81,2.17-2.28,2.17-1.06,0-1.56-.63-1.56-1.2,0-.44.15-.94,1.74-1.39l1.09-.3c.5-.13.82-.32,1.02-.46ZM77.56,177.44h2.54v-5.44c0-1.35.76-2.04,1.78-2.04.68,0,1.09.33,1.28.8.04.09.11.3.11,1.04v5.65h2.5v-5.59c0-1.22.76-1.93,1.76-1.93.87,0,1.43.52,1.43,1.63v5.89h2.52l-.02-6.61c-.05-1.98-1.31-3.11-3.04-3.11-1.3,0-2.33.61-2.89,1.65-.48-.98-1.54-1.65-2.78-1.65s-2.13.55-2.61,1.5l-.09-1.18-2.46-.02-.02,9.42ZM67.04,174.29c.04,1.78,1.54,3.48,4.43,3.48s4.24-1.57,4.24-3.26c0-.59-.22-1.18-.59-1.65-.35-.44-.8-.78-1.92-1.04l-2.7-.63c-.55-.15-.8-.5-.8-.83,0-.37.33-.94,1.57-.94,1.33,0,1.93.7,1.94,1.46l2.24-.04c-.04-.95-.56-1.89-1.35-2.48-.55-.39-1.43-.72-2.8-.72-2.72,0-3.91,1.46-3.91,3.07,0,.76.2,1.3.65,1.78.33.35.74.65,1.8.87l2.04.46c1.2.26,1.33.63,1.33,1.07,0,.41-.39,1.05-1.78,1.05s-2.02-.7-2.09-1.68l-2.3.02ZM65.35,177.44v-1.94h-.95c-.3,0-.59-.17-.72-.35-.05-.07-.13-.22-.13-.74v-4.67h1.72v-1.72h-1.72l-.02-2.98h-2.52v2.98h-1.32v1.74l1.33-.02v4.87c0,2.13.87,2.83,2.26,2.83h2.06ZM51.6,173.42l6.98.02c0-2.8-1.26-5.76-4.78-5.76s-4.72,2.87-4.72,5.02c0,3.13,2.07,5.07,4.7,5.07s4.24-1.43,4.63-3.07l-2.54-.17c-.5.87-1.15,1.22-1.96,1.22-1.2,0-2.18-.81-2.32-2.33ZM51.69,171.59c.17-1.15,1.11-1.92,2.07-1.92,1.04,0,1.93.7,2.09,1.92h-4.17ZM42.51,177.44h2.52l3.22-9.42h-2.57l-1.89,6.2-1.87-6.18h-2.57l3.17,9.41Z"/>
</svg>