<svg xmlns="http://www.w3.org/2000/svg" viewBox="0 0 595.28 850.36"><defs><style>.a{fill:#e5e8eb;}.a,.b,.c{fill-rule:evenodd;}.b{fill:#000100;}.c{fill:#1e3b72;}</style></defs><title>M019_C</title><polyline class="a" points="0 850.36 595.28 850.36 595.28 0 0 0 0 850.36"/><path class="b" d="M193.47,626.1l7-22,6.55,22H193.47Zm218.37,15,0.43,3.74h9.79l-0.07-51h-9.87v18.5c-1.8-2.88-5.9-5.33-10.58-5.33-8.21,0-16.27,6.84-16.27,19.65a21.4,21.4,0,0,0,4.75,14,13.78,13.78,0,0,0,11.16,5.33A13.05,13.05,0,0,0,411.84,641.14Zm-7.78-3.53c-4.61,0-8.71-3.31-8.71-11.09,0-8.71,4.25-11.81,8.35-11.81s8.28,3.1,8.28,11.52C412,634.31,407.74,637.54,404.06,637.61Zm-58.53,7.27h9.86l0.07-20.52c0-2.88.58-4.25,1.37-5.4a7.39,7.39,0,0,1,6-3.1c3.38,0,5.83,2.23,5.83,6.34v22.68h9.86V619c0-6.84-5-12.09-12.67-12.09-5.25,0-8.93,2.81-10.15,5.68l-0.43-4.32-9.65-.07Zm-18.36-4.18a15,15,0,0,0,1.3,4.18h10c-0.58-.5-1.58-2.16-1.58-5.18L336.82,621a20.41,20.41,0,0,0-.58-5c-1.44-5-5.54-9.07-15.48-9.07-11.45,0-15.91,5.83-15.91,12.24l8.64,0.14c0.43-2.45.79-3,1.59-3.67s2.73-1.73,5.69-1.73c4.61,0,6.41,2.45,6.41,4.17s-1.15,3-3.81,3.46l-9.86,1.73c-7.42,1.29-10.87,6.12-10.87,10.94,0,6.33,4.9,11.74,13.75,11.74C322.49,646,325.81,643.52,327.17,640.71Zm0.07-15.33-0.07,5.47c-0.21,4.61-3.31,7.77-8.71,7.77-4.1,0-6.12-2.45-6.12-4.61,0-1.73.86-4,6.7-5.4l4.32-1.15A8.16,8.16,0,0,0,327.24,625.38Zm-5.9-21.53,9.86,0.07,0.07-10h-9.93v9.93Zm-12.89,0h9.86l0.07-10h-9.86Zm-29.66,41h9.79L301,608.24H291.1l-7.35,24.12-7.27-24h-10Zm-50,0h9.87l0.07-20.52c0-2.88.58-4.25,1.37-5.4a7.39,7.39,0,0,1,6-3.1c3.38,0,5.83,2.23,5.83,6.34v22.68h9.87V619c0-6.84-5-12.09-12.67-12.09-5.25,0-8.93,2.81-10.15,5.68l-0.44-4.32-9.65-.07Zm-52,0H187.5L191,634.16h18.43l3.31,10.73h10.8l-17.5-51H194.7Z" transform="translate(-1.83 -0.97)"/><path class="b" d="M116.43,719.73c0.14,6.91,6,13.54,17.21,13.54,11.45,0,16.49-6.12,16.49-12.67a10.42,10.42,0,0,0-2.3-6.41c-1.37-1.73-3.1-3-7.49-4l-10.51-2.45c-2.16-.58-3.1-1.94-3.1-3.24s1.29-3.67,6.12-3.67c5.18,0,7.49,2.74,7.56,5.69l8.71-.14a13,13,0,0,0-5.25-9.65c-2.16-1.51-5.54-2.81-10.87-2.81-10.58,0-15.19,5.69-15.19,11.95a9.42,9.42,0,0,0,2.52,6.91c1.29,1.36,2.88,2.52,7,3.38l7.92,1.8c4.68,1,5.18,2.45,5.18,4.18s-1.51,4.1-6.91,4.1c-5.18,0-7.85-2.73-8.13-6.55ZM446.32,732h9.86v-12l4.1-4.1L470.37,732h12.09l-15.12-22.53,13.17-14.11H468.86l-12.67,14L456.11,681h-9.79v51Zm-41-12.24c0.14,6.91,6,13.54,17.21,13.54,11.45,0,16.49-6.12,16.49-12.67a10.42,10.42,0,0,0-2.3-6.41c-1.37-1.73-3.1-3-7.49-4l-10.51-2.45c-2.16-.58-3.1-1.94-3.1-3.24s1.29-3.67,6.12-3.67c5.19,0,7.49,2.74,7.56,5.69l8.71-.14a13,13,0,0,0-5.26-9.65c-2.16-1.51-5.54-2.81-10.87-2.81-10.58,0-15.19,5.69-15.19,11.95a9.41,9.41,0,0,0,2.52,6.91c1.29,1.36,2.88,2.52,7,3.38l7.92,1.8c4.68,1,5.19,2.45,5.19,4.18s-1.51,4.1-6.91,4.1c-5.18,0-7.85-2.73-8.13-6.55Zm-17,8.06a11.53,11.53,0,0,0,1.22,4.18h10a6.17,6.17,0,0,1-1.66-3.81L398,708.06c0-8.78-4.61-14-16.49-14-11.09,0-15.69,6-15.55,12.24l8.71,0.14c0-2.73,2.09-5.33,7.13-5.33,4.83,0,6.41,2.38,6.41,4.11,0,1.51-.94,2.88-3.6,3.38l-5.62.93c-8.13,1.44-10.3,3-11.81,4.32a10,10,0,0,0-3.38,7.63c0,6,4.75,11.52,14,11.52C383.18,733,386.27,731.18,388.36,727.79Zm0.07-15.12-0.07,4.61c0,5.18-3.17,8.43-8.85,8.43-4.11,0-6.05-2.45-6.05-4.68,0-1.73.58-3.67,6.77-5.4l4.25-1.15A11.44,11.44,0,0,0,388.44,712.67ZM303.4,732h9.87V710.8c0-5.26,3-7.92,6.91-7.92a4.92,4.92,0,0,1,5,3.1c0.14,0.36.43,1.15,0.43,4v22h9.72V710.23c0-4.75,3-7.49,6.84-7.49,3.38,0,5.54,2,5.54,6.33V732h9.79l-0.07-25.7c-0.21-7.7-5.11-12.09-11.81-12.09a12.23,12.23,0,0,0-11.23,6.41,11.86,11.86,0,0,0-10.8-6.41c-5,0-8.28,2.16-10.15,5.83l-0.36-4.61-9.58-.07Zm-40.89-12.24c0.14,6.91,6,13.54,17.21,13.54,11.45,0,16.49-6.12,16.49-12.67a10.4,10.4,0,0,0-2.31-6.41c-1.36-1.73-3.1-3-7.49-4l-10.51-2.45c-2.16-.58-3.1-1.94-3.1-3.24s1.3-3.67,6.12-3.67c5.18,0,7.49,2.74,7.56,5.69l8.71-.14a13,13,0,0,0-5.26-9.65c-2.16-1.51-5.54-2.81-10.87-2.81-10.58,0-15.19,5.69-15.19,11.95a9.42,9.42,0,0,0,2.52,6.91c1.3,1.36,2.88,2.52,7,3.38l7.92,1.8c4.68,1,5.18,2.45,5.18,4.18s-1.51,4.1-6.91,4.1c-5.18,0-7.85-2.73-8.14-6.55ZM256,732v-7.56h-3.67a3.65,3.65,0,0,1-2.81-1.37c-0.21-.29-0.5-0.86-0.5-2.88V702h6.7v-6.7H249l-0.07-11.59h-9.79v11.59H234v6.77l5.18-.07V721c0,8.28,3.39,11,8.78,11h8Zm-53.5-15.62,27.15,0.07c0-10.87-4.9-22.39-18.57-22.39-14,0-18.36,11.16-18.36,19.51,0,12.17,8.06,19.73,18.29,19.73s16.49-5.54,18-12l-9.86-.65c-1.94,3.39-4.46,4.75-7.63,4.75C206.79,725.41,203,722.25,202.46,716.34Zm0.36-7.13a8.5,8.5,0,0,1,8.06-7.49c4,0,7.49,2.73,8.13,7.49h-16.2ZM167.12,732h9.79l12.53-36.64h-10l-7.34,24.12-7.27-24h-10Z" transform="translate(-1.83 -0.97)"/><path class="c" d="M217.11,388.09a7.86,7.86,0,1,0,7.86-7.86A7.87,7.87,0,0,0,217.11,388.09Zm-21.92.06a7.93,7.93,0,1,0,7.93-7.93A7.94,7.94,0,0,0,195.19,388.15Zm-21.57,0a7.86,7.86,0,1,0,7.86-7.86A7.87,7.87,0,0,0,173.62,388.16ZM457.88,265.82H349.75v141A41.31,41.31,0,0,1,308.53,448H272.15v1.63a13.92,13.92,0,0,0,13.93,13.91H399a14.07,14.07,0,0,0,14.12-14V424.42a196.63,196.63,0,0,1,7.1-52.33c1.1-3.87,4.41-13.4,6.72-20.06,6.36-18.31,19-33.62,24.77-52.14,2.6-8.29,4.82-16.75,5.49-25.44Zm12.26-21.51a137.41,137.41,0,0,0-113.63-118A107.24,107.24,0,0,0,339,124.51H330.3l-4-2.22a36.74,36.74,0,0,0-17.77-4h-101a40.73,40.73,0,0,0-18,4,41.41,41.41,0,0,0-23.23,37.15v33.22h65.78a7.48,7.48,0,0,1,7.48,7.48v65.28a7.49,7.49,0,0,1-7.48,7.49H166.27V406.85a41.14,41.14,0,0,0,41.19,41.2h51.28v1.63A27.32,27.32,0,0,0,286,477H399c13.7,0,27-9.2,27.28-23.62,0.49-29-1-49.63,6.81-77.75a191.27,191.27,0,0,1,6.25-18.73c9.26-23.53,22.51-37.65,28.14-63.36C471,277.41,472.26,260.76,470.14,244.31ZM454.39,232.9l-2.1-8A124,124,0,0,0,352,139.2l-8.16-1,2.11,3.94c2.85,5.3,3.74,11.32,3.74,17.28V232.9H454.39ZM233.91,265.41V200.13a1.87,1.87,0,0,0-1.82-1.92H166.31v8.63h54.92v47.35H166.31v13.06h65.78A1.83,1.83,0,0,0,233.91,265.41ZM37.26,298.6c0,144.79,117.43,262.22,262.21,262.22S561.61,443.39,561.61,298.6,444.26,36.46,299.47,36.46,37.26,153.82,37.26,298.6Z" transform="translate(-1.83 -0.97)"/></svg>