<svg xmlns="http://www.w3.org/2000/svg" viewBox="0 0 595.28 850.37"><defs><style>.a{fill:#e5e8eb;}.a,.b,.c{fill-rule:evenodd;}.b{fill:#000100;}.c{fill:#1e3b72;}</style></defs><title>M020_C</title><polyline class="a" points="0 850.37 595.28 850.37 595.28 0 0 0 0 850.37"/><path class="b" d="M193.44,626.1l7-22,6.55,22H193.44Zm218.37,15,0.43,3.74H422l-0.07-51H412.1v18.51c-1.8-2.88-5.91-5.33-10.58-5.33-8.21,0-16.27,6.84-16.27,19.65a21.42,21.42,0,0,0,4.75,14,13.79,13.79,0,0,0,11.16,5.33A13.06,13.06,0,0,0,411.81,641.15ZM404,637.62c-4.61,0-8.71-3.31-8.71-11.09,0-8.71,4.25-11.81,8.35-11.81s8.28,3.1,8.28,11.52C412,634.31,407.71,637.55,404,637.62Zm-58.53,7.27h9.86l0.07-20.52c0-2.88.58-4.25,1.37-5.4a7.39,7.39,0,0,1,6-3.1c3.39,0,5.83,2.23,5.83,6.34v22.68h9.86V619c0-6.84-5-12.09-12.67-12.09-5.26,0-8.93,2.81-10.15,5.68l-0.43-4.32-9.65-.07Zm-18.36-4.18a15,15,0,0,0,1.29,4.18h10c-0.58-.5-1.58-2.16-1.58-5.18L336.79,621a20.41,20.41,0,0,0-.58-5c-1.44-5-5.54-9.07-15.48-9.07-11.45,0-15.91,5.83-15.91,12.24l8.64,0.14c0.43-2.45.79-3,1.58-3.67s2.74-1.73,5.69-1.73c4.61,0,6.41,2.45,6.41,4.17s-1.15,3-3.81,3.46l-9.87,1.73c-7.42,1.29-10.87,6.12-10.87,10.94,0,6.33,4.9,11.74,13.75,11.74C322.47,646,325.77,643.52,327.14,640.71Zm0.07-15.33-0.07,5.47c-0.21,4.61-3.31,7.77-8.71,7.77-4.11,0-6.12-2.45-6.12-4.61,0-1.73.86-4,6.7-5.4l4.32-1.15A8.16,8.16,0,0,0,327.22,625.38Zm-5.91-21.53,9.87,0.07,0.07-10h-9.94v9.93Zm-12.89,0h9.86l0.07-10H308.5Zm-29.66,41h9.79L301,608.24h-9.93l-7.35,24.12-7.27-24.05h-10Zm-50,0h9.86l0.07-20.52c0-2.88.58-4.25,1.37-5.4a7.39,7.39,0,0,1,6-3.1c3.39,0,5.83,2.23,5.83,6.34v22.68h9.87V619c0-6.84-5-12.09-12.67-12.09-5.26,0-8.93,2.81-10.15,5.68l-0.43-4.32-9.65-.07Zm-52,0h10.66l3.45-10.73h18.43l3.31,10.73h10.8l-17.49-51h-11.3Z" transform="translate(-1.8 -0.96)"/><path class="b" d="M45.91,719.73c0.14,6.91,6,13.54,17.21,13.54,11.45,0,16.49-6.12,16.49-12.67a10.42,10.42,0,0,0-2.3-6.41c-1.37-1.73-3.1-3-7.49-4l-10.51-2.45c-2.16-.58-3.1-1.94-3.1-3.24s1.29-3.67,6.12-3.67c5.19,0,7.49,2.74,7.56,5.69l8.71-.14a13,13,0,0,0-5.26-9.65c-2.16-1.51-5.54-2.81-10.87-2.81-10.58,0-15.19,5.69-15.19,11.95a9.41,9.41,0,0,0,2.52,6.91c1.29,1.36,2.88,2.52,7,3.38l7.92,1.8c4.68,1,5.18,2.45,5.18,4.18s-1.51,4.1-6.91,4.1c-5.18,0-7.85-2.73-8.13-6.55Zm479.86-3.39,27.15,0.07c0-10.87-4.9-22.39-18.58-22.39-14,0-18.36,11.16-18.36,19.51,0,12.17,8.06,19.73,18.29,19.73s16.49-5.55,18-12l-9.86-.65c-1.94,3.39-4.46,4.75-7.63,4.75C530.1,725.42,526.28,722.25,525.78,716.34Zm0.36-7.13a8.5,8.5,0,0,1,8.06-7.49c4,0,7.49,2.73,8.13,7.49h-16.2ZM510.88,732v-7.56H507.2a3.65,3.65,0,0,1-2.81-1.37c-0.21-.29-0.5-0.86-0.5-2.88V702h6.7v-6.7h-6.7l-0.07-11.59H494v11.59h-5.11v6.77l5.18-.07V721c0,8.28,3.39,11,8.78,11h8Zm-37.94,0h9.86V681H473Zm-17.64-4.18a15,15,0,0,0,1.3,4.18h10c-0.58-.5-1.58-2.16-1.58-5.18l-0.07-18.72a17.06,17.06,0,0,0-.58-5c-1.44-5-5.54-9.07-15.48-9.07-11.45,0-15.91,5.83-15.91,12.24l8.64,0.14c0.44-2.45.79-3,1.59-3.67s2.73-1.73,5.69-1.73c4.61,0,6.4,2.45,6.4,4.18s-1.08,3-3.81,3.45l-9.86,1.73c-7.42,1.29-10.87,6.12-10.87,10.94,0,6.33,4.9,11.74,13.75,11.74C450.61,733,453.93,730.6,455.29,727.79Zm0.07-15.33-0.07,5.47c-0.21,4.61-3.31,7.78-8.71,7.78-4.1,0-6.12-2.45-6.12-4.61,0-1.73.86-4,6.7-5.4l4.32-1.15A8.16,8.16,0,0,0,455.37,712.46Zm-5.9-21.53,9.86,0.07,0.07-10h-9.93v9.94Zm-12.89,0h9.86l0.07-10h-9.86Zm-47.95,41h9.72l0.5-3.74a12.86,12.86,0,0,0,10.58,4.9c8.06,0,16.06-6.63,16.06-19.59,0-12.6-8.06-19.44-16-19.44-5.33,0-9.07,2.31-10.94,5.47L398.49,681h-9.86v51ZM407,724.63c-4.1,0-8.35-3.24-8.35-11.45s4.25-11.45,8.28-11.45c4.39,0,8.42,3.1,8.42,11.59C415.33,721.39,411.16,724.63,407,724.63Zm-59.33-4.9c0.14,6.91,6,13.54,17.21,13.54,11.45,0,16.49-6.12,16.49-12.67a10.4,10.4,0,0,0-2.31-6.41c-1.37-1.73-3.1-3-7.49-4L361,707.71c-2.16-.58-3.1-1.94-3.1-3.24s1.29-3.67,6.12-3.67c5.18,0,7.49,2.74,7.56,5.69l8.71-.14a13,13,0,0,0-5.26-9.65c-2.16-1.51-5.55-2.81-10.87-2.81-10.58,0-15.19,5.69-15.19,11.95a9.42,9.42,0,0,0,2.52,6.91c1.3,1.36,2.88,2.52,7,3.38l7.92,1.8c4.68,1,5.18,2.45,5.18,4.18s-1.51,4.1-6.91,4.1c-5.18,0-7.85-2.73-8.14-6.55ZM341.1,732v-7.56h-3.67a3.65,3.65,0,0,1-2.81-1.37c-0.21-.29-0.51-0.86-0.51-2.88V702h6.7v-6.7h-6.7L334,683.73h-9.79v11.59h-5.11v6.77l5.18-.07V721c0,8.28,3.39,11,8.78,11h8Zm-53.42-15.62,27.07,0.07c0-10.87-4.9-22.39-18.51-22.39-14,0-18.36,11.16-18.36,19.51,0,12.17,8.06,19.73,18.29,19.73s16.41-5.55,17.93-12l-9.86-.65c-1.94,3.39-4.46,4.75-7.56,4.75C292,725.42,288.18,722.25,287.68,716.34Zm0.36-7.13a8.5,8.5,0,0,1,8.06-7.49c4,0,7.42,2.73,8.06,7.49H288ZM238.51,732h9.86V711.81c0-6,3.24-8.78,7.35-8.78,3.46,0,5.9,2,5.9,6.63L261.55,732h9.86V706.7c0-4.46-1.51-7.49-3.89-9.57A13.79,13.79,0,0,0,259,694c-5.33,0-9,2.52-10.65,5.9L248.37,681h-9.86v51Zm-26.64,0h9.86V715.7c0-5.47,1.37-8,3-9.72a8.82,8.82,0,0,1,6.69-2.88,13.58,13.58,0,0,1,1.73.14v-8.71a14.71,14.71,0,0,0-2.09-.21,9.45,9.45,0,0,0-9.15,6.55l-0.29-5.55h-9.72V732Zm-34.13-15.62,27.15,0.07c0-10.87-4.9-22.39-18.58-22.39-14,0-18.36,11.16-18.36,19.51,0,12.17,8.06,19.73,18.29,19.73s16.49-5.55,18-12l-9.86-.65c-1.94,3.39-4.46,4.75-7.63,4.75C182.06,725.42,178.25,722.25,177.74,716.34Zm0.36-7.13a8.49,8.49,0,0,1,8.06-7.49c4,0,7.49,2.73,8.13,7.49H178.1ZM127.42,732h9.86v-12l4.11-4.1L151.46,732h12.1l-15.12-22.53,13.18-14.11H150l-12.67,14L137.21,681h-9.79v51Zm-17.64-4.18a15,15,0,0,0,1.3,4.18h10c-0.58-.5-1.58-2.16-1.58-5.18l-0.07-18.72a17,17,0,0,0-.58-5c-1.44-5-5.54-9.07-15.48-9.07-11.45,0-15.91,5.83-15.91,12.24l8.64,0.14c0.43-2.45.79-3,1.59-3.67s2.73-1.73,5.69-1.73c4.61,0,6.41,2.45,6.41,4.18s-1.08,3-3.81,3.45l-9.87,1.73c-7.42,1.29-10.87,6.12-10.87,10.94,0,6.33,4.9,11.74,13.75,11.74C105.1,733,108.41,730.6,109.77,727.79Zm0.07-15.33-0.07,5.47c-0.21,4.61-3.31,7.78-8.71,7.78-4.1,0-6.12-2.45-6.12-4.61,0-1.73.86-4,6.7-5.4l4.32-1.15A8.16,8.16,0,0,0,109.85,712.46Zm-5.9-21.53,9.86,0.07,0.07-10h-9.93v9.94Zm-12.89,0h9.86l0.07-10H91.13Z" transform="translate(-1.8 -0.96)"/><path class="c" d="M507.88,236.07l2.8,10.37A218.42,218.42,0,0,1,516,321.1l-1.45,10.66h-67.7V236.07h61.07Zm-222,185.43-93.63-54L184,381.76l54.64,31.49H125.8v16.5H238.63L184,461.32l8.27,14.3Zm187.25-8.25v16.5H360.29l54.65,31.57-8.26,14.3L313.05,421.5l93.62-54,8.26,14.29-54.65,31.49H473.13Zm-75-151.83H353.19v45h44.93v-45Zm7.5,52.51H345.7v-60h59.93v60Zm22.46,33.67H323.24A11.23,11.23,0,0,1,312,336.37V231.47a11.23,11.23,0,0,1,11.23-11.23H428.09a11.24,11.24,0,0,1,11.25,11.23v104.9A11.24,11.24,0,0,1,428.09,347.59ZM286,245.71V322.2a7.59,7.59,0,0,1-7.5,7.48H231.23l-15.46,16.68H161V329.69H84.12l-1.35-11.52a217.33,217.33,0,0,1,4.71-68.81l3-11.13H161v-16.7h54.82l15.46,16.7h47.25A7.5,7.5,0,0,1,286,245.71ZM270.8,310H238.64V257.87H270.8V310Zm-87.39-78H171V335.89h12.37V232ZM37.23,298.6c0,144.79,117.43,262.22,262.21,262.22S561.59,443.39,561.59,298.6,444.23,36.46,299.44,36.46,37.23,153.81,37.23,298.6Z" transform="translate(-1.8 -0.96)"/></svg>