<?xml version="1.0" encoding="UTF-8"?>
<svg id="Lager_1" data-name="Lager 1" xmlns="http://www.w3.org/2000/svg" viewBox="0 0 153.09 218.69">
  <defs>
    <style>
      .cls-1 {
        fill: #1a4080;
      }

      .cls-1, .cls-2 {
        fill-rule: evenodd;
      }

      .cls-2 {
        fill: #fff;
      }
    </style>
  </defs>
  <polyline class="cls-2" points="0 218.69 153.09 218.69 153.09 0 0 0 0 218.69"/>
  <path class="cls-1" d="M123.4,51.2l.63,2.33c1.38,5.46,1.73,11.16,1.19,16.77l-.33,2.39h-15.2v-21.49h13.72ZM73.54,92.84l-21.03-12.13-1.86,3.21,12.27,7.07h-25.34v3.71h25.34l-12.27,7.09,1.86,3.21,21.03-12.15ZM115.6,90.99v3.71h-25.34l12.27,7.09-1.86,3.21-21.03-12.15,21.03-12.13,1.86,3.21-12.27,7.07h25.34ZM98.75,56.89h-10.09v10.11h10.09v-10.11ZM100.44,68.68h-13.46v-13.47h13.46v13.47ZM105.46,76.24h-23.55c-1.39,0-2.52-1.13-2.52-2.52v-23.56c0-1.39,1.13-2.52,2.52-2.52h23.55c1.39,0,2.53,1.13,2.53,2.52v23.56c0,1.39-1.13,2.52-2.53,2.52ZM73.56,53.37v17.18c-.04.95-.73,1.64-1.69,1.68h-10.61l-3.47,3.75h-12.31v-3.75h-17.26l-.3-2.59c-.47-5.16-.11-10.4,1.06-15.45l.67-2.5h15.83v-3.75h12.31l3.47,3.75h10.61c.93,0,1.69.75,1.69,1.68ZM70.16,67.8h-7.22v-11.7h7.22v11.7ZM50.53,50.27h-2.78v23.34h2.78v-23.34ZM17.68,65.24c0,32.52,26.37,58.89,58.89,58.89s58.87-26.37,58.87-58.89S109.09,6.37,76.57,6.37s-58.89,26.36-58.89,58.87Z"/>
  <polyline class="cls-1" points="10.06 133.7 143.05 133.7 143.05 208.94 10.06 208.94 10.06 133.7"/>
  <path class="cls-2" d="M49.28,150.25l1.8-5.67,1.68,5.67h-3.48ZM105.44,154.12l.11.96h2.52l-.02-13.11h-2.54v4.76c-.46-.74-1.52-1.37-2.72-1.37-2.11,0-4.18,1.76-4.18,5.05,0,1.5.48,2.74,1.22,3.61.78.94,1.74,1.37,2.87,1.37s2.07-.44,2.74-1.28ZM103.44,153.21c-1.18,0-2.24-.85-2.24-2.85,0-2.24,1.09-3.04,2.15-3.04s2.13.8,2.13,2.96-1.09,2.91-2.04,2.92ZM88.39,155.08h2.54l.02-5.28c0-.74.15-1.09.35-1.39.33-.48.92-.8,1.54-.8.87,0,1.5.57,1.5,1.63v5.83h2.54v-6.65c0-1.76-1.3-3.11-3.26-3.11-1.35,0-2.3.72-2.61,1.46l-.11-1.11-2.48-.02-.02,9.42ZM83.67,154.01c.06.37.18.78.33,1.07h2.57c-.15-.13-.41-.55-.41-1.33l-.02-4.81c-.04-.83-.09-1.07-.15-1.28-.37-1.3-1.43-2.33-3.98-2.33-2.94,0-4.09,1.5-4.09,3.15l2.22.04c.11-.63.2-.76.41-.94.22-.22.7-.44,1.46-.44,1.18,0,1.65.63,1.65,1.07s-.3.76-.98.89l-2.54.45c-1.91.33-2.8,1.57-2.8,2.81,0,1.63,1.26,3.02,3.54,3.02,1.57,0,2.42-.63,2.78-1.35ZM83.69,150.07l-.02,1.41c-.05,1.18-.85,2-2.24,2-1.06,0-1.57-.63-1.57-1.18,0-.45.22-1.02,1.72-1.39l1.11-.3c.41-.09.76-.3,1-.54ZM82.17,144.53l2.54.02.02-2.57h-2.56v2.55ZM78.85,144.53h2.54l.02-2.57h-2.54l-.02,2.57ZM71.23,155.08h2.52l3.2-9.42h-2.55l-1.89,6.2-1.87-6.18h-2.57l3.17,9.41ZM58.38,155.08h2.54l.02-5.28c0-.74.15-1.09.35-1.39.33-.48.92-.8,1.54-.8.87,0,1.5.57,1.5,1.63v5.83h2.54v-6.65c0-1.76-1.3-3.11-3.26-3.11-1.35,0-2.3.72-2.61,1.46l-.11-1.11-2.48-.02-.02,9.42ZM45.01,155.08h2.74l.89-2.76h4.74l.85,2.76h2.78l-4.5-13.11h-2.91l-4.59,13.11Z"/>
  <path class="cls-2" d="M13.69,174.3c.04,1.78,1.48,3.48,4.27,3.48s4.09-1.57,4.09-3.26c0-.59-.21-1.18-.57-1.65-.34-.44-.77-.78-1.86-1.04l-2.61-.63c-.54-.15-.77-.5-.77-.83,0-.37.32-.94,1.52-.94,1.28,0,1.86.7,1.87,1.46l2.16-.04c-.04-.94-.54-1.89-1.3-2.48-.53-.39-1.38-.72-2.7-.72-2.62,0-3.77,1.46-3.77,3.07,0,.76.2,1.3.62,1.78.32.35.71.65,1.73.87l1.96.46c1.16.26,1.28.63,1.28,1.07,0,.41-.38,1.06-1.71,1.06s-1.95-.7-2.02-1.68l-2.21.02ZM132.68,173.43l6.73.02c0-2.79-1.21-5.76-4.61-5.76s-4.55,2.87-4.55,5.02c0,3.13,2,5.07,4.53,5.07s4.09-1.43,4.46-3.07l-2.45-.17c-.48.87-1.11,1.22-1.89,1.22-1.16,0-2.11-.82-2.23-2.33ZM132.77,171.59c.16-1.15,1.07-1.93,2-1.93,1,0,1.86.7,2.02,1.93h-4.02ZM128.99,177.44v-1.94h-.91c-.29,0-.57-.17-.7-.35-.05-.07-.12-.22-.12-.74v-4.67h1.66v-1.72h-1.66l-.02-2.98h-2.43v2.98h-1.27v1.74l1.28-.02v4.87c0,2.13.84,2.83,2.18,2.83h1.98ZM119.58,177.44h2.45v-13.11h-2.43l-.02,13.11ZM115.2,176.37c.05.37.18.78.32,1.07h2.48c-.14-.13-.39-.56-.39-1.33l-.02-4.81c-.02-.83-.09-1.07-.14-1.28-.36-1.3-1.38-2.33-3.84-2.33-2.84,0-3.95,1.5-3.95,3.15l2.14.04c.11-.63.2-.76.39-.94.21-.22.68-.44,1.41-.44,1.14,0,1.59.63,1.59,1.07s-.27.76-.95.89l-2.45.44c-1.84.33-2.7,1.57-2.7,2.81,0,1.63,1.21,3.02,3.41,3.02,1.52,0,2.34-.63,2.68-1.35ZM115.22,172.43l-.02,1.41c-.05,1.18-.82,2-2.16,2-1.02,0-1.52-.63-1.52-1.18,0-.44.21-1.02,1.66-1.39l1.07-.3c.39-.09.73-.3.96-.54ZM113.76,166.89l2.45.02.02-2.57h-2.46v2.55ZM110.56,166.89h2.45l.02-2.57h-2.44l-.02,2.57ZM98.67,177.44h2.41l.12-.96c.64.83,1.52,1.26,2.62,1.26,2,0,3.98-1.7,3.98-5.04s-2-5-3.96-5c-1.32,0-2.25.59-2.71,1.41l-.02-4.78h-2.45v13.11ZM103.22,175.56c-1.02,0-2.07-.83-2.07-2.94s1.05-2.94,2.05-2.94c1.09,0,2.09.8,2.09,2.98s-1.03,2.91-2.07,2.91ZM88.51,174.3c.04,1.78,1.48,3.48,4.27,3.48s4.09-1.57,4.09-3.26c0-.59-.21-1.18-.57-1.65-.34-.44-.77-.78-1.86-1.04l-2.61-.63c-.54-.15-.77-.5-.77-.83,0-.37.32-.94,1.52-.94,1.29,0,1.86.7,1.88,1.46l2.16-.04c-.04-.94-.54-1.89-1.3-2.48-.54-.39-1.38-.72-2.7-.72-2.62,0-3.77,1.46-3.77,3.07,0,.76.2,1.3.62,1.78.32.35.71.65,1.73.87l1.96.46c1.16.26,1.29.63,1.29,1.07,0,.41-.38,1.06-1.71,1.06s-1.95-.7-2.02-1.68l-2.21.02ZM86.89,177.44v-1.94h-.91c-.29,0-.57-.17-.7-.35-.05-.07-.12-.22-.12-.74v-4.67h1.66v-1.72h-1.66l-.02-2.98h-2.43v2.98h-1.27v1.74l1.29-.02v4.87c0,2.13.84,2.83,2.18,2.83h1.98ZM73.64,173.43l6.71.02c0-2.79-1.21-5.76-4.59-5.76s-4.55,2.87-4.55,5.02c0,3.13,2,5.07,4.53,5.07s4.07-1.43,4.45-3.07l-2.45-.17c-.48.87-1.11,1.22-1.88,1.22-1.16,0-2.11-.82-2.23-2.33ZM73.73,171.59c.16-1.15,1.07-1.93,2-1.93.98,0,1.84.7,2,1.93h-4ZM61.45,177.44h2.45v-5.18c0-1.54.8-2.26,1.82-2.26.86,0,1.46.52,1.46,1.7l-.02,5.74h2.45v-6.5c0-1.15-.38-1.93-.96-2.46-.52-.46-1.34-.8-2.12-.8-1.32,0-2.23.65-2.64,1.52l.02-4.87h-2.45v13.11ZM54.84,177.44h2.45v-4.18c0-1.41.34-2.05.73-2.5.46-.5,1-.74,1.66-.74.14,0,.29.02.43.04v-2.24c-.12-.02-.32-.06-.52-.06-1.07,0-1.98.7-2.27,1.68l-.07-1.43h-2.41v9.42ZM46.38,173.43l6.73.02c0-2.79-1.21-5.76-4.61-5.76s-4.55,2.87-4.55,5.02c0,3.13,2,5.07,4.54,5.07s4.09-1.43,4.46-3.07l-2.45-.17c-.48.87-1.11,1.22-1.89,1.22-1.16,0-2.11-.82-2.23-2.33ZM46.47,171.59c.16-1.15,1.07-1.93,2-1.93,1,0,1.86.7,2.02,1.93h-4.02ZM33.9,177.44h2.45v-3.09l1.02-1.06,2.5,4.15h3l-3.75-5.8,3.27-3.63h-2.89l-3.14,3.59-.02-7.28h-2.43v13.11ZM29.53,176.37c.05.37.18.78.32,1.07h2.48c-.14-.13-.39-.56-.39-1.33l-.02-4.81c-.02-.83-.09-1.07-.14-1.28-.36-1.3-1.38-2.33-3.84-2.33-2.84,0-3.95,1.5-3.95,3.15l2.14.04c.11-.63.2-.76.39-.94.21-.22.68-.44,1.41-.44,1.14,0,1.59.63,1.59,1.07s-.27.76-.95.89l-2.45.44c-1.84.33-2.69,1.57-2.69,2.81,0,1.63,1.21,3.02,3.41,3.02,1.52,0,2.34-.63,2.68-1.35ZM29.55,172.43l-.02,1.41c-.05,1.18-.82,2-2.16,2-1.02,0-1.52-.63-1.52-1.18,0-.44.21-1.02,1.66-1.39l1.07-.3c.39-.09.73-.3.96-.54ZM28.08,166.89l2.45.02.02-2.57h-2.46v2.55ZM24.89,166.89h2.45l.02-2.57h-2.45l-.02,2.57Z"/>
</svg>