<svg xmlns="http://www.w3.org/2000/svg" viewBox="0 0 595.28 850.36"><defs><style>.a{fill:#e5e8eb;}.a,.b,.c{fill-rule:evenodd;}.b{fill:#000100;}.c{fill:#1e3b72;}</style></defs><title>M021_C</title><polyline class="a" points="0 850.36 595.28 850.36 595.28 0 0 0 0 850.36"/><path class="b" d="M54,614.34V602H67.35a6.1,6.1,0,0,1,5.76,6.19,6.29,6.29,0,0,1-6.55,6.26Zm467.84,30.53h9.86l0.07-20.52c0-2.88.58-4.25,1.37-5.4a7.41,7.41,0,0,1,6-3.1c3.38,0,5.83,2.23,5.83,6.33v22.68h9.86V619c0-6.84-5-12.1-12.6-12.1-5.25,0-9,2.81-10.22,5.69l-0.43-4.32-9.65-.07Zm-34.12-15.62,27.22,0.07c0-10.87-5-22.39-18.57-22.39-14,0-18.43,11.16-18.43,19.51,0,12.17,8.06,19.73,18.29,19.73s16.56-5.54,18-12l-9.86-.65c-1.87,3.38-4.46,4.75-7.63,4.75C492,638.32,488.17,635.15,487.67,629.25Zm0.43-7.13a8.37,8.37,0,0,1,8-7.49c4,0,7.49,2.74,8.13,7.49H488.1Zm-15.26,22.75v-7.56h-3.74a3.65,3.65,0,0,1-2.81-1.37c-0.22-.29-0.51-0.86-0.51-2.88V614.92h6.7v-6.7h-6.62l-0.07-11.59H456v11.59h-5.18V615l5.18-.07v18.94c0,8.28,3.38,11,8.85,11h8Zm-60.62,0h9.94l-0.07-12,4.18-4.11,10.08,16.13h12l-15.12-22.54,13.17-14.11H434.75l-12.6,14-0.07-28.29h-9.86v51Zm-18.29-4.18a10.25,10.25,0,0,0,1.15,4.18h10.08a5.47,5.47,0,0,1-1.66-3.82V621c0-8.78-4.54-14-16.49-14-11.09,0-15.7,6-15.48,12.24l8.71,0.14c0-2.74,2-5.33,7.06-5.33,4.82,0,6.41,2.38,6.41,4.1,0,1.51-.94,2.88-3.6,3.38l-5.61.94c-8.06,1.44-10.3,3-11.81,4.32a10.2,10.2,0,0,0-3.38,7.63c0,6,4.75,11.52,14,11.52C388.67,645.88,391.84,644.08,393.92,640.69Zm0-15.12v4.61c0,5.18-3.24,8.42-8.85,8.42-4.18,0-6.12-2.45-6.12-4.68,0-1.73.58-3.67,6.77-5.4l4.32-1.15A11.49,11.49,0,0,0,393.92,625.57ZM363,644.87v-7.56h-3.74a3.66,3.66,0,0,1-2.81-1.37c-0.21-.29-0.51-0.86-0.51-2.88V614.92h6.7v-6.7h-6.62L356,596.63h-9.79v11.59H341V615l5.18-.07v18.94c0,8.28,3.39,11,8.86,11h8Zm-60.84,0h9.86l0.07-20.52c0-2.88.58-4.25,1.37-5.4a7.4,7.4,0,0,1,6-3.1c3.38,0,5.83,2.23,5.83,6.33v22.68h9.86V619c0-6.84-5-12.1-12.6-12.1-5.25,0-9,2.81-10.22,5.69l-0.43-4.32-9.65-.07Zm-26.13,1.37c11.16,0,19.29-7.85,19.29-19.8,0-11.59-8.06-19.59-19.37-19.59-11.09,0-19.22,7.92-19.22,19.51C256.77,638.46,264.91,646.24,276.07,646.24ZM276,638.53c-4.68,0-9.14-3.6-9.14-11.74,0-8.78,4.39-12.24,9.22-12.24s9.22,3.53,9.22,11.88C285.28,635,280.82,638.53,276,638.53Zm-59.76,6.34h9.94l-0.07-12,4.18-4.11,10.08,16.13h12l-15.12-22.54,13.17-14.11H238.77l-12.6,14L226.1,593.9h-9.87v51Zm-36.64,0v-7.56h-3.74a3.66,3.66,0,0,1-2.81-1.37c-0.22-.29-0.51-0.86-0.51-2.88V614.92h6.7v-6.7h-6.62l-0.07-11.59h-9.79v11.59h-5.18V615l5.18-.07v18.94c0,8.28,3.38,11,8.86,11h8ZM120.84,649v7.7h7.27c8.57,0,10.58-6.77,11.38-9l13.89-39.53H142.94L135.6,630.9l-7.7-22.68H117.31l11.37,30.89a13.7,13.7,0,0,1,.94,5c0,3-1.58,5-5.9,4.9h-2.88Zm-29-4.18h9.86l0.07-16.27c0-5.47,1.3-8,3-9.72a8.62,8.62,0,0,1,6.7-2.88,13.16,13.16,0,0,1,1.66.14l0.07-8.71a14.13,14.13,0,0,0-2.16-.22,9.52,9.52,0,0,0-9.14,6.55l-0.29-5.54H91.9Zm-48.45,0H69.58c4.75,0,7.05-.79,9.65-2.59a13.37,13.37,0,0,0,5.69-11.52,13,13,0,0,0-10-13.18,10.81,10.81,0,0,0,8.21-10.8,12.05,12.05,0,0,0-5.83-10.87c-2.09-1.29-4-2-8.57-2H43.37v51ZM54,636.59V622L66.48,622c4.61,0,7.63,3.31,7.63,7.13a7.43,7.43,0,0,1-7.63,7.49H54Z" transform="translate(-1.34 -0.95)"/><path class="b" d="M110.54,732h9.86v-30.1h7.13V695.3h-7.2v-0.72c0-3.31.65-4.25,1.22-4.9,0.79-.86,1.94-1.51,4.32-1.44h1.66V681h-5.61c-3.38,0-12.31.58-11.37,14.32h-5.33v6.55h5.33V732Zm354.94-15.62,27.21,0.07c0-10.87-4.9-22.39-18.57-22.39-14,0-18.36,11.16-18.36,19.51,0,12.17,8.06,19.73,18.29,19.73s16.49-5.54,18-11.95l-9.94-.65c-1.87,3.38-4.39,4.75-7.63,4.75C469.8,725.4,466,722.23,465.48,716.33Zm0.43-7.13a8.39,8.39,0,0,1,8.06-7.49c4,0,7.42,2.74,8.13,7.49h-16.2ZM450.65,732v-7.56H447a3.65,3.65,0,0,1-2.81-1.37c-0.22-.29-0.51-0.86-0.51-2.88V702h6.62v-6.7h-6.62l-0.07-11.59H433.8V695.3H428.7v6.77l5.18-.07-0.07,18.94c0,8.28,3.46,11,8.86,11h8Zm-53.57-15.62,27.22,0.07c0-10.87-4.9-22.39-18.57-22.39-14,0-18.36,11.16-18.36,19.51,0,12.17,8.06,19.73,18.29,19.73s16.49-5.54,18-11.95l-9.94-.65c-1.87,3.38-4.39,4.75-7.63,4.75C401.41,725.4,397.59,722.23,397.09,716.33Zm0.43-7.13a8.39,8.39,0,0,1,8.06-7.49c4,0,7.42,2.74,8.13,7.49h-16.2ZM344.39,732h9.72l0.51-3.74a12.82,12.82,0,0,0,10.51,4.9c8.14,0,16.13-6.62,16.13-19.58,0-12.6-8.06-19.44-16.05-19.44-5.26,0-9,2.3-10.95,5.47V681h-9.86v51Zm18.36-7.35c-4.1,0-8.35-3.24-8.35-11.45s4.25-11.45,8.28-11.45c4.39,0,8.42,3.1,8.42,11.59C371.1,721.37,366.92,724.61,362.74,724.61Zm-45,7.35h9.86V715.68c0-5.47,1.36-8,3-9.72a8.72,8.72,0,0,1,6.7-2.88,12.16,12.16,0,0,1,1.66.14l0.07-8.71a14.1,14.1,0,0,0-2.09-.22,9.45,9.45,0,0,0-9.14,6.55l-0.29-5.54h-9.72V732Zm-18.36-4.18a11.55,11.55,0,0,0,1.23,4.18h10a6.21,6.21,0,0,1-1.66-3.81V708c0-8.78-4.53-14-16.42-14-11.09,0-15.69,6-15.48,12.24l8.71,0.14c0-2.74,2-5.33,7.05-5.33,4.83,0,6.41,2.38,6.41,4.1,0,1.51-.86,2.88-3.53,3.38l-5.69.94c-8.06,1.44-10.22,3-11.81,4.32a10.12,10.12,0,0,0-3.31,7.63c0,6,4.75,11.52,14,11.52C294.28,733,297.37,731.16,299.39,727.77Zm0.07-15.12-0.07,4.61c0,5.18-3.17,8.42-8.78,8.42-4.1,0-6.12-2.45-6.12-4.68,0-1.73.65-3.67,6.84-5.4l4.25-1.15A11,11,0,0,0,299.46,712.66Zm-87.62,3.67,27.22,0.07c0-10.87-4.9-22.39-18.57-22.39-14,0-18.36,11.16-18.36,19.51,0,12.17,8.06,19.73,18.29,19.73s16.49-5.54,18-11.95l-9.94-.65c-1.87,3.38-4.39,4.75-7.63,4.75C216.16,725.4,212.34,722.23,211.84,716.33Zm0.43-7.13a8.39,8.39,0,0,1,8.06-7.49c4,0,7.42,2.74,8.13,7.49h-16.2ZM177.64,732h9.86V715.68c0-5.47,1.37-8,3-9.72a8.72,8.72,0,0,1,6.7-2.88,12.17,12.17,0,0,1,1.66.14l0.07-8.71a14,14,0,0,0-2.09-.22,9.45,9.45,0,0,0-9.14,6.55l-0.29-5.54h-9.72V732Zm-26.71,1.44c11.81,0,19.73-7.92,19.73-19.87,0-11.74-8.06-19.66-19.44-19.66-11.09,0-19.29,7.92-19.29,19.66C131.92,725.47,140.13,733.39,150.93,733.39Zm0.58-7.7c-5.18,0-9.5-3.67-9.5-12.17,0-8.21,4.39-12,9.43-12,4.75,0,9.14,3.31,9.14,12.24C160.58,722.45,155.9,725.69,151.5,725.69Zm1.29-34.77h9.94L162.66,681l-9.86-.07v10Zm-12.81,0h9.86L149.78,681,140,680.9v10Z" transform="translate(-1.34 -0.95)"/><path class="c" d="M278.4,436.23A20.58,20.58,0,1,0,299,415.65,20.55,20.55,0,0,0,278.4,436.23ZM329,89.31l-10-1.16a172.84,172.84,0,0,0-40,0l-10,1.16V208.12h60V89.31Zm64.28,92.54L283.65,400.07A39.32,39.32,0,0,0,269,461.69v44.91l10,1.15a174.59,174.59,0,0,0,40,0l10-1.15V461.69a39.32,39.32,0,0,0,8.15-34.74L446.89,208.8ZM273.5,252.75l-79-45.88-6.53,11.42,48,27.93H131.67v13.15H235.95l-48,27.93,6.53,11.34ZM36.77,298.59C36.77,443.37,154.19,560.8,299,560.8S561.12,443.37,561.12,298.59,443.77,36.44,299,36.44,36.77,153.8,36.77,298.59Z" transform="translate(-1.34 -0.95)"/></svg>