<?xml version="1.0" encoding="UTF-8"?>
<svg id="Lager_1" data-name="Lager 1" xmlns="http://www.w3.org/2000/svg" viewBox="0 0 153.09 218.69">
  <defs>
    <style>
      .cls-1 {
        fill: #1a4080;
      }

      .cls-1, .cls-2 {
        fill-rule: evenodd;
      }

      .cls-2 {
        fill: #fff;
      }
    </style>
  </defs>
  <polyline class="cls-2" points="0 218.69 153.09 218.69 153.09 0 0 0 0 218.69"/>
  <path class="cls-1" d="M71.95,96.22c0,2.55,2.06,4.61,4.61,4.61s4.61-2.06,4.61-4.61-2.06-4.61-4.61-4.61-4.61,2.06-4.61,4.61ZM83.31,18.44l-2.24-.26c-2.98-.35-6-.35-8.98,0l-2.24.26v26.64h13.46v-26.64ZM97.72,39.18l-24.59,48.93c-5.49,2.33-7.13,9.29-3.29,13.82v10.07l2.24.26c2.98.34,6,.34,8.98,0l2.24-.26v-10.07c1.81-2.11,2.51-5.1,1.83-7.79l24.61-48.92-12.02-6.05ZM70.86,55.09l-17.72-10.29-1.46,2.56,10.77,6.26h-23.38v2.95h23.38l-10.77,6.26,1.46,2.54,17.72-10.29ZM17.77,65.36c0,32.46,26.33,58.8,58.8,58.8s58.78-26.33,58.78-58.8S109.03,6.58,76.56,6.58s-58.8,26.31-58.8,58.78Z"/>
  <polyline class="cls-1" points="10.06 133.72 143.05 133.72 143.05 208.96 10.06 208.96 10.06 133.72"/>
  <path class="cls-2" d="M16.65,145.86v-3.17h3.27c.56,0,1.41.54,1.41,1.59,0,.89-.67,1.61-1.6,1.61l-3.08-.04ZM131,153.71h2.41l.02-5.28c0-.74.14-1.09.33-1.39.32-.48.88-.8,1.46-.8.83,0,1.43.57,1.43,1.63v5.83h2.41v-6.65c0-1.76-1.23-3.11-3.08-3.11-1.28,0-2.2.72-2.5,1.46l-.1-1.11-2.36-.02-.02,9.42ZM122.66,149.69l6.65.02c0-2.8-1.21-5.76-4.54-5.76s-4.51,2.87-4.51,5.02c0,3.13,1.97,5.07,4.47,5.07s4.05-1.42,4.4-3.07l-2.41-.17c-.46.87-1.09,1.22-1.86,1.22-1.14,0-2.08-.82-2.2-2.33ZM122.77,147.86c.14-1.15,1.04-1.93,1.95-1.93.99,0,1.83.7,1.99,1.93h-3.94ZM119.04,153.71v-1.94h-.92c-.28,0-.56-.17-.69-.35-.05-.07-.12-.22-.12-.74v-4.67h1.64v-1.72h-1.62l-.02-2.98h-2.39v2.98h-1.27v1.74l1.27-.02v4.87c0,2.13.83,2.83,2.17,2.83h1.95ZM104.22,153.71h2.43l-.02-3.09,1.02-1.05,2.46,4.15h2.94l-3.7-5.79,3.22-3.63h-2.85l-3.08,3.59-.02-7.28h-2.41v13.11ZM99.75,152.63c.04.46.14.8.28,1.07h2.46c-.32-.39-.4-.67-.4-.98v-5.17c0-2.26-1.11-3.61-4.03-3.61-2.71,0-3.84,1.56-3.78,3.15l2.13.04c0-.7.49-1.37,1.72-1.37s1.57.61,1.57,1.05c0,.39-.23.74-.88.87l-1.37.24c-1.97.37-2.52.76-2.89,1.11-.53.5-.83,1.2-.83,1.96,0,1.55,1.16,2.96,3.43,2.96,1.3,0,2.08-.46,2.59-1.33ZM99.75,148.75v1.18c0,1.33-.79,2.17-2.16,2.17-1.02,0-1.5-.63-1.5-1.2,0-.45.14-.95,1.66-1.39l1.06-.3c.46-.13.76-.32.95-.46ZM92.2,153.71v-1.94h-.92c-.28,0-.56-.17-.69-.35-.05-.07-.12-.22-.12-.74v-4.67h1.64v-1.72h-1.62l-.02-2.98h-2.39v2.98h-1.27v1.74l1.27-.02v4.87c0,2.13.83,2.83,2.16,2.83h1.95ZM77.33,153.71h2.41l.02-5.28c0-.74.14-1.09.33-1.39.32-.48.88-.8,1.46-.8.83,0,1.43.57,1.43,1.63v5.83h2.41v-6.65c0-1.76-1.23-3.11-3.08-3.11-1.29,0-2.2.72-2.5,1.46l-.1-1.11-2.36-.02-.02,9.42ZM70.94,154.06c2.73,0,4.72-2.02,4.72-5.09s-1.97-5.04-4.73-5.04-4.7,2.04-4.7,5.02,1.99,5.11,4.72,5.11ZM70.92,152.08c-1.14,0-2.24-.93-2.24-3.02,0-2.26,1.07-3.15,2.25-3.15s2.25.91,2.25,3.05-1.09,3.11-2.27,3.11ZM56.31,153.71h2.43l-.02-3.09,1.02-1.05,2.46,4.15h2.94l-3.7-5.79,3.22-3.63h-2.85l-3.08,3.59-.02-7.28h-2.41v13.11ZM47.36,153.71v-1.94h-.92c-.28,0-.56-.17-.69-.35-.05-.07-.12-.22-.12-.74v-4.67h1.64v-1.72h-1.62l-.02-2.98h-2.39v2.98h-1.27v1.74l1.27-.02v4.87c0,2.13.83,2.83,2.17,2.83h1.95ZM33,154.78v1.98h1.78c2.09,0,2.59-1.74,2.78-2.31l3.4-10.17h-2.55l-1.8,5.83-1.88-5.83h-2.59l2.78,7.94c.18.52.23.87.23,1.3,0,.76-.39,1.28-1.44,1.26h-.7ZM25.9,153.71h2.41l.02-4.18c0-1.41.32-2.06.72-2.5.44-.5.97-.74,1.64-.74.14,0,.26.02.41.04l.02-2.24c-.12-.02-.32-.06-.53-.06-1.04,0-1.95.7-2.24,1.68l-.07-1.43h-2.36l-.02,9.42ZM14.06,153.71h6.41c1.16,0,1.72-.2,2.36-.67.88-.65,1.39-1.65,1.39-2.96,0-1.7-.93-2.96-2.45-3.39,1.25-.37,2.01-1.43,2.01-2.78,0-1.26-.51-2.2-1.43-2.8-.51-.33-.98-.52-2.09-.52h-6.19v13.11ZM16.65,151.58v-3.74l3.06-.02c1.13,0,1.87.85,1.87,1.83,0,1.07-.79,1.93-1.87,1.93h-3.06Z"/>
  <path class="cls-2" d="M28.08,177.44h2.54v-7.74h1.83v-1.68h-1.85v-.18c0-.85.17-1.09.31-1.26.2-.22.5-.39,1.11-.37h.43v-1.87h-1.44c-.87,0-3.17.15-2.93,3.68h-1.37v1.68h1.37v7.74ZM119.36,173.42l7,.02c0-2.8-1.26-5.76-4.78-5.76s-4.72,2.87-4.72,5.02c0,3.13,2.07,5.07,4.7,5.07s4.24-1.43,4.63-3.07l-2.56-.17c-.48.87-1.13,1.22-1.96,1.22-1.2,0-2.18-.82-2.31-2.33ZM119.48,171.59c.15-1.15,1.09-1.93,2.07-1.93s1.91.7,2.09,1.93h-4.17ZM115.55,177.44v-1.94h-.94c-.3,0-.59-.17-.72-.35-.06-.07-.13-.22-.13-.74v-4.67h1.7v-1.72h-1.7l-.02-2.98h-2.52v2.98h-1.31v1.74l1.33-.02-.02,4.87c0,2.13.89,2.83,2.28,2.83h2.05ZM101.77,173.42l7,.02c0-2.8-1.26-5.76-4.78-5.76s-4.72,2.87-4.72,5.02c0,3.13,2.07,5.07,4.7,5.07s4.24-1.43,4.63-3.07l-2.56-.17c-.48.87-1.13,1.22-1.96,1.22-1.2,0-2.19-.82-2.32-2.33ZM101.89,171.59c.15-1.15,1.09-1.93,2.07-1.93s1.91.7,2.09,1.93h-4.17ZM88.22,177.44h2.5l.13-.96c.67.83,1.57,1.26,2.7,1.26,2.09,0,4.15-1.7,4.15-5.04s-2.07-5-4.13-5c-1.35,0-2.32.59-2.82,1.41v-4.78h-2.54v13.11ZM92.94,175.55c-1.06,0-2.15-.83-2.15-2.94s1.09-2.94,2.13-2.94c1.13,0,2.17.8,2.17,2.98s-1.07,2.91-2.15,2.91ZM81.37,177.44h2.54v-4.18c0-1.41.35-2.06.76-2.5.48-.5,1.02-.74,1.72-.74.15,0,.3.02.43.04l.02-2.24c-.13-.02-.33-.06-.54-.06-1.11,0-2.05.7-2.35,1.68l-.07-1.43h-2.5v9.43ZM76.65,176.37c.06.46.17.8.32,1.07h2.57c-.32-.39-.41-.67-.43-.98v-5.17c0-2.26-1.17-3.61-4.22-3.61-2.85,0-4.04,1.55-3.98,3.15l2.24.04c0-.7.52-1.37,1.81-1.37s1.65.61,1.65,1.05c0,.39-.22.74-.91.87l-1.46.24c-2.07.37-2.63.76-3.04,1.11-.56.5-.85,1.2-.85,1.96,0,1.55,1.22,2.96,3.59,2.96,1.39,0,2.19-.46,2.7-1.33ZM76.67,172.48l-.02,1.18c0,1.33-.81,2.17-2.26,2.17-1.05,0-1.57-.63-1.57-1.2,0-.44.17-.94,1.76-1.39l1.09-.3c.48-.13.81-.32,1-.46ZM54.13,173.42l7,.02c0-2.8-1.26-5.76-4.78-5.76s-4.72,2.87-4.72,5.02c0,3.13,2.07,5.07,4.7,5.07s4.24-1.43,4.63-3.07l-2.56-.17c-.48.87-1.13,1.22-1.96,1.22-1.2,0-2.19-.82-2.32-2.33ZM54.24,171.59c.15-1.15,1.09-1.93,2.07-1.93s1.91.7,2.09,1.93h-4.17ZM45.34,177.44h2.54v-4.18c0-1.41.35-2.06.76-2.5.48-.5,1.02-.74,1.72-.74.15,0,.3.02.43.04l.02-2.24c-.13-.02-.33-.06-.54-.06-1.11,0-2.05.7-2.35,1.68l-.07-1.43h-2.5v9.43ZM38.47,177.81c3.04,0,5.07-2.04,5.07-5.11s-2.07-5.05-5-5.05-4.96,2.04-4.96,5.05,2.11,5.11,4.89,5.11ZM38.62,175.83c-1.33,0-2.44-.94-2.44-3.13s1.13-3.07,2.43-3.07c1.22,0,2.35.85,2.35,3.15s-1.2,3.05-2.33,3.05ZM38.95,166.89h2.56l-.02-2.55-2.54-.02v2.57ZM35.66,166.89h2.54l-.02-2.55-2.52-.02v2.57Z"/>
</svg>