<svg xmlns="http://www.w3.org/2000/svg" viewBox="0 0 595.28 850.36"><defs><style>.a{fill:#e5e8eb;}.a,.b,.c{fill-rule:evenodd;}.b{fill:#000100;}.c{fill:#1e3b72;}</style></defs><title>M022_C</title><polyline class="a" points="0 850.36 595.28 850.36 595.28 0 0 0 0 850.36"/><path class="b" d="M193,626.08l7-22,6.55,22H193Zm218.37,15,0.43,3.74h9.79l-0.07-51h-9.86v18.5c-1.8-2.88-5.9-5.33-10.58-5.33-8.21,0-16.27,6.84-16.27,19.66a21.4,21.4,0,0,0,4.75,14,13.77,13.77,0,0,0,11.16,5.33A13.05,13.05,0,0,0,411.32,641.13Zm-7.78-3.53c-4.61,0-8.71-3.31-8.71-11.09,0-8.71,4.25-11.81,8.35-11.81s8.28,3.1,8.28,11.52C411.46,634.29,407.22,637.52,403.54,637.6ZM345,644.87h9.86l0.07-20.52c0-2.88.58-4.25,1.37-5.4a7.4,7.4,0,0,1,6-3.1c3.38,0,5.83,2.23,5.83,6.33v22.68H378V619c0-6.84-5-12.1-12.67-12.1-5.25,0-8.93,2.81-10.15,5.69l-0.43-4.32-9.65-.07Zm-18.36-4.18a15,15,0,0,0,1.3,4.18h10c-0.58-.51-1.58-2.16-1.58-5.18L336.3,621a20.59,20.59,0,0,0-.58-5c-1.44-5-5.54-9.07-15.48-9.07-11.45,0-15.91,5.83-15.91,12.24l8.64,0.14c0.44-2.45.79-3,1.59-3.67s2.73-1.73,5.69-1.73c4.61,0,6.4,2.45,6.4,4.18s-1.15,3-3.81,3.46L313,623.27c-7.42,1.29-10.87,6.12-10.87,10.94,0,6.34,4.9,11.74,13.75,11.74C322,645.95,325.28,643.5,326.65,640.69Zm0.07-15.34-0.07,5.47c-0.21,4.61-3.31,7.78-8.71,7.78-4.1,0-6.12-2.45-6.12-4.61,0-1.73.86-4,6.7-5.4l4.32-1.15A8.13,8.13,0,0,0,326.72,625.36Zm-5.9-21.53,9.86,0.07,0.07-10h-9.93v9.94Zm-12.89,0h9.86l0.07-10H308Zm-29.66,41h9.79l12.45-36.65h-9.93l-7.35,24.12-7.27-24H266Zm-50,0h9.86l0.07-20.52c0-2.88.58-4.25,1.37-5.4a7.4,7.4,0,0,1,6-3.1c3.38,0,5.83,2.23,5.83,6.33v22.68h9.86V619c0-6.84-5-12.1-12.67-12.1-5.25,0-8.93,2.81-10.15,5.69L238,608.29l-9.65-.07Zm-52,0H187l3.46-10.73h18.43l3.31,10.73H223l-17.5-51h-11.3Z" transform="translate(-1.31 -0.95)"/><path class="b" d="M93.3,719.71c0.22,6.91,6,13.54,17.28,13.54S127,727.13,127,720.57a10.36,10.36,0,0,0-2.23-6.41c-1.37-1.73-3.17-3-7.49-4l-10.51-2.45c-2.23-.58-3.1-1.94-3.1-3.24s1.3-3.67,6.05-3.67c5.25,0,7.56,2.74,7.63,5.69l8.71-.14a13.25,13.25,0,0,0-5.26-9.65c-2.16-1.51-5.54-2.81-10.94-2.81-10.51,0-15.19,5.69-15.19,12a9.7,9.7,0,0,0,2.52,6.91c1.37,1.37,3,2.52,7.06,3.38l7.92,1.8c4.61,1,5.18,2.45,5.18,4.18s-1.51,4.1-7,4.1c-5.18,0-7.77-2.73-8.06-6.55ZM450.4,732h9.87l0.07-21.17c0-5.26,3-7.92,6.91-7.92a4.88,4.88,0,0,1,4.9,3.1c0.14,0.36.43,1.15,0.43,4v22h9.79V710.21c0-4.75,3-7.49,6.84-7.49,3.31,0,5.54,2,5.54,6.34V732h9.72l-0.07-25.7c-0.21-7.71-5.11-12.1-11.74-12.1a12.33,12.33,0,0,0-11.3,6.41,11.75,11.75,0,0,0-10.73-6.41c-5,0-8.28,2.16-10.22,5.83l-0.36-4.61-9.57-.07Zm-18.29-4.18a14.91,14.91,0,0,0,1.3,4.18h9.93c-0.58-.51-1.51-2.16-1.51-5.18L441.69,708a18.53,18.53,0,0,0-.51-5c-1.51-5-5.61-9.07-15.55-9.07-11.38,0-15.91,5.83-15.91,12.24l8.71,0.14c0.36-2.45.72-3,1.51-3.67s2.81-1.73,5.76-1.73c4.61,0,6.34,2.45,6.34,4.18s-1.08,3-3.74,3.46l-9.93,1.73c-7.42,1.29-10.87,6.12-10.87,10.94,0,6.34,4.9,11.74,13.75,11.74C427.37,733,430.75,730.58,432.12,727.77Zm0-15.34v5.47c-0.21,4.61-3.38,7.78-8.71,7.78-4.18,0-6.12-2.45-6.12-4.61,0-1.73.86-4,6.7-5.4l4.25-1.15A7.77,7.77,0,0,0,432.12,712.44Zm-5.9-21.53,9.94,0.07V681h-9.86Zm-12.82,0h9.86l0.07-10h-9.86Zm-28.8,41h9.86l0.07-16.27c0-5.47,1.29-8,3-9.72a8.62,8.62,0,0,1,6.7-2.88,12.55,12.55,0,0,1,1.66.14l0.07-8.71a14.17,14.17,0,0,0-2.09-.22,9.39,9.39,0,0,0-9.15,6.55l-0.36-5.54h-9.65ZM342,732h9.86l-0.07-12,4.18-4.11L366.09,732h12l-15-22.54,13.1-14.11H364.59l-12.67,14L351.84,681H342Zm-41-12.24c0.22,6.91,6,13.54,17.28,13.54s16.41-6.12,16.41-12.67a10.35,10.35,0,0,0-2.23-6.41c-1.37-1.73-3.17-3-7.49-4l-10.51-2.45c-2.23-.58-3.1-1.94-3.1-3.24s1.3-3.67,6.05-3.67c5.25,0,7.56,2.74,7.63,5.69l8.71-.14a13.25,13.25,0,0,0-5.26-9.65c-2.16-1.51-5.54-2.81-10.94-2.81-10.51,0-15.19,5.69-15.19,12a9.7,9.7,0,0,0,2.52,6.91c1.37,1.37,3,2.52,7.06,3.38l7.92,1.8c4.61,1,5.18,2.45,5.18,4.18s-1.51,4.1-7,4.1c-5.18,0-7.77-2.73-8.06-6.55Zm-17,8.5,0.43,3.74h9.72V681h-9.94v18.5c-1.73-2.88-5.9-5.33-10.58-5.33-8.13,0-16.27,6.84-16.27,19.66a21.39,21.39,0,0,0,4.75,14,13.88,13.88,0,0,0,11.16,5.33A13.19,13.19,0,0,0,284,728.21Zm-7.77-3.53c-4.68,0-8.71-3.31-8.71-11.09,0-8.71,4.25-11.81,8.28-11.81s8.35,3.1,8.35,11.52C284.16,721.37,279.92,724.61,276.25,724.68Zm-35.93,3.53,0.43,3.74h9.72V681h-9.93v18.5c-1.73-2.88-5.9-5.33-10.58-5.33-8.13,0-16.27,6.84-16.27,19.66a21.39,21.39,0,0,0,4.75,14,13.87,13.87,0,0,0,11.16,5.33A13.2,13.2,0,0,0,240.32,728.21Zm-7.77-3.53c-4.68,0-8.71-3.31-8.71-11.09,0-8.71,4.25-11.81,8.28-11.81s8.35,3.1,8.35,11.52C240.46,721.37,236.21,724.61,232.54,724.68ZM177.9,736.13v7.7h7.27c8.57,0,10.58-6.77,11.38-9l14-39.53H200L192.73,718,185,695.3H174.37l11.37,30.89a13.87,13.87,0,0,1,1,5c0,3-1.66,5-5.91,4.9h-3ZM134.34,732h9.86l-0.07-12,4.18-4.11L158.38,732h12l-15-22.54,13.1-14.11H156.87l-12.67,14L144.13,681h-9.86Z" transform="translate(-1.31 -0.95)"/><path class="c" d="M314.43,161.18h6.09V135.26h-6.09v25.92Zm-10.09,0h6.1V135.26h-6.1v25.92Zm-10.67-19.82c-9.14,8.19-23.24,31.63-11.82,62.12,0.38,0.95,8.4,23.24-8.19,38.66A8.36,8.36,0,0,0,272.9,253c2.48,3.24,6.85,3.82,9.71,1,19.63-18.28,16.39-45,12-56.57-8.19-21.73,1.35-36.59,5.72-41.92V140.21A5.93,5.93,0,0,0,293.66,141.36Zm117.93-33.91H360.9l-36.38,26.86v28.2l36.2,26.29H491.8A223.63,223.63,0,0,0,411.59,107.45Zm6.09,71.45H370.24V115.83h47.44V178.9Zm-118.26,187c15.43-2.82,28.58-5.26,29.7-5.47,1.14-1.12,17.5-20.49,33.48-39.29a11.79,11.79,0,0,0-3.38-4.15,14.3,14.3,0,0,0-18.81.19l-17.29,20.31Zm-175.07,9.39c0,2.63-.19,48.33-0.19,48.33a15.08,15.08,0,0,0,15.06,15H260.87c2.83,0,16.74-.37,20.13-2.25l68.43-41.19a13.28,13.28,0,0,0,4.14-3.19l47.77-55.86a15,15,0,0,0-22.75-19.57l-45.89,53.42s-59.6,10.72-63.37,11.47C256.55,383.79,246.2,377,246.2,377s-17.67-15.61-19-16.93c-10-10.91-.94-18.43-0.94-18.43,19.18-11.27,36.49-21.25,36.49-21.25,18.81-11.27,26.52-30.63,20.49-41.92-3-5.63-9.21-4.51-17.49.38,0,0-128.63,74.27-129.38,75A25,25,0,0,0,124.35,375.33Zm130.32-1.5c6.95-1.12,18.43-3.2,30.28-5.45L320.1,327a13,13,0,0,0-3.38-4.52c-6.19-5.06-15.22-4.51-20.11,1.32ZM36.73,298.59c0,144.79,117.43,262.21,262.21,262.21S561.09,443.37,561.09,298.59,443.74,36.44,298.95,36.44,36.73,153.8,36.73,298.59Z" transform="translate(-1.31 -0.95)"/></svg>