<?xml version="1.0" encoding="UTF-8"?>
<svg id="Lager_1" data-name="Lager 1" xmlns="http://www.w3.org/2000/svg" viewBox="0 0 153.09 218.69">
  <defs>
    <style>
      .cls-1 {
        fill: #1a4080;
      }

      .cls-1, .cls-2 {
        fill-rule: evenodd;
      }

      .cls-2 {
        fill: #fff;
      }
    </style>
  </defs>
  <polyline class="cls-2" points="0 218.69 153.09 218.69 153.09 0 0 0 0 218.69"/>
  <path class="cls-1" d="M80.02,34.55h1.37v-5.81h-1.37v5.81ZM77.76,34.55h1.37v-5.81h-1.37v5.81ZM75.36,30.11c-2.05,1.84-5.21,7.09-2.65,13.93.09.21,1.88,5.21-1.83,8.67-.64.6-.72,1.71-.17,2.43.56.73,1.54.86,2.18.22,4.4-4.1,3.68-10.08,2.69-12.69-1.84-4.87.3-8.2,1.28-9.4v-3.42c-.47-.21-1.07-.17-1.5.26ZM101.8,22.5h-11.37l-8.16,6.02v6.32l8.12,5.9h29.39c-4.31-7.52-10.51-13.84-17.98-18.24ZM103.17,38.52h-10.64v-14.14h10.64v14.14ZM76.66,80.46c3.46-.63,6.41-1.18,6.66-1.23.26-.25,3.92-4.59,7.51-8.81-.17-.34-.42-.68-.76-.93-1.26-1.05-3.08-1.01-4.22.04l-3.88,4.55-5.31,6.37ZM37.4,82.56c0,.59-.04,10.84-.04,10.84,0,1.85,1.52,3.37,3.38,3.37h27.28c.63,0,3.75-.08,4.51-.5l15.34-9.23c.34-.16.68-.42.93-.71l10.71-12.53c1.18-1.39,1.01-3.46-.42-4.68-1.39-1.22-3.5-1.1-4.68.29l-10.29,11.98s-13.36,2.4-14.21,2.57c-2.87.51-5.19-1.01-5.19-1.01,0,0-3.96-3.5-4.26-3.8-2.23-2.45-.21-4.13-.21-4.13,4.3-2.53,8.18-4.76,8.18-4.76,4.22-2.53,5.94-6.87,4.59-9.4-.68-1.26-2.07-1.01-3.92.09,0,0-28.84,16.65-29.01,16.82-1.65,1.01-2.7,2.78-2.7,4.8ZM66.62,82.23c1.56-.25,4.13-.72,6.79-1.22l7.88-9.28c-.17-.38-.42-.72-.76-1.01-1.39-1.14-3.41-1.01-4.51.3l-9.41,11.22ZM17.76,65.35c0,32.46,26.33,58.79,58.79,58.79s58.78-26.33,58.78-58.79S109.01,6.58,76.55,6.58s-58.79,26.31-58.79,58.78Z"/>
  <polyline class="cls-1" points="10.05 133.72 143.04 133.72 143.04 208.96 10.05 208.96 10.05 133.72"/>
  <path class="cls-2" d="M49.29,150.25l1.8-5.67,1.68,5.67h-3.48ZM105.44,154.12l.11.96h2.52l-.02-13.11h-2.54v4.76c-.46-.74-1.52-1.37-2.72-1.37-2.11,0-4.18,1.76-4.18,5.05,0,1.5.48,2.74,1.22,3.61.78.95,1.74,1.37,2.87,1.37s2.07-.44,2.74-1.28ZM103.44,153.21c-1.18,0-2.24-.85-2.24-2.85,0-2.24,1.09-3.04,2.15-3.04s2.13.8,2.13,2.96-1.09,2.91-2.04,2.93ZM88.39,155.08h2.54l.02-5.28c0-.74.15-1.09.35-1.39.33-.48.93-.8,1.54-.8.87,0,1.5.57,1.5,1.63v5.83h2.54v-6.65c0-1.76-1.3-3.11-3.26-3.11-1.35,0-2.3.72-2.61,1.46l-.11-1.11-2.48-.02-.02,9.42ZM83.67,154.01c.06.37.19.78.33,1.07h2.57c-.15-.13-.41-.56-.41-1.33l-.02-4.82c-.04-.83-.09-1.07-.15-1.28-.37-1.3-1.43-2.33-3.98-2.33-2.94,0-4.09,1.5-4.09,3.15l2.22.04c.11-.63.2-.76.41-.95.22-.22.7-.44,1.46-.44,1.19,0,1.65.63,1.65,1.07s-.3.76-.98.89l-2.54.44c-1.91.33-2.79,1.57-2.79,2.81,0,1.63,1.26,3.02,3.54,3.02,1.57,0,2.43-.63,2.78-1.35ZM83.69,150.07l-.02,1.41c-.06,1.18-.85,2-2.24,2-1.06,0-1.57-.63-1.57-1.18,0-.45.22-1.02,1.72-1.39l1.11-.3c.41-.09.76-.3,1-.54ZM82.17,144.53l2.54.02.02-2.57h-2.55v2.55ZM78.85,144.53h2.54l.02-2.57h-2.54l-.02,2.57ZM71.23,155.08h2.52l3.2-9.42h-2.55l-1.89,6.2-1.87-6.18h-2.57l3.17,9.41ZM58.38,155.08h2.54l.02-5.28c0-.74.15-1.09.35-1.39.33-.48.93-.8,1.54-.8.87,0,1.5.57,1.5,1.63v5.83h2.54v-6.65c0-1.76-1.3-3.11-3.26-3.11-1.35,0-2.3.72-2.61,1.46l-.11-1.11-2.48-.02-.02,9.42ZM45.01,155.08h2.74l.89-2.76h4.74l.85,2.76h2.78l-4.5-13.11h-2.91l-4.59,13.11Z"/>
  <path class="cls-2" d="M23.66,172.96c.06,1.78,1.55,3.48,4.44,3.48s4.22-1.57,4.22-3.26c0-.59-.2-1.18-.57-1.65-.35-.44-.81-.78-1.93-1.04l-2.7-.63c-.57-.15-.8-.5-.8-.83,0-.37.33-.95,1.56-.95,1.35,0,1.94.7,1.96,1.46l2.24-.04c-.06-.94-.56-1.89-1.35-2.48-.56-.39-1.43-.72-2.81-.72-2.7,0-3.91,1.46-3.91,3.07,0,.76.22,1.3.65,1.78.35.35.76.65,1.81.87l2.04.46c1.18.26,1.33.63,1.33,1.07,0,.41-.39,1.05-1.8,1.05-1.33,0-2-.7-2.07-1.68l-2.31.02ZM115.49,176.11h2.54l.02-5.44c0-1.35.76-2.04,1.78-2.04.67,0,1.07.33,1.26.8.04.09.11.3.11,1.04v5.65h2.52v-5.59c0-1.22.76-1.93,1.76-1.93.85,0,1.43.52,1.43,1.63v5.89h2.5l-.02-6.61c-.06-1.98-1.31-3.11-3.02-3.11-1.31,0-2.33.61-2.91,1.65-.48-.98-1.52-1.65-2.76-1.65s-2.13.55-2.63,1.5l-.09-1.19-2.46-.02-.02,9.42ZM110.79,175.03c.06.37.19.78.33,1.07h2.55c-.15-.13-.39-.56-.39-1.33l-.04-4.81c-.02-.83-.07-1.07-.13-1.28-.39-1.3-1.44-2.33-4-2.33-2.93,0-4.09,1.5-4.09,3.15l2.24.04c.09-.63.19-.76.39-.95.24-.22.72-.44,1.48-.44,1.19,0,1.63.63,1.63,1.07s-.28.76-.96.89l-2.55.44c-1.91.33-2.8,1.57-2.8,2.81,0,1.63,1.26,3.02,3.54,3.02,1.57,0,2.44-.63,2.8-1.35ZM110.79,171.09v1.41c-.05,1.18-.87,2-2.24,2-1.07,0-1.57-.63-1.57-1.18,0-.45.22-1.02,1.72-1.39l1.09-.3c.43-.09.76-.3,1-.54ZM109.27,165.55l2.56.02v-2.57h-2.54l-.02,2.56ZM105.98,165.55h2.54l.02-2.57h-2.54l-.02,2.57ZM98.57,176.11h2.54l.02-4.18c0-1.41.33-2.05.76-2.5.46-.5,1.02-.74,1.72-.74.15,0,.28.02.43.04l.02-2.24c-.13-.02-.33-.05-.54-.05-1.11,0-2.07.7-2.35,1.68l-.09-1.43h-2.48l-.02,9.42ZM87.63,176.11h2.54l-.02-3.09,1.07-1.05,2.59,4.15h3.09l-3.87-5.8,3.37-3.63h-2.98l-3.26,3.59-.02-7.28h-2.54l.02,13.11ZM77.08,172.96c.06,1.78,1.55,3.48,4.44,3.48s4.22-1.57,4.22-3.26c0-.59-.2-1.18-.57-1.65-.35-.44-.81-.78-1.93-1.04l-2.7-.63c-.57-.15-.8-.5-.8-.83,0-.37.33-.95,1.56-.95,1.35,0,1.94.7,1.96,1.46l2.24-.04c-.06-.94-.56-1.89-1.35-2.48-.56-.39-1.43-.72-2.81-.72-2.7,0-3.91,1.46-3.91,3.07,0,.76.22,1.3.65,1.78.35.35.76.65,1.81.87l2.04.46c1.19.26,1.33.63,1.33,1.07,0,.41-.39,1.05-1.8,1.05-1.33,0-2-.7-2.07-1.68l-2.31.02ZM72.71,175.15l.11.96h2.5v-13.11h-2.56v4.76c-.44-.74-1.52-1.37-2.72-1.37-2.09,0-4.18,1.76-4.18,5.05,0,1.5.48,2.74,1.22,3.61.78.95,1.76,1.37,2.87,1.37s2.09-.44,2.76-1.28ZM70.71,174.24c-1.2,0-2.24-.85-2.24-2.85,0-2.24,1.09-3.04,2.13-3.04s2.15.8,2.15,2.96-1.09,2.91-2.04,2.93ZM61.47,175.15l.11.96h2.5v-13.11h-2.55v4.76c-.44-.74-1.52-1.37-2.72-1.37-2.09,0-4.18,1.76-4.18,5.05,0,1.5.48,2.74,1.22,3.61.78.95,1.76,1.37,2.87,1.37s2.09-.44,2.76-1.28ZM59.47,174.24c-1.2,0-2.24-.85-2.24-2.85,0-2.24,1.09-3.04,2.13-3.04s2.15.8,2.15,2.96-1.09,2.91-2.04,2.93ZM45.41,177.18v1.98h1.87c2.2,0,2.72-1.74,2.93-2.31l3.59-10.17h-2.7l-1.87,5.83-1.98-5.83h-2.74l2.92,7.94c.19.52.26.87.26,1.3,0,.76-.43,1.28-1.52,1.26h-.76ZM34.21,176.11h2.54l-.02-3.09,1.07-1.05,2.59,4.15h3.09l-3.87-5.8,3.37-3.63h-2.98l-3.26,3.59-.02-7.28h-2.54l.02,13.11Z"/>
</svg>