<svg xmlns="http://www.w3.org/2000/svg" viewBox="0 0 595.28 850.37"><defs><style>.a{fill:#e5e8eb;}.a,.b,.c{fill-rule:evenodd;}.b{fill:#000100;}.c{fill:#1e3b72;}</style></defs><title>M023_C</title><polyline class="a" points="0 850.37 595.28 850.37 595.28 0 0 0 0 850.37"/><path class="b" d="M192.92,626.08l7-22,6.55,22H192.92Zm218.37,15,0.43,3.74h9.79l-0.07-51h-9.86v18.5c-1.8-2.88-5.91-5.33-10.58-5.33-8.21,0-16.27,6.84-16.27,19.66a21.42,21.42,0,0,0,4.75,14,13.78,13.78,0,0,0,11.16,5.33A13.06,13.06,0,0,0,411.29,641.13Zm-7.78-3.53c-4.61,0-8.71-3.31-8.71-11.09,0-8.71,4.25-11.81,8.35-11.81s8.28,3.1,8.28,11.52C411.43,634.29,407.18,637.53,403.51,637.6ZM345,644.87h9.86l0.07-20.52c0-2.88.58-4.25,1.37-5.4a7.39,7.39,0,0,1,6-3.1c3.39,0,5.83,2.23,5.83,6.33v22.68H378V619c0-6.84-5-12.1-12.67-12.1-5.26,0-8.93,2.81-10.15,5.69l-0.43-4.32-9.65-.07Zm-18.36-4.18a15,15,0,0,0,1.29,4.18h10c-0.58-.51-1.58-2.16-1.58-5.18L336.27,621a20.45,20.45,0,0,0-.58-5c-1.44-5-5.55-9.07-15.48-9.07-11.45,0-15.91,5.83-15.91,12.24l8.64,0.14c0.43-2.45.79-3,1.59-3.67s2.73-1.73,5.69-1.73c4.61,0,6.41,2.45,6.41,4.18s-1.15,3-3.81,3.46l-9.86,1.73c-7.42,1.29-10.87,6.12-10.87,10.94,0,6.34,4.9,11.74,13.75,11.74C321.94,645.95,325.25,643.5,326.62,640.69Zm0.07-15.34-0.07,5.47c-0.21,4.61-3.31,7.78-8.71,7.78-4.11,0-6.12-2.45-6.12-4.61,0-1.73.86-4,6.7-5.4l4.32-1.15A8.13,8.13,0,0,0,326.69,625.36Zm-5.91-21.53,9.86,0.07,0.07-10h-9.94v9.94Zm-12.89,0h9.86l0.07-10H308Zm-29.66,41H288l12.45-36.65h-9.94l-7.35,24.12-7.27-24h-10Zm-50,0h9.86l0.07-20.52c0-2.88.58-4.25,1.37-5.4a7.39,7.39,0,0,1,6-3.1c3.39,0,5.83,2.23,5.83,6.33v22.68h9.86V619c0-6.84-5-12.1-12.67-12.1-5.26,0-8.93,2.81-10.15,5.69L238,608.3l-9.65-.07Zm-52,0h10.66l3.45-10.73h18.43l3.31,10.73h10.8l-17.49-51h-11.3Z" transform="translate(-1.28 -0.94)"/><path class="b" d="M178.66,722.31c-4.83,0-8.86-3.46-8.86-10.23,0-5.9,4.11-9.65,8.64-9.65s8.64,3.74,8.64,9.93S182.91,722.31,178.66,722.31Zm240,11c11.09,0,19.22-7.85,19.22-19.8,0-11.59-8-19.59-19.36-19.59-11.09,0-19.15,7.92-19.15,19.51C399.33,725.54,407.47,733.32,418.63,733.32Zm-0.07-7.71c-4.68,0-9.22-3.6-9.22-11.74,0-8.78,4.39-12.24,9.22-12.24s9.22,3.53,9.22,11.88C427.77,722.09,423.38,725.61,418.55,725.61ZM374.85,732h9.86V715.68c0-5.47,1.36-8,3-9.72a8.72,8.72,0,0,1,6.7-2.88,11.58,11.58,0,0,1,1.66.14l0.07-8.71a14,14,0,0,0-2.09-.22,9.45,9.45,0,0,0-9.14,6.55l-0.29-5.54h-9.72V732Zm-43.78,0h9.72l0.51-3.74a12.81,12.81,0,0,0,10.51,4.9c8.13,0,16.13-6.62,16.13-19.58,0-12.6-8.06-19.44-16.06-19.44-5.26,0-9,2.31-10.95,5.47V681h-9.86v51Zm18.36-7.35c-4.18,0-8.35-3.24-8.35-11.45s4.25-11.45,8.28-11.45c4.39,0,8.43,3.1,8.43,11.59C357.79,721.37,353.61,724.61,349.44,724.61Zm-61,9.36a11,11,0,0,0,3.53,7.35c2.23,2.16,6.41,4.18,13.39,4.18,7.92,0,13-3,15.48-6.12,1.66-2.23,2.59-4.25,2.59-9.72V695.3H314l-0.36,4.46C313,698.62,311,694,302.85,694c-8.78,0-16.49,7.05-16.49,18.36s7.7,18.43,16.34,18.43c5.91,0,9.5-2.66,10.95-5.47l-0.07,4c0,6.19-2.81,8.78-8.5,8.78-4.25,0-6.19-2.16-6.55-4.46Zm16.63-11.66c-4.82,0-8.78-3.46-8.78-10.23,0-5.9,4-9.65,8.57-9.65s8.64,3.74,8.64,9.93S309.34,722.31,305.09,722.31ZM246.62,732h9.86V711.43c0-2.88.58-4.25,1.37-5.4a7.64,7.64,0,0,1,6-3.1c3.39,0,5.83,2.23,5.83,6.33V732h9.79V706.11c0-6.84-5-12.1-12.6-12.1-5.26,0-8.93,2.81-10.15,5.69l-0.43-4.32-9.65-.07Zm-18.36-4.18a15,15,0,0,0,1.29,4.18h9.93c-0.5-.51-1.51-2.16-1.51-5.18l-0.14-18.72a18.75,18.75,0,0,0-.51-5c-1.51-5-5.55-9.07-15.55-9.07-11.38,0-15.91,5.83-15.91,12.24l8.71,0.14c0.36-2.45.79-3,1.58-3.67s2.74-1.73,5.69-1.73c4.61,0,6.33,2.45,6.33,4.18s-1.08,3-3.74,3.46l-9.86,1.73c-7.49,1.29-10.87,6.12-10.87,10.94,0,6.34,4.83,11.74,13.68,11.74C223.51,733,226.9,730.58,228.26,727.78Zm0.07-15.34-0.07,5.47c-0.22,4.61-3.31,7.78-8.71,7.78-4.18,0-6.12-2.45-6.12-4.61,0-1.73.86-4,6.7-5.4l4.25-1.15A8.35,8.35,0,0,0,228.33,712.44Zm-7.2-21.38a5.12,5.12,0,0,0-.22-10.22,5.19,5.19,0,0,0-5.18,5.11A5.11,5.11,0,0,0,221.14,691.06ZM221,689a3,3,0,0,1-3.17-3,3.21,3.21,0,0,1,3-3.1A3.06,3.06,0,0,1,221,689Zm-59,45a11,11,0,0,0,3.53,7.35c2.23,2.16,6.41,4.18,13.47,4.18,7.92,0,13-3,15.48-6.12,1.65-2.23,2.59-4.25,2.59-9.72V695.3h-9.43l-0.36,4.46c-0.65-1.15-2.66-5.76-10.8-5.76-8.86,0-16.56,7.05-16.56,18.36s7.7,18.43,16.42,18.43c5.9,0,9.5-2.66,10.94-5.47l-0.07,4c0,6.19-2.81,8.78-8.49,8.78-4.25,0-6.26-2.16-6.63-4.46Z" transform="translate(-1.28 -0.94)"/><path class="c" d="M291.6,100a16.12,16.12,0,1,0,16.12-16.12A16.09,16.09,0,0,0,291.6,100Zm-7.22,105.82-29.07,77.54-65.62,0-32.17,88.93-15.3-56.07,48-110.39h94.12Zm49.48,0h73.56l48,110.39L440.1,372.27,408,283.34l-133,0L304,205.8l8.78,0L333.51,243a9.26,9.26,0,0,0,3.35,3.42L380.67,272A9.19,9.19,0,1,0,390,256.17l-41.61-24.28Zm37-9.79H328.42l-2.31-4.14V141.44l44.53,54.35ZM326.1,120.69H289.32a8.09,8.09,0,0,0-7,4l-18.75,32.41-34.29,15a8.06,8.06,0,1,0,6.51,14.75l36.67-16.1a8.08,8.08,0,0,0,3.69-3.36l13.11-22.6v47.82L288,196H183.84l-52,119.44,18.87,69.16,2.59-.74-19.1,52.88h37L214.51,317H383.13l43.36,119.81h37L444.32,383.9l2.58,0.74,18.88-69.16L413.83,196H382.89a8.08,8.08,0,0,0,.23-10.46l-50.78-61.95a8,8,0,0,0-6.24-3h0ZM36.7,298.58c0,144.79,117.43,262.21,262.21,262.21S561.06,443.37,561.06,298.58,443.7,36.44,298.92,36.44,36.7,153.79,36.7,298.58Z" transform="translate(-1.28 -0.94)"/></svg>