<?xml version="1.0" encoding="UTF-8"?>
<svg id="Lager_1" data-name="Lager 1" xmlns="http://www.w3.org/2000/svg" viewBox="0 0 153.09 218.69">
  <defs>
    <style>
      .cls-1 {
        fill: #1a4080;
      }

      .cls-1, .cls-2 {
        fill-rule: evenodd;
      }

      .cls-2 {
        fill: #fff;
      }
    </style>
  </defs>
  <polyline class="cls-2" points="0 218.69 153.09 218.69 153.09 0 0 0 0 218.69"/>
  <path class="cls-1" d="M74.92,20.84c0,2,1.61,3.61,3.61,3.61s3.61-1.61,3.61-3.61-1.61-3.61-3.61-3.61-3.61,1.61-3.61,3.61ZM73.3,44.56l-6.52,17.39h-14.71s-7.21,19.93-7.21,19.93l-3.43-12.57,10.77-24.75h21.1ZM84.38,44.56h16.49l10.76,24.75-3.44,12.57-7.21-19.94h-29.83s6.53-17.39,6.53-17.39h1.97s4.64,8.35,4.64,8.35c.18.32.44.58.75.77l9.82,5.73c.32.2.69.31,1.08.31,1.13,0,2.06-.93,2.06-2.06,0-.77-.42-1.44-1.05-1.8l-9.33-5.44-3.26-5.85ZM92.7,42.37h-9.51s-.52-.93-.52-.93v-11.31l9.98,12.19s.03.03.05.05ZM82.65,25.49h-8.25,0c-.66,0-1.25.36-1.56.9l-4.2,7.27-7.69,3.37c-.64.28-1.09.91-1.09,1.66,0,1,.81,1.81,1.81,1.81.26,0,.52-.06.74-.16l8.22-3.61c.35-.16.64-.42.83-.75l2.94-5.07v10.72s-.28.76-.28.76h-23.36l-11.65,26.78,4.23,15.51.58-.17-4.28,11.86h8.29l9.71-26.86h37.81l9.72,26.86h8.29l-4.29-11.86.58.17,4.23-15.51-11.65-26.78h-6.94c.28-.32.46-.74.46-1.2,0-.43-.15-.83-.41-1.14l-11.39-13.89c-.33-.4-.83-.66-1.4-.66h0ZM17.76,65.35c0,32.46,26.33,58.79,58.79,58.79s58.78-26.33,58.78-58.79S109.02,6.58,76.55,6.58s-58.79,26.31-58.79,58.78Z"/>
  <polyline class="cls-1" points="10.05 133.73 143.04 133.73 143.04 208.97 10.05 208.97 10.05 133.73"/>
  <path class="cls-2" d="M49.28,150.25l1.8-5.67,1.69,5.67h-3.48ZM105.44,154.12l.11.96h2.52l-.02-13.11h-2.54v4.76c-.46-.74-1.52-1.37-2.72-1.37-2.11,0-4.18,1.76-4.18,5.05,0,1.5.48,2.74,1.22,3.61.78.95,1.74,1.37,2.87,1.37s2.07-.44,2.74-1.28ZM103.44,153.21c-1.19,0-2.24-.85-2.24-2.85,0-2.24,1.09-3.04,2.15-3.04s2.13.8,2.13,2.96-1.09,2.91-2.04,2.93ZM88.39,155.08h2.54l.02-5.28c0-.74.15-1.09.35-1.39.33-.48.92-.8,1.54-.8.87,0,1.5.57,1.5,1.63v5.83h2.54v-6.65c0-1.76-1.3-3.11-3.26-3.11-1.35,0-2.3.72-2.61,1.46l-.11-1.11-2.48-.02-.02,9.42ZM83.67,154.01c.06.37.19.78.33,1.07h2.57c-.15-.13-.41-.56-.41-1.33l-.02-4.82c-.04-.83-.09-1.07-.15-1.28-.37-1.3-1.43-2.33-3.98-2.33-2.94,0-4.09,1.5-4.09,3.15l2.22.04c.11-.63.2-.76.41-.95.22-.22.7-.44,1.46-.44,1.18,0,1.65.63,1.65,1.07s-.3.76-.98.89l-2.54.44c-1.91.33-2.8,1.57-2.8,2.81,0,1.63,1.26,3.02,3.54,3.02,1.57,0,2.42-.63,2.78-1.35ZM83.69,150.07l-.02,1.41c-.05,1.18-.85,2-2.24,2-1.06,0-1.57-.63-1.57-1.18,0-.45.22-1.02,1.72-1.39l1.11-.3c.41-.09.76-.3,1-.54ZM82.17,144.53l2.54.02.02-2.57h-2.56v2.55ZM78.85,144.53h2.54l.02-2.57h-2.54l-.02,2.57ZM71.23,155.08h2.52l3.2-9.42h-2.56l-1.89,6.2-1.87-6.18h-2.57l3.17,9.41ZM58.38,155.08h2.54l.02-5.28c0-.74.15-1.09.35-1.39.33-.48.93-.8,1.54-.8.87,0,1.5.57,1.5,1.63v5.83h2.54v-6.65c0-1.76-1.3-3.11-3.26-3.11-1.35,0-2.3.72-2.61,1.46l-.11-1.11-2.48-.02-.02,9.42ZM45.01,155.08h2.74l.89-2.76h4.74l.85,2.76h2.78l-4.5-13.11h-2.91l-4.59,13.11Z"/>
  <path class="cls-2" d="M45.62,173.42c-1.24,0-2.28-.89-2.28-2.63,0-1.52,1.06-2.48,2.22-2.48s2.22.96,2.22,2.56-1.07,2.55-2.17,2.55ZM107.33,176.26c2.85,0,4.94-2.02,4.94-5.09s-2.05-5.04-4.98-5.04-4.93,2.04-4.93,5.02,2.09,5.11,4.96,5.11ZM107.31,174.28c-1.2,0-2.37-.93-2.37-3.02,0-2.26,1.13-3.15,2.37-3.15s2.37.91,2.37,3.05-1.13,3.11-2.37,3.11ZM96.07,175.9h2.54v-4.18c0-1.41.35-2.05.76-2.5.48-.5,1.02-.74,1.72-.74.15,0,.3.02.43.04l.02-2.24c-.13-.02-.33-.06-.54-.06-1.11,0-2.05.7-2.35,1.68l-.07-1.43h-2.5v9.42ZM84.81,175.9h2.5l.13-.96c.67.83,1.57,1.26,2.7,1.26,2.09,0,4.15-1.7,4.15-5.04s-2.07-5-4.13-5c-1.35,0-2.32.59-2.82,1.41v-4.78h-2.54v13.11ZM89.54,174.02c-1.07,0-2.15-.83-2.15-2.94s1.09-2.94,2.13-2.94c1.13,0,2.17.8,2.17,2.98s-1.07,2.91-2.15,2.91ZM73.85,176.42c.11.89.39,1.39.91,1.89.57.55,1.65,1.07,3.44,1.07,2.04,0,3.35-.76,3.98-1.57.43-.57.67-1.09.67-2.5v-8.83h-2.43l-.09,1.15c-.17-.3-.69-1.48-2.78-1.48-2.26,0-4.24,1.82-4.24,4.72s1.98,4.74,4.2,4.74c1.52,0,2.44-.68,2.82-1.41l-.02,1.02c0,1.59-.72,2.26-2.18,2.26-1.09,0-1.59-.56-1.69-1.15l-2.59.09ZM78.13,173.42c-1.24,0-2.26-.89-2.26-2.63,0-1.52,1.04-2.48,2.2-2.48s2.22.96,2.22,2.56-1.07,2.55-2.17,2.55ZM63.09,175.9h2.54v-5.28c0-.74.15-1.09.35-1.39.35-.48.94-.8,1.55-.8.87,0,1.5.57,1.5,1.63v5.83h2.52v-6.65c0-1.76-1.3-3.11-3.24-3.11-1.35,0-2.3.72-2.61,1.46l-.11-1.11-2.48-.02-.02,9.42ZM58.37,174.83c.06.37.18.78.33,1.07h2.55c-.13-.13-.39-.56-.39-1.33l-.04-4.81c-.02-.83-.08-1.07-.13-1.28-.39-1.3-1.43-2.33-4-2.33-2.93,0-4.09,1.5-4.09,3.15l2.24.04c.09-.63.2-.76.41-.94.22-.22.7-.45,1.46-.45,1.19,0,1.63.63,1.63,1.07s-.28.76-.96.89l-2.54.44c-1.93.33-2.8,1.57-2.8,2.82,0,1.63,1.24,3.02,3.52,3.02,1.57,0,2.44-.63,2.8-1.35ZM58.39,170.89l-.02,1.41c-.06,1.18-.85,2-2.24,2-1.07,0-1.57-.63-1.57-1.18,0-.44.22-1.02,1.72-1.39l1.09-.3c.43-.09.76-.3,1.02-.54ZM56.54,165.39c.65,0,1.24-.59,1.24-1.32s-.59-1.31-1.3-1.31c-.74,0-1.33.61-1.33,1.31,0,.74.57,1.32,1.39,1.32ZM56.5,164.85c-.48,0-.82-.35-.82-.78s.37-.78.78-.8c.43,0,.78.33.78.8s-.37.78-.74.78ZM41.32,176.42c.11.89.39,1.39.91,1.89.57.55,1.65,1.07,3.46,1.07,2.04,0,3.35-.76,3.98-1.57.42-.57.67-1.09.67-2.5v-8.83h-2.43l-.09,1.15c-.17-.3-.68-1.48-2.78-1.48-2.28,0-4.26,1.82-4.26,4.72s1.98,4.74,4.22,4.74c1.52,0,2.44-.68,2.81-1.41l-.02,1.02c0,1.59-.72,2.26-2.18,2.26-1.09,0-1.61-.56-1.7-1.15l-2.59.09Z"/>
</svg>