<svg xmlns="http://www.w3.org/2000/svg" viewBox="0 0 595.28 850.37"><defs><style>.a{fill:#e5e8eb;}.a,.b,.c{fill-rule:evenodd;}.b{fill:#000100;}.c{fill:#1e3b72;}</style></defs><title>M024_C</title><polyline class="a" points="0 850.37 595.28 850.37 595.28 0 0 0 0 850.37"/><path class="b" d="M72.8,626.08l7-22,6.55,22H72.8Zm457.47,14.62a11.55,11.55,0,0,0,1.22,4.18h10a6.2,6.2,0,0,1-1.65-3.82L539.92,621c0-8.78-4.61-14-16.49-14-11.16,0-15.77,6-15.55,12.24l8.71,0.14c0-2.74,2.09-5.33,7.13-5.33,4.75,0,6.41,2.38,6.41,4.11,0,1.51-.94,2.88-3.6,3.38l-5.61.94c-8.13,1.44-10.3,3-11.81,4.32a9.94,9.94,0,0,0-3.38,7.63c0,6.05,4.75,11.52,14,11.52C525.09,645.88,528.18,644.08,530.27,640.69Zm0.07-15.12-0.07,4.61c0,5.19-3.17,8.43-8.85,8.43-4.11,0-6.05-2.45-6.05-4.68,0-1.73.58-3.67,6.77-5.4l4.25-1.15A11.3,11.3,0,0,0,530.35,625.57Zm-64.15,19.3h9.86l0.07-20.52c0-2.88.58-4.25,1.37-5.4a7.4,7.4,0,0,1,6-3.1c3.38,0,5.83,2.23,5.83,6.33v22.68h9.86V619c0-6.84-5-12.1-12.67-12.1-5.25,0-8.93,2.81-10.15,5.69l-0.43-4.32-9.65-.07Zm-40.46,0h9.86l0.07-20.52c0-2.88.58-4.25,1.37-5.4a7.4,7.4,0,0,1,6-3.1c3.38,0,5.83,2.23,5.83,6.33v22.68h9.86V619c0-6.84-5-12.1-12.67-12.1-5.26,0-8.93,2.81-10.15,5.69l-0.43-4.32-9.65-.07Zm-34.13-15.62,27.14,0.07c0-10.87-4.9-22.39-18.58-22.39-14,0-18.36,11.16-18.36,19.51,0,12.17,8.06,19.73,18.29,19.73s16.49-5.54,18-12l-9.86-.65c-1.94,3.38-4.46,4.75-7.63,4.75C395.93,638.32,392.11,635.15,391.61,629.25Zm0.36-7.13a8.44,8.44,0,0,1,8.07-7.49c4,0,7.49,2.74,8.13,7.49H392Zm-27.29,19,0.43,3.74h9.79l-0.07-51H365v18.5c-1.8-2.88-5.9-5.33-10.58-5.33-8.21,0-16.27,6.84-16.27,19.66a21.42,21.42,0,0,0,4.75,14A13.78,13.78,0,0,0,354,646.09,13.06,13.06,0,0,0,364.68,641.13Zm-7.78-3.53c-4.61,0-8.71-3.31-8.71-11.09,0-8.71,4.25-11.81,8.35-11.81s8.28,3.1,8.28,11.52C364.82,634.29,360.57,637.53,356.9,637.6Zm-65.66,3.53,0.43,3.74h9.72l-0.07-51h-9.79v18.5c-1.8-2.88-5.91-5.33-10.58-5.33-8.21,0-16.27,6.84-16.27,19.66a21.42,21.42,0,0,0,4.75,14,13.78,13.78,0,0,0,11.16,5.33A13.06,13.06,0,0,0,291.24,641.13Zm-7.78-3.53c-4.61,0-8.71-3.31-8.71-11.09,0-8.71,4.25-11.81,8.35-11.81s8.28,3.1,8.28,11.52C291.38,634.29,287.13,637.53,283.46,637.6Zm-58.53,7.27h9.86l0.07-20.52c0-2.88.58-4.25,1.37-5.4a7.39,7.39,0,0,1,6-3.1c3.39,0,5.83,2.23,5.83,6.33v22.68h9.86V619c0-6.84-5-12.1-12.67-12.1-5.26,0-8.93,2.81-10.15,5.69l-0.43-4.32-9.65-.07Zm-18.36-4.18a15,15,0,0,0,1.29,4.18h10c-0.58-.51-1.58-2.16-1.58-5.18L216.22,621a20.47,20.47,0,0,0-.58-5c-1.44-5-5.55-9.07-15.48-9.07-11.45,0-15.91,5.83-15.91,12.24l8.64,0.14c0.43-2.45.79-3,1.59-3.67s2.73-1.73,5.69-1.73c4.61,0,6.41,2.45,6.41,4.18s-1.15,3-3.81,3.46l-9.86,1.73c-7.42,1.29-10.87,6.12-10.87,10.94,0,6.34,4.9,11.74,13.75,11.74C201.89,645.95,205.2,643.5,206.57,640.69Zm0.07-15.34-0.07,5.47c-0.21,4.61-3.31,7.78-8.71,7.78-4.11,0-6.12-2.45-6.12-4.61,0-1.73.86-4,6.7-5.4l4.32-1.15A8.13,8.13,0,0,0,206.64,625.36Zm-5.91-21.53,9.86,0.07,0.07-10h-9.94v9.94Zm-12.89,0h9.86l0.07-10h-9.86Zm-29.73,41h9.79l12.53-36.65h-10l-7.34,24.12-7.27-24h-10Zm-50,0H118l0.07-20.52c0-2.88.58-4.25,1.37-5.4a7.4,7.4,0,0,1,6-3.1c3.38,0,5.83,2.23,5.83,6.33v22.68h9.86V619c0-6.84-5-12.1-12.67-12.1-5.26,0-8.93,2.81-10.15,5.69l-0.43-4.32-9.65-.07Zm-52,0H66.82l3.46-10.73H88.71L92,644.87h10.8l-17.49-51H74Z" transform="translate(-1.25 -0.94)"/><path class="b" d="M175.75,722.31c-4.75,0-8.78-3.46-8.78-10.23,0-5.9,4.1-9.65,8.57-9.65s8.64,3.74,8.64,9.93S180,722.31,175.75,722.31ZM405.64,734a10.73,10.73,0,0,0,3.6,7.35c2.23,2.16,6.34,4.18,13.47,4.18,7.92,0,13-3,15.48-6.12,1.66-2.23,2.52-4.25,2.52-9.72V695.3h-9.43L431,699.77c-0.72-1.15-2.66-5.76-10.87-5.76-8.85,0-16.56,7.05-16.56,18.36S411.32,730.8,420,730.8c5.83,0,9.5-2.66,10.87-5.47v4c0,6.19-2.81,8.78-8.5,8.78-4.25,0-6.26-2.16-6.63-4.46Zm16.7-11.66c-4.75,0-8.78-3.46-8.78-10.23,0-5.9,4.11-9.65,8.57-9.65s8.64,3.74,8.64,9.93S426.59,722.31,422.34,722.31Zm-35.64,5.47a14.85,14.85,0,0,0,1.22,4.18h10c-0.58-.51-1.51-2.16-1.51-5.18l-0.15-18.72c-0.07-3.24-.29-4.18-0.58-5-1.44-5-5.54-9.07-15.48-9.07-11.45,0-15.91,5.83-15.91,12.24l8.64,0.14c0.43-2.45.79-3,1.59-3.67s2.81-1.73,5.76-1.73c4.61,0,6.33,2.45,6.33,4.18s-1.08,3-3.74,3.46l-9.94,1.73c-7.42,1.29-10.87,6.12-10.87,10.94,0,6.34,4.9,11.74,13.75,11.74C382,733,385.26,730.58,386.7,727.78Zm0-15.34v5.47c-0.29,4.61-3.38,7.78-8.71,7.78-4.17,0-6.19-2.45-6.19-4.61,0-1.73.86-4,6.77-5.4l4.25-1.15A8.13,8.13,0,0,0,386.7,712.44Zm-5.9-21.53,9.86,0.07,0.07-10h-9.86Zm-12.82,0h9.79l0.07-10H368v10Zm-29.81,41H348l12.53-36.65h-10l-7.34,24.12-7.27-24h-10Zm-52.63,2a10.73,10.73,0,0,0,3.6,7.35c2.23,2.16,6.33,4.18,13.39,4.18,7.92,0,13-3,15.48-6.12,1.66-2.23,2.52-4.25,2.52-9.72V695.3H311.1l-0.29,4.46c-0.72-1.15-2.66-5.76-10.87-5.76-8.78,0-16.49,7.05-16.49,18.36s7.78,18.43,16.42,18.43c5.83,0,9.5-2.66,10.87-5.47v4c0,6.19-2.81,8.78-8.5,8.78-4.18,0-6.19-2.16-6.55-4.46Zm16.63-11.66c-4.68,0-8.71-3.46-8.71-10.23,0-5.9,4.1-9.65,8.5-9.65,4.61,0,8.64,3.74,8.64,9.93S306.42,722.31,302.17,722.31ZM243.72,732h9.86l0.07-20.52c0-2.88.58-4.25,1.37-5.4a7.39,7.39,0,0,1,6-3.1c3.39,0,5.83,2.23,5.83,6.33V732h9.87V706.11c0-6.84-5-12.1-12.6-12.1-5.26,0-9,2.81-10.23,5.69l-0.43-4.32-9.65-.07Zm-18.29-4.18a14.85,14.85,0,0,0,1.22,4.18h10c-0.58-.51-1.51-2.16-1.51-5.18L235,708.05c-0.07-3.24-.29-4.18-0.58-5-1.44-5-5.55-9.07-15.48-9.07C207.5,694,203,699.84,203,706.25l8.64,0.14c0.43-2.45.79-3,1.58-3.67S216.07,701,219,701c4.61,0,6.33,2.45,6.33,4.18s-1.08,3-3.74,3.46l-9.94,1.73c-7.42,1.29-10.87,6.12-10.87,10.94,0,6.34,4.9,11.74,13.75,11.74C220.68,733,224,730.58,225.43,727.78Zm0-15.34v5.47c-0.29,4.61-3.39,7.78-8.71,7.78-4.18,0-6.19-2.45-6.19-4.61,0-1.73.86-4,6.77-5.4l4.25-1.15A8.12,8.12,0,0,0,225.43,712.44Zm-7.2-21.38a5.11,5.11,0,1,0-5.33-5.11A5.14,5.14,0,0,0,218.23,691.06ZM218.16,689a3,3,0,0,1-3.17-3,3.21,3.21,0,0,1,3-3.1,3.06,3.06,0,0,1,3,3.1A3,3,0,0,1,218.16,689ZM159,734a10.73,10.73,0,0,0,3.6,7.35c2.23,2.16,6.33,4.18,13.46,4.18,7.92,0,13-3,15.48-6.12,1.66-2.23,2.52-4.25,2.52-9.72V695.3h-9.43l-0.29,4.46c-0.72-1.15-2.66-5.76-10.87-5.76-8.86,0-16.56,7.05-16.56,18.36s7.78,18.43,16.49,18.43c5.83,0,9.5-2.66,10.87-5.47v4c0,6.19-2.81,8.78-8.5,8.78-4.25,0-6.26-2.16-6.62-4.46Z" transform="translate(-1.25 -0.94)"/><path class="c" d="M265.67,114.09A31.1,31.1,0,1,0,296.77,83,31.07,31.07,0,0,0,265.67,114.09Zm53.49,288.42a19.84,19.84,0,0,1-2.56-6.66L297.15,300a21.23,21.23,0,0,1-.4-3.11l0,1.24a16.35,16.35,0,0,1-4,9.62l-59.57,72.64-16,91.27C213,495,178,488.91,182.08,465.5l17-96.38a18.91,18.91,0,0,1,4.09-8.29L261.24,290V189.82L211.6,231.07a14.78,14.78,0,0,1-4,2.43L136.1,263.06C116.94,271,105,242.23,124.18,234.29l69.21-28.62,57.92-48a15.74,15.74,0,0,1,9.88-3.54h71.22a15.57,15.57,0,0,1,10.67,4.27l56.16,53.29a16.05,16.05,0,0,1,3.37,4.76l32.29,70.41c8.66,18.88-19.59,31.57-28.31,12.94l-32.06-68.57L332.3,191l0.05,103.62,18.49,91.2,53.26,76.94c13.51,19.52-15.78,39.73-29.26,20.23ZM36.67,298.58c0,144.79,117.43,262.21,262.21,262.21S561,443.37,561,298.58,443.68,36.44,298.89,36.44,36.67,153.79,36.67,298.58Z" transform="translate(-1.25 -0.94)"/></svg>