<?xml version="1.0" encoding="UTF-8"?>
<svg id="Lager_1" data-name="Lager 1" xmlns="http://www.w3.org/2000/svg" viewBox="0 0 153.09 218.69">
  <defs>
    <style>
      .cls-1 {
        fill: #1a4080;
      }

      .cls-1, .cls-2 {
        fill-rule: evenodd;
      }

      .cls-2 {
        fill: #fff;
      }
    </style>
  </defs>
  <polyline class="cls-2" points="0 218.69 153.09 218.69 153.09 0 0 0 0 218.69"/>
  <path class="cls-1" d="M69.09,24c0,3.86,3.12,6.97,6.97,6.97s6.97-3.12,6.97-6.97-3.12-6.97-6.97-6.97-6.97,3.11-6.97,6.97ZM81.1,88.66c-.26-.41-.46-.92-.57-1.49l-4.36-21.49c-.05-.22-.08-.45-.09-.7v.28c-.03.8-.4,1.54-.9,2.16l-13.36,16.29-3.6,20.46c-.92,5.24-8.79,3.88-7.86-1.37l3.81-21.61c.12-.62.42-1.25.92-1.86l13.02-15.89v-22.45s-11.13,9.25-11.13,9.25c-.28.23-.58.41-.9.54l-16.03,6.63c-4.3,1.78-6.98-4.67-2.67-6.45l15.52-6.42,12.99-10.77c.63-.52,1.43-.79,2.21-.79h15.97c.86,0,1.74.33,2.39.96l12.59,11.95c.29.29.56.65.76,1.07l7.24,15.79c1.94,4.23-4.39,7.08-6.35,2.9l-7.19-15.38-9.47-9.01v23.23s4.16,20.45,4.16,20.45l11.94,17.25c3.03,4.38-3.54,8.91-6.56,4.54l-12.48-18.05ZM17.76,65.35c0,32.46,26.33,58.79,58.79,58.79s58.78-26.33,58.78-58.79S109.01,6.58,76.55,6.58s-58.79,26.31-58.79,58.78Z"/>
  <polyline class="cls-1" points="10.05 133.73 143.04 133.73 143.04 208.97 10.05 208.97 10.05 133.73"/>
  <path class="cls-2" d="M18.4,150.25l1.8-5.67,1.68,5.67h-3.48ZM136.05,154.01c.06.46.17.8.31,1.07h2.57c-.31-.39-.41-.67-.42-.98l.02-5.17c0-2.26-1.19-3.61-4.24-3.61-2.87,0-4.06,1.55-4,3.15l2.24.04c0-.7.54-1.37,1.83-1.37,1.22,0,1.65.61,1.65,1.06,0,.39-.24.74-.93.87l-1.44.24c-2.09.37-2.65.76-3.04,1.11-.57.5-.87,1.2-.87,1.96,0,1.56,1.22,2.96,3.59,2.96,1.39,0,2.19-.46,2.72-1.33ZM136.07,150.12l-.02,1.18c0,1.33-.82,2.17-2.28,2.17-1.06,0-1.56-.63-1.56-1.2,0-.44.15-.94,1.74-1.39l1.09-.3c.5-.13.81-.31,1.02-.46ZM119.57,155.08h2.54l.02-5.28c0-.74.15-1.09.35-1.39.33-.48.93-.8,1.54-.8.87,0,1.5.57,1.5,1.63v5.83h2.54v-6.65c0-1.76-1.3-3.11-3.26-3.11-1.35,0-2.3.72-2.61,1.46l-.11-1.11-2.48-.02-.02,9.42ZM109.16,155.08h2.54l.02-5.28c0-.74.15-1.09.35-1.39.33-.48.93-.8,1.54-.8.87,0,1.5.57,1.5,1.63v5.83h2.54v-6.65c0-1.76-1.3-3.11-3.26-3.11-1.35,0-2.3.72-2.61,1.46l-.11-1.11-2.48-.02-.02,9.42ZM100.39,151.07l6.98.02c0-2.8-1.26-5.76-4.78-5.76s-4.72,2.87-4.72,5.02c0,3.13,2.07,5.07,4.7,5.07s4.24-1.43,4.63-3.07l-2.54-.17c-.5.87-1.15,1.22-1.96,1.22-1.2,0-2.18-.82-2.31-2.33ZM100.48,149.23c.15-1.15,1.11-1.93,2.07-1.93,1.02,0,1.93.7,2.09,1.93h-4.17ZM93.46,154.12l.11.96h2.52l-.02-13.11h-2.54v4.76c-.46-.74-1.52-1.37-2.72-1.37-2.11,0-4.19,1.76-4.19,5.05,0,1.5.48,2.74,1.22,3.61.78.95,1.74,1.37,2.87,1.37s2.07-.44,2.74-1.28ZM91.46,153.21c-1.18,0-2.24-.85-2.24-2.85,0-2.24,1.09-3.04,2.15-3.04s2.13.8,2.13,2.96-1.09,2.91-2.04,2.93ZM74.58,154.12l.11.96h2.5l-.02-13.11h-2.52v4.76c-.46-.74-1.52-1.37-2.72-1.37-2.11,0-4.19,1.76-4.19,5.05,0,1.5.48,2.74,1.22,3.61.78.95,1.74,1.37,2.87,1.37s2.07-.44,2.74-1.28ZM72.58,153.21c-1.18,0-2.24-.85-2.24-2.85,0-2.24,1.09-3.04,2.15-3.04s2.13.8,2.13,2.96-1.09,2.91-2.04,2.93ZM57.52,155.08h2.54l.02-5.28c0-.74.15-1.09.35-1.39.33-.48.93-.8,1.54-.8.87,0,1.5.57,1.5,1.63v5.83h2.54v-6.65c0-1.76-1.3-3.11-3.26-3.11-1.35,0-2.3.72-2.61,1.46l-.11-1.11-2.48-.02-.02,9.42ZM52.8,154.01c.06.37.19.78.33,1.07h2.57c-.15-.13-.41-.56-.41-1.33l-.02-4.82c-.04-.83-.09-1.07-.15-1.28-.37-1.3-1.43-2.33-3.98-2.33-2.94,0-4.09,1.5-4.09,3.15l2.22.04c.11-.63.2-.76.41-.95.22-.22.7-.44,1.46-.44,1.18,0,1.65.63,1.65,1.07s-.3.76-.98.89l-2.54.44c-1.91.33-2.8,1.57-2.8,2.81,0,1.63,1.26,3.02,3.54,3.02,1.57,0,2.43-.63,2.78-1.35ZM52.82,150.07l-.02,1.41c-.05,1.18-.85,2-2.24,2-1.06,0-1.57-.63-1.57-1.18,0-.45.22-1.02,1.72-1.39l1.11-.3c.41-.09.76-.3,1-.54ZM51.3,144.53l2.54.02.02-2.57h-2.56v2.55ZM47.99,144.53h2.54l.02-2.57h-2.54l-.02,2.57ZM40.34,155.08h2.52l3.22-9.42h-2.57l-1.89,6.2-1.87-6.18h-2.57l3.17,9.41ZM27.49,155.08h2.54l.02-5.28c0-.74.15-1.09.35-1.39.33-.48.93-.8,1.54-.8.87,0,1.5.57,1.5,1.63v5.83h2.54v-6.65c0-1.76-1.3-3.11-3.26-3.11-1.35,0-2.3.72-2.61,1.46l-.11-1.11-2.48-.02-.02,9.42ZM14.12,155.08h2.74l.89-2.76h4.74l.85,2.76h2.78l-4.5-13.11h-2.91l-4.59,13.11Z"/>
  <path class="cls-2" d="M44.88,173.42c-1.22,0-2.26-.89-2.26-2.63,0-1.52,1.05-2.48,2.2-2.48s2.22.96,2.22,2.56-1.07,2.55-2.17,2.55ZM104,176.42c.11.89.39,1.39.92,1.89.57.55,1.63,1.07,3.46,1.07,2.04,0,3.33-.76,3.98-1.57.43-.57.65-1.09.65-2.5v-8.83h-2.43l-.07,1.15c-.19-.3-.69-1.48-2.8-1.48-2.28,0-4.26,1.82-4.26,4.72s2,4.74,4.24,4.74c1.5,0,2.44-.68,2.8-1.41v1.02c0,1.59-.72,2.26-2.18,2.26-1.09,0-1.61-.56-1.7-1.15l-2.61.09ZM108.29,173.42c-1.22,0-2.26-.89-2.26-2.63,0-1.52,1.06-2.48,2.2-2.48s2.22.96,2.22,2.56-1.07,2.55-2.17,2.55ZM99.13,174.83c.05.37.17.78.31,1.07h2.57c-.15-.13-.39-.56-.39-1.33l-.04-4.81c-.02-.83-.07-1.07-.15-1.28-.37-1.3-1.43-2.33-3.98-2.33-2.94,0-4.09,1.5-4.09,3.15l2.22.04c.11-.63.2-.76.41-.94.24-.22.72-.45,1.48-.45,1.19,0,1.63.63,1.63,1.07s-.28.76-.96.89l-2.56.44c-1.91.33-2.8,1.57-2.8,2.82,0,1.63,1.26,3.02,3.54,3.02,1.57,0,2.43-.63,2.8-1.35ZM99.13,170.89v1.41c-.07,1.18-.87,2-2.24,2-1.07,0-1.59-.63-1.59-1.18,0-.44.22-1.02,1.74-1.39l1.09-.3c.41-.09.76-.3,1-.54ZM97.61,165.35l2.54.02.02-2.57h-2.54l-.02,2.55ZM94.31,165.35h2.52l.02-2.57h-2.54v2.57ZM86.65,175.9h2.52l3.22-9.42h-2.57l-1.89,6.2-1.87-6.18h-2.57l3.17,9.41ZM73.11,176.42c.11.89.39,1.39.93,1.89.57.55,1.63,1.07,3.44,1.07,2.04,0,3.33-.76,3.98-1.57.43-.57.65-1.09.65-2.5v-8.83h-2.43l-.07,1.15c-.19-.3-.69-1.48-2.8-1.48-2.26,0-4.24,1.82-4.24,4.72s2,4.74,4.22,4.74c1.5,0,2.44-.68,2.8-1.41v1.02c0,1.59-.72,2.26-2.18,2.26-1.07,0-1.59-.56-1.69-1.15l-2.61.09ZM77.39,173.42c-1.2,0-2.24-.89-2.24-2.63,0-1.52,1.05-2.48,2.18-2.48s2.22.96,2.22,2.56-1.07,2.55-2.17,2.55ZM62.35,175.9h2.54l.02-5.28c0-.74.15-1.09.35-1.39.33-.48.92-.8,1.54-.8.87,0,1.5.57,1.5,1.63v5.83h2.54v-6.65c0-1.76-1.3-3.11-3.24-3.11-1.35,0-2.31.72-2.63,1.46l-.11-1.11-2.48-.02-.02,9.42ZM57.65,174.83c.06.37.17.78.31,1.07h2.57c-.15-.13-.39-.56-.39-1.33l-.04-4.81c-.02-.83-.07-1.07-.15-1.28-.37-1.3-1.43-2.33-3.98-2.33-2.94,0-4.09,1.5-4.09,3.15l2.22.04c.11-.63.2-.76.41-.94.24-.22.72-.45,1.48-.45,1.19,0,1.63.63,1.63,1.07s-.28.76-.96.89l-2.56.44c-1.91.33-2.8,1.57-2.8,2.82,0,1.63,1.26,3.02,3.54,3.02,1.57,0,2.42-.63,2.8-1.35ZM57.65,170.89v1.41c-.07,1.18-.87,2-2.24,2-1.07,0-1.59-.63-1.59-1.18,0-.44.22-1.02,1.74-1.39l1.09-.3c.41-.09.76-.3,1-.54ZM55.8,165.39c.65,0,1.26-.59,1.26-1.32s-.59-1.31-1.32-1.31-1.31.61-1.31,1.31c0,.74.57,1.32,1.37,1.32ZM55.78,164.85c-.48,0-.81-.35-.81-.78s.37-.78.78-.8c.41,0,.78.33.78.8s-.37.78-.74.78ZM40.58,176.42c.11.89.39,1.39.93,1.89.57.55,1.63,1.07,3.46,1.07,2.04,0,3.33-.76,3.98-1.57.43-.57.65-1.09.65-2.5v-8.83h-2.43l-.07,1.15c-.19-.3-.68-1.48-2.8-1.48-2.28,0-4.26,1.82-4.26,4.72s2,4.74,4.24,4.74c1.5,0,2.44-.68,2.8-1.41v1.02c0,1.59-.72,2.26-2.18,2.26-1.09,0-1.61-.56-1.7-1.15l-2.61.09Z"/>
</svg>