<?xml version="1.0" encoding="UTF-8"?>
<svg id="Lager_1" data-name="Lager 1" xmlns="http://www.w3.org/2000/svg" viewBox="0 0 153.09 218.69">
  <defs>
    <style>
      .cls-1 {
        fill: #1a4080;
      }

      .cls-1, .cls-2 {
        fill-rule: evenodd;
      }

      .cls-2 {
        fill: #fff;
      }
    </style>
  </defs>
  <polyline class="cls-2" points="0 218.69 153.09 218.69 153.09 0 0 0 0 218.69"/>
  <path class="cls-1" d="M97.65,49.83h-3.8l-.77-.02h-.37l-.37.08-.73.25.23.89.12.92-.02.94-.12.91,1.22.21,1.23.12,1.25.08,1.25-.02.19-1.1.23-1.1.48-2.16ZM96.42,56.22l-.2.88-.31.83-.79,1.62c-2.25,4.71-3.11,7-7.96,9.22l-1.62.79-1.6.81c-1.86,1.14-5.62,3.53-7.56,3.78l-.46.04h-.9l-.89-.1-.88-.23c-3.78-1.48-5.16-4.32-10.02-5.84l-1.6-.81-.79-.44c-2.09-1.1-3.65-4.45-4.4-6.58l-.54-1.72-.23-.85-.2-.87,1.56.02,1.54.04h.77l.77-.02.77-.13.74-.18.6.7.71.6c7.22,4.44,8.71-2.37,12.76-2.53h.81l.77.12c3.87,1.4,6.15,6.85,12.61,1.87l.62-.68.52-.75,2.68.35.68.06.68.02,1.35-.02ZM98.13,47.54l.25-1.31.19-1.33c1.1-16.03-4.23-23.03-20.35-25.09l-1.31-.19-1.33-.12c-14.06-.83-24.2,9.11-21.61,23.28l.17,2.66.21,2.64.89.02.91-.02.89-.04h.89l1.79.1,1.81.14.56-.68.64-.6c6.09-4.08,7.95.61,12.03,1.68l.87.12h.9c4.42-.17,6.24-6.27,12.88-1.82l.64.6.56.66,1.87-.29,1.87-.23,1.87-.15,1.89-.04ZM117.16,90.45l-.29-2.1c-2.67-13.81-8.07-17.14-21.38-20.17l-2.55-.46.6-.68c1.79-2.18,4.24-7.25,5.11-9.97l.16-.86.33-.04.15-.08.12-.1.1-.13.06-.16.11-.35v-.33l-.02-.17-.06-.15-.08-.14-.12-.11-.29-.18.18-1.04.25-1.06.48-2.24.42-.08.21-.08.16-.11.15-.14.1-.15.04-.21.04-.2v-.44l-.06-.44-.08-.19-.13-.12-.17-.09-.21-.04.25-1.39.11-.72c1.45-18.36-5.5-26.25-23.83-28.23l-.75-.09-.75-.06c-15.34-.82-26.6,10.34-23.88,25.82l.17,2.64.21,2.7-.38.14-.15.1-.12.13-.08.17-.06.18-.02.4.02.21.04.19.08.16.13.13.17.1.19.07.39.06.58,4.57-.18.06-.17.12-.13.15-.12.17-.15.35-.02.39.09.42.08.19.12.12.19.06.19.02.44-.02.35,1.62c.86,3.27,2.83,8.2,5.94,10.07l.39.23-2.56.48-2.52.58c-4.75,1.32-9.98,2.71-13.44,6.46l-1,1.08-.88,1.18-.79,1.25-.67,1.31-.85,1.95-.75,1.99-.6,2.04-.52,2.08v.43l.15.4.5.75.56.71.64.62.35-2.06.48-2.04.6-2.01.73-1.95c1.13-3.13,2.91-5.79,5.61-7.77l1.06-.71,1.12-.62,1.17-.52,2.47-.91,2.53-.81,2.56-.68,2.58-.58,2.62-.46,2.62-.31.79.31.35.14.31.17.62.31c4.05,2.77,6.16,5.62,11.64,4.67l.56-.14.56-.19.52-.19.48-.23.91-.48c.97-.57,1.74-1.04,2.76-1.47l.29-.16.14-.09c.63-.46,1.27-.92,1.99-1.24l.73-.38,1.56-.72.81-.42.83-.44.83-.48,2.49.35,2.47.45,2.47.58,2.41.71,2.39.81,1.25.52,1.18.6,1.15.7c2.95,2,5.29,4.94,6.48,8.31l.79,2.35.69,2.39.58,2.41.46,2.43.85-.36.75-.5.27-.29.15-.37.02-.37ZM54.55,50.11l1.5-.11,1.5-.06.75.02.77.07,1.48.2-.21.86-.1.85.02.87.1.85.23.85-.66.17-.67.08-1.37.07h-1.37l-1.37-.11-.58-4.61ZM73.4,27.06l.5-.04.56-.06,1.2-.19,1.19-.27.6-.1.31-.04.27-.13.13-.1.08-.12.02-.17c-.02-.45-.36-.55-.75-.64l-.31-.04h-1.68l-.12-.06-.08-.15.02-.06.04-.06.31-.11.54-.25.31-.08.15-.02.12-.1.06-.13-.02-.17-.1-.12-.12-.08-.17-.05-.17.02h-.15l-.15-.04-.21-.2-.13-.09-.15-.04-1.25-.06-1.21-.02-.62.02c-1.18-.15-2.61-.13-3.64-.33l-.27-.15-.12-.06-.17-.02-.06.04-.02.08.02.17.15.25.27.56.1.1.12.08.29.09c1.46.27,2.93.96,4.16.91l.62-.02.29.02.08.02.06.04v.16l-.1.1-.15.07-.31.08-.56.19-.6.06h-.62l-1.23.1-.58.13-.29.1-.27.17-.06.14.04.15.08.15.1.1.25.13c.93.12,2.2.12,3.2.16h.08l.02-.02h.06ZM73.25,30.03l1.35.02,1.37-.08.66-.07.68-.12c1.43-.24,2.53-.79,3.74-1.56l1.12-.79,1.1-.81.5-.46.46-.48.5-.48.29-.23.25-.25.07-.12.02-.17-.06-.33-.11-.71-.06-.14c-.36-.44-.59-.57-.89.04l-.21.29-.21.25c-1.39,1.38-3.06,2.8-4.78,3.76l-.63.31-.62.25-.67.19-.66.1-1.37.04h-1.35l-1.37-.12-1.35-.19-.66-.1-.33-.08-.33-.13-.31-.21-.1-.13-.06-.14v-.17l.02-.17.06-.35v-.08l-.04-.06-.17-.08-.31-.17-.15-.06-.17-.05-.33-.06-.17-.06-.08.02-.06.04-.12.15-.09.14-.08.33v.34l.06.33c.33.86,1.49,1.63,2.31,1.93l.64.21,1.35.25.66.15.33.04.35.02ZM73.38,67.79l.73.23.75.15.75.06c1.62-.02,4.11,0,5.51-1l.27-.27.23-.31.12-.36.02-.19-.02-.18-.04-.19-.1-.19-.06-.06-.08-.02-.19.04-.35.17-.6.43-.35.15-.37.11-.75.12c-2.2.27-4.64.29-6.69-.65l-.31-.19-.17-.11-.19-.04-.19.04-.15.13-.06.17v.18l.12.38.08.16.12.15.29.25.31.23.33.2.33.17.71.23ZM77.91,59.44l-.19.02-.19.06c-.85.52-.82,1.98.08,2.43l.19.04h.19c1.03-.19,1.18-1.76.44-2.35l-.17-.13-.17-.06-.19-.02ZM74.52,59.61l-.19.02-.19.06c-.84.43-.81,2.07.1,2.41l.17.04h.21c1.02-.17,1.13-1.76.44-2.35l-.17-.1-.19-.06-.19-.02ZM17.76,65.35c0,32.46,26.33,58.79,58.79,58.79s58.78-26.33,58.78-58.79S109.01,6.58,76.55,6.58s-58.79,26.31-58.79,58.78Z"/>
  <polyline class="cls-1" points="10.05 133.73 143.04 133.73 143.04 208.97 10.05 208.97 10.05 133.73"/>
  <path class="cls-2" d="M17.42,150.23l1.78-5.67,1.7,5.67h-3.48ZM137.05,153.99c.05.46.15.8.3,1.07h2.59c-.33-.39-.43-.67-.43-.98v-5.17c0-2.26-1.17-3.61-4.24-3.61-2.85,0-4.04,1.56-3.98,3.15l2.24.04c0-.7.52-1.37,1.81-1.37s1.65.61,1.65,1.05c0,.39-.24.74-.93.87l-1.44.24c-2.07.37-2.63.76-3.04,1.11-.56.5-.87,1.2-.87,1.96,0,1.55,1.22,2.96,3.61,2.96,1.37,0,2.18-.46,2.72-1.33ZM137.07,150.1l-.02,1.18c0,1.33-.83,2.17-2.28,2.17-1.05,0-1.57-.63-1.57-1.2,0-.45.15-.94,1.76-1.39l1.09-.3c.48-.13.81-.32,1.02-.46ZM120.01,155.06h2.54l-.02-3.09,1.07-1.05,2.59,4.15h3.09l-3.87-5.79,3.37-3.63h-3l-3.24,3.59-.02-7.28h-2.54l.02,13.11ZM113.14,155.06h2.54l.02-4.18c0-1.41.33-2.06.76-2.5.46-.5,1.02-.74,1.72-.74.15,0,.28.02.43.04l.02-2.24c-.13-.02-.33-.06-.54-.06-1.11,0-2.07.7-2.37,1.68l-.07-1.42h-2.48l-.02,9.42ZM106.27,155.43c3.04,0,5.09-2.04,5.09-5.11s-2.07-5.05-5.02-5.05-4.96,2.04-4.96,5.05,2.11,5.11,4.89,5.11ZM106.42,153.45c-1.31,0-2.44-.94-2.44-3.13s1.15-3.07,2.43-3.07,2.35.85,2.35,3.15-1.2,3.05-2.33,3.05ZM106.77,144.51h2.54v-2.55l-2.54-.02v2.57ZM103.46,144.51h2.54v-2.55l-2.52-.02-.02,2.57ZM85.82,155.06h2.54l.02-5.44c0-1.35.76-2.04,1.78-2.04.67,0,1.07.33,1.26.8.04.09.11.3.11,1.04v5.65h2.52v-5.59c0-1.22.74-1.92,1.74-1.92.87,0,1.44.52,1.44,1.63v5.89h2.5l-.02-6.61c-.05-1.98-1.31-3.11-3.02-3.11-1.31,0-2.33.61-2.91,1.65-.48-.98-1.52-1.65-2.76-1.65s-2.13.56-2.63,1.5l-.09-1.18-2.46-.02-.02,9.42ZM73.59,154.1l.09.96h2.52v-13.11h-2.55v4.76c-.45-.74-1.52-1.37-2.72-1.37-2.09,0-4.18,1.76-4.18,5.05,0,1.5.48,2.74,1.22,3.61.78.94,1.76,1.37,2.87,1.37s2.09-.44,2.76-1.28ZM71.59,153.19c-1.2,0-2.24-.85-2.24-2.85,0-2.24,1.09-3.04,2.13-3.04s2.15.8,2.15,2.96-1.09,2.91-2.04,2.92ZM56.52,155.06h2.54l.02-5.28c0-.74.15-1.09.35-1.39.33-.48.93-.8,1.54-.8.87,0,1.52.57,1.52,1.63l-.02,5.83h2.54v-6.65c0-1.76-1.3-3.11-3.24-3.11-1.35,0-2.3.72-2.63,1.46l-.09-1.11-2.5-.02-.02,9.42ZM51.82,153.99c.06.37.17.78.33,1.07h2.56c-.15-.13-.39-.55-.39-1.33l-.04-4.81c-.02-.83-.07-1.07-.13-1.28-.39-1.3-1.44-2.33-4-2.33-2.92,0-4.09,1.5-4.09,3.15l2.24.04c.09-.63.18-.76.39-.94.24-.22.72-.45,1.48-.45,1.18,0,1.63.63,1.63,1.07s-.28.76-.96.89l-2.56.44c-1.91.33-2.8,1.57-2.8,2.82,0,1.63,1.26,3.02,3.54,3.02,1.57,0,2.44-.63,2.8-1.35ZM51.82,150.05v1.41c-.07,1.18-.87,2-2.24,2-1.07,0-1.57-.63-1.57-1.18,0-.44.22-1.02,1.72-1.39l1.09-.3c.41-.09.76-.3,1-.54ZM50.3,144.51l2.55.02v-2.57h-2.54l-.02,2.55ZM47.01,144.51h2.54l.02-2.57h-2.54l-.02,2.57ZM39.36,155.06h2.5l3.22-9.42h-2.57l-1.89,6.2-1.87-6.18h-2.57l3.18,9.41ZM26.49,155.06h2.54l.02-5.28c0-.74.15-1.09.35-1.39.33-.48.93-.8,1.54-.8.87,0,1.52.57,1.52,1.63l-.02,5.83h2.54v-6.65c0-1.76-1.3-3.11-3.24-3.11-1.35,0-2.3.72-2.63,1.46l-.09-1.11-2.5-.02-.02,9.42ZM13.12,155.06h2.76l.87-2.76h4.76l.83,2.76h2.78l-4.48-13.11h-2.91l-4.61,13.11Z"/>
  <path class="cls-2" d="M15.2,172.74c.03,1.78,1.32,3.48,3.81,3.48s3.65-1.57,3.65-3.26c0-.59-.19-1.18-.51-1.65-.3-.45-.68-.78-1.66-1.04l-2.33-.63c-.48-.15-.68-.5-.68-.83,0-.37.29-.94,1.35-.94,1.15,0,1.66.7,1.67,1.46l1.93-.04c-.03-.94-.48-1.89-1.16-2.48-.48-.39-1.23-.72-2.41-.72-2.34,0-3.36,1.46-3.36,3.07,0,.76.18,1.3.56,1.78.29.35.64.65,1.55.87l1.75.46c1.04.26,1.15.63,1.15,1.07,0,.41-.33,1.06-1.53,1.06s-1.74-.7-1.8-1.68l-1.98.02ZM131.5,175.89h2.18l.02-5.28c0-.74.13-1.09.3-1.39.29-.48.8-.8,1.32-.8.75,0,1.29.57,1.29,1.63v5.83h2.18v-6.65c0-1.76-1.11-3.11-2.81-3.11-1.16,0-1.97.72-2.25,1.46l-.1-1.11-2.14-.02-.02,9.42ZM125.7,176.24c2.45,0,4.25-2.02,4.25-5.09s-1.77-5.04-4.29-5.04-4.24,2.04-4.24,5.02,1.8,5.11,4.27,5.11ZM125.68,174.26c-1.04,0-2.04-.93-2.04-3.02,0-2.26.97-3.15,2.04-3.15s2.05.91,2.05,3.05-.99,3.11-2.05,3.11ZM112.13,176.41c.1.89.33,1.39.8,1.89.48.55,1.4,1.07,2.96,1.07,1.77,0,2.88-.76,3.43-1.57.38-.57.57-1.09.57-2.5v-8.83h-2.09l-.08,1.15c-.14-.3-.59-1.48-2.39-1.48-1.96,0-3.67,1.82-3.67,4.72s1.71,4.74,3.65,4.74c1.29,0,2.09-.68,2.41-1.41v1.02c0,1.59-.64,2.26-1.88,2.26-.96,0-1.4-.56-1.47-1.15l-2.25.09ZM115.83,173.41c-1.07,0-1.94-.89-1.94-2.63,0-1.52.89-2.48,1.9-2.48s1.91.96,1.91,2.56-.93,2.55-1.86,2.55ZM105.94,176.26c2.61,0,4.37-2.04,4.37-5.11s-1.79-5.05-4.3-5.05-4.27,2.04-4.27,5.05,1.82,5.11,4.21,5.11ZM106.06,174.28c-1.13,0-2.1-.94-2.1-3.13s.97-3.07,2.09-3.07c1.05,0,2.02.85,2.02,3.15s-1.04,3.05-2.01,3.05ZM106.37,165.34h2.18l-.02-2.55-2.17-.02v2.57ZM103.52,165.34h2.18v-2.55l-2.18-.02v2.57ZM92.84,172.74c.03,1.78,1.32,3.48,3.81,3.48s3.65-1.57,3.65-3.26c0-.59-.19-1.18-.51-1.65-.3-.45-.69-.78-1.66-1.04l-2.33-.63c-.48-.15-.69-.5-.69-.83,0-.37.29-.94,1.35-.94,1.15,0,1.66.7,1.67,1.46l1.93-.04c-.03-.94-.48-1.89-1.16-2.48-.48-.39-1.23-.72-2.41-.72-2.34,0-3.36,1.46-3.36,3.07,0,.76.18,1.3.56,1.78.29.35.64.65,1.55.87l1.75.46c1.04.26,1.15.63,1.15,1.07,0,.41-.34,1.06-1.53,1.06s-1.74-.7-1.8-1.68l-1.98.02ZM89.08,174.82c.05.46.14.8.27,1.07h2.21c-.27-.39-.35-.67-.37-.98l.02-5.17c0-2.26-1.02-3.61-3.65-3.61-2.45,0-3.47,1.55-3.44,3.15l1.93.04c0-.7.46-1.37,1.58-1.37s1.42.61,1.42,1.05c0,.39-.21.74-.8.87l-1.24.24c-1.8.37-2.28.76-2.61,1.11-.49.5-.75,1.2-.75,1.96,0,1.55,1.05,2.96,3.11,2.96,1.18,0,1.86-.46,2.33-1.33ZM89.09,170.93l-.02,1.18c0,1.33-.7,2.17-1.96,2.17-.91,0-1.34-.63-1.34-1.2,0-.44.13-.94,1.5-1.39l.94-.3c.43-.13.7-.32.88-.46ZM79.98,175.89h2.18v-13.11h-2.17l-.02,13.11ZM70.55,176.41c.1.89.33,1.39.8,1.89.48.55,1.4,1.07,2.96,1.07,1.77,0,2.87-.76,3.41-1.57.38-.57.57-1.09.57-2.5v-8.83h-2.07l-.08,1.15c-.14-.3-.59-1.48-2.39-1.48-1.96,0-3.66,1.82-3.66,4.72s1.7,4.74,3.65,4.74c1.29,0,2.09-.68,2.41-1.41v1.02c0,1.59-.64,2.26-1.88,2.26-.96,0-1.4-.56-1.47-1.15l-2.25.09ZM74.24,173.41c-1.07,0-1.94-.89-1.94-2.63,0-1.52.89-2.48,1.9-2.48s1.91.96,1.91,2.56-.92,2.55-1.86,2.55ZM61.19,172.74c.03,1.78,1.32,3.48,3.81,3.48s3.65-1.57,3.65-3.26c0-.59-.19-1.18-.51-1.65-.3-.45-.69-.78-1.66-1.04l-2.33-.63c-.48-.15-.69-.5-.69-.83,0-.37.29-.94,1.35-.94,1.15,0,1.66.7,1.67,1.46l1.93-.04c-.03-.94-.48-1.89-1.16-2.48-.48-.39-1.23-.72-2.41-.72-2.34,0-3.36,1.46-3.36,3.07,0,.76.18,1.3.56,1.78.29.35.64.65,1.55.87l1.75.46c1.04.26,1.15.63,1.15,1.07,0,.41-.33,1.06-1.53,1.06s-1.74-.7-1.8-1.68l-1.97.02ZM57.4,174.93l.1.96h2.17l-.02-13.11h-2.18v4.76c-.4-.74-1.31-1.37-2.34-1.37-1.82,0-3.6,1.76-3.6,5.05,0,1.5.41,2.74,1.05,3.61.67.94,1.5,1.37,2.47,1.37s1.78-.45,2.36-1.28ZM55.68,174.02c-1.02,0-1.93-.85-1.93-2.85,0-2.24.94-3.04,1.85-3.04s1.83.8,1.83,2.96-.94,2.91-1.75,2.93ZM47.73,174.93l.1.96h2.17l-.02-13.11h-2.18v4.76c-.4-.74-1.31-1.37-2.34-1.37-1.82,0-3.6,1.76-3.6,5.05,0,1.5.41,2.74,1.05,3.61.67.94,1.5,1.37,2.47,1.37s1.78-.45,2.36-1.28ZM46.01,174.02c-1.02,0-1.93-.85-1.93-2.85,0-2.24.94-3.04,1.85-3.04s1.83.8,1.83,2.96-.94,2.91-1.75,2.93ZM33.91,176.96v1.98h1.61c1.91,0,2.36-1.74,2.53-2.31l3.08-10.17h-2.31l-1.62,5.83-1.7-5.83h-2.34l2.5,7.94c.18.52.22.87.22,1.3,0,.76-.35,1.28-1.31,1.26h-.65ZM24.27,175.89h2.18v-3.09l.91-1.06,2.23,4.15h2.68l-3.35-5.79,2.92-3.63h-2.58l-2.81,3.59-.02-7.28h-2.17v13.11Z"/>
  <path class="cls-2" d="M42.75,199.87h2.54v-7.74h1.83v-1.68h-1.83v-.19c0-.85.15-1.09.31-1.26.2-.22.48-.39,1.11-.37h.41v-1.87h-1.44c-.85,0-3.17.15-2.93,3.68h-1.37v1.68h1.37v7.74ZM103.22,199.87h2.54l.02-5.28c0-.74.15-1.09.35-1.39.33-.48.92-.8,1.54-.8.87,0,1.5.57,1.5,1.63v5.83h2.54v-6.65c0-1.76-1.3-3.11-3.24-3.11-1.35,0-2.32.72-2.63,1.46l-.11-1.11-2.48-.02-.02,9.42ZM96.37,199.87h2.54l.02-4.18c0-1.41.33-2.06.76-2.5.46-.5,1.02-.74,1.72-.74.15,0,.28.02.43.04l.02-2.24c-.13-.02-.33-.06-.55-.06-1.09,0-2.06.7-2.35,1.68l-.08-1.42h-2.48l-.02,9.42ZM91.66,198.79c.04.46.15.8.3,1.07h2.59c-.33-.39-.43-.67-.43-.98v-5.17c0-2.26-1.17-3.61-4.24-3.61-2.85,0-4.04,1.56-3.98,3.15l2.22.04c0-.7.54-1.37,1.83-1.37s1.65.61,1.65,1.05c0,.39-.24.74-.93.87l-1.44.24c-2.07.37-2.65.76-3.04,1.11-.56.5-.87,1.2-.87,1.96,0,1.56,1.22,2.96,3.61,2.96,1.37,0,2.18-.46,2.72-1.33ZM91.66,194.9v1.18c0,1.33-.83,2.17-2.28,2.17-1.07,0-1.57-.63-1.57-1.2,0-.45.15-.95,1.74-1.39l1.11-.3c.48-.13.8-.32,1-.46ZM74.52,199.87h2.48l.13-.96c.67.83,1.57,1.26,2.72,1.26,2.07,0,4.13-1.7,4.13-5.04s-2.07-5-4.11-5c-1.37,0-2.33.59-2.81,1.41v-4.78h-2.54v13.11ZM79.22,197.98c-1.05,0-2.15-.83-2.15-2.94s1.09-2.94,2.13-2.94c1.13,0,2.18.8,2.18,2.98s-1.07,2.91-2.17,2.91ZM60,199.87h2.54l.02-4.18c0-1.41.33-2.06.76-2.5.46-.5,1.02-.74,1.72-.74.15,0,.28.02.43.04l.02-2.24c-.13-.02-.33-.06-.56-.06-1.09,0-2.06.7-2.35,1.68l-.07-1.42h-2.48l-.02,9.42ZM53.13,200.24c3.04,0,5.09-2.04,5.09-5.11s-2.07-5.05-5.02-5.05-4.96,2.04-4.96,5.05,2.11,5.11,4.89,5.11ZM53.28,198.26c-1.32,0-2.44-.94-2.44-3.13s1.13-3.07,2.42-3.07c1.22,0,2.35.85,2.35,3.15s-1.2,3.05-2.33,3.05ZM53.63,189.31h2.54v-2.55l-2.54-.02v2.57ZM50.32,189.31h2.54v-2.55l-2.54-.02v2.57Z"/>
</svg>