<svg xmlns="http://www.w3.org/2000/svg" viewBox="0 0 595.28 850.37"><defs><style>.a{fill:#e5e8eb;}.a,.b,.c{fill-rule:evenodd;}.b{fill:#000100;}.c{fill:#1e3b72;}</style></defs><title>M025_C</title><polyline class="a" points="0 850.37 595.28 850.37 595.28 0 0 0 0 850.37"/><path class="b" d="M69,626.08l6.91-22,6.62,22H69Zm465.18,14.62a11.57,11.57,0,0,0,1.15,4.18h10.08a5.48,5.48,0,0,1-1.66-3.82V621c0-8.78-4.53-14-16.49-14-11.09,0-15.69,6-15.48,12.24l8.71,0.14c0-2.74,2-5.33,7.05-5.33,4.83,0,6.41,2.38,6.41,4.11,0,1.51-.94,2.88-3.6,3.38l-5.62.94c-8.06,1.44-10.22,3-11.81,4.32a10.19,10.19,0,0,0-3.38,7.63c0,6.05,4.75,11.52,14,11.52C528.87,645.88,532,644.08,534.13,640.69Zm0.07-15.12-0.07,4.61c0,5.19-3.24,8.43-8.86,8.43-4.1,0-6.12-2.45-6.12-4.68,0-1.73.58-3.67,6.84-5.4l4.25-1.15A12,12,0,0,0,534.2,625.57Zm-66.31,19.3h9.86l-0.07-12,4.18-4.11,10.08,16.13h12l-15-22.54L502,608.22H490.35l-12.6,14-0.07-28.29h-9.86Zm-26.71,0H451l0.07-16.27c0-5.47,1.29-8,3-9.72a8.63,8.63,0,0,1,6.7-2.88,12.56,12.56,0,0,1,1.66.14l0.07-8.71a14.64,14.64,0,0,0-2.09-.21,9.55,9.55,0,0,0-9.22,6.55l-0.29-5.55h-9.65Zm-26.71,1.44c11.81,0,19.8-7.92,19.8-19.87,0-11.74-8.07-19.66-19.51-19.66-11.09,0-19.29,7.92-19.29,19.66C395.46,638.39,403.67,646.31,414.47,646.31Zm0.58-7.7c-5.11,0-9.51-3.67-9.51-12.17,0-8.21,4.46-12,9.43-12,4.75,0,9.15,3.31,9.15,12.24C424.12,635.37,419.44,638.61,415,638.61Zm1.36-34.77h9.87V593.9l-9.87-.07v10Zm-12.89,0h9.86V593.9l-9.79-.07Zm-68.61,41h9.86l0.07-21.17c0-5.26,3-7.92,6.91-7.92a4.89,4.89,0,0,1,4.9,3.1c0.14,0.36.43,1.15,0.43,4v22h9.79V623.13c0-4.75,2.88-7.49,6.77-7.49,3.38,0,5.61,2,5.61,6.34v22.9H389l-0.07-25.7c-0.21-7.71-5.11-12.1-11.74-12.1a12.34,12.34,0,0,0-11.3,6.41,11.75,11.75,0,0,0-10.73-6.41c-5,0-8.28,2.16-10.22,5.83l-0.36-4.61-9.58-.07Zm-47.52-3.74,0.36,3.74h9.79v-51h-9.93v18.5c-1.73-2.88-5.91-5.33-10.58-5.33-8.13,0-16.27,6.84-16.27,19.66a21.42,21.42,0,0,0,4.75,14,13.88,13.88,0,0,0,11.16,5.33A13.19,13.19,0,0,0,287.39,641.13Zm-7.78-3.53c-4.68,0-8.71-3.31-8.71-11.09,0-8.71,4.25-11.81,8.28-11.81s8.35,3.1,8.35,11.52C287.54,634.29,283.29,637.53,279.62,637.6ZM221,644.87h9.86l0.07-20.52c0-2.88.58-4.25,1.37-5.4a7.39,7.39,0,0,1,6-3.1c3.39,0,5.91,2.23,5.91,6.33l-0.07,22.68H254V619c0-6.84-5-12.1-12.6-12.1-5.26,0-8.93,2.81-10.23,5.69l-0.36-4.32-9.72-.07Zm-18.29-4.18a12.84,12.84,0,0,0,1.29,4.18H214c-0.58-.51-1.51-2.16-1.51-5.18L212.3,621a18.6,18.6,0,0,0-.5-5c-1.51-5-5.62-9.07-15.55-9.07-11.37,0-15.91,5.83-15.91,12.24l8.71,0.14c0.36-2.45.72-3,1.51-3.67s2.81-1.73,5.76-1.73c4.61,0,6.33,2.45,6.33,4.18s-1.08,3-3.74,3.46L189,623.27c-7.42,1.29-10.87,6.12-10.87,10.94,0,6.34,4.9,11.74,13.75,11.74C198,645.95,201.36,643.5,202.73,640.69Zm0-15.34v5.47c-0.29,4.61-3.39,7.78-8.71,7.78-4.18,0-6.12-2.45-6.12-4.61,0-1.73.87-4,6.7-5.4l4.25-1.15A8.13,8.13,0,0,0,202.73,625.36Zm-5.91-21.53,9.93,0.07v-10h-9.86Zm-12.82,0h9.86l0.07-10h-9.87Zm-29.73,41H164l12.53-36.65h-10l-7.34,24.12-7.28-24h-10Zm-50,0h9.86l0.07-20.52c0-2.88.58-4.25,1.37-5.4a7.4,7.4,0,0,1,6-3.1c3.38,0,5.9,2.23,5.9,6.33l-0.07,22.68h9.86V619c0-6.84-5-12.1-12.6-12.1-5.26,0-8.93,2.81-10.22,5.69L114,608.3l-9.72-.07Zm-52,0H63l3.39-10.73h18.5l3.24,10.73H98.9l-17.42-51H70.18Z" transform="translate(-1.22 -0.94)"/><path class="b" d="M19.63,719.71c0.14,6.91,6,13.54,17.21,13.54,11.45,0,16.49-6.12,16.49-12.67A10.41,10.41,0,0,0,51,714.17c-1.37-1.73-3.09-3-7.48-4L33,707.69c-2.16-.58-3.1-1.94-3.1-3.24s1.29-3.67,6.12-3.67c5.18,0,7.49,2.74,7.56,5.69l8.71-.14a13,13,0,0,0-5.25-9.65c-2.16-1.51-5.55-2.81-10.87-2.81-10.58,0-15.19,5.69-15.19,12a9.41,9.41,0,0,0,2.52,6.91c1.29,1.37,2.88,2.52,7,3.38l7.92,1.8c4.68,1,5.18,2.45,5.18,4.18s-1.51,4.1-6.91,4.1c-5.19,0-7.85-2.73-8.14-6.55ZM545.07,732h9.87L555,711.43c0-2.88.58-4.25,1.37-5.4a7.41,7.41,0,0,1,6-3.1c3.38,0,5.83,2.23,5.83,6.33V732H578V706.11c0-6.84-5-12.1-12.67-12.1-5.26,0-8.93,2.81-10.15,5.69l-0.43-4.32-9.65-.07Zm-26.2,1.37c11.09,0,19.22-7.85,19.22-19.8,0-11.59-8-19.59-19.37-19.59-11.09,0-19.15,7.92-19.15,19.51C499.56,725.54,507.7,733.32,518.86,733.32Zm-0.07-7.71c-4.68,0-9.22-3.6-9.22-11.74,0-8.78,4.39-12.24,9.22-12.24s9.29,3.53,9.29,11.88C528.08,722.09,523.61,725.61,518.79,725.61ZM457.59,734a10.73,10.73,0,0,0,3.6,7.35c2.16,2.16,6.34,4.18,13.39,4.18,8,0,13-3,15.48-6.12,1.73-2.23,2.59-4.25,2.59-9.72V695.3h-9.43l-0.36,4.46c-0.65-1.15-2.66-5.76-10.8-5.76-8.85,0-16.56,7.05-16.56,18.36s7.7,18.43,16.49,18.43c5.83,0,9.43-2.66,10.87-5.47v4c0,6.19-2.88,8.78-8.5,8.78-4.32,0-6.34-2.16-6.63-4.46Zm16.7-11.66c-4.82,0-8.78-3.46-8.78-10.23,0-5.9,4-9.65,8.57-9.65s8.64,3.74,8.64,9.93S478.54,722.31,474.29,722.31Zm-44.71,11.09c11.81,0,19.73-7.92,19.73-19.87,0-11.74-8.06-19.66-19.44-19.66-11.09,0-19.29,7.92-19.29,19.66C410.57,725.47,418.78,733.39,429.58,733.39Zm0.58-7.7c-5.11,0-9.5-3.67-9.5-12.17,0-8.21,4.39-12,9.43-12,4.75,0,9.14,3.31,9.14,12.24C439.23,722.45,434.55,725.69,430.16,725.69Zm1.37-34.77h9.86L441.32,681l-9.79-.07v10Zm-12.89,0h9.86V681l-9.86-.07v10Zm-48.24,28.8c0.14,6.91,6,13.54,17.21,13.54,11.45,0,16.49-6.12,16.49-12.67a10.43,10.43,0,0,0-2.3-6.41c-1.37-1.73-3.1-3-7.49-4l-10.51-2.45c-2.16-.58-3.1-1.94-3.1-3.24s1.29-3.67,6.12-3.67c5.18,0,7.49,2.74,7.56,5.69l8.71-.14a13,13,0,0,0-5.25-9.65c-2.16-1.51-5.55-2.81-10.87-2.81-10.58,0-15.19,5.69-15.19,12a9.41,9.41,0,0,0,2.52,6.91c1.29,1.37,2.88,2.52,7,3.38l7.92,1.8c4.68,1,5.18,2.45,5.18,4.18s-1.51,4.1-6.91,4.1c-5.18,0-7.85-2.73-8.13-6.55Zm-17,8.06a11.56,11.56,0,0,0,1.23,4.18h10a6.19,6.19,0,0,1-1.66-3.82l0.07-20.08c0-8.78-4.61-14-16.49-14-11.09,0-15.69,6-15.55,12.24l8.71,0.14c0-2.74,2.09-5.33,7.13-5.33,4.83,0,6.41,2.38,6.41,4.11,0,1.51-.93,2.88-3.6,3.38l-5.62.94c-8.13,1.44-10.29,3-11.81,4.32a9.94,9.94,0,0,0-3.39,7.63c0,6.05,4.76,11.52,14,11.52C348.22,733,351.32,731.16,353.41,727.78Zm0.07-15.12-0.07,4.61c0,5.18-3.17,8.42-8.85,8.42-4.1,0-6-2.45-6-4.68,0-1.73.58-3.67,6.77-5.4l4.25-1.15A11.39,11.39,0,0,0,353.48,712.66ZM312.3,732h9.86V681h-9.8Zm-42.62,2a10.73,10.73,0,0,0,3.6,7.35c2.16,2.16,6.34,4.18,13.39,4.18,8,0,13-3,15.41-6.12,1.73-2.23,2.59-4.25,2.59-9.72V695.3h-9.36l-0.36,4.46c-0.65-1.15-2.67-5.76-10.8-5.76-8.85,0-16.56,7.05-16.56,18.36s7.7,18.43,16.49,18.43c5.83,0,9.43-2.66,10.87-5.47v4c0,6.19-2.88,8.78-8.5,8.78-4.32,0-6.34-2.16-6.63-4.46Zm16.7-11.66c-4.82,0-8.78-3.46-8.78-10.23,0-5.9,4-9.65,8.57-9.65s8.64,3.74,8.64,9.93S290.63,722.31,286.38,722.31Zm-59-2.59c0.14,6.91,6,13.54,17.21,13.54,11.45,0,16.49-6.12,16.49-12.67a10.43,10.43,0,0,0-2.3-6.41c-1.37-1.73-3.1-3-7.49-4l-10.51-2.45c-2.16-.58-3.1-1.94-3.1-3.24s1.29-3.67,6.12-3.67c5.19,0,7.49,2.74,7.56,5.69l8.71-.14a13,13,0,0,0-5.26-9.65c-2.16-1.51-5.54-2.81-10.87-2.81-10.58,0-15.19,5.69-15.19,12a9.39,9.39,0,0,0,2.52,6.91c1.29,1.37,2.88,2.52,7,3.38l7.92,1.8c4.68,1,5.19,2.45,5.19,4.18s-1.51,4.1-6.91,4.1c-5.18,0-7.85-2.73-8.13-6.55Zm-17.14,8.5,0.43,3.74h9.79l-0.07-51h-9.86v18.5c-1.8-2.88-5.9-5.33-10.58-5.33-8.21,0-16.27,6.84-16.27,19.66a21.39,21.39,0,0,0,4.75,14,13.78,13.78,0,0,0,11.16,5.33A13.06,13.06,0,0,0,210.28,728.21Zm-7.78-3.53c-4.61,0-8.71-3.31-8.71-11.09,0-8.71,4.25-11.81,8.35-11.81s8.28,3.1,8.28,11.52C210.42,721.37,206.17,724.61,202.5,724.68Zm-35.93,3.53L167,732h9.79l-0.07-51h-9.87v18.5c-1.8-2.88-5.9-5.33-10.58-5.33-8.21,0-16.27,6.84-16.27,19.66a21.39,21.39,0,0,0,4.75,14,13.78,13.78,0,0,0,11.16,5.33A13.06,13.06,0,0,0,166.57,728.21Zm-7.78-3.53c-4.61,0-8.71-3.31-8.71-11.09,0-8.71,4.25-11.81,8.35-11.81s8.28,3.1,8.28,11.52C166.72,721.37,162.47,724.61,158.8,724.68Zm-54.64,11.45v7.7h7.27c8.64,0,10.65-6.77,11.45-9l13.89-39.53H126.33L119,718l-7.7-22.68H100.7L112,726.19a12.53,12.53,0,0,1,1,5c0,3-1.58,5-5.9,4.9h-3ZM60.59,732h9.86v-12l4.11-4.11L84.64,732h12.1L81.62,709.42,94.79,695.3H83.13l-12.67,14L70.39,681H60.59v51Z" transform="translate(-1.22 -0.94)"/><path class="b" d="M167.44,819.08h9.86V789h7.13v-6.55H177.3v-0.72c0-3.31.58-4.25,1.22-4.9,0.79-.86,1.87-1.51,4.32-1.44h1.58V768.1h-5.61c-3.31,0-12.31.58-11.38,14.33h-5.33V789h5.33v30.1Zm235.15,0h9.86l0.07-20.52c0-2.88.58-4.25,1.37-5.4a7.39,7.39,0,0,1,6-3.1c3.39,0,5.83,2.23,5.83,6.33v22.68h9.86V793.23c0-6.84-5-12.09-12.6-12.09-5.26,0-9,2.81-10.23,5.69l-0.43-4.32-9.65-.07Zm-26.64,0h9.86l0.07-16.27c0-5.47,1.29-8,3-9.72a8.62,8.62,0,0,1,6.7-2.88,12.54,12.54,0,0,1,1.66.14l0.07-8.71a14.67,14.67,0,0,0-2.16-.21A9.51,9.51,0,0,0,386,788l-0.29-5.55H376Zm-18.29-4.18a10.31,10.31,0,0,0,1.15,4.18h10.08a5.48,5.48,0,0,1-1.66-3.82V795.18c0-8.78-4.53-14-16.49-14-11.09,0-15.69,6-15.48,12.24l8.64,0.15c0-2.74,2.09-5.33,7.13-5.33,4.83,0,6.41,2.38,6.41,4.11,0,1.51-.93,2.88-3.6,3.38l-5.61.94c-8.07,1.44-10.29,3-11.81,4.32a10.19,10.19,0,0,0-3.39,7.63c0,6.05,4.75,11.52,14,11.52C352.4,820.09,355.57,818.29,357.66,814.91Zm0-15.12v4.61c0,5.19-3.24,8.43-8.86,8.43-4.18,0-6.12-2.45-6.12-4.68,0-1.73.58-3.67,6.77-5.4l4.32-1.15A11.47,11.47,0,0,0,357.66,799.78ZM291,819.08h9.65l0.51-3.74a12.86,12.86,0,0,0,10.58,4.9c8.06,0,16.06-6.63,16.06-19.58,0-12.6-8.06-19.44-16-19.44-5.33,0-9.07,2.31-10.94,5.48V768.1H291v51Zm18.29-7.35c-4.1,0-8.35-3.24-8.35-11.45s4.25-11.45,8.28-11.45c4.39,0,8.5,3.1,8.5,11.59C317.7,808.5,313.52,811.74,309.27,811.74Zm-74.73,7.35h9.86l0.07-16.27c0-5.47,1.29-8,3-9.72a8.62,8.62,0,0,1,6.7-2.88,12.54,12.54,0,0,1,1.66.14l0.07-8.71a14.81,14.81,0,0,0-2.16-.21,9.51,9.51,0,0,0-9.14,6.55l-0.29-5.55h-9.65Zm-26.71,1.44c11.81,0,19.8-7.92,19.8-19.87,0-11.74-8.06-19.66-19.51-19.66-11.09,0-19.3,7.92-19.3,19.66C188.82,812.6,197,820.52,207.83,820.52Zm0.58-7.7c-5.11,0-9.5-3.67-9.5-12.17,0-8.21,4.39-12,9.43-12,4.75,0,9.15,3.31,9.15,12.24C217.48,809.58,212.8,812.82,208.41,812.82ZM209.77,778h9.86V768.1l-9.86-.07v10Zm-12.89,0h9.86V768.1l-9.86-.07v10Z" transform="translate(-1.22 -0.94)"/><path class="c" d="M392.9,229.2h-17l-3.44-.1h-1.66l-1.66.36-3.24,1.13,1,4,0.55,4.09-0.09,4.17-0.55,4.07,5.46,0.93,5.47,0.54,5.56,0.38,5.56-.09,0.84-4.9,1-4.91Zm-5.48,28.52-0.9,3.91-1.4,3.71-3.52,7.21c-10,21-13.86,31.24-35.49,41.13l-7.23,3.53-7.13,3.62c-8.29,5.09-25.08,15.76-33.74,16.86l-2,.18h-4l-4-.45-3.9-1c-16.88-6.63-23-19.29-44.68-26l-7.12-3.6-3.52-2c-9.34-4.93-16.27-19.86-19.64-29.37l-2.41-7.68-1-3.8-0.91-3.88,6.94,0.09,6.86,0.18H222l3.43-.09,3.43-.56,3.32-.82,2.68,3.14,3.15,2.68c32.22,19.79,38.85-10.58,56.91-11.3h3.62l3.43,0.56c17.24,6.24,27.44,30.56,56.25,8.34l2.78-3,2.33-3.34,12,1.56,3.05,0.28,3.05,0.09ZM395,219l1.11-5.85,0.83-5.92c4.91-71.48-18.86-102.71-90.74-111.89l-5.83-.85L294.47,94c-62.71-3.68-107.94,40.63-96.38,103.83l0.74,11.86,0.93,11.77,4,0.1,4.07-.1,4-.18h4l8,0.45,8.06,0.65,2.5-3.05,2.87-2.68c27.16-18.21,35.48,2.73,53.67,7.5l3.89,0.54h4c19.73-.78,27.84-28,57.46-8.13l2.87,2.68,2.5,3,8.34-1.3,8.35-1,8.34-.66Zm84.89,191.38L478.63,401c-11.92-61.59-36-76.45-95.37-90l-11.39-2,2.68-3.05c8-9.74,18.93-32.34,22.81-44.46l0.74-3.82,1.47-.19,0.67-.35,0.55-.46,0.46-.58,0.26-.72,0.47-1.58v-1.48l-0.09-.74-0.27-.65-0.37-.65-0.55-.48L399.4,249l0.82-4.64,1.12-4.72,2.12-10,1.85-.36,0.93-.37,0.73-.47,0.67-.63,0.45-.67,0.18-.92,0.18-.91v-2l-0.27-1.94-0.36-.84-0.57-.54-0.74-.38-0.93-.19,1.11-6.19,0.47-3.22c6.48-81.88-24.52-117.07-106.3-125.9l-3.35-.38-3.33-.28c-68.4-3.65-118.66,46.11-106.49,115.16l0.74,11.77,0.93,12-1.67.63-0.65.46-0.56.57-0.37.73-0.28.82-0.09,1.76,0.09,0.93L186,229.2l0.37,0.72,0.56,0.56,0.74,0.45,0.83,0.31,1.77,0.26,2.59,20.39-0.82.26-0.74.56-0.57.65-0.55.75-0.65,1.58-0.09,1.74,0.37,1.87,0.37,0.85,0.55,0.54L191.6,261l0.83,0.09,1.94-.09L196,268.2c3.83,14.61,12.6,36.56,26.5,44.93l1.76,1-11.4,2.12-11.22,2.6c-21.16,5.91-44.5,12.1-60,28.8l-4.45,4.83-3.9,5.26-3.52,5.56-3,5.84-3.81,8.7-3.33,8.89L117,395.83l-2.32,9.28V407l0.65,1.76,2.22,3.34,2.5,3.17,2.87,2.77,1.58-9.17,2.14-9.1,2.69-9,3.24-8.71c5-14,13-25.82,25-34.64l4.73-3.17,5-2.77,5.2-2.32,11-4.07,11.3-3.61,11.4-3.05,11.49-2.6,11.67-2,11.68-1.39,3.52,1.39,1.57,0.63,1.39,0.75,2.78,1.39c18,12.33,27.45,25,51.91,20.84l2.5-.63,2.52-.84,2.31-.85,2.13-1,4.07-2.13a98.74,98.74,0,0,1,12.33-6.57l1.3-.74,0.65-.38a51.88,51.88,0,0,1,8.89-5.55l3.26-1.67,6.94-3.24,3.61-1.86,3.71-1.94,3.71-2.13,11.12,1.58,11,2,11,2.59,10.75,3.17,10.66,3.63,5.57,2.31,5.28,2.69,5.11,3.12a75.73,75.73,0,0,1,28.9,37.08l3.52,10.47,3.07,10.63,2.6,10.76,2,10.85,3.77-1.59L478,415l1.21-1.3,0.64-1.66ZM200.68,230.49l6.67-.47,6.67-.27,3.34,0.09,3.42,0.3,6.59,0.91-0.94,3.82-0.46,3.8,0.09,3.89,0.46,3.79,1,3.79-2.95.75-3,.36-6.12.3H209.4l-6.12-.48Zm84.06-102.82,2.22-.18,2.5-.28,5.37-.84,5.29-1.2,2.68-.46,1.39-.17,1.21-.58,0.56-.46,0.36-.54,0.09-.75c-0.1-2-1.62-2.46-3.33-2.86l-1.39-.19h-7.51l-0.56-.27-0.37-.67,0.09-.28,0.19-.26,1.38-.47,2.42-1.12,1.39-.36,0.65-.09,0.55-.46,0.28-.56-0.09-.76-0.47-.54-0.55-.35-0.74-.21-0.74.09H297l-0.66-.18-0.92-.91-0.56-.38-0.65-.18-5.56-.27-5.38-.09-2.78.09c-5.26-.68-11.65-0.6-16.22-1.48l-1.2-.65-0.56-.29-0.75-.09-0.28.19-0.08.36,0.08,0.75,0.66,1.12,1.21,2.5,0.46,0.45,0.56,0.37,1.29,0.38c6.52,1.21,13.08,4.29,18.54,4.07l2.78-.09,1.3,0.09,0.37,0.09,0.28,0.2v0.72l-0.46.46-0.65.29-1.39.36-2.51.84-2.68.28h-2.78l-5.48.45-2.59.56-1.3.45-1.21.76-0.28.63,0.19,0.65,0.37,0.65,0.46,0.46,1.12,0.57c4.16,0.52,9.83.55,14.28,0.72h0.36l0.1-.09h0.28Zm-0.66,13.26,6,0.09,6.12-.36,3-.3,3.06-.54c6.38-1.08,11.29-3.52,16.69-6.95l5-3.5,4.92-3.62,2.22-2,2-2.12,2.23-2.14,1.29-1,1.11-1.11,0.29-.56,0.09-.74-0.27-1.48-0.47-3.17-0.28-.63c-1.62-2-2.61-2.54-4,.18l-0.93,1.29-0.93,1.12c-6.22,6.15-13.66,12.5-21.32,16.76l-2.79,1.39-2.78,1.11-3,.85-3,.45-6.12.18h-6l-6.13-.54-6-.85-3-.44-1.48-.37-1.48-.56-1.39-.93-0.46-.56-0.28-.63v-0.74l0.09-.75,0.28-1.57v-0.36l-0.18-.28-0.74-.37-1.39-.73-0.65-.27-0.74-.2-1.49-.27-0.74-.28-0.37.09-0.27.19-0.54.66-0.38.63-0.37,1.48v1.5l0.28,1.48c1.46,3.85,6.63,7.26,10.29,8.59l2.87,0.93,6,1.13,3,0.65,1.48,0.17Zm0.57,168.42,3.24,1,3.34,0.66,3.33,0.27c7.22-.08,18.31,0,24.56-4.45l1.22-1.19,1-1.39,0.54-1.59,0.1-.84-0.1-.82-0.18-.84-0.45-.84L321,299l-0.37-.09-0.84.19-1.57.75-2.7,1.93-1.57.67-1.67.47-3.33.54c-9.81,1.21-20.71,1.29-29.85-2.88l-1.39-.83-0.74-.47-0.84-.18-0.83.18-0.65.57-0.28.73v0.82l0.56,1.68,0.37,0.73,0.56,0.68,1.3,1.11,1.38,1,1.49,0.91,1.48,0.76Zm20.2-37.24-0.84.08-0.83.27c-3.78,2.32-3.66,8.85.37,10.85l0.84,0.18h0.83c4.59-.83,5.28-7.85,1.94-10.47l-0.74-.56-0.74-.27Zm-15.11.72-0.84.1-0.83.28c-3.72,1.91-3.62,9.26.46,10.75l0.74,0.17h0.93c4.54-.75,5-7.83,1.94-10.47l-0.74-.45-0.84-.28ZM36.64,298.58c0,144.79,117.43,262.21,262.22,262.21S561,443.37,561,298.58,443.65,36.44,298.86,36.44,36.64,153.79,36.64,298.58Z" transform="translate(-1.22 -0.94)"/></svg>