<?xml version="1.0" encoding="UTF-8"?>
<svg id="Lager_1" data-name="Lager 1" xmlns="http://www.w3.org/2000/svg" viewBox="0 0 153.09 218.69">
  <defs>
    <style>
      .cls-1 {
        fill: #1a4080;
      }

      .cls-1, .cls-2 {
        fill-rule: evenodd;
      }

      .cls-2 {
        fill: #fff;
      }
    </style>
  </defs>
  <polyline class="cls-2" points="0 218.69 153.09 218.69 153.09 0 0 0 0 218.69"/>
  <path class="cls-1" d="M70.59,24.57c0,3.31,2.68,5.98,5.98,5.98s5.97-2.68,5.97-5.98-2.66-5.97-5.97-5.97-5.98,2.66-5.98,5.97ZM69.02,24.56c0,4.16,3.38,7.54,7.54,7.54s7.54-3.38,7.54-7.54-3.38-7.54-7.54-7.54-7.54,3.38-7.54,7.54ZM66.63,41.7l-12.01,4.06-8.33,13.52c-1.82,2.96-6.26.22-4.44-2.74l8.83-14.32c.32-.52.81-.91,1.38-1.1l14.56-4.92v5.5ZM90.12,59.75v29.57h-2.14l2.19,18.08c.46,6.16-8.19,7.22-9.22,1.12l-2.33-19.21h-4.1l-2.34,19.21c-1.03,6.09-9.68,5.03-9.22-1.12l2.2-18.08h-2.14v-29.57h-10.01v-2.59h10.01l3.61-13.51v-.32l-10.98,3.72-8.03,13.03c-2.91,4.72-9.99.36-7.08-4.36l8.82-14.32c.51-.83,1.29-1.45,2.21-1.76l15.93-5.39c.43-.15.88-.22,1.33-.22h15.46c.45,0,.91.07,1.34.22l15.93,5.39c.92.31,1.7.94,2.21,1.76l8.82,14.32c2.91,4.72-4.17,9.08-7.08,4.36l-8.04-13.03-10.98-3.72v.32l3.62,13.51h10v2.59h-10ZM111.27,56.52l-8.82-14.32c-.38-.56-.75-.86-1.39-1.1l-14.57-4.92v5.5l12.01,4.06,8.33,13.52c1.82,2.96,6.25.21,4.43-2.74ZM83.05,35.59h-12.94v7.76h12.94v-7.76ZM66.73,89.31l-2.22,18.27c-.29,4.1,5.43,4.79,6.14.75l2.31-19.02h-6.23ZM80.19,89.31l2.31,19.02c.69,4.05,6.43,3.36,6.14-.75l-2.22-18.27h-6.23ZM17.68,65.26c0,32.52,26.37,58.89,58.89,58.89s58.87-26.37,58.87-58.89S109.08,6.39,76.57,6.39s-58.89,26.35-58.89,58.87Z"/>
  <polyline class="cls-1" points="10.06 133.73 143.06 133.73 143.06 208.97 10.06 208.97 10.06 133.73"/>
  <path class="cls-2" d="M49.28,150.25l1.8-5.67,1.69,5.67h-3.48ZM105.44,154.12l.11.96h2.52l-.02-13.11h-2.54v4.76c-.46-.74-1.52-1.37-2.72-1.37-2.11,0-4.18,1.76-4.18,5.05,0,1.5.48,2.74,1.22,3.61.78.95,1.74,1.37,2.87,1.37s2.07-.45,2.74-1.28ZM103.44,153.21c-1.18,0-2.24-.85-2.24-2.85,0-2.24,1.09-3.04,2.15-3.04s2.13.8,2.13,2.96-1.09,2.91-2.04,2.93ZM88.39,155.08h2.54l.02-5.28c0-.74.15-1.09.35-1.39.33-.48.93-.8,1.54-.8.87,0,1.5.57,1.5,1.63v5.83h2.54v-6.65c0-1.76-1.3-3.11-3.26-3.11-1.35,0-2.3.72-2.61,1.46l-.11-1.11-2.48-.02-.02,9.42ZM83.67,154.01c.06.37.19.78.33,1.07h2.57c-.15-.13-.41-.56-.41-1.33l-.02-4.81c-.04-.83-.09-1.07-.15-1.28-.37-1.3-1.43-2.33-3.98-2.33-2.94,0-4.09,1.5-4.09,3.15l2.22.04c.11-.63.2-.76.41-.95.22-.22.7-.44,1.46-.44,1.19,0,1.65.63,1.65,1.07s-.3.76-.98.89l-2.54.44c-1.91.33-2.79,1.57-2.79,2.82,0,1.63,1.26,3.02,3.54,3.02,1.57,0,2.43-.63,2.78-1.35ZM83.69,150.06l-.02,1.41c-.05,1.18-.85,2-2.24,2-1.05,0-1.57-.63-1.57-1.19,0-.44.22-1.02,1.72-1.39l1.11-.3c.41-.09.76-.3,1-.54ZM82.17,144.53l2.54.02.02-2.57h-2.55v2.55ZM78.85,144.53h2.54l.02-2.57h-2.54l-.02,2.57ZM71.23,155.08h2.52l3.2-9.42h-2.55l-1.89,6.2-1.87-6.18h-2.57l3.17,9.41ZM58.38,155.08h2.54l.02-5.28c0-.74.15-1.09.35-1.39.33-.48.93-.8,1.54-.8.87,0,1.5.57,1.5,1.63v5.83h2.54v-6.65c0-1.76-1.3-3.11-3.26-3.11-1.35,0-2.3.72-2.61,1.46l-.11-1.11-2.48-.02-.02,9.42ZM45.01,155.08h2.74l.89-2.76h4.74l.85,2.76h2.78l-4.5-13.11h-2.91l-4.59,13.11Z"/>
  <path class="cls-2" d="M14.4,172.96c.03,1.78,1.42,3.48,4.09,3.48s3.92-1.57,3.92-3.26c0-.59-.21-1.18-.55-1.65-.33-.45-.74-.78-1.78-1.04l-2.5-.63c-.51-.15-.74-.5-.74-.83,0-.37.31-.94,1.46-.94,1.23,0,1.78.7,1.8,1.46l2.07-.04c-.03-.95-.51-1.89-1.25-2.48-.51-.39-1.32-.72-2.58-.72-2.52,0-3.61,1.46-3.61,3.07,0,.76.19,1.3.6,1.78.31.35.68.65,1.66.87l1.88.46c1.11.26,1.23.63,1.23,1.07,0,.41-.36,1.06-1.64,1.06s-1.87-.7-1.94-1.68l-2.12.02ZM132.96,172.09l6.46.02c0-2.8-1.16-5.76-4.42-5.76s-4.37,2.87-4.37,5.02c0,3.13,1.92,5.07,4.35,5.07s3.92-1.42,4.28-3.07l-2.35-.17c-.46.87-1.06,1.22-1.82,1.22-1.11,0-2.02-.81-2.14-2.33ZM133.04,170.26c.15-1.15,1.03-1.93,1.92-1.93.96,0,1.78.7,1.94,1.93h-3.85ZM126.55,175.15l.1.96h2.33l-.02-13.11h-2.34v4.76c-.43-.74-1.4-1.37-2.52-1.37-1.95,0-3.87,1.76-3.87,5.06,0,1.5.45,2.74,1.13,3.61.72.94,1.61,1.37,2.65,1.37s1.92-.44,2.53-1.28ZM124.71,174.24c-1.1,0-2.07-.85-2.07-2.85,0-2.24,1.01-3.04,1.99-3.04s1.97.8,1.97,2.96-1.01,2.91-1.88,2.92ZM116.21,175.04c.05.37.17.78.31,1.07h2.38c-.14-.13-.38-.55-.38-1.33l-.02-4.81c-.02-.83-.08-1.07-.14-1.28-.34-1.3-1.32-2.33-3.68-2.33-2.72,0-3.78,1.5-3.78,3.15l2.05.04c.1-.63.19-.76.38-.94.21-.22.65-.45,1.35-.45,1.1,0,1.52.63,1.52,1.07s-.26.76-.91.89l-2.35.44c-1.76.33-2.58,1.57-2.58,2.82,0,1.63,1.16,3.02,3.27,3.02,1.46,0,2.24-.63,2.57-1.35ZM116.23,171.09l-.02,1.41c-.05,1.18-.79,2-2.07,2-.98,0-1.46-.63-1.46-1.18,0-.44.21-1.02,1.59-1.39l1.03-.3c.38-.09.7-.3.92-.54ZM114.83,165.56l2.35.02.02-2.57h-2.36v2.56ZM111.76,165.56h2.34l.02-2.57h-2.34l-.02,2.57ZM106.63,176.11h2.34v-13.11h-2.33l-.02,13.11ZM96.85,176.11h2.34v-3.09l.98-1.05,2.4,4.15h2.88l-3.59-5.79,3.13-3.63h-2.77l-3.01,3.59-.02-7.28h-2.33v13.11ZM90.52,176.11h2.34v-4.18c0-1.41.33-2.06.7-2.5.45-.5.96-.74,1.59-.74.14,0,.27.02.41.04v-2.24c-.12-.02-.31-.06-.5-.06-1.03,0-1.9.7-2.17,1.68l-.07-1.43h-2.31v9.42ZM84.16,176.48c2.81,0,4.69-2.04,4.69-5.11s-1.92-5.05-4.62-5.05-4.59,2.04-4.59,5.05,1.95,5.11,4.52,5.11ZM84.3,174.5c-1.22,0-2.26-.94-2.26-3.13s1.04-3.07,2.24-3.07c1.13,0,2.17.85,2.17,3.15s-1.11,3.05-2.16,3.05ZM84.63,165.56h2.35l-.02-2.56-2.33-.02v2.57ZM81.56,165.56h2.34v-2.56l-2.34-.02v2.57ZM74.58,176.11h2.33v-7.74h1.7v-1.69h-1.7v-.19c0-.85.14-1.09.29-1.26.19-.22.45-.39,1.01-.37h.39v-1.87h-1.34c-.77,0-2.91.15-2.69,3.68h-1.27v1.69h1.27v7.74ZM63.81,172.96c.03,1.78,1.42,3.48,4.09,3.48s3.92-1.57,3.92-3.26c0-.59-.21-1.18-.55-1.65-.32-.45-.74-.78-1.78-1.04l-2.5-.63c-.51-.15-.74-.5-.74-.83,0-.37.31-.94,1.45-.94,1.23,0,1.78.7,1.8,1.46l2.07-.04c-.03-.95-.51-1.89-1.25-2.48-.51-.39-1.32-.72-2.59-.72-2.52,0-3.61,1.46-3.61,3.07,0,.76.19,1.3.6,1.78.31.35.69.65,1.66.87l1.88.46c1.11.26,1.23.63,1.23,1.07,0,.41-.36,1.06-1.64,1.06s-1.87-.7-1.93-1.68l-2.12.02ZM59.73,175.15l.1.96h2.33l-.02-13.11h-2.35v4.76c-.43-.74-1.4-1.37-2.52-1.37-1.95,0-3.87,1.76-3.87,5.06,0,1.5.45,2.74,1.13,3.61.72.94,1.61,1.37,2.65,1.37s1.92-.44,2.53-1.28ZM57.88,174.24c-1.1,0-2.07-.85-2.07-2.85,0-2.24,1.01-3.04,1.99-3.04s1.97.8,1.97,2.96-1.01,2.91-1.88,2.92ZM49.34,175.15l.1.96h2.33l-.02-13.11h-2.35v4.76c-.43-.74-1.4-1.37-2.52-1.37-1.95,0-3.87,1.76-3.87,5.06,0,1.5.45,2.74,1.13,3.61.72.94,1.61,1.37,2.65,1.37s1.92-.44,2.53-1.28ZM47.49,174.24c-1.09,0-2.07-.85-2.07-2.85,0-2.24,1.01-3.04,1.99-3.04s1.97.8,1.97,2.96-1.01,2.91-1.88,2.92ZM34.5,177.19v1.98h1.73c2.05,0,2.53-1.74,2.72-2.31l3.3-10.17h-2.48l-1.75,5.83-1.83-5.83h-2.52l2.69,7.94c.19.52.24.87.24,1.3,0,.76-.38,1.28-1.4,1.26h-.7ZM24.14,176.11h2.34v-3.09l.98-1.05,2.4,4.15h2.88l-3.59-5.79,3.13-3.63h-2.77l-3.01,3.59-.02-7.28h-2.33v13.11Z"/>
</svg>