<svg xmlns="http://www.w3.org/2000/svg" viewBox="0 0 595.28 850.36"><defs><style>.a{fill:#e5e8eb;}.a,.b,.c{fill-rule:evenodd;}.b{fill:#000100;}.c{fill:#1e3b72;}</style></defs><title>M026_C</title><polyline class="a" points="0 850.36 595.28 850.36 595.28 0 0 0 0 850.36"/><path class="b" d="M192.76,626.08l7-22,6.55,22H192.76Zm218.37,15,0.43,3.74h9.79l-0.07-51h-9.86v18.5c-1.8-2.88-5.9-5.33-10.58-5.33-8.21,0-16.27,6.84-16.27,19.66a21.39,21.39,0,0,0,4.75,14,13.78,13.78,0,0,0,11.16,5.33A13.06,13.06,0,0,0,411.12,641.12Zm-7.78-3.53c-4.61,0-8.71-3.31-8.71-11.09,0-8.71,4.25-11.81,8.35-11.81s8.28,3.1,8.28,11.52C411.27,634.28,407,637.52,403.34,637.6Zm-58.53,7.27h9.87l0.07-20.52c0-2.88.58-4.25,1.37-5.4a7.4,7.4,0,0,1,6-3.1c3.38,0,5.83,2.23,5.83,6.33v22.68h9.86V619c0-6.84-5-12.1-12.67-12.1-5.25,0-8.93,2.81-10.15,5.69l-0.43-4.32-9.65-.07Zm-18.36-4.18a15,15,0,0,0,1.3,4.18h10c-0.58-.51-1.58-2.16-1.58-5.18L336.1,621a20.58,20.58,0,0,0-.58-5c-1.44-5-5.54-9.07-15.48-9.07-11.45,0-15.91,5.83-15.91,12.24l8.64,0.14c0.44-2.45.79-3,1.59-3.67s2.73-1.73,5.69-1.73c4.61,0,6.4,2.45,6.4,4.18s-1.15,3-3.81,3.46l-9.87,1.73c-7.42,1.29-10.87,6.12-10.87,10.94,0,6.34,4.9,11.74,13.75,11.74C321.77,645.95,325.09,643.5,326.45,640.69Zm0.07-15.34-0.07,5.47c-0.21,4.61-3.31,7.78-8.71,7.78-4.1,0-6.12-2.45-6.12-4.61,0-1.73.86-4,6.7-5.4l4.32-1.15A8.13,8.13,0,0,0,326.53,625.36Zm-5.9-21.53,9.86,0.07,0.07-10h-9.93v9.93Zm-12.89,0h9.87l0.07-10h-9.86Zm-29.66,41h9.79l12.46-36.65h-9.93L283,632.34l-7.27-24h-10Zm-50,0H238L238,624.35c0-2.88.58-4.25,1.37-5.4a7.4,7.4,0,0,1,6-3.1c3.38,0,5.83,2.23,5.83,6.33v22.68h9.86V619c0-6.84-5-12.1-12.67-12.1-5.25,0-8.93,2.81-10.15,5.69l-0.43-4.32-9.65-.07Zm-52,0h10.65l3.46-10.73h18.43L212,644.87h10.8l-17.5-51H194Z" transform="translate(-1.11 -0.95)"/><path class="b" d="M35.87,719.71c0.14,6.91,6,13.54,17.21,13.54,11.45,0,16.49-6.12,16.49-12.67a10.44,10.44,0,0,0-2.31-6.41c-1.37-1.73-3.09-3-7.49-4l-10.51-2.45c-2.16-.58-3.1-1.94-3.1-3.24s1.29-3.67,6.12-3.67c5.18,0,7.49,2.73,7.56,5.68l8.71-.14a13,13,0,0,0-5.25-9.65c-2.16-1.51-5.54-2.81-10.87-2.81-10.58,0-15.19,5.69-15.19,12a9.41,9.41,0,0,0,2.52,6.91c1.29,1.37,2.88,2.52,7,3.38l7.92,1.8c4.68,1,5.18,2.45,5.18,4.18s-1.51,4.11-6.91,4.11c-5.18,0-7.85-2.74-8.13-6.55Zm498.58-3.38,27.14,0.07c0-10.87-4.9-22.39-18.57-22.39-14,0-18.36,11.16-18.36,19.51,0,12.17,8.06,19.73,18.29,19.73s16.49-5.54,18-11.95l-9.86-.65c-1.94,3.38-4.46,4.75-7.63,4.75C538.77,725.4,534.95,722.23,534.45,716.33Zm0.36-7.13a8.5,8.5,0,0,1,8.06-7.49c4,0,7.49,2.74,8.13,7.49H534.8Zm-27.29,19L508,732h9.79l-0.07-51h-9.86v18.5c-1.8-2.88-5.9-5.33-10.58-5.33C489,694.15,481,701,481,713.81a21.39,21.39,0,0,0,4.75,14,13.78,13.78,0,0,0,11.16,5.33A13.06,13.06,0,0,0,507.52,728.21Zm-7.78-3.53c-4.61,0-8.71-3.31-8.71-11.09,0-8.71,4.25-11.81,8.35-11.81s8.28,3.1,8.28,11.52C507.66,721.37,503.41,724.61,499.74,724.68ZM464,727.77a14.87,14.87,0,0,0,1.3,4.18h10c-0.58-.51-1.58-2.16-1.58-5.18L473.68,708a17,17,0,0,0-.58-5c-1.44-5-5.54-9.07-15.48-9.07-11.45,0-15.91,5.83-15.91,12.24l8.64,0.14c0.43-2.45.79-3,1.59-3.67s2.73-1.73,5.69-1.73c4.61,0,6.41,2.45,6.41,4.18s-1.08,3-3.81,3.46l-9.87,1.73c-7.42,1.29-10.87,6.12-10.87,10.95,0,6.33,4.9,11.74,13.75,11.74C459.35,733,462.67,730.58,464,727.77Zm0.07-15.34L464,717.91c-0.21,4.61-3.31,7.78-8.71,7.78-4.1,0-6.12-2.45-6.12-4.61,0-1.73.86-4,6.7-5.4l4.32-1.15A8.13,8.13,0,0,0,464.11,712.44Zm-5.9-21.53,9.86,0.07,0.07-10H458.2v9.93Zm-12.89,0h9.86l0.07-10h-9.86Zm-21.6,41h9.86V681h-9.79Zm-41.11,0h9.87v-12l4.1-4.11L406.65,732h12.1l-15.12-22.54L416.8,695.3H405.14l-12.67,14L392.4,681H382.6v51ZM356,732h9.86V715.68c0-5.47,1.37-8,3-9.72a8.83,8.83,0,0,1,6.7-2.88,14.34,14.34,0,0,1,1.73.14v-8.71a14,14,0,0,0-2.09-.22,9.45,9.45,0,0,0-9.14,6.55l-0.29-5.54H356V732Zm-26.71,1.44c11.81,0,19.73-7.92,19.73-19.87,0-11.74-8.06-19.66-19.44-19.66-11.09,0-19.29,7.92-19.29,19.66C310.25,725.47,318.45,733.39,329.25,733.39Zm0.58-7.7c-5.11,0-9.5-3.67-9.5-12.17,0-8.21,4.39-12,9.43-12,4.75,0,9.14,3.31,9.14,12.24C338.9,722.45,334.22,725.69,329.83,725.69Zm1.37-34.77h9.86L341,681l-9.79-.07v10Zm-12.89,0h9.87V681l-9.87-.07v10Zm-29.37,41h9.79v-30.1h7.13V695.3h-7.13v-0.72c0-3.31.58-4.25,1.22-4.9,0.79-.86,1.87-1.51,4.25-1.44h1.66V681h-5.62c-3.24,0-12.24.58-11.3,14.32h-5.33v6.55h5.33V732Zm-45.28-12.24c0.14,6.91,6,13.54,17.21,13.54,11.45,0,16.49-6.12,16.49-12.67a10.41,10.41,0,0,0-2.31-6.41c-1.37-1.73-3.1-3-7.49-4L257,707.69c-2.16-.58-3.1-1.94-3.1-3.24s1.3-3.67,6.12-3.67c5.18,0,7.49,2.73,7.56,5.68l8.71-.14a13,13,0,0,0-5.26-9.65c-2.16-1.51-5.54-2.81-10.87-2.81-10.58,0-15.19,5.69-15.19,12a9.41,9.41,0,0,0,2.52,6.91c1.3,1.37,2.88,2.52,7,3.38l7.92,1.8c4.68,1,5.18,2.45,5.18,4.18s-1.51,4.11-6.91,4.11c-5.18,0-7.85-2.74-8.13-6.55Zm-17.14,8.5,0.43,3.74h9.79l-0.07-51H226.8v18.5c-1.8-2.88-5.9-5.33-10.58-5.33-8.21,0-16.27,6.84-16.27,19.66a21.39,21.39,0,0,0,4.75,14,13.78,13.78,0,0,0,11.16,5.33A13.06,13.06,0,0,0,226.52,728.21Zm-7.78-3.53c-4.61,0-8.71-3.31-8.71-11.09,0-8.71,4.25-11.81,8.35-11.81s8.28,3.1,8.28,11.52C226.66,721.37,222.41,724.61,218.74,724.68Zm-35.93,3.53,0.43,3.74H193L193,681H183.1v18.5c-1.8-2.88-5.9-5.33-10.58-5.33-8.21,0-16.27,6.84-16.27,19.66a21.39,21.39,0,0,0,4.76,14,13.78,13.78,0,0,0,11.16,5.33A13.07,13.07,0,0,0,182.81,728.21ZM175,724.68c-4.61,0-8.71-3.31-8.71-11.09,0-8.71,4.25-11.81,8.35-11.81s8.28,3.1,8.28,11.52C183,721.37,178.71,724.61,175,724.68Zm-54.64,11.45v7.7h7.27c8.64,0,10.65-6.77,11.45-9L153,695.3H142.56L135.22,718l-7.7-22.68H116.93l11.3,30.89a12.5,12.5,0,0,1,1,5c0,3-1.58,5-5.9,4.9h-3ZM76.83,732H86.7v-12l4.11-4.11L100.88,732H113L97.85,709.41,111,695.3H99.37l-12.67,14L86.63,681H76.83v51Z" transform="translate(-1.11 -0.95)"/><path class="c" d="M272.12,117.34a26.6,26.6,0,1,0,26.64-26.57A26.63,26.63,0,0,0,272.12,117.34Zm-7,0A33.57,33.57,0,1,0,298.68,83.8,33.6,33.6,0,0,0,265.12,117.36Zm-10.59,76.33-53.46,18.07L164,272c-8.13,13.19-27.89,1-19.76-12.19L183.52,196a11.61,11.61,0,0,1,6.16-4.91l64.85-21.92v24.5ZM359.1,274V405.7h-9.5l9.76,80.52c2,27.43-36.47,32.13-41,5L307.92,405.7H289.66l-10.4,85.53c-4.58,27.13-43.1,22.41-41-5L248,405.7h-9.52V274H193.9V262.49h44.58l16.07-60.14v-1.4L205.67,217.5l-35.78,58c-12.95,21-44.48,1.6-31.53-19.42l39.27-63.75a18.56,18.56,0,0,1,9.85-7.85l70.94-24a18.48,18.48,0,0,1,5.94-1h68.84a18.55,18.55,0,0,1,6,1l70.93,24a18.56,18.56,0,0,1,9.86,7.85l39.27,63.75c13,21-18.58,40.41-31.54,19.42l-35.81-58L343,200.94v1.4l16.11,60.14h44.55V274H359.1Zm94.21-14.31L414,195.95a11.71,11.71,0,0,0-6.18-4.91L343,169.12v24.5l53.49,18.07,37.1,60.2C441.7,285.08,461.41,272.85,453.31,259.7ZM327.58,166.45H269.94V201h57.63V166.45ZM254.92,405.67L245.05,487c-1.29,18.26,24.2,21.35,27.33,3.32l10.28-84.69H254.92Zm59.94,0,10.29,84.69c3.06,18,28.61,14.94,27.33-3.32l-9.89-81.37H314.86ZM36.54,298.59C36.54,443.37,154,560.8,298.75,560.8S560.89,443.37,560.89,298.59,443.54,36.44,298.75,36.44,36.54,153.8,36.54,298.59Z" transform="translate(-1.11 -0.95)"/></svg>