<svg xmlns="http://www.w3.org/2000/svg" viewBox="0 0 595.28 850.37"><defs><style>.a{fill:#e5e8eb;}.a,.b,.c{fill-rule:evenodd;}.b{fill:#000100;}.c{fill:#1e3b72;}</style></defs><title>M027_C</title><polyline class="a" points="0 850.37 595.28 850.37 595.28 0 0 0 0 850.37"/><path class="b" d="M115.32,644.87h10.59V626.3l5.26-5.48,16.41,24.05H160.4l-21.81-30.82,19.29-20.16-13.1.07L125.91,614.2,125.77,594l-10.44-.07v51Zm355.53-4.18a10.31,10.31,0,0,0,1.15,4.18h10.08a5.48,5.48,0,0,1-1.66-3.82V621c0-8.78-4.53-14-16.49-14-11.09,0-15.69,6-15.48,12.24l8.71,0.14c0-2.74,2-5.33,7.05-5.33,4.83,0,6.41,2.38,6.41,4.11,0,1.51-.93,2.88-3.6,3.38l-5.62.94c-8.06,1.44-10.22,3-11.81,4.32a10.19,10.19,0,0,0-3.39,7.63c0,6.05,4.76,11.52,14,11.52C465.59,645.88,468.76,644.08,470.85,640.69Zm0.07-15.12-0.07,4.61c0,5.19-3.24,8.43-8.86,8.43-4.1,0-6.12-2.45-6.12-4.68,0-1.73.58-3.67,6.84-5.4l4.25-1.15A12.71,12.71,0,0,0,470.92,625.57Zm-47.59,19.3h9.86l0.07-16.27c0-5.47,1.29-8,3-9.72a8.63,8.63,0,0,1,6.7-2.88,12.6,12.6,0,0,1,1.66.14l0.07-8.71a14.66,14.66,0,0,0-2.09-.21,9.54,9.54,0,0,0-9.22,6.55l-0.29-5.55H423.4ZM389.2,629.25l27.22,0.07c0-10.87-5-22.39-18.58-22.39-14,0-18.43,11.16-18.43,19.51,0,12.17,8.06,19.73,18.36,19.73s16.49-5.54,18-12l-9.93-.65c-1.87,3.38-4.46,4.75-7.63,4.75C393.52,638.32,389.71,635.15,389.2,629.25Zm0.43-7.13a8.38,8.38,0,0,1,8-7.49c4,0,7.49,2.74,8.14,7.49H389.64Zm-27,22.75h9.86v-51h-9.79Zm-17.5,0H355v-51h-9.79Zm-26.2,1.36c11.16,0,19.3-7.85,19.3-19.8,0-11.59-8-19.59-19.37-19.59-11.09,0-19.22,7.92-19.22,19.51C299.64,638.46,307.78,646.24,318.94,646.24Zm-0.07-7.7c-4.68,0-9.14-3.6-9.14-11.74,0-8.78,4.39-12.24,9.22-12.24s9.22,3.53,9.22,11.88C328.15,635,323.69,638.53,318.86,638.53Zm-43.63,6.34h9.86l0.07-16.27c0-5.47,1.29-8,3-9.72a8.63,8.63,0,0,1,6.7-2.88,12.56,12.56,0,0,1,1.66.14l0.07-8.71a14.64,14.64,0,0,0-2.09-.21,9.55,9.55,0,0,0-9.22,6.55L285,608.22H275.3Zm-7.2,0v-7.56h-3.67a3.7,3.7,0,0,1-2.88-1.37,5.86,5.86,0,0,1-.43-2.88V614.92h6.62v-6.7H261L261,596.63h-9.79v11.59H246V615l5.18-.07v18.94c0,8.28,3.39,11,8.86,11h8Zm-60.84,0h9.87l0.07-20.52c0-2.88.58-4.25,1.37-5.4a7.4,7.4,0,0,1,6-3.1c3.38,0,5.9,2.23,5.9,6.33l-0.07,22.68h9.86V619c0-6.84-5-12.1-12.6-12.1-5.26,0-8.93,2.81-10.22,5.69L217,608.3l-9.72-.07ZM181,646.24c11.16,0,19.3-7.85,19.3-19.8,0-11.59-8-19.59-19.37-19.59-11.09,0-19.22,7.92-19.22,19.51C161.69,638.46,169.83,646.24,181,646.24Zm-0.07-7.7c-4.68,0-9.15-3.6-9.15-11.74,0-8.78,4.39-12.24,9.22-12.24s9.22,3.53,9.22,11.88C190.2,635,185.74,638.53,180.92,638.53Z" transform="translate(-1.08 -0.94)"/><path class="b" d="M198.26,719.71c0.21,6.91,6,13.54,17.28,13.54S232,727.13,232,720.58a10.36,10.36,0,0,0-2.23-6.41c-1.37-1.73-3.17-3-7.49-4l-10.51-2.45c-2.23-.58-3.09-1.94-3.09-3.24s1.29-3.67,6-3.67c5.26,0,7.56,2.74,7.63,5.69l8.71-.14a13.23,13.23,0,0,0-5.25-9.65c-2.16-1.51-5.55-2.81-10.95-2.81-10.51,0-15.19,5.69-15.19,12a9.72,9.72,0,0,0,2.52,6.91c1.37,1.37,3,2.52,7.06,3.38l7.92,1.8c4.61,1,5.18,2.45,5.18,4.18s-1.51,4.1-7,4.1c-5.18,0-7.78-2.73-8.06-6.55Zm190.65,8.5,0.43,3.74h9.72V681h-9.93v18.5c-1.73-2.88-5.9-5.33-10.58-5.33-8.13,0-16.27,6.84-16.27,19.66a21.41,21.41,0,0,0,4.75,14,13.88,13.88,0,0,0,11.16,5.33A13.2,13.2,0,0,0,388.91,728.21Zm-7.77-3.53c-4.68,0-8.71-3.31-8.71-11.09,0-8.71,4.25-11.81,8.28-11.81s8.35,3.1,8.35,11.52C389.05,721.37,384.81,724.61,381.14,724.68Zm-35.93,3.53,0.43,3.74h9.72V681h-9.93v18.5c-1.73-2.88-5.91-5.33-10.58-5.33-8.13,0-16.27,6.84-16.27,19.66a21.41,21.41,0,0,0,4.75,14,13.88,13.88,0,0,0,11.16,5.33A13.2,13.2,0,0,0,345.21,728.21Zm-7.78-3.53c-4.68,0-8.71-3.31-8.71-11.09,0-8.71,4.25-11.81,8.28-11.81s8.35,3.1,8.35,11.52C345.35,721.37,341.1,724.61,337.43,724.68Zm-54.57,11.45v7.7h7.27c8.57,0,10.51-6.77,11.3-9l14-39.53H304.89L297.69,718,290,695.3H279.33l11.38,30.89a13.94,13.94,0,0,1,1,5c0,3-1.66,5-5.9,4.9h-3ZM239.3,732h9.86l-0.07-12,4.18-4.11L263.35,732h12l-15-22.54,13.1-14.11H261.83l-12.67,14L249.09,681h-9.87Z" transform="translate(-1.08 -0.94)"/><path class="c" d="M351.83,385.23a60,60,0,0,0,41.94-17.12V356.88a52.83,52.83,0,0,1-41.94,20.9v7.46Zm0-113.17A52.81,52.81,0,0,1,393.77,293V281.7a60.07,60.07,0,0,0-41.94-17.09v7.46ZM253,224a39.07,39.07,0,0,1,11.21,21.39H269a44,44,0,0,0-16-27.62V224Zm0,62.35A43.78,43.78,0,0,0,269.46,253h-4.73A39.16,39.16,0,0,1,253,280.08v6.3Zm-17.46,8.5a43.73,43.73,0,0,0,10-3.64v-5.38a39.18,39.18,0,0,1-41.9-1.33v5.62a43.5,43.5,0,0,0,11.95,4.72h20Zm-39.37-17a39.05,39.05,0,0,1-9.72-24.93H181.7a43.77,43.77,0,0,0,14.45,31.72v-6.79Zm-9.24-32.45a39,39,0,0,1,9.17-19.21v-6.72a44,44,0,0,0-14,25.92h4.78Zm16.67-25.78a39.28,39.28,0,0,1,41.9-1.33V213a43.88,43.88,0,0,0-41.9,1.09v5.58Zm41.9,33.29h-41.9V275a31.75,31.75,0,0,0,41.9,1.77V252.93Zm-49.36,98.8H154.19v41.91h41.93V351.72ZM154.19,196h41.93V154.09H154.19V196ZM245.5,393.63H203.61V351.72H245.5v41.91Zm0,7.5H203.61v41.91H245.5V401.14ZM253,443.05h41.89V401.14H253v41.91Zm91.32-247h-41.9V154.09h41.9V196Zm98.82-41.93H401.22V196h41.94V154.09ZM393.74,196H351.81V154.09h41.94V196ZM154.19,401.14h41.93v41.91H154.19V401.14Zm148.25-98.81h1.44q-0.78,1.64-1.44,3.34v-3.34Zm12.3,41.93a41.63,41.63,0,0,1,1.95-41.94h27.65v41.94h-29.6Zm73.78,0a41.64,41.64,0,0,0-2-41.93H351.83v41.93h36.7Zm12.7-98.85h41.94V203.51H401.22v41.91ZM146.71,450.52H450.64V146.6H146.71V450.52Zm254.51-49.38h41.94v41.91H401.22V401.14Zm-106.31-247H253V196h41.89V154.09ZM235.9,196l-2.35-9.55H217.63L215.27,196H203.58V154.08h41.89V196H235.9Zm-32.32,7.49h9.83L213,205l-2.75.86-2.69,1L205,208l-1.37-1v-3.46Zm41.95,0h-7.75l0.37,1.49,2.76,0.86,2.72,1,1.91,0.82v-4.14Zm0,23.85a31.67,31.67,0,0,0-41.9,1.77v16.25h41.9v-18Zm7.49,18h3.6a31.61,31.61,0,0,0-3.6-9.28v9.27Zm38.05,0-2.22-12.59-19.06-1.31-1.31-2.57L267,226.49l-1.57-2.41,8.41-17.14-4.07-3.43H294.9v41.91H291ZM253,268a31.47,31.47,0,0,0,4.29-15.1H253V268Zm-7.49,46.58-4.93,1.8-9.46-14.08h-11l-9.41,14.08-7.07-2.58v30.44h41.89V314.61Zm-49.36-3.51-0.42-.15,0.42-3.85v-4.76H154.19v41.94h41.93V311.09Zm0-58.14h-2.26a31.54,31.54,0,0,0,2.26,11v-11Zm0,37.82-0.69-.51-2.19-1.83-2.08-2-18.36,5.33-8-13.79,13.8-13.23L178,261.94l-0.49-2.83-0.36-2.86L169.69,253h-15.5v41.91h41.93v-4.11Zm-41.93-45.36V203.5h27.25l-4.08,3.43,8.43,17.14-1.58,2.41-1.45,2.46-1.28,2.57-19.05,1.31-2.24,12.59h-6Zm42-5.14a31.52,31.52,0,0,0-1.57,5.15h1.56v-5.14ZM344.33,239h-3.46l-1.72,6.37H302.44V203.5h41.89V239Zm19.87,6.37L362.48,239H351.83V203.5h41.94v41.91H364.19Zm-12.37,49.46h28.54a41.49,41.49,0,0,0-28.54-11.51v11.51Zm41.95-39.28-15.61,10.91-3-1.27-3.07-1.14-3.11-.94-2.76-10.22h27.55v2.66Zm49.38,39.28V253H401.22v1.46l13.95,11.69-10.52,22.65,1.75,2.71L408,294.3l0.29,0.57h34.84Zm-39.21,0q-1.27-2.21-2.73-4.3v4.3h2.73Zm39.2,49.39V302.33H434.9l3.27,18.38L415.5,331.27l-0.38,3.23-0.56,3.21-0.73,3.19,3.36,3.37h26Zm-41.93-41.93h6.37a60.6,60.6,0,0,1,1.19,41.93h-7.56v-1a52.94,52.94,0,0,0,0-36.66v-4.3Zm0,91.32h41.94V351.74h-18.5l6.81,6.81-10.81,18.73-19.44-5.21v21.57Zm0-34.42a60.26,60.26,0,0,0,4.45-7.52h-4.45v7.52Zm-10.74,34.42-1.43-16.5,2.61-2,2.09-1.77v20.25h-3.27Zm3.28,7.48V443H351.83V401.13h13.3l5.79,8.25,20.3-7.4-0.07-.85h2.62Zm-41.94-49.39v14.84a41.54,41.54,0,0,0,31.67-14.84H351.83Zm0,37.39h1.49l3.23-.18,3.3,4.7h-8v-4.52Zm-39.64,12-0.07.85,20.33,7.4,5.79-8.25h6.09V443H302.44V401.13h9.75Zm32.13-7.48h-0.84l0.84-1.2v1.2Zm-41.88-41.9v8a60.34,60.34,0,0,0,41.9,25v-7.51a52.84,52.84,0,0,1-38.25-25.53h-3.65Zm17.35,0a41.6,41.6,0,0,0,24.58,14.2v-14.2H319.79Zm-6.94,41.93,1.45-16.5-2.62-2-2.5-2.12-2.36-2.23L302.44,372v21.66h10.41Zm-17.9,0H253V351.74H278.7l-6.81,6.81,10.8,18.73L294.94,374v19.64ZM253,344.27v-32.4l2.51-.92-0.95-8.62h13.83l-3.26,18.38,22.63,10.56,0.42,3.23,0.57,3.21,0.74,3.19-3.36,3.37H253Zm41.87-39.82a60.53,60.53,0,0,0-.38,39.82h0.38V304.44Zm0-23.79-6.77-14.53,6.77-5.67V253H281.56l-7.44,3.29-0.32,2.86-0.53,2.83-0.63,2.82L286.4,278l-8,13.78-18.32-5.33-2.12,2-2.19,1.83L253.48,292l0.32,2.89h41.14V280.65Zm49.4,3.34a41.54,41.54,0,0,0-21.44,10.88h21.44V284Zm0-11.39a52.81,52.81,0,0,0-36.13,22.27h-5.77V290.1a60.34,60.34,0,0,1,41.9-25v7.52Zm-41.9-18.49,1.41-1.18h-1.41v1.18Zm34.66-1.19-2.75,10.22-3.12.94-3,1.14-3,1.27-19.41-13.57H337.1ZM36.51,298.58c0,144.79,117.43,262.21,262.21,262.21S560.86,443.37,560.86,298.58,443.51,36.44,298.72,36.44,36.51,153.79,36.51,298.58Z" transform="translate(-1.08 -0.94)"/></svg>