<?xml version="1.0" encoding="UTF-8"?>
<svg id="Lager_1" data-name="Lager 1" xmlns="http://www.w3.org/2000/svg" viewBox="0 0 153.09 218.69">
  <defs>
    <style>
      .cls-1 {
        fill: #1a4080;
      }

      .cls-1, .cls-2 {
        fill-rule: evenodd;
      }

      .cls-2 {
        fill: #fff;
      }
    </style>
  </defs>
  <polyline class="cls-2" points="0 218.69 153.09 218.69 153.09 0 0 0 0 218.69"/>
  <path class="cls-1" d="M88.47,84.74c3.66,0,6.99-1.47,9.42-3.85v-2.52c-2.16,2.84-5.58,4.68-9.42,4.69v1.68ZM88.47,59.32c3.84.01,7.26,1.86,9.42,4.7v-2.54c-2.43-2.37-5.75-3.83-9.42-3.84v1.68ZM66.26,48.51c1.3,1.27,2.2,2.93,2.52,4.8h1.07c-.38-2.5-1.7-4.69-3.59-6.2v1.4ZM66.26,62.54c2.21-1.77,3.65-4.47,3.7-7.51h-1.06c-.05,2.38-1.05,4.54-2.64,6.09v1.41ZM62.35,64.43c.79-.18,1.53-.46,2.24-.82v-1.21c-1.31.78-2.84,1.22-4.47,1.22-1.83,0-3.53-.56-4.94-1.52v1.26c.83.48,1.73.84,2.68,1.06h4.49ZM53.49,60.61c-1.32-1.5-2.13-3.46-2.18-5.6h-1.06c.05,2.83,1.29,5.36,3.24,7.12v-1.52ZM51.43,53.32c.28-1.64,1.01-3.12,2.06-4.31v-1.51c-1.64,1.49-2.78,3.53-3.13,5.82h1.07ZM55.17,47.54c1.41-.96,3.11-1.51,4.94-1.51,1.63,0,3.16.44,4.47,1.21v-1.2c-1.35-.69-2.87-1.08-4.48-1.08-1.8,0-3.48.48-4.93,1.32v1.25ZM64.58,55.01h-9.41v4.95c1.28,1.23,3.01,1.98,4.93,1.98,1.7,0,3.26-.59,4.48-1.58v-5.35ZM53.49,77.21h-9.42v9.41h9.42v-9.41ZM44.08,42.25h9.42v-9.42h-9.42v9.42ZM64.58,86.62h-9.41v-9.41h9.41v9.41ZM64.58,88.31h-9.41v9.41h9.41v-9.41ZM66.27,97.72h9.41v-9.41h-9.41v9.41ZM86.78,42.25h-9.41v-9.42h9.41v9.42ZM108.97,32.83h-9.42v9.42h9.42v-9.42ZM97.88,42.25h-9.42v-9.42h9.42v9.42ZM44.08,88.31h9.42v9.41h-9.42v-9.41ZM77.38,66.1h.32c-.12.24-.23.49-.32.75v-.75ZM80.12,75.54c-.68-1.3-1.07-2.77-1.07-4.34,0-1.87.55-3.62,1.5-5.08h6.21v9.42h-6.65ZM96.71,75.54c.68-1.3,1.06-2.77,1.06-4.33,0-1.87-.55-3.62-1.5-5.08h-7.8v9.42h8.24ZM99.55,53.34h9.42v-9.41h-9.42v9.41ZM42.4,99.4h68.26V31.15H42.4v68.25ZM99.55,88.31h9.42v9.41h-9.42v-9.41ZM75.68,32.83h-9.41v9.42h9.41v-9.42ZM62.43,42.23l-.53-2.14h-3.58l-.53,2.14h-2.62v-9.42h9.41v9.42h-2.15ZM55.17,43.93h2.21l-.08.33-.62.19-.6.22-.6.26-.31-.22v-.78ZM64.6,43.92h-1.74l.08.33.62.19.61.22.43.18v-.93ZM64.58,49.27c-1.23-.99-2.79-1.59-4.48-1.59-1.91,0-3.65.76-4.93,1.99v3.65h9.41v-4.05ZM66.26,53.32h.81c-.16-.74-.44-1.45-.81-2.08v2.08ZM74.81,53.32l-.5-2.83-4.28-.29-.29-.58-.32-.55-.35-.54,1.89-3.85-.91-.77h5.64v9.41h-.87ZM66.26,58.41c.58-1,.93-2.16.96-3.39h-.96v3.39ZM64.58,68.87l-1.11.41-2.13-3.16h-2.47l-2.11,3.16-1.59-.58v6.84h9.41v-6.66ZM53.52,68.09l-.09-.03.09-.86v-1.07s-9.42,0-9.42,0v9.42h9.42v-7.45ZM53.51,55.04h-.51c.02.87.2,1.7.51,2.46v-2.46ZM53.52,63.5l-.16-.11-.49-.41-.47-.44-4.12,1.2-1.79-3.1,3.1-2.97-.15-.63-.11-.63-.08-.64-1.67-.74h-3.48v9.41h9.42v-.92ZM44.1,53.32v-9.41h6.12l-.92.77,1.89,3.85-.35.54-.32.55-.29.58-4.28.29-.5,2.83h-1.35ZM53.51,52.16c-.15.37-.27.76-.35,1.16h.35v-1.16ZM86.78,51.89h-.78l-.39,1.43h-8.24v-9.41h9.41v7.98ZM91.24,53.32l-.39-1.43h-2.39v-7.98h9.42v9.41h-6.64ZM88.47,64.43h6.41c-1.67-1.59-3.93-2.57-6.41-2.59v2.59ZM97.89,55.6l-3.51,2.45-.67-.29-.69-.26-.7-.21-.62-2.3h6.19v.6ZM108.97,64.43v-9.41h-9.42v.33s3.13,2.62,3.13,2.62l-2.36,5.09.39.61.36.63.06.13h7.82ZM100.17,64.43c-.19-.33-.4-.65-.61-.97v.97s.61,0,.61,0ZM108.99,75.54v-9.42h-1.85l.73,4.13-5.09,2.37-.09.73-.13.72-.17.72.76.76h5.83ZM99.56,66.12h1.43c.63,1.56.98,3.28.98,5.07,0,1.52-.25,2.98-.71,4.35h-1.7s0-.22,0-.22c.48-1.28.74-2.67.74-4.11s-.26-2.83-.74-4.12v-.97ZM99.56,86.63h9.42v-9.41h-4.15l1.53,1.53-2.43,4.21-4.37-1.17v4.84ZM99.56,78.89c.37-.54.71-1.1,1-1.69h-1v1.69ZM97.16,86.63l-.32-3.71.59-.45.47-.4v4.55h-.73ZM97.88,88.31v9.41h-9.42v-9.41h2.99l1.3,1.85,4.56-1.66-.02-.19h.59ZM88.47,77.2v3.33c2.85-.01,5.41-1.31,7.11-3.33h-7.11ZM88.47,85.61h.34l.73-.04.74,1.05h-1.8s0-1.02,0-1.02ZM79.56,88.31l-.02.19,4.56,1.66,1.3-1.85h1.37v9.41h-9.41v-9.41h2.19ZM86.78,86.63h-.19s.19-.27.19-.27v.27ZM77.38,77.22v1.8c2.16,3.04,5.53,5.15,9.41,5.62v-1.69c-3.66-.51-6.79-2.68-8.59-5.73h-.82ZM81.26,77.2c1.38,1.64,3.32,2.8,5.52,3.19v-3.19h-5.52ZM79.71,86.63l.32-3.71-.59-.45-.56-.47-.53-.5-.98.26v4.86h2.34ZM75.69,86.63h-9.41v-9.41h5.76l-1.53,1.53,2.43,4.21,2.75-.74v4.41ZM66.28,75.54v-7.28l.56-.21-.21-1.93h3.1l-.73,4.13,5.08,2.37.09.73.13.72.17.72-.76.76h-7.44ZM75.69,66.59c-.52,1.43-.8,2.98-.8,4.59,0,1.52.25,2.98.71,4.35h.09s0-8.94,0-8.94ZM75.7,61.23l-1.52-3.26,1.52-1.27v-1.68h-3l-1.67.74-.07.64-.12.63-.14.63,3.09,2.97-1.79,3.1-4.11-1.2-.48.44-.49.41-.52.39.07.65h9.24v-3.19ZM86.78,61.98c-1.85.33-3.51,1.2-4.82,2.44h4.82v-2.44ZM86.78,59.43c-3.36.46-6.27,2.34-8.11,5h-1.3v-1.07c2.16-3.04,5.53-5.14,9.41-5.61v1.69ZM77.38,55.3l.31-.27h-.31v.27ZM85.16,55.01l-.62,2.3-.7.21-.69.26-.68.29-4.36-3.05h7.04ZM17.66,65.26c0,32.52,26.37,58.89,58.89,58.89s58.87-26.37,58.87-58.89S109.07,6.39,76.55,6.39s-58.89,26.35-58.89,58.87Z"/>
  <polyline class="cls-1" points="10.05 133.73 143.04 133.73 143.04 208.97 10.05 208.97 10.05 133.73"/>
  <path class="cls-2" d="M29.38,155.06h2.72v-4.78l1.35-1.41,4.22,6.18h3.3l-5.61-7.92,4.96-5.18-3.37.02-4.85,5.2-.04-5.2-2.69-.02v13.11ZM120.81,153.99c.04.46.15.8.3,1.07h2.59c-.33-.39-.43-.67-.43-.98v-5.17c0-2.26-1.17-3.61-4.24-3.61-2.85,0-4.04,1.56-3.98,3.15l2.24.04c0-.7.52-1.37,1.81-1.37s1.65.61,1.65,1.05c0,.39-.24.74-.92.87l-1.45.24c-2.07.37-2.63.76-3.04,1.11-.56.5-.87,1.2-.87,1.96,0,1.55,1.22,2.96,3.61,2.96,1.37,0,2.19-.46,2.72-1.33ZM120.83,150.1l-.02,1.18c0,1.33-.83,2.17-2.28,2.17-1.05,0-1.57-.63-1.57-1.2,0-.45.15-.94,1.76-1.39l1.09-.3c.48-.13.8-.32,1.02-.46ZM108.59,155.06h2.54l.02-4.18c0-1.41.33-2.06.76-2.5.46-.5,1.02-.74,1.72-.74.15,0,.28.02.43.04l.02-2.24c-.13-.02-.33-.06-.54-.06-1.11,0-2.07.7-2.37,1.68l-.07-1.42h-2.48l-.02,9.42ZM99.81,151.05l7,.02c0-2.8-1.28-5.76-4.78-5.76s-4.74,2.87-4.74,5.02c0,3.13,2.07,5.07,4.72,5.07s4.24-1.42,4.63-3.07l-2.55-.17c-.48.87-1.15,1.22-1.96,1.22-1.2,0-2.18-.81-2.31-2.33ZM99.93,149.21c.15-1.15,1.09-1.93,2.05-1.93,1.04,0,1.93.7,2.09,1.93h-4.15ZM92.98,155.06h2.54v-13.11h-2.52l-.02,13.11ZM88.48,155.06h2.54v-13.11h-2.52l-.02,13.11ZM81.74,155.42c2.87,0,4.96-2.02,4.96-5.09s-2.06-5.04-4.98-5.04-4.94,2.04-4.94,5.02,2.09,5.11,4.96,5.11ZM81.72,153.43c-1.2,0-2.35-.93-2.35-3.02,0-2.26,1.13-3.15,2.37-3.15s2.37.91,2.37,3.05-1.15,3.11-2.39,3.11ZM70.5,155.06h2.54l.02-4.18c0-1.41.33-2.06.76-2.5.46-.5,1.02-.74,1.72-.74.15,0,.28.02.43.04l.02-2.24c-.13-.02-.33-.06-.54-.06-1.11,0-2.07.7-2.37,1.68l-.07-1.42h-2.48l-.02,9.42ZM68.65,155.06v-1.94h-.94c-.31,0-.61-.17-.74-.35-.04-.07-.11-.22-.11-.74v-4.67h1.7v-1.72h-1.7l-.02-2.98h-2.52v2.98h-1.33v1.74l1.33-.02v4.87c0,2.13.87,2.83,2.28,2.83h2.05ZM53.01,155.06h2.54l.02-5.28c0-.74.15-1.09.35-1.39.33-.48.93-.8,1.54-.8.87,0,1.52.57,1.52,1.63l-.02,5.83h2.54v-6.65c0-1.76-1.3-3.11-3.24-3.11-1.35,0-2.3.72-2.63,1.46l-.09-1.11-2.5-.02-.02,9.42ZM46.27,155.42c2.87,0,4.96-2.02,4.96-5.09s-2.06-5.04-4.98-5.04-4.94,2.04-4.94,5.02,2.09,5.11,4.96,5.11ZM46.25,153.43c-1.2,0-2.35-.93-2.35-3.02,0-2.26,1.13-3.15,2.37-3.15s2.37.91,2.37,3.05-1.15,3.11-2.39,3.11Z"/>
  <path class="cls-2" d="M50.71,172.94c.05,1.78,1.55,3.48,4.44,3.48s4.22-1.57,4.22-3.26c0-.59-.2-1.18-.57-1.65-.35-.45-.82-.78-1.93-1.04l-2.7-.63c-.57-.15-.8-.5-.8-.83,0-.37.33-.94,1.55-.94,1.35,0,1.94.7,1.96,1.46l2.24-.04c-.06-.94-.56-1.89-1.35-2.48-.56-.39-1.43-.72-2.81-.72-2.7,0-3.91,1.46-3.91,3.07,0,.76.22,1.3.65,1.78.35.35.76.65,1.81.87l2.04.46c1.18.26,1.33.63,1.33,1.07,0,.41-.39,1.06-1.8,1.06-1.33,0-2-.7-2.07-1.68l-2.31.02ZM99.74,175.13l.11.96h2.5v-13.11h-2.55v4.76c-.45-.74-1.52-1.37-2.72-1.37-2.09,0-4.19,1.76-4.19,5.05,0,1.5.48,2.74,1.22,3.61.78.94,1.76,1.37,2.87,1.37s2.09-.45,2.76-1.28ZM97.74,174.22c-1.2,0-2.24-.85-2.24-2.85,0-2.24,1.09-3.04,2.13-3.04s2.15.8,2.15,2.96-1.09,2.91-2.04,2.92ZM88.5,175.13l.11.96h2.5v-13.11h-2.55v4.76c-.45-.74-1.52-1.37-2.72-1.37-2.09,0-4.19,1.76-4.19,5.05,0,1.5.48,2.74,1.22,3.61.78.94,1.76,1.37,2.87,1.37s2.09-.45,2.76-1.28ZM86.5,174.22c-1.2,0-2.24-.85-2.24-2.85,0-2.24,1.09-3.04,2.13-3.04s2.15.8,2.15,2.96-1.09,2.91-2.04,2.92ZM72.47,177.16v1.98h1.87c2.2,0,2.7-1.74,2.91-2.31l3.59-10.17h-2.7l-1.85,5.83-1.98-5.83h-2.74l2.93,7.94c.19.52.26.87.26,1.3,0,.76-.43,1.28-1.52,1.26h-.76ZM61.26,176.09h2.54l-.02-3.09,1.07-1.05,2.59,4.15h3.09l-3.87-5.79,3.37-3.63h-2.98l-3.26,3.59-.02-7.28h-2.54l.02,13.11Z"/>
</svg>