<svg xmlns="http://www.w3.org/2000/svg" viewBox="0 0 595.28 850.37"><defs><style>.a{fill:#e5e8eb;}.a,.b,.c{fill-rule:evenodd;}.b{fill:#000100;}.c{fill:#1e3b72;}</style></defs><title>M028_C</title><polyline class="a" points="0 850.37 595.28 850.37 595.28 0 0 0 0 850.37"/><path class="b" d="M128.69,626.08l6.91-22,6.63,22H128.69Zm322.91,6.55c0.21,6.91,6,13.54,17.28,13.54s16.41-6.12,16.41-12.67a10.33,10.33,0,0,0-2.23-6.41c-1.37-1.73-3.17-3-7.49-4l-10.51-2.45c-2.23-.58-3.17-1.94-3.17-3.24s1.36-3.67,6.12-3.67c5.25,0,7.56,2.74,7.63,5.69l8.64-.14a12.77,12.77,0,0,0-5.26-9.65c-2.09-1.51-5.47-2.81-10.87-2.81-10.51,0-15.19,5.69-15.19,11.95a9.71,9.71,0,0,0,2.52,6.91c1.29,1.37,3,2.52,7.05,3.38l7.92,1.8c4.61,1,5.18,2.45,5.18,4.18s-1.58,4.1-7,4.1c-5.18,0-7.78-2.73-8.07-6.55Zm-16.92,8.06a12.82,12.82,0,0,0,1.29,4.18h9.93c-0.58-.51-1.51-2.16-1.51-5.18L444.25,621a18.65,18.65,0,0,0-.5-5c-1.51-5-5.62-9.07-15.55-9.07-11.37,0-15.91,5.83-15.91,12.24l8.71,0.14c0.36-2.45.72-3,1.51-3.67s2.81-1.73,5.76-1.73c4.61,0,6.33,2.45,6.33,4.18s-1.08,3-3.75,3.46l-9.93,1.73c-7.42,1.29-10.87,6.12-10.87,10.94,0,6.34,4.9,11.74,13.75,11.74C429.93,645.95,433.31,643.5,434.68,640.69Zm0-15.34v5.47c-0.29,4.61-3.39,7.78-8.71,7.78-4.18,0-6.12-2.45-6.12-4.61,0-1.73.87-4,6.7-5.4l4.25-1.15A8.13,8.13,0,0,0,434.68,625.36ZM427.48,604a5.12,5.12,0,1,0-5.33-5.11A5.14,5.14,0,0,0,427.48,604Zm-0.07-2.09a3,3,0,0,1-3.17-3,3.2,3.2,0,0,1,3-3.1A3.06,3.06,0,0,1,427.41,601.89Zm-32.76,43h9.87v-51h-9.8Zm-47.59-3.74,0.36,3.74h9.79v-51h-9.93v18.5c-1.73-2.88-5.91-5.33-10.59-5.33-8.14,0-16.27,6.84-16.27,19.66a21.42,21.42,0,0,0,4.75,14,13.88,13.88,0,0,0,11.16,5.33A13.2,13.2,0,0,0,347.06,641.13Zm-7.78-3.53c-4.68,0-8.71-3.31-8.71-11.09,0-8.71,4.25-11.81,8.28-11.81s8.35,3.1,8.35,11.52C347.2,634.29,343,637.53,339.28,637.6Zm-58.53,7.27h9.87l0.07-20.52c0-2.88.58-4.25,1.37-5.4a7.4,7.4,0,0,1,6-3.1c3.31,0,5.83,2.23,5.83,6.33l-0.07,22.68h9.87V619c0-6.84-5-12.1-12.6-12.1-5.18,0-8.85,2.81-10.15,5.69l-0.36-4.32-9.72-.07Zm-18.29-4.18a13,13,0,0,0,1.29,4.18h9.93c-0.58-.51-1.51-2.16-1.51-5.18L272,621a18.57,18.57,0,0,0-.51-5c-1.51-5-5.62-9.07-15.55-9.07-11.38,0-15.91,5.83-15.91,12.24l8.71,0.14c0.36-2.45.72-3,1.51-3.67s2.81-1.73,5.76-1.73c4.61,0,6.34,2.45,6.34,4.18s-1.08,3-3.74,3.46l-9.94,1.73c-7.42,1.29-10.87,6.12-10.87,10.94,0,6.34,4.9,11.74,13.75,11.74C257.71,645.95,261.09,643.5,262.46,640.69Zm0-15.34v5.47c-0.29,4.61-3.38,7.78-8.71,7.78-4.18,0-6.12-2.45-6.12-4.61,0-1.73.86-4,6.7-5.4l4.25-1.15A8.11,8.11,0,0,0,262.46,625.36Zm-5.9-21.53,9.93,0.07v-10h-9.86Zm-12.82,0h9.86l0.07-10h-9.87Zm-29.73,41h9.72l12.52-36.65h-10l-7.35,24.12-7.27-24h-10Zm-50,0h9.87l0.07-20.52c0-2.88.58-4.25,1.36-5.4a7.41,7.41,0,0,1,6-3.1c3.38,0,5.91,2.23,5.91,6.33l-0.07,22.68h9.86V619c0-6.84-5-12.1-12.6-12.1-5.25,0-8.93,2.81-10.22,5.69l-0.36-4.32-9.72-.07Zm-52,0h10.73l3.38-10.73H144.6l3.24,10.73h10.8l-17.42-51h-11.3Z" transform="translate(-1.05 -0.94)"/><path class="c" d="M270.37,294c1.65-5.11-.68-10.18-5.08-11.78-28-9.73-55.89-20-83.12-32-4.32-1.82-9.54.65-11.67,5.51s-0.28,10.34,4.11,12.22c27.64,12.11,56,22.56,84.55,32.46C263.66,302.13,268.75,299,270.37,294Zm56.55,0c1.62,5,6.7,8.11,11.2,6.45,28.55-9.9,56.9-20.36,84.55-32.46,4.38-1.88,6.24-7.33,4.11-12.22s-7.36-7.33-11.66-5.51c-27.25,11.94-55.12,22.22-83.12,32C327.6,283.84,325.26,288.91,326.92,294ZM131.76,221.83a17.39,17.39,0,0,1,13.68.14c10.83,4.88,21.51,10.11,32.47,14.69a16.83,16.83,0,0,1,9.16,10.09c5.95,2.58,12,5.14,18.41,7.72,0.72-15.49-6.72-29.83-19.88-35.47-10.79-4.5-21.32-9.67-32-14.48-13.08-6-28.67-2.35-39.8,8.44l6.62,3.27Q126.11,219,131.76,221.83Zm4.2,18.36c2.24-4.83.61-10.3-3.64-12.27-10.92-5.46-21.91-10.74-32.81-16.27-2.57,5.89-4.88,11.93-6.93,18.09,10.44,5.26,21,10.33,31.45,15.57C128.36,247.3,133.71,245,136,240.19Zm209.66,63.28c0,0.31,0,.62,0,0.93v20.18h23.06V304.4a69.38,69.38,0,0,0-.6-9C361,298,353.56,300.69,345.63,303.47Zm-116.48-8.06a70.48,70.48,0,0,0-.59,9v20.19h23V304.39c0-.31,0-0.61,0-0.92C243.73,300.68,236.26,298,229.15,295.41Zm106.44-20c7.94-2.77,15.39-5.45,22.5-8a70,70,0,0,0-118.89,0c7.09,2.6,14.56,5.28,22.5,8A46.87,46.87,0,0,1,335.59,275.38ZM194.39,282c-6.52-2.63-12.8-5.27-18.89-7.9a17.5,17.5,0,0,1-14,.21c-11.31-4.74-22.31-10.12-33.46-15.15A16.89,16.89,0,0,1,119,248.6L107.57,243c-2.31-1.12-4.65-2.3-7-3.44-1.75,15.45,5.3,30.55,19.27,37,11.32,5.1,22.46,10.57,33.95,15.36C168.05,298,184,293.53,194.39,282Zm217.29-63c-13.19,5.64-20.63,20-19.92,35.47,6.38-2.58,12.49-5.14,18.43-7.72a16.86,16.86,0,0,1,9.18-10.09c10.94-4.58,21.64-9.81,32.46-14.69a17.36,17.36,0,0,1,13.67-.14l11.33-5.6,6.63-3.27c-11.13-10.78-26.72-14.45-39.79-8.44C433,209.33,422.46,214.5,411.69,219Zm86.09-7.36c-10.9,5.53-21.91,10.81-32.81,16.28-4.26,2-5.88,7.45-3.65,12.26s7.61,7.11,11.94,5.11c10.47-5.23,21-10.3,31.47-15.56Q501.62,220.48,497.77,211.64Zm-8,31.33c-3.78,1.85-7.57,3.73-11.42,5.64a16.85,16.85,0,0,1-9.07,10.53c-11.19,5-22.16,10.42-33.48,15.15a17.48,17.48,0,0,1-14-.19c-6.1,2.62-12.37,5.26-18.89,7.89,10.42,11.56,26.32,16,40.55,10,11.47-4.8,22.63-10.27,34-15.37,14-6.49,21-21.58,19.28-37Zm-284.51,87.9v91.84a93.43,93.43,0,1,0,186.86,0V330.88H205.22Zm103,79.57v47.61H289.06V410.45A18.54,18.54,0,1,1,308.24,410.45ZM36.48,298.59c0,144.79,117.43,262.21,262.21,262.21S560.83,443.37,560.83,298.59,443.48,36.44,298.69,36.44,36.48,153.79,36.48,298.59Z" transform="translate(-1.05 -0.94)"/></svg>