<?xml version="1.0" encoding="UTF-8"?>
<svg id="Lager_1" data-name="Lager 1" xmlns="http://www.w3.org/2000/svg" viewBox="0 0 153.09 218.69">
  <defs>
    <style>
      .cls-1 {
        fill: #1a4080;
      }

      .cls-1, .cls-2 {
        fill-rule: evenodd;
      }

      .cls-2 {
        fill: #fff;
      }
    </style>
  </defs>
  <polyline class="cls-2" points="0 218.69 153.09 218.69 153.09 0 0 0 0 218.69"/>
  <path class="cls-1" d="M70.19,64.25c.37-1.15-.15-2.29-1.14-2.65-6.29-2.19-12.55-4.49-18.67-7.18-.97-.41-2.14.15-2.62,1.24-.48,1.1-.06,2.32.92,2.74,6.21,2.72,12.58,5.07,18.99,7.29,1.01.37,2.15-.33,2.52-1.45ZM82.9,64.25c.36,1.12,1.51,1.82,2.52,1.45,6.41-2.22,12.78-4.57,18.99-7.29.99-.42,1.4-1.65.92-2.74-.48-1.09-1.66-1.65-2.62-1.24-6.12,2.68-12.38,4.99-18.67,7.18-.99.36-1.51,1.5-1.14,2.65ZM39.07,48.04c1-.38,2.09-.43,3.07.03,2.43,1.1,4.83,2.27,7.29,3.3,1,.43,1.69,1.25,2.06,2.27,1.33.58,2.71,1.16,4.14,1.73.16-3.48-1.51-6.7-4.47-7.96-2.42-1.01-4.79-2.17-7.18-3.25-2.94-1.35-6.44-.53-8.94,1.9.5.25,1,.49,1.49.73.85.42,1.7.84,2.55,1.26ZM40.01,52.17c.5-1.08.14-2.31-.82-2.76-2.45-1.23-4.92-2.41-7.37-3.65-.58,1.32-1.09,2.68-1.56,4.06,2.34,1.18,4.71,2.32,7.06,3.49.97.45,2.17-.07,2.68-1.15ZM87.1,66.38c0,.07.01.14.01.21v4.53h5.18v-4.53c0-.68-.05-1.36-.13-2.02-1.6.59-3.27,1.18-5.05,1.81ZM60.94,64.57c-.08.66-.13,1.33-.13,2.02v4.53h5.17v-4.53c0-.07.01-.14.01-.21-1.78-.63-3.46-1.23-5.05-1.81ZM84.84,60.07c1.78-.62,3.46-1.22,5.05-1.81-2.78-4.45-7.73-7.42-13.35-7.42s-10.57,2.97-13.35,7.42c1.59.58,3.27,1.19,5.05,1.81,1.93-2.46,4.93-4.05,8.3-4.05s6.36,1.59,8.3,4.05ZM53.13,61.55c-1.47-.59-2.88-1.18-4.24-1.77-1,.43-2.11.48-3.14.05-2.54-1.06-5.01-2.27-7.52-3.4-1.01-.47-1.72-1.32-2.04-2.37-.86-.43-1.72-.85-2.56-1.26-.52-.25-1.04-.52-1.56-.77-.39,3.47,1.19,6.86,4.33,8.32,2.54,1.14,5.05,2.37,7.62,3.45,3.19,1.36,6.77.36,9.11-2.24ZM101.93,47.41c-2.96,1.27-4.63,4.49-4.47,7.96,1.43-.58,2.8-1.16,4.14-1.73.36-1.02,1.07-1.84,2.06-2.27,2.46-1.03,4.86-2.2,7.29-3.3.98-.46,2.08-.41,3.07-.03.85-.42,1.7-.84,2.54-1.26.49-.24.99-.49,1.49-.73-2.5-2.42-6-3.24-8.94-1.9-2.4,1.08-4.76,2.24-7.18,3.25ZM121.26,45.75c-2.45,1.24-4.92,2.43-7.37,3.66-.96.44-1.32,1.67-.82,2.75.51,1.08,1.71,1.6,2.68,1.15,2.35-1.17,4.72-2.31,7.07-3.49-.46-1.38-.98-2.74-1.56-4.06ZM119.46,52.79c-.85.42-1.7.84-2.56,1.27-.32,1.05-1.02,1.89-2.04,2.36-2.51,1.13-4.98,2.34-7.52,3.4-1.03.44-2.14.39-3.14-.04-1.37.59-2.78,1.18-4.24,1.77,2.34,2.6,5.91,3.6,9.11,2.24,2.58-1.08,5.08-2.31,7.62-3.45,3.14-1.46,4.72-4.85,4.33-8.32-.52.26-1.05.52-1.56.77ZM55.56,72.53v20.62c0,11.59,9.39,20.98,20.98,20.98s20.98-9.4,20.98-20.98v-20.62h-41.96ZM78.7,90.4v10.69h-4.31v-10.69c-1.21-.73-2.01-2.05-2.01-3.56,0-2.3,1.87-4.17,4.17-4.17s4.17,1.87,4.17,4.17c0,1.51-.81,2.83-2.01,3.56ZM17.66,65.26c0,32.52,26.37,58.89,58.89,58.89s58.87-26.37,58.87-58.89S109.07,6.39,76.55,6.39s-58.89,26.35-58.89,58.87Z"/>
  <polyline class="cls-1" points="10.05 133.73 143.04 133.73 143.04 208.97 10.05 208.97 10.05 133.73"/>
  <path class="cls-2" d="M32.82,150.27l1.78-5.67,1.7,5.67h-3.48ZM115.87,151.95c.06,1.78,1.54,3.48,4.44,3.48s4.22-1.57,4.22-3.26c0-.59-.2-1.18-.57-1.65-.35-.45-.81-.78-1.93-1.04l-2.7-.63c-.57-.15-.81-.5-.81-.83,0-.37.35-.94,1.57-.94,1.35,0,1.94.7,1.96,1.46l2.22-.04c-.04-.95-.54-1.89-1.35-2.48-.54-.39-1.41-.72-2.8-.72-2.7,0-3.91,1.46-3.91,3.07,0,.76.22,1.3.65,1.78.33.35.76.65,1.81.87l2.04.46c1.19.26,1.33.63,1.33,1.07,0,.41-.41,1.05-1.8,1.05s-2-.7-2.07-1.68l-2.31.02ZM111.52,154.03c.05.37.17.78.33,1.07h2.55c-.15-.13-.39-.55-.39-1.33l-.04-4.81c-.02-.83-.07-1.07-.13-1.28-.39-1.3-1.45-2.33-4-2.33-2.93,0-4.09,1.5-4.09,3.15l2.24.04c.09-.63.19-.76.39-.94.24-.22.72-.45,1.48-.45,1.19,0,1.63.63,1.63,1.07s-.28.76-.96.89l-2.55.45c-1.91.33-2.8,1.57-2.8,2.81,0,1.63,1.26,3.02,3.54,3.02,1.57,0,2.44-.63,2.8-1.35ZM111.52,150.08v1.41c-.07,1.18-.87,2-2.24,2-1.07,0-1.57-.63-1.57-1.18,0-.44.22-1.02,1.72-1.39l1.09-.3c.41-.09.76-.3,1-.54ZM109.66,144.58c.65,0,1.26-.59,1.26-1.31s-.59-1.32-1.3-1.32c-.76,0-1.33.61-1.33,1.32,0,.74.57,1.31,1.37,1.31ZM109.65,144.05c-.48,0-.81-.35-.81-.78s.37-.78.78-.8c.42,0,.78.33.78.8s-.37.78-.74.78ZM101.22,155.1h2.54v-13.11h-2.52l-.02,13.11ZM88.98,154.14l.09.96h2.52v-13.11h-2.55v4.76c-.45-.74-1.52-1.37-2.72-1.37-2.09,0-4.18,1.76-4.18,5.05,0,1.5.48,2.74,1.22,3.61.78.94,1.76,1.37,2.87,1.37s2.09-.44,2.76-1.28ZM86.98,153.23c-1.2,0-2.24-.85-2.24-2.85,0-2.24,1.09-3.04,2.13-3.04s2.15.8,2.15,2.96-1.09,2.91-2.04,2.93ZM71.93,155.1h2.54l.02-5.28c0-.74.15-1.09.35-1.39.33-.48.93-.8,1.54-.8.85,0,1.5.57,1.5,1.63l-.02,5.83h2.54v-6.65c0-1.76-1.3-3.11-3.24-3.11-1.33,0-2.28.72-2.61,1.46l-.09-1.11-2.5-.02-.02,9.42ZM67.23,154.03c.06.37.17.78.33,1.07h2.55c-.15-.13-.39-.55-.39-1.33l-.04-4.81c-.02-.83-.07-1.07-.13-1.28-.39-1.3-1.44-2.33-4-2.33-2.93,0-4.09,1.5-4.09,3.15l2.24.04c.09-.63.19-.76.39-.94.24-.22.72-.45,1.48-.45,1.18,0,1.63.63,1.63,1.07s-.28.76-.96.89l-2.56.45c-1.91.33-2.8,1.57-2.8,2.81,0,1.63,1.26,3.02,3.54,3.02,1.57,0,2.44-.63,2.8-1.35ZM67.23,150.08v1.41c-.07,1.18-.87,2-2.24,2-1.07,0-1.57-.63-1.57-1.18,0-.44.22-1.02,1.72-1.39l1.09-.3c.41-.09.76-.3,1-.54ZM65.71,144.55l2.55.02v-2.57h-2.54l-.02,2.55ZM62.41,144.55h2.54l.02-2.57h-2.54l-.02,2.57ZM54.77,155.1h2.5l3.22-9.42h-2.57l-1.89,6.2-1.87-6.18h-2.57l3.19,9.41ZM41.9,155.1h2.54l.02-5.28c0-.74.15-1.09.35-1.39.33-.48.93-.8,1.54-.8.87,0,1.52.57,1.52,1.63l-.02,5.83h2.54v-6.65c0-1.76-1.3-3.11-3.24-3.11-1.35,0-2.3.72-2.63,1.46l-.09-1.11-2.5-.02-.02,9.42ZM28.53,155.1h2.76l.87-2.76h4.76l.83,2.76h2.78l-4.48-13.11h-2.91l-4.61,13.11Z"/>
</svg>