<svg xmlns="http://www.w3.org/2000/svg" viewBox="0 0 595.28 850.37"><defs><style>.a{fill:#e5e8eb;}.a,.b,.c{fill-rule:evenodd;}.b{fill:#000100;}.c{fill:#1e3b72;}</style></defs><title>M029_C</title><polyline class="a" points="0 850.37 595.28 850.37 595.28 0 0 0 0 850.37"/><path class="b" d="M101.73,626.08l6.91-22,6.63,22H101.73Zm377.48,18.79h9.86l0.07-20.52c0-2.88.58-4.25,1.37-5.4a7.4,7.4,0,0,1,6-3.1c3.38,0,5.9,2.23,5.9,6.33l-0.07,22.68h9.86V619c0-6.84-5-12.1-12.6-12.1-5.26,0-8.93,2.81-10.23,5.69L489,608.3l-9.72-.07Zm-26.64,0h9.87l0.07-16.27c0-5.47,1.29-8,3-9.72a8.63,8.63,0,0,1,6.7-2.88,12.55,12.55,0,0,1,1.66.14l0.07-8.71a14.78,14.78,0,0,0-2.09-.21,9.54,9.54,0,0,0-9.22,6.55l-0.29-5.55h-9.65Zm-26.21,1.36c11.16,0,19.3-7.85,19.3-19.8,0-11.59-8-19.59-19.36-19.59-11.09,0-19.22,7.92-19.22,19.51C407.07,638.46,415.21,646.24,426.37,646.24Zm-0.07-7.7c-4.68,0-9.15-3.6-9.15-11.74,0-8.78,4.39-12.24,9.22-12.24s9.22,3.53,9.22,11.88C435.58,635,431.12,638.53,426.3,638.53Zm-58.61,6.34h9.86V624.71c0-6,3.31-8.78,7.42-8.78,3.45,0,5.83,2,5.83,6.63v22.32h9.87V619.6c0-4.46-1.51-7.49-3.89-9.58a14,14,0,0,0-8.57-3.1c-5.4,0-9,2.52-10.66,5.9V593.9h-9.86v51Zm-47.59-3.74,0.36,3.74h9.79v-51h-9.94v18.5c-1.73-2.88-5.9-5.33-10.58-5.33-8.14,0-16.2,6.84-16.2,19.66a21.4,21.4,0,0,0,4.75,14,13.64,13.64,0,0,0,11.09,5.33A13.2,13.2,0,0,0,320.1,641.13Zm-7.78-3.53c-4.68,0-8.71-3.31-8.71-11.09,0-8.71,4.25-11.81,8.28-11.81s8.35,3.1,8.35,11.52C320.24,634.29,316,637.53,312.32,637.6Zm-58.53,7.27h9.86l0.07-20.52c0-2.88.58-4.25,1.37-5.4a7.4,7.4,0,0,1,6-3.1c3.38,0,5.9,2.23,5.9,6.33l-0.07,22.68h9.87V619c0-6.84-5-12.1-12.6-12.1-5.26,0-8.93,2.81-10.22,5.69l-0.36-4.32-9.72-.07Zm-18.29-4.18a12.94,12.94,0,0,0,1.29,4.18h9.93c-0.58-.51-1.51-2.16-1.51-5.18L245.08,621a18.63,18.63,0,0,0-.5-5c-1.51-5-5.61-9.07-15.55-9.07-11.37,0-15.91,5.83-15.91,12.24l8.71,0.14c0.36-2.45.72-3,1.51-3.67s2.81-1.73,5.76-1.73c4.61,0,6.33,2.45,6.33,4.18s-1.08,3-3.74,3.46l-9.94,1.73c-7.42,1.29-10.87,6.12-10.87,10.94,0,6.34,4.9,11.74,13.75,11.74C230.75,645.95,234.13,643.5,235.5,640.69Zm0-15.34v5.47c-0.29,4.61-3.38,7.78-8.71,7.78-4.17,0-6.12-2.45-6.12-4.61,0-1.73.86-4,6.7-5.4l4.25-1.15A8.13,8.13,0,0,0,235.5,625.36Zm-5.9-21.53,9.94,0.07v-10h-9.87Zm-12.82,0h9.86l0.07-10h-9.86Zm-29.73,41h9.72l12.53-36.65h-10l-7.34,24.12-7.27-24h-10Zm-50,0h9.86l0.07-20.52c0-2.88.58-4.25,1.37-5.4a7.41,7.41,0,0,1,6-3.1c3.38,0,5.9,2.23,5.9,6.33l-0.07,22.68H170V619c0-6.84-5-12.1-12.6-12.1-5.25,0-8.93,2.81-10.22,5.69l-0.36-4.32-9.72-.07Zm-52,0H95.75l3.38-10.73h18.5l3.24,10.73h10.8l-17.42-51H103Z" transform="translate(-1.02 -0.94)"/><path class="c" d="M470.42,193.6a6.5,6.5,0,0,0-1.36,9.06,161.64,161.64,0,0,1,0,191.83,6.47,6.47,0,0,0,10.41,7.7,174.59,174.59,0,0,0,0-207.22A6.48,6.48,0,0,0,470.42,193.6Zm-27.08,25a5.19,5.19,0,0,0-1.26,7.21,126.92,126.92,0,0,1,0,145.43,5.17,5.17,0,1,0,8.45,5.94,137.15,137.15,0,0,0,0-157.3A5.15,5.15,0,0,0,443.34,218.65ZM420.08,241.8a3.86,3.86,0,0,0-1.15,5.36,95.1,95.1,0,0,1,0,102.78,3.89,3.89,0,0,0,6.53,4.22,102.85,102.85,0,0,0,0-111.17A3.9,3.9,0,0,0,420.08,241.8ZM404.07,373c0,3.46-1.9,5.22-4.67,5.22H395V365c-14.52-22.06-38.92-34-80.39-41.88-31.92-6.07-84.73-8.43-113.26-9v4.22h-23.6v-4.18c-3.45.18-7.18,0.47-10.87,1a43.26,43.26,0,1,1,0-33.19c3.69,0.57,7.42.86,10.87,1v-4.2h23.6v4.24c28.53-.61,81.34-3,113.26-9.06,41.46-7.88,65.86-19.82,80.39-41.88V218.89h4.4c2.77,0,4.67,1.76,4.67,5.22V373ZM36.44,298.59c0,144.79,117.43,262.21,262.22,262.21S560.81,443.37,560.81,298.59,443.45,36.44,298.66,36.44,36.44,153.79,36.44,298.59Z" transform="translate(-1.02 -0.94)"/></svg>