<?xml version="1.0" encoding="UTF-8"?>
<svg id="Lager_1" data-name="Lager 1" xmlns="http://www.w3.org/2000/svg" viewBox="0 0 153.09 218.69">
  <defs>
    <style>
      .cls-1 {
        fill: #1a4080;
      }

      .cls-1, .cls-2 {
        fill-rule: evenodd;
      }

      .cls-2 {
        fill: #fff;
      }
    </style>
  </defs>
  <polyline class="cls-2" points="0 218.69 153.09 218.69 153.09 0 0 0 0 218.69"/>
  <path class="cls-1" d="M115.13,41.7c-.64.48-.78,1.39-.31,2.03,4.64,6.27,7.08,13.72,7.08,21.54s-2.45,15.27-7.08,21.54c-.47.65-.33,1.56.31,2.03.65.47,1.55.34,2.03-.3,5-6.78,7.65-14.82,7.65-23.27s-2.65-16.49-7.65-23.27c-.48-.65-1.38-.78-2.03-.31ZM109.05,47.33c-.52.37-.65,1.09-.28,1.62,3.36,4.8,5.14,10.45,5.14,16.33s-1.78,11.53-5.14,16.33c-.37.53-.24,1.25.28,1.62.53.36,1.25.24,1.62-.29,3.64-5.19,5.57-11.3,5.57-17.66s-1.92-12.47-5.57-17.66c-.37-.53-1.09-.65-1.62-.29ZM103.82,52.53c-.41.26-.52.8-.26,1.2,2.21,3.44,3.39,7.43,3.39,11.54s-1.17,8.1-3.39,11.54c-.26.41-.14.95.26,1.21.4.26.94.14,1.21-.26,2.4-3.72,3.66-8.04,3.66-12.48s-1.27-8.76-3.67-12.48c-.26-.41-.8-.52-1.21-.26ZM100.23,82c0,.78-.43,1.17-1.05,1.17h-.99v-2.97c-3.26-4.96-8.74-7.64-18.05-9.41-7.17-1.36-19.03-1.89-25.44-2.03v.95h-5.3v-.94c-.77.04-1.61.11-2.44.23-1.46,3.52-4.93,5.99-8.97,5.99-5.37,0-9.71-4.35-9.71-9.71s4.35-9.72,9.71-9.72c4.04,0,7.51,2.47,8.97,5.99.83.13,1.67.19,2.44.23v-.94h5.3v.95c6.41-.14,18.27-.67,25.44-2.03,9.31-1.77,14.79-4.45,18.05-9.4v-2.97h.99c.62,0,1.05.4,1.05,1.17v33.44ZM17.66,65.26c0,32.52,26.37,58.89,58.89,58.89s58.87-26.37,58.87-58.89S109.07,6.39,76.55,6.39s-58.89,26.35-58.89,58.87Z"/>
  <polyline class="cls-1" points="10.05 133.73 143.04 133.73 143.04 208.97 10.05 208.97 10.05 133.73"/>
  <path class="cls-2" d="M25.9,150.23l1.78-5.67,1.7,5.67h-3.48ZM122.98,155.06h2.54l.02-5.28c0-.74.15-1.09.35-1.39.33-.48.93-.8,1.54-.8.87,0,1.52.57,1.52,1.63l-.02,5.83h2.54v-6.65c0-1.76-1.3-3.11-3.24-3.11-1.35,0-2.3.72-2.63,1.46l-.09-1.11-2.5-.02-.02,9.42ZM116.13,155.06h2.54l.02-4.18c0-1.41.33-2.06.76-2.5.46-.5,1.02-.74,1.72-.74.15,0,.28.02.43.04l.02-2.24c-.13-.02-.33-.06-.54-.06-1.11,0-2.07.7-2.37,1.68l-.07-1.42h-2.48l-.02,9.42ZM109.39,155.42c2.87,0,4.96-2.02,4.96-5.09s-2.06-5.04-4.98-5.04-4.94,2.04-4.94,5.02,2.09,5.11,4.96,5.11ZM109.37,153.43c-1.2,0-2.35-.93-2.35-3.02,0-2.26,1.13-3.15,2.37-3.15s2.37.91,2.37,3.05-1.15,3.11-2.39,3.11ZM94.3,155.06h2.54v-5.18c0-1.54.85-2.26,1.91-2.26.89,0,1.5.52,1.5,1.7v5.74h2.54v-6.5c0-1.15-.39-1.92-1-2.46-.55-.46-1.39-.8-2.2-.8-1.39,0-2.31.65-2.74,1.52v-4.87h-2.54v13.11ZM82.06,154.1l.09.96h2.52v-13.11h-2.56v4.76c-.44-.74-1.52-1.37-2.72-1.37-2.09,0-4.17,1.76-4.17,5.05,0,1.5.48,2.74,1.22,3.61.76.94,1.74,1.37,2.85,1.37s2.09-.44,2.76-1.28ZM80.06,153.19c-1.2,0-2.24-.85-2.24-2.85,0-2.24,1.09-3.04,2.13-3.04s2.15.8,2.15,2.96-1.09,2.91-2.04,2.92ZM65,155.06h2.54l.02-5.28c0-.74.15-1.09.35-1.39.33-.48.93-.8,1.54-.8.87,0,1.52.57,1.52,1.63l-.02,5.83h2.54v-6.65c0-1.76-1.3-3.11-3.24-3.11-1.35,0-2.3.72-2.63,1.46l-.09-1.11-2.5-.02-.02,9.42ZM60.3,153.99c.06.37.17.78.33,1.07h2.55c-.15-.13-.39-.55-.39-1.33l-.04-4.81c-.02-.83-.07-1.07-.13-1.28-.39-1.3-1.44-2.33-4-2.33-2.93,0-4.09,1.5-4.09,3.15l2.24.04c.09-.63.19-.76.39-.94.24-.22.72-.45,1.48-.45,1.19,0,1.63.63,1.63,1.07s-.28.76-.96.89l-2.56.44c-1.91.33-2.8,1.57-2.8,2.82,0,1.63,1.26,3.02,3.54,3.02,1.57,0,2.44-.63,2.8-1.35ZM60.3,150.05v1.41c-.07,1.18-.87,2-2.24,2-1.07,0-1.57-.63-1.57-1.18,0-.44.22-1.02,1.72-1.39l1.09-.3c.41-.09.76-.3,1-.54ZM58.78,144.51l2.56.02v-2.57h-2.54l-.02,2.55ZM55.49,144.51h2.54l.02-2.57h-2.54l-.02,2.57ZM47.84,155.06h2.5l3.22-9.42h-2.57l-1.89,6.2-1.87-6.18h-2.57l3.19,9.41ZM34.97,155.06h2.54l.02-5.28c0-.74.15-1.09.35-1.39.33-.48.93-.8,1.54-.8.87,0,1.52.57,1.52,1.63l-.02,5.83h2.54v-6.65c0-1.76-1.3-3.11-3.24-3.11-1.35,0-2.3.72-2.63,1.46l-.09-1.11-2.5-.02-.02,9.42ZM21.6,155.06h2.76l.87-2.76h4.76l.83,2.76h2.78l-4.48-13.11h-2.91l-4.61,13.11Z"/>
</svg>