<?xml version="1.0" encoding="UTF-8"?>
<svg id="Lager_1" data-name="Lager 1" xmlns="http://www.w3.org/2000/svg" viewBox="0 0 153.09 218.69">
  <defs>
    <style>
      .cls-1 {
        fill: #1a4080;
      }

      .cls-1, .cls-2 {
        fill-rule: evenodd;
      }

      .cls-2 {
        fill: #fff;
      }
    </style>
  </defs>
  <polyline class="cls-2" points="0 218.69 153.09 218.69 153.09 0 0 0 0 218.69"/>
  <path class="cls-1" d="M60.53,25.95c0,3.36,2.72,6.09,6.09,6.09s6.09-2.72,6.09-6.09-2.72-6.09-6.09-6.09-6.09,2.72-6.09,6.09ZM97.35,49.76l-13.87-4.26-10.88-9.46c-.37-.35-.81-.58-1.28-.7h0s-13.47-3.62-13.47-3.62h0c-1.13-.29-2.41.06-3.18,1.06l-9.73,11.21c-.12.14-.28.32-.34.43,0,0,0,0,0,.01l-8.66,12.35c-2.34,3.33,2.66,6.83,4.99,3.5l8.62-12.29,5.72-6.59-4.62,17.25c-.06.21-.09.42-.11.64l-1.46,19.07-2.31,18.91c-.57,4.68,6.38,5.31,6.93.75l2.32-18.94c0-.05.01-.1.01-.15l1.29-16.98c.07.41.2.78.38,1.11l8.07,16.27v18.35c0,4.65,6.98,4.65,6.98,0v-19.17c0-.54-.13-1.07-.37-1.55l-7.94-15.99,5.21-19.44,10.14,8.82c.36.36.8.62,1.29.76,4.84,1.44,9.66,2.98,14.49,4.46,3.89,1.2,5.68-4.64,1.79-5.84ZM109.49,64.84l-3.14,36.33h-23.13l-3.14-36.33,3.81-.33,2.84,32.84h16.12l2.84-32.84,3.81.33ZM98.3,93.43l-4.48,2.87-4.46-2.87,4.46-2.85,4.48,2.85ZM93.83,80.09l-4.46,2.86,4.46,2.86,4.48-2.86-4.48-2.86ZM96.56,66.3l-4.46,2.86,4.46,2.87,4.46-2.87-4.46-2.86ZM98.3,62.12l-4.48-2.86-4.46,2.86,4.46,2.86,4.48-2.86ZM17.66,65.26c0,32.52,26.37,58.89,58.89,58.89s58.87-26.37,58.87-58.89S109.07,6.39,76.55,6.39s-58.89,26.35-58.89,58.87Z"/>
  <polyline class="cls-1" points="10.05 133.73 143.04 133.73 143.04 208.97 10.05 208.97 10.05 133.73"/>
  <path class="cls-2" d="M49.29,150.25l1.8-5.67,1.69,5.67h-3.48ZM105.44,154.12l.11.96h2.52l-.02-13.11h-2.54v4.76c-.46-.74-1.52-1.37-2.72-1.37-2.11,0-4.18,1.76-4.18,5.05,0,1.5.48,2.74,1.22,3.61.78.95,1.74,1.37,2.87,1.37s2.07-.44,2.74-1.28ZM103.44,153.21c-1.19,0-2.24-.85-2.24-2.85,0-2.24,1.09-3.04,2.15-3.04s2.13.8,2.13,2.96-1.09,2.91-2.04,2.93ZM88.39,155.08h2.54l.02-5.28c0-.74.15-1.09.35-1.39.33-.48.93-.8,1.54-.8.87,0,1.5.57,1.5,1.63v5.83h2.54v-6.65c0-1.76-1.3-3.11-3.26-3.11-1.35,0-2.29.72-2.61,1.46l-.11-1.11-2.48-.02-.02,9.42ZM83.67,154.01c.05.37.18.78.33,1.07h2.57c-.15-.13-.41-.56-.41-1.33l-.02-4.82c-.04-.83-.09-1.07-.15-1.28-.37-1.3-1.43-2.33-3.98-2.33-2.94,0-4.09,1.5-4.09,3.15l2.22.04c.11-.63.2-.76.41-.95.22-.22.7-.44,1.46-.44,1.19,0,1.65.63,1.65,1.07s-.3.76-.98.89l-2.54.44c-1.91.33-2.8,1.57-2.8,2.81,0,1.63,1.26,3.02,3.54,3.02,1.57,0,2.43-.63,2.78-1.35ZM83.69,150.07l-.02,1.41c-.06,1.18-.85,2-2.24,2-1.06,0-1.57-.63-1.57-1.18,0-.45.22-1.02,1.72-1.39l1.11-.3c.41-.09.76-.3,1-.54ZM82.17,144.53l2.54.02.02-2.57h-2.55v2.55ZM78.85,144.53h2.54l.02-2.57h-2.54l-.02,2.57ZM71.23,155.08h2.52l3.2-9.42h-2.55l-1.89,6.2-1.87-6.18h-2.57l3.17,9.41ZM58.38,155.08h2.54l.02-5.28c0-.74.15-1.09.35-1.39.33-.48.93-.8,1.54-.8.87,0,1.5.57,1.5,1.63v5.83h2.54v-6.65c0-1.76-1.3-3.11-3.26-3.11-1.35,0-2.3.72-2.61,1.46l-.11-1.11-2.48-.02-.02,9.42ZM45.01,155.08h2.74l.89-2.76h4.74l.85,2.76h2.78l-4.5-13.11h-2.91l-4.59,13.11Z"/>
  <path class="cls-2" d="M26.03,174.26c-1.2,0-2.24-.82-2.24-2.85,0-2.28,1.11-3.07,2.15-3.07s2.19.85,2.19,2.94c0,1.39-.59,2.96-2.09,2.98ZM122.83,176.4c.11.89.37,1.39.91,1.89.57.56,1.65,1.07,3.46,1.07,2.04,0,3.35-.76,3.98-1.57.43-.57.67-1.09.67-2.5l-.02-8.83h-2.41l-.09,1.15c-.17-.3-.69-1.48-2.78-1.48-2.28,0-4.28,1.81-4.28,4.72s2,4.74,4.24,4.74c1.52,0,2.44-.68,2.81-1.41l-.02,1.02c0,1.59-.72,2.26-2.19,2.26-1.09,0-1.61-.55-1.7-1.15l-2.59.09ZM127.12,173.4c-1.24,0-2.28-.89-2.28-2.63,0-1.52,1.05-2.48,2.22-2.48s2.22.96,2.22,2.55-1.09,2.55-2.17,2.55ZM115.98,175.89h2.54l.02-4.18c0-1.41.35-2.05.76-2.5.48-.5,1.02-.74,1.72-.74.15,0,.28.02.43.04l.02-2.24c-.13-.02-.33-.06-.54-.06-1.11,0-2.07.7-2.35,1.69l-.09-1.43h-2.48l-.02,9.42ZM109.24,176.24c2.87,0,4.96-2.02,4.96-5.09s-2.06-5.04-4.98-5.04-4.94,2.04-4.94,5.02,2.11,5.11,4.96,5.11ZM109.24,174.26c-1.2,0-2.37-.93-2.37-3.02,0-2.26,1.13-3.15,2.37-3.15s2.37.91,2.37,3.06-1.15,3.11-2.37,3.11ZM93.87,175.89h2.54l-.02-3.09,1.07-1.05,2.59,4.15h3.09l-3.87-5.8,3.39-3.63h-3l-3.26,3.59-.02-7.28h-2.54l.02,13.11ZM83.32,172.74c.06,1.78,1.55,3.48,4.44,3.48s4.22-1.57,4.22-3.26c0-.59-.2-1.18-.57-1.65-.35-.44-.81-.78-1.92-1.04l-2.7-.63c-.57-.15-.8-.5-.8-.83,0-.37.33-.94,1.57-.94,1.33,0,1.93.7,1.94,1.46l2.24-.04c-.06-.94-.56-1.89-1.35-2.48-.56-.39-1.43-.72-2.8-.72-2.72,0-3.93,1.46-3.93,3.07,0,.76.22,1.3.67,1.78.33.35.74.65,1.8.87l2.04.46c1.19.26,1.33.63,1.33,1.07,0,.41-.39,1.05-1.8,1.05-1.33,0-2-.7-2.07-1.68l-2.31.02ZM76.67,175.89h2.54l.02-4.18c0-1.41.35-2.05.76-2.5.48-.5,1.02-.74,1.72-.74.15,0,.28.02.43.04l.02-2.24c-.13-.02-.33-.06-.54-.06-1.11,0-2.07.7-2.35,1.69l-.09-1.43h-2.48l-.02,9.42ZM67.91,171.87l7,.02c0-2.8-1.26-5.76-4.78-5.76s-4.74,2.87-4.74,5.02c0,3.13,2.07,5.07,4.72,5.07s4.24-1.43,4.63-3.07l-2.56-.17c-.48.87-1.13,1.22-1.96,1.22-1.2,0-2.18-.81-2.31-2.33ZM68.02,170.03c.15-1.15,1.09-1.92,2.06-1.92,1.04,0,1.93.7,2.11,1.92h-4.17ZM56.89,174.79c.54.87,1.48,1.41,2.76,1.41,2.57,0,4.17-2.39,4.17-5.07s-1.55-4.96-4.13-4.96c-1.15,0-2.07.46-2.74,1.28l-.11-.96-2.5.02.02,12.46h2.52l.02-4.17ZM59.15,174.26c-1.2,0-2.24-.82-2.24-2.85,0-2.28,1.11-3.07,2.15-3.07s2.19.85,2.19,2.94c0,1.39-.59,2.96-2.09,2.98ZM45.64,174.79c.54.87,1.48,1.41,2.76,1.41,2.57,0,4.17-2.39,4.17-5.07s-1.55-4.96-4.13-4.96c-1.15,0-2.07.46-2.74,1.28l-.11-.96-2.5.02.02,12.46h2.52l.02-4.17ZM47.89,174.26c-1.2,0-2.24-.82-2.24-2.85,0-2.28,1.11-3.07,2.15-3.07s2.19.85,2.19,2.94c0,1.39-.59,2.96-2.09,2.98ZM38.38,174.81c.06.46.15.8.3,1.07h2.59c-.33-.39-.41-.67-.43-.98v-5.17c0-2.26-1.17-3.61-4.24-3.61-2.85,0-4.04,1.55-3.98,3.15l2.24.04c0-.7.52-1.37,1.81-1.37s1.67.61,1.67,1.06c0,.39-.24.74-.93.87l-1.46.24c-2.07.37-2.63.76-3.04,1.11-.55.5-.87,1.2-.87,1.96,0,1.55,1.24,2.96,3.61,2.96,1.37,0,2.19-.46,2.72-1.33ZM38.4,170.92l-.02,1.18c0,1.33-.83,2.17-2.28,2.17-1.06,0-1.57-.63-1.57-1.2,0-.44.17-.94,1.76-1.39l1.09-.3c.48-.13.81-.32,1.02-.46ZM23.77,174.79c.54.87,1.48,1.41,2.76,1.41,2.57,0,4.17-2.39,4.17-5.07s-1.55-4.96-4.13-4.96c-1.15,0-2.07.46-2.74,1.28l-.11-.96-2.5.02.02,12.46h2.52l.02-4.17Z"/>
</svg>