<svg xmlns="http://www.w3.org/2000/svg" viewBox="0 0 595.28 850.36"><defs><style>.a{fill:#e5e8eb;}.a,.b,.c{fill-rule:evenodd;}.b{fill:#000100;}.c{fill:#1e3b72;}</style></defs><title>M030_C</title><polyline class="a" points="0 850.36 595.28 850.36 595.28 0 0 0 0 850.36"/><path class="b" d="M192.64,626.08l7-22,6.55,22H192.64Zm218.37,15,0.43,3.74h9.79l-0.07-51h-9.87v18.5c-1.8-2.88-5.9-5.33-10.58-5.33-8.2,0-16.27,6.84-16.27,19.66a21.4,21.4,0,0,0,4.75,14,13.77,13.77,0,0,0,11.16,5.33A13.06,13.06,0,0,0,411,641.12Zm-7.78-3.53c-4.61,0-8.71-3.31-8.71-11.09,0-8.71,4.25-11.81,8.35-11.81s8.28,3.1,8.28,11.52C411.15,634.29,406.9,637.52,403.23,637.6Zm-58.53,7.27h9.86l0.07-20.52c0-2.88.58-4.25,1.37-5.4a7.4,7.4,0,0,1,6-3.1c3.38,0,5.83,2.23,5.83,6.33v22.68h9.86V619c0-6.84-5-12.1-12.67-12.1-5.25,0-8.92,2.81-10.15,5.69l-0.43-4.32-9.65-.07Zm-18.36-4.18a14.87,14.87,0,0,0,1.29,4.18h10c-0.58-.51-1.58-2.16-1.58-5.18L336,621a20.72,20.72,0,0,0-.58-5c-1.44-5-5.54-9.07-15.48-9.07-11.45,0-15.91,5.83-15.91,12.24l8.64,0.14c0.43-2.45.79-3,1.58-3.67s2.73-1.73,5.69-1.73c4.61,0,6.41,2.45,6.41,4.18s-1.16,3-3.82,3.46l-9.86,1.73c-7.42,1.29-10.87,6.12-10.87,10.94,0,6.34,4.89,11.74,13.75,11.74C321.65,645.95,325,643.5,326.34,640.69Zm0.07-15.34-0.07,5.47c-0.22,4.61-3.31,7.78-8.71,7.78-4.1,0-6.12-2.45-6.12-4.61,0-1.73.86-4,6.7-5.4l4.32-1.15A8.1,8.1,0,0,0,326.41,625.36Zm-5.9-21.53,9.86,0.07,0.07-10H320.5v9.94Zm-12.89,0h9.87l0.07-10h-9.87Zm-29.66,41h9.79l12.45-36.65h-9.93l-7.34,24.12-7.28-24h-10Zm-50,0h9.86l0.07-20.52c0-2.88.58-4.25,1.37-5.4a7.4,7.4,0,0,1,6-3.1c3.38,0,5.83,2.23,5.83,6.33v22.68H261V619c0-6.84-5-12.1-12.67-12.1-5.25,0-8.93,2.81-10.15,5.69l-0.43-4.32-9.65-.07Zm-52,0h10.65l3.46-10.73h18.43l3.31,10.73h10.8l-17.49-51h-11.3Z" transform="translate(-0.99 -0.95)"/><path class="b" d="M102.2,725.61c-4.68,0-8.71-3.17-8.71-11.09,0-8.86,4.32-12,8.35-12s8.5,3.31,8.5,11.45C110.34,719.42,108,725.54,102.2,725.61ZM478.6,734c0.43,3.46,1.44,5.4,3.53,7.35,2.23,2.16,6.41,4.18,13.46,4.18,7.92,0,13-3,15.48-6.12,1.66-2.23,2.59-4.25,2.59-9.72l-0.07-34.34h-9.36l-0.36,4.46c-0.65-1.15-2.66-5.76-10.8-5.76-8.85,0-16.63,7.05-16.63,18.36s7.78,18.43,16.49,18.43c5.91,0,9.5-2.66,10.95-5.47l-0.07,4c0,6.19-2.81,8.78-8.5,8.78-4.25,0-6.26-2.16-6.62-4.46Zm16.7-11.66c-4.82,0-8.85-3.46-8.85-10.23,0-5.9,4.1-9.65,8.64-9.65s8.64,3.74,8.64,9.93S499.48,722.3,495.3,722.3ZM452,732h9.86l0.07-16.27c0-5.47,1.37-8,3-9.72a8.73,8.73,0,0,1,6.7-2.88,12.56,12.56,0,0,1,1.66.14l0.07-8.71a14,14,0,0,0-2.08-.22,9.39,9.39,0,0,0-9.15,6.55l-0.36-5.54H452Zm-26.21,1.37c11.16,0,19.29-7.85,19.29-19.8,0-11.59-8-19.59-19.37-19.59-11.09,0-19.22,7.92-19.22,19.51C406.46,725.54,414.67,733.32,425.75,733.32Zm0-7.71c-4.68,0-9.22-3.6-9.22-11.74,0-8.78,4.39-12.24,9.22-12.24s9.22,3.53,9.22,11.88C435,722.09,430.51,725.61,425.75,725.61ZM366,732h9.86l-0.07-12,4.18-4.11L390,732h12l-15-22.54L400.2,695.3H388.53l-12.67,14L375.79,681h-9.86Zm-41-12.24c0.22,6.91,6,13.54,17.28,13.54,11.45,0,16.41-6.12,16.41-12.67a10.33,10.33,0,0,0-2.23-6.41c-1.36-1.73-3.17-3-7.48-4l-10.51-2.45c-2.23-.58-3.09-1.94-3.09-3.24s1.3-3.67,6.12-3.67c5.18,0,7.49,2.74,7.56,5.69l8.71-.14a13.25,13.25,0,0,0-5.26-9.65c-2.16-1.51-5.54-2.81-10.87-2.81-10.58,0-15.26,5.69-15.26,12a9.45,9.45,0,0,0,2.59,6.91c1.3,1.37,2.88,2.52,7,3.38l7.92,1.8c4.61,1,5.18,2.45,5.18,4.18s-1.51,4.1-7,4.1c-5.18,0-7.77-2.73-8.06-6.55ZM299.11,732H309L309,715.68c0-5.47,1.37-8,3-9.72a8.73,8.73,0,0,1,6.7-2.88,12.55,12.55,0,0,1,1.66.14l0.07-8.71a14.17,14.17,0,0,0-2.09-.22,9.39,9.39,0,0,0-9.15,6.55l-0.36-5.54h-9.65Zm-34.06-15.62,27.22,0.07c0-10.87-4.9-22.39-18.58-22.39-14,0-18.43,11.16-18.43,19.51,0,12.17,8.06,19.73,18.36,19.73s16.49-5.54,18-12l-9.94-.65c-1.87,3.38-4.39,4.75-7.63,4.75C269.38,725.4,265.56,722.23,265.06,716.33Zm0.43-7.13a8.37,8.37,0,0,1,8-7.49c4,0,7.49,2.74,8.21,7.49h-16.2Zm-43.27,18.5c2.09,3.39,5.76,5.47,10.73,5.47,10,0,16.2-9.29,16.2-19.73,0-10-6-19.29-16.05-19.29a13.25,13.25,0,0,0-10.65,5L222,695.38l-9.72.07,0.07,48.45h9.79Zm8.78-2.09c-4.68,0-8.71-3.17-8.71-11.09,0-8.86,4.32-12,8.35-12s8.5,3.31,8.5,11.45C239.14,719.42,236.84,725.54,231,725.61Zm-52.56,2.09c2.09,3.39,5.76,5.47,10.73,5.47,10,0,16.2-9.29,16.2-19.73,0-10-6-19.29-16.05-19.29a13.26,13.26,0,0,0-10.65,5l-0.43-3.74-9.72.07,0.07,48.45h9.79Zm8.78-2.09c-4.68,0-8.71-3.17-8.71-11.09,0-8.86,4.32-12,8.35-12s8.5,3.31,8.5,11.45C195.37,719.42,193.06,725.54,187.23,725.61Zm-37,2.16a11.56,11.56,0,0,0,1.15,4.18h10.08a5.8,5.8,0,0,1-1.66-3.82V708c0-8.78-4.54-14-16.49-14-11.09,0-15.7,6-15.48,12.24l8.71,0.14c0-2.74,2-5.33,7.06-5.33,4.82,0,6.48,2.38,6.48,4.11,0,1.51-.93,2.88-3.6,3.38l-5.68.94c-8.06,1.44-10.22,3-11.81,4.32a10.2,10.2,0,0,0-3.38,7.63c0,6.05,4.82,11.52,14,11.52C145,733,148.13,731.16,150.22,727.77Zm0.07-15.12-0.07,4.61c0,5.18-3.24,8.42-8.85,8.42-4.11,0-6.12-2.45-6.12-4.68,0-1.73.65-3.67,6.84-5.4l4.25-1.15A12,12,0,0,0,150.29,712.66Zm-56.88,15c2.09,3.39,5.76,5.47,10.73,5.47,10,0,16.2-9.29,16.2-19.73,0-10-6-19.29-16.05-19.29a13.25,13.25,0,0,0-10.65,5l-0.43-3.74-9.72.07,0.07,48.45h9.79Z" transform="translate(-0.99 -0.95)"/><path class="c" d="M227.29,123.53a27.1,27.1,0,1,0,27.11-27.11A27.09,27.09,0,0,0,227.29,123.53Zm164,106-61.75-19L281.11,168.4a13.21,13.21,0,0,0-5.72-3.13v0l-60-16.08v0a13.56,13.56,0,0,0-14.16,4.71l-43.33,49.9a19.14,19.14,0,0,0-1.52,1.89l0,0.06-38.58,55c-10.4,14.83,11.85,30.42,22.25,15.6l38.37-54.72,25.48-29.33L183.3,269.1a15.69,15.69,0,0,0-.47,2.85l-6.47,84.93-10.29,84.2c-2.54,20.83,28.39,23.64,30.87,3.36l10.31-84.36c0-.22.05-0.44,0.07-0.67L213,283.8a15.9,15.9,0,0,0,1.7,5l35.95,72.45v81.73c0,20.71,31.07,20.71,31.07,0V357.59a15.54,15.54,0,0,0-1.63-6.91L244.78,279.5,268,193l45.14,39.26a13.45,13.45,0,0,0,5.73,3.4c21.56,6.43,43,13.27,64.5,19.88C400.67,260.82,408.65,234.83,391.32,229.51Zm54,67.12-14,161.77h-103l-14-161.77,17-1.47,12.65,146.22h71.8l12.64-146.22ZM395.47,424l-19.93,12.76L355.67,424l19.87-12.7Zm-19.93-59.42-19.87,12.75L375.54,390l19.93-12.73Zm12.19-61.4-19.88,12.72,19.88,12.76,19.87-12.76Zm7.74-18.63-19.93-12.72L355.67,284.5l19.87,12.75ZM36.42,298.59c0,144.79,117.43,262.21,262.22,262.21S560.77,443.37,560.77,298.59,443.42,36.44,298.63,36.44,36.42,153.8,36.42,298.59Z" transform="translate(-0.99 -0.95)"/></svg>