<?xml version="1.0" encoding="UTF-8"?>
<svg id="Lager_1" data-name="Lager 1" xmlns="http://www.w3.org/2000/svg" viewBox="0 0 153.09 218.69">
  <defs>
    <style>
      .cls-1 {
        fill: #1a4080;
      }

      .cls-1, .cls-2 {
        fill-rule: evenodd;
      }

      .cls-2 {
        fill: #fff;
      }
    </style>
  </defs>
  <polyline class="cls-2" points="0 218.69 153.09 218.69 153.09 0 0 0 0 218.69"/>
  <path class="cls-1" d="M93.55,38.65l.64.86c3.37,4.69,5.48,10.08,6.19,15.81l.11,1.07-4.63-6.57-1.75,1.23,8.01,11.36,5.84-12.61-1.95-.91-3.37,7.3-.12-1.08c-.73-6.07-3.02-11.95-6.61-16.91l-.64-.87-1.71,1.31ZM37.48,79.27l-.64-.89C12.57,39.99,62.97,1.56,93.55,35.14l.69.85-56.76,43.28ZM106.09,74.09v13.23h13.54l.57-1.13c1.64-3.45,2.88-7.1,3.68-10.85l.25-1.25h-18.03ZM117.2,91.54H35.94l-.78-1.25-.75-1.28h84.3l-.74,1.28-.78,1.25ZM103.57,87.35l-.22-.07c-1.18-.48-4.32-1.04-4.05-2.84.01-.09.05-.18.11-.26.31-.44,1.02-.34,1.49-.38.1,0,.45-.01.67-.01.9,0,1.83,0,2.73.01h.08l-.05-.11c-.48-.94-.96-2.09-1.53-2.97-.11-.17-.24-.31-.4-.43-.25-.19-.54-.21-.85-.24-.12-.01-.24-.02-.36-.03-.7-.06-1.41-.11-2.11-.25-.29-.06-.57-.13-.86-.18-.76-.14-1.79-1.12-1.15-1.91.07-.08.16-.14.26-.18,1.31-.46,2.87-.74,4.23-1.09h.08s-.02-.05-.02-.05c-3.65-4.41-1.8-2.65-7.01-2.62-.19,0-.38-.04-.57-.09-.68-.2-1.44-1.05-.76-1.69.05-.05.1-.09.16-.12,1.16-.71,2.48-1.3,3.7-1.92l.13-.06-.04-.03c-.76-.49-2.58-2.23-3.48-2.22-.06,0-.18,0-.19,0-1.16.33-3.99,1.87-5.07,1.08-.05-.04-.1-.07-.15-.11-.58-.49-.47-1,.07-1.46.11-.09.21-.19.31-.28.89-.8,1.83-1.56,2.75-2.33l.04-.02-.06-.03c-5.22-2.33-2.81-1.49-7.36.76-.85.42-2.37.41-2.21-.85,0-.06.01-.12.04-.17.65-1.19,1.7-2.43,2.51-3.55l.1-.13h-.07c-5.62-.99-3.01-.9-7.07,2.56-.7.6-2.26.74-2.11-.53.01-.12.04-.23.08-.34.46-1.26,1.02-2.53,1.57-3.77l.04-.09h-.06c-5.68.33-3.2-.14-6.22,4.03-.53.73-1.88,1.43-2.23.22-.02-.08-.04-.16-.03-.25.1-1.39.43-2.92.67-4.3v-.08s-1.26.37-1.26.37c-.11.03-.2.08-.29.15l-2.7,2.06-.22.85c-.31,1.16-.74,2.76-1.87,3-.9.19-1.07-.48-1.12-1.19l-.02-.2-4.14,3.16v.05s-.05.09-.05.09c-.16.31-.36.6-.66.78-.18.11-.4.18-.61.15h-.07s0-.01,0-.01l-4.19,3.19h0c-.1.32-.19.46-.39.7-.19.23-.48.41-.78.31l-.09-.03h-.03l-3.44,2.63v.04c.21.76.47,1.72.02,2.31-.69.89-1.69.02-2.13-.7l-.02-.03-2.97,2.28c.79,1.11,3.17,3.37,2.03,4.74-.38.46-1.13.05-1.63-.21-1.02-.55-1.9-1.3-2.89-1.89l-.12-.08v.04c-.11,1.13-.44,2.59-.33,3.69,0,.1.03.2.08.3.35.69,1.95,1.57,2.65,2.37l.43.44h61.31ZM17.57,65.3c0,32.57,26.42,58.99,58.99,58.99s58.97-26.42,58.97-58.99S109.13,6.33,76.56,6.33s-58.99,26.4-58.99,58.97Z"/>
  <polyline class="cls-1" points="10.06 133.7 143.05 133.7 143.05 208.93 10.06 208.93 10.06 133.7"/>
  <path class="cls-2" d="M49.28,150.21l1.8-5.67,1.69,5.67h-3.48ZM105.44,154.08l.11.96h2.52l-.02-13.11h-2.54v4.76c-.46-.74-1.52-1.37-2.72-1.37-2.11,0-4.19,1.76-4.19,5.05,0,1.5.48,2.74,1.22,3.61.78.94,1.74,1.37,2.87,1.37s2.07-.44,2.74-1.28ZM103.44,153.18c-1.18,0-2.24-.85-2.24-2.85,0-2.24,1.09-3.04,2.15-3.04s2.13.8,2.13,2.96-1.09,2.91-2.04,2.93ZM88.39,155.05h2.54l.02-5.28c0-.74.15-1.09.35-1.39.33-.48.92-.8,1.54-.8.87,0,1.5.57,1.5,1.63v5.83h2.54v-6.65c0-1.76-1.3-3.11-3.26-3.11-1.35,0-2.3.72-2.61,1.46l-.11-1.11-2.48-.02-.02,9.42ZM83.67,153.97c.06.37.19.78.33,1.07h2.57c-.15-.13-.41-.55-.41-1.33l-.02-4.81c-.04-.83-.09-1.07-.15-1.28-.37-1.3-1.43-2.33-3.98-2.33-2.94,0-4.09,1.5-4.09,3.15l2.22.04c.11-.63.2-.76.41-.94.22-.22.7-.45,1.46-.45,1.18,0,1.65.63,1.65,1.07s-.3.76-.98.89l-2.54.45c-1.91.33-2.8,1.57-2.8,2.81,0,1.63,1.26,3.02,3.54,3.02,1.57,0,2.43-.63,2.78-1.35ZM83.69,150.03l-.02,1.41c-.06,1.18-.85,2-2.24,2-1.06,0-1.57-.63-1.57-1.18,0-.44.22-1.02,1.72-1.39l1.11-.3c.41-.09.76-.3,1-.54ZM82.17,144.49l2.54.02.02-2.57h-2.56v2.55ZM78.85,144.49h2.54l.02-2.57h-2.54l-.02,2.57ZM71.22,155.05h2.52l3.2-9.42h-2.55l-1.89,6.2-1.87-6.18h-2.57l3.17,9.41ZM58.38,155.05h2.54l.02-5.28c0-.74.15-1.09.35-1.39.33-.48.93-.8,1.54-.8.87,0,1.5.57,1.5,1.63v5.83h2.54v-6.65c0-1.76-1.3-3.11-3.26-3.11-1.35,0-2.3.72-2.61,1.46l-.11-1.11-2.48-.02-.02,9.42ZM45.01,155.05h2.74l.89-2.76h4.74l.85,2.76h2.78l-4.5-13.11h-2.91l-4.59,13.11Z"/>
  <path class="cls-2" d="M33.86,165.18h2.56v-2.26h-2.56v2.26ZM117.92,174.96c.06.46.15.8.3,1.07h2.59c-.33-.39-.43-.67-.43-.98v-5.17c0-2.26-1.17-3.61-4.24-3.61-2.85,0-4.04,1.56-3.98,3.15l2.24.04c0-.7.52-1.37,1.82-1.37s1.65.61,1.65,1.05c0,.39-.22.74-.91.87l-1.46.24c-2.07.37-2.63.76-3.04,1.11-.56.5-.87,1.2-.87,1.96,0,1.55,1.22,2.96,3.61,2.96,1.37,0,2.18-.46,2.72-1.33ZM117.94,171.07l-.02,1.18c0,1.33-.83,2.17-2.28,2.17-1.06,0-1.57-.63-1.57-1.2,0-.44.15-.94,1.76-1.39l1.09-.3c.48-.13.81-.32,1.02-.46ZM105.7,176.03h2.54l.02-4.18c0-1.41.33-2.06.76-2.5.46-.5,1.02-.74,1.72-.74.15,0,.28.02.43.04l.02-2.24c-.13-.02-.33-.06-.54-.06-1.11,0-2.07.7-2.35,1.68l-.09-1.42h-2.48l-.02,9.42ZM101,174.96c.06.46.15.8.3,1.07h2.59c-.33-.39-.43-.67-.43-.98v-5.17c0-2.26-1.17-3.61-4.24-3.61-2.85,0-4.04,1.56-3.98,3.15l2.24.04c0-.7.52-1.37,1.81-1.37s1.65.61,1.65,1.05c0,.39-.22.74-.91.87l-1.46.24c-2.07.37-2.63.76-3.04,1.11-.56.5-.87,1.2-.87,1.96,0,1.55,1.22,2.96,3.61,2.96,1.37,0,2.18-.46,2.72-1.33ZM101.02,171.07l-.02,1.18c0,1.33-.83,2.17-2.28,2.17-1.06,0-1.57-.63-1.57-1.2,0-.44.15-.94,1.76-1.39l1.09-.3c.48-.13.82-.32,1.02-.46ZM83.83,176.03h2.5l.15-.96c.67.83,1.57,1.26,2.7,1.26,2.09,0,4.15-1.7,4.15-5.04s-2.09-5-4.13-5c-1.35,0-2.32.59-2.82,1.41v-4.78h-2.56v13.11ZM88.55,174.14c-1.06,0-2.15-.83-2.15-2.94s1.11-2.94,2.15-2.94c1.11,0,2.17.8,2.17,2.98s-1.07,2.91-2.17,2.91ZM76.98,176.03h2.54l.02-4.18c0-1.41.33-2.06.76-2.5.46-.5,1.02-.74,1.72-.74.15,0,.28.02.43.04l.02-2.24c-.13-.02-.33-.06-.54-.06-1.11,0-2.07.7-2.35,1.68l-.09-1.42h-2.48l-.02,9.42ZM68.22,172.02l7,.02c0-2.8-1.26-5.76-4.78-5.76s-4.74,2.87-4.74,5.02c0,3.13,2.07,5.07,4.72,5.07s4.24-1.43,4.63-3.07l-2.56-.17c-.48.87-1.15,1.22-1.96,1.22-1.2,0-2.18-.82-2.32-2.33ZM68.33,170.18c.15-1.15,1.09-1.93,2.06-1.93,1.04,0,1.93.7,2.09,1.93h-4.15ZM64.41,176.03v-1.94h-.94c-.32,0-.59-.17-.74-.35-.04-.07-.11-.22-.11-.74v-4.67h1.7v-1.72h-1.7l-.02-2.98h-2.52v2.98h-1.33v1.74l1.35-.02-.02,4.87c0,2.13.87,2.83,2.28,2.83h2.06ZM48.58,172.89c.06,1.78,1.56,3.48,4.44,3.48s4.22-1.57,4.22-3.26c0-.59-.2-1.18-.57-1.65-.35-.45-.81-.78-1.92-1.04l-2.7-.63c-.57-.15-.8-.5-.8-.83,0-.37.33-.94,1.56-.94,1.35,0,1.94.7,1.96,1.46l2.24-.04c-.06-.94-.56-1.89-1.35-2.48-.55-.39-1.43-.72-2.81-.72-2.7,0-3.91,1.46-3.91,3.07,0,.76.22,1.3.65,1.78.35.35.76.65,1.81.87l2.04.46c1.18.26,1.33.63,1.33,1.07,0,.41-.39,1.06-1.8,1.06-1.33,0-2-.7-2.07-1.69l-2.31.02ZM44.28,174.98l.15,1.05h2.37v-9.41l-2.52-.02v5.28c0,1.44-.85,2.18-1.87,2.18-.94,0-1.54-.5-1.54-1.83v-5.63h-2.54v6.48c0,1.24.37,1.91.94,2.44.54.5,1.33.82,2.35.82,1.17,0,2.07-.5,2.65-1.37ZM32.29,177.05l-.02,2.06,1.76-.02c1.61,0,2.39-.78,2.39-2.48v-10h-2.54l-.02,8.91c0,1.33-.39,1.54-1,1.54h-.57Z"/>
  <path class="cls-2" d="M41.67,195.33c.05,1.78,1.55,3.48,4.44,3.48s4.22-1.57,4.22-3.26c0-.59-.2-1.19-.57-1.65-.35-.45-.82-.78-1.93-1.04l-2.7-.63c-.57-.15-.8-.5-.8-.83,0-.37.33-.94,1.56-.94,1.35,0,1.94.7,1.96,1.46l2.24-.04c-.06-.94-.56-1.89-1.35-2.48-.56-.39-1.43-.72-2.81-.72-2.7,0-3.91,1.46-3.91,3.07,0,.76.22,1.3.65,1.78.35.35.76.65,1.82.87l2.04.46c1.19.26,1.33.63,1.33,1.07,0,.41-.39,1.06-1.8,1.06-1.33,0-2-.7-2.07-1.68l-2.31.02ZM111.38,198.48v-1.94h-.94c-.32,0-.59-.17-.74-.35-.04-.07-.11-.22-.11-.74v-4.67h1.7v-1.72h-1.7l-.02-2.98h-2.52v2.98h-1.33v1.74l1.35-.02-.02,4.87c0,2.13.87,2.83,2.28,2.83h2.06ZM97.61,194.46l7,.02c0-2.8-1.26-5.76-4.78-5.76s-4.74,2.87-4.74,5.02c0,3.13,2.07,5.07,4.72,5.07s4.24-1.43,4.63-3.07l-2.56-.17c-.48.87-1.15,1.22-1.96,1.22-1.2,0-2.19-.82-2.31-2.33ZM97.72,192.63c.15-1.15,1.09-1.93,2.06-1.93,1.04,0,1.93.7,2.09,1.93h-4.15ZM90.7,197.51l.11.96h2.5v-13.11h-2.56v4.76c-.44-.74-1.52-1.37-2.72-1.37-2.09,0-4.18,1.76-4.18,5.06,0,1.5.48,2.74,1.22,3.61.78.94,1.76,1.37,2.87,1.37s2.09-.45,2.76-1.28ZM88.7,196.61c-1.2,0-2.24-.85-2.24-2.85,0-2.24,1.09-3.04,2.13-3.04s2.15.8,2.15,2.96-1.09,2.91-2.04,2.93ZM79.46,197.51l.11.96h2.5v-13.11h-2.56v4.76c-.44-.74-1.52-1.37-2.72-1.37-2.07,0-4.17,1.76-4.17,5.06,0,1.5.48,2.74,1.22,3.61.78.94,1.76,1.37,2.85,1.37,1.15,0,2.09-.45,2.76-1.28ZM77.46,196.61c-1.19,0-2.22-.85-2.22-2.85,0-2.24,1.09-3.04,2.11-3.04,1.07,0,2.15.8,2.15,2.96s-1.09,2.91-2.04,2.93ZM63.43,199.55v1.98h1.87c2.2,0,2.72-1.74,2.92-2.31l3.59-10.17h-2.7l-1.87,5.83-1.98-5.83h-2.74l2.93,7.94c.19.52.26.87.26,1.3,0,.76-.43,1.28-1.52,1.26h-.76ZM52.23,198.48h2.54l-.02-3.09,1.07-1.06,2.59,4.15h3.09l-3.87-5.8,3.37-3.63h-2.98l-3.26,3.59-.02-7.28h-2.54l.02,13.11Z"/>
</svg>