<svg xmlns="http://www.w3.org/2000/svg" viewBox="0 0 595.28 850.37"><defs><style>.a{fill:#e5e8eb;}.a,.b,.c{fill-rule:evenodd;}.b{fill:#000100;}.c{fill:#1e3b72;}</style></defs><title>M031_C</title><polyline class="a" points="0 850.37 595.28 850.37 595.28 0 0 0 0 850.37"/><path class="b" d="M192.56,626.38l7-22,6.55,22H192.56Zm218.37,15,0.43,3.74h9.79l-0.07-51h-9.86v18.5c-1.8-2.88-5.91-5.33-10.58-5.33-8.21,0-16.27,6.84-16.27,19.66a21.41,21.41,0,0,0,4.75,14,13.78,13.78,0,0,0,11.16,5.33A13.06,13.06,0,0,0,410.93,641.43Zm-7.78-3.53c-4.61,0-8.71-3.31-8.71-11.09,0-8.71,4.25-11.81,8.35-11.81s8.28,3.1,8.28,11.52C411.08,634.59,406.83,637.83,403.16,637.9Zm-58.53,7.27h9.86l0.07-20.52c0-2.88.58-4.25,1.37-5.4a7.39,7.39,0,0,1,6-3.1c3.39,0,5.83,2.23,5.83,6.33v22.68h9.87V619.33c0-6.84-5-12.1-12.67-12.1-5.26,0-8.93,2.81-10.15,5.69l-0.43-4.32-9.65-.07ZM326.26,641a15,15,0,0,0,1.29,4.18h10C337,644.67,336,643,336,640l-0.07-18.72a20.47,20.47,0,0,0-.58-5c-1.44-5-5.54-9.07-15.48-9.07-11.45,0-15.91,5.83-15.91,12.24l8.64,0.14c0.43-2.45.79-3,1.58-3.67s2.74-1.73,5.69-1.73c4.61,0,6.41,2.45,6.41,4.18s-1.15,3-3.81,3.46l-9.87,1.73c-7.42,1.29-10.87,6.12-10.87,10.94,0,6.34,4.9,11.74,13.75,11.74C321.58,646.25,324.89,643.81,326.26,641Zm0.07-15.34-0.07,5.47c-0.22,4.61-3.31,7.78-8.71,7.78-4.11,0-6.12-2.45-6.12-4.61,0-1.73.86-4,6.7-5.4l4.32-1.15A8.13,8.13,0,0,0,326.34,625.66Zm-5.91-21.53,9.87,0.07,0.07-10h-9.94v9.93Zm-12.89,0h9.86l0.07-10h-9.87Zm-29.67,41h9.8l12.45-36.65h-9.93l-7.35,24.12-7.27-24h-10Zm-50,0h9.87l0.07-20.52c0-2.88.58-4.25,1.36-5.4a7.41,7.41,0,0,1,6-3.1c3.39,0,5.83,2.23,5.83,6.33v22.68h9.87V619.33c0-6.84-5-12.1-12.67-12.1-5.26,0-8.93,2.81-10.15,5.69l-0.43-4.32-9.65-.07Zm-52,0h10.65L190,634.45h18.43l3.31,10.73h10.8l-17.49-51h-11.3Z" transform="translate(-0.92 -1.25)"/><path class="b" d="M132.58,690.07h9.94v-8.78h-9.94v8.78Zm326.87,38a11.64,11.64,0,0,0,1.15,4.18h10.08a5.48,5.48,0,0,1-1.66-3.82V708.35c0-8.78-4.53-14-16.49-14-11.09,0-15.69,6-15.48,12.24l8.71,0.14c0-2.74,2-5.33,7.06-5.33,4.83,0,6.41,2.38,6.41,4.1,0,1.51-.86,2.88-3.53,3.38l-5.69.94c-8.06,1.44-10.22,3-11.81,4.32a10.2,10.2,0,0,0-3.38,7.63c0,6.05,4.75,11.52,14,11.52C454.2,733.26,457.37,731.46,459.45,728.08ZM459.52,713l-0.07,4.61c0,5.18-3.24,8.42-8.85,8.42-4.1,0-6.12-2.45-6.12-4.68,0-1.73.58-3.67,6.84-5.4l4.25-1.15A12.06,12.06,0,0,0,459.52,713Zm-47.59,19.29h9.86L421.87,716c0-5.47,1.3-8,3-9.72a8.62,8.62,0,0,1,6.7-2.88,12.53,12.53,0,0,1,1.66.14l0.07-8.71a14.17,14.17,0,0,0-2.09-.22,9.39,9.39,0,0,0-9.15,6.55l-0.36-5.54H412Zm-18.29-4.18a11.65,11.65,0,0,0,1.15,4.18h10.08a5.47,5.47,0,0,1-1.66-3.82V708.35c0-8.78-4.54-14-16.49-14-11.09,0-15.7,6-15.48,12.24L380,706.7c0-2.74,2-5.33,7.06-5.33,4.82,0,6.41,2.38,6.41,4.1,0,1.51-.87,2.88-3.53,3.38l-5.68.94c-8.06,1.44-10.23,3-11.81,4.32a10.18,10.18,0,0,0-3.38,7.63c0,6.05,4.75,11.52,14,11.52C388.39,733.26,391.56,731.46,393.65,728.08ZM393.72,713l-0.07,4.61c0,5.18-3.24,8.42-8.85,8.42-4.11,0-6.12-2.45-6.12-4.68,0-1.73.58-3.67,6.84-5.4l4.25-1.15A12.05,12.05,0,0,0,393.72,713ZM326.9,732.26h9.72l0.58-3.74a12.81,12.81,0,0,0,10.51,4.9c8.13,0,16.13-6.62,16.13-19.58,0-12.6-8.14-19.44-16.06-19.44-5.26,0-9,2.31-10.95,5.48V681.28H326.9v51Zm18.36-7.35c-4.1,0-8.35-3.24-8.35-11.45S341.23,702,345.26,702c4.32,0,8.43,3.1,8.43,11.59C353.69,721.67,349.51,724.91,345.26,724.91Zm-45,7.35h9.87L310.2,716c0-5.47,1.3-8,3-9.72a8.62,8.62,0,0,1,6.7-2.88,12.47,12.47,0,0,1,1.66.14l0.07-8.71a14.11,14.11,0,0,0-2.09-.22,9.39,9.39,0,0,0-9.15,6.55L310,695.61h-9.65Zm-34.06-15.62,27.22,0.07c0-10.87-4.9-22.39-18.58-22.39-14,0-18.43,11.16-18.43,19.51,0,12.17,8.06,19.73,18.36,19.73s16.49-5.54,18-12l-9.94-.65c-1.87,3.38-4.46,4.75-7.63,4.75C270.53,725.7,266.72,722.53,266.21,716.63Zm0.43-7.13a8.38,8.38,0,0,1,8-7.49c4,0,7.49,2.74,8.13,7.49H266.64Zm-15.26,22.75V724.7h-3.67a3.81,3.81,0,0,1-2.88-1.37,5.86,5.86,0,0,1-.43-2.88V702.3H251v-6.7H244.4L244.32,684h-9.79v11.59h-5.18v6.77l5.26-.07-0.07,18.94c0,8.28,3.38,11,8.86,11h8ZM189.82,720c0.22,6.91,6,13.54,17.28,13.54s16.41-6.12,16.41-12.67a10.34,10.34,0,0,0-2.23-6.41c-1.36-1.73-3.17-3-7.49-4L203.28,708c-2.23-.58-3.1-1.94-3.1-3.24s1.3-3.67,6.05-3.67c5.25,0,7.56,2.74,7.63,5.69l8.71-.14a13.25,13.25,0,0,0-5.26-9.65c-2.16-1.51-5.54-2.81-10.94-2.81-10.51,0-15.19,5.69-15.19,12a9.7,9.7,0,0,0,2.52,6.91c1.37,1.37,3,2.52,7.05,3.38l7.92,1.8c4.61,1,5.18,2.45,5.18,4.18s-1.51,4.11-7,4.11c-5.18,0-7.77-2.74-8.06-6.55Zm-16.7,8.13,0.58,4.11h9.22V695.68l-9.79-.07v20.52c0,5.61-3.31,8.5-7.27,8.5-3.67,0-6-1.94-6-7.13V695.61H150v25.2c0,4.82,1.44,7.42,3.67,9.5a13.11,13.11,0,0,0,9.15,3.17A11.77,11.77,0,0,0,173.12,728.15Zm-46.65,8.06-0.07,8,6.84-.07c6.26,0,9.29-3,9.29-9.65V695.61h-9.87l-0.07,34.63c0,5.18-1.51,6-3.89,6h-2.23Z" transform="translate(-0.92 -1.25)"/><path class="b" d="M163,807.14c0.21,6.91,6,13.54,17.28,13.54s16.42-6.12,16.42-12.67a10.36,10.36,0,0,0-2.23-6.41c-1.37-1.73-3.17-3-7.49-4l-10.51-2.45c-2.23-.58-3.1-1.94-3.1-3.24s1.29-3.67,6-3.67c5.26,0,7.56,2.74,7.63,5.69l8.71-.14a13.22,13.22,0,0,0-5.25-9.65c-2.16-1.51-5.54-2.81-10.95-2.81-10.51,0-15.19,5.69-15.19,11.95a9.72,9.72,0,0,0,2.52,6.91c1.37,1.37,3,2.52,7.06,3.38l7.92,1.8c4.61,1,5.18,2.45,5.18,4.18s-1.51,4.1-7,4.1c-5.18,0-7.78-2.73-8.06-6.55ZM434,819.38v-7.56h-3.67a3.8,3.8,0,0,1-2.88-1.37,5.78,5.78,0,0,1-.44-2.88V789.43h6.63v-6.7h-6.63L427,771.14h-9.79v11.59H412v6.77l5.25-.07-0.07,18.94c0,8.28,3.38,11,8.85,11h8Zm-53.56-15.62,27.22,0.07c0-10.87-4.9-22.39-18.58-22.39-14,0-18.43,11.16-18.43,19.51,0,12.17,8.06,19.73,18.36,19.73s16.49-5.54,18-12l-9.94-.65c-1.87,3.38-4.46,4.75-7.63,4.75C384.79,812.83,381,809.66,380.47,803.76Zm0.43-7.13a8.37,8.37,0,0,1,8-7.49c4,0,7.49,2.74,8.13,7.49H380.9Zm-27.29,19,0.43,3.74h9.72v-51h-9.94v18.51c-1.73-2.88-5.9-5.33-10.58-5.33-8.13,0-16.27,6.84-16.27,19.66a21.4,21.4,0,0,0,4.75,14,13.87,13.87,0,0,0,11.16,5.33A13.19,13.19,0,0,0,353.61,815.64Zm-7.77-3.53c-4.68,0-8.71-3.31-8.71-11.09,0-8.71,4.25-11.81,8.28-11.81s8.35,3.1,8.35,11.52C353.76,808.8,349.51,812,345.84,812.11Zm-35.93,3.53,0.43,3.74h9.72v-51h-9.94v18.51c-1.73-2.88-5.9-5.33-10.58-5.33-8.06,0-16.2,6.84-16.2,19.66a21.4,21.4,0,0,0,4.75,14,13.84,13.84,0,0,0,11.09,5.33A13.19,13.19,0,0,0,309.91,815.64Zm-7.77-3.53c-4.61,0-8.64-3.31-8.64-11.09,0-8.71,4.25-11.81,8.2-11.81,4.18,0,8.35,3.1,8.35,11.52C310.06,808.8,305.81,812,302.14,812.11Zm-54.57,11.45v7.7h7.27c8.57,0,10.58-6.77,11.37-9l14-39.53H269.67l-7.27,22.68-7.7-22.68H244l11.38,30.89a13.94,13.94,0,0,1,1,5c0,3-1.66,5-5.9,4.9h-3ZM204,819.38h9.86l-0.07-12,4.18-4.11,10.08,16.13h12l-15-22.54,13.1-14.11H226.54l-12.67,14-0.07-28.3h-9.87Z" transform="translate(-0.92 -1.25)"/><path class="c" d="M374,180.47l2.85,3.83a152.13,152.13,0,0,1,27.5,70.28l0.47,4.74-20.59-29.2-7.79,5.48,35.61,50.5L438,230l-8.68-4-15,32.45-0.51-4.77a161.59,161.59,0,0,0-29.4-75.14l-2.85-3.88ZM124.76,361l-2.83-4C14,186.45,238,15.6,374,164.87l3.09,3.79Zm305-23.06v58.82H489.9l2.52-5a217.87,217.87,0,0,0,16.35-48.22l1.11-5.56H429.71Zm49.38,77.56H117.92L114.45,410l-3.32-5.68H485.85L482.58,410Zm-60.46-18.72-1-.31c-5.24-2.15-19.19-4.64-18-12.64a2.79,2.79,0,0,1,.47-1.17c1.36-2,4.52-1.52,6.6-1.71,0.44,0,2-.05,3-0.05,4,0,8.15,0,12.13.05h0.35l-0.23-.47c-2.13-4.2-4.26-9.31-6.8-13.19a7.6,7.6,0,0,0-1.78-1.9,7,7,0,0,0-3.79-1.08c-0.54,0-1.08-.07-1.62-0.11a85.56,85.56,0,0,1-9.37-1.1c-1.28-.25-2.55-0.57-3.83-0.81-3.38-.61-7.94-5-5.1-8.48a2.54,2.54,0,0,1,1.14-.78c5.81-2.07,12.75-3.3,18.81-4.83l0.36-.07L409.9,348c-16.23-19.59-8-11.78-31.14-11.66a8.69,8.69,0,0,1-2.52-.41c-3-.91-6.41-4.68-3.37-7.52a4.43,4.43,0,0,1,.71-0.56c5.16-3.14,11-5.79,16.45-8.52l0.59-.27-0.16-.14C387.06,316.76,379,309,375,309.1c-0.29,0-.78,0-0.86,0-5.16,1.46-17.73,8.31-22.51,4.78-0.22-.16-0.45-0.3-0.66-0.48-2.58-2.16-2.07-4.43.3-6.49,0.47-.41.91-0.85,1.38-1.27,4-3.57,8.12-6.94,12.21-10.34l0.16-.11-0.28-.12c-23.22-10.38-12.48-6.64-32.71,3.39-3.75,1.86-10.51,1.82-9.83-3.78a2.08,2.08,0,0,1,.19-0.75c2.89-5.28,7.54-10.82,11.14-15.8l0.43-.58-0.31,0c-25-4.37-13.36-4-31.42,11.42-3.11,2.65-10.05,3.3-9.39-2.37a6.44,6.44,0,0,1,.36-1.5c2.07-5.62,4.54-11.26,7-16.74l0.18-.42-0.26,0c-25.25,1.45-14.21-.66-27.66,17.89-2.34,3.24-8.34,6.36-9.92,1a3.11,3.11,0,0,1-.14-1.1c0.43-6.16,1.91-13,3-19.12l0.06-.35-5.68,1.66a4.13,4.13,0,0,0-1.3.67l-12,9.17-1,3.79c-1.39,5.17-3.29,12.27-8.29,13.34-4,.86-4.75-2.12-5-5.29l-0.08-.9-18.41,14,0,0.24-0.2.39a8.19,8.19,0,0,1-2.93,3.47,4.25,4.25,0,0,1-2.71.68l-0.33,0h0l-18.62,14.18,0,0a8,8,0,0,1-1.74,3.08,3.3,3.3,0,0,1-3.45,1.39l-0.38-.12h-0.12L167.78,337.7l0,0.17c0.9,3.36,2.05,7.67,0,10.26-3,3.95-7.5.09-9.46-3.13l-0.07-.11L145.13,355c3.53,4.92,14.1,15,9,21.06-1.69,2-5,.24-7.24-0.95-4.51-2.43-8.45-5.79-12.86-8.39l-0.52-.34,0,0.19c-0.45,5-1.9,11.52-1.42,16.42a3.58,3.58,0,0,0,.35,1.31c1.57,3.08,8.68,7,11.78,10.53l1.9,1.94H418.63ZM36.35,298.89c0,144.79,117.43,262.21,262.21,262.21S560.71,443.67,560.71,298.89,443.35,36.74,298.56,36.74,36.35,154.1,36.35,298.89Z" transform="translate(-0.92 -1.25)"/></svg>