<svg xmlns="http://www.w3.org/2000/svg" viewBox="0 0 595.28 850.37"><defs><style>.a{fill:#e5e8eb;}.a,.b,.c{fill-rule:evenodd;}.b{fill:#000100;}.c{fill:#1e3b72;}</style></defs><title>M032_C</title><polyline class="a" points="0 850.37 595.28 850.37 595.28 0 0 0 0 850.37"/><path class="b" d="M46.52,626.38l6.91-22,6.62,22H46.52Zm520.62,18.79v-7.56h-3.67a3.69,3.69,0,0,1-2.88-1.36,5.88,5.88,0,0,1-.43-2.88V615.22h6.62v-6.7h-6.62l-0.07-11.59h-9.79v11.59H545.1v6.77l5.18-.07v18.94c0,8.28,3.38,11,8.85,11h8Zm-60.55,0h9.86l-0.07-12,4.18-4.1,10.08,16.13h12l-15-22.54,13.1-14.11H529l-12.6,14-0.07-28.3h-9.86Zm-41-12.24c0.21,6.91,6,13.54,17.28,13.54s16.41-6.12,16.41-12.67a10.34,10.34,0,0,0-2.23-6.41c-1.37-1.73-3.17-3-7.49-4L479,620.91c-2.23-.58-3.17-1.94-3.17-3.24S477.21,614,482,614c5.26,0,7.56,2.74,7.63,5.69l8.64-.14a12.77,12.77,0,0,0-5.26-9.65c-2.09-1.51-5.47-2.81-10.87-2.81-10.51,0-15.19,5.69-15.19,11.95a9.71,9.71,0,0,0,2.52,6.91c1.29,1.37,3,2.52,7.05,3.38l7.92,1.8c4.61,1,5.18,2.45,5.18,4.18s-1.58,4.1-7,4.1c-5.18,0-7.78-2.73-8.06-6.55Zm-16.77,12.24h9.86V608.52h-9.79ZM448.84,603h9.86V594.2h-9.86V603Zm-6.91,42.19v-7.56h-3.67a3.69,3.69,0,0,1-2.88-1.36,5.88,5.88,0,0,1-.43-2.88V615.22h6.62v-6.7h-6.62l-0.07-11.59h-9.79v11.59H419.9v6.77l5.18-.07v18.94c0,8.28,3.38,11,8.85,11h8ZM404.2,641a11.64,11.64,0,0,0,1.15,4.18h10.08a5.48,5.48,0,0,1-1.66-3.82V621.27c0-8.78-4.53-14-16.49-14-11.09,0-15.7,6-15.48,12.24l8.71,0.15c0-2.74,2-5.33,7.06-5.33,4.83,0,6.41,2.38,6.41,4.11,0,1.51-.94,2.88-3.6,3.38l-5.61.94c-8.06,1.44-10.22,3-11.81,4.32a10.2,10.2,0,0,0-3.38,7.63c0,6.05,4.75,11.52,14,11.52C398.95,646.18,402.11,644.38,404.2,641Zm0.07-15.12-0.07,4.61c0,5.19-3.24,8.43-8.85,8.43-4.1,0-6.12-2.45-6.12-4.68,0-1.73.58-3.67,6.84-5.4l4.25-1.15A12.05,12.05,0,0,0,404.28,625.87Zm-31,19.3v-7.56h-3.67a3.7,3.7,0,0,1-2.88-1.36,5.88,5.88,0,0,1-.43-2.88V615.22H373v-6.7h-6.63l-0.07-11.59h-9.8v11.59h-5.18v6.77l5.18-.07v18.94c0,8.28,3.39,11,8.86,11h8Zm-61.56-12.24c0.22,6.91,6,13.54,17.28,13.54s16.42-6.12,16.42-12.67a10.36,10.36,0,0,0-2.23-6.41c-1.37-1.73-3.17-3-7.49-4l-10.51-2.45c-2.23-.58-3.17-1.94-3.17-3.24s1.37-3.67,6.12-3.67c5.25,0,7.56,2.74,7.63,5.69l8.64-.14a12.78,12.78,0,0,0-5.25-9.65c-2.09-1.51-5.47-2.81-10.87-2.81-10.51,0-15.19,5.69-15.19,11.95a9.71,9.71,0,0,0,2.52,6.91c1.29,1.37,3,2.52,7.06,3.38l7.92,1.8c4.61,1,5.18,2.45,5.18,4.18s-1.58,4.1-7,4.1c-5.18,0-7.77-2.73-8.06-6.55Zm-46.8,8.5,0.36,3.74h9.79v-51h-9.93V612.7c-1.73-2.88-5.91-5.33-10.58-5.33-8.14,0-16.27,6.84-16.27,19.66a21.42,21.42,0,0,0,4.75,14,13.89,13.89,0,0,0,11.16,5.33A13.2,13.2,0,0,0,265,641.43Zm-7.78-3.53c-4.68,0-8.71-3.31-8.71-11.09,0-8.71,4.25-11.81,8.28-11.81s8.35,3.1,8.35,11.52C265.1,634.59,260.86,637.83,257.18,637.9Zm-58.61,7.27h9.87l0.07-20.52c0-2.88.58-4.25,1.36-5.4a7.41,7.41,0,0,1,6-3.1c3.38,0,5.91,2.23,5.91,6.33l-0.07,22.68h9.87V619.32c0-6.84-5-12.09-12.6-12.09-5.25,0-8.93,2.81-10.22,5.69l-0.36-4.32-9.72-.07ZM180.29,641a12.93,12.93,0,0,0,1.3,4.18h9.94C190.95,644.67,190,643,190,640l-0.14-18.72a18.33,18.33,0,0,0-.51-5c-1.51-5-5.61-9.07-15.55-9.07-11.37,0-15.91,5.83-15.91,12.24l8.71,0.15c0.36-2.45.72-3,1.51-3.67s2.81-1.73,5.76-1.73c4.61,0,6.33,2.45,6.33,4.18s-1.08,3-3.74,3.45l-9.94,1.73c-7.42,1.29-10.87,6.12-10.87,10.94,0,6.34,4.9,11.74,13.75,11.74C175.54,646.25,178.93,643.8,180.29,641Zm0-15.34v5.47c-0.29,4.61-3.38,7.78-8.71,7.78-4.18,0-6.12-2.45-6.12-4.61,0-1.73.86-4,6.7-5.4l4.25-1.15A8.09,8.09,0,0,0,180.29,625.66Zm-5.9-21.53,9.93,0.07v-10h-9.86Zm-12.82,0h9.87l0.07-10h-9.87Zm-29.74,41h9.72l12.53-36.65h-10l-7.35,24.12-7.27-24h-10Zm-50,0h9.87l0.07-20.52c0-2.88.58-4.25,1.37-5.4a7.4,7.4,0,0,1,6-3.1c3.38,0,5.9,2.23,5.9,6.33l-0.07,22.68h9.87V619.32c0-6.84-5-12.09-12.6-12.09-5.26,0-8.93,2.81-10.22,5.69l-0.36-4.32-9.72-.07Zm-52,0H40.54l3.39-10.73h18.5l3.24,10.73h10.8L59,594.2H47.74Z" transform="translate(-0.89 -1.25)"/><path class="b" d="M52.34,690.06h9.79v-8.78H52.34v8.78Zm471.08,42.19h9.86V716c0-5.47,1.37-8,3-9.72a8.63,8.63,0,0,1,6.7-2.88,13.63,13.63,0,0,1,1.66.14l0.07-8.71a14.68,14.68,0,0,0-2.16-.21,9.52,9.52,0,0,0-9.14,6.55l-0.29-5.54H523.5Zm-26.21,1.36c11.16,0,19.29-7.85,19.29-19.8,0-11.59-8.06-19.59-19.44-19.59-11,0-19.15,7.92-19.15,19.51C477.92,725.85,486.06,733.62,497.22,733.62Zm-0.07-7.7c-4.68,0-9.15-3.6-9.15-11.74,0-8.78,4.39-12.24,9.22-12.24s9.22,3.53,9.22,11.88C506.43,722.39,502,725.92,497.15,725.92Zm-59.76,6.34h9.86v-12l4.18-4.11,10,16.13h12.09l-15.12-22.54,13.17-14.11H459.92l-12.67,14-0.07-28.3h-9.79v51Zm-41-12.24c0.22,6.91,6,13.54,17.21,13.54,11.45,0,16.49-6.12,16.49-12.67a10.34,10.34,0,0,0-2.23-6.41c-1.36-1.73-3.17-3-7.49-4L409.81,708c-2.16-.58-3.1-1.94-3.1-3.24s1.37-3.67,6.12-3.67c5.25,0,7.56,2.74,7.56,5.69l8.71-.14a12.78,12.78,0,0,0-5.25-9.65c-2.09-1.51-5.54-2.81-10.87-2.81-10.51,0-15.19,5.69-15.19,11.95a9.41,9.41,0,0,0,2.52,6.91c1.29,1.37,2.88,2.52,7,3.38l8,1.8c4.61,1,5.11,2.45,5.11,4.18s-1.51,4.1-6.91,4.1c-5.18,0-7.77-2.73-8.13-6.55Zm-63.21-3.38,27.22,0.07c0-10.87-5-22.39-18.58-22.39-14.11,0-18.43,11.16-18.43,19.51,0,12.17,8.06,19.73,18.29,19.73s16.56-5.55,18-12l-9.86-.65c-1.87,3.38-4.46,4.75-7.63,4.75C337.53,725.7,333.71,722.53,333.21,716.63Zm0.43-7.13a8.38,8.38,0,0,1,8-7.49c4,0,7.49,2.74,8.13,7.49H333.64Zm-27.29,19,0.36,3.74h9.8v-51h-9.94v18.51c-1.8-2.88-5.9-5.33-10.51-5.33-8.21,0-16.27,6.84-16.27,19.66a21.4,21.4,0,0,0,4.75,14,13.87,13.87,0,0,0,11.16,5.33A13.25,13.25,0,0,0,306.35,728.51ZM298.58,725c-4.61,0-8.64-3.31-8.64-11.09,0-8.71,4.25-11.81,8.28-11.81s8.2,3.1,8.2,11.52C306.42,721.67,302.18,724.91,298.58,725Zm-35.64,3.1a10.31,10.31,0,0,0,1.15,4.18h10.08a5.48,5.48,0,0,1-1.66-3.82V708.35c0-8.78-4.53-14-16.49-14-11.09,0-15.69,6-15.48,12.24l8.64,0.14c0-2.74,2.09-5.33,7.13-5.33,4.83,0,6.41,2.38,6.41,4.11,0,1.51-.93,2.88-3.6,3.38l-5.61.94c-8.06,1.44-10.29,3-11.81,4.32a10.19,10.19,0,0,0-3.39,7.63c0,6.05,4.75,11.52,14,11.52C257.68,733.26,260.85,731.46,262.94,728.08Zm0-15.12v4.61c0,5.19-3.24,8.43-8.86,8.43-4.18,0-6.12-2.45-6.12-4.68,0-1.73.58-3.67,6.77-5.4l4.25-1.15A11.3,11.3,0,0,0,262.94,713Zm-47.52,19.3h9.86V716c0-5.47,1.37-8,3-9.72a8.63,8.63,0,0,1,6.7-2.88,13.76,13.76,0,0,1,1.66.14l0.07-8.71a14.74,14.74,0,0,0-2.16-.21,9.52,9.52,0,0,0-9.15,6.55l-0.29-5.54h-9.65Zm-34.13-15.62,27.22,0.07c0-10.87-5-22.39-18.58-22.39-14.11,0-18.43,11.16-18.43,19.51,0,12.17,8.06,19.73,18.29,19.73s16.56-5.55,18-12l-9.87-.65c-1.87,3.38-4.46,4.75-7.63,4.75C185.61,725.7,181.8,722.53,181.29,716.63Zm0.43-7.13a8.37,8.37,0,0,1,8-7.49c4,0,7.49,2.74,8.14,7.49H181.72Zm-27,22.75h9.86v-51H154.8Zm-26.21,1.36c11.16,0,19.29-7.85,19.29-19.8,0-11.59-8.06-19.59-19.44-19.59-11,0-19.15,7.92-19.15,19.51C109.22,725.85,117.36,733.62,128.52,733.62Zm-0.07-7.7c-4.68,0-9.14-3.6-9.14-11.74,0-8.78,4.39-12.24,9.22-12.24s9.22,3.53,9.22,11.88C137.73,722.39,133.27,725.92,128.45,725.92ZM69,720c0.21,6.91,6,13.54,17.21,13.54,11.45,0,16.49-6.12,16.49-12.67a10.34,10.34,0,0,0-2.23-6.41c-1.37-1.73-3.17-3-7.49-4L82.44,708c-2.16-.58-3.1-1.94-3.1-3.24s1.36-3.67,6.12-3.67c5.26,0,7.56,2.74,7.56,5.69l8.71-.14A12.77,12.77,0,0,0,96.48,697c-2.09-1.51-5.54-2.81-10.87-2.81-10.51,0-15.19,5.69-15.19,11.95A9.4,9.4,0,0,0,72.94,713c1.29,1.37,2.88,2.52,7,3.38l8,1.8c4.61,1,5.11,2.45,5.11,4.18s-1.51,4.1-6.91,4.1c-5.18,0-7.78-2.73-8.13-6.55ZM52.27,732.25h9.86V695.61H52.27v36.65Z" transform="translate(-0.89 -1.25)"/><path class="c" d="M446.72,274.12c-6.37,32.53-27.34,61.77-47.77,87l-4.64,5.37L390.78,364a130.12,130.12,0,0,0-82.22-21.61l-4.31.4,39-66.6c23.19-49,99.55-66.68,104.68-10.75C448.11,267,447.27,271.26,446.72,274.12Zm-99.05,196.6c-46.31,15.29-98.5,20.57-147,18.79l-3-.74,1.49-.28c26.71-7.55,72.54-120.89,82.68-145.25L285.76,333l12.81,18,4.32-.54a122.75,122.75,0,0,1,67.7,12.4l3.85,2-1.89,3.41c-24.36,40.64-.17,87.25-18.4,98.85A34.24,34.24,0,0,1,347.67,470.72Zm-10.1-106.84-20.29-7L271.6,431.73l29.65-5.46-17.72,34.34-4.29-8.45L278,475.83l20.43-11.88H289L325.46,413l-32.8,4.28Zm78.3-156.56-2.79-.94a29.62,29.62,0,0,0-5.76-1.46c-73-9.11-108.63,82.49-132,134.78-4.35,9.75-7.59,20-12.26,29.58-13.85,28.58-38.83,90.41-63,110.77a5.53,5.53,0,0,1-1.81.91c-9.85,3.36-13.81-11.82-13.75-18.61,0.05-4.71,2.83-8.69,5.61-12.31a57.33,57.33,0,0,1,12.41-11.93c1.58-1.08,3.18-2.13,4.86-3.06a11.34,11.34,0,0,0,5.27-6.43c3.18-9.75,5.86-19.65,8.1-29.66a387.29,387.29,0,0,0,8.27-53.15c0.42-5.1.46-10.23,1-15.33,3.36-33.09-8.25-31.6,11.18-55.71,8.65-10.73,15.83-22.55,24.17-33.51,45.13-59.37,69.83-95,140-44.76a46.24,46.24,0,0,1,8,7.94ZM236.78,242.17l6.08-8.25c28.44-32.81,57.32-89.36,109.3-82.59l2.82,0.51-0.55-2.59c-2.45-14.87.17-36.21,2.63-51l1.1-5.74,7.18,2.2-1,5.45c-2.55,18.56-7.45,45.34,2.67,62.41l1.37,2.35L366,163.6c-57.34-28.64-102.4,60.62-131.43,94.53l-6,8.75,0.09-7.94,0.23-7.88c0.72-26.52,4.48-50.43,9-76.4a33.76,33.76,0,0,0,.28-5.79c-0.12-17.17-9.72-37.31-12.33-55.48l-1.57-7.78-1.46-7.77,7.16-2.54,1.45,7.84c17,76.44,17.86,43.6,6.76,121.68l-0.75,8.67ZM36.31,298.88c0,144.79,117.43,262.22,262.22,262.22S560.67,443.67,560.67,298.88,443.32,36.74,298.53,36.74,36.31,154.1,36.31,298.88Z" transform="translate(-0.89 -1.25)"/></svg>