<?xml version="1.0" encoding="UTF-8"?>
<svg id="Lager_1" data-name="Lager 1" xmlns="http://www.w3.org/2000/svg" viewBox="0 0 153.09 218.69">
  <defs>
    <style>
      .cls-1 {
        fill: #1a4080;
      }

      .cls-1, .cls-2 {
        fill-rule: evenodd;
      }

      .cls-2 {
        fill: #fff;
      }
    </style>
  </defs>
  <polyline class="cls-2" points="0 218.69 153.09 218.69 153.09 0 0 0 0 218.69"/>
  <path class="cls-1" d="M109.9,59.73c-1.43,7.32-6.15,13.9-10.75,19.58l-1.04,1.21-.8-.56c-5.45-3.64-11.95-5.37-18.5-4.86l-.97.09,8.78-14.98c5.22-11.03,22.4-15,23.55-2.42.03.34-.16,1.3-.28,1.94ZM87.62,103.96c-10.42,3.44-22.16,4.63-33.07,4.23l-.67-.16.34-.06c6.01-1.7,16.32-27.2,18.6-32.68l.88-2.3,2.88,4.06.97-.12c5.24-.54,10.52.43,15.23,2.79l.87.46-.43.77c-5.48,9.14-.04,19.63-4.14,22.24-.47.3-1.02.65-1.46.79ZM85.35,79.91l-4.56-1.58-10.28,16.85,6.67-1.23-3.99,7.73-.96-1.9-.28,5.32,4.6-2.67h-2.12l8.2-11.46-7.38.96,10.1-12.02ZM102.96,44.7l-.63-.21c-.42-.14-.85-.27-1.3-.33-16.43-2.05-24.44,18.56-29.69,30.32-.98,2.19-1.71,4.49-2.76,6.66-3.12,6.43-8.73,20.34-14.17,24.92-.12.1-.26.15-.41.2-2.22.76-3.11-2.66-3.09-4.19.01-1.06.64-1.95,1.26-2.77.76-.99,1.76-1.98,2.79-2.68.35-.24.72-.48,1.09-.69.57-.31.98-.83,1.18-1.45.72-2.19,1.32-4.42,1.82-6.67.88-3.96,1.53-7.91,1.86-11.96.09-1.15.1-2.3.22-3.45.76-7.44-1.86-7.11,2.52-12.53,1.94-2.41,3.56-5.07,5.44-7.54,10.15-13.35,15.71-21.36,31.49-10.07.69.5,1.26,1.14,1.81,1.79l.55.65ZM62.68,52.53l1.37-1.86c6.4-7.38,12.89-20.1,24.59-18.58l.64.11-.12-.58c-.55-3.35.04-8.15.59-11.48l.25-1.29,1.62.5-.23,1.23c-.57,4.17-1.67,10.2.6,14.04l.31.53-.53-.29c-12.9-6.44-23.04,13.64-29.57,21.27l-1.35,1.97.02-1.79.05-1.77c.16-5.97,1.01-11.35,2.01-17.19.07-.41.07-.87.06-1.3-.03-3.86-2.19-8.39-2.77-12.48l-.35-1.75-.33-1.75,1.61-.57.33,1.76c3.83,17.2,4.02,9.81,1.52,27.38l-.17,1.95-.13,1.95ZM17.57,65.3c0,32.57,26.42,58.99,58.99,58.99s58.97-26.42,58.97-58.99S109.14,6.33,76.56,6.33s-58.99,26.4-58.99,58.97Z"/>
  <polyline class="cls-1" points="10.06 133.68 143.05 133.68 143.05 208.91 10.06 208.91 10.06 133.68"/>
  <path class="cls-2" d="M17.5,150.19l1.62-5.67,1.55,5.67h-3.17ZM139.54,155.02v-1.94h-.86c-.29,0-.56-.17-.67-.35-.03-.08-.1-.22-.1-.74v-4.67h1.55v-1.72h-1.55l-.02-2.98h-2.29v2.98h-1.22v1.74l1.22-.02v4.87c0,2.13.79,2.83,2.07,2.83h1.87ZM125.35,155.02h2.31l-.02-3.09.98-1.05,2.36,4.15h2.82l-3.53-5.79,3.07-3.63h-2.73l-2.95,3.59-.02-7.28h-2.31l.02,13.11ZM115.73,151.88c.05,1.78,1.4,3.48,4.05,3.48s3.85-1.57,3.85-3.26c0-.59-.19-1.18-.52-1.65-.32-.44-.74-.78-1.76-1.04l-2.46-.63c-.52-.15-.74-.5-.74-.83,0-.37.32-.94,1.43-.94,1.23,0,1.77.7,1.79,1.46l2.02-.04c-.03-.94-.49-1.89-1.23-2.48-.49-.39-1.28-.72-2.55-.72-2.46,0-3.56,1.46-3.56,3.07,0,.76.2,1.3.59,1.78.3.35.69.65,1.65.87l1.86.46c1.08.26,1.21.63,1.21,1.07,0,.41-.37,1.06-1.64,1.06s-1.82-.7-1.89-1.68l-2.11.02ZM111.79,155.02h2.31v-9.42h-2.3l-.02,9.42ZM111.81,144.17h2.31v-2.26h-2.31v2.26ZM110.19,155.02v-1.94h-.86c-.29,0-.56-.17-.67-.35-.03-.08-.1-.22-.1-.74v-4.67h1.55v-1.72h-1.55l-.02-2.98h-2.29v2.98h-1.22v1.74l1.22-.02v4.87c0,2.13.79,2.83,2.08,2.83h1.87ZM101.35,153.95c.05.46.14.8.27,1.07h2.36c-.3-.39-.39-.67-.39-.98v-5.17c0-2.26-1.06-3.61-3.86-3.61-2.6,0-3.68,1.55-3.63,3.15l2.04.04c0-.7.47-1.37,1.65-1.37s1.5.61,1.5,1.06c0,.39-.22.74-.84.87l-1.32.24c-1.89.37-2.4.76-2.77,1.11-.51.5-.79,1.2-.79,1.96,0,1.56,1.11,2.96,3.29,2.96,1.25,0,1.99-.46,2.48-1.33ZM101.36,150.06l-.02,1.18c0,1.33-.76,2.17-2.08,2.17-.96,0-1.43-.63-1.43-1.2,0-.44.14-.94,1.6-1.39l1-.3c.44-.13.74-.32.93-.46ZM94.11,155.02v-1.94h-.86c-.29,0-.56-.17-.67-.35-.03-.08-.1-.22-.1-.74v-4.67h1.55v-1.72h-1.55l-.02-2.98h-2.29v2.98h-1.21v1.74l1.21-.02v4.87c0,2.13.79,2.83,2.08,2.83h1.87ZM79.68,151.88c.05,1.78,1.4,3.48,4.05,3.48s3.85-1.57,3.85-3.26c0-.59-.19-1.18-.52-1.65-.32-.44-.74-.78-1.75-1.04l-2.46-.63c-.52-.15-.74-.5-.74-.83,0-.37.32-.94,1.43-.94,1.23,0,1.77.7,1.79,1.46l2.02-.04c-.03-.94-.49-1.89-1.23-2.48-.49-.39-1.28-.72-2.55-.72-2.46,0-3.56,1.46-3.56,3.07,0,.76.2,1.3.59,1.78.3.35.69.65,1.65.87l1.86.46c1.08.26,1.21.63,1.21,1.07,0,.41-.37,1.06-1.64,1.06s-1.82-.7-1.89-1.68l-2.11.02ZM68.71,154.06l.08.96h2.29v-13.11h-2.33v4.76c-.4-.74-1.38-1.37-2.48-1.37-1.91,0-3.81,1.76-3.81,5.05,0,1.5.44,2.74,1.11,3.61.71.94,1.6,1.37,2.62,1.37s1.91-.44,2.51-1.28ZM66.88,153.15c-1.1,0-2.04-.85-2.04-2.85,0-2.24,1-3.04,1.94-3.04s1.96.8,1.96,2.96-1,2.91-1.86,2.92ZM53.15,155.02h2.31l.02-5.28c0-.74.13-1.09.32-1.39.3-.48.84-.8,1.4-.8.79,0,1.38.57,1.38,1.63l-.02,5.83h2.31v-6.65c0-1.76-1.18-3.11-2.95-3.11-1.23,0-2.09.72-2.4,1.46l-.08-1.11-2.28-.02-.02,9.42ZM48.86,153.95c.05.37.15.78.3,1.07h2.33c-.13-.13-.35-.55-.35-1.33l-.03-4.81c-.02-.83-.07-1.07-.12-1.28-.35-1.3-1.32-2.33-3.65-2.33-2.67,0-3.73,1.5-3.73,3.15l2.04.04c.08-.63.17-.76.35-.94.22-.22.66-.44,1.35-.44,1.08,0,1.49.63,1.49,1.07s-.25.76-.88.89l-2.33.45c-1.74.33-2.55,1.57-2.55,2.81,0,1.63,1.15,3.02,3.22,3.02,1.43,0,2.23-.63,2.55-1.35ZM48.86,150.01v1.41c-.07,1.18-.79,2-2.04,2-.98,0-1.43-.63-1.43-1.18,0-.45.2-1.02,1.57-1.39l1-.3c.37-.09.69-.3.91-.54ZM47.48,144.47l2.33.02v-2.57h-2.31l-.02,2.56ZM44.47,144.47h2.31l.02-2.57h-2.31l-.02,2.57ZM37.5,155.02h2.28l2.94-9.42h-2.35l-1.72,6.2-1.7-6.18h-2.35l2.9,9.41ZM25.77,155.02h2.31l.02-5.28c0-.74.13-1.09.32-1.39.3-.48.84-.8,1.4-.8.79,0,1.38.57,1.38,1.63l-.02,5.83h2.31v-6.65c0-1.76-1.18-3.11-2.95-3.11-1.23,0-2.09.72-2.4,1.46l-.08-1.11-2.28-.02-.02,9.42ZM13.59,155.02h2.51l.79-2.76h4.34l.76,2.76h2.53l-4.08-13.11h-2.65l-4.2,13.11Z"/>
  <path class="cls-2" d="M13.6,166.54h2.5v-2.26h-2.5v2.26ZM134.08,177.39h2.52v-4.18c0-1.41.35-2.06.77-2.5.46-.5,1.01-.74,1.71-.74.13,0,.28.02.42.04l.02-2.24c-.13-.02-.33-.05-.55-.05-1.09,0-2.04.7-2.34,1.68l-.07-1.43h-2.47l-.02,9.43ZM127.37,177.74c2.85,0,4.93-2.02,4.93-5.09s-2.06-5.04-4.97-5.04-4.9,2.04-4.9,5.02,2.08,5.11,4.93,5.11ZM127.35,175.76c-1.2,0-2.34-.93-2.34-3.02,0-2.26,1.12-3.15,2.36-3.15s2.36.91,2.36,3.05-1.14,3.11-2.38,3.11ZM112.07,177.39h2.52v-3.09l1.07-1.05,2.56,4.15h3.09l-3.87-5.8,3.37-3.63h-2.98l-3.24,3.59-.02-7.28h-2.5v13.11ZM101.59,174.24c.06,1.78,1.53,3.48,4.4,3.48s4.22-1.57,4.22-3.26c0-.59-.2-1.18-.57-1.65-.35-.44-.81-.78-1.92-1.04l-2.71-.63c-.55-.15-.79-.5-.79-.83,0-.37.35-.94,1.57-.94,1.34,0,1.93.7,1.93,1.46l2.23-.04c-.04-.94-.53-1.89-1.34-2.48-.53-.39-1.42-.72-2.78-.72-2.69,0-3.89,1.46-3.89,3.07,0,.76.2,1.3.65,1.78.33.35.74.65,1.79.87l2.04.46c1.18.26,1.31.63,1.31,1.07,0,.41-.39,1.05-1.77,1.05s-1.99-.7-2.08-1.68l-2.28.02ZM85.43,173.37l6.96.02c0-2.8-1.27-5.76-4.75-5.76s-4.71,2.87-4.71,5.02c0,3.13,2.06,5.07,4.68,5.07s4.24-1.43,4.6-3.07l-2.52-.17c-.48.87-1.14,1.22-1.95,1.22-1.2,0-2.17-.82-2.3-2.33ZM85.54,171.54c.15-1.15,1.09-1.93,2.04-1.93,1.03,0,1.92.7,2.08,1.93h-4.12ZM78.56,176.43l.09.96h2.5v-13.11h-2.54v4.76c-.46-.74-1.51-1.37-2.69-1.37-2.1,0-4.16,1.76-4.16,5.05,0,1.5.48,2.74,1.21,3.61.77.94,1.75,1.37,2.85,1.37s2.04-.44,2.73-1.28ZM76.57,175.52c-1.18,0-2.21-.85-2.21-2.85,0-2.24,1.09-3.04,2.12-3.04s2.1.8,2.1,2.96-1.09,2.91-2.01,2.92ZM67.46,176.32c.04.46.15.8.29,1.07h2.58c-.33-.39-.42-.67-.42-.98v-5.17c0-2.26-1.16-3.61-4.22-3.61-2.84,0-4.01,1.55-3.96,3.15l2.21.04c0-.7.53-1.37,1.82-1.37s1.64.61,1.64,1.06c0,.39-.24.74-.92.87l-1.44.24c-2.06.37-2.63.76-3.02,1.11-.55.5-.87,1.2-.87,1.96,0,1.56,1.22,2.96,3.59,2.96,1.36,0,2.17-.46,2.71-1.33ZM67.46,172.43v1.18c0,1.33-.83,2.17-2.26,2.17-1.07,0-1.57-.63-1.57-1.2,0-.44.15-.94,1.73-1.39l1.09-.3c.5-.13.81-.32,1.01-.46ZM55.3,177.39h2.52v-4.18c0-1.41.35-2.06.77-2.5.46-.5,1.01-.74,1.71-.74.13,0,.28.02.42.04l.02-2.24c-.13-.02-.33-.05-.55-.05-1.09,0-2.04.7-2.34,1.68l-.07-1.43h-2.47l-.02,9.43ZM46.58,173.37l6.96.02c0-2.8-1.27-5.76-4.75-5.76s-4.71,2.87-4.71,5.02c0,3.13,2.06,5.07,4.68,5.07s4.24-1.43,4.6-3.07l-2.52-.17c-.48.87-1.14,1.22-1.95,1.22-1.2,0-2.17-.82-2.3-2.33ZM46.69,171.54c.15-1.15,1.09-1.93,2.04-1.93,1.03,0,1.92.7,2.08,1.93h-4.12ZM39.78,177.39h2.52v-13.11h-2.5l-.02,13.11ZM33.08,177.74c2.85,0,4.93-2.02,4.93-5.09s-2.06-5.04-4.97-5.04-4.9,2.04-4.9,5.02,2.08,5.11,4.93,5.11ZM33.06,175.76c-1.2,0-2.34-.93-2.34-3.02,0-2.26,1.12-3.15,2.36-3.15s2.36.91,2.36,3.05-1.14,3.11-2.38,3.11ZM17.87,174.24c.06,1.78,1.53,3.48,4.4,3.48s4.22-1.57,4.22-3.26c0-.59-.2-1.18-.57-1.65-.35-.44-.81-.78-1.91-1.04l-2.71-.63c-.55-.15-.79-.5-.79-.83,0-.37.35-.94,1.57-.94,1.34,0,1.93.7,1.93,1.46l2.23-.04c-.04-.94-.53-1.89-1.34-2.48-.53-.39-1.42-.72-2.78-.72-2.69,0-3.89,1.46-3.89,3.07,0,.76.2,1.3.65,1.78.33.35.74.65,1.79.87l2.04.46c1.18.26,1.31.63,1.31,1.07,0,.41-.39,1.05-1.77,1.05s-1.99-.7-2.08-1.68l-2.28.02ZM13.58,177.39h2.52v-9.43h-2.52v9.43Z"/>
</svg>