<?xml version="1.0" encoding="UTF-8"?>
<svg id="Lager_1" data-name="Lager 1" xmlns="http://www.w3.org/2000/svg" viewBox="0 0 153.09 218.69">
  <defs>
    <style>
      .cls-1 {
        fill: #1a4080;
      }

      .cls-1, .cls-2 {
        fill-rule: evenodd;
      }

      .cls-2 {
        fill: #fff;
      }
    </style>
  </defs>
  <polyline class="cls-2" points="0 218.69 153.09 218.69 153.09 0 0 0 0 218.69"/>
  <path class="cls-1" d="M17.57,65.3c0,32.57,26.42,58.99,58.99,58.99s58.98-26.42,58.98-58.99S109.13,6.33,76.56,6.33s-58.99,26.4-58.99,58.97ZM76.66,20.35c-3.32,0-6.72,1.6-9.08,4.27-1.9,2.16-2.83,4.73-2.54,7.05l6.58,48.52c.24,1.58,1.22,5.32,5.04,5.32s4.85-4.1,5.04-5.36l6.59-48.51c.27-2.3-.68-4.88-2.6-7.05-2.36-2.66-5.74-4.25-9.03-4.25ZM76.66,96.74c-3.39,0-6.14,2.76-6.14,6.14s2.76,6.14,6.14,6.14,6.15-2.75,6.15-6.14-2.76-6.14-6.15-6.14Z"/>
  <polyline class="cls-1" points="10.06 133.72 143.05 133.72 143.05 208.95 10.06 208.95 10.06 133.72"/>
  <path class="cls-2" d="M60.3,152.08c-3.17,0-3.67-3.52-3.67-4.72,0-3.3,1.87-4.78,3.61-4.78s3.61,1.5,3.61,4.78c0,1.43-.43,2.59-1,3.37-.65.93-1.5,1.35-2.56,1.35ZM90.74,153.88h2.54l.02-5.28c0-.74.15-1.09.35-1.39.33-.48.93-.8,1.54-.8.87,0,1.5.57,1.5,1.63v5.83h2.54v-6.65c0-1.76-1.3-3.11-3.26-3.11-1.35,0-2.3.72-2.61,1.46l-.11-1.11-2.48-.02-.02,9.42ZM81.97,149.86l6.98.02c0-2.8-1.26-5.76-4.76-5.76s-4.74,2.87-4.74,5.02c0,3.13,2.07,5.07,4.7,5.07s4.24-1.43,4.63-3.07l-2.54-.17c-.48.87-1.15,1.22-1.96,1.22-1.2,0-2.18-.82-2.31-2.33ZM82.06,148.03c.17-1.15,1.11-1.93,2.07-1.93,1.04,0,1.93.7,2.09,1.93h-4.17ZM70.95,152.79c.54.87,1.48,1.41,2.78,1.41,2.57,0,4.15-2.39,4.15-5.07s-1.54-4.96-4.13-4.96c-1.13,0-2.07.46-2.72,1.28l-.11-.96-2.5.02v12.46h2.54v-4.17ZM73.23,152.25c-1.22,0-2.26-.82-2.26-2.85,0-2.28,1.13-3.07,2.17-3.07s2.18.85,2.18,2.94c0,1.39-.59,2.96-2.09,2.98ZM60.25,154.29c4.57,0,6.39-3.98,6.39-6.98,0-3.15-2-6.94-6.3-6.94-2.32,0-3.93.89-5.07,2.44-.83,1.15-1.41,2.8-1.41,4.55,0,3.63,2.31,6.92,6.39,6.92Z"/>
  <path class="cls-2" d="M31.01,172.92c.04,1.78,1.54,3.48,4.42,3.48s4.24-1.57,4.24-3.26c0-.59-.22-1.19-.59-1.65-.35-.44-.8-.78-1.93-1.04l-2.7-.63c-.56-.15-.8-.5-.8-.83,0-.37.33-.94,1.57-.94,1.33,0,1.93.7,1.95,1.46l2.24-.04c-.04-.94-.55-1.89-1.35-2.48-.55-.39-1.42-.72-2.79-.72-2.72,0-3.91,1.46-3.91,3.07,0,.76.2,1.3.65,1.78.33.35.74.65,1.8.87l2.04.46c1.2.26,1.33.63,1.33,1.07,0,.41-.39,1.06-1.78,1.06s-2.02-.7-2.09-1.68l-2.3.02ZM116.57,176.07h2.54v-4.18c0-1.41.35-2.05.76-2.5.48-.5,1.04-.74,1.72-.74.15,0,.3.02.44.04v-2.24c-.13-.02-.33-.06-.54-.06-1.11,0-2.05.7-2.35,1.68l-.07-1.43h-2.5v9.42ZM111.85,175c.05.46.17.8.31,1.07h2.57c-.32-.39-.41-.67-.43-.98l.02-5.17c0-2.26-1.18-3.61-4.24-3.61-2.85,0-4.04,1.55-4,3.15l2.24.04c0-.7.54-1.37,1.83-1.37s1.65.61,1.65,1.05c0,.39-.24.74-.93.87l-1.44.24c-2.09.37-2.65.76-3.04,1.11-.57.5-.87,1.2-.87,1.96,0,1.55,1.22,2.96,3.61,2.96,1.37,0,2.17-.46,2.7-1.33ZM111.87,171.11l-.02,1.18c0,1.33-.82,2.17-2.28,2.17-1.05,0-1.55-.63-1.55-1.2,0-.44.15-.94,1.74-1.39l1.09-.3c.5-.13.82-.32,1.02-.46ZM94.7,176.07h2.5l.13-.96c.67.83,1.57,1.26,2.72,1.26,2.07,0,4.13-1.7,4.13-5.04s-2.07-5-4.11-5c-1.37,0-2.33.59-2.82,1.41l-.02-4.78h-2.54v13.11ZM99.42,174.18c-1.06,0-2.15-.83-2.15-2.94s1.09-2.94,2.13-2.94c1.13,0,2.17.8,2.17,2.98s-1.07,2.91-2.15,2.91ZM77.28,177.14v1.98h1.87c2.22,0,2.74-1.74,2.94-2.32l3.57-10.16h-2.68l-1.89,5.83-1.98-5.83h-2.7l2.89,7.94c.2.52.26.87.26,1.3,0,.76-.41,1.28-1.52,1.26h-.76ZM74.84,176.07v-1.94h-.95c-.3,0-.59-.17-.72-.35-.05-.07-.13-.22-.13-.74v-4.67h1.72v-1.72h-1.72l-.02-2.98h-2.52v2.98h-1.32v1.74l1.33-.02v4.87c0,2.13.87,2.83,2.26,2.83h2.06ZM61.08,172.05l6.98.02c0-2.79-1.26-5.76-4.78-5.76s-4.72,2.87-4.72,5.02c0,3.13,2.07,5.07,4.7,5.07s4.24-1.43,4.63-3.07l-2.54-.17c-.5.87-1.15,1.22-1.96,1.22-1.2,0-2.18-.82-2.32-2.33ZM61.17,170.22c.17-1.15,1.11-1.93,2.07-1.93,1.04,0,1.92.7,2.09,1.93h-4.17ZM52.97,176.07h2.54v-7.74h1.83v-1.68h-1.83v-.18c0-.85.15-1.09.32-1.26.2-.22.48-.39,1.09-.37h.43v-1.87h-1.44c-.85,0-3.17.15-2.92,3.68h-1.37v1.68h1.37v7.74ZM47.43,175c.06.46.17.8.32,1.07h2.57c-.32-.39-.41-.67-.43-.98l.02-5.17c0-2.26-1.18-3.61-4.24-3.61-2.85,0-4.04,1.55-4,3.15l2.24.04c0-.7.54-1.37,1.83-1.37s1.65.61,1.65,1.05c0,.39-.24.74-.93.87l-1.45.24c-2.09.37-2.65.76-3.04,1.11-.57.5-.87,1.2-.87,1.96,0,1.55,1.22,2.96,3.61,2.96,1.37,0,2.17-.46,2.7-1.33ZM47.45,171.11l-.02,1.18c0,1.33-.81,2.17-2.28,2.17-1.05,0-1.55-.63-1.55-1.2,0-.44.15-.94,1.74-1.39l1.09-.3c.5-.13.81-.32,1.02-.46Z"/>
  <path class="cls-2" d="M35.99,198.18c-1.2,0-2.35-.92-2.35-3.02,0-2.26,1.13-3.15,2.37-3.15s2.37.91,2.37,3.05-1.15,3.11-2.39,3.11ZM122.01,199.81v-1.94h-.94c-.3,0-.59-.17-.72-.35-.05-.07-.13-.22-.13-.74v-4.67h1.72v-1.72h-1.7l-.02-2.98h-2.52v2.98h-1.33v1.74l1.33-.02v4.87c0,2.13.87,2.83,2.28,2.83h2.04ZM110.63,199.81h2.54v-7.74h1.83v-1.68h-1.83v-.18c0-.85.15-1.09.32-1.26.2-.22.48-.39,1.11-.37h.41v-1.87h-1.44c-.85,0-3.17.15-2.92,3.68h-1.37v1.68h1.37v7.74ZM105.15,199.81h2.54v-9.42h-2.54v9.42ZM105.16,188.96h2.52v-2.26h-2.52v2.26ZM100.65,199.81h2.54v-13.11h-2.52l-.02,13.11ZM93.79,199.81h2.54v-4.18c0-1.41.35-2.05.78-2.5.46-.5,1.02-.74,1.72-.74.13,0,.28.02.43.04l.02-2.24c-.13-.02-.33-.06-.56-.06-1.09,0-2.05.7-2.35,1.68l-.08-1.43h-2.48l-.02,9.42ZM89.3,199.81h2.54v-9.42h-2.54v9.42ZM89.31,188.96h2.52v-2.26h-2.52v2.26ZM84.59,198.74c.04.46.15.8.3,1.07h2.59c-.33-.39-.43-.67-.43-.98v-5.17c0-2.26-1.17-3.61-4.24-3.61-2.85,0-4.04,1.55-3.98,3.15l2.22.04c0-.7.54-1.37,1.83-1.37s1.65.61,1.65,1.05c0,.39-.24.74-.93.87l-1.44.24c-2.09.37-2.65.76-3.04,1.11-.55.5-.87,1.2-.87,1.96,0,1.56,1.22,2.96,3.61,2.96,1.37,0,2.18-.46,2.72-1.33ZM84.59,194.85v1.18c0,1.33-.83,2.17-2.28,2.17-1.07,0-1.57-.63-1.57-1.2,0-.44.15-.94,1.74-1.39l1.09-.3c.5-.13.82-.32,1.02-.46ZM68.19,199.81h2.54v-5.18c0-1.54.83-2.26,1.89-2.26.91,0,1.52.52,1.52,1.7v5.74h2.5v-6.5c0-1.15-.35-1.93-.96-2.46-.56-.46-1.41-.8-2.22-.8-1.37,0-2.3.65-2.74,1.52l.02-4.87h-2.54v13.11ZM64,196.38c-.13.74-.35,1.04-.72,1.32-.32.24-.72.39-1.24.39-1.13,0-2.18-.82-2.18-2.93,0-2.31,1.13-3.17,2.28-3.17.91,0,1.67.67,1.81,1.61l2.45-.13c-.2-1.96-1.74-3.48-4.32-3.48-1.85,0-3.15.72-4,1.98-.57.81-.91,1.83-.91,3.15,0,1.91.78,3.35,1.94,4.22.74.54,1.67.87,2.93.87.91,0,1.43-.13,1.89-.32,1.43-.52,2.3-1.59,2.48-3.41l-2.41-.11ZM43.54,199.81h2.54v-7.74h1.83v-1.68h-1.83v-.18c0-.85.15-1.09.32-1.26.2-.22.48-.39,1.11-.37h.41v-1.87h-1.44c-.85,0-3.17.15-2.93,3.68h-1.37v1.68h1.37v7.74ZM36.01,200.16c2.87,0,4.96-2.02,4.96-5.09s-2.07-5.04-5-5.04-4.93,2.04-4.93,5.02,2.09,5.11,4.96,5.11Z"/>
</svg>