<?xml version="1.0" encoding="UTF-8"?>
<svg id="Lager_1" data-name="Lager 1" xmlns="http://www.w3.org/2000/svg" viewBox="0 0 153.09 218.69">
  <defs>
    <style>
      .cls-1 {
        fill: #1a4080;
      }

      .cls-1, .cls-2 {
        fill-rule: evenodd;
      }

      .cls-2 {
        fill: #fff;
      }
    </style>
  </defs>
  <polyline class="cls-2" points="0 218.69 153.09 218.69 153.09 0 0 0 0 218.69"/>
  <path class="cls-1" d="M17.57,65.3c0,32.57,26.42,58.99,58.99,58.99s58.97-26.42,58.97-58.99S109.13,6.33,76.56,6.33s-58.99,26.4-58.99,58.97ZM76.66,20.35c-3.32,0-6.72,1.6-9.08,4.27-1.9,2.16-2.83,4.73-2.54,7.05l6.58,48.52c.24,1.58,1.22,5.32,5.04,5.32s4.85-4.1,5.04-5.36l6.59-48.51c.27-2.3-.68-4.88-2.6-7.05-2.36-2.66-5.74-4.25-9.03-4.25ZM76.66,96.74c-3.39,0-6.14,2.76-6.14,6.14s2.76,6.14,6.14,6.14,6.15-2.75,6.15-6.14-2.76-6.14-6.15-6.14Z"/>
  <polyline class="cls-1" points="10.06 133.72 143.05 133.72 143.05 208.95 10.06 208.95 10.06 133.72"/>
  <path class="cls-2" d="M13.17,153.69h2.2v-13.11h-2.2v13.11ZM134.37,149.67l5.58.02c0-2.8-1.01-5.76-3.82-5.76s-3.78,2.87-3.78,5.02c0,3.13,1.65,5.07,3.77,5.07s3.39-1.43,3.7-3.07l-2.03-.17c-.4.87-.91,1.22-1.57,1.22-.96,0-1.75-.81-1.85-2.33ZM134.45,147.84c.11-1.15.88-1.92,1.65-1.92.83,0,1.54.7,1.67,1.92h-3.32ZM127.1,153.69h2l2.59-9.42h-2.07l-1.5,6.2-1.5-6.18h-2.07l2.54,9.41ZM121.57,152.61c.03.46.12.8.23,1.07h2.07c-.25-.39-.33-.67-.33-.98v-5.17c0-2.26-.94-3.61-3.39-3.61-2.28,0-3.24,1.55-3.19,3.15l1.78.04c0-.7.43-1.37,1.45-1.37s1.32.61,1.32,1.05c0,.39-.18.74-.73.87l-1.17.24c-1.65.37-2.1.76-2.43,1.11-.45.5-.69,1.2-.69,1.96,0,1.55.99,2.96,2.89,2.96,1.11,0,1.75-.46,2.18-1.33ZM121.57,148.73v1.18c0,1.33-.68,2.17-1.83,2.17-.84,0-1.26-.63-1.26-1.2,0-.44.13-.94,1.4-1.39l.88-.3c.4-.13.65-.32.81-.46ZM109.82,149.67l5.58.02c0-2.8-1.01-5.76-3.82-5.76s-3.78,2.87-3.78,5.02c0,3.13,1.65,5.07,3.77,5.07s3.39-1.43,3.7-3.07l-2.03-.17c-.4.87-.92,1.22-1.57,1.22-.96,0-1.75-.81-1.85-2.33ZM109.9,147.84c.12-1.15.88-1.92,1.65-1.92.83,0,1.54.7,1.67,1.92h-3.32ZM104.35,153.69h2.03v-13.11h-2.02l-.02,13.11ZM90.41,154.76v1.98h1.5c1.77,0,2.18-1.74,2.35-2.31l2.86-10.17h-2.15l-1.5,5.83-1.59-5.83h-2.18l2.33,7.94c.16.52.2.87.2,1.3,0,.76-.31,1.28-1.21,1.26h-.61ZM86.33,153.69h2.03v-13.11h-2.02l-.02,13.11ZM79.31,149.67l5.6.02c0-2.8-1.01-5.76-3.83-5.76s-3.78,2.87-3.78,5.02c0,3.13,1.67,5.07,3.77,5.07s3.4-1.43,3.7-3.07l-2.03-.17c-.38.87-.91,1.22-1.57,1.22-.96,0-1.75-.81-1.85-2.33ZM79.39,147.84c.13-1.15.88-1.92,1.65-1.92.83,0,1.54.7,1.68,1.92h-3.34ZM76.27,153.69v-1.94h-.76c-.25,0-.48-.17-.58-.35-.05-.07-.1-.22-.1-.74v-4.67h1.37v-1.72h-1.37l-.02-2.98h-2.02v2.98h-1.06v1.74l1.07-.02-.02,4.87c0,2.13.71,2.83,1.82,2.83h1.65ZM68.51,152.61c.05.46.13.8.25,1.07h2.07c-.26-.39-.33-.67-.35-.98l.02-5.17c0-2.26-.94-3.61-3.4-3.61-2.28,0-3.22,1.55-3.19,3.15l1.8.04c0-.7.41-1.37,1.45-1.37s1.32.61,1.32,1.05c0,.39-.2.74-.74.87l-1.16.24c-1.67.37-2.11.76-2.43,1.11-.45.5-.69,1.2-.69,1.96,0,1.55.97,2.96,2.87,2.96,1.11,0,1.75-.46,2.18-1.33ZM68.52,148.73l-.02,1.18c0,1.33-.66,2.17-1.82,2.17-.86,0-1.26-.63-1.26-1.2,0-.44.12-.94,1.4-1.39l.88-.3c.38-.13.64-.32.81-.46ZM60.03,153.69h2.03v-9.42h-2.02l-.02,9.42ZM60.05,142.84h2.03v-2.26h-2.03v2.26ZM56.38,152.72l.08.96h2v-13.11h-2.03v4.76c-.36-.74-1.22-1.37-2.18-1.37-1.68,0-3.35,1.76-3.35,5.05,0,1.5.38,2.74.97,3.61.63.94,1.4,1.37,2.3,1.37s1.67-.44,2.21-1.28ZM54.78,151.82c-.96,0-1.8-.85-1.8-2.85,0-2.24.88-3.04,1.72-3.04s1.7.8,1.7,2.96-.88,2.91-1.62,2.92ZM44.04,149.67l5.6.02c0-2.8-1.02-5.76-3.83-5.76s-3.78,2.87-3.78,5.02c0,3.13,1.65,5.07,3.77,5.07s3.4-1.43,3.7-3.07l-2.03-.17c-.4.87-.91,1.22-1.57,1.22-.96,0-1.75-.81-1.85-2.33ZM44.12,147.84c.12-1.15.88-1.92,1.65-1.92.83,0,1.54.7,1.67,1.92h-3.32ZM29.57,153.69h2.03v-5.44c0-1.35.61-2.04,1.42-2.04.55,0,.86.33,1.01.8.03.09.1.3.1,1.04v5.65h2.02v-5.59c0-1.22.59-1.93,1.39-1.93.69,0,1.16.52,1.16,1.63v5.89h2l-.02-6.61c-.03-1.98-1.04-3.11-2.41-3.11-1.04,0-1.87.61-2.33,1.65-.38-.98-1.22-1.65-2.21-1.65s-1.7.55-2.1,1.5l-.07-1.18-1.96-.02-.02,9.42ZM16.95,153.69h2.03v-5.44c0-1.35.61-2.04,1.42-2.04.54,0,.86.33,1.01.8.03.09.1.3.1,1.04v5.65h2v-5.59c0-1.22.61-1.93,1.4-1.93.69,0,1.16.52,1.16,1.63v5.89h2l-.02-6.61c-.05-1.98-1.04-3.11-2.43-3.11-1.02,0-1.85.61-2.31,1.65-.38-.98-1.22-1.65-2.21-1.65s-1.7.55-2.1,1.5l-.07-1.18-1.97-.02-.02,9.42Z"/>
  <path class="cls-2" d="M17.95,177.39v-1.94h-.84c-.27,0-.53-.17-.64-.35-.05-.08-.11-.22-.11-.74v-4.67h1.51v-1.72h-1.51l-.02-2.98h-2.21v2.98h-1.18v1.74l1.18-.02v4.87c0,2.13.76,2.83,2,2.83h1.81ZM132.68,177.39h2.23l.02-5.28c0-.74.13-1.09.31-1.39.29-.48.82-.8,1.36-.8.76,0,1.32.57,1.32,1.63v5.83h2.23v-6.65c0-1.76-1.14-3.11-2.87-3.11-1.2,0-2.03.72-2.3,1.46l-.09-1.11-2.2-.02-.02,9.42ZM128.71,177.39h2.23v-9.42h-2.23v9.42ZM128.73,166.54h2.23v-2.26h-2.23v2.26ZM112.64,177.39h2.23v-3.09l.94-1.05,2.29,4.15h2.72l-3.41-5.79,2.98-3.63h-2.65l-2.87,3.59-.02-7.28h-2.21v13.11ZM108.93,173.96c-.13.74-.31,1.04-.64,1.32-.29.24-.64.39-1.09.39-1,0-1.92-.82-1.92-2.93,0-2.31.98-3.17,2.01-3.17.8,0,1.47.67,1.6,1.61l2.14-.13c-.18-1.96-1.52-3.48-3.79-3.48-1.63,0-2.79.72-3.54,1.98-.51.82-.8,1.83-.8,3.15,0,1.91.69,3.35,1.72,4.22.65.54,1.45.87,2.58.87.8,0,1.25-.13,1.67-.31,1.25-.52,2.01-1.59,2.18-3.41l-2.12-.11ZM99.08,176.32c.05.46.15.8.27,1.07h2.29c-.29-.39-.38-.67-.38-.98v-5.17c0-2.26-1.03-3.61-3.74-3.61-2.52,0-3.56,1.55-3.52,3.15l1.98.04c0-.7.47-1.37,1.61-1.37s1.45.61,1.45,1.06c0,.39-.22.74-.82.87l-1.27.24c-1.85.37-2.34.76-2.68,1.11-.49.5-.76,1.2-.76,1.96,0,1.56,1.07,2.96,3.18,2.96,1.21,0,1.92-.46,2.39-1.33ZM99.1,172.43l-.02,1.18c0,1.33-.73,2.17-2.01,2.17-.93,0-1.38-.63-1.38-1.2,0-.44.15-.94,1.54-1.39l.96-.3c.43-.13.72-.32.91-.46ZM88.33,177.39h2.23v-4.18c0-1.41.31-2.06.67-2.5.42-.5.91-.74,1.52-.74.13,0,.25.02.38.04v-2.24c-.11-.02-.29-.05-.47-.05-.96,0-1.81.7-2.07,1.68l-.07-1.43h-2.2v9.42ZM86.67,177.39v-1.94h-.84c-.27,0-.53-.17-.64-.35-.05-.08-.11-.22-.11-.74v-4.67h1.51v-1.72h-1.51l-.02-2.98h-2.21v2.98h-1.18v1.74l1.18-.02v4.87c0,2.13.76,2.83,1.99,2.83h1.82ZM73.65,171.95h6.64v-2.24h-6.64v2.24ZM62.71,177.39h2.16l1.54-6,1.43,6h2.1l2.56-9.41h-2.29l-1.43,5.91-1.4-5.91h-1.99l-1.43,5.89-1.34-5.89h-2.27l2.36,9.41ZM55.34,177.74c2.52,0,4.35-2.02,4.35-5.09s-1.82-5.04-4.39-5.04-4.35,2.04-4.35,5.02,1.85,5.11,4.39,5.11ZM55.32,175.76c-1.07,0-2.09-.93-2.09-3.02,0-2.26,1-3.15,2.09-3.15s2.1.91,2.1,3.05-1.02,3.11-2.1,3.11ZM49.81,177.39v-1.94h-.83c-.27,0-.53-.17-.64-.35-.05-.08-.11-.22-.11-.74v-4.67h1.51v-1.72h-1.51l-.02-2.98h-2.23v2.98h-1.16v1.74l1.18-.02v4.87c0,2.13.76,2.83,2,2.83h1.81ZM30.66,173.37l6.17.02c0-2.8-1.12-5.76-4.23-5.76s-4.17,2.87-4.17,5.02c0,3.13,1.83,5.07,4.15,5.07s3.76-1.43,4.08-3.07l-2.23-.17c-.43.87-1.02,1.22-1.74,1.22-1.05,0-1.92-.82-2.03-2.33ZM30.76,171.54c.13-1.15.96-1.93,1.81-1.93.91,0,1.71.7,1.85,1.93h-3.67ZM19.51,177.39h2.23l.02-5.18c0-1.54.73-2.26,1.65-2.26.8,0,1.34.52,1.34,1.7v5.74h2.23v-6.5c0-1.15-.34-1.92-.89-2.46-.47-.46-1.22-.8-1.94-.8-1.22,0-2.03.65-2.41,1.52v-4.87h-2.23v13.11Z"/>
  <path class="cls-2" d="M18.88,192.42c.15-1.15,1-1.93,1.85-1.93.95,0,1.74.7,1.89,1.93h-3.74ZM128.44,198.79c.11.89.35,1.39.83,1.89.52.56,1.46,1.07,3.11,1.07,1.83,0,3.02-.76,3.57-1.57.39-.57.61-1.09.61-2.5l-.02-8.83h-2.17l-.09,1.15c-.15-.3-.61-1.48-2.5-1.48-2.05,0-3.83,1.82-3.83,4.72s1.8,4.74,3.81,4.74c1.35,0,2.18-.68,2.52-1.41v1.02c0,1.59-.67,2.26-1.96,2.26-1,0-1.46-.56-1.54-1.15l-2.35.09ZM132.31,195.79c-1.11,0-2.04-.89-2.04-2.63,0-1.52.94-2.48,1.98-2.48s2,.96,2,2.55-.96,2.55-1.95,2.55ZM118.75,198.27h2.28l.02-5.28c0-.74.13-1.09.32-1.39.31-.48.83-.8,1.39-.8.8,0,1.35.57,1.35,1.63v5.83h2.28v-6.65c0-1.76-1.17-3.11-2.92-3.11-1.2,0-2.06.72-2.35,1.46l-.09-1.11-2.24-.02-.02,9.42ZM114.7,198.27h2.28v-9.42h-2.26l-.02,9.42ZM114.72,187.42h2.28v-2.26h-2.28v2.26ZM110.66,198.27h2.28v-13.11h-2.26l-.02,13.11ZM106.61,198.27h2.28v-13.11h-2.26l-.02,13.11ZM102.37,197.2c.04.46.15.8.28,1.07h2.32c-.28-.39-.37-.67-.37-.98v-5.17c0-2.26-1.05-3.61-3.81-3.61-2.57,0-3.63,1.56-3.59,3.15l2.02.04c0-.7.46-1.37,1.63-1.37s1.5.61,1.5,1.05c0,.39-.22.74-.83.87l-1.31.24c-1.87.37-2.37.76-2.72,1.11-.5.5-.78,1.2-.78,1.96,0,1.55,1.09,2.96,3.24,2.96,1.24,0,1.96-.46,2.44-1.33ZM102.39,193.31l-.02,1.18c0,1.33-.74,2.17-2.05,2.17-.94,0-1.41-.63-1.41-1.2,0-.45.15-.95,1.57-1.39l.98-.3c.44-.13.74-.32.93-.46ZM91.7,198.27h2.28v-7.74h1.65v-1.68h-1.65v-.19c0-.85.13-1.09.28-1.26.19-.22.45-.39,1-.37h.37v-1.87h-1.3c-.78,0-2.85.15-2.63,3.68h-1.24v1.68h1.24v7.74ZM78.39,198.27h2.28v-7.74h1.65v-1.68h-1.65v-.19c0-.85.13-1.09.28-1.26.18-.22.44-.39,1-.37h.37v-1.87h-1.3c-.78,0-2.85.15-2.63,3.68h-1.24v1.68h1.24v7.74ZM71.61,198.63c2.57,0,4.46-2.02,4.46-5.09s-1.85-5.04-4.48-5.04-4.44,2.04-4.44,5.02,1.89,5.11,4.46,5.11ZM71.59,196.64c-1.07,0-2.11-.93-2.11-3.02,0-2.26,1-3.15,2.13-3.15s2.13.91,2.13,3.05-1.02,3.11-2.15,3.11ZM58.82,198.27v-1.94h-.85c-.26,0-.54-.17-.65-.35-.04-.07-.11-.22-.11-.74v-4.66h1.54v-1.72h-1.54l-.02-2.98h-2.26v2.98h-1.2v1.74l1.2-.02v4.87c0,2.13.8,2.83,2.04,2.83h1.85ZM44.75,198.27h2.3v-5.28c0-.74.15-1.09.33-1.39.3-.48.83-.8,1.37-.8.8,0,1.37.57,1.37,1.63l-.02,5.83h2.28v-6.65c0-1.76-1.17-3.11-2.91-3.11-1.22,0-2.07.72-2.37,1.46l-.09-1.11-2.24-.02-.02,9.42ZM36.86,194.26l6.29.02c0-2.8-1.15-5.76-4.31-5.76s-4.26,2.87-4.26,5.02c0,3.13,1.87,5.07,4.24,5.07s3.83-1.43,4.17-3.07l-2.3-.17c-.42.87-1.02,1.22-1.76,1.22-1.07,0-1.96-.82-2.07-2.33ZM36.95,192.42c.13-1.15.98-1.93,1.85-1.93.93,0,1.72.7,1.89,1.93h-3.74ZM28.67,198.27h2.26l2.91-9.42h-2.32l-1.7,6.2-1.68-6.18h-2.32l2.85,9.41ZM18.79,194.26l6.3.02c0-2.8-1.13-5.76-4.3-5.76s-4.26,2.87-4.26,5.02c0,3.13,1.87,5.07,4.24,5.07s3.82-1.43,4.17-3.07l-2.3-.17c-.44.87-1.04,1.22-1.76,1.22-1.09,0-1.98-.82-2.09-2.33Z"/>
</svg>