<?xml version="1.0" encoding="UTF-8"?>
<svg id="Lager_1" data-name="Lager 1" xmlns="http://www.w3.org/2000/svg" viewBox="0 0 153.09 218.69">
  <defs>
    <style>
      .cls-1 {
        fill: #1a4080;
      }

      .cls-1, .cls-2 {
        fill-rule: evenodd;
      }

      .cls-2 {
        fill: #fff;
      }
    </style>
  </defs>
  <polyline class="cls-2" points="0 218.69 153.09 218.69 153.09 0 0 0 0 218.69"/>
  <path class="cls-1" d="M17.57,65.3c0,32.57,26.42,58.99,58.99,58.99s58.97-26.42,58.97-58.99S109.13,6.33,76.56,6.33s-58.99,26.4-58.99,58.97ZM76.64,20.36c-3.32,0-6.72,1.6-9.08,4.27-1.91,2.16-2.83,4.73-2.54,7.05l6.58,48.52c.24,1.58,1.22,5.32,5.04,5.32s4.85-4.1,5.05-5.36l6.59-48.51c.27-2.3-.68-4.88-2.6-7.05-2.36-2.66-5.74-4.25-9.03-4.25ZM76.64,96.76c-3.39,0-6.14,2.76-6.14,6.14s2.76,6.14,6.14,6.14,6.15-2.75,6.15-6.14-2.76-6.14-6.15-6.14Z"/>
  <polyline class="cls-1" points="10.06 133.74 143.05 133.74 143.05 208.97 10.06 208.97 10.06 133.74"/>
  <path class="cls-2" d="M26.2,153.69h9.07v-2.26h-6.37v-10.85h-2.7v13.11ZM118.22,150.55c.04,1.78,1.54,3.48,4.42,3.48s4.24-1.57,4.24-3.26c0-.59-.22-1.18-.59-1.65-.35-.44-.82-.78-1.93-1.04l-2.7-.63c-.57-.15-.8-.5-.8-.83,0-.37.33-.95,1.57-.95,1.33,0,1.93.7,1.94,1.46l2.24-.04c-.04-.94-.56-1.89-1.35-2.48-.56-.39-1.43-.72-2.8-.72-2.72,0-3.93,1.46-3.93,3.07,0,.76.22,1.3.67,1.78.33.35.74.65,1.8.87l2.04.46c1.18.26,1.33.63,1.33,1.07,0,.41-.39,1.06-1.78,1.06s-2.02-.7-2.09-1.68l-2.3.02ZM109.7,152.6c.54.87,1.48,1.41,2.76,1.41,2.57,0,4.17-2.39,4.17-5.07s-1.56-4.96-4.13-4.96c-1.13,0-2.07.46-2.72,1.28l-.13-.96-2.48.02v12.46h2.54v-4.17ZM111.98,152.06c-1.22,0-2.26-.81-2.26-2.85,0-2.28,1.11-3.07,2.15-3.07s2.19.85,2.19,2.94c0,1.39-.59,2.96-2.07,2.98ZM102.67,153.69h2.52v-9.42h-2.52v9.42ZM102.67,142.84h2.54v-2.26h-2.54v2.26ZM100.89,153.69v-1.94h-.94c-.3,0-.59-.17-.72-.35-.06-.07-.13-.22-.13-.74v-4.67h1.7v-1.72h-1.7l-.02-2.98h-2.52v2.98h-1.31v1.74l1.33-.02-.02,4.87c0,2.13.89,2.83,2.28,2.83h2.05ZM83.46,153.69h2.52v-9.42h-2.52v9.42ZM83.46,142.84h2.54v-2.26h-2.54v2.26ZM72.91,153.69h2.54v-3.09l1.05-1.06,2.57,4.15h3.11l-3.89-5.8,3.39-3.63h-3l-3.24,3.59-.02-7.28h-2.52v13.11ZM62.38,150.55c.04,1.78,1.54,3.48,4.43,3.48s4.24-1.57,4.24-3.26c0-.59-.22-1.18-.59-1.65-.35-.44-.81-.78-1.93-1.04l-2.7-.63c-.57-.15-.8-.5-.8-.83,0-.37.33-.95,1.57-.95,1.33,0,1.93.7,1.94,1.46l2.24-.04c-.04-.94-.56-1.89-1.35-2.48-.56-.39-1.43-.72-2.8-.72-2.72,0-3.92,1.46-3.92,3.07,0,.76.22,1.3.67,1.78.33.35.74.65,1.8.87l2.04.46c1.18.26,1.33.63,1.33,1.07,0,.41-.39,1.06-1.78,1.06s-2.02-.7-2.09-1.68l-2.3.02ZM53.12,153.69v-1.94h-.94c-.3,0-.59-.17-.72-.35-.05-.07-.13-.22-.13-.74v-4.67h1.7v-1.72h-1.7l-.02-2.98h-2.52v2.98h-1.31v1.74l1.33-.02-.02,4.87c0,2.13.89,2.83,2.28,2.83h2.06ZM41.73,153.69h2.54v-7.74h1.83v-1.68h-1.85v-.18c0-.85.17-1.09.31-1.26.2-.22.5-.39,1.11-.37h.43v-1.87h-1.44c-.87,0-3.17.15-2.93,3.68h-1.37v1.68h1.37v7.74ZM36.25,153.69h2.52v-9.42h-2.52v9.42ZM36.25,142.84h2.54v-2.26h-2.54v2.26Z"/>
</svg>