<?xml version="1.0" encoding="UTF-8"?>
<svg id="Lager_1" data-name="Lager 1" xmlns="http://www.w3.org/2000/svg" viewBox="0 0 153.09 218.69">
  <defs>
    <style>
      .cls-1 {
        fill: #1a4080;
      }

      .cls-1, .cls-2 {
        fill-rule: evenodd;
      }

      .cls-2 {
        fill: #fff;
      }
    </style>
  </defs>
  <polyline class="cls-2" points="0 218.69 153.09 218.69 153.09 0 0 0 0 218.69"/>
  <path class="cls-1" d="M17.57,65.3c0,32.57,26.42,58.99,58.99,58.99s58.97-26.42,58.97-58.99S109.13,6.33,76.56,6.33s-58.99,26.4-58.99,58.97ZM76.64,20.36c-3.32,0-6.72,1.6-9.08,4.27-1.91,2.16-2.83,4.73-2.54,7.05l6.58,48.52c.24,1.58,1.22,5.32,5.04,5.32s4.85-4.1,5.04-5.36l6.59-48.51c.27-2.3-.68-4.88-2.6-7.05-2.37-2.66-5.74-4.25-9.03-4.25ZM76.64,96.76c-3.39,0-6.14,2.76-6.14,6.14s2.76,6.14,6.14,6.14,6.15-2.75,6.15-6.14-2.76-6.14-6.15-6.14Z"/>
  <polyline class="cls-1" points="10.06 133.74 143.05 133.74 143.05 208.97 10.06 208.97 10.06 133.74"/>
  <path class="cls-2" d="M41.36,150.86c-.04.41-.28,1.04-.54,1.39-.48.63-1.33,1.09-2.41,1.09-1.87,0-3.69-1.46-3.69-4.8s1.76-4.7,3.61-4.7c1.59,0,2.63.85,2.92,2.33l2.57-.15c-.19-1.28-.67-2.17-1.41-2.87-.85-.85-2.18-1.46-4.13-1.46-5,0-6.33,4.26-6.33,6.85,0,4.52,2.91,7.11,6.35,7.11,2.83,0,5.5-1.72,5.74-4.74l-2.7-.05ZM118.53,154.27l.11.96h2.52l-.02-13.11h-2.54v4.76c-.46-.74-1.52-1.37-2.72-1.37-2.11,0-4.18,1.76-4.18,5.05,0,1.5.48,2.74,1.22,3.61.78.95,1.74,1.37,2.87,1.37s2.07-.44,2.74-1.28ZM116.53,153.36c-1.19,0-2.24-.85-2.24-2.85,0-2.24,1.11-3.04,2.15-3.04s2.13.8,2.13,2.96-1.09,2.91-2.04,2.93ZM101.48,155.23h2.54l.02-5.28c0-.74.15-1.09.35-1.39.33-.48.93-.8,1.54-.8.87,0,1.5.57,1.5,1.63v5.83h2.54v-6.65c0-1.76-1.3-3.11-3.26-3.11-1.35,0-2.3.72-2.61,1.46l-.11-1.11-2.48-.02-.02,9.42ZM96.76,154.16c.06.46.17.8.31,1.07h2.57c-.31-.39-.41-.67-.42-.98l.02-5.17c0-2.26-1.18-3.61-4.24-3.61-2.85,0-4.04,1.56-4,3.15l2.24.04c0-.7.54-1.37,1.83-1.37s1.65.61,1.65,1.06c0,.39-.24.74-.93.87l-1.44.24c-2.09.37-2.65.76-3.04,1.11-.57.5-.87,1.2-.87,1.96,0,1.56,1.22,2.96,3.61,2.96,1.37,0,2.17-.46,2.7-1.33ZM96.78,150.27l-.02,1.18c0,1.33-.82,2.17-2.28,2.17-1.06,0-1.56-.63-1.56-1.2,0-.44.15-.94,1.74-1.39l1.09-.3c.5-.13.81-.31,1.02-.46ZM74.26,151.21l6.96.02c0-2.8-1.26-5.76-4.76-5.76s-4.72,2.87-4.72,5.02c0,3.13,2.07,5.07,4.7,5.07s4.22-1.43,4.61-3.07l-2.54-.17c-.5.87-1.15,1.22-1.94,1.22-1.2,0-2.19-.82-2.32-2.33ZM74.35,149.38c.17-1.15,1.11-1.93,2.07-1.93,1.02,0,1.91.7,2.07,1.93h-4.15ZM61.41,152.08c.04,1.78,1.54,3.48,4.43,3.48s4.24-1.57,4.24-3.26c0-.59-.22-1.18-.59-1.65-.35-.44-.8-.78-1.91-1.04l-2.72-.63c-.55-.15-.8-.5-.8-.83,0-.37.33-.94,1.57-.94,1.35,0,1.94.7,1.94,1.46l2.24-.04c-.04-.94-.56-1.89-1.35-2.48-.56-.39-1.43-.72-2.8-.72-2.72,0-3.91,1.46-3.91,3.07,0,.76.2,1.3.65,1.78.33.35.74.65,1.8.87l2.04.46c1.2.26,1.33.63,1.33,1.07,0,.41-.39,1.05-1.78,1.05s-2.02-.7-2.09-1.68l-2.3.02ZM54.9,155.58c2.85,0,4.94-2.02,4.94-5.09s-2.06-5.04-4.98-5.04-4.93,2.04-4.93,5.02,2.09,5.11,4.96,5.11ZM54.88,153.6c-1.2,0-2.37-.93-2.37-3.02,0-2.26,1.13-3.15,2.37-3.15s2.39.91,2.39,3.06-1.15,3.11-2.39,3.11ZM45.62,155.23h2.54v-13.11h-2.52l-.02,13.11Z"/>
  <path class="cls-2" d="M13.58,174.26c.05,1.78,1.44,3.48,4.1,3.48s3.9-1.57,3.9-3.26c0-.59-.19-1.18-.53-1.65-.32-.44-.75-.78-1.78-1.04l-2.5-.63c-.53-.15-.74-.5-.74-.83,0-.37.31-.94,1.44-.94,1.25,0,1.79.7,1.81,1.46l2.07-.04c-.05-.94-.51-1.89-1.25-2.48-.51-.39-1.32-.72-2.6-.72-2.5,0-3.61,1.46-3.61,3.07,0,.76.21,1.3.6,1.78.33.35.7.65,1.68.87l1.88.46c1.1.26,1.23.63,1.23,1.07,0,.41-.36,1.06-1.66,1.06-1.23,0-1.85-.7-1.92-1.68l-2.14.02ZM131.54,174.26c.05,1.78,1.44,3.48,4.1,3.48s3.9-1.57,3.9-3.26c0-.59-.19-1.18-.53-1.65-.33-.44-.75-.78-1.78-1.04l-2.5-.63c-.53-.15-.74-.5-.74-.83,0-.37.31-.94,1.44-.94,1.25,0,1.8.7,1.81,1.46l2.07-.04c-.05-.94-.51-1.89-1.25-2.48-.51-.39-1.32-.72-2.6-.72-2.5,0-3.61,1.46-3.61,3.07,0,.76.21,1.3.6,1.78.32.35.7.65,1.68.87l1.88.46c1.09.26,1.23.63,1.23,1.07,0,.41-.36,1.06-1.66,1.06-1.23,0-1.85-.7-1.92-1.68l-2.14.02ZM123.63,173.39l6.46.02c0-2.8-1.16-5.76-4.41-5.76s-4.38,2.87-4.38,5.02c0,3.13,1.92,5.07,4.36,5.07s3.92-1.43,4.27-3.07l-2.36-.17c-.44.87-1.06,1.22-1.81,1.22-1.11,0-2.02-.82-2.14-2.33ZM123.74,171.56c.14-1.15,1.01-1.93,1.9-1.93.96,0,1.78.7,1.93,1.93h-3.83ZM111.95,177.41h2.34v-5.18c0-1.54.79-2.26,1.76-2.26.82,0,1.39.52,1.39,1.7v5.74h2.34v-6.5c0-1.15-.36-1.92-.92-2.46-.51-.46-1.28-.8-2.04-.8-1.28,0-2.14.65-2.53,1.52v-4.87h-2.34v13.11ZM108.09,173.98c-.12.74-.32,1.04-.67,1.32-.29.24-.65.39-1.13.39-1.06,0-2.02-.82-2.02-2.93,0-2.31,1.03-3.17,2.1-3.17.84,0,1.54.67,1.66,1.61l2.26-.13c-.19-1.96-1.59-3.48-3.99-3.48-1.71,0-2.91.72-3.69,1.98-.53.82-.84,1.83-.84,3.15,0,1.91.72,3.35,1.81,4.22.68.54,1.52.87,2.7.87.82,0,1.3-.13,1.73-.31,1.32-.52,2.12-1.59,2.29-3.41l-2.22-.11ZM100.58,177.41v-1.94h-.87c-.29,0-.55-.17-.68-.35-.03-.08-.1-.22-.1-.74v-4.67h1.57v-1.72h-1.57l-.02-2.98h-2.33v2.98h-1.23v1.74l1.25-.02-.02,4.87c0,2.13.8,2.83,2.1,2.83h1.9ZM91.62,176.33c.05.46.14.8.27,1.07h2.39c-.31-.39-.39-.67-.39-.98v-5.17c0-2.26-1.08-3.61-3.92-3.61-2.63,0-3.73,1.55-3.68,3.15l2.07.04c0-.7.48-1.37,1.68-1.37s1.52.61,1.52,1.06c0,.39-.22.74-.84.87l-1.35.24c-1.92.37-2.43.76-2.81,1.11-.51.5-.8,1.2-.8,1.96,0,1.56,1.13,2.96,3.33,2.96,1.27,0,2.02-.46,2.51-1.33ZM91.64,172.45l-.02,1.18c0,1.33-.77,2.17-2.1,2.17-.97,0-1.45-.63-1.45-1.2,0-.44.14-.94,1.62-1.39l1.01-.3c.44-.13.75-.32.94-.46ZM76.47,177.41h2.33v-5.18c0-1.54.79-2.26,1.76-2.26.82,0,1.39.52,1.39,1.7v5.74h2.34v-6.5c0-1.15-.36-1.92-.92-2.46-.51-.46-1.28-.8-2.04-.8-1.28,0-2.14.65-2.53,1.52v-4.87h-2.33v13.11ZM61.28,173.39l6.46.02c0-2.8-1.16-5.76-4.41-5.76s-4.38,2.87-4.38,5.02c0,3.13,1.92,5.07,4.36,5.07s3.92-1.43,4.28-3.07l-2.36-.17c-.44.87-1.06,1.22-1.81,1.22-1.11,0-2.02-.82-2.14-2.33ZM61.38,171.56c.14-1.15,1.01-1.93,1.9-1.93.96,0,1.78.7,1.93,1.93h-3.83ZM53.14,177.41h2.34l.02-4.18c0-1.41.31-2.06.7-2.5.43-.5.94-.74,1.59-.74.14,0,.26.02.39.04l.02-2.24c-.12-.02-.31-.05-.5-.05-1.03,0-1.92.7-2.17,1.68l-.09-1.43h-2.29l-.02,9.42ZM49,176.35l.14,1.05h2.19v-9.41l-2.33-.02v5.28c0,1.44-.79,2.18-1.73,2.18-.87,0-1.42-.5-1.42-1.83v-5.63h-2.34v6.48c0,1.24.34,1.91.87,2.45.5.5,1.23.81,2.17.81,1.08,0,1.92-.5,2.44-1.37ZM39.68,173.98c-.12.74-.33,1.04-.67,1.32-.29.24-.65.39-1.13.39-1.06,0-2.02-.82-2.02-2.93,0-2.31,1.03-3.17,2.1-3.17.84,0,1.54.67,1.66,1.61l2.26-.13c-.19-1.96-1.59-3.48-3.98-3.48-1.71,0-2.91.72-3.69,1.98-.53.82-.84,1.83-.84,3.15,0,1.91.72,3.35,1.81,4.22.68.54,1.52.87,2.7.87.82,0,1.3-.13,1.73-.31,1.32-.52,2.12-1.59,2.29-3.41l-2.22-.11ZM25.45,173.39l6.46.02c0-2.8-1.16-5.76-4.41-5.76s-4.38,2.87-4.38,5.02c0,3.13,1.92,5.07,4.36,5.07s3.92-1.43,4.28-3.07l-2.36-.17c-.44.87-1.06,1.22-1.81,1.22-1.11,0-2.02-.82-2.14-2.33ZM25.56,171.56c.14-1.15,1.01-1.93,1.9-1.93.96,0,1.78.7,1.93,1.93h-3.83Z"/>
  <path class="cls-2" d="M13.18,187.65h2.4v-2.26h-2.4v2.26ZM137.37,198.5h2.57v-2.59h-2.57v2.59ZM133.1,197.44l.12,1.05h2.27v-9.41l-2.4-.02v5.28c0,1.44-.81,2.18-1.8,2.18-.88,0-1.45-.5-1.45-1.83v-5.63h-2.42v6.48c0,1.24.34,1.91.88,2.44.53.5,1.27.82,2.24.82,1.11,0,1.99-.5,2.54-1.37ZM123.19,197.44v4.15l2.42-.02-.02-12.48h-2.36l-.11.98c-.58-.8-1.45-1.3-2.61-1.3-2.77,0-3.93,2.83-3.93,5.04,0,2.67,1.57,5,3.97,5,1.2,0,2.15-.56,2.65-1.37ZM121.18,196.85c-1.08,0-2.12-.83-2.12-2.91s1.08-2.98,2.05-2.98,2.05.83,2.05,2.94-1.06,2.94-1.97,2.94ZM108.41,194.48l6.67.02c0-2.8-1.22-5.76-4.55-5.76s-4.52,2.87-4.52,5.02c0,3.13,1.98,5.07,4.48,5.07s4.06-1.43,4.41-3.07l-2.42-.17c-.46.87-1.09,1.22-1.87,1.22-1.15,0-2.08-.82-2.2-2.33ZM108.51,192.65c.14-1.15,1.04-1.93,1.96-1.93.99,0,1.83.7,1.99,1.93h-3.95ZM96.16,195.35c.05,1.78,1.46,3.48,4.22,3.48s4.04-1.57,4.04-3.26c0-.59-.19-1.18-.55-1.65-.33-.45-.78-.78-1.83-1.04l-2.59-.63c-.53-.15-.76-.5-.76-.83,0-.37.33-.94,1.5-.94,1.29,0,1.85.7,1.85,1.46l2.13-.04c-.04-.94-.51-1.89-1.29-2.48-.51-.39-1.36-.72-2.66-.72-2.58,0-3.72,1.46-3.72,3.07,0,.76.19,1.3.62,1.78.32.35.71.65,1.71.87l1.96.46c1.13.26,1.25.63,1.25,1.07,0,.41-.37,1.06-1.69,1.06s-1.91-.7-1.99-1.68l-2.19.02ZM79.2,198.5h2.42v-5.18c0-1.54.79-2.26,1.8-2.26.86,0,1.45.52,1.45,1.7v5.74h2.4v-6.5c0-1.15-.35-1.93-.93-2.46-.53-.46-1.34-.8-2.12-.8-1.3,0-2.19.65-2.61,1.52l.02-4.87h-2.42v13.11ZM75.23,195.07c-.12.74-.34,1.04-.69,1.31-.3.24-.69.39-1.16.39-1.09,0-2.1-.82-2.1-2.93,0-2.31,1.08-3.17,2.17-3.17.86,0,1.59.67,1.73,1.61l2.31-.13c-.19-1.96-1.64-3.48-4.09-3.48-1.76,0-3,.72-3.81,1.98-.55.81-.86,1.83-.86,3.15,0,1.91.74,3.35,1.85,4.22.71.54,1.59.87,2.8.87.85,0,1.34-.13,1.78-.31,1.36-.52,2.17-1.59,2.35-3.41l-2.28-.11ZM58.98,198.5h2.42l.02-5.28c0-.74.14-1.09.33-1.39.32-.48.88-.8,1.46-.8.83,0,1.43.57,1.43,1.63v5.83h2.42v-6.65c0-1.76-1.23-3.11-3.09-3.11-1.29,0-2.2.72-2.5,1.46l-.11-1.11-2.36-.02-.02,9.42ZM54.71,197.44l.12,1.05h2.28v-9.41l-2.4-.02v5.28c0,1.44-.81,2.18-1.8,2.18-.88,0-1.45-.5-1.45-1.83v-5.63h-2.42v6.48c0,1.24.34,1.91.88,2.44.53.5,1.27.82,2.24.82,1.11,0,1.99-.5,2.54-1.37ZM44.75,197.42c.04.46.14.8.28,1.07h2.47c-.32-.39-.41-.67-.41-.98v-5.17c0-2.26-1.11-3.61-4.04-3.61-2.72,0-3.85,1.55-3.79,3.15l2.12.04c0-.7.51-1.37,1.75-1.37s1.57.61,1.57,1.05c0,.39-.23.74-.88.87l-1.38.24c-1.97.37-2.52.76-2.89,1.11-.53.5-.83,1.2-.83,1.96,0,1.56,1.16,2.96,3.44,2.96,1.31,0,2.08-.46,2.59-1.33ZM44.75,193.53v1.18c0,1.33-.79,2.17-2.17,2.17-1.02,0-1.5-.63-1.5-1.2,0-.45.14-.95,1.66-1.39l1.04-.3c.48-.13.78-.32.97-.46ZM34.66,198.5h2.42v-13.11h-2.4l-.02,13.11ZM17.45,198.5h2.42l.02-5.28c0-.74.14-1.09.33-1.39.32-.48.88-.8,1.46-.8.83,0,1.43.57,1.43,1.63v5.83h2.42v-6.65c0-1.76-1.23-3.11-3.09-3.11-1.29,0-2.2.72-2.51,1.46l-.11-1.11-2.36-.02-.02,9.42ZM13.16,198.5h2.42v-9.42h-2.42v9.42Z"/>
</svg>