<?xml version="1.0" encoding="UTF-8"?>
<svg id="Lager_1" data-name="Lager 1" xmlns="http://www.w3.org/2000/svg" viewBox="0 0 153.09 218.69">
  <defs>
    <style>
      .cls-1 {
        fill: #1a4080;
      }

      .cls-1, .cls-2 {
        fill-rule: evenodd;
      }

      .cls-2 {
        fill: #fff;
      }
    </style>
  </defs>
  <polyline class="cls-2" points="0 218.69 153.09 218.69 153.09 0 0 0 0 218.69"/>
  <path class="cls-1" d="M17.57,65.3c0,32.57,26.42,58.99,58.99,58.99s58.97-26.42,58.97-58.99S109.13,6.33,76.56,6.33s-58.99,26.4-58.99,58.97ZM76.66,20.36c-3.32,0-6.72,1.6-9.08,4.27-1.91,2.16-2.83,4.73-2.54,7.05l6.58,48.52c.24,1.58,1.22,5.32,5.04,5.32s4.85-4.1,5.05-5.36l6.59-48.51c.27-2.3-.68-4.88-2.6-7.05-2.36-2.66-5.74-4.25-9.03-4.25ZM76.66,96.76c-3.39,0-6.14,2.76-6.14,6.14s2.76,6.14,6.14,6.14,6.15-2.75,6.15-6.14-2.76-6.14-6.15-6.14Z"/>
  <polyline class="cls-1" points="10.06 133.74 143.05 133.74 143.05 208.97 10.06 208.97 10.06 133.74"/>
  <path class="cls-2" d="M21.82,149.6c0,2.41,1.8,4.55,5.61,4.55s5.5-2.06,5.5-4.26c0-1.65-1.02-3.15-3.28-3.72l-3.11-.78c-.93-.24-1.02-.35-1.22-.56-.22-.24-.33-.54-.33-.87,0-.76.65-1.67,2.52-1.67.91,0,1.61.31,1.98.7.37.35.59.87.63,1.41l2.59.04c-.11-1.44-.59-2.31-1.31-2.98-.74-.67-2.15-1.31-4.06-1.31-3.46,0-5.07,1.94-5.07,4.11,0,1.67.94,3.02,3.24,3.59l2.67.68c.48.11,1.19.2,1.63.76.22.3.33.63.33.87,0,.85-.65,1.81-2.78,1.81s-2.93-1.07-2.89-2.37l-2.65-.02ZM124.25,149.69l6.98.02c0-2.8-1.26-5.76-4.78-5.76s-4.72,2.87-4.72,5.02c0,3.13,2.07,5.07,4.7,5.07s4.24-1.43,4.63-3.07l-2.54-.17c-.48.87-1.15,1.22-1.96,1.22-1.2,0-2.19-.81-2.31-2.33ZM124.35,147.86c.17-1.15,1.11-1.92,2.07-1.92,1.04,0,1.93.7,2.09,1.92h-4.17ZM111.52,153.71h2.54l.02-5.28c0-.74.15-1.09.35-1.39.33-.48.93-.8,1.54-.8.87,0,1.5.57,1.5,1.63v5.83h2.54v-6.65c0-1.76-1.3-3.11-3.26-3.11-1.35,0-2.3.72-2.61,1.46l-.11-1.11-2.48-.02-.02,9.42ZM107.02,153.71h2.54v-9.42h-2.54v9.42ZM107.03,142.86h2.52v-2.26h-2.52v2.26ZM96.04,154.23c.11.89.39,1.39.92,1.89.57.56,1.63,1.07,3.46,1.07,2.04,0,3.33-.76,3.96-1.57.44-.57.67-1.09.67-2.5v-8.83h-2.43l-.07,1.15c-.19-.3-.7-1.48-2.8-1.48-2.28,0-4.26,1.81-4.26,4.72s2,4.74,4.24,4.74c1.5,0,2.44-.68,2.8-1.41v1.02c0,1.59-.72,2.26-2.18,2.26-1.09,0-1.63-.56-1.7-1.15l-2.61.09ZM100.33,151.23c-1.22,0-2.26-.89-2.26-2.63,0-1.52,1.06-2.48,2.2-2.48s2.22.96,2.22,2.55-1.07,2.55-2.17,2.55ZM85.28,153.71h2.54l.02-5.28c0-.74.15-1.09.35-1.39.33-.48.93-.8,1.54-.8.87,0,1.5.57,1.5,1.63v5.83h2.54v-6.65c0-1.76-1.3-3.11-3.26-3.11-1.35,0-2.3.72-2.61,1.46l-.11-1.11-2.48-.02-.02,9.42ZM76.52,149.69l6.96.02c0-2.8-1.26-5.76-4.78-5.76s-4.7,2.87-4.7,5.02c0,3.13,2.07,5.07,4.68,5.07s4.24-1.43,4.63-3.07l-2.54-.17c-.48.87-1.15,1.22-1.96,1.22-1.2,0-2.18-.81-2.3-2.33ZM76.59,147.86c.17-1.15,1.11-1.92,2.07-1.92,1.04,0,1.93.7,2.09,1.92h-4.17ZM64.74,153.71v-1.94h-.94c-.3,0-.59-.17-.72-.35-.06-.07-.13-.22-.13-.74v-4.67h1.72v-1.72h-1.7l-.02-2.98h-2.54v2.98h-1.31v1.74l1.33-.02v4.87c0,2.13.87,2.83,2.26,2.83h2.06ZM52.54,153.71h2.54v-4.18c0-1.41.35-2.06.76-2.5.48-.5,1.04-.74,1.74-.74.13,0,.28.02.43.04v-2.24c-.11-.02-.31-.05-.54-.05-1.09,0-2.05.7-2.35,1.68l-.07-1.43h-2.48l-.02,9.42ZM47.84,152.64c.04.46.15.8.3,1.07h2.57c-.32-.39-.41-.67-.43-.98l.02-5.17c0-2.26-1.17-3.61-4.24-3.61-2.85,0-4.04,1.56-4,3.15l2.24.04c0-.7.54-1.37,1.83-1.37s1.65.61,1.65,1.05c0,.39-.24.74-.93.87l-1.44.24c-2.09.37-2.65.76-3.04,1.11-.56.5-.87,1.2-.87,1.96,0,1.55,1.22,2.96,3.61,2.96,1.37,0,2.19-.46,2.72-1.33ZM47.84,148.75v1.18c0,1.33-.83,2.17-2.28,2.17-1.07,0-1.57-.63-1.57-1.2,0-.44.15-.94,1.74-1.39l1.09-.3c.5-.13.81-.32,1.02-.46ZM39.88,153.71v-1.94h-.94c-.3,0-.59-.17-.72-.35-.06-.07-.13-.22-.13-.74v-4.67h1.72v-1.72h-1.7l-.02-2.98h-2.54v2.98h-1.31v1.74l1.33-.02v4.87c0,2.13.87,2.83,2.26,2.83h2.05Z"/>
  <path class="cls-2" d="M37.64,166.55h2.54v-2.26h-2.54v2.26ZM106.96,177.4h2.52l.02-5.18c0-1.54.83-2.26,1.89-2.26.89,0,1.52.52,1.52,1.7l-.02,5.74h2.54v-6.5c0-1.15-.39-1.92-1-2.46-.55-.46-1.39-.8-2.2-.8-1.37,0-2.31.65-2.74,1.52v-4.87h-2.52v13.11ZM102.76,173.98c-.13.74-.35,1.04-.7,1.32-.33.24-.72.39-1.24.39-1.13,0-2.18-.82-2.18-2.93,0-2.31,1.11-3.17,2.28-3.17.91,0,1.67.67,1.81,1.61l2.43-.13c-.2-1.96-1.72-3.48-4.3-3.48-1.85,0-3.17.72-4.02,1.98-.56.82-.89,1.83-.89,3.15,0,1.91.76,3.35,1.94,4.22.74.54,1.65.87,2.93.87.89,0,1.43-.13,1.89-.32,1.43-.52,2.28-1.59,2.48-3.41l-2.43-.11ZM85.72,177.4h2.54v-5.28c0-.74.15-1.09.35-1.39.35-.48.94-.8,1.55-.8.87,0,1.5.57,1.5,1.63v5.83h2.52v-6.65c0-1.76-1.3-3.11-3.24-3.11-1.35,0-2.3.72-2.61,1.46l-.11-1.11-2.48-.02-.02,9.42ZM81.22,176.35l.15,1.05h2.39l-.02-9.41-2.5-.02v5.28c0,1.44-.87,2.18-1.89,2.18-.94,0-1.54-.5-1.54-1.83v-5.63h-2.5v6.48c0,1.24.35,1.91.93,2.45.52.5,1.31.81,2.33.81,1.17,0,2.09-.5,2.65-1.37ZM70.78,176.33c.06.46.17.8.32,1.07h2.57c-.32-.39-.41-.67-.43-.98v-5.17c0-2.26-1.17-3.61-4.24-3.61-2.85,0-4.04,1.55-3.98,3.15l2.24.04c0-.7.52-1.37,1.81-1.37s1.67.61,1.67,1.06c0,.39-.24.74-.93.87l-1.46.24c-2.07.37-2.63.76-3.04,1.11-.55.5-.85,1.2-.85,1.96,0,1.56,1.22,2.96,3.59,2.96,1.39,0,2.18-.46,2.72-1.33ZM70.8,172.44l-.02,1.18c0,1.33-.83,2.17-2.28,2.17-1.06,0-1.57-.63-1.57-1.2,0-.44.17-.94,1.76-1.39l1.09-.3c.48-.13.81-.32,1.02-.46ZM60.21,177.4h2.54v-13.11h-2.52l-.02,13.11ZM42.14,177.4h2.54v-5.28c0-.74.15-1.09.35-1.39.35-.48.94-.8,1.56-.8.87,0,1.5.57,1.5,1.63v5.83h2.52v-6.65c0-1.76-1.3-3.11-3.24-3.11-1.35,0-2.3.72-2.61,1.46l-.11-1.11-2.48-.02-.02,9.42ZM37.64,177.4h2.52v-9.42h-2.52v9.42Z"/>
  <path class="cls-2" d="M34.08,193.7c.06,1.78,1.56,3.48,4.44,3.48s4.22-1.57,4.22-3.26c0-.59-.2-1.18-.57-1.65-.35-.44-.82-.78-1.93-1.04l-2.7-.63c-.57-.15-.8-.5-.8-.83,0-.37.33-.94,1.56-.94,1.35,0,1.94.7,1.96,1.46l2.24-.04c-.06-.94-.56-1.89-1.35-2.48-.55-.39-1.43-.72-2.81-.72-2.7,0-3.91,1.46-3.91,3.07,0,.76.22,1.3.65,1.78.35.35.76.65,1.82.87l2.04.46c1.19.26,1.33.63,1.33,1.07,0,.41-.39,1.06-1.8,1.06-1.33,0-2-.7-2.07-1.68l-2.32.02ZM111.98,192.83l7,.02c0-2.8-1.26-5.76-4.78-5.76s-4.74,2.87-4.74,5.02c0,3.13,2.07,5.07,4.72,5.07s4.24-1.43,4.63-3.07l-2.56-.17c-.48.87-1.15,1.22-1.96,1.22-1.2,0-2.18-.82-2.31-2.33ZM112.09,191c.15-1.15,1.09-1.93,2.06-1.93,1.04,0,1.93.7,2.09,1.93h-4.15ZM105.48,193.42c-.13.74-.35,1.04-.72,1.32-.32.24-.7.39-1.22.39-1.15,0-2.18-.82-2.18-2.93,0-2.31,1.11-3.17,2.28-3.17.91,0,1.67.67,1.8,1.61l2.44-.13c-.2-1.96-1.72-3.48-4.32-3.48-1.85,0-3.15.72-4,1.98-.57.81-.91,1.83-.91,3.15,0,1.91.78,3.35,1.96,4.22.74.54,1.65.87,2.93.87.89,0,1.41-.13,1.87-.32,1.43-.52,2.3-1.59,2.48-3.41l-2.41-.11ZM88.42,196.85h2.54l.02-5.28c0-.74.15-1.09.35-1.39.33-.48.93-.8,1.54-.8.89,0,1.52.57,1.52,1.63l-.02,5.83h2.54v-6.65c0-1.76-1.3-3.11-3.24-3.11-1.35,0-2.3.72-2.63,1.46l-.09-1.11-2.5-.02-.02,9.43ZM79.65,192.83l7,.02c0-2.8-1.26-5.76-4.78-5.76s-4.74,2.87-4.74,5.02c0,3.13,2.07,5.07,4.72,5.07s4.24-1.43,4.63-3.07l-2.56-.17c-.48.87-1.15,1.22-1.96,1.22-1.2,0-2.18-.82-2.31-2.33ZM79.76,191c.15-1.15,1.09-1.93,2.06-1.93,1.04,0,1.93.7,2.09,1.93h-4.15ZM72.85,195.79l.15,1.06h2.37v-9.41l-2.52-.02v5.28c0,1.45-.85,2.18-1.87,2.18-.94,0-1.54-.5-1.54-1.83v-5.63h-2.54v6.48c0,1.24.37,1.91.94,2.44.54.5,1.33.82,2.35.82,1.17,0,2.07-.5,2.65-1.37ZM62.45,195.79v4.15l2.54-.02v-12.48h-2.48l-.13.98c-.59-.8-1.52-1.3-2.74-1.3-2.91,0-4.13,2.83-4.13,5.04,0,2.67,1.65,5,4.17,5,1.26,0,2.26-.56,2.78-1.37ZM60.34,195.2c-1.13,0-2.22-.83-2.22-2.91s1.13-2.98,2.15-2.98,2.15.83,2.15,2.94-1.09,2.94-2.07,2.94ZM46.93,192.83l7,.02c0-2.8-1.26-5.76-4.78-5.76s-4.74,2.87-4.74,5.02c0,3.13,2.07,5.07,4.72,5.07s4.24-1.43,4.63-3.07l-2.56-.17c-.48.87-1.15,1.22-1.96,1.22-1.2,0-2.19-.82-2.32-2.33ZM47.04,191c.15-1.15,1.09-1.93,2.06-1.93,1.04,0,1.93.7,2.09,1.93h-4.15Z"/>
</svg>