<?xml version="1.0" encoding="UTF-8"?>
<svg id="Lager_1" data-name="Lager 1" xmlns="http://www.w3.org/2000/svg" viewBox="0 0 153.09 218.69">
  <defs>
    <style>
      .cls-1 {
        fill: #1a4080;
      }

      .cls-1, .cls-2 {
        fill-rule: evenodd;
      }

      .cls-2 {
        fill: #fff;
      }
    </style>
  </defs>
  <polyline class="cls-2" points="0 218.69 153.09 218.69 153.09 0 0 0 0 218.69"/>
  <path class="cls-1" d="M17.57,65.3c0,32.57,26.42,58.99,58.99,58.99s58.97-26.42,58.97-58.99S109.13,6.33,76.56,6.33s-58.99,26.4-58.99,58.97ZM76.66,20.36c-3.32,0-6.72,1.6-9.08,4.27-1.91,2.16-2.83,4.73-2.54,7.05l6.58,48.52c.24,1.58,1.22,5.32,5.04,5.32s4.85-4.1,5.04-5.36l6.59-48.51c.27-2.3-.68-4.88-2.6-7.05-2.36-2.66-5.74-4.25-9.03-4.25ZM76.66,96.76c-3.39,0-6.14,2.76-6.14,6.14s2.76,6.14,6.14,6.14,6.15-2.75,6.15-6.14-2.76-6.14-6.15-6.14Z"/>
  <polyline class="cls-1" points="10.06 133.74 143.05 133.74 143.05 208.97 10.06 208.97 10.06 133.74"/>
  <path class="cls-2" d="M13.51,155.06h9.07v-2.26h-6.35v-10.85h-2.72v13.11ZM139.57,155.06v-1.94h-.94c-.3,0-.59-.17-.72-.35-.06-.07-.13-.22-.13-.74v-4.67h1.72v-1.72h-1.7l-.02-2.98h-2.52v2.98h-1.33v1.74l1.33-.02v4.87c0,2.13.87,2.83,2.28,2.83h2.04ZM129.88,153.99c.04.46.15.8.3,1.07h2.59c-.33-.39-.43-.67-.43-.98v-5.17c0-2.26-1.17-3.61-4.24-3.61-2.85,0-4.04,1.55-3.98,3.15l2.22.04c0-.7.54-1.37,1.83-1.37s1.65.61,1.65,1.05c0,.39-.24.74-.93.87l-1.44.24c-2.07.37-2.65.76-3.04,1.11-.56.5-.87,1.2-.87,1.96,0,1.55,1.22,2.96,3.61,2.96,1.37,0,2.18-.46,2.72-1.33ZM129.88,150.1v1.18c0,1.33-.83,2.17-2.28,2.17-1.07,0-1.57-.63-1.57-1.2,0-.45.15-.95,1.74-1.39l1.11-.3c.48-.13.8-.32,1-.46ZM117.24,155.42c2.87,0,4.96-2.02,4.96-5.09s-2.07-5.04-4.98-5.04-4.94,2.04-4.94,5.02,2.09,5.11,4.96,5.11ZM117.22,153.43c-1.2,0-2.35-.93-2.35-3.02,0-2.26,1.13-3.15,2.37-3.15s2.37.91,2.37,3.05-1.15,3.11-2.39,3.11ZM101.22,155.06h2.5l.13-.96c.67.83,1.57,1.26,2.72,1.26,2.07,0,4.13-1.7,4.13-5.04s-2.07-5-4.11-5c-1.37,0-2.33.59-2.81,1.41v-4.78h-2.56v13.11ZM105.94,153.17c-1.06,0-2.15-.83-2.15-2.94s1.09-2.94,2.13-2.94c1.13,0,2.19.8,2.19,2.98s-1.07,2.91-2.17,2.91ZM92.44,151.05l7,.02c0-2.8-1.28-5.76-4.78-5.76s-4.74,2.87-4.74,5.02c0,3.13,2.07,5.07,4.7,5.07s4.26-1.42,4.63-3.07l-2.54-.17c-.48.87-1.15,1.22-1.96,1.22-1.2,0-2.19-.82-2.32-2.33ZM92.55,149.21c.15-1.15,1.09-1.93,2.06-1.93,1.04,0,1.93.7,2.09,1.93h-4.15ZM84.33,155.06h2.54v-7.74h1.83v-1.68h-1.83v-.18c0-.85.15-1.09.32-1.26.2-.22.48-.39,1.11-.37h.41v-1.87h-1.44c-.85,0-3.17.15-2.93,3.68h-1.37v1.68h1.37v7.74ZM78.85,155.06h2.54v-9.42h-2.54v9.42ZM78.87,144.21h2.54v-2.26h-2.54v2.26ZM74.37,155.06h2.52v-13.11h-2.5l-.02,13.11ZM59.86,155.06h2.54l.02-4.18c0-1.41.33-2.05.76-2.5.46-.5,1.02-.74,1.72-.74.15,0,.28.02.43.04l.02-2.24c-.13-.02-.33-.06-.56-.06-1.09,0-2.05.7-2.35,1.68l-.07-1.43h-2.48l-.02,9.42ZM51.08,151.05l7,.02c0-2.8-1.28-5.76-4.78-5.76s-4.74,2.87-4.74,5.02c0,3.13,2.07,5.07,4.7,5.07s4.26-1.42,4.63-3.07l-2.54-.17c-.48.87-1.15,1.22-1.96,1.22-1.2,0-2.19-.82-2.32-2.33ZM51.19,149.21c.15-1.15,1.09-1.93,2.05-1.93,1.04,0,1.93.7,2.09,1.93h-4.15ZM36.73,155.06h2.43l1.76-6,1.63,6h2.39l2.89-9.41h-2.59l-1.63,5.91-1.57-5.91h-2.26l-1.63,5.89-1.52-5.89h-2.57l2.68,9.41ZM28.36,155.42c2.87,0,4.96-2.02,4.96-5.09s-2.07-5.04-4.98-5.04-4.94,2.04-4.94,5.02,2.09,5.11,4.96,5.11ZM28.34,153.43c-1.2,0-2.35-.93-2.35-3.02,0-2.26,1.13-3.15,2.37-3.15s2.37.91,2.37,3.05-1.15,3.11-2.39,3.11Z"/>
  <path class="cls-2" d="M18.77,177.44v-1.94h-.9c-.28,0-.57-.17-.69-.35-.05-.08-.12-.22-.12-.74v-4.67h1.65v-1.72h-1.63l-.02-2.98h-2.41v2.98h-1.28v1.74l1.28-.02v4.87c0,2.13.83,2.83,2.18,2.83h1.95ZM131.61,177.44h2.43l.02-5.28c0-.74.14-1.09.34-1.39.32-.48.89-.8,1.47-.8.83,0,1.44.57,1.44,1.63v5.83h2.43v-6.65c0-1.76-1.24-3.11-3.1-3.11-1.29,0-2.22.72-2.52,1.46l-.11-1.11-2.38-.02-.02,9.43ZM127.31,177.44h2.43v-9.43h-2.43v9.43ZM127.32,166.59h2.43v-2.26h-2.43v2.26ZM113.41,177.44h2.43l.02-4.18c0-1.41.32-2.06.73-2.5.44-.5.98-.74,1.65-.74.12,0,.27.02.41.04l.02-2.24c-.12-.02-.32-.05-.53-.05-1.05,0-1.97.7-2.25,1.68l-.07-1.43h-2.38l-.02,9.43ZM105,173.43l6.7.02c0-2.8-1.22-5.76-4.57-5.76s-4.54,2.87-4.54,5.02c0,3.13,1.98,5.07,4.5,5.07s4.08-1.43,4.43-3.07l-2.43-.17c-.46.87-1.1,1.22-1.88,1.22-1.15,0-2.09-.82-2.22-2.33ZM105.11,171.59c.14-1.15,1.05-1.93,1.97-1.93.99,0,1.84.7,2,1.93h-3.97ZM101.33,177.44v-1.94h-.9c-.28,0-.57-.17-.69-.35-.05-.08-.12-.22-.12-.74v-4.67h1.65v-1.72h-1.63l-.02-2.98h-2.41v2.98h-1.28v1.74l1.28-.02v4.87c0,2.13.83,2.83,2.18,2.83h1.95ZM92.06,176.37c.04.46.14.8.28,1.07h2.48c-.32-.39-.41-.67-.41-.98v-5.17c0-2.26-1.12-3.61-4.06-3.61-2.73,0-3.86,1.55-3.81,3.15l2.13.04c0-.7.51-1.37,1.76-1.37s1.58.61,1.58,1.06c0,.39-.23.74-.89.87l-1.38.24c-1.98.37-2.54.76-2.91,1.11-.53.5-.83,1.2-.83,1.96,0,1.56,1.17,2.96,3.46,2.96,1.31,0,2.09-.46,2.61-1.33ZM92.06,172.48v1.18c0,1.33-.8,2.17-2.18,2.17-1.03,0-1.51-.63-1.51-1.2,0-.44.14-.94,1.67-1.39l1.06-.3c.46-.13.76-.32.96-.46ZM75.09,177.44h2.31l1.68-6,1.56,6h2.29l2.77-9.41h-2.48l-1.56,5.91-1.51-5.91h-2.16l-1.54,5.89-1.45-5.89h-2.46l2.57,9.41ZM57.42,173.43l6.7.02c0-2.8-1.22-5.76-4.57-5.76s-4.54,2.87-4.54,5.02c0,3.13,1.98,5.07,4.5,5.07s4.08-1.43,4.43-3.07l-2.43-.17c-.46.87-1.1,1.22-1.88,1.22-1.15,0-2.09-.82-2.22-2.33ZM57.53,171.59c.14-1.15,1.05-1.93,1.97-1.93.99,0,1.84.7,2,1.93h-3.97ZM45.31,177.44h2.43v-5.18c0-1.54.81-2.26,1.81-2.26.87,0,1.45.52,1.45,1.7v5.74h2.41v-6.5c0-1.15-.35-1.93-.94-2.46-.53-.46-1.35-.8-2.13-.8-1.31,0-2.2.65-2.62,1.52l.02-4.87h-2.43v13.11ZM43.61,177.44v-1.94h-.9c-.28,0-.57-.17-.69-.35-.05-.08-.12-.22-.12-.74v-4.67h1.65v-1.72h-1.63l-.02-2.98h-2.41v2.98h-1.28v1.74l1.28-.02v4.87c0,2.13.83,2.83,2.18,2.83h1.95ZM24.78,177.8c2.75,0,4.75-2.02,4.75-5.09s-1.98-5.04-4.79-5.04-4.72,2.04-4.72,5.02,2,5.11,4.75,5.11ZM24.76,175.81c-1.15,0-2.25-.93-2.25-3.02,0-2.26,1.08-3.15,2.27-3.15s2.27.91,2.27,3.05-1.1,3.11-2.29,3.11Z"/>
  <path class="cls-2" d="M13.35,198.5h2.14v-13.11h-2.12l-.02,13.11ZM133.84,194.48l5.91.02c0-2.8-1.07-5.76-4.04-5.76s-4,2.87-4,5.02c0,3.13,1.75,5.07,3.99,5.07s3.59-1.43,3.9-3.07l-2.14-.17c-.41.87-.97,1.22-1.66,1.22-1.02,0-1.84-.82-1.96-2.33ZM133.92,192.65c.13-1.15.94-1.93,1.75-1.93.87,0,1.63.7,1.78,1.93h-3.53ZM128.34,195.07c-.11.74-.3,1.04-.61,1.31-.26.24-.59.39-1.04.39-.95,0-1.84-.82-1.84-2.93,0-2.31.94-3.17,1.93-3.17.77,0,1.4.67,1.53,1.61l2.06-.13c-.18-1.96-1.47-3.48-3.64-3.48-1.57,0-2.67.72-3.39,1.98-.48.81-.76,1.83-.76,3.15,0,1.91.64,3.35,1.65,4.22.63.54,1.4.87,2.47.87.76,0,1.2-.13,1.6-.31,1.2-.52,1.94-1.59,2.09-3.41l-2.04-.11ZM113.93,198.5h2.14l.02-5.28c0-.74.13-1.09.3-1.39.28-.48.79-.8,1.3-.8.74,0,1.27.57,1.27,1.63v5.83h2.14v-6.65c0-1.76-1.09-3.11-2.73-3.11-1.15,0-1.94.72-2.22,1.46l-.08-1.11-2.11-.02-.02,9.42ZM106.5,194.48l5.91.02c0-2.8-1.07-5.76-4.03-5.76s-4,2.87-4,5.02c0,3.13,1.76,5.07,3.99,5.07s3.59-1.43,3.9-3.07l-2.14-.17c-.41.87-.97,1.22-1.66,1.22-1.02,0-1.84-.82-1.96-2.33ZM106.59,192.65c.11-1.15.92-1.93,1.75-1.93.87,0,1.61.7,1.76,1.93h-3.51ZM100.73,197.44l.11,1.05h2.03v-9.41l-2.12-.02v5.28c0,1.44-.73,2.18-1.6,2.18-.79,0-1.3-.5-1.3-1.83v-5.63h-2.14v6.48c0,1.24.31,1.91.79,2.44.46.5,1.14.82,1.99.82.99,0,1.76-.5,2.24-1.37ZM91.93,197.44v4.15l2.14-.02v-12.48h-2.11l-.1.98c-.51-.8-1.28-1.3-2.32-1.3-2.45,0-3.47,2.83-3.47,5.04,0,2.67,1.38,5,3.52,5,1.06,0,1.9-.56,2.34-1.37ZM90.16,196.85c-.95,0-1.88-.83-1.88-2.91s.94-2.98,1.81-2.98,1.81.83,1.81,2.94-.92,2.94-1.75,2.94ZM78.81,194.48l5.91.02c0-2.8-1.05-5.76-4.04-5.76s-4,2.87-4,5.02c0,3.13,1.76,5.07,3.99,5.07s3.59-1.43,3.92-3.07l-2.16-.17c-.41.87-.97,1.22-1.66,1.22-1.01,0-1.84-.82-1.96-2.33ZM78.91,192.65c.13-1.15.92-1.93,1.75-1.93.87,0,1.61.7,1.76,1.93h-3.51ZM67.97,195.35c.03,1.78,1.3,3.48,3.74,3.48s3.59-1.57,3.59-3.26c0-.59-.18-1.18-.49-1.65-.3-.45-.69-.78-1.63-1.04l-2.29-.63c-.48-.15-.68-.5-.68-.83,0-.37.28-.94,1.33-.94,1.14,0,1.63.7,1.65,1.46l1.89-.04c-.03-.94-.48-1.89-1.15-2.48-.46-.39-1.2-.72-2.35-.72-2.31,0-3.31,1.46-3.31,3.07,0,.76.18,1.3.54,1.78.3.35.64.65,1.53.87l1.71.46c1.01.26,1.14.63,1.14,1.07,0,.41-.33,1.06-1.52,1.06-1.12,0-1.7-.7-1.76-1.68l-1.94.02ZM52.9,198.5h2.14l.02-5.18c0-1.54.71-2.26,1.6-2.26.76,0,1.27.52,1.27,1.7v5.74h2.14v-6.5c0-1.15-.33-1.93-.84-2.46-.46-.46-1.17-.8-1.86-.8-1.17,0-1.96.65-2.32,1.52v-4.87h-2.14v13.11ZM49.36,195.07c-.11.74-.3,1.04-.61,1.31-.26.24-.59.39-1.04.39-.96,0-1.84-.82-1.84-2.93,0-2.31.94-3.17,1.93-3.17.76,0,1.4.67,1.53,1.61l2.06-.13c-.18-1.96-1.47-3.48-3.64-3.48-1.58,0-2.67.72-3.39,1.98-.48.81-.76,1.83-.76,3.15,0,1.91.64,3.35,1.65,4.22.63.54,1.4.87,2.47.87.76,0,1.2-.13,1.6-.31,1.2-.52,1.93-1.59,2.09-3.41l-2.04-.11ZM34.94,198.5h2.14l.02-5.28c0-.74.13-1.09.3-1.39.28-.48.79-.8,1.3-.8.74,0,1.27.57,1.27,1.63v5.83h2.14v-6.65c0-1.76-1.09-3.11-2.75-3.11-1.14,0-1.94.72-2.21,1.46l-.08-1.11-2.11-.02-.02,9.42ZM31.16,197.44l.11,1.05h2.01v-9.41l-2.12-.02v5.28c0,1.44-.72,2.18-1.6,2.18-.79,0-1.29-.5-1.29-1.83v-5.63h-2.14v6.48c0,1.24.3,1.91.79,2.44.46.5,1.12.82,1.98.82.99,0,1.76-.5,2.26-1.37ZM22.29,197.42c.05.46.13.8.26,1.07h2.19c-.28-.39-.36-.67-.36-.98v-5.17c0-2.26-.99-3.61-3.59-3.61-2.4,0-3.41,1.55-3.36,3.15l1.89.04c0-.7.45-1.37,1.53-1.37s1.4.61,1.4,1.05c0,.39-.2.74-.77.87l-1.23.24c-1.76.37-2.22.76-2.57,1.11-.48.5-.72,1.2-.72,1.96,0,1.56,1.02,2.96,3.05,2.96,1.15,0,1.84-.46,2.29-1.33ZM22.31,193.53l-.02,1.18c0,1.33-.69,2.17-1.93,2.17-.89,0-1.32-.63-1.32-1.2,0-.45.13-.95,1.48-1.39l.92-.3c.41-.13.69-.32.86-.46Z"/>
</svg>