<?xml version="1.0" encoding="UTF-8"?>
<svg id="Lager_1" data-name="Lager 1" xmlns="http://www.w3.org/2000/svg" viewBox="0 0 153.09 218.69">
  <defs>
    <style>
      .cls-1 {
        fill: #1a4080;
      }

      .cls-1, .cls-2 {
        fill-rule: evenodd;
      }

      .cls-2 {
        fill: #fff;
      }
    </style>
  </defs>
  <polyline class="cls-2" points="0 218.69 153.09 218.69 153.09 0 0 0 0 218.69"/>
  <path class="cls-1" d="M17.57,65.3c0,32.57,26.42,58.99,58.99,58.99s58.98-26.42,58.98-58.99S109.13,6.33,76.56,6.33s-58.99,26.4-58.99,58.97ZM76.64,20.36c-3.32,0-6.72,1.6-9.08,4.27-1.91,2.16-2.83,4.73-2.54,7.05l6.58,48.52c.24,1.58,1.22,5.32,5.04,5.32s4.85-4.1,5.04-5.36l6.59-48.51c.27-2.3-.68-4.88-2.6-7.05-2.36-2.66-5.74-4.25-9.03-4.25ZM76.64,96.76c-3.39,0-6.14,2.76-6.14,6.14s2.76,6.14,6.14,6.14,6.15-2.75,6.15-6.14-2.76-6.14-6.15-6.14Z"/>
  <polyline class="cls-1" points="10.06 133.74 143.05 133.74 143.05 208.97 10.06 208.97 10.06 133.74"/>
  <path class="cls-2" d="M16.9,155.03h9.07v-2.26h-6.37v-10.85h-2.7v13.11ZM129.16,151.01l7,.02c0-2.8-1.26-5.76-4.78-5.76s-4.72,2.87-4.72,5.02c0,3.13,2.07,5.07,4.7,5.07s4.24-1.42,4.63-3.07l-2.55-.17c-.48.87-1.13,1.22-1.96,1.22-1.2,0-2.19-.82-2.31-2.33ZM129.27,149.18c.15-1.15,1.09-1.93,2.07-1.93s1.91.7,2.09,1.93h-4.17ZM122.35,153.97l.15,1.05h2.39l-.02-9.41-2.5-.02v5.28c0,1.45-.87,2.18-1.89,2.18-.94,0-1.54-.5-1.54-1.83v-5.63h-2.52v6.48c0,1.24.35,1.91.93,2.44.54.5,1.33.82,2.35.82,1.17,0,2.09-.5,2.65-1.37ZM112.27,151.6c-.15.74-.35,1.04-.72,1.31-.33.24-.72.39-1.24.39-1.13,0-2.19-.82-2.19-2.93,0-2.31,1.11-3.17,2.28-3.17.91,0,1.67.67,1.82,1.61l2.44-.13c-.22-1.96-1.74-3.48-4.31-3.48-1.85,0-3.17.72-4.02,1.98-.56.81-.89,1.83-.89,3.15,0,1.91.76,3.35,1.94,4.22.74.54,1.65.87,2.93.87.89,0,1.42-.13,1.89-.31,1.43-.52,2.3-1.59,2.48-3.41l-2.41-.11ZM95.11,151.88c.04,1.78,1.54,3.48,4.43,3.48s4.24-1.57,4.24-3.26c0-.59-.22-1.19-.59-1.65-.35-.45-.81-.78-1.93-1.04l-2.7-.63c-.57-.15-.8-.5-.8-.83,0-.37.33-.94,1.57-.94,1.33,0,1.93.7,1.94,1.46l2.24-.04c-.04-.94-.55-1.89-1.35-2.48-.56-.39-1.43-.72-2.8-.72-2.72,0-3.93,1.46-3.93,3.07,0,.76.22,1.3.67,1.78.33.35.74.65,1.8.87l2.04.46c1.19.26,1.33.63,1.33,1.07,0,.41-.39,1.06-1.78,1.06s-2.02-.7-2.09-1.68l-2.3.02ZM86.54,151.01l7,.02c0-2.8-1.26-5.76-4.78-5.76s-4.72,2.87-4.72,5.02c0,3.13,2.07,5.07,4.7,5.07s4.24-1.42,4.63-3.07l-2.55-.17c-.48.87-1.13,1.22-1.96,1.22-1.2,0-2.18-.82-2.31-2.33ZM86.65,149.18c.15-1.15,1.09-1.93,2.07-1.93s1.91.7,2.09,1.93h-4.17ZM77.74,155.03h2.54v-4.18c0-1.41.35-2.05.76-2.5.48-.5,1.02-.74,1.72-.74.15,0,.3.02.43.04l.02-2.24c-.13-.02-.33-.06-.54-.06-1.11,0-2.06.7-2.35,1.69l-.07-1.43h-2.5v9.42ZM63.25,155.03h2.54v-4.18c0-1.41.35-2.05.76-2.5.48-.5,1.02-.74,1.72-.74.15,0,.3.02.43.04l.02-2.24c-.13-.02-.33-.06-.54-.06-1.11,0-2.06.7-2.35,1.69l-.07-1.43h-2.5v9.42ZM54.45,151.01l7,.02c0-2.8-1.26-5.76-4.78-5.76s-4.72,2.87-4.72,5.02c0,3.13,2.07,5.07,4.7,5.07s4.24-1.42,4.63-3.07l-2.56-.17c-.48.87-1.13,1.22-1.96,1.22-1.2,0-2.19-.82-2.31-2.33ZM54.56,149.18c.15-1.15,1.09-1.93,2.07-1.93s1.91.7,2.09,1.93h-4.17ZM40.1,155.03h2.44l1.74-6,1.63,6h2.39l2.91-9.41h-2.59l-1.63,5.91-1.59-5.91h-2.24l-1.65,5.89-1.5-5.89h-2.57l2.67,9.41ZM31.75,155.38c2.85,0,4.94-2.02,4.94-5.09s-2.05-5.04-4.98-5.04-4.93,2.04-4.93,5.02,2.09,5.11,4.96,5.11ZM31.73,153.4c-1.2,0-2.37-.93-2.37-3.02,0-2.26,1.13-3.15,2.37-3.15s2.37.91,2.37,3.05-1.13,3.11-2.37,3.11Z"/>
  <path class="cls-2" d="M17.97,175.56c-.93,0-1.88-.83-1.88-2.94s.97-2.94,1.86-2.94c1,0,1.9.8,1.9,2.98s-.93,2.91-1.88,2.91ZM131.87,177.44h2.22l.02-5.28c0-.74.13-1.09.31-1.39.29-.48.82-.8,1.34-.8.77,0,1.32.57,1.32,1.63l-.02,5.83h2.22v-6.65c0-1.76-1.13-3.11-2.84-3.11-1.18,0-2.01.72-2.29,1.46l-.1-1.11-2.17-.02-.02,9.43ZM127.93,177.44h2.22v-9.43h-2.22v9.43ZM127.94,166.59h2.21v-2.26h-2.21v2.26ZM115.21,177.44h2.22l.02-4.18c0-1.41.29-2.06.65-2.5.42-.5.9-.74,1.52-.74.11,0,.25.02.38.04v-2.24c-.1-.02-.28-.05-.47-.05-.97,0-1.8.7-2.06,1.68l-.06-1.43h-2.17l-.02,9.43ZM107.53,173.43l6.11.02c0-2.8-1.09-5.76-4.17-5.76s-4.15,2.87-4.15,5.02c0,3.13,1.81,5.07,4.12,5.07s3.73-1.43,4.05-3.07l-2.22-.17c-.43.87-1,1.22-1.72,1.22-1.06,0-1.91-.82-2.03-2.33ZM107.61,171.59c.15-1.15.97-1.93,1.81-1.93.9,0,1.68.7,1.83,1.93h-3.65ZM104.18,177.44v-1.94h-.83c-.26,0-.51-.17-.64-.35-.03-.08-.1-.22-.1-.74v-4.67h1.49v-1.72h-1.49l-.02-2.98h-2.21v2.98h-1.16v1.74l1.18-.02-.02,4.87c0,2.13.77,2.83,2,2.83h1.8ZM95.68,176.37c.05.46.15.8.28,1.07h2.26c-.28-.39-.36-.67-.38-.98l.02-5.17c0-2.26-1.03-3.61-3.73-3.61-2.48,0-3.53,1.55-3.48,3.15l1.96.04c0-.7.46-1.37,1.58-1.37s1.45.61,1.45,1.06c0,.39-.21.74-.82.87l-1.26.24c-1.83.37-2.32.76-2.66,1.11-.49.5-.75,1.2-.75,1.96,0,1.56,1.06,2.96,3.16,2.96,1.19,0,1.91-.46,2.37-1.33ZM95.69,172.48l-.02,1.18c0,1.33-.72,2.17-1.99,2.17-.92,0-1.37-.63-1.37-1.2,0-.44.15-.94,1.54-1.39l.96-.3c.43-.13.7-.32.88-.46ZM80.15,177.44h2.14l1.52-6,1.42,6h2.09l2.55-9.41h-2.27l-1.42,5.91-1.39-5.91h-1.98l-1.42,5.89-1.32-5.89h-2.26l2.34,9.41ZM65.8,177.8c2.5,0,4.33-2.02,4.33-5.09s-1.8-5.04-4.36-5.04-4.31,2.04-4.31,5.02,1.83,5.11,4.35,5.11ZM65.78,175.81c-1.06,0-2.08-.93-2.08-3.02,0-2.26,1-3.15,2.08-3.15s2.08.91,2.08,3.05-1,3.11-2.08,3.11ZM60.3,177.44v-1.94h-.83c-.26,0-.52-.17-.64-.35-.05-.08-.11-.22-.11-.74v-4.67h1.5v-1.72h-1.49l-.02-2.98h-2.21v2.98h-1.16v1.74l1.16-.02v4.87c0,2.13.77,2.83,1.99,2.83h1.8ZM47.42,177.44v-1.94h-.83c-.26,0-.52-.17-.64-.35-.03-.08-.1-.22-.1-.74v-4.67h1.49v-1.72h-1.49l-.02-2.98h-2.21v2.98h-1.16v1.74l1.18-.02-.02,4.87c0,2.13.77,2.83,1.99,2.83h1.8ZM38.92,176.37c.05.46.15.8.26,1.07h2.27c-.28-.39-.36-.67-.38-.98v-5.17c0-2.26-1.01-3.61-3.71-3.61-2.5,0-3.53,1.55-3.48,3.15l1.96.04c0-.7.46-1.37,1.58-1.37s1.46.61,1.46,1.06c0,.39-.21.74-.82.87l-1.26.24c-1.83.37-2.32.76-2.66,1.11-.49.5-.77,1.2-.77,1.96,0,1.56,1.08,2.96,3.17,2.96,1.19,0,1.9-.46,2.37-1.33ZM38.94,172.48l-.02,1.18c0,1.33-.72,2.17-1.99,2.17-.93,0-1.37-.63-1.37-1.2,0-.44.13-.94,1.54-1.39l.97-.3c.43-.13.7-.32.88-.46ZM27.86,177.8c2.5,0,4.33-2.02,4.33-5.09s-1.8-5.04-4.35-5.04-4.33,2.04-4.33,5.02,1.83,5.11,4.35,5.11ZM27.84,175.81c-1.05,0-2.06-.93-2.06-3.02,0-2.26.98-3.15,2.08-3.15s2.08.91,2.08,3.05-1,3.11-2.09,3.11ZM13.83,177.44h2.19l.11-.96c.59.83,1.37,1.26,2.37,1.26,1.83,0,3.63-1.7,3.63-5.04s-1.81-5-3.61-5c-1.18,0-2.03.59-2.45,1.41l-.02-4.78h-2.22v13.11Z"/>
  <path class="cls-2" d="M14.2,198.5h2.11v-13.11h-2.1l-.02,13.11ZM133.07,194.48l5.83.02c0-2.8-1.06-5.76-3.98-5.76s-3.95,2.87-3.95,5.02c0,3.13,1.72,5.07,3.93,5.07s3.54-1.43,3.85-3.07l-2.11-.17c-.41.87-.96,1.22-1.64,1.22-1.01,0-1.82-.82-1.93-2.33ZM133.15,192.65c.13-1.15.93-1.93,1.72-1.93.86,0,1.61.7,1.76,1.93h-3.48ZM127.64,195.07c-.11.74-.29,1.04-.6,1.31-.26.24-.58.39-1.02.39-.94,0-1.82-.82-1.82-2.93,0-2.31.93-3.17,1.9-3.17.76,0,1.38.67,1.51,1.61l2.03-.13c-.18-1.96-1.45-3.48-3.59-3.48-1.54,0-2.63.72-3.35,1.98-.47.81-.75,1.83-.75,3.15,0,1.91.63,3.35,1.62,4.22.62.54,1.38.87,2.44.87.75,0,1.19-.13,1.58-.31,1.19-.52,1.92-1.59,2.06-3.41l-2.02-.11ZM113.42,198.5h2.11l.02-5.28c0-.74.13-1.09.29-1.39.28-.48.78-.8,1.28-.8.73,0,1.25.57,1.25,1.63v5.83h2.11v-6.65c0-1.76-1.07-3.11-2.7-3.11-1.14,0-1.92.72-2.19,1.46l-.08-1.11-2.08-.02-.02,9.42ZM106.09,194.48l5.83.02c0-2.8-1.06-5.76-3.98-5.76s-3.95,2.87-3.95,5.02c0,3.13,1.74,5.07,3.93,5.07s3.54-1.43,3.85-3.07l-2.11-.17c-.41.87-.96,1.22-1.64,1.22-1.01,0-1.82-.82-1.93-2.33ZM106.19,192.65c.11-1.15.91-1.93,1.72-1.93.86,0,1.59.7,1.74,1.93h-3.46ZM100.41,197.44l.11,1.05h2v-9.41l-2.1-.02v5.28c0,1.44-.72,2.18-1.58,2.18-.78,0-1.28-.5-1.28-1.83v-5.63h-2.11v6.48c0,1.24.31,1.91.78,2.44.45.5,1.12.82,1.97.82.98,0,1.74-.5,2.21-1.37ZM91.73,197.44v4.15l2.11-.02v-12.48h-2.08l-.1.98c-.5-.8-1.27-1.3-2.29-1.3-2.42,0-3.43,2.83-3.43,5.04,0,2.67,1.36,5,3.48,5,1.04,0,1.87-.56,2.31-1.37ZM89.97,196.85c-.94,0-1.85-.83-1.85-2.91s.93-2.98,1.79-2.98,1.79.83,1.79,2.94-.91,2.94-1.72,2.94ZM78.78,194.48l5.83.02c0-2.8-1.04-5.76-3.98-5.76s-3.95,2.87-3.95,5.02c0,3.13,1.74,5.07,3.93,5.07s3.54-1.43,3.87-3.07l-2.13-.17c-.41.87-.96,1.22-1.64,1.22-.99,0-1.82-.82-1.93-2.33ZM78.88,192.65c.13-1.15.91-1.93,1.72-1.93.86,0,1.59.7,1.74,1.93h-3.46ZM68.09,195.35c.03,1.78,1.28,3.48,3.69,3.48s3.54-1.57,3.54-3.26c0-.59-.18-1.18-.49-1.65-.29-.45-.68-.78-1.61-1.04l-2.26-.63c-.47-.15-.67-.5-.67-.83,0-.37.28-.94,1.32-.94,1.12,0,1.61.7,1.62,1.46l1.87-.04c-.03-.94-.47-1.89-1.14-2.48-.45-.39-1.19-.72-2.32-.72-2.27,0-3.27,1.46-3.27,3.07,0,.76.18,1.3.54,1.78.29.35.63.65,1.51.87l1.69.46c.99.26,1.12.63,1.12,1.07,0,.41-.32,1.06-1.49,1.06-1.1,0-1.67-.7-1.74-1.68l-1.92.02ZM53.22,198.5h2.11l.02-5.18c0-1.54.7-2.26,1.58-2.26.75,0,1.25.52,1.25,1.7v5.74h2.11v-6.5c0-1.15-.32-1.93-.83-2.46-.45-.46-1.15-.8-1.84-.8-1.15,0-1.93.65-2.29,1.52v-4.87h-2.11v13.11ZM49.72,195.07c-.11.74-.29,1.04-.6,1.31-.26.24-.58.39-1.02.39-.94,0-1.82-.82-1.82-2.93,0-2.31.93-3.17,1.9-3.17.75,0,1.38.67,1.51,1.61l2.03-.13c-.18-1.96-1.45-3.48-3.59-3.48-1.56,0-2.63.72-3.35,1.98-.47.81-.75,1.83-.75,3.15,0,1.91.63,3.35,1.62,4.22.62.54,1.38.87,2.44.87.75,0,1.19-.13,1.58-.31,1.19-.52,1.9-1.59,2.06-3.41l-2.01-.11ZM35.5,198.5h2.11l.02-5.28c0-.74.13-1.09.29-1.39.28-.48.78-.8,1.28-.8.73,0,1.25.57,1.25,1.63v5.83h2.11v-6.65c0-1.76-1.07-3.11-2.71-3.11-1.12,0-1.92.72-2.18,1.46l-.08-1.11-2.08-.02-.02,9.42ZM31.77,197.44l.11,1.05h1.98v-9.41l-2.1-.02v5.28c0,1.44-.71,2.18-1.58,2.18-.78,0-1.27-.5-1.27-1.83v-5.63h-2.11v6.48c0,1.24.29,1.91.78,2.44.46.5,1.1.82,1.95.82.98,0,1.74-.5,2.23-1.37ZM23.02,197.42c.05.46.13.8.26,1.07h2.16c-.28-.39-.36-.67-.36-.98v-5.17c0-2.26-.98-3.61-3.54-3.61-2.37,0-3.36,1.55-3.31,3.15l1.87.04c0-.7.44-1.37,1.51-1.37s1.38.61,1.38,1.05c0,.39-.2.74-.76.87l-1.22.24c-1.74.37-2.19.76-2.53,1.11-.47.5-.72,1.2-.72,1.96,0,1.56,1.01,2.96,3.01,2.96,1.14,0,1.82-.46,2.26-1.33ZM23.04,193.53l-.02,1.18c0,1.33-.68,2.17-1.9,2.17-.88,0-1.3-.63-1.3-1.2,0-.45.13-.95,1.46-1.39l.91-.3c.41-.13.68-.32.84-.46Z"/>
</svg>