<?xml version="1.0" encoding="UTF-8"?>
<svg id="Lager_1" data-name="Lager 1" xmlns="http://www.w3.org/2000/svg" viewBox="0 0 153.09 218.69">
  <defs>
    <style>
      .cls-1 {
        fill: #1a4080;
      }

      .cls-1, .cls-2 {
        fill-rule: evenodd;
      }

      .cls-2 {
        fill: #fff;
      }
    </style>
  </defs>
  <polyline class="cls-2" points="0 218.69 153.09 218.69 153.09 0 0 0 0 218.69"/>
  <path class="cls-1" d="M17.57,65.3c0,32.57,26.42,58.99,58.99,58.99s58.97-26.42,58.97-58.99S109.13,6.33,76.56,6.33s-58.99,26.4-58.99,58.97ZM76.64,20.36c-3.32,0-6.72,1.6-9.08,4.27-1.9,2.16-2.83,4.73-2.54,7.05l6.58,48.52c.24,1.58,1.22,5.32,5.04,5.32s4.85-4.1,5.04-5.36l6.59-48.51c.27-2.3-.68-4.88-2.6-7.05-2.36-2.66-5.74-4.25-9.03-4.25ZM76.64,96.76c-3.39,0-6.14,2.76-6.14,6.14s2.76,6.14,6.14,6.14,6.15-2.75,6.15-6.14-2.76-6.14-6.15-6.14Z"/>
  <polyline class="cls-1" points="10.06 133.74 143.05 133.74 143.05 208.97 10.06 208.97 10.06 133.74"/>
  <path class="cls-2" d="M26.6,151.12c0,2.41,1.8,4.55,5.61,4.55s5.5-2.05,5.5-4.26c0-1.65-1.02-3.15-3.28-3.72l-3.11-.78c-.93-.24-1.02-.35-1.22-.55-.22-.24-.33-.54-.33-.87,0-.76.65-1.67,2.52-1.67.91,0,1.61.32,1.98.7.37.35.59.87.63,1.41l2.59.04c-.11-1.44-.59-2.32-1.31-2.98-.74-.67-2.15-1.32-4.06-1.32-3.46,0-5.07,1.94-5.07,4.11,0,1.67.94,3.02,3.24,3.59l2.67.68c.48.11,1.19.2,1.63.76.22.3.33.63.33.87,0,.85-.65,1.82-2.78,1.82s-2.93-1.07-2.89-2.37l-2.65-.02ZM121,155.23h2.54v-4.18c0-1.41.35-2.05.76-2.5.48-.5,1.04-.74,1.74-.74.13,0,.28.02.43.04v-2.24c-.11-.02-.31-.05-.54-.05-1.09,0-2.05.7-2.35,1.68l-.07-1.43h-2.48l-.02,9.42ZM112.22,151.21l6.98.02c0-2.8-1.26-5.76-4.78-5.76s-4.72,2.87-4.72,5.02c0,3.13,2.07,5.07,4.7,5.07s4.24-1.43,4.63-3.07l-2.54-.17c-.48.87-1.15,1.22-1.96,1.22-1.2,0-2.19-.82-2.31-2.33ZM112.31,149.38c.17-1.15,1.11-1.93,2.07-1.93,1.04,0,1.93.7,2.09,1.93h-4.17ZM108.39,155.23v-1.94h-.94c-.3,0-.59-.17-.72-.35-.05-.07-.13-.22-.13-.74v-4.67h1.72v-1.72h-1.7l-.02-2.98h-2.54v2.98h-1.31v1.74l1.33-.02v4.87c0,2.13.87,2.83,2.26,2.83h2.05ZM98.7,154.16c.04.46.15.8.3,1.07h2.57c-.31-.39-.41-.67-.43-.98l.02-5.17c0-2.26-1.17-3.61-4.24-3.61-2.85,0-4.04,1.56-4,3.15l2.24.04c0-.7.54-1.37,1.83-1.37s1.65.61,1.65,1.06c0,.39-.24.74-.93.87l-1.44.24c-2.09.37-2.65.76-3.04,1.11-.56.5-.87,1.2-.87,1.96,0,1.56,1.22,2.96,3.61,2.96,1.37,0,2.19-.46,2.72-1.33ZM98.7,150.27v1.18c0,1.33-.83,2.17-2.28,2.17-1.07,0-1.57-.63-1.57-1.2,0-.44.15-.94,1.74-1.39l1.09-.3c.5-.13.81-.31,1.02-.46ZM80.95,155.23h2.44l1.76-6,1.61,6h2.39l2.91-9.41h-2.59l-1.63,5.91-1.57-5.91h-2.26l-1.63,5.89-1.52-5.89h-2.57l2.67,9.41ZM69.52,155.23v-1.94h-.94c-.3,0-.59-.17-.72-.35-.05-.07-.13-.22-.13-.74v-4.67h1.72v-1.72h-1.7l-.02-2.98h-2.54v2.98h-1.31v1.74l1.33-.02v4.87c0,2.13.87,2.83,2.26,2.83h2.05ZM57.32,155.23h2.54v-4.18c0-1.41.35-2.05.76-2.5.48-.5,1.04-.74,1.74-.74.13,0,.28.02.43.04v-2.24c-.11-.02-.31-.05-.54-.05-1.09,0-2.05.7-2.35,1.68l-.07-1.43h-2.48l-.02,9.42ZM52.62,154.16c.04.46.15.8.3,1.07h2.57c-.32-.39-.41-.67-.43-.98l.02-5.17c0-2.26-1.17-3.61-4.24-3.61-2.85,0-4.04,1.56-4,3.15l2.24.04c0-.7.54-1.37,1.83-1.37s1.65.61,1.65,1.06c0,.39-.24.74-.93.87l-1.45.24c-2.09.37-2.65.76-3.04,1.11-.56.5-.87,1.2-.87,1.96,0,1.56,1.22,2.96,3.61,2.96,1.37,0,2.19-.46,2.72-1.33ZM52.62,150.27v1.18c0,1.33-.83,2.17-2.28,2.17-1.07,0-1.57-.63-1.57-1.2,0-.44.15-.94,1.74-1.39l1.09-.3c.5-.13.81-.31,1.02-.46ZM44.66,155.23v-1.94h-.94c-.3,0-.59-.17-.72-.35-.06-.07-.13-.22-.13-.74v-4.67h1.72v-1.72h-1.7l-.02-2.98h-2.54v2.98h-1.31v1.74l1.33-.02v4.87c0,2.13.87,2.83,2.26,2.83h2.05Z"/>
  <path class="cls-2" d="M14.2,172.95c.05,1.78,1.45,3.48,4.13,3.48s3.92-1.57,3.92-3.26c0-.59-.19-1.18-.53-1.65-.33-.44-.76-.78-1.79-1.04l-2.51-.63c-.53-.15-.74-.5-.74-.83,0-.37.31-.94,1.45-.94,1.26,0,1.81.7,1.82,1.46l2.08-.04c-.05-.94-.52-1.89-1.26-2.48-.52-.39-1.32-.72-2.62-.72-2.51,0-3.63,1.46-3.63,3.07,0,.76.21,1.3.6,1.78.33.35.71.65,1.69.87l1.89.46c1.1.26,1.24.63,1.24,1.07,0,.41-.36,1.06-1.67,1.06s-1.86-.7-1.93-1.68l-2.15.02ZM131.02,176.09h2.36v-5.19c0-1.54.79-2.26,1.77-2.26.83,0,1.39.52,1.39,1.7v5.74h2.36v-6.5c0-1.15-.36-1.93-.93-2.46-.52-.46-1.29-.8-2.05-.8-1.29,0-2.15.65-2.55,1.52v-4.87h-2.36v13.11ZM127.13,172.67c-.12.74-.33,1.04-.67,1.32-.29.24-.65.39-1.14.39-1.07,0-2.03-.81-2.03-2.93,0-2.31,1.03-3.17,2.12-3.17.84,0,1.55.67,1.67,1.61l2.27-.13c-.19-1.96-1.6-3.48-4.01-3.48-1.72,0-2.93.72-3.72,1.98-.53.81-.84,1.83-.84,3.15,0,1.91.72,3.35,1.82,4.22.69.54,1.53.87,2.72.87.83,0,1.31-.13,1.74-.32,1.32-.52,2.13-1.59,2.31-3.41l-2.24-.11ZM111.28,176.09h2.36l.02-5.28c0-.74.14-1.09.33-1.39.31-.48.86-.8,1.43-.8.83,0,1.41.57,1.41,1.63l-.02,5.83h2.36v-6.65c0-1.76-1.21-3.11-3.01-3.11-1.26,0-2.13.72-2.44,1.46l-.09-1.11-2.32-.02-.02,9.43ZM107.11,175.04l.14,1.06h2.2v-9.41l-2.34-.02v5.28c0,1.44-.79,2.18-1.74,2.18-.88,0-1.43-.5-1.43-1.83v-5.63h-2.36v6.48c0,1.24.34,1.91.88,2.44.5.5,1.24.82,2.19.82,1.08,0,1.93-.5,2.46-1.37ZM97.39,175.02c.05.46.14.8.28,1.07h2.41c-.31-.39-.4-.67-.4-.98v-5.17c0-2.26-1.08-3.61-3.94-3.61-2.65,0-3.75,1.56-3.7,3.15l2.08.04c0-.7.48-1.37,1.69-1.37s1.53.61,1.53,1.05c0,.39-.22.74-.84.87l-1.36.24c-1.93.37-2.44.76-2.82,1.11-.52.5-.81,1.2-.81,1.96,0,1.55,1.13,2.96,3.36,2.96,1.27,0,2.03-.46,2.53-1.33ZM97.41,171.13l-.02,1.18c0,1.33-.77,2.17-2.12,2.17-.98,0-1.46-.63-1.46-1.2,0-.44.14-.94,1.64-1.39l1.01-.3c.45-.13.76-.32.95-.46ZM87.55,176.09h2.36v-13.11h-2.34l-.02,13.11ZM70.77,176.09h2.36l.02-5.28c0-.74.14-1.09.33-1.39.31-.48.86-.8,1.43-.8.83,0,1.41.57,1.41,1.63l-.02,5.83h2.34v-6.65c0-1.76-1.21-3.11-3-3.11-1.26,0-2.13.72-2.44,1.46l-.09-1.11-2.32-.02-.02,9.43ZM66.59,176.09h2.36v-9.43h-2.34l-.02,9.43ZM66.6,165.24h2.36v-2.26h-2.36v2.26ZM50.41,177.17v1.98h1.74c2.05,0,2.53-1.74,2.72-2.32l3.34-10.17h-2.51l-1.74,5.83-1.84-5.83h-2.55l2.72,7.94c.17.52.24.87.24,1.3,0,.76-.4,1.28-1.41,1.26h-.71ZM45.81,175.02c.05.46.14.8.28,1.07h2.41c-.31-.39-.4-.67-.4-.98v-5.17c0-2.26-1.08-3.61-3.94-3.61-2.65,0-3.75,1.56-3.7,3.15l2.08.04c0-.7.48-1.37,1.69-1.37s1.53.61,1.53,1.05c0,.39-.22.74-.84.87l-1.36.24c-1.93.37-2.44.76-2.82,1.11-.52.5-.81,1.2-.81,1.96,0,1.55,1.14,2.96,3.36,2.96,1.27,0,2.03-.46,2.53-1.33ZM45.83,171.13l-.02,1.18c0,1.33-.77,2.17-2.12,2.17-.98,0-1.46-.63-1.46-1.2,0-.44.14-.94,1.64-1.39l1.02-.3c.45-.13.76-.32.95-.46ZM34.46,176.09h2.36l.02-4.19c0-1.41.31-2.05.7-2.5.43-.5.95-.74,1.6-.74.14,0,.26.02.4.04l.02-2.24c-.12-.02-.31-.06-.5-.06-1.03,0-1.93.7-2.19,1.68l-.09-1.43h-2.31l-.02,9.43ZM26.37,175c.5.87,1.36,1.41,2.56,1.41,2.39,0,3.87-2.39,3.87-5.07s-1.45-4.96-3.84-4.96c-1.07,0-1.93.46-2.55,1.28l-.1-.96-2.32.02.02,12.46h2.34l.02-4.17ZM28.47,174.46c-1.12,0-2.08-.81-2.08-2.85,0-2.28,1.03-3.07,2-3.07s2.03.85,2.03,2.94c0,1.39-.55,2.96-1.94,2.98Z"/>
  <path class="cls-2" d="M34.08,193.7c.06,1.78,1.55,3.48,4.44,3.48s4.22-1.57,4.22-3.26c0-.59-.2-1.18-.57-1.65-.35-.44-.81-.78-1.92-1.04l-2.7-.63c-.57-.15-.8-.5-.8-.83,0-.37.33-.94,1.56-.94,1.35,0,1.94.7,1.96,1.46l2.24-.04c-.06-.94-.56-1.89-1.35-2.48-.56-.39-1.43-.72-2.81-.72-2.7,0-3.91,1.46-3.91,3.07,0,.76.22,1.3.65,1.78.35.35.76.65,1.81.87l2.04.46c1.19.26,1.33.63,1.33,1.07,0,.41-.39,1.06-1.8,1.06-1.33,0-2-.7-2.07-1.68l-2.31.02ZM111.98,192.83l7,.02c0-2.8-1.26-5.76-4.78-5.76s-4.74,2.87-4.74,5.02c0,3.13,2.07,5.07,4.72,5.07s4.24-1.43,4.63-3.07l-2.56-.17c-.48.87-1.15,1.22-1.96,1.22-1.2,0-2.19-.82-2.31-2.33ZM112.09,191c.15-1.15,1.09-1.93,2.06-1.93,1.04,0,1.93.7,2.09,1.93h-4.15ZM105.48,193.42c-.13.74-.35,1.04-.72,1.32-.32.24-.7.39-1.22.39-1.15,0-2.19-.82-2.19-2.93,0-2.31,1.11-3.17,2.28-3.17.91,0,1.67.67,1.8,1.61l2.44-.13c-.2-1.96-1.72-3.48-4.31-3.48-1.85,0-3.15.72-4,1.98-.57.81-.91,1.83-.91,3.15,0,1.91.78,3.35,1.96,4.22.74.54,1.65.87,2.93.87.89,0,1.41-.13,1.87-.32,1.43-.52,2.3-1.59,2.48-3.41l-2.41-.11ZM88.43,196.85h2.54l.02-5.28c0-.74.15-1.09.35-1.39.33-.48.93-.8,1.54-.8.89,0,1.52.57,1.52,1.63l-.02,5.83h2.54v-6.65c0-1.76-1.3-3.11-3.24-3.11-1.35,0-2.3.72-2.63,1.46l-.09-1.11-2.5-.02-.02,9.43ZM79.65,192.83l7,.02c0-2.8-1.26-5.76-4.78-5.76s-4.74,2.87-4.74,5.02c0,3.13,2.07,5.07,4.72,5.07s4.24-1.43,4.63-3.07l-2.55-.17c-.48.87-1.15,1.22-1.96,1.22-1.2,0-2.18-.82-2.31-2.33ZM79.76,191c.15-1.15,1.09-1.93,2.06-1.93,1.04,0,1.93.7,2.09,1.93h-4.15ZM72.85,195.79l.15,1.06h2.37v-9.41l-2.52-.02v5.28c0,1.45-.85,2.18-1.87,2.18-.94,0-1.54-.5-1.54-1.83v-5.63h-2.54v6.48c0,1.24.37,1.91.94,2.44.54.5,1.33.82,2.35.82,1.17,0,2.07-.5,2.65-1.37ZM62.45,195.79v4.15l2.54-.02v-12.48h-2.48l-.13.98c-.59-.8-1.52-1.3-2.74-1.3-2.91,0-4.13,2.83-4.13,5.04,0,2.67,1.65,5,4.17,5,1.26,0,2.26-.56,2.78-1.37ZM60.34,195.2c-1.13,0-2.22-.83-2.22-2.91s1.13-2.98,2.15-2.98,2.15.83,2.15,2.94-1.09,2.94-2.07,2.94ZM46.93,192.83l7,.02c0-2.8-1.26-5.76-4.78-5.76s-4.74,2.87-4.74,5.02c0,3.13,2.07,5.07,4.72,5.07s4.24-1.43,4.63-3.07l-2.55-.17c-.48.87-1.15,1.22-1.96,1.22-1.2,0-2.18-.82-2.31-2.33ZM47.04,191c.15-1.15,1.09-1.93,2.05-1.93,1.04,0,1.93.7,2.09,1.93h-4.15Z"/>
</svg>