<?xml version="1.0" encoding="UTF-8"?>
<svg id="Lager_1" data-name="Lager 1" xmlns="http://www.w3.org/2000/svg" viewBox="0 0 153.09 218.69">
  <defs>
    <style>
      .cls-1 {
        fill: #1a4080;
      }

      .cls-1, .cls-2 {
        fill-rule: evenodd;
      }

      .cls-2 {
        fill: #fff;
      }
    </style>
  </defs>
  <polyline class="cls-2" points="0 218.69 153.09 218.69 153.09 0 0 0 0 218.69"/>
  <path class="cls-1" d="M17.57,65.3c0,32.57,26.42,58.99,58.99,58.99s58.97-26.42,58.97-58.99S109.13,6.33,76.56,6.33s-58.99,26.4-58.99,58.97ZM76.64,20.36c-3.32,0-6.72,1.6-9.08,4.27-1.91,2.16-2.83,4.73-2.54,7.05l6.58,48.52c.24,1.58,1.22,5.32,5.04,5.32s4.85-4.1,5.04-5.36l6.59-48.51c.27-2.3-.68-4.88-2.6-7.05-2.36-2.66-5.74-4.25-9.03-4.25ZM76.64,96.76c-3.39,0-6.14,2.76-6.14,6.14s2.75,6.14,6.14,6.14,6.15-2.75,6.15-6.14-2.76-6.14-6.15-6.14Z"/>
  <polyline class="cls-1" points="10.06 133.74 143.05 133.74 143.05 208.97 10.06 208.97 10.06 133.74"/>
  <path class="cls-2" d="M15.33,149.8c0,2.41,1.6,4.55,4.96,4.55s4.85-2.05,4.85-4.26c0-1.65-.91-3.15-2.89-3.72l-2.74-.78c-.82-.24-.91-.35-1.08-.55-.19-.24-.31-.54-.31-.87,0-.76.57-1.67,2.22-1.67.8,0,1.42.32,1.76.7.31.35.52.87.54,1.41l2.3.04c-.1-1.44-.52-2.31-1.16-2.98-.65-.67-1.89-1.32-3.57-1.32-3.07,0-4.47,1.95-4.47,4.11,0,1.67.82,3.02,2.86,3.59l2.35.68c.42.11,1.04.2,1.42.76.2.3.29.63.29.87,0,.85-.57,1.82-2.45,1.82s-2.56-1.07-2.53-2.37l-2.35-.02ZM130.38,154.98v1.98h1.65c1.94,0,2.4-1.74,2.58-2.31l3.17-10.17h-2.38l-1.65,5.83-1.75-5.83h-2.42l2.58,7.94c.18.52.23.87.23,1.3,0,.76-.38,1.28-1.34,1.26h-.67ZM125.87,153.91h2.25v-13.11h-2.24l-.02,13.11ZM118.2,152.82c.47.87,1.31,1.41,2.43,1.41,2.27,0,3.67-2.39,3.67-5.07s-1.37-4.96-3.64-4.96c-1,0-1.83.46-2.42,1.28l-.1-.96-2.2.02.02,12.46h2.24v-4.17ZM120.19,152.28c-1.06,0-1.98-.82-1.98-2.85,0-2.28.98-3.07,1.89-3.07s1.93.85,1.93,2.94c0,1.39-.52,2.96-1.84,2.98ZM108.28,152.82c.47.87,1.3,1.41,2.43,1.41,2.27,0,3.67-2.39,3.67-5.07s-1.37-4.96-3.64-4.96c-.99,0-1.83.46-2.41,1.28l-.1-.96-2.2.02.02,12.46h2.24v-4.17ZM110.27,152.28c-1.06,0-1.98-.82-1.98-2.85,0-2.28.98-3.07,1.89-3.07s1.93.85,1.93,2.94c0,1.39-.52,2.96-1.84,2.98ZM102.08,152.86l.13,1.06h2.11l-.02-9.41-2.2-.02v5.28c0,1.45-.77,2.18-1.67,2.18-.83,0-1.35-.5-1.35-1.83v-5.63h-2.22v6.48c0,1.24.31,1.91.82,2.44.47.5,1.18.82,2.07.82,1.03,0,1.83-.5,2.33-1.37ZM87.58,150.76c.05,1.78,1.37,3.48,3.92,3.48s3.72-1.57,3.72-3.26c0-.59-.18-1.19-.51-1.65-.31-.45-.72-.78-1.7-1.04l-2.38-.63c-.51-.15-.7-.5-.7-.83,0-.37.29-.94,1.39-.94,1.18,0,1.7.7,1.71,1.46l1.98-.04c-.05-.94-.49-1.89-1.19-2.48-.49-.39-1.26-.72-2.47-.72-2.4,0-3.46,1.46-3.46,3.07,0,.76.2,1.3.59,1.78.29.35.65.65,1.58.87l1.8.46c1.04.26,1.17.63,1.17,1.07,0,.41-.34,1.06-1.58,1.06-1.16,0-1.76-.7-1.83-1.68l-2.04.02ZM74.97,153.91h2.24v-4.18c0-1.41.31-2.06.67-2.5.42-.5.9-.74,1.52-.74.13,0,.26.02.38.04l.02-2.24c-.11-.02-.29-.06-.47-.06-.98,0-1.83.7-2.07,1.68l-.08-1.43h-2.17l-.02,9.43ZM71,153.91h2.24v-9.43h-2.22l-.02,9.43ZM71.02,143.06h2.24v-2.26h-2.24v2.26ZM66.85,152.84c.05.46.13.8.26,1.07h2.29c-.29-.39-.36-.67-.38-.98v-5.17c0-2.26-1.03-3.61-3.74-3.61-2.51,0-3.56,1.56-3.51,3.15l1.97.04c0-.7.46-1.37,1.6-1.37s1.47.61,1.47,1.06c0,.39-.21.74-.82.87l-1.29.24c-1.83.37-2.32.76-2.68,1.11-.49.5-.75,1.2-.75,1.96,0,1.55,1.08,2.96,3.17,2.96,1.21,0,1.93-.46,2.4-1.33ZM66.87,148.95l-.02,1.18c0,1.33-.73,2.17-2.01,2.17-.93,0-1.39-.63-1.39-1.2,0-.45.15-.95,1.55-1.39l.96-.3c.42-.13.72-.32.9-.46ZM53.18,153.91v-1.94h-.83c-.28,0-.52-.17-.65-.35-.03-.07-.1-.22-.1-.74v-4.67h1.5v-1.72h-1.5l-.02-2.98h-2.22v2.98h-1.17v1.74l1.19-.02-.02,4.87c0,2.13.77,2.83,2.01,2.83h1.81ZM42.41,153.91h2.25v-4.18c0-1.41.31-2.06.67-2.5.42-.5.9-.74,1.52-.74.13,0,.26.02.38.04l.02-2.24c-.11-.02-.29-.06-.47-.06-.98,0-1.83.7-2.07,1.68l-.08-1.43h-2.19l-.02,9.43ZM38.26,152.84c.05.46.13.8.26,1.07h2.28c-.29-.39-.36-.67-.38-.98v-5.17c0-2.26-1.03-3.61-3.74-3.61-2.51,0-3.56,1.56-3.51,3.15l1.97.04c0-.7.46-1.37,1.6-1.37s1.47.61,1.47,1.06c0,.39-.21.74-.82.87l-1.29.24c-1.83.37-2.32.76-2.68,1.11-.49.5-.75,1.2-.75,1.96,0,1.55,1.08,2.96,3.17,2.96,1.21,0,1.93-.46,2.4-1.33ZM38.28,148.95l-.02,1.18c0,1.33-.74,2.17-2.01,2.17-.93,0-1.39-.63-1.39-1.2,0-.45.15-.95,1.55-1.39l.96-.3c.42-.13.72-.32.9-.46ZM31.26,153.91v-1.94h-.83c-.28,0-.52-.17-.65-.35-.03-.07-.1-.22-.1-.74v-4.67h1.5v-1.72h-1.5l-.02-2.98h-2.22v2.98h-1.18v1.74l1.19-.02-.02,4.87c0,2.13.77,2.83,2.01,2.83h1.81Z"/>
  <path class="cls-2" d="M37.64,166.55h2.54v-2.26h-2.54v2.26ZM106.96,177.4h2.52l.02-5.18c0-1.54.83-2.26,1.89-2.26.89,0,1.52.52,1.52,1.7l-.02,5.74h2.54v-6.5c0-1.15-.39-1.92-1-2.46-.56-.46-1.39-.8-2.2-.8-1.37,0-2.31.65-2.74,1.52v-4.87h-2.52v13.11ZM102.76,173.98c-.13.74-.35,1.04-.7,1.32-.33.24-.72.39-1.24.39-1.13,0-2.19-.82-2.19-2.93,0-2.31,1.11-3.17,2.28-3.17.91,0,1.67.67,1.81,1.61l2.43-.13c-.2-1.96-1.72-3.48-4.29-3.48-1.85,0-3.17.72-4.02,1.98-.56.82-.89,1.83-.89,3.15,0,1.91.76,3.35,1.94,4.22.74.54,1.65.87,2.93.87.89,0,1.43-.13,1.89-.32,1.43-.52,2.28-1.59,2.48-3.41l-2.43-.11ZM85.72,177.4h2.54v-5.28c0-.74.15-1.09.35-1.39.35-.48.94-.8,1.55-.8.87,0,1.5.57,1.5,1.63v5.83h2.52v-6.65c0-1.76-1.3-3.11-3.24-3.11-1.35,0-2.3.72-2.61,1.46l-.11-1.11-2.48-.02-.02,9.42ZM81.22,176.35l.15,1.05h2.39l-.02-9.41-2.5-.02v5.28c0,1.44-.87,2.18-1.89,2.18-.94,0-1.54-.5-1.54-1.83v-5.63h-2.5v6.48c0,1.24.35,1.91.93,2.45.52.5,1.32.81,2.33.81,1.17,0,2.09-.5,2.65-1.37ZM70.78,176.33c.06.46.17.8.31,1.07h2.57c-.31-.39-.41-.67-.43-.98v-5.17c0-2.26-1.17-3.61-4.24-3.61-2.85,0-4.04,1.55-3.98,3.15l2.24.04c0-.7.52-1.37,1.81-1.37s1.67.61,1.67,1.06c0,.39-.24.74-.93.87l-1.46.24c-2.07.37-2.63.76-3.04,1.11-.56.5-.85,1.2-.85,1.96,0,1.56,1.22,2.96,3.59,2.96,1.39,0,2.18-.46,2.72-1.33ZM70.8,172.44l-.02,1.18c0,1.33-.83,2.17-2.28,2.17-1.06,0-1.57-.63-1.57-1.2,0-.44.17-.94,1.76-1.39l1.09-.3c.48-.13.81-.32,1.02-.46ZM60.21,177.4h2.54v-13.11h-2.52l-.02,13.11ZM42.14,177.4h2.54v-5.28c0-.74.15-1.09.35-1.39.35-.48.94-.8,1.56-.8.87,0,1.5.57,1.5,1.63v5.83h2.52v-6.65c0-1.76-1.3-3.11-3.24-3.11-1.35,0-2.3.72-2.61,1.46l-.11-1.11-2.48-.02-.02,9.42ZM37.64,177.4h2.52v-9.42h-2.52v9.42Z"/>
  <path class="cls-2" d="M34.08,193.7c.05,1.78,1.55,3.48,4.44,3.48s4.22-1.57,4.22-3.26c0-.59-.2-1.18-.57-1.65-.35-.44-.81-.78-1.93-1.04l-2.7-.63c-.57-.15-.8-.5-.8-.83,0-.37.33-.94,1.55-.94,1.35,0,1.95.7,1.96,1.46l2.24-.04c-.06-.94-.56-1.89-1.35-2.48-.56-.39-1.43-.72-2.81-.72-2.7,0-3.91,1.46-3.91,3.07,0,.76.22,1.3.65,1.78.35.35.76.65,1.81.87l2.04.46c1.18.26,1.33.63,1.33,1.07,0,.41-.39,1.06-1.8,1.06-1.33,0-2-.7-2.07-1.68l-2.31.02ZM111.98,192.83l7,.02c0-2.8-1.26-5.76-4.78-5.76s-4.74,2.87-4.74,5.02c0,3.13,2.07,5.07,4.72,5.07s4.24-1.43,4.63-3.07l-2.55-.17c-.48.87-1.15,1.22-1.96,1.22-1.2,0-2.19-.82-2.31-2.33ZM112.09,191c.15-1.15,1.09-1.93,2.05-1.93,1.04,0,1.93.7,2.09,1.93h-4.15ZM105.48,193.42c-.13.74-.35,1.04-.72,1.32-.31.24-.7.39-1.22.39-1.15,0-2.18-.82-2.18-2.93,0-2.31,1.11-3.17,2.28-3.17.91,0,1.67.67,1.8,1.61l2.44-.13c-.2-1.96-1.72-3.48-4.31-3.48-1.85,0-3.15.72-4,1.98-.57.81-.91,1.83-.91,3.15,0,1.91.78,3.35,1.96,4.22.74.54,1.65.87,2.92.87.89,0,1.41-.13,1.87-.32,1.43-.52,2.29-1.59,2.48-3.41l-2.41-.11ZM88.43,196.85h2.54l.02-5.28c0-.74.15-1.09.35-1.39.33-.48.93-.8,1.54-.8.89,0,1.52.57,1.52,1.63l-.02,5.83h2.54v-6.65c0-1.76-1.3-3.11-3.24-3.11-1.35,0-2.3.72-2.63,1.46l-.09-1.11-2.5-.02-.02,9.43ZM79.65,192.83l7,.02c0-2.8-1.26-5.76-4.78-5.76s-4.74,2.87-4.74,5.02c0,3.13,2.07,5.07,4.72,5.07s4.24-1.43,4.63-3.07l-2.55-.17c-.48.87-1.15,1.22-1.96,1.22-1.2,0-2.19-.82-2.32-2.33ZM79.76,191c.15-1.15,1.09-1.93,2.05-1.93,1.04,0,1.93.7,2.09,1.93h-4.15ZM72.85,195.79l.15,1.06h2.37v-9.41l-2.52-.02v5.28c0,1.45-.85,2.18-1.87,2.18-.95,0-1.54-.5-1.54-1.83v-5.63h-2.54v6.48c0,1.24.37,1.91.95,2.44.54.5,1.33.82,2.35.82,1.17,0,2.07-.5,2.65-1.37ZM62.45,195.79v4.15l2.54-.02v-12.48h-2.48l-.13.98c-.59-.8-1.52-1.3-2.74-1.3-2.91,0-4.13,2.83-4.13,5.04,0,2.67,1.65,5,4.17,5,1.26,0,2.26-.56,2.78-1.37ZM60.34,195.2c-1.13,0-2.22-.83-2.22-2.91s1.13-2.98,2.15-2.98,2.15.83,2.15,2.94-1.09,2.94-2.07,2.94ZM46.93,192.83l7,.02c0-2.8-1.26-5.76-4.78-5.76s-4.74,2.87-4.74,5.02c0,3.13,2.07,5.07,4.72,5.07s4.24-1.43,4.63-3.07l-2.55-.17c-.48.87-1.15,1.22-1.96,1.22-1.2,0-2.19-.82-2.31-2.33ZM47.04,191c.15-1.15,1.09-1.93,2.05-1.93,1.04,0,1.93.7,2.09,1.93h-4.15Z"/>
</svg>