<?xml version="1.0" encoding="UTF-8"?>
<svg id="Lager_1" data-name="Lager 1" xmlns="http://www.w3.org/2000/svg" viewBox="0 0 153.09 218.69">
  <defs>
    <style>
      .cls-1 {
        fill: #1a4080;
      }

      .cls-1, .cls-2 {
        fill-rule: evenodd;
      }

      .cls-2 {
        fill: #fff;
      }
    </style>
  </defs>
  <polyline class="cls-2" points="0 218.69 153.09 218.69 153.09 0 0 0 0 218.69"/>
  <path class="cls-1" d="M17.57,65.3c0,32.57,26.42,58.99,58.99,58.99s58.98-26.42,58.98-58.99S109.13,6.33,76.56,6.33s-58.99,26.4-58.99,58.97ZM76.64,20.36c-3.32,0-6.72,1.6-9.08,4.27-1.91,2.16-2.83,4.73-2.54,7.05l6.58,48.52c.24,1.58,1.22,5.32,5.04,5.32s4.85-4.1,5.04-5.36l6.59-48.51c.27-2.3-.68-4.88-2.6-7.05-2.36-2.66-5.74-4.25-9.03-4.25ZM76.64,96.76c-3.39,0-6.14,2.76-6.14,6.14s2.75,6.14,6.14,6.14,6.15-2.75,6.15-6.14-2.76-6.14-6.15-6.14Z"/>
  <polyline class="cls-1" points="10.06 133.75 143.06 133.75 143.06 208.98 10.06 208.98 10.06 133.75"/>
  <path class="cls-2" d="M16.93,147.78v-3.63h2.6c.61,0,.79.09,1.03.26.45.33.73.98.73,1.57,0,1-.66,1.83-1.84,1.82l-2.52-.02ZM138.53,155.06v-1.94h-.81c-.27,0-.52-.17-.63-.35-.05-.07-.11-.22-.11-.74v-4.67h1.47v-1.72h-1.47l-.02-2.98h-2.18v2.98h-1.15v1.74l1.16-.02v4.87c0,2.13.74,2.83,1.95,2.83h1.78ZM130.15,153.98c.05.46.15.8.26,1.07h2.25c-.29-.39-.37-.67-.37-.98v-5.17c0-2.26-1.02-3.61-3.67-3.61-2.45,0-3.49,1.55-3.44,3.15l1.94.04c0-.7.45-1.37,1.57-1.37s1.44.61,1.44,1.05c0,.39-.21.74-.81.87l-1.24.24c-1.81.37-2.29.76-2.63,1.11-.48.5-.74,1.2-.74,1.96,0,1.56,1.05,2.96,3.12,2.96,1.18,0,1.87-.46,2.34-1.33ZM130.17,150.1l-.02,1.18c0,1.33-.71,2.17-1.97,2.17-.9,0-1.36-.63-1.36-1.2,0-.45.15-.95,1.52-1.39l.94-.3c.44-.13.71-.32.89-.46ZM119.24,155.41c2.47,0,4.28-2.02,4.28-5.09s-1.78-5.04-4.31-5.04-4.26,2.04-4.26,5.02,1.81,5.11,4.29,5.11ZM119.22,153.43c-1.03,0-2.03-.93-2.03-3.02,0-2.26.97-3.15,2.05-3.15s2.05.91,2.05,3.05-1,3.11-2.07,3.11ZM105.4,155.06h2.16l.11-.96c.58.83,1.36,1.26,2.34,1.26,1.81,0,3.57-1.7,3.57-5.04s-1.79-5-3.55-5c-1.18,0-2,.59-2.44,1.41v-4.78h-2.2v13.11ZM109.49,153.17c-.92,0-1.86-.83-1.86-2.94s.95-2.94,1.84-2.94c.97,0,1.87.8,1.87,2.98s-.92,2.91-1.86,2.91ZM97.81,151.04l6.04.02c0-2.8-1.08-5.76-4.12-5.76s-4.08,2.87-4.08,5.02c0,3.13,1.79,5.07,4.07,5.07s3.67-1.42,3.99-3.07l-2.2-.17c-.42.87-.98,1.22-1.7,1.22-1.03,0-1.89-.82-2-2.33ZM97.91,149.21c.13-1.15.95-1.93,1.78-1.93.89,0,1.66.7,1.81,1.93h-3.58ZM90.82,155.06h2.18v-7.74h1.6v-1.68h-1.6v-.18c0-.85.13-1.09.28-1.26.18-.22.42-.39.95-.37h.37v-1.87h-1.26c-.74,0-2.73.15-2.52,3.68h-1.2v1.68h1.2v7.74ZM86.07,155.06h2.2v-9.42h-2.18l-.02,9.42ZM86.09,144.21h2.18v-2.26h-2.18v2.26ZM82.18,155.06h2.2v-13.11h-2.16l-.03,13.11ZM68.01,151.04l6.04.02c0-2.8-1.1-5.76-4.13-5.76s-4.08,2.87-4.08,5.02c0,3.13,1.79,5.07,4.07,5.07s3.66-1.42,4-3.07l-2.21-.17c-.42.87-.99,1.22-1.68,1.22-1.05,0-1.89-.82-2-2.33ZM68.09,149.21c.13-1.15.95-1.93,1.79-1.93.89,0,1.66.7,1.81,1.93h-3.6ZM56.9,151.91c.05,1.78,1.34,3.48,3.83,3.48s3.67-1.57,3.67-3.26c0-.59-.18-1.18-.5-1.65-.31-.45-.71-.78-1.66-1.04l-2.34-.63c-.48-.15-.69-.5-.69-.83,0-.37.29-.94,1.36-.94,1.16,0,1.68.7,1.7,1.46l1.92-.04c-.03-.94-.47-1.89-1.16-2.48-.47-.39-1.23-.72-2.42-.72-2.34,0-3.37,1.46-3.37,3.07,0,.76.18,1.3.57,1.78.29.35.65.65,1.55.87l1.76.46c1.03.26,1.16.63,1.16,1.07,0,.41-.34,1.06-1.55,1.06-1.15,0-1.73-.7-1.81-1.68l-1.99.02ZM53.14,153.98c.05.46.13.8.26,1.07h2.24c-.29-.39-.37-.67-.37-.98v-5.17c0-2.26-1.02-3.61-3.67-3.61-2.45,0-3.49,1.55-3.44,3.15l1.94.04c0-.7.45-1.37,1.57-1.37s1.44.61,1.44,1.05c0,.39-.21.74-.81.87l-1.24.24c-1.81.37-2.29.76-2.63,1.11-.48.5-.74,1.2-.74,1.96,0,1.56,1.05,2.96,3.12,2.96,1.18,0,1.87-.46,2.34-1.33ZM53.16,150.1l-.02,1.18c0,1.33-.71,2.17-1.97,2.17-.92,0-1.36-.63-1.36-1.2,0-.45.13-.95,1.52-1.39l.94-.3c.44-.13.71-.32.89-.46ZM40.47,151.04l6.04.02c0-2.8-1.1-5.76-4.13-5.76s-4.08,2.87-4.08,5.02c0,3.13,1.79,5.07,4.07,5.07s3.67-1.42,4-3.07l-2.2-.17c-.42.87-1,1.22-1.7,1.22-1.05,0-1.89-.82-2-2.33ZM40.55,149.21c.13-1.15.95-1.93,1.79-1.93.89,0,1.66.7,1.81,1.93h-3.6ZM34.56,155.06h2.2v-13.11h-2.18l-.02,13.11ZM26.99,151.04l6.04.02c0-2.8-1.1-5.76-4.13-5.76s-4.08,2.87-4.08,5.02c0,3.13,1.79,5.07,4.07,5.07s3.67-1.42,4-3.07l-2.21-.17c-.42.87-.98,1.22-1.69,1.22-1.03,0-1.87-.82-1.99-2.33ZM27.07,149.21c.13-1.15.95-1.93,1.79-1.93.89,0,1.65.7,1.81,1.93h-3.6ZM14.59,155.06h2.34l.02-5.18,2.03.02c.82,0,1.39.41,1.73,1.07.13.26.18.55.24.83.23,1.07-.02,2.24.42,3.26h2.39c-.16-.3-.32-.83-.37-1.37l-.19-2.32c-.06-.94-.26-1.35-.57-1.74-.35-.43-.92-.74-1.5-.8,1.47-.18,2.47-1.46,2.47-3.22,0-2.05-1.42-3.81-3.79-3.67h-5.2l-.02,13.11Z"/>
  <path class="cls-2" d="M18.82,173.39c-1.09,0-2-.89-2-2.63,0-1.52.93-2.48,1.95-2.48s1.95.96,1.95,2.55-.94,2.56-1.91,2.56ZM131.09,175.87h2.21l.02-5.18c0-1.54.73-2.26,1.66-2.26.78,0,1.33.52,1.33,1.7l-.02,5.74h2.23v-6.5c0-1.15-.34-1.93-.88-2.46-.49-.46-1.22-.8-1.94-.8-1.2,0-2.04.65-2.41,1.52v-4.87h-2.21v13.11ZM127.39,172.45c-.11.74-.31,1.04-.62,1.31-.29.24-.64.39-1.09.39-.99,0-1.92-.82-1.92-2.93,0-2.31.98-3.17,2-3.17.8,0,1.46.67,1.59,1.61l2.13-.13c-.18-1.96-1.51-3.48-3.78-3.48-1.63,0-2.78.72-3.53,1.98-.49.81-.78,1.83-.78,3.15,0,1.91.67,3.35,1.71,4.22.65.54,1.45.87,2.57.87.78,0,1.25-.13,1.66-.32,1.25-.52,2-1.59,2.18-3.41l-2.13-.11ZM112.42,175.87h2.23v-5.28c0-.74.13-1.09.31-1.39.31-.48.83-.8,1.37-.8.77,0,1.32.57,1.32,1.63v5.83h2.21v-6.65c0-1.76-1.14-3.11-2.85-3.11-1.19,0-2.02.72-2.29,1.46l-.1-1.11-2.18-.02-.02,9.42ZM108.46,174.81l.13,1.06h2.1l-.02-9.41-2.2-.02v5.28c0,1.44-.76,2.19-1.66,2.19-.83,0-1.35-.5-1.35-1.83v-5.63h-2.21v6.48c0,1.24.31,1.91.81,2.44.47.5,1.17.81,2.07.81,1.02,0,1.84-.5,2.33-1.37ZM99.26,174.8c.05.46.15.8.26,1.07h2.28c-.28-.39-.36-.67-.37-.98v-5.17c0-2.26-1.03-3.61-3.73-3.61-2.51,0-3.55,1.55-3.5,3.15l1.97.04c0-.7.45-1.37,1.59-1.37s1.46.61,1.46,1.06c0,.39-.21.74-.81.87l-1.29.24c-1.82.37-2.31.76-2.67,1.11-.49.5-.75,1.2-.75,1.96,0,1.56,1.08,2.96,3.16,2.96,1.22,0,1.92-.46,2.39-1.33ZM99.28,170.91l-.02,1.18c0,1.33-.73,2.17-2,2.17-.93,0-1.38-.63-1.38-1.2,0-.44.15-.94,1.55-1.39l.96-.3c.42-.13.72-.31.9-.46ZM89.97,175.87h2.23v-13.11h-2.21l-.02,13.11ZM74.09,175.87h2.23v-5.28c0-.74.13-1.09.29-1.39.31-.48.83-.8,1.37-.8.77,0,1.32.57,1.32,1.63v5.83h2.21v-6.65c0-1.76-1.14-3.11-2.85-3.11-1.19,0-2.02.72-2.28,1.46l-.1-1.11-2.18-.02-.02,9.42ZM70.14,175.87h2.21v-9.42h-2.21v9.42ZM70.14,165.02h2.23v-2.26h-2.23v2.26ZM54.14,172.72c.03,1.78,1.35,3.48,3.89,3.48s3.71-1.57,3.71-3.26c0-.59-.18-1.18-.5-1.65-.31-.44-.72-.78-1.69-1.04l-2.38-.63c-.51-.15-.7-.5-.7-.83,0-.37.29-.95,1.38-.95,1.17,0,1.69.7,1.71,1.46l1.97-.04c-.03-.94-.49-1.89-1.19-2.48-.49-.39-1.25-.72-2.46-.72-2.39,0-3.45,1.46-3.45,3.07,0,.76.2,1.3.59,1.78.29.35.65.65,1.58.87l1.79.46c1.04.26,1.17.63,1.17,1.07,0,.41-.34,1.05-1.56,1.05s-1.77-.7-1.84-1.68l-2.02.02ZM46.6,171.85l6.15.02c0-2.8-1.11-5.76-4.2-5.76s-4.15,2.87-4.15,5.02c0,3.13,1.82,5.07,4.14,5.07s3.73-1.43,4.07-3.07l-2.25-.17c-.42.87-.99,1.22-1.73,1.22-1.06,0-1.92-.82-2.03-2.33ZM46.7,170.02c.13-1.15.96-1.93,1.81-1.93.91,0,1.69.7,1.86,1.93h-3.66ZM36.91,174.78c.47.87,1.3,1.41,2.43,1.41,2.26,0,3.66-2.39,3.66-5.07s-1.37-4.96-3.63-4.96c-.99,0-1.82.46-2.39,1.28l-.11-.96-2.18.02v12.46h2.23v-4.17ZM38.91,174.24c-1.07,0-1.99-.81-1.99-2.85,0-2.28.98-3.07,1.89-3.07s1.92.85,1.92,2.94c0,1.39-.52,2.96-1.82,2.98ZM30.73,175.87h2.21v-9.42h-2.21v9.42ZM30.73,165.02h2.23v-2.26h-2.23v2.26ZM24.7,175.87h2.23v-4.18c0-1.41.31-2.05.67-2.5.42-.5.9-.74,1.51-.74.13,0,.26.02.37.04l.02-2.24c-.11-.02-.29-.05-.47-.05-.98,0-1.81.7-2.07,1.68l-.06-1.43h-2.2v9.42ZM15.05,176.39c.1.89.34,1.39.8,1.89.5.55,1.45,1.07,3.04,1.07,1.79,0,2.95-.76,3.5-1.57.38-.57.59-1.09.59-2.5v-8.83h-2.13l-.08,1.15c-.15-.3-.6-1.48-2.44-1.48-2,0-3.74,1.81-3.74,4.72s1.74,4.74,3.71,4.74c1.33,0,2.15-.68,2.47-1.41l-.02,1.02c0,1.59-.64,2.26-1.92,2.26-.96,0-1.42-.56-1.5-1.15l-2.28.09Z"/>
  <path class="cls-2" d="M34.08,193.7c.05,1.78,1.55,3.48,4.44,3.48s4.22-1.57,4.22-3.26c0-.59-.2-1.18-.57-1.65-.35-.44-.81-.78-1.93-1.04l-2.7-.63c-.57-.15-.8-.5-.8-.83,0-.37.33-.94,1.55-.94,1.35,0,1.94.7,1.96,1.46l2.24-.04c-.05-.94-.55-1.89-1.35-2.48-.56-.39-1.43-.72-2.81-.72-2.7,0-3.91,1.46-3.91,3.07,0,.76.22,1.3.65,1.78.35.35.76.65,1.81.87l2.04.46c1.19.26,1.33.63,1.33,1.07,0,.41-.39,1.06-1.8,1.06-1.33,0-2-.7-2.07-1.68l-2.31.02ZM111.98,192.83l7,.02c0-2.8-1.26-5.76-4.78-5.76s-4.74,2.87-4.74,5.02c0,3.13,2.07,5.07,4.72,5.07s4.24-1.43,4.63-3.07l-2.55-.17c-.48.87-1.15,1.22-1.96,1.22-1.2,0-2.18-.82-2.31-2.33ZM112.09,191c.15-1.15,1.09-1.93,2.06-1.93,1.04,0,1.93.7,2.09,1.93h-4.15ZM105.48,193.42c-.13.74-.35,1.04-.72,1.32-.31.24-.7.39-1.22.39-1.15,0-2.19-.82-2.19-2.93,0-2.31,1.11-3.17,2.28-3.17.91,0,1.67.67,1.8,1.61l2.44-.13c-.2-1.96-1.72-3.48-4.31-3.48-1.85,0-3.15.72-4,1.98-.57.81-.91,1.83-.91,3.15,0,1.91.78,3.35,1.96,4.22.74.54,1.65.87,2.93.87.89,0,1.41-.13,1.87-.32,1.43-.52,2.3-1.59,2.48-3.41l-2.41-.11ZM88.43,196.85h2.54l.02-5.28c0-.74.15-1.09.35-1.39.33-.48.93-.8,1.54-.8.89,0,1.52.57,1.52,1.63l-.02,5.83h2.54v-6.65c0-1.76-1.3-3.11-3.24-3.11-1.35,0-2.3.72-2.63,1.46l-.09-1.11-2.5-.02-.02,9.43ZM79.65,192.83l7,.02c0-2.8-1.26-5.76-4.78-5.76s-4.74,2.87-4.74,5.02c0,3.13,2.07,5.07,4.72,5.07s4.24-1.43,4.63-3.07l-2.55-.17c-.48.87-1.15,1.22-1.96,1.22-1.2,0-2.19-.82-2.31-2.33ZM79.76,191c.15-1.15,1.09-1.93,2.06-1.93,1.04,0,1.93.7,2.09,1.93h-4.15ZM72.85,195.79l.15,1.06h2.37v-9.41l-2.52-.02v5.28c0,1.45-.85,2.18-1.87,2.18-.94,0-1.54-.5-1.54-1.83v-5.63h-2.54v6.48c0,1.24.37,1.91.94,2.44.54.5,1.33.82,2.35.82,1.17,0,2.07-.5,2.65-1.37ZM62.45,195.79v4.15l2.54-.02v-12.48h-2.48l-.13.98c-.59-.8-1.52-1.3-2.74-1.3-2.91,0-4.13,2.83-4.13,5.04,0,2.67,1.65,5,4.17,5,1.26,0,2.26-.56,2.78-1.37ZM60.34,195.2c-1.13,0-2.22-.83-2.22-2.91s1.13-2.98,2.15-2.98,2.15.83,2.15,2.94-1.09,2.94-2.07,2.94ZM46.93,192.83l7,.02c0-2.8-1.26-5.76-4.78-5.76s-4.74,2.87-4.74,5.02c0,3.13,2.07,5.07,4.72,5.07s4.24-1.43,4.63-3.07l-2.56-.17c-.48.87-1.15,1.22-1.96,1.22-1.2,0-2.19-.82-2.31-2.33ZM47.04,191c.15-1.15,1.09-1.93,2.06-1.93,1.04,0,1.93.7,2.09,1.93h-4.15Z"/>
</svg>