<?xml version="1.0" encoding="UTF-8"?>
<svg id="Lager_1" data-name="Lager 1" xmlns="http://www.w3.org/2000/svg" viewBox="0 0 153.09 218.69">
  <defs>
    <style>
      .cls-1 {
        fill: #1a4080;
      }

      .cls-1, .cls-2 {
        fill-rule: evenodd;
      }

      .cls-2 {
        fill: #fff;
      }
    </style>
  </defs>
  <polyline class="cls-2" points="0 218.69 153.09 218.69 153.09 0 0 0 0 218.69"/>
  <path class="cls-1" d="M16.77,65.59c0,33.01,26.78,59.79,59.79,59.79s59.77-26.78,59.77-59.79S109.57,5.81,76.56,5.81s-59.79,26.76-59.79,59.77ZM76.66,20.03c-3.37,0-6.81,1.62-9.2,4.33-1.93,2.19-2.87,4.79-2.58,7.15l6.67,49.17c.24,1.6,1.24,5.4,5.11,5.4s4.92-4.16,5.11-5.43l6.68-49.16c.27-2.33-.68-4.95-2.64-7.15-2.4-2.7-5.82-4.31-9.15-4.31ZM76.66,97.46c-3.43,0-6.23,2.79-6.23,6.23s2.79,6.22,6.23,6.22,6.23-2.79,6.23-6.22-2.79-6.23-6.23-6.23Z"/>
  <polyline class="cls-1" points="10.06 133.71 143.05 133.71 143.05 208.94 10.06 208.94 10.06 133.71"/>
  <path class="cls-2" d="M26.07,149.56c0,2.41,1.8,4.55,5.61,4.55s5.5-2.06,5.5-4.26c0-1.65-1.02-3.15-3.28-3.72l-3.11-.78c-.93-.24-1.02-.35-1.22-.56-.22-.24-.33-.54-.33-.87,0-.76.65-1.67,2.52-1.67.91,0,1.61.32,1.98.7.37.35.59.87.63,1.41l2.59.04c-.11-1.44-.59-2.31-1.31-2.98-.74-.67-2.15-1.31-4.06-1.31-3.46,0-5.07,1.94-5.07,4.11,0,1.67.94,3.02,3.24,3.59l2.67.69c.48.11,1.19.2,1.63.76.22.3.33.63.33.87,0,.85-.65,1.81-2.78,1.81s-2.93-1.07-2.89-2.37l-2.65-.02ZM118.35,150.53c.04,1.78,1.54,3.48,4.43,3.48s4.24-1.57,4.24-3.26c0-.59-.2-1.18-.59-1.65-.35-.44-.8-.78-1.91-1.04l-2.72-.63c-.56-.15-.8-.5-.8-.83,0-.37.33-.94,1.57-.94,1.35,0,1.94.7,1.94,1.46l2.24-.04c-.04-.94-.54-1.89-1.35-2.48-.54-.39-1.43-.72-2.8-.72-2.72,0-3.91,1.46-3.91,3.07,0,.76.2,1.3.65,1.78.33.35.74.65,1.8.87l2.04.46c1.2.26,1.33.63,1.33,1.07,0,.41-.39,1.06-1.78,1.06s-2.02-.7-2.09-1.68l-2.3.02ZM114,152.6c.04.46.15.8.3,1.07h2.57c-.31-.39-.41-.67-.43-.98l.02-5.17c0-2.26-1.17-3.61-4.24-3.61-2.85,0-4.04,1.56-4,3.15l2.24.04c0-.7.54-1.37,1.83-1.37s1.65.61,1.65,1.06c0,.39-.24.74-.93.87l-1.44.24c-2.09.37-2.65.76-3.04,1.11-.56.5-.87,1.2-.87,1.96,0,1.56,1.22,2.96,3.61,2.96,1.37,0,2.18-.46,2.72-1.33ZM114,148.71v1.19c0,1.33-.83,2.17-2.28,2.17-1.07,0-1.57-.63-1.57-1.2,0-.44.15-.94,1.74-1.39l1.09-.3c.5-.13.81-.32,1.02-.46ZM96.93,154.19c.11.89.39,1.39.93,1.89.57.56,1.63,1.07,3.46,1.07,2.04,0,3.33-.76,3.96-1.57.44-.57.67-1.09.67-2.5v-8.83h-2.43l-.07,1.15c-.18-.3-.7-1.48-2.8-1.48-2.28,0-4.26,1.82-4.26,4.72s2,4.74,4.24,4.74c1.5,0,2.44-.68,2.8-1.41v1.02c0,1.59-.72,2.26-2.18,2.26-1.09,0-1.63-.56-1.7-1.15l-2.61.09ZM101.22,151.19c-1.22,0-2.26-.89-2.26-2.63,0-1.52,1.06-2.48,2.2-2.48s2.22.96,2.22,2.56-1.07,2.56-2.17,2.56ZM80.13,149.66l6.98.02c0-2.8-1.26-5.76-4.78-5.76s-4.72,2.87-4.72,5.02c0,3.13,2.07,5.07,4.7,5.07s4.24-1.43,4.63-3.07l-2.54-.17c-.48.87-1.15,1.22-1.96,1.22-1.2,0-2.18-.81-2.31-2.33ZM80.22,147.82c.17-1.15,1.11-1.93,2.07-1.93,1.04,0,1.93.7,2.09,1.93h-4.17ZM71.34,153.67h2.54v-4.19c0-1.41.35-2.06.76-2.5.48-.5,1.04-.74,1.74-.74.13,0,.26.02.41.04v-2.24c-.11-.02-.3-.06-.52-.06-1.09,0-2.06.7-2.35,1.69l-.07-1.43h-2.48l-.02,9.42ZM66.86,152.62l.13,1.06h2.39v-9.41l-2.52-.02v5.28c0,1.44-.85,2.18-1.89,2.18-.93,0-1.52-.5-1.52-1.83v-5.63h-2.54v6.48c0,1.24.35,1.91.93,2.44.56.5,1.33.81,2.35.81,1.17,0,2.09-.5,2.67-1.37ZM56.76,150.25c-.15.74-.35,1.04-.72,1.31-.31.24-.72.39-1.24.39-1.13,0-2.18-.82-2.18-2.93,0-2.32,1.13-3.17,2.28-3.17.91,0,1.67.67,1.81,1.61l2.44-.13c-.2-1.96-1.74-3.48-4.31-3.48-1.85,0-3.15.72-4,1.98-.57.81-.91,1.83-.91,3.15,0,1.91.76,3.35,1.94,4.22.74.54,1.67.87,2.92.87.91,0,1.43-.13,1.89-.31,1.42-.52,2.3-1.59,2.48-3.41l-2.41-.11ZM41.36,149.66l6.98.02c0-2.8-1.26-5.76-4.78-5.76s-4.72,2.87-4.72,5.02c0,3.13,2.07,5.07,4.7,5.07s4.24-1.43,4.63-3.07l-2.54-.17c-.48.87-1.15,1.22-1.96,1.22-1.2,0-2.19-.81-2.31-2.33ZM41.45,147.82c.17-1.15,1.11-1.93,2.07-1.93,1.04,0,1.93.7,2.09,1.93h-4.17Z"/>
  <path class="cls-2" d="M49.52,172.63c-.13.74-.35,1.04-.72,1.32-.31.24-.7.39-1.22.39-1.15,0-2.18-.82-2.18-2.93,0-2.31,1.11-3.17,2.28-3.17.91,0,1.67.67,1.8,1.61l2.44-.13c-.2-1.96-1.72-3.48-4.31-3.48-1.85,0-3.15.72-4,1.98-.57.81-.91,1.83-.91,3.15,0,1.91.78,3.35,1.96,4.22.74.54,1.65.87,2.92.87.89,0,1.41-.13,1.87-.31,1.43-.52,2.3-1.59,2.48-3.41l-2.41-.11ZM101.68,172.9c.06,1.78,1.56,3.48,4.44,3.48s4.22-1.57,4.22-3.26c0-.59-.2-1.18-.57-1.65-.35-.44-.82-.78-1.93-1.04l-2.7-.63c-.57-.15-.8-.5-.8-.83,0-.37.33-.94,1.56-.94,1.35,0,1.94.7,1.96,1.46l2.22-.04c-.04-.94-.54-1.89-1.33-2.48-.56-.39-1.42-.72-2.81-.72-2.7,0-3.91,1.46-3.91,3.07,0,.76.22,1.3.65,1.78.35.35.76.65,1.82.87l2.04.46c1.19.26,1.33.63,1.33,1.07,0,.41-.39,1.06-1.8,1.06-1.33,0-2-.7-2.07-1.69l-2.32.02ZM95.04,176.05h2.54l.02-4.19c0-1.41.33-2.06.76-2.5.46-.5,1.02-.74,1.72-.74.15,0,.28.02.43.04l.02-2.24c-.13-.02-.33-.06-.54-.06-1.11,0-2.07.7-2.37,1.69l-.07-1.43h-2.48l-.02,9.43ZM86.26,172.03l7,.02c0-2.8-1.26-5.76-4.78-5.76s-4.74,2.87-4.74,5.02c0,3.13,2.07,5.07,4.72,5.07s4.24-1.43,4.63-3.07l-2.56-.17c-.48.87-1.15,1.22-1.96,1.22-1.2,0-2.18-.81-2.31-2.33ZM86.37,170.2c.15-1.15,1.09-1.93,2.06-1.93,1.04,0,1.93.7,2.09,1.93h-4.15ZM79.35,175.09l.09.96h2.52v-13.11h-2.56v4.76c-.44-.74-1.52-1.37-2.72-1.37-2.07,0-4.17,1.76-4.17,5.06,0,1.5.48,2.74,1.22,3.61.78.94,1.76,1.37,2.85,1.37,1.15,0,2.09-.44,2.76-1.28ZM77.35,174.18c-1.18,0-2.22-.85-2.22-2.85,0-2.24,1.09-3.04,2.11-3.04s2.15.8,2.15,2.96-1.09,2.91-2.04,2.92ZM68.21,176.05h2.54v-9.43h-2.52l-.02,9.43ZM68.22,165.2h2.54v-2.26h-2.54v2.26ZM63.71,176.05h2.54v-13.11h-2.52l-.02,13.11ZM53.97,177.12v1.98h1.87c2.2,0,2.72-1.74,2.93-2.31l3.59-10.17h-2.7l-1.87,5.83-1.98-5.83h-2.74l2.92,7.94c.19.52.26.87.26,1.3,0,.76-.43,1.28-1.52,1.26h-.76Z"/>
</svg>