<?xml version="1.0" encoding="UTF-8"?>
<svg id="Lager_1" data-name="Lager 1" xmlns="http://www.w3.org/2000/svg" viewBox="0 0 153.09 218.69">
  <defs>
    <style>
      .cls-1 {
        fill: #1a4080;
      }

      .cls-1, .cls-2 {
        fill-rule: evenodd;
      }

      .cls-2 {
        fill: #fff;
      }
    </style>
  </defs>
  <polyline class="cls-2" points="0 218.69 153.09 218.69 153.09 0 0 0 0 218.69"/>
  <path class="cls-1" d="M16.77,65.59c0,33.01,26.78,59.79,59.79,59.79s59.77-26.78,59.77-59.79S109.57,5.81,76.56,5.81s-59.79,26.76-59.79,59.77ZM76.64,20.03c-3.37,0-6.81,1.62-9.2,4.33-1.93,2.19-2.87,4.79-2.58,7.15l6.67,49.17c.24,1.6,1.24,5.39,5.11,5.39s4.92-4.16,5.11-5.43l6.67-49.16c.27-2.33-.69-4.95-2.64-7.14-2.4-2.7-5.82-4.31-9.15-4.31ZM76.64,97.46c-3.43,0-6.23,2.79-6.23,6.23s2.79,6.22,6.23,6.22,6.23-2.79,6.23-6.22-2.79-6.23-6.23-6.23Z"/>
  <polyline class="cls-1" points="10.06 133.69 143.05 133.69 143.05 208.92 10.06 208.92 10.06 133.69"/>
  <path class="cls-2" d="M16.75,141.86l-.02,9.18c0,1.35.33,2.13.98,2.83.76.83,2.04,1.5,4.33,1.5,3.54,0,5.26-1.76,5.26-4.39l-.02-9.13h-2.7v8.72c0,1.07-.15,1.43-.41,1.78-.39.56-1.07.96-2.13.96-1.7,0-2.63-.94-2.63-2.54l.02-8.92h-2.68ZM133.64,154.97h2.7v-2.59h-2.68l-.02,2.59ZM123.24,154.97h2.55v-5.28c0-.74.15-1.09.35-1.39.33-.48.94-.8,1.55-.8.87,0,1.5.57,1.5,1.63l-.02,5.83h2.54v-6.65c0-1.76-1.3-3.11-3.24-3.11-1.35,0-2.3.72-2.63,1.46l-.09-1.11-2.5-.02-.02,9.42ZM116.51,155.32c2.85,0,4.94-2.02,4.94-5.09s-2.06-5.04-4.98-5.04-4.94,2.04-4.94,5.02,2.11,5.11,4.98,5.11ZM116.5,153.34c-1.2,0-2.37-.93-2.37-3.02,0-2.26,1.13-3.15,2.37-3.15s2.37.91,2.37,3.06-1.13,3.11-2.37,3.11ZM107.55,151.55c-.13.74-.35,1.04-.72,1.31-.32.24-.7.39-1.22.39-1.13,0-2.18-.81-2.18-2.93,0-2.31,1.11-3.17,2.28-3.17.91,0,1.67.67,1.81,1.61l2.43-.13c-.2-1.96-1.72-3.48-4.31-3.48-1.85,0-3.15.72-4,1.98-.55.82-.89,1.83-.89,3.15,0,1.91.76,3.35,1.95,4.22.74.54,1.65.87,2.92.87.89,0,1.41-.13,1.89-.31,1.43-.52,2.28-1.59,2.46-3.41l-2.41-.11ZM91.37,149.53h7.57v-2.24h-7.55l-.02,2.24ZM85.24,154.97h2.54v-7.74h1.83v-1.68h-1.85v-.19c0-.85.15-1.09.32-1.26.2-.22.5-.39,1.11-.37h.42v-1.87h-1.44c-.87,0-3.18.15-2.92,3.68h-1.39l.02,1.68h1.37v7.74ZM79.74,154.97h2.56v-13.11h-2.54l-.02,13.11ZM70.99,150.95l6.98.02c0-2.8-1.26-5.76-4.76-5.76s-4.72,2.87-4.72,5.02c0,3.13,2.07,5.07,4.7,5.07s4.22-1.43,4.61-3.07l-2.54-.17c-.48.87-1.13,1.22-1.96,1.22-1.2,0-2.18-.82-2.31-2.33ZM71.1,149.12c.15-1.15,1.09-1.93,2.06-1.93,1.04,0,1.93.7,2.11,1.93h-4.17ZM58.14,151.82c.05,1.78,1.55,3.48,4.44,3.48s4.22-1.57,4.22-3.26c0-.59-.2-1.19-.57-1.65-.35-.44-.82-.78-1.93-1.04l-2.7-.63c-.57-.15-.8-.5-.8-.83,0-.37.33-.94,1.57-.94,1.33,0,1.92.7,1.94,1.46l2.24-.04c-.05-.94-.55-1.89-1.35-2.48-.56-.39-1.43-.72-2.8-.72-2.72,0-3.93,1.46-3.93,3.07,0,.76.22,1.3.67,1.78.33.35.74.65,1.8.87l2.04.46c1.18.26,1.33.63,1.33,1.07,0,.41-.39,1.06-1.8,1.06-1.32,0-2-.7-2.07-1.69l-2.31.02ZM41.88,150.95l7,.02c0-2.8-1.26-5.76-4.78-5.76s-4.72,2.87-4.72,5.02c0,3.13,2.07,5.07,4.7,5.07s4.24-1.43,4.63-3.07l-2.55-.17c-.48.87-1.13,1.22-1.96,1.22-1.2,0-2.18-.82-2.31-2.33ZM41.99,149.12c.15-1.15,1.09-1.93,2.05-1.93,1.04,0,1.93.7,2.11,1.93h-4.17ZM29.03,151.82c.06,1.78,1.56,3.48,4.44,3.48s4.22-1.57,4.22-3.26c0-.59-.2-1.19-.57-1.65-.35-.44-.81-.78-1.93-1.04l-2.7-.63c-.57-.15-.8-.5-.8-.83,0-.37.33-.94,1.57-.94,1.33,0,1.93.7,1.94,1.46l2.24-.04c-.06-.94-.56-1.89-1.35-2.48-.56-.39-1.43-.72-2.8-.72-2.72,0-3.93,1.46-3.93,3.07,0,.76.22,1.3.67,1.78.33.35.74.65,1.8.87l2.04.46c1.18.26,1.33.63,1.33,1.07,0,.41-.39,1.06-1.8,1.06-1.31,0-2-.7-2.07-1.69l-2.31.02Z"/>
  <path class="cls-2" d="M40.84,173.92c-1.05,0-2.15-.83-2.15-2.94s1.11-2.94,2.13-2.94c1.13,0,2.18.8,2.18,2.98s-1.07,2.91-2.17,2.91ZM107.9,176.33c.13.89.39,1.39.93,1.89.57.56,1.63,1.07,3.46,1.07,2.04,0,3.35-.76,3.98-1.57.43-.57.67-1.09.67-2.5l-.02-8.83h-2.42l-.07,1.15c-.18-.3-.68-1.48-2.78-1.48-2.3,0-4.28,1.81-4.28,4.72s2,4.74,4.24,4.74c1.5,0,2.45-.69,2.8-1.41v1.02c0,1.59-.72,2.26-2.18,2.26-1.09,0-1.61-.56-1.7-1.15l-2.61.09ZM112.22,173.33c-1.24,0-2.28-.89-2.28-2.63,0-1.52,1.05-2.48,2.2-2.48s2.22.96,2.22,2.56-1.07,2.56-2.15,2.56ZM97.15,175.81h2.54l.02-5.28c0-.74.15-1.09.35-1.39.33-.48.93-.8,1.54-.8.87,0,1.52.57,1.52,1.63l-.02,5.83h2.54v-6.65c0-1.76-1.3-3.11-3.24-3.11-1.35,0-2.3.72-2.63,1.46l-.11-1.11-2.48-.02-.02,9.42ZM92.65,175.81h2.54v-9.42h-2.54v9.42ZM92.66,164.96h2.54v-2.26h-2.54v2.26ZM82.32,175.81h2.54v-5.18c0-1.54.85-2.26,1.89-2.26.91,0,1.52.52,1.52,1.7v5.74h2.54v-6.5c0-1.15-.39-1.93-1-2.46-.56-.46-1.39-.8-2.22-.8-1.37,0-2.3.65-2.72,1.52v-4.87h-2.54v13.11ZM80.56,175.81v-1.94h-.95c-.32,0-.61-.17-.74-.35-.06-.07-.13-.22-.13-.74v-4.67h1.72v-1.72h-1.7l-.02-2.98h-2.5v2.98h-1.33v1.74l1.33-.02v4.87c0,2.13.85,2.83,2.26,2.83h2.06ZM70.87,174.74c.04.46.15.8.3,1.07h2.59c-.33-.39-.43-.67-.43-.98v-5.17c0-2.26-1.17-3.61-4.24-3.61-2.85,0-4.04,1.56-3.98,3.15l2.24.04c0-.7.52-1.37,1.81-1.37s1.65.61,1.65,1.06c0,.39-.24.74-.93.87l-1.44.24c-2.07.37-2.63.76-3.04,1.11-.56.5-.87,1.2-.87,1.96,0,1.56,1.22,2.96,3.61,2.96,1.37,0,2.18-.46,2.72-1.33ZM70.89,170.85l-.02,1.19c0,1.33-.83,2.17-2.28,2.17-1.07,0-1.57-.63-1.57-1.2,0-.44.15-.94,1.74-1.39l1.11-.3c.48-.13.8-.32,1.02-.46ZM56.19,171.79l7,.02c0-2.8-1.28-5.76-4.78-5.76s-4.74,2.87-4.74,5.02c0,3.13,2.07,5.07,4.72,5.07s4.24-1.43,4.61-3.07l-2.54-.17c-.48.87-1.15,1.22-1.96,1.22-1.2,0-2.18-.81-2.31-2.33ZM56.3,169.96c.15-1.15,1.09-1.92,2.06-1.92,1.04,0,1.93.7,2.09,1.92h-4.15ZM47.38,175.81h2.54l.02-4.18c0-1.41.33-2.06.76-2.5.46-.5,1.02-.74,1.72-.74.15,0,.28.02.43.04l.02-2.24c-.13-.02-.33-.06-.55-.06-1.09,0-2.06.7-2.35,1.69l-.07-1.43h-2.48l-.02,9.42ZM36.12,175.81h2.5l.15-.96c.65.83,1.56,1.26,2.7,1.26,2.07,0,4.13-1.7,4.13-5.04s-2.07-5-4.11-5c-1.35,0-2.31.59-2.81,1.41v-4.78h-2.55v13.11Z"/>
  <path class="cls-2" d="M40.93,193.48v1.18c0,1.33-.83,2.17-2.28,2.17-1.07,0-1.57-.63-1.57-1.2,0-.44.15-.94,1.74-1.39l1.09-.3c.5-.13.82-.31,1.02-.46ZM111.48,194.42l6.98.02c0-2.8-1.26-5.76-4.76-5.76s-4.74,2.87-4.74,5.02c0,3.13,2.07,5.07,4.7,5.07s4.24-1.43,4.63-3.07l-2.54-.17c-.48.87-1.15,1.22-1.96,1.22-1.2,0-2.18-.82-2.31-2.33ZM111.57,192.59c.17-1.15,1.11-1.92,2.07-1.92,1.04,0,1.93.7,2.09,1.92h-4.17ZM104.98,195.02c-.15.74-.35,1.04-.72,1.31-.32.24-.72.39-1.24.39-1.13,0-2.18-.81-2.18-2.92,0-2.31,1.13-3.17,2.28-3.17.91,0,1.67.67,1.81,1.61l2.44-.13c-.2-1.96-1.74-3.48-4.31-3.48-1.85,0-3.15.72-4,1.98-.57.82-.91,1.83-.91,3.15,0,1.91.78,3.35,1.94,4.22.74.54,1.67.87,2.92.87.91,0,1.43-.13,1.89-.32,1.43-.52,2.3-1.59,2.48-3.41l-2.41-.11ZM87.93,198.44h2.54l.02-5.28c0-.74.15-1.09.35-1.39.33-.48.93-.8,1.54-.8.87,0,1.5.57,1.5,1.63v5.83h2.54v-6.65c0-1.76-1.3-3.11-3.26-3.11-1.35,0-2.3.72-2.61,1.46l-.11-1.11-2.48-.02-.02,9.42ZM83.22,197.37c.04.46.15.8.3,1.07h2.59c-.33-.39-.43-.67-.43-.98v-5.17c0-2.26-1.17-3.61-4.24-3.61-2.85,0-4.04,1.56-3.98,3.15l2.22.04c0-.7.54-1.37,1.83-1.37s1.65.61,1.65,1.06c0,.39-.24.74-.92.87l-1.45.24c-2.09.37-2.65.76-3.04,1.11-.56.5-.87,1.2-.87,1.96,0,1.55,1.22,2.96,3.61,2.96,1.37,0,2.18-.46,2.72-1.33ZM83.22,193.48v1.18c0,1.33-.83,2.17-2.28,2.17-1.07,0-1.57-.63-1.57-1.2,0-.44.15-.94,1.74-1.39l1.09-.3c.5-.13.82-.31,1.02-.46ZM72.65,198.44h2.54v-9.42h-2.54v9.42ZM72.67,187.59h2.52v-2.26h-2.52v2.26ZM68.15,198.44h2.54v-13.11h-2.52l-.02,13.11ZM59.43,197.35c.54.87,1.48,1.41,2.78,1.41,2.57,0,4.17-2.39,4.17-5.07s-1.56-4.96-4.15-4.96c-1.13,0-2.07.46-2.72,1.28l-.11-.96-2.5.02v12.46h2.54v-4.17ZM61.71,196.81c-1.22,0-2.26-.82-2.26-2.85,0-2.28,1.13-3.07,2.17-3.07s2.18.85,2.18,2.94c0,1.39-.59,2.96-2.09,2.98ZM48.17,197.35c.54.87,1.48,1.41,2.78,1.41,2.57,0,4.17-2.39,4.17-5.07s-1.55-4.96-4.15-4.96c-1.13,0-2.07.46-2.72,1.28l-.11-.96-2.5.02v12.46h2.54v-4.17ZM50.45,196.81c-1.22,0-2.26-.82-2.26-2.85,0-2.28,1.13-3.07,2.17-3.07s2.18.85,2.18,2.94c0,1.39-.59,2.96-2.09,2.98ZM40.93,197.37c.04.46.15.8.3,1.07h2.59c-.33-.39-.43-.67-.43-.98v-5.17c0-2.26-1.17-3.61-4.24-3.61-2.85,0-4.04,1.56-3.98,3.15l2.22.04c0-.7.54-1.37,1.83-1.37s1.65.61,1.65,1.06c0,.39-.24.74-.93.87l-1.44.24c-2.09.37-2.65.76-3.04,1.11-.56.5-.87,1.2-.87,1.96,0,1.55,1.22,2.96,3.61,2.96,1.37,0,2.18-.46,2.72-1.33Z"/>
</svg>