<?xml version="1.0" encoding="UTF-8"?>
<svg id="Lager_1" data-name="Lager 1" xmlns="http://www.w3.org/2000/svg" viewBox="0 0 153.09 218.69">
  <defs>
    <style>
      .cls-1 {
        fill: #1a4080;
      }

      .cls-1, .cls-2 {
        fill-rule: evenodd;
      }

      .cls-2 {
        fill: #fff;
      }
    </style>
  </defs>
  <polyline class="cls-2" points="0 218.69 153.09 218.69 153.09 0 0 0 0 218.69"/>
  <path class="cls-1" d="M16.77,65.59c0,33.01,26.77,59.79,59.79,59.79s59.77-26.78,59.77-59.79S109.57,5.81,76.56,5.81s-59.79,26.76-59.79,59.77ZM76.54,20.03c-3.37,0-6.81,1.62-9.2,4.33-1.93,2.19-2.87,4.79-2.58,7.15l6.67,49.17c.24,1.6,1.24,5.39,5.11,5.39s4.92-4.16,5.11-5.43l6.67-49.16c.27-2.33-.69-4.95-2.64-7.14-2.4-2.7-5.82-4.31-9.15-4.31ZM76.54,97.46c-3.43,0-6.23,2.79-6.23,6.23s2.79,6.22,6.23,6.22,6.23-2.79,6.23-6.22-2.79-6.23-6.23-6.23Z"/>
  <polyline class="cls-1" points="10.06 133.69 143.05 133.69 143.05 208.92 10.06 208.92 10.06 133.69"/>
  <path class="cls-2" d="M40.54,140.33l-.02,9.18c0,1.35.35,2.13.98,2.83.76.83,2.06,1.5,4.35,1.5,3.54,0,5.26-1.76,5.26-4.39l-.02-9.13h-2.7v8.72c0,1.07-.17,1.42-.43,1.78-.37.56-1.07.96-2.13.96-1.69,0-2.61-.94-2.61-2.54l.02-8.92h-2.7ZM103.89,150.29c.05,1.78,1.54,3.48,4.42,3.48s4.24-1.57,4.24-3.26c0-.59-.2-1.18-.59-1.65-.35-.44-.8-.78-1.91-1.04l-2.72-.63c-.56-.15-.8-.5-.8-.83,0-.37.33-.94,1.57-.94,1.35,0,1.95.7,1.95,1.46l2.24-.04c-.04-.94-.54-1.89-1.35-2.48-.54-.39-1.42-.72-2.8-.72-2.72,0-3.91,1.46-3.91,3.07,0,.76.2,1.3.65,1.78.33.35.74.65,1.8.87l2.04.46c1.2.26,1.33.63,1.33,1.07,0,.41-.39,1.06-1.78,1.06s-2.02-.7-2.09-1.68l-2.3.02ZM99.54,152.36c.04.46.15.8.3,1.07h2.59c-.33-.39-.43-.67-.44-.98l.02-5.17c0-2.26-1.17-3.61-4.24-3.61-2.85,0-4.04,1.56-3.98,3.15l2.22.04c0-.7.54-1.37,1.83-1.37s1.65.61,1.65,1.06c0,.39-.24.74-.93.87l-1.44.24c-2.09.37-2.65.76-3.04,1.11-.56.5-.87,1.2-.87,1.96,0,1.56,1.22,2.96,3.61,2.96,1.37,0,2.18-.46,2.72-1.33ZM99.54,148.47v1.19c0,1.33-.83,2.17-2.28,2.17-1.07,0-1.57-.63-1.57-1.2,0-.44.15-.94,1.74-1.39l1.09-.3c.5-.13.81-.32,1.02-.46ZM82.46,153.95c.11.89.39,1.39.93,1.89.57.56,1.63,1.07,3.46,1.07,2.04,0,3.33-.76,3.98-1.57.43-.57.65-1.09.65-2.5v-8.83h-2.43l-.07,1.15c-.19-.3-.68-1.48-2.8-1.48-2.28,0-4.26,1.82-4.26,4.72s2,4.74,4.24,4.74c1.5,0,2.44-.68,2.8-1.41v1.02c0,1.59-.72,2.26-2.18,2.26-1.09,0-1.63-.56-1.7-1.15l-2.61.09ZM86.76,150.95c-1.22,0-2.26-.89-2.26-2.63,0-1.52,1.05-2.48,2.2-2.48s2.22.96,2.22,2.56-1.07,2.56-2.17,2.56ZM65.69,149.42l6.98.02c0-2.8-1.26-5.76-4.76-5.76s-4.74,2.87-4.74,5.02c0,3.13,2.07,5.07,4.7,5.07s4.24-1.43,4.63-3.07l-2.54-.17c-.48.87-1.15,1.22-1.96,1.22-1.2,0-2.18-.81-2.31-2.33ZM65.78,147.58c.17-1.15,1.11-1.93,2.07-1.93,1.04,0,1.93.7,2.09,1.93h-4.17ZM52.84,150.29c.05,1.78,1.54,3.48,4.42,3.48s4.24-1.57,4.24-3.26c0-.59-.2-1.18-.59-1.65-.35-.44-.8-.78-1.91-1.04l-2.72-.63c-.56-.15-.8-.5-.8-.83,0-.37.33-.94,1.57-.94,1.35,0,1.94.7,1.94,1.46l2.24-.04c-.04-.94-.54-1.89-1.35-2.48-.54-.39-1.42-.72-2.79-.72-2.72,0-3.91,1.46-3.91,3.07,0,.76.2,1.3.65,1.78.33.35.74.65,1.8.87l2.04.46c1.2.26,1.33.63,1.33,1.07,0,.41-.39,1.06-1.78,1.06s-2.02-.7-2.09-1.68l-2.3.02Z"/>
  <path class="cls-2" d="M44.17,175.48c-1.19,0-2.24-.85-2.24-2.85,0-2.24,1.11-3.04,2.15-3.04s2.13.8,2.13,2.96-1.09,2.91-2.04,2.92ZM108.27,177.35h2.54v-4.18c0-1.41.35-2.06.76-2.5.48-.5,1.04-.74,1.72-.74.15,0,.3.02.45.04v-2.24c-.13-.02-.33-.06-.54-.06-1.11,0-2.06.7-2.35,1.69l-.07-1.42h-2.5v9.42ZM101.53,177.7c2.85,0,4.94-2.02,4.94-5.09s-2.05-5.04-4.98-5.04-4.93,2.04-4.93,5.02,2.09,5.11,4.96,5.11ZM101.52,175.72c-1.2,0-2.37-.93-2.37-3.02,0-2.26,1.13-3.15,2.37-3.15s2.39.91,2.39,3.06-1.15,3.11-2.39,3.11ZM95.26,177.35v-1.94h-.94c-.3,0-.59-.17-.72-.35-.06-.07-.13-.22-.13-.74v-4.67h1.72v-1.72h-1.72l-.02-2.98h-2.52v2.98h-1.31v1.74l1.33-.02v4.87c0,2.13.87,2.83,2.26,2.83h2.05ZM86.07,173.92c-.15.74-.35,1.04-.72,1.31-.33.24-.72.39-1.24.39-1.13,0-2.18-.81-2.18-2.92,0-2.32,1.13-3.17,2.28-3.17.91,0,1.67.67,1.81,1.61l2.44-.13c-.22-1.96-1.74-3.48-4.32-3.48-1.85,0-3.15.72-4.02,1.98-.56.81-.89,1.83-.89,3.15,0,1.91.76,3.35,1.94,4.22.74.54,1.67.87,2.92.87.91,0,1.43-.13,1.89-.32,1.43-.52,2.3-1.59,2.48-3.41l-2.41-.11ZM70.69,173.33l6.96.02c0-2.8-1.24-5.76-4.76-5.76s-4.72,2.87-4.72,5.02c0,3.13,2.07,5.07,4.7,5.07s4.22-1.42,4.61-3.07l-2.52-.17c-.5.87-1.15,1.22-1.96,1.22-1.2,0-2.18-.81-2.32-2.33ZM70.78,171.5c.17-1.15,1.11-1.92,2.07-1.92,1.04,0,1.92.7,2.09,1.92h-4.17ZM66.85,177.35v-1.94h-.94c-.3,0-.59-.17-.72-.35-.05-.07-.13-.22-.13-.74v-4.67h1.72v-1.72h-1.72l-.02-2.98h-2.52v2.98h-1.32v1.74l1.33-.02v4.87c0,2.13.87,2.83,2.26,2.83h2.06ZM53.1,173.33l6.98.02c0-2.8-1.26-5.76-4.78-5.76s-4.72,2.87-4.72,5.02c0,3.13,2.07,5.07,4.7,5.07s4.24-1.42,4.63-3.07l-2.54-.17c-.5.87-1.15,1.22-1.96,1.22-1.2,0-2.18-.81-2.32-2.33ZM53.19,171.5c.17-1.15,1.11-1.92,2.07-1.92,1.04,0,1.93.7,2.09,1.92h-4.17ZM46.17,176.39l.11.96h2.52l-.02-13.11h-2.54v4.76c-.46-.74-1.52-1.37-2.72-1.37-2.11,0-4.18,1.76-4.18,5.06,0,1.5.48,2.74,1.22,3.61.78.94,1.74,1.37,2.87,1.37s2.07-.44,2.74-1.28Z"/>
</svg>