<?xml version="1.0" encoding="UTF-8"?>
<svg id="Lager_1" data-name="Lager 1" xmlns="http://www.w3.org/2000/svg" viewBox="0 0 153.09 218.69">
  <defs>
    <style>
      .cls-1 {
        fill: #1a4080;
      }

      .cls-1, .cls-2 {
        fill-rule: evenodd;
      }

      .cls-2 {
        fill: #fff;
      }
    </style>
  </defs>
  <polyline class="cls-2" points="0 218.69 153.09 218.69 153.09 0 0 0 0 218.69"/>
  <path class="cls-1" d="M16.77,65.59c0,33.01,26.77,59.79,59.79,59.79s59.77-26.78,59.77-59.79S109.58,5.81,76.56,5.81s-59.79,26.76-59.79,59.77ZM76.54,20.03c-3.37,0-6.81,1.62-9.2,4.33-1.93,2.19-2.87,4.79-2.58,7.15l6.67,49.17c.24,1.6,1.24,5.39,5.11,5.39s4.92-4.16,5.11-5.43l6.68-49.16c.27-2.33-.69-4.95-2.64-7.14-2.4-2.7-5.82-4.31-9.15-4.31ZM76.54,97.46c-3.43,0-6.23,2.79-6.23,6.23s2.79,6.22,6.23,6.22,6.23-2.79,6.23-6.22-2.79-6.23-6.23-6.23Z"/>
  <polyline class="cls-1" points="10.06 133.69 143.05 133.69 143.05 208.92 10.06 208.92 10.06 133.69"/>
  <path class="cls-2" d="M18.69,153.63h2.22l1.93-9.26,1.67,9.26h2.19l3.54-13.11h-2.43l-2.19,9.24-1.64-9.24-2.3.02-1.78,9.24-2.04-9.26-2.25.02,3.09,13.09ZM131.42,149.62l6.08.02c0-2.8-1.09-5.76-4.15-5.76s-4.1,2.87-4.1,5.02c0,3.13,1.8,5.07,4.08,5.07s3.68-1.43,4.02-3.07l-2.22-.17c-.42.87-.98,1.22-1.7,1.22-1.05,0-1.9-.82-2.01-2.33ZM131.52,147.78c.13-1.15.95-1.93,1.79-1.93.9,0,1.67.7,1.83,1.93h-3.62ZM123.54,153.63h2.17l2.81-9.43h-2.25l-1.62,6.2-1.62-6.18h-2.25l2.77,9.41ZM117.38,153.63h2.2v-9.43h-2.19l-.02,9.43ZM117.4,142.78h2.2v-2.26h-2.2v2.26ZM115.85,153.63v-1.94h-.82c-.27,0-.52-.17-.63-.35-.05-.07-.11-.22-.11-.74v-4.67h1.48v-1.72h-1.48l-.02-2.98h-2.19v2.98h-1.16v1.74l1.17-.02-.02,4.87c0,2.13.77,2.83,1.98,2.83h1.79ZM107.86,150.21c-.11.74-.3,1.04-.63,1.32-.27.24-.61.39-1.06.39-.98,0-1.9-.82-1.9-2.93,0-2.31.97-3.17,1.98-3.17.79,0,1.45.67,1.58,1.61l2.11-.13c-.18-1.96-1.5-3.48-3.73-3.48-1.62,0-2.75.72-3.49,1.98-.48.82-.77,1.83-.77,3.15,0,1.91.66,3.35,1.69,4.22.64.54,1.43.87,2.54.87.77,0,1.24-.13,1.64-.31,1.24-.52,1.98-1.59,2.14-3.41l-2.09-.11ZM94.48,149.62l6.08.02c0-2.8-1.09-5.76-4.15-5.76s-4.1,2.87-4.1,5.02c0,3.13,1.8,5.07,4.09,5.07s3.68-1.43,4.02-3.07l-2.22-.17c-.42.87-.98,1.22-1.7,1.22-1.05,0-1.9-.82-2.01-2.33ZM94.58,147.78c.13-1.15.95-1.93,1.78-1.93.9,0,1.67.7,1.83,1.93h-3.62ZM91.17,153.63v-1.94h-.82c-.27,0-.51-.17-.63-.35-.05-.07-.11-.22-.11-.74v-4.67h1.48v-1.72h-1.48l-.02-2.98h-2.19v2.98h-1.16v1.74l1.17-.02-.02,4.87c0,2.13.77,2.83,1.98,2.83h1.79ZM80.99,153.99c2.48,0,4.29-2.02,4.29-5.09s-1.78-5.04-4.33-5.04-4.29,2.04-4.29,5.02,1.83,5.11,4.33,5.11ZM80.97,152c-1.04,0-2.06-.93-2.06-3.02,0-2.26.98-3.15,2.06-3.15s2.06.91,2.06,3.06-.98,3.11-2.06,3.11ZM71.21,153.63h2.22v-4.18c0-1.41.3-2.06.66-2.5.42-.5.89-.74,1.5-.74.13,0,.26.02.37.04l.02-2.24c-.11-.02-.29-.06-.47-.06-.97,0-1.79.7-2.04,1.68l-.08-1.43h-2.16l-.02,9.43ZM63.65,152.54c.47.87,1.29,1.41,2.4,1.41,2.24,0,3.62-2.39,3.62-5.07s-1.35-4.96-3.59-4.96c-.98,0-1.8.46-2.38,1.28l-.1-.96-2.17.02.02,12.46h2.2v-4.17ZM65.63,152c-1.06,0-1.96-.82-1.96-2.85,0-2.28.96-3.07,1.87-3.07s1.9.85,1.9,2.94c0,1.39-.51,2.96-1.8,2.98ZM48.83,153.63h2.22v-4.18c0-1.41.31-2.06.66-2.5.42-.5.88-.74,1.49-.74.13,0,.26.02.37.04l.02-2.24c-.11-.02-.29-.06-.47-.06-.97,0-1.79.7-2.04,1.68l-.08-1.43h-2.16l-.02,9.43ZM44.74,152.56c.05.46.15.8.26,1.07h2.25c-.29-.39-.35-.67-.37-.98v-5.17c0-2.26-1.01-3.61-3.68-3.61-2.48,0-3.51,1.56-3.46,3.15l1.95.04c0-.7.45-1.37,1.58-1.37s1.45.61,1.45,1.06c0,.39-.21.74-.8.87l-1.27.24c-1.8.37-2.28.76-2.64,1.11-.48.5-.74,1.2-.74,1.96,0,1.56,1.06,2.96,3.12,2.96,1.21,0,1.9-.46,2.36-1.33ZM44.76,148.67l-.02,1.18c0,1.33-.72,2.17-1.98,2.17-.92,0-1.37-.63-1.37-1.2,0-.44.15-.94,1.53-1.39l.95-.3c.42-.13.71-.32.89-.46ZM31.99,149.62l6.08.02c0-2.8-1.09-5.76-4.15-5.76s-4.1,2.87-4.1,5.02c0,3.13,1.8,5.07,4.09,5.07s3.68-1.43,4.02-3.07l-2.22-.17c-.42.87-.98,1.22-1.71,1.22-1.04,0-1.9-.82-2.01-2.33ZM32.08,147.78c.13-1.15.95-1.93,1.79-1.93.9,0,1.67.7,1.83,1.93h-3.62Z"/>
  <path class="cls-2" d="M27.58,176.02h2.54v-4.18c0-1.41.35-2.06.78-2.5.46-.5,1.02-.74,1.72-.74.13,0,.28.02.43.04l.02-2.24c-.13-.02-.33-.06-.55-.06-1.09,0-2.06.7-2.35,1.69l-.07-1.42h-2.48l-.02,9.42ZM125.49,176.02v-1.94h-.95c-.3,0-.59-.17-.72-.35-.05-.07-.13-.22-.13-.74v-4.66h1.72v-1.72h-1.7l-.02-2.98h-2.52v2.98h-1.33v1.74l1.33-.02v4.87c0,2.13.87,2.83,2.28,2.83h2.04ZM113.29,176.02h2.54v-4.18c0-1.41.35-2.06.78-2.5.46-.5,1.02-.74,1.72-.74.13,0,.28.02.43.04l.02-2.24c-.13-.02-.33-.06-.56-.06-1.09,0-2.06.7-2.35,1.69l-.07-1.42h-2.48l-.02,9.42ZM106.55,176.37c2.87,0,4.96-2.02,4.96-5.09s-2.07-5.04-5-5.04-4.92,2.04-4.92,5.02,2.09,5.11,4.96,5.11ZM106.53,174.39c-1.2,0-2.35-.93-2.35-3.02,0-2.26,1.13-3.15,2.37-3.15s2.37.91,2.37,3.06-1.15,3.11-2.39,3.11ZM93.07,174.92c.55.87,1.48,1.41,2.78,1.41,2.57,0,4.17-2.39,4.17-5.07s-1.55-4.96-4.15-4.96c-1.13,0-2.07.46-2.72,1.28l-.11-.96-2.5.02v12.46h2.54v-4.17ZM95.35,174.39c-1.22,0-2.26-.81-2.26-2.85,0-2.28,1.13-3.07,2.17-3.07s2.18.85,2.18,2.94c0,1.39-.59,2.96-2.09,2.98ZM80,172.87c.05,1.78,1.54,3.48,4.42,3.48s4.24-1.57,4.24-3.26c0-.59-.2-1.19-.57-1.65-.35-.44-.82-.78-1.93-1.04l-2.72-.63c-.56-.15-.8-.5-.8-.83,0-.37.35-.94,1.57-.94,1.35,0,1.94.7,1.94,1.46l2.24-.04c-.04-.94-.54-1.89-1.35-2.48-.54-.39-1.43-.72-2.8-.72-2.72,0-3.91,1.46-3.91,3.07,0,.76.2,1.3.65,1.78.33.35.74.65,1.8.87l2.04.46c1.2.26,1.33.63,1.33,1.07,0,.41-.39,1.06-1.78,1.06s-2.02-.7-2.09-1.69l-2.3.02ZM65.69,176.02h2.54v-4.18c0-1.41.35-2.06.78-2.5.46-.5,1.02-.74,1.72-.74.13,0,.28.02.43.04l.02-2.24c-.13-.02-.33-.06-.56-.06-1.09,0-2.06.7-2.35,1.69l-.07-1.42h-2.48l-.02,9.42ZM56.91,172l7,.02c0-2.8-1.28-5.76-4.78-5.76s-4.74,2.87-4.74,5.02c0,3.13,2.07,5.07,4.7,5.07s4.26-1.42,4.63-3.07l-2.54-.17c-.48.87-1.15,1.22-1.96,1.22-1.2,0-2.18-.81-2.32-2.33ZM57,170.16c.17-1.15,1.11-1.93,2.07-1.93,1.04,0,1.92.7,2.09,1.93h-4.17ZM50.08,176.02h2.54v-13.11h-2.52l-.02,13.11ZM45.58,176.02h2.54v-13.11h-2.52l-.02,13.11ZM38.84,176.37c2.87,0,4.96-2.02,4.96-5.09s-2.07-5.04-5-5.04-4.93,2.04-4.93,5.02,2.09,5.11,4.96,5.11ZM38.82,174.39c-1.2,0-2.35-.93-2.35-3.02,0-2.26,1.13-3.15,2.37-3.15s2.37.91,2.37,3.06-1.15,3.11-2.39,3.11Z"/>
  <path class="cls-2" d="M33.58,192.59c.15-1.15,1.09-1.92,2.05-1.92,1.04,0,1.92.7,2.11,1.92h-4.17ZM122.12,198.44v-1.94h-.94c-.32,0-.59-.17-.72-.35-.06-.07-.13-.22-.13-.74v-4.67h1.7v-1.72h-1.7l-.02-2.98h-2.52v2.98h-1.33v1.74l1.35-.02-.02,4.87c0,2.13.89,2.83,2.28,2.83h2.05ZM106.48,198.44h2.55v-5.28c0-.74.15-1.09.35-1.39.35-.48.94-.8,1.55-.8.87,0,1.5.57,1.5,1.63v5.83h2.52v-6.65c0-1.76-1.3-3.11-3.24-3.11-1.35,0-2.3.72-2.61,1.46l-.11-1.11-2.48-.02-.04,9.42ZM97.7,194.42l7,.02c0-2.8-1.26-5.76-4.78-5.76s-4.72,2.87-4.72,5.02c0,3.13,2.07,5.07,4.7,5.07s4.24-1.43,4.63-3.07l-2.55-.17c-.48.87-1.13,1.22-1.96,1.22-1.2,0-2.18-.82-2.31-2.33ZM97.81,192.59c.15-1.15,1.09-1.92,2.06-1.92,1.04,0,1.93.7,2.11,1.92h-4.17ZM79.61,198.44h2.55v-5.44c0-1.35.76-2.04,1.78-2.04.67,0,1.07.33,1.26.8.04.09.11.3.11,1.04v5.65h2.52v-5.59c0-1.22.76-1.93,1.76-1.93.85,0,1.42.52,1.42,1.63v5.89h2.5l-.02-6.61c-.06-1.98-1.32-3.11-3.02-3.11-1.3,0-2.33.61-2.89,1.65-.48-.98-1.54-1.65-2.78-1.65s-2.13.55-2.63,1.5l-.09-1.18-2.44-.02-.04,9.42ZM70.93,197.35c.54.87,1.48,1.41,2.76,1.41,2.57,0,4.15-2.39,4.15-5.07s-1.54-4.96-4.11-4.96c-1.13,0-2.07.46-2.72,1.28l-.13-.96-2.5.02.02,12.46h2.54v-4.17ZM73.21,196.81c-1.22,0-2.26-.82-2.26-2.85,0-2.28,1.11-3.07,2.15-3.07s2.18.85,2.18,2.94c0,1.39-.59,2.96-2.07,2.98ZM63.87,198.44h2.54v-9.42h-2.52l-.02,9.42ZM63.89,187.59h2.54v-2.26h-2.54v2.26ZM59.39,197.39l.15,1.06h2.39l-.02-9.41-2.5-.02v5.28c0,1.44-.87,2.18-1.89,2.18-.94,0-1.54-.5-1.54-1.83v-5.63h-2.52v6.48c0,1.24.35,1.91.92,2.44.54.5,1.33.81,2.35.81,1.17,0,2.09-.5,2.65-1.37ZM48.99,197.39v4.15l2.54-.02v-12.48h-2.48l-.13.98c-.59-.8-1.52-1.3-2.74-1.3-2.89,0-4.13,2.83-4.13,5.04,0,2.67,1.65,5,4.17,5,1.26,0,2.26-.56,2.78-1.37ZM46.88,196.79c-1.13,0-2.22-.83-2.22-2.91s1.13-2.98,2.15-2.98,2.15.83,2.15,2.94-1.09,2.94-2.07,2.94ZM33.47,194.42l7,.02c0-2.8-1.26-5.76-4.78-5.76s-4.72,2.87-4.72,5.02c0,3.13,2.07,5.07,4.7,5.07s4.24-1.43,4.63-3.07l-2.56-.17c-.48.87-1.13,1.22-1.96,1.22-1.2,0-2.18-.82-2.31-2.33Z"/>
</svg>