<svg xmlns="http://www.w3.org/2000/svg" viewBox="0 0 595.28 850.36"><defs><style>.a{fill:#e5e8eb;}.a,.b,.c{fill-rule:evenodd;}.b{fill:#000100;}.c{fill:#ad1922;}</style></defs><title>P002_C</title><polyline class="a" points="0 850.36 595.28 850.36 595.28 0 0 0 0 850.36"/><polyline class="b" points="249.3 442.98 239.57 428.6 459.26 280.04 446.65 261.41 226.97 409.98 217.25 395.6 451.31 237.3 483.36 284.69 249.3 442.98"/><polyline class="b" points="215.54 465.64 183.34 418.03 195.81 409.6 228.01 457.21 215.54 465.64"/><polyline class="b" points="233.08 453.79 200.88 406.17 213.35 397.73 245.54 445.35 233.08 453.79"/><path class="b" d="M200.41,399.95c-7-10-9.58-20.84-7.82-33.17,2.12-13.67,4.75-17.66,10.26-23.52,11-11.71,13.35-19.33,8.45-27.15-3.21-5.13-5.55-7.74-19.35-6.8l-5.81.46c-10,.83-16,1.34-23.74-2.41-7.54-3.64-13.13-13-13.59-22.72-0.3-6.26,1.33-18.05,15.61-26.73a26.25,26.25,0,0,0,2.37-1.6c0.77-.57,1.58-1.17,3.29-2.24,2.13-1.33,3.91-4.62,4.77-8.8,1.18-5.73.37-12.08-2-15.44l9.5-6.6c4.19,6,5.65,15.37,3.8,24.37-1.52,7.44-5.06,13.21-10,16.28a29.52,29.52,0,0,0-2.52,1.72,36.73,36.73,0,0,1-3.25,2.19c-6.91,4.2-10.38,9.83-10.07,16.3,0.29,6,3.82,11.28,7.07,12.86,4.88,2.37,8.65,2.06,17.74,1.29l5.94-.46c16-1.11,23.58,1.94,30,12.19,11.52,18.42-3.44,34.39-9.83,41.21-3.76,4-5.47,5.83-7.25,17.3-1.35,9.47.45,17.14,5.84,24.81l-9.47,6.67"/><path class="b" d="M182.24,412.23c-8-11.37-12.46-26.73-13.1-30.74-1.49-6.35-.73-11.33,0-16.14l0.42-2.88a91.27,91.27,0,0,1,3.24-13.74c2.17-7.38,3.4-12.06,1.47-15.15-3.11-5-7.14-8-16.63-6.42l-5.28.89c-9.83,1.71-14.77,2.57-22.86.11s-15-10.78-17-20.32c-1.28-6.14-1.52-18,11.22-28.87a24.84,24.84,0,0,0,2.11-1.95c0.67-.68,1.37-1.4,2.89-2.72,5.24-4.57,8.51-12.7,4.21-18.73l9.43-6.73c7.24,10.16,4.65,24.86-6,34.19-1.17,1-1.7,1.56-2.21,2.08a36.8,36.8,0,0,1-2.9,2.69c-7.75,6.58-8.29,13.24-7.36,17.67,1.24,5.93,5.55,10.56,9,11.61,5.46,1.63,8.52,1.11,17.57-.44l5.36-.91c12.84-2.09,22.09,1.73,28.32,11.71,4.78,7.65,2.25,16.24-.19,24.54A81,81,0,0,0,181,364l-0.44,3.08c-0.67,4.42-1.15,7.61-.09,12.18,0.52,3.15,4.43,16.64,11.23,26.3l-9.47,6.67"/><path class="b" d="M174.36,615.63V601.52H186c2.81,0,3.6.36,4.68,1a7.58,7.58,0,0,1,3.31,6.12c0,3.89-3,7.13-8.35,7.06Zm222,30.31c0.51,3.45,1.51,5.4,3.6,7.34,2.23,2.16,6.41,4.18,13.46,4.18,7.92,0,13-3,15.48-6.12,1.66-2.23,2.59-4.25,2.59-9.72l-0.07-34.34H422.1l-0.36,4.46c-0.72-1.15-2.66-5.76-10.8-5.76-8.85,0-16.63,7.06-16.63,18.36s7.78,18.43,16.49,18.43c5.83,0,9.5-2.66,10.95-5.47l-0.07,4c0,6.19-2.81,8.78-8.5,8.78-4.25,0-6.26-2.16-6.62-4.46Zm16.77-11.67c-4.82,0-8.85-3.46-8.85-10.22,0-5.91,4.1-9.65,8.64-9.65s8.57,3.74,8.57,9.93S417.35,634.28,413.18,634.28Zm-58.61,9.65h9.86l0.07-20.52c0-2.88.58-4.25,1.36-5.4a7.41,7.41,0,0,1,6-3.1c3.46,0,5.91,2.23,5.91,6.34l-0.07,22.68h9.86V618.08c0-6.84-5-12.1-12.6-12.1-5.25,0-8.93,2.81-10.22,5.69l-0.36-4.32-9.72-.07Zm-17.49,0h9.86V607.28h-9.79Zm0.07-42.19H347V593h-9.86v8.78Zm-40.46,42.19h9.79l0.07-20.52c0-2.88.58-4.25,1.37-5.4a7.41,7.41,0,0,1,6-3.1c3.46,0,5.9,2.23,5.9,6.34l-0.07,22.68h9.86V618.08c0-6.84-5-12.1-12.6-12.1-5.25,0-8.93,2.81-10.22,5.69l-0.36-4.32-9.65-.07Zm-42.55,0H264l-0.07-12,4.18-4.1,10.08,16.13h12l-15-22.53,13.1-14.11H276.67l-12.67,14L263.92,593h-9.86Zm-26,1.44c11.81,0,19.8-7.92,19.8-19.87,0-11.74-8.06-19.66-19.44-19.66-11.16,0-19.36,7.92-19.36,19.66C209.14,637.45,217.34,645.36,228.14,645.36Zm0.58-7.7c-5.11,0-9.5-3.67-9.5-12.17,0-8.21,4.46-12,9.43-12,4.75,0,9.15,3.31,9.15,12.24C237.79,634.42,233.11,637.66,228.72,637.66Zm1.37-34.77h9.86V593l-9.86-.07v10Zm-12.89,0h9.87V593l-9.79-.07Zm-53.42,41h10.58l0.07-20.16,9.15,0.07a8.46,8.46,0,0,1,7.77,4.18,13.23,13.23,0,0,1,1.08,3.24c1,4.18-.07,8.71,1.94,12.67H205a15.09,15.09,0,0,1-1.58-5.33l-0.86-9c-0.36-3.67-1.22-5.25-2.59-6.77a10.78,10.78,0,0,0-6.7-3.1,12.09,12.09,0,0,0,11.09-12.53c0-8-6.41-14.83-17.14-14.26h-23.4Z"/><path class="b" d="M140.8,731h9.87V700.91h7.13v-6.55h-7.13v-0.72c0-3.31.58-4.25,1.22-4.9,0.79-.86,1.87-1.51,4.32-1.44h1.58V680h-5.61c-3.31,0-12.31.58-11.38,14.33h-5.33v6.55h5.33V731Zm286,0h9.86l0.07-20.52c0-2.88.58-4.25,1.37-5.4a7.4,7.4,0,0,1,6-3.1c3.38,0,5.83,2.23,5.83,6.34V731h9.86V705.16c0-6.84-5-12.1-12.6-12.1-5.26,0-9,2.81-10.22,5.69l-0.43-4.32-9.65-.07Zm-34.13-15.62,27.22,0.07c0-10.87-5-22.39-18.58-22.39-14,0-18.43,11.16-18.43,19.51,0,12.17,8.06,19.73,18.29,19.73s16.56-5.54,18-11.95l-9.86-.65c-1.87,3.38-4.46,4.75-7.63,4.75C397,724.45,393.15,721.29,392.65,715.38Zm0.43-7.13a8.37,8.37,0,0,1,8-7.49c4,0,7.49,2.73,8.13,7.49H393.08Zm-27.29,19,0.36,3.74h9.79V680H366v18.51c-1.8-2.88-5.91-5.33-10.58-5.33-8.21,0-16.27,6.84-16.27,19.66a21.42,21.42,0,0,0,4.75,14,13.89,13.89,0,0,0,11.16,5.33A13.29,13.29,0,0,0,365.79,727.26ZM358,723.73c-4.68,0-8.71-3.31-8.71-11.09,0-8.71,4.25-11.81,8.28-11.81s8.28,3.1,8.28,11.52C365.87,720.42,361.62,723.66,358,723.73Zm-35.57,3.17L323,731h9.29V694.43l-9.79-.07v20.52c0,5.61-3.31,8.49-7.27,8.49-3.67,0-6-1.94-6-7.13V694.36h-9.86v25.2c0,4.83,1.37,7.42,3.6,9.5a13.23,13.23,0,0,0,9.14,3.17A11.9,11.9,0,0,0,322.45,726.9ZM275.8,735v8l6.84-.07c6.26,0,9.29-3,9.29-9.65l-0.07-38.88h-9.8L282,729c0,5.18-1.51,6-3.89,6h-2.3ZM282,688.82h9.94L291.86,680H282v8.78ZM234.54,731h9.72l0.5-3.74a12.85,12.85,0,0,0,10.58,4.9c8.06,0,16.06-6.62,16.06-19.58,0-12.6-8.06-19.44-16-19.44-5.33,0-9.07,2.3-10.95,5.47V680h-9.93v51Zm18.36-7.34c-4.11,0-8.35-3.24-8.35-11.45s4.25-11.45,8.28-11.45c4.39,0,8.5,3.1,8.5,11.59C261.33,720.42,257.15,723.66,252.91,723.66Zm-45,7.34h9.87l0.07-16.27c0-5.48,1.3-8,3-9.72a8.62,8.62,0,0,1,6.7-2.88,13.16,13.16,0,0,1,1.66.14l0.07-8.71a14.16,14.16,0,0,0-2.16-.22,9.52,9.52,0,0,0-9.14,6.55l-0.29-5.54H208Zm-26.71,1.44c11.81,0,19.8-7.92,19.8-19.87,0-11.74-8.06-19.66-19.51-19.66-11.09,0-19.29,7.92-19.29,19.66C162.19,724.53,170.39,732.44,181.19,732.44Zm0.58-7.7c-5.11,0-9.5-3.67-9.5-12.17,0-8.21,4.39-11.95,9.43-11.95,4.75,0,9.15,3.31,9.15,12.24C190.84,721.5,186.16,724.74,181.77,724.74ZM183.14,690H193V680l-9.86-.07v10Zm-12.89,0h9.87V680l-9.87-.07v10Z"/><path class="c" d="M35.39,297.63c0,144.79,117.43,262.21,262.22,262.21S559.75,442.41,559.75,297.63,442.39,35.48,297.61,35.48,35.39,152.84,35.39,297.63Zm425,132.81c67.48-82.53,62.73-204.35-14.27-281.34s-198.85-81.8-281.39-14.32ZM134.66,164.86C67.23,247.41,72,369.27,149,446.25S347.78,528,430.32,460.52Z"/></svg>