<?xml version="1.0" encoding="UTF-8"?>
<svg id="Lager_1" data-name="Lager 1" xmlns="http://www.w3.org/2000/svg" viewBox="0 0 153.09 218.69">
  <defs>
    <style>
      .cls-1 {
        fill: #aa2825;
      }

      .cls-1, .cls-2, .cls-3 {
        fill-rule: evenodd;
      }

      .cls-2 {
        fill: #fff;
      }

      .cls-3 {
        fill: #1d1f22;
      }
    </style>
  </defs>
  <polyline class="cls-2" points="0 218.69 153.09 218.69 153.09 0 0 0 0 218.69"/>
  <polyline class="cls-3" points="65.8 97.88 63.63 94.67 112.65 61.51 109.84 57.35 60.81 90.51 58.65 87.3 110.88 51.97 118.03 62.55 65.8 97.88"/>
  <polyline class="cls-3" points="58.26 102.93 51.08 92.31 53.86 90.43 61.04 101.05 58.26 102.93"/>
  <polyline class="cls-3" points="62.18 100.29 54.99 89.66 57.77 87.78 64.96 98.4 62.18 100.29"/>
  <path class="cls-3" d="M54.89,88.27c-1.57-2.23-2.14-4.65-1.74-7.4.47-3.05,1.06-3.94,2.29-5.25,2.45-2.61,2.98-4.31,1.89-6.06-.72-1.14-1.24-1.73-4.32-1.52l-1.3.1c-2.23.18-3.58.3-5.3-.54-1.68-.81-2.93-2.9-3.03-5.07-.07-1.4.3-4.03,3.48-5.96.27-.17.4-.26.53-.36.17-.13.35-.26.73-.5.47-.3.87-1.03,1.06-1.96.26-1.28.08-2.7-.44-3.45l2.12-1.47c.94,1.35,1.26,3.43.85,5.44-.34,1.66-1.13,2.95-2.23,3.63-.29.18-.43.29-.56.38-.18.13-.35.26-.73.49-1.54.94-2.32,2.19-2.25,3.64.06,1.35.85,2.52,1.58,2.87,1.09.53,1.93.46,3.96.29l1.33-.1c3.57-.25,5.26.43,6.69,2.72,2.57,4.11-.77,7.68-2.19,9.2-.84.89-1.22,1.3-1.62,3.86-.3,2.11.1,3.83,1.3,5.54l-2.11,1.49"/>
  <path class="cls-3" d="M50.83,91.01c-1.78-2.54-2.78-5.97-2.92-6.86-.33-1.42-.16-2.53,0-3.6l.09-.64c.15-1.11.45-2.15.72-3.07.49-1.65.76-2.69.33-3.38-.69-1.11-1.59-1.78-3.71-1.43l-1.18.2c-2.19.38-3.3.57-5.1.03-1.79-.54-3.35-2.41-3.79-4.53-.28-1.37-.34-4.03,2.5-6.44.25-.21.36-.32.47-.43.15-.15.31-.31.65-.61,1.17-1.02,1.9-2.83.94-4.18l2.1-1.5c1.62,2.27,1.04,5.55-1.35,7.63-.26.23-.38.35-.49.46-.16.16-.31.31-.65.6-1.73,1.47-1.85,2.95-1.64,3.94.28,1.32,1.24,2.36,2.01,2.59,1.22.37,1.9.25,3.92-.1l1.2-.2c2.86-.47,4.93.39,6.32,2.61,1.06,1.71.5,3.62-.04,5.48-.26.87-.52,1.77-.64,2.68l-.1.69c-.15.99-.26,1.7-.02,2.72.12.7.99,3.71,2.51,5.87l-2.11,1.49"/>
  <path class="cls-1" d="M18.05,65.43c0,32.31,26.21,58.52,58.52,58.52s58.5-26.21,58.5-58.52S108.88,6.93,76.57,6.93s-58.52,26.19-58.52,58.5ZM112.91,95.07c15.06-18.42,14-45.6-3.18-62.79-17.18-17.18-44.38-18.26-62.8-3.2l65.98,65.98ZM40.21,35.8c-15.05,18.42-13.99,45.62,3.19,62.8,17.18,17.18,44.36,18.23,62.79,3.18L40.21,35.8Z"/>
  <polyline class="cls-1" points="10.06 133.71 143.05 133.71 143.05 208.95 10.06 208.95 10.06 133.71"/>
  <path class="cls-2" d="M44.84,146.19v-3.63h3c.72,0,.93.09,1.2.26.52.33.85.98.85,1.57,0,1-.78,1.83-2.15,1.82l-2.91-.02ZM101.94,153.99c.13.89.39,1.39.93,1.89.57.55,1.65,1.07,3.46,1.07,2.04,0,3.35-.76,3.98-1.57.43-.57.67-1.09.67-2.5l-.02-8.83h-2.41l-.09,1.15c-.19-.3-.68-1.48-2.78-1.48-2.28,0-4.28,1.82-4.28,4.72s2,4.74,4.24,4.74c1.5,0,2.44-.68,2.82-1.41l-.02,1.02c0,1.59-.72,2.26-2.18,2.26-1.09,0-1.61-.56-1.7-1.15l-2.61.09ZM106.26,150.99c-1.24,0-2.28-.89-2.28-2.63,0-1.52,1.05-2.48,2.22-2.48s2.2.96,2.2,2.56-1.07,2.55-2.15,2.55ZM91.18,153.47h2.54l.02-5.28c0-.74.15-1.09.35-1.39.33-.48.93-.8,1.54-.8.89,0,1.52.57,1.52,1.63l-.02,5.83h2.54v-6.65c0-1.76-1.3-3.11-3.24-3.11-1.35,0-2.3.72-2.63,1.46l-.09-1.11-2.5-.02-.02,9.43ZM86.69,153.47h2.54v-9.43h-2.52l-.02,9.43ZM86.7,142.62h2.54v-2.26h-2.54v2.26ZM76.3,153.47h2.52l.02-5.28c0-.74.15-1.09.35-1.39.33-.48.93-.8,1.54-.8.89,0,1.52.57,1.52,1.63l-.02,5.83h2.54v-6.65c0-1.76-1.3-3.11-3.24-3.11-1.35,0-2.3.72-2.63,1.46l-.09-1.11-2.48-.02-.02,9.43ZM65.36,153.47h2.54l-.02-3.09,1.07-1.06,2.59,4.15h3.09l-3.87-5.8,3.37-3.63h-2.98l-3.26,3.59-.02-7.28h-2.54l.02,13.11ZM58.67,153.84c3.04,0,5.09-2.04,5.09-5.11s-2.07-5.05-5-5.05-4.98,2.04-4.98,5.05,2.11,5.11,4.89,5.11ZM58.82,151.86c-1.32,0-2.44-.94-2.44-3.13s1.15-3.07,2.43-3.07,2.35.85,2.35,3.15-1.2,3.05-2.33,3.05ZM59.17,142.92h2.54v-2.55l-2.54-.02v2.57ZM55.86,142.92h2.54v-2.55l-2.52-.02-.02,2.57ZM42.12,153.47h2.72l.02-5.18,2.35.02c.94,0,1.61.41,2,1.07.15.26.2.55.28.83.26,1.07-.02,2.24.5,3.26h2.74c-.17-.3-.35-.83-.41-1.37l-.22-2.32c-.09-.94-.32-1.35-.67-1.74-.41-.43-1.05-.74-1.72-.8,1.69-.19,2.85-1.46,2.85-3.22,0-2.06-1.65-3.81-4.41-3.67h-6.02l-.02,13.11Z"/>
  <path class="cls-2" d="M36.21,176.09h2.54v-7.74h1.83v-1.68h-1.83v-.18c0-.85.15-1.09.32-1.26.2-.22.48-.39,1.11-.37h.41v-1.87h-1.44c-.85,0-3.17.15-2.93,3.68h-1.37v1.68h1.37v7.74ZM109.76,176.09h2.54l.02-5.28c0-.74.15-1.09.35-1.39.33-.48.93-.8,1.54-.8.87,0,1.5.57,1.5,1.63v5.83h2.54v-6.65c0-1.76-1.3-3.11-3.24-3.11-1.35,0-2.31.72-2.63,1.46l-.11-1.11-2.48-.02-.02,9.42ZM100.98,172.07l7,.02c0-2.8-1.28-5.76-4.78-5.76s-4.74,2.87-4.74,5.02c0,3.13,2.07,5.07,4.7,5.07s4.26-1.42,4.63-3.07l-2.54-.17c-.48.87-1.15,1.22-1.96,1.22-1.2,0-2.18-.81-2.31-2.33ZM101.09,170.24c.15-1.15,1.09-1.92,2.05-1.92,1.04,0,1.93.7,2.09,1.92h-4.15ZM94.07,175.13l.09.96h2.52v-13.11h-2.55v4.76c-.46-.74-1.52-1.37-2.72-1.37-2.11,0-4.18,1.76-4.18,5.05,0,1.5.48,2.74,1.22,3.61.78.94,1.76,1.37,2.87,1.37s2.07-.44,2.76-1.28ZM92.07,174.22c-1.2,0-2.24-.85-2.24-2.85,0-2.24,1.09-3.04,2.13-3.04s2.13.8,2.13,2.96-1.09,2.91-2.02,2.93ZM82.93,175.03l.13,1.06h2.39v-9.41l-2.52-.02v5.28c0,1.44-.85,2.18-1.87,2.18-.95,0-1.54-.5-1.54-1.83v-5.63h-2.54v6.48c0,1.24.35,1.91.93,2.44.55.5,1.33.82,2.35.82,1.17,0,2.09-.5,2.67-1.37ZM70.93,177.11v2.05l1.76-.02c1.61,0,2.39-.78,2.39-2.48l-.02-10h-2.52l-.02,8.91c0,1.33-.39,1.54-1,1.54h-.59ZM72.52,165.24h2.56l-.02-2.26h-2.54v2.26ZM60.32,176.09h2.5l.13-.96c.67.83,1.57,1.26,2.72,1.26,2.07,0,4.13-1.7,4.13-5.04s-2.07-5-4.11-5c-1.37,0-2.33.59-2.82,1.41v-4.78h-2.55v13.11ZM65.04,174.2c-1.06,0-2.15-.83-2.15-2.94s1.09-2.94,2.13-2.94c1.13,0,2.18.8,2.18,2.98s-1.07,2.91-2.17,2.91ZM53.47,176.09h2.54l.02-4.18c0-1.41.33-2.06.76-2.5.46-.5,1.02-.74,1.72-.74.15,0,.28.02.43.04l.02-2.24c-.13-.02-.33-.06-.56-.06-1.09,0-2.06.7-2.35,1.68l-.07-1.42h-2.48l-.02,9.42ZM46.6,176.46c3.04,0,5.09-2.04,5.09-5.11s-2.07-5.05-5.02-5.05-4.96,2.04-4.96,5.05,2.11,5.11,4.89,5.11ZM46.75,174.48c-1.32,0-2.44-.94-2.44-3.13s1.13-3.07,2.42-3.07c1.22,0,2.35.85,2.35,3.15s-1.2,3.05-2.33,3.05ZM47.1,165.53h2.54v-2.55l-2.54-.02v2.57ZM43.78,165.53h2.54v-2.55l-2.54-.02v2.57Z"/>
</svg>