<svg xmlns="http://www.w3.org/2000/svg" viewBox="0 0 595.28 850.36"><defs><style>.a{fill:#e5e8eb;}.a,.b,.c{fill-rule:evenodd;}.b{fill:#000100;}.c{fill:#ad1922;}</style></defs><title>P003_C</title><polyline class="a" points="0 850.36 595.28 850.36 595.28 0 0 0 0 850.36"/><path class="b" d="M259,197.12l-1.1,19.26c-7.72-4.54-12.61-10.71-14.56-18.36-5.25-20.6,12.1-45.7,12.28-45.95l3.27-5.58-5.8,2.86L223.84,167c-64.49,36.8-60.84,77.82-59.46,93.26,0.21,2.37.45,5.06,0.19,5.79-1.8,0-7.35-6.33-11.86-13.55l-1.95-3.11-1.41,3.39c-0.23.54-21.59,53.1,11,89.29a28.63,28.63,0,0,1-5.65.61c-3.57,0-7.89-.08-9.73-1.75a41.72,41.72,0,0,0,23.17,35l5.27,2.18,0.05,0.38-9.6-1.24,2.53,3.55c0.49,0.68,12.84,17.9,31.52,15.85a22.9,22.9,0,0,1,2.52-.12c14.91,0,37.3,10.93,38.67,18.87l0.51,1.4,2.68-1.19c0.28-.15,28.33-14.48,19.88-37.13l-0.51-1.77-1.14,1.47-8,9.32c-0.46.46-1.3,1.35-2.27,2.37a190.37,190.37,0,0,1,16.95-27.14c6.64-8.66,23.77-40.51,24.66-42.23,7.11-24.45.21-52.67-.05-53.68C286.39,231.12,260,198.52,259,197.12Zm-80.32,85.52c-0.1.33-11,33,20,70a25.48,25.48,0,0,0-2.82-.17,17.13,17.13,0,0,0-5.72.88,10.29,10.29,0,0,1-3.5.59c-7.89,0-16.16-7.88-16.24-8,0.07,0.33,7,34.11,42.92,39.68,0.2,0,20.59.05,26.85,15.76,0.23-6.36,2-23.66,3.71-26.71a15.71,15.71,0,0,0,1.1-2.48c1-2.72,2.37-6.45,15.48-21.29,6.63-7.48,8.19-17.81,4.38-29.05-4.44-13.1-15.34-24.83-24.82-26.7l-1.32-.26,0.42,1.28c2.19,6.77,7.31,25.26,4.78,29.45l-0.08.14c-1-5.75-7.13-29.64-42-30.62l-1.58,0,5.24,7.44C200.18,302.13,182.49,299.27,178.67,282.65Zm279.87-83.2-40.39-2.35L281.27,357.42c-6,7-8.33,16.11-10.21,25-1.39,6.57-2.7,12.77-6.61,18.89-6.29,9.83-26.73,18.44-34.07,20.93-4.9,1.66-8.55,5.46-11.71,9.43-9.78,12.31-8.93,28.74,1.94,37.4a24.83,24.83,0,0,0,15.66,5.27,33.44,33.44,0,0,0,23.09-9.85c2.7-2.71,5.4-5.64,6.38-9.41,2-7.85,9.17-30.09,17.61-38.73,5.08-5.19,10.83-7.86,16.93-10.69,8.76-4.07,17.18-9.15,23.51-16.54L462.17,227.52ZM281.23,389.94c-0.07-.44-0.13-0.88-0.17-1.35,0.3-1.31.59-2.64,0.86-3.9,1.29-6.12,2.52-11.89,5.86-17.24L423.27,208.18h13.2Zm34.5-8.42c-5.41,6.31-12.63,10.58-20.1,14.06a25.32,25.32,0,0,1-4.57,1.85,14.2,14.2,0,0,1-1.52-.08l159.3-186.52L450.54,224Z"/><path class="b" d="M95.74,615.63V601.52H107.4c2.81,0,3.6.36,4.75,1a7.51,7.51,0,0,1,3.24,6.12c0,3.89-3,7.13-8.35,7.06Zm381.45,28.3H487V623.77c0-6,3.24-8.78,7.35-8.78,3.46,0,5.9,2,5.9,6.62l-0.07,22.32h9.86V618.65c0-4.46-1.51-7.49-3.89-9.58a13.82,13.82,0,0,0-8.57-3.1c-5.33,0-9,2.52-10.65,5.91L487,593h-9.86v51Zm-16.27-13.32c-0.58,2.88-1.37,4-2.81,5.11a7.86,7.86,0,0,1-4.83,1.51c-4.39,0-8.5-3.17-8.5-11.37,0-9,4.39-12.31,8.86-12.31a7.19,7.19,0,0,1,7.05,6.26l9.51-.5c-0.87-7.63-6.77-13.54-16.78-13.54-7.2,0-12.24,2.81-15.62,7.7a21.08,21.08,0,0,0-3.45,12.24c0,7.42,3,13,7.56,16.41a18.57,18.57,0,0,0,11.37,3.38,18.32,18.32,0,0,0,7.35-1.22c5.54-2,8.93-6.19,9.65-13.25Zm-52,14.69c11.09,0,19.22-7.85,19.22-19.8,0-11.59-8-19.58-19.36-19.58-11.09,0-19.15,7.92-19.15,19.51C389.63,637.52,397.77,645.29,408.93,645.29Zm-0.07-7.7c-4.68,0-9.22-3.6-9.22-11.74,0-8.78,4.39-12.24,9.22-12.24s9.29,3.53,9.29,11.88C418.14,634.06,413.68,637.59,408.86,637.59Zm-91,8.35a10.73,10.73,0,0,0,3.6,7.34c2.16,2.16,6.33,4.18,13.39,4.18,8,0,13-3,15.48-6.12,1.73-2.23,2.59-4.25,2.59-9.72V607.28h-9.43l-0.36,4.46c-0.65-1.15-2.66-5.76-10.8-5.76-8.86,0-16.56,7.06-16.56,18.36s7.7,18.43,16.49,18.43c5.83,0,9.43-2.66,10.87-5.47v4c0,6.19-2.88,8.78-8.5,8.78-4.32,0-6.33-2.16-6.62-4.46Zm16.7-11.67c-4.83,0-8.78-3.46-8.78-10.22,0-5.91,4-9.65,8.57-9.65s8.64,3.74,8.64,9.93S338.8,634.28,334.55,634.28Zm-58.46,9.65H286L286,623.4c0-2.88.58-4.25,1.37-5.4a7.4,7.4,0,0,1,6-3.1c3.38,0,5.76,2.23,5.76,6.34v22.68H309V618.08c0-6.84-5-12.1-12.6-12.1-5.25,0-8.92,2.81-10.15,5.69l-0.43-4.32-9.65-.07Zm-17.49,0h9.86V607.28H258.6v36.64Zm0-42.19h9.86V593H258.6v8.78Zm-40.46,42.19H228l0.07-20.52c0-2.88.58-4.25,1.37-5.4a7.4,7.4,0,0,1,6-3.1c3.38,0,5.83,2.23,5.83,6.34v22.68h9.87V618.08c0-6.84-5-12.1-12.67-12.1-5.25,0-8.93,2.81-10.15,5.69l-0.44-4.32-9.65-.07Zm-42.62,0h9.86v-12l4.11-4.1,10.08,16.13h12.09l-15.12-22.53,13.18-14.11H198l-12.67,14L185.3,593h-9.79v51Zm-25.92,1.44c11.81,0,19.73-7.92,19.73-19.87,0-11.74-8.06-19.66-19.44-19.66-11.09,0-19.29,7.92-19.29,19.66C130.59,637.45,138.79,645.36,149.59,645.36Zm0.58-7.7c-5.11,0-9.5-3.67-9.5-12.17,0-8.21,4.39-12,9.43-12,4.75,0,9.15,3.31,9.15,12.24C159.24,634.42,154.56,637.66,150.17,637.66Zm1.37-34.77h9.86L161.33,593l-9.79-.07v10Zm-12.89,0h9.87V593l-9.87-.07v10Zm-53.42,41H95.74l0.07-20.16,9.22,0.07A8.46,8.46,0,0,1,112.8,628a10.66,10.66,0,0,1,1,3.24c1.08,4.18-.07,8.71,1.94,12.67h10.73a13.71,13.71,0,0,1-1.66-5.33l-0.86-9c-0.29-3.67-1.15-5.25-2.52-6.77a11.17,11.17,0,0,0-6.77-3.1c6.62-.72,11.09-5.69,11.09-12.53,0-8-6.33-14.83-17.14-14.26H85.3Z"/><path class="b" d="M134,690h9.93L143.83,680,134,680ZM459.1,727.26l0.43,3.74h9.72V680h-9.87v18.51c-1.8-2.88-5.9-5.33-10.58-5.33-8.21,0-16.34,6.84-16.34,19.66a21.4,21.4,0,0,0,4.75,14,13.92,13.92,0,0,0,11.23,5.33A13.14,13.14,0,0,0,459.1,727.26Zm-7.77-3.53c-4.68,0-8.71-3.31-8.71-11.09,0-8.71,4.25-11.81,8.35-11.81s8.28,3.1,8.28,11.52C459.25,720.42,455,723.66,451.33,723.73ZM415.69,731h9.94V680h-9.79Zm-34.13-15.62,27.22,0.07c0-10.87-4.9-22.39-18.58-22.39-14,0-18.36,11.16-18.36,19.51,0,12.17,8.06,19.73,18.29,19.73s16.49-5.54,18-11.95l-9.93-.65c-1.87,3.38-4.39,4.75-7.63,4.75C385.88,724.45,382.07,721.29,381.56,715.38Zm0.43-7.13a8.37,8.37,0,0,1,8-7.49c4,0,7.49,2.73,8.21,7.49H382ZM302.22,731h9.93V710.49c0-2.88.58-4.25,1.37-5.4a7.53,7.53,0,0,1,6-3.1c3.38,0,5.83,2.23,5.83,6.34L325.33,731h9.87V705.16c0-6.84-5-12.1-12.6-12.1-5.26,0-8.93,2.81-10.23,5.69L312,694.43l-9.65-.07Zm-34.06-15.62,27.22,0.07c0-10.87-4.9-22.39-18.58-22.39-14,0-18.36,11.16-18.36,19.51,0,12.17,8.06,19.73,18.29,19.73s16.49-5.54,18-11.95l-9.94-.65c-1.87,3.38-4.39,4.75-7.63,4.75C272.49,724.45,268.67,721.29,268.17,715.38Zm0.43-7.13a8.37,8.37,0,0,1,8-7.49c4,0,7.49,2.73,8.21,7.49H268.6Zm-43.27,18.51c2.09,3.38,5.76,5.47,10.73,5.47,10,0,16.2-9.29,16.2-19.73,0-10-6.05-19.3-16.06-19.3a13.37,13.37,0,0,0-10.66,5l-0.43-3.74-9.72.07L215.46,743h9.87v-16.2Zm8.85-2.09c-4.75,0-8.78-3.17-8.78-11.09,0-8.85,4.32-11.95,8.35-11.95s8.5,3.31,8.5,11.45C242.25,718.48,239.94,724.6,234.18,724.67Zm-52.63,2.09c2.09,3.38,5.76,5.47,10.73,5.47,10,0,16.2-9.29,16.2-19.73,0-10-6-19.3-16.06-19.3a13.36,13.36,0,0,0-10.65,5l-0.43-3.74-9.72.07L171.69,743h9.86v-16.2Zm8.86-2.09c-4.75,0-8.78-3.17-8.78-11.09,0-8.85,4.32-11.95,8.35-11.95s8.49,3.31,8.49,11.45C198.47,718.48,196.17,724.6,190.41,724.67ZM145,732.44c11.81,0,19.73-7.92,19.73-19.87,0-11.74-8.06-19.66-19.44-19.66-11.16,0-19.37,7.92-19.37,19.66C125.9,724.53,134.1,732.44,145,732.44Zm0.51-7.7c-5.11,0-9.5-3.67-9.5-12.17,0-8.21,4.46-11.95,9.5-11.95,4.75,0,9.14,3.31,9.14,12.24C154.62,721.5,149.95,724.74,145.48,724.74ZM146.85,690h9.86V680l-9.86-.07v10Z"/><path class="b" d="M140.8,818.13h9.86V788h7.13v-6.55h-7.13v-0.72c0-3.31.58-4.25,1.22-4.9,0.79-.86,1.87-1.51,4.32-1.44h1.58v-7.27h-5.61c-3.31,0-12.31.58-11.38,14.33h-5.33V788h5.33v30.1Zm286,0h9.87l0.07-20.52c0-2.88.58-4.25,1.37-5.4a7.4,7.4,0,0,1,6-3.1c3.38,0,5.83,2.23,5.83,6.34v22.68h9.86V792.29c0-6.84-5-12.1-12.6-12.1-5.26,0-9,2.81-10.22,5.69l-0.44-4.32-9.65-.07Zm-34.13-15.62,27.22,0.07c0-10.87-5-22.39-18.58-22.39-14,0-18.43,11.16-18.43,19.51,0,12.17,8.06,19.73,18.29,19.73s16.56-5.54,18-11.95l-9.86-.65c-1.87,3.38-4.46,4.75-7.63,4.75C397,811.58,393.15,808.41,392.65,802.51Zm0.43-7.13a8.38,8.38,0,0,1,8-7.49c4,0,7.49,2.74,8.13,7.49H393.08Zm-27.29,19,0.36,3.74h9.79v-51H366v18.5c-1.8-2.88-5.91-5.33-10.58-5.33-8.21,0-16.27,6.84-16.27,19.66a21.43,21.43,0,0,0,4.75,14,13.89,13.89,0,0,0,11.16,5.33A13.3,13.3,0,0,0,365.79,814.39ZM358,810.86c-4.68,0-8.71-3.31-8.71-11.09,0-8.71,4.25-11.81,8.28-11.81s8.28,3.1,8.28,11.52C365.87,807.55,361.62,810.79,358,810.86ZM322.45,814l0.5,4.1h9.29V781.56l-9.79-.07V802c0,5.62-3.31,8.49-7.28,8.49-3.67,0-6-1.94-6-7.13V781.49h-9.86v25.2c0,4.83,1.37,7.42,3.6,9.5a13.23,13.23,0,0,0,9.14,3.17A11.9,11.9,0,0,0,322.45,814Zm-46.66,8.06v8l6.84-.07c6.26,0,9.29-3,9.29-9.65l-0.07-38.88h-9.79L282,816.12c0,5.18-1.51,6-3.89,6H275.8ZM282,775.94h9.93l-0.07-8.78H282v8.78Zm-47.45,42.19h9.72l0.51-3.74a12.86,12.86,0,0,0,10.58,4.9c8.06,0,16.06-6.62,16.06-19.58,0-12.6-8.06-19.44-16-19.44-5.33,0-9.07,2.3-10.94,5.47V767.16h-9.93v51Zm18.36-7.35c-4.1,0-8.35-3.24-8.35-11.45s4.25-11.45,8.28-11.45c4.39,0,8.5,3.1,8.5,11.59C261.33,807.55,257.15,810.79,252.9,810.79Zm-45,7.35h9.87l0.07-16.27c0-5.47,1.29-8,3-9.72a8.62,8.62,0,0,1,6.7-2.88,13.23,13.23,0,0,1,1.66.14l0.07-8.71a14.22,14.22,0,0,0-2.16-.22,9.52,9.52,0,0,0-9.14,6.55l-0.29-5.54H208Zm-26.71,1.44c11.81,0,19.8-7.92,19.8-19.87C201,788,192.93,780,181.48,780c-11.09,0-19.3,7.92-19.3,19.66C162.18,811.66,170.39,819.57,181.19,819.57Zm0.58-7.7c-5.11,0-9.5-3.67-9.5-12.17,0-8.21,4.39-12,9.43-12,4.75,0,9.15,3.31,9.15,12.24C190.84,808.63,186.16,811.87,181.77,811.87Zm1.37-34.77H193v-9.93l-9.86-.07v10Zm-12.89,0h9.86v-9.93l-9.86-.07v10Z"/><path class="c" d="M35.39,297.63c0,144.79,117.43,262.21,262.21,262.21S559.75,442.41,559.75,297.63,442.39,35.48,297.6,35.48,35.39,152.84,35.39,297.63Zm425,132.81c67.48-82.53,62.73-204.35-14.27-281.34s-198.85-81.8-281.39-14.32ZM134.66,164.86C67.22,247.41,72,369.27,149,446.25S347.78,528,430.32,460.52Z"/></svg>