<?xml version="1.0" encoding="UTF-8"?>
<svg id="Lager_1" data-name="Lager 1" xmlns="http://www.w3.org/2000/svg" viewBox="0 0 153.09 218.69">
  <defs>
    <style>
      .cls-1 {
        fill: #aa2825;
      }

      .cls-1, .cls-2, .cls-3 {
        fill-rule: evenodd;
      }

      .cls-2 {
        fill: #fff;
      }

      .cls-3 {
        fill: #1d1f22;
      }
    </style>
  </defs>
  <polyline class="cls-2" points="0 218.69 153.09 218.69 153.09 0 0 0 0 218.69"/>
  <path class="cls-3" d="M67.94,43l-.25,4.3c-1.72-1.01-2.81-2.39-3.25-4.1-1.17-4.6,2.7-10.2,2.74-10.25l.73-1.25-1.29.64-6.52,3.93c-14.39,8.21-13.58,17.37-13.27,20.81.05.53.1,1.13.04,1.29-.4,0-1.64-1.41-2.65-3.02l-.43-.69-.32.76c-.05.12-4.82,11.85,2.45,19.93-.35.07-.79.14-1.26.14-.8,0-1.76-.02-2.17-.39.01.2.07,5.19,5.17,7.82l1.18.49v.08s-2.13-.28-2.13-.28l.56.79c.11.15,2.86,4,7.03,3.54.18-.02.37-.03.56-.03,3.33,0,8.33,2.44,8.63,4.21l.11.31.6-.27c.06-.03,6.32-3.23,4.44-8.29l-.11-.39-.26.33-1.78,2.08c-.1.1-.29.3-.51.53,1.2-2.36,2.75-4.71,3.78-6.06,1.48-1.93,5.31-9.04,5.5-9.42,1.59-5.46.05-11.75-.01-11.98-1.21-7.97-7.1-15.24-7.33-15.55ZM50.04,62.08c-.02.07-2.45,7.37,4.47,15.63-.18-.02-.4-.04-.63-.04-.48,0-.91.07-1.28.2-.24.09-.51.13-.78.13-1.76,0-3.61-1.76-3.62-1.78.02.07,1.56,7.61,9.58,8.86.05,0,4.6.01,5.99,3.52.05-1.42.44-5.28.83-5.96.12-.21.18-.37.24-.55.22-.61.53-1.44,3.45-4.75,1.48-1.67,1.83-3.97.98-6.48-.99-2.93-3.42-5.54-5.54-5.96l-.3-.06.09.29c.49,1.51,1.63,5.64,1.07,6.57,0,.01-.01.02-.02.03-.22-1.28-1.59-6.61-9.37-6.83h-.35s1.17,1.65,1.17,1.65c-1.19-.11-5.13-.74-5.99-4.45ZM112.49,43.53l-9.01-.53-30.55,35.78c-1.34,1.57-1.86,3.6-2.28,5.58-.31,1.46-.6,2.85-1.48,4.21-1.4,2.2-5.96,4.12-7.6,4.67-1.09.37-1.91,1.22-2.61,2.1-2.18,2.75-1.99,6.42.43,8.35.97.77,2.18,1.17,3.5,1.17,1.85,0,3.78-.82,5.15-2.2.6-.6,1.21-1.26,1.42-2.1.45-1.75,2.05-6.71,3.93-8.64,1.13-1.16,2.42-1.75,3.78-2.39,1.95-.91,3.83-2.04,5.25-3.69l30.88-36.06-.81-6.26ZM72.92,86.04c-.01-.1-.03-.2-.04-.3.07-.29.13-.59.19-.87.29-1.36.56-2.65,1.31-3.85l30.24-35.54h2.95l-34.64,40.56ZM80.6,84.14c-1.21,1.41-2.82,2.36-4.49,3.14-.33.16-.89.41-1.02.41s-.24,0-.34-.02l35.55-41.62.38,2.95-30.09,35.14Z"/>
  <path class="cls-1" d="M18.05,65.43c0,32.31,26.21,58.52,58.52,58.52s58.5-26.21,58.5-58.52S108.88,6.93,76.57,6.93s-58.52,26.19-58.52,58.5ZM112.91,95.07c15.06-18.42,14-45.6-3.18-62.79-17.18-17.18-44.38-18.26-62.8-3.2l65.98,65.98ZM40.21,35.8c-15.05,18.42-13.98,45.62,3.19,62.8,17.18,17.18,44.37,18.23,62.79,3.18L40.21,35.8Z"/>
  <polyline class="cls-1" points="10.06 133.71 143.05 133.71 143.05 208.95 10.06 208.95 10.06 133.71"/>
  <path class="cls-2" d="M24.62,146.19v-3.63h3c.72,0,.92.09,1.22.26.52.33.83.98.83,1.57,0,1-.78,1.83-2.15,1.82l-2.91-.02ZM122.72,153.47h2.54v-5.18c0-1.54.83-2.26,1.89-2.26.89,0,1.52.52,1.52,1.7l-.02,5.74h2.54v-6.5c0-1.15-.39-1.93-1-2.46-.54-.46-1.39-.8-2.2-.8-1.37,0-2.31.65-2.74,1.52l.02-4.87h-2.54v13.11ZM118.53,150.05c-.15.74-.35,1.04-.72,1.31-.33.24-.72.39-1.24.39-1.13,0-2.18-.82-2.18-2.93,0-2.31,1.13-3.17,2.28-3.17.91,0,1.67.67,1.81,1.61l2.45-.13c-.22-1.96-1.74-3.48-4.32-3.48-1.85,0-3.15.72-4.02,1.98-.55.81-.89,1.83-.89,3.15,0,1.91.76,3.35,1.94,4.22.74.54,1.67.87,2.92.87.91,0,1.43-.13,1.89-.31,1.43-.52,2.3-1.59,2.48-3.41l-2.41-.11ZM105.16,153.82c2.85,0,4.94-2.02,4.94-5.09s-2.06-5.04-4.98-5.04-4.93,2.04-4.93,5.02,2.09,5.11,4.96,5.11ZM105.15,151.84c-1.2,0-2.37-.93-2.37-3.02,0-2.26,1.13-3.15,2.37-3.15s2.39.91,2.39,3.05-1.15,3.11-2.39,3.11ZM81.74,153.99c.11.89.39,1.39.93,1.89.55.55,1.63,1.07,3.44,1.07,2.05,0,3.35-.76,3.98-1.57.44-.57.67-1.09.67-2.5v-8.83h-2.43l-.09,1.15c-.17-.3-.68-1.48-2.78-1.48-2.28,0-4.26,1.82-4.26,4.72s1.98,4.74,4.24,4.74c1.5,0,2.43-.68,2.8-1.41v1.02c0,1.59-.74,2.26-2.18,2.26-1.11,0-1.63-.56-1.7-1.15l-2.61.09ZM86.04,150.99c-1.24,0-2.26-.89-2.26-2.63,0-1.52,1.04-2.48,2.2-2.48s2.22.96,2.22,2.56-1.07,2.55-2.17,2.55ZM71,153.47h2.54l.02-5.28c0-.74.15-1.09.35-1.39.33-.48.93-.8,1.54-.8.87,0,1.48.57,1.48,1.63v5.83h2.54v-6.65c0-1.76-1.3-3.11-3.24-3.11-1.35,0-2.3.72-2.61,1.46l-.11-1.11-2.48-.02-.02,9.43ZM66.5,153.47h2.54v-9.43h-2.54v9.43ZM66.5,142.62h2.54v-2.26h-2.54v2.26ZM56.1,153.47h2.54l.02-5.28c0-.74.15-1.09.35-1.39.33-.48.93-.8,1.54-.8.87,0,1.5.57,1.5,1.63v5.83h2.54v-6.65c0-1.76-1.3-3.11-3.26-3.11-1.35,0-2.3.72-2.61,1.46l-.11-1.11-2.48-.02-.02,9.43ZM45.14,153.47h2.54v-3.09l1.06-1.06,2.59,4.15h3.11l-3.89-5.8,3.39-3.63h-3l-3.26,3.59-.02-7.28h-2.52v13.11ZM38.47,153.84c3.04,0,5.07-2.04,5.07-5.11s-2.07-5.05-5-5.05-4.96,2.04-4.96,5.05,2.11,5.11,4.89,5.11ZM38.62,151.86c-1.32,0-2.44-.94-2.44-3.13s1.13-3.07,2.42-3.07c1.22,0,2.35.85,2.35,3.15s-1.2,3.05-2.33,3.05ZM38.97,142.92h2.54l-.02-2.55-2.52-.02v2.57ZM35.66,142.92h2.54v-2.55l-2.54-.02v2.57ZM21.92,153.47h2.7l.02-5.18,2.37.02c.94,0,1.61.41,2,1.07.15.26.2.55.26.83.28,1.07-.02,2.24.5,3.26h2.76c-.18-.3-.37-.83-.43-1.37l-.22-2.32c-.07-.94-.3-1.35-.65-1.74-.43-.43-1.07-.74-1.74-.8,1.7-.19,2.85-1.46,2.85-3.22,0-2.06-1.63-3.81-4.41-3.67h-6l-.02,13.11Z"/>
  <path class="cls-2" d="M34.45,165.53h2.55l-.02-2.55-2.52-.02-.02,2.57ZM118.07,175.13l.11.96h2.5v-13.11h-2.54v4.76c-.46-.74-1.52-1.37-2.72-1.37-2.11,0-4.2,1.76-4.2,5.05,0,1.5.48,2.74,1.22,3.61.78.94,1.76,1.37,2.89,1.37s2.07-.44,2.74-1.28ZM116.07,174.22c-1.2,0-2.24-.85-2.24-2.85,0-2.24,1.09-3.04,2.15-3.04s2.13.8,2.13,2.96-1.09,2.91-2.04,2.93ZM106.9,176.09h2.56v-13.11h-2.52l-.04,13.11ZM98.13,172.07l7,.02c0-2.8-1.26-5.76-4.78-5.76s-4.72,2.87-4.72,5.02c0,3.13,2.07,5.07,4.7,5.07s4.24-1.42,4.63-3.07l-2.55-.17c-.48.87-1.13,1.22-1.96,1.22-1.2,0-2.18-.81-2.31-2.33ZM98.24,170.24c.15-1.15,1.09-1.92,2.06-1.92,1.04,0,1.93.7,2.11,1.92h-4.17ZM77.72,176.09h2.55v-5.28c0-.74.15-1.09.35-1.39.33-.48.94-.8,1.56-.8.87,0,1.5.57,1.5,1.63l-.02,5.83h2.54v-6.65c0-1.76-1.3-3.11-3.24-3.11-1.35,0-2.3.72-2.63,1.46l-.09-1.11-2.48-.02-.04,9.42ZM68.96,172.07l7,.02c0-2.8-1.26-5.76-4.78-5.76s-4.72,2.87-4.72,5.02c0,3.13,2.07,5.07,4.7,5.07s4.24-1.42,4.63-3.07l-2.56-.17c-.48.87-1.13,1.22-1.96,1.22-1.2,0-2.18-.81-2.31-2.33ZM69.08,170.24c.15-1.15,1.09-1.92,2.05-1.92,1.04,0,1.93.7,2.11,1.92h-4.17ZM57.95,175c.54.87,1.48,1.41,2.76,1.41,2.57,0,4.17-2.39,4.17-5.07s-1.56-4.96-4.13-4.96c-1.13,0-2.07.46-2.74,1.28l-.11-.96-2.5.02.02,12.46h2.54v-4.17ZM60.22,174.46c-1.22,0-2.26-.82-2.26-2.85,0-2.28,1.11-3.07,2.15-3.07s2.18.85,2.18,2.94c0,1.39-.59,2.96-2.07,2.98ZM46.69,175c.54.87,1.48,1.41,2.76,1.41,2.57,0,4.17-2.39,4.17-5.07s-1.55-4.96-4.13-4.96c-1.13,0-2.07.46-2.74,1.28l-.11-.96-2.5.02.02,12.46h2.54v-4.17ZM48.97,174.46c-1.22,0-2.26-.82-2.26-2.85,0-2.28,1.11-3.07,2.15-3.07s2.18.85,2.18,2.94c0,1.39-.59,2.96-2.07,2.98ZM37.28,176.46c3.04,0,5.07-2.04,5.07-5.11s-2.07-5.05-5-5.05-4.98,2.04-4.98,5.05,2.11,5.11,4.91,5.11ZM37.41,174.48c-1.32,0-2.44-.94-2.44-3.13s1.15-3.07,2.44-3.07c1.22,0,2.35.85,2.35,3.15s-1.2,3.05-2.35,3.05ZM37.77,165.53h2.54v-2.55l-2.54-.02v2.57Z"/>
  <path class="cls-2" d="M36.21,198.5h2.54v-7.74h1.83v-1.68h-1.83v-.19c0-.85.15-1.09.32-1.26.2-.22.48-.39,1.11-.37h.41v-1.87h-1.44c-.85,0-3.17.15-2.93,3.68h-1.37v1.68h1.37v7.74ZM109.75,198.5h2.54l.02-5.28c0-.74.15-1.09.35-1.39.33-.48.93-.8,1.54-.8.87,0,1.5.57,1.5,1.63v5.83h2.54v-6.65c0-1.76-1.3-3.11-3.24-3.11-1.35,0-2.32.72-2.63,1.46l-.11-1.11-2.48-.02-.02,9.42ZM100.98,194.48l7,.02c0-2.8-1.28-5.76-4.78-5.76s-4.74,2.87-4.74,5.02c0,3.13,2.07,5.07,4.7,5.07s4.26-1.42,4.63-3.07l-2.54-.17c-.48.87-1.15,1.22-1.96,1.22-1.2,0-2.18-.82-2.32-2.33ZM101.09,192.64c.15-1.15,1.09-1.93,2.06-1.93,1.04,0,1.92.7,2.09,1.93h-4.15ZM94.07,197.53l.09.96h2.52v-13.11h-2.55v4.76c-.46-.74-1.52-1.37-2.72-1.37-2.11,0-4.18,1.76-4.18,5.05,0,1.5.48,2.74,1.22,3.61.78.94,1.76,1.37,2.87,1.37s2.07-.45,2.76-1.28ZM92.07,196.63c-1.2,0-2.24-.85-2.24-2.85,0-2.24,1.09-3.04,2.13-3.04s2.13.8,2.13,2.96-1.09,2.91-2.02,2.93ZM82.93,197.44l.13,1.05h2.39v-9.41l-2.52-.02v5.28c0,1.44-.85,2.18-1.87,2.18-.94,0-1.54-.5-1.54-1.83v-5.63h-2.54v6.48c0,1.24.35,1.91.93,2.44.55.5,1.33.82,2.35.82,1.17,0,2.09-.5,2.67-1.37ZM70.93,199.51v2.06l1.76-.02c1.61,0,2.39-.78,2.39-2.48l-.02-10h-2.52l-.02,8.91c0,1.33-.39,1.54-1,1.54h-.59ZM72.52,187.65h2.55l-.02-2.26h-2.54v2.26ZM60.32,198.5h2.5l.13-.96c.67.83,1.57,1.26,2.72,1.26,2.07,0,4.13-1.7,4.13-5.04s-2.07-5-4.11-5c-1.37,0-2.33.59-2.81,1.41v-4.78h-2.55v13.11ZM65.04,196.61c-1.06,0-2.15-.83-2.15-2.94s1.09-2.94,2.13-2.94c1.13,0,2.18.8,2.18,2.98s-1.07,2.91-2.17,2.91ZM53.47,198.5h2.54l.02-4.18c0-1.41.33-2.05.76-2.5.46-.5,1.02-.74,1.72-.74.15,0,.28.02.43.04l.02-2.24c-.13-.02-.33-.06-.56-.06-1.09,0-2.06.7-2.35,1.68l-.07-1.42h-2.48l-.02,9.42ZM46.6,198.87c3.04,0,5.09-2.04,5.09-5.11s-2.07-5.05-5.02-5.05-4.96,2.04-4.96,5.05,2.11,5.11,4.89,5.11ZM46.75,196.88c-1.32,0-2.44-.94-2.44-3.13s1.13-3.07,2.42-3.07c1.22,0,2.35.85,2.35,3.15s-1.2,3.05-2.33,3.05ZM47.1,187.94h2.54v-2.55l-2.54-.02v2.57ZM43.78,187.94h2.54v-2.55l-2.54-.02v2.57Z"/>
</svg>