<svg xmlns="http://www.w3.org/2000/svg" viewBox="0 0 595.28 850.36"><defs><style>.a{fill:#e5e8eb;}.a,.b,.c{fill-rule:evenodd;}.b{fill:#000100;}.c{fill:#ad1922;}</style></defs><title>P004_C</title><polyline class="a" points="0 850.36 595.28 850.36 595.28 0 0 0 0 850.36"/><path class="b" d="M416.11,288.14L388,226.89a14.76,14.76,0,0,0-3.34-4.51l-47.94-45.44a13.42,13.42,0,0,0-10.1-4.3h-61.7a13.46,13.46,0,0,0-9.38,3.67L206,217.43l-60.18,24.9c-16.57,6.86-6.68,32.13,10.16,25.14,20.52-8.5,58.41-24.4,61.57-25.48a13.06,13.06,0,0,0,4.2-2.38l43.18-35.83V291l-50.53,61.56a15.44,15.44,0,0,0-3.29,7.14l-14.74,83.89c-3.57,20.33,26.94,25.74,30.51,5.38l14-79.83,51.48-62.79a16.73,16.73,0,0,0,3.53-9.85c0.26-5.06.08,2.07,0.29,3.09l17,83.5a18,18,0,0,0,3,6.56l47.6,68.8c11.56,16.71,37.73.07,25.77-17.21l-46.65-67.37-16.05-79.12v-90l37.72,35.84,26.94,58.79c7.53,16.42,32.17,5.14,24.64-11.29"/><path class="b" d="M268.73,137.77a27.07,27.07,0,1,0,27-27.11,27.06,27.06,0,0,0-27,27.11"/><path class="b" d="M129.87,643.92h10.51V622.18h22.25v-8.35H140.38V601.44h26.2v-8.5H129.87v51Zm302.61,0h9.86V623.4c0-2.88.58-4.25,1.44-5.4a7.4,7.4,0,0,1,6-3.1c3.38,0,5.83,2.23,5.83,6.34v22.68h9.79V618.07c0-6.84-5-12.1-12.6-12.1-5.25,0-8.93,2.81-10.15,5.69l-0.43-4.32-9.65-.07Zm-34.2-15.62,27.22,0.07c0-10.87-4.9-22.39-18.57-22.39-14,0-18.36,11.16-18.36,19.51,0,12.17,8.06,19.73,18.29,19.73s16.49-5.54,18-11.95l-9.93-.65c-1.87,3.38-4.39,4.75-7.56,4.75C402.66,637.37,398.85,634.2,398.27,628.3Zm0.43-7.13a8.44,8.44,0,0,1,8.06-7.49c4,0,7.42,2.74,8.13,7.49H398.7Zm-27.28,19,0.43,3.74h9.79l-0.07-51h-9.86v18.5c-1.8-2.88-5.91-5.33-10.58-5.33-8.21,0-16.27,6.84-16.27,19.66,0,5.83,1.8,10.65,4.75,14a13.79,13.79,0,0,0,11.16,5.33A13.07,13.07,0,0,0,371.42,640.18Zm-7.78-3.53c-4.61,0-8.71-3.31-8.71-11.09,0-8.71,4.25-11.81,8.35-11.81s8.28,3.1,8.28,11.52C371.56,633.34,367.31,636.58,363.64,636.65Zm-35.57,3.17,0.58,4.1h9.29l-0.07-36.57-9.72-.07v20.52c0,5.62-3.39,8.49-7.35,8.49-3.67,0-5.9-1.94-5.9-7.13V607.28H305v25.2c0,4.83,1.37,7.42,3.6,9.5a13.11,13.11,0,0,0,9.14,3.17A11.69,11.69,0,0,0,328.07,639.82Zm-46.58,8.06v8l6.84-.07c6.19,0,9.29-3,9.29-9.65l-0.07-38.88h-9.86v34.63c0,5.18-1.59,6-4,6h-2.23Zm6.19-46.15h9.86v-8.78h-9.86v8.78Zm-47.45,42.19H250l0.5-3.74a12.82,12.82,0,0,0,10.51,4.9c8.14,0,16.13-6.62,16.13-19.58,0-12.6-8.06-19.44-16.06-19.44-5.26,0-9,2.3-10.94,5.47V592.95h-9.86v51Zm18.36-7.34c-4.1,0-8.35-3.24-8.35-11.45s4.25-11.45,8.28-11.45c4.39,0,8.42,3.1,8.42,11.6C266.95,633.34,262.77,636.58,258.6,636.58Zm-45,7.34h9.86V627.65c0-5.47,1.37-8,3-9.72a8.72,8.72,0,0,1,6.7-2.88,12.16,12.16,0,0,1,1.66.14l0.07-8.71a14.05,14.05,0,0,0-2.09-.22,9.45,9.45,0,0,0-9.14,6.55l-0.29-5.54H213.6v36.64Zm-26.71,1.44c11.81,0,19.73-7.92,19.73-19.87,0-11.74-8.06-19.66-19.44-19.66-11.09,0-19.29,7.92-19.29,19.66C167.88,637.44,176.09,645.36,186.89,645.36Zm0.58-7.7c-5.11,0-9.5-3.67-9.5-12.17,0-8.21,4.39-12,9.43-12,4.75,0,9.15,3.31,9.15,12.24C196.54,634.42,191.86,637.66,187.47,637.66Zm1.37-34.77h9.86l-0.07-9.93-9.79-.07v10Zm-12.89,0h9.86l-0.07-9.93-9.79-.07v10Z"/><path class="b" d="M174.5,721.35c-4.75,0-8.78-3.46-8.78-10.22,0-5.9,4.11-9.65,8.57-9.65s8.64,3.74,8.64,9.93S178.75,721.35,174.5,721.35ZM404.38,733a10.73,10.73,0,0,0,3.6,7.34c2.23,2.16,6.33,4.18,13.46,4.18,7.92,0,13-3,15.48-6.12,1.66-2.23,2.52-4.25,2.52-9.72V694.36H430l-0.29,4.46c-0.72-1.15-2.66-5.76-10.87-5.76-8.86,0-16.56,7.06-16.56,18.36s7.78,18.43,16.49,18.43c5.83,0,9.5-2.66,10.87-5.47v4c0,6.19-2.81,8.78-8.5,8.78-4.25,0-6.26-2.16-6.62-4.46Zm16.7-11.67c-4.75,0-8.78-3.46-8.78-10.22,0-5.9,4.1-9.65,8.57-9.65s8.64,3.74,8.64,9.93S425.34,721.35,421.09,721.35Zm-35.64,5.47a14.78,14.78,0,0,0,1.22,4.18h10c-0.58-.5-1.51-2.16-1.51-5.18L395,707.1c-0.07-3.24-.29-4.18-0.58-5-1.44-5-5.54-9.07-15.48-9.07-11.45,0-15.91,5.83-15.91,12.24l8.64,0.14c0.43-2.45.79-3,1.58-3.67S376.09,700,379,700c4.61,0,6.33,2.45,6.33,4.18s-1.08,3-3.74,3.46l-9.93,1.73c-7.42,1.3-10.87,6.12-10.87,10.95,0,6.33,4.9,11.74,13.75,11.74C380.7,732.08,384,729.63,385.45,726.82Zm0-15.34V717c-0.29,4.61-3.39,7.77-8.71,7.77-4.18,0-6.19-2.45-6.19-4.61,0-1.73.86-4,6.77-5.4l4.25-1.15A8.09,8.09,0,0,0,385.45,711.49ZM379.55,690l9.86,0.07,0.07-10h-9.86Zm-12.82,0h9.8l0.07-10h-9.87v10Zm-29.8,41h9.79l12.53-36.64h-10l-7.35,24.12-7.27-24h-10Zm-52.63,2a10.73,10.73,0,0,0,3.6,7.34c2.23,2.16,6.33,4.18,13.39,4.18,7.92,0,13-3,15.48-6.12,1.65-2.23,2.52-4.25,2.52-9.72V694.36h-9.43l-0.29,4.46c-0.72-1.15-2.66-5.76-10.87-5.76-8.78,0-16.49,7.06-16.49,18.36s7.78,18.43,16.42,18.43c5.83,0,9.5-2.66,10.87-5.47v4c0,6.19-2.81,8.78-8.49,8.78-4.18,0-6.19-2.16-6.55-4.46Zm16.63-11.67c-4.68,0-8.71-3.46-8.71-10.22,0-5.9,4.1-9.65,8.49-9.65,4.61,0,8.64,3.74,8.64,9.93S305.17,721.35,300.93,721.35ZM242.46,731h9.86l0.07-20.52c0-2.88.58-4.25,1.37-5.4a7.4,7.4,0,0,1,6-3.1c3.38,0,5.83,2.23,5.83,6.34V731h9.86V705.15c0-6.84-5-12.1-12.6-12.1-5.25,0-9,2.81-10.22,5.69l-0.43-4.32-9.65-.07Zm-18.29-4.18A14.9,14.9,0,0,0,225.4,731h10c-0.58-.5-1.51-2.16-1.51-5.18l-0.14-18.72c-0.07-3.24-.29-4.18-0.58-5-1.44-5-5.54-9.07-15.48-9.07-11.45,0-15.91,5.83-15.91,12.24l8.64,0.14c0.43-2.45.79-3,1.58-3.67s2.81-1.73,5.76-1.73c4.61,0,6.34,2.45,6.34,4.18s-1.08,3-3.74,3.46l-9.93,1.73c-7.42,1.3-10.87,6.12-10.87,10.95,0,6.33,4.9,11.74,13.75,11.74C219.42,732.08,222.74,729.63,224.18,726.82Zm0-15.34V717c-0.29,4.61-3.38,7.77-8.71,7.77-4.18,0-6.19-2.45-6.19-4.61,0-1.73.87-4,6.77-5.4l4.25-1.15A8.06,8.06,0,0,0,224.18,711.49ZM217,690.11a5.11,5.11,0,1,0-5.33-5.11A5.14,5.14,0,0,0,217,690.11ZM216.9,688a3,3,0,0,1-3.17-3,3.21,3.21,0,0,1,3-3.1,3.06,3.06,0,0,1,3,3.1A3,3,0,0,1,216.9,688ZM157.8,733a10.73,10.73,0,0,0,3.6,7.34c2.23,2.16,6.33,4.18,13.46,4.18,7.92,0,13-3,15.48-6.12,1.66-2.23,2.52-4.25,2.52-9.72V694.36h-9.43l-0.29,4.46c-0.72-1.15-2.66-5.76-10.87-5.76-8.85,0-16.56,7.06-16.56,18.36s7.77,18.43,16.49,18.43c5.83,0,9.5-2.66,10.87-5.47v4c0,6.19-2.81,8.78-8.5,8.78-4.25,0-6.26-2.16-6.63-4.46Z"/><path class="c" d="M35.39,297.62c0,144.79,117.43,262.21,262.21,262.21S559.75,442.41,559.75,297.62,442.39,35.48,297.6,35.48,35.39,152.83,35.39,297.62Zm425,132.81c67.48-82.53,62.72-204.34-14.27-281.34s-198.85-81.8-281.39-14.32ZM134.66,164.86C67.23,247.41,72,369.27,149,446.25S347.78,528,430.31,460.51Z"/></svg>