<?xml version="1.0" encoding="UTF-8"?>
<svg id="Lager_1" data-name="Lager 1" xmlns="http://www.w3.org/2000/svg" viewBox="0 0 153.09 218.69">
  <defs>
    <style>
      .cls-1 {
        fill: #aa2825;
      }

      .cls-1, .cls-2, .cls-3 {
        fill-rule: evenodd;
      }

      .cls-2 {
        fill: #fff;
      }

      .cls-3 {
        fill: #1d1f22;
      }
    </style>
  </defs>
  <polyline class="cls-2" points="0 218.69 153.09 218.69 153.09 0 0 0 0 218.69"/>
  <path class="cls-3" d="M103.03,63.32l-6.27-13.67c-.18-.38-.44-.72-.75-1.01l-10.7-10.14c-.6-.65-1.43-.97-2.25-.96h-13.77c-.76,0-1.52.27-2.09.82l-11.07,9.18-13.43,5.56c-3.7,1.53-1.49,7.17,2.27,5.61,4.58-1.9,13.04-5.45,13.74-5.69.33-.11.65-.29.94-.53l9.64-7.99v19.47l-11.28,13.74c-.38.46-.63,1.01-.73,1.59l-3.29,18.72c-.8,4.54,6.01,5.74,6.81,1.2l3.13-17.82,11.49-14.01c.51-.62.75-1.4.79-2.2.06-1.13.02.46.07.69l3.79,18.63c.11.53.36,1.02.67,1.46l10.62,15.35c2.58,3.73,8.42.02,5.75-3.84l-10.41-15.03-3.58-17.66v-20.08l8.42,8,6.01,13.12c1.68,3.67,7.18,1.15,5.5-2.52"/>
  <path class="cls-3" d="M70.13,29.75c0,3.33,2.71,6.03,6.03,6.03s6.05-2.71,6.05-6.03-2.72-6.05-6.05-6.05-6.03,2.72-6.03,6.05"/>
  <path class="cls-1" d="M18.05,65.43c0,32.31,26.21,58.52,58.52,58.52s58.5-26.21,58.5-58.52S108.88,6.93,76.57,6.93s-58.52,26.19-58.52,58.5ZM112.91,95.07c15.06-18.42,14-45.6-3.18-62.79-17.18-17.18-44.38-18.26-62.8-3.2l65.98,65.98ZM40.21,35.8c-15.05,18.42-13.98,45.62,3.2,62.8,17.18,17.18,44.37,18.23,62.79,3.18L40.21,35.8Z"/>
  <polyline class="cls-1" points="10.06 133.71 143.05 133.71 143.05 208.95 10.06 208.95 10.06 133.71"/>
  <path class="cls-2" d="M33.4,153.68h2.7v-5.59h5.72v-2.15h-5.72v-3.18h6.74v-2.18h-9.44v13.11ZM111.22,153.68h2.54v-5.28c0-.74.15-1.09.37-1.39.33-.48.93-.8,1.54-.8.87,0,1.5.57,1.5,1.63v5.83h2.52v-6.65c0-1.76-1.28-3.11-3.24-3.11-1.35,0-2.3.72-2.61,1.46l-.11-1.11-2.48-.02-.02,9.42ZM102.42,149.66l7,.02c0-2.8-1.26-5.76-4.78-5.76s-4.72,2.87-4.72,5.02c0,3.13,2.07,5.07,4.7,5.07s4.24-1.43,4.63-3.07l-2.55-.17c-.48.87-1.13,1.22-1.94,1.22-1.2,0-2.18-.82-2.33-2.33ZM102.54,147.82c.15-1.15,1.11-1.93,2.07-1.93,1.02,0,1.91.7,2.09,1.93h-4.17ZM95.52,152.71l.11.96h2.52l-.02-13.11h-2.54v4.76c-.46-.74-1.52-1.37-2.72-1.37-2.11,0-4.18,1.76-4.18,5.05,0,1.5.46,2.74,1.22,3.61.78.95,1.74,1.37,2.87,1.37s2.07-.44,2.74-1.28ZM93.52,151.81c-1.18,0-2.24-.85-2.24-2.85,0-2.24,1.09-3.04,2.15-3.04s2.13.8,2.13,2.96-1.09,2.91-2.04,2.93ZM84.37,152.62l.15,1.06h2.39l-.02-9.41-2.5-.02v5.28c0,1.44-.87,2.18-1.89,2.18-.94,0-1.52-.5-1.52-1.83v-5.63h-2.54v6.48c0,1.24.35,1.91.93,2.44.54.5,1.33.81,2.35.81,1.17,0,2.09-.5,2.65-1.37ZM72.39,154.69v2.05l1.76-.02c1.59,0,2.39-.78,2.39-2.48l-.02-10h-2.54v8.91c0,1.33-.41,1.54-1.02,1.54h-.57ZM73.99,142.82h2.54v-2.26h-2.54v2.26ZM61.78,153.68h2.5l.13-.96c.67.83,1.57,1.26,2.7,1.26,2.09,0,4.15-1.7,4.15-5.04s-2.07-5-4.13-5c-1.35,0-2.31.59-2.81,1.41v-4.78h-2.54v13.11ZM66.5,151.79c-1.05,0-2.15-.83-2.15-2.94s1.09-2.94,2.13-2.94c1.13,0,2.17.8,2.17,2.98s-1.07,2.91-2.15,2.91ZM54.93,153.68h2.54v-4.18c0-1.41.35-2.05.76-2.5.48-.5,1.02-.74,1.72-.74.15,0,.3.02.43.04l.02-2.24c-.13-.02-.33-.05-.54-.05-1.11,0-2.05.7-2.35,1.68l-.07-1.43h-2.5v9.42ZM48.06,154.05c3.04,0,5.07-2.04,5.07-5.11s-2.07-5.05-5-5.05-4.96,2.04-4.96,5.05,2.11,5.11,4.89,5.11ZM48.21,152.06c-1.32,0-2.44-.95-2.44-3.13s1.13-3.07,2.42-3.07c1.22,0,2.35.85,2.35,3.15s-1.2,3.05-2.33,3.05ZM48.56,143.12h2.54l-.02-2.56-2.52-.02v2.57ZM45.25,143.12h2.54l-.02-2.56-2.52-.02v2.57Z"/>
  <path class="cls-2" d="M44.88,173.42c-1.22,0-2.26-.89-2.26-2.63,0-1.52,1.06-2.48,2.2-2.48s2.22.96,2.22,2.55-1.07,2.55-2.17,2.55ZM104,176.42c.11.89.39,1.39.93,1.89.57.56,1.63,1.07,3.46,1.07,2.04,0,3.33-.76,3.98-1.57.43-.57.65-1.09.65-2.5v-8.83h-2.43l-.07,1.15c-.18-.3-.68-1.48-2.8-1.48-2.28,0-4.26,1.82-4.26,4.72s2,4.74,4.24,4.74c1.5,0,2.44-.68,2.8-1.41v1.02c0,1.59-.72,2.26-2.18,2.26-1.09,0-1.61-.56-1.7-1.15l-2.61.09ZM108.29,173.42c-1.22,0-2.26-.89-2.26-2.63,0-1.52,1.05-2.48,2.2-2.48s2.22.96,2.22,2.55-1.07,2.55-2.17,2.55ZM99.13,174.83c.06.37.17.78.31,1.07h2.57c-.15-.13-.39-.56-.39-1.33l-.04-4.81c-.02-.83-.07-1.07-.15-1.28-.37-1.3-1.43-2.33-3.98-2.33-2.94,0-4.09,1.5-4.09,3.15l2.22.04c.11-.63.2-.76.41-.94.24-.22.72-.45,1.48-.45,1.18,0,1.63.63,1.63,1.07s-.28.76-.96.89l-2.55.44c-1.91.33-2.8,1.57-2.8,2.82,0,1.63,1.26,3.02,3.54,3.02,1.57,0,2.42-.63,2.8-1.35ZM99.13,170.89v1.41c-.07,1.18-.87,2-2.24,2-1.07,0-1.59-.63-1.59-1.18,0-.44.22-1.02,1.74-1.39l1.09-.3c.41-.09.76-.3,1-.54ZM97.61,165.35l2.54.02.02-2.57h-2.54l-.02,2.55ZM94.31,165.35h2.52l.02-2.57h-2.54v2.57ZM86.65,175.9h2.52l3.22-9.42h-2.57l-1.89,6.2-1.87-6.18h-2.57l3.17,9.41ZM73.11,176.42c.11.89.39,1.39.93,1.89.57.56,1.63,1.07,3.44,1.07,2.04,0,3.33-.76,3.98-1.57.43-.57.65-1.09.65-2.5v-8.83h-2.43l-.07,1.15c-.18-.3-.68-1.48-2.8-1.48-2.26,0-4.24,1.82-4.24,4.72s2,4.74,4.22,4.74c1.5,0,2.44-.68,2.79-1.41v1.02c0,1.59-.72,2.26-2.18,2.26-1.07,0-1.59-.56-1.68-1.15l-2.61.09ZM77.39,173.42c-1.2,0-2.24-.89-2.24-2.63,0-1.52,1.05-2.48,2.18-2.48,1.18,0,2.22.96,2.22,2.55s-1.07,2.55-2.17,2.55ZM62.36,175.9h2.54l.02-5.28c0-.74.15-1.09.35-1.39.33-.48.93-.8,1.54-.8.87,0,1.5.57,1.5,1.63v5.83h2.54v-6.65c0-1.76-1.3-3.11-3.24-3.11-1.35,0-2.31.72-2.63,1.46l-.11-1.11-2.48-.02-.02,9.42ZM57.65,174.83c.06.37.17.78.32,1.07h2.57c-.15-.13-.39-.56-.39-1.33l-.04-4.81c-.02-.83-.07-1.07-.15-1.28-.37-1.3-1.43-2.33-3.98-2.33-2.94,0-4.09,1.5-4.09,3.15l2.22.04c.11-.63.2-.76.41-.94.24-.22.72-.45,1.48-.45,1.18,0,1.63.63,1.63,1.07s-.28.76-.96.89l-2.55.44c-1.91.33-2.8,1.57-2.8,2.82,0,1.63,1.26,3.02,3.54,3.02,1.57,0,2.43-.63,2.8-1.35ZM57.65,170.89v1.41c-.07,1.18-.87,2-2.24,2-1.07,0-1.59-.63-1.59-1.18,0-.44.22-1.02,1.74-1.39l1.09-.3c.41-.09.76-.3,1-.54ZM55.8,165.39c.65,0,1.26-.59,1.26-1.32s-.59-1.31-1.32-1.31-1.32.61-1.32,1.31c0,.74.57,1.32,1.37,1.32ZM55.78,164.85c-.48,0-.82-.35-.82-.78s.37-.78.78-.8c.41,0,.78.33.78.8s-.37.78-.74.78ZM40.58,176.42c.11.89.39,1.39.93,1.89.57.56,1.63,1.07,3.46,1.07,2.04,0,3.33-.76,3.98-1.57.43-.57.65-1.09.65-2.5v-8.83h-2.43l-.07,1.15c-.18-.3-.68-1.48-2.8-1.48-2.28,0-4.26,1.82-4.26,4.72s2,4.74,4.24,4.74c1.5,0,2.44-.68,2.8-1.41v1.02c0,1.59-.72,2.26-2.18,2.26-1.09,0-1.61-.56-1.7-1.15l-2.61.09Z"/>
</svg>