<?xml version="1.0" encoding="UTF-8"?>
<svg id="Lager_1" data-name="Lager 1" xmlns="http://www.w3.org/2000/svg" viewBox="0 0 153.09 218.69">
  <defs>
    <style>
      .cls-1 {
        fill: #aa2825;
      }

      .cls-1, .cls-2, .cls-3 {
        fill-rule: evenodd;
      }

      .cls-2 {
        fill: #fff;
      }

      .cls-3 {
        fill: #1d1f22;
      }
    </style>
  </defs>
  <polyline class="cls-2" points="0 218.69 153.09 218.69 153.09 0 0 0 0 218.69"/>
  <path class="cls-3" d="M92.14,38.71v-3.27h1.35c.57.33,1.21.51,1.89.51,1.17,0,2.29-.56,2.99-1.49,1.25-1.65.92-4.01-.73-5.26-1.18-.9-2.85-.93-4.12-.24h-1.71s-8.03,0-8.03,0c-1.58-.89-3.76-.49-4.87.97-1.24,1.65-.92,4,.73,5.25.66.5,1.44.76,2.26.76.67,0,1.33-.19,1.9-.52h1.1v3.27h-10.78c-8.61.1-9.91,1.87-9.91,1.87-3.35,2.79-9.17,8.93-7.01,20h9.69s-2.16-10.73,5.72-12.07h5.75s9.6,7.72,19.79,0h11.48v-9.8h-17.5"/>
  <path class="cls-3" d="M55.53,92.97l-4.64-16.48c1.33.14,2.17.42,2.7.7.28.15.56.34.87.55,1.35.91,3.39,2.28,6.91,2.39.09,0,.18,0,.27,0,2.5,0,4.26-1.06,5.82-1.99,1.98-1.19,3.41-2.05,6.38-1.04.91.31,2.56.83,4.3,1.2l-4.13,14.69h-18.49ZM82.58,62.54l-1.87,6.65c-1.33-.08-3.29-.42-5.37-1.33-5.23-2.3-8.61-.08-11.08,1.54-1.11.73-2.07,1.36-2.84,1.36h-.02c-1.17-.01-1.42-.2-2.18-.74-.8-.58-1.89-1.37-4.07-2.02-2.13-.63-4.58-.98-6.92-1.02l-1.25-4.44-7.19,2.02,10.09,35.88h29.8l10.09-35.88-7.18-2.02ZM53.97,71.96c1.5.45,2.15.91,2.83,1.4.97.7,2.07,1.49,4.55,1.52h.07c2.01,0,3.58-1.03,5.11-2.04,2.22-1.46,3.97-2.61,7.16-1.22,2.1.92,4.17,1.41,5.9,1.6l-.3,1.05c-1.14-.23-2.54-.59-4.11-1.12-4.78-1.6-7.58.07-9.82,1.42-1.35.81-2.39,1.5-3.84,1.41-2.33-.07-3.55-.89-4.73-1.68-.44-.3-.85-.57-1.26-.78-1.47-.77-3.39-1.18-5.8-1.25l-.31-1.11c1.77.13,3.4.45,4.57.8Z"/>
  <path class="cls-1" d="M18.05,65.43c0,32.31,26.21,58.52,58.52,58.52s58.5-26.21,58.5-58.52S108.88,6.93,76.57,6.93s-58.52,26.19-58.52,58.5ZM112.89,95.07c15.06-18.42,14-45.6-3.18-62.79-17.18-17.18-44.38-18.26-62.8-3.2l65.98,65.98ZM40.2,35.8c-15.05,18.42-13.98,45.62,3.19,62.8,17.18,17.18,44.37,18.23,62.79,3.18L40.2,35.8Z"/>
  <polyline class="cls-1" points="10.06 133.71 143.05 133.71 143.05 208.95 10.06 208.95 10.06 133.71"/>
  <path class="cls-2" d="M15.95,153.68h8.98v-2.26h-6.49v-3.59h5.68v-2.15h-5.66v-2.91h6.38v-2.2h-8.87v13.11ZM129.41,153.68h2.33v-5.28c0-.74.14-1.09.34-1.39.31-.48.85-.8,1.41-.8.8,0,1.38.57,1.38,1.63v5.83h2.31v-6.65c0-1.76-1.19-3.11-2.98-3.11-1.24,0-2.11.72-2.4,1.46l-.1-1.11-2.28-.02-.02,9.42ZM121.33,149.66l6.43.02c0-2.8-1.16-5.76-4.39-5.76s-4.34,2.87-4.34,5.02c0,3.13,1.9,5.07,4.32,5.07s3.89-1.43,4.25-3.07l-2.35-.17c-.44.87-1.04,1.22-1.79,1.22-1.1,0-2.01-.81-2.14-2.33ZM121.43,147.83c.14-1.15,1.02-1.92,1.9-1.92.93,0,1.75.7,1.92,1.92h-3.83ZM117.83,153.68v-1.94h-.87c-.27,0-.54-.17-.66-.35-.05-.07-.12-.22-.12-.74v-4.67h1.56v-1.72h-1.56l-.02-2.98h-2.31v2.98h-1.21v1.74l1.22-.02v4.87c0,2.13.8,2.83,2.07,2.83h1.89ZM111.39,153.68v-1.94h-.87c-.27,0-.54-.17-.66-.35-.05-.07-.12-.22-.12-.74v-4.67h1.56v-1.72h-1.56l-.02-2.98h-2.31v2.98h-1.21v1.74l1.22-.02v4.87c0,2.13.8,2.83,2.07,2.83h1.89ZM102.48,152.61c.05.46.15.8.29,1.07h2.36c-.29-.39-.37-.67-.39-.98l.02-5.17c0-2.26-1.09-3.61-3.91-3.61-2.62,0-3.71,1.56-3.65,3.15l2.06.04c0-.7.48-1.37,1.67-1.37s1.53.61,1.53,1.06c0,.39-.22.74-.85.87l-1.33.24c-1.92.37-2.43.76-2.8,1.11-.51.5-.78,1.2-.78,1.96,0,1.55,1.12,2.96,3.3,2.96,1.28,0,2.01-.46,2.5-1.33ZM102.5,148.72l-.02,1.18c0,1.33-.77,2.17-2.09,2.17-.97,0-1.43-.63-1.43-1.2,0-.44.14-.94,1.6-1.39l1-.3c.44-.13.75-.32.93-.46ZM91.04,153.68h2.29l2.97-9.42h-2.36l-1.73,6.2-1.72-6.18h-2.36l2.91,9.41ZM79.07,150.53c.03,1.78,1.41,3.48,4.06,3.48s3.89-1.57,3.89-3.26c0-.59-.2-1.18-.54-1.65-.32-.44-.75-.78-1.77-1.04l-2.48-.63c-.53-.15-.73-.5-.73-.83,0-.37.31-.94,1.44-.94,1.22,0,1.77.7,1.79,1.46l2.06-.04c-.03-.95-.51-1.89-1.24-2.48-.51-.39-1.31-.72-2.57-.72-2.5,0-3.6,1.46-3.6,3.07,0,.76.2,1.3.61,1.78.31.35.68.65,1.65.87l1.87.46c1.09.26,1.22.63,1.22,1.07,0,.41-.36,1.05-1.63,1.05s-1.85-.7-1.92-1.68l-2.11.02ZM69.38,153.68h2.33v-3.09l.97-1.05,2.38,4.15h2.84l-3.55-5.8,3.09-3.63h-2.74l-2.99,3.59-.02-7.28h-2.31v13.11ZM65.54,150.25c-.14.74-.32,1.04-.66,1.31-.31.24-.66.39-1.14.39-1.04,0-2.01-.81-2.01-2.92,0-2.32,1.02-3.17,2.09-3.17.83,0,1.53.67,1.67,1.61l2.24-.13c-.2-1.96-1.6-3.48-3.96-3.48-1.7,0-2.91.72-3.69,1.98-.51.82-.82,1.83-.82,3.15,0,1.91.7,3.35,1.78,4.22.68.54,1.51.87,2.69.87.82,0,1.31-.13,1.73-.32,1.31-.52,2.11-1.59,2.28-3.41l-2.21-.11ZM55.3,153.68h2.31v-9.42h-2.31v9.42ZM55.3,142.83h2.33v-2.26h-2.33v2.26ZM49.01,153.68h2.33v-4.18c0-1.41.32-2.06.7-2.5.44-.5.93-.74,1.58-.74.14,0,.27.02.39.04l.02-2.24c-.12-.02-.31-.05-.49-.05-1.02,0-1.89.7-2.16,1.68l-.07-1.42h-2.29v9.42ZM44.8,152.72l.1.96h2.31l-.02-13.11h-2.33v4.76c-.42-.74-1.39-1.37-2.5-1.37-1.94,0-3.84,1.76-3.84,5.05,0,1.5.42,2.74,1.12,3.61.71.94,1.6,1.37,2.63,1.37s1.9-.44,2.52-1.28ZM42.96,151.81c-1.09,0-2.06-.85-2.06-2.85,0-2.24,1-3.04,1.97-3.04s1.96.8,1.96,2.96-1,2.91-1.87,2.92ZM26.05,154.7v2.05l1.61-.02c1.46,0,2.19-.78,2.19-2.48l-.02-10h-2.33v8.91c0,1.33-.37,1.54-.93,1.54h-.53ZM27.51,142.83h2.33v-2.26h-2.33v2.26Z"/>
</svg>