<svg xmlns="http://www.w3.org/2000/svg" viewBox="0 0 595.28 850.36"><defs><style>.a{fill:#e5e8eb;}.a,.b,.c{fill-rule:evenodd;}.b{fill:#000100;}.c{fill:#ad1922;}</style></defs><title>P005_C</title><polyline class="a" points="0 850.36 595.28 850.36 595.28 0 0 0 0 850.36"/><path class="b" d="M367.42,177.88V163.25h6a16.64,16.64,0,0,0,8.46,2.3A16.8,16.8,0,0,0,392,135.34a17.3,17.3,0,0,0-18.44-1.08H329.94c-7.07-4-16.86-2.19-21.83,4.37a16.85,16.85,0,0,0,3.27,23.54,16.64,16.64,0,0,0,10.12,3.4,16.86,16.86,0,0,0,8.51-2.32H335v14.64H286.64c-38.58.44-44.39,8.37-44.39,8.37-15,12.49-41.12,40-31.42,89.62h43.44s-9.69-48.08,25.65-54.11l25.79,0s43,34.58,88.68,0h51.45v-43.9H367.42"/><path class="b" d="M203.36,421l-20.77-73.85c6,0.62,9.74,1.87,12.11,3.11a45,45,0,0,1,3.89,2.47c6,4.07,15.19,10.23,31,10.69h1.19c11.19,0,19.09-4.74,26.08-8.94,8.87-5.32,15.28-9.19,28.6-4.68a182,182,0,0,0,19.28,5.36L286.22,421H203.36ZM324.58,284.63l-8.39,29.8a72,72,0,0,1-24.07-6c-23.42-10.3-38.6-.37-49.67,6.92-5,3.26-9.27,6.09-12.75,6.09h-0.07c-5.25-.06-6.38-0.88-9.75-3.31a54.11,54.11,0,0,0-18.24-9,118.51,118.51,0,0,0-31-4.58L165,284.63l-32.2,9.05L178,454.45H311.56l45.21-160.76Zm-128.2,42.24a35.72,35.72,0,0,1,12.67,6.3c4.34,3.13,9.26,6.69,20.38,6.81h0.3c9,0,16-4.64,22.88-9.12,10-6.53,17.81-11.7,32.06-5.45a91.75,91.75,0,0,0,26.42,7.16l-1.33,4.72a151.83,151.83,0,0,1-18.42-5c-21.41-7.18-33.94.31-44,6.36-6,3.63-10.72,6.73-17.21,6.3-10.45-.3-15.92-4-21.2-7.54a60.89,60.89,0,0,0-5.63-3.51c-6.58-3.44-15.19-5.29-26-5.58l-1.4-5A99.5,99.5,0,0,1,196.38,326.87Z"/><path class="b" d="M40.88,643.92h38v-8.78H51.39v-14h24v-8.35h-24v-11.3h27V593H40.88v51Zm480.51,0h9.86V623.4c0-2.88.58-4.25,1.44-5.4a7.39,7.39,0,0,1,6-3.1c3.39,0,5.83,2.23,5.83,6.34v22.68h9.79V618.08c0-6.84-5-12.1-12.6-12.1-5.25,0-8.93,2.81-10.15,5.69l-0.43-4.32-9.65-.07Zm-34.2-15.62,27.22,0.07c0-10.87-4.9-22.39-18.58-22.39-14,0-18.36,11.16-18.36,19.51,0,12.17,8.06,19.73,18.29,19.73s16.49-5.54,18-11.95l-9.93-.65c-1.87,3.38-4.39,4.75-7.56,4.75C491.58,637.37,487.77,634.2,487.19,628.3Zm0.43-7.13a8.44,8.44,0,0,1,8.06-7.49c4,0,7.42,2.74,8.13,7.49h-16.2Zm-15.27,22.75v-7.56h-3.67a3.66,3.66,0,0,1-2.81-1.37c-0.21-.29-0.51-0.86-0.51-2.88V614H472v-6.7h-6.63l-0.07-11.59h-9.79v11.59H450.4V614l5.18-.07v18.93c0,8.28,3.39,11,8.78,11h8Zm-27.29,0v-7.56H441.4a3.65,3.65,0,0,1-2.81-1.37c-0.22-.29-0.51-0.86-0.51-2.88V614h6.62v-6.7h-6.62L438,595.69h-9.79v11.59h-5.11V614l5.18-.07v18.93c0,8.28,3.38,11,8.78,11h8Zm-37.73-4.18a11.4,11.4,0,0,0,1.22,4.18h10a6.2,6.2,0,0,1-1.66-3.81L417,620c0-8.78-4.61-14-16.56-14-11.09,0-15.69,6.05-15.48,12.24l8.71,0.14c0-2.74,2-5.33,7.05-5.33,4.83,0,6.48,2.38,6.48,4.1,0,1.51-.94,2.88-3.6,3.38l-5.61.94c-8.14,1.44-10.3,3-11.88,4.32a10.13,10.13,0,0,0-3.31,7.63c0,6,4.75,11.52,14,11.52C402.16,644.93,405.26,643.13,407.35,639.75Zm0.07-15.12-0.07,4.61c0,5.18-3.24,8.42-8.86,8.42-4.1,0-6-2.45-6-4.68,0-1.73.58-3.67,6.77-5.4l4.25-1.15A12.1,12.1,0,0,0,407.42,624.63Zm-48.52,19.29h9.72l12.6-36.64h-10l-7.35,24.12-7.27-24h-10Zm-50.69-12.24c0.14,6.91,6,13.54,17.21,13.54,11.45,0,16.49-6.12,16.49-12.67a10.4,10.4,0,0,0-2.31-6.41c-1.36-1.73-3.17-3-7.49-4l-10.51-2.45c-2.23-.58-3.1-1.94-3.1-3.24s1.3-3.67,6.12-3.67c5.18,0,7.49,2.73,7.56,5.69l8.71-.15a13,13,0,0,0-5.26-9.65c-2.16-1.51-5.55-2.81-10.87-2.81-10.58,0-15.26,5.69-15.26,12a9.45,9.45,0,0,0,2.59,6.91c1.3,1.37,2.88,2.52,7,3.39l7.92,1.8c4.61,1,5.18,2.45,5.18,4.17s-1.51,4.11-6.91,4.11c-5.18,0-7.85-2.74-8.13-6.55Zm-41,12.24H277v-12l4.11-4.1,10.08,16.13h12l-15-22.53,13.1-14.11H289.7l-12.67,14L277,593h-9.79v51Zm-16.27-13.32c-0.58,2.88-1.37,4-2.81,5.11a7.86,7.86,0,0,1-4.83,1.51c-4.39,0-8.5-3.17-8.5-11.37,0-9,4.32-12.31,8.86-12.31a7.19,7.19,0,0,1,7.05,6.26l9.51-.5c-0.87-7.63-6.77-13.54-16.78-13.54-7.2,0-12.31,2.81-15.62,7.7a21.08,21.08,0,0,0-3.45,12.24c0,7.42,3,13,7.56,16.41a21.49,21.49,0,0,0,18.72,2.16c5.54-2,8.93-6.19,9.65-13.25Zm-43.34,13.32h9.79V607.28h-9.79v36.64Zm0-42.19h9.86V593h-9.86v8.78Zm-26.64,42.19h9.86V627.65c0-5.48,1.37-8,3-9.72a8.72,8.72,0,0,1,6.69-2.88,12,12,0,0,1,1.66.14l0.07-8.71a14.11,14.11,0,0,0-2.09-.22,9.46,9.46,0,0,0-9.15,6.55l-0.29-5.54h-9.72v36.64Zm-17.86-3.74,0.43,3.74h9.79l-0.07-51h-9.86v18.51c-1.8-2.88-5.9-5.33-10.58-5.33-8.21,0-16.27,6.84-16.27,19.66,0,5.83,1.8,10.65,4.76,14a13.78,13.78,0,0,0,11.16,5.33A13.16,13.16,0,0,0,163.06,640.18Zm-7.78-3.53c-4.61,0-8.71-3.31-8.71-11.09,0-8.71,4.25-11.81,8.35-11.81s8.28,3.1,8.28,11.52C163.2,633.34,159,636.58,155.28,636.65ZM83.64,647.88v8l6.84-.07c6.19,0,9.29-3,9.29-9.65L99.7,607.28H89.84v34.63c0,5.18-1.58,6-4,6H83.64Zm6.19-46.15H99.7V593H89.84v8.78Z"/><path class="c" d="M35.39,297.63c0,144.79,117.43,262.21,262.22,262.21S559.75,442.41,559.75,297.63,442.39,35.48,297.61,35.48,35.39,152.84,35.39,297.63Zm425,132.81c67.48-82.53,62.73-204.35-14.27-281.34s-198.86-81.8-281.4-14.32ZM134.66,164.86C67.23,247.41,72,369.27,149,446.25S347.78,528,430.32,460.52Z"/></svg>