<?xml version="1.0" encoding="UTF-8"?>
<svg id="Lager_1" data-name="Lager 1" xmlns="http://www.w3.org/2000/svg" viewBox="0 0 153.09 218.69">
  <defs>
    <style>
      .cls-1 {
        fill: #aa2825;
      }

      .cls-1, .cls-2, .cls-3 {
        fill-rule: evenodd;
      }

      .cls-2 {
        fill: #fff;
      }

      .cls-3 {
        fill: #1d1f22;
      }
    </style>
  </defs>
  <polyline class="cls-2" points="0 218.69 153.09 218.69 153.09 0 0 0 0 218.69"/>
  <path class="cls-3" d="M82.94,67.7l2.18-7.16h1.99v7.16h-4.17ZM93.21,82.15c0,2.45,1.99,4.44,4.44,4.44s4.44-1.99,4.44-4.44-1.99-4.44-4.44-4.44-4.44,1.99-4.44,4.44ZM64.82,83.32c0,1.83,1.47,3.3,3.3,3.3s3.31-1.47,3.31-3.3-1.49-3.32-3.31-3.32-3.3,1.49-3.3,3.32ZM90.13,41.7c0,1.62,1.31,2.93,2.93,2.93s2.93-1.31,2.93-2.93-1.31-2.93-2.93-2.93-2.93,1.31-2.93,2.93ZM109.34,58.67h-7.57v-21.15c0-3-2.44-5.44-5.44-5.44h-13.86c-2.42,0-4.59,1.49-5.46,3.74l-14.15,36.68h-3.35l18.22-47.24-3.82-1.47-22.97,59.5-10.61-3.24-1.21,3.91,14.28,4.36,1.96-5.09h6.09l.02.47c.84,8.29,12.44,8.29,13.29,0v-.47h15.19l.09.49c1.92,8.27,13.35,8.27,15.26,0l.09-.49h8.96v-19.55c0-2.77-2.24-5.02-5.01-5.02ZM80.11,37.03c.37-.97,1.3-1.61,2.34-1.61h13.69c1.16,0,2.09.94,2.09,2.1v21.15h-2.6c.05-.16.09-.33.11-.52l.02-.3v-9.69c0-1.61-1.4-2.86-3-2.68-.9.1-1.69.66-2.1,1.46l-2.79,5.35-5.78-1.83c-.94-.3-1.93.39-1.91,1.39.01.35.12.64.28.87l-1.65-2.06c-.7-.87-2,.17-1.31,1.04l1.31,1.63-9.76,14.37h-.79l11.84-30.67ZM71.01,67.7l8.88-13.05,1.31,1.63.12.12c.79.63,1.79-.36,1.19-1.16l-1.92-2.4c.18.2.41.34.66.42h0s6.95,2.2,6.95,2.2h0c.62.19,1.36-.02,1.73-.72h0s.46-.89.46-.89v3.35h-6.51c-.68,0-1.35.4-1.6,1.19h0s-2.67,8.81-2.67,8.81c0,0,0,.01,0,.02l-.05.23-.02.24s0,.01,0,.02h-8.51Z"/>
  <path class="cls-1" d="M18.04,65.45c0,32.31,26.2,58.52,58.52,58.52s58.5-26.21,58.5-58.52S108.87,6.95,76.56,6.95s-58.52,26.19-58.52,58.5ZM112.89,95.09c15.06-18.42,14-45.6-3.18-62.79-17.18-17.18-44.38-18.25-62.8-3.19l65.98,65.98ZM40.2,35.82c-15.05,18.42-13.99,45.62,3.19,62.8,17.18,17.18,44.36,18.23,62.78,3.18L40.2,35.82Z"/>
  <polyline class="cls-1" points="10.06 133.73 143.05 133.73 143.05 208.97 10.06 208.97 10.06 133.73"/>
  <path class="cls-2" d="M18.57,153.69h2.7v-5.59h5.72v-2.15h-5.72v-3.18h6.74v-2.18h-9.44v13.11ZM129.05,153.69h2.54v-4.18c0-1.41.35-2.06.76-2.5.48-.5,1.02-.74,1.72-.74.15,0,.3.02.43.04l.02-2.24c-.13-.02-.33-.06-.54-.06-1.11,0-2.05.7-2.35,1.68l-.07-1.42h-2.5v9.42ZM122.18,154.06c3.04,0,5.07-2.04,5.07-5.11s-2.07-5.05-5-5.05-4.96,2.04-4.96,5.05,2.11,5.11,4.89,5.11ZM122.33,152.08c-1.31,0-2.44-.94-2.44-3.13s1.13-3.07,2.43-3.07c1.22,0,2.35.85,2.35,3.15s-1.2,3.05-2.33,3.05ZM122.68,143.14h2.54l-.02-2.55-2.52-.02v2.57ZM119.37,143.14h2.54l-.02-2.55-2.52-.02v2.57ZM111.79,153.69h2.54v-7.74h1.83v-1.68h-1.85v-.18c0-.85.17-1.09.31-1.26.2-.22.5-.39,1.11-.37h.43v-1.87h-1.44c-.87,0-3.17.15-2.93,3.68h-1.37v1.68h1.37v7.74ZM101.37,153.69v-1.94h-.94c-.3,0-.59-.17-.72-.35-.06-.07-.13-.22-.13-.74v-4.67h1.7v-1.72h-1.7l-.02-2.98h-2.52v2.98h-1.31v1.74l1.33-.02v4.87c0,2.13.87,2.83,2.26,2.83h2.05ZM87.59,149.67l7,.02c0-2.8-1.26-5.76-4.78-5.76s-4.72,2.87-4.72,5.02c0,3.13,2.07,5.07,4.7,5.07s4.24-1.42,4.63-3.07l-2.56-.17c-.48.87-1.13,1.22-1.94,1.22-1.2,0-2.19-.81-2.33-2.33ZM87.7,147.84c.15-1.15,1.11-1.92,2.07-1.92,1.02,0,1.91.7,2.09,1.92h-4.17ZM80.69,152.73l.11.96h2.52l-.02-13.11h-2.54v4.76c-.46-.74-1.52-1.37-2.72-1.37-2.09,0-4.17,1.76-4.17,5.05,0,1.5.46,2.74,1.22,3.61.78.94,1.72,1.37,2.85,1.37s2.07-.44,2.74-1.28ZM78.69,151.82c-1.18,0-2.22-.85-2.22-2.85,0-2.24,1.07-3.04,2.13-3.04s2.13.8,2.13,2.96-1.09,2.91-2.04,2.92ZM69.56,152.64l.15,1.05h2.39l-.02-9.41-2.5-.02v5.28c0,1.44-.87,2.18-1.89,2.18-.94,0-1.52-.5-1.52-1.83v-5.63h-2.54v6.48c0,1.24.35,1.91.93,2.44.54.5,1.33.82,2.35.82,1.17,0,2.09-.5,2.65-1.37ZM57.56,154.71v2.05l1.76-.02c1.59,0,2.39-.78,2.39-2.48l-.02-10h-2.54v8.91c0,1.33-.41,1.54-1.02,1.54h-.57ZM59.15,142.84h2.54v-2.26h-2.54v2.26ZM46.95,153.69h2.5l.13-.96c.67.83,1.57,1.26,2.7,1.26,2.09,0,4.15-1.7,4.15-5.04s-2.07-5-4.13-5c-1.35,0-2.31.59-2.81,1.41v-4.78h-2.54v13.11ZM51.67,151.8c-1.06,0-2.15-.83-2.15-2.94s1.09-2.94,2.13-2.94c1.13,0,2.17.8,2.17,2.98s-1.07,2.91-2.15,2.91ZM40.1,153.69h2.54v-4.18c0-1.41.35-2.06.76-2.5.48-.5,1.02-.74,1.72-.74.15,0,.3.02.43.04l.02-2.24c-.13-.02-.33-.06-.54-.06-1.11,0-2.06.7-2.35,1.68l-.07-1.42h-2.5v9.42ZM33.23,154.06c3.04,0,5.07-2.04,5.07-5.11s-2.07-5.05-5-5.05-4.96,2.04-4.96,5.05,2.11,5.11,4.89,5.11ZM33.38,152.08c-1.31,0-2.44-.94-2.44-3.13s1.13-3.07,2.43-3.07c1.22,0,2.35.85,2.35,3.15s-1.2,3.05-2.33,3.05ZM33.73,143.14h2.54l-.02-2.55-2.52-.02v2.57ZM30.42,143.14h2.54l-.02-2.55-2.52-.02v2.57Z"/>
  <path class="cls-2" d="M26.1,172.5l-.02,1.18c0,1.33-.83,2.17-2.28,2.17-1.06,0-1.57-.63-1.57-1.2,0-.44.17-.94,1.76-1.39l1.09-.3c.48-.13.81-.32,1.02-.46ZM124.81,177.46h2.56v-5.28c0-.74.15-1.09.35-1.39.33-.48.95-.8,1.56-.8.87,0,1.5.57,1.5,1.63l-.02,5.83h2.54v-6.65c0-1.76-1.3-3.11-3.24-3.11-1.35,0-2.3.72-2.63,1.46l-.09-1.11-2.48-.02-.04,9.42ZM118.09,177.81c2.85,0,4.94-2.02,4.94-5.09s-2.05-5.04-4.98-5.04-4.94,2.04-4.94,5.02,2.11,5.11,4.98,5.11ZM118.07,175.83c-1.2,0-2.37-.93-2.37-3.02,0-2.26,1.13-3.15,2.37-3.15s2.37.91,2.37,3.05-1.13,3.11-2.37,3.11ZM108.72,176.5l.11.96h2.5v-13.11h-2.54v4.76c-.46-.74-1.52-1.37-2.72-1.37-2.11,0-4.2,1.76-4.2,5.05,0,1.5.48,2.74,1.22,3.61.78.94,1.76,1.37,2.89,1.37s2.07-.44,2.74-1.28ZM106.72,175.59c-1.2,0-2.24-.85-2.24-2.85,0-2.24,1.09-3.04,2.15-3.04s2.13.8,2.13,2.96-1.09,2.91-2.04,2.93ZM95.57,177.46h2.56v-4.18c0-1.41.35-2.05.76-2.5.48-.5,1.02-.74,1.72-.74.15,0,.3.02.43.04l.02-2.24c-.13-.02-.33-.05-.54-.05-1.11,0-2.06.7-2.35,1.68l-.09-1.43h-2.48l-.02,9.42ZM88.85,177.81c2.85,0,4.94-2.02,4.94-5.09s-2.06-5.04-4.98-5.04-4.94,2.04-4.94,5.02,2.11,5.11,4.98,5.11ZM88.83,175.83c-1.2,0-2.37-.93-2.37-3.02,0-2.26,1.13-3.15,2.37-3.15s2.37.91,2.37,3.05-1.13,3.11-2.37,3.11ZM78.3,177.46h2.54v-7.74h1.83v-1.68h-1.85v-.18c0-.85.15-1.09.31-1.26.2-.22.5-.39,1.11-.37h.43v-1.87h-1.44c-.87,0-3.17.15-2.93,3.68h-1.39l.02,1.68h1.37v7.74ZM66.65,174.31c.06,1.78,1.56,3.48,4.44,3.48s4.22-1.57,4.22-3.26c0-.59-.2-1.18-.57-1.65-.35-.44-.82-.78-1.93-1.04l-2.7-.63c-.57-.15-.8-.5-.8-.83,0-.37.33-.94,1.57-.94,1.33,0,1.93.7,1.95,1.46l2.24-.04c-.06-.94-.56-1.89-1.35-2.48-.56-.39-1.43-.72-2.8-.72-2.72,0-3.92,1.46-3.92,3.07,0,.76.22,1.3.67,1.78.33.35.74.65,1.8.87l2.04.46c1.19.26,1.33.63,1.33,1.07,0,.41-.39,1.05-1.8,1.05-1.32,0-2-.7-2.07-1.68l-2.31.02ZM64.98,177.46v-1.94h-.94c-.32,0-.59-.17-.72-.35-.05-.07-.13-.22-.13-.74v-4.67h1.7v-1.72h-1.7l-.02-2.98h-2.52v2.98h-1.33v1.74l1.35-.02-.02,4.87c0,2.13.89,2.83,2.28,2.83h2.05ZM51.21,173.44l7,.02c0-2.8-1.26-5.76-4.78-5.76s-4.72,2.87-4.72,5.02c0,3.13,2.07,5.07,4.7,5.07s4.24-1.43,4.63-3.07l-2.56-.17c-.48.87-1.13,1.22-1.96,1.22-1.2,0-2.19-.81-2.32-2.33ZM51.32,171.61c.15-1.15,1.09-1.92,2.06-1.92,1.04,0,1.93.7,2.11,1.92h-4.17ZM37.64,177.46h2.5l.15-.96c.67.83,1.57,1.26,2.7,1.26,2.09,0,4.15-1.7,4.15-5.04s-2.09-5-4.13-5c-1.35,0-2.31.59-2.81,1.41v-4.78h-2.56v13.11ZM42.36,175.57c-1.06,0-2.13-.83-2.13-2.94s1.09-2.94,2.13-2.94c1.13,0,2.17.8,2.17,2.98s-1.07,2.91-2.17,2.91ZM30.79,177.46h2.55v-4.18c0-1.41.35-2.05.76-2.5.48-.5,1.02-.74,1.72-.74.15,0,.3.02.43.04l.02-2.24c-.13-.02-.33-.05-.54-.05-1.11,0-2.05.7-2.35,1.68l-.09-1.43h-2.48l-.02,9.42ZM26.08,176.39c.06.46.17.8.3,1.07h2.59c-.33-.39-.41-.67-.43-.98v-5.17c0-2.26-1.17-3.61-4.24-3.61-2.85,0-4.04,1.55-3.98,3.15l2.24.04c0-.7.52-1.37,1.81-1.37s1.67.61,1.67,1.06c0,.39-.24.74-.93.87l-1.46.24c-2.07.37-2.63.76-3.04,1.11-.55.5-.85,1.2-.85,1.96,0,1.55,1.22,2.96,3.59,2.96,1.39,0,2.19-.46,2.72-1.33Z"/>
</svg>