<svg xmlns="http://www.w3.org/2000/svg" viewBox="0 0 595.28 850.36"><defs><style>.a{fill:#e5e8eb;}.a,.b,.c{fill-rule:evenodd;}.b{fill:#000100;}.c{fill:#ad1922;}</style></defs><title>P006_C</title><polyline class="a" points="0 850.36 595.28 850.36 595.28 0 0 0 0 850.36"/><path class="b" d="M326.16,307.72l9.75-32.08h8.92v32.08H326.16Zm46.1,64.79a19.91,19.91,0,1,0,19.91-19.91A19.92,19.92,0,0,0,372.26,372.51ZM245,377.65a14.82,14.82,0,1,0,14.78-14.85A14.75,14.75,0,0,0,245,377.65ZM358.42,191.27a13.12,13.12,0,1,0,13.12-13.12A13.1,13.1,0,0,0,358.42,191.27Zm86,76H410.54V172.47a24.37,24.37,0,0,0-24.39-24.36h-62.1a26.22,26.22,0,0,0-24.46,16.78L236.18,329.23h-15l81.66-211.66L285.72,111,182.8,377.61l-47.56-14.52-5.44,17.52,64,19.54,8.8-22.82H229.9l0.08,2.12c3.79,37.14,55.74,37.14,59.57,0l0-2.12h68l0.39,2.22c8.59,37.06,59.82,37.06,68.39,0l0.4-2.22h40.15V289.71A22.48,22.48,0,0,0,444.45,267.23ZM313.58,170.3a11.24,11.24,0,0,1,10.47-7.22H385.4a9.38,9.38,0,0,1,9.37,9.39v94.77H383.1a14.41,14.41,0,0,0,.52-2.32l0.09-1.35v-43.4a12.08,12.08,0,0,0-13.43-12,12.21,12.21,0,0,0-9.43,6.53l-12.49,24-25.89-8.19a6.48,6.48,0,0,0-8.53,6.24,6.84,6.84,0,0,0,1.26,3.89l-7.4-9.23c-3.11-3.88-9,.77-5.85,4.67l5.85,7.3-43.75,64.38h-3.52ZM272.72,307.72l39.79-58.49,5.85,7.3,0.52,0.52a3.75,3.75,0,0,0,5.34-5.21l-8.62-10.76a6.49,6.49,0,0,0,2.94,1.89v0l31.13,9.85h0a6.48,6.48,0,0,0,7.77-3.22h0l2.08-4v15H330.34v0a7.39,7.39,0,0,0-7.17,5.32h0l-12,39.48,0,0.09-0.21,1-0.07,1.06s0,0.06,0,.09H272.72Z"/><path class="b" d="M72.2,643.92H82.71V622.18H105v-8.35H82.71V601.45h26.21V593H72.2v51Zm429.61,0h9.86V627.65c0-5.48,1.37-8,3-9.72a8.72,8.72,0,0,1,6.7-2.88,12.16,12.16,0,0,1,1.66.14l0.07-8.71a14.05,14.05,0,0,0-2.09-.22,9.45,9.45,0,0,0-9.14,6.55l-0.29-5.54h-9.72v36.64Zm-26.71,1.44c11.81,0,19.73-7.92,19.73-19.87,0-11.74-8.06-19.66-19.44-19.66-11.09,0-19.29,7.92-19.29,19.66C456.09,637.45,464.29,645.36,475.1,645.36Zm0.58-7.7c-5.11,0-9.5-3.67-9.5-12.17,0-8.21,4.39-11.95,9.43-11.95,4.75,0,9.15,3.31,9.15,12.24C484.74,634.42,480.06,637.66,475.67,637.66ZM477,602.89h9.86L486.83,593l-9.79-.07v10Zm-12.89,0H474L473.94,593l-9.79-.07v10Zm-29.45,41h9.87V613.83h7.13v-6.55h-7.2v-0.72c0-3.31.65-4.25,1.22-4.9,0.79-.86,1.94-1.51,4.32-1.44h1.66V593h-5.62c-3.38,0-12.31.58-11.38,14.33h-5.33v6.55h5.33v30.09Zm-40.53,0v-7.56H390.5a3.65,3.65,0,0,1-2.81-1.37c-0.22-.29-0.51-0.86-0.51-2.88V614h6.62v-6.7h-6.62l-0.07-11.59h-9.79v11.59h-5.11V614l5.18-.07v18.93c0,8.28,3.38,11,8.78,11h8ZM340.6,628.3l27.22,0.07c0-10.87-4.9-22.39-18.58-22.39-14,0-18.36,11.16-18.36,19.51,0,12.17,8.06,19.73,18.29,19.73s16.49-5.54,18-11.95l-9.94-.65c-1.87,3.38-4.39,4.75-7.56,4.75C345,637.37,341.18,634.21,340.6,628.3Zm0.43-7.13a8.44,8.44,0,0,1,8.07-7.49c4,0,7.42,2.73,8.13,7.49H341Zm-27.29,19,0.43,3.74H324l-0.07-51H314v18.51c-1.8-2.88-5.9-5.33-10.58-5.33-8.13,0-16.2,6.84-16.2,19.66,0,5.83,1.8,10.66,4.75,14a13.66,13.66,0,0,0,11.09,5.33A13,13,0,0,0,313.75,640.18ZM306,636.65c-4.61,0-8.64-3.31-8.64-11.09,0-8.71,4.18-11.81,8.28-11.81s8.28,3.1,8.28,11.52C313.89,633.34,309.65,636.58,306,636.65Zm-35.49,3.17,0.58,4.1h9.29l-0.07-36.57-9.72-.07V627.8c0,5.62-3.38,8.49-7.34,8.49-3.67,0-5.9-1.94-5.9-7.13V607.28h-9.86v25.2c0,4.83,1.37,7.42,3.6,9.5a13.11,13.11,0,0,0,9.14,3.17A11.69,11.69,0,0,0,270.48,639.82Zm-46.65,8.06v8l6.84-.07c6.19,0,9.29-3,9.29-9.65l-0.07-38.88H230v34.63c0,5.18-1.58,6-4,6h-2.23ZM230,601.73h9.86V593H230v8.78Zm-47.45,42.19h9.72l0.5-3.74a12.81,12.81,0,0,0,10.51,4.9c8.13,0,16.13-6.62,16.13-19.58,0-12.6-8.06-19.44-16.06-19.44-5.25,0-9,2.3-10.94,5.47V593h-9.86v51Zm18.36-7.34c-4.11,0-8.35-3.24-8.35-11.45s4.25-11.45,8.28-11.45c4.39,0,8.43,3.1,8.43,11.59C209.28,633.34,205.1,636.58,200.93,636.58Zm-45,7.34h9.87V627.65c0-5.48,1.37-8,3-9.72a8.73,8.73,0,0,1,6.7-2.88,12.16,12.16,0,0,1,1.66.14l0.07-8.71a14.17,14.17,0,0,0-2.09-.22,9.45,9.45,0,0,0-9.15,6.55l-0.29-5.54h-9.72v36.64Zm-26.71,1.44c11.81,0,19.73-7.92,19.73-19.87,0-11.74-8.06-19.66-19.44-19.66-11.09,0-19.29,7.92-19.29,19.66C110.21,637.45,118.42,645.36,129.22,645.36Zm0.58-7.7c-5.11,0-9.5-3.67-9.5-12.17,0-8.21,4.39-11.95,9.43-11.95,4.75,0,9.14,3.31,9.14,12.24C138.86,634.42,134.19,637.66,129.79,637.66Zm1.37-34.77H141L141,593l-9.79-.07v10Zm-12.89,0h9.86L128.07,593l-9.79-.07v10Z"/><path class="b" d="M101.49,711.71l-0.07,4.61c0,5.18-3.24,8.42-8.85,8.42-4.11,0-6.12-2.45-6.12-4.68,0-1.73.65-3.67,6.84-5.4l4.25-1.15A12.13,12.13,0,0,0,101.49,711.71ZM485.31,731h9.94V710.49c0-2.88.58-4.25,1.37-5.4a7.54,7.54,0,0,1,6.05-3.1c3.38,0,5.83,2.23,5.83,6.34L508.42,731h9.86V705.16c0-6.84-5-12.1-12.6-12.1-5.25,0-8.93,2.81-10.22,5.69l-0.36-4.32-9.65-.07Zm-26.13,1.37c11.09,0,19.22-7.85,19.22-19.8,0-11.59-8-19.58-19.37-19.58-11.09,0-19.22,7.92-19.22,19.51C439.81,724.6,448,732.37,459.18,732.37Zm-0.07-7.7c-4.68,0-9.22-3.6-9.22-11.74,0-8.78,4.39-12.24,9.22-12.24s9.22,3.53,9.22,11.88C468.32,721.14,463.93,724.67,459.11,724.67Zm-36.36,2.59,0.43,3.74h9.72V680H423v18.51c-1.8-2.88-5.9-5.33-10.58-5.33-8.2,0-16.34,6.84-16.34,19.66a21.42,21.42,0,0,0,4.75,14,13.93,13.93,0,0,0,11.23,5.33A13.14,13.14,0,0,0,422.74,727.26ZM415,723.73c-4.68,0-8.71-3.31-8.71-11.09,0-8.71,4.25-11.81,8.35-11.81s8.28,3.1,8.28,11.52C422.89,720.42,418.64,723.66,415,723.73ZM371.63,731h9.94V714.74c0-5.48,1.37-8,3-9.72a8.73,8.73,0,0,1,6.7-2.88,12.17,12.17,0,0,1,1.66.14l0.07-8.71a14.71,14.71,0,0,0-2.09-.22,9.45,9.45,0,0,0-9.15,6.55l-0.36-5.54H371.7Zm-26.13,1.37c11.09,0,19.22-7.85,19.22-19.8,0-11.59-8-19.58-19.36-19.58-11.09,0-19.22,7.92-19.22,19.51C326.12,724.6,334.33,732.37,345.49,732.37Zm-0.07-7.7c-4.68,0-9.22-3.6-9.22-11.74,0-8.78,4.39-12.24,9.22-12.24s9.22,3.53,9.22,11.88C354.63,721.14,350.24,724.67,345.42,724.67Zm-41,6.33h9.86V700.91h7.13v-6.55h-7.2v-0.72c0-3.31.58-4.25,1.22-4.9,0.79-.86,1.94-1.51,4.32-1.44h1.65V680h-5.61c-3.38,0-12.31.58-11.37,14.33h-5.4l0.07,6.55h5.33V731Zm-45.29-12.24c0.22,6.91,6.05,13.54,17.28,13.54,11.45,0,16.42-6.12,16.42-12.67a10.35,10.35,0,0,0-2.23-6.41c-1.37-1.73-3.17-3-7.49-4l-10.51-2.45c-2.23-.58-3.1-1.94-3.1-3.24s1.29-3.67,6.12-3.67c5.19,0,7.49,2.73,7.56,5.69l8.71-.14a13.23,13.23,0,0,0-5.26-9.65c-2.16-1.51-5.54-2.81-10.87-2.81-10.58,0-15.26,5.69-15.26,12a9.45,9.45,0,0,0,2.59,6.91c1.29,1.36,2.88,2.52,7,3.38L278,717c4.61,1,5.19,2.45,5.19,4.18s-1.51,4.1-7,4.1c-5.11,0-7.78-2.74-8.07-6.55ZM252.69,731v-7.56H249a3.55,3.55,0,0,1-2.81-1.37c-0.21-.29-0.5-0.86-0.5-2.88V701.06h6.62v-6.7H245.7l-0.07-11.59h-9.79v11.59h-5.18v6.77l5.26-.07L235.84,720c0,8.28,3.46,11,8.86,11h8Zm-53.57-15.62,27.22,0.07c0-10.87-4.9-22.39-18.58-22.39-14,0-18.36,11.16-18.36,19.51,0,12.17,8.06,19.73,18.29,19.73s16.49-5.54,18-12l-9.94-.65c-1.87,3.38-4.39,4.75-7.63,4.75C203.44,724.45,199.63,721.29,199.12,715.38Zm0.43-7.13a8.37,8.37,0,0,1,8-7.49c4,0,7.49,2.73,8.21,7.49h-16.2ZM146.35,731h9.72l0.58-3.74a12.8,12.8,0,0,0,10.51,4.9c8.13,0,16.13-6.62,16.13-19.58,0-12.6-8.14-19.44-16.06-19.44-5.26,0-9,2.3-10.95,5.47V680h-9.94v51Zm18.36-7.34c-4.11,0-8.28-3.24-8.28-11.45s4.25-11.45,8.28-11.45c4.39,0,8.42,3.1,8.42,11.59C173.13,720.42,169,723.66,164.71,723.66Zm-45,7.34h9.93V714.74c0-5.48,1.37-8,3-9.72a8.72,8.72,0,0,1,6.7-2.88,12.05,12.05,0,0,1,1.65.14l0.07-8.71a14.64,14.64,0,0,0-2.09-.22,9.46,9.46,0,0,0-9.15,6.55l-0.36-5.54h-9.65Zm-18.29-4.18a13.28,13.28,0,0,0,1.15,4.18h10.08a5.78,5.78,0,0,1-1.66-3.81V707.1c0-8.78-4.54-14-16.49-14-11.09,0-15.7,6.05-15.48,12.24l8.71,0.14c0-2.73,2-5.33,7.06-5.33,4.82,0,6.48,2.38,6.48,4.1,0,1.51-.93,2.88-3.6,3.39l-5.69.93c-8.06,1.44-10.23,3-11.81,4.32a10.14,10.14,0,0,0-3.31,7.63c0,6,4.75,11.52,14,11.52C96.24,732,99.33,730.22,101.42,726.83Z"/><path class="c" d="M35.39,297.63c0,144.79,117.43,262.21,262.21,262.21S559.75,442.41,559.75,297.63,442.39,35.48,297.6,35.48,35.39,152.84,35.39,297.63Zm425,132.81c67.48-82.53,62.73-204.35-14.27-281.34s-198.85-81.8-281.39-14.32ZM134.66,164.86C67.23,247.41,72,369.27,149,446.25S347.78,528,430.32,460.52Z"/></svg>