<svg xmlns="http://www.w3.org/2000/svg" viewBox="0 0 595.28 850.36"><defs><style>.a{fill:#e5e8eb;}.a,.b,.c{fill-rule:evenodd;}.b{fill:#000100;}.c{fill:#ad1922;}</style></defs><title>P007_C</title><polyline class="a" points="0 850.36 595.28 850.36 595.28 0 0 0 0 850.36"/><path class="b" d="M223.93,314.35v41.13a10.24,10.24,0,0,1-10.2,10.27H141.55a10.24,10.24,0,0,1-10.2-10.27V283.31a10.2,10.2,0,0,1,10.2-10.2h30.94v41.23h51.44Zm78.18-119.8,4.72-1.2c24.45-4,39.7,6.83,55.34,24.55l6.4,7.4,7.12-8,3.72-4c32.2-37.2,79.83-21.42,94.79,22.7a44.13,44.13,0,0,1,1.77,7.89c9.78,67.42-49.61,111.89-98.7,148.47l-8.71,6.49-12.79-9.46c-59.4-31.46-139.61-129.83-67.48-187.84l3.34-2.13v-4.71c0-27.08-28.76-44.37-52.73-31.88a35.91,35.91,0,0,0-19.45,31.85l0.19,77.21A20.68,20.68,0,0,1,199,292.55h-16v11.3h51.44v51.6a20.7,20.7,0,0,1-20.67,20.74H141.51a20.71,20.71,0,0,1-20.67-20.74V283.29a20.66,20.66,0,0,1,20.67-20.65h41.41v19.44h16a10.19,10.19,0,0,0,10.2-10.18V194.65a46.75,46.75,0,0,1,27.61-42.43c25-11.35,54.68,1.9,63,28a38.75,38.75,0,0,1,2,9.54Z"/><path class="b" d="M58.73,643.92h38v-8.78H69.25v-14h24v-8.35h-24v-11.3h27V593H58.73v51Zm456.54,0h9.86V627.65c0-5.48,1.37-8,3-9.72a8.72,8.72,0,0,1,6.7-2.88,12.05,12.05,0,0,1,1.65.14l0.07-8.71a14.11,14.11,0,0,0-2.09-.22,9.46,9.46,0,0,0-9.15,6.55L525,607.28h-9.72v36.64Zm-26.71,1.44c11.81,0,19.73-7.92,19.73-19.87,0-11.74-8.07-19.66-19.44-19.66-11.09,0-19.29,7.92-19.29,19.66C469.55,637.45,477.76,645.36,488.56,645.36Zm0.58-7.7c-5.11,0-9.51-3.67-9.51-12.17,0-8.21,4.39-11.95,9.43-11.95,4.75,0,9.15,3.31,9.15,12.24C498.21,634.42,493.53,637.66,489.14,637.66Zm1.36-34.77h9.87L500.29,593l-9.79-.07v10Zm-12.89,0h9.86L487.41,593l-9.79-.07v10Zm-29.45,41H458V613.83h7.13v-6.55H458v-0.72c0-3.31.65-4.25,1.22-4.9,0.79-.86,1.94-1.51,4.32-1.44h1.66V593h-5.61c-3.39,0-12.31.58-11.38,14.33h-5.33v6.55h5.33v30.09ZM380.35,628.3l27.22,0.07c0-10.87-4.9-22.39-18.58-22.39-14,0-18.36,11.16-18.36,19.51,0,12.17,8.06,19.73,18.29,19.73s16.49-5.54,18-11.95l-9.94-.65c-1.87,3.38-4.39,4.75-7.56,4.75C384.74,637.37,380.92,634.21,380.35,628.3Zm0.43-7.13a8.44,8.44,0,0,1,8.06-7.49c4,0,7.42,2.73,8.13,7.49h-16.2Zm-27.29,19,0.43,3.74h9.79l-0.07-51h-9.86v18.51c-1.8-2.88-5.9-5.33-10.58-5.33-8.21,0-16.27,6.84-16.27,19.66,0,5.83,1.8,10.66,4.75,14a13.78,13.78,0,0,0,11.16,5.33A13.15,13.15,0,0,0,353.49,640.18Zm-7.78-3.53c-4.61,0-8.71-3.31-8.71-11.09,0-8.71,4.25-11.81,8.35-11.81s8.28,3.1,8.28,11.52C353.64,633.34,349.39,636.58,345.71,636.65ZM310,639.75a14.84,14.84,0,0,0,1.3,4.18h10c-0.58-.5-1.58-2.16-1.58-5.18L319.65,620a20.5,20.5,0,0,0-.58-5c-1.44-5-5.54-9.07-15.48-9.07-11.37,0-15.84,5.83-15.84,12.24l8.64,0.14c0.36-2.45.79-3,1.51-3.67s2.73-1.73,5.69-1.73c4.61,0,6.34,2.45,6.34,4.18s-1.08,3-3.74,3.46l-9.79,1.73c-7.42,1.3-10.87,6.12-10.87,10.95,0,6.33,4.83,11.74,13.68,11.74C305.25,645,308.64,642.56,310,639.75Zm0.07-15.34L310,629.89c-0.21,4.61-3.31,7.77-8.71,7.77-4,0-6-2.45-6-4.61,0-1.73.86-4,6.62-5.4l4.25-1.15A8.33,8.33,0,0,0,310.08,624.41Zm-5.9-21.53L314,603l0.07-10h-9.94v9.93Zm-12.82,0h9.79l0.07-10h-9.79Zm-28.73,41h9.86V627.65c0-5.48,1.36-8,3-9.72a8.72,8.72,0,0,1,6.7-2.88,12.16,12.16,0,0,1,1.66.14l0.07-8.71a14.05,14.05,0,0,0-2.09-.22,9.45,9.45,0,0,0-9.14,6.55l-0.29-5.54h-9.72v36.64Zm-7.27,0v-7.56h-3.67a3.66,3.66,0,0,1-2.81-1.37c-0.21-.29-0.5-0.86-0.5-2.88V614H255v-6.7h-6.62l-0.07-11.59h-9.79v11.59H233.4V614l5.18-.07v18.93c0,8.28,3.38,11,8.78,11h8Zm-37.94,0h9.86V593h-9.79Zm-17.49,0h9.86V593H200Zm-17.5,0h9.8V607.28h-9.8v36.64Zm0-42.19h9.87V593h-9.87v8.78Zm-6.91,42.19v-7.56h-3.67A3.66,3.66,0,0,1,169,635c-0.21-.29-0.5-0.86-0.5-2.88V614h6.62v-6.7h-6.62l-0.07-11.59h-9.79v11.59h-5.11V614l5.18-.07v18.93c0,8.28,3.38,11,8.78,11h8Zm-74,4v8l6.84-.07c6.19,0,9.29-3,9.29-9.65l-0.07-38.88h-9.87v34.63c0,5.18-1.58,6-4,6H101.5Zm6.19-46.15h9.87V593h-9.87v8.78Z"/><path class="b" d="M111.72,724.67c-4.68,0-8.71-3.17-8.71-11.09,0-8.85,4.32-11.95,8.35-11.95s8.5,3.31,8.5,11.45C119.85,718.48,117.55,724.6,111.72,724.67Zm380.22,2.59,0.43,3.74h9.72V680h-9.94v18.51c-1.73-2.88-5.83-5.33-10.58-5.33-8.14,0-16.27,6.84-16.27,19.66a21.42,21.42,0,0,0,4.75,14,13.89,13.89,0,0,0,11.16,5.33A13.19,13.19,0,0,0,491.94,727.26Zm-7.78-3.53c-4.68,0-8.71-3.31-8.71-11.09,0-8.71,4.25-11.81,8.28-11.81s8.35,3.1,8.35,11.52C492.08,720.42,487.83,723.66,484.16,723.73ZM432,715.38l27.22,0.07c0-10.87-4.9-22.39-18.58-22.39-14,0-18.43,11.16-18.43,19.51,0,12.17,8.07,19.73,18.36,19.73s16.49-5.54,18-12l-9.94-.65c-1.87,3.38-4.39,4.75-7.63,4.75C436.28,724.45,432.47,721.29,432,715.38Zm0.43-7.13a8.38,8.38,0,0,1,8-7.49c4,0,7.49,2.73,8.2,7.49h-16.2ZM361.62,731h9.86l0.07-21.16c0-5.26,3-7.92,6.91-7.92a4.88,4.88,0,0,1,4.9,3.1c0.14,0.36.43,1.15,0.43,4v22h9.79V709.26c0-4.75,3-7.49,6.84-7.49,3.31,0,5.55,2,5.55,6.33V731h9.72l-0.07-25.7c-0.21-7.7-5.11-12.1-11.74-12.1a12.22,12.22,0,0,0-11.23,6.41,12,12,0,0,0-10.8-6.41c-5,0-8.28,2.16-10.22,5.83l-0.36-4.61-9.58-.07Zm-70.19,0h9.79l0.07-20.52c0-2.88.58-4.25,1.37-5.4a7.49,7.49,0,0,1,6-3.1c3.46,0,5.9,2.23,5.9,6.34L314.46,731h9.86V705.16c0-6.84-5-12.1-12.6-12.1-5.26,0-8.93,2.81-10.22,5.69l-0.36-4.32-9.65-.07Zm-26.21,1.37c11.16,0,19.29-7.85,19.29-19.8,0-11.59-8-19.58-19.37-19.58-11.09,0-19.22,7.92-19.22,19.51C245.92,724.6,254.13,732.37,265.22,732.37Zm0-7.7c-4.68,0-9.22-3.6-9.22-11.74,0-8.78,4.39-12.24,9.22-12.24s9.22,3.53,9.22,11.88C274.43,721.14,270,724.67,265.22,724.67Zm-59.47-5.9c0.21,6.91,6,13.54,17.28,13.54,11.45,0,16.41-6.12,16.41-12.67a10.33,10.33,0,0,0-2.23-6.41c-1.37-1.73-3.17-3-7.49-4l-10.51-2.45c-2.23-.58-3.1-1.94-3.1-3.24s1.29-3.67,6.12-3.67c5.18,0,7.49,2.73,7.56,5.69l8.71-.14a13.23,13.23,0,0,0-5.26-9.65c-2.16-1.51-5.55-2.81-10.87-2.81-10.58,0-15.26,5.69-15.26,12a9.47,9.47,0,0,0,2.59,6.91c1.29,1.36,2.88,2.52,7,3.38l7.92,1.8c4.61,1,5.18,2.45,5.18,4.18s-1.51,4.1-7,4.1c-5.18,0-7.78-2.74-8.07-6.55ZM179.9,731h9.86l0.07-16.27c0-5.48,1.37-8,3-9.72a8.72,8.72,0,0,1,6.7-2.88,13.23,13.23,0,0,1,1.66.14l0.07-8.71a14.58,14.58,0,0,0-2.09-.22A9.38,9.38,0,0,0,190,699.9l-0.36-5.54H180Zm-34.13-15.62L173,715.46c0-10.87-4.9-22.39-18.58-22.39-14,0-18.43,11.16-18.43,19.51,0,12.17,8.06,19.73,18.36,19.73s16.49-5.54,18-12l-9.94-.65c-1.87,3.38-4.39,4.75-7.63,4.75C150.09,724.45,146.28,721.29,145.77,715.38Zm0.43-7.13a8.37,8.37,0,0,1,8-7.49c4,0,7.48,2.73,8.2,7.49H146.2Zm-43.27,18.51c2.09,3.38,5.76,5.47,10.73,5.47,10,0,16.2-9.29,16.2-19.73,0-10-6-19.3-16.06-19.3a13.25,13.25,0,0,0-10.65,5l-0.43-3.74L93,694.5,93.07,743h9.79Z"/><path class="b" d="M127.05,811.8c-4.68,0-8.71-3.17-8.71-11.09,0-8.85,4.32-11.95,8.35-11.95s8.49,3.31,8.49,11.45C135.19,805.61,132.88,811.73,127.05,811.8Zm338.53,6.33h9.86l0.07-16.27c0-5.48,1.37-8,3-9.72a8.72,8.72,0,0,1,6.7-2.88,13.17,13.17,0,0,1,1.65.14l0.07-8.71a14.1,14.1,0,0,0-2.09-.22,9.39,9.39,0,0,0-9.15,6.55l-0.36-5.54h-9.65Zm-34.13-15.62,27.22,0.07c0-10.87-4.9-22.39-18.58-22.39-14,0-18.43,11.16-18.43,19.51,0,12.17,8.06,19.73,18.36,19.73s16.49-5.54,18-11.95l-9.94-.65c-1.87,3.38-4.39,4.75-7.63,4.75C435.78,811.58,432,808.41,431.46,802.51Zm0.43-7.13a8.37,8.37,0,0,1,8-7.49c4,0,7.49,2.74,8.21,7.49h-16.2ZM381.2,818.13h9.86l-0.07-12,4.18-4.1,10.08,16.13h12l-15-22.53,13.18-14.11H403.74l-12.67,14L391,767.16h-9.86ZM362.84,814a11.57,11.57,0,0,0,1.15,4.18h10.08a5.79,5.79,0,0,1-1.66-3.81V794.23c0-8.78-4.54-14-16.49-14-11.09,0-15.7,6.05-15.48,12.24l8.71,0.14c0-2.74,2-5.33,7.06-5.33,4.82,0,6.48,2.38,6.48,4.1,0,1.51-.93,2.88-3.6,3.38l-5.69.94c-8.06,1.44-10.23,3-11.81,4.32a10.21,10.21,0,0,0-3.38,7.63c0,6,4.82,11.52,14,11.52C357.59,819.14,360.76,817.34,362.84,814Zm0.07-15.12-0.07,4.61c0,5.18-3.24,8.42-8.85,8.42-4.11,0-6.12-2.45-6.12-4.68,0-1.73.65-3.67,6.84-5.4l4.25-1.15A12.12,12.12,0,0,0,362.92,798.84Zm-85,19.29h9.86L287.82,797c0-5.25,3-7.92,6.91-7.92a4.79,4.79,0,0,1,4.83,3.1c0.14,0.36.43,1.15,0.43,4v22h9.79V796.39c0-4.75,3-7.49,6.84-7.49,3.31,0,5.55,2,5.55,6.33v22.9h9.72l-0.07-25.7c-0.22-7.7-5.11-12.1-11.74-12.1a12.23,12.23,0,0,0-11.23,6.41,11.94,11.94,0,0,0-10.8-6.41c-4.9,0-8.21,2.16-10.15,5.83l-0.36-4.61-9.58-.07Zm-34.13-15.62L271,802.58c0-10.87-4.9-22.39-18.58-22.39-14,0-18.43,11.16-18.43,19.51,0,12.17,8.06,19.73,18.36,19.73s16.49-5.54,18-11.95l-9.94-.65c-1.87,3.38-4.39,4.75-7.63,4.75C248.08,811.58,244.26,808.41,243.76,802.51Zm0.43-7.13a8.38,8.38,0,0,1,8-7.49c4,0,7.49,2.74,8.2,7.49h-16.2Zm-25.7,9.43c-0.5,2.88-1.37,4-2.81,5.11a7.5,7.5,0,0,1-4.75,1.51c-4.46,0-8.5-3.17-8.5-11.37,0-9,4.32-12.31,8.86-12.31a7.19,7.19,0,0,1,7.05,6.26l9.43-.5C227,785.88,221.08,780,211,780c-7.2,0-12.24,2.81-15.55,7.7a21.09,21.09,0,0,0-3.53,12.24c0,7.42,3,13,7.63,16.41a18.42,18.42,0,0,0,11.37,3.38,18.18,18.18,0,0,0,7.27-1.22c5.55-2,8.93-6.19,9.65-13.25ZM175.07,814a11.65,11.65,0,0,0,1.15,4.18h10.08a5.78,5.78,0,0,1-1.66-3.81V794.23c0-8.78-4.54-14-16.49-14-11.09,0-15.7,6.05-15.48,12.24l8.71,0.14c0-2.74,2-5.33,7.06-5.33,4.82,0,6.48,2.38,6.48,4.1,0,1.51-.94,2.88-3.6,3.38l-5.69.94c-8.06,1.44-10.23,3-11.81,4.32a10.2,10.2,0,0,0-3.38,7.63c0,6,4.82,11.52,14,11.52C169.82,819.14,173,817.34,175.07,814Zm0.07-15.12-0.07,4.61c0,5.18-3.24,8.42-8.85,8.42-4.11,0-6.12-2.45-6.12-4.68,0-1.73.65-3.67,6.84-5.4l4.25-1.15A12.12,12.12,0,0,0,175.15,798.84Zm-56.88,15c2.09,3.38,5.76,5.47,10.73,5.47,10,0,16.2-9.29,16.2-19.73,0-10-6-19.3-16.06-19.3a13.25,13.25,0,0,0-10.65,5l-0.43-3.74-9.72.07,0.07,48.45h9.79Z"/><path class="c" d="M35.39,297.63c0,144.79,117.43,262.21,262.22,262.21S559.75,442.41,559.75,297.63,442.39,35.48,297.61,35.48,35.39,152.84,35.39,297.63Zm425,132.81c67.48-82.53,62.73-204.35-14.27-281.34s-198.86-81.8-281.4-14.32ZM134.66,164.86C67.23,247.41,72,369.27,149,446.25S347.78,528,430.32,460.52Z"/></svg>