<?xml version="1.0" encoding="UTF-8"?>
<svg id="Lager_1" data-name="Lager 1" xmlns="http://www.w3.org/2000/svg" viewBox="0 0 153.09 218.69">
  <defs>
    <style>
      .cls-1 {
        fill: #aa2825;
      }

      .cls-1, .cls-2, .cls-3 {
        fill-rule: evenodd;
      }

      .cls-2 {
        fill: #fff;
      }

      .cls-3 {
        fill: #1d1f22;
      }
    </style>
  </defs>
  <polyline class="cls-2" points="0 218.69 153.09 218.69 153.09 0 0 0 0 218.69"/>
  <path class="cls-3" d="M60.13,69.17v9.18c0,1.26-1.01,2.29-2.28,2.29h-16.11c-1.26,0-2.28-1.03-2.28-2.29v-16.1c0-1.26,1.02-2.28,2.28-2.28h6.91v9.2h11.48ZM77.57,42.44l1.05-.27c5.46-.9,8.86,1.52,12.35,5.48l1.43,1.65,1.59-1.8.83-.89c7.19-8.3,17.82-4.78,21.15,5.06.19.57.31,1.16.39,1.76,2.18,15.05-11.07,24.97-22.02,33.13l-1.94,1.45-2.86-2.11c-13.26-7.02-31.15-28.97-15.06-41.92l.74-.48v-1.05c0-6.04-6.42-9.9-11.77-7.11-2.65,1.38-4.35,4.11-4.34,7.11l.04,17.23c0,2.55-2.06,4.62-4.62,4.62h-3.58v2.52h11.48v11.51c0,2.55-2.06,4.63-4.61,4.63h-16.11c-2.55,0-4.61-2.08-4.61-4.63v-16.11c0-2.55,2.07-4.61,4.61-4.61h9.24v4.34h3.58c1.26,0,2.28-1.02,2.28-2.27v-17.24c0-4.1,2.44-7.78,6.16-9.47,5.57-2.53,12.2.42,14.07,6.24.22.69.41,1.4.45,2.13l.06,1.07Z"/>
  <path class="cls-1" d="M18.04,65.45c0,32.31,26.21,58.52,58.52,58.52s58.5-26.21,58.5-58.52S108.87,6.95,76.56,6.95s-58.52,26.19-58.52,58.5ZM112.91,95.09c15.06-18.42,14-45.6-3.18-62.79-17.18-17.18-44.38-18.25-62.8-3.19l65.98,65.98ZM40.2,35.82c-15.05,18.42-13.98,45.62,3.19,62.8,17.18,17.18,44.36,18.23,62.78,3.18L40.2,35.82Z"/>
  <polyline class="cls-1" points="10.06 133.73 143.05 133.73 143.05 208.97 10.06 208.97 10.06 133.73"/>
  <path class="cls-2" d="M15.1,153.69h9.78v-2.26h-7.07v-3.59h6.18v-2.15h-6.17v-2.91h6.94v-2.2h-9.67v13.11ZM132.51,153.69h2.54v-4.18c0-1.41.35-2.06.76-2.5.48-.5,1.02-.74,1.72-.74.15,0,.3.02.43.04l.02-2.24c-.13-.02-.33-.06-.54-.06-1.11,0-2.05.7-2.35,1.68l-.07-1.42h-2.5v9.42ZM125.64,154.06c3.04,0,5.07-2.04,5.07-5.11s-2.07-5.05-5-5.05-4.96,2.04-4.96,5.05,2.11,5.11,4.89,5.11ZM125.79,152.08c-1.31,0-2.44-.94-2.44-3.13s1.13-3.07,2.43-3.07c1.22,0,2.35.85,2.35,3.15s-1.2,3.05-2.33,3.05ZM126.14,143.14h2.54l-.02-2.55-2.52-.02v2.57ZM122.83,143.14h2.54l-.02-2.55-2.52-.02v2.57ZM115.26,153.69h2.54v-7.74h1.83v-1.68h-1.85v-.18c0-.85.17-1.09.31-1.26.2-.22.5-.39,1.11-.37h.43v-1.87h-1.44c-.87,0-3.17.15-2.93,3.68h-1.37v1.68h1.37v7.74ZM97.81,149.67l7,.02c0-2.8-1.26-5.76-4.78-5.76s-4.72,2.87-4.72,5.02c0,3.13,2.07,5.07,4.7,5.07s4.24-1.42,4.63-3.07l-2.56-.17c-.48.87-1.13,1.22-1.94,1.22-1.2,0-2.18-.81-2.33-2.33ZM97.93,147.84c.15-1.15,1.11-1.92,2.07-1.92,1.02,0,1.91.7,2.09,1.92h-4.17ZM90.91,152.73l.11.96h2.52l-.02-13.11h-2.54v4.76c-.46-.74-1.52-1.37-2.72-1.37-2.11,0-4.18,1.76-4.18,5.05,0,1.5.46,2.74,1.22,3.61.78.94,1.74,1.37,2.87,1.37s2.07-.44,2.74-1.28ZM88.91,151.82c-1.18,0-2.24-.85-2.24-2.85,0-2.24,1.09-3.04,2.15-3.04s2.13.8,2.13,2.96-1.09,2.91-2.04,2.92ZM79.72,152.62c.06.37.19.78.33,1.07h2.57c-.15-.13-.41-.55-.41-1.33l-.02-4.81c-.04-.83-.09-1.07-.15-1.28-.37-1.3-1.43-2.33-3.98-2.33-2.93,0-4.07,1.5-4.07,3.15l2.22.04c.09-.63.2-.76.39-.94.22-.22.7-.45,1.46-.45,1.18,0,1.63.63,1.63,1.07s-.28.76-.96.89l-2.52.44c-1.91.33-2.8,1.57-2.8,2.82,0,1.63,1.24,3.02,3.52,3.02,1.55,0,2.43-.63,2.78-1.35ZM79.74,148.67l-.02,1.41c-.06,1.18-.85,2-2.24,2-1.04,0-1.56-.63-1.56-1.18,0-.44.22-1.02,1.7-1.39l1.09-.3c.43-.09.76-.3,1.02-.54ZM78.22,143.14l2.54.02.02-2.57h-2.56v2.55ZM74.93,143.14h2.52l.02-2.57h-2.52l-.02,2.57ZM67.54,153.69h2.54v-4.18c0-1.41.35-2.06.76-2.5.48-.5,1.02-.74,1.72-.74.15,0,.3.02.43.04l.02-2.24c-.13-.02-.33-.06-.54-.06-1.11,0-2.05.7-2.35,1.68l-.07-1.42h-2.5v9.42ZM65.67,153.69v-1.94h-.94c-.3,0-.59-.17-.72-.35-.06-.07-.13-.22-.13-.74v-4.67h1.7v-1.72h-1.7l-.02-2.98h-2.52v2.98h-1.31v1.74l1.33-.02v4.87c0,2.13.87,2.83,2.26,2.83h2.06ZM55.91,153.69h2.54v-13.11h-2.52l-.02,13.11ZM51.41,153.69h2.54v-13.11h-2.52l-.02,13.11ZM46.91,153.69h2.52v-9.42h-2.52v9.42ZM46.91,142.84h2.54v-2.26h-2.54v2.26ZM45.14,153.69v-1.94h-.94c-.3,0-.59-.17-.72-.35-.05-.07-.13-.22-.13-.74v-4.67h1.7v-1.72h-1.7l-.02-2.98h-2.52v2.98h-1.31v1.74l1.33-.02v4.87c0,2.13.87,2.83,2.26,2.83h2.05ZM26.1,154.71v2.05l1.76-.02c1.59,0,2.39-.78,2.39-2.48l-.02-10h-2.54v8.91c0,1.33-.41,1.54-1.02,1.54h-.57ZM27.69,142.84h2.54v-2.26h-2.54v2.26Z"/>
  <path class="cls-2" d="M28.73,174.48c-1.2,0-2.24-.81-2.24-2.85,0-2.28,1.11-3.07,2.15-3.07s2.19.85,2.19,2.94c0,1.39-.59,2.96-2.09,2.98ZM126.51,175.14l.11.96h2.5v-13.11h-2.56v4.76c-.44-.74-1.5-1.37-2.72-1.37-2.09,0-4.18,1.76-4.18,5.05,0,1.5.48,2.74,1.22,3.61.78.95,1.76,1.37,2.87,1.37s2.09-.45,2.76-1.28ZM124.51,174.24c-1.2,0-2.24-.85-2.24-2.85,0-2.24,1.09-3.04,2.13-3.04s2.15.8,2.15,2.96-1.09,2.91-2.04,2.93ZM111.09,172.09l7,.02c0-2.8-1.26-5.76-4.78-5.76s-4.74,2.87-4.74,5.02c0,3.13,2.07,5.07,4.72,5.07s4.24-1.43,4.63-3.07l-2.56-.17c-.48.87-1.13,1.22-1.96,1.22-1.2,0-2.18-.82-2.31-2.33ZM111.2,170.26c.15-1.15,1.09-1.93,2.06-1.93,1.04,0,1.93.7,2.11,1.93h-4.17ZM93,176.11h2.54l.02-5.44c0-1.35.76-2.04,1.78-2.04.67,0,1.07.33,1.26.8.04.09.11.3.11,1.04v5.65h2.52v-5.59c0-1.22.76-1.93,1.76-1.93.85,0,1.43.52,1.43,1.63v5.89h2.5l-.02-6.61c-.06-1.98-1.31-3.11-3.02-3.11-1.3,0-2.33.61-2.89,1.65-.5-.98-1.54-1.65-2.78-1.65s-2.13.55-2.63,1.5l-.09-1.18-2.46-.02-.02,9.42ZM74.95,176.11h2.52l.02-5.28c0-.74.15-1.09.35-1.39.33-.48.94-.8,1.54-.8.89,0,1.52.57,1.52,1.63l-.02,5.83h2.54v-6.65c0-1.76-1.3-3.11-3.24-3.11-1.35,0-2.3.72-2.63,1.46l-.09-1.11-2.48-.02-.02,9.42ZM68.21,176.46c2.87,0,4.96-2.02,4.96-5.09s-2.05-5.04-4.98-5.04-4.94,2.04-4.94,5.02,2.11,5.11,4.96,5.11ZM68.21,174.48c-1.2,0-2.37-.92-2.37-3.02,0-2.26,1.13-3.15,2.37-3.15s2.37.91,2.37,3.05-1.15,3.11-2.37,3.11ZM52.91,172.96c.06,1.78,1.56,3.48,4.44,3.48s4.22-1.57,4.22-3.26c0-.59-.2-1.18-.57-1.65-.35-.44-.81-.78-1.93-1.04l-2.7-.63c-.57-.15-.8-.5-.8-.83,0-.37.33-.95,1.57-.95,1.33,0,1.93.7,1.94,1.46l2.24-.04c-.06-.94-.56-1.89-1.35-2.48-.56-.39-1.43-.72-2.8-.72-2.72,0-3.92,1.46-3.92,3.07,0,.76.22,1.3.67,1.78.33.35.74.65,1.8.87l2.04.46c1.19.26,1.33.63,1.33,1.07,0,.41-.39,1.06-1.8,1.06-1.33,0-2-.7-2.07-1.68l-2.31.02ZM46.27,176.11h2.54l.02-4.18c0-1.41.35-2.05.76-2.5.48-.5,1.02-.74,1.72-.74.15,0,.28.02.43.04l.02-2.24c-.13-.02-.33-.06-.54-.06-1.11,0-2.07.7-2.35,1.68l-.09-1.43h-2.48l-.02,9.42ZM37.49,172.09l7,.02c0-2.8-1.26-5.76-4.78-5.76s-4.74,2.87-4.74,5.02c0,3.13,2.07,5.07,4.72,5.07s4.24-1.43,4.63-3.07l-2.56-.17c-.48.87-1.13,1.22-1.96,1.22-1.2,0-2.18-.82-2.31-2.33ZM37.6,170.26c.15-1.15,1.09-1.93,2.06-1.93,1.04,0,1.92.7,2.11,1.93h-4.17ZM26.47,175.01c.54.87,1.48,1.41,2.76,1.41,2.57,0,4.17-2.39,4.17-5.07s-1.56-4.96-4.13-4.96c-1.15,0-2.07.46-2.74,1.28l-.11-.96-2.5.02.02,12.46h2.52l.02-4.17Z"/>
  <path class="cls-2" d="M32.67,196.88c-1.2,0-2.24-.81-2.24-2.85,0-2.28,1.11-3.07,2.15-3.07s2.18.85,2.18,2.94c0,1.39-.59,2.96-2.09,2.98ZM119.73,198.51h2.54l.02-4.18c0-1.41.35-2.05.76-2.5.48-.5,1.02-.74,1.72-.74.15,0,.28.02.43.04l.02-2.24c-.13-.02-.33-.06-.54-.06-1.11,0-2.07.7-2.35,1.68l-.09-1.43h-2.48l-.02,9.42ZM110.96,194.5l7,.02c0-2.8-1.26-5.76-4.78-5.76s-4.74,2.87-4.74,5.02c0,3.13,2.07,5.07,4.72,5.07s4.24-1.43,4.63-3.07l-2.56-.17c-.48.87-1.13,1.22-1.96,1.22-1.2,0-2.18-.82-2.31-2.33ZM111.07,192.66c.15-1.15,1.09-1.93,2.06-1.93,1.04,0,1.93.7,2.11,1.93h-4.17ZM98.04,198.51h2.54l-.02-3.09,1.07-1.06,2.59,4.15h3.09l-3.87-5.8,3.39-3.63h-3l-3.26,3.59-.02-7.28h-2.54l.02,13.11ZM93.31,197.44c.06.46.15.8.3,1.07h2.59c-.33-.39-.41-.67-.43-.98v-5.17c0-2.26-1.17-3.61-4.24-3.61-2.85,0-4.04,1.55-3.98,3.15l2.24.04c0-.7.52-1.37,1.81-1.37s1.67.61,1.67,1.06c0,.39-.24.74-.93.87l-1.46.24c-2.07.37-2.63.76-3.04,1.11-.55.5-.87,1.2-.87,1.96,0,1.56,1.24,2.96,3.61,2.96,1.37,0,2.19-.46,2.72-1.33ZM93.33,193.55l-.02,1.18c0,1.33-.83,2.17-2.28,2.17-1.06,0-1.57-.63-1.57-1.2,0-.44.17-.94,1.76-1.39l1.09-.3c.48-.13.82-.31,1.02-.46ZM71.46,198.51h2.54l.02-5.44c0-1.35.76-2.04,1.78-2.04.67,0,1.06.33,1.24.8.04.09.11.3.11,1.04v5.65h2.52v-5.59c0-1.22.76-1.93,1.76-1.93.85,0,1.43.52,1.43,1.63v5.89h2.5l-.02-6.61c-.06-1.98-1.32-3.11-3.02-3.11-1.3,0-2.33.61-2.89,1.65-.5-.98-1.54-1.65-2.78-1.65s-2.11.55-2.61,1.5l-.09-1.18-2.46-.02-.02,9.42ZM62.69,194.5l7,.02c0-2.8-1.26-5.76-4.78-5.76s-4.74,2.87-4.74,5.02c0,3.13,2.07,5.07,4.72,5.07s4.24-1.43,4.63-3.07l-2.56-.17c-.48.87-1.13,1.22-1.96,1.22-1.2,0-2.19-.82-2.32-2.33ZM62.8,192.66c.15-1.15,1.09-1.93,2.06-1.93,1.04,0,1.93.7,2.11,1.93h-4.17ZM56.19,195.09c-.13.74-.35,1.04-.72,1.31-.32.24-.7.39-1.22.39-1.15,0-2.18-.82-2.18-2.93,0-2.31,1.11-3.17,2.28-3.17.91,0,1.67.67,1.81,1.61l2.43-.13c-.2-1.96-1.72-3.48-4.31-3.48-1.85,0-3.15.72-4,1.98-.56.82-.91,1.83-.91,3.15,0,1.91.78,3.35,1.96,4.22.74.54,1.65.87,2.93.87.89,0,1.41-.13,1.87-.32,1.43-.52,2.3-1.59,2.48-3.41l-2.41-.11ZM45.02,197.44c.06.46.15.8.3,1.07h2.59c-.33-.39-.41-.67-.43-.98v-5.17c0-2.26-1.17-3.61-4.24-3.61-2.85,0-4.04,1.55-3.98,3.15l2.24.04c0-.7.52-1.37,1.82-1.37s1.67.61,1.67,1.06c0,.39-.24.74-.93.87l-1.46.24c-2.07.37-2.63.76-3.04,1.11-.56.5-.87,1.2-.87,1.96,0,1.56,1.24,2.96,3.61,2.96,1.37,0,2.19-.46,2.72-1.33ZM45.04,193.55l-.02,1.18c0,1.33-.83,2.17-2.28,2.17-1.06,0-1.57-.63-1.57-1.2,0-.44.17-.94,1.76-1.39l1.09-.3c.48-.13.81-.31,1.02-.46ZM30.42,197.42c.54.87,1.48,1.41,2.76,1.41,2.57,0,4.17-2.39,4.17-5.07s-1.55-4.96-4.13-4.96c-1.15,0-2.07.46-2.74,1.28l-.11-.96-2.5.02.02,12.46h2.52l.02-4.17Z"/>
</svg>