<?xml version="1.0" encoding="UTF-8"?>
<svg id="Lager_1" data-name="Lager 1" xmlns="http://www.w3.org/2000/svg" viewBox="0 0 153.09 218.69">
  <defs>
    <style>
      .cls-1 {
        fill: #aa2825;
      }

      .cls-1, .cls-2, .cls-3 {
        fill-rule: evenodd;
      }

      .cls-2 {
        fill: #fff;
      }

      .cls-3 {
        fill: #1d1f22;
      }
    </style>
  </defs>
  <polyline class="cls-2" points="0 218.69 153.09 218.69 153.09 0 0 0 0 218.69"/>
  <path class="cls-3" d="M69.24,84.86c-2.38-2.28-5.74-2.85-8.64-1.82l-18.81-18.24-3.97.65,1.62,5.56,4.56.38,1.69,4.73,5.17,1.56.55,4.83,4.59,4.56c-1.67,3.22-1.15,7.26,1.6,9.9,3.34,3.21,8.65,3.11,11.87-.23,3.21-3.34,3.1-8.66-.23-11.87ZM67.55,94.89c.85-.88.82-2.28-.06-3.12-.88-.85-2.27-.82-3.12.06-.84.88-.81,2.27.06,3.12.88.84,2.27.82,3.12-.06Z"/>
  <path class="cls-3" d="M114.03,63.44h-1.23c-.97-8.88-7.19-16.19-15.5-18.75v-16.28s-3.36-1.84-7.25-3.17c-4.4-1.23-5.78-1.48-5.78-1.48v20.93c-9.04,2.79-15.63,11.22-15.63,21.17s6.59,18.38,15.63,21.17v19.99s3.95-.92,7.09-1.94c3.14-1.03,5.94-2.69,5.94-2.69v-15.36c8.13-2.51,14.26-9.58,15.41-18.22h1.32v-5.36ZM72.62,65.86c0,10.02,8.11,18.13,18.13,18.13s18.15-8.12,18.15-18.13-8.13-18.15-18.15-18.15-18.13,8.13-18.13,18.15ZM102.22,54.91l-1.51-1.39-9.02,9.83c-.11-.04-.24-.05-.35-.07l-5.09-7.08-3.17,2.28,5.08,7.07c-.01.11-.06.2-.06.31,0,1.48,1.21,2.69,2.69,2.69s2.69-1.21,2.69-2.69c0-.41-.1-.78-.26-1.12l9.01-9.83Z"/>
  <path class="cls-1" d="M18.04,65.45c0,32.31,26.2,58.52,58.52,58.52s58.5-26.21,58.5-58.52S108.87,6.95,76.56,6.95s-58.52,26.19-58.52,58.5ZM112.89,95.09c15.06-18.42,14-45.6-3.18-62.79-17.18-17.18-44.38-18.25-62.8-3.19l65.98,65.98ZM40.2,35.82c-15.05,18.42-13.98,45.62,3.19,62.8,17.18,17.18,44.36,18.23,62.78,3.18L40.2,35.82Z"/>
  <polyline class="cls-1" points="10.06 133.73 143.06 133.73 143.06 208.97 10.06 208.97 10.06 133.73"/>
  <path class="cls-2" d="M33.6,153.69h9.78v-2.26h-7.06v-3.59h6.18v-2.15h-6.18v-2.91h6.94v-2.2h-9.67v13.11ZM111.87,148.25h7.57v-2.24h-7.57v2.24ZM107.37,153.69h2.54v-13.11h-2.52l-.02,13.11ZM102.87,153.69h2.54v-13.11h-2.52l-.02,13.11ZM98.17,152.62c.04.46.15.8.3,1.07h2.59c-.33-.39-.43-.67-.43-.98v-5.17c0-2.26-1.17-3.61-4.24-3.61-2.85,0-4.04,1.56-3.98,3.15l2.24.04c0-.7.52-1.37,1.81-1.37s1.65.61,1.65,1.05c0,.39-.24.74-.93.87l-1.44.24c-2.07.37-2.65.76-3.04,1.11-.56.5-.87,1.2-.87,1.96,0,1.55,1.22,2.96,3.61,2.96,1.37,0,2.18-.46,2.72-1.33ZM98.17,148.73v1.18c0,1.33-.83,2.17-2.28,2.17-1.07,0-1.57-.63-1.57-1.2,0-.45.15-.95,1.74-1.39l1.11-.3c.48-.13.8-.32,1-.46ZM90.22,153.69v-1.94h-.94c-.32,0-.61-.17-.74-.35-.06-.07-.13-.22-.13-.74v-4.67h1.72v-1.72h-1.7l-.02-2.98h-2.52v2.98h-1.33v1.74l1.33-.02v4.87c0,2.13.87,2.83,2.28,2.83h2.06ZM76.47,149.67l6.98.02c0-2.8-1.28-5.76-4.78-5.76s-4.72,2.87-4.72,5.02c0,3.13,2.07,5.07,4.7,5.07s4.24-1.42,4.61-3.07l-2.54-.17c-.48.87-1.15,1.22-1.96,1.22-1.2,0-2.19-.81-2.3-2.33ZM76.56,147.84c.15-1.15,1.09-1.92,2.05-1.92,1.04,0,1.93.7,2.09,1.92h-4.15ZM58.38,153.69h2.54l.02-5.44c0-1.35.74-2.04,1.76-2.04.68,0,1.09.33,1.28.8.04.09.11.3.11,1.04v5.65h2.52v-5.59c0-1.22.74-1.93,1.74-1.93.87,0,1.44.52,1.44,1.63v5.89h2.5l-.02-6.61c-.06-1.98-1.31-3.11-3.04-3.11-1.3,0-2.32.61-2.89,1.65-.48-.98-1.52-1.65-2.78-1.65s-2.13.56-2.61,1.5l-.09-1.18-2.46-.02-.02,9.42ZM44.6,154.71v2.05l1.76-.02c1.61,0,2.39-.78,2.39-2.48l-.02-10h-2.52l-.02,8.91c0,1.33-.39,1.54-1,1.54h-.59ZM46.19,142.84h2.56l-.02-2.26h-2.54v2.26Z"/>
  <path class="cls-2" d="M22.25,177.48h2.54v-7.74h1.83v-1.68h-1.85v-.18c0-.85.17-1.09.31-1.26.2-.22.5-.39,1.11-.37h.43v-1.87h-1.44c-.87,0-3.17.15-2.93,3.68h-1.37v1.68h1.37v7.74ZM126.73,177.48h2.54v-4.18c0-1.41.35-2.05.76-2.5.48-.5,1.02-.74,1.72-.74.15,0,.3.02.43.04l.02-2.24c-.13-.02-.33-.06-.54-.06-1.11,0-2.06.7-2.35,1.68l-.07-1.43h-2.5v9.42ZM117.94,173.46l7,.02c0-2.8-1.26-5.76-4.78-5.76s-4.72,2.87-4.72,5.02c0,3.13,2.07,5.07,4.7,5.07s4.24-1.42,4.63-3.07l-2.55-.17c-.48.87-1.13,1.22-1.96,1.22-1.2,0-2.18-.82-2.31-2.33ZM118.05,171.63c.15-1.15,1.09-1.93,2.07-1.93s1.91.7,2.09,1.93h-4.17ZM111.12,177.48h2.54v-13.11h-2.52l-.02,13.11ZM106.63,177.48h2.54v-13.11h-2.52l-.02,13.11ZM97.83,173.46l7,.02c0-2.8-1.26-5.76-4.78-5.76s-4.72,2.87-4.72,5.02c0,3.13,2.07,5.07,4.7,5.07s4.24-1.42,4.63-3.07l-2.56-.17c-.48.87-1.13,1.22-1.96,1.22-1.2,0-2.18-.82-2.31-2.33ZM97.94,171.63c.15-1.15,1.09-1.93,2.07-1.93s1.91.7,2.09,1.93h-4.17ZM83.35,177.48h2.54v-13.11h-2.52l-.02,13.11ZM78.93,176.4c.06.37.19.78.33,1.07h2.57c-.15-.13-.41-.56-.41-1.33l-.04-4.81c-.02-.83-.07-1.07-.13-1.28-.39-1.3-1.42-2.33-4-2.33-2.91,0-4.07,1.5-4.07,3.15l2.24.04c.09-.63.2-.76.41-.94.22-.22.7-.45,1.44-.45,1.18,0,1.63.63,1.63,1.07s-.28.76-.96.89l-2.52.44c-1.91.33-2.8,1.57-2.8,2.82,0,1.63,1.24,3.02,3.54,3.02,1.54,0,2.41-.63,2.76-1.35ZM78.95,172.46l-.02,1.41c-.05,1.18-.85,2-2.24,2-1.04,0-1.55-.63-1.55-1.18,0-.44.22-1.02,1.7-1.39l1.09-.3c.43-.09.76-.3,1.02-.54ZM77.09,166.96c.65,0,1.24-.59,1.24-1.32s-.59-1.31-1.3-1.31-1.32.61-1.32,1.31c0,.74.57,1.32,1.37,1.32ZM77.06,166.42c-.48,0-.8-.35-.8-.78s.35-.78.76-.8c.43,0,.78.33.78.8s-.37.78-.74.78ZM57.1,177.48h2.54v-5.44c0-1.35.76-2.04,1.78-2.04.67,0,1.07.33,1.26.8.06.09.11.3.11,1.04v5.65h2.52v-5.59c0-1.22.76-1.93,1.76-1.93.85,0,1.42.52,1.42,1.63v5.89h2.5l-.02-6.61c-.06-1.98-1.3-3.11-3.02-3.11-1.3,0-2.33.61-2.89,1.65-.48-.98-1.54-1.65-2.78-1.65s-2.13.56-2.63,1.5l-.09-1.18-2.44-.02-.02,9.42ZM48.3,173.46l7,.02c0-2.8-1.26-5.76-4.78-5.76s-4.72,2.87-4.72,5.02c0,3.13,2.07,5.07,4.7,5.07s4.24-1.42,4.63-3.07l-2.56-.17c-.48.87-1.13,1.22-1.96,1.22-1.2,0-2.19-.82-2.32-2.33ZM48.41,171.63c.15-1.15,1.09-1.93,2.07-1.93s1.91.7,2.09,1.93h-4.17ZM39.51,177.48h2.54v-4.18c0-1.41.35-2.05.76-2.5.48-.5,1.02-.74,1.72-.74.15,0,.3.02.43.04l.02-2.24c-.13-.02-.33-.06-.54-.06-1.11,0-2.05.7-2.35,1.68l-.07-1.43h-2.5v9.42ZM32.64,177.85c3.04,0,5.07-2.04,5.07-5.11s-2.07-5.05-5-5.05-4.96,2.04-4.96,5.05,2.11,5.11,4.89,5.11ZM32.79,175.87c-1.33,0-2.44-.94-2.44-3.13s1.13-3.07,2.43-3.07c1.22,0,2.35.85,2.35,3.15s-1.2,3.05-2.33,3.05ZM33.12,166.92h2.56l-.02-2.55-2.54-.02v2.57ZM29.82,166.92h2.54l-.02-2.55-2.52-.02v2.57Z"/>
  <path class="cls-2" d="M44.06,199.85h2.54l-.02-3.09,1.07-1.06,2.59,4.15h3.09l-3.87-5.8,3.37-3.63h-3l-3.24,3.59-.02-7.28h-2.54l.02,13.11ZM103.55,199.85h2.54l.02-4.18c0-1.41.33-2.05.76-2.5.46-.5,1.02-.74,1.72-.74.15,0,.28.02.42.04l.02-2.24c-.13-.02-.33-.06-.54-.06-1.11,0-2.07.7-2.37,1.68l-.07-1.43h-2.48l-.02,9.42ZM96.81,200.2c2.87,0,4.96-2.02,4.96-5.09s-2.06-5.04-4.98-5.04-4.94,2.04-4.94,5.02,2.09,5.11,4.96,5.11ZM96.79,198.22c-1.2,0-2.35-.92-2.35-3.02,0-2.26,1.13-3.15,2.37-3.15s2.37.91,2.37,3.05-1.15,3.11-2.39,3.11ZM81.44,199.85h2.54l-.02-3.09,1.07-1.06,2.59,4.15h3.09l-3.87-5.8,3.37-3.63h-3l-3.24,3.59-.02-7.28h-2.54l.02,13.11ZM77.24,196.42c-.13.74-.35,1.04-.7,1.32-.32.24-.7.39-1.22.39-1.15,0-2.18-.82-2.18-2.93,0-2.31,1.11-3.17,2.28-3.17.91,0,1.65.67,1.78,1.61l2.44-.13c-.2-1.96-1.74-3.48-4.3-3.48-1.85,0-3.15.72-4,1.98-.57.81-.91,1.83-.91,3.15,0,1.91.78,3.35,1.96,4.22.74.54,1.65.87,2.93.87.89,0,1.39-.13,1.85-.32,1.43-.52,2.3-1.59,2.48-3.41l-2.41-.11ZM63.89,200.2c2.87,0,4.96-2.02,4.96-5.09s-2.06-5.04-4.98-5.04-4.94,2.04-4.94,5.02,2.09,5.11,4.96,5.11ZM63.87,198.22c-1.2,0-2.35-.92-2.35-3.02,0-2.26,1.13-3.15,2.37-3.15s2.37.91,2.37,3.05-1.15,3.11-2.39,3.11ZM54.62,199.85h2.54v-13.11h-2.52l-.02,13.11Z"/>
</svg>