<svg xmlns="http://www.w3.org/2000/svg" viewBox="0 0 595.28 850.36"><defs><style>.a{fill:#e5e8eb;}.a,.b,.c{fill-rule:evenodd;}.b{fill:#000100;}.c{fill:#ad1922;}</style></defs><title>P008_C</title><polyline class="a" points="0 850.36 595.28 850.36 595.28 0 0 0 0 850.36"/><path class="b" d="M264.76,384.57a37.54,37.54,0,0,0-38.71-8.15l-84.29-81.75L124,297.56l7.27,24.93,20.45,1.7,7.55,21.2,23.17,7L184.88,374l20.56,20.41A37.55,37.55,0,1,0,264.76,384.57Zm-7.54,45a9.88,9.88,0,1,0-14,.27A9.86,9.86,0,0,0,257.22,429.52Z"/><path class="b" d="M465.49,288.6H460a99.46,99.46,0,0,0-69.44-84v-73A235.06,235.06,0,0,0,358,117.39c-19.71-5.49-25.92-6.62-25.92-6.62v93.79a99.24,99.24,0,0,0,0,189.7v89.59s17.68-4.1,31.76-8.71a152.18,152.18,0,0,0,26.63-12.06V394.27a99.44,99.44,0,0,0,69.07-81.63h5.9v-24ZM280,299.47a81.28,81.28,0,1,0,81.25-81.32A81.23,81.23,0,0,0,280,299.47Zm132.57-49.11-6.76-6.21L365.39,288.2a13.54,13.54,0,0,0-1.59-.32L341,256.14l-14.19,10.21L349.56,298a11,11,0,0,0-.28,1.38,12,12,0,0,0,24.1,0,11.78,11.78,0,0,0-1.19-5Z"/><path class="b" d="M130.66,643.92h38v-8.78H141.24v-14h24v-8.35h-24v-11.3h27V593H130.66v51ZM435,622.76h29.45V614H435v8.71ZM417.5,643.92h9.86V593h-9.79Zm-17.49,0h9.86V593h-9.79Zm-18.29-4.18a10.32,10.32,0,0,0,1.15,4.18h10.08a5.48,5.48,0,0,1-1.66-3.81V620c0-8.78-4.53-14-16.49-14-11.09,0-15.69,6.05-15.48,12.24l8.71,0.14c0-2.74,2-5.33,7.05-5.33,4.83,0,6.41,2.38,6.41,4.1,0,1.51-.93,2.88-3.6,3.39l-5.61.93c-8.07,1.44-10.3,3-11.81,4.32a10.19,10.19,0,0,0-3.39,7.63c0,6,4.75,11.52,14,11.52C376.46,644.93,379.63,643.13,381.71,639.75Zm0-15.12v4.61c0,5.18-3.24,8.42-8.86,8.42-4.18,0-6.12-2.45-6.12-4.68,0-1.73.58-3.67,6.77-5.4l4.32-1.15A11.63,11.63,0,0,0,381.71,624.63Zm-30.89,19.29v-7.56h-3.67a3.68,3.68,0,0,1-2.88-1.37c-0.22-.29-0.51-0.86-0.51-2.88V614h6.7v-6.7h-6.63l-0.07-11.59H334v11.59H328.8V614L334,614v18.93c0,8.28,3.38,11,8.85,11h8Zm-53.5-15.62,27.15,0.07c0-10.87-5-22.39-18.58-22.39-14,0-18.36,11.16-18.36,19.51,0,12.17,8.06,19.73,18.29,19.73s16.49-5.54,17.93-11.95l-9.87-.65c-1.87,3.38-4.46,4.75-7.63,4.75C301.58,637.37,297.76,634.21,297.33,628.3Zm0.36-7.13a8.37,8.37,0,0,1,8-7.49c4,0,7.49,2.73,8.13,7.49H297.69ZM227,643.92h9.87l0.07-21.17c0-5.26,2.88-7.92,6.84-7.92a4.91,4.91,0,0,1,5,3.1c0.14,0.36.43,1.15,0.43,4v22H259V622.18c0-4.75,2.88-7.49,6.77-7.49,3.38,0,5.61,2,5.61,6.33v22.9h9.72L281,618.22c-0.21-7.7-5.11-12.1-11.81-12.1a12.3,12.3,0,0,0-11.23,6.41,11.78,11.78,0,0,0-10.8-6.41c-5,0-8.28,2.16-10.15,5.83l-0.36-4.61-9.58-.07Zm-53.56,4v8l6.84-.07c6.26,0,9.29-3,9.29-9.65l-0.07-38.88h-9.79l-0.07,34.63c0,5.18-1.51,6-3.89,6h-2.3Zm6.19-46.15h9.94L189.48,593h-9.86v8.78Z"/><path class="b" d="M86.52,731h9.86V700.91h7.13v-6.55h-7.2v-0.72c0-3.31.65-4.25,1.22-4.9,0.79-.86,1.94-1.51,4.32-1.44h1.66V680H97.89c-3.38,0-12.31.58-11.37,14.33H81.19v6.55h5.33V731Zm406.28,0h9.86V714.74c0-5.48,1.37-8,3-9.72a8.72,8.72,0,0,1,6.7-2.88,12.17,12.17,0,0,1,1.66.14l0.07-8.71a14.64,14.64,0,0,0-2.09-.22,9.45,9.45,0,0,0-9.14,6.55l-0.29-5.54H492.8V731Zm-34.2-15.62,27.22,0.07c0-10.87-4.9-22.39-18.58-22.39-14,0-18.36,11.16-18.36,19.51,0,12.17,8.06,19.73,18.29,19.73s16.49-5.54,18-12l-9.93-.65c-1.87,3.38-4.39,4.75-7.63,4.75C462.92,724.45,459.11,721.29,458.6,715.38Zm0.43-7.13a8.38,8.38,0,0,1,8.06-7.49c4,0,7.42,2.73,8.13,7.49H459ZM432.1,731H442V680h-9.79Zm-17.49,0h9.86V680h-9.79Zm-34.2-15.62,27.22,0.07c0-10.87-4.9-22.39-18.58-22.39-14,0-18.36,11.16-18.36,19.51,0,12.17,8.06,19.73,18.29,19.73s16.49-5.54,18-12L397,719.7c-1.87,3.38-4.39,4.75-7.63,4.75C384.73,724.45,380.91,721.29,380.41,715.38Zm0.43-7.13a8.38,8.38,0,0,1,8.07-7.49c4,0,7.42,2.73,8.13,7.49h-16.2ZM324.11,731H334V680h-9.79Zm-17.21-4.18a14.84,14.84,0,0,0,1.3,4.18h10c-0.58-.5-1.58-2.16-1.58-5.18l-0.14-18.72a18.58,18.58,0,0,0-.51-5c-1.51-5-5.54-9.07-15.55-9.07-11.3,0-15.84,5.83-15.84,12.24l8.71,0.14c0.36-2.45.79-3,1.58-3.67s2.74-1.73,5.61-1.73c4.61,0,6.34,2.45,6.34,4.18s-1.08,3-3.74,3.46l-9.79,1.73c-7.42,1.3-10.87,6.12-10.87,10.95,0,6.33,4.82,11.74,13.75,11.74C302.15,732.09,305.53,729.64,306.9,726.83ZM307,711.49L306.9,717c-0.21,4.61-3.31,7.77-8.71,7.77-4,0-6-2.45-6-4.61,0-1.73.86-4,6.62-5.4l4.25-1.15A8.34,8.34,0,0,0,307,711.49Zm-7.2-21.38a5.12,5.12,0,0,0-.21-10.22,5.18,5.18,0,0,0-5.11,5.11A5.09,5.09,0,0,0,299.77,690.11ZM299.63,688a3,3,0,0,1-3.1-3,3.15,3.15,0,0,1,3-3.1A3.06,3.06,0,0,1,299.63,688ZM222,731h9.86V709.84c0-5.26,3-7.92,6.91-7.92a4.88,4.88,0,0,1,4.9,3.1c0.22,0.36.43,1.15,0.43,4v22h9.8V709.26c0-4.75,3-7.49,6.84-7.49,3.31,0,5.54,2,5.54,6.33V731H276l-0.07-25.7c-0.21-7.7-5-12.1-11.74-12.1A12.22,12.22,0,0,0,253,699.61a11.87,11.87,0,0,0-10.8-6.41c-5,0-8.28,2.16-10.23,5.83l-0.36-4.61-9.5-.07Zm-34.2-15.62L215,715.46c0-10.87-4.9-22.39-18.58-22.39-14,0-18.36,11.16-18.36,19.51,0,12.17,8.06,19.73,18.29,19.73s16.49-5.54,18-12l-9.94-.65c-1.87,3.38-4.39,4.75-7.63,4.75C192.14,724.45,188.32,721.29,187.82,715.38Zm0.43-7.13a8.39,8.39,0,0,1,8.06-7.49c4,0,7.42,2.73,8.13,7.49h-16.2ZM153.62,731h9.86V714.74c0-5.48,1.37-8,3-9.72a8.72,8.72,0,0,1,6.7-2.88,12.17,12.17,0,0,1,1.66.14l0.07-8.71a14.57,14.57,0,0,0-2.09-.22,9.45,9.45,0,0,0-9.14,6.55l-0.29-5.54h-9.72V731Zm-26.71,1.44c11.81,0,19.73-7.92,19.73-19.87,0-11.74-8.06-19.66-19.44-19.66-11.09,0-19.29,7.92-19.29,19.66C107.9,724.53,116.11,732.45,126.91,732.45Zm0.58-7.71c-5.18,0-9.5-3.67-9.5-12.17,0-8.21,4.39-11.95,9.43-11.95,4.75,0,9.15,3.31,9.15,12.24C136.55,721.5,131.87,724.74,127.48,724.74ZM128.78,690h9.94L138.64,680l-9.86-.07v10ZM116,690h9.86L125.76,680,116,680v10Z"/><path class="b" d="M171.33,818.13h9.86l-0.07-12,4.18-4.1,10.08,16.13h12l-15-22.53,13.1-14.11H193.79l-12.6,14-0.07-28.3h-9.86Zm231.33,0h9.87l0.07-16.27c0-5.48,1.3-8,3-9.72a8.61,8.61,0,0,1,6.7-2.88,13.16,13.16,0,0,1,1.65.14L424,780.7a14.11,14.11,0,0,0-2.09-.22,9.54,9.54,0,0,0-9.22,6.55l-0.29-5.54h-9.65Zm-26.21,1.37c11.16,0,19.3-7.85,19.3-19.8,0-11.59-8-19.58-19.37-19.58-11.09,0-19.22,7.92-19.22,19.51C357.15,811.73,365.29,819.5,376.45,819.5Zm-0.07-7.7c-4.68,0-9.15-3.6-9.15-11.74,0-8.78,4.39-12.24,9.22-12.24s9.22,3.53,9.22,11.88C385.66,808.27,381.2,811.8,376.38,811.8Zm-59.69,6.33h9.86l-0.07-12,4.17-4.1,10.08,16.13h12l-15-22.53,13.1-14.11H339.16l-12.6,14-0.07-28.3h-9.86Zm-16.34-13.32c-0.5,2.88-1.37,4-2.73,5.11a7.5,7.5,0,0,1-4.75,1.51c-4.46,0-8.5-3.17-8.5-11.37,0-9,4.32-12.31,8.85-12.31a7,7,0,0,1,6.91,6.26l9.5-.5c-0.79-7.63-6.77-13.54-16.7-13.54-7.2,0-12.24,2.81-15.55,7.7a20.56,20.56,0,0,0-3.53,12.24c0,7.42,3,13,7.63,16.41a18.44,18.44,0,0,0,11.38,3.38,17.78,17.78,0,0,0,7.2-1.22c5.55-2,8.93-6.19,9.65-13.25ZM248.44,819.5c11.16,0,19.3-7.85,19.3-19.8,0-11.59-8-19.58-19.37-19.58-11.09,0-19.22,7.92-19.22,19.51C229.14,811.73,237.28,819.5,248.44,819.5Zm-0.07-7.7c-4.68,0-9.15-3.6-9.15-11.74,0-8.78,4.39-12.24,9.22-12.24s9.22,3.53,9.22,11.88C257.65,808.27,253.19,811.8,248.37,811.8Zm-36,6.33h9.86v-51h-9.79Z"/><path class="c" d="M35.39,297.63c0,144.79,117.43,262.21,262.21,262.21S559.75,442.41,559.75,297.63,442.39,35.48,297.6,35.48,35.39,152.84,35.39,297.63Zm425,132.81c67.48-82.53,62.73-204.35-14.27-281.34s-198.85-81.8-281.39-14.32ZM134.66,164.86C67.22,247.41,72,369.27,149,446.25S347.78,528,430.32,460.52Z"/></svg>