<?xml version="1.0" encoding="UTF-8"?>
<svg id="Lager_1" data-name="Lager 1" xmlns="http://www.w3.org/2000/svg" viewBox="0 0 153.09 218.69">
  <defs>
    <style>
      .cls-1 {
        fill: #aa2825;
      }

      .cls-1, .cls-2, .cls-3 {
        fill-rule: evenodd;
      }

      .cls-2 {
        fill: #fff;
      }

      .cls-3 {
        fill: #1d1f22;
      }
    </style>
  </defs>
  <polyline class="cls-2" points="0 218.69 153.09 218.69 153.09 0 0 0 0 218.69"/>
  <path class="cls-3" d="M76.38,85.52v13.12h4.4v-13.12h13.61v13.22h-35.54v-13.22h17.53ZM65.28,83.08l2.87-11.55,9.89-1.07-1.67,11.94v.68h-11.09ZM87.8,38.92l-.07.99-4.9,5.38c-3.03,2.25-6.07,2.25-8.71-.1l-8.22-1.27c-.3-2.05-.53-3.69-.72-5h8.14c-.05.29-.08.58-.08.89,0,2.74,2.25,5,5.09,5s4.99-2.25,4.99-5c0-.3-.02-.6-.07-.89h4.56ZM92.5,36.49l.8-7.54-4.69-.88c-.3,4.01-.49,6.67-.63,8.42h-5.87c-.92-1.08-2.28-1.76-3.78-1.76s-2.95.68-3.87,1.76h-9.64l-.4-2.74-4.11.88c.09.65.18,1.27.26,1.86h-1.73v-10.97l-2.45,1.17v77.54l2.45,1.17v-4.21h35.53v4.12l2.25-1.08V26.7l-2.25-1.17v10.97h-1.87ZM94.38,38.92v13.12h-11.36v-.29l8.92-9.89c.11-1.07.22-2.05.31-2.95h2.13ZM60.93,38.92l1.25,8.81,11.84,2.06v2.25h-15.17v-13.13h2.08ZM94.38,54.39v13.12h-11.45c.04-7.07.07-10.97.08-13.12h11.37ZM74.03,54.39v12.14l-9,.49c-.04.16-.09.32-.13.48h-6.04s0-13.11,0-13.11h15.17ZM94.39,69.96v13.12h-13.61v-.48c.98-6.85,1.52-10.59,1.81-12.63h11.8ZM64.22,69.97l-3.31,12.03c1.13.48,1.96.82,2.57,1.08h-4.62v-13.12h5.36Z"/>
  <path class="cls-1" d="M18.04,65.45c0,32.31,26.21,58.52,58.52,58.52s58.5-26.21,58.5-58.52S108.87,6.95,76.56,6.95s-58.52,26.19-58.52,58.5ZM112.91,95.09c15.06-18.42,14-45.6-3.18-62.79-17.18-17.18-44.38-18.25-62.8-3.19l65.98,65.98ZM40.2,35.82c-15.05,18.42-13.98,45.62,3.2,62.8,17.18,17.18,44.36,18.23,62.78,3.18L40.2,35.82Z"/>
  <polyline class="cls-1" points="10.06 133.73 143.06 133.73 143.06 208.97 10.06 208.97 10.06 133.73"/>
  <path class="cls-2" d="M35.14,153.69h2.7v-5.59h5.72v-2.15h-5.72v-3.18h6.74v-2.18h-9.44v13.11ZM117.94,153.69v-1.94h-.94c-.3,0-.59-.17-.72-.35-.06-.07-.13-.22-.13-.74v-4.67h1.7v-1.72h-1.7l-.02-2.98h-2.52v2.98h-1.32v1.74l1.33-.02v4.87c0,2.13.87,2.83,2.26,2.83h2.05ZM104.17,149.67l7,.02c0-2.8-1.26-5.76-4.78-5.76s-4.72,2.87-4.72,5.02c0,3.13,2.07,5.07,4.7,5.07s4.24-1.42,4.63-3.07l-2.55-.17c-.48.87-1.13,1.22-1.94,1.22-1.2,0-2.18-.81-2.33-2.33ZM104.28,147.84c.15-1.15,1.11-1.92,2.07-1.92,1.02,0,1.91.7,2.09,1.92h-4.17ZM97.26,152.73l.11.96h2.52l-.02-13.11h-2.54v4.76c-.46-.74-1.52-1.37-2.72-1.37-2.11,0-4.18,1.76-4.18,5.05,0,1.5.46,2.74,1.22,3.61.78.94,1.74,1.37,2.87,1.37s2.07-.44,2.74-1.28ZM95.26,151.82c-1.19,0-2.24-.85-2.24-2.85,0-2.24,1.09-3.04,2.15-3.04s2.13.8,2.13,2.96-1.09,2.91-2.04,2.92ZM86.11,152.64l.15,1.05h2.39l-.02-9.41-2.5-.02v5.28c0,1.44-.87,2.18-1.89,2.18-.94,0-1.52-.5-1.52-1.83v-5.63h-2.54v6.48c0,1.24.35,1.91.93,2.44.54.5,1.33.82,2.35.82,1.17,0,2.09-.5,2.65-1.37ZM74.13,154.71v2.05l1.76-.02c1.57,0,2.37-.78,2.37-2.48l-.02-10h-2.52v8.91c0,1.33-.41,1.54-1.02,1.54h-.57ZM75.72,142.84h2.52v-2.26h-2.52v2.26ZM63.52,153.69h2.5l.13-.96c.67.83,1.57,1.26,2.7,1.26,2.09,0,4.15-1.7,4.15-5.04s-2.07-5-4.13-5c-1.35,0-2.32.59-2.82,1.41v-4.78h-2.54v13.11ZM68.24,151.8c-1.06,0-2.15-.83-2.15-2.94s1.09-2.94,2.13-2.94c1.13,0,2.17.8,2.17,2.98s-1.07,2.91-2.15,2.91ZM56.67,153.69h2.54v-4.18c0-1.41.35-2.06.76-2.5.48-.5,1.02-.74,1.72-.74.15,0,.3.02.43.04l.02-2.24c-.13-.02-.33-.06-.54-.06-1.11,0-2.05.7-2.35,1.68l-.07-1.42h-2.5v9.42ZM49.8,154.06c3.04,0,5.07-2.04,5.07-5.11s-2.07-5.05-5-5.05-4.96,2.04-4.96,5.05,2.11,5.11,4.89,5.11ZM49.95,152.08c-1.31,0-2.44-.94-2.44-3.13s1.13-3.07,2.43-3.07c1.22,0,2.35.85,2.35,3.15s-1.2,3.05-2.33,3.05ZM50.3,143.14h2.54l-.02-2.55-2.52-.02v2.57ZM46.99,143.14h2.54l-.02-2.55-2.52-.02v2.57Z"/>
  <path class="cls-2" d="M39.4,172.53v1.18c0,1.33-.83,2.17-2.28,2.17-1.07,0-1.57-.63-1.57-1.2,0-.44.15-.94,1.74-1.39l1.09-.3c.5-.13.82-.32,1.02-.46ZM117.1,176.42c.04.46.15.8.3,1.07h2.59c-.33-.39-.43-.67-.43-.98v-5.17c0-2.26-1.17-3.61-4.24-3.61-2.85,0-4.04,1.55-3.98,3.15l2.22.04c0-.7.54-1.37,1.83-1.37s1.65.61,1.65,1.06c0,.39-.24.74-.93.87l-1.44.24c-2.09.37-2.65.76-3.04,1.11-.55.5-.87,1.2-.87,1.96,0,1.55,1.22,2.96,3.61,2.96,1.37,0,2.18-.46,2.72-1.33ZM117.1,172.53v1.18c0,1.33-.83,2.17-2.28,2.17-1.07,0-1.57-.63-1.57-1.2,0-.44.15-.94,1.74-1.39l1.09-.3c.5-.13.81-.32,1.02-.46ZM104.89,177.49h2.54v-4.18c0-1.41.35-2.05.78-2.5.46-.5,1.02-.74,1.72-.74.13,0,.28.02.43.04v-2.24c-.11-.02-.31-.05-.54-.05-1.09,0-2.05.7-2.35,1.68l-.07-1.43h-2.48l-.02,9.42ZM103.02,177.49v-1.94h-.94c-.3,0-.59-.17-.72-.35-.06-.07-.13-.22-.13-.74v-4.67h1.72v-1.72h-1.7l-.02-2.98h-2.52v2.98h-1.33v1.74l1.33-.02v4.87c0,2.13.87,2.83,2.26,2.83h2.06ZM96,177.49v-1.94h-.94c-.3,0-.59-.17-.72-.35-.05-.07-.13-.22-.13-.74v-4.67h1.72v-1.72h-1.7l-.02-2.98h-2.52v2.98h-1.33v1.74l1.33-.02v4.87c0,2.13.87,2.83,2.26,2.83h2.06ZM86.48,176.42c.04.37.17.78.32,1.07h2.57c-.15-.13-.39-.55-.39-1.33l-.04-4.81c-.02-.83-.07-1.07-.15-1.28-.37-1.3-1.43-2.33-3.98-2.33-2.94,0-4.09,1.5-4.09,3.15l2.22.04c.11-.63.2-.76.41-.94.24-.22.72-.44,1.46-.44,1.2,0,1.65.63,1.65,1.07s-.28.76-.98.89l-2.54.45c-1.91.33-2.8,1.57-2.8,2.81,0,1.63,1.26,3.02,3.54,3.02,1.57,0,2.43-.63,2.8-1.35ZM86.48,172.48v1.41c-.07,1.18-.87,2-2.24,2-1.07,0-1.59-.63-1.59-1.18,0-.45.22-1.02,1.74-1.39l1.09-.3c.41-.09.76-.3,1-.54ZM84.96,166.94l2.54.02.02-2.57h-2.54l-.02,2.55ZM81.67,166.94h2.52l.02-2.57h-2.54v2.57ZM76.11,177.49h2.52v-13.11h-2.5l-.02,13.11ZM65.54,177.49h2.54v-3.09l1.06-1.05,2.59,4.15h3.11l-3.89-5.79,3.39-3.63h-3l-3.26,3.59-.02-7.28h-2.52v13.11ZM56.1,177.49v-1.94h-.94c-.3,0-.59-.17-.72-.35-.06-.07-.13-.22-.13-.74v-4.67h1.72v-1.72h-1.7l-.02-2.98h-2.52v2.98h-1.33v1.74l1.33-.02v4.87c0,2.13.87,2.83,2.26,2.83h2.05ZM49.08,177.49v-1.94h-.94c-.3,0-.59-.17-.72-.35-.06-.07-.13-.22-.13-.74v-4.67h1.72v-1.72h-1.7l-.02-2.98h-2.52v2.98h-1.33v1.74l1.33-.02v4.87c0,2.13.87,2.83,2.26,2.83h2.06ZM39.4,176.42c.04.46.15.8.3,1.07h2.59c-.33-.39-.43-.67-.43-.98v-5.17c0-2.26-1.17-3.61-4.24-3.61-2.85,0-4.04,1.55-3.98,3.15l2.22.04c0-.7.54-1.37,1.83-1.37s1.65.61,1.65,1.06c0,.39-.24.74-.93.87l-1.44.24c-2.09.37-2.65.76-3.04,1.11-.56.5-.87,1.2-.87,1.96,0,1.55,1.22,2.96,3.61,2.96,1.37,0,2.19-.46,2.72-1.33Z"/>
</svg>