<svg xmlns="http://www.w3.org/2000/svg" viewBox="0 0 595.28 850.36"><defs><style>.a{fill:#e5e8eb;}.a,.b,.c{fill-rule:evenodd;}.b{fill:#000100;}.c{fill:#ad1922;}</style></defs><title>P009_C</title><polyline class="a" points="0 850.36 595.28 850.36 595.28 0 0 0 0 850.36"/><path class="b" d="M296.71,387.57v58.79h19.72V387.57h61v59.24H218.18V387.59h78.53Zm-49.66-11,12.84-51.77,44.31-4.8-7.47,53.52v3.05H247Zm100.9-197.83-0.33,4.42-22,24.13c-13.57,10.09-27.18,10.09-39-.46l-36.85-5.69c-1.33-9.2-2.4-16.55-3.25-22.41H283a23.64,23.64,0,0,0-.33,4,22.59,22.59,0,0,0,45.17,0,23.64,23.64,0,0,0-.33-4h20.42ZM369,167.87l3.57-33.8-21-3.94c-1.34,18-2.22,29.88-2.8,37.74H322.46A22.15,22.15,0,0,0,305.52,160a22.72,22.72,0,0,0-17.36,7.89H245l-1.78-12.3-18.41,3.94q0.62,4.39,1.19,8.36h-7.76V118.72l-11,5.26V471.44l11,5.26V457.83H377.45v18.44l10.09-4.83V124l-10.09-5.26v49.15H369Zm8.38,10.91v58.81h-50.9v-1.32L366.48,192l1.39-13.2Zm-149.94,0,5.61,39.49,53.05,9.24v10.1h-68V178.78Zm149.92,69.32v58.77H326.1c0.19-31.68.3-49.15,0.35-58.78h51Zm-91.26,0v54.41l-40.33,2.2-0.59,2.16H218.18V248.08h68Zm91.28,69.77v58.77h-61v-2.17c4.39-30.69,6.79-47.45,8.09-56.59Zm-135.23,0-14.82,53.93,11.51,4.83H218.18V317.85Z"/><path class="b" d="M136.63,643.92h10.51V622.18h22.25v-8.35H147.14V601.45h26.21V593H136.63v51Zm322,0v-7.56h-3.67a3.66,3.66,0,0,1-2.81-1.37c-0.22-.29-0.51-0.86-0.51-2.88V614h6.63v-6.7h-6.63l-0.07-11.59h-9.79v11.59h-5.11V614l5.18-.07v18.93c0,8.28,3.38,11,8.78,11h8ZM405,628.3l27.21,0.07c0-10.87-4.9-22.39-18.58-22.39-14,0-18.36,11.16-18.36,19.51,0,12.17,8.06,19.73,18.29,19.73s16.49-5.54,18-11.95l-9.93-.65c-1.87,3.38-4.39,4.75-7.56,4.75C409.43,637.37,405.62,634.21,405,628.3Zm0.43-7.13a8.44,8.44,0,0,1,8.06-7.49c4,0,7.42,2.73,8.13,7.49h-16.2Zm-27.29,19,0.43,3.74h9.79l-0.07-51h-9.86v18.51c-1.8-2.88-5.9-5.33-10.58-5.33-8.21,0-16.27,6.84-16.27,19.66,0,5.83,1.8,10.66,4.75,14a13.79,13.79,0,0,0,11.16,5.33A13,13,0,0,0,378.18,640.18Zm-7.77-3.53c-4.61,0-8.71-3.31-8.71-11.09,0-8.71,4.25-11.81,8.35-11.81s8.28,3.1,8.28,11.52C378.33,633.34,374.08,636.58,370.41,636.65Zm-35.57,3.17,0.58,4.1h9.29l-0.07-36.57-9.72-.07V627.8c0,5.62-3.38,8.49-7.34,8.49-3.67,0-5.91-1.94-5.91-7.13V607.28H311.8v25.2c0,4.83,1.37,7.42,3.6,9.5a13.1,13.1,0,0,0,9.14,3.17A11.69,11.69,0,0,0,334.84,639.82Zm-46.58,8.06v8l6.84-.07c6.12,0,9.22-3,9.22-9.65l-0.07-38.88h-9.8v34.63c0,5.18-1.58,6-4,6h-2.23Zm6.19-46.15h9.8V593h-9.8v8.78ZM247,643.92h9.72l0.51-3.74a12.8,12.8,0,0,0,10.51,4.9c8.13,0,16.13-6.62,16.13-19.58,0-12.6-8.06-19.44-16.06-19.44-5.26,0-9,2.3-10.95,5.47V593H247v51Zm18.36-7.34c-4.1,0-8.35-3.24-8.35-11.45s4.25-11.45,8.28-11.45c4.39,0,8.42,3.1,8.42,11.59C273.72,633.34,269.54,636.58,265.36,636.58Zm-45,7.34h9.86V627.65c0-5.48,1.37-8,3-9.72a8.72,8.72,0,0,1,6.7-2.88,12,12,0,0,1,1.65.14l0.07-8.71a14.11,14.11,0,0,0-2.09-.22,9.46,9.46,0,0,0-9.15,6.55l-0.29-5.54h-9.72v36.64Zm-26.71,1.44c11.81,0,19.73-7.92,19.73-19.87,0-11.74-8.06-19.66-19.44-19.66-11.09,0-19.29,7.92-19.29,19.66C174.65,637.45,182.85,645.36,193.65,645.36Zm0.58-7.7c-5.11,0-9.51-3.67-9.51-12.17,0-8.21,4.39-11.95,9.43-11.95,4.75,0,9.14,3.31,9.14,12.24C203.3,634.42,198.62,637.66,194.23,637.66Zm1.37-34.77h9.86L205.39,593l-9.79-.07v10Zm-12.89,0h9.86L192.5,593l-9.79-.07v10Z"/><path class="b" d="M153.19,711.71v4.61c0,5.18-3.24,8.42-8.86,8.42-4.18,0-6.12-2.45-6.12-4.68,0-1.73.58-3.67,6.77-5.4l4.25-1.15A11.44,11.44,0,0,0,153.19,711.71Zm302.17,15.12a10.37,10.37,0,0,0,1.15,4.18h10.08a5.48,5.48,0,0,1-1.66-3.81V707.1c0-8.78-4.53-14-16.49-14-11.09,0-15.69,6.05-15.48,12.24l8.64,0.14c0-2.73,2.09-5.33,7.13-5.33,4.83,0,6.41,2.38,6.41,4.1,0,1.51-.94,2.88-3.6,3.39l-5.62.93c-8.13,1.44-10.3,3-11.81,4.32a10.21,10.21,0,0,0-3.38,7.63c0,6,4.75,11.52,14,11.52C450.1,732,453.27,730.22,455.36,726.83Zm0-15.12v4.61c0,5.18-3.24,8.42-8.85,8.42-4.18,0-6.12-2.45-6.12-4.68,0-1.73.58-3.67,6.77-5.4l4.25-1.15A11.38,11.38,0,0,0,455.36,711.71ZM407.84,731h9.86V714.74c0-5.48,1.37-8,3-9.72a8.62,8.62,0,0,1,6.7-2.88,14.45,14.45,0,0,1,1.66.14v-8.71a12.57,12.57,0,0,0-2.09-.22,9.52,9.52,0,0,0-9.14,6.55l-0.29-5.54h-9.65Zm-7.27,0v-7.56H396.9a3.65,3.65,0,0,1-2.81-1.37c-0.22-.29-0.51-0.86-0.51-2.88V701.06h6.7v-6.7h-6.63l-0.07-11.59h-9.79v11.59h-5.18v6.77l5.18-.07V720c0,8.28,3.38,11,8.78,11h8Zm-27.29,0v-7.56h-3.67a3.66,3.66,0,0,1-2.81-1.37c-0.21-.29-0.51-0.86-0.51-2.88V701.06H373v-6.7h-6.62l-0.07-11.59h-9.79v11.59h-5.18v6.77l5.18-.07V720c0,8.28,3.39,11,8.78,11h8Zm-37-4.18A12.8,12.8,0,0,0,337.5,731h10c-0.58-.5-1.51-2.16-1.51-5.18l-0.14-18.72c-0.07-3.24-.29-4.18-0.58-5-1.44-5-5.55-9.07-15.48-9.07-11.45,0-15.91,5.83-15.91,12.24l8.64,0.14c0.43-2.45.79-3,1.58-3.67A8.4,8.4,0,0,1,329.8,700c4.68,0,6.41,2.45,6.41,4.18s-1.08,3-3.81,3.46l-9.86,1.73c-7.42,1.3-10.87,6.12-10.87,10.95,0,6.33,4.9,11.74,13.75,11.74C331.52,732.09,334.83,729.64,336.27,726.83Zm0-15.34V717c-0.29,4.61-3.38,7.77-8.71,7.77-4.18,0-6.19-2.45-6.19-4.61,0-1.73.86-4,6.77-5.4l4.25-1.15A8.06,8.06,0,0,0,336.27,711.49ZM330.37,690l9.86,0.07,0.07-10h-9.86Zm-12.82,0h9.79l0.07-10h-9.86v10ZM296,731h9.79V680H296Zm-41.11,0h9.86V719l4.1-4.1L278.89,731H291l-15.12-22.53L289,694.36H277.38l-12.67,14L264.64,680h-9.79v51Zm-36.72,0v-7.56h-3.67a3.65,3.65,0,0,1-2.81-1.37c-0.22-.29-0.51-0.86-0.51-2.88V701.06h6.7v-6.7h-6.62l-0.07-11.59h-9.79v11.59h-5.18v6.77l5.18-.07V720c0,8.28,3.38,11,8.78,11h8Zm-27.29,0v-7.56h-3.67a3.66,3.66,0,0,1-2.81-1.37c-0.21-.29-0.5-0.86-0.5-2.88V701.06h6.7v-6.7h-6.63l-0.07-11.59h-9.79v11.59h-5.18v6.77l5.18-.07V720c0,8.28,3.39,11,8.78,11h8Zm-37.66-4.18a10.31,10.31,0,0,0,1.15,4.18h10.08a5.48,5.48,0,0,1-1.66-3.81V707.1c0-8.78-4.53-14-16.49-14-11.09,0-15.69,6.05-15.48,12.24l8.64,0.14c0-2.73,2.09-5.33,7.13-5.33,4.83,0,6.41,2.38,6.41,4.1,0,1.51-.93,2.88-3.6,3.39l-5.62.93c-8.13,1.44-10.29,3-11.81,4.32a10.19,10.19,0,0,0-3.39,7.63c0,6,4.75,11.52,14,11.52C147.93,732,151.1,730.22,153.19,726.83Z"/><path class="c" d="M35.39,297.63c0,144.79,117.43,262.21,262.21,262.21S559.75,442.41,559.75,297.63,442.39,35.48,297.6,35.48,35.39,152.84,35.39,297.63Zm425,132.81c67.48-82.53,62.73-204.35-14.27-281.34s-198.85-81.8-281.39-14.32ZM134.66,164.86C67.22,247.41,72,369.27,149,446.25S347.78,528,430.32,460.52Z"/></svg>