<svg xmlns="http://www.w3.org/2000/svg" viewBox="0 0 595.28 850.36"><defs><style>.a{fill:#e5e8eb;}.a,.b,.c{fill-rule:evenodd;}.b{fill:#000100;}.c{fill:#ad1922;}</style></defs><title>P010_C</title><polyline class="a" points="0 850.36 595.28 850.36 595.28 0 0 0 0 850.36"/><path class="b" d="M266.75,389.59c10.84,4.17,16-2.09,21.88-8.94,2.29-8.57,1-16.56-2.86-25.32l-25.5,17.51c1.52,8,4,13.33,6.48,16.75"/><path class="b" d="M308.41,340.51l-17.7,12.38a65,65,0,0,1,4.39,23.59c8-.95,16-4.76,21.88-21.13q-0.29-8.27-8.57-14.84"/><path class="b" d="M332.94,318.68c27-15.42,38.83-25.12,44-32.74,6.09-8.94,15.79-24.55,22.05-36.33,11.22-21.51,34.08-50.23,50.81-66-21.87-27-36-38.06-58.4-51.76-50.42,27-135.48,33.49-146.51,53.47-25.5,20.17-43.57,57.46-65.26,90.95-4.95,7.42-6.47,15-3,33.11l2.27,76.87c6.66,9.88,26.45-3.05,26.65-9.13,7.8-26.06,9.31-46,7.59-74.4,2.86-9.52,8.57-17.13,20.37-27.78l22.06-13.52-18.83,20.18c-12.75,17.88-.37,22.83,8.38,49.66,9.13-7.8,10.45-9.7,23-17.31l12.73-10.66L271.47,316c-17.11,14.27-45.84,30.45-42,57.27,2.86,6.66,4.58,13.32,16.37,4.38C273.18,356.36,304,338.09,332.94,318.68ZM158.65,402l183.81-.19v26.06H158.65V402Z"/><path class="b" d="M168.17,643.92h10.08l17.49-51-11.23.07-11.16,37.73-11.09-37.8H151Zm259.76,4v8l6.84-.07c6.26,0,9.29-3,9.29-9.65L444,607.28h-9.86v34.63c0,5.18-1.51,6-3.89,6h-2.31Zm6.19-46.15h9.93L444,592.95h-9.86v8.78ZM396.4,628.3l27.21,0.07c0-10.87-5-22.39-18.57-22.39-14.11,0-18.43,11.16-18.43,19.51,0,12.17,8.06,19.73,18.29,19.73s16.56-5.54,18-11.95l-9.86-.65c-1.87,3.38-4.46,4.75-7.63,4.75C400.72,637.37,396.9,634.2,396.4,628.3Zm0.36-7.13a8.5,8.5,0,0,1,8.06-7.49c4,0,7.49,2.73,8.13,7.49h-16.2Zm-65.88,22.75h9.86V627.65c0-5.47,1.37-8,3-9.72a8.62,8.62,0,0,1,6.7-2.88,14.47,14.47,0,0,1,1.66.14l0.07-8.71a14.16,14.16,0,0,0-2.16-.22,9.52,9.52,0,0,0-9.14,6.55l-0.29-5.54H331Zm-26.71,1.44c11.81,0,19.73-7.92,19.73-19.87,0-11.74-8.06-19.66-19.44-19.66-11,0-19.22,7.92-19.22,19.66C285.24,637.44,293.44,645.36,304.17,645.36Zm0.58-7.7c-5.11,0-9.43-3.67-9.43-12.17,0-8.21,4.32-11.95,9.36-11.95,4.75,0,9.15,3.31,9.15,12.24C313.82,634.42,309.14,637.66,304.75,637.66Zm1.37-34.77H316v-9.93l-9.86-.07v10Zm-12.82,0h9.79v-9.93l-9.79-.07v10Zm-32.54,41h9.86V627.65c0-5.47,1.37-8,3-9.72a8.62,8.62,0,0,1,6.7-2.88,14.46,14.46,0,0,1,1.66.14l0.07-8.71a14.1,14.1,0,0,0-2.16-.22,9.52,9.52,0,0,0-9.14,6.55l-0.29-5.54h-9.65ZM243,640.18l0.36,3.74h9.79v-51h-9.94v18.5c-1.8-2.88-5.9-5.33-10.58-5.33-8.21,0-16.27,6.84-16.27,19.66a21.4,21.4,0,0,0,4.75,14,13.88,13.88,0,0,0,11.16,5.33A13.28,13.28,0,0,0,243,640.18Zm-7.85-3.53c-4.61,0-8.64-3.31-8.64-11.09,0-8.71,4.25-11.81,8.28-11.81s8.28,3.1,8.28,11.52C243,633.34,238.8,636.58,235.13,636.65Zm-35.57,7.27h9.86V607.28h-9.86v36.64Zm0.07-42.19h9.79v-8.78h-9.79v8.78Z"/><path class="c" d="M35.39,297.62c0,144.79,117.43,262.21,262.21,262.21S559.75,442.41,559.75,297.62,442.39,35.48,297.6,35.48,35.39,152.83,35.39,297.62Zm425,132.81c67.48-82.53,62.72-204.34-14.27-281.34s-198.85-81.8-281.39-14.32ZM134.66,164.86C67.23,247.41,72,369.27,149,446.25S347.78,528,430.31,460.51Z"/></svg>