<?xml version="1.0" encoding="UTF-8"?>
<svg id="Lager_1" data-name="Lager 1" xmlns="http://www.w3.org/2000/svg" viewBox="0 0 153.09 218.69">
  <defs>
    <style>
      .cls-1 {
        fill: #aa2825;
      }

      .cls-1, .cls-2, .cls-3 {
        fill-rule: evenodd;
      }

      .cls-2 {
        fill: #fff;
      }

      .cls-3 {
        fill: #1d1f22;
      }
    </style>
  </defs>
  <polyline class="cls-2" points="0 218.69 153.09 218.69 153.09 0 0 0 0 218.69"/>
  <path class="cls-3" d="M69.66,85.98c2.42.93,3.57-.47,4.88-1.99.51-1.91.21-3.7-.64-5.65l-5.69,3.91c.34,1.79.89,2.97,1.44,3.74"/>
  <path class="cls-3" d="M78.96,75.03l-3.95,2.76c.59,1.66.98,3.18.98,5.27,1.78-.21,3.57-1.06,4.88-4.71-.04-1.23-.68-2.34-1.91-3.31"/>
  <path class="cls-3" d="M84.43,70.16c6.03-3.44,8.67-5.6,9.81-7.31,1.36-2,3.52-5.48,4.92-8.11,2.51-4.8,7.6-11.21,11.34-14.74-4.88-6.03-8.02-8.49-13.03-11.55-11.25,6.03-30.23,7.47-32.7,11.93-5.69,4.5-9.72,12.82-14.56,20.3-1.1,1.66-1.44,3.35-.68,7.39l.51,17.15c1.49,2.2,5.9-.68,5.95-2.04,1.74-5.82,2.08-10.27,1.69-16.6.64-2.12,1.91-3.82,4.55-6.2l4.92-3.02-4.2,4.5c-2.84,3.99-.08,5.1,1.87,11.08,2.04-1.74,2.33-2.16,5.14-3.86l2.84-2.38-2.08,2.85c-3.82,3.18-10.23,6.79-9.38,12.78.64,1.49,1.02,2.97,3.65.98,6.11-4.76,12.99-8.83,19.45-13.16ZM45.54,88.75l41.02-.04v5.82h-41.02v-5.77Z"/>
  <path class="cls-1" d="M18.04,65.45c0,32.31,26.21,58.52,58.52,58.52s58.5-26.21,58.5-58.52S108.87,6.95,76.56,6.95s-58.52,26.19-58.52,58.5ZM112.88,95.09c15.06-18.42,14-45.6-3.18-62.79-17.18-17.18-44.38-18.25-62.8-3.19l65.98,65.98ZM40.2,35.82c-15.05,18.42-13.98,45.62,3.19,62.8,17.18,17.18,44.36,18.23,62.78,3.18L40.2,35.82Z"/>
  <polyline class="cls-1" points="10.06 133.73 143.06 133.73 143.06 208.97 10.06 208.97 10.06 133.73"/>
  <path class="cls-2" d="M43.25,153.69h2.59l4.5-13.11-2.89.02-2.87,9.7-2.85-9.72h-2.89l4.41,13.11ZM110.05,154.71v2.05l1.76-.02c1.61,0,2.39-.78,2.39-2.48l-.02-10h-2.54v8.91c0,1.33-.39,1.54-1,1.54h-.59ZM111.65,142.84h2.55l-.02-2.26h-2.54v2.26ZM101.94,149.67l7,.02c0-2.8-1.28-5.76-4.78-5.76s-4.74,2.87-4.74,5.02c0,3.13,2.07,5.07,4.7,5.07s4.26-1.42,4.63-3.07l-2.54-.17c-.48.87-1.15,1.22-1.96,1.22-1.2,0-2.19-.81-2.31-2.33ZM102.04,147.84c.17-1.15,1.11-1.92,2.07-1.92,1.04,0,1.93.7,2.09,1.92h-4.17ZM85.09,153.69h2.54v-4.18c0-1.41.35-2.06.78-2.5.46-.5,1.02-.74,1.72-.74.13,0,.28.02.43.04l.02-2.24c-.13-.02-.33-.06-.56-.06-1.09,0-2.06.7-2.35,1.68l-.07-1.42h-2.48l-.02,9.42ZM78.22,154.06c3.04,0,5.07-2.04,5.07-5.11s-2.07-5.05-5-5.05-4.94,2.04-4.94,5.05,2.11,5.11,4.87,5.11ZM78.37,152.08c-1.32,0-2.43-.94-2.43-3.13s1.11-3.07,2.41-3.07c1.22,0,2.35.85,2.35,3.15s-1.2,3.05-2.33,3.05ZM78.72,143.14h2.54v-2.55l-2.54-.02v2.57ZM75.43,143.14h2.52v-2.55l-2.52-.02v2.57ZM67.06,153.69h2.54v-4.18c0-1.41.35-2.06.78-2.5.46-.5,1.02-.74,1.72-.74.13,0,.28.02.43.04l.02-2.24c-.13-.02-.33-.06-.56-.06-1.09,0-2.05.7-2.35,1.68l-.08-1.42h-2.48l-.02,9.42ZM62.49,152.73l.09.96h2.52v-13.11h-2.56v4.76c-.46-.74-1.52-1.37-2.72-1.37-2.11,0-4.18,1.76-4.18,5.05,0,1.5.48,2.74,1.22,3.61.78.94,1.76,1.37,2.87,1.37s2.07-.44,2.76-1.28ZM60.47,151.82c-1.19,0-2.22-.85-2.22-2.85,0-2.24,1.09-3.04,2.13-3.04s2.13.8,2.13,2.96-1.09,2.91-2.04,2.92ZM51.32,153.69h2.54v-9.42h-2.54v9.42ZM51.34,142.84h2.52v-2.26h-2.52v2.26Z"/>
</svg>