<?xml version="1.0" encoding="UTF-8"?>
<svg id="Lager_1" data-name="Lager 1" xmlns="http://www.w3.org/2000/svg" viewBox="0 0 153.09 218.69">
  <defs>
    <style>
      .cls-1 {
        fill: #aa2825;
      }

      .cls-1, .cls-2, .cls-3 {
        fill-rule: evenodd;
      }

      .cls-2 {
        fill: #fff;
      }

      .cls-3 {
        fill: #1d1f22;
      }
    </style>
  </defs>
  <polyline class="cls-2" points="0 218.69 153.09 218.69 153.09 0 0 0 0 218.69"/>
  <path class="cls-3" d="M81.51,51.33l-2.02-22.83c-.17-.82-1.23-.73-1.26.11l2.04,22.83,1.24-.11ZM51.26,62.95l-.21.43c-1.05,2.37.08,4.59-.75,6.62l-.24.41-.26-.41c-.27-.73-.98-1.94-1.82-2.08h-.47l.28.62.08.32c.33,1.5.29,5.67-.34,7.09-.07.16-.17.39-.28.43l-.15.06-.15-.04c-.09-.02-.21-.28-.28-.43-.38-.81-.97-2.07-1.65-2.07h-.19l-.02.06v.09c.46,1.68-.36,3.36-.56,5.01l-.08.66c-.05.35.03.72-.07,1.07l-.04.15-.13.11-.17.02-.15-.09-.21-.25c-.22-.27-.54-.42-.88-.49l-.32-.07.15.56.09.56c-.13,2.65-.33,5.41.49,7.99.12.37.28.72.45,1.08,1.01,2.09,3.12,3.46,5.46,3.4l1.16-.03-1.03-.68c-1.69-1.08-3.5-5.01-3.43-7.03l.04-.62.23.28.19.28.45.56.02-.54c.11-.65.51-2.67.75-3.21l.3-.45.45,1.67c.23.84.41,1.69.64,2.53.16.56.41,1.08.69,1.58l.21.39.11.17.15.17.11.04.11-.02.11-.04.04-.09-.02-.23-.09-.21c-.1-.26-.15-.54-.19-.81-.13-.86-.28-1.92-.21-2.59.06-.58.14-1.32.26-1.71l.26-.84.13.47c.44.84.69,1.79,1.24,2.57l.3.38.25-.52c.75-2.33.3-4.88.13-7.28l-.09-1.11.3.02.13.04.11.09.39.45c.5.59.91,1.25,1.22,1.96.15.35.34.77.41,1.08l.26,1.14c.09.38.11.77.09,1.15l-.09,1.16-.09.58-.15.56.36-.26.32-.3c.22-.2.41-.44.53-.71l.36-.79.41-.79.23.47c.36.59.33,2.4.07,3.02l-.19.49.62-.15.58-.26v.6c-.15,2.68-1.9,4.94-4.15,6.27l-1.07.58.49.15c5.34,1.32,10.42-4.02,9.24-9.28l-.19-.47-.3.38c-.25.31-.28.8-.67.99l-.13.06h-.11l-.09-.09c-.06-.07-.05-.24-.04-.36.2-2.22.65-3.96.66-6.25l-.02-.47-.06-.47c-.09-.64-.27-1.27-.58-1.84l-.24-.43-.15-.19-.11-.02-.13.02-.06.08c-.24.65-.27,1.18-.56,1.99-.05.15-.16.28-.28.39l-.17.15-.17-.56c-.55-2.25-.7-6.14-2.77-7.71l-.54-.3v.79l-.02.81c-.02,1.26-.46,1.66-.88.15-.14-.51-.34-1.22-.41-1.54-.58-2.62-1.95-2.82-2.92-5.14-.1-.24-.07-.52-.17-.77l-.15-.37ZM58.96,68.34l.45-.09c1.96-.56,4.1-1.39,6.06-2.03l.86-.28-.3.49-.41.45c-.72.8-2.32,1.74-2.7,2.76l-.02.17c-.09.7.67,1.09,1.27.81l.68-.32.67-.36-.62.68-.6.73c-1.99,2.38-1.07,3.83,1.82,2.12.22-.13.41-.31.62-.47,4.75-3.49,8.51-8.63,13.67-11.8l.62-.34.62-.28-.88,1.14-.96,1.14c-2.84,3.72-10.67,8.27-11.33,12.91-.02.13.02.26.13.34.78.62,2.12-1.31,3.47-1.46.26-.03.46.23.34.47-.56,1.17-1.06,2.68-1.29,3.94l-.08.58c-.08.58-.13,1.17-.02,1.76l.11.58c.14.79,1.22,1.1,1.61.32,5.1-10.29,3.57-11.6,13.46-20.32l1.14-.96,22.14-15.98-9.35-14.75-18.67,7.22-.81-9.12c-.35-2.41-3.71-2.01-3.58.32l.9,10.15-3.75,1.43,4.2,6.66-1.43.62-1.48.6c-6.85,2.52-12.27,4.91-17.76,9.77-.43.38-.79.81-1.16,1.24l-.54.64-.43.6-.17.32c-.38.72.19,1.64,1.03,1.43l.34-.08.69-.26,1.35-.58-1.05.96-.49.52-.47.53-.41.58-.37.62c-.21.35-.07.92.41.88,1.13-.09,3.48-1.84,4.61-2.25l.32-.11.36-.04-.34.34-.39.34c-1.1.89-2.47,1.67-3.41,2.68-.59.64-1.46,2.43.13,2.21l1.2-.17ZM70.31,74.32l1.03-.51.28-.09c4.19-.48-.16,3.97.47,7.6l.05.02c.08.03.15-.01.21-.06.13-.11.21-.33.28-.51.76-2.11,1.98-5.01,3.02-7.5,1.37-3.26,3.64-5.89,6.07-8.41l1.63-1.63,1.71-1.56,1.76-1.5-4.46-7.05-.49.26c-2.95,1.03-5.14-2.52-2.96-4.67l.43-.34-.34-.56-2.48,1.05-2.49.96-2.51.98c-3.36,1.34-6.52,2.92-9.45,5.05l-2.17,1.56c-.73.53-1.4,1.13-1.99,1.8l-.88,1c-.19.21-.39.44-.45.71-.06.24.26.16.41.13.14-.03.82-.34,1.22-.52.61-.28,1.2-.62,1.84-.83.31-.11.64-.21.96-.24.23-.01.42.23.28.43l-.19.28-.45.52-.47.47c-.64.63-1.32,1.2-1.95,1.84l-.47.47c-.15.15.02.4.21.3l2.34-1.3,1.24-.54.64-.17.69-.07c.25-.02.45.21.38.45-.06.22-.14.5-.22.64l-.34.58-.43.51c-.2.24-.67.59-1.03.85-.71.53-1.42,1.06-2.12,1.6l-.56.43-.19.26c-.37.49.39.33.64.28l.62-.15c2.08-.55,6.01-2.36,7.86-2.42.2,0,.28.21.23.39-.06.22-.15.43-.23.64-.17.41-.38.9-.6,1.18-.28.35-.58.72-.9.99l-1.05.86c-.22.18-.52.26-.67.51l-.09.15c-.07.13.07.26.19.19l.3-.17c.11-.06.57-.36.85-.54.37-.24.73-.5,1.11-.73.15-.09.31-.15.47-.19.17-.04.41-.02.41.19,0,.23,0,.53-.07.69-.13.31-.31.59-.51.86-.54.71-1.2,1.32-1.78,2.01-.22.26-.59.71-.62.79l-.13.32c-.05.13.09.23.21.21.12-.01.24-.03.34-.09.2-.1.4-.2.58-.34l2.12-1.65c.7-.55,1.37-1.14,2-1.78,1.85-1.9,3.73-3.79,5.76-5.5,1.46-1.23,3.24-2.77,4.95-3.66.4-.21.8-.38,1.22-.54.24-.09,1.16-.29,1.39-.05.2.2.17.51.04.75-.68,1.31-1.75,2.35-2.66,3.5-.73.92-1.6,1.73-2.46,2.52-1.84,1.69-3.78,3.28-5.59,4.99-.3.28-.92,1.15-1.35,1.76-.22.3-.43.61-.55.96l-.13.35Z"/>
  <path class="cls-1" d="M18.03,65.45c0,32.31,26.21,58.52,58.52,58.52s58.5-26.21,58.5-58.52S108.86,6.95,76.55,6.95s-58.52,26.19-58.52,58.5ZM112.88,95.09c15.06-18.42,14-45.6-3.19-62.79-17.18-17.18-44.38-18.25-62.8-3.19l65.98,65.98ZM40.19,35.82c-15.05,18.42-13.98,45.62,3.2,62.8,17.18,17.18,44.36,18.23,62.78,3.18L40.19,35.82Z"/>
  <polyline class="cls-1" points="10.06 133.73 143.06 133.73 143.06 208.97 10.06 208.97 10.06 133.73"/>
  <path class="cls-2" d="M40.8,149.8c0,2.41,1.8,4.55,5.61,4.55s5.5-2.05,5.5-4.26c0-1.65-1.02-3.15-3.28-3.72l-3.11-.78c-.93-.24-1.02-.35-1.22-.56-.22-.24-.33-.54-.33-.87,0-.76.65-1.67,2.52-1.67.91,0,1.61.31,1.98.7.37.35.59.87.63,1.41l2.59.04c-.11-1.44-.59-2.32-1.31-2.98-.74-.67-2.15-1.31-4.05-1.31-3.46,0-5.07,1.94-5.07,4.11,0,1.67.94,3.02,3.24,3.59l2.67.68c.48.11,1.18.2,1.63.76.22.3.33.63.33.87,0,.85-.65,1.81-2.78,1.81s-2.92-1.07-2.89-2.37l-2.65-.02ZM108.11,154.93v2.06l1.76-.02c1.59,0,2.39-.78,2.39-2.48l-.02-10h-2.54v8.91c0,1.33-.39,1.54-1.02,1.54h-.57ZM109.7,143.07h2.54v-2.26h-2.54v2.26ZM100,149.9l6.98.02c0-2.8-1.26-5.76-4.78-5.76s-4.72,2.87-4.72,5.02c0,3.13,2.07,5.07,4.7,5.07s4.24-1.43,4.63-3.07l-2.54-.17c-.48.87-1.15,1.22-1.96,1.22-1.2,0-2.19-.81-2.31-2.33ZM100.09,148.06c.17-1.15,1.11-1.92,2.07-1.92,1.04,0,1.93.7,2.09,1.92h-4.17ZM79.43,153.91h2.54v-3.09l1.06-1.05,2.59,4.15h3.11l-3.89-5.79,3.39-3.63h-3l-3.26,3.59-.02-7.28h-2.52v13.11ZM75.26,150.49c-.15.74-.35,1.04-.72,1.32-.32.24-.72.39-1.24.39-1.13,0-2.19-.81-2.19-2.92,0-2.32,1.13-3.17,2.28-3.17.91,0,1.67.67,1.81,1.61l2.43-.13c-.2-1.96-1.72-3.48-4.3-3.48-1.85,0-3.15.72-4,1.98-.57.82-.91,1.83-.91,3.15,0,1.91.76,3.35,1.94,4.22.74.54,1.67.87,2.93.87.91,0,1.43-.13,1.89-.32,1.41-.52,2.28-1.59,2.46-3.41l-2.39-.11ZM64.1,152.84c.04.37.17.78.31,1.07h2.57c-.15-.13-.39-.55-.39-1.33l-.04-4.81c-.02-.83-.07-1.07-.15-1.28-.37-1.3-1.43-2.33-3.98-2.33-2.94,0-4.09,1.5-4.09,3.15l2.22.04c.11-.63.2-.76.41-.94.24-.22.72-.44,1.46-.44,1.2,0,1.65.63,1.65,1.07s-.28.76-.98.89l-2.54.45c-1.91.33-2.8,1.57-2.8,2.81,0,1.63,1.26,3.02,3.54,3.02,1.57,0,2.43-.63,2.8-1.35ZM64.1,148.9v1.41c-.07,1.18-.87,2-2.24,2-1.07,0-1.59-.63-1.59-1.18,0-.45.22-1.02,1.74-1.39l1.09-.3c.41-.09.76-.3,1-.54ZM62.58,143.36l2.54.02.02-2.57h-2.56v2.55ZM59.28,143.36h2.52l.02-2.57h-2.54v2.57ZM53.71,153.91h2.54v-13.11h-2.52l-.02,13.11Z"/>
  <path class="cls-2" d="M27.25,177.48h2.54v-5.44c0-1.35.76-2.04,1.78-2.04.69,0,1.09.33,1.28.8.04.09.11.3.11,1.04v5.65h2.5v-5.59c0-1.22.76-1.93,1.76-1.93.87,0,1.43.52,1.43,1.63v5.89h2.52l-.02-6.61c-.06-1.98-1.31-3.11-3.04-3.11-1.3,0-2.33.61-2.89,1.65-.48-.98-1.54-1.65-2.78-1.65s-2.13.56-2.61,1.5l-.09-1.18-2.46-.02-.02,9.42ZM117.35,177.48h2.54l.02-5.28c0-.74.15-1.09.35-1.39.33-.48.93-.8,1.54-.8.87,0,1.5.57,1.5,1.63v5.83h2.54v-6.65c0-1.76-1.3-3.11-3.26-3.11-1.35,0-2.3.72-2.61,1.46l-.11-1.11-2.48-.02-.02,9.42ZM108.57,173.46l6.98.02c0-2.8-1.26-5.76-4.78-5.76s-4.72,2.87-4.72,5.02c0,3.13,2.07,5.07,4.7,5.07s4.24-1.42,4.63-3.07l-2.54-.17c-.5.87-1.15,1.22-1.96,1.22-1.2,0-2.19-.82-2.31-2.33ZM108.66,171.63c.17-1.15,1.11-1.93,2.07-1.93,1.04,0,1.93.7,2.09,1.93h-4.17ZM104.74,177.48v-1.94h-.94c-.3,0-.59-.17-.72-.35-.06-.07-.13-.22-.13-.74v-4.67h1.72v-1.72h-1.7l-.04-2.98h-2.52v2.98h-1.31v1.74l1.33-.02v4.87c0,2.13.87,2.83,2.26,2.83h2.06ZM97.72,177.48v-1.94h-.95c-.3,0-.59-.17-.72-.35-.05-.07-.13-.22-.13-.74v-4.67h1.72v-1.72h-1.7l-.04-2.98h-2.52v2.98h-1.31v1.74l1.33-.02v4.87c0,2.13.87,2.83,2.26,2.83h2.06ZM88.04,176.4c.04.46.15.8.3,1.07h2.57c-.31-.39-.41-.67-.43-.98l.02-5.17c0-2.26-1.19-3.61-4.24-3.61-2.85,0-4.04,1.55-4,3.15l2.24.04c0-.7.54-1.37,1.83-1.37s1.65.61,1.65,1.05c0,.39-.24.74-.93.87l-1.45.24c-2.09.37-2.65.76-3.04,1.11-.57.5-.87,1.2-.87,1.96,0,1.55,1.22,2.96,3.61,2.96,1.37,0,2.17-.46,2.72-1.33ZM88.04,172.51v1.19c0,1.33-.83,2.17-2.3,2.17-1.06,0-1.55-.63-1.55-1.2,0-.45.15-.95,1.74-1.39l1.09-.3c.5-.13.82-.32,1.02-.46ZM75.57,177.48h2.5l3.22-9.42h-2.57l-1.89,6.2-1.85-6.18h-2.57l3.17,9.41ZM60.74,176.51l.11.96h2.52l-.02-13.11h-2.54v4.76c-.46-.74-1.52-1.37-2.72-1.37-2.11,0-4.19,1.76-4.19,5.05,0,1.5.48,2.74,1.22,3.61.78.94,1.74,1.37,2.87,1.37s2.07-.45,2.74-1.28ZM58.74,175.61c-1.19,0-2.22-.85-2.22-2.85,0-2.24,1.09-3.04,2.13-3.04s2.13.8,2.13,2.96-1.09,2.91-2.04,2.93ZM45.34,173.46l6.98.02c0-2.8-1.26-5.76-4.78-5.76s-4.72,2.87-4.72,5.02c0,3.13,2.07,5.07,4.7,5.07s4.24-1.42,4.63-3.07l-2.54-.17c-.5.87-1.15,1.22-1.96,1.22-1.2,0-2.19-.82-2.31-2.33ZM45.43,171.63c.17-1.15,1.11-1.93,2.07-1.93,1.04,0,1.93.7,2.09,1.93h-4.17Z"/>
</svg>