<svg xmlns="http://www.w3.org/2000/svg" viewBox="0 0 595.28 850.36"><defs><style>.a{fill:#e5e8eb;}.a,.b,.c{fill-rule:evenodd;}.b{fill:#000100;}.c{fill:#ad1922;}</style></defs><title>P011_C</title><polyline class="a" points="0 850.36 595.28 850.36 595.28 0 0 0 0 850.36"/><path class="b" d="M319.8,234.31l-9-102.28c-0.76-3.69-5.51-3.28-5.66.47l9.12,102.29ZM184.33,286.38l-1,1.92c-4.69,10.64.34,20.55-3.36,29.66L179,319.79,177.8,318c-1.21-3.28-4.39-8.69-8.17-9.3h-2.1l1.25,2.77,0.37,1.44c1.47,6.7,1.29,25.39-1.54,31.77a4.3,4.3,0,0,1-1.24,1.93l-0.68.27-0.66-.17c-0.39-.1-0.93-1.24-1.26-1.94-1.7-3.63-4.36-9.29-7.38-9.29h-0.87l-0.09.28v0.4c2.08,7.51-1.61,15-2.5,22.44l-0.38,3c-0.21,1.59.14,3.24-.3,4.8l-0.19.69-0.58.49-0.77.09-0.67-.4-1-1.14a6.91,6.91,0,0,0-3.94-2.2l-1.45-.31,0.66,2.51,0.4,2.5c-0.6,11.89-1.47,24.26,2.2,35.79a36.39,36.39,0,0,0,2,4.81,26.64,26.64,0,0,0,24.47,15.26l5.19-.12-4.6-3.05c-7.57-4.83-15.68-22.44-15.36-31.49l0.18-2.78,1.05,1.26,0.87,1.24,2,2.49,0.1-2.41c0.49-2.89,2.31-12,3.36-14.39l1.35-2,2,7.49c1,3.76,1.83,7.57,2.88,11.32a33.91,33.91,0,0,0,3.09,7.1l1,1.74,0.47,0.76,0.67,0.78,0.49,0.18,0.47-.09,0.49-.18,0.2-.4-0.11-1-0.38-1a16.1,16.1,0,0,1-.86-3.65c-0.57-3.85-1.27-8.6-1-11.61a49.89,49.89,0,0,1,1.16-7.68l1.16-3.75,0.57,2.1c2,3.78,3.09,8,5.57,11.53l1.35,1.71,1.14-2.32c3.35-10.43,1.35-21.88.59-32.61l-0.39-5,1.35,0.09,0.58,0.18,0.47,0.4,1.73,2a34.92,34.92,0,0,1,5.48,8.79,31.7,31.7,0,0,1,1.82,4.82l1.15,5.1a17.58,17.58,0,0,1,.38,5.16l-0.38,5.18-0.39,2.6-0.67,2.5,1.64-1.15,1.44-1.35a10.3,10.3,0,0,0,2.4-3.18l1.63-3.55,1.83-3.53,1,2.11c1.61,2.62,1.47,10.75.3,13.53l-0.86,2.2,2.78-.67,2.59-1.16v2.7c-0.69,12-8.52,22.14-18.61,28.11l-4.81,2.6,2.2,0.67c23.93,5.92,46.69-18,41.39-41.56l-0.87-2.1-1.33,1.71c-1.1,1.4-1.27,3.59-3,4.43l-0.58.28H228.4l-0.39-.4a2.4,2.4,0,0,1-.18-1.61c0.87-9.95,2.9-17.72,3-28l-0.09-2.12-0.3-2.1a24,24,0,0,0-2.59-8.25l-1.07-1.93-0.68-.87-0.47-.09-0.58.09-0.28.38c-1.07,2.89-1.21,5.27-2.51,8.94a4.09,4.09,0,0,1-1.24,1.73l-0.77.66-0.76-2.5c-2.45-10.09-3.12-27.52-12.4-34.53l-2.4-1.33v3.53l-0.09,3.65c-0.08,5.63-2.06,7.45-3.93.67-0.63-2.29-1.52-5.48-1.83-6.91-2.6-11.73-8.74-12.65-13.07-23-0.45-1.09-.32-2.34-0.77-3.43Zm34.44,24.19,2-.38c8.78-2.5,18.38-6.24,27.17-9.11l3.84-1.26-1.35,2.2-1.83,2c-3.24,3.56-10.4,7.8-12.09,12.38l-0.1.75c-0.42,3.13,3,4.9,5.67,3.65l3.06-1.44,3-1.63-2.79,3.06-2.68,3.27c-8.9,10.66-4.79,17.16,8.16,9.48,1-.59,1.85-1.42,2.78-2.1,21.27-15.62,38.13-38.67,61.26-52.86l2.78-1.54,2.78-1.24-3.93,5.09L312.2,286c-12.73,16.67-47.82,37.07-50.79,57.84a1.65,1.65,0,0,0,.56,1.54c3.49,2.77,9.51-5.87,15.55-6.54a1.49,1.49,0,0,1,1.54,2.12,75.51,75.51,0,0,0-5.76,17.66l-0.37,2.6a24.42,24.42,0,0,0-.1,7.87l0.47,2.59c0.65,3.52,5.48,4.92,7.21,1.43,22.87-46.11,16-52,60.3-91l5.1-4.32,99.19-71.59-41.87-66.11-83.64,32.34-3.64-40.88c-1.56-10.81-16.63-9-16,1.45l4,45.48-16.81,6.42L306,214.73l-6.42,2.78-6.63,2.68c-30.69,11.29-55,22-79.6,43.76a51.35,51.35,0,0,0-5.19,5.58l-2.41,2.87-1.92,2.69L203,276.52c-1.7,3.22.88,7.33,4.6,6.42l1.54-.37,3.08-1.15,6-2.59-4.69,4.3-2.21,2.32-2.12,2.38-1.82,2.6-1.64,2.8c-0.93,1.58-.32,4.1,1.82,3.92,5.06-.42,15.6-8.25,20.65-10.07l1.43-.47,1.63-.19-1.53,1.54-1.73,1.53c-4.92,4-11.08,7.5-15.27,12-2.66,2.85-6.55,10.9.58,9.88Zm50.78,26.8,4.6-2.3,1.25-.38c18.76-2.15-.72,17.8,2.1,34.07l0.2,0.09a1,1,0,0,0,1-.28,5.55,5.55,0,0,0,1.24-2.3c3.42-9.46,8.87-22.46,13.54-33.6,6.12-14.6,16.31-26.39,27.18-37.7l7.3-7.29,7.68-7L343.5,274l-20-31.57-2.22,1.15c-13.22,4.6-23-11.3-13.25-20.92l1.92-1.54-1.55-2.5-11.13,4.71-11.14,4.32L274.92,232c-15.06,6-29.23,13.07-42.34,22.65l-9.7,7a53.23,53.23,0,0,0-8.93,8.08L210,274.23a8.08,8.08,0,0,0-2,3.19c-0.26,1.07,1.16.73,1.83,0.58s3.66-1.51,5.47-2.32c2.76-1.24,5.38-2.78,8.25-3.74a17.71,17.71,0,0,1,4.33-1.05,1.28,1.28,0,0,1,1.26,1.92L228.26,274l-2,2.32-2.13,2.1c-2.85,2.82-5.92,5.39-8.74,8.24l-2.1,2.13a0.83,0.83,0,0,0,1,1.33l10.47-5.84,5.56-2.41,2.88-.76,3.09-.29a1.61,1.61,0,0,1,1.72,2,14.38,14.38,0,0,1-1,2.87l-1.54,2.61-1.92,2.29a32.66,32.66,0,0,1-4.62,3.83q-4.78,3.55-9.5,7.19l-2.5,1.92-0.87,1.16c-1.64,2.19,1.76,1.5,2.88,1.23l2.8-.66c9.33-2.48,26.92-10.57,35.24-10.84a1.26,1.26,0,0,1,1,1.74,22.31,22.31,0,0,1-1,2.87,25,25,0,0,1-2.69,5.27,29.42,29.42,0,0,1-4,4.42l-4.7,3.84c-1,.79-2.33,1.17-3,2.3l-0.39.67a0.63,0.63,0,0,0,.87.86l1.35-.77c0.5-.28,2.56-1.6,3.83-2.41,1.68-1.07,3.29-2.24,5-3.25a8.3,8.3,0,0,1,2.12-.87c0.74-.19,1.83-0.07,1.83.87a9.5,9.5,0,0,1-.31,3.08,18.25,18.25,0,0,1-2.29,3.83c-2.42,3.21-5.4,5.94-8,9a40.38,40.38,0,0,0-2.79,3.55l-0.58,1.44a0.79,0.79,0,0,0,1,1,4.64,4.64,0,0,0,1.54-.38,15.16,15.16,0,0,0,2.6-1.54l9.48-7.38a88.23,88.23,0,0,0,8.94-8c8.31-8.53,16.7-17,25.82-24.65,6.57-5.52,14.5-12.43,22.19-16.41a45.24,45.24,0,0,1,5.48-2.4c1.1-.39,5.2-1.28,6.24-0.2a2.85,2.85,0,0,1,.19,3.34c-3,5.86-7.84,10.55-11.91,15.67a101,101,0,0,1-11,11.3c-8.25,7.57-16.91,14.68-25.05,22.37a80,80,0,0,0-6.06,7.87,18.63,18.63,0,0,0-2.48,4.3Z"/><path class="b" d="M158.66,627.94c0,9.36,7,17.71,21.81,17.71s21.38-8,21.38-16.56c0-6.41-4-12.24-12.74-14.47l-12.1-3c-3.6-.94-4-1.37-4.75-2.16a4.86,4.86,0,0,1-1.29-3.38c0-3,2.52-6.48,9.79-6.48a10.71,10.71,0,0,1,7.7,2.74,8.37,8.37,0,0,1,2.45,5.47L201,607.92c-0.43-5.61-2.3-9-5.11-11.59s-8.35-5.11-15.76-5.11c-13.47,0-19.73,7.56-19.73,16,0,6.48,3.67,11.74,12.6,14l10.37,2.66c1.87,0.43,4.61.79,6.33,3a6.09,6.09,0,0,1,1.29,3.39c0,3.31-2.52,7.05-10.8,7.05-8.06,0-11.37-4.18-11.23-9.22Zm261.71,19.94v8l6.84-.07c6.19,0,9.29-3,9.29-9.65l-0.07-38.88h-9.87v34.63c0,5.18-1.51,6-4,6h-2.23Zm6.19-46.15h9.87V593h-9.87v8.78ZM388.84,628.3L416,628.37c0-10.87-4.9-22.39-18.58-22.39-14,0-18.36,11.16-18.36,19.51,0,12.17,8.06,19.73,18.29,19.73s16.49-5.54,18-11.95l-9.87-.65c-1.87,3.38-4.46,4.75-7.63,4.75C393.16,637.37,389.34,634.21,388.84,628.3Zm0.36-7.13a8.5,8.5,0,0,1,8.06-7.49c4,0,7.49,2.73,8.13,7.49H389.2Zm-80.35,22.75h9.86v-12l4.11-4.1,10.08,16.13H345l-15.12-22.53,13.18-14.11H331.39l-12.67,14L318.64,593h-9.79v51Zm-16.2-13.32c-0.58,2.88-1.37,4-2.81,5.11a7.72,7.72,0,0,1-4.83,1.51c-4.39,0-8.5-3.17-8.5-11.37,0-9,4.39-12.31,8.86-12.31a7.18,7.18,0,0,1,7.05,6.26l9.43-.5c-0.79-7.63-6.7-13.54-16.7-13.54-7.2,0-12.24,2.81-15.55,7.7a20.56,20.56,0,0,0-3.53,12.24c0,7.42,3,13,7.56,16.41A18.6,18.6,0,0,0,285,645.51a18.33,18.33,0,0,0,7.34-1.22c5.47-2,8.85-6.19,9.57-13.25Zm-43.41,9.14a12.82,12.82,0,0,0,1.22,4.18h10c-0.58-.5-1.51-2.16-1.51-5.18L258.81,620c-0.07-3.24-.29-4.18-0.58-5-1.44-5-5.55-9.07-15.48-9.07-11.45,0-15.91,5.83-15.91,12.24l8.64,0.14c0.43-2.45.79-3,1.58-3.67a8.41,8.41,0,0,1,5.69-1.73c4.68,0,6.41,2.45,6.41,4.18s-1.08,3-3.81,3.46l-9.86,1.73c-7.42,1.3-10.87,6.12-10.87,10.95,0,6.33,4.9,11.74,13.75,11.74C244.49,645,247.8,642.56,249.24,639.75Zm0-15.34v5.47c-0.29,4.61-3.39,7.77-8.71,7.77-4.18,0-6.19-2.45-6.19-4.61,0-1.73.86-4,6.77-5.4l4.25-1.15A8.09,8.09,0,0,0,249.24,624.41Zm-5.91-21.53L253.2,603l0.07-10h-9.94v9.93Zm-12.81,0h9.79l0.07-10h-9.86v10Zm-21.67,41h9.86V593h-9.79Z"/><path class="b" d="M106,731h9.86V709.84c0-5.26,3-7.92,6.91-7.92a4.91,4.91,0,0,1,5,3.1c0.14,0.36.43,1.15,0.43,4v22h9.72V709.26c0-4.75,3-7.49,6.84-7.49,3.38,0,5.55,2,5.55,6.33V731H160L160,705.3c-0.21-7.7-5.11-12.1-11.81-12.1a12.23,12.23,0,0,0-11.23,6.41,11.86,11.86,0,0,0-10.8-6.41c-5,0-8.28,2.16-10.15,5.83l-0.36-4.61-9.58-.07Zm350.34,0h9.87l0.07-20.52c0-2.88.58-4.25,1.37-5.4a7.4,7.4,0,0,1,6-3.1c3.38,0,5.83,2.23,5.83,6.34V731h9.86V705.16c0-6.84-5-12.1-12.67-12.1-5.26,0-8.93,2.81-10.15,5.69L466,694.43l-9.65-.07Zm-34.12-15.62,27.14,0.07c0-10.87-4.9-22.39-18.58-22.39-14,0-18.36,11.16-18.36,19.51,0,12.17,8.06,19.73,18.29,19.73s16.49-5.54,18-12l-9.87-.65c-1.94,3.38-4.46,4.75-7.63,4.75C426.49,724.45,422.67,721.29,422.17,715.38Zm0.36-7.13a8.5,8.5,0,0,1,8.06-7.49c4,0,7.49,2.73,8.13,7.49h-16.2ZM407.27,731v-7.56h-3.67a3.65,3.65,0,0,1-2.81-1.37c-0.22-.29-0.51-0.86-0.51-2.88V701.06H407v-6.7h-6.62l-0.14-11.59h-9.79v11.59h-5.11v6.77l5.18-.07V720c0,8.28,3.38,11,8.78,11h8ZM380,731v-7.56H376.3a3.66,3.66,0,0,1-2.81-1.37c-0.21-.29-0.5-0.86-0.5-2.88V701.06h6.7v-6.7h-6.63l-0.14-11.59h-9.79v11.59H358v6.77l5.18-.07V720c0,8.28,3.39,11,8.78,11h8Zm-37.66-4.18a10.31,10.31,0,0,0,1.15,4.18h10a6.18,6.18,0,0,1-1.66-3.81l0.07-20.09c0-8.78-4.61-14-16.49-14-11.09,0-15.69,6.05-15.55,12.24l8.71,0.14c0-2.73,2.09-5.33,7.13-5.33,4.83,0,6.41,2.38,6.41,4.1,0,1.51-.93,2.88-3.6,3.39l-5.62.93c-8.13,1.44-10.29,3-11.8,4.32a10,10,0,0,0-3.39,7.63c0,6,4.75,11.52,14,11.52C337.07,732,340.16,730.22,342.32,726.83Zm0-15.12v4.61c0,5.18-3.24,8.42-8.93,8.42-4.11,0-6-2.45-6-4.68,0-1.73.58-3.67,6.77-5.4l4.25-1.15A11.44,11.44,0,0,0,342.32,711.71ZM293.87,731h9.72l12.53-36.64h-10l-7.34,24.12-7.2-24h-10Zm-57.67-3.74,0.43,3.74h9.79l-0.07-51h-9.86v18.51c-1.8-2.88-5.91-5.33-10.58-5.33-8.21,0-16.27,6.84-16.27,19.66a21.42,21.42,0,0,0,4.75,14,13.79,13.79,0,0,0,11.16,5.33A13.05,13.05,0,0,0,236.2,727.26Zm-7.78-3.53c-4.61,0-8.64-3.31-8.64-11.09,0-8.71,4.25-11.81,8.28-11.81s8.28,3.1,8.28,11.52C236.34,720.42,232.09,723.66,228.42,723.73Zm-52.12-8.35,27.14,0.07c0-10.87-4.89-22.39-18.57-22.39-14,0-18.36,11.16-18.36,19.51,0,12.17,8.06,19.73,18.29,19.73s16.49-5.54,18-12l-9.86-.65c-1.94,3.38-4.46,4.75-7.63,4.75C180.61,724.45,176.8,721.29,176.3,715.38Zm0.36-7.13a8.5,8.5,0,0,1,8.06-7.49c4,0,7.49,2.73,8.13,7.49h-16.2Z"/><path class="c" d="M35.39,297.63c0,144.79,117.43,262.21,262.21,262.21S559.75,442.41,559.75,297.63,442.39,35.48,297.6,35.48,35.39,152.84,35.39,297.63Zm425,132.81c67.48-82.53,62.73-204.35-14.27-281.34s-198.85-81.8-281.39-14.32ZM134.66,164.86C67.22,247.41,72,369.27,149,446.25S347.78,528,430.32,460.52Z"/></svg>