<?xml version="1.0" encoding="UTF-8"?>
<svg id="Lager_1" data-name="Lager 1" xmlns="http://www.w3.org/2000/svg" viewBox="0 0 153.09 218.69">
  <defs>
    <style>
      .cls-1 {
        fill: #aa2825;
      }

      .cls-1, .cls-2, .cls-3 {
        fill-rule: evenodd;
      }

      .cls-2 {
        fill: #fff;
      }

      .cls-3 {
        fill: #1d1f22;
      }
    </style>
  </defs>
  <polyline class="cls-2" points="0 218.69 153.09 218.69 153.09 0 0 0 0 218.69"/>
  <polyline class="cls-3" points="59.45 49.53 69.15 49.53 69.15 43.69 62.21 43.69 62.21 35.09 90.15 35.09 90.15 43.69 83.58 43.69 83.58 49.53 93.3 49.53 93.3 85.7 59.45 85.7 59.45 49.53"/>
  <path class="cls-3" d="M37.2,81.08l4.82,1.02c8.07,1.63,16.14,3.27,24.21,4.9l10.13,2.07-.5.75.15.91-.25.82-.81.75.7.97.35.82-.83.82.33.95-34.57-7.51-3.72-7.27"/>
  <polyline class="cls-3" points="115.94 81.34 76.74 89.05 76.6 89.88 77.53 90.6 77.74 91.52 77.03 92.27 78.14 93.27 78.76 94.06 78.12 94.95 79.43 95.64 112.17 88.35 115.94 81.34"/>
  <path class="cls-1" d="M18.04,65.45c0,32.31,26.2,58.52,58.52,58.52s58.5-26.21,58.5-58.52S108.86,6.95,76.55,6.95s-58.52,26.19-58.52,58.5ZM112.9,95.09c15.06-18.42,14-45.6-3.18-62.79-17.18-17.18-44.38-18.25-62.8-3.19l65.98,65.98ZM40.19,35.82c-15.05,18.42-13.98,45.62,3.2,62.8,17.18,17.18,44.36,18.23,62.78,3.18L40.19,35.82Z"/>
  <polyline class="cls-1" points="10.06 133.73 143.06 133.73 143.06 208.97 10.06 208.97 10.06 133.73"/>
  <path class="cls-2" d="M25.32,153.49h9.78v-2.26h-7.07v-3.59h6.18v-2.15h-6.17v-2.91h6.94v-2.2h-9.67v13.11ZM127.75,153.49v-1.95h-.94c-.3,0-.59-.17-.72-.35-.06-.07-.13-.22-.13-.74v-4.67h1.7v-1.72h-1.7l-.02-2.98h-2.52v2.98h-1.31v1.74l1.33-.02v4.87c0,2.13.87,2.83,2.26,2.83h2.06ZM111.94,150.34c.04,1.78,1.54,3.48,4.42,3.48s4.24-1.57,4.24-3.26c0-.59-.22-1.18-.59-1.65-.35-.44-.81-.78-1.93-1.04l-2.7-.63c-.57-.15-.8-.5-.8-.83,0-.37.33-.95,1.57-.95,1.33,0,1.93.7,1.94,1.46l2.24-.04c-.04-.94-.56-1.89-1.35-2.48-.55-.39-1.43-.72-2.8-.72-2.72,0-3.92,1.46-3.92,3.07,0,.76.22,1.3.67,1.78.33.35.74.65,1.8.87l2.04.46c1.18.26,1.33.63,1.33,1.07,0,.41-.39,1.05-1.78,1.05s-2.02-.7-2.09-1.68l-2.3.02ZM107.57,152.42c.05.46.17.8.31,1.07h2.57c-.31-.39-.41-.67-.43-.98l.02-5.17c0-2.26-1.18-3.61-4.26-3.61-2.85,0-4.04,1.55-3.98,3.15l2.24.04c0-.7.52-1.37,1.81-1.37s1.67.61,1.67,1.06c0,.39-.24.74-.93.87l-1.44.24c-2.09.37-2.65.76-3.05,1.11-.56.5-.85,1.2-.85,1.96,0,1.56,1.22,2.96,3.59,2.96,1.39,0,2.19-.46,2.72-1.33ZM107.59,148.53l-.02,1.18c0,1.33-.83,2.17-2.28,2.17-1.05,0-1.55-.63-1.55-1.2,0-.44.15-.94,1.74-1.39l1.09-.3c.48-.13.81-.32,1.02-.46ZM97,153.49h2.54v-13.11h-2.52l-.02,13.11ZM78.35,154.01c.11.89.39,1.39.91,1.89.57.55,1.65,1.07,3.46,1.07,2.04,0,3.35-.76,3.98-1.57.43-.57.67-1.09.67-2.5v-8.83h-2.43l-.09,1.15c-.17-.3-.69-1.48-2.78-1.48-2.28,0-4.26,1.81-4.26,4.72s1.98,4.74,4.22,4.74c1.52,0,2.44-.68,2.81-1.41v1.02c0,1.59-.74,2.26-2.19,2.26-1.11,0-1.63-.55-1.72-1.15l-2.59.09ZM82.65,151.01c-1.24,0-2.28-.89-2.28-2.63,0-1.52,1.06-2.48,2.22-2.48s2.22.96,2.22,2.55-1.07,2.55-2.17,2.55ZM67.61,153.49h2.54v-5.28c0-.74.15-1.09.37-1.39.33-.48.93-.8,1.54-.8.87,0,1.5.57,1.5,1.63v5.83h2.52v-6.65c0-1.76-1.3-3.11-3.24-3.11-1.35,0-2.3.72-2.61,1.46l-.11-1.11-2.48-.02-.02,9.42ZM63.12,152.43l.15,1.06h2.39l-.02-9.41-2.5-.02v5.28c0,1.44-.87,2.18-1.89,2.18-.94,0-1.54-.5-1.54-1.83v-5.63h-2.52v6.48c0,1.24.35,1.91.92,2.44.54.5,1.33.81,2.35.81,1.17,0,2.09-.5,2.65-1.37ZM55.36,153.49v-1.95h-.94c-.3,0-.59-.17-.72-.35-.06-.07-.13-.22-.13-.74v-4.67h1.7v-1.72h-1.7l-.02-2.98h-2.52v2.98h-1.32v1.74l1.33-.02v4.87c0,2.13.87,2.83,2.26,2.83h2.05ZM36.32,154.51v2.05l1.76-.02c1.59,0,2.39-.78,2.39-2.48l-.02-10h-2.54v8.91c0,1.33-.41,1.54-1.02,1.54h-.57ZM37.92,142.64h2.54v-2.26h-2.54v2.26Z"/>
</svg>