<?xml version="1.0" encoding="UTF-8"?>
<svg id="Lager_1" data-name="Lager 1" xmlns="http://www.w3.org/2000/svg" viewBox="0 0 153.09 218.69">
  <defs>
    <style>
      .cls-1 {
        fill: #aa2825;
      }

      .cls-1, .cls-2, .cls-3 {
        fill-rule: evenodd;
      }

      .cls-2 {
        fill: #fff;
      }

      .cls-3 {
        fill: #1d1f22;
      }
    </style>
  </defs>
  <polyline class="cls-2" points="0 218.69 153.09 218.69 153.09 0 0 0 0 218.69"/>
  <path class="cls-3" d="M79.49,34.32l-.76.28c-2.33,1.04-3.72,3.46-3.42,5.99l.15.8,1.78-.46-.11-.69c-.15-1.63.76-3.21,2.23-3.92l.65-.24-.52-1.78ZM60.91,82.01c0,.42.34.76.76.76s.76-.34.76-.76-.34-.76-.76-.76-.76.34-.76.76ZM69.04,86.66c0,.42.34.76.76.76s.76-.34.76-.76-.34-.76-.76-.76-.76.34-.76.76ZM60.09,82.04c0,.86.68,1.55,1.54,1.55s1.56-.68,1.56-1.55-.7-1.56-1.56-1.56-1.54.7-1.54,1.56ZM68.26,86.68c0,.86.68,1.55,1.55,1.55s1.56-.68,1.56-1.55-.7-1.56-1.56-1.56-1.55.7-1.55,1.56ZM64.78,73.93c0,.86.68,1.55,1.55,1.55s1.56-.68,1.56-1.55-.7-1.56-1.56-1.56-1.55.7-1.55,1.56ZM64.15,84.37c0,.86.68,1.55,1.55,1.55s1.56-.68,1.56-1.55-.7-1.56-1.56-1.56-1.55.7-1.55,1.56ZM66.5,80.31c0,.86.68,1.55,1.55,1.55s1.56-.68,1.56-1.55-.7-1.56-1.56-1.56-1.55.7-1.55,1.56ZM70.57,82.63c0,.86.68,1.54,1.55,1.54s1.56-.68,1.56-1.54-.7-1.56-1.56-1.56-1.55.7-1.55,1.56ZM68.83,76.24c0,.86.68,1.55,1.55,1.55s1.56-.68,1.56-1.55-.7-1.56-1.56-1.56-1.55.7-1.55,1.56ZM62.44,77.98c0,.86.68,1.55,1.55,1.55s1.56-.68,1.56-1.55-.7-1.56-1.56-1.56-1.55.7-1.55,1.56ZM75.22,74.5c0,.86.68,1.55,1.55,1.55s1.56-.68,1.56-1.55-.7-1.56-1.56-1.56-1.55.7-1.55,1.56ZM72.89,78.57c0,.86.68,1.55,1.55,1.55s1.56-.68,1.56-1.55-.7-1.56-1.56-1.56-1.55.7-1.55,1.56ZM67.07,69.85c0,.86.68,1.54,1.55,1.54s1.56-.68,1.56-1.54-.7-1.56-1.56-1.56-1.55.7-1.55,1.56ZM71.14,72.19c0,.86.68,1.54,1.55,1.54s1.56-.68,1.56-1.54-.7-1.56-1.56-1.56-1.55.7-1.55,1.56ZM62.32,93.33l-2.6-1.49c-1.75-1-3.23,1.62-1.49,2.62l2.6,1.49c1.75,1,3.23-1.62,1.5-2.62ZM85.25,40.36l-3.33,5.82-.48-.28-4.92,8.59,13.44,7.68-24.87,43.45-17.36-9.93,24.87-43.46,1.38.8,4.92-8.59-.48-.28,3.33-5.8,3.49,1.99ZM88.09,40.71l.13.69c.09,1.67-.75,3.17-2.25,3.91l-.65.24.52,1.77.76-.28c2.3-1.01,3.72-3.48,3.42-5.97l-.13-.82-1.8.45ZM95.23,38.89l.22,1.15c.77,5.23-2.1,10.21-6.99,12.22l-1.1.37-.5-1.75.97-.34c4.03-1.68,6.42-5.82,5.82-10.14l-.21-1.04,1.79-.46ZM100.55,37.52l.3,1.34c1.37,7.94-3.14,15.78-10.67,18.62l-1.3.43-.52-1.75,1.23-.41c6.65-2.58,10.64-9.49,9.44-16.53l-.26-1.26,1.78-.45ZM76.44,23.72l-1.3.43c-7.52,2.85-12.06,10.69-10.65,18.63l.28,1.34,1.77-.46-.26-1.26c-1.2-7.07,2.78-13.92,9.44-16.53l1.24-.39-.52-1.77ZM77.98,29.02l-1.11.37c-4.84,1.98-7.78,7.03-6.99,12.22l.24,1.15,1.77-.45-.19-1.04c-.65-4.23,1.81-8.55,5.8-10.12l.97-.35-.5-1.78Z"/>
  <path class="cls-1" d="M18.03,65.45c0,32.31,26.21,58.52,58.52,58.52s58.5-26.21,58.5-58.52S108.86,6.95,76.55,6.95s-58.52,26.19-58.52,58.5ZM112.88,95.09c15.06-18.42,14-45.6-3.18-62.79-17.18-17.18-44.38-18.25-62.8-3.19l65.98,65.98ZM40.19,35.82c-15.05,18.42-13.98,45.62,3.19,62.8,17.18,17.18,44.36,18.23,62.78,3.18L40.19,35.82Z"/>
  <polyline class="cls-1" points="10.06 133.73 143.06 133.73 143.06 208.97 10.06 208.97 10.06 133.73"/>
  <path class="cls-2" d="M25.21,153.51h9.78v-2.26h-7.05v-3.59h6.19v-2.15h-6.19v-2.91h6.94v-2.2h-9.67v13.11ZM124.96,152.43c.04.46.15.8.3,1.07h2.59c-.33-.39-.43-.67-.43-.98v-5.17c0-2.26-1.17-3.61-4.24-3.61-2.85,0-4.04,1.56-3.98,3.15l2.24.04c0-.7.52-1.37,1.81-1.37s1.65.61,1.65,1.05c0,.39-.24.74-.93.87l-1.45.24c-2.07.37-2.65.76-3.04,1.11-.56.5-.87,1.2-.87,1.96,0,1.55,1.22,2.96,3.61,2.96,1.37,0,2.19-.46,2.72-1.33ZM124.96,148.55v1.18c0,1.33-.83,2.17-2.28,2.17-1.07,0-1.57-.63-1.57-1.2,0-.45.15-.95,1.74-1.39l1.11-.3c.48-.13.8-.32,1-.46ZM108.46,153.51h2.54l.02-5.28c0-.74.15-1.09.35-1.39.33-.48.93-.8,1.54-.8.87,0,1.5.57,1.5,1.63v5.83h2.54v-6.65c0-1.76-1.3-3.11-3.24-3.11-1.35,0-2.31.72-2.63,1.46l-.11-1.11-2.48-.02-.02,9.42ZM97.48,154.03c.13.89.39,1.39.92,1.89.57.56,1.63,1.07,3.46,1.07,2.04,0,3.35-.76,3.98-1.57.43-.57.65-1.09.65-2.5v-8.83h-2.43l-.07,1.15c-.19-.3-.69-1.48-2.78-1.48-2.3,0-4.28,1.82-4.28,4.72s2,4.74,4.24,4.74c1.5,0,2.44-.68,2.8-1.41v1.02c0,1.59-.72,2.26-2.19,2.26-1.09,0-1.61-.56-1.7-1.15l-2.61.09ZM101.78,151.03c-1.22,0-2.26-.89-2.26-2.63,0-1.52,1.06-2.48,2.2-2.48s2.22.96,2.22,2.55-1.07,2.55-2.17,2.55ZM92.61,152.43c.04.46.15.8.3,1.07h2.59c-.33-.39-.42-.67-.42-.98v-5.17c0-2.26-1.17-3.61-4.24-3.61-2.85,0-4.04,1.56-3.98,3.15l2.24.04c0-.7.52-1.37,1.81-1.37s1.65.61,1.65,1.05c0,.39-.24.74-.93.87l-1.45.24c-2.07.37-2.65.76-3.04,1.11-.56.5-.87,1.2-.87,1.96,0,1.55,1.22,2.96,3.61,2.96,1.37,0,2.19-.46,2.72-1.33ZM92.61,148.55v1.18c0,1.33-.83,2.17-2.28,2.17-1.07,0-1.57-.63-1.57-1.2,0-.45.15-.95,1.74-1.39l1.11-.3c.48-.13.8-.32,1-.46ZM82.02,153.51h2.54v-13.11h-2.52l-.02,13.11ZM71.5,150.36c.05,1.78,1.54,3.48,4.44,3.48s4.2-1.57,4.2-3.26c0-.59-.2-1.18-.57-1.65-.35-.45-.82-.78-1.93-1.04l-2.7-.63c-.56-.15-.8-.5-.8-.83,0-.37.35-.94,1.57-.94,1.33,0,1.93.7,1.94,1.46l2.22-.04c-.04-.94-.54-1.89-1.35-2.48-.54-.39-1.43-.72-2.78-.72-2.7,0-3.91,1.46-3.91,3.07,0,.76.2,1.3.65,1.78.33.35.76.65,1.8.87l2.05.46c1.17.26,1.32.63,1.32,1.07,0,.41-.41,1.06-1.78,1.06s-2-.7-2.09-1.68l-2.3.02ZM67.15,152.43c.05.37.17.78.33,1.07h2.55c-.15-.13-.39-.55-.39-1.33l-.04-4.81c-.02-.83-.07-1.07-.13-1.28-.39-1.3-1.44-2.33-4-2.33-2.94,0-4.09,1.5-4.09,3.15l2.24.04c.09-.63.19-.76.39-.94.24-.22.72-.45,1.48-.45,1.19,0,1.63.63,1.63,1.07s-.28.76-.96.89l-2.56.44c-1.91.33-2.8,1.57-2.8,2.82,0,1.63,1.26,3.02,3.54,3.02,1.57,0,2.42-.63,2.8-1.35ZM67.15,148.49v1.41c-.07,1.18-.87,2-2.24,2-1.07,0-1.57-.63-1.57-1.18,0-.44.2-1.02,1.72-1.39l1.09-.3c.41-.09.76-.3,1-.54ZM65.3,142.99c.65,0,1.26-.59,1.26-1.32s-.59-1.31-1.31-1.31-1.31.61-1.31,1.31c0,.74.57,1.32,1.37,1.32ZM65.28,142.45c-.48,0-.81-.35-.81-.78s.37-.78.78-.8c.41,0,.78.33.78.8s-.37.78-.74.78ZM52.54,152.42c.54.87,1.46,1.41,2.76,1.41,2.57,0,4.17-2.39,4.17-5.07s-1.56-4.96-4.13-4.96c-1.15,0-2.07.46-2.74,1.28l-.11-.96-2.5.02v12.46h2.54l.02-4.17ZM54.8,151.88c-1.22,0-2.24-.82-2.24-2.85,0-2.28,1.11-3.07,2.15-3.07s2.19.85,2.19,2.94c0,1.39-.59,2.96-2.09,2.98ZM36.21,154.53v2.06l1.76-.02c1.61,0,2.39-.78,2.39-2.48l-.02-10h-2.52l-.02,8.91c0,1.33-.39,1.54-1,1.54h-.59ZM37.8,142.66h2.55l-.02-2.26h-2.54v2.26Z"/>
  <path class="cls-2" d="M16.28,177.46h2.48v-5.44c0-1.35.74-2.04,1.74-2.04.67,0,1.07.33,1.25.8.04.09.11.3.11,1.04v5.65h2.45v-5.59c0-1.22.74-1.93,1.72-1.93.85,0,1.39.52,1.39,1.63v5.89h2.46l-.02-6.61c-.05-1.98-1.29-3.11-2.97-3.11-1.27,0-2.28.61-2.82,1.65-.47-.98-1.5-1.65-2.72-1.65s-2.08.56-2.55,1.5l-.09-1.18-2.41-.02-.02,9.42ZM134.22,177.46h2.48v-4.18c0-1.41.34-2.05.74-2.5.47-.5,1.01-.74,1.68-.74.14,0,.29.02.43.04v-2.24c-.13-.02-.31-.06-.52-.06-1.07,0-2.01.7-2.3,1.68l-.07-1.43h-2.43l-.02,9.42ZM125.64,173.44l6.83.02c0-2.8-1.23-5.76-4.67-5.76s-4.62,2.87-4.62,5.02c0,3.13,2.03,5.07,4.6,5.07s4.15-1.42,4.53-3.07l-2.48-.17c-.49.87-1.12,1.22-1.92,1.22-1.18,0-2.14-.82-2.26-2.33ZM125.73,171.6c.16-1.15,1.09-1.93,2.03-1.93,1.01,0,1.88.7,2.05,1.93h-4.07ZM113.18,177.46h2.48l.02-5.28c0-.74.15-1.09.34-1.39.33-.48.91-.8,1.5-.8.85,0,1.47.57,1.47,1.63v5.83h2.48v-6.65c0-1.76-1.27-3.11-3.19-3.11-1.32,0-2.25.72-2.55,1.46l-.11-1.11-2.43-.02-.02,9.42ZM106.59,177.81c2.79,0,4.83-2.02,4.83-5.09s-2.01-5.04-4.87-5.04-4.82,2.04-4.82,5.02,2.05,5.11,4.85,5.11ZM106.57,175.83c-1.18,0-2.32-.93-2.32-3.02,0-2.26,1.1-3.15,2.32-3.15s2.33.91,2.33,3.05-1.12,3.11-2.33,3.11ZM96.26,177.46h2.48v-7.74h1.79v-1.68h-1.79v-.18c0-.85.15-1.09.31-1.26.2-.22.47-.39,1.09-.37h.4v-1.87h-1.41c-.83,0-3.1.15-2.86,3.68h-1.34v1.68h1.34v7.74ZM86.9,173.44l6.83.02c0-2.8-1.23-5.76-4.67-5.76s-4.62,2.87-4.62,5.02c0,3.13,2.03,5.07,4.6,5.07s4.15-1.42,4.53-3.07l-2.48-.17c-.49.87-1.12,1.22-1.92,1.22-1.18,0-2.14-.82-2.26-2.33ZM86.99,171.6c.16-1.15,1.09-1.93,2.03-1.93,1.01,0,1.88.7,2.05,1.93h-4.07ZM80.22,177.46h2.48v-13.11h-2.46l-.02,13.11ZM71.66,173.44l6.81.02c0-2.8-1.21-5.76-4.65-5.76s-4.62,2.87-4.62,5.02c0,3.13,2.03,5.07,4.6,5.07s4.13-1.42,4.51-3.07l-2.46-.17c-.49.87-1.12,1.22-1.92,1.22-1.18,0-2.14-.82-2.26-2.33ZM71.75,171.6c.16-1.15,1.09-1.93,2.03-1.93,1.01,0,1.88.7,2.05,1.93h-4.07ZM67.91,177.46v-1.94h-.92c-.29,0-.58-.17-.71-.35-.05-.07-.13-.22-.13-.74v-4.67h1.68v-1.72h-1.66l-.04-2.98h-2.46v2.98h-1.29v1.74l1.3-.02v4.87c0,2.13.85,2.83,2.21,2.83h2.01ZM58.36,177.46h2.48v-13.11h-2.46l-.02,13.11ZM53.96,177.46h2.48v-9.42h-2.48v9.42ZM53.98,166.61h2.46v-2.26h-2.46v2.26ZM42.95,177.46h2.45l.13-.96c.65.83,1.54,1.26,2.66,1.26,2.03,0,4.04-1.7,4.04-5.04s-2.03-5-4.02-5c-1.34,0-2.28.59-2.75,1.41l-.02-4.78h-2.48v13.11ZM47.57,175.57c-1.03,0-2.1-.83-2.1-2.94s1.07-2.94,2.08-2.94c1.1,0,2.12.8,2.12,2.98s-1.03,2.91-2.1,2.91ZM36.36,177.81c2.79,0,4.83-2.02,4.83-5.09s-2.01-5.04-4.87-5.04-4.82,2.04-4.82,5.02,2.05,5.11,4.85,5.11ZM36.35,175.83c-1.18,0-2.32-.93-2.32-3.02,0-2.26,1.1-3.15,2.32-3.15s2.34.91,2.34,3.05-1.12,3.11-2.34,3.11Z"/>
</svg>