<svg xmlns="http://www.w3.org/2000/svg" viewBox="0 0 595.28 850.36"><defs><style>.a{fill:#e5e8eb;}.a,.b,.c{fill-rule:evenodd;}.b{fill:#000100;}.c{fill:#ad1922;}</style></defs><title>P013_C</title><polyline class="a" points="0 850.36 595.28 850.36 595.28 0 0 0 0 850.36"/><path class="b" d="M310.76,158.12l-3.39,1.27A26.09,26.09,0,0,0,292,186.23l0.67,3.59,8-2-0.49-3.1a17.84,17.84,0,0,1,10-17.54l2.92-1.07ZM227.49,371.82a3.4,3.4,0,1,0,3.4-3.39A3.41,3.41,0,0,0,227.49,371.82Zm36.43,20.88a3.4,3.4,0,1,0,3.4-3.4A3.41,3.41,0,0,0,263.92,392.71Zm-40-20.75a7,7,0,0,0,13.92,0A7,7,0,1,0,223.89,372Zm36.5,20.81a7,7,0,0,0,13.92,0A7,7,0,1,0,260.39,392.76ZM244.84,335.6a7,7,0,0,0,13.92,0A7,7,0,1,0,244.84,335.6Zm-2.73,46.8a7,7,0,0,0,13.92,0A7,7,0,1,0,242.11,382.39Zm10.44-18.22a7,7,0,0,0,13.92,0A7,7,0,1,0,252.55,364.18Zm18.29,10.44a7,7,0,0,0,13.92,0A7,7,0,1,0,270.83,374.62ZM263.06,346A7,7,0,0,0,277,346,7,7,0,1,0,263.06,346Zm-28.73,7.85a7,7,0,0,0,13.92,0A7,7,0,1,0,234.33,353.81Zm57.31-15.62a7,7,0,0,0,13.92,0A7,7,0,1,0,291.64,338.19ZM281.2,356.4a7,7,0,0,0,13.92,0A7,7,0,1,0,281.2,356.4Zm-26.06-39a7,7,0,0,0,13.92,0A7,7,0,1,0,255.14,317.38Zm18.29,10.44a7,7,0,0,0,13.92,0A7,7,0,1,0,273.42,327.82Zm-39.58,94.72-11.64-6.69c-7.82-4.5-14.46,7.25-6.69,11.72l11.63,6.69C235,438.76,241.63,427,233.84,422.54ZM336.58,185.17l-14.94,26.06L319.5,210l-22,38.48,60.24,34.41L246.26,477.59l-77.8-44.48L279.91,238.37l6.21,3.59,22-38.48L306,202.23l14.93-26Zm12.69,1.55,0.59,3.11a18.07,18.07,0,0,1-10.09,17.54l-2.9,1.07,2.33,7.94,3.4-1.25a26.17,26.17,0,0,0,15.33-26.76l-0.59-3.68Zm32-8.15,1,5.14a50.93,50.93,0,0,1-31.31,54.76L346,240.11l-2.24-7.85,4.36-1.54a42.8,42.8,0,0,0,26.09-45.46l-1-4.65Zm23.87-6.11,1.36,6a75.69,75.69,0,0,1-47.81,83.45l-5.81,1.93L350.54,256l5.52-1.84a67.44,67.44,0,0,0,42.29-74l-1.17-5.63ZM297.08,110.61l-5.81,1.94c-33.69,12.77-54,47.91-47.72,83.46l1.26,6,7.94-2-1.15-5.62a67.48,67.48,0,0,1,42.29-74.05l5.53-1.75Zm6.9,23.75L299,136a51.12,51.12,0,0,0-31.33,54.77l1.07,5.14,8-2-0.87-4.66c-2.89-19,8.12-38.29,26-45.36l4.36-1.55Z"/><path class="b" d="M98,643.92h38v-8.78H108.62v-14h24.05v-8.35H108.62v-11.3h27v-8.57H98v51Zm387.85-4.18a10.32,10.32,0,0,0,1.15,4.18h10.08a5.47,5.47,0,0,1-1.65-3.81V620c0-8.78-4.54-14-16.49-14-11.09,0-15.69,6.05-15.48,12.24l8.71,0.14c0-2.74,2-5.33,7.05-5.33,4.83,0,6.41,2.38,6.41,4.1,0,1.51-.93,2.88-3.6,3.39l-5.62.93c-8.06,1.44-10.29,3-11.8,4.32a10.19,10.19,0,0,0-3.38,7.63c0,6,4.75,11.52,14,11.52C480.64,644.93,483.81,643.13,485.89,639.75Zm0-15.12v4.61c0,5.18-3.24,8.42-8.86,8.42-4.17,0-6.12-2.45-6.12-4.68,0-1.73.58-3.67,6.77-5.4l4.32-1.15A11.62,11.62,0,0,0,485.89,624.63Zm-64.15,19.29h9.86l0.07-20.52c0-2.88.58-4.25,1.37-5.4a7.41,7.41,0,0,1,6-3.1c3.38,0,5.83,2.23,5.83,6.34v22.68h9.87V618.08c0-6.84-5-12.1-12.6-12.1-5.25,0-9,2.81-10.22,5.69l-0.43-4.32-9.65-.07Zm-42.69,2c0.5,3.45,1.51,5.4,3.6,7.34,2.23,2.16,6.34,4.18,13.47,4.18,7.92,0,13-3,15.48-6.12,1.66-2.23,2.52-4.25,2.52-9.72V607.28h-9.43l-0.29,4.46c-0.72-1.15-2.66-5.76-10.8-5.76C384.67,606,377,613,377,624.34s7.77,18.43,16.49,18.43c5.83,0,9.5-2.66,10.87-5.47v4c0,6.19-2.81,8.78-8.5,8.78-4.25,0-6.26-2.16-6.63-4.46Zm16.7-11.67c-4.75,0-8.78-3.46-8.78-10.22,0-5.9,4.11-9.65,8.57-9.65s8.64,3.74,8.64,9.93S400,634.28,395.75,634.28Zm-35.64,5.47a10.32,10.32,0,0,0,1.15,4.18h10.08a5.47,5.47,0,0,1-1.65-3.81V620c0-8.78-4.54-14-16.49-14-11.09,0-15.69,6.05-15.48,12.24l8.71,0.14c0-2.74,2-5.33,7.05-5.33,4.83,0,6.41,2.38,6.41,4.1,0,1.51-.93,2.88-3.6,3.39l-5.62.93c-8.06,1.44-10.29,3-11.8,4.32a10.19,10.19,0,0,0-3.38,7.63c0,6,4.75,11.52,14,11.52C354.86,644.93,358,643.13,360.11,639.75Zm0-15.12v4.61c0,5.18-3.24,8.42-8.86,8.42-4.17,0-6.12-2.45-6.12-4.68,0-1.73.58-3.67,6.77-5.4l4.32-1.15A11.64,11.64,0,0,0,360.11,624.63Zm-41.18,19.29h9.87v-51H319ZM278,631.68c0.21,6.91,6,13.54,17.28,13.54s16.34-6.12,16.34-12.67a10.35,10.35,0,0,0-2.23-6.41c-1.37-1.73-3.17-3-7.49-4l-10.51-2.45c-2.16-.58-3.09-1.94-3.09-3.24s1.37-3.67,6.12-3.67c5.18,0,7.49,2.73,7.56,5.69l8.64-.14a12.78,12.78,0,0,0-5.26-9.65c-2.09-1.51-5.55-2.81-10.8-2.81-10.51,0-15.19,5.69-15.19,12a9.39,9.39,0,0,0,2.52,6.91c1.29,1.37,3,2.52,7,3.39l8,1.8c4.54,1,5.11,2.45,5.11,4.18s-1.59,4.1-6.91,4.1-7.78-2.74-8.13-6.55Zm-16.92,8.06a12.77,12.77,0,0,0,1.29,4.18h9.93c-0.58-.5-1.51-2.16-1.51-5.18L270.69,620a18.65,18.65,0,0,0-.5-5c-1.51-5-5.62-9.07-15.55-9.07-11.45,0-15.91,5.83-15.91,12.24l8.71,0.14c0.36-2.45.72-3,1.51-3.67s2.81-1.73,5.76-1.73c4.61,0,6.33,2.45,6.33,4.18s-1.08,3-3.74,3.46l-9.94,1.73c-7.42,1.3-10.87,6.12-10.87,10.95,0,6.33,4.9,11.74,13.75,11.74C256.37,645,259.67,642.55,261.12,639.75Zm0-15.34v5.47c-0.29,4.61-3.38,7.77-8.71,7.77-4.18,0-6.12-2.45-6.12-4.61,0-1.73.79-4,6.69-5.4l4.25-1.15A8.09,8.09,0,0,0,261.12,624.41ZM253.92,603a5.11,5.11,0,1,0-5.33-5.11A5.14,5.14,0,0,0,253.92,603Zm-0.07-2.09a3,3,0,0,1-3.17-3,3.21,3.21,0,0,1,3-3.1,3.06,3.06,0,0,1,3,3.1A3,3,0,0,1,253.85,600.94Zm-49.53,38.74c2.09,3.38,5.69,5.47,10.73,5.47,10,0,16.2-9.29,16.2-19.73,0-10-6.05-19.3-16.06-19.3a13.27,13.27,0,0,0-10.66,5l-0.43-3.74-9.72.07v48.45h9.86Zm8.78-2.09c-4.75,0-8.71-3.17-8.71-11.09,0-8.85,4.32-11.95,8.35-11.95s8.5,3.31,8.5,11.45C221.23,631.39,218.93,637.52,213.09,637.59Zm-72.29,10.3v8l6.84-.07c6.26,0,9.29-3,9.29-9.65l-0.07-38.88h-9.79L147,641.91c0,5.18-1.51,6-3.89,6h-2.3ZM147,601.73h9.93l-0.07-8.78H147v8.78Z"/><path class="b" d="M52.53,731H62.4V709.84c0-5.26,3-7.92,6.91-7.92a4.92,4.92,0,0,1,5,3.1c0.14,0.36.43,1.15,0.43,4v22h9.72V709.26c0-4.75,3-7.49,6.84-7.49,3.39,0,5.55,2,5.55,6.33V731h9.79l-0.07-25.7c-0.22-7.7-5.11-12.1-11.81-12.1a12.22,12.22,0,0,0-11.23,6.41,11.87,11.87,0,0,0-10.8-6.41c-5,0-8.28,2.16-10.15,5.83l-0.36-4.61-9.58-.07Zm468.92,0h9.87V714.74c0-5.48,1.37-8,3-9.72a8.83,8.83,0,0,1,6.7-2.88,14.37,14.37,0,0,1,1.73.14v-8.71a13.54,13.54,0,0,0-2.09-.22,9.52,9.52,0,0,0-9.14,6.55l-0.29-5.54h-9.65Zm-34.12-15.62,27.14,0.07c0-10.87-4.9-22.39-18.58-22.39-14,0-18.36,11.16-18.36,19.51,0,12.17,8.06,19.73,18.29,19.73s16.49-5.54,18-12L504,719.7c-1.94,3.38-4.46,4.75-7.63,4.75C491.65,724.45,487.83,721.29,487.33,715.38Zm0.36-7.13a8.5,8.5,0,0,1,8.06-7.49c4,0,7.49,2.73,8.13,7.49h-16.2ZM437.79,731h9.86l0.07-20.52c0-2.88.58-4.25,1.37-5.4a7.39,7.39,0,0,1,6-3.1c3.38,0,5.83,2.23,5.83,6.34V731h9.87V705.16c0-6.84-5-12.1-12.67-12.1-5.25,0-8.93,2.81-10.15,5.69l-0.43-4.32-9.65-.07Zm-26.21,1.37c11.09,0,19.22-7.85,19.22-19.8,0-11.59-8-19.58-19.37-19.58-11,0-19.15,7.92-19.15,19.51C392.29,724.6,400.42,732.37,411.59,732.37Zm-0.07-7.7c-4.68,0-9.22-3.6-9.22-11.74,0-8.78,4.39-12.24,9.22-12.24s9.29,3.53,9.29,11.88C420.8,721.14,416.34,724.67,411.51,724.67Zm-41,6.33h9.86V700.91h7.13v-6.55h-7.13v-0.72c0-3.31.58-4.25,1.22-4.9,0.79-.86,1.87-1.51,4.32-1.44h1.59V680h-5.61c-3.31,0-12.31.58-11.38,14.33h-5.33v6.55h5.33V731Zm-37.22-15.62,27.15,0.07c0-10.87-4.9-22.39-18.58-22.39-14,0-18.36,11.16-18.36,19.51,0,12.17,8.06,19.73,18.29,19.73s16.49-5.54,18-12L350,719.7c-1.94,3.38-4.46,4.75-7.63,4.75C337.64,724.45,333.83,721.29,333.32,715.38Zm0.36-7.13a8.5,8.5,0,0,1,8.06-7.49c4,0,7.48,2.73,8.13,7.49h-16.2ZM306.76,731h9.86V680h-9.79ZM272.7,715.38l27.07,0.07c0-10.87-4.83-22.39-18.51-22.39-14,0-18.36,11.16-18.36,19.51,0,12.17,8.06,19.73,18.29,19.73s16.42-5.54,17.93-12l-9.79-.65c-1.94,3.38-4.46,4.75-7.63,4.75C277,724.45,273.21,721.29,272.7,715.38Zm0.36-7.13a8.49,8.49,0,0,1,8.06-7.49c4,0,7.49,2.73,8.14,7.49h-16.2ZM257.8,731v-7.56h-3.67a3.66,3.66,0,0,1-2.81-1.37c-0.22-.29-0.51-0.86-0.51-2.88V701.06h6.7v-6.7h-6.62l-0.14-11.59H241v11.59h-5.11v6.77l5.18-.07V720c0,8.28,3.38,11,8.78,11h8Zm-37.94,0h9.86V680h-9.79Zm-17.5,0h9.87V694.36h-9.87V731Zm0.07-42.19h9.79V680h-9.79v8.78ZM158.59,731h9.72l0.51-3.74a12.85,12.85,0,0,0,10.58,4.9c8.06,0,16.06-6.62,16.06-19.58,0-12.6-8.06-19.44-16-19.44-5.33,0-9.07,2.3-10.94,5.47L168.45,680h-9.86v51Zm18.36-7.34c-4.1,0-8.35-3.24-8.35-11.45s4.25-11.45,8.28-11.45c4.39,0,8.42,3.1,8.42,11.59C185.3,720.42,181.19,723.66,176.94,723.66Zm-44.57,8.71c11.09,0,19.22-7.85,19.22-19.8,0-11.59-8-19.58-19.37-19.58-11,0-19.15,7.92-19.15,19.51C113.08,724.6,121.22,732.37,132.38,732.37Zm-0.07-7.7c-4.68,0-9.22-3.6-9.22-11.74,0-8.78,4.39-12.24,9.22-12.24s9.29,3.53,9.29,11.88C141.59,721.14,137.13,724.67,132.31,724.67Z"/><path class="c" d="M35.39,297.63c0,144.79,117.43,262.21,262.21,262.21S559.75,442.41,559.75,297.63,442.39,35.48,297.6,35.48,35.39,152.84,35.39,297.63Zm425,132.81c67.48-82.53,62.73-204.35-14.27-281.34s-198.85-81.8-281.39-14.32ZM134.66,164.86C67.22,247.41,72,369.27,149,446.25S347.78,528,430.32,460.52Z"/></svg>