<svg xmlns="http://www.w3.org/2000/svg" viewBox="0 0 595.28 850.36"><defs><style>.a{fill:#e5e8eb;}.a,.b,.c{fill-rule:evenodd;}.b{fill:#000100;}.c{fill:#ad1922;}</style></defs><title>P014_C</title><polyline class="a" points="0 850.36 595.28 850.36 595.28 0 0 0 0 850.36"/><path class="b" d="M347.43,189.61a42.52,42.52,0,0,1,42.43,42.63c0,25.29-20.36,42.42-44.53,42.42,4.58,6.47,10.11,33.3-1.7,41.48-13.72,12-22.26,19-28,32-20.37,41.29-36.52,89.42-43.18,137.57l-8.2-1.52c7-48.9,23-96.67,44.53-140,7.23-13.51,15.79-22.27,29.49-32.93,9.34-7.79,4.95-29.87-.95-33.1,0.39,3.23,2.28,17.7-16.16,15.8-9.71,1.52-18.46,12.56-32,28.92C262.2,355.73,258,468,241.64,460.94c-18.84,3.8,17.7-200,36.92-210.62,0.76-25.88,14.07-17.32,22.25-17.7-9.71-20.94-19.59-24.93-30.63-29.12-24.92-9.69-59.75,12.38-64.32,38.06C201.3,267.62,213.1,307.77,216,335c4.76,46.61,1,87.9-3.43,131.67l-8.18-4.19c7.6-60.13,7.42-91.91,3.43-126.34-2.86-23.59-11.23-52.71-11.42-78.77a96.58,96.58,0,0,1,1.33-16.74c5.71-34.44,47.77-54.41,73.27-45.09,15.79,5.71,25.87,11,34.81,29.87C308.61,204.65,326.12,189.61,347.43,189.61Zm-36.52-78.54c1.53,9.33,4.39,17.12,10.86,27.58,2.47,2.85,5.89,11.61,4.94,16l-2.28,22.83a55.57,55.57,0,0,1,22.06-5c60.8-1.56,83.33,78.74,31.21,109.59a54.34,54.34,0,0,1-13.12,5.72c6.65,32.72,21.3,43.57,42.23,52.51,27,13.12,42,31.78,49.28,61.45l-5.34,7.8c-1.13-9.89-7.42-45.47-44.51-61.63-22.64-9.52-44.71-24.93-48.9-65.08A52.42,52.42,0,0,0,347.66,179a51.15,51.15,0,0,0-30.08,9.71l2.28-35c0.57-2.66-2.28-9.52-3.81-11.81-6.66-10.07-10.27-18.82-12-31Z"/><path class="b" d="M130.66,643.92h38v-8.78H141.24v-14h24v-8.35h-24v-11.3h27v-8.57H130.66v51ZM435,622.76h29.45V614H435v8.71ZM417.5,643.92h9.86v-51h-9.79Zm-17.5,0h9.87v-51h-9.79Zm-18.29-4.18a10.32,10.32,0,0,0,1.16,4.18h10.08a5.48,5.48,0,0,1-1.66-3.81V620c0-8.78-4.54-14-16.49-14-11.09,0-15.7,6.05-15.48,12.24l8.71,0.14c0-2.74,2-5.33,7.06-5.33,4.82,0,6.41,2.38,6.41,4.1,0,1.51-.94,2.88-3.6,3.39l-5.61.93c-8.06,1.44-10.3,3-11.81,4.32a10.21,10.21,0,0,0-3.38,7.63c0,6,4.75,11.52,14,11.52C376.46,644.93,379.62,643.13,381.71,639.74Zm0-15.12v4.61c0,5.18-3.24,8.42-8.85,8.42-4.18,0-6.12-2.45-6.12-4.68,0-1.73.58-3.67,6.77-5.4l4.32-1.15A11.56,11.56,0,0,0,381.71,624.63Zm-30.89,19.29v-7.56h-3.67a3.7,3.7,0,0,1-2.88-1.37c-0.21-.29-0.5-0.86-0.5-2.88V614h6.7v-6.7h-6.63l-0.07-11.59H334v11.59h-5.18V614L334,614V632.9c0,8.28,3.39,11,8.86,11h8ZM297.33,628.3l27.14,0.07c0-10.87-5-22.39-18.57-22.39-14,0-18.36,11.16-18.36,19.51,0,12.17,8.06,19.73,18.29,19.73s16.49-5.54,17.93-11.95l-9.86-.65c-1.87,3.38-4.46,4.75-7.63,4.75C301.58,637.37,297.76,634.2,297.33,628.3Zm0.36-7.13a8.37,8.37,0,0,1,8-7.49c4,0,7.49,2.73,8.13,7.49H297.69ZM227,643.92h9.86l0.07-21.16c0-5.26,2.88-7.92,6.84-7.92a4.92,4.92,0,0,1,5,3.1c0.14,0.36.43,1.15,0.43,4v22H259V622.18c0-4.75,2.88-7.49,6.77-7.49,3.38,0,5.62,2,5.62,6.33v22.9h9.72L281,618.22c-0.22-7.7-5.11-12.1-11.81-12.1A12.3,12.3,0,0,0,258,612.53a11.79,11.79,0,0,0-10.8-6.41c-5,0-8.28,2.16-10.15,5.83l-0.36-4.61-9.57-.07Zm-53.57,4v8l6.84-.07c6.26,0,9.29-3,9.29-9.65l-0.07-38.88h-9.79l-0.07,34.63c0,5.18-1.51,6-3.89,6h-2.31Zm6.19-46.15h9.93l-0.07-8.78h-9.86v8.78Z"/><path class="b" d="M141.88,688.81h9.86V680h-9.86v8.78ZM453.27,731v-7.56H449.6a3.66,3.66,0,0,1-2.81-1.37c-0.22-.29-0.51-0.86-0.51-2.88V701.05h6.63v-6.7h-6.63l-0.07-11.59h-9.79v11.59h-5.11v6.77l5.18-.07L436.43,720c0,8.28,3.45,11,8.85,11h8Zm-37.73-4.18a11.55,11.55,0,0,0,1.22,4.18h10a6.18,6.18,0,0,1-1.66-3.81V707.1c0-8.78-4.54-14-16.49-14-11.09,0-15.7,6.05-15.48,12.24l8.71,0.14c0-2.73,2-5.33,7.06-5.33,4.82,0,6.48,2.38,6.48,4.1,0,1.51-.94,2.88-3.6,3.39l-5.68.93c-8.06,1.44-10.23,3-11.81,4.32a10.13,10.13,0,0,0-3.31,7.63c0,6,4.75,11.52,14,11.52C410.36,732,413.46,730.21,415.54,726.83Zm0.07-15.12-0.07,4.61c0,5.18-3.24,8.42-8.85,8.42-4.11,0-6.12-2.45-6.12-4.68,0-1.73.65-3.67,6.84-5.4l4.25-1.15A12.13,12.13,0,0,0,415.62,711.71Zm-31,19.29v-7.56H381a3.66,3.66,0,0,1-2.81-1.37c-0.21-.29-0.5-0.86-0.5-2.88V701.05h6.62v-6.7h-6.62l-0.07-11.59h-9.79v11.59H362.7v6.77l5.18-.07L367.81,720c0,8.28,3.46,11,8.86,11h8Zm-60.76,0h9.86V710.48c0-2.88.58-4.25,1.37-5.4a7.63,7.63,0,0,1,6-3.1c3.39,0,5.83,2.23,5.83,6.34V731h9.79V705.16c0-6.84-5-12.1-12.6-12.1-5.26,0-8.93,2.81-10.15,5.69l-0.43-4.32-9.65-.07Zm-18.36-4.18a11.55,11.55,0,0,0,1.22,4.18h10a6.2,6.2,0,0,1-1.65-3.81V707.1c0-8.78-4.54-14-16.49-14-11,0-15.62,6.05-15.41,12.24l8.71,0.14c0-2.73,2-5.33,7-5.33s6.48,2.38,6.48,4.1c0,1.51-.94,2.88-3.6,3.39l-5.61.93c-8.06,1.44-10.22,3-11.81,4.32a10.14,10.14,0,0,0-3.31,7.63c0,6,4.75,11.52,14,11.52C300.35,732,303.44,730.21,305.53,726.83Zm0.07-15.12-0.07,4.61c0,5.18-3.24,8.42-8.78,8.42-4.1,0-6.12-2.45-6.12-4.68,0-1.73.65-3.67,6.84-5.4l4.18-1.15A12.13,12.13,0,0,0,305.61,711.71ZM264.49,731h9.86V680h-9.79Zm-33.91-4.25c2.09,3.38,5.76,5.47,10.73,5.47,10,0,16.2-9.29,16.2-19.73,0-10-6-19.3-16.05-19.3a13.12,13.12,0,0,0-10.58,5l-0.5-3.74-9.65.07V743h9.86v-16.2Zm8.86-2.09c-4.75,0-8.78-3.17-8.78-11.09,0-8.85,4.32-11.95,8.35-11.95s8.5,3.31,8.5,11.45C247.5,718.47,245.2,724.59,239.44,724.67ZM159.38,731h9.87V709.84c0-5.26,3-7.92,6.91-7.92A4.88,4.88,0,0,1,181,705c0.22,0.36.43,1.15,0.43,4v22h9.8V709.26c0-4.75,3-7.49,6.84-7.49,3.31,0,5.54,2,5.54,6.33V731h9.72l-0.07-25.7c-0.21-7.7-5-12.1-11.74-12.1a12.22,12.22,0,0,0-11.23,6.41,11.87,11.87,0,0,0-10.8-6.41c-5,0-8.28,2.16-10.22,5.83L169,694.43l-9.5-.07Zm-17.49,0h9.79V694.36h-9.79V731Z"/><path class="c" d="M35.39,297.62c0,144.79,117.43,262.21,262.21,262.21S559.75,442.41,559.75,297.62,442.39,35.48,297.6,35.48,35.39,152.83,35.39,297.62Zm425,132.81c67.48-82.53,62.72-204.34-14.27-281.34s-198.85-81.8-281.39-14.32ZM134.66,164.86C67.23,247.41,72,369.27,149,446.25S347.78,528,430.31,460.51Z"/></svg>