<?xml version="1.0" encoding="UTF-8"?>
<svg id="Lager_1" data-name="Lager 1" xmlns="http://www.w3.org/2000/svg" viewBox="0 0 153.09 218.69">
  <defs>
    <style>
      .cls-1 {
        fill: #aa2825;
      }

      .cls-1, .cls-2, .cls-3 {
        fill-rule: evenodd;
      }

      .cls-2 {
        fill: #fff;
      }

      .cls-3 {
        fill: #1d1f22;
      }
    </style>
  </defs>
  <polyline class="cls-2" points="0 218.69 153.09 218.69 153.09 0 0 0 0 218.69"/>
  <path class="cls-3" d="M87.66,41.35c5.22,0,9.47,4.25,9.47,9.51,0,5.64-4.54,9.47-9.94,9.47,1.02,1.44,2.25,7.43-.38,9.26-3.06,2.68-4.97,4.24-6.24,7.13-4.54,9.21-8.15,19.96-9.64,30.7l-1.83-.34c1.57-10.92,5.14-21.57,9.94-31.25,1.61-3.02,3.52-4.97,6.58-7.35,2.08-1.74,1.1-6.67-.21-7.39.09.72.51,3.95-3.61,3.53-2.17.34-4.12,2.8-7.14,6.45-6.03,7.35-6.96,32.4-10.61,30.83-4.2.85,3.95-44.63,8.24-47,.17-5.78,3.14-3.86,4.97-3.95-2.17-4.67-4.37-5.56-6.83-6.5-5.56-2.16-13.33,2.76-14.35,8.49-1.02,5.82,1.61,14.78,2.25,20.85,1.06,10.4.21,19.62-.76,29.38l-1.83-.94c1.7-13.42,1.66-20.51.77-28.19-.64-5.26-2.51-11.76-2.55-17.58,0-1.27.09-2.55.3-3.74,1.27-7.68,10.66-12.14,16.35-10.06,3.52,1.27,5.77,2.46,7.77,6.67.64-4.63,4.54-7.98,9.3-7.98ZM79.54,23.81c.34,2.08.98,3.82,2.42,6.16.55.64,1.31,2.59,1.1,3.57l-.51,5.09c1.57-.72,3.22-1.06,4.92-1.1,13.57-.35,18.6,17.57,6.96,24.46-.94.55-1.87.98-2.93,1.28,1.48,7.3,4.75,9.72,9.42,11.72,6.03,2.93,9.38,7.09,11,13.72l-1.19,1.74c-.25-2.21-1.66-10.15-9.93-13.75-5.05-2.12-9.98-5.56-10.91-14.53,5.39-1.06,9.47-5.78,9.47-11.5,0-6.41-5.22-11.68-11.63-11.68-2.51,0-4.84.81-6.71,2.17l.51-7.81c.13-.59-.51-2.12-.85-2.64-1.48-2.25-2.29-4.2-2.67-6.92l1.53.04Z"/>
  <path class="cls-1" d="M18.03,65.45c0,32.31,26.21,58.52,58.52,58.52s58.5-26.21,58.5-58.52S108.86,6.95,76.55,6.95s-58.52,26.19-58.52,58.5ZM112.9,95.09c15.06-18.42,14-45.6-3.19-62.79-17.18-17.18-44.38-18.25-62.8-3.19l65.98,65.98ZM40.19,35.82c-15.05,18.42-13.99,45.62,3.19,62.8,17.18,17.18,44.36,18.23,62.78,3.18L40.19,35.82Z"/>
  <polyline class="cls-1" points="10.06 133.73 143.06 133.73 143.06 208.97 10.06 208.97 10.06 133.73"/>
  <path class="cls-2" d="M33.6,153.69h9.78v-2.26h-7.05v-3.59h6.18v-2.15h-6.18v-2.91h6.94v-2.2h-9.67v13.11ZM111.87,148.25h7.57v-2.24h-7.57v2.24ZM107.37,153.69h2.54v-13.11h-2.52l-.02,13.11ZM102.87,153.69h2.54v-13.11h-2.52l-.02,13.11ZM98.17,152.62c.04.46.15.8.3,1.07h2.59c-.33-.39-.43-.67-.43-.98v-5.17c0-2.26-1.17-3.61-4.24-3.61-2.85,0-4.04,1.56-3.98,3.15l2.24.04c0-.7.52-1.37,1.81-1.37s1.65.61,1.65,1.05c0,.39-.24.74-.93.87l-1.44.24c-2.07.37-2.65.76-3.04,1.11-.55.5-.87,1.2-.87,1.96,0,1.55,1.22,2.96,3.61,2.96,1.37,0,2.18-.46,2.72-1.33ZM98.17,148.73v1.18c0,1.33-.83,2.17-2.28,2.17-1.07,0-1.57-.63-1.57-1.2,0-.45.15-.95,1.74-1.39l1.11-.3c.48-.13.8-.32,1-.46ZM90.22,153.69v-1.94h-.94c-.31,0-.61-.17-.74-.35-.05-.07-.13-.22-.13-.74v-4.67h1.72v-1.72h-1.7l-.02-2.98h-2.52v2.98h-1.33v1.74l1.33-.02v4.87c0,2.13.87,2.83,2.28,2.83h2.05ZM76.47,149.67l6.98.02c0-2.8-1.28-5.76-4.78-5.76s-4.72,2.87-4.72,5.02c0,3.13,2.07,5.07,4.7,5.07s4.24-1.42,4.61-3.07l-2.54-.17c-.48.87-1.15,1.22-1.96,1.22-1.2,0-2.19-.81-2.3-2.33ZM76.56,147.84c.15-1.15,1.09-1.92,2.05-1.92,1.04,0,1.93.7,2.09,1.92h-4.15ZM58.38,153.69h2.54l.02-5.44c0-1.35.74-2.04,1.76-2.04.69,0,1.09.33,1.28.8.04.09.11.3.11,1.04v5.65h2.52v-5.59c0-1.22.74-1.93,1.74-1.93.87,0,1.44.52,1.44,1.63v5.89h2.5l-.02-6.61c-.06-1.98-1.31-3.11-3.04-3.11-1.3,0-2.31.61-2.89,1.65-.48-.98-1.52-1.65-2.78-1.65s-2.13.56-2.61,1.5l-.09-1.18-2.46-.02-.02,9.42ZM44.6,154.71v2.05l1.76-.02c1.61,0,2.39-.78,2.39-2.48l-.02-10h-2.52l-.02,8.91c0,1.33-.39,1.54-1,1.54h-.59ZM46.19,142.84h2.55l-.02-2.26h-2.54v2.26Z"/>
  <path class="cls-2" d="M36.49,165.26h2.54v-2.26h-2.54v2.26ZM116.57,176.11v-1.94h-.94c-.3,0-.59-.17-.72-.35-.06-.07-.13-.22-.13-.74v-4.67h1.7v-1.72h-1.7l-.02-2.98h-2.52v2.98h-1.31v1.74l1.33-.02-.02,4.87c0,2.13.89,2.83,2.28,2.83h2.05ZM106.87,175.03c.06.46.17.8.31,1.07h2.57c-.31-.39-.41-.67-.43-.98v-5.17c0-2.26-1.17-3.61-4.24-3.61-2.85,0-4.04,1.55-3.98,3.15l2.24.04c0-.7.52-1.37,1.81-1.37s1.67.61,1.67,1.05c0,.39-.24.74-.93.87l-1.46.24c-2.07.37-2.63.76-3.04,1.11-.56.5-.85,1.2-.85,1.96,0,1.56,1.22,2.96,3.59,2.96,1.39,0,2.19-.46,2.72-1.33ZM106.89,171.14l-.02,1.18c0,1.33-.83,2.17-2.28,2.17-1.06,0-1.57-.63-1.57-1.2,0-.44.17-.94,1.76-1.39l1.09-.3c.48-.13.81-.31,1.02-.46ZM98.92,176.11v-1.94h-.94c-.3,0-.59-.17-.72-.35-.05-.07-.13-.22-.13-.74v-4.67h1.7v-1.72h-1.7l-.02-2.98h-2.52v2.98h-1.31v1.74l1.33-.02-.02,4.87c0,2.13.89,2.83,2.28,2.83h2.05ZM83.3,176.11h2.54v-5.28c0-.74.15-1.09.35-1.39.35-.48.94-.8,1.56-.8.87,0,1.5.57,1.5,1.63v5.83h2.52v-6.65c0-1.76-1.3-3.11-3.24-3.11-1.35,0-2.3.72-2.61,1.46l-.11-1.11-2.48-.02-.02,9.42ZM78.57,175.03c.06.46.17.8.31,1.07h2.57c-.31-.39-.41-.67-.43-.98v-5.17c0-2.26-1.17-3.61-4.24-3.61-2.83,0-4.02,1.55-3.96,3.15l2.24.04c0-.7.52-1.37,1.8-1.37s1.67.61,1.67,1.05c0,.39-.24.74-.93.87l-1.44.24c-2.07.37-2.63.76-3.04,1.11-.55.5-.85,1.2-.85,1.96,0,1.56,1.22,2.96,3.59,2.96,1.37,0,2.17-.46,2.7-1.33ZM78.59,171.14l-.02,1.18c0,1.33-.83,2.17-2.26,2.17-1.05,0-1.57-.63-1.57-1.2,0-.44.17-.94,1.76-1.39l1.07-.3c.48-.13.81-.31,1.02-.46ZM68.02,176.11h2.54v-13.11h-2.52l-.02,13.11ZM59.3,175.01c.54.87,1.48,1.41,2.76,1.41,2.57,0,4.17-2.39,4.17-5.07s-1.55-4.96-4.13-4.96c-1.13,0-2.07.46-2.72,1.28l-.13-.96-2.48.02v12.46h2.54v-4.17ZM61.58,174.48c-1.22,0-2.26-.81-2.26-2.85,0-2.28,1.11-3.07,2.15-3.07s2.19.85,2.19,2.94c0,1.39-.59,2.96-2.07,2.98ZM40.99,176.11h2.54v-5.44c0-1.35.76-2.04,1.78-2.04.67,0,1.07.33,1.26.8.06.09.11.3.11,1.04v5.65h2.52v-5.59c0-1.22.76-1.93,1.76-1.93.85,0,1.43.52,1.43,1.63v5.89h2.5l-.02-6.61c-.06-1.98-1.3-3.11-3.02-3.11-1.3,0-2.33.61-2.89,1.65-.48-.98-1.54-1.65-2.78-1.65s-2.13.55-2.63,1.5l-.09-1.18-2.44-.02-.02,9.42ZM36.49,176.11h2.52v-9.42h-2.52v9.42Z"/>
</svg>