<svg xmlns="http://www.w3.org/2000/svg" viewBox="0 0 595.28 850.36"><defs><style>.a{fill:#e5e8eb;}.a,.b,.c{fill-rule:evenodd;}.b{fill:#000100;}.c{fill:#ad1922;}</style></defs><title>P015_C</title><polyline class="a" points="0 850.36 595.28 850.36 595.28 0 0 0 0 850.36"/><path class="b" d="M275.06,402.9c10.84,4.19,16-2.09,21.89-8.94,2.28-8.57.95-16.56-2.86-25.31l-25.5,17.5c1.53,8,4,13.33,6.47,16.75"/><path class="b" d="M316.73,353.81L299,366.19a65.15,65.15,0,0,1,4.37,23.6c8-1,16-4.77,21.88-21.13q-0.29-8.28-8.56-14.85"/><path class="b" d="M343.18,330.23c27-15.42,38.81-25.12,43.95-32.74,6.09-8.94,15.78-24.54,22.07-36.33,11.23-21.51,34.07-50.23,50.81-66-21.89-27-30.26-40.92-52.72-54.6-50.41,27-141.18,36.33-152.21,56.31-25.49,20.17-43.57,57.46-65.26,91-5,7.42-6.47,15-3,33.11L189,397.78c6.66,9.88,26.45-3.06,26.65-9.13,7.8-26.06,9.32-46.06,7.61-74.41,2.85-9.51,8.56-17.12,20.36-27.77l22.09-13.52-18.85,20.17c-12.75,17.89-.38,22.84,8.37,49.67,9.13-7.81,10.48-9.71,23-17.32L291,314.81l-9.31,12.75c-17.12,14.27-45.86,30.44-42.05,57.27,2.86,6.66,4.57,13.31,16.37,4.37,27.4-21.3,58.22-39.57,87.15-59"/><polyline class="b" points="314.06 489.66 329.28 487.96 417.94 299.96 405.39 296.16 314.06 489.66"/><path class="b" d="M151.57,423.45L164.51,437c-2.28-67.38-4.57-139.49-6.28-204.93l-13.7-4.2,7,195.6"/><path class="b" d="M73.92,643.92H84.44V622.18h22.25v-8.35H84.44V601.45h26.2V593H73.92v51Zm447.32,0v-7.56h-3.67a3.66,3.66,0,0,1-2.81-1.37c-0.21-.29-0.5-0.86-0.5-2.88V614h6.62v-6.7h-6.62l-0.07-11.59H504.4v11.59h-5.11V614l5.19-.07v18.93c0,8.28,3.38,11,8.78,11h8Zm-27.29,0v-7.56h-3.67a3.65,3.65,0,0,1-2.81-1.37c-0.22-.29-0.51-0.86-0.51-2.88V614h6.63v-6.7H487l-0.07-11.59h-9.79v11.59H472V614l5.18-.07v18.93c0,8.28,3.38,11,8.78,11h8Zm-37.73-4.18a11.48,11.48,0,0,0,1.23,4.18h10a6.2,6.2,0,0,1-1.65-3.81L465.88,620c0-8.78-4.61-14-16.56-14-11.09,0-15.69,6.05-15.48,12.24l8.71,0.14c0-2.74,2.09-5.33,7.06-5.33s6.48,2.38,6.48,4.1c0,1.51-.94,2.88-3.6,3.39l-5.62.93c-8.13,1.44-10.3,3-11.81,4.32a10,10,0,0,0-3.38,7.63c0,6,4.75,11.52,14,11.52C451,644.93,454.14,643.13,456.23,639.75Zm0.07-15.12-0.07,4.61c0,5.18-3.24,8.42-8.85,8.42-4.11,0-6.05-2.45-6.05-4.68,0-1.73.58-3.67,6.77-5.4l4.25-1.15A12,12,0,0,0,456.3,624.63Zm-60.4,19.29v-7.56h-3.67a3.66,3.66,0,0,1-2.81-1.37c-0.21-.29-0.5-0.86-0.5-2.88V614h6.62v-6.7h-6.62l-0.07-11.59h-9.79v11.59h-5.11V614l5.19-.07v18.93c0,8.28,3.38,11,8.78,11h8ZM342.33,628.3l27.22,0.07c0-10.87-4.9-22.39-18.57-22.39-14,0-18.36,11.16-18.36,19.51,0,12.17,8.07,19.73,18.29,19.73s16.49-5.54,18-11.95l-9.93-.65c-1.87,3.38-4.39,4.75-7.56,4.75C346.72,637.37,342.91,634.21,342.33,628.3Zm0.43-7.13a8.44,8.44,0,0,1,8.06-7.49c4,0,7.42,2.73,8.13,7.49h-16.2Zm-27.29,19,0.43,3.74h9.79l-0.07-51h-9.86v18.51c-1.8-2.88-5.91-5.33-10.59-5.33-8.13,0-16.2,6.84-16.2,19.66,0,5.83,1.8,10.66,4.75,14a13.65,13.65,0,0,0,11.09,5.33A13.05,13.05,0,0,0,315.48,640.18Zm-7.78-3.53c-4.61,0-8.71-3.31-8.71-11.09,0-8.71,4.25-11.81,8.35-11.81s8.28,3.1,8.28,11.52C315.62,633.34,311.37,636.58,307.7,636.65Zm-35.49,3.17,0.58,4.1h9.29L282,607.35l-9.72-.07V627.8c0,5.62-3.38,8.49-7.34,8.49-3.67,0-5.91-1.94-5.91-7.13V607.28h-9.86v25.2c0,4.83,1.37,7.42,3.6,9.5a13.12,13.12,0,0,0,9.15,3.17A11.7,11.7,0,0,0,272.21,639.82Zm-46.66,8.06v8l6.84-.07c6.19,0,9.29-3,9.29-9.65l-0.07-38.88h-9.86v34.63c0,5.18-1.59,6-4,6h-2.23Zm6.19-46.15h9.86V593h-9.86v8.78ZM184.3,643.92H194l0.5-3.74a12.81,12.81,0,0,0,10.51,4.9c8.14,0,16.13-6.62,16.13-19.58,0-12.6-8.06-19.44-16.06-19.44-5.26,0-9,2.3-10.94,5.47V593H184.3v51Zm18.36-7.34c-4.1,0-8.35-3.24-8.35-11.45s4.25-11.45,8.28-11.45c4.39,0,8.42,3.1,8.42,11.59C211,633.34,206.83,636.58,202.65,636.58Zm-45,7.34h9.87V627.66c0-5.48,1.37-8,3-9.72a8.72,8.72,0,0,1,6.7-2.88,12.17,12.17,0,0,1,1.66.14l0.07-8.71a14,14,0,0,0-2.09-.22,9.45,9.45,0,0,0-9.14,6.55l-0.29-5.54h-9.72v36.64Zm-26.71,1.44c11.8,0,19.73-7.92,19.73-19.87,0-11.74-8.06-19.66-19.44-19.66-11.09,0-19.3,7.92-19.3,19.66C111.94,637.45,120.15,645.36,130.95,645.36Zm0.58-7.7c-5.11,0-9.5-3.67-9.5-12.17,0-8.21,4.39-11.95,9.43-11.95,4.75,0,9.15,3.31,9.15,12.24C140.59,634.42,135.91,637.66,131.52,637.66Zm1.37-34.77h9.86L142.68,593l-9.79-.07v10Zm-12.89,0h9.87L129.8,593l-9.8-.07v10Z"/><path class="b" d="M61.39,718.77c0.21,6.91,6,13.54,17.28,13.54s16.41-6.12,16.41-12.67a10.33,10.33,0,0,0-2.23-6.41c-1.37-1.73-3.17-3-7.49-4l-10.51-2.45c-2.23-.58-3.1-1.94-3.1-3.24s1.29-3.67,6-3.67c5.26,0,7.56,2.73,7.63,5.69l8.71-.14a13.23,13.23,0,0,0-5.26-9.65c-2.16-1.51-5.54-2.81-10.95-2.81-10.51,0-15.19,5.69-15.19,12a9.72,9.72,0,0,0,2.52,6.91c1.37,1.36,3,2.52,7.05,3.38l7.92,1.8c4.61,1,5.18,2.45,5.18,4.18s-1.51,4.1-7,4.1c-5.18,0-7.78-2.74-8.06-6.55ZM500.79,731h9.86l0.07-20.52c0-2.88.58-4.25,1.37-5.4a7.4,7.4,0,0,1,6-3.1c3.46,0,5.91,2.23,5.91,6.34L523.9,731h9.87V705.16c0-6.84-5-12.1-12.6-12.1-5.25,0-8.92,2.81-10.22,5.69l-0.36-4.32-9.72-.07Zm-17.5,0h9.86V694.36h-9.79Zm0.07-42.19h9.86V680h-9.86v8.78ZM410.8,733c0.5,3.45,1.51,5.4,3.6,7.34,2.23,2.16,6.41,4.18,13.46,4.18,7.92,0,13-3,15.48-6.12,1.66-2.23,2.59-4.25,2.59-9.72l-0.07-34.34H436.5l-0.36,4.46c-0.72-1.15-2.66-5.76-10.8-5.76-8.85,0-16.63,7.06-16.63,18.36s7.78,18.43,16.49,18.43c5.83,0,9.5-2.66,10.94-5.47l-0.07,4c0,6.19-2.81,8.78-8.5,8.78-4.25,0-6.26-2.16-6.62-4.46Zm16.77-11.67c-4.83,0-8.85-3.46-8.85-10.22,0-5.9,4.1-9.65,8.64-9.65s8.57,3.74,8.57,9.93S431.75,721.36,427.57,721.36ZM391.93,731h9.86V694.36H392ZM392,688.82h9.86V680H392v8.78Zm-41,30c0.22,6.91,6.05,13.54,17.28,13.54s16.42-6.12,16.42-12.67a10.35,10.35,0,0,0-2.23-6.41c-1.37-1.73-3.17-3-7.49-4l-10.51-2.45c-2.23-.58-3.09-1.94-3.09-3.24s1.29-3.67,6-3.67c5.25,0,7.56,2.73,7.63,5.69l8.71-.14a13.23,13.23,0,0,0-5.26-9.65c-2.16-1.51-5.54-2.81-10.94-2.81-10.51,0-15.19,5.69-15.19,12a9.72,9.72,0,0,0,2.52,6.91c1.37,1.36,3,2.52,7.06,3.38l7.92,1.8c4.61,1,5.18,2.45,5.18,4.18s-1.51,4.1-7,4.1c-5.18,0-7.77-2.74-8.06-6.55Zm-47.37,8.06a11.57,11.57,0,0,0,1.15,4.18h10.08a5.48,5.48,0,0,1-1.66-3.81V707.1c0-8.78-4.53-14-16.41-14-11.09,0-15.7,6.05-15.48,12.24l8.71,0.14c0-2.73,2-5.33,7.06-5.33,4.75,0,6.33,2.38,6.33,4.1,0,1.51-.93,2.88-3.53,3.39l-5.62.93c-8.06,1.44-10.22,3-11.81,4.32A10.21,10.21,0,0,0,279,720.5c0,6,4.75,11.52,14,11.52C298.33,732,301.5,730.22,303.59,726.83Zm0.07-15.12-0.07,4.61c0,5.18-3.24,8.42-8.78,8.42-4.1,0-6.12-2.45-6.12-4.68,0-1.73.58-3.67,6.84-5.4l4.18-1.15A12.1,12.1,0,0,0,303.66,711.71ZM237.42,731h9.87l-0.07-12,4.18-4.1L261.47,731h12l-15-22.53,13.1-14.11H260l-12.67,14L247.22,680h-9.86Zm-16.34-13.32c-0.51,2.88-1.37,4-2.81,5.11a7.5,7.5,0,0,1-4.75,1.51c-4.46,0-8.5-3.17-8.5-11.37,0-9,4.32-12.31,8.85-12.31a7.06,7.06,0,0,1,7,6.26l9.5-.5c-0.79-7.63-6.7-13.54-16.77-13.54-7.2,0-12.24,2.81-15.55,7.7a20.56,20.56,0,0,0-3.53,12.24c0,7.42,3,13,7.63,16.41a18.44,18.44,0,0,0,11.38,3.39,18.18,18.18,0,0,0,7.27-1.22c5.54-2,8.93-6.19,9.65-13.25Zm-43.41,9.14A14.82,14.82,0,0,0,179,731h9.93c-0.58-.5-1.51-2.16-1.51-5.18l-0.14-18.72a18.65,18.65,0,0,0-.5-5c-1.51-5-5.62-9.07-15.55-9.07-11.37,0-15.91,5.83-15.91,12.24l8.71,0.14c0.36-2.45.72-3,1.51-3.67s2.81-1.73,5.76-1.73c4.61,0,6.33,2.45,6.33,4.18s-1.08,3-3.74,3.46l-9.93,1.73c-7.42,1.3-10.87,6.12-10.87,10.95,0,6.33,4.9,11.74,13.75,11.74C172.92,732.09,176.3,729.64,177.67,726.83Zm0-15.34V717c-0.22,4.61-3.38,7.77-8.71,7.77-4.18,0-6.12-2.45-6.12-4.61,0-1.73.86-4,6.7-5.4l4.25-1.15A7.76,7.76,0,0,0,177.67,711.49ZM171.76,690L181.7,690V680h-9.87Zm-12.82,0h9.86l0.07-10H159Zm-28.8,41H140l0.07-16.27c0-5.48,1.29-8,3-9.72a8.62,8.62,0,0,1,6.7-2.88,13.27,13.27,0,0,1,1.66.14l0.07-8.71a14.64,14.64,0,0,0-2.09-.22,9.38,9.38,0,0,0-9.14,6.55l-0.36-5.54h-9.65Zm-7.2,0v-7.56h-3.67a3.82,3.82,0,0,1-2.88-1.37,5.87,5.87,0,0,1-.43-2.88V701.06h6.62v-6.7H116l-0.07-11.59H106.1v11.59h-5.18v6.77l5.26-.07L106.1,720c0,8.28,3.38,11,8.86,11h8Z"/><path class="c" d="M35.39,297.63c0,144.79,117.43,262.21,262.22,262.21S559.75,442.41,559.75,297.63,442.39,35.48,297.61,35.48,35.39,152.84,35.39,297.63Zm425,132.81c67.48-82.53,62.73-204.35-14.27-281.34s-198.86-81.8-281.4-14.32ZM134.66,164.86C67.23,247.41,72,369.27,149,446.25S347.78,528,430.32,460.52Z"/></svg>