<svg xmlns="http://www.w3.org/2000/svg" viewBox="0 0 595.28 850.36"><defs><style>.a{fill:#e5e8eb;}.a,.b,.c{fill-rule:evenodd;}.b{fill:#000100;}.c{fill:#ad1922;}</style></defs><title>P016_C</title><polyline class="a" points="0 850.36 595.28 850.36 595.28 0 0 0 0 850.36"/><path class="b" d="M403.13,208.31l5.42-9.24-6.93-10.79,0.3-.27c8.09-7.27,23.23-11.39,28,1.15,11.46,30.36,13.28,63.61,22.73,94.65,3.9,12.8,16.94,19,29.69,19.4l2.25,0.07,0-9.74-1.92-.08c-9-.37-18.45-4.61-21.16-13.78-9.29-31.47-10.44-65.52-23.31-95.74-7.83-18.4-30.52-13.55-43.34-2.66l-0.54.46-11.51-5.8-8.59,6.34-3,3.32-34.37,55.73,11.45,10.3,51.81-40,3-3.34"/><path class="b" d="M317.6,251.87l-0.09-.56-0.15-.5a2.44,2.44,0,0,0-4.57.5l-0.09.56,0.09,0.54a2.44,2.44,0,0,0,4.57.5l0.15-.5,0.09-.54"/><path class="b" d="M327.77,265.54l-0.08-.54-0.19-.54a2.44,2.44,0,0,0-4.39,0L323,265l-0.07.54a2.43,2.43,0,0,0,4.33,1.5l0.28-.47,0.19-.5,0.08-.54"/><path class="b" d="M322,259.18l-0.09-.54-0.15-.51a2.47,2.47,0,0,0-4.41,0l-0.16.51-0.07.54a2.44,2.44,0,0,0,4.34,1.55l0.3-.46,0.15-.54,0.09-.54"/><path class="b" d="M334.66,270.59l-0.09-.54-0.19-.5a2.41,2.41,0,0,0-4.36,0l-0.19.5,0,0.54a2.43,2.43,0,0,0,4.34,1.5l0.26-.46,0.19-.5,0.09-.54"/><path class="b" d="M342.37,274.24l0-.54-0.19-.5a2.41,2.41,0,0,0-4.37,0l-0.2.5,0,0.54a2.42,2.42,0,0,0,4.32,1.52l0.28-.47,0.19-.5,0-.54"/><path class="b" d="M175.68,434.28l-0.08-.54-0.15-.5a2.45,2.45,0,0,0-4.41,0l-0.16.5-0.08.54a2.43,2.43,0,0,0,4.34,1.51l0.31-.43,0.15-.54,0.08-.54"/><path class="b" d="M185.15,423.77l0-.54-0.2-.54a2.44,2.44,0,0,0-4.57.54l-0.07.54,0.07,0.54a2.44,2.44,0,0,0,4.57.5l0.2-.5,0-.54"/><path class="b" d="M194.69,413.2l-0.08-.54-0.2-.5a2.41,2.41,0,0,0-4.37,0l-0.15.5-0.08.54a2.43,2.43,0,0,0,4.34,1.5l0.26-.46,0.2-.5,0.08-.54"/><path class="b" d="M204.17,402.63l0-.54-0.2-.49a2.43,2.43,0,0,0-4.37,0l-0.2.49-0.08.54a2.48,2.48,0,0,0,4.39,1.55l0.26-.46,0.2-.54,0-.54"/><path class="b" d="M213.7,392.11l-0.08-.54-0.18-.5a2.42,2.42,0,0,0-4.38,0l-0.16.5-0.07.54a2.42,2.42,0,0,0,4.33,1.5l0.28-.46,0.18-.5,0.08-.54"/><path class="b" d="M223.19,381.54l0-.54-0.2-.5a2.44,2.44,0,0,0-4.57.5l-0.07.54,0.07,0.55a2.44,2.44,0,0,0,4.57.54l0.2-.54,0-.55"/><path class="b" d="M232.7,371l-0.08-.56-0.19-.54a2.41,2.41,0,0,0-4.53.54l-0.08.56,0.08,0.54a2.41,2.41,0,0,0,4.53.5l0.19-.5,0.08-.54"/><path class="b" d="M242.19,360.46l0-.54-0.2-.51a2.42,2.42,0,0,0-4.37,0l-0.2.51-0.07.54a2.43,2.43,0,0,0,4.33,1.5l0.31-.46,0.2-.5,0-.54"/><path class="b" d="M251.72,349.93l-0.08-.54-0.19-.54a2.44,2.44,0,0,0-4.37,0l-0.16.54-0.07.54a2.44,2.44,0,0,0,4.33,1.5l0.28-.47,0.19-.49,0.08-.54"/><path class="b" d="M261.2,339.36l0-.54-0.2-.5a2.41,2.41,0,0,0-4.37,0l-0.2.5-0.08.54a2.43,2.43,0,0,0,4.33,1.5l0.31-.46,0.2-.5,0-.54"/><path class="b" d="M270.73,328.8l-0.08-.54-0.2-.5a2.41,2.41,0,0,0-4.36,0l-0.16.5-0.07.54a2.44,2.44,0,0,0,4.33,1.54l0.27-.46,0.2-.54,0.08-.54"/><path class="b" d="M280.22,318.27l-0.05-.54-0.18-.54a2.43,2.43,0,0,0-4.57.54l-0.09.54,0.09,0.54a2.44,2.44,0,0,0,4.57.5l0.18-.5,0.05-.54"/><path class="b" d="M289.74,307.7l-0.08-.54-0.19-.5a2.41,2.41,0,0,0-4.37,0l-0.17.5-0.07.54a2.43,2.43,0,0,0,4.33,1.5l0.28-.46,0.19-.5,0.08-.54"/><path class="b" d="M299.23,297.19l0-.54-0.2-.54a2.43,2.43,0,0,0-4.37,0l-0.2.54-0.07.54a2.44,2.44,0,0,0,4.33,1.52l0.31-.47,0.2-.49,0-.56"/><path class="b" d="M308.75,286.63l-0.08-.55-0.19-.5a2.43,2.43,0,0,0-4.39,0l-0.15.5-0.07.55a2.43,2.43,0,0,0,4.33,1.5l0.28-.47,0.19-.49,0.08-.54"/><path class="b" d="M318.23,276.06l0-.54L318,275a2.42,2.42,0,0,0-4.37,0l-0.2.5-0.07.54a2.44,2.44,0,0,0,4.32,1.55l0.31-.47,0.21-.54,0-.54"/><path class="b" d="M327.38,282.8l-0.09-.54-0.15-.51a2.46,2.46,0,0,0-4.42,0l-0.16.51-0.07.54a2.43,2.43,0,0,0,4.34,1.5l0.3-.42,0.15-.54,0.09-.54"/><path class="b" d="M320.11,295l0-.54-0.19-.54a2.44,2.44,0,0,0-4.57.54l-0.07.54,0.07,0.54a2.45,2.45,0,0,0,4.57.51l0.19-.51,0-.54"/><path class="b" d="M312.85,307.21l-0.07-.54-0.2-.54a2.43,2.43,0,0,0-4.37,0l-0.2.54,0,0.54a2.44,2.44,0,0,0,4.33,1.51l0.28-.47,0.2-.5,0.07-.54"/><path class="b" d="M305.58,319.4l-0.09-.55-0.14-.5a2.45,2.45,0,0,0-4.41,0l-0.16.5-0.07.55a2.44,2.44,0,0,0,4.33,1.52l0.31-.47,0.14-.51,0.09-.54"/><path class="b" d="M298.31,331.58l0-.54-0.19-.5a2.42,2.42,0,0,0-4.38,0l-0.19.5,0,0.54a2.44,2.44,0,0,0,4.34,1.55l0.27-.46,0.19-.54,0-.54"/><path class="b" d="M291.06,343.81l-0.09-.54-0.19-.54a2.44,2.44,0,0,0-4.37,0l-0.16.54-0.07.54a2.43,2.43,0,0,0,4.33,1.51l0.28-.46,0.19-.51,0.09-.54"/><path class="b" d="M283.78,356l0-.54-0.19-.5a2.42,2.42,0,0,0-4.37,0l-0.2.5-0.08.54a2.44,2.44,0,0,0,4.34,1.51l0.31-.46,0.19-.5,0-.55"/><path class="b" d="M276.5,368.19l0-.54-0.2-.49a2.41,2.41,0,0,0-4.37,0l-0.2.49,0,0.54a2.42,2.42,0,0,0,4.33,1.5l0.28-.45,0.2-.51,0-.54"/><path class="b" d="M269.26,380.39l-0.08-.54-0.16-.5a2.46,2.46,0,0,0-4.41,0l-0.17.5-0.08.54a2.45,2.45,0,0,0,4.34,1.55l0.31-.47,0.16-.54,0.08-.54"/><path class="b" d="M262,392.61l0-.54-0.2-.54a2.44,2.44,0,0,0-4.57.54l-0.08.54,0.08,0.54a2.44,2.44,0,0,0,4.57.51l0.2-.51,0-.54"/><path class="b" d="M254.74,404.82l-0.08-.56-0.19-.51a2.43,2.43,0,0,0-4.37,0l-0.2.51,0,0.56a2.43,2.43,0,0,0,4.33,1.5l0.28-.47,0.19-.5,0.08-.54"/><path class="b" d="M247.46,417l-0.08-.54-0.15-.49a2.45,2.45,0,0,0-4.41,0l-0.16.49-0.08.54a2.42,2.42,0,0,0,4.33,1.5l0.31-.42,0.15-.54,0.08-.54"/><path class="b" d="M240.18,429.22l0-.54-0.19-.54a2.45,2.45,0,0,0-4.38,0l-0.19.54,0,0.54a2.44,2.44,0,0,0,4.34,1.5l0.27-.47,0.19-.5,0-.54"/><path class="b" d="M232.93,441.41l-0.08-.56-0.19-.49a2.4,2.4,0,0,0-4.37,0l-0.2.49,0,0.56a2.44,2.44,0,0,0,4.33,1.5l0.27-.47,0.19-.5,0.08-.54"/><path class="b" d="M225.66,453.6l-0.08-.54-0.16-.5a2.44,2.44,0,0,0-4.41,0l-0.17.5-0.07.54a2.42,2.42,0,0,0,4.33,1.5l0.31-.46,0.16-.49,0.08-.54"/><path class="b" d="M337.65,287.64l-0.09-.54-0.16-.56a2.44,2.44,0,0,0-4.55.56l-0.08.54,0.08,0.54a2.43,2.43,0,0,0,4.55.5l0.16-.5,0.09-.54"/><path class="b" d="M332.87,301l0-.54-0.19-.54a2.45,2.45,0,0,0-4.39,0l-0.19.54,0,0.54a2.43,2.43,0,0,0,4.33,1.52l0.28-.45,0.19-.51,0-.56"/><path class="b" d="M328.15,314.36l-0.08-.54-0.15-.5a2.48,2.48,0,0,0-4.43,0l-0.15.5-0.08.54a2.44,2.44,0,0,0,4.34,1.55l0.31-.46,0.15-.54,0.08-.54"/><path class="b" d="M323.38,327.75l0-.54-0.18-.5a2.43,2.43,0,0,0-4.57.5l0,0.54,0,0.54a2.44,2.44,0,0,0,4.57.53l0.18-.53,0-.54"/><path class="b" d="M318.66,341.15l-0.07-.56-0.19-.5a2.42,2.42,0,0,0-4.54.5l-0.07.56,0.07,0.54a2.42,2.42,0,0,0,4.54.49l0.19-.49,0.07-.54"/><path class="b" d="M313.9,354.53l0-.54-0.2-.5a2.44,2.44,0,0,0-4.57.5l-0.07.54,0.07,0.55a2.44,2.44,0,0,0,4.57.51l0.2-.51,0-.55"/><path class="b" d="M309.19,367.92l-0.09-.54-0.19-.5a2.41,2.41,0,0,0-4.38,0l-0.18.5,0,0.54a2.43,2.43,0,0,0,4.33,1.5l0.27-.46,0.19-.5,0.09-.54"/><path class="b" d="M304.42,381.32l-0.08-.54-0.15-.54a2.44,2.44,0,0,0-4.37,0l-0.2.54-0.07.54a2.43,2.43,0,0,0,4.33,1.5l0.31-.46,0.15-.5,0.08-.54"/><path class="b" d="M299.65,394.67l0-.56-0.19-.5a2.45,2.45,0,0,0-4.39,0l-0.2.5,0,0.56a2.44,2.44,0,0,0,4.34,1.54l0.28-.46,0.19-.54,0-.54"/><path class="b" d="M294.93,408.06l-0.09-.54L294.7,407a2.47,2.47,0,0,0-4.42,0l-0.16.51-0.07.54a2.44,2.44,0,0,0,4.33,1.56l0.32-.46,0.14-.56,0.09-.53"/><path class="b" d="M290.17,421.44l0-.54-0.19-.5a2.43,2.43,0,0,0-4.57.5l0,0.54,0,0.54a2.43,2.43,0,0,0,4.57.49l0.19-.49,0-.54"/><path class="b" d="M285.44,434.82l-0.08-.54-0.16-.5a2.44,2.44,0,0,0-4.41,0l-0.16.5-0.07.54a2.42,2.42,0,0,0,4.33,1.5l0.31-.46,0.16-.5,0.08-.54"/><path class="b" d="M280.67,448.22l0-.55-0.2-.5a2.42,2.42,0,0,0-4.37,0l-0.19.5-0.07.55a2.45,2.45,0,0,0,4.36,1.5l0.28-.46,0.2-.5,0-.54"/><path class="b" d="M276,461.6l-0.08-.54-0.19-.54a2.45,2.45,0,0,0-4.39,0l-0.15.54-0.08.54a2.44,2.44,0,0,0,4.34,1.51l0.28-.46,0.19-.5,0.08-.55"/><path class="b" d="M271.2,475l0-.54-0.19-.54a2.44,2.44,0,0,0-4.38,0l-0.19.54-0.08.54a2.45,2.45,0,0,0,4.34,1.51L271,476l0.19-.51,0-.54"/><path class="b" d="M310.61,267.7l-0.08-.54-0.15-.5a2.45,2.45,0,0,0-4.41,0l-0.16.5-0.08.54a2.43,2.43,0,0,0,4.33,1.5l0.31-.46,0.15-.5,0.08-.54"/><path class="b" d="M299.23,276.17l-0.08-.54-0.16-.5a2.44,2.44,0,0,0-4.41,0l-0.17.5-0.07.54a2.44,2.44,0,0,0,4.33,1.55l0.31-.46,0.16-.54,0.08-.54"/><path class="b" d="M287.84,284.7l-0.08-.55-0.15-.54a2.44,2.44,0,0,0-4.37,0l-0.2.54-0.08.55a2.44,2.44,0,0,0,4.34,1.5l0.31-.46,0.15-.5,0.08-.54"/><path class="b" d="M276.47,293.16l0-.54-0.2-.5a2.42,2.42,0,0,0-4.37,0l-0.2.5-0.07.54a2.43,2.43,0,0,0,4.33,1.5l0.31-.46,0.2-.5,0-.54"/><path class="b" d="M265.08,301.69l0-.54-0.2-.54a2.44,2.44,0,0,0-4.37,0l-0.19.54-0.07.54a2.43,2.43,0,0,0,4.32,1.5l0.31-.47,0.2-.51,0-.53"/><path class="b" d="M253.69,310.14l0-.54-0.19-.5a2.42,2.42,0,0,0-4.38,0l-0.19.5,0,0.54a2.43,2.43,0,0,0,4.34,1.51l0.27-.45,0.19-.52,0-.54"/><path class="b" d="M242.31,318.62l0-.54-0.2-.5a2.43,2.43,0,0,0-4.37,0l-0.2.5,0,0.54a2.43,2.43,0,0,0,4.33,1.55l0.28-.47,0.2-.54,0-.54"/><path class="b" d="M230.93,327.14l0-.55-0.2-.51a2.43,2.43,0,0,0-4.37,0l-0.2.51,0,0.55a2.43,2.43,0,0,0,4.34,1.5l0.26-.46,0.2-.5,0-.54"/><path class="b" d="M219.58,335.6l-0.08-.54-0.19-.5a2.42,2.42,0,0,0-4.37,0l-0.2.5,0,0.54a2.43,2.43,0,0,0,4.33,1.55l0.28-.46,0.19-.54,0.08-.54"/><path class="b" d="M208.2,344.13l-0.08-.54-0.2-.54a2.44,2.44,0,0,0-4.37,0l-0.19.54,0,0.54a2.44,2.44,0,0,0,4.34,1.5l0.26-.46,0.2-.5,0.08-.54"/><path class="b" d="M196.81,352.59l-0.08-.54-0.18-.5a2.42,2.42,0,0,0-4.38,0l-0.19.5,0,0.54a2.42,2.42,0,0,0,4.33,1.5l0.28-.45,0.18-.49,0.08-.56"/><path class="b" d="M185.43,361.11l-0.08-.54-0.2-.54a2.43,2.43,0,0,0-4.36,0l-0.16.54-0.07.54a2.43,2.43,0,0,0,4.33,1.5l0.26-.45,0.2-.51,0.08-.54"/><path class="b" d="M174,369.59L174,369l-0.15-.5a2.45,2.45,0,0,0-4.41,0l-0.16.5-0.08.55a2.44,2.44,0,0,0,4.34,1.5l0.31-.46,0.15-.5,0.08-.54"/><path class="b" d="M162.67,378.06l-0.08-.54-0.15-.5a2.45,2.45,0,0,0-4.57.5l-0.07.54,0.07,0.54a2.45,2.45,0,0,0,4.57.54l0.15-.54,0.08-.54"/><path class="b" d="M151.28,386.58l-0.08-.54-0.15-.5a2.44,2.44,0,0,0-4.41,0l-0.16.5-0.07.54a2.43,2.43,0,0,0,4.33,1.5l0.31-.45,0.15-.51,0.08-.54"/><path class="b" d="M304.76,258l-0.08-.54-0.2-.5a2.42,2.42,0,0,0-4.38,0l-0.18.5,0,0.54a2.43,2.43,0,0,0,4.34,1.5l0.27-.46,0.2-.5,0.08-.54"/><path class="b" d="M291.95,264.1l-0.08-.54-0.2-.49a2.39,2.39,0,0,0-4.36,0l-0.2.49,0,0.54a2.43,2.43,0,0,0,4.34,1.5l0.27-.46,0.2-.5,0.08-.54"/><path class="b" d="M279.12,270.22l-0.08-.56-0.19-.54a2.44,2.44,0,0,0-4.37,0l-0.2.54,0,0.56a2.43,2.43,0,0,0,4.33,1.5l0.28-.46,0.19-.5,0.08-.54"/><path class="b" d="M266.28,276.29l0-.54-0.2-.5a2.45,2.45,0,0,0-4.57.5l0,0.54,0,0.54a2.44,2.44,0,0,0,4.57.54l0.2-.54,0-.54"/><path class="b" d="M253.46,282.4l0-.54-0.19-.49a2.43,2.43,0,0,0-4.38,0l-0.19.49,0,0.54A2.44,2.44,0,0,0,253,284l0.28-.46,0.19-.54,0-.54"/><path class="b" d="M240.64,288.52l0-.54-0.2-.5a2.42,2.42,0,0,0-4.37,0l-0.19.5,0,0.54a2.44,2.44,0,0,0,4.34,1.52l0.26-.47,0.2-.5,0-.55"/><path class="b" d="M227.82,294.63l0-.54-0.2-.5a2.42,2.42,0,0,0-4.37,0l-0.2.5,0,0.54a2.43,2.43,0,0,0,4.34,1.5l0.26-.45,0.2-.51,0-.54"/><path class="b" d="M215,300.75l0-.54-0.2-.5a2.4,2.4,0,0,0-4.37,0l-0.2.5-0.07.54a2.44,2.44,0,0,0,4.36,1.5l0.28-.46,0.2-.5,0-.54"/><path class="b" d="M202.19,306.87l0-.56-0.2-.54a2.44,2.44,0,0,0-4.37,0l-0.2.54-0.07.56a2.43,2.43,0,0,0,4.33,1.5l0.31-.45,0.2-.51,0-.54"/><path class="b" d="M189.38,313l0-.54-0.2-.54a2.44,2.44,0,0,0-4.57.54l-0.07.54,0.07,0.54a2.44,2.44,0,0,0,4.57.5l0.2-.5,0-.54"/><path class="b" d="M176.57,319l-0.08-.54-0.15-.5a2.44,2.44,0,0,0-4.57.5l-0.07.54,0.07,0.54a2.44,2.44,0,0,0,4.57.54l0.15-.54,0.08-.54"/><path class="b" d="M163.74,325.15l-0.08-.54-0.15-.5a2.44,2.44,0,0,0-4.57.5l-0.07.54,0.07,0.56a2.43,2.43,0,0,0,4.57.5l0.15-.5,0.08-.56"/><path class="b" d="M150.93,331.26l-0.08-.54-0.15-.5a2.45,2.45,0,0,0-4.42,0l-0.15.5-0.07.54a2.43,2.43,0,0,0,4.33,1.52l0.31-.46,0.15-.51,0.08-.54"/><path class="b" d="M138.11,337.39l-0.08-.54-0.15-.5a2.44,2.44,0,0,0-4.57.5l-0.08.54,0.08,0.54a2.44,2.44,0,0,0,4.57.51l0.15-.51,0.08-.54"/><path class="b" d="M125.31,343.49l-0.08-.54-0.15-.54a2.47,2.47,0,0,0-4.42,0l-0.15.54-0.08.54a2.44,2.44,0,0,0,4.34,1.52l0.31-.46,0.15-.5,0.08-.56"/><path class="b" d="M138.93,397l0.38-.37a2.44,2.44,0,0,0-2.4-4l-0.51.19,2.52,4.14"/><path class="b" d="M218,467.07l0.23-.46a2.43,2.43,0,0,0-4.33-2.14l-0.28.5,4.38,2.1"/><path class="b" d="M64.06,643.92H74.14l17.56-51L80.48,593,69.32,630.75,58.23,593H47Zm449.19,2a11,11,0,0,0,3.53,7.34c2.23,2.16,6.4,4.18,13.46,4.18,7.92,0,13-3,15.48-6.12,1.66-2.23,2.59-4.25,2.59-9.72V607.28h-9.43l-0.36,4.46c-0.65-1.15-2.66-5.76-10.8-5.76-8.86,0-16.56,7.06-16.56,18.36s7.7,18.43,16.42,18.43c5.9,0,9.5-2.66,10.94-5.47l-0.07,4c0,6.19-2.81,8.78-8.5,8.78-4.25,0-6.26-2.16-6.63-4.46ZM530,634.28c-4.83,0-8.86-3.46-8.86-10.22,0-5.91,4.11-9.65,8.64-9.65s8.64,3.74,8.64,9.93S534.2,634.28,530,634.28Zm-58.53,9.65h9.86V623.4c0-2.88.58-4.25,1.37-5.4a7.64,7.64,0,0,1,6-3.1c3.39,0,5.83,2.23,5.83,6.34v22.68h9.79V618.08c0-6.84-5-12.1-12.6-12.1-5.26,0-8.93,2.81-10.15,5.69l-0.43-4.32-9.65-.07Zm-17.5,0h9.79V607.28h-9.79v36.64Zm0-42.19h9.87V593h-9.87v8.78Zm-40.46,42.19h9.86V623.4c0-2.88.58-4.25,1.37-5.4a7.64,7.64,0,0,1,6-3.1c3.38,0,5.83,2.23,5.83,6.34v22.68h9.79V618.08c0-6.84-5-12.1-12.6-12.1-5.26,0-8.93,2.81-10.15,5.69l-0.43-4.32-9.65-.07Zm-17.49,0h9.87V593H396Zm-26.21,1.37c11.09,0,19.22-7.85,19.22-19.8,0-11.59-8-19.58-19.37-19.58-11.09,0-19.15,7.92-19.15,19.51C350.47,637.52,358.6,645.29,369.76,645.29Zm-0.07-7.7c-4.68,0-9.22-3.6-9.22-11.74,0-8.78,4.39-12.24,9.22-12.24s9.22,3.53,9.22,11.88C378.91,634.06,374.51,637.59,369.69,637.59Zm-52.34,2.09c2.09,3.38,5.76,5.47,10.73,5.47,10,0,16.2-9.29,16.2-19.73,0-10-6.05-19.3-16.06-19.3a13.12,13.12,0,0,0-10.58,5l-0.51-3.74-9.65.07v48.45h9.87v-16.2Zm8.85-2.09c-4.75,0-8.78-3.17-8.78-11.09,0-8.85,4.32-11.95,8.35-11.95s8.5,3.31,8.5,11.45C334.27,631.4,332,637.52,326.2,637.59Zm-59.61-5.91c0.14,6.91,6,13.54,17.21,13.54,11.45,0,16.34-6.12,16.34-12.67a10.35,10.35,0,0,0-2.23-6.41c-1.3-1.73-3.1-3-7.42-4L280,619.66c-2.23-.58-3.1-1.94-3.1-3.24s1.29-3.67,6.12-3.67c5.18,0,7.49,2.73,7.56,5.69l8.64-.14a12.92,12.92,0,0,0-5.18-9.65c-2.16-1.51-5.54-2.81-10.87-2.81-10.58,0-15.26,5.69-15.26,12a9.45,9.45,0,0,0,2.59,6.91c1.29,1.37,2.88,2.52,7,3.39l7.92,1.8c4.61,1,5.18,2.45,5.18,4.17s-1.51,4.11-6.91,4.11c-5.18,0-7.85-2.74-8.13-6.55Zm-39.74,12.24h9.86V623.4c0-2.88.58-4.25,1.37-5.4a7.64,7.64,0,0,1,6-3.1c3.39,0,5.83,2.23,5.83,6.34v22.68h9.79V618.08c0-6.84-5-12.1-12.6-12.1-5.26,0-8.93,2.81-10.15,5.69l-0.43-4.32-9.65-.07Zm-34.2-15.62,27.22,0.07c0-10.87-4.9-22.39-18.58-22.39-14,0-18.36,11.16-18.36,19.51,0,12.17,8.06,19.73,18.29,19.73s16.49-5.54,18-11.95l-9.94-.65c-1.87,3.38-4.39,4.75-7.63,4.75C197,637.37,193.15,634.21,192.65,628.3Zm0.43-7.13a8.37,8.37,0,0,1,8-7.49c4,0,7.49,2.73,8.21,7.49h-16.2Zm-15.27,22.75v-7.56h-3.67a3.54,3.54,0,0,1-2.81-1.37c-0.22-.29-0.51-0.86-0.51-2.88V614h6.63v-6.7h-6.63l-0.07-11.59H161v11.59h-5.11V614L161,614,161,632.91c0,8.28,3.45,11,8.85,11h8Zm-27.29,0v-7.56h-3.67A3.55,3.55,0,0,1,144,635c-0.21-.29-0.5-0.86-0.5-2.88V614h6.62v-6.7h-6.62l-0.07-11.59h-9.79v11.59h-5.11V614l5.18-.07-0.07,18.93c0,8.28,3.46,11,8.86,11h8Zm-37.73-4.18a13.19,13.19,0,0,0,1.15,4.18H124a6.2,6.2,0,0,1-1.66-3.81V620c0-8.78-4.53-14-16.49-14C94.8,606,90.2,612,90.41,618.22l8.71,0.14c0-2.74,2-5.33,7.05-5.33,4.83,0,6.48,2.38,6.48,4.1,0,1.51-.94,2.88-3.6,3.39l-5.69.93c-8.06,1.44-10.22,3-11.81,4.32a10.14,10.14,0,0,0-3.31,7.63c0,6,4.75,11.52,14,11.52C107.62,644.93,110.72,643.13,112.8,639.75Zm0.07-15.12-0.07,4.61c0,5.18-3.24,8.42-8.86,8.42-4.1,0-6.12-2.45-6.12-4.68,0-1.73.65-3.67,6.84-5.4l4.25-1.15A12.14,12.14,0,0,0,112.87,624.63Z"/><path class="b" d="M140.8,731h9.86V700.91h7.13v-6.55h-7.13v-0.72c0-3.31.58-4.25,1.22-4.9,0.79-.86,1.87-1.51,4.32-1.44h1.58V680h-5.61c-3.31,0-12.31.58-11.37,14.33h-5.33v6.55h5.33V731Zm286,0h9.87l0.07-20.52c0-2.88.58-4.25,1.37-5.4a7.39,7.39,0,0,1,6-3.1c3.38,0,5.83,2.23,5.83,6.34V731h9.86V705.16c0-6.84-5-12.1-12.6-12.1-5.26,0-9,2.81-10.22,5.69l-0.43-4.32-9.65-.07Zm-34.13-15.62,27.22,0.07c0-10.87-5-22.39-18.58-22.39-14,0-18.43,11.16-18.43,19.51,0,12.17,8.06,19.73,18.29,19.73s16.56-5.54,18-11.95l-9.86-.65c-1.87,3.38-4.46,4.75-7.63,4.75C397,724.45,393.15,721.29,392.65,715.38Zm0.43-7.13a8.37,8.37,0,0,1,8-7.49c4,0,7.49,2.73,8.13,7.49H393.08Zm-27.29,19,0.36,3.74h9.79V680H366v18.51c-1.8-2.88-5.9-5.33-10.58-5.33-8.21,0-16.27,6.84-16.27,19.66a21.4,21.4,0,0,0,4.76,14,13.88,13.88,0,0,0,11.16,5.33A13.29,13.29,0,0,0,365.79,727.26ZM358,723.73c-4.68,0-8.71-3.31-8.71-11.09,0-8.71,4.25-11.81,8.28-11.81s8.28,3.1,8.28,11.52C365.87,720.42,361.62,723.66,358,723.73Zm-35.57,3.17L323,731h9.29V694.43l-9.79-.07v20.52c0,5.61-3.31,8.5-7.27,8.5-3.67,0-6-1.94-6-7.13V694.36h-9.86v25.2c0,4.83,1.37,7.42,3.6,9.5a13.24,13.24,0,0,0,9.15,3.17A11.9,11.9,0,0,0,322.45,726.9ZM275.8,735v8l6.84-.07c6.26,0,9.29-3,9.29-9.65l-0.07-38.88h-9.8L282,729c0,5.18-1.51,6-3.89,6h-2.3ZM282,688.82h9.94L291.86,680H282v8.78ZM234.54,731h9.72l0.5-3.74a12.85,12.85,0,0,0,10.58,4.9c8.06,0,16.06-6.62,16.06-19.58,0-12.6-8.06-19.44-16-19.44-5.33,0-9.07,2.3-10.95,5.47V680h-9.94v51Zm18.36-7.34c-4.11,0-8.35-3.24-8.35-11.45s4.25-11.45,8.28-11.45c4.39,0,8.5,3.1,8.5,11.59C261.33,720.42,257.15,723.66,252.91,723.66Zm-45,7.34h9.87l0.07-16.27c0-5.48,1.3-8,3-9.72a8.61,8.61,0,0,1,6.7-2.88,13.16,13.16,0,0,1,1.65.14l0.07-8.71a14.14,14.14,0,0,0-2.16-.22,9.52,9.52,0,0,0-9.14,6.55l-0.29-5.54H208Zm-26.71,1.44c11.81,0,19.8-7.92,19.8-19.87,0-11.74-8.06-19.66-19.51-19.66-11.09,0-19.29,7.92-19.29,19.66C162.19,724.53,170.4,732.45,181.19,732.45Zm0.58-7.71c-5.11,0-9.5-3.67-9.5-12.17,0-8.21,4.39-11.95,9.43-11.95,4.75,0,9.14,3.31,9.14,12.24C190.84,721.5,186.16,724.74,181.77,724.74ZM183.14,690H193V680l-9.86-.07v10Zm-12.89,0h9.86V680l-9.86-.07v10Z"/><path class="c" d="M35.39,297.63c0,144.79,117.43,262.21,262.22,262.21S559.75,442.41,559.75,297.63,442.39,35.48,297.61,35.48,35.39,152.84,35.39,297.63Zm425,132.81c67.48-82.53,62.73-204.35-14.27-281.34s-198.85-81.8-281.39-14.32ZM134.66,164.86C67.23,247.41,72,369.27,149,446.25S347.78,528,430.32,460.52Z"/></svg>