<svg xmlns="http://www.w3.org/2000/svg" viewBox="0 0 595.28 850.36"><defs><style>.a{fill:#e5e8eb;}.a,.b,.c{fill-rule:evenodd;}.b{fill:#000100;}.c{fill:#ad1922;}</style></defs><title>P017_C</title><polyline class="a" points="0 850.36 595.28 850.36 595.28 0 0 0 0 850.36"/><path class="b" d="M373.95,439.05H254.35c4.11-.19,8.26-2.31,11.19-7.08l36.22-65.9a13.69,13.69,0,0,0-2.9-16.84l-48.13-42.59,46.45-84.43h76.77V439.05Zm0-264.54v23.77H255a11.94,11.94,0,0,0-10.47,6.18l-46.94,85.39L138.77,396.71l17.91,24.17,59.55-108.29,56.28,49.89-31,56.32c-5.29,10.82,2.82,19.89,11.65,20.25H175l15.47,12.09H404.73L438.41,421V174.51H373.94Z"/><path class="b" d="M237.07,167.61A23.91,23.91,0,1,0,261,143.7a23.93,23.93,0,0,0-23.91,23.91"/><path class="b" d="M39.29,643.92H49.88V625.34l5.26-5.47,16.41,24H84.36L62.55,613.1l19.29-20.16-13.1.07L49.88,613.25,49.73,593l-10.44-.07v51Zm495.41,0h9.87l0.07-16.27c0-5.47,1.3-8,3-9.72a8.62,8.62,0,0,1,6.7-2.88,13.16,13.16,0,0,1,1.66.14l0.07-8.71a14.07,14.07,0,0,0-2.09-.22,9.54,9.54,0,0,0-9.22,6.55l-0.29-5.54h-9.65Zm-18.29-4.18a13,13,0,0,0,1.29,4.18h9.94c-0.58-.5-1.51-2.16-1.51-5.18L526,620a18.58,18.58,0,0,0-.51-5c-1.51-5-5.61-9.07-15.55-9.07-11.38,0-15.91,5.83-15.91,12.24l8.71,0.14c0.36-2.45.72-3,1.51-3.67S507.06,613,510,613c4.61,0,6.34,2.45,6.34,4.18s-1.08,3-3.74,3.46l-9.93,1.73c-7.42,1.3-10.87,6.12-10.87,10.95,0,6.33,4.9,11.74,13.75,11.74C511.67,645,515,642.55,516.42,639.74Zm0-15.34v5.47c-0.29,4.61-3.38,7.77-8.71,7.77-4.18,0-6.12-2.45-6.12-4.61,0-1.73.86-4,6.7-5.4l4.25-1.15A8.08,8.08,0,0,0,516.42,624.41Zm-5.9-21.53,9.93,0.07v-10h-9.87Zm-12.82,0h9.87l0.07-10h-9.86Zm-45.14,41h9.86V623.76c0-6,3.31-8.78,7.35-8.78,3.53,0,5.9,2,5.9,6.62v22.32h9.86V618.65c0-4.46-1.51-7.49-3.89-9.57A14,14,0,0,0,473,606c-5.33,0-8.93,2.52-10.58,5.91V592.95h-9.86v51ZM388.63,628.3l27.22,0.07c0-10.87-5-22.39-18.57-22.39-14,0-18.43,11.16-18.43,19.51,0,12.17,8.06,19.73,18.36,19.73s16.49-5.54,18-11.95l-9.93-.65c-1.87,3.38-4.46,4.75-7.63,4.75C392.95,637.37,389.13,634.2,388.63,628.3Zm0.43-7.13a8.37,8.37,0,0,1,8-7.49c4,0,7.49,2.73,8.13,7.49H389.06Zm-15.27,22.75v-7.56h-3.67a3.68,3.68,0,0,1-2.88-1.37,5.77,5.77,0,0,1-.44-2.88V614h6.63v-6.7h-6.63l-0.07-11.59h-9.79v11.59h-5.18V614l5.18-.07V632.9c0,8.28,3.38,11,8.85,11h8Zm-60.83,0h9.86l0.07-20.52c0-2.88.58-4.25,1.37-5.4a7.39,7.39,0,0,1,6-3.1c3.39,0,5.91,2.23,5.91,6.34l-0.07,22.68h9.86V618.07c0-6.84-5-12.1-12.6-12.1-5.26,0-8.93,2.81-10.23,5.69l-0.36-4.32-9.72-.07Zm-17.42,0h9.79V607.28H295.6Zm0.07-42.19h9.79v-8.78H295.6v8.78Zm-48.17,38a10.25,10.25,0,0,0,1.15,4.18h10.08a5.46,5.46,0,0,1-1.66-3.81V620c0-8.78-4.54-14-16.49-14-11.09,0-15.7,6.05-15.48,12.24l8.71,0.14c0-2.74,2-5.33,7.06-5.33,4.82,0,6.41,2.38,6.41,4.1,0,1.51-.94,2.88-3.6,3.39l-5.61.93c-8.06,1.44-10.22,3-11.81,4.32a10.2,10.2,0,0,0-3.38,7.63c0,6,4.75,11.52,14,11.52C242.18,644.93,245.35,643.13,247.44,639.74Zm0.07-15.12-0.07,4.61c0,5.18-3.24,8.42-8.85,8.42-4.11,0-6.12-2.45-6.12-4.68,0-1.73.58-3.67,6.84-5.4l4.25-1.15A12.89,12.89,0,0,0,247.51,624.63Zm-46.15,19.29h9.79V613.83h7.2v-6.55h-7.2v-0.72c0-3.31.58-4.25,1.22-4.9,0.79-.86,1.87-1.51,4.32-1.44h1.66v-7.27h-5.69c-3.31,0-12.31.58-11.3,14.33H196l0.07,6.55h5.33v30.09Zm-27.65,0h9.79V613.83h7.2v-6.55h-7.2v-0.72c0-3.31.58-4.25,1.22-4.9,0.79-.86,1.87-1.51,4.32-1.44h1.66v-7.27H185c-3.31,0-12.31.58-11.3,14.33h-5.4l0.07,6.55h5.33v30.09Zm-22.1-4.1,0.5,4.1h9.29V607.35l-9.79-.07v20.52c0,5.62-3.31,8.49-7.27,8.49-3.67,0-6-1.94-6-7.13V607.28H128.5v25.2c0,4.83,1.44,7.42,3.67,9.5a13.11,13.11,0,0,0,9.14,3.17A11.86,11.86,0,0,0,151.61,639.82Zm-63.43,4.1H98l0.07-20.52c0-2.88.58-4.25,1.36-5.4a7.41,7.41,0,0,1,6-3.1c3.38,0,5.91,2.23,5.91,6.34l-0.07,22.68h9.86V618.07c0-6.84-5-12.1-12.6-12.1-5.25,0-8.93,2.81-10.22,5.69L98,607.35l-9.72-.07Z"/><path class="c" d="M35.39,297.62c0,144.79,117.43,262.21,262.21,262.21S559.75,442.41,559.75,297.62,442.39,35.48,297.6,35.48,35.39,152.83,35.39,297.62Zm425,132.81c67.48-82.53,62.73-204.34-14.27-281.34s-198.85-81.8-281.39-14.32ZM134.66,164.86C67.23,247.41,72,369.27,149,446.25S347.78,528,430.31,460.51Z"/></svg>