<svg xmlns="http://www.w3.org/2000/svg" viewBox="0 0 595.28 850.36"><defs><style>.a{fill:#e5e8eb;}.a,.b,.c{fill-rule:evenodd;}.b{fill:#000100;}.c{fill:#ad1922;}</style></defs><title>P018_C</title><polyline class="a" points="0 850.36 595.28 850.36 595.28 0 0 0 0 850.36"/><polyline class="b" points="248.59 372.75 468.94 372.75 468.94 348.06 248.59 348.06 248.59 372.75"/><path class="b" d="M296.42,195.49l-39.86,57.68L188,270.06c-19.91,4.91-12.57,34.79,7.36,29.87l74.08-18.3a15.48,15.48,0,0,0,9-6.19L291.92,256v49.46h-68.3v0a17.32,17.32,0,0,0-13.28,6l-65.28,69.81c-15.86,17,9.29,41.52,25.45,24.24l35.56-38v51.83c0,23.25,35.11,23.81,35.11.24v-79h79.05a28.26,28.26,0,0,0,28.25-28.28V210.81c0-28.21-36.39-38-52.05-15.32"/><path class="b" d="M289.55,143a30.67,30.67,0,1,0,30.7-30.64A30.75,30.75,0,0,0,289.55,143"/><path class="b" d="M91.35,627.94c0,9.36,7,17.71,21.81,17.71s21.38-8,21.38-16.56c0-6.41-4-12.24-12.74-14.47l-12.1-3c-3.6-.94-4-1.37-4.75-2.16a4.86,4.86,0,0,1-1.29-3.38c0-3,2.52-6.48,9.79-6.48a10.7,10.7,0,0,1,7.7,2.74,8.37,8.37,0,0,1,2.45,5.47l10.08,0.14c-0.43-5.62-2.3-9-5.11-11.59s-8.35-5.11-15.77-5.11c-13.47,0-19.73,7.56-19.73,16,0,6.48,3.67,11.74,12.6,14L116,623.84c1.87,0.43,4.61.79,6.33,3a6.09,6.09,0,0,1,1.29,3.39c0,3.31-2.52,7.05-10.8,7.05-8.06,0-11.37-4.18-11.23-9.22Zm391.31,16h9.87V627.65c0-5.48,1.36-8,3-9.72a8.87,8.87,0,0,1,6.77-2.88,14.46,14.46,0,0,1,1.66.14v-8.71a12.15,12.15,0,0,0-2.09-.22,9.52,9.52,0,0,0-9.14,6.55l-0.29-5.54h-9.65Zm-18.29-4.18a12.8,12.8,0,0,0,1.22,4.18h10c-0.58-.5-1.51-2.16-1.51-5.18L473.94,620c-0.07-3.24-.29-4.18-0.58-5-1.44-5-5.54-9.07-15.48-9.07-11.45,0-15.91,5.83-15.91,12.24l8.64,0.14c0.43-2.45.79-3,1.58-3.67a8.4,8.4,0,0,1,5.69-1.73c4.68,0,6.41,2.45,6.41,4.18s-1.08,3-3.82,3.46l-9.86,1.73c-7.42,1.3-10.87,6.12-10.87,10.95,0,6.33,4.9,11.74,13.75,11.74C459.62,645,462.93,642.56,464.37,639.75Zm0-15.34v5.48c-0.29,4.61-3.38,7.77-8.71,7.77-4.18,0-6.19-2.45-6.19-4.61,0-1.73.86-4,6.77-5.4l4.25-1.15A8.08,8.08,0,0,0,464.37,624.41Zm-5.9-21.53,9.86,0.07,0.07-10h-9.94v9.93Zm-12.82,0h9.79l0.07-10h-9.86v10Zm-45.14,41h9.86V623.77c0-6,3.24-8.78,7.35-8.78,3.53,0,5.9,2,5.9,6.62v22.32h9.79V618.65c0-4.46-1.51-7.49-3.89-9.57A13.8,13.8,0,0,0,421,606c-5.33,0-9,2.52-10.65,5.91L410.37,593h-9.86v51ZM336.57,628.3l27.14,0.07c0-10.87-4.9-22.39-18.58-22.39-14,0-18.36,11.16-18.36,19.51,0,12.17,8.06,19.73,18.29,19.73s16.49-5.54,18-11.95l-9.86-.65c-1.87,3.38-4.46,4.75-7.63,4.75C340.89,637.37,337.07,634.21,336.57,628.3Zm0.36-7.13a8.5,8.5,0,0,1,8.06-7.49c4,0,7.49,2.73,8.13,7.49h-16.2Zm-15.26,22.75v-7.56H318a3.66,3.66,0,0,1-2.81-1.37c-0.21-.29-0.5-0.86-0.5-2.88V614h6.7v-6.7h-6.63l-0.07-11.59h-9.87v11.59h-5.11V614l5.18-.07v18.93c0,8.28,3.38,11,8.78,11h8Zm-60.69,0h9.87l0.07-20.52c0-2.88.58-4.25,1.37-5.4a7.4,7.4,0,0,1,6-3.1c3.38,0,5.83,2.23,5.83,6.34v22.68h9.86V618.08c0-6.84-5-12.1-12.67-12.1-5.25,0-8.92,2.81-10.15,5.69l-0.43-4.32-9.65-.07Zm-17.49,0h9.86V607.28h-9.86v36.64Zm0.07-42.19h9.79V593h-9.79v8.78Zm-36.79,42.19v-7.56h-3.67a3.66,3.66,0,0,1-2.81-1.37c-0.21-.29-0.5-0.86-0.5-2.88V614h6.7v-6.7h-6.63l-0.07-11.59h-9.86v11.59H184.8V614L190,614v18.93c0,8.28,3.39,11,8.78,11h8Zm-27.29,0v-7.56H175.8A3.65,3.65,0,0,1,173,635c-0.22-.29-0.51-0.86-0.51-2.88V614h6.7v-6.7h-6.62l-0.07-11.59h-9.86v11.59h-5.11V614l5.18-.07v18.93c0,8.28,3.38,11,8.78,11h8Zm-37.94,0h9.86V607.28h-9.86v36.64Zm0.07-42.19h9.79V593H141.6v8.78Z"/><path class="c" d="M35.39,297.63c0,144.79,117.43,262.21,262.22,262.21S559.75,442.41,559.75,297.63,442.39,35.48,297.61,35.48,35.39,152.84,35.39,297.63Zm425,132.81c67.48-82.53,62.73-204.35-14.27-281.34s-198.85-81.8-281.39-14.32ZM134.66,164.86C67.23,247.41,72,369.27,149,446.25S347.78,528,430.32,460.52Z"/></svg>