<svg xmlns="http://www.w3.org/2000/svg" viewBox="0 0 595.28 850.36"><defs><style>.a{fill:#e5e8eb;}.a,.b,.c{fill-rule:evenodd;}.b{fill:#000100;}.c{fill:#ad1922;}</style></defs><title>P019_C</title><polyline class="a" points="0 850.36 595.28 850.36 595.28 0 0 0 0 850.36"/><polyline class="b" points="297.26 432.59 167.79 432.59 183.1 445.8 283.55 445.8 283.55 484.4 297.26 484.92 297.26 432.59"/><path class="b" d="M415.21,264.13c-8.94-20.78-18-41.49-26.83-62.34a13.2,13.2,0,0,0-7.52-7.34l-62-26.19a14,14,0,0,0-8.47-.84c-20.31,4.52-40.58,9.24-60.92,13.57a13.53,13.53,0,0,0-9.17,7l-29,56-57.57,25.12-0.1,0-0.07,0c-16.23,7.61-5.32,32.13,11.2,24.92l61.46-26.85a14.41,14.41,0,0,0,7.16-6.43L257,215.09l16.5,74.23-67.88,24.06a15.62,15.62,0,0,0-9.44,20.08l29.38,80.61c7.12,19.55,36.47,8.89,29.34-10.68l-24-65.85,66-23.4a14.94,14.94,0,0,0,10.11-11.84l0.17-1.21,6.37,78.35a16.31,16.31,0,0,0,.21,1.62l15.83,84.36c3.83,20.43,34.51,14.73,30.68-5.73L344.65,376l-6.84-84a19.86,19.86,0,0,0-.35-2.75L317,197.14l48.5,20.48,24.63,57.29c7.19,16.72,32.29,5.95,25.09-10.78"/><path class="b" d="M245.07,140a27.27,27.27,0,1,0,27.24-27.3A27.23,27.23,0,0,0,245.07,140"/><path class="b" d="M91.71,643.92h10.58V625.35l5.26-5.47,16.41,24h12.82L115,613.11,134.26,593l-13.1.07-18.86,20.23L102.15,593,91.71,593v51Zm390.52,0h9.86l0.07-16.27c0-5.48,1.29-8,3-9.72a8.62,8.62,0,0,1,6.7-2.88,13.23,13.23,0,0,1,1.66.14l0.07-8.71a14,14,0,0,0-2.09-.22,9.54,9.54,0,0,0-9.22,6.55l-0.29-5.54h-9.65Zm-18.29-4.18a12.77,12.77,0,0,0,1.29,4.18h9.93c-0.58-.5-1.51-2.16-1.51-5.18L473.51,620a18.66,18.66,0,0,0-.5-5c-1.51-5-5.62-9.07-15.55-9.07-11.37,0-15.91,5.83-15.91,12.24l8.71,0.14c0.36-2.45.72-3,1.51-3.67s2.81-1.73,5.76-1.73c4.61,0,6.33,2.45,6.33,4.18s-1.08,3-3.74,3.46l-9.93,1.73c-7.42,1.3-10.87,6.12-10.87,10.95,0,6.33,4.9,11.74,13.75,11.74C459.18,645,462.57,642.56,463.94,639.75Zm0-15.34v5.48c-0.29,4.61-3.39,7.77-8.71,7.77-4.18,0-6.12-2.45-6.12-4.61,0-1.73.87-4,6.7-5.4L460,626.5A8.09,8.09,0,0,0,463.94,624.41ZM458,602.89L468,603V593H458.1Zm-12.81,0h9.86l0.07-10h-9.86Zm-45.14,41h9.86V623.77c0-6,3.31-8.78,7.34-8.78,3.53,0,5.91,2,5.91,6.62v22.32H433V618.65c0-4.46-1.51-7.49-3.88-9.57a14,14,0,0,0-8.64-3.1c-5.33,0-8.93,2.52-10.58,5.91V593h-9.86v51ZM336.14,628.3l27.22,0.07c0-10.87-5-22.39-18.58-22.39-14,0-18.43,11.16-18.43,19.51,0,12.17,8.06,19.73,18.36,19.73s16.49-5.54,18-11.95l-9.94-.65c-1.87,3.38-4.46,4.75-7.63,4.75C340.46,637.37,336.64,634.21,336.14,628.3Zm0.43-7.13a8.37,8.37,0,0,1,8-7.49c4,0,7.49,2.73,8.13,7.49H336.57Zm-15.26,22.75v-7.56h-3.67a3.7,3.7,0,0,1-2.88-1.37,5.85,5.85,0,0,1-.43-2.88V614h6.62v-6.7h-6.62l-0.07-11.59h-9.79v11.59h-5.18V614l5.18-.07v18.93c0,8.28,3.39,11,8.86,11h8Zm-60.76,0h9.86l0.07-20.52c0-2.88.58-4.25,1.37-5.4a7.39,7.39,0,0,1,6-3.1c3.39,0,5.91,2.23,5.91,6.34l-0.07,22.68h9.86V618.08c0-6.84-5-12.1-12.6-12.1-5.26,0-8.93,2.81-10.23,5.69l-0.36-4.32-9.72-.07Zm-17.5,0h9.86V607.28h-9.79Zm0.07-42.19H253V593h-9.86v8.78Zm-57.46,42.19h9.72l12.53-36.64h-10l-7.35,24.12-7.27-24h-10Zm-27.57,0H168V607.28h-9.79Zm0.07-42.19H168V593h-9.86v8.78Zm-17.57,42.19h9.86V593h-9.79Z"/><path class="c" d="M35.39,297.63c0,144.79,117.43,262.21,262.21,262.21S559.75,442.41,559.75,297.63,442.39,35.48,297.6,35.48,35.39,152.84,35.39,297.63Zm425,132.81c67.48-82.53,62.73-204.35-14.27-281.34s-198.85-81.8-281.39-14.32ZM134.66,164.86C67.22,247.41,72,369.27,149,446.25S347.78,528,430.32,460.52Z"/></svg>