<svg xmlns="http://www.w3.org/2000/svg" viewBox="0 0 595.28 850.36"><defs><style>.a{fill:#e5e8eb;}.a,.b,.c{fill-rule:evenodd;}.b{fill:#000100;}.c{fill:#ad1922;}</style></defs><title>P020_C</title><polyline class="a" points="0 850.36 595.28 850.36 595.28 0 0 0 0 850.36"/><path class="b" d="M352.32,385.17V284.59a0.94,0.94,0,1,1,1.88,0v42.13c0,7.2,10.81,7.2,10.81,0V283.59a15.47,15.47,0,0,0-10.73-14.75c-9.93-3.17-26.25-1.51-31.18.15a15.17,15.17,0,0,0-10,14.6v43.12c0,7.21,10.81,7.21,10.81,0V284.59a0.94,0.94,0,0,1,1.89,0V385.17c0,8.2,12.31,8.2,12.31,0V324.41a0.94,0.94,0,0,1,1.87,0v60.76c0,8.24,12.35,8.24,12.35,0"/><path class="b" d="M282.61,383.42v-129a1.19,1.19,0,1,1,2.38,0v54c0,9.26,13.89,9.26,13.89,0V253.1c0-10.47-7.56-20.24-18.47-20-11.64.22-24.75-2.45-36.16,1.62-7.69,2.75-12,10.43-12,18.42v55.31c0,9.26,13.89,9.26,13.89,0v-54a1.19,1.19,0,1,1,2.38,0v129c0,10.56,15.85,10.56,15.85,0V305.49a1.21,1.21,0,0,1,2.42,0v77.94c0,10.56,15.84,10.56,15.84,0"/><path class="b" d="M400.2,202l1.84,1.4,1.77,1.54c17,16.12,9.13,28.28,20.18,47.38l3.2,5.23c11,15.9,26,26.63,46.11,23.16l2.35-.49,2.26-.65-3-1.77L472,275.92c-17.4-12.16-26.17-26.25-32.75-46.13l-2.54-5.13c-6.65-11.44-16.19-23-30.53-23.19l-4,.21-2,.34"/><path class="b" d="M379.69,188.89h-162V403.73h162V188.89Zm-85.8,293.25V432.56h-6.27V418.5H202.94V174.13h84.67v-14h6.27V110.72h9.61V160.1h6.27v14h84.68V418.5H309.77v14.06H303.5v49.58h-9.61Z"/><path class="b" d="M446.75,187.21L445.8,190c-10,32,7.14,59.39,33.41,77l3.23,2-0.88-5.09-1-5.07-1.11-5-1.31-5-1.42-5-1.54-4.93-1.7-4.88-1.81-4.84L469.31,227,467,224.72l-2.16-2.42a79,79,0,0,1-12.74-20.83L448.41,192l-1.66-4.8"/><path class="b" d="M407.72,250l-0.16,3.12c-1.45,41.81,33.32,67.61,70.41,77l3.76,0.8,0.89-5.53,0.76-5.6L484,314.1l0.43-5.63,0.21-5.62,0.08-5.65-3.45-.27c-28.68-2.59-50.9-18.25-68.58-40.25l-2.53-3.34L407.72,250"/><path class="b" d="M399,317l2.26,0.59c28.19,5.69,30.75,54.64,75.8,33.08l1.54-5.6-2.92-.74c-34.94-7.75-33.88-45.18-73-29.55l-1.85,1.07L399,317"/><path class="b" d="M474,360l-1.7,4.57a189.42,189.42,0,0,1-10.19,22.18l-2.35,4.27h-2.69a51.13,51.13,0,0,1-49.67-43.9l-0.32-2.66,2.31,2.08a69.18,69.18,0,0,0,58.57,15l3-.74,3-.8"/><path class="b" d="M251.66,215.28a13.85,13.85,0,1,0,13.85-13.85,13.84,13.84,0,0,0-13.85,13.85"/><path class="b" d="M328.23,254.11A10.79,10.79,0,1,0,339,243.32a10.83,10.83,0,0,0-10.79,10.79"/><path class="b" d="M112.8,625.13l6.91-22,6.62,22H112.8Zm359.12,3.17,27.21,0.07c0-10.87-5-22.39-18.57-22.39-14,0-18.43,11.16-18.43,19.51,0,12.17,8.06,19.73,18.36,19.73s16.49-5.54,18-11.95l-9.93-.65c-1.87,3.38-4.46,4.75-7.63,4.75C476.25,637.37,472.43,634.2,471.93,628.3Zm0.43-7.13a8.37,8.37,0,0,1,8-7.49c4,0,7.49,2.73,8.13,7.49H472.36Zm-15.27,22.75v-7.56h-3.67a3.68,3.68,0,0,1-2.88-1.37,5.77,5.77,0,0,1-.44-2.88V614h6.63v-6.7h-6.63L450,595.68h-9.79v11.59h-5.18V614l5.18-.07V632.9c0,8.28,3.38,11,8.85,11h8Zm-60.83,0h9.86l0.07-20.52c0-2.88.58-4.25,1.37-5.4a7.39,7.39,0,0,1,6-3.1c3.39,0,5.91,2.23,5.91,6.34l-0.07,22.68h9.86V618.07c0-6.84-5-12.1-12.6-12.1-5.26,0-8.93,2.81-10.23,5.69L406,607.35l-9.72-.07Zm-17.5,0h9.86V607.28h-9.79Zm0.07-42.19h9.86v-8.78h-9.86v8.78Zm-47.66,38.44,0.36,3.74h9.79v-51h-9.93v18.5c-1.73-2.88-5.9-5.33-10.58-5.33-8.13,0-16.27,6.84-16.27,19.66a21.41,21.41,0,0,0,4.75,14,13.88,13.88,0,0,0,11.16,5.33A13.18,13.18,0,0,0,331.17,640.18Zm-7.77-3.53c-4.68,0-8.71-3.31-8.71-11.09,0-8.71,4.25-11.81,8.28-11.81s8.35,3.1,8.35,11.52C331.31,633.34,327.07,636.58,323.4,636.65Zm-58.54,7.27h9.86l0.07-20.52c0-2.88.58-4.25,1.36-5.4a7.41,7.41,0,0,1,6-3.1c3.38,0,5.9,2.23,5.9,6.34L288,643.92h9.79V618.07c0-6.84-5-12.1-12.53-12.1-5.25,0-8.93,2.81-10.22,5.69l-0.36-4.32-9.72-.07Zm-18.29-4.18a12.87,12.87,0,0,0,1.3,4.18h9.93c-0.58-.5-1.51-2.16-1.51-5.18L256.15,620a18.59,18.59,0,0,0-.51-5c-1.51-5-5.62-9.07-15.55-9.07-11.38,0-15.91,5.83-15.91,12.24l8.71,0.14c0.36-2.45.72-3,1.51-3.67s2.81-1.73,5.76-1.73c4.61,0,6.34,2.45,6.34,4.18s-1.08,3-3.74,3.46l-9.93,1.73c-7.42,1.3-10.87,6.12-10.87,10.95,0,6.33,4.9,11.74,13.75,11.74C241.82,645,245.21,642.55,246.57,639.74Zm0-15.34v5.47c-0.29,4.61-3.38,7.77-8.71,7.77-4.18,0-6.12-2.45-6.12-4.61,0-1.73.86-4,6.7-5.4l4.25-1.15A8.06,8.06,0,0,0,246.57,624.41Zm-5.9-21.53,9.93,0.07v-10h-9.86Zm-12.82,0h9.87l0.07-10h-9.86Zm-29.73,41h9.72l12.53-36.64h-10L203,631.39l-7.27-24h-10Zm-50,0h9.86L158,623.4c0-2.88.58-4.25,1.37-5.4a7.4,7.4,0,0,1,6-3.1c3.38,0,5.9,2.23,5.9,6.34l-0.07,22.68h9.86V618.07c0-6.84-5-12.1-12.6-12.1-5.26,0-8.93,2.81-10.22,5.69l-0.36-4.32-9.72-.07Zm-52,0h10.73l3.39-10.73h18.5L132,643.92h10.8l-17.42-51H114Z"/><path class="b" d="M126.26,731h9.79l0.07-20.16c0-6,3.24-8.78,7.34-8.78,3.46,0,5.9,2,5.9,6.62L149.3,731h9.86V705.73c0-4.46-1.51-7.49-3.89-9.57a14,14,0,0,0-8.57-3.1c-5.33,0-9,2.52-10.65,5.91V680h-9.79v51Zm332.48-3.74,0.43,3.74h9.72V680H459v18.51c-1.8-2.88-5.91-5.33-10.58-5.33-8.21,0-16.27,6.84-16.27,19.66a21.37,21.37,0,0,0,4.68,14,13.93,13.93,0,0,0,11.23,5.33A13.15,13.15,0,0,0,458.75,727.26ZM451,723.73c-4.61,0-8.71-3.31-8.71-11.09,0-8.71,4.25-11.81,8.35-11.81s8.28,3.1,8.28,11.52C458.89,720.42,454.64,723.66,451,723.73ZM415.4,731h9.79V694.36H415.4V731Zm0-42.19h9.87V680H415.4v8.78ZM387.75,731h9.72l12.6-36.64H400l-7.27,24.12-7.27-24h-10Zm-80.28,0h9.86V710.48c0-2.88.58-4.25,1.36-5.4a7.64,7.64,0,0,1,6.05-3.1c3.38,0,5.83,2.23,5.83,6.34V731h9.79V705.15c0-6.84-5-12.1-12.6-12.1-5.25,0-8.92,2.81-10.15,5.69l-0.43-4.32-9.65-.07Zm-34.12-15.62,27.14,0.07c0-10.87-4.83-22.39-18.51-22.39-14,0-18.36,11.16-18.36,19.51,0,12.17,8.06,19.73,18.29,19.73s16.42-5.54,17.93-11.95L290,719.7c-1.87,3.38-4.39,4.75-7.63,4.75C277.67,724.45,273.85,721.28,273.35,715.38Zm0.43-7.13a8.38,8.38,0,0,1,8.06-7.49c4,0,7.42,2.73,8.14,7.49h-16.2Zm-50.33,10.51c0.14,6.91,6,13.53,17.21,13.53,11.45,0,16.42-6.12,16.42-12.67a10.35,10.35,0,0,0-2.23-6.41c-1.37-1.73-3.17-3-7.49-4l-10.51-2.45c-2.23-.58-3.1-1.94-3.1-3.24s1.29-3.67,6.12-3.67c5.18,0,7.49,2.73,7.56,5.69l8.71-.14a13,13,0,0,0-5.25-9.65c-2.16-1.51-5.54-2.81-10.87-2.81-10.58,0-15.27,5.69-15.27,12a9.46,9.46,0,0,0,2.59,6.91c1.29,1.37,2.88,2.52,7,3.39l7.92,1.8c4.61,1,5.18,2.45,5.18,4.18s-1.51,4.1-6.91,4.1c-5.18,0-7.85-2.74-8.13-6.55Zm-40.25,0c0.14,6.91,6,13.53,17.21,13.53,11.45,0,16.42-6.12,16.42-12.67a10.35,10.35,0,0,0-2.23-6.41c-1.37-1.73-3.17-3-7.49-4l-10.51-2.45c-2.23-.58-3.1-1.94-3.1-3.24s1.29-3.67,6.12-3.67c5.19,0,7.49,2.73,7.56,5.69l8.71-.14a13,13,0,0,0-5.26-9.65c-2.16-1.51-5.54-2.81-10.87-2.81-10.58,0-15.26,5.69-15.26,12a9.44,9.44,0,0,0,2.59,6.91c1.29,1.37,2.88,2.52,7,3.39L202,717c4.61,1,5.19,2.45,5.19,4.18s-1.51,4.1-6.91,4.1c-5.18,0-7.85-2.74-8.13-6.55ZM166.44,731h9.79V694.36h-9.79V731Zm0-42.19h9.86V680h-9.86v8.78Z"/><path class="b" d="M223,810.78c-4.11,0-8.35-3.24-8.35-11.45s4.25-11.45,8.28-11.45c4.39,0,8.42,3.1,8.42,11.59C231.3,807.54,227.13,810.78,223,810.78Zm157.46,3.6,0.43,3.74h9.79l-0.07-51H380.7v18.5c-1.8-2.88-5.91-5.33-10.58-5.33-8.21,0-16.27,6.84-16.27,19.66,0,5.83,1.8,10.65,4.75,14a13.79,13.79,0,0,0,11.16,5.33A13.07,13.07,0,0,0,380.41,814.38Zm-7.78-3.53c-4.61,0-8.71-3.31-8.71-11.09,0-8.71,4.25-11.81,8.35-11.81s8.28,3.1,8.28,11.52C380.56,807.54,376.31,810.78,372.64,810.86Zm-58.53,7.27H324V797.61c0-2.88.58-4.25,1.44-5.4a7.41,7.41,0,0,1,6-3.1c3.39,0,5.83,2.23,5.83,6.34v22.68H347V792.28c0-6.84-5-12.1-12.6-12.1-5.26,0-8.93,2.81-10.15,5.69l-0.43-4.32-9.65-.07ZM295.82,814a11.48,11.48,0,0,0,1.22,4.18H307a6.2,6.2,0,0,1-1.65-3.81l0.07-20.09c0-8.78-4.61-14-16.49-14-11.09,0-15.69,6.05-15.48,12.24l8.71,0.14c0-2.74,2.08-5.33,7.05-5.33s6.48,2.38,6.48,4.1c0,1.51-.93,2.88-3.6,3.38l-5.62.94c-8.13,1.44-10.29,3-11.81,4.32a10,10,0,0,0-3.38,7.63c0,6,4.75,11.52,14,11.52C290.63,819.14,293.73,817.34,295.82,814Zm0.07-15.12-0.07,4.61c0,5.18-3.24,8.42-8.86,8.42-4.1,0-6-2.45-6-4.68,0-1.73.58-3.67,6.77-5.4l4.25-1.15A12.14,12.14,0,0,0,295.89,798.83Zm-47.52,19.29h9.86V801.86c0-5.47,1.37-8,3-9.72a8.73,8.73,0,0,1,6.7-2.88,12.05,12.05,0,0,1,1.66.14l0.07-8.71a14.17,14.17,0,0,0-2.09-.22,9.46,9.46,0,0,0-9.15,6.55l-0.29-5.54h-9.72v36.64Zm-43.78,0h9.72l0.5-3.74a12.82,12.82,0,0,0,10.51,4.9c8.13,0,16.13-6.62,16.13-19.58,0-12.6-8.06-19.44-16.06-19.44-5.26,0-9,2.3-10.94,5.47V767.16h-9.87v51Z"/><path class="c" d="M35.39,297.62c0,144.79,117.43,262.21,262.21,262.21S559.75,442.41,559.75,297.62,442.39,35.48,297.6,35.48,35.39,152.83,35.39,297.62Zm425,132.81c67.48-82.53,62.72-204.34-14.27-281.34s-198.85-81.8-281.39-14.32ZM134.66,164.86C67.23,247.41,72,369.27,149,446.25S347.78,528,430.32,460.51Z"/></svg>