<svg xmlns="http://www.w3.org/2000/svg" viewBox="0 0 595.28 850.36"><defs><style>.a{fill:#e5e8eb;}.a,.b,.c{fill-rule:evenodd;}.b{fill:#000100;}.c{fill:#ad1922;}</style></defs><title>P021_C</title><polyline class="a" points="0 850.36 595.28 850.36 595.28 0 0 0 0 850.36"/><path class="b" d="M371.35,343.57l17.89-29.29-60-59.94H198.1l-23.78-41.11c-1.33-2.09-2.09-3-4-3h-1.15a3.5,3.5,0,0,0-3.6,3.61v55.74a2.5,2.5,0,0,0,.18,1.14l6.28,11v79.72s-12,26.47-12,29.13l-0.18,29.31a17,17,0,0,0,14.46,15.21h4.76a17,17,0,0,0,14.46-15.21V394l37.3-58.43,100,24.35,0.67,60.71A16,16,0,0,0,345,435.09h4.75a16.13,16.13,0,0,0,13.7-14.45v-28l7.9-49.09"/><path class="b" d="M467,244.82l-25.11-16.17V217.43a10.26,10.26,0,0,0-4.76-8l-20.92-12V172.53c0-3.06-1.72-3.81-3.82-1.72l-68.68,69.07,55.94,55.94,15.79-27.4h38.43a10.61,10.61,0,0,0,8.18-4.57l0.38-.95,6.48-11a5,5,0,0,0-1.91-7"/><path class="b" d="M135.48,643.92h38v-8.78H146v-14h24v-8.35h-24v-11.3h27V593H135.48v51Zm303,0h9.86V627.65c0-5.48,1.37-8,3-9.72a8.73,8.73,0,0,1,6.7-2.88,12.1,12.1,0,0,1,1.66.14l0.07-8.71a14.13,14.13,0,0,0-2.09-.22,9.45,9.45,0,0,0-9.15,6.55l-0.29-5.54h-9.72v36.64Zm-18.36-4.18a11.55,11.55,0,0,0,1.22,4.18h10a6.2,6.2,0,0,1-1.65-3.81L429.74,620c0-8.78-4.61-14-16.56-14-11.09,0-15.69,6.05-15.48,12.24l8.71,0.14c0-2.74,2-5.33,7.06-5.33,4.82,0,6.48,2.38,6.48,4.1,0,1.51-.94,2.88-3.6,3.39l-5.61.93c-8.13,1.44-10.3,3-11.88,4.32a10.13,10.13,0,0,0-3.31,7.63c0,6,4.75,11.52,14,11.52C414.91,644.93,418,643.13,420.09,639.75Zm0.07-15.12-0.07,4.61c0,5.18-3.24,8.42-8.85,8.42-4.11,0-6.05-2.45-6.05-4.68,0-1.73.58-3.67,6.77-5.4l4.25-1.15A12.12,12.12,0,0,0,420.16,624.63Zm-41.54,15.55,0.43,3.74h9.79l-0.07-51h-9.86v18.51c-1.8-2.88-5.9-5.33-10.58-5.33-8.21,0-16.27,6.84-16.27,19.66,0,5.83,1.8,10.66,4.75,14A13.78,13.78,0,0,0,368,645.15,13.15,13.15,0,0,0,378.62,640.18Zm-7.78-3.53c-4.61,0-8.71-3.31-8.71-11.09,0-8.71,4.25-11.81,8.35-11.81s8.28,3.1,8.28,11.52C378.76,633.34,374.52,636.58,370.84,636.65Zm-58.53,7.27h9.86V623.4c0-2.88.58-4.25,1.44-5.4a7.39,7.39,0,0,1,6-3.1c3.38,0,5.83,2.23,5.83,6.34v22.68h9.8V618.08c0-6.84-5-12.1-12.6-12.1-5.25,0-8.93,2.81-10.15,5.69L322,607.35l-9.65-.07Zm-17.42-4.1,0.58,4.1h9.22l-0.07-36.57-9.65-.07V627.8c0,5.62-3.39,8.5-7.35,8.5-3.67,0-6-1.94-6-7.13V607.28h-9.79v25.2c0,4.83,1.37,7.42,3.6,9.5a13.11,13.11,0,0,0,9.14,3.17A11.69,11.69,0,0,0,294.88,639.82Zm-63.07,4.1h9.79l0.07-20.16c0-6,3.24-8.78,7.35-8.78,3.45,0,5.9,2,5.9,6.62l-0.07,22.32h9.86V618.65c0-4.46-1.51-7.49-3.89-9.57a13.8,13.8,0,0,0-8.57-3.1c-5.33,0-9,2.52-10.66,5.91V593h-9.79v51Zm-53.56,4v8l6.84-.07c6.19,0,9.29-3,9.29-9.65l-0.07-38.88h-9.86v34.63c0,5.18-1.58,6-4,6h-2.23Zm6.19-46.15h9.86V593h-9.86v8.78Z"/><path class="c" d="M35.39,297.63c0,144.79,117.43,262.21,262.22,262.21S559.75,442.41,559.75,297.63,442.39,35.48,297.61,35.48,35.39,152.84,35.39,297.63Zm425,132.81c67.48-82.53,62.73-204.35-14.27-281.34s-198.86-81.8-281.4-14.32ZM134.66,164.86C67.23,247.41,72,369.27,149,446.25S347.78,528,430.32,460.52Z"/></svg>