<svg xmlns="http://www.w3.org/2000/svg" viewBox="0 0 595.28 850.36"><defs><style>.a{fill:#e5e8eb;}.a,.b,.c{fill-rule:evenodd;}.b{fill:#000100;}.c{fill:#ad1922;}</style></defs><title>P022_C</title><polyline class="a" points="0 850.36 595.28 850.36 595.28 0 0 0 0 850.36"/><polyline class="b" points="424.85 397.89 453.68 194.4 343.9 194.4 324.3 127.05 310.97 127.05 330.58 194.4 309.83 194.4 339.14 398.38 424.85 397.89"/><path class="b" d="M286.41,330.82H140.47c-18.26,0-18.26,27.39,0,27.39H286.41c18.26,0,18.26-27.39,0-27.39"/><path class="b" d="M160.68,398.38H261.33c25.12,0,30.63-28.15,30.63-28.15H133.65c0,25.69,27,28.15,27,28.15"/><path class="b" d="M264.88,291.54H164.23c-25.12,0-30.63,28.16-30.63,28.16H291.91c0-25.69-27-28.16-27-28.16"/><path class="b" d="M98.4,643.92h38v-8.78h-27.5v-14h24v-8.35H109v-11.3h27v-8.57H98.4v51Zm377,0h9.87V627.65c0-5.47,1.36-8,3-9.72A8.72,8.72,0,0,1,495,615a12,12,0,0,1,1.65.14l0.07-8.71a14.07,14.07,0,0,0-2.09-.22,9.45,9.45,0,0,0-9.14,6.55l-0.29-5.54h-9.72v36.64Zm-34.2-15.62,27.22,0.07c0-10.87-4.9-22.39-18.58-22.39-14,0-18.36,11.16-18.36,19.51,0,12.17,8.06,19.73,18.29,19.73s16.49-5.54,18-11.95l-9.94-.65c-1.87,3.38-4.39,4.75-7.56,4.75C445.65,637.37,441.83,634.2,441.25,628.3Zm0.43-7.13a8.44,8.44,0,0,1,8.06-7.49c4,0,7.42,2.73,8.13,7.49h-16.2Zm-26.93,22.75h9.87v-51h-9.79Zm-17.49,0h9.86v-51h-9.79Zm-34.2-15.62,27.22,0.07c0-10.87-4.9-22.39-18.57-22.39-14,0-18.36,11.16-18.36,19.51,0,12.17,8.06,19.73,18.29,19.73s16.49-5.54,18-11.95l-9.94-.65c-1.87,3.38-4.39,4.75-7.56,4.75C367.46,637.37,363.64,634.2,363.07,628.3Zm0.43-7.13a8.44,8.44,0,0,1,8.06-7.49c4,0,7.42,2.73,8.13,7.49H363.5Zm-46.15,22.75v-7.56h-3.67a3.65,3.65,0,0,1-2.81-1.37c-0.22-.29-0.51-0.86-0.51-2.88V614H317v-6.7h-6.63l-0.07-11.59H300.5v11.59h-5V614l5.11-.07V632.9c0,8.28,3.38,11,8.78,11h8Zm-37.65-4.18a11.48,11.48,0,0,0,1.22,4.18h10a6.2,6.2,0,0,1-1.66-3.81L289.34,620c0-8.78-4.61-14-16.56-14-11.09,0-15.69,6.05-15.48,12.24l8.71,0.14c0-2.74,2-5.33,7.05-5.33,4.83,0,6.48,2.38,6.48,4.1,0,1.51-.93,2.88-3.6,3.39l-5.62.93c-8.13,1.44-10.29,3-11.88,4.32a10.14,10.14,0,0,0-3.31,7.63c0,6,4.75,11.52,14,11.52C274.51,644.93,277.61,643.13,279.69,639.74Zm0.07-15.12-0.07,4.61c0,5.18-3.24,8.42-8.86,8.42-4.1,0-6-2.45-6-4.68,0-1.73.58-3.67,6.77-5.4l4.25-1.15A12.13,12.13,0,0,0,279.76,624.63Zm-85,19.29h9.86V622.76c0-5.26,3-7.92,6.91-7.92a4.88,4.88,0,0,1,4.9,3.1c0.22,0.36.51,1.15,0.51,4v22h9.72V622.18c0-4.75,3-7.49,6.84-7.49,3.31,0,5.54,2,5.54,6.33v22.9h9.72l-0.07-25.7c-0.14-7.7-5-12.1-11.74-12.1a12.22,12.22,0,0,0-11.23,6.41,11.87,11.87,0,0,0-10.8-6.41c-5,0-8.28,2.16-10.22,5.83l-0.29-4.61-9.58-.07Zm-53.57,4v8l6.84-.07c6.19,0,9.29-3,9.29-9.65l-0.07-38.88h-9.86v34.63c0,5.18-1.59,6-4,6h-2.23Zm6.19-46.15h9.86v-8.78h-9.86v8.78Z"/><path class="b" d="M222.38,723.73c-4.68,0-8.71-3.31-8.71-11.09,0-8.71,4.25-11.81,8.28-11.81s8.35,3.1,8.35,11.52C230.3,720.42,226.05,723.66,222.38,723.73ZM355.57,731h9.86l-0.07-12,4.17-4.1L379.62,731h12l-15-22.53,13.1-14.11H378.11l-12.67,14L365.36,680H355.5Zm-16.34-13.32c-0.5,2.88-1.37,4-2.81,5.11a7.49,7.49,0,0,1-4.75,1.51c-4.46,0-8.5-3.17-8.5-11.37,0-9,4.32-12.31,8.86-12.31a7.06,7.06,0,0,1,7,6.26l9.5-.5c-0.79-7.63-6.7-13.54-16.78-13.54-7.2,0-12.24,2.81-15.55,7.7a20.56,20.56,0,0,0-3.53,12.24c0,7.42,3,13,7.63,16.41a18.43,18.43,0,0,0,11.37,3.39,18.17,18.17,0,0,0,7.27-1.22c5.54-2,8.93-6.19,9.65-13.25Zm-62.28,17.49v7.7h7.27c8.57,0,10.58-6.77,11.38-9l13.89-39.53H299L291.78,717l-7.7-22.68H273.42l11.37,30.89a13.83,13.83,0,0,1,1,5c0,3-1.66,5-5.91,4.9h-3Zm-29-4.18h9.86l0.07-16.27c0-5.47,1.29-8,3-9.72a8.62,8.62,0,0,1,6.7-2.88,13.29,13.29,0,0,1,1.66.14l0.07-8.71a14.71,14.71,0,0,0-2.09-.21A9.38,9.38,0,0,0,258,699.9l-0.36-5.54H248Zm-17.78-3.74,0.43,3.74h9.72V680h-9.93v18.51c-1.73-2.88-5.91-5.33-10.58-5.33-8.14,0-16.27,6.84-16.27,19.66a21.42,21.42,0,0,0,4.75,14,13.89,13.89,0,0,0,11.16,5.33A13.19,13.19,0,0,0,230.15,727.26Z"/><path class="c" d="M35.39,297.62c0,144.79,117.43,262.21,262.21,262.21S559.75,442.41,559.75,297.62,442.39,35.48,297.6,35.48,35.39,152.83,35.39,297.62Zm425,132.81c67.48-82.53,62.72-204.34-14.27-281.34s-198.85-81.8-281.39-14.32ZM134.66,164.86C67.23,247.41,72,369.27,149,446.25S347.78,528,430.31,460.51Z"/></svg>