<svg xmlns="http://www.w3.org/2000/svg" viewBox="0 0 595.28 850.36"><defs><style>.a{fill:#e5e8eb;}.a,.b,.c{fill-rule:evenodd;}.b{fill:#000100;}.c{fill:#ad1922;}</style></defs><title>P023_C</title><polyline class="a" points="0 850.36 595.28 850.36 595.28 0 0 0 0 850.36"/><path class="b" d="M143.59,400.93c2.56,3.84,5.3,7.49,8.13,11.13H443.49c2.84-3.65,5.57-7.3,8.13-11.13h-308"/><path class="b" d="M436.14,251.69H410.5v-44h25.64v44Zm-253,129.36H157.63v-44h25.55v44Zm0-49.26H157.63V297h25.55v34.77Zm0-40.06H157.63V257h25.55v34.77Zm252.94,89.33v-44H410.49v44.22ZM368.8,197.6h36.41l0.06,183.72-36.47-.05V197.6Zm-5.3,139.56,0,44.09-133.38-.19v-44Zm-133.37-5.34V297.07H363.49v34.86Zm0-74.82v34.75H363.49V257H230.14Zm-5.39-49.32H188.38l0.07,185h36.4Zm5.39,44,133.35,0v-44H230.27Zm-46.93,0H157.63v-44h25.65Zm47.06-49.3H363.47V192.3h47v10.13H441.4V386.35H230.12V398h-47V386.35H152.3V202.43h30.8V192.26l47,0ZM436.14,331.79H410.5V297h25.64v34.77Zm0-40.06H410.5V257h25.64v34.77Z"/><path class="b" d="M93.87,613.4V601.08h13.39a6.09,6.09,0,0,1,5.69,6.19,6.23,6.23,0,0,1-6.48,6.26Zm402,34.49v8l6.84-.07c6.19,0,9.29-3,9.29-9.65l-0.07-38.88H502v34.63c0,5.18-1.58,6-4,6h-2.23ZM502,601.73h9.86V593H502v8.78Zm-37.8,26.57,27.22,0.07c0-10.87-4.9-22.39-18.58-22.39-14,0-18.36,11.16-18.36,19.51,0,12.17,8.06,19.73,18.29,19.73s16.49-5.54,18-11.95l-9.94-.65c-1.87,3.38-4.39,4.75-7.63,4.75C468.62,637.37,464.8,634.21,464.22,628.3Zm0.43-7.13a8.39,8.39,0,0,1,8.07-7.49c4,0,7.42,2.73,8.13,7.49h-16.2Zm-80.2,10.51c0.14,6.91,6,13.53,17.21,13.53,11.45,0,16.49-6.12,16.49-12.67a10.42,10.42,0,0,0-2.3-6.41c-1.37-1.73-3.17-3-7.49-4l-10.51-2.45c-2.23-.58-3.1-1.94-3.1-3.24s1.3-3.67,6.12-3.67c5.18,0,7.49,2.73,7.56,5.69l8.71-.14a13,13,0,0,0-5.26-9.65c-2.16-1.51-5.55-2.81-10.87-2.81-10.58,0-15.26,5.69-15.26,12a9.44,9.44,0,0,0,2.59,6.91c1.29,1.37,2.88,2.52,7,3.39l7.92,1.8c4.61,1,5.18,2.45,5.18,4.18s-1.51,4.1-6.91,4.1c-5.18,0-7.85-2.74-8.13-6.55Zm-17,8.06a11.55,11.55,0,0,0,1.23,4.18h10a6.2,6.2,0,0,1-1.65-3.81L377.11,620c0-8.78-4.61-14-16.56-14-11.09,0-15.69,6.05-15.48,12.24l8.71,0.14c0-2.74,2-5.33,7.06-5.33,4.82,0,6.48,2.38,6.48,4.1,0,1.51-.94,2.88-3.6,3.39l-5.61.93c-8.13,1.44-10.3,3-11.88,4.32a10.13,10.13,0,0,0-3.31,7.63c0,6,4.75,11.52,14,11.52C362.28,644.93,365.37,643.13,367.46,639.75Zm0.07-15.12-0.07,4.61c0,5.18-3.24,8.42-8.85,8.42-4.11,0-6.05-2.45-6.05-4.68,0-1.73.58-3.67,6.77-5.4l4.25-1.15A12.06,12.06,0,0,0,367.53,624.63ZM320,643.92h9.87V627.65c0-5.48,1.37-8,3-9.72a8.72,8.72,0,0,1,6.7-2.88,12.17,12.17,0,0,1,1.66.14l0.07-8.71a14,14,0,0,0-2.09-.22,9.45,9.45,0,0,0-9.14,6.55l-0.29-5.54H320v36.64ZM285.89,628.3L313,628.37c0-10.87-4.9-22.39-18.5-22.39-14,0-18.36,11.16-18.36,19.51,0,12.17,8.07,19.73,18.29,19.73s16.42-5.54,17.93-11.95l-9.94-.65c-1.87,3.38-4.39,4.75-7.56,4.75C290.28,637.37,286.46,634.21,285.89,628.3Zm0.43-7.13a8.38,8.38,0,0,1,8.06-7.49c3.89,0,7.34,2.73,8.06,7.49H286.32Zm-50.69,22.75h9.86v-12l4.11-4.1,10.08,16.13h12.1l-15.12-22.53,13.18-14.11H258.17l-12.67,14L245.42,593h-9.79v51Zm-16.27-13.32c-0.58,2.88-1.37,4-2.81,5.11a7.86,7.86,0,0,1-4.83,1.51c-4.39,0-8.49-3.17-8.49-11.37,0-9,4.32-12.31,8.85-12.31a7.19,7.19,0,0,1,7.06,6.26l9.5-.5c-0.87-7.63-6.77-13.54-16.78-13.54-7.2,0-12.31,2.81-15.62,7.7a21,21,0,0,0-3.46,12.24c0,7.42,3,13,7.56,16.41a21.45,21.45,0,0,0,18.72,2.16c5.55-2,8.93-6.19,9.65-13.25Zm-52,14.69c11.09,0,19.22-7.85,19.22-19.8,0-11.59-8-19.58-19.36-19.58-11.09,0-19.15,7.92-19.15,19.51C148.08,637.52,156.22,645.29,167.38,645.29Zm-0.07-7.7c-4.68,0-9.22-3.6-9.22-11.74,0-8.78,4.39-12.24,9.22-12.24s9.22,3.53,9.22,11.88C176.52,634.06,172.13,637.59,167.3,637.59Zm-36,6.33h9.86V593h-9.79Zm-48,0h26.14c4.82,0,7.13-.79,9.65-2.59a13.26,13.26,0,0,0,5.76-11.52,13,13,0,0,0-10.08-13.17,10.74,10.74,0,0,0,8.2-10.8A12.05,12.05,0,0,0,117.12,595c-2-1.29-4-2-8.57-2H83.28v51Zm10.58-8.28V621.1l12.45-.07c4.68,0,7.63,3.31,7.63,7.13a7.41,7.41,0,0,1-7.56,7.49H93.87Z"/><path class="c" d="M35.39,297.63c0,144.79,117.43,262.21,262.22,262.21S559.75,442.41,559.75,297.63,442.39,35.48,297.61,35.48,35.39,152.84,35.39,297.63Zm425,132.81c67.48-82.53,62.73-204.35-14.27-281.34s-198.86-81.8-281.4-14.32ZM134.67,164.86C67.23,247.41,72,369.27,149,446.25S347.78,528,430.32,460.52Z"/></svg>