<svg xmlns="http://www.w3.org/2000/svg" viewBox="0 0 595.28 850.36"><defs><style>.a{fill:#e5e8eb;}.a,.b,.c{fill-rule:evenodd;}.b{fill:#000100;}.c{fill:#ad1922;}</style></defs><title>P024_C</title><polyline class="a" points="0 850.36 595.28 850.36 595.28 0 0 0 0 850.36"/><path class="b" d="M384.45,155.42c-3.71,0-56.18-.35-65.49,89.22-4.23,40.48,40.49,41.89-1.4,132.52-28.87,62.49,28.67,92.6,58.61,80.81C405.9,446.17,414,403,416.47,382.64c2.64-20.43,13.54-64.95,25.16-89.23,19.7-41.37,5.11-138-57.18-138"/><path class="b" d="M210.72,155.42c3.69,0,56.14-.35,65.46,89.22,4.23,40.48-40.48,41.89,1.41,132.52,28.87,62.49-28.68,92.6-58.59,80.81-29.75-11.8-37.85-54.92-40.32-75.33-2.64-20.43-13.55-64.95-25.17-89.23-19.7-41.37-5.1-138,57.22-138"/><path class="b" d="M75.15,643.92H85.66V601.45h15.41V593H59.67v8.5H75.15v42.48Zm439,0h9.86l0.07-16.27c0-5.48,1.29-8,3-9.72a8.62,8.62,0,0,1,6.7-2.88,13.22,13.22,0,0,1,1.66.14l0.07-8.71a14,14,0,0,0-2.08-.22,9.54,9.54,0,0,0-9.22,6.55l-0.29-5.54h-9.65Zm-18.29-4.18a12.77,12.77,0,0,0,1.29,4.18h9.93c-0.58-.5-1.51-2.16-1.51-5.18L505.48,620a18.68,18.68,0,0,0-.5-5c-1.51-5-5.61-9.07-15.55-9.07-11.37,0-15.91,5.83-15.91,12.24l8.71,0.14c0.36-2.45.72-3,1.51-3.67s2.81-1.73,5.76-1.73c4.61,0,6.33,2.45,6.33,4.18s-1.08,3-3.74,3.46l-9.93,1.73c-7.42,1.3-10.87,6.12-10.87,10.95,0,6.33,4.9,11.74,13.75,11.74C491.15,645,494.53,642.56,495.9,639.75Zm0-15.34v5.47c-0.29,4.61-3.38,7.77-8.71,7.77-4.17,0-6.12-2.45-6.12-4.61,0-1.73.86-4,6.7-5.4L492,626.5A8.09,8.09,0,0,0,495.9,624.41ZM490,602.89l9.94,0.07V593h-9.86Zm-12.82,0H487l0.07-10h-9.86Zm-45.15,41h9.87V623.77c0-6,3.31-8.78,7.42-8.78,3.46,0,5.83,2,5.83,6.62v22.32H465V618.65c0-4.46-1.51-7.49-3.89-9.57a14,14,0,0,0-8.57-3.1c-5.4,0-9,2.52-10.65,5.91V593H432v51Zm-53.49,4-0.07,8,6.84-.07c6.26,0,9.29-3,9.29-9.65l-0.07-38.88h-9.79l-0.07,34.63c0,5.18-1.51,6-3.89,6h-2.23Zm6.12-46.15h9.94L394.53,593h-9.86v8.78ZM346.94,628.3l27.22,0.07c0-10.87-5-22.39-18.58-22.39-14,0-18.43,11.16-18.43,19.51,0,12.17,8.06,19.73,18.36,19.73s16.49-5.54,18-11.95l-9.93-.65c-1.87,3.38-4.46,4.75-7.63,4.75C351.26,637.37,347.44,634.21,346.94,628.3Zm0.43-7.13a8.37,8.37,0,0,1,8-7.49c4,0,7.49,2.73,8.13,7.49H347.37Zm-57.53,18.58a11.58,11.58,0,0,0,1.15,4.18h10a5.46,5.46,0,0,1-1.66-3.81V620c0-8.78-4.46-14-16.42-14-11.09,0-15.69,6.05-15.48,12.24l8.71,0.14c0-2.74,2-5.33,7.05-5.33,4.83,0,6.41,2.38,6.41,4.1,0,1.51-.94,2.88-3.6,3.39l-5.61.93c-8.07,1.44-10.22,3-11.81,4.32a10.19,10.19,0,0,0-3.39,7.63c0,6,4.75,11.52,14,11.52C284.59,644.93,287.76,643.13,289.84,639.75Zm0.07-15.12-0.07,4.61c0,5.18-3.24,8.42-8.86,8.42-4.1,0-6.12-2.45-6.12-4.68,0-1.73.58-3.67,6.84-5.4l4.25-1.15A12.09,12.09,0,0,0,289.92,624.63Zm-56.88,15c2.09,3.38,5.69,5.47,10.73,5.47,10,0,16.2-9.29,16.2-19.73,0-10-6.05-19.3-16.06-19.3a13.27,13.27,0,0,0-10.66,5l-0.43-3.74-9.72.07,0.07,48.45H233Zm8.78-2.09c-4.68,0-8.71-3.17-8.71-11.09,0-8.85,4.32-11.95,8.35-11.95S250,617.86,250,626C250,631.4,247.66,637.52,241.82,637.59Zm-80.06,6.33h9.86l0.07-21.16c0-5.26,3-7.92,6.91-7.92a4.89,4.89,0,0,1,4.9,3.1c0.14,0.36.43,1.15,0.43,4v22h9.79V622.18c0-4.75,2.88-7.49,6.77-7.49,3.38,0,5.61,2,5.61,6.33v22.9h9.72l-0.07-25.7c-0.22-7.7-5.11-12.1-11.74-12.1a12.33,12.33,0,0,0-11.3,6.41A11.75,11.75,0,0,0,182,606.12c-5,0-8.28,2.16-10.22,5.83l-0.36-4.61-9.57-.07Zm-18.29-4.18a11.64,11.64,0,0,0,1.15,4.18h10.08a5.46,5.46,0,0,1-1.66-3.81V620c0-8.78-4.54-14-16.49-14-11.09,0-15.7,6.05-15.48,12.24l8.71,0.14c0-2.74,2-5.33,7.06-5.33,4.82,0,6.41,2.38,6.41,4.1,0,1.51-.94,2.88-3.6,3.39l-5.62.93c-8.06,1.44-10.23,3-11.81,4.32a10.21,10.21,0,0,0-3.38,7.63c0,6,4.75,11.52,14,11.52C138.22,644.93,141.38,643.13,143.47,639.75Zm0.07-15.12-0.07,4.61c0,5.18-3.24,8.42-8.85,8.42-4.11,0-6.12-2.45-6.12-4.68,0-1.73.58-3.67,6.84-5.4l4.25-1.15A12.13,12.13,0,0,0,143.55,624.63ZM96,643.92h9.86l0.07-16.27c0-5.48,1.29-8,3-9.72a8.62,8.62,0,0,1,6.7-2.88,13.22,13.22,0,0,1,1.66.14l0.07-8.71a14,14,0,0,0-2.08-.22,9.54,9.54,0,0,0-9.22,6.55l-0.29-5.54H96Z"/><path class="c" d="M35.39,297.63c0,144.79,117.43,262.21,262.22,262.21S559.75,442.41,559.75,297.63,442.39,35.48,297.61,35.48,35.39,152.84,35.39,297.63Zm425,132.81c67.48-82.53,62.73-204.35-14.27-281.34s-198.85-81.8-281.39-14.32ZM134.66,164.86C67.23,247.41,72,369.27,149,446.25S347.78,528,430.32,460.52Z"/></svg>