<svg xmlns="http://www.w3.org/2000/svg" viewBox="0 0 595.28 850.36"><defs><style>.a{fill:#e5e8eb;}.a,.b,.c{fill-rule:evenodd;}.b{fill:#000100;}.c{fill:#ad1922;}</style></defs><title>P025_C</title><polyline class="a" points="0 850.36 595.28 850.36 595.28 0 0 0 0 850.36"/><path class="b" d="M447.26,392.21H387.12V381.48h60.14v10.73ZM252,186.17a17.58,17.58,0,1,0,17.58-17.58A17.56,17.56,0,0,0,252,186.17Zm-21,210.76,8.17-15.44H320l0.58,2.77h0a9.94,9.94,0,0,0,9.78,8h-13.7v-3h-9v3H290.45l4.2,29.23h13v63l4.5-.31,4.47-.39V421.46h61.49v45l4.52-2.22,4.46-2.34V421.46h50.69a188.9,188.9,0,0,0,18.49-24.81l2.67-4.42h-2.71V381.49h8.52L467,377l2-4.54H456.27v-174l-2.89-4.45-3-4.39-3.12-4.27V372.51H387.14V154.9h31.4l-3.75-3.08-3.83-3-3.9-2.89H387.14V133.35L382.68,131l-4.52-2.23v17.13H188l-3.9,2.89-3.83,3-3.75,3.08h0.18V372.51H126l2,4.54,2.19,4.44h46.42v10.74H136.06l2.68,4.42a190.87,190.87,0,0,0,18.47,24.81h19.48v19.07l4.42,3.64,4.57,3.5v-26.2h8.88V453.9l4.47,2.86,4.54,2.71v-38H228l-2.82-19.62A9.91,9.91,0,0,0,231.08,396.93Zm-36.54-4.72h-8.88V381.47h8.88v10.74Zm0-19.72h-8.88V154.88h8.88V372.49Zm18.76,15a9,9,0,0,0-1.09,3.55l-0.08,1.12h-8.56V381.46H216.5ZM244,372.47L256.87,348a10,10,0,0,0,1-2.57l11.56-54.12h0l0.16-1,0.07-1.15a10.09,10.09,0,0,0,3.47,7.63L309.91,333l8.19,39.45H244Zm134.17,19.77H330.35a10,10,0,0,0,9.51-6.73,8.26,8.26,0,0,0,.56-3.3l0-.71h37.73v10.74Zm0-19.77H338.69L329,325.93a10.07,10.07,0,0,0-2.79-5.13l-36.47-35.89V232.06l19.39,25.64a8.85,8.85,0,0,0,3.43,2.71l39.89,18c10.71,4.84,17.92-11.23,7.23-16.06l-37.87-17.11-24.78-32.71a9.27,9.27,0,0,0-7.3-3.86H249.53a8.8,8.8,0,0,0-6.47,2.82l-29.44,32a9.19,9.19,0,0,0-2.55,6.18v43.77c0,11.74,17.61,11.74,17.61,0V253.11l20.85-22.64V288.1l-11.11,51.84-17.18,32.53H203.56V154.87H378.16V372.47Z"/><path class="b" d="M144.55,625.13l6.91-22,6.63,22H144.55Zm306.64,22.75-0.07,8,6.84-.07c6.26,0,9.29-3,9.29-9.65l-0.07-38.88h-9.79l-0.07,34.63c0,5.18-1.51,6-3.89,6h-2.23Zm6.12-46.15h9.93L467.17,593h-9.86v8.78ZM419.58,628.3l27.21,0.07c0-10.87-5-22.39-18.58-22.39-14,0-18.43,11.16-18.43,19.51,0,12.17,8.07,19.73,18.36,19.73s16.49-5.54,18-11.95l-9.93-.65c-1.87,3.38-4.46,4.75-7.63,4.75C423.9,637.37,420.09,634.21,419.58,628.3Zm0.43-7.13a8.37,8.37,0,0,1,8-7.49c4,0,7.49,2.73,8.14,7.49H420Zm-57.09,19,0.36,3.74h9.79V593h-9.93v18.51c-1.73-2.88-5.91-5.33-10.58-5.33-8.14,0-16.27,6.84-16.27,19.66a21.42,21.42,0,0,0,4.75,14,13.89,13.89,0,0,0,11.16,5.33A13.19,13.19,0,0,0,362.92,640.18Zm-7.78-3.53c-4.68,0-8.71-3.31-8.71-11.09,0-8.71,4.25-11.81,8.28-11.81s8.35,3.1,8.35,11.52C363.06,633.34,358.82,636.58,355.14,636.65Zm-58.53,7.27h9.79l0.07-20.52c0-2.88.58-4.25,1.36-5.4a7.4,7.4,0,0,1,6-3.1c3.38,0,5.91,2.23,5.91,6.34l-0.07,22.68h9.87V618.08c0-6.84-5-12.1-12.6-12.1-5.25,0-8.93,2.81-10.22,5.69l-0.36-4.32-9.65-.07Zm-18.29-4.18a13,13,0,0,0,1.29,4.18h9.93c-0.58-.5-1.51-2.16-1.51-5.18L287.9,620a18.58,18.58,0,0,0-.51-5c-1.51-5-5.61-9.07-15.55-9.07-11.38,0-15.91,5.83-15.91,12.24l8.71,0.14c0.36-2.45.72-3,1.51-3.67S269,613,271.92,613c4.61,0,6.33,2.45,6.33,4.18s-1.08,3-3.74,3.46l-9.94,1.73c-7.42,1.3-10.87,6.12-10.87,10.95,0,6.33,4.9,11.74,13.75,11.74C273.57,645,277,642.56,278.32,639.75Zm0-15.34v5.47c-0.29,4.61-3.38,7.77-8.71,7.77-4.18,0-6.12-2.45-6.12-4.61,0-1.73.86-4,6.7-5.4l4.25-1.15A8.09,8.09,0,0,0,278.32,624.41Zm-5.9-21.53,9.94,0.07V593h-9.86Zm-12.82,0h9.86l0.07-10h-9.86Zm-29.74,41h9.72l12.53-36.64h-10l-7.35,24.12-7.27-24h-10Zm-50,0h9.86l0.07-20.52c0-2.88.58-4.25,1.37-5.4a7.4,7.4,0,0,1,6-3.1c3.38,0,5.9,2.23,5.9,6.34l-0.07,22.68h9.86V618.08c0-6.84-5-12.1-12.6-12.1-5.25,0-8.93,2.81-10.22,5.69l-0.36-4.32-9.72-.07Zm-52,0h10.73L142,633.2h18.5l3.24,10.73h10.8l-17.42-51h-11.3Z"/><path class="b" d="M98.32,688.82h9.86V680H98.32v8.78Zm387.27,38a11.55,11.55,0,0,0,1.22,4.18h10a6.17,6.17,0,0,1-1.66-3.81V707.1c0-8.78-4.54-14-16.49-14-11.09,0-15.7,6.05-15.48,12.24l8.71,0.14c0-2.73,2-5.33,7.06-5.33,4.82,0,6.48,2.38,6.48,4.1,0,1.51-.94,2.88-3.6,3.39l-5.69.93c-8.06,1.44-10.23,3-11.81,4.32A10.14,10.14,0,0,0,461,720.5c0,6,4.75,11.52,14,11.52C480.41,732,483.51,730.22,485.6,726.83Zm0.07-15.12-0.07,4.61c0,5.18-3.24,8.42-8.85,8.42-4.11,0-6.12-2.45-6.12-4.68,0-1.73.65-3.67,6.84-5.4l4.25-1.15A12.13,12.13,0,0,0,485.67,711.71Zm-31,19.29v-7.56H451a3.66,3.66,0,0,1-2.81-1.37c-0.21-.29-0.5-0.86-0.5-2.88V701.06h6.62v-6.7h-6.62l-0.07-11.59h-9.79v11.59h-5.11v6.77l5.18-.07L437.86,720c0,8.28,3.46,11,8.86,11h8Zm-27.29,0v-7.56h-3.67a3.66,3.66,0,0,1-2.81-1.37c-0.22-.29-0.51-0.86-0.51-2.88V701.06h6.63v-6.7h-6.63l-0.07-11.59h-9.79v11.59h-5.11v6.77l5.18-.07L410.58,720c0,8.28,3.45,11,8.85,11h8Zm-53.56-15.62,27.22,0.07c0-10.87-4.9-22.39-18.58-22.39-14,0-18.36,11.16-18.36,19.51,0,12.17,8.06,19.73,18.29,19.73s16.49-5.54,18-12l-9.94-.65c-1.87,3.39-4.39,4.75-7.63,4.75C378.18,724.45,374.36,721.29,373.86,715.38Zm0.43-7.13a8.38,8.38,0,0,1,8.07-7.49c4,0,7.42,2.73,8.13,7.49h-16.2ZM347.36,731h9.86V680h-9.8Zm-33.91-4.25c2.09,3.38,5.76,5.47,10.73,5.47,10,0,16.2-9.29,16.2-19.73,0-10-6-19.3-16.06-19.3a13.12,13.12,0,0,0-10.58,5l-0.51-3.74-9.65.07V743h9.86v-16.2Zm8.85-2.09c-4.75,0-8.78-3.17-8.78-11.09,0-8.85,4.32-11.95,8.35-11.95s8.5,3.31,8.5,11.45C330.37,718.48,328.07,724.6,322.31,724.67Zm-80,6.33h9.86V709.84c0-5.26,3-7.92,6.91-7.92A4.89,4.89,0,0,1,264,705c0.21,0.36.43,1.15,0.43,4v22h9.79V709.26c0-4.75,3-7.49,6.84-7.49,3.31,0,5.54,2,5.54,6.33V731h9.72l-0.07-25.7c-0.22-7.7-5-12.1-11.74-12.1a12.23,12.23,0,0,0-11.23,6.41,11.87,11.87,0,0,0-10.8-6.41c-5,0-8.28,2.16-10.22,5.83l-0.36-4.61-9.5-.07Zm-26.2,1.37c11.09,0,19.22-7.85,19.22-19.8,0-11.59-8-19.58-19.36-19.58-11.09,0-19.15,7.92-19.15,19.51C196.81,724.6,205,732.37,216.11,732.37Zm-0.07-7.7c-4.68,0-9.22-3.6-9.22-11.74,0-8.78,4.39-12.24,9.22-12.24s9.22,3.53,9.22,11.88C225.25,721.14,220.86,724.67,216,724.67ZM156.28,731h9.86V719l4.1-4.1L180.33,731h12.1l-15.12-22.53,13.17-14.11H178.82l-12.67,14L166.07,680h-9.79v51Zm-40.46,0h9.86V710.49c0-2.88.58-4.25,1.37-5.4a7.63,7.63,0,0,1,6-3.1c3.38,0,5.83,2.23,5.83,6.34V731h9.79V705.16c0-6.84-5-12.1-12.6-12.1-5.26,0-8.93,2.81-10.15,5.69l-0.43-4.32-9.65-.07Zm-17.49,0h9.79V694.36H98.32V731Z"/><path class="b" d="M92.28,810.79c-4.11,0-8.35-3.24-8.35-11.45s4.32-11.45,8.28-11.45c4.39,0,8.5,3.1,8.5,11.6C100.7,807.55,96.52,810.79,92.28,810.79Zm393.9,9.36c0.51,3.45,1.51,5.4,3.6,7.34,2.23,2.16,6.33,4.18,13.47,4.18,7.92,0,13-3,15.48-6.12,1.66-2.23,2.59-4.25,2.59-9.72l-0.07-34.34h-9.43L511.52,786c-0.72-1.15-2.66-5.76-10.8-5.76-8.92,0-16.63,7.06-16.63,18.36S491.86,817,500.57,817c5.83,0,9.51-2.66,10.87-5.47v4c0,6.19-2.81,8.78-8.5,8.78-4.25,0-6.26-2.16-6.62-4.46Zm16.78-11.67c-4.82,0-8.85-3.46-8.85-10.22,0-5.91,4.1-9.65,8.57-9.65s8.64,3.74,8.64,9.94S507.12,808.49,502.95,808.49Zm-58.6,9.65h9.86l0.07-20.52c0-2.88.58-4.25,1.37-5.4a7.39,7.39,0,0,1,6-3.1c3.39,0,5.91,2.23,5.91,6.34l-0.07,22.68h9.87V792.29c0-6.84-5-12.1-12.6-12.1-5.26,0-8.93,2.81-10.23,5.69l-0.43-4.32-9.65-.07Zm-17.5,0h9.86V781.49h-9.86v36.64Zm0.07-42.19h9.86v-8.78h-9.86v8.78Zm-40.54,42.19h9.86l0.07-20.52c0-2.88.58-4.25,1.37-5.4a7.41,7.41,0,0,1,6-3.1c3.38,0,5.91,2.23,5.91,6.34l-0.07,22.68h9.86V792.29c0-6.84-5-12.1-12.6-12.1-5.25,0-8.93,2.81-10.22,5.69l-0.43-4.32-9.65-.07Zm-17.49,0h9.86v-51H369Zm-17.49,0h9.86v-51h-9.79ZM333.83,814a13,13,0,0,0,1.29,4.18h9.94c-0.58-.5-1.51-2.16-1.51-5.18l-0.14-18.72a18.74,18.74,0,0,0-.51-5c-1.51-5-5.61-9.07-15.55-9.07-11.45,0-15.91,5.83-15.91,12.24l8.71,0.14c0.36-2.45.72-3,1.51-3.67s2.81-1.73,5.76-1.73c4.61,0,6.33,2.45,6.33,4.18s-1.08,3-3.74,3.46l-9.94,1.73c-7.42,1.3-10.87,6.12-10.87,10.95,0,6.33,4.9,11.74,13.75,11.74C329.08,819.22,332.39,816.77,333.83,814Zm0-15.34v5.47c-0.29,4.61-3.38,7.77-8.71,7.77-4.18,0-6.12-2.45-6.12-4.61,0-1.73.86-4,6.7-5.4l4.25-1.15A8.09,8.09,0,0,0,333.83,798.62Zm-5.9-21.53,9.86,0.07,0.07-10H328Zm-12.82,0H325l0.07-10h-9.94v10Zm-11,41v-7.56h-3.67a3.43,3.43,0,0,1-2.81-1.37c-0.22-.29-0.51-0.86-0.51-2.88V788.19h6.62v-6.7h-6.55l-0.07-11.59h-9.79v11.59h-5.18v6.77l5.18-.07v18.93c0,8.28,3.38,11,8.85,11h7.92Zm-61.48-12.24c0.21,6.91,6,13.54,17.28,13.54s16.42-6.12,16.42-12.67a10.35,10.35,0,0,0-2.23-6.41c-1.37-1.73-3.17-3-7.49-4l-10.51-2.45c-2.23-.58-3.17-1.94-3.17-3.24S254.27,787,259,787c5.26,0,7.56,2.73,7.63,5.69l8.64-.14a12.78,12.78,0,0,0-5.26-9.65c-2.09-1.51-5.55-2.81-10.87-2.81-10.51,0-15.19,5.69-15.19,12a9.41,9.41,0,0,0,2.52,6.91c1.3,1.37,3,2.52,7,3.39l8,1.8c4.61,1,5.18,2.45,5.18,4.17s-1.59,4.11-7,4.11c-5.18,0-7.78-2.74-8.14-6.55Zm-42,14.26c0.5,3.45,1.51,5.4,3.6,7.34,2.23,2.16,6.33,4.18,13.46,4.18,7.92,0,13-3,15.48-6.12,1.66-2.23,2.59-4.25,2.59-9.72l-0.07-34.34h-9.43L226,786c-0.72-1.15-2.66-5.76-10.8-5.76-8.93,0-16.63,7.06-16.63,18.36S206.32,817,215,817c5.83,0,9.5-2.66,10.87-5.47v4c0,6.19-2.81,8.78-8.5,8.78-4.25,0-6.26-2.16-6.62-4.46Zm16.77-11.67c-4.83,0-8.85-3.46-8.85-10.22,0-5.91,4.1-9.65,8.57-9.65s8.64,3.74,8.64,9.94S221.58,808.49,217.41,808.49Zm-60.84,11.67c0.51,3.45,1.51,5.4,3.6,7.34,2.23,2.16,6.33,4.18,13.46,4.18,7.92,0,13-3,15.48-6.12,1.66-2.23,2.59-4.25,2.59-9.72l-0.07-34.34H182.2L181.91,786c-0.72-1.15-2.66-5.76-10.8-5.76-8.93,0-16.63,7.06-16.63,18.36S162.26,817,171,817c5.83,0,9.5-2.66,10.87-5.47v4c0,6.19-2.81,8.78-8.5,8.78-4.25,0-6.26-2.16-6.62-4.46Zm16.77-11.67c-4.82,0-8.85-3.46-8.85-10.22,0-5.91,4.1-9.65,8.57-9.65s8.64,3.74,8.64,9.94S177.52,808.49,173.34,808.49ZM118.7,822.31V830H126c8.57,0,10.58-6.77,11.37-9l14-39.53H140.8l-7.27,22.68-7.7-22.68H115.17l11.37,30.89a13.7,13.7,0,0,1,.94,5c0,3-1.59,5-5.9,4.9H118.7Zm-44.78-4.18h9.72l0.58-3.74a12.62,12.62,0,0,0,10.51,4.9c8.06,0,16.06-6.62,16.06-19.58,0-12.6-8.06-19.44-16-19.44-5.26,0-9,2.3-10.95,5.47V767.16H73.92v51Z"/><path class="c" d="M35.39,297.63c0,144.79,117.43,262.21,262.21,262.21S559.75,442.41,559.75,297.63,442.39,35.48,297.6,35.48,35.39,152.84,35.39,297.63Zm425,132.81c67.48-82.53,62.73-204.35-14.27-281.34s-198.85-81.8-281.39-14.32ZM134.66,164.86C67.22,247.41,72,369.27,149,446.25S347.78,528,430.32,460.52Z"/></svg>