<svg xmlns="http://www.w3.org/2000/svg" viewBox="0 0 595.28 850.36"><defs><style>.a{fill:#e5e8eb;}.a,.b,.c{fill-rule:evenodd;}.b{fill:#000100;}.c{fill:#ad1922;}</style></defs><title>P026_C</title><polyline class="a" points="0 850.36 595.28 850.36 595.28 0 0 0 0 850.36"/><path class="b" d="M170.79,384.68l-10.57-42.63,1.86-.27a13.76,13.76,0,0,0,3.67-.85c33.23-17.18,31.53,11.84,60.93-3a20.3,20.3,0,0,1,5.32-1.82c13.52-2.6,16,1.94,27,5.33a18.07,18.07,0,0,0,3.7.65c14.05,1.3,16.45-6.37,28.91-6.72,3.13-.09,6.58-0.18,9.27,1.21,33.1,17.19,31.42-11.77,60.89,3a21.46,21.46,0,0,0,5.35,1.83c13.26,2.7,16.2-2,27-5.33a18.06,18.06,0,0,1,3.71-.62c14.21-1.32,16.75,6.63,29.44,6.72a23.82,23.82,0,0,0,5.85-.5l1.91-.46-10.79,43.47a15,15,0,0,1-14.54,11.41H185.33A15,15,0,0,1,170.79,384.68Zm53.7,31.61h146l9.22,32.14h21.83l-9.22-32.14h17.36a35.17,35.17,0,0,0,34.17-26.73l21.38-86.21H444.41L439.54,323,436,324.35V185.69A20.77,20.77,0,0,0,400.51,171l-8.89,8.88-16.72-7.16L367.66,180l34.47,34.42,7.24-7.21-7.14-16.69,8.84-8.89a5.81,5.81,0,0,1,9.93,4.09V324.81l-1.75-.5a18.61,18.61,0,0,1-3.43-1.33c-28.34-14.55-29.14,13.56-59.09-2.37a16.09,16.09,0,0,0-5.42-1.47c-12.54-1.75-15,2.66-25.22,5.7a19,19,0,0,1-3.71.61c-13.32,1.24-15.81-5.43-27-6.55-3.75-.37-7.61-0.36-11.13,1.08-9.88,4-13.61,7.14-25.22,4.85a13.64,13.64,0,0,1-3.58-1.11c-9.45-4.83-16.57-6.8-27-3.13-2.36.83-4.46,2.29-6.83,3.13-10.39,3.65-17.6,1.73-27-3.13a13.41,13.41,0,0,0-3.59-1.1c-13.52-2.71-16.23,2.11-27.24,5.37a18.6,18.6,0,0,1-5.72.73l-1.91,0-5.49-22.22H129.77l21.35,86.21a35.22,35.22,0,0,0,34.19,26.73h17.36l-9.24,32.14h21.82Z"/><path class="b" d="M347.51,261a6.09,6.09,0,0,0,12.19,0,6.09,6.09,0,1,0-12.19,0"/><path class="b" d="M277.45,221a6.09,6.09,0,0,0,12.19,0,6.09,6.09,0,1,0-12.19,0"/><path class="b" d="M355,298.62a6.09,6.09,0,0,0,12.19,0,6.09,6.09,0,1,0-12.19,0"/><path class="b" d="M335.55,279.18a6.09,6.09,0,0,0,12.19,0,6.09,6.09,0,1,0-12.19,0"/><path class="b" d="M318.56,204a6.09,6.09,0,0,0,12.19,0,6.09,6.09,0,1,0-12.19,0"/><path class="b" d="M345.28,230.72a6.09,6.09,0,0,0,12.19,0,6.09,6.09,0,1,0-12.19,0"/><path class="b" d="M372,257.44a6.09,6.09,0,0,0,12.19,0,6.09,6.09,0,1,0-12.19,0"/><path class="b" d="M315,228.56a6.09,6.09,0,0,0,12.19,0,6.09,6.09,0,1,0-12.19,0"/><path class="b" d="M331.3,244.76a6.1,6.1,0,0,0,12.19,0,6.1,6.1,0,1,0-12.19,0"/><path class="b" d="M363.85,277.23a6.09,6.09,0,0,0,12.19,0,6.09,6.09,0,1,0-12.19,0"/><path class="b" d="M296.82,240.44a6.1,6.1,0,0,0,12.19,0,6.1,6.1,0,1,0-12.19,0"/><path class="b" d="M316.12,259.88a6.09,6.09,0,0,0,12.19,0,6.09,6.09,0,1,0-12.19,0"/><path class="b" d="M379.62,238.93a6.09,6.09,0,0,0,12.19,0,6.09,6.09,0,1,0-12.19,0"/><path class="b" d="M332,217.4a6.09,6.09,0,0,0,12.19,0,6.09,6.09,0,1,0-12.19,0"/><path class="b" d="M358.59,244a6.09,6.09,0,0,0,12.19,0,6.09,6.09,0,1,0-12.19,0"/><path class="b" d="M298.76,212.15a6.1,6.1,0,0,0,12.19,0,6.1,6.1,0,1,0-12.19,0"/><path class="b" d="M386.75,221.79a6.09,6.09,0,0,0,12.19,0,6.09,6.09,0,1,0-12.19,0"/><path class="b" d="M375.94,210.92a6.1,6.1,0,0,0,12.19,0,6.1,6.1,0,1,0-12.19,0"/><path class="b" d="M365.07,200.05a6.1,6.1,0,0,0,12.19,0,6.1,6.1,0,1,0-12.19,0"/><path class="b" d="M354.2,189.25a6.09,6.09,0,0,0,12.19,0,6.09,6.09,0,1,0-12.19,0"/><path class="b" d="M368.82,228.28a6.09,6.09,0,0,0,12.19,0,6.09,6.09,0,1,0-12.19,0"/><path class="b" d="M358.31,217.62a6.09,6.09,0,0,0,12.19,0,6.09,6.09,0,1,0-12.19,0"/><path class="b" d="M347.79,207.11a6.09,6.09,0,0,0,12.19,0,6.09,6.09,0,1,0-12.19,0"/><path class="b" d="M337.07,196.31a6.09,6.09,0,0,0,12.19,0,6.09,6.09,0,1,0-12.19,0"/><path class="b" d="M100.78,625.14l6.91-22,6.62,22H100.78Zm400.38,18.79H511V607.28h-9.79Zm0.07-42.19h9.87V593h-9.87v8.78Zm-53.57,46.15-0.07,8,6.84-.07c6.26,0,9.29-3,9.29-9.65l-0.07-38.88h-9.79l-0.07,34.63c0,5.18-1.51,6-3.89,6h-2.23Zm6.12-46.15h9.93L463.65,593h-9.86v8.78ZM416.06,628.3l27.21,0.07c0-10.87-5-22.39-18.57-22.39-14,0-18.43,11.16-18.43,19.51,0,12.17,8.06,19.73,18.36,19.73s16.49-5.54,18-11.95l-9.93-.65c-1.87,3.38-4.46,4.75-7.63,4.75C420.38,637.37,416.56,634.21,416.06,628.3Zm0.43-7.13a8.37,8.37,0,0,1,8-7.49c4,0,7.49,2.73,8.14,7.49H416.49Zm-80.28,10.51c0.22,6.91,6,13.53,17.28,13.53s16.41-6.12,16.41-12.67a10.32,10.32,0,0,0-2.23-6.41c-1.37-1.73-3.17-3-7.49-4l-10.51-2.45c-2.23-.58-3.17-1.94-3.17-3.24s1.37-3.67,6.12-3.67c5.25,0,7.56,2.73,7.63,5.69l8.64-.14a12.77,12.77,0,0,0-5.26-9.65c-2.08-1.51-5.47-2.81-10.87-2.81-10.51,0-15.19,5.69-15.19,12a9.7,9.7,0,0,0,2.52,6.91c1.29,1.37,3,2.52,7.05,3.39l7.92,1.8c4.61,1,5.18,2.45,5.18,4.18s-1.58,4.1-7,4.1c-5.18,0-7.77-2.74-8.07-6.55Zm-17.06,8.49,0.36,3.74h9.79V593h-9.94v18.51c-1.73-2.88-5.9-5.33-10.58-5.33-8.13,0-16.2,6.84-16.2,19.66a21.42,21.42,0,0,0,4.75,14,13.66,13.66,0,0,0,11.09,5.33A13.19,13.19,0,0,0,319.15,640.18Zm-7.78-3.53c-4.68,0-8.71-3.31-8.71-11.09,0-8.71,4.25-11.81,8.28-11.81s8.35,3.1,8.35,11.52C319.29,633.34,315,636.58,311.37,636.65Zm-58.53,7.27h9.86l0.07-20.52c0-2.88.58-4.25,1.37-5.4a7.39,7.39,0,0,1,6-3.1c3.38,0,5.9,2.23,5.9,6.34l-0.07,22.68h9.87V618.08c0-6.84-5-12.1-12.6-12.1-5.26,0-8.93,2.81-10.23,5.69l-0.36-4.32-9.72-.07Zm-18.29-4.18a12.79,12.79,0,0,0,1.29,4.18h9.94c-0.58-.5-1.51-2.16-1.51-5.18L244.13,620a18.63,18.63,0,0,0-.5-5c-1.51-5-5.61-9.07-15.55-9.07-11.37,0-15.91,5.83-15.91,12.24l8.71,0.14c0.36-2.45.72-3,1.51-3.67s2.81-1.73,5.76-1.73c4.61,0,6.33,2.45,6.33,4.18s-1.08,3-3.75,3.46l-9.93,1.73c-7.42,1.3-10.87,6.12-10.87,10.95,0,6.33,4.9,11.74,13.75,11.74C229.8,645,233.18,642.56,234.55,639.75Zm0-15.34v5.47c-0.29,4.61-3.38,7.77-8.71,7.77-4.18,0-6.12-2.45-6.12-4.61,0-1.73.86-4,6.69-5.4l4.25-1.15A8.09,8.09,0,0,0,234.55,624.41Zm-5.91-21.53,9.94,0.07V593h-9.87Zm-12.81,0h9.86l0.07-10H215.9Zm-29.73,41h9.72l12.53-36.64h-10L191,631.4l-7.27-24h-10Zm-50,0h9.86L146,623.4c0-2.88.58-4.25,1.37-5.4a7.39,7.39,0,0,1,6-3.1c3.38,0,5.9,2.23,5.9,6.34l-0.07,22.68H169V618.08c0-6.84-5-12.1-12.6-12.1-5.25,0-8.93,2.81-10.22,5.69l-0.36-4.32-9.72-.07Zm-52,0H94.8l3.38-10.73h18.5l3.24,10.73h10.8l-17.42-51H102Z"/><path class="b" d="M72.76,723.67c-4.1,0-8.35-3.24-8.35-11.45s4.25-11.45,8.28-11.45c4.39,0,8.42,3.1,8.42,11.59C81.12,720.42,76.94,723.67,72.76,723.67ZM507.92,731h9.8l0.07-20.16c0-6,3.24-8.78,7.34-8.78,3.45,0,5.9,2,5.9,6.62L531,731h9.87V705.74c0-4.46-1.51-7.49-3.89-9.57a13.8,13.8,0,0,0-8.57-3.1c-5.33,0-9,2.52-10.65,5.91V680h-9.8v51Zm-16.27-13.32c-0.58,2.88-1.37,4-2.81,5.11a7.86,7.86,0,0,1-4.83,1.51c-4.39,0-8.5-3.17-8.5-11.37,0-9,4.32-12.31,8.86-12.31a7.18,7.18,0,0,1,7.05,6.26l9.5-.5c-0.86-7.63-6.77-13.54-16.77-13.54-7.2,0-12.31,2.81-15.62,7.7a21.08,21.08,0,0,0-3.45,12.24c0,7.42,3,13,7.56,16.41a21.45,21.45,0,0,0,18.72,2.16c5.54-2,8.93-6.19,9.65-13.25Zm-66.74,1.08c0.14,6.91,6,13.54,17.21,13.54,11.45,0,16.49-6.12,16.49-12.67a10.42,10.42,0,0,0-2.3-6.41c-1.37-1.73-3.17-3-7.49-4l-10.51-2.45c-2.23-.58-3.1-1.94-3.1-3.24s1.3-3.67,6.12-3.67c5.18,0,7.49,2.74,7.56,5.69l8.71-.14a13,13,0,0,0-5.26-9.65c-2.16-1.51-5.54-2.81-10.87-2.81-10.58,0-15.26,5.69-15.26,12a9.45,9.45,0,0,0,2.59,6.91c1.29,1.36,2.88,2.52,7,3.38l7.92,1.8c4.61,1,5.18,2.45,5.18,4.18s-1.51,4.1-6.91,4.1c-5.18,0-7.85-2.74-8.13-6.55Zm-16.77,8.13,0.58,4.1H418l-0.07-36.57-9.72-.07v20.52c0,5.61-3.38,8.5-7.35,8.5-3.67,0-5.9-1.94-5.9-7.13V694.36h-9.86v25.2c0,4.83,1.37,7.42,3.6,9.5a13.11,13.11,0,0,0,9.15,3.17A11.7,11.7,0,0,0,408.13,726.9Zm-40.75.36,0.43,3.74h9.79l-0.07-51h-9.86v18.51c-1.8-2.88-5.91-5.33-10.58-5.33-8.21,0-16.27,6.84-16.27,19.66,0,5.83,1.8,10.66,4.75,14a13.79,13.79,0,0,0,11.16,5.33A13.05,13.05,0,0,0,367.38,727.26Zm-7.78-3.53c-4.61,0-8.71-3.31-8.71-11.09,0-8.71,4.25-11.81,8.35-11.81s8.28,3.1,8.28,11.52C367.52,720.42,363.27,723.67,359.6,723.74Zm-66,7.27h5.62a8.88,8.88,0,0,1-5.62,8.71v3.53a13.28,13.28,0,0,0,8-5,12.16,12.16,0,0,0,2.45-8v-9.36H293.65V731ZM267,731h9.86V714.74c0-5.47,1.37-8,3-9.72a8.73,8.73,0,0,1,6.7-2.88,12,12,0,0,1,1.66.14l0.07-8.71a14.72,14.72,0,0,0-2.09-.21A9.45,9.45,0,0,0,277,699.9l-0.29-5.54H267V731Zm-18.36-4.18a11.53,11.53,0,0,0,1.22,4.18h10a6.18,6.18,0,0,1-1.66-3.81l0.07-20.09c0-8.78-4.61-14-16.56-14-11.09,0-15.7,6.05-15.48,12.24l8.71,0.14c0-2.73,2.09-5.33,7.06-5.33s6.48,2.38,6.48,4.1c0,1.51-.94,2.88-3.6,3.39l-5.61.93c-8.13,1.44-10.3,3-11.81,4.32a10,10,0,0,0-3.39,7.63c0,6,4.75,11.52,14,11.52C243.47,732,246.57,730.22,248.66,726.83Zm0.07-15.12-0.07,4.61c0,5.18-3.24,8.42-8.85,8.42-4.11,0-6.05-2.45-6.05-4.68,0-1.73.58-3.67,6.77-5.4l4.25-1.15A12.12,12.12,0,0,0,248.73,711.71ZM182.42,731h9.86V719l4.11-4.1L206.47,731h12.1l-15.12-22.53,13.18-14.11H205l-12.67,14L192.21,680h-9.79v51Zm-17.86-3.74L165,731h9.79l-0.07-51h-9.86v18.51c-1.8-2.88-5.9-5.33-10.59-5.33-8.21,0-16.27,6.84-16.27,19.66,0,5.83,1.8,10.66,4.75,14a13.79,13.79,0,0,0,11.16,5.33A13.06,13.06,0,0,0,164.56,727.26Zm-7.78-3.53c-4.61,0-8.71-3.31-8.71-11.09,0-8.71,4.25-11.81,8.35-11.81s8.28,3.1,8.28,11.52C164.71,720.42,160.46,723.67,156.79,723.74Zm-35.71,3.1A11.53,11.53,0,0,0,122.3,731h10a6.18,6.18,0,0,1-1.66-3.81l0.07-20.09c0-8.78-4.61-14-16.56-14-11.09,0-15.7,6.05-15.48,12.24l8.71,0.14c0-2.73,2.09-5.33,7.06-5.33s6.48,2.38,6.48,4.1c0,1.51-.94,2.88-3.6,3.39l-5.61.93c-8.13,1.44-10.3,3-11.81,4.32a10,10,0,0,0-3.39,7.63c0,6,4.75,11.52,14,11.52C115.89,732,119,730.22,121.07,726.83Zm0.07-15.12-0.07,4.61c0,5.18-3.24,8.42-8.85,8.42-4.11,0-6.05-2.45-6.05-4.68,0-1.73.58-3.67,6.77-5.4l4.25-1.15A12.13,12.13,0,0,0,121.15,711.71ZM54.41,731h9.72l0.51-3.74a12.8,12.8,0,0,0,10.51,4.9c8.13,0,16.13-6.62,16.13-19.58,0-12.6-8.06-19.44-16.06-19.44-5.26,0-9,2.3-10.95,5.47V680H54.41v51Z"/><path class="b" d="M92.13,795.38a8.5,8.5,0,0,1,8.06-7.49c4,0,7.49,2.74,8.13,7.49H92.13Zm388.14,22.75h9.86l0.07-20.52c0-2.88.58-4.25,1.37-5.4a7.41,7.41,0,0,1,6-3.1c3.38,0,5.83,2.23,5.83,6.34v22.68h9.87V792.29c0-6.84-5-12.1-12.67-12.1-5.18,0-8.93,2.81-10.15,5.69L490,781.56l-9.65-.07Zm-34.13-15.62,27.22,0.07c0-10.87-5-22.39-18.57-22.39-14.11,0-18.43,11.16-18.43,19.51,0,12.17,8.06,19.73,18.29,19.73s16.56-5.54,18-11.95l-9.87-.65c-1.87,3.38-4.46,4.75-7.63,4.75C450.47,811.58,446.65,808.41,446.15,802.51Zm0.36-7.13a8.5,8.5,0,0,1,8.06-7.49c4,0,7.49,2.74,8.14,7.49H446.5Zm-15.26,22.75v-7.56h-3.67a3.65,3.65,0,0,1-2.81-1.37c-0.22-.29-0.51-0.86-0.51-2.88V788.19H431v-6.7h-6.62l-0.07-11.59h-9.79v11.59h-5.18v6.77l5.18-.07v18.93c0,8.28,3.38,11,8.85,11h7.92Zm-27.28,0v-7.56h-3.67a3.66,3.66,0,0,1-2.81-1.37c-0.21-.29-0.5-0.86-0.5-2.88V788.19h6.7v-6.7H397L397,769.9h-9.79v11.59H382v6.77l5.18-.07v18.93c0,8.28,3.39,11,8.86,11H404ZM366.3,814a10.31,10.31,0,0,0,1.15,4.18h10.08a5.47,5.47,0,0,1-1.65-3.81V794.23c0-8.78-4.54-14-16.49-14-11.09,0-15.69,6.05-15.48,12.24l8.64,0.14c0-2.74,2.09-5.33,7.13-5.33,4.83,0,6.41,2.38,6.41,4.1,0,1.51-.93,2.88-3.6,3.38l-5.62.94c-8.13,1.44-10.29,3-11.8,4.32a10.19,10.19,0,0,0-3.38,7.63c0,6,4.75,11.52,14,11.52C361,819.14,364.21,817.34,366.3,814Zm0-15.12v4.61c0,5.18-3.24,8.42-8.86,8.42-4.17,0-6.12-2.45-6.12-4.68,0-1.73.58-3.67,6.77-5.4l4.25-1.15A11.45,11.45,0,0,0,366.3,798.84Zm-48.53,19.29h9.79l12.53-36.64h-10l-7.34,24.12-7.27-24h-10Zm-57.24,0h9.86V781.49h-9.86v36.64Zm0.07-42.19h9.79v-8.78h-9.79v8.78Zm-56.52,42.19H214V801.87c0-5.47,1.37-8,3-9.72a8.62,8.62,0,0,1,6.7-2.88,14.5,14.5,0,0,1,1.66.14V780.7a12.17,12.17,0,0,0-2.09-.22A9.52,9.52,0,0,0,214.1,787l-0.29-5.54h-9.65ZM170,802.51l27.22,0.07c0-10.87-5-22.39-18.58-22.39-14.11,0-18.43,11.16-18.43,19.51,0,12.17,8.06,19.73,18.29,19.73s16.56-5.54,18-11.95l-9.86-.65c-1.87,3.38-4.46,4.75-7.63,4.75C174.28,811.58,170.47,808.41,170,802.51Zm0.36-7.13a8.5,8.5,0,0,1,8.06-7.49c4,0,7.49,2.74,8.13,7.49h-16.2Zm-26.93,22.75h9.86v-51h-9.79Zm-17.49,0h9.86v-51H126ZM91.77,802.51L119,802.59c0-10.87-5-22.39-18.57-22.39C86.3,780.19,82,791.35,82,799.7c0,12.17,8.06,19.73,18.29,19.73s16.56-5.54,18-11.95l-9.87-.65c-1.87,3.38-4.46,4.75-7.63,4.75C96.09,811.58,92.28,808.41,91.77,802.51Z"/><path class="c" d="M35.39,297.63c0,144.79,117.43,262.21,262.22,262.21S559.75,442.41,559.75,297.63,442.39,35.48,297.61,35.48,35.39,152.84,35.39,297.63Zm425,132.81c67.48-82.53,62.73-204.35-14.27-281.34s-198.85-81.8-281.39-14.32ZM134.66,164.86C67.23,247.41,72,369.27,149,446.25S347.78,528,430.32,460.52Z"/></svg>