<svg xmlns="http://www.w3.org/2000/svg" viewBox="0 0 595.28 850.36"><defs><style>.a{fill:#e5e8eb;}.a,.b,.c{fill-rule:evenodd;}.b{fill:#000100;}.c{fill:#ad1922;}</style></defs><title>P027_C</title><polyline class="a" points="0 850.36 595.28 850.36 595.28 0 0 0 0 850.36"/><polyline class="b" points="318.95 461.74 297.5 484.75 276.06 461.74 276.06 445.5 291.13 461.71 291.13 436.22 303.88 436.22 303.88 461.71 318.95 445.5 318.95 461.74"/><polyline class="b" points="318.95 133.52 297.5 110.5 276.06 133.52 276.06 149.76 291.13 133.58 291.13 159.05 303.88 159.05 303.88 133.58 318.95 149.76 318.95 133.52"/><path class="b" d="M207.62,413.75H387.4V181.53H207.62V413.75Zm194.78,15H192.62V166.53H402.4V428.71Z"/><path class="b" d="M312.63,225.22a23,23,0,0,1,22.95,23v63.23c0,10.54-15.8,10.54-15.8,0V249.69a1.4,1.4,0,1,0-2.79,0V397.21c0,12.05-18.08,12.05-18.08,0V308.05a1.39,1.39,0,0,0-2.78,0v89.15c0,12.05-18.08,12.05-18.08,0V249.69a1.39,1.39,0,1,0-2.79,0v61.77c0,10.52-15.71,10.38-15.72-.06l0-63.19a22.94,22.94,0,0,1,22.88-23h30.23"/><path class="b" d="M281.66,204.92a15.85,15.85,0,1,0,15.85-15.85,15.8,15.8,0,0,0-15.85,15.85"/><path class="b" d="M144.55,625.13l6.91-22,6.62,22H144.55Zm306.64,22.75-0.07,8,6.84-.07c6.26,0,9.29-3,9.29-9.65l-0.07-38.88h-9.79l-0.07,34.63c0,5.18-1.51,6-3.89,6h-2.23Zm6.12-46.15h9.94l-0.07-8.78h-9.86v8.78ZM419.58,628.3l27.22,0.07c0-10.87-5-22.39-18.58-22.39-14,0-18.43,11.16-18.43,19.51,0,12.17,8.06,19.73,18.36,19.73s16.49-5.54,18-11.95l-9.93-.65c-1.87,3.38-4.46,4.75-7.63,4.75C423.9,637.37,420.09,634.21,419.58,628.3Zm0.44-7.13a8.37,8.37,0,0,1,8-7.49c4,0,7.49,2.73,8.13,7.49H420Zm-57.09,19,0.36,3.74h9.79v-51h-9.94v18.51c-1.73-2.88-5.9-5.33-10.58-5.33-8.13,0-16.27,6.84-16.27,19.66a21.4,21.4,0,0,0,4.75,14,13.88,13.88,0,0,0,11.16,5.33A13.19,13.19,0,0,0,362.92,640.18Zm-7.78-3.53c-4.68,0-8.71-3.31-8.71-11.09,0-8.71,4.25-11.81,8.28-11.81s8.35,3.1,8.35,11.52C363.07,633.34,358.82,636.58,355.15,636.65Zm-58.53,7.27h9.79l0.07-20.52c0-2.88.58-4.25,1.37-5.4a7.39,7.39,0,0,1,6-3.1c3.38,0,5.9,2.23,5.9,6.34l-0.07,22.68h9.86V618.08c0-6.84-5-12.1-12.6-12.1-5.26,0-8.93,2.81-10.22,5.69l-0.36-4.32-9.65-.07Zm-18.29-4.18a12.77,12.77,0,0,0,1.29,4.18h9.93c-0.58-.5-1.51-2.16-1.51-5.18L287.9,620a18.69,18.69,0,0,0-.5-5c-1.51-5-5.62-9.07-15.55-9.07-11.37,0-15.91,5.83-15.91,12.24l8.71,0.14c0.36-2.45.72-3,1.51-3.67S269,613,271.92,613c4.61,0,6.33,2.45,6.33,4.18s-1.08,3-3.75,3.46l-9.93,1.73c-7.42,1.3-10.87,6.12-10.87,10.95,0,6.33,4.89,11.74,13.75,11.74C273.58,645,277,642.55,278.33,639.75Zm0-15.34v5.47c-0.29,4.61-3.39,7.77-8.71,7.77-4.18,0-6.12-2.45-6.12-4.61,0-1.73.87-4,6.7-5.4l4.25-1.15A8.1,8.1,0,0,0,278.33,624.41Zm-5.91-21.53,9.93,0.07v-10H272.5Zm-12.82,0h9.87l0.07-10h-9.87Zm-29.73,41h9.72l12.53-36.64h-10l-7.34,24.12-7.27-24h-10Zm-50,0h9.86l0.07-20.52c0-2.88.58-4.25,1.37-5.4a7.39,7.39,0,0,1,6-3.1c3.38,0,5.9,2.23,5.9,6.34l-0.07,22.68h9.86V618.08c0-6.84-5-12.1-12.6-12.1-5.26,0-8.93,2.81-10.22,5.69l-0.36-4.32-9.72-.07Zm-52,0h10.72L142,633.2h18.5l3.24,10.73h10.8l-17.42-51h-11.3Z"/><path class="b" d="M125.76,731h9.86V710.85c0-6,3.31-8.78,7.34-8.78,3.53,0,5.91,2,5.91,6.62V731h9.79V705.73c0-4.46-1.44-7.49-3.82-9.57a14.16,14.16,0,0,0-8.64-3.1c-5.33,0-8.92,2.52-10.65,5.91L135.62,680h-9.86v51Zm322.41,0H458l0.07-16.27c0-5.47,1.29-8,3-9.72a8.62,8.62,0,0,1,6.7-2.88,14.54,14.54,0,0,1,1.66.14l0.07-8.71a14.71,14.71,0,0,0-2.16-.21,9.51,9.51,0,0,0-9.14,6.55l-0.29-5.54h-9.65Zm-26.71,1.44c11.81,0,19.73-7.92,19.73-19.87,0-11.74-8-19.66-19.44-19.66-11.09,0-19.29,7.92-19.29,19.66C402.44,724.53,410.65,732.45,421.45,732.45Zm0.58-7.71c-5.11,0-9.5-3.67-9.5-12.17,0-8.21,4.39-11.95,9.43-11.95,4.75,0,9.14,3.31,9.14,12.24C431.1,721.5,426.42,724.74,422,724.74ZM423.39,690h9.87V680l-9.87-.07v10Zm-12.89,0h9.86V680l-9.86-.07v10Zm-29.45,41h9.86V700.91h7.13v-6.55h-7.13v-0.72c0-3.31.58-4.25,1.22-4.9,0.79-.86,1.87-1.51,4.32-1.44h1.59V680h-5.62c-3.31,0-12.31.58-11.37,14.33h-5.33v6.55h5.33V731ZM307,731h9.86l0.07-20.52c0-2.88.58-4.25,1.37-5.4a7.39,7.39,0,0,1,6-3.1c3.38,0,5.83,2.23,5.83,6.34V731h9.86V705.16c0-6.84-5-12.1-12.6-12.1-5.26,0-9,2.81-10.22,5.69l-0.43-4.32-9.65-.07Zm-34.06-15.62,27.15,0.07c0-10.87-4.9-22.39-18.51-22.39-14,0-18.43,11.16-18.43,19.51,0,12.17,8.06,19.73,18.29,19.73s16.49-5.54,17.93-12l-9.79-.65c-1.87,3.39-4.46,4.75-7.63,4.75C277.24,724.45,273.42,721.29,272.92,715.38Zm0.43-7.13a8.37,8.37,0,0,1,8-7.49c4,0,7.49,2.73,8.13,7.49H273.35ZM223,718.77c0.22,6.91,6,13.54,17.21,13.54,11.45,0,16.49-6.12,16.49-12.67a10.35,10.35,0,0,0-2.23-6.41c-1.37-1.73-3.17-3-7.49-4l-10.58-2.45c-2.16-.58-3.09-1.94-3.09-3.24s1.37-3.67,6.12-3.67c5.26,0,7.56,2.74,7.56,5.69l8.71-.14a12.77,12.77,0,0,0-5.25-9.65c-2.09-1.51-5.55-2.81-10.87-2.81-10.51,0-15.19,5.69-15.19,12a9.43,9.43,0,0,0,2.52,6.91c1.29,1.36,3,2.52,7,3.38l8,1.8c4.61,1,5.11,2.45,5.11,4.18s-1.51,4.1-6.91,4.1c-5.18,0-7.77-2.74-8.13-6.55Zm-40.24,0c0.22,6.91,6,13.54,17.21,13.54,11.45,0,16.49-6.12,16.49-12.67a10.33,10.33,0,0,0-2.23-6.41c-1.37-1.73-3.17-3-7.49-4l-10.59-2.45c-2.16-.58-3.09-1.94-3.09-3.24s1.37-3.67,6.12-3.67c5.25,0,7.56,2.74,7.56,5.69l8.71-.14a12.76,12.76,0,0,0-5.26-9.65c-2.08-1.51-5.54-2.81-10.87-2.81-10.51,0-15.19,5.69-15.19,12a9.41,9.41,0,0,0,2.52,6.91c1.29,1.36,3,2.52,7,3.38l8,1.8c4.61,1,5.11,2.45,5.11,4.18s-1.51,4.1-6.91,4.1c-5.18,0-7.78-2.74-8.13-6.55ZM165.93,731h9.86V694.36h-9.86V731ZM166,688.82h9.87V680H166v8.78Z"/><path class="b" d="M42,811.8c-4.75,0-8.78-3.17-8.78-11.09,0-8.85,4.39-11.95,8.43-11.95s8.49,3.31,8.49,11.45C50.16,805.61,47.86,811.73,42,811.8Zm530.12,6.33v-7.56h-3.67a3.66,3.66,0,0,1-2.81-1.37c-0.21-.29-0.5-0.86-0.5-2.88V788.18h6.7v-6.7h-6.63l-0.07-11.59h-9.87v11.59h-5.11v6.77l5.19-.07v18.93c0,8.28,3.38,11,8.78,11h8Zm-47.45,0h9.86V801.86c0-5.47,1.37-8,3-9.72a8.88,8.88,0,0,1,6.77-2.88,14.48,14.48,0,0,1,1.66.14V780.7a12.15,12.15,0,0,0-2.09-.22A9.52,9.52,0,0,0,534.7,787l-0.29-5.54h-9.65Zm-26.21,1.37c11.09,0,19.22-7.85,19.22-19.8,0-11.59-8-19.58-19.37-19.58-11,0-19.15,7.92-19.15,19.51C479.19,811.73,487.33,819.5,498.49,819.5Zm-0.07-7.7c-4.68,0-9.22-3.6-9.22-11.74,0-8.78,4.39-12.24,9.29-12.24s9.22,3.53,9.22,11.88C507.7,808.27,503.24,811.8,498.42,811.8Zm-52.34,2.09c2.09,3.38,5.76,5.47,10.8,5.47,10,0,16.2-9.29,16.2-19.73,0-10-6-19.3-16.13-19.3a13.11,13.11,0,0,0-10.58,5l-0.43-3.74-9.72.07v48.45h9.87v-16.2Zm8.85-2.09c-4.75,0-8.78-3.17-8.78-11.09,0-8.85,4.39-11.95,8.42-11.95s8.5,3.31,8.5,11.45C463.06,805.61,460.76,811.73,454.93,811.8Zm-59.69-5.91c0.15,6.91,6,13.54,17.21,13.54,11.45,0,16.49-6.12,16.49-12.67a10.4,10.4,0,0,0-2.31-6.41c-1.37-1.73-3.09-3-7.42-4l-10.58-2.45c-2.16-.58-3.1-1.94-3.1-3.24s1.3-3.67,6.12-3.67c5.26,0,7.56,2.73,7.56,5.69l8.71-.14a13,13,0,0,0-5.26-9.65c-2.16-1.51-5.55-2.81-10.87-2.81-10.58,0-15.19,5.69-15.19,12a9.41,9.41,0,0,0,2.52,6.91c1.3,1.37,2.88,2.52,7,3.39l7.92,1.8c4.68,1,5.18,2.45,5.18,4.17s-1.51,4.11-6.91,4.11c-5.18,0-7.85-2.74-8.14-6.55ZM355.5,818.13h9.86l0.07-20.52c0-2.88.58-4.25,1.37-5.4a7.4,7.4,0,0,1,6-3.1c3.38,0,5.83,2.23,5.83,6.34v22.68h9.87V792.29c0-6.84-5-12.1-12.67-12.1-5.25,0-8.93,2.81-10.15,5.69l-0.44-4.32-9.65-.07ZM337.21,814a10.32,10.32,0,0,0,1.15,4.18h10a6.18,6.18,0,0,1-1.66-3.81l0.07-20.09c0-8.78-4.61-14-16.49-14-11.09,0-15.69,6.05-15.55,12.24l8.71,0.14c0-2.74,2.09-5.33,7.13-5.33,4.83,0,6.41,2.38,6.41,4.1,0,1.51-.93,2.88-3.6,3.38l-5.61.94c-8.13,1.44-10.3,3-11.81,4.32a10.2,10.2,0,0,0-3.39,7.63c0,6,4.75,11.52,14,11.52C332,819.14,335.13,817.34,337.21,814Zm0-15.12v4.61c0,5.18-3.24,8.42-8.93,8.42-4.11,0-6-2.45-6-4.68,0-1.73.58-3.67,6.77-5.4l4.25-1.15A11.43,11.43,0,0,0,337.21,798.84Zm-47.45,19.29h9.79V801.86c0-5.47,1.37-8,3-9.72a8.88,8.88,0,0,1,6.77-2.88,14.66,14.66,0,0,1,1.66.14V780.7a12.22,12.22,0,0,0-2.09-.22A9.52,9.52,0,0,0,299.7,787l-0.29-5.54h-9.58Zm-7.27,0v-7.56h-3.67a3.66,3.66,0,0,1-2.81-1.37c-0.21-.29-0.5-0.86-0.5-2.88V788.18h6.7v-6.7h-6.63l-0.07-11.59h-9.86v11.59h-5.11v6.77l5.18-.07v18.93c0,8.28,3.38,11,8.78,11h8Zm-60.77,0h9.86l0.07-20.52c0-2.88.58-4.25,1.36-5.4a7.41,7.41,0,0,1,6-3.1c3.39,0,5.83,2.23,5.83,6.34v22.68h9.86V792.29c0-6.84-5-12.1-12.67-12.1-5.26,0-8.93,2.81-10.15,5.69l-0.43-4.32-9.65-.07Zm-26.21,1.37c11.09,0,19.22-7.85,19.22-19.8,0-11.59-8-19.58-19.36-19.58-11,0-19.15,7.92-19.15,19.51C176.23,811.73,184.36,819.5,195.52,819.5Zm-0.07-7.7c-4.68,0-9.22-3.6-9.22-11.74,0-8.78,4.39-12.24,9.29-12.24s9.22,3.53,9.22,11.88C204.74,808.27,200.28,811.8,195.45,811.8Zm-59.4-5.91c0.14,6.91,6,13.54,17.21,13.54,11.45,0,16.49-6.12,16.49-12.67a10.42,10.42,0,0,0-2.3-6.41c-1.37-1.73-3.1-3-7.42-4l-10.58-2.45c-2.16-.58-3.1-1.94-3.1-3.24s1.29-3.67,6.12-3.67c5.26,0,7.56,2.73,7.56,5.69l8.71-.14a13,13,0,0,0-5.26-9.65c-2.16-1.51-5.54-2.81-10.87-2.81-10.58,0-15.19,5.69-15.19,12a9.39,9.39,0,0,0,2.52,6.91c1.29,1.37,2.88,2.52,7,3.39l7.92,1.8c4.68,1,5.19,2.45,5.19,4.17s-1.51,4.11-6.91,4.11c-5.18,0-7.85-2.74-8.13-6.55Zm-25.85,12.24h9.86V801.86c0-5.47,1.37-8,3-9.72a8.88,8.88,0,0,1,6.77-2.88,14.48,14.48,0,0,1,1.66.14V780.7a12.15,12.15,0,0,0-2.09-.22,9.52,9.52,0,0,0-9.15,6.55l-0.29-5.54h-9.65ZM76.08,802.51l27.15,0.07c0-10.87-4.9-22.39-18.58-22.39-14,0-18.36,11.16-18.36,19.51,0,12.17,8.06,19.73,18.29,19.73s16.49-5.54,18-11.95l-9.86-.65c-1.94,3.38-4.46,4.75-7.63,4.75C80.4,811.58,76.58,808.41,76.08,802.51Zm0.36-7.13a8.5,8.5,0,0,1,8.06-7.49c4,0,7.49,2.74,8.14,7.49H76.44ZM33.17,813.89c2.09,3.38,5.76,5.47,10.8,5.47,10,0,16.2-9.29,16.2-19.73,0-10-6-19.3-16.13-19.3a13.12,13.12,0,0,0-10.58,5L33,781.56l-9.72.07v48.45h9.87v-16.2Z"/><path class="c" d="M35.39,297.63c0,144.79,117.43,262.21,262.22,262.21S559.75,442.41,559.75,297.63,442.39,35.48,297.61,35.48,35.39,152.84,35.39,297.63Zm425,132.81c67.48-82.53,62.73-204.35-14.27-281.34s-198.86-81.8-281.4-14.32ZM134.67,164.86C67.23,247.41,72,369.27,149,446.25S347.78,528,430.32,460.52Z"/></svg>