<svg xmlns="http://www.w3.org/2000/svg" viewBox="0 0 595.28 850.36"><defs><style>.a{fill:#e5e8eb;}.a,.b,.c{fill-rule:evenodd;}.b{fill:#000100;}.c{fill:#ad1922;}</style></defs><title>P028_C</title><polyline class="a" points="0 850.36 595.28 850.36 595.28 0 0 0 0 850.36"/><path class="b" d="M357.9,329.55c15.78-39.38,40.32-79.72,79.52-130.34a74.89,74.89,0,0,0,4.18-8.93c2.67-7,2.28-13.52-4.95-17.32-5.32-3-11.6-1.14-18.83,4.18a45,45,0,0,0,6.66-14.65c0.19-9.33-4.2-14.08-13.12-13.7-3.81-.38-11,3.43-25.7,17.12,3.05-5.71,5.9-11,7.23-18.26,1.16-6.09-.95-12.17-6.85-14.46a18.25,18.25,0,0,0-8.74-.38c-8.55,2.46-16.54,13.33-24.92,22.07A39.08,39.08,0,0,0,354.84,141c0-5.72-7.24-10.84-13.88-7.41-8.57,1.9-33.12,33.09-41.68,61.25-2.47,6.85,3.81,6.67,5.34,2.28,5.53-15.78,17.7-36.52,27.78-48.32,1.52-2.09,12.75-14.65,16-8,0.56,3.43-.18,6.85-0.95,10.28-1.14,11.22-11.79,28.74-18.85,43.56-1.51,2.67,1.9,6.66,4.76,1.9,9.15-17.49,21.69-38.42,27.59-43.18,4.76-5.32,15-16.93,23.39-13.89,5.91,4.2-.76,16.56-2.64,20.74-6.85,16.16-20.17,33.12-25.89,45.67-1.71,3,2.49,5.51,4.77,1.71,8-12.75,30.06-42.42,43.38-48.89,4.55-3.05,6.47-4.58,12-2.67,5,4.18-1.13,12.94-2.84,17.32-9.34,16.16-23.41,33.86-31,44.14-3,5.69,2.09,5.89,4.17,2.85,15.24-19.42,27.6-35.19,36.36-39.38,4-2.28,10.66-5.9,13.71.58,1.7,6.83-6.11,16.73-9.9,21.49-27.6,36.53-53.47,74.59-71.55,116.64-1.14,1.52-2.66,4.94-4.37,9.9-8.75,23-23.41,76.11-20.55,74.78-9.71-7-29.5-20-39.58-26.43a408.73,408.73,0,0,1,6.84-48.43c0.58-3,1.33-5.81,1.91-8.87,8.93-36.13,23.6-100.26,21.3-108.44,0.58-8.94-14.07-15.23-20.17-3.41-7.22,16-12,36.52-15.41,52.32-0.38.95-2.28,0.56-2.28-.77,4.56-20.93,9.52-41.68,12.93-63.37,2.47-12.93-15.79-20.17-21.5-2.66-5.9,16.16-13.52,48.9-19.59,68.13-1.14,1.33-2.28.95-2.08-.38,6.27-24.73,14.63-58.23,15.21-69.64,1.71-8.55-12.74-18.83-20.93-1.72-7.42,19.78-16,57.47-21.69,77.83-1.33.95-1.9,0.77-2.09-.37,4.75-20,9.13-39.21,13.13-59.57-0.38-11.79-13.9-18.45-22.84-4.19-4.95,10.28-9.13,20-12.56,29.31-10.09,27.8-13.89,52-17.51,75.17-1.14,7-2.66,13.88-4.18,20.73-6.65,27.79-16.55,54-33.68,77.07a4,4,0,0,0,2.28,6.27c47.2,9.71,93.44,23.41,137.58,42.25,4.55,1.13,7.6-.18,6.65-5a346.22,346.22,0,0,1-2.1-64.29c11.81,5.7,28.17,17.29,42.07,28.14,2.66,1.72,4.17.19,4.17-4C340.39,381.89,347.24,355.82,357.9,329.55Zm-36.71-76.49c13.89-12.56,29.11-22.45,45.48-27,10.29-1.71,16.55,2.47,17.5,10.46,1.33,13.12-5.89,24.94-13.12,36.73-13.3,19.79-27.78,32.54-42.43,45.65-4.37,1.71-6.65,0-4.55-4,15.6-12.94,30.05-27.4,42.43-45.29,7-12.56,11.79-22.26,11.79-30.44-1-6.09-4.58-8.57-10.65-7C350.12,238.23,337,247,324.44,257.44,321.76,259.15,317.95,257.25,321.19,253.06Z"/><path class="b" d="M144.55,625.13l6.91-22,6.62,22H144.55Zm306.64,22.75-0.07,8,6.84-.07c6.26,0,9.29-3,9.29-9.65l-0.07-38.88h-9.79l-0.07,34.63c0,5.18-1.51,6-3.88,6h-2.23Zm6.12-46.15h9.94l-0.07-8.78h-9.86v8.78ZM419.58,628.3l27.22,0.07c0-10.87-5-22.39-18.57-22.39-14,0-18.43,11.16-18.43,19.51,0,12.17,8.07,19.73,18.36,19.73s16.49-5.54,18-11.95l-9.94-.65c-1.87,3.38-4.46,4.75-7.63,4.75C423.9,637.37,420.09,634.21,419.58,628.3Zm0.43-7.13a8.37,8.37,0,0,1,8-7.49c4,0,7.49,2.73,8.13,7.49H420Zm-57.09,19,0.36,3.74h9.79v-51h-9.93v18.51c-1.73-2.88-5.9-5.33-10.59-5.33-8.13,0-16.27,6.84-16.27,19.66a21.4,21.4,0,0,0,4.75,14,13.88,13.88,0,0,0,11.16,5.33A13.19,13.19,0,0,0,362.92,640.18Zm-7.77-3.53c-4.68,0-8.71-3.31-8.71-11.09,0-8.71,4.25-11.81,8.28-11.81s8.35,3.1,8.35,11.52C363.07,633.34,358.82,636.58,355.15,636.65Zm-58.54,7.27h9.79l0.07-20.52c0-2.88.58-4.25,1.37-5.4a7.39,7.39,0,0,1,6-3.1c3.38,0,5.9,2.23,5.9,6.34l-0.07,22.68h9.87V618.08c0-6.84-5-12.1-12.6-12.1-5.26,0-8.93,2.81-10.22,5.69l-0.36-4.32-9.65-.07Zm-18.29-4.18a12.86,12.86,0,0,0,1.3,4.18h9.93c-0.58-.5-1.51-2.16-1.51-5.18L287.9,620a18.61,18.61,0,0,0-.51-5c-1.51-5-5.62-9.07-15.55-9.07-11.38,0-15.91,5.83-15.91,12.24l8.71,0.14c0.36-2.45.72-3,1.51-3.67S269,613,271.92,613c4.61,0,6.34,2.45,6.34,4.18s-1.08,3-3.74,3.46l-9.94,1.73c-7.42,1.3-10.87,6.12-10.87,10.95,0,6.33,4.9,11.74,13.75,11.74C273.57,645,277,642.55,278.32,639.75Zm0-15.34v5.47c-0.29,4.61-3.38,7.77-8.71,7.77-4.18,0-6.12-2.45-6.12-4.61,0-1.73.86-4,6.7-5.4l4.25-1.15A8.06,8.06,0,0,0,278.32,624.41Zm-5.9-21.53,9.93,0.07v-10H272.5Zm-12.82,0h9.86l0.07-10h-9.86Zm-29.74,41h9.72l12.53-36.64h-10l-7.35,24.12-7.27-24h-10Zm-50,0h9.86l0.07-20.52c0-2.88.58-4.25,1.37-5.4a7.39,7.39,0,0,1,6-3.1c3.38,0,5.9,2.23,5.9,6.34l-0.07,22.68h9.86V618.08c0-6.84-5-12.1-12.6-12.1-5.26,0-8.93,2.81-10.23,5.69l-0.36-4.32-9.72-.07Zm-52,0h10.73L142,633.2h18.51l3.24,10.73h10.8l-17.42-51h-11.3Z"/><path class="b" d="M141.38,731h9.86V710.85c0-6,3.31-8.78,7.35-8.78,3.53,0,5.9,2,5.9,6.62V731h9.79V705.73c0-4.46-1.44-7.49-3.81-9.57a14.16,14.16,0,0,0-8.64-3.1c-5.33,0-8.93,2.52-10.65,5.91L151.24,680h-9.86v51Zm291.09,0h9.87l0.07-16.27c0-5.47,1.29-8,3-9.72a8.62,8.62,0,0,1,6.7-2.88,14.49,14.49,0,0,1,1.66.14l0.07-8.71a14.81,14.81,0,0,0-2.16-.21,9.51,9.51,0,0,0-9.14,6.55l-0.29-5.54h-9.65Zm-18.29-4.18a10.29,10.29,0,0,0,1.15,4.18h10.08a5.48,5.48,0,0,1-1.66-3.81V707.1c0-8.78-4.53-14-16.49-14-11.09,0-15.69,6.05-15.48,12.24l8.64,0.14c0-2.73,2.09-5.33,7.13-5.33,4.83,0,6.41,2.38,6.41,4.1,0,1.51-.93,2.88-3.6,3.39l-5.62.93c-8.06,1.44-10.29,3-11.81,4.32a10.2,10.2,0,0,0-3.39,7.63c0,6,4.76,11.52,14,11.52C408.92,732,412.09,730.22,414.18,726.83Zm0-15.12v4.61c0,5.18-3.24,8.42-8.86,8.42-4.17,0-6.12-2.45-6.12-4.68,0-1.73.58-3.67,6.77-5.4l4.32-1.15A11.64,11.64,0,0,0,414.18,711.71ZM347.87,731h9.93l-0.07-12,4.17-4.1L372,731h12l-15.12-22.53,13.18-14.11H370.4l-12.6,14L357.66,680h-9.79v51Zm-41-12.24c0.22,6.91,6,13.54,17.21,13.54,11.45,0,16.49-6.12,16.49-12.67a10.35,10.35,0,0,0-2.23-6.41c-1.37-1.73-3.17-3-7.49-4l-10.58-2.45c-2.16-.58-3.1-1.94-3.1-3.24s1.37-3.67,6.12-3.67c5.26,0,7.56,2.74,7.56,5.69l8.71-.14a12.76,12.76,0,0,0-5.26-9.65c-2.09-1.51-5.55-2.81-10.87-2.81-10.51,0-15.19,5.69-15.19,12a9.43,9.43,0,0,0,2.52,6.91c1.3,1.36,3,2.52,7,3.38l8,1.8c4.61,1,5.11,2.45,5.11,4.18s-1.51,4.1-6.91,4.1c-5.19,0-7.78-2.74-8.14-6.55Zm-17,8.49,0.36,3.74H300V680h-9.87v18.51c-1.8-2.88-5.9-5.33-10.58-5.33-8.21,0-16.27,6.84-16.27,19.66a21.4,21.4,0,0,0,4.75,14,13.89,13.89,0,0,0,11.16,5.33A13.29,13.29,0,0,0,289.91,727.26Zm-7.78-3.53c-4.68,0-8.71-3.31-8.71-11.09,0-8.71,4.25-11.81,8.28-11.81s8.28,3.1,8.28,11.52C290,720.42,285.74,723.66,282.13,723.73ZM223.53,731h9.86l0.07-20.52c0-2.88.58-4.25,1.37-5.4a7.39,7.39,0,0,1,6-3.1c3.38,0,5.83,2.23,5.83,6.34V731h9.86V705.16c0-6.84-5-12.1-12.6-12.1-5.26,0-9,2.81-10.22,5.69l-0.43-4.32-9.65-.07Zm-18.29-4.18a10.3,10.3,0,0,0,1.15,4.18h10.08a5.46,5.46,0,0,1-1.66-3.81V707.1c0-8.78-4.54-14-16.49-14-11.09,0-15.7,6.05-15.48,12.24l8.64,0.14c0-2.73,2.09-5.33,7.13-5.33,4.82,0,6.41,2.38,6.41,4.1,0,1.51-.94,2.88-3.6,3.39l-5.61.93c-8.07,1.44-10.3,3-11.81,4.32a10.21,10.21,0,0,0-3.38,7.63c0,6,4.75,11.52,14,11.52C200,732,203.15,730.22,205.24,726.83Zm0-15.12v4.61c0,5.18-3.24,8.42-8.85,8.42-4.18,0-6.12-2.45-6.12-4.68,0-1.73.58-3.67,6.77-5.4l4.32-1.15A11.58,11.58,0,0,0,205.24,711.71Z"/><path class="c" d="M35.39,297.63c0,144.79,117.43,262.21,262.22,262.21S559.75,442.41,559.75,297.63,442.39,35.48,297.61,35.48,35.39,152.84,35.39,297.63Zm425,132.81c67.48-82.53,62.73-204.35-14.27-281.34s-198.85-81.8-281.39-14.32ZM134.67,164.86C67.23,247.41,72,369.27,149,446.25S347.78,528,430.32,460.52Z"/></svg>