<svg xmlns="http://www.w3.org/2000/svg" viewBox="0 0 595.28 850.36"><defs><style>.a{fill:#e5e8eb;}.a,.b,.c{fill-rule:evenodd;}.b{fill:#000100;}.c{fill:#ad1922;}</style></defs><title>P029_C</title><polyline class="a" points="0 850.36 595.28 850.36 595.28 0 0 0 0 850.36"/><path class="b" d="M426.38,205.71H379.2a37.82,37.82,0,0,0-37.66-35.2h-27.6a37.52,37.52,0,0,0-37.49,35.2H168.56A42.27,42.27,0,0,0,126.33,248V370.68A10.35,10.35,0,0,0,136.6,381H458.35a10.35,10.35,0,0,0,10.29-10.27V248A42.4,42.4,0,0,0,426.38,205.71ZM198.82,240v-9.9a10.24,10.24,0,0,0-10.28-10.28H169.71a10.23,10.23,0,0,0-10.28,10.28V240h39.39Zm167.43,56.32a38.52,38.52,0,1,1-38.61-38.62A38.65,38.65,0,0,1,366.25,296.27Zm17.12-.19a55.65,55.65,0,1,1-55.76-55.56A55.71,55.71,0,0,1,383.37,296.08Zm17.33,0a72.88,72.88,0,1,1-72.87-72.87A72.89,72.89,0,0,1,400.7,296.08ZM237.07,343.44a10.23,10.23,0,0,1,10.28,10.29v1.7a10.23,10.23,0,0,1-10.28,10.28h-1.71a10.23,10.23,0,0,1-10.27-10.28v-1.7a10.23,10.23,0,0,1,10.27-10.29h1.71ZM417.79,239.77A10.24,10.24,0,0,1,428.08,250v1.71A10.23,10.23,0,0,1,417.79,262h-1.71a10.22,10.22,0,0,1-10.27-10.26V250a10.24,10.24,0,0,1,10.27-10.28h1.71Zm1.16,104.11a10.23,10.23,0,0,1,10.27,10.27v1.72a10.22,10.22,0,0,1-10.27,10.26h-1.71A10.22,10.22,0,0,1,407,355.87v-1.72a10.23,10.23,0,0,1,10.28-10.27h1.71Zm0-32.55a10.24,10.24,0,0,1,10.27,10.28v1.71a10.23,10.23,0,0,1-10.27,10.27h-1.71A10.22,10.22,0,0,1,407,323.32v-1.71a10.23,10.23,0,0,1,10.28-10.28h1.71Z"/><path class="b" d="M70.9,643.92H81.41V622.18h22.25v-8.35H81.48V601.45h26.13V593H70.9v51Zm418.38,2c0.51,3.45,1.51,5.4,3.6,7.34,2.23,2.16,6.33,4.18,13.46,4.18,7.92,0,13-3,15.48-6.12,1.66-2.23,2.59-4.25,2.59-9.72l-0.07-34.34h-9.43l-0.29,4.46c-0.72-1.15-2.66-5.76-10.8-5.76-8.93,0-16.63,7.06-16.63,18.36s7.78,18.43,16.49,18.43c5.83,0,9.5-2.66,10.87-5.47v4c0,6.19-2.81,8.78-8.5,8.78-4.25,0-6.26-2.16-6.62-4.46Zm16.77-11.67c-4.82,0-8.85-3.46-8.85-10.22,0-5.9,4.1-9.65,8.57-9.65s8.64,3.74,8.64,9.93S510.23,634.28,506.05,634.28Zm-58.6,9.65h9.86l0.07-20.52c0-2.88.58-4.25,1.37-5.4a7.39,7.39,0,0,1,6-3.1c3.39,0,5.91,2.23,5.91,6.34l-0.07,22.68h9.86V618.08c0-6.84-5-12.1-12.6-12.1-5.26,0-8.93,2.81-10.23,5.69l-0.43-4.32-9.65-.07Zm-17.5,0h9.87V607.28h-9.87v36.64ZM430,601.73h9.86V593H430v8.78Zm-26.71,42.19h9.86l0.07-16.27c0-5.48,1.29-8,3-9.72a8.62,8.62,0,0,1,6.7-2.88,13.29,13.29,0,0,1,1.66.14l0.07-8.71a14.13,14.13,0,0,0-2.16-.22,9.52,9.52,0,0,0-9.15,6.55L413,607.28h-9.65ZM369.19,628.3l27.22,0.07c0-10.87-5-22.39-18.58-22.39-14,0-18.43,11.16-18.43,19.51,0,12.17,8.07,19.73,18.36,19.73s16.49-5.54,17.93-11.95l-9.86-.65c-1.87,3.38-4.46,4.75-7.63,4.75C373.51,637.37,369.69,634.21,369.19,628.3Zm0.43-7.13a8.37,8.37,0,0,1,8-7.49c4,0,7.49,2.73,8.14,7.49H369.62Zm-31.89,22.75h9.79V613.83h7.2v-6.55h-7.2v-0.72c0-3.31.58-4.25,1.22-4.9,0.79-.86,1.87-1.51,4.32-1.44h1.66V593H349c-3.31,0-12.32.58-11.3,14.33h-5.4v6.55h5.4v30.09Zm-21.53-4.18a10.25,10.25,0,0,0,1.15,4.18h10.08a5.48,5.48,0,0,1-1.66-3.81V620c0-8.78-4.54-14-16.49-14-11.09,0-15.62,6.05-15.41,12.24l8.64,0.14c0-2.74,2-5.33,7.06-5.33,4.82,0,6.41,2.38,6.41,4.1,0,1.51-.94,2.88-3.6,3.39l-5.62.93c-8.06,1.44-10.15,3-11.74,4.32a10.2,10.2,0,0,0-3.39,7.63c0,6,4.76,11.52,14,11.52C310.94,644.93,314.1,643.14,316.19,639.75Zm0.07-15.12-0.07,4.61c0,5.18-3.24,8.42-8.85,8.42-4.18,0-6.12-2.45-6.12-4.68,0-1.73.58-3.67,6.77-5.4l4.32-1.15A12.91,12.91,0,0,0,316.27,624.63Zm-47.52,19.29h9.87l0.07-16.27c0-5.48,1.29-8,3-9.72a8.62,8.62,0,0,1,6.7-2.88,13.29,13.29,0,0,1,1.66.14l0.07-8.71a14.08,14.08,0,0,0-2.16-.22,9.52,9.52,0,0,0-9.14,6.55l-0.29-5.54h-9.65Zm-42.69,2c0.5,3.45,1.51,5.4,3.6,7.34,2.23,2.16,6.34,4.18,13.47,4.18,7.92,0,13-3,15.48-6.12,1.66-2.23,2.59-4.25,2.59-9.72l-0.07-34.34h-9.43l-0.29,4.46c-0.72-1.15-2.66-5.76-10.8-5.76C231.67,606,224,613,224,624.34s7.77,18.43,16.49,18.43c5.83,0,9.5-2.66,10.87-5.47v4c0,6.19-2.81,8.78-8.5,8.78-4.25,0-6.26-2.16-6.63-4.46Zm16.77-11.67c-4.83,0-8.86-3.46-8.86-10.22,0-5.9,4.11-9.65,8.57-9.65s8.64,3.74,8.64,9.93S247,634.28,242.83,634.28Zm-44.28,11c11.16,0,19.3-7.85,19.3-19.8,0-11.59-8-19.58-19.37-19.58-11.09,0-19.22,7.92-19.22,19.51C179.25,637.52,187.39,645.29,198.55,645.29Zm-0.07-7.7c-4.68,0-9.14-3.6-9.14-11.74,0-8.78,4.39-12.24,9.22-12.24s9.22,3.53,9.22,11.88C207.77,634.06,203.3,637.59,198.48,637.59Zm-24.26,6.33v-7.56h-3.67a3.7,3.7,0,0,1-2.88-1.37c-0.21-.29-0.5-0.86-0.5-2.88V614h6.7v-6.7h-6.63l-0.07-11.59h-9.79v11.59h-5.19V614l5.19-.07v18.93c0,8.28,3.38,11,8.85,11h8Zm-45.65,1.37c11.16,0,19.3-7.85,19.3-19.8,0-11.59-8-19.58-19.37-19.58-11.09,0-19.22,7.92-19.22,19.51C109.27,637.52,117.41,645.29,128.57,645.29Zm-0.07-7.7c-4.68,0-9.15-3.6-9.15-11.74,0-8.78,4.39-12.24,9.22-12.24s9.22,3.53,9.22,11.88C137.78,634.06,133.32,637.59,128.5,637.59Z"/><path class="b" d="M140.8,731h9.86V700.91h7.13v-6.55h-7.13v-0.72c0-3.31.58-4.25,1.22-4.9,0.79-.86,1.87-1.51,4.32-1.44h1.58V680h-5.61c-3.31,0-12.31.58-11.38,14.33h-5.33v6.55h5.33V731Zm286,0h9.87l0.07-20.52c0-2.88.58-4.25,1.37-5.4a7.39,7.39,0,0,1,6-3.1c3.38,0,5.83,2.23,5.83,6.34V731h9.86V705.16c0-6.84-5-12.1-12.6-12.1-5.26,0-9,2.81-10.22,5.69l-0.43-4.32-9.65-.07Zm-34.13-15.62,27.22,0.07c0-10.87-5-22.39-18.57-22.39-14,0-18.43,11.16-18.43,19.51,0,12.17,8.06,19.73,18.29,19.73s16.56-5.54,18-12l-9.86-.65c-1.87,3.39-4.46,4.75-7.63,4.75C397,724.45,393.15,721.29,392.65,715.38Zm0.44-7.13a8.37,8.37,0,0,1,8-7.49c4,0,7.49,2.73,8.13,7.49H393.08Zm-27.29,19,0.36,3.74h9.79V680H366v18.51c-1.8-2.88-5.91-5.33-10.58-5.33-8.21,0-16.27,6.84-16.27,19.66a21.42,21.42,0,0,0,4.75,14,13.89,13.89,0,0,0,11.16,5.33A13.28,13.28,0,0,0,365.79,727.26ZM358,723.74c-4.68,0-8.71-3.31-8.71-11.09,0-8.71,4.25-11.81,8.28-11.81s8.28,3.1,8.28,11.52C365.87,720.42,361.62,723.67,358,723.74Zm-35.56,3.17L323,731h9.29V694.43l-9.79-.07v20.52c0,5.61-3.31,8.5-7.27,8.5-3.67,0-6-1.94-6-7.13V694.36h-9.86v25.2c0,4.83,1.37,7.42,3.6,9.5a13.23,13.23,0,0,0,9.14,3.17A11.9,11.9,0,0,0,322.45,726.9ZM275.8,735v8l6.84-.07c6.26,0,9.29-3,9.29-9.65l-0.07-38.88h-9.79L282,729c0,5.18-1.51,6-3.89,6h-2.3ZM282,688.82h9.94L291.85,680H282v8.78ZM234.54,731h9.72l0.51-3.74a12.85,12.85,0,0,0,10.59,4.9c8.06,0,16.06-6.62,16.06-19.58,0-12.6-8.06-19.44-16-19.44-5.33,0-9.07,2.3-10.94,5.47V680h-9.93v51Zm18.36-7.34c-4.1,0-8.35-3.24-8.35-11.45s4.25-11.45,8.28-11.45c4.39,0,8.5,3.1,8.5,11.59C261.33,720.42,257.15,723.67,252.9,723.67Zm-45,7.34h9.87l0.07-16.27c0-5.47,1.29-8,3-9.72a8.62,8.62,0,0,1,6.7-2.88,13.23,13.23,0,0,1,1.66.14l0.07-8.71a14.84,14.84,0,0,0-2.16-.21,9.51,9.51,0,0,0-9.14,6.55l-0.29-5.54H208Zm-26.71,1.44c11.8,0,19.8-7.92,19.8-19.87,0-11.74-8.06-19.66-19.51-19.66-11.09,0-19.3,7.92-19.3,19.66C162.18,724.53,170.39,732.45,181.19,732.45Zm0.58-7.71c-5.11,0-9.5-3.67-9.5-12.17,0-8.21,4.39-11.95,9.43-11.95,4.75,0,9.15,3.31,9.15,12.24C190.84,721.5,186.16,724.74,181.77,724.74ZM183.14,690H193V680l-9.86-.07v10Zm-12.89,0h9.86V680l-9.86-.07v10Z"/><path class="c" d="M35.39,297.63c0,144.79,117.43,262.21,262.21,262.21S559.75,442.41,559.75,297.63,442.39,35.48,297.6,35.48,35.39,152.84,35.39,297.63Zm425,132.81c67.48-82.53,62.73-204.35-14.27-281.34s-198.85-81.8-281.39-14.32ZM134.66,164.86C67.22,247.41,72,369.27,149,446.25S347.78,528,430.32,460.52Z"/></svg>