<svg xmlns="http://www.w3.org/2000/svg" viewBox="0 0 595.28 850.36"><defs><style>.a{fill:#e5e8eb;}.a,.b,.c{fill-rule:evenodd;}.b{fill:#000100;}.c{fill:#ad1922;}</style></defs><title>P030_C</title><polyline class="a" points="0 850.36 595.28 850.36 595.28 0 0 0 0 850.36"/><path class="b" d="M279.46,442.64l-1.16-2-0.65-2.29-0.1-2.42,0.38-2.28L276,431.83c-2.19-2.66-4.63-7-3.27-10.55l1-1.43-3.06-2.2-1.82,2.1-2.3,1.54-2.59,1,0.38,2-0.18,2-0.67,1.92-1.25,1.64L260.57,431l1.34,1.64,1,1.82,0.58,2,0.09,2.1-0.38,2,1.82,0.49,1.73,0.95,1.44,1.26L269.3,445l0.58,1.82,1.73-.67,1.82-.38,1.92,0.09,1.82,0.4,1.72,0.86-0.29-1.53,0.29-1.54Zm7,41.79-1.34-2.5-0.78-2.67-0.18-2.78,0.47-2.7,1-2.68-1.44-2.31-0.87-2.59-0.39-2.77-3.35.75-3.45.1-3.45-.58c-13.36-6.52-2.87-.54-13.23-3.83l-2.12-1.14-1.91-1.52c-5-8.52-4.52-1.71-9.69-10.55l-0.76-2.39-0.29-2.5,0.2-2.4-1.25-2a10.08,10.08,0,0,1,2.78-12.45l-0.09-2.49,0.58-2.4,1.15-2.2,1.54-1.92,2-1.43,2.29-1,1.35-2.68,1.72-2.4,2.21-2,2.59-1.45,2.87-.95v-2.1l-1.15-1.54-0.58-1.82-0.09-1.82,0.38-1.92-1.44-1.92-1.07-2.29L260,388.32l-0.09-2.48,0.29-2.49,0.67-2.3,1.15-2.2,1.64-1.91-1.06-2.21-0.29-2.49,0.38-2.4,1.45-3.35,2-2.87,2.59-2.59,3-1.92,0.76-2.48,1.25-2.31,1.73-2,2-1.64,2.3-1.13,2.49-.77,0.49-2.4,0.95-2.31-1.24-1.52c-2.48-4-1.4-9.73,2.77-12.17l1.73-.95-1.34-1.92-1-2.12-0.39-2.3v-2.4l0.58-2.3,1.06-2.11-0.87-2-0.56-2.1-0.11-2.31,0.3-2.21,0.77-2.11,1.05-1.91-1.05-2.68-0.49-2.88,0.2-2.87,0.67-2.78,1.24-2.59-0.77-3.36-0.38-3.34,0.2-3.55,0.66-3.34,1.07-3.27-1-2.49-0.49-2.68v-2.69l0.38-2.69,1-2.58,1.35-2.3-1.15-2.19L287.32,253l-0.29-2.4,0.29-2.39L288,246l1.15-2.21-1.15-2.2-0.67-2.49-0.18-2.49,0.28-2.59,0.77-2.39,1.24-2.2-1.14-2.78-0.47-2.87v-3l0.56-2.87,1.16-2.78L288.09,213l-0.86-2.4-0.38-2.48,0.19-2.5,0.86-2.49,1.25-2.1-1.25-2.69-0.58-2.78-0.09-3,0.47-2.8,1.16-2.77-0.58-2.58v-2.68l0.38-2.6,1-2.58a15.68,15.68,0,0,1,.67-14.19l-1-2.57-0.67-2.69-0.09-2.78,0.29-2.67,0.76-2.69-1.25-2.78-0.56-3v-3l0.56-3,1.16-2.78c-2.2-4.07-2.44-10.63.47-14.46l1.72-1.44,12.47-7.75h4.51l1,2.48,0.49,2.68L310,118.7l-0.76,2.59-1.35,2.4,1.24,1.92,0.78,2.2,0.18,2.38-0.28,2.31L309,134.7l-1.24,1.92L309,139l0.76,2.49,0.29,2.68-0.29,2.68L309,149.36l-1.35,2.4,1.52,2,1,2.4,0.49,2.48-0.19,2.59-0.77,2.4-1.34,2.21,1,1.91,0.77,2.11,0.29,2.1v2.21l-0.47,2.2-0.87,2,0.49,2.88v2.87L308.89,187l-1.15,2.59,1,2.78,0.58,2.87-0.09,3-0.67,2.87-1.15,2.68,1.15,2.78,0.47,2.88L309,212.5l-0.67,2.89L307,218.06l1.35,2.12,1,2.4,0.38,2.49-0.09,2.49-0.67,2.4-1.15,2.3,1.15,2.2,0.67,2.31,0.19,2.49-0.38,2.4-0.95,2.31-1.34,2,1.24,2.29,0.85,2.5,0.2,2.58-0.2,2.59-0.75,2.48-1.34,2.31,1,2.68,0.58,3v2.87l-0.29,3L307.56,275l-1.35,2.69,1.16,2.1,0.56,2.4,0.11,2.49-0.3,2.4-0.86,2.3-1.35,2.11,1,2.4,0.47,2.68-0.09,2.69-0.77,2.58L305,304.1l1,2.31,0.67,2.49,0.1,2.48-0.38,2.49-0.87,2.4-1.34,2.11,1.14,1.83,0.78,1.91,0.29,2.12-0.11,2.1-0.47,2-1,1.92-1.35,1.63,0.49,3.34-0.29,3.25-0.87,3.27,2.68-.66,2.68-.12,2.78,0.5,2.49,1,2.41,1.45,1.91,2,1.55,2.19,2.4,0.38,2.29,1,2,1.35,1.73,1.72L329,354.6l0.77,2.29,0.3,2.5-0.2,2.4,1.35,2.1,1,2.31,0.29,2.48-0.2,2.49-0.77,2.31-1.34,2.2-1.73,1.71-2.11,1.35,0.58,1.44L327,381.8l-0.48,1.44-0.87,1.34L323,387.17l-3,2.2-3.25,1.73,1.63,2.31,1,2.48,0.38,2.68-0.28,2.78-1,2.48,1.44,1.82a11.77,11.77,0,0,1,.19,13.22l-1.44,1.82,1.33,0.87,0.95,1.14,0.59,1.43,0.21,1.63-0.41,2.69L320.48,431l-1.42,2.31-1.93,2-2.2,1.54,0.38,1.54c0.86,5-4.35,11.17-9.11,12.46l-2.69.56,0.49,2.2v2.2l-0.4,2.21-0.76,2L301.7,462l1.53,1.92c2.24,3.54,2.71,9.85-.86,12.75l-1.63,1.15Zm24.45-110.28-0.49-1.83-1.06-1.62L308,369.44l-1.74-.76,0.58-3.74v-3.82l2,1.33,2.2,0.95,2.4,0.59-1.43,3.25-0.86,3.36Zm-27.62,17,1.83-1.54,2.2-1.15,2.3-.57,2.49,0.09-1.53-2.69-1-3L289,379.22l0.1-3.06,0.47-3.06-1.73-2.48-1.34-2.8-1.25,2.4-1.73,1.92-2.2,1.43,0.95,2,0.4,2.1v2.09l-0.49,2.11-1,2-1.34,1.63,1.34,1.05,1,1.35,0.76,1.52Zm14.39,39.56-0.39-2.19-0.86-2.22-1.25-1.9-1.73-1.55-2-1.14,0.67-1.92A9,9,0,0,0,287,409.5l-0.47-1.63,2.3-.38,2.11-.86,1.92-1.36,1.53-1.63,1.24-1.92h2.4l-0.29,2.6,0.09,2.58,0.58,2.6,1,2.28L301,414l-1.26,1.82a9.63,9.63,0,0,0,1.35,10.72v1.35l-1.35.67-1.25,1Z"/><path class="b" d="M74.5,627.94c0,9.36,7.05,17.71,21.89,17.71s21.38-8,21.38-16.56c0-6.41-4-12.24-12.75-14.47l-12.09-3c-3.6-.94-4-1.37-4.75-2.16a4.92,4.92,0,0,1-1.37-3.38c0-3,2.52-6.48,9.79-6.48a11,11,0,0,1,7.78,2.74,8.32,8.32,0,0,1,2.38,5.47l10.15,0.14c-0.44-5.62-2.31-9-5.11-11.59s-8.35-5.11-15.77-5.11c-13.54,0-19.73,7.56-19.73,16,0,6.48,3.6,11.74,12.6,14l10.37,2.66c1.87,0.43,4.61.79,6.26,3a6.09,6.09,0,0,1,1.29,3.39c0,3.31-2.52,7.05-10.8,7.05-8,0-11.3-4.18-11.16-9.22Zm424.78,16h9.94V627.65c0-5.47,1.37-8,3-9.72a8.72,8.72,0,0,1,6.7-2.88,12.17,12.17,0,0,1,1.66.14l0.07-8.71a14,14,0,0,0-2.09-.22,9.38,9.38,0,0,0-9.14,6.55L509,607.28h-9.65ZM481,639.74a11.57,11.57,0,0,0,1.15,4.18h10.08a5.83,5.83,0,0,1-1.66-3.81V620c0-8.78-4.53-14-16.49-14-11.09,0-15.69,6.05-15.48,12.24l8.71,0.14c0-2.74,2-5.33,7.05-5.33,4.83,0,6.48,2.38,6.48,4.1,0,1.51-.94,2.88-3.6,3.39l-5.69.93c-8.06,1.44-10.22,3-11.8,4.32a10.12,10.12,0,0,0-3.31,7.63c0,6,4.75,11.52,14,11.52C475.74,644.93,478.91,643.13,481,639.74Zm0.07-15.12L481,629.23c0,5.18-3.24,8.42-8.86,8.42-4.1,0-6.12-2.45-6.12-4.68,0-1.73.65-3.67,6.84-5.4l4.25-1.15A12.1,12.1,0,0,0,481.07,624.63Zm-31,19.29v-7.56h-3.67a3.82,3.82,0,0,1-2.88-1.37,5.87,5.87,0,0,1-.43-2.88V614h6.63v-6.7h-6.63l-0.07-11.59h-9.79v11.59h-5.18V614l5.25-.07-0.07,18.93c0,8.28,3.38,11,8.85,11h8Zm-38.3-4.1,0.58,4.1h9.29l-0.07-36.57-9.72-.07v20.52c0,5.62-3.39,8.5-7.34,8.5-3.67,0-6-1.94-6-7.13V607.28h-9.79v25.2c0,4.83,1.37,7.42,3.6,9.5a13.11,13.11,0,0,0,9.14,3.17A11.78,11.78,0,0,0,411.81,639.82Zm-63.43,4.1h9.93V623.4c0-2.88.58-4.25,1.37-5.4a7.52,7.52,0,0,1,6-3.1c3.38,0,5.83,2.23,5.83,6.34l-0.07,22.68h9.87V618.07c0-6.84-5-12.1-12.6-12.1-5.26,0-8.93,2.81-10.23,5.69l-0.36-4.32-9.72-.07Zm-42.55,0h9.87v-12l4.1-4.1,10.08,16.13h12l-15-22.53L340,607.28H328.36l-12.67,14-0.07-28.3h-9.87Zm-53.49,4-0.07,8,6.84-.07c6.26,0,9.29-3,9.29-9.65V607.28h-9.87l-0.07,34.63c0,5.18-1.51,6-3.88,6h-2.23Zm6.12-46.15h9.94v-8.78h-9.94v8.78ZM220.73,628.3l27.22,0.07c0-10.87-4.9-22.39-18.58-22.39-14,0-18.36,11.16-18.36,19.51,0,12.17,8,19.73,18.29,19.73s16.49-5.54,18-11.95l-9.94-.65c-1.87,3.38-4.39,4.75-7.63,4.75C225,637.37,221.23,634.2,220.73,628.3Zm0.43-7.13a8.37,8.37,0,0,1,8-7.49c4,0,7.49,2.73,8.21,7.49h-16.2Zm-56.44,18.57a15,15,0,0,0,1.29,4.18h9.93c-0.5-.5-1.51-2.16-1.51-5.18L174.29,620a18.77,18.77,0,0,0-.51-5c-1.51-5-5.55-9.07-15.55-9.07-11.38,0-15.91,5.83-15.91,12.24l8.71,0.14c0.36-2.45.72-3,1.51-3.67s2.81-1.73,5.76-1.73c4.61,0,6.33,2.45,6.33,4.18s-1.08,3-3.74,3.46L151,622.32c-7.42,1.3-10.87,6.12-10.87,10.95,0,6.33,4.9,11.74,13.75,11.74C160,645,163.34,642.55,164.71,639.74Zm0-15.34v5.47c-0.22,4.61-3.38,7.77-8.71,7.77-4.18,0-6.12-2.45-6.12-4.61,0-1.73.86-4,6.7-5.4l4.25-1.15A7.76,7.76,0,0,0,164.71,624.41ZM157.59,603a5.12,5.12,0,0,0-.22-10.22A5.12,5.12,0,1,0,157.59,603Zm-0.14-2.09a3,3,0,0,1-3.17-3,3.21,3.21,0,0,1,3-3.1A3.06,3.06,0,0,1,157.44,600.94Zm-32.76,43h9.93v-51h-9.86Z"/><path class="b" d="M172.12,724.67c-4.68,0-8.71-3.17-8.71-11.09,0-8.85,4.32-11.95,8.35-11.95s8.5,3.31,8.5,11.45C180.26,718.48,178,724.59,172.12,724.67ZM441.75,731v-7.56h-3.67a3.81,3.81,0,0,1-2.88-1.37,5.87,5.87,0,0,1-.43-2.88V701.05h6.62v-6.7h-6.62l-0.07-11.59H424.9v11.59h-5.18v6.77l5.26-.07L424.9,720c0,8.28,3.38,11,8.86,11h8Zm-53.57-15.62,27.22,0.07c0-10.87-4.9-22.39-18.57-22.39-14,0-18.43,11.16-18.43,19.51,0,12.17,8.06,19.73,18.36,19.73s16.49-5.54,18-12l-9.93-.65c-1.87,3.39-4.39,4.75-7.63,4.75C392.51,724.45,388.69,721.28,388.19,715.38Zm0.43-7.13a8.37,8.37,0,0,1,8-7.49c4,0,7.49,2.73,8.21,7.49h-16.2Zm-43.27,18.51c2.09,3.38,5.76,5.47,10.73,5.47,10,0,16.2-9.29,16.2-19.73,0-10-6-19.3-16.06-19.3a13.25,13.25,0,0,0-10.65,5l-0.43-3.74-9.72.07L335.49,743h9.79Zm8.78-2.09c-4.68,0-8.71-3.17-8.71-11.09,0-8.85,4.32-11.95,8.35-11.95s8.5,3.31,8.5,11.45C362.27,718.48,360,724.59,354.13,724.67Zm-52.84-9.29,27.22,0.07c0-10.87-4.9-22.39-18.58-22.39-14,0-18.36,11.16-18.36,19.51,0,12.17,8,19.73,18.29,19.73s16.49-5.54,18-12l-9.93-.65c-1.87,3.39-4.39,4.75-7.63,4.75C305.61,724.45,301.79,721.28,301.29,715.38Zm0.43-7.13a8.37,8.37,0,0,1,8-7.49c4,0,7.49,2.73,8.21,7.49h-16.2ZM267.09,731h9.86L277,714.73c0-5.47,1.37-8,3-9.72a8.72,8.72,0,0,1,6.7-2.88,13.23,13.23,0,0,1,1.66.14l0.07-8.71a14.68,14.68,0,0,0-2.09-.21,9.38,9.38,0,0,0-9.14,6.55l-0.36-5.54h-9.65Zm-46.95-4.18a15,15,0,0,0,1.3,4.18h9.93c-0.51-.5-1.51-2.16-1.51-5.18l-0.14-18.72a18.61,18.61,0,0,0-.51-5c-1.51-5-5.62-9.07-15.55-9.07-11.37,0-15.91,5.83-15.91,12.24l8.71,0.14c0.36-2.45.72-3,1.51-3.67s2.81-1.73,5.76-1.73c4.61,0,6.33,2.45,6.33,4.18s-1.08,3-3.74,3.46l-9.94,1.73c-7.42,1.29-10.87,6.12-10.87,10.94,0,6.33,4.9,11.74,13.75,11.74C215.39,732.08,218.78,729.63,220.14,726.83Zm0-15.34V717c-0.21,4.61-3.38,7.77-8.71,7.77-4.18,0-6.12-2.45-6.12-4.61,0-1.73.86-4,6.7-5.4l4.25-1.15A7.75,7.75,0,0,0,220.14,711.49Zm-7.2-21.38a5.11,5.11,0,0,0-.14-10.22,5.15,5.15,0,0,0-5.18,5.11A5.09,5.09,0,0,0,212.95,690.11ZM212.87,688a3,3,0,0,1-3.17-3,3.2,3.2,0,0,1,3-3.1A3.06,3.06,0,0,1,212.87,688Zm-49.53,38.74c2.09,3.38,5.76,5.47,10.73,5.47,10,0,16.2-9.29,16.2-19.73,0-10-6-19.3-16.05-19.3a13.26,13.26,0,0,0-10.65,5l-0.43-3.74-9.72.07L153.48,743h9.79Z"/><path class="c" d="M35.39,297.62c0,144.79,117.43,262.21,262.21,262.21S559.75,442.41,559.75,297.62,442.39,35.48,297.6,35.48,35.39,152.83,35.39,297.62Zm425,132.81c67.48-82.53,62.72-204.34-14.27-281.34s-198.85-81.8-281.39-14.32ZM134.66,164.86C67.23,247.41,72,369.27,149,446.25S347.78,528,430.32,460.51Z"/></svg>