<svg xmlns="http://www.w3.org/2000/svg" viewBox="0 0 595.28 850.36"><defs><style>.a{fill:#e5e8eb;}.a,.b,.c{fill-rule:evenodd;}.b{fill:#000100;}.c{fill:#ad1922;}</style></defs><title>P031_C</title><polyline class="a" points="0 850.36 595.28 850.36 595.28 0 0 0 0 850.36"/><polyline class="b" points="212.34 316.67 182.61 333.82 252.6 333.82 252.6 343.21 182.61 343.21 212.34 360.36 207.64 368.51 155.77 338.52 207.64 308.52 212.34 316.67"/><polyline class="b" points="412.39 333.82 342.43 333.82 342.43 343.21 412.39 343.21 382.6 360.36 387.3 368.51 439.25 338.52 387.3 308.52 382.6 316.67 412.39 333.82"/><polyline class="b" points="282.79 112.39 272.35 111.25 261.9 110.57 251.35 110.57 240.91 111.25 230.46 112.39 230.46 217.88 282.79 217.88 282.79 112.39"/><path class="b" d="M230.46,482.9l10.46,1.15,10.44,0.67H261.9l10.45-.67,10.44-1.15V443c7.5-8.23,10.14-20.32,7.39-31.05l97.41-193.72-46.89-23.48L243.4,388.43A34.58,34.58,0,0,0,228,439.78l2.5,3.26V482.9Zm7.44-62.46a18.68,18.68,0,1,0,18.72-18.65A18.73,18.73,0,0,0,237.9,420.44Z"/><path class="b" d="M165.5,588.56h9.86v-9.93H165.5v9.93Zm260.13,59.33v8l6.84-.07c6.19,0,9.29-3,9.29-9.65l-0.07-38.88h-9.86v34.63c0,5.18-1.51,6-4,6h-2.23Zm6.19-46.15h9.86V593h-9.86v8.78ZM394.1,628.3l27.14,0.07c0-10.87-4.9-22.39-18.58-22.39-14,0-18.36,11.16-18.36,19.51,0,12.17,8.06,19.73,18.29,19.73s16.49-5.54,18-12l-9.86-.65c-1.94,3.38-4.46,4.75-7.63,4.75C398.42,637.37,394.6,634.2,394.1,628.3Zm0.36-7.13a8.5,8.5,0,0,1,8.06-7.49c4,0,7.49,2.74,8.14,7.49h-16.2Zm-57.6,18.58a11.55,11.55,0,0,0,1.22,4.18h10a6.2,6.2,0,0,1-1.65-3.82L346.51,620c0-8.78-4.61-14-16.49-14-11.09,0-15.69,6-15.55,12.24l8.71,0.14c0-2.74,2.09-5.33,7.13-5.33,4.83,0,6.41,2.38,6.41,4.11,0,1.51-.94,2.88-3.6,3.38l-5.61.94c-8.13,1.44-10.3,3-11.81,4.32a9.94,9.94,0,0,0-3.38,7.63c0,6.05,4.75,11.52,14,11.52C331.68,644.93,334.77,643.13,336.86,639.75Zm0.07-15.12-0.07,4.61c0,5.19-3.17,8.43-8.85,8.43-4.11,0-6.05-2.45-6.05-4.68,0-1.73.58-3.67,6.77-5.4l4.25-1.15A11.24,11.24,0,0,0,336.93,624.63Zm-47.44,19.3h9.79V627.65c0-5.47,1.37-8,3-9.72a8.83,8.83,0,0,1,6.7-2.88,13.6,13.6,0,0,1,1.73.14v-8.71a14,14,0,0,0-2.09-.22,9.45,9.45,0,0,0-9.14,6.55l-0.29-5.54h-9.65v36.65Zm-17.86-3.74,0.43,3.74h9.79l-0.07-51h-9.86v18.5c-1.8-2.88-5.91-5.33-10.58-5.33-8.21,0-16.27,6.84-16.27,19.66a21.41,21.41,0,0,0,4.75,14A13.78,13.78,0,0,0,261,645.14,13.06,13.06,0,0,0,271.63,640.18Zm-7.78-3.53c-4.61,0-8.71-3.31-8.71-11.09,0-8.71,4.25-11.81,8.35-11.81s8.28,3.1,8.28,11.52C271.77,633.34,267.52,636.58,263.85,636.65Zm-58.53,7.27h9.86l0.07-20.52c0-2.88.58-4.25,1.37-5.4a7.39,7.39,0,0,1,6-3.1c3.39,0,5.83,2.23,5.83,6.33v22.68h9.86V618.08c0-6.84-5-12.1-12.67-12.1-5.26,0-8.93,2.81-10.15,5.69L215,607.35l-9.65-.07Zm-51.91,0h10.65l3.46-10.73,18.43-.07,3.24,10.8H200l-17.42-51h-11.3ZM170,625.2L177,603.1l6.63,22.11H170Zm8.35-36.65h9.86l-0.07-10-9.86.07Z"/><path class="b" d="M67,723.66c-4.1,0-8.35-3.24-8.35-11.45s4.32-11.45,8.28-11.45c4.39,0,8.5,3.1,8.5,11.59C75.43,720.42,71.26,723.66,67,723.66Zm452.29-8.28,27.22,0.07c0-10.87-5-22.39-18.57-22.39-14,0-18.43,11.16-18.43,19.51,0,12.17,8.06,19.73,18.36,19.73s16.49-5.54,17.93-12l-9.86-.65c-1.87,3.38-4.46,4.75-7.63,4.75C523.61,724.45,519.8,721.28,519.29,715.38Zm0.43-7.13a8.38,8.38,0,0,1,8-7.49c4,0,7.49,2.74,8.13,7.49H519.72ZM467.53,733c0.51,3.46,1.51,5.4,3.6,7.35,2.23,2.16,6.34,4.18,13.47,4.18,7.92,0,13-3,15.48-6.12,1.65-2.23,2.59-4.25,2.59-9.72l-0.07-34.34h-9.43l-0.29,4.46c-0.72-1.15-2.66-5.76-10.8-5.76-8.93,0-16.63,7.06-16.63,18.36s7.78,18.44,16.49,18.44c5.83,0,9.5-2.67,10.87-5.47v4c0,6.19-2.81,8.78-8.49,8.78-4.25,0-6.26-2.16-6.63-4.46Zm16.78-11.66c-4.83,0-8.86-3.46-8.86-10.23,0-5.9,4.11-9.65,8.57-9.65,4.61,0,8.64,3.74,8.64,9.93S488.48,721.36,484.3,721.36Zm-35.71,5.47a12.8,12.8,0,0,0,1.29,4.18h9.93c-0.58-.51-1.51-2.16-1.51-5.18l-0.14-18.72a18.63,18.63,0,0,0-.5-5c-1.51-5-5.61-9.07-15.55-9.07-11.45,0-15.91,5.83-15.91,12.24l8.71,0.14c0.36-2.45.72-3,1.51-3.67s2.81-1.73,5.76-1.73c4.61,0,6.33,2.45,6.33,4.18s-1.08,3-3.74,3.46l-9.93,1.73c-7.42,1.29-10.87,6.12-10.87,10.94,0,6.34,4.9,11.74,13.75,11.74C443.84,732.08,447.15,729.64,448.59,726.83Zm0-15.34V717c-0.29,4.61-3.38,7.78-8.71,7.78-4.18,0-6.12-2.45-6.12-4.61,0-1.73.86-4,6.69-5.4l4.25-1.15A8.13,8.13,0,0,0,448.59,711.49ZM442.69,690l9.86,0.07,0.07-10h-9.86Zm-12.81,0h9.86l0.07-10h-9.93v10ZM408.2,731h9.86V680h-9.79Zm-70.77-12.24c0.22,6.91,6,13.54,17.28,13.54s16.42-6.12,16.42-12.67a10.36,10.36,0,0,0-2.23-6.41c-1.37-1.73-3.17-3-7.49-4l-10.51-2.45c-2.23-.58-3.17-1.94-3.17-3.24s1.37-3.67,6.12-3.67c5.26,0,7.56,2.74,7.63,5.69l8.64-.14a12.78,12.78,0,0,0-5.26-9.65c-2.09-1.51-5.54-2.81-10.87-2.81-10.51,0-15.19,5.69-15.19,12a9.41,9.41,0,0,0,2.52,6.91c1.3,1.37,3,2.52,7,3.38l8,1.8c4.61,1,5.18,2.45,5.18,4.18s-1.59,4.1-7,4.1c-5.18,0-7.78-2.73-8.14-6.55ZM297.69,731h9.86l0.07-20.52c0-2.88.58-4.25,1.37-5.4a7.4,7.4,0,0,1,6-3.1c3.38,0,5.9,2.23,5.9,6.33L320.8,731h9.86V705.16c0-6.84-5-12.1-12.6-12.1-5.26,0-8.93,2.81-10.23,5.69l-0.43-4.32-9.65-.07Zm-34.05-15.62,27.22,0.07c0-10.87-5-22.39-18.58-22.39-14,0-18.43,11.16-18.43,19.51,0,12.17,8.06,19.73,18.36,19.73s16.49-5.54,17.93-12l-9.86-.65c-1.87,3.38-4.46,4.75-7.63,4.75C268,724.45,264.13,721.28,263.63,715.38Zm0.43-7.13a8.37,8.37,0,0,1,8-7.49c4,0,7.49,2.74,8.13,7.49H264.06ZM229.36,731h9.86l0.07-16.27c0-5.47,1.3-8,3-9.72a8.61,8.61,0,0,1,6.7-2.88,12.48,12.48,0,0,1,1.65.14l0.07-8.71a14.15,14.15,0,0,0-2.16-.22,9.52,9.52,0,0,0-9.14,6.55l-0.29-5.54h-9.65Zm-18.29-4.18a10.25,10.25,0,0,0,1.15,4.18h10.08a5.47,5.47,0,0,1-1.66-3.82V707.1c0-8.78-4.54-14-16.49-14-11.09,0-15.7,6-15.48,12.24l8.71,0.14c0-2.74,2-5.33,7.06-5.33,4.82,0,6.41,2.38,6.41,4.1,0,1.51-.94,2.88-3.6,3.38l-5.61.94c-8.06,1.44-10.23,3-11.81,4.32a10.2,10.2,0,0,0-3.38,7.63c0,6.05,4.75,11.52,14,11.52C205.82,732,209,730.21,211.07,726.83Zm0.07-15.12-0.07,4.61c0,5.18-3.24,8.42-8.85,8.42-4.18,0-6.12-2.45-6.12-4.68,0-1.73.58-3.67,6.77-5.4l4.32-1.15A12.8,12.8,0,0,0,211.15,711.71Zm-31,19.29v-7.56h-3.67a3.7,3.7,0,0,1-2.88-1.37c-0.21-.29-0.51-0.86-0.51-2.88V701.05h6.7v-6.7H173.2l-0.07-11.59h-9.79v11.59h-5.18v6.77l5.18-.07V720c0,8.28,3.39,11,8.86,11h8Zm-58.75,4.18v7.7h7.27c8.57,0,10.58-6.77,11.38-9l14-39.53H143.54L136.27,717l-7.7-22.68H117.91l11.37,30.89a13.65,13.65,0,0,1,.94,5c0,3-1.58,5-5.9,4.9h-2.88Zm-29-4.18h9.86l0.07-16.27c0-5.47,1.3-8,3-9.72a8.62,8.62,0,0,1,6.7-2.88,12.48,12.48,0,0,1,1.65.14l0.07-8.71a14.15,14.15,0,0,0-2.16-.22,9.52,9.52,0,0,0-9.14,6.55l-0.29-5.54H92.49Zm-43.77,0h9.72l0.58-3.74a12.64,12.64,0,0,0,10.51,4.9c8.06,0,16.06-6.62,16.06-19.58,0-12.6-8.06-19.44-16-19.44-5.25,0-9,2.31-10.94,5.47V680H48.65v51Z"/><path class="c" d="M35.39,297.62c0,144.79,117.43,262.22,262.21,262.22S559.75,442.41,559.75,297.62,442.39,35.48,297.6,35.48,35.39,152.84,35.39,297.62Zm425,132.81c67.48-82.54,62.72-204.34-14.27-281.34s-198.85-81.8-281.39-14.32ZM134.66,164.87C67.23,247.41,72,369.27,149,446.25S347.78,528,430.31,460.51Z"/></svg>