<svg xmlns="http://www.w3.org/2000/svg" viewBox="0 0 595.28 850.37"><defs><style>.a{fill:#e5e8eb;}.a,.b,.c{fill-rule:evenodd;}.b{fill:#000100;}.c{fill:#ad1922;}</style></defs><title>P032_C</title><polyline class="a" points="0 850.37 595.28 850.37 595.28 0 0 0 0 850.37"/><path class="b" d="M319.4,243.09a5.71,5.71,0,0,0,5.46,5.06,4.51,4.51,0,0,0,4.66-5.06A5.06,5.06,0,1,0,319.4,243.09Zm-8.45,0a13.52,13.52,0,1,0,13.52-13.52A13.53,13.53,0,0,0,311,243.07Zm161,15.72a20.29,20.29,0,0,0,5.25-28.21L468.59,218a20.32,20.32,0,0,0-28.25-5.25l-80.19,55.1-11.07-6.74,15.37-10.57-44.06-64.14-2.7,1.89a77.88,77.88,0,0,0-19.18,103.56l1.78,2.78L333.21,272l6.65,36.49-87.19,59.93h20.87L446,250l9.62-21-74.87,51.44-9.51-5.79L447,222.55a8.46,8.46,0,0,1,11.76,2.18l8.64,12.55A8.44,8.44,0,0,1,465.28,249l-93.79,64.45,6.74,9.76ZM317.88,203.72l-2.13,2.22A66.11,66.11,0,0,0,303,274.68l1.21,2.85,43.72-30.07Z"/><polyline class="b" points="388.01 139.9 331.51 178.71 375.57 242.86 432.1 203.99 425.41 194.26 378.67 226.39 347.99 181.76 394.74 149.62 388.01 139.9"/><path class="b" d="M239.94,361.3L255,379.25H471.83l-2.55,5.21-2.69,5.1-2.82,5.06-3,4.94H134.29L131.51,395a188.49,188.49,0,0,1-13.77-28.68l-1.83-5h124"/><path class="b" d="M79.75,625.14l6.91-22,6.62,22H79.75ZM510.8,643.93h9.87l0.07-16.27c0-5.47,1.3-8,3-9.72a8.61,8.61,0,0,1,6.7-2.88,12.48,12.48,0,0,1,1.65.14l0.07-8.71a14.1,14.1,0,0,0-2.09-.22,9.54,9.54,0,0,0-9.22,6.55l-0.29-5.54h-9.65Zm-26.71,1.44c11.81,0,19.8-7.92,19.8-19.87,0-11.74-8.06-19.66-19.51-19.66-11.09,0-19.29,7.92-19.29,19.66C465.09,637.45,473.29,645.37,484.09,645.37Zm0.58-7.7c-5.11,0-9.5-3.67-9.5-12.17,0-8.21,4.46-12,9.43-12,4.75,0,9.14,3.31,9.14,12.24C493.74,634.42,489.06,637.66,484.67,637.66ZM486,602.89h9.86V593l-9.86-.07v10Zm-12.89,0H483V593l-9.79-.07Zm-29.38,41h9.79v-30.1h7.2v-6.55h-7.2v-0.72c0-3.31.58-4.25,1.22-4.9,0.79-.86,1.94-1.51,4.32-1.44h1.66V593h-5.69c-3.31,0-12.31.58-11.3,14.33h-5.4l0.07,6.55h5.33v30.1Zm-57.38,4-0.07,8,6.84-.07c6.26,0,9.29-3,9.29-9.65l-0.07-38.88h-9.79l-0.07,34.63c0,5.18-1.51,6-3.89,6h-2.23Zm6.12-46.15h9.93L402.38,593h-9.86v8.78ZM354.79,628.3L382,628.37c0-10.87-5-22.39-18.58-22.39-14,0-18.44,11.16-18.44,19.51,0,12.17,8.06,19.73,18.36,19.73s16.49-5.54,18-12l-9.94-.65c-1.87,3.38-4.46,4.75-7.63,4.75C359.11,637.38,355.29,634.21,354.79,628.3Zm0.43-7.13a8.37,8.37,0,0,1,8-7.49c4,0,7.49,2.74,8.13,7.49H355.22Zm-57.09,19,0.36,3.74h9.79V593h-9.93v18.5c-1.66-2.88-5.83-5.33-10.51-5.33-8.13,0-16.27,6.84-16.27,19.66a21.41,21.41,0,0,0,4.75,14,13.88,13.88,0,0,0,11.16,5.33A13,13,0,0,0,298.12,640.18Zm-7.7-3.53c-4.68,0-8.71-3.31-8.71-11.09,0-8.71,4.25-11.81,8.28-11.81s8.28,3.1,8.28,11.52C298.27,633.34,294.09,636.58,290.42,636.66Zm-58.61,7.27h9.86l0.07-20.52c0-2.88.58-4.25,1.37-5.4a7.4,7.4,0,0,1,6-3.1c3.38,0,5.9,2.23,5.9,6.33l-0.07,22.68h9.86V618.08c0-6.84-5-12.1-12.6-12.1-5.26,0-8.93,2.81-10.23,5.69l-0.36-4.32-9.72-.07Zm-18.29-4.18a12.83,12.83,0,0,0,1.29,4.18h9.93c-0.58-.51-1.51-2.16-1.51-5.18L223.1,620a18.62,18.62,0,0,0-.5-5C221.09,610,217,606,207,606c-11.37,0-15.91,5.83-15.91,12.24l8.71,0.14c0.36-2.45.72-3,1.51-3.67s2.81-1.73,5.76-1.73c4.61,0,6.33,2.45,6.33,4.18s-1.08,3-3.74,3.46l-9.93,1.73c-7.42,1.29-10.87,6.12-10.87,10.94,0,6.34,4.9,11.74,13.75,11.74C208.77,645,212.16,642.56,213.53,639.75Zm0-15.34v5.47c-0.29,4.61-3.39,7.78-8.71,7.78-4.18,0-6.12-2.45-6.12-4.61,0-1.73.87-4,6.7-5.4l4.25-1.15A8.13,8.13,0,0,0,213.53,624.42Zm-5.91-21.53,9.94,0.07V593h-9.87Zm-12.81,0h9.86l0.07-10h-9.87Zm-29.74,41h9.72l12.53-36.65h-10L170,631.4l-7.27-24h-10Zm-50,0h9.86L125,623.41c0-2.88.58-4.25,1.37-5.4a7.4,7.4,0,0,1,6-3.1c3.38,0,5.9,2.23,5.9,6.33l-0.07,22.68H148V618.08c0-6.84-5-12.1-12.6-12.1-5.26,0-8.93,2.81-10.22,5.69l-0.36-4.32-9.72-.07Zm-52,0H73.78l3.38-10.73h18.5l3.24,10.73h10.8L92.28,593H81Z"/><path class="b" d="M117.55,724.67c-4.68,0-8.71-3.17-8.71-11.09,0-8.85,4.32-12,8.35-12s8.5,3.31,8.5,11.45C125.68,718.48,123.38,724.6,117.55,724.67ZM461.33,733a10.68,10.68,0,0,0,3.53,7.35c2.23,2.16,6.4,4.18,13.46,4.18,7.92,0,13-3,15.48-6.12,1.66-2.23,2.59-4.25,2.59-9.72l-0.07-34.34H487l-0.36,4.46c-0.65-1.15-2.66-5.76-10.8-5.76-8.85,0-16.63,7.06-16.63,18.36s7.78,18.44,16.49,18.44c5.9,0,9.5-2.67,10.94-5.47l-0.07,4c0,6.19-2.81,8.78-8.5,8.78-4.25,0-6.26-2.16-6.63-4.46ZM478,721.36c-4.83,0-8.86-3.46-8.86-10.23,0-5.9,4.11-9.65,8.64-9.65s8.64,3.74,8.64,9.94S482.21,721.36,478,721.36ZM419.43,731h9.86l0.07-20.52c0-2.88.58-4.25,1.37-5.4a7.5,7.5,0,0,1,6-3.1c3.46,0,5.9,2.23,5.9,6.33L442.54,731h9.86V705.16c0-6.84-5-12.1-12.6-12.1-5.26,0-8.93,2.81-10.22,5.69l-0.36-4.32-9.72-.07Zm-17.49,0h9.86V694.36H402ZM402,688.82h9.87V680H402v8.78ZM361.47,731h9.86l0.07-20.52c0-2.88.58-4.25,1.37-5.4a7.5,7.5,0,0,1,6-3.1c3.45,0,5.9,2.23,5.9,6.33L384.58,731h9.86V705.16c0-6.84-5-12.1-12.6-12.1-5.26,0-8.93,2.81-10.22,5.69l-0.36-4.32-9.72-.07Zm-33.84-4.25c2.08,3.39,5.76,5.47,10.72,5.47,10,0,16.2-9.29,16.2-19.73,0-10-6-19.29-16.06-19.29a13.26,13.26,0,0,0-10.65,5l-0.43-3.74-9.72.07L317.77,743h9.79Zm8.78-2.09c-4.68,0-8.71-3.17-8.71-11.09,0-8.85,4.32-12,8.35-12s8.5,3.31,8.5,11.45C344.56,718.48,342.25,724.6,336.42,724.67ZM300.2,731h9.87V694.36h-9.79Zm0.07-42.19h9.86V680h-9.86v8.78ZM282.78,731h9.86V680h-9.79Zm-41-12.24c0.21,6.91,6,13.54,17.28,13.54,11.45,0,16.41-6.12,16.41-12.67a10.36,10.36,0,0,0-2.23-6.41c-1.37-1.73-3.17-3-7.49-4l-10.51-2.45c-2.23-.58-3.1-1.94-3.1-3.24s1.29-3.67,6.12-3.67c5.18,0,7.49,2.74,7.56,5.69l8.71-.14a13.23,13.23,0,0,0-5.25-9.65c-2.16-1.51-5.54-2.81-10.87-2.81-10.58,0-15.26,5.69-15.26,12a9.45,9.45,0,0,0,2.59,6.91c1.29,1.37,2.88,2.52,7,3.38l7.92,1.8c4.61,1,5.18,2.45,5.18,4.18s-1.51,4.1-7,4.1c-5.18,0-7.78-2.73-8.06-6.55ZM202.07,731h9.87L212,710.49c0-2.88.58-4.25,1.37-5.4a7.5,7.5,0,0,1,6-3.1c3.46,0,5.9,2.23,5.9,6.33L225.18,731H235V705.16c0-6.84-5-12.1-12.6-12.1-5.26,0-8.93,2.81-10.22,5.69l-0.36-4.32-9.72-.07Zm-18.29-4.18a11.65,11.65,0,0,0,1.15,4.18H195a5.81,5.81,0,0,1-1.65-3.82V707.11c0-8.78-4.54-14-16.49-14-11.09,0-15.7,6-15.48,12.24l8.71,0.14c0-2.74,2-5.33,7.06-5.33,4.82,0,6.48,2.38,6.48,4.1,0,1.51-.94,2.88-3.6,3.38l-5.69.94c-8.06,1.44-10.22,3-11.81,4.32a10.18,10.18,0,0,0-3.38,7.63c0,6.05,4.82,11.52,14,11.52C178.53,732,181.7,730.22,183.78,726.83Zm0.07-15.12-0.07,4.61c0,5.18-3.24,8.42-8.85,8.42-4.11,0-6.12-2.45-6.12-4.68,0-1.73.65-3.67,6.84-5.4l4.25-1.15A12.05,12.05,0,0,0,183.86,711.72ZM142.6,731h9.87V680h-9.79Zm-33.84-4.25c2.09,3.39,5.76,5.47,10.72,5.47,10,0,16.2-9.29,16.2-19.73,0-10-6.05-19.29-16.06-19.29a13.26,13.26,0,0,0-10.65,5l-0.43-3.74-9.72.07L98.9,743h9.79Z"/><path class="c" d="M35.39,297.63c0,144.79,117.43,262.22,262.21,262.22S559.75,442.41,559.75,297.63,442.39,35.48,297.6,35.48,35.39,152.84,35.39,297.63Zm425,132.81c67.48-82.54,62.73-204.35-14.27-281.35s-198.85-81.8-281.39-14.32ZM134.66,164.87C67.22,247.41,72,369.27,149,446.25S347.78,528,430.32,460.52Z"/></svg>