<svg xmlns="http://www.w3.org/2000/svg" viewBox="0 0 595.28 850.36"><defs><style>.a{fill:#e5e8eb;}.a,.b,.c{fill-rule:evenodd;}.b{fill:#000100;}.c{fill:#ad1922;}</style></defs><title>P033_C</title><polyline class="a" points="0 850.36 595.28 850.36 595.28 0 0 0 0 850.36"/><path class="b" d="M271.57,255.77l0-.84-0.24-.84a5.5,5.5,0,0,0-10.46,0l-0.19.84-0.08.84A5.51,5.51,0,0,0,271,258.26l0.31-.76,0.24-.85,0-.88"/><path class="b" d="M273.53,272.89l0-.85-0.24-.83a5.49,5.49,0,0,0-10.45,0l-0.19.83-0.08.85a5.51,5.51,0,0,0,10.42,2.49l0.3-.77,0.24-.85,0-.87"/><path class="b" d="M275.48,290l0-.84-0.24-.84a5.49,5.49,0,0,0-10.45,0l-0.2.84-0.07.84a5.51,5.51,0,0,0,10.42,2.49l0.3-.76,0.24-.85,0-.88"/><path class="b" d="M277.44,307.13l0-.85-0.24-.85a5.5,5.5,0,0,0-10.46,0l-0.19.85-0.08.85a5.51,5.51,0,0,0,10.42,2.49l0.3-.77,0.24-.84,0-.88"/><path class="b" d="M250.6,307.24l0-.88-0.23-.84a5.51,5.51,0,0,0-10.47,0l-0.19.84-0.08.88A5.51,5.51,0,0,0,250,309.73l0.31-.8,0.23-.84,0-.85"/><path class="b" d="M252.44,290.09l-0.08-.85-0.18-.84a5.51,5.51,0,0,0-10.47,0l-0.19.84-0.08.85a5.5,5.5,0,0,0,10.39,2.52l0.35-.8,0.18-.84,0.08-.88"/><path class="b" d="M254.29,273l-0.08-.89L254,271.3a5.48,5.48,0,0,0-10.46,0l-0.19.79-0.08.89a5.49,5.49,0,0,0,10.39,2.48l0.34-.81,0.19-.83,0.08-.85"/><path class="b" d="M256.13,255.85l-0.08-.88-0.19-.84a5.51,5.51,0,0,0-10.46,0l-0.24.84,0,0.88a5.49,5.49,0,0,0,10.38,2.48l0.35-.8,0.19-.84,0.08-.84"/><path class="b" d="M241,252.52l0-.87-0.23-.85a5.51,5.51,0,0,0-10.46,0l-0.19.85-0.07.87A5.51,5.51,0,0,0,240.41,255l0.31-.8,0.23-.84,0-.85"/><path class="b" d="M235.47,268.84l-0.08-.88-0.19-.8a5.48,5.48,0,0,0-10.46,0l-0.2.8-0.07.88a5.49,5.49,0,0,0,10.39,2.49l0.34-.8,0.19-.85,0.08-.84"/><path class="b" d="M230,285.15l-0.08-.84-0.18-.85a5.51,5.51,0,0,0-10.47,0l-0.19.85-0.07.84a5.48,5.48,0,0,0,10.37,2.49l0.35-.8,0.18-.81,0.08-.88"/><path class="b" d="M224.44,301.46l-0.08-.85-0.19-.83a5.5,5.5,0,0,0-10.46,0l-0.24.83,0,0.85a5.49,5.49,0,0,0,10.39,2.48l0.34-.76,0.19-.84,0.08-.88"/><path class="b" d="M218.89,317.78l0-.85-0.23-.83a5.51,5.51,0,0,0-10.47,0l-0.18.83-0.08.85a5.52,5.52,0,0,0,10.41,2.52l0.32-.8,0.23-.84,0-.88"/><path class="b" d="M248.82,324.36l-0.1-.84-0.2-.85a5.48,5.48,0,0,0-10.43,0l-0.24.85-0.05.84a5.5,5.5,0,0,0,10.4,2.49l0.33-.8,0.2-.81,0.1-.88"/><path class="b" d="M213.36,334.14l-0.08-.89-0.18-.84a5.52,5.52,0,0,0-10.47,0l-0.2.84-0.07.89a5.52,5.52,0,0,0,10.42,2.48l0.31-.82,0.18-.83,0.08-.84"/><path class="b" d="M207.85,350.43l-0.1-.87-0.18-.85a5.51,5.51,0,0,0-10.46,0l-0.19.85-0.08.87a5.49,5.49,0,0,0,10.38,2.5l0.35-.8,0.18-.84,0.1-.86"/><path class="b" d="M202.33,366.76l-0.08-.88-0.18-.81a5.5,5.5,0,0,0-10.46,0l-0.24.81,0,0.88a5.5,5.5,0,0,0,10.39,2.48l0.35-.8,0.18-.85,0.08-.84"/><path class="b" d="M196.82,383.06l-0.08-.85-0.24-.84a5.47,5.47,0,0,0-10.42,0l-0.23.84,0,0.85a5.49,5.49,0,0,0,10.37,2.5l0.31-.8,0.24-.82,0.08-.88"/><path class="b" d="M191.26,399.38l0-.84-0.23-.86a5.5,5.5,0,0,0-10.46,0l-0.19.86-0.08.84a5.51,5.51,0,0,0,10.42,2.48l0.32-.77,0.23-.84,0-.88"/><path class="b" d="M279.81,206.73H380.16V194.36H279.81a17.53,17.53,0,0,0-17.56,17.5v14H246.48V195.06A19.58,19.58,0,0,1,266,175.45H380.16V163.08H311.42V144.51h21.31V131.45h-55v13.05H299v18.58H266a32,32,0,0,0-32,32v43.16h40.54V211.86a5.18,5.18,0,0,1,3.57-4.9l0.75-.19,0.85,0"/><polyline class="b" points="292.53 410.7 292.53 411.24 291.68 411.32 291.5 411.58 291 411.52 291 412.17 290.81 412.17 290.73 413.32 290.2 413.32 290.2 414.42 291.5 414.5 291.61 413.92 292.38 413.92 292.6 413.57 292.99 413.57 293.07 413.05 293.42 412.96 293.42 412.69 294.19 412.69 294.3 411.24 294.8 411.24 294.8 410.47 295.33 410.01 295.33 409.53 295.15 409.25 294.6 409.32 294.6 409.53 293.34 409.6 293.42 410.36 292.81 410.44 292.53 410.7"/><polyline class="b" points="324.96 399.67 324.57 399.67 324.49 400.15 324.15 400.22 324.22 400.68 324.33 400.76 324.49 401.32 325.03 401.37 325.1 401.93 325.64 401.86 325.79 401.37 326.48 401.37 326.74 401.03 326.82 400.55 326.56 400.49 326.48 399.38 325.18 399.33 324.96 399.67"/><polyline class="b" points="325.87 415.65 325.15 415.56 325.07 414.84 324.83 414.62 324.83 414.23 324.49 414.27 324.45 414.77 324.11 415.11 323.45 415.11 323.42 415.65 322.76 415.65 322.76 416.42 322.56 416.49 322.42 416.83 321.54 416.83 321.61 415.56 321.27 415.56 321.27 415.11 321.07 415.11 320.93 414.77 319.89 414.84 319.75 415.04 319.04 415.11 319.04 416.34 318.58 416.83 318.16 416.83 318.16 418.14 317.82 418.29 317.82 420.13 318.08 420.29 318.16 421.09 318.69 421.16 318.69 421.71 321.2 421.71 321.27 420.74 322.12 420.83 322.12 417.96 322.65 417.87 322.84 418.22 323.34 418.22 323.42 418.75 323.61 418.91 323.77 419.1 324.15 418.75 325.61 418.67 325.68 418.22 325.95 418.22 325.95 417.3 326.56 417.3 326.56 415.93 326.1 415.93 325.87 415.65"/><polyline class="b" points="324.96 392.63 324.96 393.21 324.26 393.21 324.15 393.54 323.3 393.54 323.23 394.09 322.49 394.17 322.42 394.29 321.92 394.44 321.92 395.2 321.57 395.24 321.57 396.43 323.23 396.43 323.37 395.9 324.22 395.9 324.22 395.58 324.76 395.54 324.83 395.05 325.03 394.97 325.26 394.69 325.64 394.69 325.64 393.21 325.18 393.21 325.18 392.63 324.96 392.63"/><polyline class="b" points="316.94 404.01 316.94 403.04 316.67 403.04 316.67 402.2 316.11 402.2 316.06 402.52 314.68 402.54 314.68 403.13 314.33 403.13 314.25 403.4 313.75 403.4 313.75 404.51 314.25 404.51 314.33 405.3 314.6 405.46 314.68 406.27 315.71 406.23 315.85 405.73 316.86 405.73 316.94 405.39 317.55 405.39 317.47 404.01 316.94 404.01"/><polyline class="b" points="300.74 410.3 300.58 410.63 300.04 410.7 300.04 411.24 298.92 411.18 298.81 412.08 298.31 412.08 298.31 412.81 297.96 413.05 298.31 413.17 298.31 413.57 298.81 413.57 298.92 413.85 300.58 413.85 300.74 413.57 301.23 413.57 301.23 413.05 301.58 412.96 301.61 412.78 302.38 412.78 302.38 412.35 302.11 412.35 302.11 411.24 301.5 411.24 301.58 410.7 301.23 410.56 301.23 410.3 300.74 410.3"/><polyline class="b" points="306.71 419.1 305.83 419.1 305.83 418.48 303.84 418.48 303.88 419.86 303.49 420.02 303.42 420.79 303.84 420.83 303.84 421.65 304.21 421.65 304.37 422.01 304.56 421.65 305.48 421.65 305.59 422.01 305.91 422.01 306.17 421.74 306.26 421.16 306.71 421.16 306.71 420.43 306.98 420.21 306.71 420.13 306.71 419.1"/><polyline class="b" points="316.86 420.13 316.59 419.93 315.21 419.93 315.14 419.32 314.88 418.97 314.57 419.1 314.29 419.41 314.29 419.93 313.49 420.02 313.4 420.48 312.84 420.55 312.84 421.13 313.75 421.13 313.75 421.74 314.22 421.74 314.45 422.01 315.75 422.01 315.91 421.74 317.55 421.74 317.55 420.55 316.97 420.55 316.86 420.13"/><polyline class="b" points="311.96 421.94 311.96 421.48 311.51 421.4 311.35 421.13 311.16 421.04 311.09 418.91 311.42 418.82 311.42 418.48 311.16 418.41 311.09 417.37 310.39 417.37 310.16 416.83 309.2 416.83 309.08 417.37 308.86 417.44 308.86 418.41 308.17 418.56 308.25 418.82 308.78 418.82 308.78 420.69 309.08 420.83 309.08 421.94 308.75 422.01 308.75 422.77 309.08 422.96 309.08 423.81 312.57 423.73 312.5 422.01 311.96 421.94"/><polyline class="b" points="308.17 414.42 309.63 414.42 309.69 413.85 311.09 413.85 311.35 413.46 311.46 412.96 311.96 412.96 311.96 412.46 311.54 412.46 311.35 412.13 311.09 411.93 311.09 411.32 310.16 411.18 310.13 410.7 308.17 410.79 308.17 411.24 306.52 411.32 306.44 412.88 307.01 412.88 307.05 413.57 307.36 413.85 308.17 413.85 308.17 414.42"/><polyline class="b" points="316.67 415.54 316.67 414.95 316.17 414.95 315.98 414.62 313.57 414.69 313.4 414.95 312.92 415.04 312.79 415.54 312.31 415.99 312.31 417.3 313.49 417.3 313.49 417.96 316.59 417.96 316.67 417.11 316.94 417.03 316.94 416.22 317.55 416.22 317.55 415.88 317.06 415.8 316.67 415.54"/><polyline class="b" points="324.49 375.22 324.96 375.26 325.03 375.67 325.44 376.1 325.95 376.1 326.06 375.83 326.56 375.75 326.56 375.22 326.9 375.22 326.98 374.92 327.52 374.92 327.35 372.57 324.49 372.5 324.22 372.92 324.22 374.23 324.41 374.37 324.49 375.22"/><polyline class="b" points="312.66 344.58 312.5 344.32 312.31 344.32 312.11 344.65 311.7 344.65 311.7 345.77 311.35 345.88 311.35 346.05 311.77 346.38 312.23 346.38 312.23 347 312.57 347.23 312.79 346.93 313.26 346.93 313.49 347.26 313.67 346.93 314.03 346.93 314.03 346.12 314.29 346.05 314.29 345.85 313.96 345.55 313.4 345.51 313.4 344.65 312.66 344.58"/><polyline class="b" points="319.09 361.06 319.15 360.52 320.04 360.52 320.21 360.25 320.9 360.25 320.9 359.75 321.65 359.75 321.65 360.32 323.84 360.32 323.84 359.89 324.26 359.4 324.68 359.33 324.76 358.79 325.03 358.79 325.03 357.92 325.57 357.95 325.49 356.65 325.03 356.6 325.03 356.3 324.8 356.27 324.76 355.42 324.33 355.5 324.15 355.77 323.65 355.77 323.65 356.38 322.53 356.38 322.34 356.6 321.92 356.6 321.85 357.15 321.57 357.15 321.65 358.44 321.07 358.44 320.96 358.1 320.21 358.03 320.12 356.99 320.46 356.88 320.39 356.53 320.21 356.46 320.21 355.7 319.71 355.7 319.24 355.27 319.15 354.8 318.63 354.89 318.19 354.54 317.58 354.54 317.52 353.96 316.97 353.96 316.91 354.8 316.33 354.89 316.41 356.27 316.91 356.27 316.91 356.88 317.17 357.08 317.79 357.08 317.79 357.6 318.63 357.58 318.69 358.29 318.19 358.37 318.12 359.14 317.94 359.14 317.86 359.83 317.33 359.83 317.37 360.17 318.19 360.66 318.19 361.06 319.09 361.06"/><polyline class="b" points="323.11 365.26 323.91 365.26 324.22 364.99 324.26 364.45 324.76 364.38 324.68 363.55 324.22 363.5 324.15 362.65 323.91 362.58 323.88 362.31 323.37 362.39 323.3 362.65 322.49 362.73 322.49 363.55 321.65 363.55 321.38 363.88 321.38 365.76 322.95 365.76 323.11 365.26"/><polyline class="b" points="323.65 370.24 324.07 370.24 324.22 370.58 326.74 370.58 326.74 368.25 326.48 367.91 325.99 367.91 325.9 367.41 324.57 367.41 324.49 367.94 323.72 368.02 323.58 368.99 323.3 369.13 323.3 369.63 323.58 369.74 323.65 370.24"/><polyline class="b" points="332.43 389.73 331.72 389.73 331.15 389.26 331.15 388.5 328.98 388.57 328.9 388.84 328.63 388.84 328.55 389.34 328.02 389.38 327.59 389.8 327.7 390.75 328.02 390.92 328.05 391.39 328.48 391.52 328.63 391.94 329.67 392.02 329.78 392.28 330.54 392.28 330.73 392.02 331.42 392.02 331.58 391.44 332.35 391.39 332.43 390.92 332.96 390.92 332.96 390.64 332.43 390.56 332.43 389.73"/><polyline class="b" points="326.78 404.27 325.95 404.27 325.95 403.92 325.41 404.01 325.41 404.7 325 405.2 324.57 405.2 324.65 406.68 324.11 406.96 324.11 407.19 324.38 407.27 324.54 407.54 325 407.54 325.15 407.99 325.61 407.95 325.68 407.38 326.78 407.46 326.87 407.11 327.32 407.11 327.39 405.2 326.78 405.2 326.78 404.27"/><polyline class="b" points="321.88 402.54 321.85 402.97 321.35 403.47 321.27 404.27 320.82 404.35 320.66 405.2 320.39 405.2 320.39 406 319.89 406.08 319.82 406.92 319.54 406.92 319.47 408.6 319.01 408.69 318.93 409.19 318.66 409.25 318.66 412.63 318.93 412.96 319.21 413.05 319.36 412.69 320.12 412.69 320.16 411.79 320.93 411.79 320.93 410.63 321.7 409.8 322.19 409.8 322.19 409.45 321.61 409.45 321.54 408.92 322.12 408.92 322.12 407.19 322.91 407.19 322.99 406.61 322.46 406.58 322.46 405.73 323.08 405.73 323.08 403.92 322.46 403.92 322.46 402.54 321.88 402.54"/><polyline class="b" points="332.08 394.09 331.5 394.01 331.42 393.54 329.51 393.47 329.44 394.09 328.9 394.09 328.66 394.36 328.48 394.44 328.48 394.85 328.66 394.97 328.9 395.81 330.47 395.74 330.47 396.26 330.62 396.35 330.69 395.81 332.35 395.81 332.27 394.44 332.08 394.09"/><polyline class="b" points="323.77 410.06 323.58 410.63 323.26 410.66 323.34 412.69 323.61 413.05 324.22 413.05 324.22 413.51 324.73 413.51 324.87 412.96 325.57 412.96 325.76 412.69 326.53 412.69 326.53 410.66 325.95 410.66 325.95 410.14 323.77 410.06"/><polyline class="b" points="333.31 381.43 332.96 381.27 332.96 380.73 331.15 380.77 331.12 379.62 331.46 379.55 331.58 379.2 332.08 379.2 332.08 378.94 331.58 378.94 331.46 378.1 331.15 377.74 330.69 377.74 330.62 377.21 329.51 377.29 329.41 377.74 328.9 377.74 328.9 378.67 328.55 378.74 328.63 379.47 328.82 379.62 328.9 380.39 330.81 380.39 330.89 382.45 331.46 382.45 331.39 383 331.85 383.34 332.88 383.34 332.88 382.49 333.23 382.45 333.31 381.43"/><polyline class="b" points="312.5 349.92 312.53 350.41 313.23 350.43 313.57 350.74 316.91 350.74 316.97 349.29 316.29 349.37 315.79 348.87 315.71 348.45 312.96 348.45 312.96 348.75 312.23 349.37 312.26 349.79 312.5 349.92"/><polyline class="b" points="262.53 390.3 262 390.3 261.92 389.76 261.15 389.76 261.07 390.3 260.46 390.3 260.46 390.56 260 390.64 259.93 391.39 259.16 391.49 259.01 391.75 258.47 391.82 258.47 392.56 258.2 392.71 258.12 393.21 257.67 393.21 257.32 393.59 257.35 394.93 258.02 394.93 258.05 395.46 258.28 395.54 258.28 394.97 258.66 394.93 258.73 394.69 259.58 394.62 259.66 394.24 260 393.82 260.72 393.75 260.8 392.91 261.03 392.91 261.15 392.37 261.5 392.37 261.83 392.02 261.92 390.92 262.46 390.92 262.53 390.3"/><polyline class="b" points="303.54 416.49 304.1 416.49 304.45 416.15 304.45 415.3 304.98 415.3 304.98 414.88 305.48 414.42 305.76 414.42 305.83 413.57 306.17 413.57 306.17 413.32 305.88 413.19 305.88 412.96 303.95 413.05 303.75 413.32 302.72 413.32 302.64 413.74 302.22 414.23 301.47 414.23 301.47 415.11 300.92 415.11 300.84 415.45 300.38 415.99 299.81 415.99 299.69 416.56 299.13 416.56 298.86 416.83 298.86 417.3 298.39 417.3 298.25 417.72 297.9 417.72 297.7 417.37 297.14 417.37 297.14 415.65 296.02 415.73 295.98 415.11 295.68 415.04 295.68 415.65 294.51 415.65 294.51 416.42 294.26 416.6 294.26 417.64 293.14 417.64 292.99 417.37 292.46 417.3 292.46 416.42 292.2 416.42 292.2 415.88 291.61 415.93 291.58 415.65 289.15 415.56 288.81 415.93 288.4 415.99 288.4 416.76 287.63 416.83 287.55 417.03 288.13 417.11 288.13 418.22 288.31 418.29 288.47 418.75 289.62 418.75 289.86 419.1 291.5 419.02 291.61 418.75 292.46 418.67 292.38 418.29 293.07 418.29 293.23 417.96 293.69 417.98 293.69 418.75 294.1 418.75 294.26 419.1 295.06 419.1 295.15 419.67 296.24 419.67 296.32 419.1 296.85 419.02 297.14 418.67 297.2 418.22 297.9 418.22 297.96 418.75 298.31 418.91 298.31 419.6 300.23 419.6 300.23 419.25 300.77 418.75 301.47 418.91 301.47 418.22 302.29 418.29 302.46 417.96 302.85 417.96 302.91 417.6 303.54 416.96 303.54 416.49"/><polyline class="b" points="258.31 372.92 257.35 372.92 257.28 373.58 256.47 373.49 256.39 375.91 256.67 375.98 256.74 376.6 259.31 376.52 259.43 377.74 259.08 377.83 259.08 378.33 259.34 378.35 259.34 379.2 259.77 379.2 260.04 379.47 261.73 379.39 262 379.12 262.46 379.12 262.46 377.9 261.92 377.9 261.83 376.95 261.57 376.95 261.5 376.37 260.12 376.52 260.12 375.07 260.72 375.14 260.68 373.58 260.12 373.58 260.12 372.88 259.69 372.65 258.47 372.65 258.31 372.92"/><polyline class="b" points="256.82 391.18 257.7 391.18 257.97 390.92 258.96 390.92 259.01 390.4 259.31 390.34 259.31 390.22 258.96 390.3 259.01 389.38 259.51 389.45 259.51 388.57 259.01 388.5 258.89 387.65 258.2 387.65 258.12 387.21 256.47 387.21 256.32 387.74 255.86 387.74 255.6 388.07 255.6 390.75 256.56 390.83 256.82 391.18"/><polyline class="b" points="265.37 391.82 265.09 391.49 264.6 391.49 264.45 391.82 262.75 391.82 262.75 392.21 263.14 392.28 263.1 393.13 263.57 393.21 263.71 393.75 263.99 393.82 264.05 394.44 262.8 394.44 262.8 395.81 262.35 395.93 262.25 396.43 262.61 396.43 263.1 396.92 263.14 397.53 265.01 397.53 265.29 397.25 265.37 396.35 265.9 396.35 265.9 394.97 265.13 395.05 265.01 394.01 266.82 394.09 266.86 393.75 267.7 393.75 267.7 393.25 268.05 393.13 268.05 392.71 267.7 392.37 267.17 392.37 267.17 391.82 265.37 391.82"/><polyline class="b" points="265.09 387.04 264.75 387.04 264.18 386.69 264.18 386.29 263.57 386.36 263.63 385.47 263.29 385.14 262.72 385.14 262.72 384.64 262.38 384.36 261.57 384.29 261.57 383.75 260.72 383.67 260.68 382.79 260.04 382.79 259.51 382.2 259.01 382.2 259.01 381.61 258.2 381.61 258.2 382.2 257.51 382.2 257.62 383.21 258.2 383.34 258.2 384.19 258.39 384.19 258.47 384.71 258.81 384.71 259.34 385.14 259.34 385.58 259.66 385.65 260.19 386.02 260.27 386.43 260.61 386.85 261.07 386.85 261.07 387.31 261.42 387.65 261.92 387.65 261.92 388.23 262.18 388.5 262.72 388.5 262.88 389.12 265.01 389.12 265.09 388.3 265.44 388.3 265.44 387.65 265.13 387.62 265.09 387.04"/><polyline class="b" points="255.6 394.01 256.06 394.01 256.21 393.25 254.4 393.21 254.4 392.71 254.14 392.71 254.14 393.21 253.87 393.25 253.72 393.54 252.91 393.54 252.94 394.09 252.34 394.17 252.06 394.44 251.91 395.9 248.69 395.81 248.28 396.17 248.12 396.26 248.54 396.51 248.69 396.92 248.28 397.04 248.28 397.31 248.69 397.62 250 397.53 250 398.16 250.34 398.33 250.53 398.42 250.77 398.07 251.03 398 251.18 398.33 251.64 398.33 251.8 397.73 251.99 397.62 252.14 397.25 252.6 397.31 252.68 396.96 252.14 396.96 252.06 396.26 252.27 395.81 253.18 395.81 253.18 396.35 253.44 396.35 253.56 395.81 254.6 395.81 254.75 395.46 255.51 395.54 255.6 394.01"/><polyline class="b" points="263.14 379.89 263.02 380.5 262.46 380.5 262.38 379.89 262 379.89 262 382.37 262.8 382.37 262.8 383.79 263.22 384.14 263.63 384.14 263.71 383.79 264.45 383.88 264.51 383 265.09 383 265.09 382.22 264.51 382.22 264.51 381.61 264.26 381.61 264.26 380.43 263.41 380.5 263.41 379.97 263.14 379.89"/><polyline class="b" points="328.87 409.86 328.94 410.3 329.74 410.33 329.82 410.97 329.97 411.01 330.09 411.79 332.03 411.79 332.08 411.18 333.11 411.18 333.18 410.91 333.77 410.91 333.77 409.53 333.28 409.53 333.28 409.25 332.03 409.19 332.03 408.6 331.27 408.6 331.12 408.33 330.69 408.33 330.66 407.72 330.5 407.72 330.44 408.33 329.74 408.33 329.67 408.69 328.6 408.69 328.66 409.64 328.87 409.86"/><polyline class="b" points="261.03 368.32 260.96 368.02 260.61 368.02 260.27 368.32 260.19 368.79 259.77 369.13 259.43 369.13 259.34 369.72 259.16 369.72 259.08 370.58 258.55 370.58 258.55 371.07 258.96 371.07 259.34 371.55 259.43 371.88 259.77 371.88 260 372.16 260.89 372.16 261.23 371.82 261.76 371.82 262 372.16 262.38 372.16 262.46 371.47 262.72 371.36 262.8 370.86 262.38 370.74 262.46 369.63 263.71 369.48 263.71 370.08 264.05 370.5 264.18 370.5 264.33 370.17 265.09 370.17 265.09 369.29 265.37 369.29 265.37 368.25 265.09 368.25 265.09 367.41 264.18 367.37 264.18 366.18 263.14 366.18 263.14 366.53 262.35 366.53 262.35 368.36 262.8 368.36 262.88 369.13 262 369.13 261.83 368.79 261.5 368.79 261.5 368.25 261.03 368.32"/><polyline class="b" points="255.71 380.92 255.86 381.2 256.67 381.27 256.74 381.77 256.93 381.77 257.01 381.27 257.17 381.27 257.28 380.92 257.78 380.92 257.78 379.62 257.24 379.62 257.24 378.71 256.93 378.67 256.88 378.17 256.13 378.17 256.06 377.83 255.51 377.83 255.44 377.29 255.01 377.29 254.94 377.83 254.68 377.9 254.68 379.39 255.01 379.47 255.01 380.92 255.71 380.92"/><polyline class="b" points="263.63 411.32 262.75 411.32 262.75 410.7 260.54 410.63 260.54 411.09 259.93 411.68 259.93 412.08 259.43 412.08 259.05 412.46 259.05 412.63 259.31 412.63 259.38 413.78 260.19 413.85 260.27 414.42 261.79 414.42 261.92 413.74 263.22 413.85 263.63 413.43 263.63 412.63 264.13 412.63 264.13 412.13 263.63 412.13 263.63 411.32"/><polyline class="b" points="292.99 420.29 292.81 420.36 292.46 420.74 292.46 421.16 291.96 421.16 291.88 422.08 291.68 422.08 291.53 422.35 291 422.35 291 423.73 291.53 423.73 291.61 424.34 291.88 424.49 291.96 425.45 292.46 425.45 292.57 425.19 293.07 425.19 293.14 424.61 293.92 424.61 293.95 421.94 294.19 421.65 294.19 421.16 293.34 421.09 293.34 420.55 292.99 420.29"/><polyline class="b" points="293.92 426.26 293.42 426.33 293.23 426.69 292.53 426.69 292.46 427.3 291.61 427.36 291.53 428.13 291.08 428.13 291 428.94 290.81 429.08 290.81 429.85 293.26 429.78 293.34 429.35 293.92 429.25 294.26 428.94 294.26 427.3 293.95 427.18 293.92 426.26"/><polyline class="b" points="297.78 422.54 298.78 422.54 298.86 421.65 299.43 421.65 299.43 421.13 298.05 421.13 297.9 420.63 295.71 420.55 295.64 421.04 295.37 421.16 295.37 422.54 296.06 422.54 296.24 422.89 297.64 422.86 297.78 422.54"/><polyline class="b" points="264.56 418.22 264.83 418.32 264.83 418.82 266.21 418.82 266.29 418.22 266.82 418.22 267.17 417.96 267.17 417.64 266.9 417.64 266.82 416.6 267.17 416.49 267.24 415.65 266.9 415.54 266.9 414.77 266.05 414.77 265.94 414.23 264.9 414.23 264.9 415.54 264.56 415.65 264.56 418.22"/><polyline class="b" points="280.74 409.19 280.8 407.81 280.46 407.46 279.96 407.54 279.96 406.92 279.62 406.64 278.4 406.64 278.16 406.92 277.47 406.99 277.44 407.54 277.08 407.88 277.08 409.1 277.44 409.25 277.47 410.36 279.89 410.36 280.04 410.01 280.5 410.01 280.57 409.8 281.41 409.8 281.35 409.19 280.74 409.19"/><polyline class="b" points="300.47 423.99 299.77 423.99 299.69 423.73 298.92 423.73 298.86 424.08 298.05 424.08 298.05 424.88 297.43 424.88 297.46 425.21 297.29 425.38 297.14 425.58 297.43 425.58 297.46 426.83 298.78 426.9 298.86 427.3 299.08 427.3 299.08 427.71 299.48 427.79 299.48 427.18 300.23 427.25 300.3 426.07 300.65 426.07 300.65 424.61 300.38 424.53 300.47 423.99"/><polyline class="b" points="277.36 405.65 278.16 405.73 278.25 405.46 278.75 405.46 278.78 405.12 278.25 405.12 278.16 404.01 277.36 404.01 277.29 403.4 275.63 403.4 275.56 403.81 275.21 404.24 274.79 404.24 274.79 406.15 275.29 406.23 275.37 405.65 276.17 405.73 276.24 406.31 277.29 406.23 277.36 405.65"/><polyline class="b" points="270.04 406.58 269.24 406.61 269.16 405.82 266.58 405.82 266.33 406.08 266.25 406.58 265.72 406.61 265.56 406.84 264.6 406.84 264.51 406.08 264.26 406.08 264.26 405.2 263.79 405.2 263.57 404.89 262.88 404.89 262.8 405.73 262.35 405.73 262.18 406.08 261.57 406.08 261.57 404.01 261.07 403.92 261.03 403.13 260.72 403.13 260.68 402.47 259.05 402.54 259.05 403.04 258.05 403.13 258.12 400.79 259.05 400.79 259.05 401.32 260.72 401.48 260.72 401.25 260.12 401.17 260.12 400.79 260.61 400.71 260.8 400.15 261.3 400.15 261.38 401.32 261.92 401.4 261.92 401.93 265.01 401.93 265.09 401.32 265.98 401.32 266.25 401.48 266.33 403.58 266.58 403.74 266.58 404.51 267.08 404.54 267.2 404.85 268.24 404.85 268.39 404.54 269.08 404.54 269.16 404.01 269.69 403.92 269.77 401.67 269.27 401.59 268.81 401.14 267.2 401.05 267.01 401.4 266.58 401.4 266.25 401.17 266.25 399.67 266.05 399.54 266.05 398.77 265.56 398.77 265.37 398.42 262.88 398.48 262.75 398.77 262.18 398.77 262.18 399.26 262 399.41 261.92 399.67 260.68 399.61 260.68 399.18 261.03 398.98 261.03 398.42 260.19 398.42 260.19 397.62 259.93 397.62 259.93 397.88 259.08 397.88 259.05 398.77 258.12 398.72 258.12 397.62 257.85 397.53 257.85 396.99 255.86 397.04 255.86 397.46 255.44 397.88 254.98 397.95 254.98 398.3 255.44 398.37 255.6 399.18 254.98 399.26 255.01 401.78 255.51 401.78 255.63 402.47 255.01 402.54 255.01 402.97 255.44 403.13 255.51 404.42 255.86 404.77 257.51 404.85 257.59 405.57 258.12 405.65 258.2 406.23 258.55 406.58 261.38 406.61 261.42 407.11 261.73 407.11 262.18 407.57 262.25 408.83 263.1 408.83 263.14 409.64 263.9 409.64 263.99 409.94 264.18 409.94 264.18 408.92 264.48 408.83 264.51 407.11 265.37 407.11 265.51 407.91 265.86 408.26 266.25 408.26 266.33 408.83 267.43 408.92 267.43 409.19 268.2 409.25 268.24 409.71 268.39 409.71 268.39 408.92 269.69 408.92 269.77 408.41 270.12 408.26 270.12 407.38 270.62 407.46 270.62 406.92 270.19 406.84 270.04 406.58"/><polyline class="b" points="272.37 404.89 272.87 404.51 273.22 404.54 273.22 404.01 272.64 403.92 272.53 403.04 273.33 403.04 273.29 402.2 272.64 402.28 272.64 401.59 272.3 401.4 271.34 401.4 271 401.67 271 402.47 270.45 402.63 270.45 403.92 270.95 403.92 270.95 404.85 271.23 404.85 271.23 405.3 271.76 405.39 271.91 405.65 272.37 405.65 272.37 404.89"/><polyline class="b" points="275.03 409.45 274.95 407.46 274.45 407.46 274.37 406.64 273.68 406.64 273.49 406 273.06 406 273.03 406.92 272.72 406.92 272.69 407.81 272.11 407.81 272.11 409.1 272.72 409.1 272.72 410.01 273.03 410.36 273.57 410.36 273.57 410.91 274.1 410.91 274.1 410.36 274.37 410.3 274.45 410.06 275.03 410.06 275.37 409.71 275.29 409.45 275.03 409.45"/><polyline class="b" points="316.72 409.25 316.72 407.81 314.65 407.81 314.6 408.38 313.75 408.38 313.75 409.25 313.49 409.32 313.49 411.18 314.29 411.18 314.36 411.74 315.64 411.74 315.75 411.18 316.59 411.24 316.86 410.79 316.86 410.09 317.55 410.09 317.47 409.25 316.72 409.25"/><polyline class="b" points="274.52 354.57 274.52 355.92 276.06 355.92 276.17 356.27 276.67 356.27 276.94 355.92 277.29 355.92 277.44 355 277.82 355 277.9 354.57 277.36 354.54 277.29 353.62 276.94 353.43 276.09 353.43 276.17 352.81 274.79 352.81 274.71 353.28 274.45 353.51 274.79 353.62 274.71 354.39 274.52 354.57"/><polyline class="b" points="273.14 345.01 273.06 345.51 272.72 345.55 272.72 346.38 272.18 346.45 272.18 348.04 272.69 348.1 272.72 348.94 274.33 348.94 274.52 348.65 275.03 348.65 275.03 348.19 275.29 348.04 275.48 347.77 275.91 347.77 275.98 347.23 276.17 347.15 276.13 345.62 275.83 345.35 275.83 344.93 273.14 345.01"/><polyline class="b" points="279.43 352.42 279.62 352.42 279.85 352.16 280.66 352.16 280.92 352.42 281.76 352.51 281.76 350.8 279.96 350.8 279.96 350.1 278.82 350.1 278.82 349.29 276.06 349.29 275.83 348.99 275.63 348.99 275.56 349.32 275.37 349.32 275.37 350.64 276.52 350.7 276.52 351.63 277.08 351.63 277.08 352.16 279.36 352.16 279.43 352.42"/><polyline class="b" points="278.32 338.27 278.28 338.53 277.36 338.53 277.29 339.03 276.94 339.4 276.48 339.4 276.48 341.37 277.93 341.45 277.97 340.78 278.82 340.78 279.08 340.45 279.15 339.99 279.69 339.99 279.62 339.4 279.08 339.38 279.08 338.27 278.32 338.27"/><polyline class="b" points="276.48 337.01 276.91 337.07 277.08 337.35 279.01 337.41 279.15 336.12 279.69 336.12 279.69 334.67 279.31 334.75 278.89 334.32 278.89 333.85 278.28 333.85 278.19 334.4 277.36 334.47 277.36 333.85 277.08 333.93 276.94 334.4 276.67 334.4 276.2 334.81 276.2 335.85 275.63 335.92 275.63 336.4 276.41 336.46 276.48 337.01"/><polyline class="b" points="288.13 334.75 289.01 334.75 289.01 335.85 288.47 335.97 288.47 336.46 289.24 336.46 289.24 337.01 289.69 337.07 289.86 337.84 290.2 338.27 290.97 338.27 291.08 338.73 291.35 338.73 291.58 339.03 291.64 337.91 292.2 338 292.2 336.8 291.64 336.8 291.58 335.92 291.23 335.63 290.81 335.58 290.81 334.75 290.47 334.67 290.47 333.59 290.73 333.59 290.73 332.68 291.31 332.68 291.64 332.32 291.64 331.87 291.35 331.71 291.35 331.22 289.36 331.3 289.36 331.71 288.93 332.15 288.47 332.21 288.47 332.68 287.55 332.75 287.55 333.59 288.13 333.59 288.13 334.32 287.63 334.4 287.55 334.54 288.13 334.54 288.13 334.75"/><polyline class="b" points="293.34 334.2 293.49 334.28 293.69 334.54 293.92 334.47 294.02 334.2 294.8 334.2 294.94 333.59 295.37 333.59 295.48 333.25 295.98 333.25 295.91 332.55 296.32 332.39 296.32 331.87 296.06 331.71 296.06 331.22 294.94 331.22 294.8 330.87 294.33 330.87 294.19 331.22 293.69 331.22 293.65 332.15 293.34 332.15 293.34 332.68 292.81 332.68 292.46 333.1 292.46 333.59 293.3 333.59 293.34 334.2"/><polyline class="b" points="294.72 341.1 293.99 341.17 293.92 340.26 292.88 340.26 292.81 340.87 291.99 340.87 291.68 341.21 291.64 341.71 291.08 341.78 290.73 342.05 290.81 344.62 293.3 344.62 293.49 344.32 293.92 344.27 294.19 343.97 294.26 343.15 294.8 343.15 294.87 342.59 295.15 342.54 295.15 341.71 294.87 341.64 294.72 341.1"/><polyline class="b" points="272.07 340.6 272.07 341.37 272.69 341.48 272.72 342.32 273.06 342.59 273.72 342.59 273.83 343.2 275.21 343.15 275.37 342.66 275.83 342.66 275.83 342.51 275.29 342.48 275.29 341.83 275.03 341.71 275.03 340.33 274.41 340.26 274.45 339.45 273.64 339.38 273.49 339.11 272.11 339.11 271.84 339.45 271.91 340.52 272.07 340.6"/><polyline class="b" points="285.13 348.71 285.29 348.19 286.06 348.19 286.24 347.84 286.94 347.84 287.02 346.73 286.48 346.63 286.41 345.88 286.06 345.51 285.9 345.81 285.29 345.81 285.13 345.51 283.57 345.51 283.48 345.77 282.79 345.77 282.87 347.87 284.1 347.87 284.61 348.38 284.61 348.8 285.13 348.71"/><polyline class="b" points="277.58 342.86 277.36 342.86 277.36 343.36 277.08 343.47 277.08 344.24 276.55 344.32 276.55 344.58 277.08 344.65 277.08 345.51 277.36 345.51 277.29 345.96 277.7 346.38 277.93 346.38 277.97 346.05 278.54 346.05 278.63 346.31 279.01 346.31 279.24 345.88 280.39 346.05 280.53 343.13 280.96 343.09 281.23 343.47 282.03 343.47 282.03 343.97 282.79 344.04 282.87 344.32 284.19 344.32 284.41 344.58 285.98 344.58 286.24 344.32 286.59 344.32 286.74 344.65 288.81 344.58 289.01 344.32 289.54 344.24 289.54 343.43 289.01 343.36 288.93 342.86 288.66 342.59 287.9 342.59 287.78 342.05 287.09 342.05 286.94 341.78 285.21 341.71 285.13 341.14 282.73 341.14 282.45 340.87 280.96 340.87 280.74 341.14 280.31 341.21 280.31 341.9 279.96 342.09 279.96 342.51 277.63 342.59 277.58 342.86"/><polyline class="b" points="263.1 357.67 263.46 357.67 263.9 358.19 263.9 358.79 264.18 358.86 264.33 358.53 264.75 358.53 264.87 358.86 265.17 358.86 265.44 358.6 265.51 358.03 266.05 358.03 266.58 358.25 266.58 358.94 266.33 358.94 266.25 359.22 265.72 359.28 265.79 359.68 266.25 359.75 266.33 360.66 265.72 360.71 265.79 361.47 266.25 361.55 266.25 362.09 268.89 362.09 268.89 361.55 269.27 361.21 269.69 361.21 269.77 359.83 269.27 359.75 269.16 358.94 268.31 358.94 268.31 358.25 267.96 357.95 266.68 357.95 266.33 357.92 266.33 357.08 266.82 357.08 266.9 356.3 266.25 356.27 266.25 355.5 265.98 355.5 265.98 354.66 265.51 354.66 265.44 353.69 266.21 353.62 266.25 353.28 267.01 353.35 267.29 353.01 267.7 353.01 267.7 351.7 267.96 351.55 267.93 350.82 267.63 350.59 267.63 350.14 267.29 350.14 267.17 350.67 265.56 350.74 265.44 351.02 264.87 351.02 264.83 351.43 264.4 351.9 263.99 351.98 263.99 352.48 264.51 352.58 264.6 353.08 264.83 353.16 264.83 353.96 263.99 354.04 263.9 354.39 263.49 354.89 263.02 354.8 262.88 355.42 263.1 355.5 263.1 356.11 262.75 356.27 262.75 357.08 263.02 357.26 263.1 357.67"/><polyline class="b" points="249.11 383.34 249.16 383.82 249.5 384.19 250.34 384.25 250.34 384.64 251.03 384.71 251.24 385.04 253.37 385.04 253.56 384.78 253.87 384.78 254.05 385.14 254.25 385.14 254.48 384.78 255.18 384.78 255.18 384.44 254.68 384.36 254.25 384.1 254.33 383.6 252.88 383.6 252.83 382.79 252.18 382.79 251.83 382.45 250.15 382.45 249.81 382.04 249.65 381.61 249.46 381.61 249.39 382.2 248.47 382.2 248.54 383.26 249.11 383.34"/><polyline class="b" points="247.09 377.68 247.86 377.74 247.93 374.72 247.06 374.72 247.06 374.29 246.4 374.29 246.4 373.54 245.1 373.41 245.16 376.57 245.66 376.64 245.66 377.47 246.48 377.47 246.55 378.35 247.06 378.35 247.09 377.68"/><path class="b" d="M246.55,381.54v-0.89h-0.35l0.07-.76h-0.61l-0.07-.34h-0.77l-0.19.25H244l-0.08-.75h-0.27l0.08-2.64L244,373.8l0.34-2.57,0.5-2.55h0.77l0.11,1.49,0.3,0.07v0.84h0.54l0.15,0.28h1.06l0.51-.35v-0.69l0.49-.08V370h-0.65l0.16-1.1-0.34-.08L248,368h-0.61v-0.58l-0.33-.11v-0.77l-1.7-.11L246,364l0.8-2.33,0.88-2.31,1-2.22,1.12-2.22h0.61l0.18-.42,0.43-.08,0.07,0.54,1.09,0.07,0.08,0.78h0.56l0.11-.56h1v0.62H256l0.09-.56h0.61l0.07,0.5h1l0.07-.5,0.54,0.07,0.08,1.11-0.27.08-0.08.8-0.45.08v2.26l-0.31.08,0,1.19h-0.58v1.38l-2.6,0v1l-0.35.18v1.31h2.27v-0.35l0.41-.47,0.77-.08v-1.64l1.65-.08,0.19-.26,0.43-.09,0.15-.49,0.18,0,0.09-1.12,0.26-.08v-1.46h0.5l0-.6,0.43-.52h0.5v-0.26l-0.5.08L261,355.07h0.61v-1.14h-0.35l-0.58-.64H260l-0.32.34h-0.38v0.84l-0.5.43H258.2l-0.08-.93H257l0-.34h-0.84l-0.07-.34H255.6V352.8l-1.73-.07-0.14-.26-0.7-.08-0.11-.54-0.23-.07-0.08-1.26,1.23-1.73,1.07,0.15v0.62h0.54l0.16,1.11h1.11l0,0.85h1l0.15-1h1l0.08,0.81,0.33,0.34h2.45l0.08-.89,0.5-.07,0.08-1.64-0.58.07-0.08-.68-0.33-.32h-0.73l-0.08-.54h-0.76l-0.09.88h-0.53l-0.08.66L259,349l0.11,1.1-1.3-.08v-0.42l0.34-.16v-0.54l-0.27-.07-0.07-.43h-0.35l-0.19-.26h-0.88v-0.69l-0.3-.19h-0.62v-0.61l1.91-2.19,2.08-2.06,0.76,0.1v0.54l0.24,0.34H261l0.08,0.46,0.42,0.15-0.07,2.27h0.41v0.56l0.46,0.35,0.54,0.08v0.53l1.6-.07,0.11-.54h0.58v-1.17h0.42l0.2,0.26h0.53v0.92l0.31,0.08v1.41h0.35l0.61,0.35-0.08.42,0.42,0.08,0.46,0.47v0.34h1.46v-0.54h0.85v-1l0.26-.19,0.07-.16-0.29-.19,0-.42,0.33-.15V347.3l-0.33-.31v-0.54l-0.58-.15v-0.8h-0.35V345l-0.45-.12v-0.5l-0.32-.15,0-.46H268.2L268,343.5l-0.34-.08,0.08-.84h1.3l0.16-.34h0.45l0.15-.54,0.2-.07v-1.73l-1.91.08-0.21.27h-0.42l-0.08.84-0.26.07v0.47l0.26,0.23-0.08,1.56-0.77.08,0,0.88h-0.31v1.19l-1-.07-0.19-.58h-0.42l-0.16-.69h-0.18l-0.16-.46-0.69.08-0.11-.35h-0.88L262.41,342l-0.5-.07v-1.84l2-1.57,1,0.21,0.07,0.37h0.46v0.57l1.71-.14,0.09-.54h0.45l0.42-.35v-1.29l-0.34-.09v-1.1h0.93l0,0.27h0.58v0.61h1.11v0.32h0.8V338l1.22-.09,0-.52,0.95-.09-0.07-.49h-0.43l-0.1-.88-0.35-.34-0.5.08-0.08-.69-0.19-.16-0.07-.61,0.26-.07-0.08-.5,1.07-.54,0.77,0.19,0.11,0.3h1.65l0.08,0.61,0.5-.07,0-.78,0.22-.18,0.11-.43,0.78-.07,0.07-1.14h1.38l0.08,0.37h0.61l-0.34-.28,0.08-.68h0.72l0.3-.34v-0.35l2.66-.72,0,1.77h-0.49L282,332.94l-0.38.09v3.43l1.72,0.08,0.11-.35H284l0.27,0.35,0.16,2.19,0.27,0.34,0.53,0.08v0.57l0.85-.08,0.07-.58h0.81l0.34-.34v-0.82l0.53,0.09,0-.66h-0.5V336.8l-0.26-.07v-0.81H285.9l-0.19-.21h-0.23l-0.35.26v0.57h-0.61l-0.19-.42v-1.38l0.61-.08v-1.38h0.19l0.08-1h0.5l0.11-1.65h0.59v0.86l2.25,0v-0.61h-0.53l0-.79h0.35l0.07-.17h-0.45l0-1h0.77l0-.61,0.8-.12,0.09,0.62,0.42,0.11-0.08.19,0.53,0.08v0.58h3.18V328h2.91l2.91,0.19,2.87,0.35,2.87,0.5,2.87,0.66-0.27.3h-0.49v2l1.45,0,0.09-.61h0.79l0.28-.35,0.07-.46h0.58l0-.15,1,0.31v0.38l-0.26.09-0.08,2.49h0.24l0.11,0.61,0.35,0.25h0.5l0.08,0.63h0.53l0.08-.81,0.27-.07V332h0.56v-0.16l-0.5-.08,0-.42,3.37,1.46-0.18.24h-0.66l0,0.37-0.51.08v0.16l0.43,0v1h-0.58l-0.27.34v0.15l0.27,0.16,0.08,0.94-0.27.28v0.27L315.6,337v0.45l-0.42.23v0.46l0.27,0.08v0.54H316v0.29h0.8L317,339.7h0.43l0.11-.63h1.11v-1.18h0.59l0-.62h0.3l-0.07-3.1h0.3l3.21,1.91v0.32l-0.37.37-0.5.08v0.5l-0.88.07v0.82h0.53V339l-0.5.07,0,0.11h0.53v0.23h0.88v1.12l-0.53.11v0.51h0.76v0.52l0.46,0.09,0.15,0.76,0.35,0.38h0.78l0.12,0.5H325l0.22,0.28,0.08-1.13,0.53,0.09v-1.15h-0.53l-0.08-.93-0.34-.27-0.43-.07V339.4l-0.34-.07v-1.11h0.27v-0.88h0.5a51.1,51.1,0,0,1,9.65,8.8l1.65,2-0.38.07v1.12h-0.28l-0.07.88-0.54.07v0.77l-0.35.11V352l-0.58.07v1l-0.25.11-0.09,4H334l-0.07.54h0.58l0.07-.88h0.81l0.14-1.46h0.53l0.24-.26,0-.59,0.5,0.09,0.08-.88h0.27l0.08-1.2h0.46l0.05-1.91,0.11-.08,1.41,2.21,1.31,2.26,1.14,2.31v0.23l-0.45.54h-0.61l-0.08.43-0.5.07v0.11l0.43,0.08v1H340l-0.31.35v0.15l0.31,0.11,0,1-0.28.29V362l0.35,0.11v0.5l-0.42.19v0.49l0.31,0.08v0.54h0.54v0.26h0.85l0.1,0.65h0.43l0.15-.65h1.07v-1.14h0.56l0-.61h0.09l0.72,2.2,0.66,2.27,0.49,2.26-0.22.23-0.47.08v0.45l-0.91.08v0.85h0.58v0.76l-0.5,0-0.08.16h0.58V372h0.88v1.11l-0.54.16v0.46h0.75v0.56l0.5,0.08,0.15,0.73,0.19,0.26,0.16,3h0l-0.09.5-0.34.38h-0.46v2l0.93,0-0.2,3h-1.88l-0.07-.59h-0.43l-0.14-.26h-0.54l-0.34.33v0.54h-0.61l-0.15.31-0.63,0V385h0.58v1h-0.69v1.3h0.46v-0.46h1l0.08,0.46H344l0-.54h0.5l0.08-1,0.19-.16,0.08-.45h1.56l-0.35,2.56-0.45,2.52L345,392.75l-0.71,2.48,0-.69h-0.69l-0.22-.61H343l-0.07.87h-0.27l-0.08.93H342V397h0.65v0.88l0.27,0.35h0.34l-0.84,2-0.46-.07H341l-0.08-.89H340.5v-0.56h-0.76l-0.15-.28h-1l-0.26.35h-0.62l-0.07.49-0.54.08-0.08.74-0.27.08v0.42l0.19,0.19,0.08,1,0.53,0.07V403l0.93,0.09v0.53h1.45l-0.08,1.11-0.34.35-0.58.08v0.45l-0.27.17-0.18.79h-0.51l-0.26.35-0.07.85-0.46.14-0.5.73H335.8l0.07-.7,0.58,0-0.15-1.88-0.35-.08-0.14-.8-0.73-.08-0.15-.85h-0.8l-0.08-.8-0.26-.34h-0.7l-0.14-.85h-1.39l-0.14-.61-0.8-.08V401.4H330l-0.18-.26-0.16-1,1,0-0.16-1.62-0.18-.07-0.09-.53-0.49.07-0.07-.34-1-.08-0.07.27-0.85.08v2.91h1.53l0.47,0.61-0.07,2.18,0.34,0.16,0.08,0.68h0.68l0.17,0.35,0.53,0.08,0.07,0.88,0.27,0.09v0.49h0.62v0.79l0.35,0.27h0.68l0.16,0.9,0.45,0.13v0.42l0.35,0.27,0.49,0.09L335,409.6l0.43,0.27-0.08.69-0.27.19-0.08.77-0.56.07-0.18.61-0.54.27-0.08.77-2.92.08,0-.35-0.34-.08v-0.45l-1.61,0-0.11.59h-0.43l-0.42.34v0.53l-0.53.08v0.69h1.38l0,0.46,2.39,0.08-0.08.76v0.69l-1.07,1-1.81-.08-0.19.58-0.27,0,0,1.38-1.6,1.23,0-.17-0.28-.33-0.27.14-0.26.26v0.54l-0.85.07-0.07.5-0.54.09v0.5l-1.27.84-2.17-.07-0.2.52-0.26.09,0,1-1.61.79-0.42-.07-0.88-.16-0.08-.77-0.14-.08-0.08-.45h-0.47l-0.15-.26h-0.35l-0.18.26H315l-0.21-.26h-0.22V424l-0.74.08-0.08.45-0.23.08v0.85l-0.61.12-0.08.5h0.66l-0.09.52-0.41.09-0.2.5-0.3.4h-1.34l0-2.05-0.62-.08v-0.58h-0.87v0.66h-0.5l-0.35.34-0.08.46H308l-0.22-.53h-0.53l-0.51-.49v-0.43h-0.42l-0.35-.38,0-.42h-0.49l-0.43-.5-0.07-.42H303.6l-0.11-.27-0.24-.11v-0.43l-0.38-.34h-0.3l-0.35.34,0.07,1.92,0.43,0.34h0.46l0.07,0.85,0.24,0.08v0.61h0.35v0.8h0.37l0.5,0.42v0.43l0.54,0.07v0.53l0.84,0.28v0.5l-0.5.11-0.34.34,0,0.43-1.31.23-0.73-.16-0.11-.54h-0.58v0.62h-2.19l-0.23-.91-0.46,0v-0.86l-2.49.08v0.47h-1.46v0.34l0.58,0.16v0.41H297l0.12,0.54-0.46.07-0.08.59h-2.22l-2.26-.07-2.25-.2-0.09-.38-0.26-.27h-0.58v-0.84l0.61,0.07v-0.88H289v-0.95l-0.35-.3h-1.38l-0.15.35-0.39.07-0.07.43h-0.61v0.07l0.26,0.19,0.09,0.93-0.35.1,0,0.88-1.27-.27,0-.61-2.54-.34-0.07-.95,0.33-.09,0.09-.26-0.27-.19-0.08-2.07h0.35l0.12-.35,0.35,0.09V424.6l0.33-.08,0-2.06h0.82l0.23,1.19,0.27,0.16v0.45h0.26l0.08-.61h1.57l0.08,1.22-0.35.15v0.43l0.35,0.12v0.5h2.87v-0.59H290l-0.08-.82-0.27-.07-0.11-.53H289l-0.08-.35h-0.77l0,0.43H287l-0.08-1.54h0.26v-1.79h0.61v-1.38H287.2v-2l-0.79-.07v-0.54l-0.24-.15,0.07-.8h-0.18l-0.08.61h-0.77v-0.54h-0.61v0.73l-1.12.08-0.08-.82-0.18-.29h-1.46l-0.11-.54H280.8l0.08-2.06-0.35-.12v-0.76h-2.75l-0.43.34,0.08,1.23L277,414l0.07,0.73,0.27,0.15,0.08,0.43H278l0.31,0.33,0.26,0.19v0.35h0.88l-0.07.49-0.28.18v0.5l0.28,0,0.07,0.5h3.18V417l1.14,0.08,0.08,1.17-0.35.08-0.08,1.09,0.43,0.29v0.38l-0.26.23v1.23l-0.78.07-0.27-.42-1.22-.08-0.3.28-0.65.07-0.08.5H280l-0.08,3.37,1.23,0.08-0.09.88-0.71.15v0.73l-0.35.3v0.54l-0.58.07-0.18.38-2.62-.95-2.55-1,0.07-1.38h0.74l0.08-.8h0.34v-1.81h0.77l0.14,0.35h0.47l0.16-.35,2.18,0.08,0.07-.88h0.49l0.08-1.38-0.84-.07v-0.93h-0.5l-0.12-.26h-2l0,0.91-0.58,0-0.07,2.22-0.47.07L275,421.09h-1.31l-0.11.35-0.5.07V422l-0.27.08V425l-1.64.12-2.19-1.23,0.16-1.23,0.61-.08,0.08-.49,0.23-.11,0.12-.85h0.76l0.19-.26h0.69l0.08-.62,0.85,0.08-0.35-.24v-0.34h0.35l0.07-2.27h0.65l0.16,0.52,0.34,0.33h2l-0.08-2.36h-0.38l-0.42-.38v-0.77h-0.62v-0.54h-0.5l-0.69-.49v-0.69h-0.53v-0.62h-0.62l-0.23-.26h-0.89V411.4l-0.33-.16V410.7h-0.7l-0.15-.34H269.5l-0.34.43v0.53l-1-.08-0.17-.8h-0.65l-0.14-.35-2.61,0v1.61l0.8,0.11,0.08,0.84h2.18l0.16-.5,0.26-.11,0.09-.26h0.5l0,0.8H269l0.3,0.34,0.19,0.16v0.45H270v0.85l0.31,0.08v0.73l0.88,0.07,0.07,0.85,0.7,0.07,0.11,0.27h0.5l0.15,0.8-0.92.08-0.08.35h-1.31v0.6h-1.21l-0.08.78h-0.77l-0.08.91-0.73,0-0.5.58h-0.46v0.46l-0.29.15v0.2l-1,.1-2.31-1.75L260.89,418l-2.12-2-2-2.06,0.07-1.19h0.35v-1.45h0.54l0.07-1.65h-0.49l-0.11-.41h-0.15l-0.12-.91-0.58,0v-0.52h-0.53v0.47l-0.35.13v0.28H255v1.37l-1.22.08L251.61,407l0.27-.53,1.56,0.07,0.28-.26,0.07-.62,0.54,0.08-0.08-1.46h-0.46l-0.07-1.8-0.35-.19h-1l-0.35.35v0.47l-0.53.07v2l-1,.08-1.07-2,0.19-.3,0.07-1h0.82v-0.49l0.35,0,0-.29-0.31,0,0-.69,0.34-.15v-0.47h-1.69l0,0.47-0.42.15-0.65,0-1-2.44-0.89-2.48-0.71-2.58-0.67-2.56-0.45-2.61h0.77l0.07,0.58h0.35l0.15,0.34h1.65l0.12-.34h1.68l0,1.11,0.31,0.11v0.85h0.46l0.08,0.62,0.27,0.07v0.72h-1.12l-0.19-.27h-1.2l-0.33.43v1.3h0.84v0.62l0.33,0.3,0.5-.08,0-.26,0.5,0v-1.42l0.27-.09,0.23-.26,1.08,0,0.22,0.31h2.19v-0.85l0.69-.08,0.07-.34h-0.61l-0.07-1.3-0.28-.19-0.07-.27,0.35-.15v-0.62h-0.85V388l-0.35-.1v-0.68l-0.72-.08-0.08-.27h-0.54l-0.07-.56H250.6l-0.07-.36h-0.46l-0.15.36h-0.46v0.56h-1.19v-0.56l-0.42-.36h-0.47l-0.08-.6-1.65.07v0.53H245.1l0,0.93-0.5.07-0.07-.91-0.43,0-0.27-2.78-0.11-2.83,0.47,0,0.08,1.36,1.23,0,0.21,0.3,0.54,0.09,0.07-.26h0.78v-0.35h-0.5Zm-3.73,34L244.6,418l1.87,2.38a63.64,63.64,0,0,0,74.14,17.45l2.76-1.27,2.69-1.41,2.6-1.53c60-39.57,23.31-129.69-47.25-116.15l-2.9.72-2.92.88-0.8-.19-0.84-.07-0.82,0a5.42,5.42,0,0,0-4,2.72l-2.62,1.23L264,324.13a63.75,63.75,0,0,0-13.8,10.49l-2,2.06-1.87,2.19-0.5-.73c-6.59-7-14.89,4.77-6.05,8.58l0.84,0.2-1.26,2.25-1.19,2.25-1.07,2.35-0.76.45-0.67.57-0.56.7-0.43.8-0.34.8-0.16.88,0,0.92,0.12,0.88,0.27,0.85-0.85,2.92L233,366.48l-0.54,3-0.42,3-0.27,3-0.11,3A63.19,63.19,0,0,0,241.19,413Zm67.64,12.57H310l-0.26.33-0.92-.07v-0.53h0.5l0.07-.61,1.07,0.11Z"/><polyline class="b" points="251.15 365.83 252.88 365.83 252.88 363.58 252.14 363.58 251.99 363.34 251.8 363.23 251.64 362.73 250.53 362.73 250.53 362.46 250.34 362.46 250.28 363.34 249.46 363.34 249.16 363.62 249.11 364.45 248.35 364.45 248.19 364.72 247.73 364.81 247.73 365.22 248.28 365.31 248.28 365.92 248.69 366.18 251.11 366.18 251.15 365.83"/><polyline class="b" points="171.57 443.07 175.43 446.33 179.39 449.51 183.42 452.57 187.55 455.51 191.73 458.36 195.99 461.06 200.31 463.69 394.83 463.69 399.16 461.06 403.42 458.36 407.63 455.51 411.73 452.57 415.76 449.51 419.73 446.33 423.61 443.07 171.57 443.07"/><polyline class="b" points="251.18 358.86 251.18 359.71 251.38 359.89 251.53 360.59 252.27 360.66 252.34 361.13 252.76 361.21 253.02 361.55 253.44 361.47 253.79 361.13 253.79 360.59 254.4 360.59 254.25 359.75 253.87 359.75 253.79 359.14 253.56 359.14 253.44 358.03 252.91 357.98 252.91 357.15 251.18 357.15 251.18 357.84 250.84 358.03 250.88 358.79 251.18 358.86"/><polyline class="b" points="295.41 335.58 294.8 335.58 294.26 335.97 294.33 336.46 293.69 336.54 293.69 337.3 294.19 337.41 294.26 338.27 294.37 338.34 294.51 338.79 294.87 338.79 295.15 339.14 295.37 339.14 295.41 338.88 296.24 338.88 296.24 338.27 297.01 338.18 297.2 337.84 297.75 338 297.75 337.41 298.05 337.3 298.05 335.63 297.75 335.58 297.75 334.81 295.56 334.75 295.41 335.58"/><polyline class="b" points="261.38 362.93 261.76 362.93 262.25 363.55 262.8 363.55 262.8 364.31 263.14 364.57 263.14 365.07 264.45 365.07 264.45 364.45 265.44 364.64 265.44 365.26 265.79 365.33 265.72 366.03 267.63 366.18 268.05 365.83 268.05 365.42 268.31 365.26 268.39 364.99 269.16 364.99 269.24 364.38 269.84 364.45 269.84 363.77 269.27 363.77 269.24 363.55 268.92 363.27 267.51 363.27 267.35 363.55 266.25 363.55 266.25 364.38 265.22 364.31 265.13 363.82 264.6 363.82 264.6 361.78 263.71 361.82 263.71 361.47 263.46 361.44 263.46 360.66 262 360.59 261.92 360.86 261.03 360.86 261.03 361.44 261.38 361.55 261.38 362.93"/><polyline class="b" points="256.47 367.75 257.28 367.75 257.43 368.36 258.89 368.32 258.96 367.82 259.84 367.82 260.12 367.56 260.19 367.03 260.68 367.03 261.03 366.68 261.03 366.18 260.68 366.1 260.61 364.81 259.84 364.81 259.77 364.45 258.28 364.45 258.2 364.81 257.62 364.81 257.62 365.15 257.35 365.33 257.17 365.68 256.74 365.68 256.67 366.1 256.39 366.6 255.94 366.6 255.86 366.95 256.39 367.03 256.47 367.75"/><path class="b" d="M276.41,377.86l0.18-1.64c4.34-20.79,32.93-20.78,37.24,0l0.24,1.64,0,1.65,0,1.65-0.24,1.63-0.34,1.62c-6.45,21.17-36.49,17.21-37.17-4.9Zm-7-21.94,0.08,0.88h0.69l0.19,0.28h0.85v0.87l-0.28.15v1.3l0.35,0.28h0.46v0.84l0.93,0.07v0.36a28.75,28.75,0,0,0-6.07,12.52l-0.33,1.95h-0.11v-1.65H266l-0.08-.3h-0.53l-0.08-.63-0.28-.18h-0.5l-0.07-.35-0.69.08v0.53h-0.62v1h0.5l0.08,0.92,0.34,0-0.07.84h0.61l0.08,0.35h1.54l-0.16,2a29,29,0,0,0,3.57,15.52l1,1.72h-1.35l0,0.63h-0.7l0.12,3,0.42,0.07,0.16,0.35h1.3l0.4-.42v-0.85h0.56v-1l-0.56,0v-0.65h0.43a29.61,29.61,0,0,0,9.78,8.77l2,1-0.16.15,0,0.42h-0.34v0.28H282l0.07,1.29,0.58,0.07v0.54l0.18,0.09,0.16,1.44-0.34.08v0.26H282l0.07,1.92h0.7l0.07,0.34h2.84l0.19-.27h0.5v-0.87h0.53v-0.5l-0.49-.14v-0.38l-0.68-.66h-0.81v-1.22h0.27l0.16-.64h0.45l0.08-.82h-0.53l0-.5,1.84,0.61L289,408v0.42l-0.88-.17v0.35h-0.61v0.55H287.2l0.15,1.26,0.17-.08,0,0.61H288l0.08,0.21,0.35,0.14v0.42l0.34,0.08,0.07-.58h0.73l0.31-.34v-0.54h0.61l0.34-.27-0.08-.56-0.26-.28h-0.58l0-.62-0.24-.08,0-.42,2.34,0.38,2.34,0.17h2.34v0.23H297l0.38,0.4v0.47l3.8,0v-0.5l-0.54-.07v-0.81h0.46l0-.27,1.65-.38-0.08,2.3h0.43l0.15,0.43h0.12l0.15,0.53,0.07-.61h0.73l0.15-.27H305l0.08-.3h0.77v-0.61h-0.88l0-.78,0.35,0,0-.68-0.35,0V407l1.84-.72,1.83-.86,0.16,0.24h0.68l0,0.88-2-.08-0.18.34h-0.78v0.62H307v0.91l0.34,0v0.51h1.31l0.42,0.49v0.38h1.08l0.08-.88h0.26l0.09-1.46h0.5l0-.54H310l-0.19-.15,0-1h0.43v-0.34h0.43l0.11,0.31h0.35l0.08-.31h0.68l0.17-.45,0.18-.17,0.08-.42-0.35,0v-0.88l1.65-1.22,1.54-1.33,0.24,0.18H316l0.08,0.27h2.18l0.42-.34v-0.76h1.16l0,1.1h1.77v-1.17l0.65,0.08-0.08-2.34H321.7l-0.09-.35h-0.34l0.08-.46H320.5l-0.12.81h-0.56v0.53h-0.35l0.07,1.12H318.4l-0.16-.77h-0.77l0-.31a29.36,29.36,0,0,0,5.51-9.77l0.62-2.17H326V387l-0.85.09v0.53h-0.61v1l-0.33.26,0.07,1.92H325l0.07-.61h0.77v0.61h0.19l0.08-.53h0.34v-1.19l0.42-.07v-0.81h0.42l0.2-1.11h-0.7l0.08-1.58h1L328,386h0.72l0.08,0.52h1l0.08,0.26,0.33,0.08,0.14-.34h1l0.11-1.73h0.58v-0.27h-1.27l-0.27-.33H330.4l-0.14-.63h-0.33l-0.16-.29-1.07.08-0.16-.62H327.7l0,0.54-0.85.08v0.85h-2.48l-0.3.15,0.23-1.73,0.15-1.76,0.16,0.27,1.91-.11,0.08-.42,0.33-.43h0.77l0-1.41h-1.14v-0.68H326v0.61h-1.3l-0.24,0-0.11-2.07a29.07,29.07,0,0,0-8.88-18.23L313.87,357l0.35-.23h0.89l0.07-.88h0.53l0.08-2.23-1.3-.07-0.5-.43v-0.45h-0.27v0.45l-0.19.16-0.23.34h-0.38l-0.34.27,0,1.46-0.08.58-2.37-1.6,0-.31h0.57l-0.07-.54-0.58-.07v-1.12h-0.73l-0.08.27H308.4l0,0.5-0.18.18-2.34-1,0-.73h0.84l0.08-1.38h-1.38l-0.24-.26-1.29-.12-0.16.3h-0.18V351l-0.28.07v0.34l-2.33-.56-2.37-.38,0-.56,0.27-.16,0.07-.81,0.51,0.09v-0.59h-0.85v-0.26L298,348v-0.47l-0.5.09-0.11.45h-0.84l-0.19-.42v-1.84l-0.42-.27h-1.57l-0.15.27h-0.5l0,0.53-0.23.08-0.19.18-0.42.09,0.07,1.31,0.77,0v0.69H295l0.14-.58,0.22-.07v-0.27H296l0.27,0.42-0.07.26-0.35.07-0.11.78h-0.31l0.07,0.53-0.33.09,0,0.37-2.92.15-0.07-1.49h-0.52v-0.76l-0.37-.19v-0.5h-0.5l-0.08-.27-0.26-.07-0.08-.52h-1.12v0.52l-0.34.15v1.64l0.34,0.09v0.53h0.59l0.07,0.8,0.27,0.16v0.18l-2,.46,0-.15-0.85-.09v-0.76l-0.34-.11v-0.42l0.34-.16v-0.19l-0.69-.08v0.54l-2,.07-0.28.27,0.08,0.84-0.58.09-0.11.46-0.27.07v0.53l0.35,0.16v0.38l-1.77.8-1.68.91-1.65,1.07-1.54,1.11-1.49,1.27-1.38,1.35-0.31-1h-0.42l-0.08-.95h-0.8V356.6l-0.31-.08V356h0.85l0.07-1.39,0.21-.18V354l-0.35-.34h-0.53v-0.19l-0.77-.08-0.16-.54-0.38,0-0.15.58H270L270,354h-0.68l0,0.76-0.7.09,0.19,1h0.69Z"/><polyline class="b" points="253.29 367.41 253.22 367.91 252.94 367.99 252.94 368.36 253.22 368.44 253.29 369.55 252.94 369.74 252.88 370.5 251.5 370.58 251.5 370.86 251.24 370.93 251.24 371.47 250.95 371.55 250.95 372.39 250.42 372.39 250.07 372.57 250.34 372.65 250.42 373.34 250.15 373.47 249.93 373.88 249.5 373.88 249.46 374.37 249.16 374.37 249.22 374.79 249.5 374.84 249.5 376.78 250 376.78 250.07 378.35 250.28 378.35 250.34 379.2 250.77 379.2 250.88 379.55 251.24 379.55 251.24 380.92 254.25 380.95 254.33 379.94 253.72 379.94 253.72 378.96 253.44 379.05 253.44 377.9 252.88 377.83 252.83 376.45 252.49 376.18 251.91 376.18 251.91 374.23 252.52 374.23 252.68 373.97 253.1 373.88 253.29 374.23 253.44 374.23 253.72 373.88 253.79 373.34 254.25 373.34 254.33 371.78 253.79 371.68 253.79 371.36 253.44 371.36 253.37 370.17 254.48 370.08 254.68 370.5 254.9 370.5 255.01 371.01 255.18 371.01 255.44 370.43 255.63 370.17 256.13 370.08 255.97 368.02 255.18 367.99 255.18 367.41 254.4 367.37 254.25 366.53 253.9 366.53 253.79 367.41 253.29 367.41"/><polyline class="b" points="334.69 368.36 335.49 368.36 335.49 367.91 335.83 367.82 335.83 367.14 335.65 367.06 335.56 366.53 335.15 366.37 334.94 366.26 333.31 366.18 333.07 366.45 332.61 366.45 332.54 366.95 332.11 367.32 331.69 367.25 331.69 368.36 332.19 368.36 332.35 368.7 334.6 368.7 334.69 368.36"/><polyline class="b" points="338.73 386.51 339.09 386.77 339.59 386.77 339.62 387.38 340.19 387.38 340.26 386.54 340.54 386.51 340.54 384.21 341.08 384.21 341.08 384.1 340.61 384.03 340.54 383.34 340.26 383.26 340.26 382.71 338.73 382.79 338.73 383.34 338.46 383.42 338.38 385.87 338.6 385.87 338.73 386.51"/><polyline class="b" points="338.55 378.67 338.2 378.59 338.2 377.13 336.75 377.13 336.68 377.74 336.21 377.83 336.21 378.94 335.91 378.94 335.86 379.8 335.3 379.89 335.3 380.65 334.94 380.77 334.94 381.54 334.42 381.61 334.42 382.65 334.16 382.79 334.07 386.77 334.42 386.77 334.33 387.31 334.88 387.31 334.94 386.43 335.8 386.43 335.91 384.99 336.47 384.99 336.68 384.71 336.75 384.19 337.22 384.21 337.29 383.34 337.56 383.34 337.64 382.15 338.12 382.15 338.2 380.23 338.55 380.11 338.55 378.67"/><polyline class="b" points="337.56 390.38 337.29 390.14 337.29 389.73 336.82 389.69 336.68 389.45 336.47 389.34 336.41 388.84 335.3 388.84 335.3 389.19 334.84 389.73 334.2 389.73 334.16 390.14 333.65 390.22 333.65 390.38 334.07 390.4 334.07 391.44 333.5 391.44 333.23 391.78 333.23 391.94 333.5 392.1 333.57 393.06 333.31 393.32 333.31 393.59 333.65 393.75 333.65 394.2 333.23 394.44 333.23 394.9 333.5 394.97 333.5 395.5 334.07 395.5 334.07 395.81 334.88 395.81 335.02 396.43 335.45 396.43 335.56 395.81 336.68 395.81 336.68 394.62 337.22 394.62 337.29 394.01 337.56 394.01 337.51 390.92 338.12 390.92 338.12 390.56 337.64 390.56 337.56 390.38"/><polyline class="b" points="342.26 373.41 342.26 372.92 341.92 372.65 341.14 372.65 341 371.68 340.74 371.68 340.19 371.27 340.11 370.86 339.69 370.82 339.55 370.58 338.73 370.58 338.65 370.05 337.56 370.05 337.56 369.72 337.1 369.72 337.02 370.86 336.05 370.86 335.8 370.5 335.02 370.5 334.88 370.05 334.33 370.05 334.07 370.58 333.31 370.5 333.15 370.82 332.43 370.82 332.43 372.5 333.5 372.57 333.5 373.15 333.77 373.15 333.85 372.5 334.8 372.57 335.02 372.24 336.41 372.31 336.41 371.36 337.51 371.43 337.64 372.24 337.02 372.24 337.02 372.46 337.88 372.65 337.96 373.09 338.46 373.09 338.46 373.97 339.09 374.46 339.09 374.87 339.84 374.87 339.89 375.22 340.54 375.26 340.54 375.96 341.25 376.03 341.44 376.57 341.68 376.78 341.75 377.25 341.44 377.25 341.44 377.83 340.56 377.9 340.56 378.71 340.04 378.71 339.95 380.08 340.54 380.15 340.54 381.27 343.06 381.2 343.14 380.92 343.67 380.92 343.74 380.34 344.02 380.34 344.02 378.96 343.56 378.71 342.79 378.71 342.79 376.9 344.02 376.9 344.02 376.1 343.74 376.03 343.64 374.65 343.14 374.65 343.06 373.76 342.88 373.49 342.26 373.41"/><polyline class="b" points="340.46 389.73 339.69 389.73 339.62 390.3 339.16 390.3 339 391.18 338.73 391.18 338.73 391.68 338.46 391.78 338.46 392.28 338.73 392.37 338.73 393.09 339.09 393.25 339.09 393.75 339.34 393.67 339.5 393.17 340.46 393.17 340.46 393.75 341 393.79 341.08 393.17 341.92 393.17 342.26 392.82 342.3 392.37 342.79 392.37 342.79 391.78 342.3 391.78 342.26 390.72 341.92 390.3 340.54 390.38 340.46 389.73"/><polyline class="b" points="337.88 358.67 338.7 358.67 339 358.33 339.04 357.87 339.62 357.87 339.55 357.3 339 357.26 339 356.15 338.24 356.15 338.17 356.41 337.29 356.41 337.22 356.91 336.87 357.3 336.37 357.3 336.37 359.25 337.82 359.33 337.88 358.67"/><polyline class="b" points="334.88 397.88 334.6 397.66 334.46 397.62 334.33 397.95 333.57 397.95 333.57 398.65 333.23 398.77 333.23 400.15 333.46 400.22 333.46 400.76 333.77 400.68 333.77 400.22 334.42 400.22 334.42 400.68 334.69 400.76 334.77 400.15 334.88 400.15 335.02 399.26 335.56 399.26 335.56 398.42 334.94 398.42 334.88 397.88"/><polyline class="b" points="327.99 368.36 328.4 368.36 328.55 368.7 328.9 368.87 328.9 369.67 330.54 369.67 330.54 367.91 330.32 367.82 330.27 367.32 329.7 367.32 329.7 366.45 329.17 366.03 329.17 365.26 328.55 365.26 328.55 366.18 328.05 366.18 327.7 366.53 327.7 366.98 327.94 367.06 327.99 368.36"/><polyline class="b" points="328.82 374.87 329.32 374.87 329.44 375.22 330.54 375.26 330.73 374.87 331.15 374.87 331.15 374.19 331.5 373.97 331.5 372.92 331.23 372.8 331.15 371.68 330.47 371.68 330.27 371.43 329.7 371.47 329.7 372.24 328.9 372.31 328.82 373.34 328.48 373.54 328.48 373.97 328.9 374.1 328.82 374.87"/><polyline class="b" points="327.7 364.38 328.21 364.38 328.28 363.55 328.63 363.43 328.63 362.46 328.28 362.31 328.21 361.78 327.78 361.78 327.59 361.51 326.94 361.51 327.09 360.66 327.59 360.66 327.86 360.39 328.55 360.32 328.55 359.03 328.21 358.75 328.21 358.33 327.86 358.33 327.59 358.07 326.32 358.07 325.9 358.33 325.99 358.79 326.22 358.94 326.22 360.32 326.68 360.39 326.74 360.94 325.9 360.94 325.87 361.55 325.38 361.55 325.44 362.58 325.1 362.73 325.03 362.93 325.29 363.08 325.38 364.11 326.14 364.19 326.25 364.45 326.74 364.45 326.82 364.99 327.63 364.93 327.7 364.38"/><polyline class="b" points="335.15 374.65 334.94 374.29 334.42 374.29 334.11 374.56 334.07 375.22 333.57 375.22 333.39 375.48 333.11 375.48 332.81 375.22 332.61 375.22 332.27 375.48 332.35 376.86 332.69 376.98 332.69 377.47 334.6 377.47 334.77 376.86 335.49 376.9 335.83 376.57 335.83 376.03 336.41 376.03 336.41 375.14 335.83 375.14 335.83 374.65 335.15 374.65"/><polyline class="b" points="308.13 348.94 308.22 350.41 308.62 350.43 308.81 350.74 311.05 350.74 311.12 349.29 310.55 349.29 310.55 348.45 310.16 348.1 309.66 348.06 309.58 347.49 309.23 347.3 308.54 347.3 308.47 346.69 307.86 346.38 307.93 347.3 307.32 347.3 307.4 348.94 308.13 348.94"/><polyline class="b" points="305.56 335.13 305.56 335.63 305.22 335.66 305.22 336.4 305.56 336.42 305.64 337.84 307.82 337.91 307.93 337.27 308.86 337.35 308.86 337.78 309.13 337.91 309.13 338.45 308.86 338.53 308.86 338.95 309.04 339.14 309.13 339.99 308.86 340.06 308.78 340.49 309.01 340.56 309.01 341.32 309.63 341.4 309.63 341.67 310.59 341.67 310.59 342.54 312.19 342.44 312.26 341.32 312.69 341.32 312.84 341.67 313.23 341.67 313.37 340.76 313.37 339.91 313.79 339.91 313.79 339.11 313.3 339.14 313.23 338.18 312.84 338.12 312.84 337.41 312.34 337.27 312.34 336.3 311.66 336.3 311.66 336.66 311.35 336.66 311.31 336.08 310.59 336.05 310.55 335.47 309.78 335.4 309.69 334.78 309.13 334.7 309.2 334.5 308.35 334.5 308.35 334.7 307.51 334.7 307.51 334.54 307.05 334.54 307.05 335.04 306.29 335.04 305.56 335.13"/><polyline class="b" points="306.09 344.13 306.17 344.58 307.01 344.65 307.05 345.28 307.82 345.17 307.9 344.65 308.75 344.65 308.75 345.17 309.39 345.23 309.36 344.39 308.86 344.32 308.78 342.94 308.17 342.94 307.82 342.66 307.64 342.59 307.55 342.05 307.05 342.05 307.01 341.14 306.71 341.1 306.68 340.33 306.02 340.33 305.91 339.99 305.3 339.99 305.3 339.49 304.25 339.45 304.1 339.11 303.6 339.11 303.6 338.18 302.99 338.18 302.88 337.73 301.85 337.73 301.85 338.53 300.92 338.53 300.92 339.11 301.5 339.11 301.58 339.64 301.85 339.79 301.92 340.45 302.64 340.45 302.72 340.78 303.22 340.78 303.3 341.64 303.57 341.71 303.57 342.32 303.91 342.59 304.37 342.59 304.45 343.36 305.3 343.5 305.3 344.04 306.09 344.13"/><polyline class="b" points="300.3 344.58 300.3 344.04 301.15 344.04 301.23 343.43 301.5 343.43 301.5 343.09 302.11 343.09 302.11 342.59 301.5 342.51 301.5 341.71 301.08 341.71 301.15 341.14 300.74 341.1 300.58 340.87 300.3 340.67 300.3 340.33 299.77 340.33 299.69 340.06 298.92 340.06 298.92 340.87 298.48 340.87 297.96 341.28 297.96 342.05 297.43 342.14 297.43 343.36 298.05 343.43 298.05 344.04 298.86 344.04 298.86 344.58 300.3 344.58"/><polyline class="b" points="297.43 331.75 297.46 333.36 298.05 333.53 298.05 334.14 298.39 334.2 298.39 334.7 298.98 334.81 298.98 335.31 299.93 335.31 300.01 335.58 300.7 335.58 300.62 336.23 302.03 336.16 302.08 334.62 302.43 334.7 302.38 333.59 304.79 333.59 304.79 334.04 305.56 334.14 305.64 334.4 306.34 334.4 306.49 333.7 306.14 333.59 306.14 332.94 306.76 332.94 306.49 332.39 306.4 331.63 305.3 331.56 305.22 331.22 304.6 331.22 304.52 330.72 303.42 330.72 303.19 330.37 302.64 330.37 302.43 329.88 301.89 330.11 301.8 331.22 301.3 331.3 301.26 328.69 300.19 328.65 300.16 329.04 300.7 329.34 300.7 330.18 299.39 330.18 299.39 329.42 298.89 329.19 298.81 328.49 298.31 328.49 298.31 329.26 297.46 329.26 297.43 329.95 297.14 330.18 297.2 331.71 297.43 331.75"/><polyline class="b" points="301.5 348.19 301.58 348.65 301.85 348.99 302.88 348.99 302.99 348.71 303.57 348.71 303.57 347.93 304.1 347.93 304.1 346.63 303.57 346.63 303.57 345.51 300.92 345.51 300.92 347.23 300.58 347.26 300.58 347.77 300.92 348.1 301.5 348.19"/><polyline class="b" points="328.87 346.62 329.09 346.34 329.47 346.27 329.78 346 329.82 345.17 330.4 345.17 330.47 344.62 330.73 344.53 330.73 343.74 330.47 343.68 330.32 343.09 329.54 343.15 329.47 342.27 328.44 342.27 328.4 342.89 327.55 342.89 327.29 343.25 327.21 343.74 326.68 343.78 326.32 344.08 326.4 346.62 328.87 346.62"/><polyline class="b" points="313.46 342.59 314.29 342.59 314.22 343.47 314.71 343.47 314.83 343.28 315.6 343.28 315.6 343.82 315.21 343.82 315.21 346.07 315.6 346.34 316.02 346.34 316.02 347.26 317.79 347.26 317.97 346.87 318.66 346.87 318.66 348.42 318.12 348.42 318.19 348.99 318.66 349.06 318.66 349.92 320.08 349.92 320.16 349.61 320.58 349.61 320.61 349.82 321.27 349.92 321.35 350.93 319.85 351.02 319.85 352.55 319.51 352.48 319.44 354.19 320.21 354.28 320.61 354.62 320.71 355.12 320.96 355.12 321.11 354.5 322.23 354.5 322.23 354.19 323.08 354.19 323.15 353.66 324.26 353.73 324.26 353.35 325.29 353.35 325.29 352.31 325.87 352.4 325.87 351.86 326.56 351.86 326.56 350.87 326.14 350.87 326.14 351.2 325.79 351.2 325.79 350.93 325.22 350.93 325.15 350.32 325.64 350.32 325.57 349.56 326.06 349.56 326.06 348.8 325.57 348.8 325.53 348.15 325.9 348.15 325.9 347.61 325.38 347.3 325.38 346.69 324.8 346.69 324.76 345.77 323.98 345.77 323.91 346.12 323.26 346.12 323.34 346.69 322.88 346.62 322.81 346 322.3 345.93 322.23 345.43 321.54 345.32 321.54 344.88 321.11 344.96 321.03 344.58 321.46 344.58 321.54 344.19 320.96 344.13 320.96 343.7 320.5 343.7 320.43 342.86 319.75 342.86 319.59 342.37 319.33 342.27 319.33 341.9 318.12 341.83 318.12 342.37 317.86 342.37 317.86 342.66 317.2 342.66 317.13 342.09 316.59 342.09 316.59 341.6 316.02 341.6 316.02 341.17 314.92 341.17 314.79 341.75 314.36 341.75 314.36 342.09 313.53 342.09 313.46 342.59"/><polyline class="b" points="333.34 360.54 332.43 360.63 332.35 361.13 332.57 361.4 333.18 361.4 333.28 361.82 333.28 362.39 332.08 362.39 332 361.82 331.05 361.82 330.89 362.44 330.12 362.44 330.12 364.03 330.62 364.11 330.62 365.04 332.92 364.95 332.92 364.61 333.39 364.11 333.81 364.19 333.88 363.58 334.91 363.43 334.91 364.11 335.22 364.45 336.02 364.45 336.1 363.43 336.02 362.31 335.76 361.9 336.25 361.62 336.25 361.06 335.76 360.97 335.76 361.4 334.98 361.4 334.98 360.89 334.38 360.97 334.38 360.29 333.81 360.29 333.88 359.95 333.28 359.86 333.34 360.54"/><polyline class="b" points="329.7 349.06 329.44 349.15 329.44 349.68 329.12 349.76 329.12 350.59 328.6 350.59 328.24 350.8 328.52 350.87 328.6 351.55 328.32 351.67 328.1 352.09 327.7 352.09 327.63 352.58 327.35 352.58 327.39 353.01 327.7 353.05 327.7 355 328.16 355 328.24 356.56 328.44 356.56 328.52 357.41 328.94 357.41 329.09 357.76 329.44 357.76 329.44 359.14 332.46 359.18 332.5 358.14 331.88 358.14 331.88 357.17 331.61 357.26 331.61 356.11 331.08 356.03 331.01 354.66 330.66 354.39 330.12 354.39 330.12 352.42 330.73 352.42 330.86 352.16 331.27 352.09 331.5 352.42 331.61 352.42 331.88 352.09 331.96 351.55 332.46 351.55 332.5 349.98 331.96 349.92 331.96 349.56 331.61 349.56 331.53 348.38 332.65 348.3 332.85 348.71 333.07 348.71 333.18 349.21 333.34 349.21 333.61 348.65 333.85 348.38 334.3 348.3 334.2 346.23 333.34 346.19 333.34 345.62 332.57 345.57 332.46 344.74 332.11 344.74 331.96 345.62 331.5 345.62 331.42 346.12 331.15 346.19 331.15 346.57 331.42 346.63 331.5 347.77 331.15 347.95 331.08 348.71 329.7 348.8 329.7 349.06"/><polyline class="b" points="336.18 365.22 336.75 365.31 336.79 366.42 336.25 366.42 336.25 366.92 337.64 367.03 337.56 367.59 338.2 367.59 338.29 366.98 338.73 366.98 338.81 367.68 339.04 367.8 339.59 367.75 339.59 368.87 339.84 368.87 339.84 369.32 340.56 369.32 340.56 370.24 342.88 370.17 342.79 368.7 342.3 368.7 342.22 367.94 342.72 367.94 342.64 366.98 342.22 366.98 342.15 367.32 341.54 367.25 341.39 366.76 340.56 366.82 340.5 366.32 339.84 366.32 339.74 365.45 339.04 365.45 339.04 364.72 338.55 364.69 338.46 365.15 337.64 365.15 337.64 364.88 337.88 364.88 337.85 363.93 337.45 363.95 337.51 364.45 336.79 364.45 336.79 364.81 336.1 364.81 336.18 365.22"/><path class="b" d="M79.76,625.13l6.91-22,6.62,22H79.76Zm431,18.79h9.87l0.07-16.27c0-5.47,1.29-8,3-9.72a8.62,8.62,0,0,1,6.7-2.88,12.53,12.53,0,0,1,1.66.14l0.07-8.71a14.16,14.16,0,0,0-2.09-.22,9.54,9.54,0,0,0-9.22,6.55l-0.29-5.54h-9.65Zm-26.71,1.44c11.81,0,19.8-7.92,19.8-19.87,0-11.74-8.06-19.66-19.51-19.66-11.09,0-19.29,7.92-19.29,19.66C465.09,637.44,473.29,645.36,484.09,645.36Zm0.58-7.7c-5.11,0-9.5-3.67-9.5-12.17,0-8.21,4.46-12,9.43-12,4.75,0,9.15,3.31,9.15,12.24C493.74,634.42,489.06,637.66,484.67,637.66ZM486,602.89h9.86V593l-9.86-.07v10Zm-12.89,0H483V593l-9.79-.07Zm-29.37,41h9.79v-30.1h7.2v-6.55h-7.2v-0.72c0-3.31.58-4.25,1.22-4.9,0.79-.86,1.94-1.51,4.32-1.44h1.66V593h-5.69c-3.31,0-12.31.58-11.3,14.32h-5.4l0.07,6.55h5.33v30.1Zm-57.38,4-0.07,8,6.84-.07c6.26,0,9.29-3,9.29-9.65l-0.07-38.88h-9.79l-0.07,34.63c0,5.18-1.51,6-3.89,6h-2.23Zm6.12-46.15h9.93L402.37,593h-9.86v8.78ZM354.78,628.3L382,628.37c0-10.87-5-22.39-18.58-22.39-14,0-18.43,11.16-18.43,19.51,0,12.17,8.06,19.73,18.36,19.73s16.49-5.54,18-12l-9.93-.65c-1.87,3.38-4.46,4.75-7.63,4.75C359.1,637.37,355.29,634.2,354.78,628.3Zm0.43-7.13a8.38,8.38,0,0,1,8-7.49c4,0,7.49,2.74,8.13,7.49H355.22Zm-57.09,19,0.36,3.74h9.79V593h-9.94v18.5c-1.66-2.88-5.83-5.33-10.51-5.33-8.14,0-16.27,6.84-16.27,19.66a21.41,21.41,0,0,0,4.75,14,13.88,13.88,0,0,0,11.16,5.33A13,13,0,0,0,298.12,640.18Zm-7.7-3.53c-4.68,0-8.71-3.31-8.71-11.09,0-8.71,4.25-11.81,8.28-11.81s8.28,3.1,8.28,11.52C298.27,633.34,294.09,636.58,290.42,636.65Zm-58.61,7.27h9.86l0.07-20.52c0-2.88.58-4.25,1.36-5.4a7.41,7.41,0,0,1,6-3.1c3.39,0,5.91,2.23,5.91,6.33l-0.07,22.68h9.86V618.08c0-6.84-5-12.1-12.6-12.1-5.25,0-8.93,2.81-10.22,5.69l-0.36-4.32-9.72-.07Zm-18.29-4.18a12.93,12.93,0,0,0,1.3,4.18h9.93c-0.58-.51-1.51-2.16-1.51-5.18L223.1,620a18.36,18.36,0,0,0-.51-5C221.09,610,217,606,207,606c-11.37,0-15.91,5.83-15.91,12.24l8.71,0.14c0.36-2.45.72-3,1.51-3.67s2.81-1.73,5.76-1.73c4.61,0,6.33,2.45,6.33,4.18s-1.08,3-3.74,3.46l-9.93,1.73c-7.42,1.29-10.87,6.12-10.87,10.94,0,6.34,4.9,11.74,13.75,11.74C208.77,645,212.16,642.56,213.53,639.75Zm0-15.34v5.47c-0.29,4.61-3.38,7.78-8.71,7.78-4.18,0-6.12-2.45-6.12-4.61,0-1.73.86-4,6.7-5.4l4.25-1.15A8.09,8.09,0,0,0,213.53,624.41Zm-5.9-21.53,9.93,0.07V593H207.7Zm-12.82,0h9.86l0.07-10h-9.87Zm-29.73,41h9.72l12.53-36.65h-10L170,631.4l-7.27-24h-10Zm-50,0h9.86L125,623.4c0-2.88.58-4.25,1.37-5.4a7.4,7.4,0,0,1,6-3.1c3.38,0,5.9,2.23,5.9,6.33l-0.07,22.68H148V618.08c0-6.84-5-12.1-12.6-12.1-5.26,0-8.93,2.81-10.22,5.69l-0.36-4.32-9.72-.07Zm-52,0H73.78l3.39-10.73h18.5l3.24,10.73h10.8L92.28,593H81Z"/><path class="b" d="M130.73,731h9.72L153,694.36H143l-7.34,24.12-7.27-24h-10Zm311,2c0.5,3.46,1.51,5.4,3.6,7.35,2.23,2.16,6.33,4.18,13.46,4.18,7.92,0,13-3,15.48-6.12,1.66-2.23,2.59-4.25,2.59-9.72l-0.07-34.34h-9.43l-0.29,4.46c-0.72-1.15-2.66-5.76-10.8-5.76-8.86,0-16.63,7.06-16.63,18.36s7.77,18.44,16.49,18.44c5.83,0,9.5-2.67,10.87-5.47v4c0,6.19-2.81,8.78-8.5,8.78-4.25,0-6.26-2.16-6.63-4.46Zm16.77-11.66c-4.83,0-8.86-3.46-8.86-10.23,0-5.9,4.11-9.65,8.57-9.65s8.64,3.74,8.64,9.93S462.7,721.36,458.53,721.36ZM399.92,731h9.86l0.07-20.52c0-2.88.58-4.25,1.37-5.4a7.4,7.4,0,0,1,6-3.1c3.38,0,5.9,2.23,5.9,6.33L423,731h9.86V705.16c0-6.84-5-12.1-12.6-12.1-5.26,0-8.93,2.81-10.22,5.69l-0.36-4.32-9.72-.07Zm-17.49,0h9.86V694.36H382.5Zm0.07-42.19h9.87V680H382.5v8.78ZM342,731h9.86l0.07-20.52c0-2.88.58-4.25,1.37-5.4a7.4,7.4,0,0,1,6-3.1c3.38,0,5.9,2.23,5.9,6.33L365.07,731h9.86V705.16c0-6.84-5-12.1-12.6-12.1-5.26,0-8.93,2.81-10.22,5.69l-0.36-4.32-9.72-.07Zm-33.84-4.25c2.09,3.39,5.69,5.47,10.73,5.47,10,0,16.2-9.29,16.2-19.73,0-10-6-19.29-16.06-19.29a13.26,13.26,0,0,0-10.65,5l-0.43-3.74-9.72.07L298.26,743h9.79Zm8.78-2.09c-4.75,0-8.71-3.17-8.71-11.09,0-8.85,4.32-12,8.35-12s8.5,3.31,8.5,11.45C325,718.48,322.74,724.6,316.91,724.67ZM280.77,731h9.86V694.36h-9.79Zm0.07-42.19h9.86V680h-9.86v8.78ZM263.27,731h9.86V680h-9.79Zm-41-12.24c0.21,6.91,6,13.54,17.28,13.54S256,726.18,256,719.63a10.36,10.36,0,0,0-2.23-6.41c-1.37-1.73-3.17-3-7.49-4l-10.51-2.45c-2.23-.58-3.17-1.94-3.17-3.24s1.37-3.67,6.12-3.67c5.26,0,7.56,2.74,7.63,5.69l8.64-.14a12.78,12.78,0,0,0-5.26-9.65c-2.09-1.51-5.47-2.81-10.87-2.81-10.51,0-15.19,5.69-15.19,12a9.7,9.7,0,0,0,2.52,6.91c1.29,1.37,3,2.52,7,3.38l8,1.8c4.61,1,5.18,2.45,5.18,4.18s-1.58,4.1-7,4.1c-5.18,0-7.78-2.73-8.06-6.55ZM215.82,731v-7.56h-3.67a3.7,3.7,0,0,1-2.88-1.37,5.86,5.86,0,0,1-.43-2.88V701.05h6.63v-6.7h-6.63l-0.07-11.59H199v11.59h-5.19v6.77l5.19-.07V720c0,8.28,3.38,11,8.85,11h8Zm-36.64-4.18a12.8,12.8,0,0,0,1.29,4.18h9.93c-0.58-.51-1.51-2.16-1.51-5.18l-0.14-18.72a18.64,18.64,0,0,0-.5-5c-1.51-5-5.61-9.07-15.55-9.07-11.45,0-15.91,5.83-15.91,12.24l8.71,0.14c0.36-2.45.72-3,1.51-3.67s2.81-1.73,5.76-1.73c4.61,0,6.33,2.45,6.33,4.18s-1.08,3-3.74,3.46l-9.93,1.73c-7.42,1.29-10.87,6.12-10.87,10.94,0,6.34,4.9,11.74,13.75,11.74C174.43,732.08,177.74,729.64,179.18,726.83Zm0-15.34V717c-0.29,4.61-3.38,7.78-8.71,7.78-4.18,0-6.12-2.45-6.12-4.61,0-1.73.86-4,6.7-5.4l4.25-1.15A8.13,8.13,0,0,0,179.18,711.49ZM172,690.11a5.11,5.11,0,1,0-5.33-5.11A5.14,5.14,0,0,0,172,690.11ZM171.91,688a3,3,0,0,1-3.17-3,3.21,3.21,0,0,1,3-3.1A3.06,3.06,0,0,1,171.91,688Z"/><path class="c" d="M35.39,297.62c0,144.79,117.43,262.22,262.21,262.22S559.75,442.41,559.75,297.62,442.39,35.48,297.6,35.48,35.39,152.84,35.39,297.62Zm425,132.81c67.48-82.54,62.72-204.34-14.27-281.34s-198.85-81.8-281.39-14.32ZM134.66,164.87C67.23,247.41,72,369.27,149,446.25S347.78,528,430.31,460.51Z"/></svg>