<svg xmlns="http://www.w3.org/2000/svg" viewBox="0 0 595.28 850.37"><defs><style>.a{fill:#e5e8eb;}.a,.b,.c{fill-rule:evenodd;}.b{fill:#000100;}.c{fill:#ad1922;}</style></defs><title>P034_C</title><polyline class="a" points="0 850.37 595.28 850.37 595.28 0 0 0 0 850.37"/><path class="b" d="M293.87,272.62L264.36,301l-3.52-1.32c-70.3-23.86-135.61,43.38-109.69,113l1.41,3.49,14.75-5.47,1.46,3.08c40.87,73.92,149.52,33.69,132.35-49l-0.88-3.31,16.64-6.12,0.49,0.88c0.32,0.58.66,1.16,1,1.72,3.74,5.83,8.66,5.26,14.49,7.08,1.07,0.33,2.12.76,3.21,1,8.6,2,19.08,4.43,27.82,2.83,1.81-.33,4.77-0.88,5.42-1.1l1.71-.58c4.48,0.34,11.71.51,15.57-1.94,0.56-.35,1.16-0.63,1.73-1,4-2.4,8-5.34,9.86-9.77l0.49-1.14,0.36-1.1,1.49,0.27c14.17,0.07,37,.45,33.24-20.38l-0.22-.73L435,331.5c21.11,2.44,31.08-19.82,29.27-38.29l-0.05-.57,1.21-1.32c5.27-5.75,6.67-13.75,5.67-21.34-2.92-22.13-5.6-18.4-23.86-31.86l-0.14-.44,0-.4-0.19-.61c-5.35-16.61-21.6-45.59-17.25-63.09,0.37-1.5.83-3,1.14-4.49l0.47-2.29-4-4a186.75,186.75,0,0,0-71.89-43.12L350.07,118l-0.1,2c0,82.38-55.64,41.76-55.78,148.56l-0.15,2ZM267.65,378l-0.62-.52-0.35-.05-0.11-1.08,0.68-.09V375l0.25-.18,0.15-.44h0.56l0.39-.35H269l0.13,0.91,0.7,0.05,0.39,0.26,0.14,2-0.41.21,0,0.54Zm8.61-3.07-0.08-.84-0.82,0,0-.49,0.47,0,0.27-.36,0.14-.26v-0.31l0.52-.09,0.15-.22h1.1l0.12-.54,0.88-.12-0.08.56,1.58,0.1-0.09,1.4H279.8v0.93l-2.43,0-0.14.34Zm9.21-3.13,0-.52-0.63,0v-0.61l0.53,0.08,0.23-.82,0.21-.4,0.61-.09,0.06-.52h1.06l0.12-.26,0.71-.06,0.34,0.32H289l0.09,0.52,0.26,0.27,0.14,0.34-0.4.14v0.84l-0.49-.09-0.18.36h-0.88l-0.08.66Zm-0.57,12.68-0.09-2.33h0.63l0-.89,0.26-.26,0.53-.18,0.12-.52,0.85,0v-0.66l-0.53-.09,0-.52-0.79-.05-0.4-.35,0-.47-0.88-.1,0-.26-0.54,0-0.38-.35,0-1.49h-0.49l-0.3-.27-0.09-.91-0.53,0,0-.84-0.93-.14v-2h2l0,0.62H284l0.34,0.3,0,0.57h0.53l0.4,0.36,0.1,0.57,0.43,0.08,0.4,0.31V375h0.56l0.11,0.79,0.58,0.12,0.3,0.4,0.36,0-0.09.84,0.4,0.12,0.09,0.53h0.53v1.1l0.3,0.17,0,0.8h-1.28v0.79l0.49,0.53H289l0.09,0.52,0.3,0,0.09,0.57-0.49.09,0.09,1.47,0.4,0.17-0.53.44h-1.64l-0.08.61L286.7,385l0-.53Zm-8.64-4.62-0.08-.71-0.3-.21,0-.44h0.88l0.43-.66,0.84-.09v-0.5h1.73v0.59h0.7v0.27h-0.7l0,1.35-0.31.4h-3.27Zm2.17,11.09-0.36-.56-0.4-.09-0.09-1.11h-0.4V389l0.49-.12,0.23-.28,0.17-.35V387.7l0.27-.14V387l-0.18-.14-0.09-.39,0.36-.19v-1.36l0.65-.09v-1.17l0.18-.28,0.09-.3,0.44,0,0.44-.4v-0.88h0.61v-0.44l0.4-.26-0.08-.79h0.34l0.44-.31h0.66v0.93h0.66v1.41l-0.66.1v2.71l-0.27.09-0.08.84h-0.58v1.18l-0.31.19v0.78l-0.49-.08-0.53.53,0.09,1.35H279.8v0.93h-1.36Zm-12.11-8.15,0.35-.2v-0.72l0.49,0,0.12-.61h1.32l0.26-.32,0.39,0.27,0.18,0.7h1.45l0.18,0.27h0.48v-0.93h0.58v-0.93l0.39-.36h1.05l0.18,0.36,1.11,0.08,0.08,0.58h0.58v0.79h-0.58l-0.08,1.46-0.31.26,0.17,0.52h2l0.15,0.84,0.56,0.14,0,0.58h-0.61l-0.14.84-0.17.08-0.14.53-0.58-.09-0.21.38h-0.32l-0.26-.38V386h-0.56l-0.1-1.9H273.9l-0.18.41-0.36-.13-0.17-.35h-0.7l-0.09-.49h-0.84l-0.08-.93h-1.24v0.58l-0.3.12v0.79l-0.88,0-0.14.27-1.26.09-0.49-.36v-0.49l-0.59-.08-0.25-.4v-0.45Zm-4.71,3.58,0-.49,0.44-.26v-1.64h1.45l0-.26,1.46-.08,0.39,0.34,0,0.62h0.79l0.21,0.26,0.44,0.09v0.54h-0.56l-0.09.82-1.68.07-0.21.61-0.8-.09,0-.52h-0.93l-0.17-.27h-0.49Zm7.7,2,0.36-.14,0-.78,0.92-.06,0-.61h1.42l0,0.52,0.84,0.09,0.12,0.27h0.8l0.08,0.56,1,0v0.54l0.58,0.09v0.56l0.25,0.12V390l-1.09.09-0.13.27-0.66,0v0.52h-0.44v-0.56l-0.76,0,0,0.61h-0.44l-0.12-.66-1.49,0-0.27-.31V389.5H269.8l-0.4-.39Zm-3,6.65v-0.84l0.25-.09,0.15-.47,0.53-.09v-1.1l0.91-.09V391.7l0.41-.3,0.74-.08,0.09,0.92h0.84v0.82l-0.3.1,0,0.56h-0.65v0.85L269,395l-0.92.09-0.06.53-0.78,0v-0.58ZM261,397.47v-1.58l-0.31-.17v-1.46L261,394v-0.82L262,393.3l0.12-.66h1l0.09,0.58,1,0.09,0,0.73H263.5l0,2.42-0.26.36h-0.67l0,0.65H261Zm22-6.56v-0.44l-0.34-.18,0-1.19H282l0.1-.47,0.9-.14v-0.75l0.59-.09,0.08-.84h0.75l0.39-.39h0.49l-0.26.3,0.14,0.48,0.4,0.4H286l-0.09,1.81h-0.47l-0.1.87-0.31.24-0.09.47Zm-10.51,6.56v-0.52l-0.62-.5h-1.23v-2.33l1.5,0V393.6l0.39-.4h1.37l0.21,0.35h0.79l0,0.65h0.83l0.1,0.84h0.53V396h-0.53l-0.1.58-0.3.26h-0.84l-0.14.65h-2ZM284,399l-0.71-.62-0.32,0,0.05-1.36h0.53v-1.58l0.38-.27h2.29l0.18,0.27h0.49l0,0.52,0.53,0.57v1.2l-0.27.39v0.52l-0.44.4H284Zm-5.59,2.82-0.21-.35h-0.44l-0.15-.53-0.44,0v-0.52l0.59-.09v-0.62l-0.59-.14v-2.24l0.59-.14v-1.66l0.3-.23v-0.7l0.36-.32h0.84l0.09-.61,1.1,0,0,0.56h0.79l0.09,1.11,0.31,0.14,0,1.49,0.49,0.09v0.79h-0.53l0,2.16-0.35.56h-0.53l0,0.93-0.41.4h-1.89Zm-5.9,0-0.39-.31v-0.66H271.6l0-.79,0.53-.09,0.12-.47h0.67l0.26-.39,1.68,0,0.13,0.27h0.83l0.1,0.65h0.53v0.84h-0.53v0.53l-0.4.4h-3Zm4.58,4.49V405l0.56,0v-0.88l0.4-.35h0.36l0.44,0.21,0.08,0.63,0.58,0,0.31,0.27v0.27l-0.44.21,0.12,1H279l-0.12.63h-1.15V406.4Zm-9.57,9.37v-0.52l-0.29-.14-0.09-.85-0.49-.08v-0.44l0.49-.24v-0.57h-0.59V412.3h0.68v-0.52l0.29-.41h0.88l0-.56,0.27-.32H269v0.67l0.44,0.49H270l0,0.61H269.4v0.93l0.56,0v1.45h-0.38l-0.31.31-0.26.18v0.47h-1.46Zm-1.8,5.86-0.14-.88-0.26-.14,0-1.63,0.26-.12,0.09-.49,0.7,0,0.27-.26,1.37-.09,0.26,0.39,0.08,0.79,0.62,0,0,1.8h-0.92l-0.06.58-0.26.4h-0.23l-0.26-.4Zm-5.95-1.64v-1.62l0.4-.3V416.1l0.56-.14v-2.34l0.31-.4h0.53l0.12-.78,0.88-.05,0-.67,0.27-.25,0-.66h0.52v-0.93l0.49-.3,1-.1,0.08,1.2,0.18,0.09,0.09,1.4-0.35.23v1.36l-0.58,0v1.15l-0.27.18,0,0.79,0.31,0.12v0.44l-0.31.23v0.7h-0.92l-0.09,1-0.58.08V420h-0.84l-0.08.44-0.31.48-0.53.05-0.12-.41H260.2l-0.14-.52Zm12.38-12.54L272,407h-0.76l-0.08-.63-0.58-.12-0.08-.71-0.27-.14V404.9l0.35-.17,0-.75H271l0.17-.3h0.93V403.1h0.56l0.09,0.5h0.79l0.36,0.38v0.88h0.52l0.09,0.57-0.61.14,0,0.79H273l0.09,0.93Zm-4.81.93-0.27-.4-0.53-.09v-1.28l0.59-.09,0.12-.57,0.36-.27H269l0,1.06,0.26,0.14V407l-0.4.12L269,407.6l0.3,0.12,0,0.14-0.21.3Zm-2.15-5.9h-2.29v-0.44l0.66-.08V400.3h0.71l0.52-.63v-0.21h0.53l0.12-.39h0.72l0.18-.37H268l0.4,0.37v0.84h-0.3l-0.1.65-0.61-.09-0.53.61v0.62l-1.72.09Zm-1.77.75v1L264,404v2.29l-0.58.08v1.24l0.62,0v0.25h-1.37l-0.26.36-0.71-.09-0.26-.3H261v-2.29h0.7l0-1.58,0.36,0V403.1h1.4Zm-8.1,3.94-0.12-.63h-0.36v-1H254.3V405l0.44-.09,0.49-.53,0-.31h2.86l0.09,0.54h0.56l0.13,0.29h0.49l0,0.49-0.53,0-0.13.93-0.26.13V407h-3.17Zm2.78,5.79h-2.47l-0.23.41-0.21-.09,0-1.1-0.4-.15v-0.37l0.36-.28v-1.66l0.84-.1,0.17-.17,1.33-.08,0.12,0.35h0.83l0.09,1.05,0.3,0.18v0.14l-0.4.17v1.14l-0.3,0Zm-6.12,8.9-1.1.06-0.09.61-0.43,0-0.24.26h-1.66l-0.22-.26-0.79,0V422L247,421.5l-0.62,0-0.06-1.1h0.19l0.08-.53,0.58-.08,0.13-.58H248l0.26-.32h0.31l0.35,0.32,1.23-.09,0.14,0.62,0.82,0,0.09,0.61H252v1.36Zm2-4.39,0.27-.19v-1l0.93-.07,0-.58,0.44-.1,0.12-.25,1.41,0,0,1,0.93-.06v0.79l0.3,0.09v1.46l-0.39.13,0.09,1.19-1.46-.15-0.12.41-0.53-.1-0.14-.37-1,.21-0.12-.36-0.53,0v-0.78l-0.27-.13v-1.05ZM251,412.77H248.4V412.3l-0.3-.17v-0.89h-0.53V410.9H248l0.17-.35h1.24V410l0.75-.09,0.14,0.61,1.75,0.06,0.18,0.26h0.4l0.09,0.43h-0.53l-0.13.89-0.93.12Zm-1.81.85,0.13,0.66h0.84l0.27,0.26h0.4l0,0.44,0.35,0.25v1.33H250l-0.17.26h-0.49l-0.31-.35-0.44.41h-1l-0.4-.32,0.08-.93h-0.66l-0.08-1.1H247l0.44-.49,0.09-.53Zm-7.09,2.95-0.13-.61-0.26,0v-1.24l-0.57-.08-0.05-.91,0.62-.06,0.09-.85,0.3-.21v-0.79H243l0.15,0.38,0.52,0.49,0.7,0v2.22L244,415v0.61L244.3,416h-0.88v0.52ZM254.34,427v-0.49l-0.88-.14-0.09-.88h-0.65l-0.14.53H252.4l0-1.93h0.93l0.14-.27,0.79-.09v-0.56h0.53l0.17-.35h0.67l0.31,0.35,1.67-.09v1.67l0.84-.09,0,1.77-0.44,0-0.23-.35-1.14.08-0.12.89h-2.25Zm-0.27,4,0-1.31,0.32-.31H255v-0.62l2.25,0v0.41l0.49,0.38h0.4l0.12,0.8v0.61l-0.52.15-0.09.25-2.12.09-0.14.52h-0.17l0-.49-0.53-.37Zm-4.88,2.21,0-1.41,0.4-.22-0.12-1-0.36-.14v-0.65l-0.57-.14v-1.9l0.66,0V426l0.27-.44h0.7l0.14,0.31h0.43l0.14,0.52,0.26,0.09,0.09,0.88h0.53v0.79l-0.62.13v1.36l-0.26.41-0.66.07,0.15,0.72h1.4l0,0.66h0.79l0.4,0.26,0,0.78,0.67,0.09v0.23H253v0.31l-0.93,0,0,0.57-1.71.09v-0.61h-1.11ZM243,430.35v-1.9l0.85,0,0.12-.62,1.9,0,0.14,0.93h0.79v0.5h-0.65l0.08,1.71-0.35.44-2.33.09v-1Zm-6.77,7.11v-0.56l-0.93-.09-0.09-.65,0.62-.06,0-.91,0.26,0,0.09-.93h2.2l0.12,0.3h0.53l0.14,0.88,0.26,0.14-0.09,1.27-0.3.23-0.09.43H236.2ZM235,432.85l-0.09-.61h-0.84l-0.31-.31h-0.38v-1H234l0.09-.57h0.66l0.23,0.26h1.32l0.22,0.31h1.09l0,1-0.44.26v0.74H235ZM231.68,434l-0.58.26-0.08.49-0.24.3-0.47,0,0,0.19-0.4-.4-0.49-.14V434l-0.31-.27v-2.15l0.26-.27v-0.7l1.68-.09,0.12,0.35,0.54,0V434Zm0-6.78L231.55,425l0.93,0.08v-0.93l1.35,0,0.1,0.66h1.36l0.44,0.3V426h0.53l0.14,1.49,0.56-.08,0.14-.54h0.62V425h0.7l0.52-.44,0-.32,0.36-.12,0.44-.36,0.4-.12,0.08-.44,0.36-.09,0.49-.44V422.2h0.83l0.13-.23,0.58-.16,0.08-.53h0.8l0.12-.34h0.66l0.19,0.38h0.69v1.28l-0.24.35v0.35h-0.44l-0.44.44v0.8h-0.63l0,0.56-0.26.22-0.63.15,0,0.56-0.26.26-0.67.09,0,0.58-0.21.3h-0.79l0.08,1.06-2.42,0,0,0.56h-1.31V428l-1.33-.12-0.13.31h-0.84l0,0.56h-0.35l-0.17-.47-1.76-.09-0.08-.93Zm-1.36-.22-0.13,1.19h-3.87v-0.93h-0.93l0.08-1.63,0.27-.13v-0.44l0.44-.08,0.21-.18,2.38,0L229,425h0.89l0,0.49,0.48,0.4,0.33,0V427Zm6.82-4.62v-0.61l-0.31-.18-0.1-.56,0.41-.24,0-.69h0.44l0.35-.35,0.09-.26v-0.31h0.88l0.17-.32,1.24-.08,0.39,0.35,0.09,1.36-0.41.14-0.07.84-0.37,0-0.27.37-1.13-.06v0.58ZM232.9,417v0.88l0.53,0.09v0.4l-0.85,0v0.91h-0.51l-0.14.45-0.18.26-0.08.39v0.39h-0.85l-0.22.85-0.71.14-0.12.61-0.32.26-0.61,0,0,0.53-0.66.08-0.08-.52-0.48-.14-0.1-1.32h0.36l0.61-.7V420.4h0.4l0.12-.58,0.26-.23,0.15-.43,0.49,0,0.49-.61V418.2l0.21-.26,0.91-.09,0.15-.49H232l0.2-.35Zm6.07-2.42,0.09,1.41,0.67,0.14-0.14.38-0.52.53-0.09.35-2.19,0-0.1-.58h-1l0,0.58h-0.53l0-1.45-0.3,0v-0.4l0.3-.4h0.62l0-.53Zm-12.84-1.46-0.06.7-1.66-.11-0.17.38h-0.31l-0.4-.31h-1l0-.83-0.45-.1-0.08-.43,0.56-.09v-0.88h1.19l0.1-.52,0.44-.09,0,0.61h1.78l0.23,0.3h0.41v1.37h-0.58Zm-1.63,6.46-0.09-1.17-0.61,0v-1h0.61l0-1.33h0.31l0.12-.52h0.34L225.2,416,227,416V417h0.67v1.28l-0.53.09L227,419.49ZM222,417.94l0.18,0.26,0.79,0,0,1.31,0.27,0.15v0.16l-0.27.24v0.66l-0.56.12-0.09.58H220.7l-0.25.26h-0.85l-0.35-.26h-0.79v-1h-0.75l-0.09-.66,0.26-.27v-0.38h0.58l0.14-.84,0.79-.09,0.21-.3H222Zm1.55,16.32,2,0,0-.62h0.21l0.14,0.66h0.71l0.34,0.4,0.06,1.36-1.25,0-0.08.66-1.1-.11V436h-0.84l-0.4-.4Zm-3.8-6.78,0.31-.12,0.09-1.37h0.52l0-.93H222l0.21,0.58h0.58l0.26-.58,0.31,0.65,0.52,0.4,0.09,1.63,0.32,0.19V430l-0.41.27,0.09,0.44,0.32,0.21-0.41.3,0.09,1.5-0.8.08-0.17.31h-1.45l-0.09.57h-0.32l-0.29-.52-0.66-.7-0.09-1.07-0.31-.31v-3.65Zm-4.84-1v-0.84h-0.66l-0.14-1-0.44-.4-0.79-.78-0.53-.39-0.27-.53v-1.11l0.27-.38h0.53l0.12-.59,0.41-.26,0.4-.08,0.17-.31h0.54l0.26,0.31h0.79l0.17,0.26,0.53,0.08v0.84l0.27,0.13,0.08,2.73h1.67l0.09,0.58H219l0.26,0.35,0,0.93-0.31.39Zm-14.74-3.65,0.08,1.81,0.26,0.17V426l-0.26.17v2.08h-1.49v-1.11l-0.23-.17-0.14-.62H198l-0.44-.39-0.09-1,0.36-.27v-1l0.61-.09v-0.52l0.44-.4h1.29Zm-7.8-.35-0.1-.62h-0.87l0-.17-0.27-.18v-0.14l0.4-.27-0.12-.69h0.43l0.23-.3,0.3-.14v-0.75H194l0.32-.4h1.17l0.23,0.35,1.5,0,0,0.53h0.57l0-1.5,0.79,0,0.18-.39h1.66l0.23,0.31h0.8V419l0.57,0.09v0.52h-0.53l-0.18.36H200.2v0.56l-1.73,0,0-.61h-1.22v1.49h-0.59l0,0.26-0.34.09-0.09.62H192.4Zm25.23-7.75v-1.49l-0.72-.09,0.1-.7h0.61v-0.61l0.39-.41,1.41,0,0-.47h0.26l0.08,0.57h0.39l0.41,0.3,0.08,1.59h0.41l0.08,0.79-1.45,0v0.61l-0.31.09-0.13.3h-0.4l-0.14-.44Zm-2-1,0,0.87,0.56,0,0,0.62h0.27v1.77l0.66,0.08v0.53h-1.46l-0.12.3h-0.32l0,0.62-2.25,0-0.08-.79-0.53-.09,0-.49-0.35-.23V416.1l0.35-.18V414.5H213l0-.82h2.64Zm-1.85-.79h-1.72l-0.09.29H211.2l-0.35-.43-1.54,0,0-1.26,0.53-.15v-0.56h0.4l0.29-.22,2.34,0,0.12,0.26h0.72Zm-4.93.43,0.21,0.37h0.4l0,1.35,0.36,0.2v2.22l-0.45.18,0,0.79-0.44.14-0.17.26-0.53,0-0.18-.39h-0.74l0-.7-0.23-.23-0.14-.84h-0.44l0-.21,0.53-.09v-1.19l0.35-.21-0.08-.67v-0.56l0.47-.1,0.26-.3Zm-10,.37h0.4l0.29-.32h0.68l0.33-.61h1.77l0.17,0.56h0.75l0.36,0.37h0.61l0.08,2.24L204,416l-0.1.49-1.27,0-0.36.41H201l-0.12-.27-0.49-.09,0-.43-0.53-.1-0.31-.35-0.7,0Zm4.08-6.36,0.31,0.4,0.17,0.61h0.54l0.17,1.29,1-.1,0.12-.87,0.23-.49,0.09-.47h1.54l0.08-1.2,0.27-.3,0-.4h0.7l0.35-.23,0.44,0,0.18-.66h0.58l0.09,0.66h0.52l0.21-.52,0.62,0.61,0.31,0.3h0.41l0,2h-1.81l-0.49.36-0.38-.09-0.32-.22-0.52.39-0.36-.39-0.39.22-0.66.14,0,0.93,0.56,0,0,2-0.61.14,0,0.79-1.14.09-0.05.56h-0.25l-0.09-.43-0.23-.18v-0.84l-0.58-.09-0.12-1.1h-0.4l-0.21.24H203.4l-0.08.95H203l0,0.5h-2.29V411.6l-0.62-.63h-0.34l0.08-.69-0.4-.17v-0.23l0.44-.21,0-1.33h0.44l0.21-.56,0.32-.4Zm-5.81,5.07,0.18,0.66,0.35,0.52h0.44v1.94l-0.53.17-0.08.79-0.7,0-0.27.36-0.35-.06-0.35-.17L195.7,416,195,416l0-1.76-0.21-.09v-0.49l0.3-.09,0.09-1.19Zm12.82-12.32-0.3.18-0.93-.27-0.09-.75,0.18-.66Zm-6.73,5.45-0.76-.43,0.15-1,0.34-.52-0.44-.93,0.36-.74,0.18-.76,0.75-.26,0.61,0.31L205,401.6l0.26,0.93,0.09,1.28,0.43,0.17v0.63l-0.61.12-0.26.61-0.47.17h-1.29Zm-20.47,7v-2.55l1.14-.7h0.93l0.3,0.44,0.18,0.69,0.7,0.24,0.23,0.61V412l-0.32.43-0.61-.09-0.18.84-0.22.7h-1.36l-0.7-.34ZM197,404.61h-1.72l-0.44,1h-1.19V405l-0.21-.36v-1h-2.17l-0.88.45,0-2,4.55-1.68,0.84,0.44,0.09,1.31,0.44,0.54,0.65,0.66Zm-11,14.24-1.67-2.19-1.59-2.25-1.45-2.28-1.36-2.39,1.54-4.32,5.68-2.1v1.14l-0.53.15-0.1,3.2,0.53,0.12-0.09,1.42,0.32,0.3,0.21,1.3L188,411.2V412l0.88,0.08v-0.62l0.52-.14,0.53-.43,0.23,1.4-0.09.8,0.45,0.08,0.21,0.44,0.52,0.44,1.1,0.23,0.76-.45,0.65-.43,0.84-1v-1l-0.21-.87-1-.67-0.76-.43-1.49.21-0.58.44-0.23-1.5,0.23-.79,0.75,0.21,0.79,0.23,0.53-.23,0.88-.21-0.12-1.19,0.52-.09,0.79,0.75v0.88l1,0.09h2.38L199,408l0.84-.75,0.44-1-0.23-.67-0.82-.22-0.35-.73h-1.24l0-.59-0.12-.84,1.41,0.09,0.44-.65,0.52-1.06h0.36L200,401l-0.82-.22-0.44-.79-0.36-.88,7.19-2.65v1.07l-0.27.93,0.27,0.75,0.08,1.28,0.09,0.93h1l0.68-.4,0.52-.44h0.93l0.17,1.29,0.17,0.47,1.11,0.09,1.1,0.18,0.66-.27,0.93,0.88,0,1.14,0.18,1,0.17,0.93,0.53,0,0.17,0.54h0.32l0.08-.31,0.63-.52h0.34v-0.5l0.31-.31,1.1,0.71-0.18.7-0.56.17v0.71l-0.27.12-0.08.44,0.4,0.17v0.58l-0.23.32,0.31,0.23h0.49l0.09,0.57h2.59v-0.35l0.71-.53h0.22l0.1-.84,0.21-.27,1.9,0.74,1.93,0.59,1.93,0.47,2,0.35,2,0.17V411l-0.49.61-0.89.08v0.58l-0.56.14v1.05h-0.34v0.56h1.12l0.15,0.53,0.44,0.08,0.26,0.27,0.94,0,0.29-.31h1.57l0.14-.53,1.49-.12-0.09-.65,0.62-.54,0.79,0.1-0.14-1h0.71l-0.09-.4,0.38-.19-0.12-.47-0.26,0-0.14-.62,2.16-.4,2.12-.52,2.06-.75,0.36,0.52v0.45h0.53l0,0.57,0.15-.54h0.78l0.15,0.63,2.28-.09v-0.54l0.35,0,0-.59h0.67l-0.1-.53h-0.49l-0.12-.52-0.93-.09,0-.93,2.38-1.49,0.4,0.09,0.12,2.38,0.49,0.49H251l0.19-.4,0.78,0,0.13-1.54h0.53l-0.09-1.72h-1.42l-0.13-.7h-0.12l-0.12-.34,1.49-1.33,1.37-1.4,1.26-1.54,0.84,0.26,0,1.81,0.41,0.31h0.44l0.08,0.65,1.76,0v-0.49l0.4-.18,0.14-.26,0.79,0.08V398.8l-0.93-.1-0.14-.82-2,0-0.12-1,1.05-1.85,0.93-1.95,0.79-2,0.65-2,0.66,0v1.2l1.24-.09v0.65l0.79,0.09,0.18,0.31h1.93l0.22-.31,0.8-.09,0.12-.52,0.84,0-0.08-.85-0.48-.08v-0.56l-0.37-.14v-0.5l-0.56,0-0.09-.52H262l0,0.44-0.53.47H260.6l-0.27-.52,0.36-1.95,0.27-1.93,0.12-2,0-2,0.26-.23,1.64,0v0.84h0.84l0.09,0.59,0.25,0.09,0-1.52H265l0.4-.47v-0.41l-0.27-.17-0.17-.78-0.7,0-0.15-.27h-3.24l-0.27-1.68,28.71-10.65,0.79,3.09a60.82,60.82,0,0,1,1.36,15.88l-0.27,3.21-1.1.09-0.12-.41-1,.06-0.39.35-0.09.56H287.8l0,0.18-0.44.14-0.21.24h-0.44l0.14,1.47,0.52,0v0.88h0.49v0.66h0.27l0.12-.49,0.37-.53H289l0.12-.56,1.73-.05-0.53,3.13-0.76,3.13-0.88,3-1,3-1.24,2.94h-0.92l-0.13-.56-0.26-.36h-1.49l-0.14-.57H283l-0.12.54-0.35.43h-0.7v0.61h-0.66l0.08,2.48,0.49,0.12v0.56L282.1,409v0.4l0.56,0,0.09,0.59,0.25,0.08v2l-1.26,2-1.15.09-0.12-1-0.53,0-0.21-.61-0.79.08V410.9l-0.36-.47h-0.88l0.1-.72-0.36.18-0.52,0-0.19-.26-0.93-.1,0-.83h-0.79l-0.08-.31-1.41-.08-0.36.39V410l0.36,0.4H274l0,1.47h0.85l0.08,0.93,0.83,0.1,0.1,0.83,0.3,0.31h0.52l0.06,0.53,0.38,0.39,0.53,0.08,0.1,0.58,0.26,0.14,0,0.7,0.27,0.35h0.53l0.12,1.11-0.93,1.14h-0.7l-0.08-.48,0.34-.22,0-.53-0.91.09v-1h-0.88l-0.1-.65-0.3-.28-1.72-.08-0.14-.54h-0.56V416l-0.53.14-0.39.25,0,0.62h-0.53v1.37l0.93,0v0.83l0.82,0.12,0.15,0.26,1.41,0.1,0.21,0.26h1.54l0.14,0.7-1.15,1.24h-0.92l-0.13-.66h-1.72l-0.21-.31-1.29.09-0.26.29h-0.75l0.13,1.32,0.14,0.14v0.58l0.56,0,0.12,0.11,1.11,0.15,0,1.4-3.21,2.77-0.85-.09,0.09-.73H269l-0.09-2.25-0.82-.09-0.1-.56-0.3-.36h-0.52l0.09-.65-1.46.09v0.93l-1,0v1.46h-0.67l-0.12-.65h-0.39l-0.53-.44,0.09-.76-0.62,0-0.12-.48h-0.71v0.61h-0.93l-0.26.31-0.79,0,0.14,3.3-0.62.08v0.58l-0.35.39V429l0.35,0.24v0.84h0.56v1l0.4,0.25,2.16,0,0.3-.27h0.35v-0.91l0.4-.06v-1.19H264l0.12-.65h0.15l0.12-1.11h0.8l0.48,0.44v0.41h0.39l0.23,0.35h1.81l0.08,0.36-2.3,1.66-2.33,1.54-2.42,1.42-2.48,1.31-1,0-0.31-.26h-1.05l0-1-0.4.53-0.14.52H255l-0.17.28h-0.49l0,0.61-0.22.35-0.12.7-0.49.14-0.22.56-1.11.41-0.53-.36-0.53-.14,0-.47-0.25-.14-0.1-.44,0.44-.12v-0.27l-0.33-.31h-1l-0.4.44V436l-0.27.25L249,437l-0.89.05-0.12-.58-0.65-.09-0.62-.58-0.09-.58-0.44-.12v-0.52l-0.35-.36-0.87.08-0.11-.92-0.53-.17-0.12-.53h-0.93l-0.75-.39-0.09-.61H242l-0.12.64-0.4.41h-0.3l-0.14.39h0.62V434l0.26,0.14,0.08,0.79,0.59,0.07v0.89l0.26,0.11,0.09,1.45h0.62l0.34,0.34,0.71,0.09,0.14,0.52,0.56,0v0.62l-0.48.14,0,0.3-2.54.49-2.55.4-0.1-.31h-1l-0.26-.26-0.8,0v-0.58H237l-0.44-.35-0.49.09,0,0.32h-1.14l0,1.58-2.85,0-0.09-.95-0.26-.23-0.09-.84,0.49-.14-0.14-1.36-0.35-.31-0.88.05-0.27.26h-1l0,1.31-0.58.48-0.44.11,0,1.49-1.41-.09v-0.49l-0.34-.23v-1.66h-0.8l-0.12-.4H225.2l-0.05-.52-1.66.11v1.38l-0.61.13v0.52l-0.39.58-4-.78-0.14-1.83-0.26-.25,0.14-1.2,0.4-.29,0.39-.23v-0.62l0.26-.21,0.08-.27,0.24-.38v-0.71l-0.18-.52-0.14-1.23-0.93-.14V431l-1.54,0-0.13.54-0.52,0v0.75l-0.36,0v3.13l0.93,0.09v0.79l-0.44.14-0.35.61-0.14,1.15-0.31.23-3.53-1.15-3.47-1.43,0.35-.33,0.09-.61,0.52,0,0.09-.86h0.27l0-2.67h0.61l0,0.56,0.93,0.09v0.74l1.37,0.09,0.08-.56,0.88-.09,0.13-.31h0.52l0.09-.38,0.27-.27v-0.39l-0.36-.12V430.3l0.36-.27v-0.39l-0.36-.22-0.4-.14-0.26-.83h-2.16l-0.4.31-0.13.88-0.49,0v0.67l-0.26.26-0.35.26-1.9,0v0.88l-0.56,0v0.8l-0.35.25,0,0.84,0.31,0.09,0.08,1.27-0.27.31-2.24-1.1-2.16-1.19,0.08-1.11,0.36-.09,0-.52h0.84l0.12-.34,0.58-.07,0.09-.84,0.87-.07,0.23-.31,0.14-.57,0.53,0v-1H207l0.09-1.85,1.8,0.09V427l1.37-.08,0.29,0.35h0.15l0.38-.35L211,425l-0.88,0v-1.24l-0.25-.12-0.13-.44-0.27-.31h-0.93l0-1-0.85-.05-0.08-.58h-0.32l-0.49-.43-0.08-.79h-0.53v-0.27l-1.23-.08-0.14-.58h-0.44l-0.17-.35h-0.31l-0.38.35h-0.62l-0.09,1.36,0.4,0,0.53,0.5v1.57l0.88,0.09,0.08,0.67,0.53,0.09,0.14,0.75,0.3,0.35,0.53,0,0,0.61,0.18,0,0,1.24-0.8.14-0.3.3-0.18.56H204l-0.54.35v0.49l-0.92.12-0.1.22h-0.52v0.22l-0.09.23-0.49.52-0.61,0-0.12.57-0.71.05-0.17.49-0.44.17L197,429.33l-2.19-1.68-2.17-1.83-2-1.9-2-2,0.26-1,0.57-.12-0.12-1.81,0.53-.22,0-.53-0.49-.44,0.49-.39,0-.35-0.26-.12-0.19-.79-0.87-.1v-0.52h-0.44l-0.23.62-0.74-.06L187,417.23l-0.49.14-0.29.75Zm113.89-69.74L298.33,346C254.56,270.26,142.7,311.73,158.8,397.7l0.85,3.38,43.71-16.2-0.17-2.15a29,29,0,0,1,51.72-19.15l1.24,1.72Zm-50.44,32.35-0.09-1.69-0.23-1.66c-4.15-18.56-29.81-18.55-33.93,0l-0.27,1.66-0.08,1.69c0.58,19.92,27.57,24,33.84,5l0.44-1.64,0.23-1.66ZM437.93,246l15.42,40.12,1-.42,0.93-.53c2.88-2.08,3.9-5.43,4.4-8.8a30.14,30.14,0,0,0-2.25-15.53l-0.7-1.76ZM272.26,378l0-3.83,0.27-.26v-0.38H273l0.21-.36H274v0.93h0.58v1.19l0.39,0.13v1.37l-0.3.17-0.09.47h-0.44l-0.49.68ZM322,253.32l15.64-5.42-0.44-.93c-4.49-7-16.49-2.5-15.25,5.77v0.36ZM321,266.91V268l0,1a83.78,83.78,0,0,1-11.05,44A5,5,0,0,1,308,315c-16.33,8.82-17.36-7-15.67-19.5l0.17-2.76,0.27-2.82-17.21,16.51,3.25,2a86.88,86.88,0,0,1,30.34,33.31l1.67,3.38,13.7-5.05,40.8-17.07-0.49-.27-0.44-.22c-8.82-4.6-1.55-15.94,5.68-17.65a19.91,19.91,0,0,1,3.65-.52c3.93-.19,8.62,2.67,12,4.57,0.55,0.31,2.83,2.06,4.23,3.12l0.58,0.44,6.2-2.59-1.31-1.24L394.8,308c-5.85-4.76-3.5-12.36,2.29-15.63,0.75-.42,1.56-0.68,2.33-1,6.64-3.25,18.44.12,23.91,4.88l0.72,0.54,1.44,1.09,17.12-7.13-22.28-58Z"/><path class="b" d="M144.55,625.13l6.91-22,6.62,22H144.55Zm306.64,22.75-0.07,8,6.84-.07c6.26,0,9.29-3,9.29-9.65l-0.07-38.88h-9.79l-0.07,34.63c0,5.18-1.51,6-3.89,6h-2.23Zm6.12-46.15h9.93L467.17,593h-9.86v8.78ZM419.58,628.3l27.22,0.07c0-10.87-5-22.39-18.58-22.39-14,0-18.43,11.16-18.43,19.51,0,12.17,8.06,19.73,18.36,19.73s16.49-5.54,18-12l-9.94-.65c-1.87,3.38-4.46,4.75-7.63,4.75C423.9,637.38,420.09,634.21,419.58,628.3Zm0.43-7.13a8.38,8.38,0,0,1,8-7.49c4,0,7.49,2.74,8.13,7.49H420Zm-57.09,19,0.36,3.74h9.79V593h-9.94v18.5c-1.73-2.88-5.9-5.33-10.58-5.33-8.13,0-16.27,6.84-16.27,19.66a21.39,21.39,0,0,0,4.75,14,13.87,13.87,0,0,0,11.16,5.33A13.19,13.19,0,0,0,362.92,640.18Zm-7.77-3.53c-4.68,0-8.71-3.31-8.71-11.09,0-8.71,4.25-11.81,8.28-11.81s8.35,3.1,8.35,11.52C363.06,633.34,358.82,636.58,355.15,636.66Zm-58.54,7.27h9.79l0.07-20.52c0-2.88.58-4.25,1.37-5.4a7.4,7.4,0,0,1,6-3.1c3.38,0,5.9,2.23,5.9,6.33l-0.07,22.68h9.86V618.08c0-6.84-5-12.1-12.6-12.1-5.26,0-8.93,2.81-10.22,5.69l-0.36-4.32-9.65-.07Zm-18.29-4.18a12.93,12.93,0,0,0,1.3,4.18h9.93c-0.58-.51-1.51-2.16-1.51-5.18L287.9,620a18.54,18.54,0,0,0-.51-5c-1.51-5-5.62-9.07-15.55-9.07-11.37,0-15.91,5.83-15.91,12.24l8.71,0.14c0.36-2.45.72-3,1.51-3.67S269,613,271.92,613c4.61,0,6.33,2.45,6.33,4.18s-1.08,3-3.74,3.46l-9.93,1.73c-7.42,1.29-10.87,6.12-10.87,10.94,0,6.34,4.9,11.74,13.75,11.74C273.57,645,277,642.56,278.32,639.75Zm0-15.34v5.47c-0.29,4.61-3.38,7.78-8.71,7.78-4.18,0-6.12-2.45-6.12-4.61,0-1.73.86-4,6.7-5.4l4.25-1.15A8.09,8.09,0,0,0,278.32,624.42Zm-5.9-21.53,9.93,0.07V593H272.5Zm-12.82,0h9.86l0.07-10h-9.86Zm-29.73,41h9.72l12.53-36.65h-10l-7.35,24.12-7.27-24h-10Zm-50,0h9.87l0.07-20.52c0-2.88.58-4.25,1.37-5.4a7.4,7.4,0,0,1,6-3.1c3.38,0,5.9,2.23,5.9,6.33l-0.07,22.68h9.87V618.08c0-6.84-5-12.1-12.6-12.1-5.26,0-8.93,2.81-10.22,5.69l-0.36-4.32-9.72-.07Zm-52,0h10.73L142,633.2h18.5l3.24,10.73h10.8l-17.42-51h-11.3Z"/><path class="b" d="M118.41,731h9.79l0.07-20.16c0-6,3.24-8.78,7.35-8.78,3.45,0,5.9,2,5.9,6.63L141.45,731h9.86V705.74c0-4.46-1.51-7.49-3.89-9.58a14,14,0,0,0-8.57-3.1c-5.33,0-9,2.52-10.66,5.9V680h-9.79v51Zm325.43,0h9.86V710.49c0-2.88.58-4.25,1.37-5.4a7.64,7.64,0,0,1,6-3.1c3.38,0,5.83,2.23,5.83,6.33V731h9.79V705.16c0-6.84-5-12.1-12.6-12.1-5.26,0-8.93,2.81-10.15,5.69l-0.43-4.32-9.65-.07Zm-34.2-15.62,27.22,0.07c0-10.87-4.9-22.39-18.58-22.39-14,0-18.36,11.16-18.36,19.51,0,12.17,8.06,19.73,18.29,19.73s16.49-5.54,18-12l-9.93-.65c-1.87,3.38-4.39,4.75-7.63,4.75C414,724.46,410.15,721.29,409.64,715.39Zm0.44-7.13a8.39,8.39,0,0,1,8.06-7.49c4,0,7.42,2.74,8.14,7.49h-16.2ZM383.15,731H393V680h-9.79Zm-17.5,0h9.86V680h-9.79Zm-17.21-4.18a15,15,0,0,0,1.29,4.18h9.94c-0.51-.51-1.51-2.16-1.51-5.18L358,707.11a18.54,18.54,0,0,0-.51-5c-1.51-5-5.54-9.07-15.55-9.07-11.38,0-15.91,5.83-15.91,12.24l8.71,0.14c0.36-2.45.79-3,1.58-3.67S339.08,700,342,700c4.61,0,6.34,2.45,6.34,4.18s-1.08,3-3.74,3.46l-9.87,1.73c-7.49,1.29-10.87,6.12-10.87,10.94,0,6.34,4.83,11.74,13.75,11.74C343.69,732.09,347.08,729.64,348.44,726.83Zm0.07-15.34L348.44,717c-0.21,4.61-3.31,7.78-8.71,7.78-4.11,0-6.12-2.45-6.12-4.61,0-1.73.86-4,6.7-5.4l4.25-1.15A8.39,8.39,0,0,0,348.52,711.5Zm-7.2-21.38a5.12,5.12,0,0,0-.22-10.22,5.19,5.19,0,0,0-5.18,5.11A5.11,5.11,0,0,0,341.32,690.11ZM341.17,688a3,3,0,0,1-3.17-3,3.21,3.21,0,0,1,3-3.1A3.06,3.06,0,0,1,341.17,688Zm-56.44,43h9.79l0.07-20.16c0-6,3.17-8.78,7.27-8.78,3.46,0,5.91,2,5.91,6.63L307.69,731h9.86V705.74c0-4.46-1.51-7.49-3.89-9.58a14,14,0,0,0-8.57-3.1c-5.33,0-8.93,2.52-10.58,5.9V680h-9.79v51Zm-17.86-3.74L267.3,731H277V680h-9.86v18.5c-1.8-2.88-5.91-5.33-10.58-5.33-8.21,0-16.27,6.84-16.27,19.66a21.36,21.36,0,0,0,4.68,14,13.92,13.92,0,0,0,11.23,5.33A13.16,13.16,0,0,0,266.87,727.27Zm-7.78-3.53c-4.61,0-8.71-3.31-8.71-11.09,0-8.71,4.25-11.81,8.35-11.81s8.28,3.1,8.28,11.52C267,720.43,262.77,723.66,259.1,723.74ZM200.56,731h9.86V710.49c0-2.88.58-4.25,1.37-5.4a7.64,7.64,0,0,1,6-3.1c3.39,0,5.83,2.23,5.83,6.33V731h9.79V705.16c0-6.84-5-12.1-12.6-12.1-5.25,0-8.93,2.81-10.15,5.69l-0.43-4.32-9.65-.07Zm-18.36-4.18a11.56,11.56,0,0,0,1.22,4.18h10a6.19,6.19,0,0,1-1.66-3.82V707.11c0-8.78-4.54-14-16.49-14-11.09,0-15.7,6-15.48,12.24l8.71,0.14c0-2.74,2-5.33,7.06-5.33,4.82,0,6.48,2.38,6.48,4.1,0,1.51-.94,2.88-3.6,3.38l-5.68.94c-8.06,1.44-10.23,3-11.81,4.32a10.13,10.13,0,0,0-3.31,7.63c0,6.05,4.75,11.52,14,11.52C177,732,180.11,730.22,182.2,726.83Zm0.07-15.12-0.07,4.61c0,5.18-3.24,8.42-8.85,8.42-4.11,0-6.12-2.45-6.12-4.68,0-1.73.65-3.67,6.84-5.4l4.25-1.15A12.06,12.06,0,0,0,182.28,711.72Z"/><path class="b" d="M154.05,818.14h9.72l12.53-36.65h-10l-7.34,24.12-7.27-24h-10Zm272.58-4.25c2.09,3.38,5.69,5.47,10.73,5.47,10,0,16.2-9.29,16.2-19.73,0-10-6-19.29-16.06-19.29a13.26,13.26,0,0,0-10.65,5l-0.43-3.74-9.72.07,0.07,48.45h9.79Zm8.78-2.09c-4.75,0-8.71-3.17-8.71-11.09,0-8.86,4.32-12,8.35-12s8.49,3.31,8.49,11.45C443.55,805.61,441.25,811.73,435.42,811.8Zm-36.21,6.34h9.86V781.49h-9.79Zm0.07-42.19h9.86v-8.78h-9.86v8.78Zm-17.57,42.19h9.86v-51h-9.79Zm-41-12.24c0.21,6.91,6,13.54,17.28,13.54s16.41-6.12,16.41-12.67a10.34,10.34,0,0,0-2.23-6.41c-1.36-1.73-3.17-3-7.49-4l-10.51-2.45c-2.23-.58-3.17-1.94-3.17-3.24s1.36-3.67,6.12-3.67c5.25,0,7.56,2.74,7.63,5.69l8.64-.14a12.77,12.77,0,0,0-5.26-9.65c-2.09-1.51-5.47-2.81-10.87-2.81-10.51,0-15.19,5.69-15.19,11.95a9.71,9.71,0,0,0,2.52,6.91c1.29,1.37,3,2.52,7,3.38l8,1.8c4.61,1,5.18,2.45,5.18,4.18s-1.58,4.1-7,4.1c-5.18,0-7.78-2.73-8.06-6.55ZM324,818.14h9.86v-51H324Zm-34.06-15.62,27.14,0.07c0-10.87-5-22.39-18.58-22.39-14,0-18.36,11.16-18.36,19.51,0,12.17,8.06,19.73,18.29,19.73s16.49-5.54,17.93-12l-9.86-.65c-1.87,3.38-4.46,4.75-7.63,4.75C294.23,811.59,290.41,808.42,289.91,802.51Zm0.43-7.13a8.36,8.36,0,0,1,7.92-7.49c4,0,7.49,2.74,8.13,7.49H290.34Zm-50.69,22.75h9.86l-0.07-12,4.18-4.1,10.08,16.13h12L260.61,795.6l13.17-14.11H262.12l-12.6,14-0.07-28.3h-9.86Zm-40.54,0H209l0.07-20.52c0-2.88.58-4.25,1.36-5.4a7.41,7.41,0,0,1,6-3.1c3.38,0,5.91,2.23,5.91,6.33l-0.07,22.68h9.87V792.29c0-6.84-5-12.09-12.6-12.09-5.25,0-8.93,2.81-10.22,5.69l-0.36-4.32-9.72-.07Zm-17.49,0h9.87V781.49H181.7Zm0.07-42.19h9.86v-8.78H181.7v8.78Z"/><path class="c" d="M35.39,297.63c0,144.79,117.43,262.22,262.22,262.22S559.75,442.41,559.75,297.63,442.39,35.48,297.61,35.48,35.39,152.84,35.39,297.63Zm425,132.81c67.48-82.54,62.73-204.35-14.27-281.35s-198.86-81.8-281.4-14.32ZM134.66,164.87C67.23,247.41,72,369.27,149,446.25S347.78,528,430.32,460.52Z"/></svg>