<svg xmlns="http://www.w3.org/2000/svg" viewBox="0 0 595.28 850.37"><defs><style>.a{fill:#e5e8eb;}.a,.b,.c{fill-rule:evenodd;}.b{fill:#000100;}.c{fill:#ad1922;}</style></defs><title>P035_C</title><polyline class="a" points="0 850.37 595.28 850.37 595.28 0 0 0 0 850.37"/><path class="b" d="M371.63,125.79l-1,5.21c-2.32,13-4.67,32.44-2.66,45.52l0.56,2.82-2.67-.48c-44-6-70.3,43.1-94.18,70.92L265.56,258l0.52-7.55c11.72-85.51,8.14-42.72-7.68-127.65l-1.14-7.91-6.41,1.51,1.19,7.95,1.32,8c2.54,19.94,10.48,39.53,13.24,57.92l0.12,2.8v2.82c-3.05,23.42-7.51,44.14-8,68.5l-0.19,7.56-0.09,7.59,5.81-8.43c25.12-29.35,64-106.23,113.7-81.54l2.19,1.2-1.31-2.31c-8.74-15-4.33-38.08-2.19-54.33l1.07-5.56-6.08-2.75"/><path class="b" d="M360.2,444.31c-2.63-6.09-17-6.09-19.59,0a2.91,2.91,0,0,0-.33,1.43c0.78,7.39,16.25,7.68,19.58,2.11A3.9,3.9,0,0,0,360.2,444.31ZM308.26,337.09l-3.69,9.62c-8.81,21.2-48.57,119.19-71.66,125.78l-1.31.23,3.05,0.72a55.25,55.25,0,0,0,15.59,1.11l7.17-.55,0.4,0.68c3.87,5.12,17.53,4.77,19.29-1.75l0.08-.68,9.23-1,9.27-1,0.4,0.68c3.89,5.41,18.93,4.65,19.36-2.52l-0.08-.7,11.18-1.63,11.18-1.75,0.63,0.63c4.86,4.55,20,2.84,18.14-4.77l-0.33-.68,3.1-1.24c31.89-9.31-.12-46.85,24.47-90.18l1.75-3.17L381.89,363a106.7,106.7,0,0,0-58.47-10.72l-4,.52ZM287.49,455.37c-2.83-6-16.84-6.07-19.66,0a2.92,2.92,0,0,0-.28,1.43c0.61,7.19,15.83,7.91,19.58,2.15A3.7,3.7,0,0,0,287.49,455.37Zm8.9-25.31c-2.78-6.07-16.84-6.06-19.64,0a2.88,2.88,0,0,0-.27,1.44c0.6,7.21,16,7.87,19.56,2.1A3.76,3.76,0,0,0,296.39,430.06Zm10.23-24.25c-2.78-6.1-16.86-6.08-19.63,0a2.88,2.88,0,0,0-.29,1.43c0.61,7.21,16,7.87,19.56,2.11A3.75,3.75,0,0,0,306.62,405.81Zm29-2.29c-2.89-6.06-16.76-6.07-19.66,0a2.81,2.81,0,0,0-.28,1.43c0.6,7.18,15.83,7.91,19.58,2.15A3.67,3.67,0,0,0,335.66,403.52Zm29.51-1.92c-2.71-6.08-16.83-6.1-19.65,0a2.83,2.83,0,0,0-.28,1.42c0.63,7.25,16.1,7.84,19.58,2.1A3.83,3.83,0,0,0,365.17,401.6ZM329.9,426.55c-2.75-6.08-16.91-6.06-19.66,0A2.87,2.87,0,0,0,310,428c0.62,7.21,16.05,7.86,19.58,2.09A3.79,3.79,0,0,0,329.9,426.55Zm32.53-3.72c-2.87-6.09-16.82-6.08-19.66,0a2.86,2.86,0,0,0-.27,1.43c0.6,7.19,16,7.84,19.56,2.1A3.72,3.72,0,0,0,362.43,422.83Zm-38.8,27.51c-2.78-6.09-16.85-6.1-19.66,0a2.87,2.87,0,0,0-.28,1.43c0.62,7.2,16,7.83,19.58,2.11A3.73,3.73,0,0,0,323.63,450.34Z"/><path class="b" d="M421.52,227.73l-2.67-.86a29.28,29.28,0,0,0-5.37-1.32c-62.56-7.62-94.38,72.12-113.95,116.6-4.12,9.37-7.32,19.13-11.81,28.34C275.8,394.93,254.34,448,233.6,465.24a4.72,4.72,0,0,1-1.72.84c-8.45,2.45-11.68-10.14-11.77-16.05-0.05-3.49,1.72-6.6,3.74-9.35,15.74-21.41,18.66-5.7,24.72-33.85,1.49-6.93,3.52-13.73,4.89-20.67A332.26,332.26,0,0,0,259.2,344c0.32-4.71.41-9.43,0.72-14.14,2.18-33.18-7.57-19.25,10.44-44.72q11.34-16,23.11-31.77c37.9-50.68,60.44-76.64,118.41-35.45a46.92,46.92,0,0,1,7.36,7.23l2.27,2.58"/><path class="b" d="M440.12,284.93a112.17,112.17,0,0,1-12.33,32.25l-3.62,6.13-7-3,4.09-6.84,1.91-3.54c4.42-10.66,19.92-38.8,1.83-44.4a39.12,39.12,0,0,0-3.85-.73c-21.08-4.24-36.44,12.13-47.4,27.88l-1.87,3-2.31,3.94-6.92-3,2.77-4.71c14.78-33.16,69.61-53,75.81-14.61C441.49,278.64,440.67,282.41,440.12,284.93ZM411,248.58c-22.28.72-42,21.36-52.65,39.15l-34,58,4.13-.36A113,113,0,0,1,399.32,364l3.43,2.39,4-4.71C427,338.72,483.27,256.9,420.09,248.8A57,57,0,0,0,411,248.58Z"/><path class="b" d="M48,643.93H58.52V622.18H80.76v-8.35H58.59V601.45H84.72V593H48v51Zm489-3.74,0.36,3.74h9.79V593h-9.94v18.5c-1.73-2.88-5.9-5.33-10.58-5.33-8.13,0-16.27,6.84-16.27,19.66a21.41,21.41,0,0,0,4.75,14,13.88,13.88,0,0,0,11.16,5.33A13.19,13.19,0,0,0,537,640.18Zm-7.77-3.53c-4.68,0-8.71-3.31-8.71-11.09,0-8.71,4.25-11.81,8.28-11.81s8.28,3.1,8.28,11.52C537.08,633.34,532.91,636.58,529.24,636.66ZM477,628.3l27.22,0.07c0-10.87-5-22.39-18.58-22.39-14,0-18.43,11.16-18.43,19.51,0,12.17,8.06,19.73,18.36,19.73s16.49-5.54,17.93-12l-9.86-.65c-1.87,3.38-4.46,4.75-7.63,4.75C481.36,637.38,477.54,634.21,477,628.3Zm0.43-7.13a8.37,8.37,0,0,1,8-7.49c4,0,7.49,2.74,8.13,7.49H477.47ZM406.7,643.93h9.86l0.07-21.17c0-5.26,2.88-7.92,6.91-7.92a4.89,4.89,0,0,1,4.9,3.1c0.14,0.36.43,1.15,0.43,4v22h9.79V622.18c0-4.75,2.88-7.49,6.77-7.49,3.38,0,5.61,2,5.61,6.34v22.9h9.72l-0.07-25.7c-0.22-7.71-5.11-12.1-11.81-12.1a12.3,12.3,0,0,0-11.23,6.41,11.75,11.75,0,0,0-10.73-6.41c-5,0-8.35,2.16-10.23,5.83l-0.36-4.61-9.58-.07Zm-36.65,0v-7.56h-3.67A3.7,3.7,0,0,1,363.5,635c-0.21-.29-0.5-0.86-0.5-2.88V614h6.7v-6.7h-6.63L363,595.69H353.2v11.59H348V614l5.19-.07v18.94c0,8.28,3.38,11,8.85,11h8ZM316.49,628.3l27.21,0.07c0-10.87-5-22.39-18.58-22.39-14,0-18.43,11.16-18.43,19.51,0,12.17,8.06,19.73,18.36,19.73s16.49-5.54,17.93-12l-9.86-.65c-1.87,3.38-4.46,4.75-7.63,4.75C320.8,637.38,317,634.21,316.49,628.3Zm0.43-7.13a8.37,8.37,0,0,1,8-7.49c4,0,7.49,2.74,8.13,7.49H316.92Zm-27.22,19,0.36,3.74h9.72V593h-9.86v18.5c-1.73-2.88-5.9-5.33-10.58-5.33-8.13,0-16.27,6.84-16.27,19.66a21.39,21.39,0,0,0,4.75,14A13.88,13.88,0,0,0,279,645.15,13.2,13.2,0,0,0,289.7,640.18Zm-7.78-3.53c-4.68,0-8.71-3.31-8.71-11.09,0-8.71,4.25-11.81,8.28-11.81s8.28,3.1,8.28,11.52C289.77,633.34,285.6,636.58,281.92,636.66Zm-35.57,3.17,0.51,4.11h9.29V607.35l-9.79-.07V627.8c0,5.61-3.31,8.5-7.27,8.5-3.67,0-6-1.94-6-7.13V607.28h-9.86v25.2c0,4.82,1.44,7.42,3.67,9.5a13,13,0,0,0,9.14,3.17A11.86,11.86,0,0,0,246.36,639.82Zm-46.73,8.06v8l6.84-.07c6.26,0,9.29-3,9.29-9.65l-0.07-38.88h-9.79l-0.07,34.63c0,5.18-1.51,6-3.89,6h-2.31Zm6.19-46.15h9.93L215.68,593h-9.86v8.78Zm-47.45,42.19h9.72l0.58-3.74a12.62,12.62,0,0,0,10.51,4.9c8.06,0,16.06-6.62,16.06-19.58,0-12.6-8.06-19.44-16-19.44-5.25,0-9,2.31-10.94,5.47V593h-9.93v51Zm18.36-7.35c-4.1,0-8.35-3.24-8.35-11.45s4.32-11.45,8.28-11.45c4.39,0,8.5,3.1,8.5,11.59C185.16,633.34,181,636.58,176.73,636.58Zm-45,7.35h9.86l0.07-16.27c0-5.47,1.3-8,3-9.72a8.62,8.62,0,0,1,6.7-2.88,12.48,12.48,0,0,1,1.66.14l0.07-8.71a14.2,14.2,0,0,0-2.16-.22,9.52,9.52,0,0,0-9.14,6.55l-0.29-5.54h-9.65ZM105,645.37c11.81,0,19.8-7.92,19.8-19.87,0-11.74-8.06-19.66-19.51-19.66C94.22,605.84,86,613.76,86,625.5,86,637.45,94.22,645.37,105,645.37Zm0.58-7.7c-5.11,0-9.5-3.67-9.5-12.17,0-8.21,4.46-12,9.43-12,4.75,0,9.15,3.31,9.15,12.24C114.67,634.42,110,637.66,105.6,637.66ZM107,602.89h9.86V593l-9.86-.07v10Zm-12.89,0h9.86V593l-9.86-.07v10Z"/><path class="b" d="M76.44,731H86.3l0.07-21.17c0-5.26,3-7.92,6.91-7.92a4.88,4.88,0,0,1,4.9,3.1c0.14,0.36.43,1.15,0.43,4v22h9.79V709.27c0-4.75,3-7.49,6.84-7.49,3.31,0,5.54,2,5.54,6.34V731h9.72l-0.07-25.7c-0.21-7.71-5.11-12.1-11.74-12.1a12.33,12.33,0,0,0-11.3,6.41,11.75,11.75,0,0,0-10.73-6.41c-5,0-8.28,2.16-10.22,5.83l-0.36-4.61-9.57-.07Zm420.9,0h9.86l0.07-16.27c0-5.47,1.29-8,3-9.72a8.72,8.72,0,0,1,6.7-2.88,12.59,12.59,0,0,1,1.66.14l0.07-8.71a14.1,14.1,0,0,0-2.09-.22,9.38,9.38,0,0,0-9.14,6.55l-0.36-5.54h-9.65ZM479,726.83A11.64,11.64,0,0,0,480.2,731h10.08a5.48,5.48,0,0,1-1.66-3.82V707.11c0-8.78-4.53-14-16.49-14-11.09,0-15.7,6-15.48,12.24l8.71,0.14c0-2.74,2-5.33,7.06-5.33,4.83,0,6.48,2.38,6.48,4.1,0,1.51-.93,2.88-3.6,3.38l-5.69.94c-8.06,1.44-10.22,3-11.81,4.32a10.2,10.2,0,0,0-3.38,7.63c0,6.05,4.75,11.52,14,11.52C473.79,732,477,730.22,479,726.83Zm0.07-15.12L479,716.32c0,5.18-3.24,8.42-8.85,8.42-4.1,0-6.12-2.45-6.12-4.68,0-1.73.65-3.67,6.84-5.4l4.25-1.15A12.06,12.06,0,0,0,479.12,711.72ZM412.3,731H422l0.58-3.74a12.82,12.82,0,0,0,10.51,4.9c8.14,0,16.13-6.62,16.13-19.58,0-12.6-8.13-19.44-16.06-19.44-5.26,0-9,2.31-10.95,5.47V680H412.3v51Zm18.36-7.35c-4.11,0-8.35-3.24-8.35-11.45s4.32-11.45,8.35-11.45c4.32,0,8.42,3.1,8.42,11.59C439.09,720.43,434.91,723.66,430.67,723.66ZM368.53,731h9.72l0.58-3.74a12.82,12.82,0,0,0,10.51,4.9c8.13,0,16.13-6.62,16.13-19.58,0-12.6-8.13-19.44-16.06-19.44-5.25,0-9,2.31-10.94,5.47V680h-9.93v51Zm18.36-7.35c-4.1,0-8.35-3.24-8.35-11.45s4.32-11.45,8.35-11.45c4.32,0,8.43,3.1,8.43,11.59C395.32,720.43,391.14,723.66,386.89,723.66Zm-35.78,3.24,0.58,4.11H361l-0.07-36.57-9.79-.07v20.52c0,5.61-3.31,8.5-7.27,8.5-3.67,0-6-1.94-6-7.13V694.36H328v25.2c0,4.82,1.44,7.42,3.67,9.5a13.11,13.11,0,0,0,9.14,3.17A11.77,11.77,0,0,0,351.11,726.9Zm-40.75.36,0.43,3.74h9.72V680h-9.94v18.5c-1.73-2.88-5.91-5.33-10.58-5.33-8.06,0-16.2,6.84-16.2,19.66a21.39,21.39,0,0,0,4.75,14,13.84,13.84,0,0,0,11.09,5.33A13.2,13.2,0,0,0,310.36,727.27Zm-7.78-3.53c-4.68,0-8.64-3.31-8.64-11.09,0-8.71,4.18-11.81,8.21-11.81s8.35,3.1,8.35,11.52C310.5,720.43,306.25,723.66,302.58,723.74ZM267,731h9.86V680h-9.79Zm-17.5,0h9.86V680h-9.79Zm-18.29-4.18a11.64,11.64,0,0,0,1.15,4.18h10.08a5.47,5.47,0,0,1-1.66-3.82V707.11c0-8.78-4.54-14-16.49-14-11.09,0-15.7,6-15.48,12.24l8.71,0.14c0-2.74,2-5.33,7.06-5.33,4.82,0,6.48,2.38,6.48,4.1,0,1.51-.94,2.88-3.6,3.38l-5.68.94c-8.06,1.44-10.23,3-11.81,4.32a10.2,10.2,0,0,0-3.38,7.63c0,6.05,4.75,11.52,14,11.52C226,732,229.14,730.22,231.23,726.83Zm0.07-15.12-0.07,4.61c0,5.18-3.24,8.42-8.85,8.42-4.11,0-6.12-2.45-6.12-4.68,0-1.73.65-3.67,6.84-5.4l4.25-1.15A12.05,12.05,0,0,0,231.3,711.72Zm-31,19.29v-7.56h-3.67a3.81,3.81,0,0,1-2.88-1.37,5.86,5.86,0,0,1-.43-2.88V701.06H200v-6.7h-6.62l-0.07-11.59H183.5v11.59h-5.18v6.77l5.26-.07L183.5,720c0,8.28,3.38,11,8.86,11h8Zm-53.57-15.62L174,715.46c0-10.87-4.9-22.39-18.58-22.39-14,0-18.43,11.16-18.43,19.51,0,12.17,8.06,19.73,18.36,19.73s16.49-5.54,18-12l-9.94-.65c-1.87,3.38-4.39,4.75-7.63,4.75C151.1,724.46,147.28,721.29,146.78,715.39Zm0.43-7.13a8.38,8.38,0,0,1,8-7.49c4,0,7.49,2.74,8.13,7.49H147.21Z"/><path class="b" d="M185.73,811.8c-4.68,0-8.71-3.17-8.71-11.09,0-8.86,4.32-12,8.35-12s8.5,3.31,8.5,11.45C193.87,805.61,191.56,811.73,185.73,811.8Zm221.18,6.34h9.86l0.07-16.27c0-5.47,1.37-8,3-9.72a8.73,8.73,0,0,1,6.7-2.88,12.54,12.54,0,0,1,1.66.14l0.07-8.71a14.65,14.65,0,0,0-2.09-.21A9.38,9.38,0,0,0,417,787l-0.36-5.54H407ZM380.7,819.5c11.16,0,19.29-7.85,19.29-19.8,0-11.59-8-19.59-19.37-19.59-11.09,0-19.22,7.92-19.22,19.51C361.4,811.73,369.61,819.5,380.7,819.5Zm0-7.7c-4.68,0-9.22-3.6-9.22-11.74,0-8.78,4.39-12.24,9.22-12.24s9.22,3.53,9.22,11.88C389.91,808.27,385.45,811.8,380.7,811.8Zm-59.76,6.34h9.86l-0.07-12,4.18-4.1L345,818.14h12L342,795.6l13.18-14.11H343.47l-12.67,14-0.07-28.3h-9.86ZM280,805.9c0.22,6.91,6.05,13.54,17.28,13.54s16.34-6.12,16.34-12.67a10.34,10.34,0,0,0-2.23-6.41c-1.37-1.73-3.17-3-7.49-4l-10.44-2.45c-2.23-.58-3.1-1.94-3.1-3.24s1.29-3.67,6.12-3.67c5.11,0,7.42,2.74,7.49,5.69l8.71-.14a13.24,13.24,0,0,0-5.26-9.65c-2.16-1.51-5.54-2.81-10.8-2.81-10.58,0-15.27,5.69-15.27,11.95a9.44,9.44,0,0,0,2.59,6.91c1.29,1.37,2.88,2.52,7,3.38l7.85,1.8c4.61,1,5.18,2.45,5.18,4.18s-1.51,4.1-6.91,4.1c-5.19,0-7.78-2.73-8.06-6.55ZM233.75,814a14.91,14.91,0,0,0,1.3,4.18H245c-0.51-.51-1.51-2.16-1.51-5.19l-0.14-18.72a18.52,18.52,0,0,0-.51-5c-1.51-5-5.62-9.07-15.55-9.07-11.38,0-15.91,5.83-15.91,12.24l8.71,0.14c0.36-2.45.72-3,1.51-3.67s2.81-1.73,5.76-1.73c4.61,0,6.34,2.45,6.34,4.18s-1.08,3-3.74,3.46L220,796.54c-7.42,1.29-10.87,6.12-10.87,10.94,0,6.34,4.9,11.74,13.75,11.74C229,819.22,232.38,816.77,233.75,814Zm0-15.34v5.47c-0.21,4.61-3.38,7.78-8.71,7.78-4.18,0-6.12-2.45-6.12-4.61,0-1.73.86-4,6.7-5.4l4.25-1.15A7.78,7.78,0,0,0,233.75,798.63Zm-7.2-21.38a5.12,5.12,0,0,0-.14-10.23,5.15,5.15,0,0,0-5.18,5.11A5.09,5.09,0,0,0,226.55,777.24Zm-0.07-2.09a3,3,0,0,1-3.17-3,3.21,3.21,0,0,1,3-3.1A3.06,3.06,0,0,1,226.48,775.16Zm-49.54,38.73c2.09,3.38,5.76,5.47,10.73,5.47,10,0,16.2-9.29,16.2-19.73,0-10-6-19.29-16.06-19.29a13.26,13.26,0,0,0-10.65,5l-0.43-3.74-9.72.07,0.07,48.45h9.79Z"/><path class="c" d="M35.39,297.63c0,144.79,117.43,262.22,262.21,262.22S559.75,442.41,559.75,297.63,442.39,35.48,297.6,35.48,35.39,152.84,35.39,297.63Zm425,132.81c67.48-82.54,62.73-204.35-14.27-281.35s-198.85-81.8-281.39-14.32ZM134.66,164.87C67.23,247.41,72,369.27,149,446.25S347.78,528,430.32,460.52Z"/></svg>