<svg xmlns="http://www.w3.org/2000/svg" viewBox="0 0 595.28 850.36"><defs><style>.a{fill:#e5e8eb;}.a,.b,.c{fill-rule:evenodd;}.b{fill:#000100;}.c{fill:#ad1922;}</style></defs><title>P036_C</title><polyline class="a" points="0 850.36 595.28 850.36 595.28 0 0 0 0 850.36"/><path class="b" d="M437.43,407.8a35.4,35.4,0,0,0-8.78-14.8c-13.75-19.64-15-45.18-22.28-68.17l5.86-9.52C404,296.62,388,258.92,390.44,245.57c8.88,20.2,39.28,34.56,47.39,37.32,1,0.61,1.92.86,2.95,1.36,3.06,1.94,10.39,3.57,13,2.74,1.76-.43,6.57-2.17,6.39-7.59-0.12-5.25-10.67-12-17.67-14.47-37.49-15-33.24-59.61-70.15-66-2.15-.3-2.73-1.42,1.65-2.45,6.15-3.09,9.94-22.41,8.93-35.67-0.14-5-5.6-12.57-5.6-12.57a20.8,20.8,0,0,0-7.51-3.48c-10.25-1.94-20.69.79-27.7,8.8-4.84,7.55-6.7,16.93-5.28,26.95,0.93,5.79,4,9.93,9.11,11.67,3.69,1.4,1.29,5.39-.5,6.61-24.31.53-55.19,37.37-56.82,39.11-1.62,2.35-.39,15.65,1.6,22.7-11.77,27.21-44.38-18.61-35.52-35.49a41.41,41.41,0,0,0,5-14.25c0.09-8.66.86-20.24-7.34-26.11-5.89-5.55-15-5.2-22.21-3.27A26.51,26.51,0,0,0,219,189.42c-9.67,12.26-.51,35.29-16.67,42.71-1.5.69-5.11,2.68-6.56,3.49-7.5,5.45-11.9,9.39-17.23,16a123.9,123.9,0,0,0-7,10.76c-9.29,18.49-15.93,42-14.62,59.38a10.61,10.61,0,0,0,5.08,2.94,7.45,7.45,0,0,0,6.06-.63l0.1-.06a6.66,6.66,0,0,0,.58-0.39l0.21-.14a2.26,2.26,0,0,0,.26-0.24,7.47,7.47,0,0,0,2.24-3.4,56.27,56.27,0,0,0,1.48-12c2.89-15,9.73-30.42,20.33-41l3.17,2.91c-0.67,8.06-1.65,18-3,26.06-0.86,5.14-1.62,9.22-2.31,12.21a51.41,51.41,0,0,1-3,10.43c-6.41,17.88-24.43,25.11-40.12,32.79-5.19,2.55-10.92,4.59-15.25,6.68-0.26.22-.92,0.84-1.65,1.52a15,15,0,0,0-1.6,1.51l-1.07,1a1.58,1.58,0,0,0-.54,1.07,14.93,14.93,0,0,0,6.63,21.73l0,0c3.32,2.13,6.09,1.86,9.7.74a15.54,15.54,0,0,0,1.68-.56l3.51-1.24c0.46-.28,23.12-9.6,41.55-24.35,7.76-6.22,15-12.48,20.54-20.9,2.06-3.18,9.66-16.47,10.47-20,3.3,3.26,6.25,10.15,8.54,14.41,3.45,6.44,5.88,15.3,8.17,23.93,3.25,15.76,4.55,27.59,7.2,41,0.75,3,.7,4.47,1.11,6.09a19.28,19.28,0,0,0,1.32,5.79A15,15,0,0,0,270,418.64a18.84,18.84,0,0,0,1.86-.81c1.26-.62,2.76-3,4-3.68a11.2,11.2,0,0,0,.92-3.08l0.1-.24c0.27-.73.67-2.27,0.67-2.27s0.25-1.61.3-2.7c0.33-1.68.56-3,.56-3s-1.33-11-1.7-16.91c3.91,6.2,11.26,12.05,21.66,1.07,0.09-.1.16-0.21,0.24-0.32,0.29-.45.59-0.93,0.87-1.45a14.37,14.37,0,0,0,1.14-2.86,5.82,5.82,0,0,0,.47.47,38.29,38.29,0,0,1,1.94-3.52c0.47-.79,1-1.56,1.52-2.29,5.7-8.19,14-14.84,21.81-21,11.08-8.76,31.51-25.76,33.7-25.68,5.76,0.23,12.83.72,17.82-.59,9.64,7.92,8.94,18.55,12.42,30.83C394.88,377,408.5,430.23,437.43,407.8ZM303,332.71c-10.25,12.21-20.71,27.25-24.72,34.43a14.83,14.83,0,0,0-4.73,9.38,25.48,25.48,0,0,1-1.63-4.53c-0.7-3-1.44-6.24-2.15-9.52-3-13.69-5.86-28.36-7.71-33.87-3.37-14.52-15.77-32.88-10.64-47.46C255,268.43,319.78,312.59,303,332.71Z"/><path class="b" d="M138,643.92h10.72V593H138v51Zm286.26,0h9.86l0.07-20.52c0-2.88.58-4.25,1.37-5.4a7.41,7.41,0,0,1,6-3.1c3.38,0,5.83,2.23,5.83,6.33v22.68h9.86V618.08c0-6.84-5-12.1-12.67-12.1-5.26,0-8.93,2.81-10.15,5.69L434,607.35l-9.65-.07Zm-26.64,0h9.87V627.65c0-5.47,1.37-8,3-9.72a8.84,8.84,0,0,1,6.7-2.88,13.72,13.72,0,0,1,1.73.14v-8.71a12.21,12.21,0,0,0-2.09-.22,9.52,9.52,0,0,0-9.15,6.55l-0.29-5.54H397.7Zm-18.29-4.18a10.31,10.31,0,0,0,1.16,4.18h10a6.23,6.23,0,0,1-1.66-3.82L388.91,620c0-8.78-4.61-14-16.49-14-11.09,0-15.7,6-15.55,12.24l8.71,0.14c0-2.74,2.09-5.33,7.13-5.33,4.83,0,6.41,2.38,6.41,4.1,0,1.51-.94,2.88-3.6,3.38l-5.61.94c-8.13,1.44-10.3,3-11.81,4.32a9.94,9.94,0,0,0-3.38,7.63c0,6.05,4.75,11.52,14,11.52C374.08,644.93,377.18,643.13,379.34,639.75Zm0-15.12v4.61c0,5.18-3.24,8.42-8.93,8.42-4.1,0-6-2.45-6-4.68,0-1.73.58-3.67,6.77-5.4l4.25-1.15A11.31,11.31,0,0,0,379.34,624.63Zm-66.74,19.29h9.72l0.51-3.74a12.85,12.85,0,0,0,10.58,4.9c8.06,0,16.06-6.62,16.06-19.58,0-12.6-8.06-19.44-16-19.44-5.33,0-9.07,2.31-10.95,5.47L322.46,593h-9.86v51ZM331,636.58c-4.11,0-8.35-3.24-8.35-11.45s4.25-11.45,8.28-11.45c4.39,0,8.43,3.1,8.43,11.59C339.31,633.34,335.2,636.58,331,636.58Zm-66.38,3.17a10.25,10.25,0,0,0,1.15,4.18h10a6.21,6.21,0,0,1-1.66-3.82L274.15,620c0-8.78-4.61-14-16.49-14-11.09,0-15.7,6-15.55,12.24l8.71,0.14c0-2.74,2.09-5.33,7.13-5.33,4.82,0,6.41,2.38,6.41,4.1,0,1.51-.94,2.88-3.6,3.38l-5.61.94c-8.14,1.44-10.3,3-11.81,4.32a9.94,9.94,0,0,0-3.38,7.63c0,6.05,4.75,11.52,14,11.52C259.32,644.93,262.41,643.13,264.57,639.75Zm0-15.12v4.61c0,5.18-3.24,8.42-8.93,8.42-4.1,0-6-2.45-6-4.68,0-1.73.58-3.67,6.77-5.4l4.25-1.15A11.32,11.32,0,0,0,264.57,624.63Zm-66.38,21.31a10.73,10.73,0,0,0,3.6,7.35c2.23,2.16,6.33,4.18,13.39,4.18,8,0,13-3,15.48-6.12,1.73-2.23,2.59-4.25,2.59-9.72V607.28h-9.43l-0.29,4.46c-0.72-1.15-2.73-5.76-10.87-5.76-8.85,0-16.56,7.06-16.56,18.36s7.78,18.44,16.49,18.44c5.83,0,9.5-2.67,10.87-5.47v4c0,6.19-2.88,8.78-8.5,8.78-4.25,0-6.33-2.16-6.63-4.46Zm16.7-11.66c-4.82,0-8.78-3.46-8.78-10.23,0-5.9,4.1-9.65,8.57-9.65s8.64,3.74,8.64,9.93S219.14,634.28,214.89,634.28Zm-58.53,9.65h9.86l0.07-20.52c0-2.88.58-4.25,1.37-5.4a7.4,7.4,0,0,1,6-3.1c3.38,0,5.83,2.23,5.83,6.33v22.68h9.86V618.08c0-6.84-5-12.1-12.67-12.1-5.26,0-8.93,2.81-10.15,5.69l-0.43-4.32-9.65-.07Z"/><path class="b" d="M208.05,731v-7.56h-3.67a3.66,3.66,0,0,1-2.81-1.37c-0.21-.29-0.5-0.86-0.5-2.88V701.05h6.62v-6.7h-6.62L201,682.77H191.2v11.59h-5.11v6.77l5.19-.07L191.2,720c0,8.28,3.46,11,8.86,11h8Zm189.78-4.18a11.56,11.56,0,0,0,1.22,4.18h10a6.19,6.19,0,0,1-1.66-3.82V707.1c0-8.78-4.54-14-16.49-14-11.09,0-15.7,6-15.48,12.24l8.71,0.14c0-2.74,2-5.33,7.06-5.33,4.82,0,6.48,2.38,6.48,4.1,0,1.51-.93,2.88-3.6,3.38l-5.69.94c-8.06,1.44-10.23,3-11.81,4.32a10.14,10.14,0,0,0-3.31,7.63c0,6,4.75,11.52,14,11.52C392.65,732,395.74,730.21,397.83,726.83Zm0.07-15.12-0.07,4.61c0,5.18-3.24,8.42-8.85,8.42-4.11,0-6.12-2.45-6.12-4.68,0-1.73.65-3.67,6.84-5.4l4.25-1.15A12.05,12.05,0,0,0,397.91,711.71ZM333.76,731h9.86V710.49c0-2.88.58-4.25,1.44-5.4a7.41,7.41,0,0,1,6-3.1c3.38,0,5.83,2.23,5.83,6.33V731h9.79V705.16c0-6.84-5-12.1-12.6-12.1-5.26,0-8.93,2.81-10.15,5.69l-0.43-4.32-9.65-.07Zm-7.27,0v-7.56h-3.67a3.65,3.65,0,0,1-2.81-1.37c-0.22-.29-0.51-0.86-0.51-2.88V701.05h6.63v-6.7H319.5l-0.07-11.59h-9.8v11.59h-5.11v6.77l5.18-.07L309.64,720c0,8.28,3.46,11,8.86,11h8Zm-36.57-4.18A15,15,0,0,0,291.2,731h9.86c-0.51-.51-1.51-2.16-1.51-5.18l-0.14-18.72a18.61,18.61,0,0,0-.5-5c-1.44-5-5.47-9.07-15.48-9.07-11.38,0-15.91,5.83-15.91,12.24l8.71,0.14c0.36-2.45.79-3,1.59-3.67s2.73-1.73,5.68-1.73c4.61,0,6.34,2.45,6.34,4.18s-1.08,3-3.74,3.46l-9.87,1.73c-7.48,1.29-10.87,6.12-10.87,10.94,0,6.34,4.83,11.74,13.75,11.74C285.16,732.09,288.54,729.64,289.91,726.83ZM290,711.49L289.91,717c-0.21,4.61-3.31,7.78-8.71,7.78-4.11,0-6.12-2.45-6.12-4.61,0-1.73.86-4,6.7-5.4l4.25-1.15A8.39,8.39,0,0,0,290,711.49Zm-7.2-21.38a5.12,5.12,0,0,0-.21-10.22,5.2,5.2,0,0,0-5.19,5.11A5.11,5.11,0,0,0,282.78,690.11ZM282.64,688a3,3,0,0,1-3.17-3,3.21,3.21,0,0,1,3-3.1A3.06,3.06,0,0,1,282.64,688ZM250,731h9.86V680H250Zm-17.49,0h9.86V680h-9.79ZM215,731h9.79V694.36H215V731Zm0-42.19h9.86V680H215v8.78Z"/><path class="c" d="M35.39,297.62c0,144.79,117.43,262.22,262.21,262.22S559.75,442.41,559.75,297.62,442.39,35.48,297.6,35.48,35.39,152.84,35.39,297.62Zm425,132.81c67.48-82.54,62.72-204.34-14.27-281.34s-198.85-81.8-281.39-14.32ZM134.66,164.87C67.23,247.41,72,369.27,149,446.25S347.78,528,430.32,460.51Z"/></svg>