<svg xmlns="http://www.w3.org/2000/svg" viewBox="0 0 595.3 841.9"><defs><style>.a{fill:#083d69;}.a,.b{fill-rule:evenodd;}.b{fill:#fff;}</style></defs><title>PM003B_C</title><path class="a" d="M0,785.23A56.63,56.63,0,0,0,56.66,841.9h481.9a56.7,56.7,0,0,0,56.74-56.67V56.66A56.69,56.69,0,0,0,538.56,0H56.66A56.62,56.62,0,0,0,0,56.66Z"/><path class="b" d="M109.2,772.72c0,15.7,11.66,29.6,36.36,29.6,24.91,0,35.71-13.32,35.71-27.65,0-10.66-6.7-20.38-21.31-24l-20.16-5.11c-6-1.51-6.63-2.31-7.85-3.6a7.85,7.85,0,0,1-2.23-5.62c0-4.89,4.17-10.8,16.27-10.8,5.9,0,10.44,2.09,12.89,4.54a13.66,13.66,0,0,1,4,9.21l16.92.15c-.72-9.36-3.89-15-8.57-19.23-4.82-4.46-13.9-8.56-26.28-8.56-22.54,0-32.91,12.6-32.91,26.56,0,10.8,6.05,19.66,21,23.4l17.28,4.32c3.17.8,7.63,1.44,10.51,5a9.94,9.94,0,0,1,2.09,5.69c0,5.47-4.1,11.74-17.93,11.74-13.39,0-18.93-7-18.65-15.41Zm100.87,26.72h17.49V728.66h25.71V714.4h-69v14.26h25.78Zm49.61,0H323V784.82H277.24V761.49h40v-14H277.31V728.66h44.93V714.4H259.68Zm115.05-31.76h21.1a22.35,22.35,0,0,1-22.54,20c-12.24,0-23.83-9.36-23.83-30.31,0-17.21,9.22-31.32,24.12-31.32,10.08,0,17.78,6.4,19.8,15.4l17.14-.57c-1.73-8.57-5.19-14.47-10.45-19.23-6.4-6-15.47-9.86-27.71-9.86-25.78,0-40.61,21.6-40.61,45.86,0,15.12,5,26,13,33.77,7.77,7.56,16.56,10.8,25.49,10.8a33.49,33.49,0,0,0,16.05-3.53,24.17,24.17,0,0,0,10.66-10.51l.86,11.31h13.1l-.07-44.93H374.73Zm48,31.76h63.36V784.82h-45.8V761.49h40v-14h-40V728.66h45V714.4H422.76Z"/><path class="b" d="M457.07,603.13,332,59.72l11.19.36L465.72,600.39Zm-29.64-90.78-66.6-28-.11-.65,67.69,28Zm-60.55,39.44-9.63,2.59-.47-.25-26.5-157.28.48-.08h0l1.09-.18.2,0h.43l.22,0,9.24-1.56,3.79,23.82v0l1,6.25v0l8.79,55.21,1,6ZM273.29,397.65h0v0h0l0,.11-.89,5.68v0h0L229.7,675.29l-10.89,4.59,94.5-620.77,13.08.43-1.71,10.85h0v0h0l-11,70.16-1.21,7.66v0h0l-4.8,30.59v0h0l-7.25,46.19h0v0h0L299,234l-.36,2.24v0h0l-19.4,123.5v0l0,.19-.74,4.73a0,0,0,0,0,0,0ZM215.48,607.46,157.84,569l-7.27-4.86-2.42-1.61h0L145.89,561l.59-2.54,73.87,48.42-.54,3.5-1.41-.94h0Zm-70.75,3.82-11.1,3,9.06-39,6.82-6.31,4.43,3Zm11.62-94.84,7.15-7L168,512l-8.63,36.91-11.13,2.64Zm7.52,33.31,8.28-35.38,50.54,28.76,4.85,17.11-4.2,27.24Zm-3.63-50.58,70.66,39.34-.57,3.65-1.57-.89-3-1.69h0l-54-30.73s0,0,0,0h0l-7.48-4.26-2.48-1.41-2.18-1.24Zm9.95-42.3,7.48-7.7,4.49,2.12-9.13,39-11.14,2.3Zm7.4,34.23,8.85-37.79,46.77,22.11,4.91,16.36-4.56,29.49Zm-3.41-52,67.27,31-.58,3.78-1.75-.83-3-1.42-50.3-23.77h0l-7.65-3.61-2.55-1.2-2.1-1Zm10-42.63,7.8-8.43,4.54,1.72L186.91,431l-11.16,2Zm7.29,35.16,9.4-40.22,42.84,16.22,4.95,15.6L243.79,455Zm-3.2-53.31L252,401.77l-.6,3.88-1.94-.74-3-1.15L200.08,386.2l-7.89-3h0l-2.58-1h0l0,0h0l-2-.74Zm10.11-43,8.13-9.19,4.58,1.31L201,370.84h0v.06l-11.18,1.61Zm21,41,34.76-5.08.1,0,.07,0,.16,0h.3l.33,0h0l1.64-.25L254,388.72Zm34.19-14.78h0l-.18,0h-.05l-.17,0-.05,0-.14.06-.08,0-.11.06-.09.05h0l-46.41,6.66,9.31-39.81,38.72,11.13,5,14.83-1,6.18Zm-51-44.8,60,16.56-.6,3.95-2.16-.62h0l-3-.88h0l-42.19-12.12-8.1-2.33h0l-2.68-.77h0l-1.88-.54Zm10.2-43.36,8.45-10,4.63.92L215.21,310,204,311.27Zm7,37,10.57-45.18,34.42,6.82,5,14.07-5.59,36.19Zm-2.76-56,56,10.5-.61,4-2.38-.46h0l-3.12-.63h0l-37.89-7.51-8.28-1.64h0l-2.73-.54h0l-1.75-.35Zm10.29-43.76,8.78-10.77,4.69.52-11.21,47.9-11.21.87Zm53.07,6.91L274.53,256l-40.22-7.31L245.47,201l29.94,3.34Zm-48.69-26.32,51.95,5.24-.62,4-2.6-.29-3.17-.35L244,196.13l-8.53-.95-2.83-.31-1.62-.18Zm10.38-44.18,9.11-11.6,4.76.13-11.75,50.22-11.23.48Zm45.46,24.25-2.81,18.19L249,186l11.77-50.29,21,.57Zm-41-44.08,47.65.8-.61,4-2.83-.08h0l-3.18-.08h0l-3.56-.1h-.31L259,131.08h0l-8.75-.23-2.9-.08h0l-1.49,0Zm15-64,11.24.33-1.87,8,0,.1v0l-11.9,50.87-11.24.08Zm32.19.09,10.56-.65-5.25,34ZM279.41,122.8l-15.6-.25,9.05-38.66Zm-.9-59.08,10.75.32,7.56,47.55-1.77,11.47-6.83-.11Zm-18.7-11.83,51.81-4.1-1.05,6.8-3.11.2h0l-47.75,3.13h0l-1.25.08ZM329,284.44l-9.41-59.16,42.3,5.52,14.77,63.34Zm1.11,6.93-.33-2.05,48,9.77.58,2.48Zm9.68,60.84-8.91-55.95,48.67,10.28,14.16,60.7Zm1.05,6.6-.25-1.58,54.32,15.14.47,2Zm.8,5,46.48,13.3-39.06,6.43h0l-.16,0h-.61l-3.38.55ZM360.1,223.07l.68,2.92-41.94-5.47-.4-2.54Zm-16.54-70.89L359,218.27l-41.3-5-5.41-34L316.7,151Zm-24.93-13.44,8.77-55.87,13.21,56.62Zm23.06,5.41.79,3.36-25.06-1.09.48-3.08ZM305,225.45,310,194l3.44,21.64v0h0l1.15,7.22v0l10.15,63.76h0l1.1,6.92,9.67,60.73,1,6.59,3.8,23.87-8.94,1.48Zm16.81,131.22h0l0,.07h0Zm-37.53.74L301,251l17.12,101.61Zm35.38,4.32,4.38,26-45.69,7.52,4.41-28.09Zm30.4,55-3.58-22.49,4-.67h.07l.13,0,.09,0,.13,0,.1,0,.11,0,.1-.05,0,0L398,385.48l12.19,52.26Zm75.76,88.88-66-27.34-8-50.09,62.3,22.16Zm-14.39-61.12L351,423l-.18-1.1,61.7,21.52ZM316.32,47.64l24.24,1,1.56,6.82-13-.42-13.9-.45ZM470.74,601.82v-.14s0-.06,0-.09,0-.09,0-.14h0L347.3,57.32h0l-2.63-11.48a0,0,0,0,0,0,0,.74.74,0,0,0,0-.14.19.19,0,0,0,0-.08,1.12,1.12,0,0,1-.05-.13l0-.09s0-.07-.05-.1l-.06-.11,0-.07a1,1,0,0,0-.08-.11.18.18,0,0,0,0-.07l-.09-.11-.06-.06-.09-.09-.08-.06-.09-.08-.1-.07-.08,0-.11-.06-.08,0-.12-.05-.09,0-.11,0-.11,0-.1,0-.13,0-.09,0h-.18l-28.07-1.11h-.27l-56.39,4.46-.25,0h-.06l-.16,0-.11,0-.1,0-.13.06-.08,0-.12.07-.07,0-.11.08-.07,0-.09.08-.08.07a.46.46,0,0,0-.07.07l-.09.09-.05.07-.09.11,0,.07a.83.83,0,0,0-.08.12.36.36,0,0,0,0,.09l-.06.11-.06.14a.14.14,0,0,1,0,.06,2.17,2.17,0,0,0-.07.24L253.19,60a0,0,0,0,0,0,0h0L124.7,614.2a.09.09,0,0,1,0,0,.68.68,0,0,1,0,.14s0,.06,0,.1a.49.49,0,0,0,0,.12v.21a.53.53,0,0,0,0,.13.28.28,0,0,0,0,.09c0,.05,0,.09,0,.13s0,.06,0,.1l0,.12,0,.1,0,.1a.54.54,0,0,1,0,.11l0,.09a.41.41,0,0,1,.07.11l0,.08.07.11.06.07.08.1.08.08.07.07.1.09,0,0,.81.63s0,0,0,.06l0,.12s0,.06,0,.1,0,.09,0,.13v.27a.15.15,0,0,1,0,.07s0,.08,0,.11a.7.7,0,0,0,0,.14.13.13,0,0,0,0,.06v0l0,.1a.22.22,0,0,0,0,.1.36.36,0,0,0,0,.09.3.3,0,0,0,0,.1l0,.08a.6.6,0,0,0,.06.11l0,.07.07.11a.1.1,0,0,1,0,.05l.09.11,0,.05.12.12,0,0,.15.13,0,0,.12.09.08,0,.09.06.1,0,.08,0,.1,0,.09,0,.1,0,.11,0,.09,0h.59l1.24-.09h0l.17,0h.06l.17,0h.05l.23,0h0l.23,0H131l.18,0h.06l.18,0h.05l.23-.1.2-.11.08,0,.12-.08.08-.07h0l15.05-4h0l.19,0,.06,0,.13-.06.08,0,.1-.05.08,0L148,615l.09-.06.12-.12,0-.05.11-.1,0-.05.09-.12,0,0,.08-.13,0-.05a.61.61,0,0,0,.07-.14l0,0,.05-.14,0-.06,0-.13,0-.09,9.13-39,54.14,36.17L217,628.67l-7.81,50.55h0a.07.07,0,0,1,0,0,.41.41,0,0,1,0,.11v0a.09.09,0,0,1,0,.05v1h0v.06a.86.86,0,0,1,0,.16s0,.08,0,.12,0,.07,0,.1l0,.13s0,.06,0,.09l0,.13,0,.08a.61.61,0,0,1,.05.12l0,.09a.41.41,0,0,0,.05.09l.06.11.05.07.08.11.06.07.09.1a.27.27,0,0,0,.08.07l.08.08.13.11s0,0,.05,0h0l4.44,3.11.05,0,0,0,.05,0,.14.08.06,0h0a.33.33,0,0,0,.12,0l.05,0,.12,0h0l.05,0,.14,0h.76l.15,0h0l.08,0,.09,0,.08,0,.08,0,.06,0h0l15.86-6.68h0l.13-.07.08,0,.1-.06.09-.06.08-.06.15-.13.08-.07.07-.08.08-.09.05-.06a1,1,0,0,1,.08-.11l0-.07.07-.12,0-.06.06-.13,0-.07s0-.09,0-.13,0-.06,0-.09l0-.11a.43.43,0,0,0,0-.11s0,0,0,0l42.62-271.43,49-8.23L352.41,556s0,0,0,0,0,.07,0,.1l0,.12,0,.08s0,.09,0,.13l0,.07.06.13a.43.43,0,0,1,0,.07.75.75,0,0,0,.07.12l0,.06.08.11s0,.05.05.06l.1.11.06.07.14.12.06.05.12.08.06.05.13.07,0,0,2.28,1.2h0l.22.1.06,0,.24.07h0l.22,0h.06l.25,0,.3,0,.13,0,.17,0,12.5-3.36a1.09,1.09,0,0,0,.24-.07h0l.19-.08.06,0,.13-.07.09-.06.09-.07.1-.08.08-.07.08-.09.07-.07.07-.09.07-.08.06-.09.06-.1a.3.3,0,0,0,0-.08l.06-.12s0-.05,0-.07l.06-.13s0-.06,0-.08,0-.09,0-.14,0-.07,0-.1a.5.5,0,0,0,0-.12.61.61,0,0,0,0-.14.22.22,0,0,0,0-.08v-.23c0-.08,0-.15,0-.22h0l-10.08-63.38L428.88,518l20.21,86.68h0l0,.12s0,.05,0,.08,0,.09.05.13l0,.06.07.14,0,0,.09.16h0a2.24,2.24,0,0,0,.94.83l4,1.95h0l.18.07.05,0,.22.07h.05a.52.52,0,0,0,.18,0h.29a1.51,1.51,0,0,0,.3,0h0l.27-.06h.1l13.06-4.15h0l.13,0,.08,0,.13-.06.08,0,.11-.07.09-.06.09-.07a.5.5,0,0,0,.08-.07l.08-.07.09-.08.06-.08.08-.09.06-.09.07-.09.06-.1a.41.41,0,0,1,.05-.09,1.17,1.17,0,0,1,.05-.11l0-.09a.56.56,0,0,0,0-.12l0-.09,0-.13a.29.29,0,0,0,0-.09.5.5,0,0,0,0-.12s0-.07,0-.11a.34.34,0,0,1,0-.1v-.12A.31.31,0,0,0,470.74,601.82Z"/></svg>