<svg xmlns="http://www.w3.org/2000/svg" viewBox="0 0 595.3 841.9"><defs><style>.a{fill:#083d69;}.a,.b{fill-rule:evenodd;}.b{fill:#fff;}</style></defs><title>PM002A_C</title><path class="a" d="M0,785.23A56.63,56.63,0,0,0,56.66,841.9h481.9a56.7,56.7,0,0,0,56.74-56.67V56.66A56.69,56.69,0,0,0,538.56,0H56.66A56.62,56.62,0,0,0,0,56.66Z"/><path class="b" d="M294.24,445.69l-5.63-.14-5.6-.36-5.52-.58-5.39-.8-5.28-1-5.09-1.21-4.9-1.41-4.67-1.59-4.42-1.75-4.15-1.92-3.84-2.07-3.53-2.19L233,428.36,230.18,426l-2.48-2.48L225.58,421l-1.76-2.57-1.38-2.6-1-2.61-.67-2.61-.33-2.6v-2.6l.35-2.6.68-2.58,1-2.58,1.36-2.55,1.7-2.53,2-2.47,2.35-2.41,2.66-2.34,2.95-2.24,3.25-2.15,3.5-2L246,377l4-1.76,4.19-1.62,4.39-1.46,4.55-1.31,4.7-1.14,4.82-1,4.92-.79,5-.62,5.06-.43,5.11-.25,5.12-.07,5.11.11,5.08.3,5,.48,5,.66,4.85.84,4.74,1,4.59,1.18,4.44,1.34,4.25,1.5,4,1.65,3.83,1.79,3.59,1.93,3.31,2.05,3.05,2.16,2.74,2.26,2.45,2.35,2.12,2.41,1.79,2.48,1.47,2.51,1.12,2.55.79,2.56.46,2.58.12,2.59-.21,2.6-.56,2.62-.9,2.62-1.27,2.62L367.24,419l-2,2.58-2.36,2.54-2.73,2.47-3.07,2.39-3.42,2.29-3.74,2.16-4,2-4.33,1.88L337,439l-4.82,1.54-5,1.36-5.21,1.16-5.36.95-5.48.75-5.56.52-5.63.31Zm49,2.5,5.2-2,.07,0,.06,0,4.91-2.15.09,0,.06,0,4.6-2.33.09-.05.06,0,4.27-2.49.11-.07s0,0,0,0l3.91-2.65.05,0,.11-.08,3.55-2.78.08-.07.09-.07,3.16-2.9.09-.1a.27.27,0,0,0,.08-.07l2.76-3,.13-.15,0-.05v0h0l2.34-3.06c.05-.08.11-.16.16-.25l1.93-3.14c.05-.09.1-.17.14-.26h0l1.52-3.2v0a1.71,1.71,0,0,0,.07-.18l0-.07v0l1.09-3.24v0c0-.05,0-.11,0-.16a.43.43,0,0,1,0-.11v0l.66-3.26v0c0-.05,0-.1,0-.15s0-.09,0-.13v0l.11-1.48.13-1.77v-.37L385,402.7v0c0-.05,0-.1,0-.15s0-.1,0-.15v0l-.6-3.21s0,0,0,0l0-.15a.57.57,0,0,0,0-.14v0l-1-3.16v0a.78.78,0,0,0,0-.14l-.05-.14h0l-1.4-3.11h0l-.06-.12a.91.91,0,0,1-.07-.14h0l-1.8-3h0l0,0a1.37,1.37,0,0,0-.13-.2h0l-2.14-2.92h0v0l-.08-.1-.09-.1,0,0-2.51-2.83-.08-.09a.6.6,0,0,0-.08-.08l-2.88-2.74a.27.27,0,0,0-.08-.07l-.08-.07L368.39,377l-.08-.06-.08-.05-3.52-2.49-.07,0-.08-.06L360.75,372l-.07,0-.07-.05-4.09-2.18-.08,0-.06,0-4.35-2-.07,0-.06,0-4.58-1.86-.07,0-.06,0-4.8-1.69-.06,0h-.05l-5-1.51h-.06l-.06,0L332,361.06H332l-.05,0-5.31-1.12h-.1l-5.44-.93H321l-5.54-.73h-.1l-5.61-.53h-.1l-5.67-.33h-.1l-5.7-.13H298l-5.71.08h-.1l-5.7.28h-.1l-5.65.48h-.11l-5.59.68H275l-5.51.88h-.1l-5.4,1.07-.06,0h0L258.58,362h-.05l-.06,0-5.11,1.45-.06,0-.06,0-4.93,1.64-.06,0-.06,0L243.45,367l-.06,0-.06,0-4.52,2-.07,0-.06,0-4.28,2.15-.06,0-.07,0-4,2.3-.07.05-.08,0-3.73,2.45-.07.05-.08.05-3.42,2.59-.08.06-.08.06-3.11,2.71-.08.07-.07.08-2.78,2.82-.08.09-.08.09-2.4,2.9h0l0,0-.08.12-.08.09v0h0l-2,3-.08.13-.07.12L210,394.34h0l-.07.13-.06.14h0l-1.28,3.16v0a.59.59,0,0,0-.06.14l0,.13v0l-.87,3.21v0l0,.15,0,.14v0l-.47,3.24v0s0,.1,0,.15a.71.71,0,0,0,0,.14v0l-.05,3.25v0c0,.05,0,.09,0,.14v.18l.16,1.35.22,1.91s0,0,0,0a.5.5,0,0,0,0,.12.9.9,0,0,0,0,.16v0l.81,3.24s0,0,0,0l0,.1a1,1,0,0,0,.05.16l0,0,1.23,3.22h0l0,.07a1.42,1.42,0,0,0,.08.18v0l1.67,3.17h0a1.35,1.35,0,0,0,.15.26l2.07,3.09h0a1.77,1.77,0,0,0,.16.22l2.5,3,.05.06.12.13,2.91,2.93a.6.6,0,0,0,.08.08l.09.07,3.3,2.82.11.08.05.05,3.69,2.68.12.08,0,0,4,2.54.05,0,.1.07,4.4,2.37.05,0,.09.05,4.72,2.19s0,0,.07,0l.07,0,5,2,.07,0,.07,0,5.29,1.81.08,0,.05,0,5.54,1.59h.05l.08,0,5.76,1.37h0l.07,0,5.94,1.14h.12l6.09.9h.12l6.21.66h.12l6.29.41h.12l6.34.16h.11l6.36-.09h.11l6.33-.34H307l6.27-.6h.12l6.17-.84h.12l6-1.08.07,0h.05l5.88-1.31.07,0h.05l5.68-1.55h.05l.08,0,5.45-1.76.06,0Z"/><path class="b" d="M342.16,451.24,335.75,453l-6.66,1.5-6.84,1.24-7,1-7.12.68-7.19.4-7.22.11-7.21-.19-7.15-.46-7.06-.76-6.9-1-6.73-1.31-6.51-1.56-6.24-1.82L240,448.71l-5.62-2.28L229.08,444l-4.88-2.66-4.47-2.84-4-3-3.58-3.1-3.13-3.2-2.65-3.28-2.18-3.32-1.71-3.37-1.25-3.37-.79-3.39-.34-3.37.09-3.37.53-3.36,1-3.34,1.39-3.3,1.81-3.28,2.24-3.2,2.65-3.15,3-3.05,3.43-2.94,3.79-2.82,4.14-2.68,4.45-2.53,4.76-2.36,5-2.2,5.29-2,5.51-1.82,5.71-1.61,5.89-1.41,6-1.19,6.16-1,6.26-.76,6.32-.53,6.38-.31,6.38-.09,6.38.14,6.34.37,6.28.59,6.18.82,6.07,1L335.5,361l5.76,1.46,5.57,1.66,5.35,1.86,5.1,2.06,4.84,2.23,4.54,2.4,4.23,2.57,3.89,2.7,3.54,2.85,3.16,3,2.76,3.06,2.37,3.14,1.94,3.21,1.52,3.27,1.1,3.3.67,3.33.23,3.35-.11,2-.08,1.35-.64,3.39-1.1,3.4L388.59,420l-2,3.38-2.5,3.33-3,3.27-3.42,3.19-3.88,3.08-4.32,3-4.73,2.8-5.13,2.63L354.14,447l-5.84,2.22Zm41.57-7.76,4.34-3.49.08-.06.09-.08,3.86-3.63a.52.52,0,0,0,.1-.11l.07-.06,3.35-3.75a1.83,1.83,0,0,0,.13-.16l0-.05h0l2.82-3.84.16-.24,2.32-3.92.14-.27h0l1.79-4v0a1.34,1.34,0,0,0,.07-.18l0-.08v0l1.25-4s0,0,0,0a.83.83,0,0,0,0-.15l0-.12a0,0,0,0,1,0,0l.72-4a.06.06,0,0,1,0,0c0-.05,0-.1,0-.15s0-.09,0-.14v0l.08-1.57h0l.13-2.46v-.18c0-.05,0-.1,0-.15v0l-.32-4v0a.78.78,0,0,1,0-.14.89.89,0,0,1,0-.15,0,0,0,0,1,0,0l-.83-4v0a.57.57,0,0,1,0-.14.74.74,0,0,1,0-.14,0,0,0,0,1,0,0l-1.33-3.9v0a1.21,1.21,0,0,0-.05-.14l-.06-.13h0l-1.82-3.82h0l-.07-.12-.07-.13h0l-2.29-3.72h0l-.09-.13-.07-.1h0l-2.73-3.6-.09-.1-.08-.09,0,0h0l-3.16-3.45-.08-.08-.08-.09-3.6-3.34a.27.27,0,0,1-.08-.07l-.08-.07-4-3.18-.08-.06-.07-.06-4.37-3-.08,0-.07-.05-4.73-2.85-.07,0-.07-.05-5.05-2.65s0,0-.07,0l-.07,0L364.22,360l-.07,0-.06,0-5.64-2.25-.06,0-.06,0-5.89-2-.06,0-.06,0-6.11-1.82h-.06l-.06,0-6.31-1.59-.06,0h-.05l-6.49-1.36h-.11l-6.64-1.12h-.1l-6.76-.89h-.1l-6.85-.64h-.1l-6.92-.4h-.1l-6.95-.16h-.1l-7,.1h-.1l-6.94.34h-.1l-6.9.58h-.1l-6.83.82h-.1l-6.73,1.07h-.11l-6.6,1.31h-.1l-6.45,1.53-.06,0h-.05L244,355.1l0,0-.06,0-6.05,2-.06,0-.06,0-5.82,2.2-.06,0-.07,0-5.56,2.4-.06,0-.06,0-5.28,2.61-.06,0-.07,0-5,2.8-.07,0-.07,0-4.63,3-.07,0-.07.05-4.27,3.15s-.05,0-.07.06l-.08,0-3.88,3.31-.08.07-.08.07-3.48,3.45-.07.09-.08.08-3,3.56h0l0,0-.07.1a.76.76,0,0,0-.08.11l0,0h0l-2.59,3.66h0l-.08.13-.07.11h0l-2.14,3.79h0l-.06.13a.75.75,0,0,0-.06.13h0l-1.66,3.88v0s0,.09-.05.14,0,.09,0,.13v0l-1.18,3.95v0l0,.14c0,.05,0,.1,0,.15v0l-.67,4v0c0,.05,0,.1,0,.15s0,.09,0,.14v0l-.15,4v.18a.76.76,0,0,0,0,.15v0l.19,2h0l.18,2s0,0,0,0a.51.51,0,0,0,0,.13.88.88,0,0,0,0,.16v0l.91,4v0l0,.1,0,.17s0,0,0,0l1.44,4v0l0,.08a1.3,1.3,0,0,0,.08.17.08.08,0,0,0,0,0l2,3.94h0l.15.26,2.5,3.87.17.23,3,3.76h0v0l0,0a1,1,0,0,0,.13.15l3.54,3.66.08.08.09.09,4,3.52a.39.39,0,0,0,.1.08l.07.06,4.51,3.36.13.08,0,0,5,3.19,0,0,.11.07,5.43,3,0,0,.1.06,5.84,2.76.06,0,.08,0,6.23,2.53s.05,0,.07,0l.07,0,6.58,2.28.08,0,0,0,6.9,2H247l.08,0,7.17,1.73h0l.08,0,7.41,1.45h.12l7.62,1.14h.12l7.76.83h.12l7.87.52h.12l7.94.2h.11l8-.12h.12l7.91-.44h.12l7.84-.76h.11l7.72-1.07h.12l7.54-1.36.07,0h.05l7.33-1.67.08,0h.05l7.07-1.94.05,0,.08,0,6.78-2.22.06,0,.08,0,6.45-2.47.08,0,.06,0,6.09-2.71.08-.05.06,0,5.69-2.94.1-.05.05,0,5.24-3.12,0,0,0,0,.13-.08,4.82-3.32.05,0Z"/><path class="b" d="M290.65,433.72l-4.07-.26-4-.42-3.94-.57-3.84-.73-3.71-.87-3.58-1-3.41-1.14-3.23-1.26-3-1.38L255,424.6,252.43,423l-2.35-1.66L248,419.64l-1.83-1.77-1.56-1.82-1.3-1.83-1-1.85-.78-1.85-.51-1.84-.28-1.84,0-1.83.2-1.83.44-1.84.69-1.83.93-1.84,1.18-1.82,1.42-1.8,1.67-1.76,1.91-1.72,2.13-1.65,2.36-1.59,2.56-1.5,2.76-1.42,2.93-1.31,3.09-1.22,3.25-1.1,3.37-1,3.49-.86,3.59-.73,3.67-.6,3.74-.46,3.77-.33,3.82-.19,3.81-.05,3.82.09,3.79.22,3.75.36,3.69.5,3.61.63,3.52.76L323,380l3.28,1,3.14,1.12,3,1.24,2.81,1.34,2.62,1.43,2.42,1.52,2.2,1.6,2,1.66,1.74,1.72,1.5,1.76,1.25,1.79,1,1.8.76,1.82.52,1.82.28,1.83,0,1.82-.19,1.84-.44,1.85-.69,1.86-.94,1.87-1.21,1.86-1.48,1.85-1.74,1.82-2,1.77-2.25,1.72-2.51,1.65L335.37,425l-3,1.46-3.17,1.35L325.89,429l-3.52,1.11-3.67,1-3.8.83-3.9.69-4,.53-4,.38-4.1.22-4.11.06Zm8.84,10.15,4.79-.26h.11l4.74-.44h.11l4.67-.63H314l4.57-.81h.12l4.46-1,.06,0h.05l4.32-1.15,0,0,.08,0,4.14-1.31.06,0,.07,0,4-1.47.06,0,.07,0,3.75-1.61.07,0,.06,0,3.52-1.75.09-.05.06,0,3.27-1.87.1-.07.05,0,3-2a.1.1,0,0,0,.05,0l.11-.07,2.74-2.1.07-.06.09-.07,2.45-2.19.09-.09.08-.07,2.15-2.27L358,422l.05,0,0,0h0l1.82-2.31.15-.21v0h0L361.6,417l.15-.26h0l1.21-2.44a0,0,0,0,0,0,0,1.42,1.42,0,0,0,.08-.18l0-.07h0l.89-2.47s0,0,0,0,0-.11.05-.16a.44.44,0,0,0,0-.1v0l.57-2.49v0l0-.16a.5.5,0,0,0,0-.12v0l.14-1.39.11-1.1v-.18a.71.71,0,0,0,0-.14v0l-.08-2.48v0a.71.71,0,0,0,0-.14.77.77,0,0,0,0-.15v0l-.4-2.47v0c0-.05,0-.1,0-.15l0-.14a0,0,0,0,0,0,0l-.71-2.43v0l-.05-.14s0-.09-.05-.14h0l-1-2.4h0a.59.59,0,0,0-.06-.14l-.06-.13h0L361,392.13,361,392l-.09-.15-1.6-2.25h0l-.08-.1a.76.76,0,0,0-.08-.11v0h0l-1.88-2.18-.08-.09L357,387l-2.17-2.12-.08-.07-.08-.08-2.43-2-.08-.06s-.05-.05-.08-.06l-2.68-1.93-.08-.05-.07-.06-2.91-1.81-.08-.05-.07,0-3.13-1.7-.07,0-.07,0-3.33-1.58-.07,0-.07,0L336,373.81l-.06,0-.07,0-3.69-1.32-.06,0H332l-3.85-1.18-.05,0h-.06l-4-1-.05,0H324l-4.1-.88h-.11l-4.2-.74h-.11l-4.28-.58h-.1l-4.35-.42h-.1l-4.4-.26h-.1l-4.41-.1h-.1l-4.43.06h-.1l-4.41.21h-.1l-4.38.38h-.11l-4.33.54h-.1l-4.26.69h-.11l-4.17.84-.06,0H271l-4.07,1-.06,0h-.05l-3.95,1.14-.06,0-.05,0-3.81,1.28-.05,0-.07,0-3.64,1.42-.06,0-.07,0-3.46,1.55-.07,0-.07,0-3.27,1.67-.07,0-.07,0L245,380.06l-.08,0-.07,0-2.84,1.9-.07.05-.08.06-2.6,2a.27.27,0,0,0-.08.07l-.08.06-2.35,2.1a.3.3,0,0,0-.08.08l-.08.07-2.09,2.19a.73.73,0,0,0-.08.09l-.08.09-1.8,2.24h0l0,0-.09.12-.06.09v0h0l-1.51,2.31-.09.14a.6.6,0,0,1-.06.11l-1.23,2.38h0l-.06.14-.06.13h0l-.93,2.42s0,0,0,0,0,.09,0,.14a.74.74,0,0,0,0,.14v0l-.62,2.46v0l0,.14,0,.15v0l-.3,2.48v0c0,.05,0,.1,0,.15s0,.09,0,.14v0l0,2.49v0a.61.61,0,0,0,0,.14c0,.06,0,.1,0,.15a.06.06,0,0,1,0,0l.09.66.26,1.83v0a.5.5,0,0,1,0,.12,1.24,1.24,0,0,0,0,.16v0l.67,2.48v0a.32.32,0,0,0,0,.09.49.49,0,0,0,.06.17.06.06,0,0,0,0,0l1,2.44h0a2.39,2.39,0,0,0,.13.28l1.32,2.41c.05.09.11.17.16.25l1.63,2.34h0l0,0,.15.19,1.93,2.26,0,0,.06.06.11.12,2.25,2.21.1.08a.27.27,0,0,0,.08.07l2.55,2.13.1.08.06,0,2.84,2,.11.08,0,0,3.1,1.9,0,0,.1.06,3.36,1.79.06,0,.09,0,3.6,1.65.07,0,.07,0,3.82,1.5.08,0,.06,0,4,1.36.08,0,0,0,4.21,1.19h0l.08,0,4.36,1h.12l4.5.86h.12l4.61.67H280l4.7.5h.11l4.76.3h.11l4.79.11h.11l4.81-.06h.1Z"/><path class="b" d="M292,387l2.49-.13,2.49,0,2.48.06,2.47.14,2.44.24,2.4.33,2.35.42,2.28.49,2.2.58,2.12.67,2,.73,1.91.8,1.78.87,1.66.92,1.52,1,1.37,1,1.22,1.05,1.06,1.07.9,1.09.74,1.1.58,1.09.43,1.08.28,1.07.14,1.07v1.07l-.14,1.08-.28,1.09-.44,1.11-.59,1.11-.76,1.13-.93,1.13-1.1,1.12-1.27,1.09-1.44,1.07-1.59,1-1.74,1-1.88.92-2,.85-2.13.77-2.24.7-2.33.61-2.42.52-2.48.43-2.54.34-2.58.24-2.6.13-2.61,0-2.6-.06-2.59-.17-2.55-.26-2.5-.36-2.44-.45-2.37-.54-2.27-.64-2.17-.71-2.05-.79-1.93-.86-1.79-.93-1.64-1-1.48-1-1.32-1.06-1.16-1.09-1-1.11-.81-1.11L262,409l-.49-1.1-.33-1.08-.18-1.08-.05-1.07.09-1.07.24-1.08.38-1.09.53-1.11.7-1.1.85-1.11,1-1.11,1.17-1.08,1.33-1.05,1.48-1,1.61-1L272,392l1.88-.86,2-.79,2.09-.71,2.18-.65,2.26-.56,2.33-.48,2.38-.39,2.43-.31Zm6.46,45.2,3.28-.18h.1l3.25-.3h.11l3.21-.43h.11l3.14-.54.06,0h.05l3.06-.66.07,0H315l3-.78H318l.08,0,2.85-.89.05,0,.07,0,2.73-1,.07,0,.06,0,2.59-1.1.08,0,.06,0,2.44-1.19.08-.05.06,0,2.27-1.27.1-.07s0,0,.05,0l2.1-1.36,0,0,.12-.07,1.91-1.43.07-.06.09-.08,1.72-1.49.08-.08.08-.08,1.52-1.55a.69.69,0,0,1,.11-.13l0-.06,1.31-1.61a1.33,1.33,0,0,0,.14-.19l0,0v0h0l1.08-1.63a2.26,2.26,0,0,0,.16-.26l.87-1.67,0,0c0-.06.05-.11.08-.18l0-.06h0l.66-1.71a0,0,0,0,1,0,0l.06-.17a.36.36,0,0,1,0-.1v0l.43-1.72a0,0,0,0,1,0,0l0-.17s0-.08,0-.11v0l.13-1,0-.36,0-.32v0a442739937533.67,442739937533.67,0,0,1,0-.3V403.4s0,0,0,0a.61.61,0,0,0,0-.14.76.76,0,0,0,0-.15v0l-.24-1.72a0,0,0,0,0,0,0,.68.68,0,0,0,0-.14.57.57,0,0,0,0-.14v0l-.46-1.7v0c0-.05,0-.09,0-.14s0-.09-.05-.14a0,0,0,0,1,0,0l-.67-1.67h0a.75.75,0,0,0-.06-.13L343,397h0l-.88-1.63a.86.86,0,0,0-.1-.16l-.05-.09-1.08-1.58h0v0a.39.39,0,0,0-.08-.1.44.44,0,0,0-.08-.11h0l-1.28-1.53a.3.3,0,0,1-.08-.08l-.09-.1-1.48-1.48-.09-.08-.08-.08-1.67-1.42-.08-.07-.08-.06L333.91,387l-.07-.05-.08-.05-2-1.28-.08,0-.07-.05-2.17-1.2-.07,0-.08,0L327,383.18l-.07,0-.07,0-2.45-1-.06,0-.06,0-2.58-.93-.06,0-.07,0-2.68-.83-.06,0-.06,0-2.79-.73h-.06l0,0-2.88-.62h-.1l-2.95-.52h-.11l-3-.41h-.11l-3.05-.3h-.1l-3.09-.19h-.1l-3.1-.08h-.11l-3.1.05h-.11l-3.09.16h-.11l-3.07.27h-.11l-3,.38h-.11l-3,.49h-.11l-2.92.6h-.11l-2.85.71h-.06l-.05,0-2.76.81-.06,0h-.06l-2.65.91-.07,0-.06,0-2.54,1-.06,0-.06,0-2.42,1.1-.06,0-.07,0-2.27,1.18-.07,0-.07,0-2.12,1.26-.08.05-.07,0-2,1.34-.07.06-.08.06-1.79,1.4-.08.07-.08.07-1.61,1.47-.08.08-.08.08-1.43,1.53-.08.1-.08.09,0,0-1.2,1.54h0l-.07.1a.94.94,0,0,1-.09.12h0l-1,1.61s-.05.09-.08.14a.34.34,0,0,0-.06.12h0l-.82,1.66h0l-.06.13a.58.58,0,0,0,0,.14h0l-.61,1.69v0s0,.1-.05.15l0,.13a0,0,0,0,0,0,0l-.39,1.71v0l0,.14a.77.77,0,0,1,0,.15v0l-.17,1.72v0a.76.76,0,0,0,0,.15v.18l.06,1.72v0c0,.05,0,.09,0,.13s0,.11,0,.16v0l.08.47h0l.2,1.25v0l0,.12,0,.16a.06.06,0,0,1,0,0l.51,1.7v0l0,.08a.85.85,0,0,0,.06.17.08.08,0,0,1,0,0l.73,1.69h0a2.39,2.39,0,0,0,.13.28l.95,1.65c.05.08.1.17.16.25l1.16,1.6h0l0,0,.13.18,1.38,1.56.07.07.11.11,1.58,1.51.09.08.08.07,1.78,1.45.12.09.05,0,2,1.37.12.08,0,0,2.16,1.3.05,0,.1.06,2.33,1.21.06,0,.09,0,2.48,1.13.07,0,.07,0,2.64,1,.07,0,.06,0,2.78.92.08,0h0l2.9.81h0l.08,0,3,.7h.12l3.09.58h.11l3.16.45H285l3.22.33h.11l3.26.21h.11l3.28.08h.11l3.29,0h.11Z"/><path class="b" d="M293.19,397.53l1.11-.1,1.12-.05,1.13,0,1.12,0,1.12.07,1.1.11,1.08.14,1.06.2,1,.22,1,.26.93.3.89.32.82.35.77.38.69.4.63.41.55.41.48.42.4.42.32.4.25.39.19.36.13.35.07.32,0,.31v.31l-.05.32-.1.34-.15.35-.21.39-.28.4-.36.43-.44.43-.52.44-.59.43-.67.42-.74.41-.81.38-.87.36-.92.34-1,.3-1,.26-1.06.23-1.09.18-1.12.15-1.14.1-1.14.06-1.16,0-1.15,0-1.14-.07-1.12-.11-1.1-.16-1.08-.2-1-.23-1-.27-.94-.31-.9-.34-.82-.36-.76-.39-.69-.4-.62-.42-.54-.43-.46-.42-.38-.42-.31-.4-.23-.38-.17-.36-.11-.34-.06-.32,0-.31,0-.31.06-.32.11-.34.17-.37.23-.39.31-.4.37-.43.46-.43.53-.43.61-.42.67-.42.75-.39.81-.38.86-.35.92-.32,1-.29,1-.25,1-.22,1.07-.18Zm-5.67-9-1.65.34-.06,0h-.06l-1.6.4-.06,0-.06,0-1.55.46-.06,0-.06,0-1.49.51-.07,0-.06,0-1.42.57-.07,0-.06,0-1.35.62-.07,0-.07,0-1.27.67-.07,0-.07,0-1.19.71-.07,0-.08.05-1.09.76-.07.06-.08.06-1,.8-.09.07-.07.06-.89.84a.3.3,0,0,0-.08.08l-.09.08-.76.84h0l0,0-.08.09-.08.1,0,0h0l-.64.85h0l0,.06-.12.17h0l-.55.91h0a.83.83,0,0,0-.07.13.83.83,0,0,0-.07.13h0l-.43.94h0l-.06.14a.5.5,0,0,1,0,.13v0l-.32.94v0a1,1,0,0,1,0,.14.74.74,0,0,1,0,.14v0l-.19,1s0,0,0,0,0,.09,0,.14a.78.78,0,0,0,0,.14v0l-.07,1v0a.76.76,0,0,0,0,.15v.15s0,0,0,0l.05,1v0a.59.59,0,0,0,0,.13.77.77,0,0,0,0,.15v0l.07.37,0,.22h0v0h0l.06.33v0a.43.43,0,0,1,0,.11c0,.05,0,.11.05.16a.06.06,0,0,0,0,0l.3.95v0l0,.08a1.22,1.22,0,0,0,.07.17s0,0,0,0l.43.93h0l.14.27.55.91c0,.08.1.16.16.24l.66.88h0v0l0,0a1,1,0,0,0,.13.16l.78.87.07.06.1.11.9.83.09.08.07.06,1,.8.11.08,0,0,1.11.76.12.08,0,0,1.21.71.05,0,.09.06,1.3.66.06,0,.09,0,1.38.61.07,0,.07,0,1.47.56.07,0,.06,0,1.54.5.07,0h.05l1.6.45h0l.07,0,1.66.38h.06l.06,0,1.71.32H288l1.75.25h.11l1.78.19h.11l1.8.11h.1l1.81.05h.11l1.82,0h.1l1.81-.1h.11l1.79-.16h.11l1.77-.23h.11l1.74-.3h.11l1.69-.36.07,0h.05l1.64-.43h.05l.07,0,1.59-.49.05,0,.07,0,1.52-.54.06,0,.06,0,1.45-.59.07,0,.06,0,1.36-.65.08,0,.06,0,1.27-.7.1-.07.05,0,1.17-.75.05,0,.11-.08,1.07-.78a.18.18,0,0,1,.07,0l.09-.08,1-.82.08-.08.08-.08.87-.85.1-.12.06-.06.75-.89.13-.18,0,0v0h0l.62-.9.15-.25.51-.92.13-.28h0l.39-.94s0,0,0,0l.06-.17,0-.09v0l.26-1a.08.08,0,0,1,0,0l0-.16a.43.43,0,0,0,0-.11,0,0,0,0,0,0,0l0-.18v-.07h0l.1-.7v0s0-.1,0-.15a.71.71,0,0,1,0-.14v-1a.76.76,0,0,0,0-.15v-.14s0,0,0,0l-.11-1a0,0,0,0,0,0,0,.68.68,0,0,0,0-.14.58.58,0,0,0,0-.14v0l-.24-.95v0a.74.74,0,0,1,0-.14s0-.09-.05-.14,0,0,0,0l-.36-.94h0l-.06-.14-.06-.13h0l-.48-.92h0l-.07-.14-.07-.11h0l-.59-.88h0l-.08-.12-.08-.11h0l-.67-.83h0l0,0-.08-.08a.39.39,0,0,0-.08-.1l-.82-.85-.08-.07-.09-.08-.92-.81-.08-.07-.08-.06-1-.77-.08-.06-.07-.05-1.12-.73-.08,0-.08-.05-1.21-.68-.07,0-.07,0-1.3-.63-.06,0-.08,0-1.37-.59-.07,0-.06,0L311,390l-.06,0-.06,0-1.51-.48-.06,0h-.07l-1.56-.42h-.06l-.06,0-1.62-.36h-.11l-1.67-.3h-.1l-1.7-.24h-.11l-1.72-.17h-.11l-1.75-.1h-.1l-1.75,0h-.11l-1.76,0h-.1l-1.75.09H293l-1.74.16h-.1l-1.72.21-.05,0h-.06l-1.68.28h-.11Z"/><path class="b" d="M61.67,448.78l2,5.82v0l0,.08c0,.06,0,.12.07.17l0,0,4.39,9h0a1.35,1.35,0,0,0,.15.26L74,473.16h0l0,.06.09.13,0,0,6.92,8.72h0l0,0,.15.17,8.2,8.51.09.07.09.1,9.45,8.2.13.09,0,.05,0,0h0L110,507.2l.14.09,0,0h0l11.83,7.4,0,0,.12.07,13,6.93.06,0,.09.06,14.05,6.4.07,0,.08,0,15,5.8.08,0,.06,0,15.94,5.16.09,0,.05,0,16.73,4.47h.05l.09,0,17.42,3.73.06,0h.07l18,3h.13l18.45,2.17h.13l18.76,1.36h.12l19,.53h.12l19-.31H309l18.89-1.14H328l18.65-2h.12L365,548.47l.06,0h.07l17.77-3.54.08,0h.06l17.15-4.29h0l.09,0,16.42-5,.05,0,.09,0,15.57-5.65.08,0,.07,0,14.64-6.26.05,0,.1,0h0l13.6-6.79.11-.06.05,0,12.52-7.29h0l0,0,.13-.08,11.4-7.74.05,0,.12-.09,10.2-8.11a.46.46,0,0,0,.07-.07l.1-.08,9-8.43.1-.12.07-.06,7.73-8.69,0,0,.09-.13s0,0,0,0l0,0h0l6.46-8.87.16-.24,5.2-9c0-.09.1-.18.14-.27h0l3.94-9.11a0,0,0,0,0,0,0c0-.06.05-.12.07-.17l0-.09v0l1.2-4.05,13.66,148h0v.13h0l.09,1,.18,1.87.22,2.42,1.05,11.35-.13,11.42-1.35,11.52L541.21,643l-3.93,11.56L532,666l-6.6,11.34-7.95,11.13-9.3,10.84L497.54,709.8l-11.91,10-13.17,9.46-14.35,8.83-15.47,8.13-16.49,7.36-17.43,6.5-18.24,5.61-18.93,4.63-19.48,3.62-19.89,2.58L312,778l-20.27.4-20.23-.68-20-1.78-19.69-2.84-19.2-3.88L194,764.35l-17.8-5.83-16.92-6.73-15.93-7.56-14.85-8.31-13.68-9-12.45-9.6L91.22,707.22l-9.84-10.55-8.51-10.91-7.15-11.18L59.93,663.2l-4.45-11.51-3.13-11.56-1.84-11.56-.57-11.49.32-5.51,0-.55.23-4.08.07-1.24.25-1.58a2.75,2.75,0,0,0-.06-1.18l0-.71.17-2.34.09-1.33h0l0-.3v0h0ZM81.5,167.64l1.65,3.11,0,0c0,.09.11.18.17.27l0,0h0l4.14,5.62v0c.06.07.11.14.17.2l0,.05h0l5.07,5.32L74.15,462.91l-1-1.55-4.26-8.75-3-8.79L64.06,435l-.66-8.74.43-8,.05-.12s0-.05,0-.08A1.21,1.21,0,0,0,64,418a.36.36,0,0,0,0-.1l0-.17s0-.08,0-.12,0-.1,0-.15v-.32a.51.51,0,0,1,0-.13s0-.08,0-.12a.76.76,0,0,0,0-.16s0-.07,0-.1Zm65.28-14.38-6.09-3.87-5.18-3.95-4.29-4-3.38-4-2.5-4-1.64-4-.84-3.89-.08-3.84.67-3.84,1.42-3.85,2.18-3.85,2.93-3.84,3.68-3.79,4.4-3.72,5.08-3.62,5.75-3.49,6.35-3.35,6.93-3.19,7.46-3,8-2.82,5.74-1.79-6,2.14-.06,0-.05,0-6.94,2.83-.06,0-.07,0-6.44,3-.07,0-.07,0-5.92,3.17-.07,0-.08,0-5.37,3.32-.08.06-.09.06-4.77,3.45-.09.08L147,96l-4.14,3.58a2,2,0,0,0-.21.2h0l-3.48,3.69h0l-.09.12a.31.31,0,0,0-.09.11l0,0-2.81,3.79s0,0,0,0a.83.83,0,0,0-.08.12l-.08.13,0,0-2.09,3.88,0,.07a.91.91,0,0,0-.07.14l-.06.14s0,0,0,.07l-1.34,3.89h0l0,0,0,.09s0,.1,0,.16,0,.1,0,.16,0,.06,0,.09l-.6,4v0a.17.17,0,0,1,0,.07c0,.07,0,.13,0,.2v.29h0l.18,4v0a.38.38,0,0,0,0,.1.88.88,0,0,0,0,.16,1.87,1.87,0,0,0,0,.25v0h0a0,0,0,0,1,0,0l.13.56h0a0,0,0,0,1,0,0l.82,3.42a.74.74,0,0,1,0,.14l0,.09a2.6,2.6,0,0,0,.1.25h0l1.77,4s0,0,0,.05l.16.29,0,.05h0l2.58,4,0,0,.17.21a.21.21,0,0,0,0,.06h0l3.4,3.92h0l.15.16.07.06h0l4.2,3.84h0l.21.17,5,3.74a1.33,1.33,0,0,0,.19.14l5.8,3.61.05,0,.13.07,6.57,3.47.06,0,.09.05,7.32,3.29.07,0,.07,0,8,3.1.07,0,0,0,8.71,2.88.07,0,0,0,9.33,2.65h.11l9.91,2.4h.1L218,174.82h.09l10.9,1.82h.09l11.3,1.52h.08l11.63,1.21h.09l11.88.88h.08l12.07.55h.08l12.17.21h.08l12.2-.13h.08l12.14-.46h.08l12-.8h.08L337,178.55h.08l11.52-1.44h.09l11.17-1.76h.09l10.75-2h.09L381,170.93l.05,0h.05l9.72-2.58,0,0,.07,0,9.12-2.82.05,0,.07,0,8.48-3,.07,0,.06,0,7.8-3.25.08,0,.06,0,7.08-3.43.1-.05.06,0,6.33-3.58.12-.08.05,0L436,148.1h0l.19-.14,4.77-3.82.16-.15.05-.05,4-3.9h0l.05,0,.16-.18v0l3.16-4h0l0,0c.06-.08.11-.16.16-.24l0,0,2.34-4h0c.05-.08.09-.16.13-.24l0-.07a.54.54,0,0,1,.05-.11l1.54-4a2,2,0,0,0,.08-.26l0-.11,0-.12v-.06h0l.52-2.79v0l.21-1.1v0h0a.19.19,0,0,1,0-.08,1.37,1.37,0,0,0,0-.19,1.21,1.21,0,0,0,0-.19V122l0-3.92v0s0-.06,0-.09a1.09,1.09,0,0,0,0-.18.57.57,0,0,0,0-.18.19.19,0,0,0,0-.08v0l-.79-3.92a.29.29,0,0,1,0-.09.83.83,0,0,1,0-.15.88.88,0,0,1-.05-.15s0-.06,0-.09l-1.54-3.89a.15.15,0,0,1,0-.07l-.07-.13a.91.91,0,0,0-.07-.14l0-.06-2.27-3.82,0,0-.08-.13-.09-.12s0,0,0,0l-3-3.73h0l-.1-.11-.1-.1v0L441.71,97h0a.94.94,0,0,1-.1-.1.87.87,0,0,1-.1-.08h0l-4.28-3.48-.1-.07-.09-.07-4.91-3.36-.08,0-.09,0-5.48-3.21a.2.2,0,0,1-.08,0l-.08,0-6-3-.07,0-.07,0-6.55-2.88-.06,0-.06,0-7-2.7-.06,0-.05,0L402,76.25l3.84,1.12,8,2.67,7.56,2.87,7,3L435,89.18l5.87,3.38,5.23,3.51,4.56,3.62,3.85,3.72,3.12,3.78L460,111l1.61,3.81.86,3.81.13,3.83-.63,3.87-1.41,3.93-2.24,4-3.12,4.05-4,4.06-4.92,4-5.8,4-6.68,3.84-7.54,3.71-8.34,3.52-9.13,3.33-9.85,3.09-10.53,2.83-11.15,2.56-11.7,2.25-12.17,1.93L340.77,179l-12.9,1.25-13.13.88-13.29.51-13.34.14-13.33-.24-13.19-.6-13-1-12.7-1.33L223.57,177l-11.87-2-11.35-2.33L189.61,170l-10.09-2.9-9.38-3.15-8.61-3.37L153.74,157Zm143.41-1.06-7.58-.13-7.52-.33-7.42-.53-7.26-.73-7.07-.91-6.84-1.1-6.56-1.28-6.25-1.44-5.9-1.6-5.52-1.74-5.11-1.88-4.67-2-4.21-2.08-3.72-2.16-3.22-2.22-2.71-2.25-2.19-2.26-1.67-2.23-1.18-2.18-.71-2.11-.3-2.07.12-2.06.51-2.08.95-2.12,1.39-2.17,1.86-2.19,2.31-2.18,2.76-2.16,3.2-2.11,3.6-2,4-2L217.62,96l4.69-1.77,5-1.65,5.29-1.52,2.28-.58-.4.12-.05,0h-.05L230,92.13l-.06,0-.06,0-4.13,1.58-.06,0-.07,0-3.85,1.68-.07,0-.06,0-3.55,1.77-.07,0-.07,0-3.22,1.86-.08.05-.09,0-2.87,1.93a.71.71,0,0,1-.09.07l-.09.07-2.49,2h0l-.1.09-.1.09h0l-2.11,2.05h0l-.1.11-.1.11h0L204.7,108l0,0-.08.12-.09.12,0,0-1.34,2.17,0,0-.07.14a.83.83,0,0,0-.07.13l0,.06-.92,2.2,0,.09a.53.53,0,0,0-.05.15s0,.1-.05.15,0,0,0,.08l-.49,2.19a0,0,0,0,1,0,0v0s0,.06,0,.09l0,.18c0,.06,0,.12,0,.18s0,0,0,.08v0h0l-.06,2.17h0v0s0,.06,0,.09v.18a1.36,1.36,0,0,0,0,.2.15.15,0,0,1,0,.07h0a0,0,0,0,1,0,0l.22,1.35h0v0s0,0,0,0l.12.77h0v0l0,.13s0,.07,0,.1a1.07,1.07,0,0,0,.09.27l.8,2.23,0,.1a.26.26,0,0,1,0,.08c0,.08.08.16.13.24h0l1.25,2.21s0,0,0,0a2.13,2.13,0,0,0,.16.25l0,0h0l1.69,2.17,0,0c0,.06.1.13.16.19l0,.05h0l2.12,2.13h0l.1.1.11.1h0l2.56,2.08.2.15,3,2,0,0,.13.08L217.8,138l.06,0,.11.05,3.77,1.85.07,0,.08,0,4.15,1.74.07,0,.07,0,4.51,1.63.07,0,.05,0,4.85,1.51.07,0h0l5.16,1.38h0l.06,0,5.45,1.24h.1l5.7,1.1h.09l5.93.94h.09l6.12.79h.08l6.28.62H271l6.41.45h.08l.48,0,1.18.05,4.83.21H284l1,0,5.57.09h.36l5.86-.06h.48l5.44-.19,1.09,0h.08l4.69-.3,1-.06.82,0h.07l6.37-.58h.08l6.24-.75h.08l6.06-.9h.09l5.86-1.06h.09l5.63-1.21.05,0h0l5.37-1.35.06,0h0l5.07-1.48,0,0,.07,0,4.75-1.6.05,0,.07,0,4.41-1.72.06,0s0,0,.07,0l4-1.81.09,0,.06,0,3.66-1.91.11-.07.05,0,3.26-2h0l.17-.11,2.84-2.06h0l.19-.15,0,0h0l2.4-2.1,0,0,.18-.17h0l2-2.17h0l0,0,.18-.21s0,0,0,0l1.57-2.19h0l0,0c.06-.09.11-.18.16-.27l0,0,1.13-2.23.11-.24,0-.08,0-.12.68-2.22a2.29,2.29,0,0,0,.07-.28.59.59,0,0,0,0-.13.5.5,0,0,0,0-.12v0h0l0-.21v0h0l.2-1.9s0,0,0,0h0v-.09a1.09,1.09,0,0,0,0-.18v-.28h0v0l-.18-2.15h0v0s0-.06,0-.09,0-.12,0-.17,0-.12,0-.17,0-.06,0-.09v0h0l-.6-2.16,0-.08c0-.05,0-.1,0-.16l-.06-.14,0-.08-1-2.17,0-.06-.07-.13a.83.83,0,0,0-.08-.12l0-.06-1.44-2.13s0,0,0,0l-.09-.11-.09-.12,0,0-1.84-2.08h0l-.11-.11-.1-.1h0l-2.21-2h0v0l-.1-.08-.1-.08,0,0h0l-2.58-1.93-.09-.07-.09-.06-2.95-1.87-.09,0-.08,0L366.9,96l-.07,0-.07,0-3.62-1.7-.07,0-.06,0-3.92-1.6-.06,0-.07,0-4.2-1.5h-.05l-.06,0-4-1.25,1.16.27,5.35,1.43L362.22,93,367,94.69l4.42,1.79,4.08,1.89,3.7,2,3.29,2,2.87,2.11,2.42,2.15,2,2.16,1.51,2.14,1.05,2.12.63,2.07.22,2-.18,2.06-.59,2.11-1,2.17-1.54,2.24-2,2.28-2.56,2.28-3.07,2.27-3.58,2.22L374.49,137,370,139l-5,2-5.4,1.84-5.78,1.71-6.15,1.57-6.46,1.4-6.76,1.23-7,1.06-7.21.87-7.37.67-7.49.48-7.57.28Zm-9.53-27.77-2.13-.33-2-.37-2-.43-1.85-.48-1.73-.51-1.61-.56-1.47-.58-1.33-.61-1.17-.63-1-.63-.83-.62-.66-.6-.49-.56-.33-.49-.19-.42-.09-.35,0-.31,0-.33.12-.37.24-.45.37-.52.54-.57.7-.61.87-.63,1-.63,1.18-.62,1.32-.61,1.46-.58,1.58-.55,1.69-.52,1.8-.47,1.59-.37h0l.3-.07,1-.19h0l1-.19,1.07-.18-.79.24-.05,0-.06,0-1,.34-.05,0-.06,0-.93.37-.06,0-.07,0-.84.39-.08,0-.07,0-.77.41-.08,0-.08,0L274,110l-.09.06-.09.06-.61.45-.1.08-.09.08,0,0h0l-.49.44h0a.94.94,0,0,1-.1.1l-.1.11h0l-.43.47,0,0-.09.11-.09.12,0,0-.34.48,0,.06a.83.83,0,0,1-.08.12l-.07.13,0,0-.24.49a.3.3,0,0,0,0,.08l-.06.14a.88.88,0,0,0-.05.15l0,.08-.13.44v0s0,.06,0,.08,0,.12,0,.18a.88.88,0,0,0,0,.16.29.29,0,0,0,0,.09v0h0l-.05.42v0h0a.22.22,0,0,0,0,.08c0,.06,0,.13,0,.19s0,.13,0,.19V116l0,.42v0s0,.08,0,.11a.77.77,0,0,1,0,.15,2.86,2.86,0,0,0,.07.28l0,.08.12.4a.56.56,0,0,0,0,.12s0,.06,0,.08.07.17.11.25h0l.05.11h0l.19.37,0,0a2.54,2.54,0,0,0,.16.28l0,0h0l.08.12h0l.13.18h0l.12.18s0,0,0,0l.16.2,0,.06h0l.43.48h0l.17.17,0,0,.5.44h0a1.73,1.73,0,0,0,.21.17l.6.44.17.12h0l.68.43.06,0,.11.06.78.41.06,0,.09,0,.86.39.06,0,.07,0,.94.37.07,0,0,0,1,.34.07,0h0L280,124h0l.06,0,1.13.29h.05l.05,0,1.19.26h.09l.49.09-.22,0Zm10.35-10h.15l.69,0h.38l.32,0h1.39l.69,0h.06l.62,0,.65.06h0l.65.08.54.08h0l.09,0,.59.1.47.1h0l.1,0h0l.51.12.5.14.44.15.4.15h0l-.25.1-.44.16-.47.15-.53.15-.56.13-.59.12-.63.1-.65.1-.67.07-.69.06-.69,0-.7,0H292l-.71,0-.68,0-.68-.07-.65-.07-.63-.1-.61-.11-.56-.12-.54-.14-.49-.14-.45-.15-.34-.13.32-.13.43-.16.48-.15.53-.14h0l.55-.13.57-.11.64-.11.61-.09h0l.66-.07Zm12,10.1.69-.15h.09l1.18-.28h.1l1.11-.31h0l.07,0,1.05-.34.05,0,.07,0,1-.36.07,0,.06,0,.91-.38.08,0,.06,0,.84-.41.1,0,0,0,.76-.42.12-.08,0,0,.66-.44h0l.16-.12.58-.45h0l0,0a1.29,1.29,0,0,0,.17-.16h0l.48-.45v0l.2-.21h0l.4-.48,0,0a1.44,1.44,0,0,0,.18-.25l0,0,.07-.1h0l.07-.11h0l.17-.27h0s0,0,0,0a3.07,3.07,0,0,0,.16-.31l0,0,.1-.23h0l.11-.27a1.86,1.86,0,0,0,.1-.25l0-.1,0-.12.06-.25h0l.05-.22v0h0a.13.13,0,0,0,0-.06,1.3,1.3,0,0,0,0-.21.76.76,0,0,0,0-.15.41.41,0,0,0,0-.11v0h0l0-.42v-.31a1.23,1.23,0,0,1,0-.19.22.22,0,0,1,0-.08h0s0,0,0,0l-.06-.41h0v0s0-.06,0-.09l0-.16a1.42,1.42,0,0,1-.05-.16l0-.09v0l-.16-.44,0-.08-.06-.14a.83.83,0,0,0-.07-.13l0-.08-.27-.48,0,0-.08-.12-.08-.13s0,0,0,0l-.37-.48v0l-.1-.11-.09-.11,0,0-.45-.46-.12-.11-.1-.09-.54-.45-.11-.08a.71.71,0,0,0-.09-.07l-.63-.44-.08,0-.09-.06-.72-.42-.08,0-.08,0-.79-.4-.07,0-.07,0-.87-.38-.06,0-.07,0-.94-.36h-.06l-.05,0-1-.33h-.05l-.05,0-.57-.16.66.1.91.16,1.09.19.56.12,1.35.28,1.83.44,1.72.48,1.61.53,1.49.55,1.35.59,1.21.6,1.07.62.9.61.75.6.57.58.41.52.27.46.15.39.06.33v.31l-.06.34-.17.41-.29.48-.45.55-.61.6-.78.63-1,.64-1.12.64-1.28.63-1.44.62-1.57.58-1.7.54-1.82.51-1.93.47-2,.42-2.1.36-2.18.32ZM268.14,132l-3.52-.67-3.37-.75-3.18-.83-3-.9-2.78-1-2.54-1-2.3-1.09-2-1.12-1.77-1.14-1.48-1.15L241,121.21l-.92-1.1-.65-1-.41-1-.2-.92,0-.89.16-.91.35-1,.57-1,.83-1.08,1.1-1.12,1.35-1.14,1.61-1.13,1.87-1.12,2.1-1.08,2.32-1,2.54-1,2.72-.94,2.9-.86,3.06-.8,2.11-.47,1-.22h0l.14,0,.43-.09-2.12.64-.05,0-.05,0-2.14.74-.05,0-.06,0-2,.79-.06,0-.07,0-1.84.84-.06,0-.08,0-1.68.88-.07,0-.08,0-1.51.92-.09.06-.09.06-1.3.93h0l0,0-.09.07-.1.08-1.15,1-.09.08-.13.12-1,1a0,0,0,0,1,0,0l-.1.11-.09.12,0,0-.77,1,0,0-.08.12a.57.57,0,0,0-.08.13l0,0-.57,1,0,.08a.83.83,0,0,1-.07.13.58.58,0,0,1-.05.14l0,.08-.35,1h0v0l0,.09s0,.11,0,.16a.45.45,0,0,0,0,.16.29.29,0,0,0,0,.09v.06h0l-.15,1v0a.19.19,0,0,1,0,.08,1.21,1.21,0,0,0,0,.19.61.61,0,0,0,0,.19.22.22,0,0,0,0,.08h0v0l.05,1v0s0,.07,0,.11,0,.1,0,.15,0,.17.05.26h0s0,0,0,0l.18.73h0l.08.31,0,.11,0,.1s0,.08,0,.12,0,0,0,0,0,.06,0,.09h0l.46,1.05a.05.05,0,0,1,0,0,2.69,2.69,0,0,0,.16.29l0,0h0l.68,1s0,0,0,0l.17.23s0,0,0,0h0l.89,1h0c0,.05.1.11.16.16l0,.06h0l1.08,1h0a1.68,1.68,0,0,0,.21.18l1.29,1,.17.13h0l1.47.94.06,0,.12.07,1.66.91.06,0a.31.31,0,0,0,.1,0l1.84.86.06,0,.08,0,2,.81.07,0,.06,0,2.17.76.07,0,.05,0,2.32.69h0l.07,0,2.46.64h.1l2.58.57h.1l2.7.5h.08l2.8.43h.08l2.07.26-3-.3-3.78-.47Zm47,.15-3.75.55-3.84.45,2.69-.39h.08l2.77-.48h.09l2.67-.55h.09l2.55-.62.06,0h0l2.43-.68h0l.06,0,2.28-.74.05,0,.07,0,2.13-.8.06,0,.06,0,2-.84.08,0,.06,0,1.8-.89.09,0,.06,0,1.6-.92h0l.15-.1,1.41-1h0l.16-.13,1.23-1,.22-.19h0l1-1,0,0a1.8,1.8,0,0,0,.19-.2s0,0,0,0l.83-1h0l0,0,.17-.25,0,0,.62-1.06h0l.12-.24,0-.07a1,1,0,0,1,0-.1l.35-.91h0l0-.07h0l0-.08c0-.09.07-.18.09-.27l0-.1s0-.08,0-.13l.2-1h0v0h0v0s0-.06,0-.09a1,1,0,0,1,0-.17,1.09,1.09,0,0,1,0-.18v-.12h0v-1h0v0s0-.06,0-.09a1.09,1.09,0,0,0,0-.18.63.63,0,0,0,0-.19.22.22,0,0,0,0-.08h0v0l-.21-1s0,0,0-.08a.75.75,0,0,0,0-.16.88.88,0,0,1-.05-.15l0-.09-.42-1.06,0-.06-.06-.14-.08-.14,0-.06-.62-1,0,0-.08-.13a1,1,0,0,1-.08-.11l0,0-.82-1v0l-.1-.1-.1-.11s0,0,0,0l-1-1h0l-.07-.07-.13-.12h0l-1.19-1-.11-.07-.08-.07-1.39-.93-.08,0-.09,0-1.55-.89-.08,0-.08,0-1.72-.84-.07,0-.07,0-1.88-.8-.06,0-.06,0-2-.75,0,0-.06,0-2.17-.7h-.05l-.05,0-1.72-.48,1.54.32h0l1.52.31,3.1.74,3,.82,2.76.88,2.58.94,2.37,1,2.16,1,1.93,1.09,1.67,1.11,1.42,1.11,1.16,1.11.9,1.08.63,1,.41,1,.2.92,0,.88-.15.91-.35,1-.59,1-.85,1.1-1.12,1.15-1.41,1.17-1.7,1.17-2,1.15L336.77,126l-2.47,1.08-2.71,1-2.93,1-3.13.89-3.31.81-3.48.73Zm-35.79,10.43-5.65-.4-5.56-.55L262.7,141l-5.23-.83-5-1-4.8-1.09-4.53-1.2-4.25-1.32-3.94-1.41-3.61-1.5-3.26-1.58-2.9-1.63-2.5-1.67-2.12-1.7-1.71-1.69-1.32-1.66-.93-1.61-.59-1.54-.26-1.49V116.6l.32-1.49.62-1.55,1-1.6,1.32-1.63,1.68-1.66,2.05-1.66,2.39-1.63,2.72-1.58,3-1.53,3.33-1.46,3.61-1.39,3.87-1.29,4.1-1.21,4.31-1.1,1-.23-2.1.62,0,0-.06,0-3.27,1.11-.06,0,0,0-3.06,1.19-.07,0-.06,0-2.84,1.26-.07,0-.07,0-2.6,1.33-.07,0-.08,0-2.35,1.4-.09,0-.08.06L232,104.34l-.1.07-.09.07L230,106h0l-.12.11-.08.08h0l-1.52,1.53h0l-.1.11-.1.11v0l-1.23,1.58,0,0a1.25,1.25,0,0,0-.09.12l-.08.12s0,0,0,0l-.93,1.61s0,0,0,.07l-.08.13-.06.14,0,.07-.62,1.63,0,.09a.88.88,0,0,1-.05.15l0,.16a.29.29,0,0,0,0,.09l-.3,1.61a0,0,0,0,1,0,0v0s0,.06,0,.09a1.1,1.1,0,0,0,0,.18,1.28,1.28,0,0,0,0,.19s0,.05,0,.08v0l0,1.58v0s0,0,0,.08a1.09,1.09,0,0,0,0,.18.69.69,0,0,0,0,.2.17.17,0,0,0,0,.07v0a0,0,0,0,0,0,0l0,.26h0l.18.86v0l.1.45a.5.5,0,0,0,0,.13s0,.07,0,.1a2,2,0,0,0,.1.26l.66,1.64a.05.05,0,0,0,0,0,1.77,1.77,0,0,0,.15.31l0,0h0l1,1.62,0,0,.17.24,0,0h0l1.31,1.6h0l.16.18a.12.12,0,0,0,.05,0h0l1.62,1.56h0l.22.18,1.93,1.52.2.14,2.24,1.47.05,0,.12.08,2.54,1.41.06,0,.09.05,2.82,1.34.06,0,.08,0,3.09,1.27.07,0,.06,0,3.34,1.18.07,0,0,0,3.58,1.1h.08l0,0,3.81,1h.09l4,.9h.09l4.19.79h.09l4.35.68h.08l4.48.57h.08l4.6.44h.08l.3,0,2,.14,2.41.17h.07l1.62.07,2.06.09h-.2Zm23.11.07-.53,0,2.08-.13,1.71-.1h.08l2.29-.2,1.63-.15h0l.74-.07h.08l4.56-.54h.08l4.44-.65h.09L324,140h.08l4.14-.87.05,0h.05l3.94-1,.06,0h0l3.74-1.07h.05l.06,0,3.51-1.16.06,0,.06,0,3.27-1.25.07,0,.06,0,3-1.33.08,0,.06,0,2.74-1.4a.33.33,0,0,0,.1-.06l.06,0,2.43-1.45h0l.16-.1,2.15-1.5h0l0,0,.16-.13,0,0h0l1.82-1.53,0,0,.2-.18,1.53-1.59h0l0,0c.06-.07.13-.14.18-.21l0,0,1.21-1.62h0l0,0c.06-.09.12-.17.17-.26s0,0,0,0l.9-1.64h0a1.33,1.33,0,0,0,.11-.24l0-.07,0-.11.56-1.64a1.38,1.38,0,0,0,.08-.27l0-.13a.36.36,0,0,0,0-.11v-.05h0l0-.12h0v0h0l.1-.69.11-.7v0a.19.19,0,0,0,0-.08,1.11,1.11,0,0,0,0-.19v-.27h0v0l-.07-1.58h0v0s0-.06,0-.09,0-.11,0-.17a1.08,1.08,0,0,0,0-.19.2.2,0,0,1,0-.07v0a0,0,0,0,0,0,0l-.37-1.59,0-.09s0-.1,0-.15l-.06-.15,0-.08-.7-1.62a.09.09,0,0,1,0-.06l-.07-.13-.08-.14,0-.06-1-1.58,0,0-.08-.12-.09-.11,0,0-1.31-1.55h0l-.09-.1-.11-.11h0L355.6,105h0l-.1-.09-.11-.09h0l-1.88-1.45a.31.31,0,0,0-.09-.07l-.09-.07-2.16-1.4-.08,0-.08-.06-2.42-1.34-.08,0-.07,0L345.75,99l-.06,0-.07,0-2.9-1.21-.06,0-.06,0-3.12-1.13-.05,0-.06,0-3.32-1H336l-.05,0-1.47-.4.18,0,4.37,1,4.14,1.13,3.93,1.23,3.67,1.32,3.4,1.39,3.11,1.48,2.8,1.53,2.47,1.59,2.13,1.62,1.78,1.63,1.41,1.62,1.05,1.59.71,1.55.39,1.49.1,1.47-.18,1.48-.5,1.53-.83,1.61L367.39,123l-1.6,1.71-2,1.72-2.39,1.71-2.79,1.68-3.15,1.63L352,133l-3.85,1.49-4.16,1.39-4.45,1.29-4.72,1.18-5,1.06-5.17.93-5.36.79-5.51.66-5.63.5Zm91-48.49,4.61,2.4,4.13,2.51,3.63,2.58,3.1,2.65,2.56,2.69,2,2.69,1.45,2.69.91,2.65.38,2.63-.11,2.65-.66,2.69-1.21,2.75-1.81,2.82L410,131.42l-3.08,2.87-3.72,2.83-4.35,2.79-5,2.7-5.54,2.59-6.11,2.46L375.59,150l-7.13,2.15-7.59,2-8,1.77-8.36,1.56-8.69,1.33-8.95,1.09-9.16.86-9.32.6-9.42.36-9.45.09-9.43-.16-9.37-.42-9.21-.66-9-.92-8.78-1.16L235.23,157l-8.13-1.61-7.72-1.81-7.28-2-6.81-2.19L199,147.06l-5.72-2.49L188.15,142l-4.53-2.71-3.9-2.79-3.27-2.82-2.63-2.83-2-2.81-1.38-2.76-.8-2.7v-.11h0v0l-.25-2.51.25-2.65.77-2.66,1.31-2.71,1.86-2.72,2.43-2.74,3-2.7,3.51-2.66,4-2.58L191,96l5-2.39,5.38-2.26,5.78-2.13,6.14-2,5.48-1.56L214.66,87l0,0-.06,0L209.33,89l-.06,0-.06,0-4.87,2.08-.07,0-.06,0-4.5,2.19-.07,0-.08,0-4.09,2.3-.08.05-.09,0-3.67,2.4a.71.71,0,0,0-.09.07l-.1.06-3.21,2.48h0l0,0-.09.08-.1.08,0,0h0l-2.75,2.55h0a.94.94,0,0,0-.1.1l-.1.11h0l-2.29,2.65a0,0,0,0,1,0,0l-.1.12s-.06.08-.08.12l0,0-1.79,2.71,0,.05-.07.13-.08.13s0,0,0,.06l-1.27,2.76a.59.59,0,0,1,0,.08.78.78,0,0,0,0,.14.88.88,0,0,0-.05.15l0,.08-.73,2.75v.05s0,0,0,.08a1.16,1.16,0,0,0,0,.18c0,.05,0,.11,0,.16a.34.34,0,0,0,0,.1v0h0l-.19,2.74v0h0v.09a1.15,1.15,0,0,0,0,.19,1.36,1.36,0,0,0,0,.2v.07h0s0,0,0,0l.28,2.24h0v0l.06.48h0v0a.5.5,0,0,0,0,.12.59.59,0,0,0,0,.13,2.29,2.29,0,0,0,.07.28l.91,2.81s0,.08,0,.12l0,.08.11.24h0l1.48,2.8a.08.08,0,0,0,0,0l.16.26,0,.05h0l2,2.76s0,0,0,0a1.56,1.56,0,0,0,.16.2.12.12,0,0,0,.05,0h0l2.59,2.71h0l.14.12.08.08,3.12,2.63h0l0,0,.21.16,3.68,2.57.19.12,4.2,2.47.06,0,.11.06,4.72,2.36.07,0,.08,0,5.22,2.24.07,0,.06,0,5.69,2.1.07,0,0,0,6.13,1.95.07,0h0l6.54,1.79h0l.06,0,6.91,1.61h.1l7.25,1.42h.09l7.55,1.22h.09l7.8,1h.08l8,.81h.08l8.18.59h.08l8.29.36h.08l8.36.15h.38l7.64-.08h.51l8.35-.31h.08l8.26-.53h.07l8.14-.75h.08l7.95-1h.08l7.73-1.17h.08l7.46-1.38h.09l7.15-1.56.05,0h0l6.79-1.74.07,0h0l6.41-1.9,0,0,.07,0,6-2.06.05,0,.07,0,5.54-2.21.08,0,.06,0,5.07-2.34.09-.05.06,0,4.57-2.45.11-.07.05,0,4.05-2.54h0l.17-.11,3.52-2.63.21-.17v0h0l3-2.68,0,0,.17-.18h0l2.42-2.75h0l0,0a1.84,1.84,0,0,0,.17-.22l0,0,1.87-2.79h0l0,0c.06-.1.11-.2.16-.3a.05.05,0,0,0,0,0l1.31-2.81a2.6,2.6,0,0,0,.1-.25.32.32,0,0,0,0-.09s0-.08,0-.12l.74-2.78h0v0h0s0,0,0,0,0,0,0-.06,0-.11,0-.16v0s0-.07,0-.11a.68.68,0,0,0,0-.14h0v0h0l.2-2.75v0h0v-.08c0-.07,0-.13,0-.19s0-.13,0-.2v-.11l-.33-2.72h0v0s0-.05,0-.08l0-.17a.75.75,0,0,0,0-.16.29.29,0,0,0,0-.09v-.05h0l-.87-2.72,0-.08a1.21,1.21,0,0,1-.05-.14.61.61,0,0,0-.07-.14l0-.08-1.41-2.72,0,0a.54.54,0,0,0-.07-.13l-.08-.13,0,0-1.92-2.67v0l-.09-.12-.1-.11,0,0-2.41-2.6h0l-.09-.09-.12-.12-2.86-2.49h0l0,0-.09-.07-.1-.08-3.35-2.43-.09-.06-.08-.06-3.78-2.33-.09,0-.07,0L385,91.76l-.07,0-.07,0-4.59-2.1-.06,0-.06,0-5-2-.06,0-.06,0-5.29-1.85h-.05l-.06,0-2.55-.78,3.76,1,6.21,1.87,5.86,2,5.47,2.16Zm11.63-6.81,6,2.67,5.53,2.82,5,3,4.42,3,3.81,3.15,3.19,3.2,2.54,3.24,1.88,3.25,1.24,3.23.6,3.22,0,3.23-.66,3.28L437.3,128l-2.06,3.41-2.79,3.44-3.57,3.46-4.33,3.42-5.09,3.36-5.83,3.26-6.55,3.14-7.23,3L392,157.28l-8.49,2.61-9,2.38-9.56,2.15-10,1.9-10.41,1.62-10.74,1.34-11,1-11.2.74-11.31.43-11.38.12-11.34-.2-11.25-.51-11.08-.82L244.32,169l-10.54-1.42-10.15-1.69-9.72-2-9.22-2.21L196,159.25l-8.09-2.66-7.44-2.85-6.77-3-6.06-3.17-5.31-3.27-4.57-3.36L154,137.51l-3-3.43-2.27-3.4-1.53-3.34-.85-3.29-.19-3.25.43-3.24,1.08-3.25,1.72-3.28,2.37-3.29,3-3.26,3.67-3.22,4.28-3.15,4.87-3L173,92.15l5.94-2.79,6.42-2.65,6.86-2.48,7.28-2.31,1.88-.53-1.77.57-.05,0-.06,0-6.3,2.31-.06,0-.06,0-5.9,2.46-.06,0-.07,0-5.46,2.6-.07,0-.07,0-5,2.73-.08,0-.08,0-4.51,2.87a.21.21,0,0,0-.08.06.47.47,0,0,0-.09.06l-4,3-.1.08-.09.08L164,101.59h0l-.1.11-.1.1h0L160.9,105v0l-.09.11-.1.12v0l-2.28,3.26,0,0-.08.13-.07.13,0,0-1.66,3.32,0,.07-.06.14a.88.88,0,0,0,0,.15l0,.07-1,3.32h0l0,0a.29.29,0,0,1,0,.09c0,.06,0,.11,0,.17a.88.88,0,0,0,0,.16.29.29,0,0,0,0,.09v.05h0l-.36,3.32s0,0,0,0V120a1.34,1.34,0,0,0,0,.2v.19a.22.22,0,0,1,0,.08h0v0l.27,3.13h0v.22h0v0s0,.08,0,.12,0,.09,0,.13a2.46,2.46,0,0,0,.07.29l.95,3.4.05.13a.26.26,0,0,0,0,.08,1.86,1.86,0,0,0,.1.25h0l1.65,3.4a.05.05,0,0,0,0,0,2.54,2.54,0,0,0,.16.28l0,.05h0l2.33,3.37,0,0,.16.21,0,.05h0l3,3.31h0l.14.14a.23.23,0,0,1,.07.07h0l3.68,3.22h0a1.16,1.16,0,0,0,.21.16l4.36,3.15.19.13,5,3,0,0,.12.07,5.65,2.9.06,0,.09,0,6.28,2.76.06,0,.07,0,6.86,2.59.07,0,.06,0,7.41,2.41.06,0h0l7.93,2.21h0l.06,0,8.4,2h0l.06,0,8.83,1.76h.09l9.2,1.52h.09l9.53,1.27h.09l9.79,1h.08l10,.73h.08l10.15.46H279l10.24.17h.08l10.25-.1h.08l10.22-.39h.07L320,170h.08l10-.93h.08l9.71-1.2h.08l9.43-1.45h.09l9.08-1.7h.1l8.69-1.93.06,0h0l8.24-2.16h0l.07,0,7.77-2.35,0,0,.07,0,7.23-2.55.07,0,.06,0,6.67-2.72.08,0,.06,0,6.08-2.87.1-.05.06,0,5.45-3,.13-.08.05,0,4.8-3.11.21-.14,4.15-3.22a1.74,1.74,0,0,0,.22-.18h0l3.47-3.28.05,0,.17-.18h0l2.81-3.36h0a.1.1,0,0,0,0,0c.06-.07.11-.15.17-.23l0,0,2.13-3.39h0l0,0a3,3,0,0,0,.15-.31l0,0,1.44-3.41a2,2,0,0,0,.1-.26l0-.09,0-.13.71-3.14v0h0l.05-.22v0h0a.13.13,0,0,0,0-.06,1.55,1.55,0,0,0,0-.21,1,1,0,0,0,0-.17.28.28,0,0,0,0-.09v0l.11-3.34h0v-.1a1.21,1.21,0,0,0,0-.19,1.1,1.1,0,0,0,0-.18s0-.06,0-.09v0h0l-.55-3.35a.29.29,0,0,0,0-.09l0-.16s0-.1-.05-.15l0-.09L428.78,110l0-.07-.06-.14a.83.83,0,0,0-.07-.13l0-.07-1.82-3.27,0,0-.07-.12-.09-.13,0,0-2.43-3.2a0,0,0,0,0,0,0l-.09-.12a.52.52,0,0,1-.1-.11h0l-3-3.11-.08-.07-.14-.13-3.57-3-.09-.07-.1-.07-4.11-2.9-.09,0-.08-.06L408,90.28l-.08,0-.07,0-5.11-2.64-.07,0-.07,0L397.05,85,397,85l-.06,0-6-2.35-.06,0-.05,0-6.39-2.19h-.05l-.05,0-.09,0h0l7.35,2.17,6.95,2.36ZM142.44,82.52h0l3.21-1.45,5.49-2.17h0l3-1.19,6.23-2.18,2.82-1,2.44-.75-3.91,1.37-.05,0-.05,0-8,3.2-.07,0-.06,0-7.44,3.39-.06,0-.07,0-6.86,3.58-.07,0-.08,0-6.23,3.76-.09.06-.08,0L127,93.38l-.09.07-.1.07-4.86,4.06h0l-.1.1-.1.09h0l-4.13,4.2h0a.52.52,0,0,0-.1.11.87.87,0,0,0-.09.11h0L114,106.56l0,0-.08.12a.83.83,0,0,0-.08.12.05.05,0,0,0,0,0l-2.57,4.43a.21.21,0,0,0,0,.06l-.07.14-.06.14,0,.06-1.73,4.52,0,.08s0,.1,0,.15,0,.11,0,.16a.29.29,0,0,1,0,.09l-.86,4.54v0a.25.25,0,0,1,0,.08,1.1,1.1,0,0,0,0,.18,1.09,1.09,0,0,0,0,.18s0,.06,0,.09v0l0,4.55h0v0s0,.06,0,.09a1.09,1.09,0,0,0,0,.18l0,.2a.15.15,0,0,0,0,.07h0s0,0,0,0l.28,1.44h0v0l.62,3.08h0v.05l0,.14,0,.09a1.14,1.14,0,0,0,.09.26h0l1.85,4.64a.05.05,0,0,1,0,0c0,.1.1.21.16.31a.17.17,0,0,0,0,.05h0l2.8,4.6s0,0,0,0l.16.24a.1.1,0,0,1,0,.05h0l3.74,4.55h0a1.14,1.14,0,0,0,.15.16l.06.07h0l4.69,4.47.08.06a.81.81,0,0,0,.14.12h0l5.63,4.35.2.14,6.56,4.22.05,0,.13.07,7.47,4.05.06,0,.1.06,8.34,3.85.07,0,.08,0,9.19,3.64.07,0,.06,0,10,3.38.07,0,.05,0,10.75,3.11h0l.07,0,11.45,2.82h.1l12.07,2.5h.1l12.64,2.15h.09l13.11,1.8H232l13.51,1.43h.08l13.83,1.05h.08l14,.65h.07l14.17.26h.08l14.2-.15h.08l14.14-.54h.08l14-.94h.08l13.73-1.33h.08l13.38-1.71h.09l13-2.07h.09l12.44-2.41,0,0h.05l11.86-2.74.06,0h.05l11.21-3h0l.07,0,10.5-3.32.05,0,.07,0,9.73-3.58.07,0,.07,0,8.91-3.8.08,0,.07,0,8.06-4,.11-.06.05,0,7.17-4.17h0l.18-.11,6.26-4.32a1.56,1.56,0,0,0,.2-.16l0,0h0l5.31-4.42a.39.39,0,0,0,.1-.08l.12-.12h0l4.4-4.53h0l0,0a1.45,1.45,0,0,0,.17-.19l0,0,3.46-4.6h0l0-.05a2.26,2.26,0,0,0,.16-.26l0,0,2.52-4.63h0c.05-.08.08-.16.12-.24l0-.08s0-.08,0-.11l1.59-4.63a2.29,2.29,0,0,0,.08-.28s0-.07,0-.11l0-.13v0h0l.37-2.51v0h0l.29-2v0h0a.22.22,0,0,1,0-.08,1.5,1.5,0,0,1,0-.2v-.27h0v0l-.23-4.52h0v0a.28.28,0,0,0,0-.09c0-.06,0-.11,0-.17s0-.12,0-.18,0,0,0-.08v0h0l-1.09-4.5,0-.08s0-.1,0-.15l-.06-.15,0-.08-1.95-4.45,0-.06a.54.54,0,0,0-.07-.13.91.91,0,0,0-.07-.14l0,0-2.78-4.36s0,0,0,0-.06-.08-.08-.12l-.09-.12s0,0,0,0L466.87,99h0l-.1-.1-.11-.11h0l-4.3-4.09h0v0l-.1-.08-.1-.09h0l-5-4-.09-.07-.09-.06-5.73-3.8-.08,0-.08,0-6.38-3.63-.07,0-.07,0-7-3.44-.07,0-.07,0L429.85,76l-.06,0-.06,0-8.08-3h0l-.05,0-2.08-.69.4.12,2.78.9h0L429,75.33l3,1.11h0l5.62,2.09,3.19,1.35h0l4.85,2.06L449,83.59l4.05,2,3.55,2,3.22,1.81,3.7,2.41h0l2.37,1.55,1.49,1.14,3.84,3,4.54,4.22,3.73,4.31,2.88,4.36,2,4.38,1.18,4.4.32,4.43-.28,2.27v0h0l-.26,2.16L484,132.52l-2.4,4.62-3.4,4.67-4.42,4.68-5.45,4.64-6.5,4.57-7.51,4.46-8.5,4.29-9.46,4.09-10.37,3.86L414.71,176l-12,3.3-12.76,3-13.42,2.63-14,2.26L348.05,189l-14.85,1.46-15.14,1-15.31.6-15.39.16L272,192l-15.21-.71-15-1.15-14.61-1.55-14.17-2-13.63-2.35-13-2.72-12.3-3.06-11.51-3.38-10.67-3.67-9.77-3.92-8.83-4.13-7.83-4.33-6.82-4.47L112.91,150l-4.74-4.64-3.7-4.64-2.68-4.61-1.71-4.56-.79-4.49.09-4.46,1-4.44,1.81-4.43,2.68-4.43,3.52-4.38,4.36-4.32L117,97.14h0l.87-.71,2.22-1.53h0l3.7-2.56,3.08-1.82h0l3.56-2.11,3.91-2h0l3.39-1.75ZM485,179.24h0l-.64.58-7,5.23-8.08,5.09-9.17,4.91-10.24,4.7-11.25,4.43-12.21,4.13-1.54.45h0L413.8,212l-.45.13-13.92,3.43-14.66,3-4.15.7h0l-6.23,1.06h0l-1.13.19h0l-3.77.64-8,1.08-7.86,1.07-4.17.43L337.37,225h-.15l-12.5.9h0l-3.93.28-8.62.36-8.18.33-5.56.07-11.31.12-16.84-.31-16.67-.83-16.4-1.31-16-1.8-15.51-2.27-14.9-2.71-14.2-3.13-13.4-3.53-12.54-3.88-11.6-4.21-10.59-4.5-9.54-4.74-6.34-3.72h0l-2.08-1.22-7.32-5.11-5.54-4.68h0l-.65-.55-5-5.29L88,167.94l-2.81-5.28-1.74-5.24-.73-5.17.21-4.54a2.79,2.79,0,0,0,.18-1.08v0c0-.14,0-.29,0-.43a3.06,3.06,0,0,0-.07-.91l.06-.91,1.62,2.91a.05.05,0,0,0,0,0c0,.08.1.17.16.25l0,.05h0L89.12,153l0,0a1.22,1.22,0,0,0,.15.17l.06.07h0l5.24,5.28h0l.11.1a.52.52,0,0,0,.11.1h0l6.33,5.14h0l0,0,.21.15h0l7.47,5,0,0,.14.09,8.56,4.82.06,0,.1,0,9.63,4.6s0,0,.07,0l.08,0,10.64,4.35.07,0,.07,0,11.62,4.06.07,0h.06l12.54,3.74h0l.07,0,13.4,3.39h.1l14.18,3h.09l14.86,2.6h.09l15.45,2.17H221l15.95,1.73H237l16.33,1.26h.08L270,206h.08l16.76.31h.08l16.79-.19h.08l16.71-.66h.09l16.51-1.14h.08l16.2-1.61h.08l15.78-2.06h.09l15.24-2.5h.1l14.62-2.91h.1l13.9-3.29.06,0h0l13.11-3.65h0l.07,0,12.23-4,.06,0,.07,0,11.29-4.27.07,0,.06,0,10.3-4.54.09,0,.07,0,9.27-4.77.11-.07,0,0,8.2-5,.19-.13,7.11-5.12L486,160h0l6-5.23h0l.06-.06.16-.15h0l4.89-5.34h0l0,0,.16-.2,0,0,3.78-5.4h0l0,0c.06-.09.11-.18.16-.27l0,0,.89-1.8.63,6.88-.45,5.15-1.45,5.22-2.48,5.29-3.57,5.33-4.69,5.35ZM378.4,225.34l2.87,78L380,304.91l-2.32-79.46ZM106,363.34l.3-.31,7.62-6.61,8.33-6.29,9-5.95,9.6-5.59h0l7.86-4,2.33-1.19,8.56-3.88,2.15-1,9.23-3.67,2-.79,9.84-3.43h0l1.77-.62L195,316.8l1.57-.47,11-2.87,1.37-.35,7.41-1.65-4.22.94-.05,0h0l-11.78,3.1-.05,0h-.06l-11.45,3.51-.05,0h-.06L177.42,323l-.06,0-.05,0-10.69,4.3-.06,0-.06,0-10.23,4.68-.06,0-.06,0-9.73,5-.07,0-.06,0-9.19,5.4-.06,0-.07,0-8.59,5.75-.08.05-.07.05-7.95,6.08-.08.07s0,0-.07.06l-7.27,6.39-.07.07-.08.07L106.18,368l-.08.09-.08.08-.29.36Zm274.81-52,10.81,2.53,1.53.43h0l10.52,2.9,1.74.56,10,3.18,1.93.72.08,0,0,.73-6.33-2.35-.05,0-.06,0-11.17-3.61-.06,0-.05,0-11.53-3.2h0l-.05,0-7.82-1.85v-.09ZM416,345.87l-.07,0-.07,0-7.93-4-.06,0-.07,0-8.36-3.66-.06,0-.06,0-8.74-3.35-.06,0-.06,0-9.1-3h0l-.06,0-9.41-2.68h-.05l-.05,0-9.69-2.35h0l-.05,0-9.92-2H352l-10.12-1.65h-.1l-8.71-1.1h.14l10.87,1.36,10.7,1.74,10.5,2.1,10.24,2.46,10,2.82,9.62,3.17,9.25,3.51,8.85,3.83,5.43,2.69.11,1.95Zm6.36,91.26-4.09,4.8-4.77,4.68-5.44,4.54L402,455.5l-6.72,4.13-7.3,3.88-7.86,3.6-8.38,3.3-8.85,3L353.64,476,344,478.22l-9.93,1.85-10.16,1.44-10.36,1-10.46.6-10.5.16L282.12,483l-10.4-.7-10.25-1.13-10-1.54-9.75-1.95-9.41-2.33-9-2.7-8.56-3.05-8.06-3.38-7.51-3.67-6.94-3.94-6.32-4.18-5.68-4.39-5-4.56-4.33-4.7L167.22,436l-2.95-4.89L162,426.16l-1.59-4.94-.92-5-.27-4.94.37-4.92,1-4.88,1.61-4.82,2.23-4.77,2.82-4.67,3.4-4.57,4-4.43L179.1,374l5-4.12,5.49-3.92,6-3.71,6.36-3.49,6.75-3.25,7.11-3,7.44-2.74,7.72-2.47,8-2.2,8.2-1.91,8.4-1.62,8.54-1.33,8.68-1,8.75-.72,8.82-.43,8.83-.11,8.82.19,8.77.5,8.7.8,8.58,1.1,8.44,1.4,8.25,1.7,8,2,7.79,2.27,7.51,2.54,7.2,2.81,6.85,3.06,6.47,3.31,6.06,3.54,5.61,3.76,5.15,4L416,375l4.12,4.31.26.33.49,9.44-.95-1.89-.06-.11-.08-.15-2.8-4.38h0a.36.36,0,0,1-.07-.1l-.09-.12h0l-3.34-4.25a.39.39,0,0,0-.08-.1l-.08-.09-3.85-4.11-.09-.08-.07-.07L405,369.67l-.09-.07-.07-.07-4.8-3.74-.08-.06-.07-.05-5.23-3.55-.08,0-.07,0-5.64-3.33-.07,0-.07,0-6-3.11-.07,0-.06,0-6.36-2.87-.07,0-.06,0-6.68-2.63-.06,0-.06,0-7-2.38h-.06l-.06,0-7.23-2.12h-.11l-7.46-1.86h-.05l-.05,0-7.66-1.58h-.1l-7.82-1.31h-.11l-7.95-1h-.1l-8.07-.75h-.09l-8.14-.46h-.1L299,338h-.1l-8.19.11h-.05s0,0-.05,0l-8.17.4h-.1l-8.12.68h-.1l-8,1h-.11L258,341.45h-.1L250.14,343H250l-7.6,1.79h-.06l-.05,0-7.4,2.05-.06,0h-.05l-7.17,2.31,0,0h-.06l-6.89,2.57-.07,0-.06,0-6.6,2.81-.06,0-.06,0-6.27,3.05-.07,0s0,0-.06,0l-5.91,3.27-.07.05-.07,0-5.53,3.48-.07.06-.07,0-5.11,3.7-.08.06-.08.06-4.66,3.88-.08.07a.27.27,0,0,1-.08.07l-4.2,4.06-.08.09-.07.08-3.68,4.2,0,0a.61.61,0,0,0-.07.1l-.09.1-3.17,4.35v0a.71.71,0,0,0-.1.14.41.41,0,0,0-.05.09h0l-2.64,4.48h0a.61.61,0,0,0-.07.14l-.07.12-2.08,4.6v0a1.21,1.21,0,0,1-.05.14.69.69,0,0,1,0,.13v0l-1.5,4.69s0,0,0,0a.74.74,0,0,0,0,.14l0,.14v0l-.9,4.75a0,0,0,0,1,0,0,.77.77,0,0,1,0,.15c0,.05,0,.09,0,.14v0l-.28,4.8v.19a.71.71,0,0,0,0,.14v0l.33,4.81v0a.59.59,0,0,1,0,.13c0,.05,0,.1,0,.15v0s0,0,0,0v0h0l1,4.78v0a.36.36,0,0,0,0,.1l0,.17a.08.08,0,0,0,0,0l1.61,4.78v0l0,.07.08.18a.08.08,0,0,0,0,0l2.25,4.73h0a1.73,1.73,0,0,0,.15.27l2.89,4.66a1.67,1.67,0,0,0,.16.24l3.5,4.52h0l0,0a2.09,2.09,0,0,0,.14.17l4.14,4.41.08.07a.47.47,0,0,0,.1.1l4.75,4.26.1.08.07.06,5.35,4.07.12.09.05,0,0,0h0l5.89,3.84,0,0,.11.07,6.46,3.63.06,0,.09.06,7,3.36.07,0,.08,0,7.45,3.08.07,0,.07,0,7.88,2.78.08,0,0,0,8.28,2.45.05,0,.08,0,8.63,2.12h.06l.07,0,8.92,1.76h.12l9.17,1.4h.12l9.36,1h.12l9.5.64h.11l9.58.24H293l9.59-.14h.12l9.54-.53h.12l9.45-.93h.12l9.29-1.3h.12l9.09-1.68h.12l8.81-2,.08,0h.05l8.5-2.38h0l.08,0,8.13-2.7.07,0,.07,0,7.72-3,.07,0,.07,0,7.27-3.29.09-.05.06,0,6.78-3.57.11-.06.05,0,6.23-3.79,0,0,0,0L395,455l5.7-4,.06,0,.11-.08,5.13-4.21.08-.07.09-.08,4.54-4.38.1-.11.07-.07,3.92-4.52a1.24,1.24,0,0,0,.14-.18l0,0h0l3.28-4.62.16-.24,2.66-4.72c0-.09.1-.18.14-.27h0l1.46-3.44.62,11.88Zm-3.68,26.75-7.7,4.84-8.4,4.54-9.06,4.23-9.67,3.87-10.24,3.49-10.72,3.07-11.15,2.63-11.53,2.17-11.81,1.7-12,1.2-12.15.7-12.23.19-12.19-.32-12.09-.83L255.84,494l-11.65-1.81-11.3-2.29L222,487.18,211.56,484l-9.89-3.58-9.3-4-8.66-4.31-8-4.62-7.24-4.89L162,457.51l-5.7-5.32-4.9-5.49-4.1-5.6L144,435.42l-2.49-5.74-1.7-5.75-.94-5.75-.18-5.74.56-5.69,1.28-5.64,2-5.57,2.69-5.48,3.37-5.37,4-5.23,4.65-5.06,5.25-4.88,5.82-4.68,6.35-4.45,6.86-4.21,7.32-3.94,7.75-3.68,8.13-3.38,8.5-3.09,8.81-2.79,9.09-2.47,9.33-2.14,9.54-1.82,9.7-1.49,9.84-1.15,9.94-.81.68,0-9.2.75h-.1l-9.22,1.09h-.09l-9.1,1.41h-.1l-8.94,1.71,0,0h-.05l-8.75,2,0,0h-.06L226,338.8l-.06,0h-.06l-8.25,2.63-.06,0h-.05l-8,2.92-.06,0-.06,0-7.63,3.2-.06,0-.06,0-7.27,3.47-.07,0-.06,0L187.4,355l-.06,0-.07,0-6.43,4-.07.05-.08.05-6,4.23-.08.06-.07,0L169.11,368l-.08.08-.08.06L164,372.77l-.07.08a.6.6,0,0,0-.08.08l-4.35,4.83,0,0-.08.09-.08.1-3.78,5h0v0l-.09.12-.06.1h0l-3.17,5.16-.07.14-.07.12L149.53,394h0l-.06.13a.58.58,0,0,0-.05.14h0l-1.86,5.42v0s0,.09,0,.14a.7.7,0,0,0,0,.14v0l-1.18,5.51v0l0,.15a.68.68,0,0,1,0,.14v0l-.46,5.57a.08.08,0,0,0,0,0v.33l.26,5.6v0s0,.09,0,.14,0,.1,0,.15v0l.13.72.87,4.89v0l0,.11a.94.94,0,0,1,0,.16l0,0,1.74,5.59v0l0,.08c0,.06.05.12.07.17s0,0,0,0l2.5,5.53h0a2.44,2.44,0,0,0,.14.28l3.25,5.45c.05.08.1.17.16.25l4,5.32h0l0,0,.15.18,4.73,5.2.08.07a.94.94,0,0,0,.1.1l5.45,5a.81.81,0,0,0,.1.09l.07.06,6.16,4.8.12.09.05,0,6.84,4.56,0,0a.41.41,0,0,1,.11.07l7.49,4.29s0,0,.06,0l.1,0,8.1,4,.07,0,.08,0,8.68,3.66.07,0,.08,0,9.2,3.3.08,0,.06,0,9.68,2.92.09,0h0l10.11,2.53h0l.08,0,10.46,2.1h.07l.06,0,10.76,1.66h.12l11,1.21h.12l11.16.76h.12l11.25.29h.11l11.28-.17h.12L315,493.1h.12l11.1-1.1h.12l10.92-1.55h.12l10.65-2,.07,0h.06L358.52,486l.08,0h0l10-2.82,0,0,.08,0,9.5-3.21.07,0,.07,0,9-3.57.08,0,.06,0,8.47-3.91.09,0,.06,0L404,468l.11-.07.05,0,7.22-4.48,0,0,0,0,.12-.08,6.59-4.74.06-.05.11-.08,5.9-5h0l.32,6.15Zm-3.23-103.59-.08-.05-.07-.06-6.1-4.05-.07,0-.07,0-6.55-3.8-.08,0-.06,0-7-3.54-.07,0-.06,0-7.36-3.28-.07,0-.06,0-7.71-3-.06,0-.06,0-8-2.7-.06,0-.06,0L363.5,337h-.05l-.06,0-8.58-2.1h-.05l-.05,0-8.8-1.79h-.1l-9-1.49h-.1l-9.13-1.17h-.1l-9.25-.85h-.1l-9-.5h.42l10,.55,9.86.9,9.74,1.24,9.58,1.57,9.39,1.9,9.14,2.23,8.89,2.55,8.57,2.86,8.23,3.16,7.85,3.46,7.43,3.74,7,4,4.22,2.77.18,3.41ZM379.88,450.7,373.66,454,367,457l-7.1,2.74-7.49,2.48-7.82,2.17-8.12,1.86-8.36,1.53-8.57,1.2-8.72.84-8.8.5-8.84.13-8.83-.23-8.76-.58-8.62-.93-8.45-1.28-8.23-1.62-7.93-1.94-7.62-2.25L227.49,459l-6.84-2.82-6.39-3.06-5.9-3.29-5.4-3.5-4.86-3.67-4.31-3.81-3.74-3.95-3.16-4-2.58-4.1-2-4.13-1.44-4.16-.87-4.17-.15-1.88-.18-2.27.22-4.14.74-4.12,1.27-4.08,1.79-4.05,2.3-4L188.8,386l3.29-3.8,3.76-3.67,4.21-3.54,4.64-3.37,5-3.21,5.41-3,5.76-2.82,6.07-2.6,6.37-2.39,6.62-2.15,6.86-1.91,7.05-1.66,7.23-1.42,7.36-1.15,7.48-.9,7.56-.63,7.6-.36,7.62-.1,7.62.16,7.57.44,7.5.7,7.39,1,7.28,1.22,7.09,1.48,6.91,1.72,6.69,2,6.44,2.21,6.15,2.44,5.85,2.65,5.5,2.87,5.15,3.06,4.75,3.24,4.33,3.41,3.9,3.56,3.43,3.69,3,3.81,2.46,3.9,1.95,4,1.43,4,.92,4.08.38,4.12-.15,4.14-.68,4.17-1.25,4.18-1.81,4.17-2.38,4.15-3,4.1-3.54,4-4.11,3.92-4.67,3.8-5.21,3.64Zm45.69,28.11-8,4.42-10.27,4.87-11,4.47-11.63,4-12.22,3.56-12.72,3-13.16,2.52-13.49,2-13.76,1.39-13.91.81-14,.22-13.95-.37-13.83-1-13.61-1.54-13.3-2.1-12.9-2.66-12.43-3.18-11.88-3.67-11.23-4.14-10.55-4.58-9.8-5-9-5.32L150.82,471l-7.27-5.9L137.19,459l-5.45-6.29-4.53-6.41-3.6-6.51-2.68-6.55-1.79-6.57-.91-6.56,0-6.52.79-6.48,1.6-6.41,2.41-6.3,3.18-6.2,4-6.05,4.66-5.88,5.36-5.69,6-5.46,6.65-5.23,7.22-5,7.78-4.68,8.27-4.39,8.74-4.08L194,338l9.55-3.43,9.88-3.07,10.18-2.74L234,326.39l10.67-2,10.84-1.64.68-.08-9.14,1.39H247L236.9,326l-.05,0h0l-9.87,2.26h-.1l-9.62,2.6-.05,0h-.06l-9.33,2.94-.06,0-.06,0-9,3.26-.06,0-.06,0-8.65,3.58-.06,0-.07,0-8.25,3.89-.06,0-.07,0L173.54,349l-.06,0-.07,0-7.35,4.47a.18.18,0,0,1-.07.05l-.07.05-6.83,4.75-.08.05-.07.06-6.28,5-.08.06-.08.07-5.69,5.25-.08.08-.08.07-5.08,5.48-.07.09-.08.09L137,380.36h0l-.09.12-.07.1v0h0l-3.72,5.84a.64.64,0,0,1-.08.14l-.06.12-3,6h0l-.06.14a.69.69,0,0,1,0,.13h0l-2.26,6.16v0a2.27,2.27,0,0,1-.09.28v0L126,405.77s0,0,0,0a.59.59,0,0,0,0,.14.8.8,0,0,0,0,.15v0l-.68,6.35a0,0,0,0,1,0,0v.15c0,.05,0,.1,0,.15v0l.15,6.4v0a.71.71,0,0,0,0,.14c0,.05,0,.1,0,.15a0,0,0,0,0,0,0l.21,1.42.77,5v0a.5.5,0,0,0,0,.12.75.75,0,0,0,0,.16v0l1.84,6.4v0a.36.36,0,0,0,0,.09.58.58,0,0,0,.06.17s0,0,0,0l2.7,6.35h0c0,.09.08.19.13.28l3.57,6.27h0a2.2,2.2,0,0,0,.17.25l4.42,6.14h0s0,0,0,0l.16.2,5.27,6h0l0,0,.06.07.12.12,6.13,5.79.1.08.08.07,7,5.56.11.08.06.05,7.75,5.28.14.08,0,0h0l8.5,5,.06,0,.1.06,9.24,4.63.07,0,.08,0,9.93,4.26.07,0a.15.15,0,0,1,.07,0l10.55,3.84.08,0,.06,0,11.12,3.41.09,0h0l11.61,3h.13l12.05,2.46h.12l12.4,1.95H253l12.68,1.43h.12l12.87.88h.12l13,.34h.12l13-.2H305l13-.75H318l12.8-1.29H331l12.58-1.81h.12l12.26-2.33H356L367.92,498l.08,0,.05,0,11.42-3.29.06,0,.08,0,10.9-3.74.06,0,.07,0L401,486.7l.07,0,.07,0,9.67-4.54.09-.05.06,0,9-4.89.11-.06.05,0,5.25-3.32ZM360.72,316.59l11.59,2.3,11.31,2.69,11,3.07,10.66,3.47L415.57,332l2.38,1,.06,1.19-7.19-3.1-.05,0-.07,0-9.76-3.68-.06,0-.06,0L390.69,324h-.06l-.06,0L380.1,321H380l-.05,0-10.76-2.57-.06,0h-.05l-10.54-2.1ZM421.34,499,409,504.06l-13,4.6-13.74,4.06-14.33,3.48-14.82,2.88-15.23,2.25-15.52,1.6-15.71.92-15.8.26-15.75-.43-15.62-1.1-15.36-1.76-15-2.41-14.54-3-14-3.63-13.33-4.2-12.61-4.72-11.81-5.22-10.94-5.66-10-6.05-9.05-6.39-8-6.68-7-6.93-6-7.11-4.92-7.25L103,444.19l-.7-1.81,2.4-51.45,2.47-4.6,4.54-6.72,5.34-6.53,6.09-6.3,6.81-6,7.48-5.76,8.11-5.47,8.69-5.15,9.24-4.82,9.73-4.48L183.36,331l10.58-3.75,10.94-3.36,11.27-3,11.53-2.58,8.95-1.67-6.14,1.15-.05,0h-.05l-11,2.48,0,0h-.05l-10.71,2.85-.05,0-.06,0-10.4,3.22,0,0-.06,0L187.94,330l-.06,0-.06,0L178.15,334l-.06,0s0,0-.06,0l-9.25,4.29-.06,0s0,0-.07,0L159.88,343l-.07,0-.06,0-8.26,4.95-.07.05-.07,0-7.71,5.26-.07,0-.08.06-7.11,5.55-.07.06-.08.06L129.76,365l-.08.08-.08.07-5.79,6.09-.08.09-.08.08-5.05,6.31h0v0a.36.36,0,0,0-.07.1l-.09.11v0h0l-4.3,6.51a.75.75,0,0,0-.07.12,1,1,0,0,0-.08.14l-3.52,6.72h0l-.06.13-.06.13h0l-2.69,6.89v0l-.05.14c0,.05,0,.09,0,.14a0,0,0,0,0,0,0l-1.83,7v0l0,.14a.77.77,0,0,0,0,.15v0l-.93,7.13v0a1328219812568.37,1328219812568.37,0,0,0,0,.3v7.26a1328219812556.72,1328219812556.72,0,0,1,0,.3v0l.27,2.12.67,5.11v0l0,.12a1.1,1.1,0,0,0,0,.16v0l1.91,7.22v0l0,.1a1,1,0,0,0,0,.16v0l2.88,7.18s0,0,0,0,.08.19.13.28l3.86,7.1h0a1.28,1.28,0,0,0,.15.25l4.85,7h0l.17.22,5.81,6.78h0l0,0,0,.06.13.13,6.79,6.6.1.08.08.07,7.74,6.34.12.09.05,0,8.67,6,.14.09,0,0h0l9.53,5.68.06,0,.1.06L169.59,496l.06,0,.09,0L180.92,501l.07,0,.08,0L193,505.45l.08,0,.06,0,12.57,3.91.09,0,0,0L219,512.84H219l.08,0,13.66,2.82h.06l.06,0L247,518h.13l14.39,1.64h.12l14.63,1h.12l14.76.39h.12l14.79-.23h.12l14.72-.86H321l14.54-1.48h.12l14.28-2.08.06,0h.06L364,513.65l.07,0h.06l13.47-3.25.08,0h0l12.94-3.79.05,0,.08,0,12.31-4.29.07,0s.05,0,.07,0l11.63-4.76.08,0,.07,0,10.88-5.2.09-.05.06,0,.23-.13.24,4.55ZM400.61,221h.11L412,218.23l4.79,91.8-5.83-1.86h-.06l-.05,0L398,304.63l-.05,0h-.05L386.83,302,384,224.39l1.78-.3h.1ZM304.1,232.49h.08l8.22-.34,8.66-.36h.08l4-.29,12.51-.9h.27l12.15-1.25,4.21-.44h.09l7.9-1.07,8-1.09h.09l.66-.11,2.91,83.32L364,308h-.1l-12.33-2h-.1L339,304.42h-.09l-12.65-1.12h-.1l-12.74-.69h-.09l-10.69-.22,0-2.51h0l0-.78-.07-3.56h0l-1.18-63ZM116.17,198.73l.06,0a.39.39,0,0,0,.11.06l9.7,4.83.06,0,.09,0,10.74,4.56.07,0,.07,0,11.73,4.25.07,0,.06,0,12.66,3.92.07,0h0l13.52,3.56h.05l.06,0,14.31,3.16h0l.06,0,15,2.73h.1l15.6,2.28h.1l16.1,1.8h.09l16.48,1.33h.09l16.76.83h.09l16.92.32h.08l8.57-.1,1.13,60.21-10.15.13h-.08l-14.16.64h-.09l-14.09,1.1h-.09l-14,1.57h-.1l-13.82,2h-.09l-13.63,2.49-.05,0h0l-13.38,2.95H203l0,0-13.09,3.39-.05,0-.06,0L177,311.07l0,0-.06,0-12.36,4.29-.06,0-.06,0-11.93,4.72-.06,0-.06,0-11.46,5.14-.06,0-.06,0L129.9,331l-.07,0s0,0-.06,0l-10.34,6-.07,0-.07.05-9.7,6.35-.07.06-.07,0-2.65,2,6.91-148.24ZM430.48,524.62,415,530.21l-16.27,4.95-17,4.25-17.64,3.52L346,545.68l-18.53,2-18.75,1.14-18.86.31L271,548.56l-18.63-1.34L234,545.06l-17.87-2.95-17.29-3.71L182.29,534l-15.8-5.12-14.88-5.74-13.89-6.33-12.82-6.85-11.68-7.31-10.5-7.71-9.27-8.05-8-8.31-6.18-7.79L98.11,186.87l1.49,1.26h0l0,0,.2.15,7.53,5.26.19.12.7.41-7.32,157.1h0l-.37,7.82-.08,1.75h0l-.06,1.24-.68,14.69h0l0,.83-.11,2.37L99.12,390l-2.46,52.68v.05l-.08,1.72h0v0h0L96,458.1l-.29,6.09a2.81,2.81,0,0,0,2.67,2.93h.14a2.82,2.82,0,0,0,2.29-1.19l5.21,6.29h0v0l0,.05.14.14,7.43,7.43.1.08a.3.3,0,0,0,.08.08l8.51,7.14.12.09.06.05,9.56,6.82.14.09,0,0,10.58,6.44.06,0,.1.06,11.54,6,.06,0,.1.05,12.45,5.54.07,0,.07,0,13.29,5,.08,0,.06,0L194.72,522l.09,0h0l14.73,3.85h0l.08,0L225,529.1h.06l.07,0,15.79,2.55h.13l16.17,1.87h.12l16.44,1.17h.12l16.59.45h.12l16.62-.26h.12l16.53-1H324l16.34-1.69h.12l16-2.38h.12l15.61-3.05.07,0h.06l15.08-3.69.09,0h.05l14.46-4.3.05,0,.08,0,13.75-4.88.07,0,.08,0,11.2-4.67a2.8,2.8,0,0,0,2.61,1.78H430a2.8,2.8,0,0,0,2.66-2.94l-.17-3.15v0l-.2-4a0,0,0,0,1,0,0l-.13-2.66a0,0,0,0,1,0,0l-.57-10.88-.22-4.25-.12-2.39v-.23l-.61-11.7h0v0l-.27-5.16-.13-2.54-.72-13.9-.43-8.1-.12-2.35-3-58-.32-6-.14-2.85-.59-11.29-.18-3.33-.14-2.72-.45-8.66h0v0l-.12-2.29v-.05l-.14-2.63v0l-.4-7.57-.1-1.88v0h0l-.14-2.58v0h0l-.35-6.81v0h0l-.07-1.24v0l-.23-4.51-5.07-97,5.72-1.66L443,515.21,441.25,514l-.05,0-.14-.09-.1-.06-.13-.06a.52.52,0,0,0-.13-.06l-.11,0-.15,0-.11,0-.15,0-.12,0-.14,0h-.53l-.16,0h-.05a2.71,2.71,0,0,0-.13-1.77,2.8,2.8,0,0,0-3.67-1.5l-13.31,5.62L407.56,521l-15.28,4.6-16,3.94-16.53,3.26-17,2.55-17.34,1.81-17.57,1.05-17.65.29L272.6,538l-17.46-1.25-17.16-2-16.74-2.73L205,528.61l-15.58-4.11-14.84-4.75-14-5.34-13.08-5.88-12.09-6.37-11-6.81-9.94-7.18-8.8-7.5L98,472.9l-6.36-7.83a2.8,2.8,0,0,0-5,1.69,2.8,2.8,0,0,0-3.62,4.16l1.13,1.41,5.47,6.78h0l0,0,.15.16,7.91,8.11,0,0a.6.6,0,0,1,.08.08l.1.09,9.14,7.84.12.09.05.05,0,0h0l10.27,7.47.14.09,0,0h0l11.4,7.07,0,0,.11.07L141.83,517l.06,0,.1.05,13.49,6.1.07,0,.09,0,14.43,5.53.08,0,.07,0,15.28,4.91.09,0h0l16,4.26h0l.09,0,16.69,3.56h.13l17.24,2.83H236l17.66,2.06h.12l18,1.29h.12l18.13.5h.12l18.17-.3h.12L326.48,547h.13l17.85-1.87h.12l17.5-2.63h.13l17-3.38.08,0h.05l16.44-4.08h0l.1,0,15.74-4.76h.05l.09,0,14.94-5.38.07,0,.08,0,12.23-5.18.1,0,1.25.9Zm68.16-164.2.83,10.32h0l.16,1.95h0l.25,3.06,6.2,76.9.11,1.45.05.51v0h0l.5,6.2,1,12.09-6.84,7.7-8.8,8.26-10,8-11.23,7.62-12.37,7.21-9.77,4.88L428.74,213.46l11.79-4,.06,0,.07,0,11.39-4.48.07,0,.07,0,10.38-4.77.1-.05.06,0,9.34-5,.12-.07.05,0,8.25-5.2h0l.19-.13,3.94-3Zm11.18,33.51,2.66,7.81,1.67,7.94.66,8.07-.39,8.16L513,434.13l-2.18,7-4.39-54.45Zm-2.29-23.13,5.84,7.61,4.91,7.88,3.94,8.09,2.95,8.28,1.9,8.45.83,8.57-.29,8.69-1.42,8.76-2.61,8.8-3.81,8.8-5.06,8.75-1.92,2.65-.39-4.86,3.44-5.85c0-.09.1-.18.14-.27h0l3.88-8.73a.08.08,0,0,0,0,0,.87.87,0,0,0,.07-.17l0-.09v0l2.69-8.77a.08.08,0,0,1,0,0,.94.94,0,0,1,0-.16s0-.07,0-.11v0l1.4-8.08.12-.67v0c0-.05,0-.1,0-.15s0-.1,0-.14v0l.37-8.7v-.36l-.75-8.6v0s0-.09,0-.14l0-.15v0l-1.82-8.45s0,0,0,0l0-.14a.83.83,0,0,1,0-.15,0,0,0,0,1,0,0l-2.86-8.28h0l-.06-.15a.67.67,0,0,0-.06-.12v0l-3.85-8.06a.75.75,0,0,0-.07-.12.61.61,0,0,0-.07-.14l-4.79-7.81h0a.5.5,0,0,0-.08-.12l-.07-.11h0l-5-6.65-.13-1.6ZM478.37,92.9l5.84,4.41,5,4.54,4.13,4.65,3.24,4.72,2.32,4.76,1.39,4.79.48,4.82-.47,4.86-1.44,5-2.47,5-3.54,5.08-4.66,5.09-5.78,5.06-6.92,5-8,4.86-9.11,4.69-10.16,4.47L437,178.88,433.57,180l8.64-3.23.07,0,.06,0,9.83-4.28.09-.05.06,0,8.86-4.5a.41.41,0,0,0,.11-.07l.06,0,7.85-4.7h0l.18-.12,6.82-4.85.21-.16,0,0h0L482.2,153h0l.07-.06.15-.14h0l4.73-5.06h0s0,0,.05,0l.16-.2,0,0,3.67-5.13h0l0,0c.06-.09.11-.18.16-.27l0,0,2.63-5.16h0a1.89,1.89,0,0,0,.11-.25l0-.08,0-.12,1.59-5.15a2.29,2.29,0,0,0,.07-.28.51.51,0,0,0,0-.13.43.43,0,0,0,0-.12v0h0l.38-3.4h0v0h0l.19-1.63v0a.17.17,0,0,0,0-.07,1.34,1.34,0,0,1,0-.2c0-.06,0-.12,0-.19v-.08h0v0l-.41-5h0v0s0-.06,0-.09a1.11,1.11,0,0,0,0-.17l0-.16,0-.09v0h0l-1.37-5a.29.29,0,0,1,0-.09l0-.14-.06-.15,0-.07L492,108.94s0,0,0,0l-.07-.13-.08-.13,0,0-3.21-4.81s0,0,0,0l-.09-.12-.09-.11,0,0-4.08-4.67h0l-.1-.1-.1-.11h0l-4.87-4.5h0l0,0-.1-.08-.1-.09h0l-4.88-3.73ZM99.55,100.76l5.66-4.53,6.45-4.39.4-.23-1.58,1.08a.31.31,0,0,1-.09.07l-.09.07-5.49,4.47h0l-.1.09-.09.09h0l-4.69,4.62h0l-.1.11-.1.11h0l-3.87,4.77,0,0-.09.12-.08.13,0,0-3,4.89,0,.06s0,.09-.07.13a.84.84,0,0,0-.06.14s0,0,0,.06l-2.08,5,0,.08-.06.15,0,.15,0,.09-1.12,5v0h0a.13.13,0,0,1,0,.06l0,.21s0,.11,0,.17v.12h0l-.15,5.06v0h0V129a1.15,1.15,0,0,0,0,.19,1.11,1.11,0,0,0,0,.19v.1h0l.22,1.3h0v0l.63,3.74h0v0l0,.14a.3.3,0,0,0,0,.1,2.76,2.76,0,0,0,.08.27l1.89,5.16,0,.12,0,.07a1.67,1.67,0,0,0,.12.23h0l2.94,5.14,0,0,.16.24,0,.06h0l4,5.08,0,0,.16.18,0,.06h0l5.06,5h0l.1.08.12.11h0l6.12,4.89.2.14h0l7.16,4.74.05,0,.13.08,8.19,4.56.06,0,.11,0,9.18,4.35.07,0,.08,0,10.15,4.11.07,0,.07,0,8.35,2.88-2.9-.86-11.49-4-10.51-4.29L120.25,169l-8.38-4.73-7.27-4.87-6.14-5-5-5-3.88-5.05-2.78-5-1.73-5-.73-4.9.22-4.85,1.16-4.83L87.8,115l3-4.79,3.92-4.74Zm452.6,510.92h0s0-.09,0-.14a.57.57,0,0,0,0-.13v0h0l-.06-.67h0v0L551,599.05s0-.11,0-.17a.5.5,0,0,1,0-.12L549.34,591,533.49,419.34h0l-.86-8.94v0c0-.05,0-.1,0-.14l0-.15v0l-2-8.78v0a1,1,0,0,0,0-.14.74.74,0,0,0,0-.14v0l-3-8.59h0l-.06-.14s0-.09,0-.13h0l-4.08-8.37-.08-.14s0-.07-.06-.11l-5.05-8.09h0v0a.76.76,0,0,0-.08-.11l-.07-.11h0l-6-7.8-.08-.1-.07-.09-6.87-7.51a.6.6,0,0,1-.08-.08.6.6,0,0,1-.08-.08l-.59-.55L489.91,182.36l4.18-3.81,0,0a1.62,1.62,0,0,0,.18-.19h0l4.91-5.61h0l0,0,.18-.23s0,0,0,0l3.79-5.66h0s0,0,0,0a2.28,2.28,0,0,0,.17-.3.05.05,0,0,0,0,0l2.67-5.68a2.72,2.72,0,0,0,.11-.25l0-.1,0-.11,1.57-5.65v0a.13.13,0,0,0,0-.06c0-.06,0-.13.05-.2a.59.59,0,0,1,0-.13s0-.07,0-.11l.5-5.66v-.1a.76.76,0,0,0,0-.15,1,1,0,0,0,0-.17v-.09l-2.08-22.58h0v0l-.52-5.26h0v0a.29.29,0,0,0,0-.09,1,1,0,0,0,0-.17s0-.11,0-.17,0,0,0-.08v0h0l-1.52-5.22a.19.19,0,0,1,0-.07l-.06-.15a.35.35,0,0,0-.06-.14l0-.08-2.51-5.16,0,0s-.05-.09-.07-.13l-.08-.13,0,0-3.45-5s0,0,0,0l-.08-.12-.1-.11,0,0L493.29,98h0l-.1-.11-.1-.1h0l-5.2-4.73-.1-.08-.09-.08,0,0h0l-6-4.53-.09-.06-.08-.06-6.78-4.36-.08,0-.08,0-7.5-4.15-.08,0-.07,0-8.17-3.93-.07,0-.06,0-8.8-3.7-.06,0-.06,0-9.38-3.46-.06,0-.05,0-9.92-3.21h0l-.05,0-10.41-2.95h0l-.05,0-10.85-2.69h-.08L397.49,57h-.08l-11.6-2.16h-.08l-11.92-1.88h-.07L361.55,51.3h-.07L349.07,50H349l-12.6-1h-.07l-12.74-.76h-.06l-12.85-.47h-.06l-12.9-.18h-.06l-12.92.11h-.06l-12.9.39h-.06l-12.84.68h-.06l-12.73,1H246l-12.58,1.25h-.06L221,52.47h-.07l-12.16,1.81h-.07L196.8,56.39h-.07l-11.57,2.36h-.08l-11.2,2.63h-.08L163,64.32h-.09l-10.34,3.15-.05,0h-.05l-9.83,3.4-.06,0h-.05l-9.29,3.64-.06,0-.06,0-8.69,3.87-.07,0-.06,0-8,4.1-.08,0-.07,0-7.36,4.3-.08,0-.08.05L102,91.65l-.08.07-.1.06-5.84,4.69-.11.09a.36.36,0,0,1-.09.08v0h0l-5,4.83h0a.52.52,0,0,0-.1.11l-.1.1h0l-4.14,5,0,0-.09.12a.83.83,0,0,0-.08.12l0,0-3.23,5.13,0,.06a.54.54,0,0,0-.07.13.83.83,0,0,0-.07.13l0,.06-2.27,5.24s0,.06,0,.08,0,.1,0,.15a.83.83,0,0,0,0,.15l0,.08-1.26,5.29h0v0s0,0,0,.08a.51.51,0,0,0,0,.13v0s0,.08,0,.12a.22.22,0,0,1,0,.08l-1.52,21.55v0s0,.1,0,.15,0,.07,0,.1L58.28,417.11,45.53,597.74l-1.6,9.77h0s0,.08,0,.12a.77.77,0,0,1,0,.15v0h0l0,.67h0l-.68,11.77h0a.75.75,0,0,0,0,.15.75.75,0,0,0,0,.15h0l.15,3.26-.09,1.57v.3l.58,11.93h0a.49.49,0,0,1,0,.12,1,1,0,0,1,0,.17h0l1.88,12a.19.19,0,0,0,0,.08,1.18,1.18,0,0,0,0,.2h0l3.21,12v0c0,.07,0,.15.08.22v0l4.56,11.9v0a2.14,2.14,0,0,0,.1.22v0l5.92,11.75h0v0l.12.22,7.29,11.52h0v0l0,0a1,1,0,0,0,.12.17L76,709.62l0,0a1.34,1.34,0,0,0,.11.14l10,10.85.07.07.09.1,11.38,10.38.09.08.08.07,12.65,9.84.14.09,0,0h0l13.87,9.19,0,0,.12.08,15.06,8.5.06,0,.11.06L156.13,767l.07,0,.1,0,17.14,6.88.08,0,.08,0,18,5.95.11,0,.05,0,18.79,5,.06,0,.1,0,19.42,4,.07,0h.08l19.92,2.9h.05l.1,0,20.26,1.81h.15l20.46.7h.15l20.5-.42H312l20.39-1.53.09,0h.06l20.12-2.62.07,0h.08l19.71-3.7.09,0h.07l19.15-4.72.05,0,.11,0,18.45-5.71.07,0,.09,0,17.65-6.65.09,0,.07,0,16.72-7.52.1,0,.06,0L461,752.91l.11-.07.05,0,14.57-9,0,0,.13-.08L489.29,734l0,0,.12-.09,12.12-10.26.08-.07.08-.08,10.82-10.74.09-.11.07-.06,9.48-11.15s.07-.1.11-.15l0,0,0,0,8.1-11.44a1.22,1.22,0,0,0,.12-.19l0,0v0h0l6.74-11.69.12-.23v0h0l5.39-11.86v0a2.44,2.44,0,0,0,.1-.24v0l4-12h0l.06-.23v0l2.7-12h0a1.55,1.55,0,0,0,0-.21s0,0,0-.07h0l.24-2.08.32-1.43a0,0,0,0,0,0,0s0,0,0-.05l.13-.68a.28.28,0,0,0,0-.09l0-.12L552,624.46a.22.22,0,0,1,0-.08.38.38,0,0,1,0-.1l0-.69v-.06a.13.13,0,0,1,0-.06l.11-11.78Z"/></svg>