<svg xmlns="http://www.w3.org/2000/svg" viewBox="0 0 841.9 595.3"><defs><style>.a{fill:#083d69;}.a,.b{fill-rule:evenodd;}.b{fill:#fff;}</style></defs><title>PM004D_C</title><path class="a" d="M0,538.63A56.63,56.63,0,0,0,56.66,595.3H785.23a56.64,56.64,0,0,0,56.67-56.67V56.74A56.7,56.7,0,0,0,785.23,0H56.66A56.69,56.69,0,0,0,0,56.74Z"/><path class="b" d="M637.16,322.55l-47.6-89.38,15-3.51,3.1,7.56h0l.58,1.41,2.32,5.65,2.51,6.11,2.51,6.12,2.35,5.72,1.09,2.67.64,1.55,1.79,4.37h0l1.35,3.31,1.28,3.11h0l1.19,2.9,1.79,4.35,1.53,3.74,1.18,2.86.72,1.77.24.57L642.09,321Zm-33.34-11.66,26.62,13.72L252.63,442l-7.19,1.69c-7.53,1.77-20,1.65-27.07-1.59l-3.78-1.73-2.14-1.93-.39-3.51c-.76-6.84,8.17-12,13.56-14l5.41-2L586.09,316l16.35-4.74Zm.11-85.56-17.36,4.06-8.14-3.48,32.7-7.35,1.6-.26a34.78,34.78,0,0,1,13.36.67l2.16.67,0,0-17,4Zm44.55,30.94-3.27.86,8.59-148.35ZM628.81,224l-.22,2.93-.39.13-.7.23c-3.57,1.2-7.46,1.8-11.12,2.7l-2.08.51-1.17-2.84Zm3.28,36.62.21-2.82,4,1.72Zm13.13,27.94-.93.72-.41.18a4.56,4.56,0,0,0-1-1.1l-.15-.1-.74-.54-.32-.49-.21-.78c-.92-3.3,1.48-7.5,4-9.41l.54-.43,1-.44.6-.07.88.23.19.05a4.2,4.2,0,0,0,1.1.14l.43,0,.09.38,0,1.91C650.38,282.3,647.92,286.43,645.22,288.53Zm-13.05-14.64-.32-.77.28-.47.85-1,5.5-1.47h0l.22-.06.14,0,1-.26a2.85,2.85,0,0,0,.37.23l-1,.8-.35.29-.31.33-1.69,1.94a14.4,14.4,0,0,0-2.41,4.06l-.35.92-.67-1.63Zm-11-26.78h0L618.65,241l-1-2.39,1.14-.28c1.44-.36,2.81-.66,4.19-1l2.07-.49.19-.05L624,253.35l0,.59-.29-.71ZM677.66,76l0,2.12c.06,7-3.84,16.13-12.28,14.21a1.75,1.75,0,0,1-.54-.12l-1.76-.39,1.17-32.3,3.09.56C674.2,61.31,677.61,69.76,677.66,76ZM651.1,54.65a3.63,3.63,0,0,0,0-.57l1.48.27-11.72,202.4-8.25-3.57,1.47-19.47.22-.14a6.63,6.63,0,0,0,2.82-4.86l.69-9.38v-.19c0-.06,0-.13,0-.19,0-2.93-2.2-5.27-4.72-6.53l-1.36-.64,14.1-114.69Zm-9.56,7.08h0l-.8-.08h-.3c-4.74-.26-8.49,3.39-10.25,7.47a3,3,0,0,0,.55,3.44A5,5,0,0,0,635.28,74c2.34-.54,2-3.11,3.84-4.25a2.22,2.22,0,0,1,.91-.2l.13,0,.41.08-2,16.59-.87-.2c-3.87-.83-6.27-4.13-7.71-7.55l-.84-2.07,0-.16a34,34,0,0,1-.25-12.83l0-.07,1.11-3c1.5-4,4.79-6.29,9-5.51l3.3.61ZM598.65,303.38l-13.28,3.85-35.71-19,.23-5.48c.09-2.76.63-4.14-2.12-5.58l-21.9-11.29,44.14-38,1.19-.26,13.61,5.81L631,320l-25.42-13.1ZM198,381.25l-.93-8.09,348.43-90.68L545.3,288Zm-34.3-1.08-.86-.76-.63-1.76-.62-4.71,2,.85c6.41,2.65,18.58,2.41,25.35,1.1l3.83-.79.93,8.17-4.23.87C183,384.47,169,384.83,163.73,380.17Zm359.73-110.7,18.36,9.47L194.28,369.38l-5.76,1.14c-7.72,1.53-17.19,1.71-24.56-1.34l-2.35-1-.65-.56-.35-2.7c-.57-4.31,8.42-8.51,11.83-9.59l5.72-1.76L519,269.92C520.59,269.5,522,268.72,523.46,269.47ZM214.78,452.19l-1.13-2.78-.55-5,4.46,2c7.31,3.35,22.05,3,29.84,1.19l3.84-.92.9,9.82-4.88,1.18c-9.58,2.31-24.39,1.95-32-5.06A2.56,2.56,0,0,1,214.78,452.19Zm41.57,3.18-.88-9.69L636.74,327.22l5.66-1.77-.55,6.42ZM688.68,85.77c2.34-8.07.89-17.79-2.86-25-2.41-4.58-6.08-9.06-11-10.83l-3.55-1.27-.07,0-.12,0a.27.27,0,0,0-.12,0l-.07,0-31.27-5.4h-.12l-.1,0h0l-.47,0c-10.43-.82-16,5.49-19.63,13.72a22.84,22.84,0,0,0-2,6.74c-1,7.43-.29,14.86,3.07,21.51,3.12,6.17,8.09,10.61,14.86,12.23l1.85.43-13.78,112-1.78-.19a44.22,44.22,0,0,0-11.49.44l-.46.07-.13,0-.13,0-41.66,9.37a6.54,6.54,0,0,0-3.11,1.6l-46.68,40.22L176,345.27l-.12,0-.12,0-5.83,1.8a43.85,43.85,0,0,0-12.15,6.35,15,15,0,0,0-5.63,9.53c-.57,4.83.86,10.84,1.5,15.5A9.14,9.14,0,0,0,154,380a13,13,0,0,0,5.21,7.61c7.7,5.74,23,5.83,31.83,4.05l3.31-.68c3.06-.66,6.06-1.44,9.11-2.28l343.36-92.22,26.64,14.19-345,100-.14.05-.14,0-6.78,2.49a41.69,41.69,0,0,0-6.47,3.26,32.33,32.33,0,0,0-4.38,3.46l-1.69,1.48c-4.79,4.17-5.87,10.34-5.21,16.34l.79,7c.66,6,.9,10.44,5.63,14.82l1,1a15.55,15.55,0,0,0,1.85,1.5,22.47,22.47,0,0,0,5.57,2.71c.63.22,1.29.43,1.95.62,11.57,3.29,22.18,2.34,33.68-.42l1.54-.4.06,0,.24-.07L645.43,339.81c4.08-1.32,4.68-2.51,5-6.65l.89-10a9.1,9.1,0,0,0-.87-4.61l-8.12-19.8,1.28-.16a14.69,14.69,0,0,0,8.86-4.86l1.93-2.22,0,0h0a20.34,20.34,0,0,0,4-8.81l.38-2c.84-4.37-.42-10.19-4.14-13l-1.29-1,0,0-.19-.13a17.28,17.28,0,0,0,2.16-1.25c1.25-1.2,1.37-2.76,1.49-4.44l.29-3.07s0-.06,0-.1,0-.07,0-.11l5.54-153.78.74.17c6.47,1.51,12.52-.46,17.5-4.72C684.79,95.83,687.26,90.64,688.68,85.77Z"/><path class="b" d="M165.72,551h45.5V539.66H179.33V485.3H165.72Zm52.78,0H232v-25l22.18-40.68H240.1l-14.48,29-13.75-29H197.26L218.57,526Zm40.75,0h13.53V523h28.73V512.23H272.86V496.32h33.69v-11h-47.3Zm72.28,0h13.54V496.32h19.87v-11H311.59v11h19.94Zm58.33,0h13.53V496.32h19.8v-11H369.91v11h19.95Zm51.91-36.5-.08-18.21h15.13c3.6,0,4.6.5,6,1.36A9.69,9.69,0,0,1,467,505.6c0,4.9-3.89,9.15-10.73,9.08ZM428.16,551h13.61l.07-26,11.81.08c4.75,0,8.06,2,10,5.4a16.57,16.57,0,0,1,1.36,4.17c1.3,5.4-.07,11.16,2.52,16.34H481.3a19,19,0,0,1-2.09-6.91l-1.08-11.52c-.44-4.82-1.59-6.84-3.31-8.71a13.37,13.37,0,0,0-8.72-4c8.57-.94,14.33-7.34,14.33-16.13,0-10.37-8.21-19.15-22.1-18.43h-30.1Zm60.77-65.73-.07,46.08c0,6.77,1.72,10.65,4.89,14.18,3.82,4.18,10.3,7.56,21.82,7.56,17.71,0,26.35-8.85,26.35-22.1l-.07-45.72H528.24V529c0,5.4-.79,7.13-2.09,9-1.87,2.74-5.4,4.83-10.65,4.83-8.5,0-13.11-4.76-13.11-12.75l.07-44.78Zm107.71,43.85a17.52,17.52,0,0,1-2.74,7c-2.37,3.1-6.62,5.4-12,5.4-9.43,0-18.5-7.34-18.5-24,0-16.48,8.78-23.54,18.07-23.54,8,0,13.17,4.25,14.76,11.66l12.88-.64c-1-6.48-3.38-10.88-7.05-14.48-4.39-4.25-11-7.34-20.74-7.34-25.12,0-31.75,21.38-31.75,34.41,0,22.54,14.54,35.64,31.83,35.64,14.18,0,27.57-8.71,28.72-23.75ZM618,551h13.54v-23.9l6.84-7.06,21.17,31h16.56L647.9,511.29l24.84-26-16.84.07-24.41,26.14-.07-26.14L618,485.3Z"/></svg>