<svg xmlns="http://www.w3.org/2000/svg" viewBox="0 0 595.3 841.9"><defs><style>.a{fill:#083d69;}.a,.b{fill-rule:evenodd;}.b{fill:#fff;}</style></defs><title>PM001B_C</title><path class="a" d="M0,785.23A56.63,56.63,0,0,0,56.66,841.9h481.9a56.7,56.7,0,0,0,56.74-56.67V56.66A56.69,56.69,0,0,0,538.56,0H56.66A56.62,56.62,0,0,0,0,56.66Z"/><path class="b" d="M508.37,139.57l1.24,2.44-.28,2.87-4.46,2.74-2.42,1.22,2.9-6.22.43-4.77Zm-1.54,21.68-5,3.15L335.47,251l-.22.12-10.06,4.44-12.81,2.54-14.2.32-13.41-2-11.09-4L123.18,188.2h0l-7.62-3.25h0l-3.1-1.32-.06,0-17.19-7.34L88.91,173,87,170.19l-.9-8.51,4,2,.06,0,.09.05,180.35,74.61,12.15,4.26,14.88,2.1,15.58-.34,14.36-2.76,11.12-4.75,168.43-85,.13-.08.05,0,1.41-.87L508,158.5Zm-32,93.18-1.43,3.42-5.07,3.62-2.17,1.28h0L463,264.61l-9.75,5.76-100.9,59.56-17.16,10.13-1.25.73-9.27,4.64-8.82,2-2.92.65-13,.34-4.39-.73h0l-7.9-1.3-10.24-4.19-2-1-18.49-9-12.6-6.09-.05,0-62-30L159.11,285,148,279.64l-10.38-5h0l-4.1-2-2.73-1.32-6.23-3.62-2.13-3.37-6.33-68.56,3.24,1.38L270,261.48l12.4,4.49,15.19,2.21,15.86-.36,14.7-2.91,11.33-5L480,186.73l.63-.32ZM480.37,495l1.69,14.66-5.87,22.72L463.87,555.8l-15.38,17.75-13,6.84-8.8-3.81-.21-.12h0l-.35-.21-2.3-12.66,6-24.72,13.57-25.72,16.9-18.66,11.55-5,.53.26Zm-14.18-8.34-8.35,3.65h0l-.08,0a2.07,2.07,0,0,0-.65.47l-.07.07h0l-3.62,4,1.51-5.51.86-3.12L461,484ZM343.66,662.69l-13.34,7.84L314.26,675l-17.33.65-16.66-3.28-14.43-6.88-4-2.81-1.11-25.1L247.4,338.49l5.28,2.56L271.17,350l2.15,1a1.59,1.59,0,0,0,.27.12h0l10.88,4.45h0a1.34,1.34,0,0,0,.26.09l.22.07.2.05.28.07h0l8.45,1.39h0l4.85.81.18,0,.18,0,.44,0h.12l14-.36h0l.46,0h.07l.39-.07h.06l3.33-.75,9.4-2.11a3.81,3.81,0,0,0,.45-.13l.07,0a2.5,2.5,0,0,0,.38-.15l.11,0,.11-.06,9.95-5,.3-.16,1.39-.82h0l17.16-10.13h0l100.9-59.56,4.83-2.85L446.47,482.35h0v.07l-.1,1.33-.82,3-2.6,9.44-7.23,10h0l-.1.16a6.08,6.08,0,0,0-.52,1l-.53,1.22h0l-.87,2-12.68,24h0l-.76,1.44,0,.08-.12.26-.09.22c0,.07-.05.14-.08.22a2.68,2.68,0,0,0-.07.27.32.32,0,0,0,0,.09l-5.72,23.84-1.06,4.4,0,.14c0,.09,0,.18,0,.27a2.51,2.51,0,0,0,0,.27s0,.09,0,.14l-.67,10.18-.67,10.4-1.26,19.38ZM177.91,304.91l14.72,287.76-.11.07-.06,0L179,602.31,159.85,296.18Zm59.48,28.76,13.09,294.65L198,592.72l-.07,0a2.26,2.26,0,0,0-.26-.16,1,1,0,0,0-.17-.1h0L182.91,307.33Zm-93.6-45.26,11,5.34L174.1,601.54l-7.7-8-3.65-9.47L137,285.13ZM98.54,127.85l4.22-5.08,8.43-5.52L135.71,103l1.63-.56,219.73,78.45-21.48,15.63L325,203.15,311.6,207.8l-14.71,2L283,209l-11.41-3.62L105.12,139.48l-7-3.51-.35-3.54ZM271.6,72.67l8.15-1.2,3.34-.08-7.29,3.5a4.87,4.87,0,0,0,2.11,9.26,4.81,4.81,0,0,0,2.11-.48l24.81-11.94,28.39-13.66-5.15,9.37-.87.45-3.7-1.11a4.87,4.87,0,0,0-2.79,9.33l5.57,1.66,2.35.71.09,0h0l1.67.5,10.36,3.09h0l.08,0h0l37.1,11.07h0l.07,0,1.77.52,10.1,3h0l.07,0,42.26,12.61h0l.06,0h0l1.88.56h0L444,112.9h0l.06,0,14.06,4.2-16.64,9.73a4.87,4.87,0,0,0,4.91,8.41l26.33-15.4,19.14-11.2h0l1.66-1h0l3.58-2.1h0l4.56-2.67,4.07-2.38h0l.06,0,3.68-2.15.57-.33.06,1.92-.88,3.35-1.47,2.58L506,107.32l-.27.17h0l-15.15,9.35-2.78-.92a4.87,4.87,0,0,0-3.07,9.24l5,1.65.9.3,5.14,2.91h0l0,0,.85,1.29,0,.57-4.27,1.61-97.54,28.74L181.14,89.43Zm184,27.09L477.16,106l-7.53,4.41-17-5.09Zm-10.73-5.37a4.83,4.83,0,0,0,1.39,2.16l-3.2,5.91-2.2-.66ZM401.31,84.07l32.92,9.51L431.32,99l-32.79-9.79Zm-10.88-5.52A4.86,4.86,0,0,0,392,80.91L389,86.33l-2.42-.72ZM352,69.82l27.76,8L377,82.76,349.4,74.51Zm-11-5.65a4.89,4.89,0,0,0,1.61,2.52l-2.73,5-2.58-.77Zm45.45,1.39h0l-1.76,3.23h0l-.17.29L351,59.41h0l-.08,0h0L347,58.26a4.83,4.83,0,0,0-2.82,0l2.2-4,.47-.53a4.7,4.7,0,0,0,2,1.11l1.78.51,35.85,10ZM441,81.07h0l-1.81,3.33h0l-.22.4L400.34,73.66h-.08l-3.8-1.09a4.88,4.88,0,0,0-2.76,0L395,70.22h0l1.07-2,.15-.17h0l.35-.4a4.89,4.89,0,0,0,2,1.1l1.75.49,40.92,11.47ZM492.2,97.18l-3.44,2L454.6,89.33h-.07l-3.67-1.06a4.91,4.91,0,0,0-2.66,0l1.37-2.52h0l1.12-2,.18-.22h0l.34-.4a4.9,4.9,0,0,0,1.94,1.07l1.69.48h0l39.82,11.15ZM168.09,91.85l3.28-.61,216.82,74L362.1,177.47,144.72,99.86Zm-65,52,.06,0,.14.06,166.65,65.94.09,0,.07,0,11.78,3.74h.05l.09,0,.16,0h.05l.23,0h0l14.42.89H297l.3,0h0l15.18-2.1h0l.19,0h.05l.2-.07h0l13.9-4.82a.94.94,0,0,0,.15-.06l.06,0,.28-.15h0l10.86-6.88,0,0,.09-.06,25.08-18.25,32.07-15.09,98.19-28.93.06,0,.11,0,2.15-.82-.24,2.74-1.21,2.6-5.14,3.1L334.49,223l-10.07,4.25-12.84,2.43-14.22.32-13.42-1.88-11.08-3.84L108,156.77l-6.47-3.19-1.92-2.68-.91-9.21ZM92.23,159.28l-6.7-3.35-.27-2.58.73-2.68,3.48-2.86.65,6.64,4,5.63Zm422.41-46.39,0,0,.2-.17a7.74,7.74,0,0,0,.82-1l.13-.2,2.25-3.94h0a1.74,1.74,0,0,0,.1-.19,4.54,4.54,0,0,0,.36-.82.45.45,0,0,1,0-.18l1.2-4.58v-.11a9.52,9.52,0,0,0,.15-1.18.22.22,0,0,1,0-.08v-.18l-.13-4v0h0a5.27,5.27,0,0,0-.66-2.31h0l-1.44-2.51a.57.57,0,0,1-.08-.13.1.1,0,0,1,0,0,5,5,0,0,0-2.44-2l-.2-.07-.15,0-2-.57-.15,0-.27-.06-.27,0-.15,0L510,88.2l-.58-.16-.08,0h0a5,5,0,0,0-2.83.12h0l-.07,0-1.21.45L459.61,75.83l-.09-.1-.11-.13a3.7,3.7,0,0,0-.36-.33h0a3.47,3.47,0,0,0-.38-.29h0l-2.12-1.45h0l-.21-.13a3.6,3.6,0,0,0-1-.46l-.13,0h0l-1.9-.53h0a5.33,5.33,0,0,0-1-.17h-.08c-.4,0-.76,0-1.11.07a4,4,0,0,0-.7.18h0l-1.33.45L405,60.52l-.13-.14,0-.06a3.51,3.51,0,0,0-.76-.61.29.29,0,0,0-.07-.08l0,0h0l-2.16-1.4a4.32,4.32,0,0,0-.67-.36,3.7,3.7,0,0,0-.7-.26l-1.77-.5-.13,0h-.06a4.73,4.73,0,0,0-2.42.05l-.14,0-1.42.44-39.13-11h0l-.15-.15c-.11-.11-.26-.21-.36-.31a.11.11,0,0,0,0-.05c-.13-.1-.24-.21-.39-.31a.67.67,0,0,1-.12-.06l-1.46-.93a.6.6,0,0,1-.08-.08l-.14-.15h0a5.53,5.53,0,0,0-.83-.69,3.53,3.53,0,0,0-1.25-.56.19.19,0,0,0-.11-.07l-2-.56L344,42.12,302,62.31l-.18,0L290,61.5,279,61.77,270,63.09,166,82.37l-.35.07-34,11.64L106.2,108.93l-10,6.52-6.81,8.2L88,132.09l.53,5.4-2.81,1.17,0,0h0l-.23.1a4.65,4.65,0,0,0-.88.55l-.07.06,0,0h0l0,0-5.72,4.71,0,0-.23.21,0,0a4.93,4.93,0,0,0-1.24,2c0,.07-.05.14-.07.21s0,0,0,0l-1.39,5.06s0,.07,0,.11v0a4.53,4.53,0,0,0-.11,1.47.18.18,0,0,0,0,.06.45.45,0,0,0,0,.11l2,18.89v.06s0,.08,0,.12,0,.06,0,.09a4.68,4.68,0,0,0,.66,1.84l.09.13v0l3.26,4.85h0l.06.09h0A5,5,0,0,0,83.16,181l.21.12,7.56,3.9.31.15h0l14.7,6.28,6.93,75a.51.51,0,0,0,0,.13v0a5.85,5.85,0,0,0,.46,1.58c.09.15.17.3.26.44l3.33,5.29h0l0,.05h0a4.58,4.58,0,0,0,1.48,1.49l.16.1,0,0,7.43,4.31.32.17h0l.41.19,26.28,305.33a0,0,0,0,0,0,0v.07s0,.06,0,.09a6.22,6.22,0,0,0,.21.93,1.65,1.65,0,0,0,.11.36l4.23,11,.06.14.09.2a8.12,8.12,0,0,0,.71,1.14,1.62,1.62,0,0,1,.19.17h0l9.13,9.46,0,0,0,0,.08.07a2.16,2.16,0,0,0,.27.25l.24.19.13.1,0,0h0l5.6,3.9h0l.07,0a4.92,4.92,0,0,0,5.54-.13l15.45-10.92L251,640.48,252.26,668l8.66,6,16.26,7.73,19,3.74,19.61-.73,18.39-5.12,15.16-8.91,68.87-58.47.08-.07.2-.18.12-.13a4.61,4.61,0,0,0,1.28-2.71v0a1.94,1.94,0,0,0,0-.24s0,0,0,0l1.26-19.35,3.68-3.07,9,3.88h0l.27.11a5,5,0,0,0,3.38,0l.29-.12.09,0,.16-.08,15.87-8.36.08,0,.13-.07a3.71,3.71,0,0,0,1-.77l.16-.16.07-.07,16.35-18.86h0l.11-.14a7.54,7.54,0,0,0,.46-.66.14.14,0,0,1,0-.06l0-.06,12.84-24.47a.25.25,0,0,1,0-.07l.12-.26.15-.46a1.38,1.38,0,0,0,.08-.2s0,0,0,0l6.23-24.15,0-.11a1.29,1.29,0,0,1,0-.19,10.25,10.25,0,0,0,.1-1.18.65.65,0,0,1,0-.18.41.41,0,0,0,0-.11l-2.05-17.82h0a.43.43,0,0,1,0-.11l0-.12a5,5,0,0,0-1.95-3.18l-.19-.11h0l0,0-10.17-6.61h0l-.22-.13-.22-.12h0l-13.55-6.89-.15-.06h0a4.82,4.82,0,0,0-3.69-.16.45.45,0,0,0-.11,0l-.14,0-2.54,1.07,16.53-205.34.18-.11h0a2.64,2.64,0,0,0,.35-.23l6.38-4.55,0,0c.13-.09.25-.19.37-.29a5.6,5.6,0,0,0,.67-.7,3.61,3.61,0,0,0,.56-1l0-.1,2.26-5.4v0l.12-.33v0a5.5,5.5,0,0,0,.21-.87,1.08,1.08,0,0,1,0-.18h0l6.41-74.93,15.82-8.24,7.88-5,3-6.9,2-20.83-3.7-7.25-8.18-5.43-2-.71L512,115Z"/><path class="b" d="M55.56,748.58V728H71.88c2.73,0,6.93,3.53,6.93,10.3,0,5.76-3.29,10.44-7.91,10.44Zm0,36.94V761.33l15.2-.08c5.67,0,9.24,5.48,9.24,11.81,0,7-3.92,12.6-9.17,12.6ZM42.68,799.41H74.54c5.81,0,8.61-1.36,11.69-4.32,4.41-4.24,7-10.65,7-19.22,0-11.09-4.62-19.22-12.25-22,6.3-2.45,10-9.29,10-18.07,0-8.07-2.59-14.19-7.07-18.07-2.52-2.16-4.9-3.39-10.43-3.39H42.68ZM114,752.25V728.64l14.21.07c3.36,0,4.34.58,5.67,1.73,2.45,2.16,4,6.26,4,10.22,0,6.34-3.64,11.81-10.15,11.74Zm-12.81,47.16H114l.07-33.62,11.2.07c4.48,0,7.56,2.67,9.45,7.06a32.62,32.62,0,0,1,1.26,5.33c1.26,7-.07,14.47,2.38,21.16h13a31.12,31.12,0,0,1-2-8.92l-1.05-14.91c-.42-6.19-1.48-8.85-3.16-11.3a11.56,11.56,0,0,0-8.19-5.19c8.05-1.22,13.52-9.5,13.52-20.88,0-13.39-7.71-24.69-20.8-23.83H101.21Zm69.52-92.3h12V690.55h-12Zm15.68,0h12l-.07-16.63-12,.07Zm-10.15,61.06,8.4-36.8,8,36.8ZM156,799.41h12.95l4.2-17.92,22.4-.08,4,18h13.09l-21.14-85-13.79-.07Zm61.32,0h12.4V742.1l25.41,57.31h13.09V714.53H255.65V772l-25.9-57.6H217.21Zm60.28,0H290V742.1l25.35,57.31h13.09V714.53H315.86V772L290,714.38H277.49Zm73-50.83V728h16.24c2.8,0,7,3.53,7,10.3,0,5.76-3.29,10.44-7.91,10.44Zm0,36.94V761.33l15.19-.08c5.67,0,9.24,5.48,9.24,11.81,0,7-3.92,12.6-9.17,12.6ZM337.7,799.41h31.85c5.74,0,8.61-1.36,11.69-4.32,4.41-4.24,7-10.65,7-19.22,0-11.09-4.69-19.22-12.25-22,6.3-2.45,10-9.29,10-18.07,0-8.07-2.6-14.19-7.08-18.07-2.52-2.16-5-3.39-10.43-3.39H337.7Zm70.64-31.32,8.4-36.79,8.05,36.79ZM388,799.41h13l4.13-17.92h22.47l4,17.92h13.09l-21.21-85H409.81Zm74.21-47.16V728.64l14.22.07c3.36,0,4.34.58,5.67,1.73,2.52,2.16,4,6.26,4,10.22,0,6.34-3.64,11.81-10.08,11.74Zm-12.81,47.16h12.81l.07-33.62,11.21.07c4.48,0,7.56,2.67,9.45,7.06a26.72,26.72,0,0,1,1.26,5.33c1.26,7-.07,14.47,2.38,21.16h12.95a31.12,31.12,0,0,1-2-8.92l-1.05-14.91c-.35-6.19-1.47-8.85-3.08-11.3a11.84,11.84,0,0,0-8.19-5.19c8-1.22,13.51-9.5,13.51-20.88,0-13.39-7.77-24.69-20.86-23.83H449.5Zm71.76,0h12.74V728.64h18.76V714.38H502.36v14.26h18.83Z"/></svg>