<svg xmlns="http://www.w3.org/2000/svg" viewBox="0 0 841.9 595.3"><defs><style>.a{fill:#083d69;}.a,.b{fill-rule:evenodd;}.b{fill:#fff;}</style></defs><title>PM006A_C</title><path class="a" d="M0,538.63A56.63,56.63,0,0,0,56.66,595.3H785.23a56.64,56.64,0,0,0,56.67-56.67V56.74A56.7,56.7,0,0,0,785.23,0H56.66A56.69,56.69,0,0,0,0,56.74Z"/><path class="b" d="M177.8,469.72l.22,2.86-67.24-81.74Zm362-175.14L666.24,342l.07.12a2.26,2.26,0,0,0,.16.26.42.42,0,0,0,.09.14,2.8,2.8,0,0,0,.24.33l0,.05a3.89,3.89,0,0,0,.34.36l.05.06.33.29,0,0,.91.73.07.06.2.15.24.16.16.1.34.18.07,0,.08,0h0l1.36.64.14.06.08,0a3.57,3.57,0,0,0,.46.16s0,0,0,0l1.89.58h0l.46.11,0,0,2.22.44.25,0,.13,0L181.34,465.69,96.06,365.32l432.43-75.75Zm126.09,36L544.51,285l3.81-112.31.08.09c.06.08.13.15.19.22l.16.17.21.19a1.56,1.56,0,0,0,.2.16.9.9,0,0,0,.19.15l.25.17.18.12.3.16.13.06.07,0,.12,0a2.61,2.61,0,0,0,.42.16l0,0,.51.14L675.52,201ZM597.3,86.47,602,79l5.37-5.37,5.35-3.11,4.19-.73,107.54,7.5,2.81,1,.22.29.35,3.58-2.25,7.59-47.45,101-118-25.1Zm-322,445.28,1.27-1.33h0c.11-.12.22-.25.32-.38l.07-.09.21-.32a.47.47,0,0,0,.06-.09h0l1.59-2.61h0l.06-.09,0-.06c.07-.11.13-.23.19-.34a1,1,0,0,1,.07-.15l.12-.29.07-.18v0l1-2.88,0-.11.09-.3a1.89,1.89,0,0,1,.05-.23c0-.08,0-.17,0-.25a2.89,2.89,0,0,0,0-.29s0-.06,0-.08l0-.26.19-2.25h0l0-.37s0-.09,0-.13,0-.23,0-.34,0-.17,0-.25,0-.18,0-.26v-.07l1.46-2.4,0,0,.09-.16,0-.08.06-.14a.36.36,0,0,0,0-.09v0l2.1-6.18v0c0-.06,0-.11.05-.16a.43.43,0,0,0,0-.11l0-.14a.69.69,0,0,1,0-.13V508l.52-6.16v-.07a1,1,0,0,0,0-.17v-.12a.57.57,0,0,1,0-.13,1,1,0,0,1,0-.16.17.17,0,0,1,0-.07l-1.09-5.75a2.68,2.68,0,0,0-.07-.27,2.28,2.28,0,0,0-.21-.51l-2.63-4.94h0l-.1-.17,0-.07-.09-.11-.08-.11-.07-.07-.12-.13h0l-2.49-2.36h0l0,0-1.5-1.43h0l-.13-.11-.08-.06-.1-.08-.12-.08-.07,0-.17-.1h0l-5.15-2.41-.27-.12-.16,0-.09,0-.29,0-5.93-.84h-.48l-.17,0h-.06L257,482h0l-.15,0-.12,0-.12,0-.15.05h0l-.13.05-3.5-4.5-.22-3.75,4.53-1.72.18,0,9.64-1.17,8.77,1.33,5.7,5.35,5.84,5.66,3.46,6.62,1.44,7.86-.76,8.63-3,8.84-5.11,8.38L276.37,531ZM242,541.12l-7.19-3-6-5.18-6.61-8-1.34-6.14.67-9.71,2.91-8.71,6.88,8.58.48.6-.36,4.88h0v.13a1,1,0,0,0,0,.17s0,.09,0,.13a.57.57,0,0,0,0,.13,1,1,0,0,0,0,.17.17.17,0,0,0,0,.07v0h0l1.22,5.79h0l0,.12,0,.13a.36.36,0,0,1,0,.09l.06.15,0,.08.08.16a.05.05,0,0,1,0,0l2.07,3.62h0l.76,1.32v0a2.75,2.75,0,0,0,.19.28l0,0,.17.19.09.09.06,0,4.21,3.73,0,0,.11.08.09.08.1.06.13.08.08,0,.16.08,0,0,5.27,2.24h0l.24.09.12,0,.14,0a.78.78,0,0,0,.22,0h.07l5.36.57.54.49,0,0a2.11,2.11,0,0,0,.23.19l.18.14.19.13.26.16.16.09.32.15.07,0,.67.28h0l1.72.74a4.3,4.3,0,0,0,.54.2l.23.07.28.07.43.07h.15l2.7.29h.17l.36,0h.08l.41,0,.22,0,.16,0,2.92-.46h.08l.3-.07.23,0,.24-.08.28-.1.07,0,1.8-.75-.62.44-8.9,3.73-8.95,1.47Zm-28.12-28.27L212.12,505l.58-8.74,2.47-7.43,5.56,6.92-.58.93s0,0,0,0a.54.54,0,0,0-.07.13L220,497a1.17,1.17,0,0,0,0,.11.88.88,0,0,0-.05.15s0,0,0,0l-3.51,10.5a.43.43,0,0,0,0,.05.83.83,0,0,0,0,.15.27.27,0,0,0,0,.12l0,.12c0,.06,0,.11,0,.16a.43.43,0,0,1,0,.05l-.53,7.65Zm55.47,3.43.65,1.19.22,1.13-.13,1.49-.58,1.72-1.05,1.72L267,525.07l-1.71,1.19-1.75.72-1.6.26-1.28-.14-.9-.39-1.28-1.14a5.36,5.36,0,0,0-1.64-1,5.39,5.39,0,0,0-1-2L239.6,502.33l-10-12.49-6.82-8.51,0-.6,3.39-.84,3.26-.25h0a1.75,1.75,0,0,0,.32,0l.21,0h0l9.43-1.8.08,0,.35-.09.16,0,.05,0,2.06-.67.18,3h0c0,.13,0,.26,0,.38s0,.09,0,.14,0,.21.06.32a1.16,1.16,0,0,1,0,.18c0,.08.05.16.07.23l.09.27c0,.06,0,.11.07.17a2.71,2.71,0,0,0,.13.3c0,.06.06.1.08.15a3.07,3.07,0,0,0,.17.31l.1.14a3,3,0,0,0,.2.29l0,.05,5.24,6.74Zm-24.76,9.22-3.24-1.38-1.85-1.64-1.65-2.89-.72-3.39Zm19.16-39.05,5.21.73,4.41,2.07.88.83,2.13,4,.95,5-.45,5.46-1,2.88L260,486.94ZM631.8,429.07l-7.09-3.6-.86-1.26L622,418.08l-.36-7.3,1.29-7.91,1.64-4.52,1.54,3.35h0l.82,1.77-.67,4a1.49,1.49,0,0,0,0,.21s0,0,0,.07v.27l.22,4.83V413s0,.09,0,.14,0,.09,0,.13l0,.12,0,.15s0,0,0,.05l1.25,4.18,0,.09s0,.1.05.14l0,.09.07.15,0,.06a1,1,0,0,0,.1.17l0,0,2.2,3.27,0,0,.15.19a.18.18,0,0,1,0,.07l.18.17,0,.05.22.17h0l1,.7h0l0,0,1.9,1.35h0l0,0,.14.09.09.05.17.09.06,0,.18.07,0,0,.27.08,3.53.84h0l.23,0h.36l.29,0h0l1.3-.15,2,.94h0l1.38.66,0,0,.1,0,.41.17h0l.21.06-4.1,1.84-4.62.6Zm31.36-38.84.19,6.57-1.24,7.14-.58,1.59-.38-.87.77-4.48,0-.28a1.31,1.31,0,0,0,0-.28l-.15-4.75s0,0,0,0,0-.1,0-.16a.49.49,0,0,1,0-.12l0-.12,0-.15v0l-1.16-4.15v0h0v0a1.18,1.18,0,0,0-.07-.2l-.05-.12-.06-.12a1,1,0,0,0-.1-.18s0,0,0,0h0l-2.09-3.3,0,0a.64.64,0,0,0-.1-.13.31.31,0,0,0-.07-.09l-.09-.11-.09-.1-.09-.08-.12-.1,0,0-2.88-2.19h0l0,0a.1.1,0,0,1-.05,0l-.16-.1-.09-.06-.14-.07-.13-.06-.11-.05-.17-.05-.06,0h0l-2.43-.67h-.07l-1.69-3.81.17-2.64,6.17,2.59,3.42,2.67,2.49,4Zm-28.39-11.66,2.23-.14h0c.12,0,.23,0,.35,0l.18,0h0l1.16-.21,0,.52v.08s0,.07,0,.11,0,.26,0,.39,0,.13,0,.19,0,.22,0,.33a1.87,1.87,0,0,0,0,.25,1.19,1.19,0,0,0,.05.26c0,.1,0,.21.08.31a1.27,1.27,0,0,0,.06.18,2.35,2.35,0,0,0,.14.37.49.49,0,0,0,0,.11l0,.05v0l2.37,5.36h0l8.25,18.65,1.91,4.32.14.49.13.46,0,1-.23,1.32-.52,1.41-.75,1.3-.88,1-.81.63-.52.23h-.05l-.15,0-.87-.42h0L645.05,416,630,382.86l.19-3.14ZM615.3,420.69l-3.82-2.64-2.64-3.78L607.16,409l-.36-6.55,1.13-7.2,2.6-7.17h0l0-.06,1.44-2.45.89-1.52,4.6-1.14,0,.1c0,.14.11.28.17.42s0,0,0,.06v.05l1.48,3.22,2.11,4.59.19.44-.45.78a.25.25,0,0,0,0,.07l-.07.14-.06.14,0,.08-3,8.31h0v0l0,.08c0,.05,0,.1,0,.15a1,1,0,0,0,0,.17.24.24,0,0,1,0,.08v0h0l-1.36,8.38a1.49,1.49,0,0,0,0,.21v.17a1.08,1.08,0,0,0,0,.18h0l.39,7.91v.06s0,.09,0,.14a.59.59,0,0,0,0,.13.36.36,0,0,0,0,.11.75.75,0,0,0,0,.16.07.07,0,0,0,0,.05l.78,2.52Zm32.55-56.3h0l-.63.16h0l-.88.21h0l-4.71,1.17-6.2,1.54h0l-2.74.68-6.17,1.53h0l-4.93,1.22h0l-11.29,2.79h0l-2.11.53h0l-3.25.8h0l-3.08.77h-.05L272,457.58l-3.18.78h0l-6.42,1.6h0l-9.27,2.3-5.48,1.36-2.1.52-8.44,2.09-9.41,2.33-3.66.91-5.53,1.37-2.83.7h0l-1.09.27h0l-4,1-.27.07h0l-26.39,6.54-.69-8.7,518-123.83-.38,4.38ZM758.08,83.44s0-.11,0-.16a2.45,2.45,0,0,0,0-.27c0-.1,0-.19,0-.28a.86.86,0,0,0,0-.16,2.55,2.55,0,0,0,0-.39v0l-1.37-12.67s0,0,0-.08,0-.19,0-.28a2.56,2.56,0,0,1,0-.27.29.29,0,0,1,0-.09l-.42-1.65h0a4.69,4.69,0,0,0-.34-1l0-.06v0a5.75,5.75,0,0,0-.55-.89h0l-1-1.36h0L747.37,55h0l-.05-.07-.09-.1-.23-.28-.16-.15-.21-.21a2.11,2.11,0,0,1-.23-.19l-.17-.13-.31-.2-.11-.07-.07,0h0l-1.44-.85,0,0-.29-.15-.2-.1-.23-.09-.29-.11,0,0-10.44-3.31a.35.35,0,0,0-.11,0l-.27-.08-.28-.06-.12,0-1.68-.26h0a2.48,2.48,0,0,0-.27,0l-.28,0h0l-112.9-5.63h-.65l-.21,0-.35.05h-.06l-9.79,1.88-.09,0h-.08l-1.22.28h0l-.38.11-.15,0-.25.1-.26.1-.13.07a3.9,3.9,0,0,0-.35.19h0l-10.44,6.24h0l-.28.19-.18.12-.17.14-.25.21,0,0-.52.49-.07.07-.07.07-9,9.1,0,0-.21.24-.15.17-.14.19-.18.26s0,0,0,0l-6.57,10.59h0c0,.07-.09.15-.14.23s-.09.16-.13.25h0l-.18.36a0,0,0,0,1,0,0,0,0,0,0,1,0,0l-41.8,88.93-.13.28L532,164l-.11.32-.06.21a2.29,2.29,0,0,0-.07.28c0,.08,0,.16,0,.25s0,.17,0,.27,0,.16,0,.24,0,.13,0,.2l-3.55,113.05-440,77.07-.08,0-.28.07-.24.06-.27.09a1.57,1.57,0,0,0-.23.09l-.25.11-.23.11-.22.13-.22.14-.2.14-.22.17-.18.15-.2.19-.16.17-.18.2-.15.2a1.59,1.59,0,0,0-.15.21,1.53,1.53,0,0,0-.14.21,1.59,1.59,0,0,0-.13.22l-.12.23c0,.08-.07.15-.1.23a1.86,1.86,0,0,0-.1.25,2,2,0,0,0-.08.22l-.08.26-.06.25a1.87,1.87,0,0,0,0,.25,2.51,2.51,0,0,0,0,.27,1.94,1.94,0,0,0,0,.24c0,.1,0,.19,0,.29s0,.16,0,.24,0,.2,0,.29a.28.28,0,0,1,0,.09L85.16,375h0v0l0,.18a2.87,2.87,0,0,0,0,.31,1.42,1.42,0,0,0,.05.22,2.68,2.68,0,0,0,.07.27c0,.13.08.26.13.38a.36.36,0,0,0,0,.09,4,4,0,0,0,.21.47l.05.08.21.36.09.11a2.32,2.32,0,0,0,.22.3l0,.05,91.2,110.86h0l.07.09.18.2.08.09.22.22.08.07a5.16,5.16,0,0,0,.64.49h0a5.18,5.18,0,0,0,.73.4.05.05,0,0,1,0,0l.35.13,0,0,.36.11.12,0,.27.05.12,0,.33,0h.52l.4,0h.11l.29,0,.13,0,.35-.07h.07l22.18-5.5-2.83,8.5,0,.11c0,.1-.06.2-.08.29l-.06.26c0,.08,0,.16,0,.24s0,.21,0,.31,0,.08,0,.12L201.48,505v.1c0,.05,0,.09,0,.14s0,.24,0,.36,0,.17,0,.25l0,.27a2,2,0,0,0,.06.34.59.59,0,0,0,0,.14l0,.08v0l2.06,9.3h0l.06.24c0,.08.05.17.08.25s0,.12.07.19a2.49,2.49,0,0,0,.11.29,1,1,0,0,1,.07.15c.06.12.11.23.17.33l0,.07,4.66,8a2.12,2.12,0,0,0,.12.2.56.56,0,0,1,0,.08l.29.39,0,0,11.49,13.93.22.24,0,0a5,5,0,0,0,.41.39l6.94,6,0,0,.22.18.19.14.19.12.26.16.16.08.32.16.08,0,8.65,3.58.05,0h0l.07,0a2.86,2.86,0,0,0,.41.15l.28.07.22.06a5.39,5.39,0,0,0,.56.08l9.79,1h0l.51,0h0l.46,0,.22,0,.18,0,10.25-1.69h.07l.3-.07.24-.06.23-.07.29-.11.06,0,9.9-4.14.1-.05.06,0,.35-.16.14-.08.28-.17.15-.1h0l9.07-6.35,0,0h0l.11-.09a3.65,3.65,0,0,0,.31-.24,5.08,5.08,0,0,0,.41-.39l7.63-8.13h0c.11-.12.22-.24.32-.37l.07-.09.22-.33.06-.08,5.69-9.36,0-.06.18-.34a1,1,0,0,0,.07-.15,1.48,1.48,0,0,0,.12-.29,1.34,1.34,0,0,0,.07-.18l0,0,3.4-10a.29.29,0,0,1,0-.09l.09-.32a1.6,1.6,0,0,0,.05-.21,2.56,2.56,0,0,0,0-.27c0-.09,0-.18,0-.27s0-.06,0-.09l.88-10v-.14c0-.11,0-.22,0-.32s0-.17,0-.26,0-.17,0-.26,0-.21,0-.31,0-.09,0-.14l-1.7-9.31c0-.19-.08-.37-.13-.56s-.07-.2-.1-.29a1.59,1.59,0,0,1-.07-.2,3.54,3.54,0,0,0-.25-.52l-4.2-8.06,0,0c-.05-.11-.12-.21-.18-.32a1.3,1.3,0,0,0-.1-.15,1.53,1.53,0,0,0-.16-.22l-.16-.22-.12-.13-.25-.27,0,0-6.5-6.29,0,0,0,0L284,465.54l315.5-78.22L597.8,392v0l0,0,0,.16c0,.11-.07.22-.1.33a3.4,3.4,0,0,0-.07.34c0,.05,0,.1,0,.15v.08l-1.29,8.19h0c0,.12,0,.24,0,.36s0,.13,0,.19v.55h0l.44,7.78s0,.06,0,.1l0,.29a2.34,2.34,0,0,0,0,.26,1.89,1.89,0,0,0,.05.23,2.81,2.81,0,0,0,.08.31s0,.07,0,.11l2.12,6.71a1.15,1.15,0,0,1,.06.17l.12.3.07.16.15.31.07.12.22.35,0,.05.06.09h0l3.58,5.13.11.15a1,1,0,0,0,.08.11c.09.12.18.22.28.33l.09.08a3.55,3.55,0,0,0,.34.33c.14.12.28.22.42.32h0l.05,0,4.83,3.34.08.05.14.09.33.19.07,0,17.41,8.84.13.06.12.05.42.17.07,0c.17.06.33.1.49.14l5.83,1.33.11,0,.15,0,.38,0h.1l.44,0h.38l.19,0h.1l6.35-.82h0l.5-.09h0l.45-.13.09,0,.39-.16h0l0,0,6.28-2.82h0l0,0,.06,0,.37-.19.15-.09.25-.16.19-.13.07-.06,6.09-4.73.2-.17.18-.16a5.51,5.51,0,0,0,.41-.43l5.34-6.25,0,0c.09-.1.18-.22.27-.34l0-.07.21-.33,4.29-7.38v0c.08-.14.16-.29.23-.44l.05-.12c0-.09.07-.17.1-.26l2.94-8a5,5,0,0,0,.16-.51c0-.07,0-.14.05-.21a1.89,1.89,0,0,1,0-.23l1.4-8.11a5.35,5.35,0,0,0,.07-.56,5.42,5.42,0,0,0,0-.57l-.22-7.7s0-.05,0-.07,0-.21,0-.32l0-.23a2,2,0,0,0-.05-.26l-.06-.29s0-.05,0-.08l-1.84-6.75s0,0,0,0v0s0-.07,0-.11a2.65,2.65,0,0,0-.12-.37,1.89,1.89,0,0,0-.11-.25,2.29,2.29,0,0,0-.1-.23c-.06-.12-.12-.24-.19-.36l-.06-.09v0l0,0-3.35-5.38-.06-.08-.18-.27-.14-.18-.18-.21-.19-.2-.17-.16-.25-.21-.07-.06-2.21-1.73L707,360.66l.07,0,.34-.11.17,0,.29-.13.19-.08a1.71,1.71,0,0,0,.23-.13l.22-.12.17-.11.25-.17s0-.05.07-.06.33-.28.49-.44l.16-.17.11-.13a1.71,1.71,0,0,0,.21-.26.44.44,0,0,0,.08-.11,3.28,3.28,0,0,0,.2-.31.67.67,0,0,0,.07-.11c.06-.11.12-.21.18-.33l.06-.14.13-.31a1.59,1.59,0,0,1,.07-.2,2.76,2.76,0,0,0,.08-.27,2.61,2.61,0,0,0,.06-.27,1.42,1.42,0,0,0,.05-.22c0-.1,0-.21,0-.31a.77.77,0,0,0,0-.15l1.08-12.71s0,0,0-.07,0-.22,0-.33v-.21c0-.1,0-.2,0-.3s0-.16,0-.23,0-.17-.05-.25a2.56,2.56,0,0,0,0-.27l-.06-.21a2.45,2.45,0,0,0-.08-.29c0-.07-.05-.13-.08-.19s-.07-.19-.11-.29-.07-.12-.1-.19l-.13-.26-.13-.21-.14-.21-.17-.22c0-.06-.09-.12-.14-.17l-.21-.23a.93.93,0,0,0-.14-.14l-.23-.2a1.07,1.07,0,0,0-.16-.14l-.22-.17-.21-.14-.2-.12-.27-.14L709,338l-.31-.13-.07,0-13.81-5.05,10.4-130.49L753.37,99.88a0,0,0,0,0,0,0l0,0,0-.07.15-.36.06-.18a1,1,0,0,0,.05-.16l3.94-13.47,0-.13a1.82,1.82,0,0,0,.07-.25l.28-1.35a0,0,0,0,0,0,0Z"/></svg>