<svg xmlns="http://www.w3.org/2000/svg" viewBox="0 0 841.9 595.3"><defs><style>.a{fill:#083d69;}.b{fill:#fff;fill-rule:evenodd;}</style></defs><title>PM006B_C</title><rect class="a" width="841.9" height="595.3" rx="56.66"/><path class="b" d="M55.47,517.17,55.53,496H66.31c7.4,0,10.51,5.47,10.51,10.66,0,5.9-3.83,10.65-11.3,10.51ZM43.1,551H55.47V527.83H67.83c8.4,0,13.36-3,16.46-7.28a24,24,0,0,0,4.3-13.89c0-12.75-7.67-21.39-20.56-21.39H43.1Zm50.32,0H135.2V539.63H105.91V485.27H93.42Zm66.05-24.19,8.2-28.44,7.8,28.44ZM139.77,551H152.4l4-13.82h21.88L182.15,551H195l-20.69-65.74H160.92Zm64.33,0h12.36V496.29h18.32v-11h-49v11H204.1Zm53.55,0H270V496.29h18.31v-11h-49v11h18.31Zm35.25,0h12.43V522.93h26.31V512.2H305.39V496.29h30.94v-11H292.9Zm77.68-9c-14.54,0-16.86-17.64-16.86-23.69,0-16.49,8.6-24,16.6-24s16.66,7.48,16.66,24c0,7.13-2,13-4.63,16.92C379.31,539.85,375.48,541.94,370.58,542Zm-.26,11.09c21.09,0,29.42-20,29.42-35.07,0-15.76-9.19-34.77-29-34.77-10.64,0-18,4.46-23.34,12.24-3.9,5.76-6.48,14-6.48,22.82C341,536.54,351.61,553.1,370.32,553.1Zm49.19-38.59-.07-18.22H433.2c3.3,0,4.29.5,5.55,1.37a9.78,9.78,0,0,1,3.9,7.92c0,4.89-3.57,9.14-9.85,9.07ZM407,551h12.5l.07-26,10.77.07a9.74,9.74,0,0,1,9.19,5.4,17.89,17.89,0,0,1,1.26,4.18c1.19,5.4-.07,11.16,2.31,16.34h12.63a20.42,20.42,0,0,1-1.91-6.91l-1-11.52c-.39-4.83-1.45-6.84-3-8.71a11.86,11.86,0,0,0-8-4c7.8-.93,13.16-7.34,13.16-16.12,0-10.37-7.54-19.16-20.3-18.44H407.08Zm56.67,0h11.5v-47.3L487.94,551H500l12.83-47.3V551h11.7l-.13-65.74H506.52L494,533.15,481.6,485.27l-17.92.08Zm69-20.66c0,12.16,8.27,22.89,25.79,22.89,17.72,0,25.39-10.29,25.39-21.38,0-8.21-4.76-15.77-15.14-18.58l-14.28-4c-4.3-1.22-4.76-1.8-5.62-2.81a6.37,6.37,0,0,1-1.59-4.32c0-3.81,3-8.35,11.57-8.35a12.42,12.42,0,0,1,9.12,3.46,11.31,11.31,0,0,1,2.91,7.13l12,.14c-.53-7.2-2.71-11.59-6.08-14.9s-9.85-6.56-18.65-6.56c-16,0-23.34,9.72-23.34,20.52,0,8.36,4.3,15.2,14.88,18.08l12.3,3.38c2.25.58,5.42,1.08,7.47,3.82a7.83,7.83,0,0,1,1.52,4.39c0,4.25-3,9.07-12.76,9.07-9.52,0-13.42-5.4-13.29-11.88ZM606.29,551h11.9L639,485.27l-13.35.08L612.44,534l-13.09-48.75H586.06Zm43.38-24.19,8.2-28.44,7.8,28.44ZM630,551h12.63l4-13.82h21.88L672.35,551h12.82l-20.69-65.74H651.12Zm85.1-24.55h15c-.4,6-5.43,15.48-16,15.48-8.67,0-16.93-7.27-16.93-23.47,0-13.4,6.55-24.27,17.12-24.27,7.14,0,12.63,5,14.09,11.95l12.16-.43c-1.25-6.62-3.7-11.23-7.4-14.9-4.56-4.68-11-7.63-19.71-7.63-18.31,0-28.82,16.7-28.82,35.49,0,11.67,3.5,20.09,9.19,26.07s11.77,8.42,18.11,8.42a22.58,22.58,0,0,0,11.38-2.74,18.52,18.52,0,0,0,7.6-8.13l.59,8.71h9.33l-.07-34.78H715.06ZM749.24,551h12.1V506.66L786.13,551h12.7V485.35H786.66v44.42l-25.25-44.5H749.24Z"/><path class="b" d="M218.42,397.88l.2,2.38-56-68.08ZM519.89,252l105.28,39.52.06.1a2.53,2.53,0,0,0,.13.22l.07.11.21.28,0,0a4,4,0,0,0,.27.31l0,0,.27.25,0,0,.75.61.06,0,.17.12a1.37,1.37,0,0,0,.2.13l.13.09.29.15.06,0,.06,0h0l1.13.53.11.05.07,0,.38.14s0,0,0,0l1.57.48h0l.38.1h0l1.85.37.21,0h.1L221.34,394.55l-71-83.59,360.13-63.08ZM624.94,282,523.83,244,527,150.5a.46.46,0,0,0,.07.07,1.46,1.46,0,0,0,.16.19,1.59,1.59,0,0,0,.13.13l.17.16.17.14.16.13.21.14.15.09.25.13.11.06.06,0,.09,0,.35.13h0a3.31,3.31,0,0,0,.42.12l103.39,22ZM567.8,78.7l3.88-6.22L576.15,68l4.46-2.59,3.49-.61,89.56,6.24,2.34.8.18.25.29,3L674.6,81.4l-39.51,84.08-98.26-20.91ZM299.61,449.54l1.05-1.11h0a3.88,3.88,0,0,0,.26-.31L301,448l.18-.26.05-.07h0l1.33-2.17h0l.05-.07a.13.13,0,0,1,0-.05l.15-.29.06-.12a1.86,1.86,0,0,0,.1-.25l.06-.14v0l.81-2.41s0,0,0-.08a2.5,2.5,0,0,0,.07-.26c0-.06,0-.12.05-.19l0-.21a1.57,1.57,0,0,0,0-.24s0,0,0-.07l0-.21.16-1.87h0l0-.3s0-.07,0-.11v-.49c0-.07,0-.15,0-.22v-.06l1.22-2v0c0-.05.05-.1.08-.14l0-.07.05-.11,0-.08v0l1.75-5.14a.06.06,0,0,1,0,0,.65.65,0,0,1,0-.13.29.29,0,0,1,0-.09.36.36,0,0,1,0-.11s0-.08,0-.11,0,0,0,0l.43-5.13v0a.76.76,0,0,0,0-.15v-.1a.37.37,0,0,1,0-.11s0-.09,0-.13V424l-.91-4.78A1.89,1.89,0,0,0,307,419a1.57,1.57,0,0,0-.18-.42l-2.19-4.12h0a1,1,0,0,0-.08-.14.21.21,0,0,0,0-.06l-.07-.09-.06-.09-.06-.06-.1-.11h0l-2.08-2h0l0,0-1.25-1.18h0l-.11-.1-.07-.05-.08-.06-.1-.07-.06,0-.14-.07h0l-4.29-2-.22-.09-.13,0-.08,0-.24-.05-4.94-.69h-.6l-5.29.68h0l-.13,0-.1,0-.1,0-.12,0h0l-.12.05-2.91-3.75-.18-3.12,3.77-1.44.15,0,8-1L300,400l4.75,4.45,4.86,4.72,2.88,5.52,1.2,6.54-.63,7.19-2.51,7.35-4.25,7-5.73,6.11Zm-27.73,7.79-6-2.47-5-4.31-5.51-6.68-1.11-5.11.56-8.09,2.42-7.25,5.73,7.14.4.5-.3,4.07h0v.11a.61.61,0,0,0,0,.14s0,.07,0,.11a.34.34,0,0,0,0,.1.77.77,0,0,0,0,.15.11.11,0,0,0,0,.05v0h0l1,4.82h0a.36.36,0,0,0,0,.1l0,.1,0,.08a1.12,1.12,0,0,0,.05.13.14.14,0,0,1,0,.06.91.91,0,0,1,.07.14l0,0,1.72,3h0l.63,1.1h0l.16.24,0,0a1.07,1.07,0,0,0,.14.16l.07.07s0,0,.05.05l3.51,3.11h0l.1.07.07.06.08.05.11.07.07,0,.13.07h0l4.39,1.88h0l.19.07.1,0,.11,0,.19,0h.06l4.46.48.46.41,0,0,.18.15.16.12.16.1.22.14.13.07.27.13,0,0,.56.24h0l1.43.61a4.13,4.13,0,0,0,.45.17l.2.05.22.06.36.06h.13l2.25.24h.14l.3,0H289l.18,0,.13,0,2.43-.38.07,0,.25-.05.19,0a1.17,1.17,0,0,0,.2-.06l.24-.08,0,0,1.5-.62-.51.36-7.42,3.11L278.83,458Zm-23.43-23.54L247,427.26l.49-7.28,2.05-6.18,4.63,5.76-.48.78v0l-.06.11,0,.09,0,.09,0,.12v0l-2.92,8.74s0,0,0,0a.56.56,0,0,0,0,.12.43.43,0,0,0,0,.11.36.36,0,0,0,0,.1s0,.09,0,.13v0l-.44,6.37Zm46.21,2.86.53,1,.19.95-.11,1.24-.48,1.42-.88,1.44L292.7,444l-1.42,1-1.46.6-1.33.21-1.07-.11-.74-.32-1.07-.95a4.19,4.19,0,0,0-1.36-.83,4.4,4.4,0,0,0-.83-1.66L269.9,425l-8.34-10.4-5.68-7.08,0-.51,2.83-.7,2.72-.21h0l.27,0,.17,0h0l7.86-1.5.06,0,.29-.07.13,0h0l1.72-.55.14,2.5v0c0,.1,0,.21,0,.31a.45.45,0,0,1,0,.11c0,.1,0,.18.06.27l0,.16.06.19a1.87,1.87,0,0,0,.07.22l.06.15c0,.08.07.16.11.25l.07.12c0,.09.09.17.14.26a.76.76,0,0,0,.08.11,1.46,1.46,0,0,0,.17.24l0,0,4.35,5.61ZM274,444.33l-2.7-1.15-1.54-1.37-1.37-2.4-.59-2.82Zm16-32.52,4.34.61,3.68,1.72.73.7,1.77,3.33.79,4.14-.38,4.55-.81,2.39-13.23-17ZM596.53,364l-5.91-3-.72-1-1.57-5.11-.3-6.08,1.07-6.58,1.37-3.77,1.28,2.79h0l.68,1.48-.55,3.37a.88.88,0,0,0,0,.17s0,0,0,.06v.22l.18,4s0,0,0,0a.49.49,0,0,0,0,.12.36.36,0,0,0,0,.11s0,.07,0,.1l0,.13,0,0,1,3.47s0,.06,0,.08l0,.12,0,.07.06.13,0,.05a.64.64,0,0,0,.08.14l0,0,1.83,2.72,0,0,.12.16s0,0,.05.05l.14.14,0,0,.18.14,0,0h0l.8.58h0l1.58,1.13h0l.11.08.08,0,.13.07.06,0,.14.06h0l.23.07,2.93.7h0l.19,0h.56l1.08-.14,1.63.79h0l1.15.56h0l.09,0,.34.14h0l.17.05-3.41,1.53-3.85.5Zm26.11-32.34.16,5.47-1,6-.48,1.32-.32-.73.63-3.73a1,1,0,0,0,0-.23,1.93,1.93,0,0,0,0-.24l-.13-3.95s0,0,0,0a.53.53,0,0,0,0-.13.31.31,0,0,0,0-.1s0-.07,0-.11l0-.12v0l-1-3.46v0h0a0,0,0,0,0,0,0,.85.85,0,0,0-.06-.17l0-.1,0-.1-.09-.15,0,0h0l-1.75-2.74,0,0a1,1,0,0,1-.08-.11l-.06-.07-.07-.09-.08-.08-.07-.07-.11-.09,0,0-2.4-1.84h0v0l0,0-.13-.09-.07,0-.12-.06-.11,0-.08,0-.15,0,0,0h0l-2-.56h-.06l-1.4-3.18.14-2.2,5.14,2.16,2.85,2.23,2.07,3.32ZM599,322l1.86-.12h0a2.85,2.85,0,0,0,.29,0l.15,0h0l1-.18,0,.43v.17c0,.11,0,.22,0,.32s0,.11,0,.16l0,.28,0,.21a1.18,1.18,0,0,0,0,.2c0,.1.05.18.07.27l0,.15c0,.1.07.21.11.31a.25.25,0,0,1,0,.09l0,0v0l2,4.46h0l6.87,15.53,1.59,3.6.12.4.11.39,0,.85-.19,1.1-.43,1.18-.63,1.08-.73.85-.68.52-.43.19h0l-.13,0-.72-.36h0l-1.84-.89L595,325.53l.16-2.61Zm-16.22,35.08-3.18-2.2-2.19-3.15-1.4-4.44-.31-5.45.95-6,2.16-6h0l0,0,1.2-2,.74-1.27,3.83-.94a.31.31,0,0,0,0,.08,3.65,3.65,0,0,0,.14.35l0,0h0v0l1.23,2.68,1.75,3.83.17.36-.38.65,0,.06-.06.12-.05.11,0,.07-2.51,6.92h0v0s0,.05,0,.07,0,.08,0,.13l0,.14s0,0,0,.06v0h0l-1.13,7c0,.06,0,.12,0,.17v.14a.75.75,0,0,0,0,.15h0l.32,6.59v.05s0,.08,0,.12a.34.34,0,0,0,0,.1s0,.07,0,.1l0,.13a.08.08,0,0,1,0,0l.65,2.1Zm27.11-46.9h0l-.53.13h0l-.74.19h0l-3.92,1-5.16,1.28h0l-2.28.57-5.14,1.27h0l-4.11,1h0l-9.39,2.33h0l-1.76.44h0l-2.7.67h0l-2.56.64h0L296.85,387.76l-2.65.66h0l-5.35,1.33h0l-7.72,1.91-4.56,1.13-1.75.43-7,1.75L260,396.91l-3,.76-4.61,1.14-2.36.58h0l-.91.23h0l-3.33.82-.22.06h0l-22,5.45-.57-7.25L654.29,295.57l-.32,3.66Zm91.8-234a.68.68,0,0,0,0-.14,1.62,1.62,0,0,0,0-.22,1.94,1.94,0,0,0,0-.24s0-.09,0-.13,0-.21,0-.32v0l-1.14-10.55a.64.64,0,0,1,0-.07l0-.23c0-.08,0-.15,0-.23s0-.05,0-.07l-.35-1.37h0a4.65,4.65,0,0,0-.28-.79.08.08,0,0,1,0,0l0,0a4.56,4.56,0,0,0-.45-.74h0l-.86-1.13h0l-5.68-7.39h0l0-.06-.07-.08a2.2,2.2,0,0,0-.2-.23l-.13-.13c-.06-.06-.11-.12-.17-.17l-.2-.16-.14-.11-.26-.17-.08-.06-.06,0h0l-1.2-.71,0,0-.24-.12-.17-.09-.19-.07a1.17,1.17,0,0,0-.24-.09l0,0-8.69-2.76-.09,0-.23,0-.24-.05-.09,0-1.4-.23h0l-.22,0-.24,0h0l-94-4.69h-.54l-.18,0-.29,0h0l-8.15,1.57h-.07l-.08,0-1,.22h0a1.92,1.92,0,0,0-.32.09l-.12,0-.21.09-.21.08-.11.06-.29.15h0l-8.69,5.19h0l-.24.16a1.21,1.21,0,0,0-.14.1l-.15.12-.2.17,0,0-.43.41-.06.06-.06,0-7.49,7.58,0,0-.18.2-.12.15-.12.16-.15.22,0,0-5.47,8.81h0l-.11.19a2.12,2.12,0,0,0-.11.21h0l-.15.29s0,0,0,0v0l-34.81,74.07a2.4,2.4,0,0,0-.11.23l-.06.14-.09.26a1.09,1.09,0,0,1-.05.17l-.06.24a1.42,1.42,0,0,1,0,.2l0,.23a1.34,1.34,0,0,0,0,.2,1,1,0,0,0,0,.17l-2.95,94.15L143.74,303.1l-.07,0-.23.05-.2.06-.22.07-.2.07-.2.1a1.63,1.63,0,0,0-.19.09l-.18.1-.19.12-.17.12-.18.14-.15.13-.17.15-.13.15-.15.16-.13.17-.12.17-.12.18a1.62,1.62,0,0,0-.1.18l-.11.2a1.42,1.42,0,0,1-.08.18,1.8,1.8,0,0,0-.08.21,1.46,1.46,0,0,0-.07.19l-.06.21a1.6,1.6,0,0,0-.05.21,1.55,1.55,0,0,0,0,.21l0,.22a1.49,1.49,0,0,0,0,.21,1.77,1.77,0,0,0,0,.23v.21c0,.08,0,.16,0,.24v.07L141.27,319h0v0a.77.77,0,0,0,0,.15,2.34,2.34,0,0,0,0,.26,1.21,1.21,0,0,0,0,.18,1.74,1.74,0,0,0,.05.22,3,3,0,0,0,.11.32l0,.08c0,.13.12.26.18.38l0,.08.18.29a.61.61,0,0,0,.07.1l.18.25,0,0,76,92.32h0l.06.07.15.17.07.08.18.18.06.06a4.19,4.19,0,0,0,.54.4v0c.2.12.4.23.61.33h0l.29.12h0l.29.09.1,0,.22.05.11,0,.27,0h.13l.23,0h.07l.34,0h.09l.24,0h.11l.29-.06h.06l18.47-4.58-2.35,7.08a.32.32,0,0,0,0,.09,2.17,2.17,0,0,0-.07.24c0,.07,0,.15-.05.22l0,.2,0,.26s0,.06,0,.09l-.56,8.39v.09s0,.07,0,.11v.3c0,.07,0,.14,0,.21s0,.15,0,.22a2.5,2.5,0,0,0,.05.29s0,.08,0,.12v.08l1.71,7.74h0l.06.2a1.66,1.66,0,0,0,.06.21,1.42,1.42,0,0,0,0,.16,1.73,1.73,0,0,0,.1.24l.06.13.14.28,0,.05,3.88,6.62c0,.06.07.11.1.16l.05.07a2.52,2.52,0,0,0,.24.33v0l9.57,11.6.18.21,0,0c.11.11.22.22.34.32l5.78,5,0,0,.19.14.16.12.16.1.21.13.13.08.27.12.07,0,7.2,3h.05l.06,0a3.59,3.59,0,0,0,.35.12,1.55,1.55,0,0,0,.23.06l.18.05a3.78,3.78,0,0,0,.47.06l8.15.8h0l.42,0h0l.38,0,.19,0,.15,0,8.53-1.41.06,0,.26-.05.19-.05.19-.06.24-.09.05,0,8.25-3.45.08,0,.05,0,.29-.14.12-.06.23-.14.13-.08h0l7.55-5.29,0,0h0a.39.39,0,0,0,.1-.08,2.26,2.26,0,0,0,.26-.2,3.34,3.34,0,0,0,.33-.32l6.36-6.77h0a4,4,0,0,0,.27-.31l.06-.08.18-.27.05-.07,4.74-7.79,0-.05.15-.29.06-.12a2.44,2.44,0,0,0,.1-.24l.06-.15v0l2.83-8.32a.19.19,0,0,0,0-.07c0-.09.06-.18.08-.26s0-.13,0-.19,0-.14,0-.21l0-.23s0,0,0-.07l.73-8.32a.45.45,0,0,0,0-.11c0-.09,0-.18,0-.27s0-.14,0-.22a1.48,1.48,0,0,0,0-.21,2,2,0,0,0,0-.26s0-.08,0-.12L321,412.51c0-.16-.07-.31-.11-.47s-.06-.16-.08-.24l-.06-.16a3,3,0,0,0-.21-.44l-3.5-6.71a0,0,0,0,0,0,0l-.15-.26-.08-.13-.14-.18-.14-.18-.09-.11-.21-.23,0,0-5.41-5.24a0,0,0,0,1,0,0l0,0-3.91-3.68,262.76-65.14-1.41,3.89v.06a.65.65,0,0,0,0,.13l-.09.27a2.93,2.93,0,0,0,0,.29l0,.13v.06l-1.08,6.82h0l0,.3c0,.05,0,.11,0,.16v.16c0,.1,0,.2,0,.3h0l.36,6.47s0,.06,0,.09a1.94,1.94,0,0,0,0,.24,1.55,1.55,0,0,0,0,.21,1.42,1.42,0,0,0,0,.2l.06.26,0,.09,1.76,5.58s0,.1.05.15a2.6,2.6,0,0,0,.1.25.75.75,0,0,0,.06.13,1.51,1.51,0,0,0,.12.26l.06.1c.05.1.12.19.18.29l0,0,.06.07h0l3,4.28a1.47,1.47,0,0,1,.1.13l.07.09.23.27a.46.46,0,0,1,.07.07l.28.27.36.27h0v0l.05,0,4,2.78.08,0,.11.08a2.49,2.49,0,0,0,.28.15l0,0,14.5,7.36.11,0,.1,0,.35.14.06,0a2.75,2.75,0,0,0,.41.11l4.85,1.11.09,0,.12,0,.32.05h.09l.36,0h.32l.15,0h.09l5.29-.68h0l.41-.08h.05l.37-.1.08,0,.32-.13h0l5.23-2.35,0,0h0l.05,0,.3-.15.13-.08.21-.13.16-.12a.1.1,0,0,0,.05,0l5.08-3.94.16-.15a.93.93,0,0,0,.15-.13,2.79,2.79,0,0,0,.34-.35l4.45-5.2,0,0c.08-.09.15-.19.22-.28l0-.06.18-.28,3.57-6.14v0c.07-.12.13-.24.19-.37a.42.42,0,0,0,0-.1l.09-.21,2.44-6.66a3.09,3.09,0,0,0,.14-.43,1.36,1.36,0,0,1,0-.17c0-.06,0-.13,0-.19l1.17-6.76.06-.46a3.68,3.68,0,0,0,0-.47l-.18-6.42s0,0,0-.06a2.28,2.28,0,0,0,0-.26,1.36,1.36,0,0,0,0-.2c0-.07,0-.14,0-.21s0-.16,0-.24,0,0,0-.06l-1.53-5.63v-.06l0-.09c0-.1-.06-.21-.1-.31l-.09-.2-.08-.2a2.75,2.75,0,0,0-.17-.29l0-.08v0l0,0-2.8-4.48,0-.06-.16-.23-.11-.15-.16-.18-.15-.16-.14-.13a1.68,1.68,0,0,0-.21-.18l-.06-.06-1.84-1.43,35.63-8.83.06,0c.09,0,.19,0,.28-.09l.14,0,.24-.11.16-.07.19-.1.19-.1.14-.1.2-.14.06,0a3.6,3.6,0,0,0,.41-.37l.13-.13.1-.12a1.2,1.2,0,0,0,.17-.21l.07-.09.17-.26a.41.41,0,0,0,.05-.09l.15-.27,0-.12c0-.09.08-.17.11-.26l.06-.17c0-.07.05-.15.07-.23s0-.14,0-.21,0-.13,0-.19l0-.26s0-.08,0-.12l.9-10.58v-.06a2.81,2.81,0,0,0,0-.29V292c0-.09,0-.17,0-.26a1.23,1.23,0,0,1,0-.19c0-.07,0-.14,0-.21s0-.15,0-.23a.84.84,0,0,1-.05-.17c0-.08,0-.16-.07-.24l-.06-.15a1.73,1.73,0,0,0-.1-.24l-.08-.16a1.51,1.51,0,0,0-.11-.22c0-.06-.07-.12-.11-.17a1.88,1.88,0,0,0-.12-.18l-.14-.19-.11-.14-.18-.19-.11-.12-.19-.17-.14-.11-.18-.14-.18-.12-.17-.09-.22-.13-.15-.07-.26-.11-.06,0L649,283.81l8.66-108.67,40.08-85.27s0,0,0,0l0,0s0,0,0,0a2.45,2.45,0,0,0,.12-.31l.06-.15s0-.08,0-.13L701.32,78l0-.11a1.17,1.17,0,0,1,0-.2l.24-1.13v0C701.66,76.39,701.68,76.28,701.69,76.18Z"/></svg>