<svg xmlns="http://www.w3.org/2000/svg" viewBox="0 0 841.9 595.3"><defs><style>.a{fill:#083d69;}.b{fill:#fff;fill-rule:evenodd;}</style></defs><title>PM005A_C</title><rect class="a" width="841.9" height="595.3" rx="56.66"/><path class="b" d="M670.13,380.28l-2-.66-2.74-1.13-1.72-1.12-.29-.31,2.18-.63L685,370.8,683.5,373l-2.16,2.51-2.31,2-2.37,1.5-2.33,1-2.19.4Zm8.61-14.06a.14.14,0,0,0,0,.06v0l.17.64v0l-5.52,1.6Zm-121,42.89-.62-.31.64-.19Zm106-50.81-1.82.51,0-.05.17-.33,1.83-3,.17-.26,2.13-2.87h0l.08-.11,2.38-2.66,2.42-2.23.93-.59,1.1-.62.56-.29h0l.54-.27,1.09-.5,1-.41.07,0,1.06-.36,1.33-.36,2.57-.68,2.14-.58.71.26,1.6,1.14,1.4,1.64,1.15,2.13.82,2.6.43,3v3.05l0,0-.06-.06-.12-.13-.06-.05-.14-.11-.1-.07-.11-.08a2,2,0,0,0-.49-.24l-5.75-2.17,0,0-.15,0-.11,0-.14,0-.12,0h-.64l-.16,0-.1,0-.16,0h0ZM564,416.51v.43l0,1h0l0,1.13h-.73l-.34,0,.09-4.16,0-1,0-.43.13-6.4.25-.07h0l.82-.25h0ZM287.76,502.7l-.75.18-.79.08h-.8l-1.79-26.59.76.28h0l1,.38.78.29,1.64,25.37ZM162.16,394.06l.15,0h.05l.77-.14.15,0h0l.72-.2h0l.1,0,.08,0h0l.43-.17h.52a2.68,2.68,0,0,0,2.4-2.93l-.66-6.45.83-.3,2.73-.8.66-.16L276.3,472.32l0,0,0,0,.19.16h0l.18.14h0v0l.19.14h0l.19.14h0l.2.14h0l.19.14h0l.2.14h0l.16.11,1.88,28L161.68,394.1ZM159.69,373h0l.7.6.12.1.89,8.8h0a0,0,0,0,1,0,0l.78,7.72-.41.08-.54,0-.52-5.11-1.3-12.48ZM323.88,506.5,320,507.56l-4,.82-4.14.58-4.2.33-4.16.07-4-.19-3.83-.44-3.56-.69-3.2-.91-1.36-.54h.07l.15,0h0l1-.23h0l.1,0,.08,0h0l.86-.33h0l.07,0,.16-.08h0l.47-.28h.12a2.68,2.68,0,0,0,2.5-2.84l-1.56-24,1.86.33.12,0h.07l3.8.41h.17l4,.17h.16l4.1-.07h.15l4.14-.31h.15l4.09-.54h.16l4-.76.09,0h.07l3.63-.93h.09L544.32,412.5h0l.48-.14h0l2.63-.76,1.39-.41,8.73,4.38-.08,3.86a2.68,2.68,0,0,0,2.61,2.73h0l0,0,.62.24,0,0,.08,0,.1,0h0l.74.18h0l.21,0h0l.82.1h1.25l.79-.08H565l.13,0h0l.72-.16h0l.11,0h0a2.07,2.07,0,0,0,.5.06h.07a2.65,2.65,0,0,0,1.67-.58l1.22.92.93,1,.51.83.19.68-.06,2.26-.25.34-1.19,1.06L568,430.1l-2.08,1-2.51.9ZM679.37,337.14l1.72.61-1.14.3-2.56.69-1.42.38-.09,0-.08,0-1.21.41-.07,0-.06,0-.12.05h0l-1.09.43,0,0-.06,0-1.21.55-.06,0,0,0-.59.3h0l-.62.31-.05,0,0,0-1.21.68,0,0-.06,0-1.17.73v0h0a.18.18,0,0,0-.07.05l-.12.08-.12.1-.07.06L665,345.66l-.07.06-.11.11-.06.06h0l-2.51,2.81h0l0,0-.07.08-.08.1-.15.2h0l-2.2,2.95a.86.86,0,0,1-.07.1l-.06.09-.23.37-1.89,3.06-.06.1s0,.06,0,.09l-.22.43h0l-1.64,3.22-.05.1,0,.09-.06.15L650.45,358h0l1.79-3.5,2-3.27,2.24-3,2.42-2.69,2.44-2.23,1.07-.66,1.14-.64,1.15-.57,1.14-.5,1.13-.44,1-.32Zm-42,20.93,7.79-1.33-.43,1-.24.5a.36.36,0,0,0,0,.09l0,.1a0,0,0,0,0,0,0,1.21,1.21,0,0,0,0,.14.56.56,0,0,0,0,.12l0,.14,0,.12s0,.09,0,.13,0,.09,0,.13v.27s0,.07,0,.11,0,.1,0,.14,0,.08,0,.12l0,.14,0,.11a.65.65,0,0,0,0,.13l0,.12.05.12.06.12a.37.37,0,0,1,.05.11,1,1,0,0,0,.08.11l.06.11a.44.44,0,0,1,.08.11l.08.09.09.1.09.09a.39.39,0,0,0,.1.08.47.47,0,0,0,.1.1l.1.07.12.08.1.06.13.07,0,0,.08,0,.11.05,9.38,3.71a2.61,2.61,0,0,0,1,.18,2.94,2.94,0,0,0,1.06-.21h0l.33-.07h0l.08,0h0l3.12-.87h0l.2-.05h0l4-1.11L681.07,359l-14.88,6.56-86.06,24.53v-.46c0-.05,0-.09,0-.14a.2.2,0,0,0,0-.07l-.22-2h0v0s0-.06,0-.08a1,1,0,0,1,0-.17c0-.05,0-.11-.05-.16s0-.06,0-.08v0h0l-.44-1.4a.69.69,0,0,0-.05-.13l0-.1v0h0l-.74-1.77h0l0,0a2.14,2.14,0,0,0-.1-.22,1.74,1.74,0,0,0-.11-.18l0,0h0l-.89-1.32,0,0a.86.86,0,0,0-.07-.1.61.61,0,0,0-.07-.1l0,0L576,380l0,0-.09-.11-.1-.1a0,0,0,0,0,0,0l-1.32-1.25,0-.05-.11-.09-.12-.09,0,0-1.44-1h0l-1.43-.94-.05,0,0,0-.21-.13h0l0,0ZM492.25,54.72l0,.05s-.05.08-.07.13l-.06.12,0,.06-.2.48h0l-.44,1a.43.43,0,0,1,0,0s0,.09-.05.13a.74.74,0,0,0,0,.14l0,.05-.08.31h0l-.34,1.31v0l0,.14,0,.14v0l0,.14h0l-.18,1.5h0v.05s0,0,0,0,0,.09,0,.14V61l0,1.46h0v.28s0,.09,0,.13a.77.77,0,0,0,0,.15v0l.2,1.23h0l.06.42s0,0,0,.06a.52.52,0,0,0,0,.11.83.83,0,0,0,0,.15.43.43,0,0,0,0,0l.3,1h0l.19.59a.14.14,0,0,0,0,.07l0,.1.08.18,0,0v0h0l.31.62h0l.37.76,0,0c0,.08.09.16.14.24a.43.43,0,0,0,0,.07l0,0,.22.31.62.85h0l0,.06,0,0c0,.06.09.12.14.17l0,0L493.5,154l-.63-.13-1.41-.3-1.54-.33-1.62-.35h0l-1.65-.35h0l-1.63-.34h0l-1.56-.34h0l-3.35-.71-.32-83.74h0c0-.08,0-.17,0-.26v0c0-.07,0-.15,0-.22l0-.11,0-.14-.06-.16a.2.2,0,0,0,0-.08.89.89,0,0,0-.08-.17s0,0,0-.07a1.19,1.19,0,0,0-.09-.15l0-.07-.1-.13-.05-.07-.1-.11-.08-.09-.09-.08-.1-.09-.08-.06-.12-.09-.08,0-.15-.09-.11,0-.12-.06-.24-.09h0a3.12,3.12,0,0,0-.53-.11h0l-1.46-.14h0L473,64.35a2.71,2.71,0,0,0-1.69.4l-.68-.43-.66-.62-.58-.79-.48-.94-.35-1.06-.19-1.15,0-1.18.13-1.19.3-1.13.44-1,.56-.91.66-.76.72-.58.75-.4h0a2.61,2.61,0,0,0,1.37.52l3.53.27,15.58,1.21Zm47.46,2.55,0,0-.07.08,0,.09,0,0L538.67,59l0,0a.36.36,0,0,0,0,.09.41.41,0,0,0-.05.09l0,0-.67,1.61v0a.42.42,0,0,0,0,.1l0,.09a0,0,0,0,1,0,0l-.46,1.72v0a.44.44,0,0,0,0,.1.36.36,0,0,0,0,.1s0,0,0,0l-.22,1.78a0,0,0,0,0,0,0v.1a.31.31,0,0,0,0,.1v1.84a.38.38,0,0,0,0,.1.28.28,0,0,0,0,.09v0l.24,1.74v0s0,.05,0,.08a.52.52,0,0,0,0,.11v0l.48,1.63v0l.09.24.48,1-37.73-3.82-1-.13-.71-.27-.7-.44-.26-.25-.41-.4-.51-.71-.1-.13-.27-.55h0l-.23-.46-.12-.4h0l-.24-.77,0-.22h0l-.16-1v0h0l0-1.27.16-1.32.3-1.13h0l0-.13.36-.86h0l.12-.3.34-.56h0l.26-.44.23-.26h0l.48-.56.71-.58h0l.05,0,.12-.07.29-.16h0l.36-.19.76-.22.83-.06,38.46,2.94Zm11.46,4.29.34,1.19.17,1.28v1.33l-.17,1.32L551.17,68l-.5,1.18-.62,1-.72.86-.78.66-.81.46-.08,0a2.79,2.79,0,0,0-1.17-.46l-.89-.13-.34-.13-.24-.09-.37-.25h0l-.21-.14-.36-.36h0l-.21-.21-.32-.46h0l-.2-.28-.26-.56h0l-.17-.38-.18-.61h0l-.13-.46-.1-.64-.07-.54v-.64h0v-.6l.08-.6.08-.63.14-.54h0l.17-.64.2-.47h0l.25-.61.24-.38h0l.33-.55.25-.3h0l.4-.47.24-.2h0l.43-.36.24-.14.43-.24.24-.07.4-.13.33,0,.59,0a2.61,2.61,0,0,0,1.18-.38l.05,0,.72.49.67.69.59.88Zm-116.35-.05-.93-.13-.69-.25-.67-.41-.64-.58-.58-.76-.48-.91-.36-1-.2-1.12,0-1.16.12-1.16.29-1.11.42-1,.55-.88.63-.71.69-.54.7-.37.7-.2.8,0L466,51.49l0,0-.8,1.31a.08.08,0,0,0,0,0,.41.41,0,0,0-.05.09.36.36,0,0,0,0,.09.05.05,0,0,0,0,0l-.62,1.46s0,0,0,0a.42.42,0,0,0,0,.1l0,.09s0,0,0,0l-.4,1.56v0a.29.29,0,0,0,0,.09.36.36,0,0,0,0,.1v0l-.19,1.63v0s0,.06,0,.1v.13l0,1.63v.13s0,.07,0,.1v0l.27,1.59v0a2.33,2.33,0,0,0,.07.25l.48,1.49a0,0,0,0,1,0,0,2.56,2.56,0,0,0,.11.24h0l.27.51ZM377.14,304.39l2.12-.36,2.28-.28,2.36-.2,2.4-.12,2.4,0,2.36.06,2.28.16,2.14.24,2,.31,1.81.4,1,.25,1.43.42.14,0,.16.06.13,0,.14.05.14.05.11,0,.14.06.11,0,.12.05.13.05.11,0,.12.05,9.35,4.24h0l.19.07.07,0,.19.05.08,0,.16,0,.12,0h.33l.3,0h.06l.28-.06.08,0a2.6,2.6,0,0,0,.61-.28l.08-.05.23-.17,0,0a1.67,1.67,0,0,0,.23-.23l.07-.08.19-.24,0,0a3.24,3.24,0,0,0,.17-.32l0,0a.43.43,0,0,0,0-.05.94.94,0,0,0,.06-.15.42.42,0,0,0,0-.1c0-.05,0-.1,0-.14l0-.13s0-.08,0-.12,0-.1,0-.15,0-.07,0-.1v-.22l-3.21-138s0,0,0-.06,0-.1,0-.14l0-2.62.23-2.73.41-2.56.62-2.44.33-1.2.83-2.3,1-1.95,1.12-1.67,1-1.31,1.26-1.36,1.4-1,1.48-.95,1.45-.62,1.71-.44,1.54-.25,1.78.11,1.63.14L476.87,156h0l5.44,1.16,1.56.33h0l1.63.35h0l1.65.35,1.63.35,1.54.32,1.41.3,1.25.27,1,.22h0l.73.15h0l.06,0,.53.11.25.05h0l38.78,8.24,2.18.7,1.75.72,2.18,1.16,2.12,1.62,1.21,1.17,2,2,1.82,2.35,1.66,2.74,1.46,3.06L552,187.1l1,3.52.68,3.65.39,3.7.07,3.28c0,.09,0,.18,0,.27v.12l-3.32,169.24v0h0v0a1.93,1.93,0,0,0,0,.24s0,.07,0,.11a.77.77,0,0,1,0,.15c0,.05,0,.1,0,.15a.44.44,0,0,0,0,.1.75.75,0,0,1,0,.16l0,.08a1,1,0,0,0,.07.15.36.36,0,0,0,0,.09.83.83,0,0,0,.07.13l.06.1a.61.61,0,0,0,.07.1.44.44,0,0,0,.08.11l.06.08a1.31,1.31,0,0,0,.11.12l.07.07.11.11.09.07.12.09.12.08.09.06.22.11h0l9.6,4.35h0l4.3,1.95.17.08.16.08.19.09.16.08.17.09.16.09.15.08.17.08.15.09.14.08.16.1.14.08,1.39.92,1.23.83,1,1,1,1.24.71,1.05.61,1.45.34,1.08.17,1.53,0,1.07-.26,1.52-.39,1,0,.12-.7,1.43-.82,1-1.1,1.19-1.17,1-1.29.76h0l-.42.25-1.3.72-1.36.61-.18.08h0l-.39.17h0l-.32.1h0l-.72.25h0l-.82.27-.39.13-.36.1-.83.25h0l-.75.22-.63.18h0l-.45.13h0l-.26.08h0l-7.63,2.22H552l-.57.17-1.29.37-1.88.55-2.34.67-2.64.77-.48.14L321,471.74l-3.52.89-3.81.73-3.94.52-4,.29-3.94.06-3.83-.17-3.62-.39-3.35-.61-1.58-.41-.26-.07-.5-.14-.67-.17-.73-.28h0l-1-.38h0l-.91-.34,0,0-1-.43-.45-.19-.31-.16h0l-.77-.39h0l-.55-.28h0l-.27-.14h0l-.06,0-.22-.12-.2-.12-.18-.11-.19-.12-.16-.11-.17-.11-.18-.12-.17-.12-.14-.11-.16-.12-.15-.12-.15-.11L173.6,377.82l-8.8-7.48,0,0v0l0,0h0l-.32-.27h0l-.53-.45-.7-.61-.83-.7-.91-.77h0l-.91-.77-.86-.73h0l-.74-.63-.58-.5-.38-.31h0l-.14-.12h0l-2.42-2.06-.07-.07h0l-1.24-1.14h0L154,361l0,0-.05-.05,0-.05,0,0,0,0,0,0,0-.05,0,0,0,0,0,0-.05-.09h0l-.74-1.25,0-.08a.16.16,0,0,1,0-.07l0-.05-.22-.55-.33-1.26,0-.79.06-1.45.44-1.29.36-.8.85-1.2.7-.83,1.12-.91,1.2-.93,1.39-.85,1.77-.85,2.12-.83,1.09-.36,2.26-.73,2.43-.65,2.58-.55Zm54.38,184.24-1.18.38-4,1.3h0l-2.17.7-19.83,6.38-2.83.91h0l-5.83,1.88-1.88.6-4.87,1.57-1.23.39-63.11,20.31-3.78,1.07-3.94.83-4.07.59-4.11.34-4.07.07-4-.2-3.75-.45-3.46-.69-3.11-.91-2.68-1.1-2.2-1.23-1.78-1.4L160.25,404.35l-.48-.59-.15-.4-.7-6.71L279.44,506.17h0a.27.27,0,0,0,.08.07l0,0h0l2,1.54h0l.21.14,0,0,2.51,1.36h0l.19.09h0l2.95,1.17h0l.18.06h0l3.37,1h0l.12,0,3.7.72h.14l4,.46h.13l4.16.2h.12l4.27-.07h.12l4.3-.34h.12l4.26-.6h.12l4.14-.84.07,0h0l3.93-1.08H325l239.56-74.54h.06s0,0,0,0l2.6-.93h0l.13-.06,0,0,2.27-1.08.19-.1h0l1-.66-.2,7.22,0,1-.27.73-.63.88-1.07,1-1.54,1-2,1-2.43.91Zm-29.88,57-3.5-1.27-3.21-2.11-2.88-2.36-2.63-2.8-1.95-3.37-1.29-4-.55-4.45.24-4.8,1-5,1.82-5,1.62-3.07.19-.06,4.87-1.56,1.88-.61h0l5.83-1.88h0l2.82-.9,19.83-6.39,2.17-.7h0l3.92-1.26,1.08.8,2.38,2.79,1.79,3.41,1.15,3.94.43,4.37-.3,4.67-1,4.83-1.77,4.82-2.44,4.66-3,4.37-3.55,3.92-3.95,3.35-4.21,2.69L414,544.7l-4.34,1.14-4.17.31ZM695,356.83v-3.69s0-.09,0-.14,0-.09,0-.14a.09.09,0,0,0,0-.05l-.49-3.37s0-.05,0-.07l0-.15,0-.13s0,0,0-.07l-1-3h0v0a.32.32,0,0,1,0-.09l-.06-.15a1,1,0,0,0-.07-.15.25.25,0,0,0,0-.07v0h0l-1.38-2.57h0l-.09-.15-.06-.08-.06-.1-.11-.13h0l-1.36-1.59h0l.08,0,.12-.07.11-.06,0,0c.12-.08.23-.17.34-.26v0a.47.47,0,0,0,.1-.1l.08-.08.07-.09.09-.11a.25.25,0,0,0,0-.07,1.3,1.3,0,0,0,.1-.15.21.21,0,0,1,0-.06.8.8,0,0,1,.08-.16l0-.08.06-.16,0-.1a.74.74,0,0,0,0-.14.58.58,0,0,0,0-.14.44.44,0,0,0,0-.1,1.1,1.1,0,0,0,0-.18.15.15,0,0,0,0-.07v0h0l0-.63v0a1.08,1.08,0,0,0,0-.18v-.09c0-.05,0-.11,0-.16s0-.07,0-.1l0-.13a.89.89,0,0,0,0-.14.19.19,0,0,0,0-.07,1.21,1.21,0,0,0-.05-.18.08.08,0,0,1,0,0,1.08,1.08,0,0,0-.08-.19l0-.06-.09-.17a.61.61,0,0,0-.07-.1l-.07-.11s-.08-.09-.11-.14l0-.06a1.85,1.85,0,0,0-.14-.14l0,0-.13-.12a.18.18,0,0,1-.07,0l-.11-.08-.11-.07-.09-.05-.15-.08-.07,0-.17-.07h0l-9.53-3.39h0l-.17-.05-.23-.06-.11,0h-.52a3.08,3.08,0,0,0-.53.08h0L666.52,335l-.07,0-.08,0-1.1.35-.06,0-.07,0-1.25.49-.06,0-.06,0-1.26.56-.06,0-.05,0-1.26.63,0,0-.05,0-1.25.7s0,0,0,0l0,0-1.23.75-.08.05h0l-.08.05-.13.09-.13.11-.06.05,0,0h0l-2.66,2.44h0l-.06.07-.12.12h0l-2.58,2.86-.08.11-.07.08,0,0h0l-2.37,3.17-.06.09a.36.36,0,0,0-.07.1l-1.57,2.52-11.85,2h0l-.12,0-.13,0h0l-72.69,19.62-7.15-3.24,3.28-167.51c0-.11,0-.23,0-.35a2.09,2.09,0,0,0,0-.25l-.07-3.4s0-.07,0-.11v-.11L559,193.6s0-.07,0-.11,0-.07,0-.11l-.72-3.86,0-.1s0-.08,0-.11l-1-3.74a.76.76,0,0,1,0-.11.36.36,0,0,0,0-.11l-1.3-3.52h0v0a.47.47,0,0,0,0-.1.61.61,0,0,0-.05-.12l-1.57-3.28h0a.75.75,0,0,0-.07-.12l-.06-.11h0l-1.8-3h0l-.07-.09-.08-.14h0l-2-2.6a0,0,0,0,0,0,0,.76.76,0,0,0-.08-.11l-.1-.11h0l-2.16-2.19a0,0,0,0,0,0,0l0,0-1.34-1.29s0,0,0,0l-.11-.1-.1-.09h0l-2.42-1.84-.06,0-.12-.08-.12-.08-.06,0-2.49-1.33a1.15,1.15,0,0,0-.25-.12h0l-2-.81-.1,0-.1,0-2.39-.76h0l-.13,0-.12,0h0l-36.81-7.82L499,73.34l1,.14h.1l45.68,4.63h.54l1.28-.12h.07a.76.76,0,0,0,.21,0H548l.15,0,.09,0h0l1.33-.43.11,0,.1,0,.29-.14,1.26-.71h0l.22-.14.08-.06.1-.08,0,0h0l1.13-1s0,0,0,0l.1-.09.12-.13s0,0,.05,0l1-1.22,0,0,0-.07.15-.2,0,0,.85-1.4h0v0a1.3,1.3,0,0,0,.16-.31l0,0,.67-1.58s0,0,0-.05a1.42,1.42,0,0,1,0-.16l0-.1s0,0,0,0l.46-1.7v0l0-.15a.5.5,0,0,0,0-.12,0,0,0,0,0,0,0l.23-1.76a.06.06,0,0,1,0,0s0-.09,0-.14v-.14a0,0,0,0,0,0,0V63.74s0,0,0,0v-.14c0-.05,0-.09,0-.14v0l-.23-1.72s0,0,0,0l0-.14,0-.14v0l-.46-1.63a.14.14,0,0,0,0-.06l0-.13-.06-.13a.14.14,0,0,0,0-.06l-.67-1.48,0-.07a.75.75,0,0,1-.07-.12.57.57,0,0,0-.08-.13l0-.06-.87-1.3a.18.18,0,0,1,0-.07l-.1-.12-.09-.12-.07-.06-1-1a1.34,1.34,0,0,0-.21-.2,1.84,1.84,0,0,0-.22-.17l-1.16-.79h0l-.14-.08-.1-.06-.09,0-.16-.07h0l-1.27-.52h0l-.15-.06-.11,0-.12,0-.16,0h0l-1.34-.21h-.2l-46-3.52h-.4l-1.32.1h0l-.18,0h-.1l-.12,0-.15,0h0l-1.3.39-.19.06-.08,0h0l-.14.07-19.71-1.53-.4-.26h0a1.18,1.18,0,0,0-.19-.11l0,0,0,0-.21-.09-1.23-.47h0l-.17,0-.1,0-.11,0-.16,0h0l-1.29-.2h-.19l-38.36-2.93H435l-1.26.09h0l-.2,0h-.08l-.09,0-.18,0h0l-1.23.35-.27.09-.25.12-1.14.59h0l-.07,0-.15.09-.14.1-.07,0,0,0h0l-1,.83-.07.06-.11.1a1.14,1.14,0,0,0-.11.11l-.06.06-.93,1.06-.05.06-.09.12-.09.12,0,.06-.77,1.24,0,.06a3350563437694.9,3350563437694.9,0,0,1-.14.26s0,0,0,.05L425.62,51s0,0,0,0a1.21,1.21,0,0,0-.05.14.93.93,0,0,0,0,.13s0,0,0,.06l-.38,1.49a.43.43,0,0,1,0,0l0,.14s0,.09,0,.14,0,0,0,.05l-.16,1.54v0a.76.76,0,0,0,0,.15v.19l.06,1.55v.05a.57.57,0,0,0,0,.13c0,.05,0,.1,0,.15s0,0,0,.05l.28,1.51s0,0,0,.06a.35.35,0,0,0,0,.11c0,.06,0,.11,0,.16s0,0,0,.06l.49,1.42,0,.08,0,.08a2,2,0,0,0,.1.21h0v0l.68,1.27,0,0c0,.08.09.15.14.23l.05.07,0,0,.86,1.12,0,.05.13.15.09.1.06,0,1,.89s0,0,0,0l0,0,.09.07.1.09.23.15,1.1.67.3.17.1,0,.09,0,1.21.44h0l.11,0,.14,0h.09l.17,0h0l1.25.18h.09l38.15,3.86h.53l1.22-.1h.05l.22,0h0l.31,79.5L432,141a0,0,0,0,0,0,0l-.14,0-.14,0h0l-1.82-.17h-.09l-2.11-.13h-.37l-.21,0h0l-1.93.31h0l-.11,0-.14,0h0l-2,.52-.06,0-.13,0-.14,0-.05,0-1.84.79-.07,0-.13.07-.13.07-.07,0-1.73,1.11-.06,0-.07,0L416.69,145h0l-.06.05-.14.11-.12.12-.06.06,0,0h0l-1.49,1.6-.07.09a.3.3,0,0,0-.08.08l-1.16,1.47-.06.09-.06.08-1.28,1.91,0,0-.07.12a.75.75,0,0,0-.07.12l0,0-1.1,2.24h0a.61.61,0,0,1-.05.12l-.06.14h0l-.91,2.54,0,.09,0,.09-.37,1.33v0a0,0,0,0,0,0,0l-.66,2.59s0,.07,0,.11a.43.43,0,0,0,0,.11l-.45,2.78a.31.31,0,0,0,0,.1s0,.07,0,.1l-.24,2.93s0,.06,0,.1v.09l0,2.72v.12a2.43,2.43,0,0,0,0,.27L411,303.43l-5.5-2.49h0l-.14-.06h0l-.14-.05h0s0,0,0,0l-.14,0h0l-.14-.06h0l-.15-.06h0l-.15-.06h0l-.15,0a0,0,0,0,1,0,0h0l-.15-.06h0l-.16-.06h0l-.16-.05h0l-.16,0h0l-.2-.06h-.05l0,0-1.53-.44-.06,0-.06,0-1.12-.27h-.06l-1.91-.42h-.07l-.08,0-2.11-.34h-.13l-2.26-.26h-.11l-2.39-.16h-.1l-2.47-.07h-.1l-2.5,0h-.1l-2.51.12h-.1l-2.46.21h-.1l-2.39.3h-.11l-2.21.38h-.06L169.5,339h-.06l-2.66.58h-.06l-.06,0-2.56.67-.07,0-.07,0-2.35.76h0l-1.17.39-.06,0-.06,0-2.28.89-.09,0-.1,0-2,.94h0l-.11.06-.12.06h0l-1.62,1h0l-.12.08-.11.08h0l-1.34,1,0,0h0L151,346.88h0l0,0-.06,0-.13.11-.12.14-.06.06h0l-.9,1.08-.07.08-.06.08-1.07,1.5a1.58,1.58,0,0,0-.15.24c-.05.08-.09.17-.13.25l-.51,1.14a.36.36,0,0,1,0,.11s0,.07,0,.11l-.6,1.73a0,0,0,0,1,0,0h0s0,0,0,0l-.06.22,0,.12a.59.59,0,0,1,0,.13,1.8,1.8,0,0,0,0,.22v0h0v0l-.08,1.82h0l0,1.13h0v.12a1.09,1.09,0,0,0,0,.18.57.57,0,0,0,0,.13.49.49,0,0,1,0,.12c0,.07,0,.13,0,.19a.13.13,0,0,1,0,.06v0s0,0,0,0l.45,1.76s0,0,0,0l0,.1.06.16v0l.37.92a.05.05,0,0,1,0,0,2,2,0,0,0,.17.32h0l.09.14s0,0,0,0a.05.05,0,0,0,0,0l.06.1,0,0a.05.05,0,0,1,0,0l0,0,.7,1.19h0l.08.14v0l0,0,.06.1,0,0,0,0,.06.1,0,0,0,0,.07.1s0,0,0,0l0,0,.07.1,0,0,0,0,.08.09,0,0,0,0,.08.1,0,0,0,0,.09.1,0,0s0,0,0,0l.09.1,0,0,0,0,.09.09,0,0v0l.1.09,0,0,0,0,.11.1h0l1.24,1.13.1.09,0,0,0,0,1.64,1.4,1.73,16.71-.11.1v0h0l-.05,0-.14.14a.64.64,0,0,0-.1.13.2.2,0,0,0-.06.07h0l-.87,1.17,0,.06a.6.6,0,0,0-.09.13l-.07.11-.06.12c0,.05-.05.09-.07.14a.25.25,0,0,0,0,.07l-.46,1.18,0,0-.06.18a.3.3,0,0,0,0,.1.57.57,0,0,0,0,.14c0,.05,0,.09,0,.14a.37.37,0,0,0,0,.11,1,1,0,0,0,0,.17s0,0,0,.05l0,1.15v.17s0,.09,0,.13v0l1.45,13.88s0,0,0,.06a.59.59,0,0,0,0,.14l0,.14,0,.11a1.09,1.09,0,0,0,.05.17s0,0,0,.05l.43,1.14v0l0,.09.06.14a.56.56,0,0,1,.05.08c0,.05.06.11.09.17l0,0c0,.07.1.14.15.21h0l.88,1.07,0,0a.86.86,0,0,0,.13.14l.07.08h0L280.06,524l.12.09.06.06,0,0h0l2,1.58.06,0,.08.06.15.09.05,0,2.52,1.42h0l.28.13h0l2.94,1.2.09,0a.85.85,0,0,0,.17.06h0l3.35,1h.05l.18,0,3.68.74.11,0h.1l3.95.48h.18l4.14.2h.18l4.25-.07H309l4.28-.35.11,0h.06l4.24-.62h.17l4.11-.88.12,0h.06l3.91-1.11h.09l57.17-18.4-1.51,4.15s0,0,0,.05l0,.13,0,.14s0,0,0,0l-1.12,5.38v.06a.89.89,0,0,0,0,.14s0,.1,0,.15a.13.13,0,0,0,0,.06l-.25,5.24a.21.21,0,0,0,0,.08.38.38,0,0,0,0,.15.76.76,0,0,0,0,.15v.08l.61,4.9h0v0l0,.14s0,.06,0,.1.05.17.07.26l1.46,4.47h0l0,.09.06.15,0,.07.09.17,0,0,2.24,3.88h0a2.75,2.75,0,0,0,.19.28l.05.06.11.13,3,3.16,0,0,.11.1a.28.28,0,0,0,.1.09l0,0,3.14,2.55,0,0a1.33,1.33,0,0,0,.19.14h0l3.58,2.35h0a3.14,3.14,0,0,0,.31.18l.07,0,.16.06,4.08,1.48h0l.11,0,.14,0,.09,0,.17,0h0l4.46.57h0l.31,0h.25l4.64-.35h.19l.23,0h.06l4.78-1.26.06,0,.14,0,.14-.06.07,0,4.72-2.11h0a2.69,2.69,0,0,0,.29-.16l0,0,4.53-2.89,0,0,.14-.09a.27.27,0,0,1,.08-.07l0,0,4.22-3.59,0,0,.09-.09.12-.11,0,0,3.78-4.18,0,0c.07-.07.12-.15.18-.22l0,0,3.21-4.61h0l0,0c.06-.09.12-.18.17-.27s0,0,0,0l2.6-5s0,0,0,0,.05-.1.07-.16l0-.08v0l1.89-5.16a.06.06,0,0,0,0,0,1,1,0,0,0,.05-.16l0-.1a.43.43,0,0,1,0,0l1.13-5.2s0,0,0-.06a.77.77,0,0,0,0-.15s0-.08,0-.12v-.07l.33-5.09v-.07a.65.65,0,0,0,0-.14.76.76,0,0,0,0-.15v-.08l-.48-4.83s0-.06,0-.09a.77.77,0,0,0,0-.15.94.94,0,0,0,0-.16.24.24,0,0,0,0-.08v-.05h0l-1.27-4.37a1.43,1.43,0,0,0-.09-.27l-.12-.26L439.92,495v0l-.08-.13-.06-.11-.07-.08-.1-.14h0l-1.89-2.22,126.72-40.78h.05l.07,0,2.61-1,.26-.11,2.25-1.1.27-.16h0l1.87-1.23.06-.05.12-.09.1-.08.06,0,1.44-1.33.1-.1.07-.08a1.59,1.59,0,0,0,.2-.24l1-1.4v0a1.1,1.1,0,0,0,.14-.21h0l.11-.22,0-.09,0-.08.53-1.45h0l.06-.21a.09.09,0,0,0,0-.05.75.75,0,0,0,0-.16s0-.07,0-.1v-.05l0-.22.06-1.47v-.05l.39-14.9c0-.1,0-.2,0-.3a.43.43,0,0,0,0-.11.61.61,0,0,0,0-.14,2.46,2.46,0,0,0-.07-.29l-.28-1-.12-1.41a.13.13,0,0,1,0-.06c0-.05,0-.1,0-.15l0-.13a.53.53,0,0,0,0-.12.94.94,0,0,0,0-.16s0,0,0,0l-.56-1.58a2.87,2.87,0,0,0-.18-.4l-.06-.1h0l-.15-.22h0l-.93-1.23,0,0-.11-.13-.07-.08-.11-.1-.1-.09-.09-.07-.14-.1,0,0-1.24-.79-.12-.06-.12-.07-2.37-1.18.25-10.26.11-.06h.06l1.42-.8a.05.05,0,0,0,0,0h0l.14-.09,86.25-25,0,0v0c0,.09.12.18.18.27l.06.07.1.12,1.88,2,0,0,.13.12.09.08.11.09.11.08,0,0,2.21,1.43,0,0,.26.14.09.05.05,0,3.08,1.27.1,0,.09,0,2.48.8.08,0,.1,0a2.63,2.63,0,0,0,.49.07h0l2.67.15h.39l.13,0h.15l2.74-.51h0l.18,0,.08,0,.08,0,.18-.06,2.8-1.16h0l.1-.05.24-.13,0,0,2.75-1.75,0,0,.13-.09.09-.08.06,0,2.61-2.3,0,0,.08-.08.13-.13,0,0,2.38-2.76s0,0,0,0h0a1.5,1.5,0,0,0,.19-.25h0l2.1-3.17a2.26,2.26,0,0,0,.16-.26h0l1.77-3.46a0,0,0,0,1,0,0A.89.89,0,0,1,692,369a.14.14,0,0,1,0-.07h0l1.37-3.66v0a1.27,1.27,0,0,0,.06-.18s0,0,0-.07h0l.94-3.76v0l0-.15s0-.08,0-.11v0l.47-3.74v0c0-.05,0-.09,0-.14Z"/><path class="b" d="M416.91,517.85l.62.46.19.2.07.16.06.37-.05.55-.21.65-.35.64-.47.56-.5.4-.44.21-.29.06h-.1l-.18-.09-.72-.54,0,0,.06-.59.25-.81.44-.79.57-.68.63-.5Zm-5.62,7.87.93.7,0,0,.18.12.06,0,.17.09h0l.84.41h0l.19.08.08,0,.19.06.1,0,.15,0,.14,0,1,.11h.29a2.94,2.94,0,0,0,.51,0l1-.2h0l.12,0,.16-.05.11,0,.18-.07,0,0,1-.49,0,0,.16-.09.08,0,.12-.08.09-.07h0l.94-.75.1-.09.09-.08c.08-.07.14-.15.21-.22l.79-1,.05-.07.07-.09c.05-.08.11-.16.15-.24l0,0h0v0l.59-1.07a0,0,0,0,1,0,0l.09-.18s0,0,0,0a2,2,0,0,0,.08-.22h0v0l.37-1.15v0a.85.85,0,0,0,0-.17l0-.09s0-.08,0-.13,0-.09,0-.14h0l.11-1.16v-.05a.76.76,0,0,1,0-.15v-.13a.49.49,0,0,1,0-.12c0-.06,0-.11,0-.16s0,0,0,0l-.15-1h0v0s0,0,0-.07a1.16,1.16,0,0,0,0-.18.56.56,0,0,0,0-.12l0-.13s-.05-.1-.07-.16l0-.07,0,0h0l-.39-.86,0,0a1.09,1.09,0,0,0-.08-.15l-.05-.09-.07-.11-.08-.12-.07-.07a.76.76,0,0,0-.11-.14s0,0,0,0l-.65-.68-.06-.05-.11-.11-.11-.09-.06-.05-.94-.7a2.67,2.67,0,0,0-3.74.55.94.94,0,0,0-.09.12h-.06l-.11,0-.09,0-.08,0-.11,0,0,0-1,.49h0l-.1.05-.07,0-.07,0-.09.06h0l-1,.75-.14.13-.14.14-.79,1h0l0,0-.08.1a.41.41,0,0,0-.07.11l0,0h0l-.59,1.08h0s0,0,0,.06a.54.54,0,0,1-.05.11,1.46,1.46,0,0,0-.07.19l-.36,1.16h0a.5.5,0,0,0,0,.13.11.11,0,0,0,0,.05s0,.06,0,.09,0,.07,0,.1h0l-.11,1.17v0s0,.07,0,.11v.09a.25.25,0,0,1,0,.08s0,.08,0,.11V522A2.68,2.68,0,0,0,411.29,525.72Z"/><path class="b" d="M411.72,336.17l-1.53-.76,0,0-.14-.06-.12,0-.11,0-.16-.05h0l-1.36-.32h0l-.22,0-.36,0-.33-12.51,4.1,1.94Zm-32.55-18.88L381,317l1.85-.24,1.91-.17,2-.09,1.95,0,1.92.05,1.84.13,1.74.21,1.57.26.29.06.59.18.42,15.15-1.11-.14h-.13l-2.68-.2H393l-2.77-.09h-.11l-2.82,0h-.11l-2.81.15h-.12l-2.76.27h-.12l-2.68.37h-.13l-2.54.48H376L192.89,372.6l-17.71-14.27ZM467,368.9l-24.71-12.49L442,338.73l24.86,11.79Zm5.37-15.78,1.26.6h0l1.23.59.41.19.09,20.07-.53.05h-1.08l-1-.11-.37-.09,0-2.07-.12-19.27Zm34.91,36.14L479.11,375,479,356.28l28.37,13.45Zm7.34-16.1h0l1.28.61,1.15.54h0l.4.19v.23h0v2.54l0,3.92,0,4.05,0,4.05,0,3.93V395l-.7.14-1.08.1h-1.14l-1.07-.12-.68-.16,0-2.24.12-20.44Zm15.23,8.2-1.43-1.66,1.45.68Zm8.1,2.86,2.66,1.26,2.74,1.3L546,388l1.08.51-.75.21-2.65.74-2.76.76-2.68.75-2.42.67-.72.2v-.36h0l0-1.05v-.83h0V389h0v-.37h0v-.15h0l.07-4.83v-.73Zm-9.09,9.37-1.42.39-.07,0h0l-4.7-2.35,0-2.26,0-4,0-2.11,7,8.06v.19l0,1.93Zm-91-56.84.4.19.3,19-.43,0h-1l-.94-.1-.11,0-.08-4.74,0-.87v-.41h0l-.25-14.1.95.45Zm-20.16-9.55,2.23,1.05,2.36,1.12,2.35,1.12h0l2.15,1h0l1.82.87.89.42.24,13.39a2.74,2.74,0,0,0-1,.67h0l-.11,0h-.53l-.11,0h0l-2,.35-2.13.17-2.16,0-2-.21-1.66-.35-.67-.26-.11-4.8,0-.85v-.36h0v0l-.32-13.64ZM316,452.74l-2.62.65-2.57.47-2.63.33-2.68.18-2.63,0-2.56-.11-2.42-.25-2.23-.38-2-.51-1.19-.42,0,0-.1-.05-.11-.07-.09-.05-.1-.06-.09-.06-.1-.07-.08-.05-.1-.07-.07-.05-.08-.06-.06-.05-93.26-75.16L377,338.64l2.45-.46,2.56-.36,2.65-.25,2.71-.14,2.7,0,2.66.08,2.55.19,1.86.23,0,.66a2.67,2.67,0,0,0,2.67,2.6h.08a2.67,2.67,0,0,0,.85-.16h0l.12,0H401l.64.07h1l.68-.05.14,0h0l.6-.1.2,0h0a2.55,2.55,0,0,0,.74.1h.07a2.65,2.65,0,0,0,1.82-.78h.25l4.64,2.33.1,4.1a2.67,2.67,0,0,0,2.52,2.61l.4.29h0l.22.13,0,0,.14.05,1.48.57h.05s.05,0,.07,0l.11,0h0l1.91.41h0l.14,0h.06l2.19.22h.19l2.31,0H424l2.3-.18.16,0h0l1.5-.26,2.6,1.3.08,4.6a2.68,2.68,0,0,0,2.68,2.63h0a2.21,2.21,0,0,0,.37,0l.41.16h.05l.08,0,.1,0h0l1,.21h0l.15,0h0l1.11.11h1.56l1.17-.09h0l.17,0h0l.46-.08L467,373.11V375a2.67,2.67,0,0,0,2.67,2.66h0l.34,0,.65.25h0l.08,0,.1,0h0l1.06.24h0l.15,0h.05l1.18.13h.22l1.23,0h.18l1.23-.1h.19l.49-.09,30.29,15.3v2a2.68,2.68,0,0,0,2.66,2.69h0l.29,0h0l.93.37h0l.08,0ZM172.17,353.47l-2.29.52h-.06l-.19-.15h0l-.73-.59-.28-.22-.42-.34-.61-.49-.07-.06-.58-.47-.45-.35h0l-.6-.48-.13-.1a2.67,2.67,0,0,0-3.36,4.16l.13.11h0l.6.48h0l.44.35.58.47.07.06.61.49.42.33.28.23h0l.73.59,0,0,.69.55h0l.09.06h0l.42.34h0l0,0h0l0,0,23,18.52h0l97.65,78.71,0,0,0,0,.1.07s0,0,0,0h0l.11.08,0,0h0l.11.09h0l.12.08s0,0,0,0h0l.12.08h0l0,0,.13.08a2.73,2.73,0,0,0,1,.64l.51.18h0l1.44.51.23.07h0l2.21.56h.06l.14,0,2.42.42.12,0h.06l2.6.27H300l2.72.12h.15l2.79,0h.15l2.81-.2h.15l2.79-.35h.06l.09,0,2.71-.49.09,0h.06l2.74-.68h.08l208.65-58,1.25-.34.54-.15h0l2.41-.67,2.77-.77h0l.75-.2,1.4-.39,2-.55,2.41-.67,2.68-.75,2.76-.76h0l2.66-.73,2.35-.66,1.89-.52,1.29-.36.62-.17h0l1.51-.42.31-.09,1.1-.3,1.83-.52h.07l.09,0h0l.1,0h0l.09,0h0l.1,0h0l.1,0,.09,0h.09l0,0h.06l.09,0h0l.09,0,.08,0,.09,0,.72-.23h0l.09,0h0l.59-.19.1,0,.11,0,0,0h0l.56-.23.15-.06.33-.14h0l.27-.11h0l0,0,.12,0,.26-.13h0l1.24-.7a2.8,2.8,0,0,0-3.66-4.22l-.18.14-.24.19-.27.12h0l-.14.06-.49.21-.47.15-.09,0h0l-.73.23-.08,0-.09,0h0l-.09,0-.09,0h0l-.08,0-.1,0h0l-.1,0h0l-.1,0h0l-.1,0h0l-.09,0h0l-.07,0h0l-1.83.51-.45.12-.58-.27-.62-.29-1.28-.61-1.86-.88-2.32-1.11h0l-2.61-1.24h0l-2.73-1.3-2.66-1.26h0l-6.53-3.1-12.41-5.88-.34-.16h0l-.67-.32-.93-.44h0l-1.16-.55-1.28-.61h0L478.29,350h0l-1.13-.53-1.24-.59-1.27-.61-33.43-15.85-1.1-.51-1.2-.57-1.21-.58-4.42-2.09-.21-.11h0l-.81-.38-1.36-.65-1.83-.86-2.16-1h0l-2.35-1.11-2.37-1.13L420,322.36l-8.67-4.11h0l-5.6-2.65-.08,0h0l-.26-.12h0l-.42-.2-.55-.26-.63-.3-.7-.32-.69-.33-.65-.31-.56-.27-.42-.2h0l-.27-.13-.1,0h0l-.19-.09h0l-.09,0h0a0,0,0,0,1,0,0l-.1,0h0l-.1,0h0l-.1,0h0l-.1-.05h0l-.1,0s0,0,0,0h0l-.1,0h0l-.11,0h0l-.11,0h0l-.11,0h0l-.11,0h0l-.07,0h-.08l-1.12-.34-.09,0-.09,0-.47-.11h0l-.95-.22a2.69,2.69,0,0,0-.69-.06l-.23,0h-.06l-.07,0-1.86-.21h-.12l-2-.14h-.11l-2-.06h-.1l-2.06,0h-.1l-2.06.1h-.11l-2,.18h-.11l-2,.25h-.11l-1.91.34h-.07L172.23,353.46h-.06Z"/><path class="b" d="M528.58,189.44l0,0,.75,1,.71,1.19.63,1.35.55,1.47.42,1.55.3,1.6.19,1.76,0,1.63-2,156.41L523,354.19l1.53-165.73Zm-11,166.68a2.69,2.69,0,0,0,2,2.4l12.1,5.48h0a2.45,2.45,0,0,0,.54.18l.13,0,.13,0h.32a1.73,1.73,0,0,0,.32,0h.09l.29-.06h0a1.75,1.75,0,0,0,.32-.12l.06,0,.25-.13.06,0a2.48,2.48,0,0,0,.26-.19l.07-.07a1.07,1.07,0,0,0,.19-.18l.06-.07a2.56,2.56,0,0,0,.2-.26l0-.06a2,2,0,0,0,.15-.29l0,0v0a1.42,1.42,0,0,0,.08-.18s0-.05,0-.07,0-.1,0-.16,0-.07,0-.1,0-.06,0-.09l0-.17v-.05c0-.08,0-.15,0-.22h0L537.56,201v-.1l0-1.33a4,4,0,0,0,0-.49l0-.18h0l-.21-2a.3.3,0,0,0,0-.1.41.41,0,0,0,0-.11l-.34-1.81-.06-.33a3.2,3.2,0,0,0-.17-.55l-.3-1.09s0-.07,0-.11l0-.1-.62-1.69s0-.08,0-.11l0-.11-.73-1.55h0l-.05-.09a.91.91,0,0,0-.07-.14h0l-.84-1.41h0l-.07-.11-.08-.12h0l-.94-1.25s0,0,0,0l-.09-.11-.09-.11h0l-.34-.35s0,0,0,0a.94.94,0,0,1-.1-.1l-.1-.09,0,0-.25-.2-.06,0-.11-.08-.13-.08,0,0-.43-.24-.06,0-.15-.08-.13-.05-.11,0-.17,0-.06,0-.07,0-7.7-1.85h0l-.16,0-.12,0h-.53l-.18,0h-.07l-.22.05h0a2.9,2.9,0,0,0-.7.3h0l-.2.14h0l-.16.13s0,0-.05.05l-.12.12-.07.07-.09.12-.07.09a1,1,0,0,1-.08.11l-.06.11-.07.12a.54.54,0,0,0,0,.11l-.06.14a.3.3,0,0,1,0,.1c0,.06,0,.11,0,.17l0,.07v0l0,.16s0,.08,0,.12,0,.08,0,.12,0,.1,0,.16v0l-1.57,170.79h0v0h0v.21Z"/><path class="b" d="M466.73,328.7l-22.12-10-2.21-150,23.34,5.61Zm-27.44-8.24v.06c0,.05,0,.11,0,.16a.5.5,0,0,0,0,.12.69.69,0,0,0,0,.13.61.61,0,0,0,0,.13l0,.11c0,.05,0,.1,0,.15l0,.09.06.14,0,.1.07.13.06.1a.61.61,0,0,1,.07.1l.09.11.07.09.1.11.08.07a.52.52,0,0,0,.11.1l.09.08.11.08.11.07.1.06.15.08.06,0,27.47,12.44h0l.2.08.06,0,.2,0,.08,0,.14,0,.4,0h0l.33,0,.08,0a1.27,1.27,0,0,0,.28-.06h.06a3,3,0,0,0,.32-.12l0,0,.26-.14.07,0,.27-.2s0,0,0-.05l.19-.19.07-.07.2-.27,0,0a1.64,1.64,0,0,0,.16-.29l0,0a0,0,0,0,0,0,0,.87.87,0,0,0,.07-.17l0-.08c0-.05,0-.1,0-.15l0-.12a.5.5,0,0,0,0-.12.77.77,0,0,0,0-.15s0-.07,0-.1,0-.11,0-.17v0l-1-160.64s0,0,0-.06V172s0-.07,0-.1a.77.77,0,0,0,0-.15l0-.12,0-.13a.65.65,0,0,1,0-.13.49.49,0,0,1,0-.11l-.06-.13a.93.93,0,0,0-.05-.1s0-.09-.07-.13l-.06-.1a.76.76,0,0,0-.08-.11.86.86,0,0,0-.07-.1l-.08-.1-.09-.1-.09-.08-.1-.1-.09-.07-.12-.08-.09-.07-.12-.07-.12-.06-.11-.05-.14-.06-.1,0-.16,0-.07,0-28.72-6.91h0l-.16,0-.12,0h-.57l-.11,0-.14,0-.13,0-.12,0-.13,0-.11,0-.13.05-.1,0-.13.07-.09.06-.12.08-.1.08-.1.08-.1.09-.08.08-.1.12-.07.08-.08.12-.07.09-.07.13-.06.11a1.17,1.17,0,0,0,0,.11.78.78,0,0,0-.05.14.42.42,0,0,0,0,.1s0,.11-.05.16,0,0,0,0a.11.11,0,0,0,0,.05l0,.15s0,.09,0,.13,0,.08,0,.13v.16s0,0,0,.05Z"/><path class="b" d="M426.58,169.41l2.61,146.48s0,0,0,.06a.86.86,0,0,0,0,.16s0,.08,0,.12,0,.08,0,.13l0,.13,0,.11s0,.1.05.15a.36.36,0,0,0,0,.09l.06.14,0,.1.08.13s0,.06.06.1l.07.1.08.11.08.09.1.11.07.07.11.1.09.07.11.08.12.08.1.06.15.08s0,0,.05,0l.79.35h0l.19.08.07,0,.19.05.08,0,.16,0,.39,0h0l.31,0,.08,0a1.31,1.31,0,0,0,.27-.06l.07,0a2.19,2.19,0,0,0,.33-.12h0a2.64,2.64,0,0,0,.29-.15l.07-.05.26-.18,0,0,.22-.22.07-.08.21-.27h0a3.24,3.24,0,0,0,.17-.32v0l0,0a1.11,1.11,0,0,1,.07-.16l0-.1,0-.14,0-.12a.59.59,0,0,1,0-.13c0-.05,0-.1,0-.15s0-.07,0-.1v-.21l-2.68-152.73v0a1.21,1.21,0,0,0,0-.19.22.22,0,0,0,0-.08.55.55,0,0,0,0-.17s0-.06,0-.09,0-.09,0-.14a.56.56,0,0,0,0-.12.49.49,0,0,0,0-.11.69.69,0,0,0,0-.13l-.06-.11-.05-.12-.1-.15,0-.06-.14-.19h0a1.29,1.29,0,0,0-.16-.17l0,0-.14-.12a.12.12,0,0,0-.05-.05l-.11-.08-.11-.08-.07,0-.17-.09,0,0-.22-.09h0l-.23-.08h-.05l-.2,0h-.1l-.15,0h-.26l-.19,0h-.08l-.16,0-.1,0-.13,0-.13,0-.08,0-.16.06-.07,0-.16.09-.1.06-.11.07-.15.11,0,0a1.07,1.07,0,0,0-.16.14l0,0-.13.15,0,0-.09.13-.06.08a.6.6,0,0,0-.06.11l-.08.13,0,.08a1.3,1.3,0,0,0-.08.17v0l-.16.43a2.76,2.76,0,0,0-.08.27l-.09.34h0v0l0,.1a.51.51,0,0,0,0,.13l-.26,1.47a.45.45,0,0,0,0,.11.43.43,0,0,0,0,.11l-.16,1.74v.11s0,.06,0,.09l0,1.81h0v.11Z"/><path class="b" d="M481.9,330.24H482l.24,0h0l9,.12h.33l.22-.05h0l3.29-1,0,.67-.05,0a2.71,2.71,0,0,0-1,.85l-3,.91-8.38-.11-.79-.27v-1.18Zm7.94,8.93h0l1.61-.11.17,0h0l2.71-.46.22-.06h0l2.24-.68.06,0,.08,0,.17-.08h0l1.48-.78,0,.42-.22.26-.46.25h0l-.06,0-.71.38-1.37.43-.91.28-1.09.19h0l-1.9.33-.67,0-.51,0Zm-4.35-160.09h0l1.64.39,1.61.39,1.53.37,1.41.33,1.24.3.53.13-.24,142.1v0h0v1.2l-.39.15-1,.28-1.21.22-1.35.16-1.44.09h-1.47l-1.44-.07-1.37-.15-1.23-.21-.54-.14-.51-146.6,1.07.25h0l1.54.38Zm22,168.11-5.67-2.58V341.7h0l.07-.07.14-.14,0,0,1-1.12,0,0,0,0,.12-.16,0-.06.1-.15a.25.25,0,0,1,0-.07c0-.05.05-.1.07-.14l0-.09s0-.09.05-.13,0-.07,0-.11,0,0,0-.08a1,1,0,0,0,0-.17l.18-.76v0a.17.17,0,0,0,0-.07,1.13,1.13,0,0,0,0-.18c0-.05,0-.1,0-.15v-.13h0l0-1.18h0v-.15a.57.57,0,0,0,0-.13v0l-.07-.82a2.7,2.7,0,0,0,0-.28.24.24,0,0,0,0-.08,1.16,1.16,0,0,0,0-.18c0-.09-.06-.18-.1-.27l-.3-.73h0l0,0,0-.06a.89.89,0,0,0-.08-.17.3.3,0,0,0-.06-.11.41.41,0,0,0-.07-.11.71.71,0,0,0-.1-.14l0-.07,0,0h0l-.51-.64-.35-.44v0h0l-.49-.6h0l0,0,0-.05a.86.86,0,0,0-.13-.14l-.08-.09-.11-.09-.13-.1-.06-.05,0,0h0l-.59-.41v0a.36.36,0,0,0,0-.1l.06-1.34v-5.22a1,1,0,0,0,0-.17s0-.07,0-.11,0-.09,0-.14a.79.79,0,0,0,0-.13.45.45,0,0,0,0-.11.57.57,0,0,0,0-.14l0-.1-.06-.15a.36.36,0,0,1,0-.09l-.08-.13a.33.33,0,0,0-.06-.1.75.75,0,0,0-.07-.12l-.08-.1a.86.86,0,0,1-.07-.1.94.94,0,0,1-.1-.1l-.07-.08-.12-.1-.08-.07-.12-.09-.1-.07-.11-.07-.12-.07-.1-.05-.15-.06-.05,0-.13-.05.23-139,9.72,2.34Zm-31.12-21.53h0v.26h0v6.54h0v.24h0v3.21h0v.38l0,.51a2.66,2.66,0,0,0,1.19,2.39,2.78,2.78,0,0,0,.95.73l1.89.85.56.26,2.58,1.17h0l.11,0,2,.91,1.76.79h0l.18.08h0l1.48.66,1.18.54,2.83,1.28,2.33,1.06h0l1.66.75.89.4.07,0h0l11,5h0l.23.09h0l.25.07h0l.27,0h.31l.31,0,.09,0a1.5,1.5,0,0,0,.29-.06h0a2.19,2.19,0,0,0,.33-.12l.05,0,.25-.14.07,0a2.48,2.48,0,0,0,.26-.19l.06-.06.19-.18.07-.08a2.56,2.56,0,0,0,.2-.26l0-.06a2.54,2.54,0,0,0,.16-.28v0a1,1,0,0,0,.07-.18.19.19,0,0,0,0-.07,1,1,0,0,0,0-.16l0-.1s0-.08,0-.12a.77.77,0,0,0,0-.15s0-.06,0-.09,0-.12,0-.18v0l1-168.81v-.07a1,1,0,0,1,0-.17.43.43,0,0,0,0-.11.77.77,0,0,0,0-.15.5.5,0,0,0,0-.12,174622193064.91,174622193064.91,0,0,1-.08-.26.36.36,0,0,0,0-.11l-.05-.14a.31.31,0,0,1,0-.1l-.07-.12-.06-.1-.08-.12a.86.86,0,0,1-.07-.1l-.08-.09-.09-.11-.08-.07-.11-.1-.08-.07-.13-.09-.09-.07-.12-.07-.12-.06-.11-.06-.14,0-.1,0-.17,0-.06,0-15.08-3.62h0l-.24-.06h0l-.52-.13h-.07l-.72-.18h0l-1-.24-1.24-.3h0l-1.41-.34-1.52-.37h0l-1.61-.38-1.64-.4h0l-1.63-.39-1.54-.37h0l-1.43-.34h0l-1.26-.31h0l-1.06-.25-.62-.15h0l-.16,0-.12,0h-.66l-.15,0-.12,0-.13,0-.13,0-.11,0-.14.06-.09,0-.13.07-.1.06-.12.08-.09.07-.1.08-.1.09-.08.09a.94.94,0,0,0-.1.1l-.07.09a.83.83,0,0,0-.08.12.36.36,0,0,0-.07.1.41.41,0,0,0-.07.11s0,.08-.07.12a.54.54,0,0,1-.05.11l-.06.14,0,.1a1.42,1.42,0,0,0,0,.16.11.11,0,0,1,0,.06s0,0,0,0a.88.88,0,0,0,0,.16.5.5,0,0,0,0,.12.53.53,0,0,0,0,.13.76.76,0,0,0,0,.15v0Z"/></svg>