<svg xmlns="http://www.w3.org/2000/svg" viewBox="0 0 595.3 841.9"><defs><style>.a{fill:#083d69;}.a,.b{fill-rule:evenodd;}.b{fill:#fff;}</style></defs><title>PM002B_C</title><path class="a" d="M0,785.23A56.63,56.63,0,0,0,56.66,841.9h481.9a56.7,56.7,0,0,0,56.74-56.67V56.66A56.69,56.69,0,0,0,538.56,0H56.66A56.62,56.62,0,0,0,0,56.66Z"/><path class="b" d="M42.67,799.44H56.85v-31L64,759.41l22.25,40h17.28L74,748.1l26-33.62-17.57.07-25.56,33.7-.07-33.7-14.11-.14Zm66,0h14.47v-85H108.69Zm72.07-28.3a24,24,0,0,1-2.95,9,14.54,14.54,0,0,1-12.53,7.06c-9.86,0-19.36-9.51-19.36-31.11,0-21.38,9.21-30.45,18.93-30.45,8.35,0,13.83,5.47,15.41,15l13.46-.86c-1-8.35-3.52-14-7.34-18.65-4.54-5.47-11.52-9.5-21.74-9.5-26.21,0-33.2,27.65-33.2,44.42,0,29.24,15.27,46.16,33.34,46.16,14.83,0,28.87-11.24,30.1-30.75ZM203,799.44H217.2v-31l7.12-9.07,22.18,40h17.28L234.33,748.1l26-33.62-17.56.07-25.56,33.7-.08-33.7L203,714.41Zm66-35.28h39.6V749.61H269Zm48.88,8.57c0,15.69,9.43,29.59,29.45,29.59s28.87-13.32,28.87-27.65c0-10.66-5.4-20.38-17.21-24l-16.34-5.11c-4.82-1.51-5.4-2.31-6.34-3.6a8.91,8.91,0,0,1-1.79-5.62c0-4.89,3.38-10.8,13.17-10.8A13.44,13.44,0,0,1,358.17,730a15.78,15.78,0,0,1,3.24,9.22l13.68.14c-.58-9.36-3.17-15-6.91-19.23-3.89-4.46-11.3-8.56-21.31-8.56-18.22,0-26.57,12.6-26.57,26.56,0,10.81,4.89,19.66,16.92,23.41l14,4.32c2.52.79,6.19,1.44,8.5,5a11.74,11.74,0,0,1,1.72,5.69c0,5.47-3.38,11.74-14.54,11.74-10.87,0-15.26-7-15.12-15.41Zm81.65,26.71h14.19V728.66h20.8V714.41H378.69v14.25h20.88Zm40.18,0H491V784.82H453.93V761.49H486.4v-14H454V728.66h36.44V714.41H439.75Zm75.31-43.78V728.3h12.31c8.43,0,12,7.06,12,13.75,0,7.71-4.32,13.76-12.81,13.68Zm-14.18,43.78h14.18v-30l14,.08c9.65,0,15.26-4,18.79-9.51a33.3,33.3,0,0,0,4.9-17.93c0-16.41-8.71-27.64-23.4-27.64H500.88Z"/><path class="b" d="M294.74,385.58l-4.85-.12-4.82-.31-4.76-.5-4.65-.69-4.54-.87-4.4-1-4.22-1.21-4-1.37L254.67,378l-3.58-1.66-3.31-1.78-3-1.89-2.75-2-2.45-2.07-2.15-2.14-1.82-2.18L234.06,362l-1.2-2.24-.88-2.25-.58-2.25-.28-2.24v-2.24l.29-2.24.59-2.23.88-2.21,1.17-2.21,1.46-2.17,1.75-2.13,2-2.08,2.29-2,2.55-1.93,2.8-1.85,3-1.74,3.23-1.64,3.44-1.52,3.62-1.39L264,322.2l3.93-1.13,4.05-1,4.15-.83,4.25-.68,4.32-.53,4.37-.38,4.4-.22,4.41-.05,4.4.09,4.38.26,4.33.41,4.27.57,4.18.73,4.09.87,4,1,3.82,1.16,3.66,1.29,3.49,1.43,3.3,1.54,3.08,1.66,2.86,1.77,2.63,1.86,2.37,1.95,2.1,2,1.83,2.08,1.55,2.14,1.26,2.16,1,2.19.68,2.21.39,2.23.11,2.23-.19,2.24-.48,2.26-.78,2.26-1.09,2.26-1.4,2.25-1.73,2.23-2,2.18-2.35,2.13-2.65,2.06-2.95,2L342.73,375l-3.48,1.75-3.73,1.63-3.95,1.48-4.15,1.33-4.34,1.17-4.49,1-4.62.82-4.72.64-4.8.45-4.85.27Zm42.2,2.15,4.48-1.69.06,0,0,0,4.24-1.85.07,0,.05,0,4-2,.08,0,.05,0,3.68-2.15.09-.06,0,0,3.38-2.28,0,0,.1-.07,3.06-2.4.06-.05.07-.07,2.73-2.5.08-.08.07-.06,2.38-2.59.11-.13,0,0,0,0h0l2-2.64c.05-.07.1-.13.15-.21l1.66-2.71a1.19,1.19,0,0,0,.12-.22h0l1.3-2.76,0,0,.06-.15a.14.14,0,0,0,0-.07h0l.94-2.79v0s0-.09,0-.14a.29.29,0,0,0,0-.09v0l.57-2.81a0,0,0,0,1,0,0s0-.09,0-.13,0-.08,0-.12v0l.09-1.27.12-1.53v-.32l-.16-2.79v0s0-.08,0-.12,0-.09,0-.13v0l-.52-2.77v0a.5.5,0,0,0,0-.12.65.65,0,0,0,0-.13v0l-.87-2.73h0l0-.12a.61.61,0,0,0-.05-.12v0l-1.21-2.67h0a.54.54,0,0,0-.05-.11l-.06-.11h0l-1.55-2.61h0v0l-.12-.18h0l-1.85-2.52h0v0l-.07-.08-.07-.09,0,0-2.16-2.44-.08-.07a.46.46,0,0,0-.07-.07l-2.48-2.36-.07-.06-.07-.06-2.76-2.26-.07-.05a.18.18,0,0,0-.07-.05l-3-2.14-.06,0-.07,0-3.29-2-.06,0-.06,0-3.53-1.89-.06,0-.05,0-3.75-1.74-.06,0-.05,0-3.95-1.6-.06,0-.05,0-4.13-1.45-.06,0-.05,0-4.3-1.29h0l-.05,0-4.44-1.14h-.1l-4.57-1h-.1l-4.68-.8h-.09l-4.77-.64h-.09l-4.83-.46H308l-4.89-.29H303l-4.92-.11H298l-4.92.06H293l-4.91.24H288l-4.88.42H283l-4.81.59h-.09l-4.75.76h-.09l-4.66.93h-.09l-4.54,1.1h-.09l-4.41,1.26h-.05l0,0-4.25,1.41,0,0-.06,0L251,317.79l-.05,0-.06,0L247,319.55s0,0-.05,0l-.06,0-3.68,1.85-.06,0-.06,0-3.46,2-.06,0-.06,0-3.22,2.11-.06,0-.07,0L233.18,328l-.06.06-.07.05-2.68,2.34-.07.06-.07.06L227.84,333a.46.46,0,0,1-.07.07l-.07.08-2.07,2.5h0l-.08.1-.06.08v0h0l-1.76,2.58-.06.11a.61.61,0,0,0-.07.1l-1.44,2.67h0a.61.61,0,0,0,0,.12l-.06.11h0l-1.1,2.72h0s0,.08,0,.13,0,.07,0,.11v0l-.76,2.76v0l0,.13,0,.12v0l-.4,2.8v0a.62.62,0,0,0,0,.13.53.53,0,0,0,0,.12v0l0,2.81v0a.62.62,0,0,0,0,.13v.15l.14,1.16.19,1.65v0a.52.52,0,0,0,0,.11.59.59,0,0,0,0,.13,0,0,0,0,0,0,0l.69,2.8v0a.19.19,0,0,1,0,.08.78.78,0,0,1,0,.14v0l1.07,2.78h0l0,.06a1,1,0,0,0,.07.15v0l1.43,2.73h0l.13.22,1.79,2.66h0l.14.19,2.15,2.6,0,0a.52.52,0,0,0,.1.11l2.5,2.53.07.06.08.07,2.84,2.42.1.08.05,0,3.17,2.31.1.07,0,0,3.49,2.19,0,0,.09.06,3.79,2,0,0,.08,0,4.06,1.89.06,0,.07,0,4.32,1.73.06,0,.06,0,4.56,1.56.07,0,0,0,4.78,1.37h0l.07,0,5,1.18h0l.06,0,5.13,1h.1l5.25.78h.1l5.35.57h.1l5.43.35h.1l5.47.14h.09l5.48-.08h.1l5.45-.3h.1l5.4-.51h.1l5.32-.73h.1l5.21-.94h.1l5.07-1.13.06,0h0l4.9-1.33h0l.07,0,4.7-1.51.05,0Z"/><path class="b" d="M336,390.36l-5.52,1.52-5.74,1.29-5.9,1.07-6,.83-6.13.59-6.2.34-6.23.09-6.21-.16-6.16-.4-6.08-.65-5.95-.89-5.8-1.13-5.61-1.35L253.09,390,248,388.18l-4.84-2-4.54-2.14-4.2-2.3-3.85-2.44-3.47-2.56L224,374.1l-2.69-2.75L219,368.53l-1.88-2.87-1.47-2.9-1.08-2.91-.68-2.92-.3-2.91.08-2.9.46-2.89.83-2.88,1.19-2.85,1.57-2.82,1.93-2.77,2.28-2.7,2.62-2.63,3-2.54,3.27-2.43,3.56-2.31,3.84-2.18,4.11-2,4.33-1.89,4.56-1.72,4.75-1.57,4.92-1.39,5.07-1.21,5.21-1,5.3-.84,5.4-.66,5.45-.46,5.49-.27,5.5-.07,5.5.13,5.46.31,5.41.51,5.33.7,5.24.89,5.11,1.08,5,1.26,4.81,1.43,4.61,1.61,4.39,1.76,4.18,1.93,3.91,2.07,3.65,2.21,3.35,2.33,3,2.45,2.72,2.55,2.38,2.64,2,2.71,1.67,2.77,1.32,2.81.94,2.85.58,2.87.2,2.89-.1,1.73-.07,1.17-.55,2.93-.94,2.92-1.34,2.93-1.74,2.9-2.15,2.87L369.61,372l-2.95,2.75-3.34,2.65L359.6,380l-4.08,2.42-4.42,2.26-4.73,2.1-5,1.91Zm35.83-6.69,3.74-3,.07-.06.08-.06,3.32-3.13.09-.09.06-.06,2.89-3.23.11-.14,0,0,0,0h0l2.43-3.3.14-.21,2-3.38a1.71,1.71,0,0,0,.13-.23h0l1.54-3.43v0l.06-.15a.25.25,0,0,0,0-.07v0l1.08-3.47a0,0,0,0,0,0,0,.65.65,0,0,0,0-.13s0-.07,0-.1a0,0,0,0,1,0,0l.62-3.48a0,0,0,0,1,0,0s0-.08,0-.13,0-.08,0-.12v0l.07-1.36h0l.1-2.12v-.31l-.28-3.45v0a10.13,10.13,0,0,1,0-.25v0l-.72-3.41v0a.56.56,0,0,0,0-.12.42.42,0,0,0,0-.12v0l-1.15-3.36h0a.61.61,0,0,0-.05-.12.49.49,0,0,0,0-.11h0l-1.56-3.29h0l-.06-.11-.06-.11h0l-2-3.2h0a.76.76,0,0,0-.08-.11l-.05-.09h0l-2.36-3.1-.07-.09-.07-.07,0,0h0l-2.72-3a.46.46,0,0,1-.07-.07l-.07-.07-3.11-2.88-.07-.06-.06-.06-3.45-2.74-.06,0-.07-.05-3.77-2.61-.06,0-.07,0-4.07-2.45-.06,0-.06,0-4.35-2.28-.06,0-.06,0-4.62-2.12-.06,0-.05,0-4.86-1.94-.05,0,0,0L344.9,308l0,0-.05,0-5.27-1.56,0,0h-.05L334,305h-.1l-5.59-1.18h-.09l-5.72-1h-.09l-5.83-.76h-.09l-5.9-.55h-.09l-6-.34s0,0,0,0h0l-6-.13h-.09l-6,.08h-.09l-6,.29h-.09l-5.95.5h-.08l-5.89.71h-.09l-5.8.92h-.09l-5.68,1.12h-.1L257,306l-.05,0h-.05l-5.4,1.52h0l-.05,0-5.22,1.7,0,0-.05,0-5,1.9-.05,0-.06,0-4.79,2.07-.05,0-.06,0-4.54,2.25-.06,0-.06,0-4.28,2.41,0,0-.07,0-4,2.57-.06,0-.07,0-3.67,2.72a.18.18,0,0,0-.07.05l-.06.05-3.35,2.85-.07.06-.06.06-3,3-.07.08-.07.07-2.61,3.07h0l0,0a.5.5,0,0,1-.07.08l-.06.09,0,0h0l-2.23,3.16h0l-.07.1-.06.1h0l-1.85,3.26h0a.37.37,0,0,0-.05.11l-.06.11h0l-1.44,3.34v0s0,.08,0,.12,0,.08,0,.11v0l-1,3.4v0l0,.12,0,.13v0l-.57,3.44s0,0,0,0a.62.62,0,0,1,0,.13s0,.08,0,.12v0l-.13,3.47v.16a.62.62,0,0,0,0,.13v0l.16,1.76h0l.16,1.72v0a.52.52,0,0,1,0,.11.68.68,0,0,1,0,.14v0l.78,3.47v0a.31.31,0,0,0,0,.08c0,.05,0,.1,0,.14a.08.08,0,0,1,0,0l1.24,3.44v0l0,.06a.67.67,0,0,0,.06.15l0,0,1.69,3.4h0l.13.22,2.16,3.34a2.43,2.43,0,0,0,.14.2l2.59,3.24h0l0,0,.11.12,3.05,3.16.07.06.08.08,3.48,3,.09.07.05.05,3.9,2.9.1.06,0,0,4.3,2.75,0,0,.09.06,4.68,2.58,0,0,.09,0,5,2.39.06,0,.07,0,5.36,2.18.06,0,.06,0,5.67,2H248l0,0,5.94,1.74h0l.07,0,6.19,1.5h.1l6.4,1.25h.1l6.56,1h.1l6.7.73h.1l6.78.45h.1L294,405h.1l6.85-.1h.1l6.83-.38h.1l6.75-.65h.1l6.65-.92h.1l6.5-1.18.06,0h.05l6.32-1.44.06,0h0l6.1-1.67,0,0,.07,0,5.85-1.91.05,0,.06,0,5.57-2.13.06,0,.05,0,5.25-2.34.07,0,.05,0,4.91-2.53.08-.05,0,0,4.51-2.69h0l0,0,.1-.07,4.16-2.86,0,0Z"/><path class="b" d="M291.65,375.26l-3.5-.22-3.47-.36-3.39-.5-3.31-.62-3.2-.75-3.08-.87-2.94-1L266,369.87l-2.62-1.19-2.43-1.28L258.71,366l-2-1.43-1.81-1.48-1.57-1.53L252,360l-1.12-1.59-.89-1.59-.66-1.59-.45-1.59-.24-1.58,0-1.58.18-1.58.38-1.58.59-1.58.8-1.59,1-1.56,1.23-1.55,1.43-1.52,1.65-1.48,1.84-1.43,2-1.37,2.21-1.29,2.37-1.22,2.53-1.14,2.67-1,2.79-.95,2.91-.84,3-.74,3.09-.63,3.16-.51,3.22-.4,3.26-.29,3.28-.16,3.29-.05,3.29.08,3.27.19,3.23.32,3.18.42,3.11.55,3,.66,2.94.76,2.83.87,2.71,1,2.57,1.06,2.42,1.16,2.26,1.23,2.08,1.31,1.9,1.38,1.7,1.43,1.5,1.48,1.29,1.52,1.09,1.54.86,1.56.66,1.56.45,1.57.24,1.57,0,1.58-.17,1.59-.38,1.59-.59,1.6-.82,1.61-1,1.61-1.27,1.59-1.5,1.57-1.73,1.53-2,1.48-2.16,1.42-2.36,1.34L327.64,369l-2.73,1.17L322,371.21l-3,1-3.17.84-3.27.72-3.37.59-3.44.46-3.49.33-3.53.19-3.54.05Zm7.62,8.75,4.13-.22h.09l4.09-.38h.09l4-.54h.1l3.94-.69.05,0h0l3.84-.84.06,0h0l3.72-1h0l.07,0,3.58-1.13.05,0,0,0,3.41-1.27.06,0,.06,0,3.23-1.39.07,0,.05,0,3-1.51.08,0,.05,0,2.82-1.61.09-.06,0,0,2.59-1.72.05,0,.09-.07,2.36-1.8.06-.06.08-.06,2.11-1.89.07-.07.07-.06,1.86-2,.1-.12,0-.05,0,0h0l1.57-2a1.27,1.27,0,0,0,.13-.19h0l1.32-2.05.12-.22h0l1-2.1s0,0,0,0a.77.77,0,0,0,.07-.16.14.14,0,0,0,0-.06h0l.76-2.13a0,0,0,0,0,0,0,.78.78,0,0,0,0-.14.29.29,0,0,1,0-.09v0l.48-2.14a0,0,0,0,0,0,0,.68.68,0,0,0,0-.14.43.43,0,0,0,0-.11v0l.12-1.21.09-.94v0a.49.49,0,0,0,0-.12V351l-.07-2.14v0a.53.53,0,0,1,0-.13s0-.08,0-.12v0l-.34-2.13s0,0,0,0l0-.12a.5.5,0,0,0,0-.13v0l-.62-2.1h0a.56.56,0,0,0,0-.12.56.56,0,0,0,0-.12v0l-.89-2.06h0l-.06-.12s0-.07-.05-.1h0l-1.14-2-.05-.08-.09-.13-1.38-1.94h0v0a.27.27,0,0,0-.07-.08l-.07-.1h0L349,335.17l-.07-.08-.07-.07L347,333.19l-.07-.07-.07-.06-2.1-1.75-.06-.05a.18.18,0,0,1-.07-.05l-2.31-1.66-.07,0-.06-.05-2.51-1.57-.07,0-.06,0-2.7-1.47-.06,0-.06,0-2.87-1.36-.06,0-.06,0-3-1.25-.05,0-.06,0-3.18-1.14h-.06l0,0-3.32-1-.05,0h-.05l-3.43-.89h-.1l-3.53-.77h-.1l-3.62-.63H313l-3.69-.49h-.09l-3.75-.36h-.09l-3.78-.22h-.09l-3.81-.08h-.08l-3.82.05h-.08l-3.81.19h-.08l-3.78.33H286l-3.73.46h-.09l-3.67.6h-.1l-3.59.72-.05,0h0l-3.51.86-.05,0h0l-3.4,1-.05,0h0l-3.28,1.1-.05,0,0,0-3.14,1.22-.05,0-.06,0-3,1.33-.06,0-.06,0-2.82,1.44-.06,0-.06,0L252.29,329l-.06,0-.07,0-2.45,1.64-.06,0-.07,0-2.24,1.73-.07.06-.07.05-2,1.81-.07.07-.07.06-1.8,1.88-.07.08-.07.08-1.55,1.94h0l-.08.1-.06.08h0l-1.3,2-.08.12a.93.93,0,0,1,0,.1l-1.06,2.05h0a1.34,1.34,0,0,0-.06.12l-.05.11h0l-.8,2.09v0a618126410252.33,618126410252.33,0,0,0-.08.24v0l-.53,2.12v0a.43.43,0,0,0,0,.12l0,.12v0l-.26,2.13v0a.57.57,0,0,1,0,.13v.16l0,2.14v0a.49.49,0,0,0,0,.12.53.53,0,0,0,0,.13v0l.08.58.22,1.57v0a.43.43,0,0,0,0,.11.31.31,0,0,0,0,.13v0l.58,2.13v0l0,.08a.58.58,0,0,0,.05.14.08.08,0,0,0,0,0l.86,2.1h0c0,.08.07.16.12.24l1.13,2.08.14.21,1.41,2h0l0,0,.13.17,1.66,1.94,0,0,0,.05.1.11,1.94,1.9a.27.27,0,0,0,.08.07l.07.06,2.19,1.83.1.07,0,0,2.44,1.74.1.07,0,0,2.67,1.64.05,0a.26.26,0,0,0,.09.05l2.89,1.54,0,0,.08,0,3.1,1.42.06,0,.06,0,3.3,1.3.06,0,.05,0,3.47,1.17.07,0,0,0,3.63,1h0l.06,0,3.76.89h.05l.06,0,3.88.73h.09l4,.58h.1l4,.43h.1l4.1.26h.09l4.13.11h.1l4.14-.06h.09Z"/><path class="b" d="M292.84,335l2.14-.11,2.15,0,2.14.06,2.13.12,2.1.21,2.07.28,2,.36,2,.43,1.9.5,1.82.57L315,338l1.65.7,1.53.74,1.43.8,1.31.84,1.18.87,1.06.91.91.92.77.94.64.94.51.94.36.93.24.93.12.92v.92l-.11.93-.25.94-.37.95-.52,1-.65,1-.8,1-.95,1L322,358l-1.23.92-1.37.88-1.5.84-1.63.79-1.73.73-1.84.67-1.93.6-2,.52-2.08.45-2.14.37-2.19.29-2.22.21-2.24.12-2.25,0-2.25-.06-2.23-.14-2.2-.22-2.16-.31-2.1-.39-2-.47-2-.55-1.87-.61-1.77-.68-1.66-.75-1.54-.8-1.42-.84-1.27-.89-1.14-.91-1-.94-.85-1-.7-.95-.56-1-.41-.95-.29-.93-.16-.93,0-.92.08-.93.2-.93.33-.94.46-.95.6-1,.73-1,.88-.95,1-.93,1.15-.91,1.27-.87,1.4-.83,1.5-.79,1.62-.74,1.71-.68,1.8-.62,1.88-.55,1.94-.48,2-.42,2.06-.34,2.09-.26Zm5.56,39,2.83-.15h.09l2.8-.25h.1l2.76-.36h.09l2.71-.47h.1l2.64-.57.06,0h0l2.55-.67h0l.07,0,2.46-.77h0l.06,0,2.35-.86.06,0,.06,0,2.23-.94.07,0,.05,0,2.1-1,.07-.05.05,0,2-1.1.09-.06,0,0,1.81-1.17,0,0,.09-.06,1.65-1.24.06-.05.08-.06,1.48-1.29.07-.07a.46.46,0,0,0,.07-.07l1.31-1.34.09-.1,0-.06,1.13-1.38.12-.17v0h0l.94-1.41a1.59,1.59,0,0,0,.13-.22l.75-1.45,0,0L337,356l0-.05h0l.56-1.47s0,0,0,0,0-.1.05-.15a.24.24,0,0,0,0-.08v0l.37-1.48a0,0,0,0,1,0,0c0-.05,0-.09,0-.14a.36.36,0,0,0,0-.1,0,0,0,0,1,0,0l.1-.9,0-.31,0-.27v0a.62.62,0,0,0,0-.13.57.57,0,0,0,0-.13V349s0-.08,0-.12v0l-.2-1.48v0a.59.59,0,0,0,0-.13l0-.12v0l-.4-1.46h0a.65.65,0,0,1,0-.13.49.49,0,0,1,0-.11v0l-.58-1.44h0a.37.37,0,0,0-.05-.11.67.67,0,0,0-.06-.12h0l-.76-1.4a1,1,0,0,0-.08-.14.56.56,0,0,1-.05-.08l-.93-1.36h0a.31.31,0,0,0-.07-.09.61.61,0,0,0-.07-.1h0l-1.1-1.32-.07-.07-.07-.08-1.28-1.29-.08-.06-.06-.07-1.44-1.22-.07-.06-.07-.06L328.94,335l-.07,0-.07-.05-1.73-1.1-.07,0-.06-.05-1.87-1-.06,0-.06,0-2-1-.06,0-.06,0-2.11-.88-.06,0-.05,0-2.22-.8h-.05l-.06,0-2.31-.72h-.05l-.05,0-2.4-.63h-.1l-2.48-.54h-.09l-2.54-.45h-.1l-2.59-.36h-.09l-2.63-.25h-.09l-2.65-.16H300l-2.68-.06h-.09l-2.67,0h-.09l-2.67.13h-.09l-2.65.23H289l-2.62.32h-.09l-2.58.42h-.09l-2.52.51,0,0H281l-2.45.6-.05,0h-.05l-2.37.69-.05,0-.06,0-2.28.78-.06,0-.05,0-2.19.86-.05,0-.06,0-2.08.94-.05,0-.06,0-2,1-.06,0-.06,0-1.83,1.09-.06,0-.07,0-1.69,1.15-.06,0-.07.05-1.54,1.21-.07.06-.07.06-1.39,1.27-.07.07-.07.07L258.78,340l-.07.08-.07.08,0,0-1,1.33h0l-.06.08-.07.11h0l-.88,1.39-.06.11-.06.1h0l-.71,1.43h0a1.17,1.17,0,0,0,0,.11.61.61,0,0,0-.05.12h0l-.53,1.46h0a.93.93,0,0,0,0,.13l0,.12v0l-.33,1.47v0l0,.12a.59.59,0,0,1,0,.13v0L254.5,350v0a.49.49,0,0,0,0,.12v.16l0,1.48v0a.49.49,0,0,0,0,.12s0,.09,0,.13a0,0,0,0,1,0,0l.06.41h0l.18,1.08v0a.3.3,0,0,0,0,.1l0,.14a0,0,0,0,0,0,0l.43,1.47v0a.24.24,0,0,1,0,.08l.06.15a0,0,0,0,1,0,0l.63,1.45h0l.11.23.82,1.42a1.64,1.64,0,0,0,.14.22l1,1.38h0l0,0,.12.15,1.19,1.35s0,0,.05.06l.09.1,1.37,1.3.07.07.07.06,1.54,1.25.1.07,0,0L264.5,366l.1.07,0,0,1.86,1.12.05,0,.08.06,2,1,.05,0,.08,0,2.14,1,.06,0,.06,0,2.27.88.07,0,.05,0,2.39.79.07,0,0,0,2.49.69h0l.07,0,2.58.6h.1l2.67.5h.1l2.72.4h.1l2.77.28h.1l2.81.17h.09l2.83.07h.1l2.83,0h.09Z"/><path class="b" d="M293.84,344.08l1-.09,1-.05h1l1,0,1,.06.94.09.94.13.9.17.88.19.84.23.81.25.76.28.71.3.66.33.6.34.54.35.47.36.42.36.34.36.28.35.21.33.17.32.1.29.07.28,0,.27v.27l0,.27-.08.29-.13.31-.18.33-.25.35-.31.37-.37.37-.45.37-.51.38-.58.36-.64.35-.69.33-.76.32-.79.28-.85.26-.88.23-.92.19-.94.16-1,.13-1,.09-1,0h-1l-1,0-1-.06-1-.1-1-.14-.93-.16-.89-.21-.85-.23-.82-.26-.76-.3-.72-.31-.65-.33-.6-.35-.53-.36-.46-.37-.4-.36-.33-.36-.26-.35-.2-.33-.15-.31-.09-.29-.06-.28v-.53l.06-.28.09-.29.15-.32.2-.33.26-.35.33-.37.39-.37.45-.37.53-.37.58-.35.64-.34.7-.32.74-.31.8-.27.83-.25.87-.22.9-.19.92-.16ZM289,336.3l-1.42.3h-.1l-1.38.35H286l-1.34.4-.05,0-.06,0-1.28.44-.06,0-.05,0-1.23.49-.05,0-.06,0-1.16.54-.06,0s0,0-.06,0l-1.1.57-.06,0-.06,0-1,.62-.06,0-.07,0-.94.66-.06.05-.07,0-.86.69-.07.06-.06.05-.77.72-.07.07-.07.08-.66.72h0v0l-.07.08-.07.09,0,0h0l-.55.74h0l0,.05-.1.14h0l-.48.78h0l-.06.11-.06.11h0l-.38.81h0l-.05.12a1.17,1.17,0,0,1,0,.11v0l-.27.81v0l0,.12,0,.13v0l-.17.82v0s0,.08,0,.13,0,.08,0,.12v0l-.06.83v.31l.05.83v0a.41.41,0,0,0,0,.11.68.68,0,0,0,0,.14v0l.06.31,0,.2h0v0h0l.06.28v0a.29.29,0,0,1,0,.09,1,1,0,0,1,0,.14,0,0,0,0,1,0,0l.26.82v0a.19.19,0,0,1,0,.07l.06.15,0,0,.36.81h0a1,1,0,0,0,.12.23l.47.79.14.21.56.75h0v0s0,0,0,0l.11.14.68.74,0,.06.09.09.77.72a.27.27,0,0,1,.08.07.18.18,0,0,1,.07,0l.86.69.1.07,0,0,1,.66.1.06,0,0,1.05.62,0,0,.08.05,1.12.57.06,0,.07,0,1.19.53.06,0,.06,0,1.26.48.07,0,.05,0,1.32.43.07,0h0l1.38.38h0l.06,0,1.44.33h0l.06,0,1.47.27h.09l1.51.22h.1l1.53.16h.09l1.55.09h.1l1.56,0h.09l1.56,0h.1l1.56-.08h.09l1.54-.14h.1l1.52-.2h.1l1.49-.26h.1l1.46-.31.06,0h0l1.41-.37h0l.07,0,1.36-.42h.05l.06,0,1.31-.47.05,0,.06,0,1.24-.52.06,0,.06,0,1.17-.56.07,0,.05,0,1.09-.61.09-.05,0,0,1-.64,0,0,.1-.07.92-.68.06,0,.08-.06.83-.71.08-.07.07-.07.74-.73.09-.11.05,0,.64-.76.12-.16,0,0h0l.53-.77.14-.22.43-.8c.05-.08.08-.16.12-.24h0l.33-.81a0,0,0,0,0,0,0l.06-.15,0-.07v0l.22-.83a0,0,0,0,0,0,0l0-.14s0-.06,0-.1v0l0-.16h0v-.05h0l.08-.6a0,0,0,0,1,0,0,.53.53,0,0,1,0-.13.62.62,0,0,1,0-.13v-.88a.57.57,0,0,0,0-.13v-.12s0,0,0,0l-.09-.82s0,0,0,0a.5.5,0,0,0,0-.12.43.43,0,0,0,0-.12v0l-.2-.82v0l0-.12,0-.12v0l-.3-.81h0A.61.61,0,0,0,320,346l0-.11h0l-.41-.79h0a.47.47,0,0,0-.07-.12l-.06-.1h0l-.5-.76h0l-.07-.1-.07-.09h0l-.58-.71h0l0,0-.07-.07-.07-.09-.71-.73-.07-.06-.07-.07-.79-.69-.08-.06-.06-.06-.89-.66-.07-.05-.06,0-1-.63-.07,0-.06,0-1-.59-.07,0-.06,0-1.12-.54,0,0-.06,0-1.19-.5-.06,0-.05,0-1.25-.45-.05,0-.05,0-1.31-.41h0l-.05,0-1.35-.36h-.11l-1.39-.31h-.1l-1.43-.26h-.1l-1.46-.2h-.09l-1.49-.15h-.09l-1.5-.09h-.09l-1.52,0h-.08l-1.52,0h-.09l-1.51.08h-.09l-1.5.13h-.09l-1.48.19h-.09l-1.46.24H289Z"/><path class="b" d="M94.3,388.24l1.73,5v0a.25.25,0,0,1,0,.07c0,.05,0,.1.07.15v0l3.79,7.8h0l.13.23,4.89,7.69h0l0,.06.08.1,0,0,6,7.52h0l0,0,.13.15,7.06,7.32.08.07.08.08,8.14,7.07.11.08,0,0,0,0h0l9.18,6.74.11.08,0,0h0l10.2,6.38.05,0,.09.05,11.19,6,.05,0,.09,0,12.1,5.52.06,0,.07,0,13,5s0,0,.07,0l.05,0,13.74,4.45.08,0h0l14.42,3.85,0,0h.07l15,3.22h.11L242.13,476h.11l15.9,1.87h.11l16.17,1.17h.11l16.32.45H291l16.36-.27h.11l16.27-1h.11l16.07-1.7H340l15.75-2.39h.11l15.32-3.06.06,0h0l14.78-3.69h0l.08,0,14.15-4.3,0,0,.08,0,13.42-4.87.06,0,.07,0,12.61-5.39.05,0,.08,0h0l11.72-5.85.09-.05.05,0,10.79-6.28h0l.12-.08,9.82-6.67,0,0,.1-.08,8.79-7,.07-.06a.27.27,0,0,0,.08-.07l7.74-7.26.09-.1.06-.06,6.66-7.49,0,0,.08-.1,0,0,0,0h0l5.56-7.65a1.53,1.53,0,0,0,.14-.21l4.48-7.78a1,1,0,0,0,.12-.23h0l3.4-7.85v0l.06-.15a.19.19,0,0,1,0-.07v0l1-3.49,11.77,127.57h0v.11h0l.08.87L510,514l.2,2.09.9,9.78-.1,9.84-1.17,9.93-2.27,10-3.39,10-4.53,9.9L494,585.25l-6.86,9.59-8,9.34-9.15,9-10.27,8.61L448.34,630,436,637.58l-13.33,7-14.21,6.34-15,5.6-15.72,4.83-16.31,4-16.79,3.12-17.15,2.22L310.06,672l-17.47.35-17.43-.59-17.27-1.53-17-2.45-16.54-3.35-16-4.21-15.34-5-14.58-5.79-13.73-6.52-12.8-7.16L140.14,628l-10.73-8.27L119.78,611l-8.49-9.09-7.33-9.4-6.16-9.64-5-9.8L89,563.12l-2.7-10-1.58-10-.49-9.9.27-4.75,0-.47.2-3.52.06-1.07.22-1.36a2.48,2.48,0,0,0-.06-1l0-.61.14-2,.08-1.14h0l0-.26v0h0ZM111.4,146l1.42,2.68,0,0a1.14,1.14,0,0,0,.15.23s0,0,0,0h0l3.56,4.84,0,0a1.15,1.15,0,0,0,.14.17l0,0h0l4.36,4.58L105.06,400.42l-.84-1.33-3.67-7.55L97.94,384l-1.57-7.57-.57-7.53.37-6.86a1,1,0,0,1,0-.1.64.64,0,0,1,0-.07.94.94,0,0,0,0-.16.29.29,0,0,0,0-.09l0-.14a.41.41,0,0,1,0-.11s0-.08,0-.13v-.27s0-.07,0-.11,0-.07,0-.11l0-.14s0-.06,0-.08Zm56.26-12.4-5.25-3.33-4.47-3.41-3.69-3.46-2.91-3.47-2.16-3.45-1.41-3.4-.73-3.35-.06-3.31.57-3.31,1.23-3.31,1.87-3.32,2.53-3.31,3.17-3.27,3.79-3.21,4.38-3.12,4.95-3L175,77.63l6-2.75,6.43-2.59,6.85-2.44,5-1.54L194,70.16l-.05,0,0,0-6,2.44,0,0-.06,0-5.55,2.58-.06,0-.06,0L177,78.06l-.06,0-.07,0L172.28,81l-.07,0-.08,0-4.11,3-.08.06-.08.06-3.56,3.09a1.54,1.54,0,0,0-.19.17h0l-3,3.18h0l-.08.1-.08.09v0l-2.42,3.27,0,0a.61.61,0,0,0-.07.1l-.07.11,0,0-1.81,3.34a.14.14,0,0,0,0,.06l-.06.12-.05.12a.14.14,0,0,0,0,.06l-1.16,3.35h0v0l0,.07,0,.14a.7.7,0,0,0,0,.14.19.19,0,0,0,0,.08l-.51,3.4v0h0v.07c0,.06,0,.11,0,.17v.25h0l.15,3.4v0h0s0,.06,0,.09,0,.09,0,.14a1.7,1.7,0,0,0,0,.22h0s0,0,0,0l.11.48h0s0,0,0,0l.71,3,0,.11s0,.06,0,.08l.09.22h0l1.53,3.46,0,0a1.49,1.49,0,0,0,.13.25.08.08,0,0,1,0,0h0l2.23,3.43a0,0,0,0,0,0,0,1.33,1.33,0,0,0,.14.19l0,.05h0l2.93,3.38h0l.13.13.05.06h0l3.62,3.3h0a1.39,1.39,0,0,0,.19.15l4.32,3.23.16.11,5,3.12,0,0,.1.06,5.67,3,0,0,.08,0,6.31,2.84.05,0,.07,0,6.91,2.67.06,0,0,0,7.5,2.49h.06l0,0,8,2.28h0l.06,0,8.54,2.06h0l0,0,9,1.82h.08l9.39,1.57h.08l9.74,1.32h.07l10,1h.07l10.24.76h.07l10.4.47h.07l10.49.19h.07l10.51-.11h.07l10.46-.4H311l10.35-.68h.07l10.18-1h.07l9.93-1.24h.08l9.62-1.51h.08l9.26-1.76h.08l8.85-2,0,0h0l8.37-2.23h0l.06,0,7.86-2.43,0,0,.06,0,7.31-2.62.06,0,.05,0,6.73-2.8.06,0,.06,0,6.1-3,.08,0,.05,0L412,132.4l.11-.07,0,0,4.78-3.19h0l.17-.12,4.1-3.29.14-.12s0,0,.05,0l3.42-3.36h0l0,0L425,122v0l2.72-3.42h0l0,0,.15-.21s0,0,0,0l2-3.45h0c0-.07.07-.14.11-.2a.64.64,0,0,1,0-.07.36.36,0,0,0,0-.09l1.33-3.46.08-.23s0-.06,0-.09a.43.43,0,0,1,0-.11v-.05h0l.45-2.41h0v0l.17-1h0v0a.13.13,0,0,1,0-.06,1,1,0,0,1,0-.17.92.92,0,0,1,0-.16v-.07h0v0l0-3.38v0s0,0,0-.07a.92.92,0,0,0,0-.16,1,1,0,0,0,0-.16.13.13,0,0,0,0-.06v0h0l-.68-3.38a.31.31,0,0,1,0-.08.65.65,0,0,0,0-.13s0-.09,0-.14l0-.07-1.33-3.35,0-.06a.61.61,0,0,0,0-.12l-.06-.11,0-.06-2-3.29,0,0-.07-.1-.08-.11,0,0-2.57-3.21h0l-.08-.09a.73.73,0,0,0-.08-.09v0l-3.14-3.1h0l-.09-.08-.08-.08h0l-3.69-3-.08-.06-.08-.06-4.23-2.9-.08,0-.07-.05-4.73-2.76-.06,0-.07,0-5.2-2.63-.06,0-.06,0-5.64-2.48-.06,0-.05,0-6.06-2.32-.05,0,0,0-3.7-1.24,3.31,1,6.93,2.31,6.51,2.47,6.07,2.63L416,78.33l5.06,2.91,4.51,3,3.93,3.13,3.31,3.2,2.69,3.26,2,3.27,1.39,3.29.75,3.28.11,3.3-.54,3.33-1.22,3.4-1.94,3.45-2.68,3.49-3.46,3.5-4.23,3.47-5,3.41L415,134.35l-6.49,3.2-7.19,3-7.87,2.86-8.49,2.67-9.07,2.44-9.61,2.2-10.08,1.94-10.49,1.66-10.85,1.38-11.11,1.07-11.32.76L301,158l-11.5.12-11.48-.2-11.37-.52-11.2-.84-10.95-1.15L233.84,154l-10.23-1.74-9.78-2L204.57,148l-8.7-2.5-8.08-2.72-7.42-2.91-6.72-3.07Zm123.6-.91-6.54-.11-6.48-.29-6.39-.46-6.26-.62-6.1-.79-5.89-1-5.65-1.1-5.39-1.24-5.08-1.38-4.76-1.5-4.41-1.62-4-1.71-3.63-1.8-3.21-1.86-2.77-1.91-2.34-2-1.88-1.94L209,109.49l-1-1.88-.62-1.82-.25-1.78.1-1.78.45-1.79.81-1.83,1.2-1.87,1.6-1.88,2-1.89,2.38-1.86,2.76-1.82,3.1-1.76L225,85.84l3.75-1.61,4-1.52,4.31-1.42L241.63,80l2-.49-.35.1h-.08l-3.8,1.27-.05,0h0l-3.57,1.36,0,0-.05,0-3.32,1.45-.06,0-.06,0-3,1.52-.06,0-.07,0L226.21,87l-.07.05-.07,0-2.48,1.67-.07.06-.08,0-2.15,1.72h0l-.08.07-.09.08h0l-1.83,1.76h0l-.08.1-.09.09h0l-1.51,1.82,0,0-.07.1-.08.11v0l-1.16,1.86,0,0-.06.12a.37.37,0,0,0,0,.11l0,.05-.8,1.9s0,0,0,.07,0,.09-.05.13l0,.13,0,.07-.42,1.88v0a.2.2,0,0,1,0,.07l0,.16a.76.76,0,0,1,0,.15v.1h0l-.06,1.86v0h0v.23c0,.06,0,.12,0,.17a.17.17,0,0,1,0,.07h0v0l.2,1.16h0v0l.11.66h0V106s0,.07,0,.11,0,.06,0,.09a1.55,1.55,0,0,0,.07.23l.7,1.92a.36.36,0,0,0,0,.09.64.64,0,0,1,0,.07,2,2,0,0,0,.11.2h0l1.07,1.9s0,0,0,0l.14.21s0,0,0,0h0l1.45,1.87,0,0,.14.16,0,0h0l1.83,1.84h0l.1.09.09.08h0l2.2,1.79.18.13,2.56,1.73,0,0,.11.08,2.92,1.66,0,0,.09.05,3.25,1.58.06,0,.07,0,3.58,1.5.06,0,.05,0,3.89,1.4.06,0,.05,0,4.18,1.3.06,0h0l4.45,1.19h.09l4.7,1.08h.08l4.91.95h.08l5.11.82h.07l5.28.68h.07l5.41.54h.07l5.52.4h.07l.42,0,1,0,4.15.18h.07l.85,0,4.79.08h.32l5.05-.05h.41l4.68-.17,1,0H303l4.05-.25.82-.06.71,0h.06l5.49-.5h.07l5.38-.65h.07l5.22-.78H325l5-.91h.07L335,128H335l4.62-1.16h.09l4.37-1.28h0l.06,0,4.1-1.38,0,0,.06,0,3.8-1.48.06,0,.05,0,3.49-1.57.07,0,.05,0,3.16-1.65.09-.06.05,0,2.8-1.71h0l.15-.1,2.45-1.77h0l.17-.13,0,0h0l2.07-1.81,0,0,.15-.15h0l1.72-1.87h0l0,0a.9.9,0,0,0,.15-.19l0,0,1.35-1.89h0l0,0c.05-.08.1-.16.14-.24s0,0,0,0l1-1.92a2,2,0,0,0,.1-.21s0,0,0-.07l0-.1.58-1.91a2.17,2.17,0,0,0,.07-.24s0-.08,0-.12a.3.3,0,0,0,0-.1v0h0l0-.19h0v0h0l.18-1.64h0v0a.15.15,0,0,0,0-.07s0-.1,0-.16a1,1,0,0,0,0-.17V102h0l-.16-1.85h0v0s0,0,0-.08,0-.1,0-.15l0-.14s0-.05,0-.08v0h0l-.52-1.86a.25.25,0,0,0,0-.07s0-.08,0-.13a.61.61,0,0,1-.05-.12s0,0,0-.07l-.9-1.87s0,0,0,0l-.06-.11a.41.41,0,0,0-.07-.11l0,0-1.24-1.84,0,0-.08-.1-.07-.1,0,0-1.59-1.8h0l-.08-.09-.09-.09h0l-1.9-1.73h0l0,0-.09-.07-.08-.07h0l-2.22-1.67-.08,0-.08-.06-2.55-1.61-.07,0-.07,0-2.84-1.54-.07,0-.06,0-3.12-1.47-.06,0-.05,0-3.38-1.38-.05,0-.05,0-3.63-1.29h0l0,0-3.46-1.07,1,.23L349,80.29l4.37,1.34,4.11,1.45,3.82,1.53,3.51,1.63L368,88l2.83,1.76,2.47,1.82,2.09,1.85,1.7,1.86,1.3,1.85.91,1.82.54,1.79.19,1.77-.15,1.77-.51,1.82-.91,1.87-1.32,1.93-1.76,2-2.2,2-2.65,1.95-3.08,1.92-3.5,1.86L360,121.3,355.71,123l-4.65,1.59-5,1.48-5.29,1.34-5.58,1.21-5.82,1.07-6,.91-6.22.75-6.34.58-6.46.41-6.52.24ZM283,108.71l-1.83-.29-1.77-.32-1.69-.37-1.59-.41-1.5-.44-1.39-.48-1.26-.51-1.14-.52-1-.54-.87-.55-.72-.53-.56-.52-.42-.48-.29-.42-.16-.36-.08-.31,0-.26,0-.29.1-.32.21-.38.32-.45.46-.49.6-.53.75-.54.88-.54,1-.54,1.14-.52,1.25-.5,1.37-.48,1.46-.44,1.54-.41,1.38-.32h0l.26-.06.83-.16h0l.87-.17.93-.16-.69.21,0,0h-.05l-.85.3,0,0-.05,0-.8.32-.05,0-.06,0-.73.34-.06,0-.07,0-.66.36-.07,0-.07,0-.59.38-.08,0-.08.05-.52.39-.09.07-.08.07h0l-.43.38h0l-.09.08-.09.09h0l-.37.4,0,0a1,1,0,0,0-.08.11l-.08.09v0l-.29.42,0,0-.07.11s-.05.08-.06.11l0,0-.21.42,0,.07-.05.12-.05.12a.14.14,0,0,1,0,.07l-.12.39h0v0s0,0,0,.07l0,.15a.68.68,0,0,0,0,.14s0,0,0,.08v0h0l0,.36v0h0a.2.2,0,0,1,0,.07v.16a.85.85,0,0,0,0,.16v.08h0l0,.37v0a.29.29,0,0,0,0,.09s0,.09,0,.13l.06.24,0,.07.1.34,0,.11,0,.07a.78.78,0,0,0,.09.21h0l.05.1h0l.15.33,0,0c0,.08.09.16.14.24a.08.08,0,0,1,0,0h0l.07.1h0l.1.16h0l.11.16a0,0,0,0,1,0,0l.14.18,0,0h0l.37.41h0l.15.15,0,0,.43.38h0a2.31,2.31,0,0,0,.19.14l.52.39.14.1h0l.6.37,0,0,.1.06.67.35,0,0,.08,0,.74.34.06,0,.06,0,.81.32.05,0h.05l.87.3.06,0h0l.93.27h0l.05,0,1,.24h.08l1,.23h.07l.43.08-.19,0Zm8.92-8.58h.13l.6,0,.32,0h1.47l.6,0h.05l.53,0,.57.05h0l.55.07.47.07h.08l.51.1.4.08h0l.08,0h0l.44.11.43.12.39.13.34.13h0l-.22.09-.37.14-.41.13-.46.12-.48.12-.51.1-.54.09-.56.08-.58.07-.59.05-.6,0-.6,0h-1.22l-.61,0-.59,0-.58-.06-.56-.06-.55-.09-.52-.09-.48-.11-.46-.11-.43-.13-.39-.13-.29-.11.27-.11.38-.14.41-.12.46-.13h0l.48-.11.49-.1.55-.09.53-.07h0l.57-.06Zm10.38,8.7.59-.12H303l1-.24,0,0h0l1-.27h.09l.91-.29,0,0,.06,0,.85-.31.05,0,.06,0,.79-.33.06,0,0,0,.73-.35.08,0,.05,0,.65-.37.1-.06,0,0,.57-.37h0l.14-.11.5-.38h0l0,0,.15-.13h0l.41-.4h0l.16-.18h0l.35-.41s0,0,0,0l.15-.21,0,0,.05-.09h0l.07-.09h0l.14-.23h0s0,0,0,0,.1-.18.14-.27l0,0,.08-.2h0l.1-.23a1.43,1.43,0,0,0,.08-.22l0-.08s0-.07,0-.11l.05-.21h0l.05-.19v0h0a.06.06,0,0,0,0,0l0-.18a.71.71,0,0,0,0-.14.28.28,0,0,0,0-.09v0l0-.36h0v-.25a1.11,1.11,0,0,1,0-.17.17.17,0,0,1,0-.07h0l0-.36h0v0a.19.19,0,0,0,0-.08.68.68,0,0,0,0-.14.93.93,0,0,1,0-.13l0-.08V99.6l-.14-.38a.14.14,0,0,1,0-.06.61.61,0,0,1-.05-.12l-.06-.12,0-.06-.24-.42a.08.08,0,0,0,0,0l-.07-.11a.61.61,0,0,0-.07-.1l0,0-.32-.41v0l-.08-.09-.09-.1v0l-.39-.4-.1-.09-.09-.08-.47-.39-.09-.06-.07-.06-.55-.38-.07,0-.08,0-.61-.36-.07,0-.07,0-.68-.35-.06,0-.06,0-.75-.32-.06,0-.05,0-.81-.3-.05,0-.05,0-.87-.28-.05,0h0l-.49-.14.57.08.79.14.93.17.49.1,1.16.24,1.57.38,1.49.42,1.38.45,1.29.48,1.17.5,1,.52.92.53.78.53.64.52.49.5.36.45.23.4.13.33.05.28v.27l-.06.3-.14.35-.25.41-.38.48-.53.51-.68.54-.83.56-1,.55-1.1.55-1.24.52-1.35.5-1.47.48-1.57.43-1.66.4-1.74.36-1.82.32-1.88.27Zm-30.09,6.41-3-.58-2.9-.64-2.74-.72-2.58-.78-2.39-.84-2.19-.89-2-.94-1.76-1-1.52-1-1.29-1-1-1-.8-1-.56-.9-.35-.85-.18-.79,0-.76.14-.79.3-.82.49-.89.72-.93.94-1,1.17-1,1.39-1,1.61-1,1.81-.93,2-.9,2.18-.85,2.35-.8,2.5-.75,2.64-.69L269,89l.83-.18h0l.12,0,.37-.07-1.82.55-.05,0h0l-1.84.64h-.05l-.05,0-1.71.68-.06,0-.05,0-1.59.72-.06,0-.06,0-1.45.76-.06,0-.07,0-1.3.79-.08.06-.07,0-1.12.8h0l0,0-.08.06-.09.07-1,.85-.07.06-.12.11-.82.87v0l-.09.09-.08.1s0,0,0,0l-.66.89,0,0-.07.11-.06.1,0,0-.49.91s0,0,0,.06l-.05.12a.61.61,0,0,0,0,.12.19.19,0,0,0,0,.07l-.3.87h0l0,0,0,.08s0,.09,0,.14l0,.14s0,0,0,.08v0h0l-.12.85v0h0a.2.2,0,0,0,0,.07c0,.06,0,.11,0,.16v.24h0v0l0,.86h0v0a.28.28,0,0,0,0,.09.66.66,0,0,0,0,.14c0,.07,0,.15,0,.22h0v0l.15.63h0l.06.27,0,.09a.29.29,0,0,1,0,.09,1,1,0,0,0,0,.1l0,0,0,.08h0l.4.89a.05.05,0,0,0,0,0c0,.09.08.17.13.26l0,0h0l.59.9s0,0,0,0,.09.13.15.19l0,0h0l.77.89h0a1.85,1.85,0,0,0,.14.14l.05,0h0l.92.86h0l.18.15,1.11.84.15.1h0l1.26.81.05,0,.1.06,1.44.78.05,0,.08,0,1.59.74.06,0,.06,0,1.74.7.05,0,.05,0,1.88.65.06,0h0l2,.6h0l.06,0,2.12.54h.09l2.23.5h.08l2.32.43H277l2.42.37h.07l1.78.22-2.62-.25-3.26-.41Zm40.48.13-3.23.47-3.31.39,2.32-.34h.07l2.39-.42H311l2.3-.48h.08l2.2-.53.05,0h0l2.09-.59h0l.05,0,2-.64h0l.06,0,1.83-.69a.11.11,0,0,0,.06,0l.05,0,1.7-.73.07,0,0,0,1.55-.77.08,0,.05,0,1.38-.8h0l.13-.08,1.22-.83h0l0,0,.14-.1,1.06-.86.19-.17h0l.89-.88,0,0,.16-.18h0l.71-.9h0l0,0c.05-.07.1-.14.14-.21s0,0,0,0l.54-.92h0a1.24,1.24,0,0,0,.1-.2s0,0,0-.06a.36.36,0,0,0,0-.09l.31-.78h0l0-.06h0l0-.07c0-.08.05-.15.07-.23a.29.29,0,0,0,0-.09l0-.11.16-.87h0v0h0v0a.22.22,0,0,1,0-.08s0-.1,0-.15v-.15s0,0,0-.08v0h0v-.88h0v-.08a.76.76,0,0,0,0-.15,1,1,0,0,0,0-.17.13.13,0,0,1,0-.06v0h0l-.18-.89s0,0,0-.08,0-.09,0-.13,0-.09,0-.13l0-.08-.36-.91,0-.06a.61.61,0,0,0,0-.12l-.06-.12,0-.05-.54-.9,0,0-.07-.11-.07-.1s0,0,0,0l-.71-.88h0l-.08-.1-.09-.09h0l-.87-.85h0l-.06-.06-.11-.1h0l-1-.83-.09-.06-.07-.06L327,92.6l-.08,0-.07,0-1.34-.77-.07,0-.07,0-1.48-.73-.06,0-.06,0-1.62-.7-.05,0-.06,0-1.74-.65h-.05l-.05,0-1.86-.6h-.05l-.05,0-1.47-.41,1.32.27h0l1.31.27,2.67.64,2.54.7,2.38.76,2.23.81,2,.86,1.86.91,1.66.93,1.45,1,1.22,1,1,1,.77.93.55.89.35.83.17.78,0,.77-.13.78-.3.84-.5.89-.73,1-1,1-1.22,1-1.46,1-1.69,1-1.92,1-2.13.93-2.34.88-2.52.83-2.7.77-2.86.7-3,.63Zm-30.85,9L277,124l-4.79-.47-4.66-.6-4.51-.71-4.33-.83-4.13-.94-3.91-1L247,118.29l-3.39-1.22-3.11-1.29-2.81-1.36L235.2,113,233,111.57l-1.82-1.46-1.47-1.46-1.14-1.43-.81-1.38-.5-1.33-.23-1.29,0-1.27.27-1.28.53-1.33.83-1.38,1.14-1.41,1.46-1.43,1.76-1.43,2.06-1.4,2.35-1.37,2.61-1.32L243,88.35l3.11-1.2L249.42,86,253,85l3.72-1,.88-.19-1.82.54h0l-.05,0-2.81,1-.05,0-.05,0-2.64,1-.05,0-.06,0-2.44,1.09-.07,0-.05,0-2.25,1.15-.06,0-.07,0L243,90l-.07,0-.07,0-1.8,1.25-.09.06-.08.06-1.55,1.29h0l-.11.1-.07.07h0l-1.31,1.33h0l-.08.09-.08.1h0l-1.06,1.36,0,0-.08.11-.06.1s0,0,0,0l-.81,1.39,0,0-.06.12,0,.12a.14.14,0,0,0,0,.06l-.54,1.41s0,0,0,.07,0,.09,0,.13l0,.14a.19.19,0,0,1,0,.07l-.25,1.39s0,0,0,0h0s0,.05,0,.08a.77.77,0,0,0,0,.15,1,1,0,0,0,0,.17v.07h0V103h0s0,0,0,.08a.76.76,0,0,0,0,.15,1,1,0,0,0,0,.17.13.13,0,0,1,0,.06v0h0l0,.22h0l.16.74v0l.08.39,0,.1a.94.94,0,0,0,0,.09,2,2,0,0,0,.07.23l.57,1.41a.05.05,0,0,1,0,0c0,.09.08.18.13.27a.05.05,0,0,1,0,0h0l.85,1.4s0,0,0,0a1.43,1.43,0,0,0,.14.2l0,0h0l1.12,1.37v0l.15.15,0,0h0l1.39,1.35h0l.18.16,1.67,1.31.17.12,1.93,1.26,0,0,.11.07,2.18,1.21.05,0,.09.05,2.43,1.15,0,0,.07,0,2.66,1.09.06,0,.05,0,2.88,1,.06,0,0,0,3.09.94h.06l0,0,3.28.86h0l.05,0,3.45.77h.08l3.61.68H268l3.74.59h.07l3.87.49h.07l4,.39h.07l.26,0,1.69.12,2.08.14h.06l1.4.06,1.78.08h-.18Zm19.92.07-.45,0,1.79-.11,1.48-.1h.06l2-.18,1.41-.12h0l.63-.06h.07l3.93-.46h.07l3.83-.56h.08l3.7-.66h.08l3.56-.75h.08l3.41-.84h.08l3.22-.93h.1l3-1h0l.06,0,2.82-1.08,0,0,.06,0,2.59-1.14.07,0,.05,0L342,115l.09,0,.05,0,2.1-1.25h0a.42.42,0,0,0,.14-.09l1.85-1.29h0l.15-.11,0,0h0l1.57-1.31,0,0,.17-.15,1.32-1.37h0s0,0,0,0l.16-.18v0l1.05-1.39h0s0,0,0,0a1.14,1.14,0,0,0,.15-.23l0,0,.77-1.41h0a1.24,1.24,0,0,0,.1-.2l0-.07,0-.09.49-1.42a1.55,1.55,0,0,0,.07-.23.43.43,0,0,0,0-.11.3.3,0,0,0,0-.1v0h0l0-.1h0v0h0l.09-.6.1-.6v0h0v-.07a1,1,0,0,0,0-.17v-.23h0v0l-.06-1.36h0v0a.19.19,0,0,0,0-.08.76.76,0,0,0,0-.15l0-.16s0,0,0-.07h0v0l-.33-1.38a.19.19,0,0,0,0-.07.65.65,0,0,0,0-.13.5.5,0,0,0-.05-.13s0,0,0-.07l-.61-1.4,0,0,0-.11s0-.08-.07-.12l0,0L350.51,95l0,0-.07-.1-.08-.1,0,0-1.13-1.34h0l-.08-.09a.76.76,0,0,1-.09-.09h0L347.63,92h0l-.08-.08-.09-.07h0l-1.61-1.25-.08-.06-.08-.06-1.86-1.21-.07,0-.07,0L341.56,88l-.06,0-.06,0-2.3-1.1-.06,0-.06,0-2.49-1,0,0-.06,0-2.68-1h-.05l-.05,0-2.86-.91h-.09l-1.26-.35.15,0,3.76.88,3.57,1,3.39,1,3.16,1.14,2.93,1.21,2.68,1.26,2.42,1.33,2.13,1.37L355.45,94,357,95.41l1.22,1.4.91,1.37.61,1.33.34,1.28.08,1.27-.16,1.28-.42,1.32-.73,1.38-1,1.44-1.38,1.46-1.72,1.49-2.07,1.47-2.4,1.45-2.72,1.4-3,1.35-3.31,1.28-3.59,1.2-3.84,1.11-4.06,1-4.28.91-4.46.8-4.61.69-4.75.56-4.86.44Zm78.43-41.8,4,2.08,3.56,2.15,3.13,2.23,2.67,2.29,2.21,2.31L397.5,96l1.25,2.31.78,2.28.34,2.27-.11,2.28-.56,2.32-1,2.37-1.57,2.43-2.1,2.46-2.66,2.47-3.2,2.45L384.89,122l-4.28,2.33-4.78,2.23-5.26,2.13-5.72,2-6.14,1.86-6.55,1.69-6.89,1.52-7.2,1.34-7.49,1.15-7.72.95L315,140l-8,.52-8.12.31-8.15.08-8.12-.14-8.07-.36-7.94-.57-7.79-.79-7.56-1-7.31-1.2-7-1.38-6.66-1.57L224,132.13l-5.86-1.89-5.41-2-4.93-2.15-4.43-2.25-3.91-2.34L196,119.08l-2.82-2.44L191,114.2l-1.71-2.42-1.19-2.38-.69-2.32V107h0v0l-.22-2.16.22-2.28.66-2.3,1.13-2.33,1.61-2.35,2.09-2.35,2.56-2.33,3-2.29,3.46-2.23,3.88-2.15,4.27-2.05,4.64-1.95,5-1.84L225,76.63l4.72-1.34-3.52,1.16h0l-.05,0-4.5,1.68-.05,0,0,0L217.26,80l0,0-.06,0-3.88,1.89-.06,0-.06,0-3.53,2-.07,0-.07,0-3.17,2.08-.08,0-.08,0-2.77,2.14h0l-.09.07-.08.07,0,0h0l-2.37,2.21h0l-.08.09-.09.09h0l-2,2.28a0,0,0,0,1,0,0,.76.76,0,0,0-.08.11l-.08.1v0l-1.54,2.34,0,0a.75.75,0,0,1-.07.12l-.06.11a.17.17,0,0,1,0,.05l-1.1,2.37a.14.14,0,0,1,0,.07,1.12,1.12,0,0,0,0,.13.5.5,0,0,0,0,.13.14.14,0,0,0,0,.07l-.63,2.37h0v0a.64.64,0,0,0,0,.07l0,.15s0,.09,0,.14,0,.06,0,.08v0h0l-.17,2.37h0v.24s0,.11,0,.17a.13.13,0,0,0,0,.06h0v0l.24,1.93h0v0l.05.41h0v0a.44.44,0,0,0,0,.1.52.52,0,0,0,0,.11,1.05,1.05,0,0,0,.06.24l.78,2.42,0,.1s0,0,0,.07a2,2,0,0,0,.1.21h0l1.27,2.41,0,0,.14.22,0,0h0l1.75,2.38a0,0,0,0,0,0,0,1.15,1.15,0,0,0,.14.17l0,0h0l2.23,2.34h0l.12.12.07.06,2.69,2.27h0l.17.14,3.18,2.21.16.11,3.63,2.13,0,0,.1.06,4.07,2,.06,0,.07,0,4.5,1.93.05,0,.06,0,4.9,1.81.06,0,0,0,5.28,1.68H231l5.64,1.54h.09l6,1.39h.09L249,137h.07l6.51,1.05h.07l6.73.88h.07l6.91.69h.07l7.05.51h.07l7.15.31h.06l7.21.12h.33l6.58-.06h.44l7.19-.26h.07l7.12-.46h.06l7-.65h.06l6.86-.84h.07l6.65-1h.08l6.43-1.18H340l6.15-1.34h.09l5.86-1.5.05,0h0l5.52-1.64,0,0h.06l5.16-1.78.05,0,.06,0,4.77-1.9.06,0,.06,0,4.37-2,.07,0,.06,0,3.93-2.11.1-.06.05,0,3.48-2.19h0l.15-.11,3-2.26.18-.15h0l2.55-2.32,0,0a1.06,1.06,0,0,0,.15-.15h0l2.09-2.37h0l0,0,.15-.19,0,0,1.61-2.4h0l0,0,.14-.25s0,0,0,0l1.13-2.42.09-.22a.64.64,0,0,1,0-.07l0-.11.64-2.39h0v0h0v0a.09.09,0,0,1,0,0l0-.13v0s0-.07,0-.1,0-.08,0-.12h0v0h0l.17-2.37v0h0v-.07s0-.11,0-.16,0-.11,0-.17v-.07h0a0,0,0,0,0,0,0l-.28-2.35h0v0s0,0,0-.08l0-.14,0-.14,0-.08v0h0L391.29,97l0-.06a1.12,1.12,0,0,0-.05-.13.37.37,0,0,0,0-.11l0-.07-1.21-2.35,0,0-.06-.11-.07-.11a.08.08,0,0,1,0,0l-1.66-2.3v0l-.08-.1-.08-.09,0,0-2.07-2.24h0l-.07-.08-.11-.1-2.46-2.15h0l0,0-.08-.06-.09-.08-2.89-2.09L380,84.6a.18.18,0,0,0-.07,0l-3.26-2-.07,0-.06,0-3.62-1.91s0,0-.06,0l-.06,0-3.95-1.81-.06,0-.05,0-4.27-1.71h-.05l-.06,0-4.56-1.6h0l0,0-2.2-.67,3.24.85,5.35,1.62,5.05,1.74,4.71,1.86Zm10-5.86,5.21,2.3,4.77,2.43,4.3,2.54,3.81,2.63,3.29,2.71,2.74,2.76,2.19,2.79,1.63,2.8,1.06,2.79.52,2.77,0,2.79-.56,2.82L418,111.77l-1.76,2.94-2.42,3-3.07,3-3.73,3-4.39,2.89-5,2.82L392,132l-6.23,2.57L379,137l-7.31,2.25-7.8,2.06-8.24,1.85L347,144.81l-9,1.39-9.26,1.16-9.48.9-9.65.63-9.75.37-9.8.1-9.78-.17-9.69-.43-9.55-.71-9.34-1-9.08-1.22-8.75-1.46-8.38-1.69-7.95-1.9-7.47-2.11-7-2.29L196.7,134l-5.83-2.6-5.22-2.72-4.58-2.83-3.94-2.9L173.86,120l-2.6-3-1.95-2.92L168,111.21l-.72-2.83-.17-2.8.37-2.79.93-2.81,1.48-2.82,2-2.84,2.61-2.81,3.17-2.78L181.39,86l4.2-2.62,4.67-2.52,5.11-2.4,5.53-2.28,5.92-2.14,6.27-2,1.62-.46-1.52.5h-.05l0,0-5.44,2,0,0h-.05l-5.08,2.12-.06,0,0,0-4.71,2.25-.06,0-.06,0L193.22,81l-.06,0-.07,0-3.89,2.47a.18.18,0,0,1-.07,0l-.08.06-3.43,2.57-.08.06-.09.07-3,2.66h0l-.09.09-.08.09h0l-2.47,2.74v0l-.08.09a.76.76,0,0,0-.08.11l0,0-2,2.8a.08.08,0,0,0,0,0l-.07.11-.06.11,0,0-1.43,2.87,0,.06,0,.12-.05.12a.14.14,0,0,1,0,.07l-.87,2.86h0v0s0,0,0,.07,0,.1,0,.14,0,.1,0,.14v.12h0l-.31,2.86h0v0a.13.13,0,0,0,0,.06c0,.06,0,.11,0,.17a1,1,0,0,0,0,.17v.07h0l.23,2.7h0v0h0v.16h0v0s0,.07,0,.11,0,.07,0,.11a1.84,1.84,0,0,0,0,.25l.83,2.93,0,.11s0,0,0,.07l.09.22h0l1.42,2.93,0,0a1.49,1.49,0,0,0,.14.24l0,0h0l2,2.9s0,0,0,0,.09.12.14.17l0,0h0l2.59,2.86h0l.12.12a.34.34,0,0,1,.06.06h0l3.16,2.78h0l.18.14,3.76,2.72.17.11,4.32,2.61,0,0,.1.06,4.88,2.5.05,0,.08,0,5.4,2.37.06,0,.06,0,5.91,2.23.06,0,.05,0,6.39,2.07.06,0h0l6.83,1.91h0l.06,0,7.24,1.71h.08l7.61,1.52h.08l7.93,1.31h.08l8.21,1.09h.07l8.45.86h.07l8.62.63h.07l8.75.39h.06l8.83.15h.06l8.85-.09h.06l8.81-.33h.06l8.72-.57H317l8.56-.81h.07l8.37-1h.08l8.12-1.26h.08l7.83-1.47h.08l7.49-1.67h.08l7.11-1.86H365l6.69-2,.05,0h0l6.24-2.2.05,0,.06,0,5.75-2.34.06,0,.06,0,5.24-2.47.08,0,.05,0,4.7-2.59.11-.07,0,0,4.15-2.69a.88.88,0,0,0,.17-.12l3.58-2.77.19-.15h0l3-2.83,0,0,.15-.15h0l2.42-2.89h0l0,0,.15-.2s0,0,0,0L410,113h0l0,0a2.15,2.15,0,0,0,.14-.26l0,0,1.25-3a1.43,1.43,0,0,0,.08-.22l0-.08,0-.11.62-2.71h0l0-.19v0h0a.13.13,0,0,1,0-.06c0-.06,0-.11,0-.18a.76.76,0,0,0,0-.15s0,0,0-.07v0l.09-2.87v0h0v-.23a1,1,0,0,1,0-.16.22.22,0,0,1,0-.08h0v0l-.47-2.88s0,0,0-.08l0-.13a.74.74,0,0,1,0-.14l0-.07-1-2.88a.14.14,0,0,0,0-.06l-.05-.12-.06-.12,0-.06L409,93.09s0,0,0,0a.41.41,0,0,0-.07-.11l-.07-.11,0,0-2.1-2.76h0a.39.39,0,0,0-.08-.1l-.08-.1a0,0,0,0,1,0,0l-2.6-2.68-.07-.06-.11-.11-3.08-2.59-.08-.06-.09-.07-3.54-2.5-.07,0-.08,0-4-2.39-.07,0-.07,0-4.4-2.27-.06,0-.06,0-4.79-2.15-.06,0-.05,0-5.16-2-.05,0,0,0-5.51-1.88,0,0h0l-.08,0h0l6.33,1.87,6,2ZM163.92,72.58h0l2.76-1.24,4.74-1.87h0l2.6-1,5.37-1.87,2.42-.85,2.11-.64-3.36,1.18-.05,0,0,0-6.88,2.75-.05,0-.05,0L167.07,72l-.06,0-.06,0L161,75.16l-.06,0-.07,0-5.37,3.24-.08,0-.07,0-4.81,3.37-.07.07-.08.06-4.2,3.5h0l-.09.08a.6.6,0,0,0-.08.08h0l-3.56,3.61s0,0,0,0l-.08.1-.08.09h0l-2.91,3.74,0,0a.61.61,0,0,0-.07.1l-.07.11s0,0,0,0L137,97.4l0,0-.06.12,0,.12s0,0,0,0l-1.5,3.89s0,.05,0,.08,0,.09-.05.13l0,.14a.25.25,0,0,1,0,.07l-.74,3.91v0h0a.22.22,0,0,1,0,.08,1,1,0,0,1,0,.16.76.76,0,0,1,0,.15v.1h0l0,3.92h0v.09c0,.06,0,.11,0,.16l0,.18v.05h0v0l.25,1.24h0v0l.53,2.65h0v0l0,.12a.24.24,0,0,0,0,.08,2.09,2.09,0,0,0,.08.23h0l1.59,4,0,0a2.24,2.24,0,0,0,.13.27l0,0h0l2.42,4s0,0,0,0,.09.14.14.2l0,0h0l3.23,3.92v0l.13.14.05.05h0l4,3.84.06.06.13.11h0l4.85,3.75.17.12,5.66,3.64,0,0,.11.07,6.44,3.49.05,0,.08,0,7.2,3.32.06,0,.06,0,7.93,3.14.06,0,.05,0,8.62,2.92h.06l0,0,9.26,2.68h0l.06,0,9.86,2.42h0l.05,0L218.65,160h.08l10.89,1.86h.08l11.3,1.55h.08l11.64,1.23h.07l11.92.9h.07l12.1.56H277l12.21.22h.07l12.24-.13h.07l12.18-.47h.07l12-.81h.07l11.83-1.15h.07l11.54-1.47h.07l11.17-1.78h.07l10.73-2.08h.08l10.23-2.36.05,0h0l9.66-2.63h.1l9-2.86.05,0,.06,0,8.39-3.08.05,0,.06,0,7.68-3.27.07,0,.06,0,6.95-3.45.09-.05,0,0,6.18-3.59h0l.16-.1,5.4-3.72L436,133l0,0h0l4.57-3.81.08-.07.11-.1h0l3.79-3.91h0s0,0,0,0a1.15,1.15,0,0,0,.14-.17l0,0,3-4h0l0,0,.14-.22,0,0,2.18-4h0a2,2,0,0,1,.1-.21.64.64,0,0,0,0-.07l0-.09,1.37-4a2.17,2.17,0,0,0,.07-.24.44.44,0,0,1,0-.1.52.52,0,0,1,0-.11v0h0l.32-2.17h0v0h0l.25-1.72a0,0,0,0,0,0,0h0v-.07a1,1,0,0,0,0-.17v-.25h0l-.19-3.89h0v0s0,0,0-.08,0-.1,0-.14l0-.16s0,0,0-.07v0L451.16,99a.25.25,0,0,0,0-.07.65.65,0,0,0,0-.13s0-.08,0-.13l0-.07-1.68-3.84,0,0a.6.6,0,0,0-.06-.11.39.39,0,0,0-.06-.11l0-.05-2.39-3.76a0,0,0,0,0,0,0l-.07-.11-.08-.1s0,0,0,0l-3.07-3.65h0l-.09-.09a.76.76,0,0,0-.09-.09h0l-3.71-3.52h0l-.09-.07-.09-.08h0l-4.33-3.4-.08-.06-.08-.05L430,76.1l-.07,0-.07,0-5.49-3.12-.07,0-.06,0-6-3-.05,0-.06,0-6.5-2.8-.06,0-.05,0-7-2.62h0l-.05,0-1.79-.59.34.1,2.4.78h0l5.47,1.79,2.57,1h0l4.84,1.8,2.75,1.16h0l4.18,1.78,2.91,1.41,3.5,1.7,3.05,1.71,2.79,1.56,3.18,2.08h0l2,1.34,1.28,1,3.31,2.55,3.91,3.64,3.21,3.71,2.49,3.75,1.75,3.79,1,3.79.28,3.81-.24,2h0v0h0l-.23,1.86-1.24,3.92-2.07,4-2.92,4-3.81,4-4.71,4-5.59,3.94-6.47,3.83-7.33,3.7-8.15,3.53-8.94,3.33-9.68,3.1L388.2,156l-11,2.56-11.56,2.27-12.06,1.94-12.47,1.61-12.79,1.25-13,.89-13.2.52-13.26.14-13.23-.24-13.11-.61-12.9-1L237,164l-12.22-1.7-11.75-2-11.2-2.34-10.6-2.64-9.92-2.91-9.2-3.16-8.42-3.38-7.6-3.56-6.76-3.73-5.87-3.85-5-3.94-4.08-4-3.18-4-2.32-4-1.47-3.92-.68-3.88.07-3.83.83-3.83,1.56-3.82,2.3-3.82,3-3.77,3.76-3.72,3.69-3h0l.76-.62,1.91-1.32h0l3.18-2.2,2.66-1.57h0l3.06-1.82,3.38-1.73h0l2.92-1.51Zm295.24,83.36h0l-.55.5-6,4.51-7,4.38-7.91,4.24-8.83,4-9.7,3.83L408.69,181l-1.32.38h0l-9.58,2.78-.39.11-12,3-12.63,2.61-3.58.6h0l-5.37.91h0l-1,.16h0l-3.25.56-6.88.93-6.77.92-3.59.37-10.43,1.08h-.13l-10.78.77h0l-3.39.25-7.42.3-7.05.29-4.8.06-9.75.11-14.5-.28-14.37-.71-14.14-1.13-13.8-1.55-13.36-1.95-12.84-2.34-12.24-2.7-11.55-3L171,180.13l-10-3.63-9.13-3.88-8.22-4.09-5.47-3.2h0l-1.78-1.05-6.32-4.41-4.76-4h0l-.56-.47-4.34-4.56L117,146.21l-2.42-4.56-1.5-4.51-.63-4.46.18-3.91a2.44,2.44,0,0,0,.15-.94v0a2.45,2.45,0,0,0,0-.38,2.25,2.25,0,0,0,0-.78l0-.79,1.39,2.52,0,0,.14.21,0,0h0l3.54,4.62,0,0,.13.15,0,.06h0l4.52,4.55h0l.09.09.1.08h0l5.45,4.43h0l0,0,.18.13h0l6.44,4.32,0,0,.12.08,7.37,4.15,0,0,.09.05,8.3,4,.06,0,.07,0,9.17,3.74.06,0,.06,0,10,3.49.06,0,0,0L181.28,166h0l.06,0L192.93,169H193l12.21,2.59h.08l12.81,2.24h.08l13.31,1.88h.08l13.74,1.48h.08l14.07,1.08h.07l14.3.68h.07l14.44.26h.08l14.47-.16H303l14.4-.57h.07l14.23-1h.07l14-1.39h.07l13.6-1.77h.08l13.14-2.15h.08l12.6-2.5h.08l12-2.83.06,0h0l11.29-3.14,0,0h.07l10.53-3.43.05,0,.06,0,9.73-3.69.06,0,.06,0,8.88-3.91.08,0,.05,0,8-4.11.1-.06,0,0,7.07-4.28.16-.11,6.13-4.41.18-.14h0l5.16-4.51h0l.06-.05.13-.13h0l4.21-4.6h0a.1.1,0,0,1,0,0l.14-.18s0,0,0,0L473,125.1h0l0,0a1.49,1.49,0,0,0,.14-.24l0,0,.77-1.56.54,5.93-.39,4.44-1.24,4.5-2.15,4.56-3.07,4.6-4,4.61Zm-91.88,39.73,2.47,67.23-1.06,1.35-2-68.48ZM132.49,314.61l.27-.27,6.56-5.69,7.18-5.43,7.75-5.13,8.27-4.82h0l6.77-3.48,2-1,7.38-3.35,1.85-.83,7.95-3.17,1.69-.68,8.49-3h0l1.52-.53,9-2.73,1.35-.41,9.45-2.47,1.18-.31,6.39-1.42-3.64.82h-.09l-10.15,2.67,0,0h0l-9.87,3-.05,0h0l-9.55,3.37,0,0-.05,0-9.21,3.7,0,0-.05,0-8.82,4-.05,0-.06,0-8.38,4.35-.06,0-.06,0-7.91,4.66-.06,0-.06,0-7.4,5-.07,0-.06.05-6.85,5.24-.07.05-.06.05-6.26,5.51-.07.07-.06.06-5.63,5.76-.07.07-.07.08-.25.3ZM369.34,269.8l9.31,2.18,1.32.37h0l9.07,2.5,1.5.48,8.58,2.75,1.66.61.07,0,0,.63-5.45-2h-.06l0,0-9.63-3.1,0,0h-.05l-9.93-2.76-.05,0h0l-6.74-1.59v-.09Zm30.37,29.75,0,0-.06,0-6.84-3.42-.05,0-.06,0-7.21-3.15-.05,0-.05,0-7.54-2.89h-.05l-.05,0-7.84-2.61h-.1l-8.1-2.32h-.09l-8.35-2h0l-.05,0-8.54-1.72h-.09l-8.72-1.42h-.09l-7.5-.95h.11l9.37,1.18,9.23,1.49,9,1.81,8.83,2.12,8.58,2.43,8.3,2.73,8,3,7.62,3.3,4.68,2.32.09,1.68Zm5.49,78.65-3.53,4.14-4.11,4-4.69,3.9L387.63,394l-5.79,3.56-6.3,3.34L368.76,404l-7.21,2.84-7.63,2.56-8,2.25-8.29,1.93-8.56,1.59-8.76,1.23-8.92.88-9,.52-9.05.14-9-.24-9-.6-8.84-1-8.64-1.32-8.4-1.68-8.11-2-7.76-2.33-7.38-2.63-6.94-2.91-6.48-3.16-6-3.4-5.45-3.61-4.89-3.77-4.32-3.94-3.73-4-3.14-4.14L182.73,373l-1.95-4.25-1.37-4.26-.79-4.27-.23-4.26.31-4.24.86-4.2,1.39-4.17,1.92-4.1,2.43-4,2.93-3.93,3.41-3.83,3.88-3.69,4.31-3.54,4.73-3.38,5.12-3.2,5.49-3,5.82-2.8,6.13-2.59,6.4-2.36,6.66-2.13,6.88-1.9,7.07-1.64,7.23-1.4,7.37-1.14,7.47-.89,7.55-.62,7.6-.36,7.61-.1,7.6.16,7.56.43,7.5.69,7.39.95,7.27,1.21,7.11,1.46,6.93,1.71,6.72,1.95,6.47,2.19,6.2,2.42,5.91,2.64,5.57,2.85,5.22,3.06,4.84,3.24,4.44,3.41,4,3.57,3.55,3.72.22.28.43,8.14-.82-1.63a.47.47,0,0,1-.05-.1l-.08-.13-2.41-3.77h0l-.06-.08-.07-.11h0l-2.88-3.66-.07-.08-.07-.08L394,323.58a.46.46,0,0,1-.07-.07l-.07-.06-3.74-3.39-.07-.06-.06-.06-4.14-3.22-.06-.05-.07-.05-4.51-3.05-.06,0-.06,0-4.86-2.88-.06,0-.06,0L371,307.87l0,0-.06,0-5.48-2.47-.06,0-.05,0L359.5,303h-.05l-.06,0-6-2.05h-.05l0,0-6.23-1.83H347l-.05,0-6.42-1.6h-.1l-6.59-1.36h-.09L327,294.93h-.09l-6.86-.89H320l-7-.65H313l-7-.39s0,0,0,0h0l-7-.15h-.09l-7.05.09h-.09l-7,.34h-.08l-7,.59h-.09l-6.92.82h-.09l-6.83,1.07h-.09l-6.71,1.31h-.09l-6.55,1.54H250l-6.38,1.77-.05,0h0l-6.17,2,0,0-.05,0-5.94,2.21-.05,0-.06,0-5.68,2.42-.06,0-.05,0-5.4,2.63-.06,0-.06,0-5.09,2.82-.06,0-.06,0-4.77,3-.06.05-.06,0-4.4,3.18-.07.06-.06,0-4,3.35-.06.06-.07.06-3.62,3.5-.07.08-.07.07-3.17,3.61,0,0-.06.08-.08.09-2.73,3.75h0l-.09.13a.43.43,0,0,0,0,.07h0l-2.27,3.86h0l-.06.12-.06.11-1.79,4h0a.56.56,0,0,0,0,.12.61.61,0,0,0-.05.12h0l-1.3,4v0l0,.13a.53.53,0,0,0,0,.12s0,0,0,0l-.78,4.1v0s0,.09,0,.13v.15l-.25,4.14v0s0,0,0,0v.1a.49.49,0,0,0,0,.12v0l.29,4.15v0s0,.07,0,.11,0,.08,0,.12V360h0l.83,4.12s0,0,0,0,0,.06,0,.09,0,.09,0,.14v0l1.39,4.13v0l0,.06.06.16v0l1.94,4.08h0a1.71,1.71,0,0,0,.13.23l2.49,4a1.53,1.53,0,0,0,.14.21l3,3.9h0l0,0,.12.14,3.57,3.81.07.06.08.09,4.1,3.66.09.08.06,0,4.6,3.51.11.07,0,0h0l5.08,3.31,0,0,.09.06,5.57,3.13,0,0,.08,0,6,2.91.05,0,.07,0,6.42,2.66.06,0,.06,0,6.8,2.4.07,0h0l7.14,2.12h0l.07,0L253,411.5h.1l7.7,1.53h.05l.05,0,7.9,1.2h.11l8.07.88H277l8.19.55h.1l8.25.21h.1l8.26-.12h.1l8.23-.47h.1l8.15-.8h.1l8-1.12h.1l7.83-1.44.06,0h0l7.6-1.74.07,0h0l7.33-2h0l.07,0,7-2.33.05,0,.06,0,6.66-2.59.06,0,.06,0,6.27-2.84.07,0,.05,0,5.85-3.07L376,397l0,0,5.37-3.26,0,0,0,0,.11-.06,4.92-3.47,0,0,.1-.07,4.42-3.63.07-.06.08-.07,3.91-3.77.08-.1.06-.06,3.38-3.89a1,1,0,0,0,.13-.16l0,0h0l2.83-4a2.39,2.39,0,0,0,.13-.21l2.3-4.07a2.56,2.56,0,0,0,.11-.24h0l1.26-3,.53,10.24ZM402,401.26l-6.64,4.16-7.23,3.92L380.34,413,372,416.32l-8.82,3L353.94,422l-9.61,2.27-9.93,1.87-10.18,1.46-10.37,1-10.47.6-10.54.17-10.51-.28-10.42-.71-10.26-1.15-10-1.56-9.74-2-9.4-2.36-9-2.74L215,415.51l-8-3.41-7.46-3.72-6.87-4-6.23-4.22-5.59-4.42-4.91-4.59-4.22-4.73-3.54-4.82-2.83-4.91-2.15-4.94-1.47-4.95-.81-5-.15-4.94.48-4.91,1.11-4.86,1.71-4.8,2.32-4.73,2.9-4.62,3.47-4.51,4-4.36,4.52-4.21,5-4,5.47-3.83,5.91-3.63L204,305l6.67-3.17,7-2.92,7.32-2.66,7.59-2.4,7.83-2.13,8.05-1.85,8.22-1.56,8.37-1.29,8.47-1,8.57-.7.59,0-7.93.66h-.09l-7.95.94h-.08l-7.84,1.21h-.09l-7.7,1.48h-.09l-7.53,1.74,0,0h-.05l-7.34,2h0l-.05,0-7.12,2.26,0,0h-.05l-6.86,2.52-.05,0h-.05l-6.57,2.76-.06,0,0,0-6.26,3-.06,0,0,0-5.92,3.22-.06,0-.06,0L197,310.94l-.06,0-.06,0-5.15,3.64-.06.06s-.05,0-.06,0l-4.72,3.84-.06.06-.07.06-4.26,4-.07.07-.07.06L178.62,327l0,0-.06.08a.27.27,0,0,0-.07.08l-3.26,4.32h0a.61.61,0,0,0-.07.1.47.47,0,0,0-.06.09h0l-2.73,4.45a.54.54,0,0,1-.07.13.93.93,0,0,1,0,.1L170,341h0s0,.07,0,.11a.61.61,0,0,0,0,.12h0L168.32,346h0a.93.93,0,0,0,0,.13l0,.12s0,0,0,0l-1,4.75v0l0,.13s0,.08,0,.12v0l-.41,4.8v.32l.22,4.83v0s0,.08,0,.12,0,.08,0,.12v0l.11.62.75,4.21v0a.36.36,0,0,0,0,.1l0,.14a0,0,0,0,1,0,0l1.5,4.82v0l0,.07.05.15,0,0,2.14,4.77h0a1,1,0,0,0,.12.23l2.79,4.71c.05.07.09.14.15.21l3.42,4.58h0l0,0a1.83,1.83,0,0,0,.13.16l4.08,4.47.06.07.09.09,4.7,4.32.09.07.06.05,5.31,4.14.1.07s0,0,0,0l5.9,3.93,0,0,.1.06,6.45,3.7.05,0,.09.05,7,3.44.06,0,.07,0,7.48,3.15.06,0,.06,0,7.94,2.84.07,0,0,0,8.34,2.52.08,0h0l8.71,2.18h0l.07,0,9,1.81h.1l9.28,1.43h.11l9.47,1.05h.1l9.62.66h.1l9.7.25h.1l9.72-.15h.1l9.67-.55h.1l9.57-.95h.11l9.4-1.34H332l9.18-1.72h.11l8.9-2.08.07,0h0l8.58-2.43,0,0,.07,0,8.19-2.77.05,0,.07,0,7.77-3.08.06,0,.06,0,7.29-3.37.08,0,.05,0,6.79-3.63.09-.06,0,0,6.23-3.86h0a.05.05,0,0,1,0,0l.1-.07,5.68-4.09.05,0,.1-.07,5.08-4.28h0l.28,5.3ZM399.24,312l-.07-.05-.06,0-5.26-3.5-.06,0-.06,0L388.08,305s0,0-.06,0l0,0-6-3.05-.05,0-.06,0L375.5,299l-.06,0-.05,0-6.65-2.58-.05,0-.06,0-6.92-2.33h0l-.05,0-7.18-2.08h-.09L347,290.1h-.1l-7.57-1.55h-.09l-7.74-1.28h-.09l-7.87-1h-.08l-8-.73h-.09l-7.79-.44h.36l8.57.48,8.5.78,8.4,1.06,8.25,1.36,8.1,1.63,7.88,1.92,7.66,2.2,7.38,2.46,7.1,2.73,6.76,3,6.4,3.23,6,3.45,3.64,2.39.15,2.94ZM368.55,389.9l-5.36,2.8-5.75,2.59-6.12,2.37-6.45,2.13-6.74,1.87-7,1.6-7.21,1.32-7.39,1-7.5.73-7.59.43-7.62.11-7.61-.19-7.54-.51-7.44-.8-7.28-1.1-7.09-1.4L250,401.21l-6.57-1.94-6.24-2.19-5.89-2.42-5.5-2.64-5.1-2.84-4.64-3L211.89,383l-3.72-3.3L205,376.32l-2.72-3.48L200,369.31l-1.72-3.57L197,362.16l-.75-3.59-.13-1.62-.15-2,.18-3.57.64-3.55,1.09-3.52,1.55-3.48,2-3.42,2.42-3.36,2.84-3.27,3.24-3.17,3.62-3,4-2.91,4.34-2.76,4.67-2.61,4.95-2.42,5.24-2.25,5.49-2.05,5.7-1.85,5.91-1.65,6.09-1.43,6.22-1.22,6.35-1,6.44-.77,6.52-.55,6.55-.31,6.57-.09,6.56.15,6.52.37,6.47.6,6.37.83,6.27,1.06,6.11,1.27,6,1.49,5.76,1.69,5.55,1.91,5.31,2.1,5,2.29,4.75,2.47,4.43,2.63,4.1,2.8,3.73,2.94,3.36,3.06,3,3.19,2.54,3.27,2.12,3.37,1.68,3.42,1.24,3.48.78,3.52.34,3.55-.13,3.57-.6,3.59-1.07,3.6-1.56,3.6-2.05,3.57-2.55,3.54-3,3.47L382,380.52l-4,3.27-4.49,3.14Zm39.38,24.22L401,417.93l-8.85,4.2L382.71,426l-10,3.48-10.53,3.06-11,2.63-11.34,2.17L328.23,439l-11.86,1.2-12,.7-12.05.19-12-.32L268.39,440l-11.73-1.32-11.46-1.82-11.12-2.29-10.72-2.74-10.23-3.17-9.68-3.56-9.09-3.95-8.45-4.28-7.75-4.58-7-4.85-6.27-5.08L159.39,397l-4.7-5.42-3.9-5.53-3.1-5.6-2.31-5.65-1.54-5.66-.79-5.66,0-5.62.68-5.58,1.38-5.52,2.08-5.44,2.74-5.34,3.4-5.21,4-5.07,4.62-4.9,5.19-4.71,5.72-4.51,6.23-4.27,6.7-4,7.13-3.79,7.53-3.51,7.9-3.24,8.22-3,8.52-2.65,8.78-2.35,9-2.05L252,281l9.34-1.41.59-.07-7.87,1.2H254l-8.68,1.65h-.09l-8.5,1.95h-.09l-8.29,2.24-.05,0h-.05l-8,2.52-.05,0h0L212.35,292l0,0-.05,0-7.46,3.09,0,0-.05,0-7.12,3.36s0,0,0,0l-.06,0-6.74,3.61-.05,0-.07,0-6.32,3.86-.06,0a.09.09,0,0,0-.06,0l-5.9,4.09-.06.05-.06,0-5.42,4.32-.06.06-.07.05-4.91,4.53-.06.07-.07.06-4.38,4.72a.27.27,0,0,1-.07.08l-.06.08-3.8,4.88h0v0a.36.36,0,0,0-.07.1l-.07.08v0h0l-3.2,5a.83.83,0,0,0-.07.13l-.06.09-2.59,5.19h0l-.06.12s0,.08,0,.11h0l-1.94,5.31v0s0,.08,0,.12l0,.12v0l-1.27,5.4a0,0,0,0,0,0,0,10.13,10.13,0,0,0,0,.25v0l-.59,5.47v0a.57.57,0,0,0,0,.13v.15l.13,5.52v0s0,.08,0,.12,0,.09,0,.13a0,0,0,0,0,0,0l.18,1.22.66,4.31v0s0,.06,0,.1l0,.14s0,0,0,0l1.58,5.52v0l0,.08a.88.88,0,0,0,.05.15v0l2.33,5.47h0a2.56,2.56,0,0,0,.11.24l3.08,5.41h0c0,.07.09.14.14.21l3.81,5.29h0a1.24,1.24,0,0,0,.14.18l4.54,5.14h0l0,0,.05.06.1.1,5.29,5,.08.07.07.06,6,4.79.1.07,0,0,6.69,4.55.12.08h0l7.32,4.28.05,0,.09.05,8,4,0,0,.08,0,8.55,3.67.07,0,.06,0L218,427l.07,0,0,0,9.58,2.94.08,0h0l10,2.54h.11l10.38,2.12h.11l10.69,1.67h.1l10.92,1.22h.11l11.09.77h.1l11.19.3h.1l11.21-.18h.1l11.16-.65h.1l11-1.11h.1l10.84-1.56h.1l10.58-2,.06,0h0l10.24-2.43.07,0h0l9.85-2.84.05,0,.07,0,9.39-3.22.06,0,.06,0,8.89-3.58.06,0,.06,0,8.33-3.91.08,0,.05,0,7.74-4.21.09-.06,0,0,4.52-2.87ZM352,274.32l10,2,9.76,2.32,9.49,2.66,9.19,3,8.85,3.31,2.05.87.06,1-6.2-2.67-.05,0-.05,0-8.42-3.17-.05,0,0,0-8.74-2.86h-.05l0,0-9-2.54h-.09l-9.28-2.23h-.09L350.19,274Zm52.24,157.17-10.6,4.39-11.25,4-11.84,3.5-12.35,3-12.78,2.48-13.12,1.94L319,452.14l-13.54.8-13.61.22-13.58-.36-13.46-.95-13.24-1.52-12.92-2.08-12.54-2.62-12-3.13-11.49-3.62-10.87-4.07-10.18-4.49-9.43-4.88-8.63-5.21-7.8-5.51L148.69,409l-6.05-6-5.14-6.13-4.24-6.25-3.34-6.32-.6-1.56,2.06-44.35,2.13-4,3.92-5.8L142,323l5.24-5.43,5.87-5.2,6.45-5,7-4.71,7.49-4.44,8-4.16,8.38-3.85,8.78-3.55,9.12-3.23,9.42-2.9,9.71-2.57,9.94-2.23,7.71-1.43-5.29,1h-.08l-9.46,2.13,0,0h-.05L221,280l0,0h-.05l-9,2.78,0,0-.05,0-8.66,3.09,0,0-.05,0-8.34,3.4-.05,0s0,0,0,0l-8,3.69-.05,0-.06,0-7.56,4-.06,0-.06,0-7.12,4.26-.05,0-.07,0L165,306.05l-.06,0-.07.05-6.12,4.78-.07.06-.06,0-5.58,5-.07.07-.07.06-5,5.25-.07.08-.06.07L143.37,327h0l-.06.09a.86.86,0,0,0-.07.1v0h0l-3.71,5.6-.06.11-.07.12-3,5.79h0l-.06.12a.37.37,0,0,1-.05.11h0L133.91,345v0a.42.42,0,0,0,0,.12.56.56,0,0,0,0,.12h0l-1.57,6.05a0,0,0,0,1,0,0s0,.08,0,.12a.51.51,0,0,0,0,.13s0,0,0,0l-.8,6.14v0a.53.53,0,0,0,0,.13s0,.08,0,.13v6.26s0,.08,0,.12,0,.09,0,.13v0l.24,1.82.57,4.41a0,0,0,0,0,0,0,.36.36,0,0,0,0,.1.68.68,0,0,0,0,.14,0,0,0,0,1,0,0l1.64,6.23v0l0,.08c0,.05,0,.1.05.14s0,0,0,0l2.48,6.19h0a2.56,2.56,0,0,0,.11.24l3.33,6.12h0l.14.22,4.17,6h0l.14.18,5,5.85h0v0l.05,0a1.14,1.14,0,0,0,.11.11l5.86,5.69.08.07.07.06,6.67,5.47.1.07,0,0,7.47,5.2.12.08h0l8.21,4.9.05,0,.09.05,9,4.57.05,0,.08,0,9.63,4.21.06,0,.07,0,10.26,3.81.07,0,.05,0,10.84,3.38.07,0h0l11.34,2.92h.05l.06,0,11.77,2.44h.11L254,447.86h.11l12.41,1.41h.11l12.6.88h.11l12.71.34h.11l12.74-.2H305l12.68-.74h.1l12.54-1.28h.1l12.31-1.8h.11l12-2.3.06,0H355l11.61-2.8.07,0h0L377.81,438l.05,0,.07,0,10.61-3.69.06,0,.06,0,10-4.11.07,0,.06,0,9.37-4.49.08,0,.05,0,.2-.11.21,3.92ZM386.42,192h.09l9.69-2.39,4.13,79.12-5-1.6h-.05l0,0-11-3-.05,0h0l-9.53-2.22-2.46-66.91,1.54-.26h.08Zm-83.18,9.89h.07l7.09-.29,7.46-.31h.07l3.43-.25,10.78-.77h.23l10.47-1.08,3.63-.37h.08l6.81-.93,6.91-.94h.08l.58-.1,2.5,71.81-8.56-1.68h-.08l-10.63-1.69h-.08l-10.78-1.33h-.08l-10.9-1h-.08l-11-.61h-.08l-9.21-.19,0-2.16h0v-.67l-.06-3.07h0l-1-54.29Zm-162-29.1.06,0,.09,0,8.36,4.16.06,0,.08,0,9.25,3.93.06,0,.06,0,10.11,3.67.06,0,0,0,10.91,3.37.06,0h0l11.65,3.07h0l0,0,12.33,2.72h.09l12.93,2.36h.08l13.44,2h.08l13.88,1.56h.08L259.38,201h.07l14.45.71H274l14.58.28h.08l7.38-.08,1,51.89-8.74.1h-.08l-12.2.55h-.08l-12.14,1h-.08l-12,1.36h-.09l-11.91,1.75h-.08l-11.74,2.15h-.08l-11.53,2.54h-.09l-11.28,2.93h-.09l-11,3.32-.05,0h-.05L183,273.29l-.05,0h-.05l-10.29,4.07,0,0-.05,0-9.87,4.44-.06,0,0,0-9.41,4.79-.06,0-.05,0-8.92,5.15-.05,0-.06,0-8.36,5.48-.07,0-.06,0-2.27,1.71,5.95-127.76ZM412.16,453.6l-13.3,4.82-14,4.27-14.67,3.66-15.2,3-15.64,2.37-16,1.69-16.16,1-16.26.26-16.22-.45-16-1.15-15.8-1.86-15.4-2.54-14.9-3.2-14.3-3.82-13.61-4.41-12.83-4.95-12-5.46-11-5.9-10.07-6.3-9-6.65-8-6.93-6.92-7.16-5.32-6.72,16.25-244.66L127,163.6h0l0,0,.18.13,6.48,4.53.16.1.61.36-6.31,135.39h0l-.31,6.73-.07,1.52h0l-.05,1.06-.59,12.66h0l0,.72-.09,2-.41,8.75L124.47,383v0l-.06,1.48h0v0h0l-.54,11.71-.25,5.24a2.42,2.42,0,0,0,2.3,2.53H126a2.41,2.41,0,0,0,2-1l4.5,5.42h0v0l0,0a1.42,1.42,0,0,0,.12.13l6.4,6.39.09.08.07.06,7.33,6.16.11.08.05,0,8.24,5.87.12.08,0,0,9.11,5.55,0,0,.09.06,10,5.18,0,0,.08,0,10.73,4.77.06,0,.07,0,11.45,4.33.07,0,.05,0L209,451.32l.08,0h0l12.69,3.32h.11l13.2,2.77h0l.06,0,13.61,2.19h.11l13.93,1.61H263l14.17,1h.1l14.3.39h.1l14.32-.23h.11l14.25-.85h.11l14.08-1.46h.1l13.82-2.06h.11L362,455.46l.06,0h0l13-3.18.07,0h0l12.46-3.71h0l.07,0,11.85-4.2.06,0,.07,0,9.65-4a2.43,2.43,0,0,0,2.25,1.53h.12a2.42,2.42,0,0,0,2.29-2.54l-.14-2.71v0l-.18-3.43v0l-.12-2.29v0l-.49-9.38-.19-3.66-.11-2.06v-.2l-.53-10.09h0v0l-.23-4.46-.11-2.18-.63-12-.36-7-.11-2-2.61-50-.27-5.19-.13-2.46-.51-9.73-.15-2.87-.12-2.35-.39-7.46h0v0l-.11-2h0v0l-.12-2.27h0v0l-.34-6.52-.08-1.63v0h0l-.11-2.22v0h0l-.31-5.87v0h0l-.06-1.07v0l-.2-3.88L401,188.27l4.94-1.43,17,258.65-1.47-1.06,0,0-.12-.08-.09-.05-.11-.06-.11,0-.1,0-.12,0-.1,0-.13,0-.1,0h-.76a2.38,2.38,0,0,0-.11-1.53,2.42,2.42,0,0,0-3.17-1.29L404.91,446l-12.5,4.48-13.17,3.95-13.77,3.4-14.25,2.81-14.65,2.2-14.95,1.56-15.13.91-15.22.25-15.18-.42-15-1.07-14.79-1.73L231.83,460l-14-3-13.43-3.55-12.78-4.09-12.07-4.6-11.27-5.07-10.42-5.5-9.51-5.86-8.57-6.2-7.58-6.46L125.64,409l-5.48-6.75a2.42,2.42,0,0,0-3.4-.36,2.44,2.44,0,0,0-.89,1.82,2.42,2.42,0,0,0-3.12,3.59l1,1.21,4.7,5.84h0l0,0,.13.14,6.82,7,0,0,.07.07.08.08,7.87,6.75.11.08,0,0,0,0h0l8.85,6.43.12.08,0,0h0l9.82,6.1,0,0,.1.06,10.76,5.7.05,0,.09.05,11.63,5.26.06,0,.07,0,12.44,4.77.07,0,0,0L201,461.47l.07,0h.05L215,465.17H215l.07,0,14.39,3.06h.11l14.86,2.44h.11l15.22,1.78h.1l15.48,1.12h.11l15.62.43h.11l15.65-.26H307l15.57-.94h.11L338,471.25h.11L353.21,469h.11L368,466h.11l14.17-3.52h0l.08,0,13.56-4.1H396l.08,0L409,453.7l.06,0,.06,0,10.55-4.47.08,0,1.07.77ZM470.9,312.09l.72,8.89h0l.14,1.67h0l.21,2.64,5.34,66.27.1,1.26,0,.44v0h0l.43,5.35.84,10.41-5.9,6.64-7.58,7.12-8.65,6.87-9.67,6.58-10.66,6.21-8.43,4.2L410.66,185.43,420.82,182l.05,0,.06,0,9.82-3.86.06,0,.06,0,8.95-4.11.08,0,.05,0,8.05-4.31.1-.07,0,0,7.11-4.48h0a.91.91,0,0,0,.16-.11l3.4-2.55ZM480.53,341l2.3,6.73,1.44,6.85.57,6.95-.33,7-1.27,7.08-1.88,6-3.78-46.93Zm-2-19.94,5,6.57,4.24,6.78,3.4,7,2.53,7.13,1.64,7.28.72,7.39-.25,7.49-1.23,7.55-2.24,7.58-3.29,7.59-4.35,7.54-1.66,2.28-.34-4.18,3-5a1.34,1.34,0,0,0,.12-.24h0l3.34-7.52v0a.94.94,0,0,0,.06-.15.24.24,0,0,0,0-.08v0l2.32-7.55s0,0,0,0l0-.14a.29.29,0,0,0,0-.09v0l1.21-7,.1-.58v0s0-.08,0-.13a.37.37,0,0,1,0-.11v0l.32-7.5v-.15a.53.53,0,0,0,0-.13v0l-.64-7.41v0s0-.08,0-.13a.5.5,0,0,0,0-.12v0l-1.57-7.28s0,0,0,0l0-.12,0-.13h0L488.54,340h0a.61.61,0,0,0,0-.12s0-.07,0-.11h0l-3.32-6.95a.31.31,0,0,0-.05-.1s-.05-.09-.07-.12l-4.13-6.73h0l-.07-.1-.06-.09h0l-4.33-5.73-.11-1.38ZM453.44,81.53l5,3.8,4.31,3.91,3.56,4,2.79,4.07,2,4.1,1.21,4.13.41,4.15-.4,4.2-1.24,4.26L469,122.49l-3.06,4.37-4,4.39-5,4.36-5.95,4.3L444,144.09l-7.86,4L427.43,152l-9.61,3.64-3,1,7.44-2.79.06,0,.06,0,8.46-3.69.08,0,.06,0,7.63-3.89.1-.05,0,0,6.77-4.05h0l.15-.1,5.88-4.18.18-.14,0,0h0l5-4.27h0l.06-.06.13-.12h0l4.07-4.37h0l0-.05a1.15,1.15,0,0,0,.14-.17l0,0,3.17-4.42h0s0,0,0,0a1.76,1.76,0,0,0,.14-.23s0,0,0,0l2.27-4.45h0a1.89,1.89,0,0,0,.09-.21l0-.07,0-.1,1.38-4.44.06-.24s0-.08,0-.11a.43.43,0,0,0,0-.11v0h0l.33-2.92v0h0l.15-1.41h0v-.08a1,1,0,0,0,0-.17v-.25h0l-.35-4.32h0v0s0-.05,0-.08,0-.1,0-.15l0-.13s0-.06,0-.09v0h0L467.32,100a.25.25,0,0,1,0-.07s0-.09-.05-.13a.61.61,0,0,0-.05-.12s0,0,0-.07l-2-4.24s0,0,0,0l-.06-.11a.41.41,0,0,0-.07-.11s0,0,0,0l-2.77-4.14s0,0,0,0l-.07-.11-.08-.1s0,0,0,0l-3.51-4h0l-.09-.09-.09-.09h0l-4.2-3.87h0l0,0-.09-.07a.27.27,0,0,0-.08-.07l0,0h0l-4.2-3.22ZM127,88.31l4.88-3.91,5.56-3.78.34-.2-1.36.93-.07.06-.08.06-4.73,3.85h0l-.09.08a.6.6,0,0,1-.08.08h0l-4,4h0l-.08.09a.39.39,0,0,0-.08.1h0l-3.34,4.12,0,0a.86.86,0,0,0-.07.1.61.61,0,0,0-.07.1s0,0,0,0L121,98.28l0,0-.06.11-.06.12a.08.08,0,0,1,0,0L119,102.92l0,.07,0,.13a.65.65,0,0,0,0,.13.19.19,0,0,0,0,.07l-1,4.34v0a.09.09,0,0,0,0,0l0,.18a.66.66,0,0,0,0,.14.25.25,0,0,0,0,.08v0h0l-.13,4.36h0v0s0,0,0,.07v.16a1.11,1.11,0,0,0,0,.17.13.13,0,0,0,0,.06v0h0l.19,1.12h0v0l.54,3.23h0v0a.5.5,0,0,0,0,.12s0,.06,0,.09,0,.15.07.23l1.63,4.44a1,1,0,0,0,0,.1l0,.06.1.21h0l2.53,4.43,0,0a2.39,2.39,0,0,0,.13.21l0,0h0l3.45,4.38a0,0,0,0,0,0,0,1.07,1.07,0,0,0,.14.16l0,0h0l4.35,4.31h0l.08.08.1.09h0l5.27,4.21.18.13h0l6.17,4.08,0,0,.12.08,7.05,3.92.06,0,.09,0,7.92,3.74.05,0,.07,0,8.75,3.53.06,0,.06,0,7.2,2.49-2.5-.75L162,154.73,153,151l-8.16-3.9-7.22-4.07-6.27-4.2-5.29-4.3-4.31-4.34-3.34-4.36L116,121.54l-1.5-4.28-.63-4.22.19-4.18,1-4.17,1.8-4.15,2.6-4.13,3.38-4.09ZM517,528.64v0s0-.07,0-.11v-.12h0l0-.57h0v0l-1-10,0-.14s0-.07,0-.11l-1.36-6.69L500.94,362.87h0l-.74-7.7a0,0,0,0,0,0,0s0-.08,0-.12a.59.59,0,0,1,0-.13v0l-1.7-7.57s0,0,0,0l0-.12a.56.56,0,0,0,0-.12v0l-2.63-7.4h0a.61.61,0,0,0-.05-.12s0-.07,0-.11h0l-3.52-7.21a.67.67,0,0,0-.06-.12l-.06-.1-4.35-7h0l-.07-.09-.06-.1h0L482.34,318l-.07-.08-.06-.08-5.92-6.48-.07-.06a.46.46,0,0,0-.07-.07l-.5-.48L463.38,158.63l3.6-3.28,0,0a1.14,1.14,0,0,0,.15-.16h0l4.24-4.83h0s0,0,0,0l.15-.2,0,0,3.26-4.89h0l0,0a2.15,2.15,0,0,0,.14-.26l0,0,2.3-4.9a.85.85,0,0,0,.09-.22l0-.08,0-.09,1.35-4.88h0v0a.43.43,0,0,0,0-.05s0-.11,0-.17,0-.08,0-.12,0-.06,0-.09l.43-4.88v-.08s0-.09,0-.13,0-.1,0-.15v-.07l-1.8-19.46h0v0l-.45-4.53h0v0s0,0,0-.08a.78.78,0,0,0,0-.14l0-.14s0,0,0-.08v0h0l-1.32-4.5a.14.14,0,0,0,0-.06l0-.13-.05-.12,0-.07L473.38,95a.08.08,0,0,0,0,0l-.06-.11-.07-.11,0,0-3-4.35v0l-.08-.1-.08-.1s0,0,0,0l-3.74-4.21h0l-.08-.08-.09-.09h0l-4.48-4.07-.09-.07-.08-.07,0,0h0l-5.16-3.9-.08-.05-.07-.06-5.85-3.75-.06,0-.07,0-6.47-3.58-.06,0-.06,0-7.05-3.38-.05,0-.06,0-7.58-3.19-.05,0,0,0-8.09-3h-.05l0,0L412,57.6h-.08l-9-2.55h-.07l-9.36-2.32h-.07l-9.7-2.09h-.07l-10-1.86h-.07l-10.27-1.62h-.06l-10.51-1.38h-.06L342,44.54h-.05l-10.86-.89H331L320,43H320l-11.07-.4h-.06l-11.12-.16h-.05l-11.14.09h-.05l-11.12.33h-.05l-11.06.58h0l-11,.83h-.05l-10.84,1.08h-.06l-10.68,1.32h-.06l-10.48,1.57H221l-10.24,1.79h-.07l-10,2h-.07L191,54.39h-.08l-9.3,2.49h-.08l-8.9,2.71,0,0h0l-8.48,2.93h0l-.05,0-8,3.13-.05,0,0,0-7.5,3.33-.05,0-.06,0-6.94,3.53-.06,0-.06,0-6.35,3.71-.07,0-.07,0L129,80.46l-.07.05-.08.06-5,4-.09.08-.08.07h0l-4.31,4.17h0a.76.76,0,0,1-.09.09l-.08.1h0l-3.57,4.31v0l-.08.1-.07.1s0,0,0,0l-2.78,4.42,0,0-.06.11-.06.12s0,0,0,0l-2,4.52s0,0,0,.07a.61.61,0,0,0,0,.12.93.93,0,0,0,0,.13.14.14,0,0,1,0,.07l-1.09,4.56h0v0s0,0,0,.06a.52.52,0,0,0,0,.11.11.11,0,0,0,0,.05s0,.07,0,.1,0,0,0,.07l-1.31,18.57a0,0,0,0,1,0,0s0,.09,0,.14,0,.06,0,.09L91.39,361l-11,155.67L79,525h0a.41.41,0,0,1,0,.11s0,.08,0,.12v0h0l0,.58h0L78.36,536h0v.25h0l.14,2.82-.08,1.35v.26l.5,10.28h0a.34.34,0,0,0,0,.1s0,.1,0,.15h0l1.62,10.34s0,0,0,.06,0,.12,0,.17v0l2.77,10.32v0c0,.06,0,.13.07.2h0l3.93,10.26v0a1.54,1.54,0,0,0,.08.19v0L92.58,593h0v0l.1.19L99,603.15h0l0,0,.1.15,7.48,9.68,0,.05.1.11,8.65,9.36.06.05.09.09,9.8,8.95a.27.27,0,0,0,.08.07l.06.06,10.91,8.48.12.08,0,0,0,0h0l12,7.92,0,0,.1.06,13,7.34.06,0,.09,0,13.92,6.66.06,0,.08,0,14.77,5.93.07,0,.07,0,15.53,5.13.1,0h0l16.19,4.3h.06l.08,0,16.74,3.42h.13l17.16,2.5h.13l17.46,1.56h.14l17.63.61h.13l17.66-.36h.14l17.56-1.32h.13l17.35-2.26h.13l17-3.19.08,0h.06l16.5-4.07h.05l.09,0,15.91-4.93.06,0,.08,0,15.2-5.73.08,0,.06,0,14.41-6.47.09-.05,0,0,13.52-7.17.09-.06.05,0,12.56-7.79,0,0,.11-.07L462.85,634l0,0,.1-.07,10.44-8.84.07-.07.07-.06,9.33-9.26.08-.09.06-.06,8.17-9.61.09-.12,0,0,0,0,7-9.86a.86.86,0,0,0,.1-.16l0,0h0l5.81-10.07a1.24,1.24,0,0,0,.1-.2h0L509,575.16v0a1.8,1.8,0,0,0,.08-.21h0l3.47-10.31h0a1.52,1.52,0,0,0,.06-.2v0L515,554h0l0-.18a.13.13,0,0,1,0-.06h0l.2-1.79.28-1.23a0,0,0,0,0,0,0,.06.06,0,0,1,0,0l.11-.59a.17.17,0,0,0,0-.07s0-.07,0-.11l1.19-10.27a.17.17,0,0,0,0-.07s0-.06,0-.08l0-.6v-.1l.1-10.16Z"/></svg>