<svg xmlns="http://www.w3.org/2000/svg" viewBox="0 0 593.9 839.92"><defs><style>.a{fill:#083d69;}.a,.b{fill-rule:evenodd;}.b{fill:#fff;}</style></defs><title>PM003A_C</title><path class="a" d="M0,783.39a56.5,56.5,0,0,0,56.53,56.53H537.3a56.56,56.56,0,0,0,56.6-56.53V56.53A56.56,56.56,0,0,0,537.3,0H56.53A56.5,56.5,0,0,0,0,56.53Z"/><path class="b" d="M484.42,700.77l-147.08-639,13.16.43L494.59,697.54ZM449.57,594.05,371.25,561.1l-.12-.76,79.59,33ZM378.36,640.4l-11.32,3-.56-.3L335.32,458.2l.56-.09h0l1.28-.21.24,0h.51a2.06,2.06,0,0,0,.26,0L349,456.07l4.46,28v0l1.17,7.35v0L365,556.4l1.12,7.05Zm-110-181.26h0v.05l0,.13-1,6.68v.05h0L217,785.63,204.23,791,315.37,61l15.37.5-2,12.77h0v0h0l-13,82.51-1.41,9v0h0l-5.65,36v0l-8.53,54.31h0v0h0l-1.64,10.39-.41,2.63v0h0L275.3,414.58v0l0,.24-.87,5.55v0Zm-68,246.72-67.77-45.28L124,654.86,121.15,653h0l-2.66-1.78.7-3,86.86,56.94-.64,4.12-1.65-1.11h0Zm-83.19,4.5-13,3.51L114.73,668l8-7.42,5.21,3.48ZM130.8,598.83l8.4-8.22,5.24,3L134.29,637l-13.08,3.1ZM139.64,638l9.73-41.6,59.44,33.82,5.7,20.11-4.95,32Zm-4.27-59.48,83.09,46.26-.67,4.3L216,628l-3.49-2h0L148.94,589.9h0l-8.79-5-2.92-1.65-2.57-1.47Zm11.7-49.75,8.79-9,5.28,2.49-10.74,45.9-13.1,2.71Zm8.7,40.25,10.4-44.42,55,26,5.76,19.24-5.36,34.68Zm-4-61.08,79.11,36.45-.69,4.45-2.06-1-3.53-1.67-59.14-28h0l-9-4.25-3-1.41L151,511.4Zm11.79-50.13,9.18-9.91,5.33,2-11.33,48.44-13.13,2.31Zm8.57,41.35,11.07-47.3,50.37,19.08,5.82,18.34-5.76,37.32Zm-3.75-62.69L243.28,464l-.7,4.57-2.29-.87-3.58-1.36-54.5-20.64-9.27-3.51h0a0,0,0,0,0,0,0l-3-1.15h-.05l-2.3-.88Zm11.88-50.55,9.56-10.8,5.39,1.54-11.92,50.95h0l0,.07-13.15,1.9Zm24.65,48.22,40.87-6,.12,0,.08,0,.19,0h.09l.24,0h0a2.6,2.6,0,0,0,.4,0h0l1.94-.28-3.2,20.68Zm40.21-17.38h0l-.21,0-.06,0-.2.05-.06,0-.17.07-.08,0-.14.08-.1.05,0,0L189.48,425l10.94-46.81L246,391.25l5.86,17.44L250.7,416Zm-59.93-52.68,70.52,19.47-.71,4.64-2.54-.73h0l-3.59-1h0l-49.61-14.26-9.52-2.73h0l-3.15-.91h0l-2.21-.63Zm12-51,9.94-11.73,5.45,1.08L200,356.09l-13.17,1.47Zm8.29,43.55,12.43-53.14,40.47,8,5.91,16.54-6.57,42.55Zm-3.25-65.89,65.92,12.35-.72,4.68-2.8-.55h0l-3.67-.73h0l-44.57-8.84-9.73-1.93h0l-3.2-.64h0l-2.06-.41Zm12.1-51.46,10.33-12.67,5.51.61L217,283.56l-13.18,1Zm62.42,8.12-7,45.14L222.47,284l13.12-56.11,35.2,3.93Zm-57.26-30.95,61.09,6.16-.73,4.69-3.06-.34-3.72-.42-39.25-4.38-10-1.12-3.33-.37-1.9-.21Zm12.21-52,10.71-13.65L248,151l-13.81,59-13.2.57ZM285.13,193l-3.31,21.4L239.7,210.3l13.83-59.13,24.66.66ZM237,141.19l56,.94-.72,4.65-3.33-.09h0l-3.74-.1h0l-4.19-.11h-.37l-29.09-.79h0l-10.28-.28-3.42-.09h0l-1.75,0Zm17.64-75.31,13.22.39-2.19,9.37,0,.12s0,0,0,0l-14,59.82-13.22.1Zm37.86.11,12.41-.77-6.17,40Zm-16.94,70-18.35-.3L267.8,90.18Zm-1.07-69.48,12.64.37,8.9,55.92-2.08,13.48-8-.12Zm-22-13.92,60.93-4.82-1.23,8-3.66.24h-.05l-56.15,3.69h0l-1.48.1ZM333.83,326l-11.07-69.58,49.75,6.49,17.36,74.49Zm1.3,8.14-.38-2.41,56.48,11.49.68,2.91Zm11.38,71.54L336,339.91,393.28,352l16.64,71.38Zm1.24,7.76-.3-1.85,63.88,17.81.56,2.39Zm.94,5.92L403.35,435l-45.93,7.56h-.05l-.19,0h-.72l-4,.65Zm21.7-165.54.79,3.44-49.31-6.44-.48-3Zm-19.45-83.36,18.13,77.72-48.57-5.92-6.36-40,5.21-33.19Zm-29.32-15.8L331.93,89l15.54,66.58ZM348.74,161l.92,4-29.46-1.28.57-3.62Zm-43.13,95.6,5.8-36.94,4,25.45v.06h0l1.35,8.49v0a0,0,0,0,0,0,0l11.93,75h0l1.3,8.13,11.36,71.42,1.24,7.74,4.47,28.08-10.52,1.74ZM325.38,411h0V411h0Zm-44.14.87L300.9,286.63,321,406.11Zm41.61,5.08L328,447.43l-53.73,8.85,5.19-33Zm35.75,64.73-4.21-26.45,4.66-.79.08,0,.16,0,.11,0,.15-.05.11-.05.13-.06a.39.39,0,0,0,.11-.06l.06,0,55-9.23,14.34,61.45Zm89.12,104.56L370.12,554l-9.37-58.9L434,521.19ZM430.8,514.28l-71-25.26-.2-1.3L432.12,513ZM318.91,47.55l28.5,1.13,1.84,8L334,56.21l-16.34-.53ZM500.5,699.23a.81.81,0,0,0,0-.16s0-.07,0-.12a.8.8,0,0,0,0-.15v0L355.33,58.93h0l-3.08-13.49a.08.08,0,0,1,0,0l-.05-.17,0-.1L352.1,45a1.17,1.17,0,0,0-.05-.11l-.06-.12a.75.75,0,0,0-.07-.12.47.47,0,0,0-.06-.09.38.38,0,0,0-.09-.13s0-.05-.06-.08l-.1-.12-.07-.08a.57.57,0,0,1-.11-.11l-.09-.07-.11-.09-.11-.08-.1-.06-.13-.08-.1,0-.14-.06-.1,0-.13,0-.13,0-.12,0-.15,0h-.1l-.17,0h-.05l-33-1.3h-.32l-66.32,5.25-.29,0h-.07l-.19.05-.13,0-.12,0-.15.06-.08,0-.15.08-.08.05a.57.57,0,0,0-.13.08l-.09.07-.1.08-.1.09-.08.08-.1.11-.06.08-.11.13-.05.08-.09.14,0,.11a.67.67,0,0,0-.06.12,1.22,1.22,0,0,0-.07.17l0,.08a1.29,1.29,0,0,0-.08.28l-2.94,12.65v0h0L93.58,713.79a.13.13,0,0,0,0,.06l0,.16s0,.08,0,.12,0,.09,0,.14v.25c0,.05,0,.1,0,.15s0,.08,0,.11a.77.77,0,0,0,0,.15l0,.11,0,.14s0,.08,0,.12l0,.12a1.12,1.12,0,0,1,.05.13l0,.1.08.14.06.09L94,716l.07.09.09.1.1.1.08.09.13.11,0,0,.95.75s0,0,0,.06l0,.14a.49.49,0,0,1,0,.12s0,.1,0,.15v.11a1,1,0,0,0,0,.17v0a.22.22,0,0,0,0,.08.68.68,0,0,0,0,.14.4.4,0,0,0,0,.15.22.22,0,0,0,0,.08,0,0,0,0,0,0,0,.56.56,0,0,0,0,.12l0,.11a.61.61,0,0,0,0,.12l0,.11,0,.1a.75.75,0,0,1,.07.12l0,.08.09.13,0,.07.1.13,0,.05.14.14,0,0,.18.15.05,0,.14.1.1.05.1.06.11.06.1,0,.12,0,.11,0,.11,0,.12,0,.11,0,.16,0h.53l1.46-.11h0l.2,0,.07,0,.2,0H101l.21,0h.08l.21-.06.06,0,.26-.11.24-.13.09-.06a.71.71,0,0,0,.14-.1l.09-.07,0,0,17.69-4.75h.06l.21-.07.08,0,.15-.07.1,0,.12-.07.09-.06.12-.08.11-.08.15-.14.06,0,.12-.13,0-.06.11-.13,0-.06c0-.05.07-.1.1-.16l0-.06.09-.16a.09.09,0,0,1,0-.06l.06-.16,0-.08s0-.1,0-.15l0-.1,10.74-45.9,63.66,42.53,5.63,21-9.17,59.44h0v.06s0,.08,0,.12v1.25h0v.08a1.28,1.28,0,0,0,0,.19.59.59,0,0,0,0,.13.5.5,0,0,0,0,.12.76.76,0,0,0,0,.16s0,.07,0,.1a.88.88,0,0,1,0,.15,1,1,0,0,0,0,.1l.06.13,0,.12.06.1.07.13.07.09.09.12a.27.27,0,0,0,.07.08l.1.12.09.09.1.09.16.12.05,0h0l5.23,3.67.05,0,.05,0,.06,0,.16.09.07,0h0a.35.35,0,0,0,.14.06l.06,0,.14,0h0l.07,0,.16,0,.07,0h.46l.3,0h.06l.18,0h0l.1,0,.11,0,.09,0,.1,0,.06,0h0l18.65-7.85,0,0,.15-.07.09-.05.12-.08.1-.06a.39.39,0,0,0,.1-.08l.18-.14.1-.1.07-.08.09-.11a.16.16,0,0,0,.06-.08l.1-.12.05-.08s0-.09.08-.14,0-.05,0-.08l.07-.15,0-.09.06-.14,0-.11,0-.13a.5.5,0,0,0,0-.12s0,0,0,0L272.3,468.79,330,459.1l31.38,186.28s0,0,0,0a.5.5,0,0,0,0,.12.74.74,0,0,0,0,.14l0,.1a.88.88,0,0,0,.05.15.59.59,0,0,0,0,.08,1,1,0,0,0,.07.15s0,.05,0,.08.05.09.08.14a.35.35,0,0,1,0,.08l.1.12.06.08.11.13a.46.46,0,0,0,.07.07l.17.15.07.06.13.1.08.05.15.08,0,0,2.68,1.41h0l.26.12.07,0a1.31,1.31,0,0,0,.28.09h0l.26,0h.07l.28,0,.36,0,.16,0,.19,0,14.71-4a1.43,1.43,0,0,0,.27-.09h0l.22-.09.07,0,.16-.1.1-.06.11-.08.11-.1a.24.24,0,0,0,.09-.08l.11-.1.08-.08a1,1,0,0,1,.08-.11l.08-.1.06-.1.08-.12.05-.09a.91.91,0,0,0,.07-.14.36.36,0,0,0,0-.09l.06-.16,0-.09s0-.1,0-.16l0-.11a.78.78,0,0,0,0-.14c0-.06,0-.11,0-.17s0-.06,0-.1v-.27l0-.26h0l-11.87-74.53,79,33.23L475,702.58v0l0,.13,0,.1s0,.1.05.15l0,.07.08.17,0,0a1.74,1.74,0,0,0,.11.18h0a2.66,2.66,0,0,0,1.11,1l4.74,2.28,0,0,.21.09.06,0,.26.07h.05l.22,0h.34l.35,0h0l.33-.06.05,0h.06L498.61,702h0l.15-.05.11,0a.61.61,0,0,0,.14-.07l.1,0a.57.57,0,0,0,.13-.08l.1-.06.11-.09.1-.08.09-.08.1-.1.08-.09.09-.11.07-.1.08-.11.07-.11.06-.12.06-.13s0-.07.05-.1,0-.09,0-.14a.49.49,0,0,0,0-.11l0-.14,0-.11a.78.78,0,0,0,0-.14.51.51,0,0,0,0-.13v-.13a.61.61,0,0,0,0-.14S500.5,699.26,500.5,699.23Z"/></svg>