<svg xmlns="http://www.w3.org/2000/svg" viewBox="0 0 841.9 595.3"><defs><style>.a{fill:#083d69;}.a,.b{fill-rule:evenodd;}.b{fill:#fff;}</style></defs><title>PM004A_C</title><path class="a" d="M0,538.63A56.63,56.63,0,0,0,56.66,595.3H785.23a56.64,56.64,0,0,0,56.67-56.67V56.74A56.7,56.7,0,0,0,785.23,0H56.66A56.69,56.69,0,0,0,0,56.74Z"/><path class="b" d="M680.94,378.82,623.75,271.43l18.06-4.21,3.73,9.08h0l.69,1.7,2.79,6.79,3,7.34,3,7.35,2.82,6.86,1.31,3.21.77,1.87,2.16,5.25h0l1.63,4,1.53,3.73h0l1.43,3.49,2.15,5.22,1.84,4.5L672.1,341l.88,2.13.28.69L686.87,377Zm-40.1-14,32,16.48-453.92,141-8.63,2c-9.05,2.12-24,2-32.52-1.91l-4.55-2.08-2.57-2.32-.47-4.22c-.91-8.21,9.82-14.4,16.3-16.78l6.49-2.38L619.54,371l19.64-5.7ZM641,262.07l-20.86,4.87-9.78-4.18,39.29-8.83,1.92-.3a41.81,41.81,0,0,1,16.06.8l2.59.81h0L649.73,260Zm53.58,37.12-3.93,1L700.93,122Zm-23.63-38.76-.28,3.52-.46.15-.84.28c-4.28,1.44-9,2.17-13.36,3.25l-2.51.6-1.39-3.4Zm3.94,43.95.26-3.39,4.77,2.07ZM690.62,338l-1.12.87-.49.22a5,5,0,0,0-1.27-1.32l-.17-.13-.89-.65-.38-.58-.26-.94c-1.1-4,1.78-9,4.81-11.31l.65-.51,1.23-.53.73-.08,1.06.28.22,0a5.11,5.11,0,0,0,1.32.18c.18,0,.35,0,.52,0l.11.45,0,2.3C696.82,330.49,693.87,335.45,690.62,338Zm-15.73-17.54-.37-.92.33-.56,1-1.18,6.61-1.76h0l.27-.07.17-.05,1.15-.31.46.28-1.26,1c-.14.11-.28.22-.42.35s-.26.26-.38.39l-2,2.33a17.67,17.67,0,0,0-2.89,4.87l-.42,1.11-.81-1.95Zm-13.24-32.25h0l-3-7.34L657.46,278l1.37-.33c1.73-.44,3.38-.8,5-1.23l2.48-.58.23-.06-1.5,19.91-.06.7-.35-.85ZM729.57,82.6l0,2.54c.07,8.44-4.61,19.39-14.76,17.08a2.1,2.1,0,0,1-.64-.14l-2.11-.47,1.4-38.81,3.72.67C725.41,65,729.51,75.11,729.57,82.6ZM697.7,57a5.08,5.08,0,0,0,0-.67l1.78.31L685.43,299.79l-9.91-4.28,1.77-23.4.26-.17a8,8,0,0,0,3.38-5.83l.84-11.27v-.11s0-.08,0-.12v-.23c0-3.52-2.64-6.33-5.66-7.84l-1.64-.77L691.43,108Zm-11.53,8.51h0l-1-.09h-.12l-.24,0c-5.69-.3-10.2,4.07-12.31,9a3.53,3.53,0,0,0,.66,4.13,6,6,0,0,0,5.47,1.75c2.8-.65,2.44-3.75,4.6-5.11a2.62,2.62,0,0,1,1.1-.24l.15,0,.49.1L682.55,95l-1-.23c-4.65-1-7.53-5-9.26-9.07l-1-2.49,0-.2a40.78,40.78,0,0,1-.3-15.41l0-.09,1.34-3.57c1.8-4.83,5.76-7.56,10.87-6.63l4,.74ZM634.62,355.81l-16,4.63-42.9-22.85.28-6.6c.11-3.31.76-5-2.56-6.69l-26.31-13.57,53-45.7,1.43-.32,16.35,7,55.45,104.12-30.53-15.74ZM153.35,449.34l-1.11-9.72L570.86,330.68l-.28,6.58Zm-41.2-1.29-1-.9-.76-2.12-.74-5.65,2.46,1c7.71,3.19,22.32,2.9,30.46,1.32l4.6-.94,1.12,9.81-5.09,1C135.26,453.23,118.48,453.66,112.15,448.05ZM544.31,315.1l22.06,11.37L148.82,435.13l-6.92,1.38c-9.27,1.83-20.64,2.05-29.5-1.62l-2.83-1.17-.78-.66-.43-3.25c-.68-5.18,10.12-10.22,14.23-11.52l6.87-2.11L538.92,315.63C540.86,315.13,542.52,314.19,544.31,315.1ZM173.47,534.63l-1.36-3.35-.67-5.95,5.36,2.45c8.78,4,26.49,3.58,35.85,1.42l4.62-1.09,1.08,11.79-5.86,1.41c-11.52,2.79-29.3,2.35-38.45-6.07A3.26,3.26,0,0,1,173.47,534.63Zm50,3.76-1.06-11.64L680.43,384.43l6.81-2.12-.67,7.7Zm519.4-444c2.81-9.69,1.07-21.37-3.44-30-2.9-5.51-7.3-10.89-13.15-13L722,49.8l-.08,0-.13,0-.15,0-.08,0-37.58-6.49h0l-.12,0h-.15l-.55,0c-12.53-1-19.23,6.6-23.6,16.49a28.11,28.11,0,0,0-2.41,8.09c-1.22,8.94-.34,17.87,3.69,25.86,3.75,7.41,9.72,12.74,17.86,14.68l2.21.52L664.31,243.31l-2.15-.24a53.17,53.17,0,0,0-13.8.53l-.55.09-.16,0-.16,0-50,11.25a7.89,7.89,0,0,0-3.74,1.92l-56.07,48.32L126.83,406.11l-.14.05-.15,0-7,2.17a52.43,52.43,0,0,0-14.6,7.62c-3.53,3-6.19,6.84-6.77,11.45-.68,5.8,1,13,1.8,18.62a12.59,12.59,0,0,0,.42,1.84,15.68,15.68,0,0,0,6.27,9.14c9.25,6.9,27.67,7,38.24,4.87l4-.82c3.67-.79,7.27-1.73,10.94-2.74L572.35,347.55l32,17L189.89,484.79a.55.55,0,0,0-.18.06l-.17,0-8.14,3a49.94,49.94,0,0,0-7.77,3.91,38.94,38.94,0,0,0-5.27,4.15l-2,1.78c-5.75,5-7,12.44-6.25,19.64l.94,8.4c.79,7.23,1.08,12.55,6.77,17.81l1.23,1.16a18.2,18.2,0,0,0,2.23,1.81,26.93,26.93,0,0,0,6.69,3.25c.75.27,1.55.52,2.35.75,13.89,4,26.64,2.81,40.46-.5l1.85-.49.07,0,.29-.08,467.91-149.9c4.9-1.58,5.61-3,6-8l1.06-12a10.77,10.77,0,0,0-1-5.54l-9.76-23.79,1.54-.2a17.62,17.62,0,0,0,10.65-5.83l2.32-2.66,0,0v0a24.37,24.37,0,0,0,4.83-10.58l.46-2.41c1-5.26-.5-12.24-5-15.63l-1.55-1.16-.06,0-.22-.16a19,19,0,0,0,2.59-1.51c1.51-1.44,1.65-3.31,1.8-5.32l.35-3.69v-.12s0-.09,0-.14L711.56,116l.88.2c7.78,1.82,15-.55,21-5.67C738.15,106.43,741.12,100.19,742.83,94.34Z"/></svg>