<svg xmlns="http://www.w3.org/2000/svg" viewBox="0 0 841.9 595.3"><defs><style>.a{fill:#083d69;}.b{fill:#fff;fill-rule:evenodd;}</style></defs><title>PM005C_C</title><rect class="a" width="841.9" height="595.3" rx="56.66"/><path class="b" d="M129.54,530.37c0,12.17,9.08,22.9,28.16,22.9s27.57-10.3,27.57-21.39c0-8.2-5.11-15.77-16.41-18.57l-15.63-4c-4.61-1.23-5.11-1.8-6.12-2.81a6,6,0,0,1-1.65-4.32c0-3.82,3.16-8.35,12.52-8.35,4.61,0,8.14,1.58,10,3.45a10.82,10.82,0,0,1,3.1,7.13l13.1.15c-.57-7.2-3-11.6-6.62-14.91-3.75-3.38-10.8-6.55-20.31-6.55-17.42,0-25.41,9.72-25.41,20.52,0,8.35,4.61,15.19,16.2,18.07l13.39,3.38c2.38.58,5.9,1.09,8.06,3.82a7.41,7.41,0,0,1,1.66,4.39c0,4.25-3.17,9.08-13.82,9.08-10.37,0-14.69-5.41-14.48-11.88Zm78.12-13.17V496H219.4c8.06,0,11.45,5.47,11.45,10.65,0,5.91-4.18,10.66-12.24,10.52ZM194.13,551h13.53V527.85h13.4c9.21,0,14.54-3,18-7.27a22.73,22.73,0,0,0,4.6-13.9c0-12.74-8.28-21.38-22.32-21.38H194.13Zm65.09-24.2,9-28.44,8.49,28.44ZM237.76,551h13.75L256,537.21h23.76L284,551h13.9L275.42,485.3H260.8Zm78.7-36.51V496.31h15c3.6,0,4.61.51,6.05,1.37a9.75,9.75,0,0,1,4.25,7.92c0,4.9-3.89,9.15-10.73,9.08ZM302.85,551h13.61l.07-26,11.88.07c4.68,0,8.06,2,10,5.41a16.57,16.57,0,0,1,1.36,4.17c1.3,5.4-.14,11.16,2.45,16.35h13.83a16.6,16.6,0,0,1-2.09-6.92l-1.15-11.52c-.44-4.82-1.52-6.84-3.32-8.71a13.19,13.19,0,0,0-8.64-4c8.5-.94,14.33-7.34,14.33-16.13,0-10.37-8.28-19.15-22.1-18.43H302.92Zm61.77,0h13.61V527.13l6.77-7,21.24,31h16.42l-28.08-39.75,24.84-26-16.78.07-24.41,26.14-.14-26.14-13.47-.07Zm103.54-21.89a15.56,15.56,0,0,1-2.74,7c-2.3,3.1-6.62,5.4-12,5.4-9.43,0-18.5-7.34-18.5-24,0-16.49,8.78-23.54,18.07-23.54,8.06,0,13.25,4.25,14.76,11.66l12.89-.65a23.86,23.86,0,0,0-7.06-14.47c-4.32-4.24-10.94-7.34-20.74-7.34-25.05,0-31.75,21.38-31.75,34.42,0,22.53,14.62,35.64,31.83,35.64,14.25,0,27.64-8.72,28.8-23.77ZM504.59,551h13.54v-25l22.25-40.68H526.26l-14.47,28.94L498,485.3H483.35L504.66,526Zm40.75,0H559V527.13l6.77-7L587,551h16.49L575.3,511.29l24.84-26-16.78.07L559,511.51l-.14-26.14-13.47-.07Zm63.08,0h49V539.73H622V521.66h31v-10.8H622.1V496.31h34.77v-11H608.42Zm58.39,0h45.5V539.66H680.42V485.3H666.81Z"/><path class="b" d="M629.43,323.38l-1.72-.55-2.29-.94L624,321l-.24-.26,1.82-.53,16.26-4.7-1.21,1.81-1.81,2.1-1.93,1.71-2,1.26-1.94.8-1.84.33Zm7.2-11.75a.43.43,0,0,1,0,.05h0l.15.54v0l-4.61,1.34ZM535.4,347.5l-.52-.26.53-.16ZM624,305l-1.52.42,0,0,.14-.27,1.54-2.49.14-.22,1.78-2.39h0l.07-.09,2-2.22,2-1.87.78-.49.92-.52.47-.24h0l.45-.23.91-.42.85-.34.06,0,.89-.3,1.12-.3,2.14-.57,1.79-.48.6.22,1.33.95,1.17,1.37,1,1.78.69,2.18.36,2.48v2.55l0,0-.05-.05a.94.94,0,0,0-.1-.1l0,0-.11-.09-.09-.06-.09-.06a2,2,0,0,0-.41-.21L640,301h0l-.12,0-.09,0-.12,0-.1,0h-.67l-.08,0-.14,0h0Zm-83.39,48.67v.37l0,.84h0l0,.95H540l-.28,0,.07-3.48,0-.84v-.36l.12-5.36.21-.06h0l.69-.2h0Zm-231,72.09-.62.15-.67.07h-.67l-1.49-22.23.63.23h0l.86.32.66.24,1.37,21.21Zm-105-90.86h.17l.65-.11.12,0h0l.61-.17h0l.09,0,.06,0h0l.36-.14h.44a2.25,2.25,0,0,0,2-2.46l-.55-5.39.69-.25,2.28-.67.56-.13,87.93,74.88,0,0,0,0,.16.12s0,0,0,0h0l.16.12h0l.16.11h0l.16.12h0l.16.11h0l.16.11,0,0h0l.17.12h0l.14.09,1.57,23.39L204.2,335Zm-2.07-17.6h0l.59.5.1.09.75,7.35h0l.66,6.47-.35.06-.45,0-.44-4.27-1.08-10.44ZM339.85,429l-3.22.88-3.37.69-3.46.49-3.51.27-3.48.06-3.37-.16-3.21-.37-3-.58-2.68-.76-1.14-.45h.06l.12,0h0l.81-.19h0l.08,0,.07,0h0l.72-.27,0,0,.05,0,.14-.07h0l.4-.23h.1a2.24,2.24,0,0,0,2.09-2.37l-1.3-20.11,1.55.28h.16l3.18.35h.14l3.34.15h.13l3.43-.06H325l3.46-.25h.12l3.42-.45h.13l3.33-.63.08,0h.05l3-.78h.07L524.2,350.34h0l.4-.11h0l2.2-.64,1.16-.34,7.3,3.66-.07,3.23a2.25,2.25,0,0,0,2.19,2.28h0l0,0,.51.2h0l.07,0,.09,0h0l.62.15h0a.86.86,0,0,0,.17,0h0l.69.08h1l.67-.06h.07l.11,0h0l.59-.13h0l.09,0h0a2,2,0,0,0,.42.06h.06a2.2,2.2,0,0,0,1.39-.49l1,.77.78.81.42.7.16.57-.05,1.89-.2.28-1,.88-1.37.88-1.74.83-2.09.75Zm297.3-141.64,1.44.51-1,.25-2.14.58-1.19.32-.07,0-.08,0-1,.34-.06,0-.05,0-.11,0h0l-.9.36,0,0,0,0-1,.45,0,0,0,0-.5.25h0l-.51.26-.05,0,0,0-1,.57,0,0-.05,0-1,.62h0s0,0,0,0l-.07,0-.1.07a.39.39,0,0,1-.1.08l0,0-2.2,2-.06.05-.09.1-.05.05h0l-2.1,2.34h0l0,0,0,.07a.27.27,0,0,0-.07.08l-.13.17h0l-1.84,2.47a.56.56,0,0,1-.05.08l-.06.08-.19.31-1.58,2.56-.05.08,0,.08-.18.35h0l-1.38,2.69,0,.08,0,.08-.06.13L613,304.73h0l1.5-2.92,1.7-2.74,1.87-2.52,2-2.25,2-1.86.9-.55,1-.54,1-.48,1-.42.94-.36.8-.27ZM602,304.81l6.52-1.11-.36.86-.2.42,0,.08a.3.3,0,0,0,0,.08s0,0,0,0l0,.12,0,.1,0,.12a.44.44,0,0,1,0,.1s0,.07,0,.11,0,.07,0,.11v.11a.37.37,0,0,0,0,.11.31.31,0,0,1,0,.1.45.45,0,0,1,0,.11s0,.07,0,.1,0,.08,0,.12l0,.09,0,.11,0,.1a.42.42,0,0,0,0,.1.31.31,0,0,0,0,.1l0,.09.06.1.06.08.07.1.06.07.08.09.07.07.08.07.09.08.08.06.1.07.09,0,.11.06h0l.07,0,.09,0,7.84,3.1a2.19,2.19,0,0,0,.83.16,2.25,2.25,0,0,0,.88-.19h0l.27-.06h0l.06,0h0l2.61-.72h0l.16,0h0l3.33-.93,13.34-3.73-12.45,5.48-72,20.51v-.5a.13.13,0,0,1,0-.06L554,329.4h0v0s0-.05,0-.07,0-.09,0-.14a.65.65,0,0,0,0-.13.14.14,0,0,0,0-.07v0h0l-.36-1.17a.56.56,0,0,1,0-.12l0-.08h0l-.62-1.48h0v0a1.51,1.51,0,0,0-.09-.18,1.19,1.19,0,0,0-.09-.15s0,0,0,0h0l-.74-1.1,0,0-.06-.09-.06-.08,0,0-1-1.21,0,0-.07-.09-.08-.08,0,0-1.11-1s0,0,0,0l-.09-.08-.1-.08,0,0-1.2-.82h0v0l-1.2-.78,0,0,0,0-.17-.11h0ZM480.66,51.12a.08.08,0,0,0,0,0l-.06.1a.54.54,0,0,0-.05.11l0,0-.17.41h0l-.37.86s0,0,0,0a.49.49,0,0,0,0,.11.56.56,0,0,0,0,.12s0,0,0,0l-.07.26h0l-.29,1.09a.06.06,0,0,1,0,0,.43.43,0,0,1,0,.11.5.5,0,0,0,0,.12v.15h0L479.29,56h0v.18a.62.62,0,0,0,0,.13v0l0,1.22h0v.23a.49.49,0,0,0,0,.12.49.49,0,0,0,0,.12v0l.17,1h0l.05.35a.09.09,0,0,1,0,0,.29.29,0,0,1,0,.09.5.5,0,0,0,0,.13.09.09,0,0,0,0,.05l.25.79h0l.15.5a.14.14,0,0,1,0,.06l0,.08a1,1,0,0,0,.07.15v0h0l.26.52h0l.31.63,0,0a1.32,1.32,0,0,0,.12.2l0,.06v0l.18.26.52.71h0l0,0,0,0,.12.14,0,0-.12,70.08-.52-.11-1.18-.25-1.29-.28-1.36-.29h0L476,133h0l-1.36-.29h0l-1.3-.28h0l-2.8-.59-.27-70h0a1.62,1.62,0,0,0,0-.22s0,0,0,0a1.13,1.13,0,0,0,0-.18.29.29,0,0,0,0-.09l0-.12s0-.09-.05-.13l0-.07-.06-.14,0-.06-.08-.13,0,0-.09-.11s0,0,0-.06a.36.36,0,0,0-.08-.09l-.07-.08-.07-.06-.09-.08-.06,0-.11-.08-.06,0-.12-.07-.1,0-.1,0-.2-.07h0a3.43,3.43,0,0,0-.44-.09h0L467,59.42h0l-2.45-.25a2.19,2.19,0,0,0-1.41.34l-.58-.36-.55-.52-.48-.66-.4-.79-.29-.88-.17-1,0-1,.11-1,.25-1,.37-.87.47-.77.55-.63.6-.49.63-.33h0a2.15,2.15,0,0,0,1.14.43l3,.23,13,1Zm39.69,2.13,0,0-.05.06,0,.07,0,0-.73,1.2v0a.25.25,0,0,0,0,.07s0,0,0,.08a0,0,0,0,1,0,0l-.57,1.35v0a.24.24,0,0,0,0,.08l0,.08v0l-.38,1.44v0a.24.24,0,0,1,0,.08.19.19,0,0,1,0,.08v0l-.19,1.49v.11s0,0,0,.08v1.54a.22.22,0,0,0,0,.08v.08a0,0,0,0,1,0,0l.2,1.45v0a.17.17,0,0,0,0,.07s0,.06,0,.09v0l.4,1.36v0l.08.21.4.85-31.56-3.2-.81-.11-.59-.22-.58-.37-.22-.21-.34-.33-.43-.6-.08-.1-.23-.47h0l-.19-.38-.1-.33h0l-.2-.64,0-.18h0l-.14-.87v0h0l0-1.06.13-1.1.25-.94h0l0-.11.3-.72h0l.11-.25.28-.47h0l.22-.37.19-.22h0l.4-.47.6-.48h0l0,0,.11,0,.24-.13h0l.3-.16.63-.19.7,0,32.17,2.46Zm9.59,3.59.28,1,.15,1.08V60l-.15,1.11-.28,1.06-.42,1L529,64l-.6.72-.65.55-.68.38-.07,0a2.43,2.43,0,0,0-1-.39l-.74-.1L525,65.1l-.2-.08-.31-.2h0l-.17-.12-.3-.3h0l-.18-.17-.26-.4h0l-.17-.24-.22-.46h0l-.14-.32-.15-.51h0l-.11-.39-.08-.54-.07-.45v-.53h0v-.5l.06-.5.07-.53.12-.45h0l.15-.53.16-.4h0l.22-.51.19-.32h0l.28-.46.21-.25h0l.33-.39.21-.17h0l.36-.3.2-.11.36-.21.2-.06.34-.1.27,0,.49,0a2.23,2.23,0,0,0,1-.32h0l.6.41.56.58.5.74Zm-97.31-.05-.78-.11-.57-.2-.56-.35-.54-.48L429.7,55l-.41-.76-.29-.86-.18-.94,0-1,.11-1,.24-.92.35-.85.46-.73.53-.6L431,47l.59-.3.59-.17.66,0,25.86,2v0l-.68,1.1,0,0,0,.07,0,.08,0,0L457.43,51a0,0,0,0,0,0,0l0,.08,0,.08a0,0,0,0,1,0,0L457,52.5v0s0,0,0,.07,0,.06,0,.09,0,0,0,0l-.15,1.35v0s0,.06,0,.08v.11l0,1.37v0a.28.28,0,0,0,0,.09v.08a0,0,0,0,1,0,0l.22,1.32v0a1.6,1.6,0,0,0,0,.21l.41,1.25v0a1.19,1.19,0,0,0,.08.2h0l.22.43ZM384.39,259.92l1.78-.3,1.9-.24,2-.17,2-.09,2,0,2,0,1.9.13,1.79.2,1.65.27,1.51.33.87.21,1.19.35.12,0,.13,0,.11,0,.12,0,.11,0,.1,0,.11,0,.1,0,.1,0,.11,0,.09,0,.1.05,7.82,3.54h0l.16.06.06,0,.16,0,.07,0,.13,0h.62l.06,0a1,1,0,0,0,.23-.05h.06a2.25,2.25,0,0,0,.52-.24l.06,0,.19-.15,0,0a1.75,1.75,0,0,0,.2-.19l.05-.06a1.66,1.66,0,0,0,.16-.21,0,0,0,0,0,0,0,2.2,2.2,0,0,0,.15-.26v0s0,0,0,0a1.12,1.12,0,0,1,.05-.13l0-.08,0-.12a.43.43,0,0,0,0-.11.3.3,0,0,0,0-.1s0-.08,0-.13a.25.25,0,0,1,0-.08v-.18l-2.69-115.4a.13.13,0,0,0,0-.06.41.41,0,0,0,0-.11l0-2.2.19-2.28.35-2.14.51-2,.28-1,.69-1.93.8-1.63.94-1.4.86-1.09,1.06-1.13,1.16-.85,1.24-.79,1.21-.52,1.44-.37,1.29-.21,1.49.09,1.35.12,38.37,8.16h0l4.55,1,1.3.28h0l1.36.29h0l1.38.29,1.36.29,1.29.27,1.18.26,1,.22.87.18h0l.61.13h.05l.44.1.21,0h0L515.92,146l1.82.58,1.46.6,1.83,1,1.78,1.35,1,1,1.69,1.71,1.52,2,1.38,2.29,1.23,2.56,1,2.78.81,2.94.58,3,.32,3.09.06,2.75c0,.08,0,.16,0,.23s0,.06,0,.1l-2.77,141.54v0h0a1.48,1.48,0,0,0,0,.21s0,.06,0,.09a.5.5,0,0,0,0,.12s0,.09,0,.13a.19.19,0,0,1,0,.08l0,.14a.64.64,0,0,1,0,.07l.06.12,0,.08.06.1a.41.41,0,0,0,0,.09l.06.08.06.1.06.06.09.1.05.06.1.09.07.06.1.08.11.07.07,0,.19.1h0l8,3.64h0l3.6,1.63.14.07.14.06.16.08.13.07.14.07.14.07.12.07.14.07.13.08.11.07.14.07.12.08,1.16.76,1,.7.87.82.85,1.05.59.87.51,1.21.28.9.14,1.28,0,.9-.22,1.28-.32.79,0,.11-.59,1.19-.68.87-.91,1-1,.82-1.08.64h0l-.35.2-1.09.61-1.13.51-.15.07h0l-.33.14h0l-.26.09h0l-.6.2h0l-.68.23-.33.11-.29.08-.7.2h0l-.63.18-.53.15h0l-.38.11h0l-.21.07h0l-6.38,1.85h0l-.48.14-1.08.32-1.57.45-2,.57-2.2.64L523,346,337.45,399.87l-2.94.76-3.19.61-3.29.43-3.33.24-3.3,0-3.2-.14-3-.33-2.8-.51-1.32-.35-.22-.05-.42-.12-.56-.14-.61-.23h0l-.85-.32h0l-.77-.28,0,0-.87-.36-.38-.16-.26-.13h0l-.64-.32h0l-.46-.23h0l-.23-.11h0l-.06,0-.18-.11-.16-.09-.15-.1-.16-.1-.14-.09-.14-.09-.15-.1-.14-.11-.12-.08-.13-.1-.13-.1-.12-.1-88.78-75.6-7.35-6.26,0,0h0l0,0h0l-.27-.23h0l-.45-.38-.58-.5-.7-.59-.76-.65h0l-.76-.64-.71-.62h0l-.62-.53-.48-.41-.32-.27h0l-.12-.1h0l-2-1.73-.06-.05h0l-1-.95h0l-.08-.06,0,0-.05,0,0,0,0,0,0,0,0,0,0,0,0,0v0l0,0,0-.08h0l-.62-1.05,0-.06s0,0,0-.06l0,0-.18-.46-.28-1.05,0-.67.05-1.21.37-1.08.29-.67.72-1,.58-.69.94-.76,1-.78,1.17-.71,1.47-.71,1.78-.7.91-.3,1.89-.61,2-.54,2.16-.46ZM429.87,414l-1,.32-3.38,1.09h0l-1.82.58-16.59,5.34-2.36.76h0l-4.87,1.57-1.57.5-4.08,1.31-1,.34-52.78,17-3.16.89-3.29.7-3.41.49-3.44.28-3.41.06-3.3-.16-3.14-.38-2.89-.58-2.61-.76-2.24-.92-1.84-1-1.49-1.17L203,343.52l-.41-.5-.13-.33-.58-5.61,100.8,91.59h0l.08.06,0,0h0l1.7,1.29h0l.18.12h0l2.1,1.14h0a.8.8,0,0,0,.16.08h0l2.47,1h0l.15.05h0l2.82.8h0l.1,0,3.09.61h.12l3.32.39h.1l3.48.16h.1l3.58-.06h.09l3.61-.28h.09l3.57-.5h.09l3.47-.71h.1l3.29-.9,0,0h0L541.1,369.61h.06l2.18-.78h0l.11,0,0,0,1.9-.9.16-.09h0l.86-.55-.16,6,0,.86-.22.61-.52.74-.9.82-1.29.86-1.66.81-2,.76Zm-25,47.7L402,460.63l-2.68-1.76-2.41-2-2.2-2.34L393,451.74,392,448.43l-.45-3.72.19-4,.87-4.17,1.52-4.17,1.35-2.56.16-.06,4.08-1.3,1.57-.51h0l4.87-1.57h0l2.36-.76,16.58-5.34,1.82-.58h0l3.28-1.06.9.67,2,2.34,1.5,2.84,1,3.3.36,3.65-.25,3.91-.87,4-1.48,4-2,3.9-2.54,3.65-3,3.28L422.41,457l-3.52,2.24-3.64,1.62-3.62,1-3.49.26Zm245.3-157.92v-3.09a.45.45,0,0,1,0-.11c0-.05,0-.09,0-.12s0,0,0,0l-.41-2.83s0,0,0,0a.59.59,0,0,0,0-.13l0-.11,0-.06-.79-2.5h0v0l0-.07a.65.65,0,0,0,0-.13l-.06-.12,0-.07,0,0h0l-1.15-2.15h0l-.07-.12a.56.56,0,0,0-.05-.08l-.06-.07a.44.44,0,0,0-.08-.11h0l-1.13-1.33h0l.06,0,.11-.06.09-.05,0,0,.28-.22h0l.09-.09.06-.07.06-.07.08-.1,0-.06a.5.5,0,0,0,.08-.12l0-.05a.91.91,0,0,0,.07-.14l0-.06c0-.05,0-.09,0-.13l0-.09,0-.11,0-.12s0-.06,0-.09,0-.1,0-.15v-.09h0l0-.52v-.24c0-.05,0-.1,0-.14s0-.06,0-.09,0-.06,0-.1a.53.53,0,0,0,0-.12s0,0,0-.06,0-.1,0-.14,0,0,0,0,0-.11-.07-.16l0-.05a.61.61,0,0,0-.07-.14l-.06-.08-.06-.1-.09-.12,0,0a1.36,1.36,0,0,0-.12-.12l0,0-.11-.09-.06-.05-.09-.06-.09-.06-.08,0-.12-.06-.06,0-.15-.06h0l-8-2.83h0l-.14-.05-.2,0-.08,0h-.44a3.11,3.11,0,0,0-.44.07h0l-10.27,2.7-.07,0-.06,0-.92.3-.05,0-.06,0-1,.41,0,0,0,0-1.06.46,0,0,0,0-1.05.52,0,0,0,0-1,.58,0,0,0,0-1,.63-.07,0h0l-.06,0-.11.08-.11.09,0,.05h0l-2.23,2h0l-.06.05-.1.1h0l-2.16,2.4a.27.27,0,0,0-.07.08l-.06.07v0h0l-2,2.65,0,.07-.05.08-1.31,2.11-9.92,1.69h0l-.11,0-.1,0h0l-60.79,16.4-6-2.71,2.74-140.09c0-.09,0-.19,0-.29a1.48,1.48,0,0,0,0-.21l-.07-2.85v-.08a.31.31,0,0,0,0-.1l-.34-3.28s0-.06,0-.09,0-.06,0-.09l-.61-3.23s0,0,0-.08l0-.1-.86-3.12,0-.1,0-.09-1.09-2.94h0v0a.36.36,0,0,0,0-.09.42.42,0,0,0,0-.1l-1.31-2.74h0l-.06-.1-.05-.1h0l-1.5-2.47h0l-.06-.08a1,1,0,0,0-.08-.11h0L529,149.4l0,0-.07-.09-.08-.09h0L527,147.36l0,0,0,0-1.11-1.08h0l-.08-.08-.09-.08h0l-2-1.55,0,0-.1-.07-.11-.06-.05,0-2.08-1.11-.21-.11h0l-1.65-.67-.09,0-.08,0-2-.63h0l-.11,0-.11,0h0l-30.77-6.54.11-68.44.85.12h.08l38.2,3.86h.45l1.07-.09H527l.18,0,.06,0,.13,0,.08,0h0l1.11-.35.1,0,.08,0a1.92,1.92,0,0,0,.25-.12l1-.6h0l.19-.11.06-.06.09-.07,0,0h0l.94-.8,0,0,.08-.08a.52.52,0,0,0,.1-.11l0,0,.86-1,0,0,0-.06.12-.17,0,0,.71-1.17h0a1.26,1.26,0,0,0,.13-.26l0,0,.56-1.33v0s0-.09,0-.13a.31.31,0,0,0,0-.08s0,0,0,0l.38-1.42v0a.79.79,0,0,0,0-.13s0-.06,0-.1a0,0,0,0,1,0,0l.19-1.47v0a.49.49,0,0,0,0-.12s0-.08,0-.11V58.63s0-.08,0-.12,0-.08,0-.12v0l-.2-1.44s0,0,0,0a.5.5,0,0,0,0-.12.36.36,0,0,0,0-.11.08.08,0,0,1,0,0l-.39-1.36s0,0,0,0,0-.07,0-.11a.37.37,0,0,0,0-.11s0,0,0,0l-.56-1.24,0-.06-.06-.1-.06-.11a.13.13,0,0,1,0-.05l-.73-1.08,0-.06-.08-.1-.08-.1,0-.06-.86-.87a1.37,1.37,0,0,0-.17-.17l-.19-.14-1-.66h0a.41.41,0,0,1-.11-.07L530,50l-.07,0-.14-.07h0l-1.06-.43h0l-.13,0-.09,0-.1,0-.13,0h0l-1.12-.18h-.17L488.45,46.2h-.33l-1.1.08h0l-.15,0h-.09l-.09,0-.13,0h0l-1.09.32-.15.06-.07,0h0l-.12.06-16.48-1.29-.34-.21h0l-.15-.09-.05,0h0l-.18-.08-1-.4h0l-.14,0-.08,0-.09,0-.13,0h0l-1.07-.16h-.16L433.06,42h-.31l-1.06.07h0l-.16,0h-.07l-.08,0-.14,0h0l-1,.29-.23.08-.21.1-.95.49h0l0,0-.13.08-.12.08s0,0-.05,0l0,0h0l-.87.69-.06.06-.09.08-.09.09-.05,0-.78.89a.1.1,0,0,0,0,.05l-.08.09a.86.86,0,0,1-.07.1l0,.06-.64,1,0,0-.06.1-.05.11,0,.05L424.94,48s0,0,0,0,0,.08,0,.12l0,.11a.43.43,0,0,0,0,0l-.32,1.24a.06.06,0,0,1,0,0s0,.08,0,.12,0,.08,0,.12,0,0,0,0l-.13,1.29v0a.49.49,0,0,0,0,.12v.16l.05,1.29v0s0,.07,0,.11a.5.5,0,0,0,0,.12v0l.23,1.26,0,.05a.29.29,0,0,0,0,.09.5.5,0,0,0,0,.13.07.07,0,0,0,0,0l.41,1.19,0,.07a.64.64,0,0,1,0,.07.91.91,0,0,0,.09.17h0v0l.56,1.06s0,0,0,0l.12.19a.25.25,0,0,1,0,.07,0,0,0,0,1,0,0l.72.94,0,0,.11.13a.46.46,0,0,0,.07.07l0,0,.82.75h0v0l.08.06.08.07.19.13.92.56.26.14.08,0,.08,0,1,.37h0l.09,0,.12,0,.07,0,.15,0h0l1.05.14h.08l31.91,3.23h.44l1-.08h0l.18,0h0l.26,66.48-35.78-7.6h-.13l-.12,0h0l-1.52-.14h-.07l-1.77-.1h-.31l-.17,0h0l-1.61.26h0l-.09,0-.12,0h0l-1.68.44h-.05l-.11,0-.11,0-.05,0-1.54.66-.06,0-.1.06-.11.06-.06,0-1.45.93-.05,0-.06,0-1.36,1h0l-.05,0-.12.1-.11.1-.05,0v0h0l-1.25,1.34-.06.07-.06.07-1,1.23-.05.07,0,.07-1.07,1.59,0,0-.06.11-.06.1a0,0,0,0,0,0,0l-.92,1.88h0l0,.1a1.17,1.17,0,0,1-.05.11h0l-.76,2.13,0,.07a.19.19,0,0,1,0,.08l-.31,1.11v0a0,0,0,0,1,0,0l-.54,2.16s0,.07,0,.1,0,.06,0,.09l-.38,2.32V142s0,.06,0,.09l-.2,2.44v.09s0,0,0,.07l0,2.27v.1a1.85,1.85,0,0,0,0,.23l2.61,111.84-4.6-2.08h0l-.12,0h0l-.12,0h0s0,0,0,0l-.12,0h0l-.12-.05h0l-.12,0h0l-.13-.05h0l-.13,0h0l-.13,0h0l-.13-.05h0l-.14,0h0l-.14-.05h0l-.17-.06h-.07L405,256l0,0h-.05l-.94-.23h-.05l-1.6-.35h-.12l-1.77-.29h-.1l-1.89-.21h-.1l-2-.14h-.08l-2.06-.06h-.09l-2.09,0h0s0,0-.05,0l-2.09.09h-.09l-2.05.18h-.09l-2,.25h-.09l-1.85.31h-.05L210.74,288.86h-.05l-2.23.48h-.1l-2.14.57h-.05l-.06,0-2,.63h0l-1,.33,0,0-.05,0-1.91.74-.08,0-.08,0-1.63.79h0l-.09.06-.1.05h0l-1.36.83h0l-.1.06a.31.31,0,0,0-.09.07h0l-1.12.87s0,0,0,0h0l-1.1.9h0l0,0-.05,0-.11.1-.1.11,0,0h0l-.76.9-.05.07a.18.18,0,0,0,0,.07l-.9,1.25-.13.2-.1.21-.42.95,0,.1,0,.08-.5,1.45v0h0s0,0,0,0a1.05,1.05,0,0,0,0,.19.3.3,0,0,0,0,.1.36.36,0,0,0,0,.11,1.1,1.1,0,0,0,0,.18v0h0v0l-.07,1.52h0l0,.95h0v.25s0,.07,0,.11a.34.34,0,0,0,0,.1l0,.16a.11.11,0,0,0,0,.05v0h0l.38,1.47a.06.06,0,0,0,0,0,.24.24,0,0,1,0,.08c0,.05,0,.09.05.13v0l.31.77,0,0a1.74,1.74,0,0,0,.14.27h0l.07.12,0,0s0,0,0,0l0,.09s0,0,0,0v0l0,0,.59,1h0l.07.12v0l0,0,.05.08,0,0s0,0,0,0l.05.08,0,0s0,0,0,0l.06.08,0,0,0,0,.06.08,0,0,0,0,.06.08,0,0,0,0,.07.08,0,0,0,0,.07.08,0,0v0l.08.08,0,0,0,0,.08.08h0v0l.08.07,0,0,0,0,.1.08h0l1,.94.09.08,0,0,0,0,1.38,1.18,1.44,14-.09.09h0l0,0-.12.11-.08.11-.05.05v0h0l-.73,1,0,.05-.08.11a.47.47,0,0,1-.05.1l0,.09-.06.12a.14.14,0,0,1,0,.06l-.39,1v0a.88.88,0,0,1,0,.15.24.24,0,0,1,0,.08.5.5,0,0,0,0,.12l0,.12a.28.28,0,0,1,0,.09v.14s0,0,0,.05v1.1s0,.07,0,.11v0l1.21,11.6s0,0,0,.06a.52.52,0,0,0,0,.11.5.5,0,0,0,0,.12l0,.09a1,1,0,0,0,0,.14l0,0,.36.95v0a.3.3,0,0,1,0,.08.37.37,0,0,0,0,.11.16.16,0,0,0,0,.07,1,1,0,0,0,.08.14l0,0,.13.18h0l.73.89,0,0,.11.12.06.06h0L303.2,443.55l.1.08.06.05h0l1.69,1.32.05,0,.07.06.12.07,0,0,2.11,1.18h0l.23.11h0l2.46,1,.07,0,.14,0h0l2.81.82h0l.15,0,3.08.62h.09l.08,0,3.3.39h.16l3.46.16h.15l3.55-.06h.14l3.58-.29.1,0h.05l3.54-.51.08,0h.06l3.44-.73.1,0h0l3.27-.93h.08l47.81-15.38-1.26,3.46s0,0,0,0l0,.12,0,.11s0,0,0,0l-.94,4.5V440a.5.5,0,0,0,0,.12s0,.08,0,.12v.06l-.21,4.38s0,.05,0,.07a.24.24,0,0,0,0,.12V445a.2.2,0,0,1,0,.07l.51,4.1h0v0l0,.12a.25.25,0,0,1,0,.08l.06.22,1.22,3.74h0l0,.07a.5.5,0,0,0,.05.13s0,0,0,.06.05.1.08.14a0,0,0,0,0,0,0l1.88,3.24v0a1.43,1.43,0,0,0,.15.22l0,.05.1.12,2.47,2.64,0,0,.09.09.08.08h0l2.62,2.14,0,0,.16.11h0l3,2h0l.26.14.06,0,.13.05,3.41,1.24h0l.09,0,.12,0h.07l.15,0h0l3.73.48h0l.26,0h.21l3.88-.3h.06l.1,0,.19,0h.05l4-1.05.06,0,.11,0,.12-.05.06,0,3.95-1.77h0s0,0,0,0a.92.92,0,0,0,.24-.13h0l3.8-2.42,0,0,.11-.07.07-.06,0,0,3.54-3h0l.08-.08.1-.09s0,0,0,0l3.16-3.49,0,0a1.33,1.33,0,0,0,.14-.19h0l2.68-3.86h0v0c0-.08.1-.15.14-.23v0l2.18-4.16v0l.06-.13,0-.07,0,0,1.58-4.32a.06.06,0,0,1,0,0s0-.08,0-.13,0-.06,0-.09,0,0,0,0l.94-4.35v-.05a.59.59,0,0,0,0-.13s0-.07,0-.1a.43.43,0,0,1,0-.05l.27-4.26v-.31a.13.13,0,0,0,0-.06l-.4-4s0-.05,0-.08,0-.08,0-.12l0-.14,0-.06v0h0L438.79,423a2.09,2.09,0,0,0-.08-.23,2,2,0,0,0-.1-.21l-1.72-3.26h0l-.07-.12a.22.22,0,0,1-.05-.08l-.06-.07-.08-.12h0L435,417,541,383l0,0,.06,0,2.18-.81.22-.09,1.88-.93a1.71,1.71,0,0,0,.23-.13h0l1.56-1,0,0,.1-.08.08-.07,0,0,1.21-1.11.08-.09.06-.06.16-.2.83-1.18h0a.78.78,0,0,0,.11-.18h0l.09-.18,0-.07,0-.08.44-1.21h0a1.21,1.21,0,0,0,.05-.18.06.06,0,0,0,0,0,.58.58,0,0,0,0-.14s0,0,0-.08v0a1.23,1.23,0,0,0,0-.19l.06-1.23v0l.33-12.46a1.93,1.93,0,0,0,0-.24s0-.07,0-.1,0-.08,0-.12a2,2,0,0,0,0-.24l-.24-.85-.1-1.18a.07.07,0,0,0,0-.05c0-.05,0-.09,0-.13a.43.43,0,0,1,0-.11l0-.1a.65.65,0,0,0,0-.13v0l-.47-1.33a2.41,2.41,0,0,0-.15-.33.56.56,0,0,0,0-.08h0l-.13-.18h0l-.78-1,0,0-.09-.1-.06-.07-.09-.09a.71.71,0,0,0-.09-.07l-.07-.06-.11-.08,0,0-1-.66-.1-.05-.1-.06-2-1,.21-8.58.09-.05h0l1.19-.67,0,0h0l.13-.07L619,322.06v.05c.05.07.1.15.16.22l0,.06.09.1,1.57,1.71,0,0,.1.11.07.06.1.07.1.07,0,0,1.86,1.21h0a1.13,1.13,0,0,0,.21.12l.08,0,0,0,2.57,1.05.09,0,.08,0,2.07.67.06,0,.09,0a2.7,2.7,0,0,0,.41.06h0l2.23.12h.12l.21,0h.23l2.29-.42h0l.15,0,.07,0,.06,0,.16-.06,2.34-1h0l.07,0,.21-.11,0,0,2.3-1.46,0,0,.11-.08.08-.06s0,0,0,0l2.19-1.92v0l.08-.07.1-.11,0,0,2-2.31h0a1.56,1.56,0,0,0,.16-.2v0l1.76-2.65a2.39,2.39,0,0,0,.13-.21h0l1.48-2.9v0l.06-.15,0-.05h0l1.14-3.06v0a1,1,0,0,0,0-.16l0-.05v0l.78-3.14v0l0-.13s0-.06,0-.09v0l.39-3.13v0a.45.45,0,0,0,0-.11Z"/><path class="b" d="M417.65,438.44l.52.39.16.16.06.13.05.31-.05.47-.17.54-.29.54-.39.46-.42.34-.37.17-.24.05h-.09l-.15-.07-.6-.45,0,0,.05-.49.21-.68.36-.66.48-.57.53-.42ZM413,445l.77.59,0,0,.15.1,0,0,.15.08h0l.7.34h0l.16.07.07,0,.15,0,.09,0,.12,0,.12,0,.8.09h.25a1.93,1.93,0,0,0,.42,0l.87-.17h0l.1,0,.14,0,.08,0,.15-.06,0,0,.86-.41,0,0,.13-.07.06,0,.11-.07.07-.06h0l.79-.63.08-.07.08-.07.17-.19.66-.79,0-.05.06-.08.13-.2v0h0l.49-.9v0a1,1,0,0,0,.07-.15l0,0a1.46,1.46,0,0,0,.07-.19h0l.31-1v0a.74.74,0,0,1,0-.14s0-.05,0-.08a.36.36,0,0,0,0-.1.5.5,0,0,0,0-.12h0l.09-1v0a.66.66,0,0,0,0-.14v-.1s0-.07,0-.11,0-.08,0-.12v0l-.13-.85h0v0s0,0,0-.06l0-.15,0-.1,0-.11-.06-.13s0,0,0-.06l0,0h0l-.33-.72v0l-.07-.13a.25.25,0,0,0,0-.07l-.06-.09a.86.86,0,0,0-.07-.1l-.05-.07-.1-.11h0l-.54-.57-.05-.05-.09-.09-.09-.07-.06,0-.78-.58a2.23,2.23,0,0,0-3.13.45l-.07.11h0l-.09,0-.08,0-.06,0a.19.19,0,0,0-.09,0h0l-.86.41h0l-.09,0-.06,0-.05,0-.08.06h0l-.79.62-.12.11-.11.12-.66.79h0l0,0-.07.09-.06.09,0,0h0l-.49.9h0s0,0,0,.05L413,439l-.06.16-.3,1h0l0,.11a.06.06,0,0,0,0,0,.22.22,0,0,0,0,.08s0,.06,0,.09h0l-.09,1v.26s0,.06,0,.09v.1A2.24,2.24,0,0,0,413,445Z"/><path class="b" d="M413.31,286.5l-1.28-.64h0l-.12-.05-.1,0-.09,0-.13,0h0l-1.14-.27h0l-.18,0-.3,0-.28-10.46,3.43,1.62Zm-27.22-15.79,1.52-.27,1.54-.2,1.6-.14,1.63-.08,1.64,0,1.6.05,1.55.11,1.45.17,1.31.22.25.05.48.15.36,12.67-.93-.12H400l-2.24-.16h-.1l-2.32-.07h-.09l-2.36,0h-.09l-2.35.12h-.1l-2.31.22h-.1l-2.24.31h-.1l-2.13.4h-.06L230.3,317,215.49,305Zm73.44,43.16-20.66-10.44-.23-14.79,20.8,9.86ZM464,300.68l1.06.5h0l1,.49.34.16.07,16.79-.44,0h-.9l-.84-.09-.31-.07v-1.73l-.1-16.12Zm29.21,30.22L469.67,319l-.07-15.67,23.73,11.25Zm6.14-13.47h0l1.07.51,1,.46h0l.34.16v.18h0v2.13l0,3.28,0,3.38,0,3.39,0,3.29v1.49l-.59.12-.9.08h-.95l-.9-.1-.56-.13v-1.88l.1-17.1Zm12.73,6.86-1.2-1.39,1.21.57Zm6.78,2.39,2.22,1.06,2.29,1.08,2.19,1,.9.43-.62.17-2.22.62-2.31.64-2.24.63-2,.56-.6.16v-.3h0V331.2h0v-.51h0v-.31h0v-.13h0l.06-4.05v-.6Zm-7.61,7.84-1.19.33-.06,0h0l-3.94-2,0-1.89,0-3.38,0-1.77,5.85,6.75v.15l0,1.61ZM435.15,287l.33.16.25,15.9-.35,0h-.86l-.78-.08-.1,0-.06-4,0-.73v-.34h0l-.21-11.79.8.38Zm-16.86-8,1.86.88,2,.94,2,.93h0l1.8.86h0l1.52.73.75.35.2,11.2a2.11,2.11,0,0,0-.8.56h0l-.09,0h-.56l-1.7.29-1.79.14-1.81,0-1.67-.17-1.39-.3-.56-.21-.1-4v-1h0v0l-.27-11.41Zm-85,105-2.19.54-2.14.39-2.21.28-2.23.15-2.21,0-2.14-.09-2-.21-1.87-.33-1.66-.42-1-.35,0,0-.09,0-.09-.06-.07,0-.09-.05-.07,0-.09-.06-.06,0-.09-.06-.06,0-.06,0-.05,0-78-62.86,149.52-32,2.05-.38,2.14-.3,2.22-.21,2.26-.12,2.26,0,2.22.07,2.14.16,1.55.19,0,.56a2.23,2.23,0,0,0,2.23,2.17h.07a1.87,1.87,0,0,0,.71-.14h0l.1,0h.06l.54.05h.84l.56,0,.13,0h0l.51-.09.16,0h0a2.11,2.11,0,0,0,.62.09h.06a2.19,2.19,0,0,0,1.52-.65l.21,0,3.88,1.95.08,3.44a2.25,2.25,0,0,0,2.11,2.18l.34.24h0a1.18,1.18,0,0,0,.19.11h0l.12.05,1.23.47h0l.07,0,.09,0h0l1.59.34h0l.11,0h0l1.84.18h.16l1.93,0h.14l1.92-.15.14,0h0l1.25-.22,2.18,1.09.07,3.85a2.24,2.24,0,0,0,2.24,2.2h0a1.55,1.55,0,0,0,.31,0l.35.14h0l.07,0,.09,0h0l.83.18h0l.12,0h.05l.93.1h1.29l1-.08h.16l.38-.06,22.48,11.35V319a2.24,2.24,0,0,0,2.23,2.22h0l.28,0,.54.21h0l.07,0,.08,0h0l.88.2h0l.13,0h0l1,.11h1.37l1-.08h.17l.4-.08,25.34,12.8V336a2.23,2.23,0,0,0,2.22,2.25h.26l.77.3,0,0,.07,0ZM213,301l-1.92.43H211l-.16-.13h0l-.61-.5-.23-.18-.35-.28-.51-.41-.07,0-.48-.4-.37-.29h0l-.5-.4-.1-.09a2.24,2.24,0,1,0-2.81,3.49l.1.08h0l.5.41h0l.37.3.48.39.07.05.51.41.34.28.24.19h0l.61.49,0,0,.58.47h0l.07.05h0l.35.29h0l0,0h0l0,0,19.22,15.49h0L310,387h0l0,0,.08.06,0,0h0l.09.07h0l.09.07h0l.09.07h0l.1.07h0a0,0,0,0,0,0,0l.1.07a2.33,2.33,0,0,0,.85.54l.42.14h0l1.2.42a1.39,1.39,0,0,0,.19.06h0l1.84.47h.06l.11,0,2,.35h.15l2.17.23h.13l2.27.09h.13l2.34,0h.12l2.35-.16h.13l2.33-.3h.05l.07,0,2.27-.41.08,0h.05l2.29-.56h.06L509,339.81l1-.29.45-.13h0l2-.56,2.32-.64h0l.62-.17,1.18-.33,1.65-.46,2-.56,2.25-.63,2.31-.64h0l2.22-.61,2-.55,1.58-.44,1.09-.3.51-.14h0l1.27-.36.25-.07.92-.25,1.54-.43h0l.06,0,.07,0h0l.09,0h0l.08,0h0l.08,0h0l.08,0,.07,0h0l0,0h0l0,0h0l.07,0h0l.07,0,.07,0,.08,0,.6-.19h0l.08,0h0l.5-.16.08,0,.1,0h.05l.46-.2.12,0,.28-.12h0l.23-.09h0l.09,0a1.51,1.51,0,0,0,.22-.11h0l1-.59a2.24,2.24,0,0,0-2-4,2.31,2.31,0,0,0-1,.45l-.14.12-.21.16-.22.1h0l-.12.05-.4.17-.4.13-.08,0h0l-.61.19-.07,0-.08,0h0l-.07,0-.08,0h0l-.06,0-.08,0h0l-.08,0h0l-.08,0h0l-.09,0h0l-.07,0h0l-.06,0h0l-1.53.42-.38.11-.48-.23-.52-.24-1.07-.51-1.56-.74-1.94-.92h0l-2.19-1h0L523,323.69l-2.23-1.05h0l-5.46-2.58L505,315.12l-.28-.13h0l-.55-.27-.79-.37h0l-1-.45-1.08-.51h0L469,298.07h0l-.94-.44-1-.5-1.06-.5-28-13.26-.91-.43-1-.47-1-.49-3.7-1.75-.18-.09h0l-.68-.32-1.14-.54-1.53-.72-1.8-.86h0l-2-.93-2-.94-1.86-.88L413,271.51h0l-4.68-2.22-.07,0h0l-.22-.1h0l-.34-.16-.46-.22-.54-.25-.58-.27-.58-.28-.54-.26-.47-.22-.35-.17h0l-.23-.1-.08,0h0l-.16-.08h0l-.08,0h0l-.08,0h0l-.09,0h0l-.08,0h0l-.09,0h0l-.09,0h0l-.09,0h0l-.09,0h0l-.1,0h0l-.09,0h0l-.09,0h0l-.06,0h-.07l-.93-.28-.08,0-.08,0-.39-.09h0l-.79-.18a2.34,2.34,0,0,0-.58-.06l-.19,0h-.11l-1.56-.19h-.1l-1.64-.12h-.09l-1.69-.05h-1.9l-1.72.08h-.09l-1.69.15h-.09L387,266h-.1l-1.6.28h0L213,301H213Z"/><path class="b" d="M511.05,163.78l0,0,.63.85.59,1,.53,1.12.45,1.23.36,1.3.25,1.33.16,1.48,0,1.36-1.71,130.81-6-2.71L507.65,163Zm-9.16,139.4a2.23,2.23,0,0,0,1.63,2l10.11,4.58h0a1.7,1.7,0,0,0,.45.15l.11,0,.11,0h.27l.26,0h.07l.25-.05h0l.27-.1,0,0,.21-.11,0,0,.22-.16.06-.05.15-.15.06-.06a1.77,1.77,0,0,0,.16-.22.1.1,0,0,1,0-.05l.13-.24s0,0,0,0h0l.06-.16,0-.05a.74.74,0,0,0,0-.14.24.24,0,0,0,0-.08s0-.06,0-.08a.59.59,0,0,1,0-.14V308c0-.06,0-.12,0-.18h0l1.75-134.28v-.09l0-1.11a2.8,2.8,0,0,0,0-.41l0-.15h0l-.18-1.65s0-.06,0-.09a.28.28,0,0,1,0-.09l-.29-1.51,0-.28a2.24,2.24,0,0,0-.14-.46l-.25-.91a.36.36,0,0,0,0-.09.29.29,0,0,0,0-.09l-.52-1.41,0-.09,0-.1-.62-1.29h0l0-.07a.75.75,0,0,0-.07-.12h0l-.7-1.18h0a.7.7,0,0,0-.06-.09l-.07-.11h0l-.78-1.05h0l-.08-.09-.07-.09h0l-.28-.29,0,0a.6.6,0,0,1-.08-.08l-.09-.08,0,0-.21-.17,0,0-.09-.07-.11-.07,0,0-.36-.2,0,0-.13-.07-.1,0-.1,0-.14,0h-.11L506,158h0l-.13,0-.1,0h-.45l-.14,0h-.06l-.19,0h0a2.38,2.38,0,0,0-.59.25h0l-.17.11h0l-.14.11,0,0-.1.1-.05.06a.39.39,0,0,0-.08.1l-.06.07-.06.1-.06.09-.06.1,0,.09,0,.12,0,.08c0,.05,0,.09,0,.14a.14.14,0,0,1,0,.06v0a.59.59,0,0,0,0,.13.36.36,0,0,0,0,.1s0,.07,0,.1,0,.09,0,.13v0l-1.32,142.83h0v0h0v0s0,.06,0,.09Z"/><path class="b" d="M459.32,280.25l-18.5-8.38L439,146.47l19.52,4.69Zm-22.95-6.89v.05s0,.09,0,.13,0,.07,0,.1,0,.07,0,.11,0,.08,0,.11l0,.09a.5.5,0,0,0,0,.13l0,.07s0,.09.05.12a.59.59,0,0,0,0,.08l.06.11a.41.41,0,0,0,.05.09l.06.08.07.1.06.07.09.09.06.06.09.08.08.06.09.07.1.06.08,0,.12.07.05,0,23,10.41h0l.16.06.05,0,.17.05h.06l.12,0,.34,0h0l.28,0h.07l.23-.05h.05l.27-.1,0,0a.94.94,0,0,0,.22-.12l.06,0a1.84,1.84,0,0,0,.22-.17s0,0,0,0l.17-.15,0-.07a1.84,1.84,0,0,0,.17-.22l0,0a2,2,0,0,0,.13-.25l0,0a0,0,0,0,1,0,0s0-.09.05-.14l0-.07,0-.13,0-.09s0-.07,0-.11a.5.5,0,0,0,0-.12v-.08c0-.05,0-.1,0-.14v0L463,149.38v-.06a.57.57,0,0,0,0-.13.28.28,0,0,0,0-.09.51.51,0,0,0,0-.13.36.36,0,0,0,0-.1l0-.1,0-.12a.3.3,0,0,0,0-.08.61.61,0,0,0-.05-.12l0-.08-.06-.11a.35.35,0,0,1,0-.08l-.07-.09-.06-.09-.07-.08-.07-.08-.07-.07-.09-.08-.07-.06-.1-.07-.08-.06-.1-.06-.1-.05-.09,0-.12,0-.08,0-.14,0-.05,0-24-5.77h0l-.13,0h-.67l-.12,0-.1,0-.11,0-.11,0-.09,0-.11.05-.08,0-.11.06-.08.05-.1.07-.08.06-.08.07-.09.08-.06.07-.09.09-.05.07-.08.1a.35.35,0,0,1,0,.08l-.06.1a.41.41,0,0,1-.05.09,1,1,0,0,1,0,.1l-.05.11,0,.09a.65.65,0,0,1,0,.13s0,0,0,0a.08.08,0,0,1,0,0s0,.08,0,.13,0,.07,0,.1a.41.41,0,0,1,0,.11v.17Z"/><path class="b" d="M425.74,147l2.19,122.51v0a.57.57,0,0,0,0,.13.38.38,0,0,0,0,.1.52.52,0,0,0,0,.11s0,.08,0,.11l0,.09a.56.56,0,0,0,0,.12l0,.08a.61.61,0,0,0,.05.12l0,.08.06.11.05.08.06.09.07.09.06.07.08.1.07.06.09.08.08.06.09.07.09.06.09.05.12.07.05,0,.66.3s0,0,0,0l.16.06.06,0,.16,0,.07,0,.13,0,.32,0h0l.26,0h.06l.23-.05.06,0a2.15,2.15,0,0,0,.27-.1h0l.24-.13.06,0,.21-.15,0,0,.18-.18.06-.07a1.84,1.84,0,0,0,.17-.22h0a1.35,1.35,0,0,0,.15-.26v0l0,0a.69.69,0,0,1,.05-.13l0-.08a.65.65,0,0,0,0-.13.3.3,0,0,0,0-.1.36.36,0,0,0,0-.1.51.51,0,0,0,0-.13.25.25,0,0,1,0-.08v-.18L430.81,142h0a1,1,0,0,0,0-.17v-.06l0-.14s0-.05,0-.08a.36.36,0,0,0,0-.11.29.29,0,0,0,0-.1.54.54,0,0,0,0-.1s0-.07,0-.11l-.05-.09-.05-.1a.83.83,0,0,0-.08-.12l0-.06-.12-.15h0a.86.86,0,0,0-.13-.14v0l-.12-.1-.05,0-.09-.07-.09-.07-.06,0-.14-.08h0l-.18-.08h0l-.19-.06h-.05l-.17,0h-.65l-.13,0h-.09l-.1,0-.11,0-.07,0-.13.05-.06,0-.13.07-.09.05-.1.06a.52.52,0,0,0-.11.1l-.05,0a.8.8,0,0,0-.13.13l0,0-.11.13,0,0a1,1,0,0,1-.08.11l-.05.07-.05.09-.06.11,0,.07-.06.14h0l-.14.37-.07.22-.07.29h0v0s0,.06,0,.08a.52.52,0,0,0,0,.11l-.22,1.24a.28.28,0,0,1,0,.09s0,0,0,.08l-.13,1.47a.19.19,0,0,0,0,.08v.08l0,1.51h0V147Z"/><path class="b" d="M472,281.54h.28l7.5.1h.27l.18,0h0l2.75-.82,0,.56,0,0a2.19,2.19,0,0,0-.85.71l-2.53.76-7-.09-.65-.23v-1Zm6.65,7.47h0l1.34-.1h.17l2.26-.39.18,0h0l1.86-.57.06,0,.06,0a.61.61,0,0,0,.14-.07h0l1.23-.65v.35l-.18.22-.39.21h0l0,0-.6.32-1.15.36-.75.23-.91.16h0l-1.59.28-.55,0-.43,0ZM475,155.12h0l1.37.32,1.35.33,1.28.31,1.18.28,1,.25.44.11-.19,118.83v0h0v1l-.32.13-.85.23-1,.19-1.13.13-1.2.07h-1.23l-1.21-.06-1.14-.12-1-.18-.45-.12-.42-122.61.88.22h0l1.3.31Zm18.44,140.59-4.75-2.15v-2.44h0l.06-.05.12-.12,0,0,.81-.94,0,0,0,0a.69.69,0,0,0,.11-.13l0,0a.91.91,0,0,0,.08-.13l0-.06.06-.12,0-.07a.49.49,0,0,0,0-.11.32.32,0,0,0,0-.09.19.19,0,0,0,0-.07.74.74,0,0,0,0-.14l.14-.64h0v0a.13.13,0,0,1,0-.06.77.77,0,0,0,0-.15.53.53,0,0,0,0-.13s0-.05,0-.07v0h0l0-1v-.14a.41.41,0,0,0,0-.11v0l-.06-.68,0-.24s0,0,0-.06a.75.75,0,0,1,0-.16c0-.07-.05-.15-.08-.22l-.25-.61h0v0a.08.08,0,0,1,0-.05s0-.09-.07-.14l-.05-.09-.06-.09-.09-.12,0-.05,0,0h0l-.43-.54-.29-.37h0l-.41-.5h0l0,0,0,0-.1-.12-.08-.06a.3.3,0,0,0-.08-.08l-.12-.09-.05,0,0,0h0l-.49-.34h0s0-.06,0-.09l.05-1.12v-4.36c0-.05,0-.1,0-.15a.22.22,0,0,0,0-.08c0-.05,0-.09,0-.13l0-.1a.36.36,0,0,0,0-.1.56.56,0,0,0,0-.12.13.13,0,0,0,0-.08s0-.08,0-.12a.2.2,0,0,1,0-.08l-.06-.11-.05-.08-.06-.1-.07-.09-.06-.07a.36.36,0,0,0-.08-.09l-.06-.07-.1-.08-.07-.06-.1-.08-.08-.05-.09-.06-.11-.06-.08,0-.13-.05,0,0-.12,0,.2-116.23,8.13,1.95Zm-26-18h0v.21h0v5.47h0v.19h0v2.68h0v.32l0,.42a2.23,2.23,0,0,0,1,2,2.3,2.3,0,0,0,.79.61l1.58.71.47.22,2.16,1h0l.09,0,1.66.76,1.48.67h0l.15.07h0l1.23.55,1,.46,2.36,1.06,1.94.89h0l1.39.63.74.33.06,0h0l9.21,4.17h0l.19.07h0l.21.06h0l.23,0h.26l.26,0H496l.24-.05h0a1.69,1.69,0,0,0,.27-.1l.05,0,.21-.12.06,0,.22-.16,0-.05.16-.15.05-.06.17-.22,0-.05.13-.24v0a.94.94,0,0,0,.06-.15.14.14,0,0,0,0-.06.65.65,0,0,0,0-.13l0-.09s0-.06,0-.1a.5.5,0,0,0,0-.12.22.22,0,0,0,0-.08c0-.05,0-.1,0-.15v0L498.76,158V158a.76.76,0,0,1,0-.15s0-.05,0-.08,0-.09,0-.13,0-.07,0-.1l0-.11,0-.11a.36.36,0,0,0,0-.09s0-.08,0-.12l-.05-.08a.54.54,0,0,0-.05-.11.56.56,0,0,1,0-.08l-.07-.09-.06-.09-.07-.08-.07-.08a.46.46,0,0,0-.07-.07l-.09-.08-.07-.06-.1-.08-.08,0-.1-.06a.31.31,0,0,0-.1-.05l-.09-.05-.12,0-.08,0-.14,0H497l-12.61-3h0l-.21,0h0l-.43-.1h-.06l-.61-.15h0l-.86-.2-1-.25h0l-1.17-.29-1.28-.3h0l-1.35-.33-1.38-.33h0l-1.36-.32-1.29-.31h0l-1.2-.29h0l-1.05-.25h0l-.89-.21-.52-.12h0l-.13,0-.1,0h-.55l-.13,0-.1,0-.11,0-.11,0-.09,0-.11.05-.08,0-.11.06-.08.05-.1.07-.08.06a.27.27,0,0,0-.08.07l-.09.07a.46.46,0,0,1-.07.07l-.07.09-.07.07a.36.36,0,0,1-.07.1l-.05.08-.06.1,0,.1-.05.09a.61.61,0,0,1-.05.12.24.24,0,0,0,0,.08.74.74,0,0,0,0,.14s0,0,0,0a0,0,0,0,1,0,0s0,.09,0,.13a.34.34,0,0,0,0,.1.41.41,0,0,0,0,.11.53.53,0,0,0,0,.13v0Z"/></svg>