<svg xmlns="http://www.w3.org/2000/svg" viewBox="0 0 841.9 595.3"><defs><style>.a{fill:#083d69;}.b{fill:#fff;fill-rule:evenodd;}</style></defs><title>PM004B_C</title><rect class="a" width="841.9" height="595.3" rx="56.66"/><path class="b" d="M637.16,322.55l-47.6-89.38,15-3.51,3.1,7.56h0l.58,1.41,2.32,5.65,2.51,6.11,2.51,6.12,2.35,5.72,1.09,2.67.64,1.55,1.79,4.37h0l1.35,3.31,1.28,3.11h0l1.19,2.9,1.79,4.35,1.53,3.74,1.17,2.86.73,1.77.24.57L642.09,321Zm-33.34-11.66,26.62,13.72L252.63,442l-7.19,1.69c-7.53,1.77-20,1.65-27.07-1.59l-3.78-1.73-2.14-1.93-.39-3.52c-.76-6.83,8.17-12,13.56-14l5.41-2L586.1,316l16.34-4.74Zm.11-85.56-17.36,4.06-8.14-3.48,32.7-7.35,1.6-.26a34.84,34.84,0,0,1,13.37.67l2.15.67,0,0-17,4Zm44.55,30.94-3.27.86,8.59-148.35ZM628.81,224l-.22,2.93-.39.13-.7.23c-3.56,1.2-7.46,1.8-11.12,2.7l-2.08.51-1.17-2.84Zm3.28,36.62.21-2.82,4,1.72Zm13.13,27.94-.93.72-.41.18a4.56,4.56,0,0,0-1-1.1l-.14-.1-.75-.55-.32-.48-.22-.78c-.91-3.3,1.49-7.5,4-9.41l.54-.43,1-.44.6-.07.88.23.19.05a4.2,4.2,0,0,0,1.1.14l.43,0,.1.38,0,1.91C650.38,282.3,647.92,286.43,645.22,288.53Zm-13.05-14.64-.32-.77.28-.47.85-1,5.5-1.47h0l.23-.06.14,0,1-.26a2.4,2.4,0,0,0,.38.23l-1.05.8-.35.29c-.11.11-.22.22-.31.33l-1.69,1.94a14.67,14.67,0,0,0-2.42,4.06l-.34.92-.67-1.63Zm-11-26.78h0L618.65,241l-1-2.39,1.14-.28c1.44-.36,2.81-.66,4.19-1l2.07-.48.19-.05L624,253.35l0,.59-.29-.71ZM677.66,76l0,2.12c.06,7-3.83,16.13-12.28,14.21a1.75,1.75,0,0,1-.54-.12l-1.76-.39,1.17-32.3,3.1.56C674.2,61.31,677.61,69.76,677.66,76ZM651.1,54.65a3.63,3.63,0,0,0,0-.57l1.48.27-11.72,202.4-8.25-3.57,1.47-19.47.22-.14a6.63,6.63,0,0,0,2.82-4.86l.69-9.38v-.19c0-.06,0-.13,0-.19,0-2.94-2.2-5.27-4.72-6.53l-1.36-.64L645.89,97.09Zm-9.56,7.08h0l-.8-.08h-.3C635.7,61.37,632,65,630.19,69.1a2.94,2.94,0,0,0,.54,3.44A5,5,0,0,0,635.29,74c2.33-.54,2-3.11,3.83-4.25a2.22,2.22,0,0,1,.91-.2l.13,0,.41.08-2,16.59-.87-.2c-3.87-.84-6.27-4.13-7.71-7.55l-.84-2.07,0-.16a34,34,0,0,1-.25-12.83l0-.07,1.11-3c1.5-4,4.79-6.29,9-5.51l3.3.61ZM598.65,303.38l-13.28,3.85-35.71-19,.23-5.48c.09-2.76.63-4.14-2.12-5.58l-21.9-11.29,44.14-38,1.19-.26,13.61,5.81L631,320l-25.42-13.1ZM198,381.24l-.93-8.08,348.43-90.68L545.3,288Zm-34.3-1.07-.86-.76-.63-1.76-.62-4.71,2,.85c6.41,2.65,18.58,2.41,25.35,1.09l3.83-.78.93,8.17-4.23.87C183,384.47,169,384.83,163.73,380.17Zm359.73-110.7,18.36,9.47L194.28,369.38l-5.76,1.14c-7.72,1.53-17.18,1.71-24.56-1.34l-2.35-1-.65-.56-.35-2.7c-.57-4.31,8.42-8.51,11.83-9.59l5.72-1.76L519,269.92C520.59,269.5,522,268.72,523.46,269.47ZM214.78,452.19l-1.13-2.78-.55-5,4.46,2c7.31,3.35,22.05,3,29.84,1.19l3.84-.92.9,9.82-4.88,1.18c-9.58,2.31-24.39,1.95-32-5.06A2.56,2.56,0,0,1,214.78,452.19Zm41.57,3.18-.88-9.69L636.73,327.22l5.67-1.77-.55,6.42ZM688.68,85.77c2.34-8.07.89-17.79-2.86-25-2.41-4.58-6.08-9.06-11-10.83l-3.55-1.27-.07,0-.12,0-.12,0-.07,0-31.27-5.4h-.12l-.1,0h0l-.47,0c-10.43-.82-16,5.49-19.63,13.72a23.15,23.15,0,0,0-2,6.74c-1,7.43-.29,14.86,3.07,21.52,3.12,6.16,8.09,10.6,14.86,12.22l1.85.43-13.78,112-1.78-.19a44.22,44.22,0,0,0-11.49.44l-.46.07-.13,0a.61.61,0,0,0-.13,0l-41.66,9.36a6.54,6.54,0,0,0-3.11,1.6l-46.68,40.22L176,345.27l-.12,0-.12,0-5.83,1.8a43.85,43.85,0,0,0-12.15,6.35,15.08,15.08,0,0,0-5.63,9.53c-.57,4.83.86,10.84,1.5,15.5A8.92,8.92,0,0,0,154,380a13.07,13.07,0,0,0,5.21,7.61c7.7,5.74,23,5.83,31.83,4.05l3.31-.69c3.06-.65,6.06-1.43,9.11-2.27l343.37-92.22,26.63,14.19-345,100-.15.05-.14,0-6.78,2.49a41.69,41.69,0,0,0-6.47,3.26,32.33,32.33,0,0,0-4.38,3.46l-1.69,1.48c-4.79,4.17-5.87,10.35-5.21,16.34l.79,7c.66,6,.9,10.44,5.63,14.82l1,1a15.55,15.55,0,0,0,1.85,1.5,22.64,22.64,0,0,0,5.57,2.71c.63.22,1.29.43,1.95.62,11.57,3.3,22.18,2.34,33.68-.42l1.54-.4.06,0,.24-.07L645.43,339.81c4.08-1.32,4.68-2.51,5-6.65l.89-10a9.1,9.1,0,0,0-.87-4.61l-8.12-19.8,1.28-.17a14.63,14.63,0,0,0,8.86-4.85l1.93-2.22,0,0h0a20.34,20.34,0,0,0,4-8.81l.38-2c.84-4.38-.42-10.19-4.13-13l-1.3-1,0,0-.19-.13a15.19,15.19,0,0,0,2.15-1.26c1.26-1.19,1.38-2.75,1.5-4.43l.29-3.07s0-.06,0-.1,0-.07,0-.11l5.54-153.78.74.17c6.47,1.51,12.52-.46,17.5-4.72C684.79,95.82,687.26,90.64,688.68,85.77Z"/><path class="b" d="M145.49,551H159V522H185v29h13.39l.07-65.73H184.94v25.92H159V485.3H145.56Zm79.41-24.19,9-28.44,8.5,28.44ZM203.45,551H217.2l4.39-13.82h23.83L249.67,551h13.9L241.1,485.3H226.49Zm65.09,0h13.17V506.68l27,44.35h13.9V485.37H309.29V529.8l-27.51-44.5H268.54Zm77.54-11.3V496.17l9.22.07c8.2,0,11.73,2.09,14.76,6,2.66,3.31,4.89,8.71,4.89,17.35,0,14.55-7,20.16-16.2,20.16ZM332.47,551h28.66c13.82,0,27.21-11.59,27.21-32.47,0-21.89-13.24-33.26-27.28-33.26H332.47ZM410,551h13.46V496.31h19.87v-11H390.07v11H410Zm51.91-36.5-.07-18.22H477c3.59,0,4.6.51,6,1.37a9.66,9.66,0,0,1,4.18,7.92c0,4.9-3.89,9.15-10.73,9.07ZM448.32,551h13.61l.07-26,11.81.08c4.75,0,8.06,2,10.08,5.39a14.19,14.19,0,0,1,1.29,4.18c1.37,5.4-.07,11.16,2.52,16.34h13.76a17.65,17.65,0,0,1-2-6.91l-1.15-11.52c-.43-4.82-1.51-6.84-3.31-8.71a13.21,13.21,0,0,0-8.72-4c8.57-.94,14.33-7.35,14.33-16.13,0-10.37-8.21-19.15-22-18.43H448.39Zm60.77-65.73L509,531.38c0,6.77,1.72,10.65,4.89,14.18,3.82,4.18,10.3,7.56,21.82,7.56,17.71,0,26.35-8.85,26.35-22.1L562,485.3H548.47V529c0,5.4-.86,7.13-2.16,9-1.87,2.74-5.33,4.83-10.66,4.83-8.49,0-13.1-4.76-13.1-12.75l.07-44.78ZM616.8,529.15a16.54,16.54,0,0,1-2.74,7c-2.37,3.1-6.62,5.4-12,5.4-9.43,0-18.5-7.34-18.5-24,0-16.49,8.78-23.54,18.07-23.54,8,0,13.25,4.25,14.76,11.66l12.89-.64a23.86,23.86,0,0,0-7.06-14.48c-4.32-4.25-10.94-7.34-20.74-7.34-25.05,0-31.75,21.38-31.75,34.41,0,22.54,14.55,35.64,31.83,35.64,14.25,0,27.64-8.71,28.72-23.75ZM638.11,551h13.54v-23.9l6.84-7.06,21.24,31h16.48l-28.15-39.74,24.84-26-16.85.07-24.4,26.14-.08-26.14-13.46-.07Z"/></svg>