<svg xmlns="http://www.w3.org/2000/svg" viewBox="0 0 595.3 841.9"><defs><style>.a{fill:#083d69;}.a,.b{fill-rule:evenodd;}.b{fill:#fff;}</style></defs><title>PM001A_C</title><path class="a" d="M0,785.23A56.63,56.63,0,0,0,56.66,841.9h481.9a56.7,56.7,0,0,0,56.74-56.67V56.66A56.69,56.69,0,0,0,538.56,0H56.66A56.62,56.62,0,0,0,0,56.66Z"/><path class="b" d="M540.22,162.86l1.43,2.81-.32,3.3-5.14,3.16-2.78,1.4,3.34-7.16.5-5.49Zm-1.77,24.95-5.73,3.63L341.18,291.16l-.25.13-11.58,5.11-14.76,2.92-16.35.37-15.43-2.25-12.76-4.61-173.26-74h0L88,215.09h0l-3.57-1.52-.06,0-19.79-8.45-7.25-3.74-2.18-3.24-1-9.8,4.6,2.3.08,0,.1.05,207.62,85.9,14,4.9,17.13,2.42,17.94-.39,16.53-3.18,12.79-5.47,193.91-97.79L539,177l0,0,1.64-1-.85,8.69ZM501.64,295.08,500,299l-5.84,4.17-2.49,1.47h0L488,306.81l-11.23,6.63L360.63,382l-19.75,11.66-1.44.84-10.67,5.34-10.16,2.29-3.36.75-15,.39-5.06-.84h0l-9.09-1.5-11.79-4.82L272,395,250.7,384.7l-14.5-7-.06,0-71.36-34.5-26.64-12.89-12.75-6.16-12-5.78h0l-4.72-2.28-3.14-1.52-7.18-4.17-2.45-3.89-7.29-78.93,3.73,1.6,173.42,74,14.27,5.17,17.49,2.55,18.25-.41,16.93-3.36,13-5.75,161.83-84.24.72-.38ZM508,572l1.95,16.88L503.18,615,489,642l-17.71,20.42-15,7.88L446.19,666l-.24-.15h0l-.4-.23L442.89,651l6.85-28.46,15.63-29.61,19.46-21.47,13.29-5.81.61.31Zm-16.32-9.58-9.62,4.21h0l-.09,0a2.39,2.39,0,0,0-.75.53l-.08.09h0l-4.17,4.61,1.74-6.36,1-3.58,6.07-2.57ZM350.58,765.06l-15.36,9-18.49,5.15-20,.74-19.17-3.78L261,768.29l-4.66-3.24-1.28-28.89L239.76,391.83l6.08,2.94,21.29,10.3,2.47,1.19.32.14h0l12.53,5.13,0,0,.3.1.24.08.24.06.33.07h0l9.72,1.61h0l5.58.92.2,0,.21,0,.51,0H300l16.08-.42h0l.52,0h.08l.46-.08h.06l3.84-.86,10.81-2.43.53-.14.08,0,.44-.17.12-.06.13-.06,11.45-5.73.35-.19,1.6-.94h0l19.75-11.66h0l116.15-68.56,5.56-3.28L468.94,557.44v.1l-.12,1.53-.94,3.44-3,10.87-8.33,11.46v0a1.27,1.27,0,0,0-.13.19,7.41,7.41,0,0,0-.59,1.12l-.62,1.4h0l-1,2.27-14.6,27.65h0l-.87,1.66-.05.09-.13.3a2.44,2.44,0,0,0-.1.24,2.67,2.67,0,0,0-.09.26,2.8,2.8,0,0,0-.09.31.38.38,0,0,0,0,.1l-6.59,27.45L430.44,653l0,.16c0,.1,0,.21-.05.31s0,.2,0,.3a1,1,0,0,0,0,.17l-.76,11.72-.78,12-1.45,22.31ZM159.79,353.21l16.94,331.27-.12.08-.07.05-15.47,11L139,343.15Zm68.48,33.1,15.06,339.21-60.4-41-.08,0-.3-.19-.19-.1,0,0L165.55,356ZM120.5,334.21l12.71,6.14L155.4,694.69l-8.86-9.18-4.21-10.89L112.7,330.44ZM68.42,149.36l4.85-5.85,9.7-6.35,28.24-16.46,1.87-.64,253,90.31-24.73,18-12.15,7.7-15.47,5.35-16.92,2.35-16-1-13.13-4.18L76,162.76l-8.09-4-.4-4.08ZM267.65,85.84,277,84.46l3.85-.1-8.4,4a5.61,5.61,0,0,0,2.43,10.66,5.54,5.54,0,0,0,2.43-.56L305.9,84.76,338.59,69l-5.93,10.78-1,.52-4.27-1.27a5.6,5.6,0,1,0-3.2,10.74l6.41,1.91,2.7.81.11,0h0l1.91.57,11.94,3.56h0l.1,0h0l42.71,12.75h0l.09,0,2,.61,11.63,3.47h0l.08,0,48.65,14.52h0l.06,0h0l2.17.64h0l11.26,3.36h0l.07,0L482.39,137l-19.16,11.21a5.6,5.6,0,1,0,5.66,9.67l30.3-17.72,22-12.9h0l1.91-1.12h0l4.13-2.41h0l5.25-3.08,4.69-2.74h0l.07,0,4.23-2.48.66-.38.07,2.21-1,3.86-1.7,3-2.09,1.69-.32.19h0L519.7,136.69l-3.2-1.06A5.61,5.61,0,1,0,513,146.27l5.73,1.9,1,.35,5.92,3.35h0l0,0,1,1.49-.06.66-4.92,1.84L409.4,189,163.51,105.14ZM479.47,117l24.83,7.17-8.67,5.07L476,123.41Zm-12.35-6.17a5.67,5.67,0,0,0,1.6,2.48L465,120.14l-2.54-.76ZM417,99l37.91,11-3.35,6.18-37.75-11.26ZM404.45,92.6a5.67,5.67,0,0,0,1.74,2.73l-3.39,6.23-2.78-.83Zm-44.27-10,31.95,9.23L389,97.46,357.22,88Zm-12.66-6.5a5.62,5.62,0,0,0,1.85,2.9l-3.14,5.73-3-.89Zm52.32,1.59h0l-2,3.72h0l-.19.34L359.07,70.58h0l-.08,0h0l-4.49-1.3a5.56,5.56,0,0,0-3.26,0l2.54-4.61.54-.61a5.39,5.39,0,0,0,2.29,1.28l2.06.58,41.26,11.57Zm62.84,17.87h0l-2.08,3.84h0l-.26.47L415.85,87h0l-.06,0h0l-4.37-1.26a5.55,5.55,0,0,0-3.18,0l1.47-2.7h0l1.23-2.24.17-.2h0l.4-.45a5.56,5.56,0,0,0,2.27,1.26l2,.57,47.12,13.2Zm58.93,18.54-4,2.32L478.32,105h-.07L474,103.78a5.58,5.58,0,0,0-3.06,0l1.57-2.91h0l1.29-2.37.2-.25h0l.4-.46A5.6,5.6,0,0,0,476.65,99l2,.55h0l45.84,12.85Zm-373.13-6.13,3.78-.7,249.61,85.12-30,14.14L121.58,117.15ZM73.6,167.83l.07,0,.15.07,191.86,75.91.11,0,.08,0,13.56,4.3.05,0,.11,0,.18,0h.06l.26,0h0l16.6,1h.18l.34,0h0l17.48-2.42h0l.21,0H315l.24-.07h0l16-5.54.17-.07.08,0,.32-.17h0l12.5-7.93.05,0,.1-.07,28.87-21,36.92-17.37,113-33.31.07,0,.12,0,2.49-.94-.29,3.15-1.39,3L518.45,170,340,258.86l-11.59,4.89-14.78,2.81-16.36.35-15.45-2.15-12.76-4.42L79.25,182.66,71.8,179l-2.21-3.09-1-10.6ZM61.15,185.55l-7.71-3.85-.31-3,.84-3.08,4-3.3.76,7.65,4.64,6.48Zm486.28-53.41s0,0,0,0l.23-.19a8.54,8.54,0,0,0,.94-1.13,1.43,1.43,0,0,0,.16-.24l2.59-4.53h0a2.12,2.12,0,0,0,.11-.21,6.56,6.56,0,0,0,.42-.95.38.38,0,0,1,0-.2l1.38-5.28v-.09a0,0,0,0,0,0,0,10.79,10.79,0,0,0,.18-1.36.34.34,0,0,1,0-.09v-.21l-.16-4.64v-.06h0a6.11,6.11,0,0,0-.76-2.65h0l-1.66-2.88c0-.06-.07-.1-.1-.15l0-.07a5.76,5.76,0,0,0-2.81-2.24l-.23-.09-.17,0-2.33-.65-.17,0-.31-.07-.31-.05-.17,0-2.15-.21-.68-.19-.08,0h0a5.75,5.75,0,0,0-3.26.14h0l-.08,0-1.39.52L484.08,89.48l-.11-.12a.86.86,0,0,0-.13-.14,4.75,4.75,0,0,0-.4-.38h0L483,88.5h0l-2.44-1.66,0,0-.24-.14a4,4,0,0,0-1.18-.53l-.15,0,0,0-2.18-.6h0a5.89,5.89,0,0,0-1.1-.19h-.11c-.45,0-.86,0-1.27.07a5.34,5.34,0,0,0-.81.21h0l-1.52.51L421.17,71.85a1.14,1.14,0,0,0-.15-.16l0-.06a4.65,4.65,0,0,0-.88-.71.3.3,0,0,0-.08-.08l-.05,0h0l-2.49-1.62a5.57,5.57,0,0,0-.76-.41,5.31,5.31,0,0,0-.81-.3l-2-.57-.16,0-.06,0a5.61,5.61,0,0,0-2.79.05l-.16,0-1.64.5L364,55.83h0l-.17-.18c-.12-.12-.3-.23-.42-.35a.1.1,0,0,0,0-.06,4.12,4.12,0,0,0-.45-.35.46.46,0,0,1-.13-.08l-1.69-1.06-.08-.09-.17-.18h0a7.19,7.19,0,0,0-1-.79,4,4,0,0,0-1.44-.65.24.24,0,0,0-.13-.07L356,51.31l-5-.64L302.67,73.92l-.21,0-13.6-.9-12.76.31-10.27,1.51L146.05,97l-.41.08-39.11,13.4-29.31,17.1-11.48,7.5-7.84,9.45-1.69,9.71.61,6.22-3.23,1.34-.05,0h0l-.27.12a4.39,4.39,0,0,0-1,.63l-.09.07,0,0h0l0,0-6.58,5.42,0,0-.26.24,0,0a5.73,5.73,0,0,0-1.43,2.26c0,.08-.05.16-.07.24s0,0,0,.05l-1.6,5.82,0,.13a.09.09,0,0,1,0,.05,5.3,5.3,0,0,0-.12,1.69.21.21,0,0,0,0,.06.66.66,0,0,0,0,.14l2.28,21.74v.08a.69.69,0,0,0,0,.13.41.41,0,0,0,0,.11,5.38,5.38,0,0,0,.77,2.11l.09.15,0,0,3.75,5.59h0l.07.1h0a5.69,5.69,0,0,0,1.77,1.61l.24.14,8.7,4.49.35.16h0L77,222.58l8,86.31a.77.77,0,0,1,0,.15v0a6.5,6.5,0,0,0,.54,1.81c.09.18.19.35.29.51l3.84,6.09v0l0,.05h0a5.3,5.3,0,0,0,1.71,1.72l.19.11,0,0,8.56,5,.36.19h0l.46.22L131.24,676.3v.11s0,.07,0,.1a6.5,6.5,0,0,0,.24,1.06,1.86,1.86,0,0,0,.12.42l4.88,12.62.07.16a2.29,2.29,0,0,0,.1.23,9.06,9.06,0,0,0,.82,1.31,1.35,1.35,0,0,1,.21.2h0l10.51,10.89,0,0h0l.09.09.32.29.27.21.15.12,0,0,0,0,6.45,4.49h0l.08,0a5.65,5.65,0,0,0,6.38-.15L179.87,696,244,739.52l1.4,31.62,10,6.93L274.06,787l21.83,4.3,22.57-.83,21.17-5.9,17.46-10.26L436.37,707l.09-.08.23-.21.14-.15a5.29,5.29,0,0,0,1.47-3.13h0a2.66,2.66,0,0,0,0-.28s0,0,0,0l1.45-22.27,4.24-3.54,10.32,4.47h0l.31.13a5.69,5.69,0,0,0,3.9,0l.33-.13.1-.06a.82.82,0,0,0,.19-.09l18.27-9.62.09,0,.15-.09a4,4,0,0,0,1.12-.88l.19-.18.08-.09,18.82-21.71,0,0a1,1,0,0,0,.12-.15,6.73,6.73,0,0,0,.53-.76.25.25,0,0,1,0-.07.16.16,0,0,0,0-.07l14.78-28.17a.3.3,0,0,0,0-.08c0-.1.1-.2.14-.3l.18-.53a1,1,0,0,0,.09-.23.14.14,0,0,1,0-.06l7.18-27.79,0-.13c0-.08,0-.15,0-.23a11.24,11.24,0,0,0,.12-1.35.56.56,0,0,1,0-.21.57.57,0,0,1,0-.13l-2.37-20.51h0s0-.08,0-.13,0-.09,0-.14a5.73,5.73,0,0,0-2.25-3.65l-.22-.14h0l-11.7-7.62h0l-.25-.14-.25-.15h0l-15.61-7.92-.17-.08h0a5.62,5.62,0,0,0-4.26-.18l-.12,0-.17.06-2.91,1.24,19-236.41.19-.11h0c.14-.08.27-.17.4-.26l7.34-5.24,0,0,.43-.34a6.41,6.41,0,0,0,.76-.8,4.09,4.09,0,0,0,.65-1.12.66.66,0,0,1,0-.11l2.6-6.22s0,0,0,0l.14-.38v0a5.82,5.82,0,0,0,.24-1,.74.74,0,0,1,0-.21h0l7.37-86.26,18.22-9.48,9.06-5.74,3.42-8,2.33-24-4.26-8.34-9.41-6.26-2.35-.82,7.26-13.52Z"/></svg>