<svg xmlns="http://www.w3.org/2000/svg" viewBox="0 0 595.3 841.9"><defs><style>.a{fill:#007d59;}.b{fill:#fff;fill-rule:evenodd;}</style></defs><title>RC001E</title><rect class="a" width="595.3" height="841.9" rx="56.66"/><path class="b" d="M62.25,799.44H76.51l12.31-60.05,10.51,60.05h14l22.54-85-15.48.08-14,59.9L96,714.48l-14.62.07L70,774.45l-13-60-14.33.07Zm79.13,0h54.14V784.82H156.43V761.49h34.2v-14h-34.2V728.66H195V714.4H141.38Zm64.58,0h50.26V784.75H221V714.4H206Zm55.73,0h50.19V784.75H276.74V714.4H261.69Zm70.56-43.78.07-27.36h13c8.93,0,12.68,7.06,12.68,13.75,0,7.71-4.61,13.75-13.61,13.68Zm-14.9,43.78h14.9v-30l14.83.07c10.16,0,16.13-4,19.88-9.5a32.18,32.18,0,0,0,5.11-17.93c0-16.41-9.15-27.65-24.7-27.65h-30Zm71.85-31.32,9.94-36.8,9.36,36.8Zm-23.68,31.32h15.19l4.89-17.93h26.28l4.68,17.93H432l-24.84-85H391Zm86.83-43.78.07-27.36h13c8.86,0,12.6,7.06,12.6,13.75,0,7.71-4.61,13.75-13.54,13.68Zm-14.91,43.78h14.91v-30l14.83.07c10.15,0,16.06-4,19.8-9.5a32.12,32.12,0,0,0,5.18-17.93c0-16.41-9.21-27.65-24.69-27.65h-30Zm75.46-43.78V728.3h13c8.93,0,12.67,7.06,12.67,13.75,0,7.71-4.61,13.75-13.53,13.68Zm-15,43.78h15v-30l14.83.07c10.15,0,16.06-4,19.8-9.5a32.12,32.12,0,0,0,5.19-17.93c0-16.41-9.22-27.65-24.7-27.65h-30.1Z"/><path class="b" d="M505,459.32H359.23l.65-29.59-45,86.66,49,82.57,1.36-31.55h99.39c10.06,0,19.47-4.68,26.87-11.42A54.21,54.21,0,0,0,509,532.49l30.9-86.6c-1.37.65-2.73,2-4,2.66C527.11,454.59,515.69,459.32,505,459.32Zm48.36-61.79c-.7-8-4-15.45-8.76-24.21l-53-86.6-86.66,57.72L470.7,449.91l34.27.66c9.41,0,18.11-4,26.17-9.41,6.74-4.68,12.07-11.43,16.1-18.77C552,414.28,553.33,405.58,553.33,397.53ZM135.59,456.6h0L196,366l24.81,16.75-47.66-85.29-96-4.68,26.17,18.82-55,82.58c-4,6.69-6.75,16.81-6,28.23A49.34,49.34,0,0,0,52.3,449.91h0l55.06,73.88v-4.74a51.87,51.87,0,0,1,8-31.55Zm-12.78,35.63c-4,6-6.7,19.48-6.7,26.17,0,8.7,2.67,16.81,6.7,24.15s9.41,14.15,16.1,18.17c7.4,4.68,15.45,6.69,25.51,6.69H273.93V463.35H142.28ZM303.47,158.45l50.38,113.48L325,282l96.72,13.43,61.8-74.52L452.58,231,419,161.12h-.65A43.77,43.77,0,0,0,399.49,139a50.68,50.68,0,0,0-27.53-8H279.32C290.69,137,298.09,146.32,303.47,158.45ZM280,141.64a50,50,0,0,0-23.5-10.71c-9.41-1.36-18.82-.71-27.53,3.31a50.52,50.52,0,0,0-18.82,15.45L151,229l83.23,62.45L308.86,192l-13.44-30.9A54.23,54.23,0,0,0,280,141.64Z"/></svg>