<svg xmlns="http://www.w3.org/2000/svg" viewBox="0 0 595.3 841.9"><defs><style>.a{fill:#007d59;}.a,.b{fill-rule:evenodd;}.b{fill:#fff;}</style></defs><title>RC001G</title><path class="a" d="M0,785.23A56.63,56.63,0,0,0,56.66,841.9h481.9a56.7,56.7,0,0,0,56.74-56.67V56.66A56.69,56.69,0,0,0,538.56,0H56.66A56.62,56.62,0,0,0,0,56.66Z"/><path class="b" d="M101.85,755.66l.07-27.36h15.2c10.36,0,14.76,7.06,14.76,13.75,0,7.71-5.33,13.75-15.84,13.68ZM84.43,799.44h17.42v-30l17.35.07c11.88,0,18.87-4,23.26-9.5a29,29,0,0,0,6-17.93c0-16.41-10.8-27.65-28.95-27.65H84.43Zm84.09-31.32,11.67-36.8,10.94,36.8ZM140.8,799.44h17.79l5.69-17.93h30.81l5.4,17.93h18.07l-29.08-85H170.61Zm101.6-43.78.07-27.36h15.19c10.37,0,14.76,7.06,14.76,13.75,0,7.71-5.33,13.75-15.84,13.68ZM225,799.44H242.4v-30l17.35.07c11.88,0,18.86-4,23.25-9.5a29,29,0,0,0,6.05-17.93c0-16.41-10.8-27.65-28.94-27.65H225Zm88.2-43.78.07-27.36h15.2c10.36,0,14.76,7.06,14.76,13.75,0,7.71-5.33,13.75-15.84,13.68Zm-17.35,43.78h17.35v-30l17.35.07c11.88,0,18.87-4,23.26-9.5a29,29,0,0,0,6.05-17.93c0-16.41-10.8-27.65-28.95-27.65H295.82Zm70.78,0H430V784.82h-45.8V761.49h40v-14h-40V728.66h45V714.4H366.6Zm93.16-47.16V728.66l19.44.07c4.68,0,6.05.58,7.85,1.73a12.39,12.39,0,0,1,5.47,10.22c0,6.34-5,11.81-13.89,11.74ZM442.2,799.44h17.56l.08-33.63,15.33.07c6.12,0,10.44,2.67,13,7.06a19.91,19.91,0,0,1,1.73,5.33c1.73,7-.14,14.47,3.24,21.17H511a22.48,22.48,0,0,1-2.74-8.93l-1.44-14.91c-.5-6.19-1.94-8.85-4.25-11.3a17.58,17.58,0,0,0-11.23-5.18c11-1.23,18.5-9.51,18.5-20.88,0-13.4-10.65-24.7-28.58-23.84h-39Z"/><path class="b" d="M505,459.32H359.23l.65-29.59-45,86.66,49,82.57,1.36-31.55h99.39c10.06,0,19.47-4.68,26.87-11.42A54.21,54.21,0,0,0,509,532.49l30.9-86.6c-1.37.65-2.73,2-4,2.66C527.11,454.59,515.69,459.32,505,459.32Zm48.36-61.79c-.7-8-4-15.45-8.76-24.21l-53-86.6-86.66,57.72L470.7,449.91l34.27.66c9.41,0,18.11-4,26.17-9.42,6.74-4.67,12.07-11.42,16.1-18.76C552,414.28,553.33,405.58,553.33,397.53ZM135.59,456.6h0L196,366l24.81,16.75-47.66-85.29-96-4.68,26.17,18.82-55,82.58c-4,6.69-6.75,16.8-6,28.23A49.36,49.36,0,0,0,52.3,449.91h0l55.06,73.87v-4.73a51.87,51.87,0,0,1,8-31.55Zm-12.78,35.63c-4,6-6.7,19.48-6.7,26.17,0,8.7,2.67,16.81,6.7,24.15s9.41,14.14,16.1,18.17c7.4,4.68,15.45,6.69,25.51,6.69H273.93V463.35H142.28ZM303.47,158.45l50.38,113.47L325,282l96.72,13.43,61.8-74.52L452.58,231,419,161.12h-.65A43.73,43.73,0,0,0,399.49,139a50.68,50.68,0,0,0-27.53-8H279.32C290.69,137,298.09,146.32,303.47,158.45ZM280,141.64a50,50,0,0,0-23.5-10.71c-9.41-1.36-18.83-.71-27.53,3.31a50.42,50.42,0,0,0-18.82,15.45L151,229l83.23,62.45L308.86,192l-13.44-30.89A54.23,54.23,0,0,0,280,141.64Z"/></svg>