<svg xmlns="http://www.w3.org/2000/svg" viewBox="0 0 595.3 841.9"><defs><style>.a{fill:#007d59;}.a,.b{fill-rule:evenodd;}.b{fill:#fff;}</style></defs><title>RC001A</title><path class="a" d="M0,785.23A56.63,56.63,0,0,0,56.66,841.9h481.9a56.7,56.7,0,0,0,56.74-56.67V56.66A56.69,56.69,0,0,0,538.56,0H56.66A56.62,56.62,0,0,0,0,56.66Z"/><path class="b" d="M505,459.32H359.23l.65-29.59-45,86.66,49,82.57,1.36-31.55h99.39c10.06,0,19.47-4.68,26.87-11.42A54.11,54.11,0,0,0,509,532.49l30.91-86.6c-1.37.65-2.73,2-4,2.66C527.11,454.59,515.69,459.32,505,459.32Zm48.36-61.79c-.71-8-4-15.45-8.76-24.21l-53-86.6-86.66,57.72L470.7,449.91l34.27.66c9.41,0,18.11-4,26.17-9.41,6.74-4.68,12.07-11.43,16.1-18.77C552,414.28,553.33,405.58,553.33,397.53ZM135.59,456.6h0L196,366l24.8,16.75-47.65-85.29-96-4.68,26.17,18.82-55,82.58c-4,6.69-6.75,16.8-6,28.23A49.34,49.34,0,0,0,52.3,449.91h0l55.06,73.88v-4.74a51.87,51.87,0,0,1,8-31.55Zm-12.78,35.63c-4,6-6.7,19.48-6.7,26.17,0,8.7,2.67,16.81,6.7,24.15s9.41,14.15,16.1,18.17c7.4,4.68,15.45,6.69,25.51,6.69H273.93V463.35H142.28ZM303.47,158.45l50.37,113.48L325,282l96.72,13.44,61.8-74.53L452.58,231,419,161.12h-.65A43.82,43.82,0,0,0,399.49,139a50.68,50.68,0,0,0-27.53-8H279.32C290.69,137,298.08,146.32,303.47,158.45ZM280,141.64a50,50,0,0,0-23.5-10.71c-9.41-1.36-18.83-.71-27.53,3.31a50.44,50.44,0,0,0-18.82,15.45L151,229l83.23,62.45L308.85,192l-13.43-30.89A54.23,54.23,0,0,0,280,141.64Z"/></svg>