<svg xmlns="http://www.w3.org/2000/svg" viewBox="0 0 595.3 841.9"><defs><style>.a{fill:#007d59;}.a,.b{fill-rule:evenodd;}.b{fill:#fff;}</style></defs><title>RC001B</title><path class="a" d="M0,785.23A56.63,56.63,0,0,0,56.66,841.9h481.9a56.7,56.7,0,0,0,56.74-56.67V56.66A56.69,56.69,0,0,0,538.56,0H56.66A56.62,56.62,0,0,0,0,56.66Z"/><path class="b" d="M69.16,703.89c-1.87,0-3.38-2.23-3.38-5s1.44-5,3.31-5,3.39,2.08,3.39,5S70.82,703.89,69.16,703.89ZM69,707.42c3.31,0,5.9-3.89,5.9-8.64,0-4.46-2.52-8.42-5.68-8.42-3.39,0-5.91,3.88-5.91,8.49S65.92,707.42,69,707.42Zm-7.63,60.77,7.85-36.79,7.41,36.79ZM42.67,799.44h12l3.89-17.93,20.74-.07,3.67,18H95.08l-19.51-85-12.81-.08Zm61.13,0h11.8V728.66H133V714.4H86.37v14.26H103.8Zm33.48,0h42.84V784.82h-31V761.49h27.07v-14H149.16V728.66h30.45V714.4H137.28Zm62.92-47.16V728.66l13.18.07c3.1,0,4,.58,5.26,1.73,2.3,2.16,3.67,6.26,3.67,10.22,0,6.34-3.39,11.81-9.36,11.74Zm-11.88,47.16H200.2l.08-33.63,10.36.07c4.11,0,7.06,2.67,8.72,7.06a26.83,26.83,0,0,1,1.22,5.33c1.15,7-.07,14.47,2.16,21.17h12a31.48,31.48,0,0,1-1.8-8.93L232,775.6c-.43-6.19-1.37-8.85-2.95-11.3-1.8-2.81-4.61-4.9-7.56-5.18,7.41-1.23,12.52-9.51,12.52-20.88,0-13.4-7.2-24.7-19.29-23.84H188.4Zm68.33,0H268l19.8-85-12.68.07-12.6,62.93-12.45-63-12.67-.08Zm35.43,0h12v-85h-12Zm20.66,0h11.52V742.12l23.54,57.32h12.1V714.55H348.31V772l-24.05-57.6H312.67Zm55.8,0h11.52V742.12l23.54,57.32h12.17V714.55H404.18V772l-24.05-57.6H368.54Zm55.8,0h12.1v-85h-12.1Zm20.74,0H456.6V742.12l23.54,57.32h12.1V714.55h-11.6V772l-24-57.6H445Zm83.16-31.76h14.25c-.43,7.71-5.18,20-15.26,20-8.21,0-16.13-9.36-16.13-30.31,0-17.21,6.34-31.32,16.34-31.32,6.77,0,12,6.4,13.4,15.4l11.52-.57c-1.16-8.57-3.46-14.47-7-19.23-4.39-6-10.44-9.86-18.79-9.86-17.35,0-27.43,21.6-27.43,45.86,0,15.12,3.38,26,8.78,33.77,5.26,7.56,11.16,10.8,17.21,10.8A16.76,16.76,0,0,0,536,798.64a22.07,22.07,0,0,0,7.2-10.51l.58,11.31h8.85V754.51h-24.4Z"/><path class="b" d="M505,459.32H359.23l.65-29.59-45,86.66,49,82.57,1.36-31.55h99.39c10.06,0,19.47-4.68,26.87-11.42A54.11,54.11,0,0,0,509,532.49l30.9-86.6c-1.35.65-2.71,2-4,2.66C527.11,454.59,515.69,459.32,505,459.32Zm48.36-61.79c-.7-8-4-15.45-8.76-24.21l-53-86.6-86.66,57.72L470.7,449.91l34.27.66c9.41,0,18.12-4,26.17-9.42,6.74-4.67,12.07-11.42,16.1-18.76C552,414.28,553.33,405.58,553.33,397.53ZM135.59,456.6h0L196,366l24.81,16.75-47.66-85.29-96-4.68,26.17,18.82-55,82.58c-4,6.69-6.75,16.81-6,28.23A49.36,49.36,0,0,0,52.3,449.91h0l55.06,73.87v-4.73a51.87,51.87,0,0,1,8-31.55Zm-12.78,35.64c-4,6-6.7,19.47-6.7,26.16,0,8.7,2.67,16.81,6.7,24.15s9.41,14.15,16.1,18.17c7.4,4.68,15.45,6.69,25.51,6.69H273.93V463.35H142.28ZM303.47,158.45l50.38,113.48L325,282l96.72,13.44,61.8-74.53L452.58,231,419,161.12h-.65A43.77,43.77,0,0,0,399.49,139a50.68,50.68,0,0,0-27.53-8H279.32C290.69,137,298.08,146.32,303.47,158.45ZM280,141.64a50,50,0,0,0-23.5-10.71c-9.41-1.36-18.83-.71-27.53,3.31a50.52,50.52,0,0,0-18.82,15.45L151,229l83.23,62.45L308.86,192l-13.44-30.9A54.23,54.23,0,0,0,280,141.64Z"/></svg>