<svg xmlns="http://www.w3.org/2000/svg" viewBox="0 0 595.3 841.9"><defs><style>.a{fill:#007d59;}.a,.b{fill-rule:evenodd;}.b{fill:#fff;}</style></defs><title>RC001D</title><path class="a" d="M0,785.23A56.63,56.63,0,0,0,56.66,841.9h481.9a56.7,56.7,0,0,0,56.74-56.67V56.66A56.69,56.69,0,0,0,538.56,0H56.66A56.62,56.62,0,0,0,0,56.66Z"/><path class="b" d="M134.68,755.66l.08-27.36H150c10.37,0,14.76,7.06,14.76,13.75,0,7.71-5.33,13.75-15.84,13.68Zm-17.42,43.78h17.42v-30l17.36.07c11.88,0,18.86-4,23.25-9.5a29,29,0,0,0,6.05-17.93c0-16.41-10.8-27.65-28.94-27.65H117.26Zm70.85,0h58.82V784.75H205.68V714.4H188.11Zm92.95-31.32,11.66-36.8,10.88,36.8Zm-27.72,31.32h17.78l5.69-17.93h30.75l5.4,17.93H331l-29.09-85H283.15Zm80.71-26.72c0,15.7,11.67,29.6,36.36,29.6,24.91,0,35.71-13.32,35.71-27.65,0-10.66-6.69-20.38-21.31-24l-20.16-5.11c-6-1.51-6.62-2.31-7.85-3.6a7.85,7.85,0,0,1-2.23-5.62c0-4.89,4.18-10.8,16.27-10.8,5.91,0,10.44,2.09,12.89,4.54a13.57,13.57,0,0,1,4,9.21l16.92.15c-.72-9.36-3.88-15-8.56-19.23-4.83-4.46-13.9-8.56-26.28-8.56-22.54,0-32.91,12.6-32.91,26.56,0,10.8,6.05,19.66,21,23.4l17.28,4.32c3.16.8,7.63,1.44,10.51,5a10.08,10.08,0,0,1,2.16,5.69c0,5.47-4.18,11.74-18,11.74-13.39,0-18.94-7-18.65-15.41Zm100.87,26.72h17.5V728.66h25.7V714.4h-69v14.26h25.77Z"/><path class="b" d="M505,459.32H359.23l.65-29.59-45,86.66,49,82.57,1.36-31.55h99.39c10.06,0,19.47-4.68,26.87-11.42A54.21,54.21,0,0,0,509,532.49l30.89-86.6c-1.35.65-2.71,2-4,2.66C527.11,454.59,515.69,459.32,505,459.32Zm48.36-61.79c-.7-8-4-15.45-8.76-24.21l-53-86.6-86.66,57.72L470.7,449.91l34.27.66c9.41,0,18.12-4,26.17-9.41,6.74-4.68,12.07-11.43,16.1-18.77C552,414.28,553.33,405.58,553.33,397.53ZM135.59,456.6h0L196,366l24.81,16.75-47.66-85.29-96-4.68,26.17,18.82-55,82.58c-4,6.69-6.75,16.81-6,28.23A49.34,49.34,0,0,0,52.3,449.91h0l55.06,73.88v-4.74a51.87,51.87,0,0,1,8-31.55Zm-12.78,35.63c-4,6-6.7,19.48-6.7,26.17,0,8.7,2.67,16.81,6.7,24.15s9.41,14.15,16.1,18.17c7.4,4.68,15.45,6.69,25.51,6.69H273.93V463.35H142.28ZM303.47,158.45l50.38,113.48L325,282l96.72,13.43,61.8-74.52L452.58,231,419,161.12h-.65A43.77,43.77,0,0,0,399.49,139a50.68,50.68,0,0,0-27.53-8H279.32C290.69,137,298.09,146.32,303.47,158.45ZM280,141.64a50,50,0,0,0-23.5-10.71c-9.41-1.36-18.82-.71-27.53,3.31a50.52,50.52,0,0,0-18.82,15.45L151,229l83.23,62.45L308.86,192l-13.44-30.9A54.23,54.23,0,0,0,280,141.64Z"/></svg>