<svg xmlns="http://www.w3.org/2000/svg" viewBox="0 0 595.3 841.9"><defs><style>.a{fill:#007d59;}.a,.b{fill-rule:evenodd;}.b{fill:#fff;}</style></defs><title>RC001C</title><path class="a" d="M0,785.23A56.63,56.63,0,0,0,56.66,841.9h481.9a56.7,56.7,0,0,0,56.74-56.67V56.66A56.69,56.69,0,0,0,538.56,0H56.66A56.62,56.62,0,0,0,0,56.66Z"/><path class="b" d="M55.56,748.58V728H71.88c2.73,0,6.93,3.53,6.93,10.3,0,5.76-3.29,10.44-7.91,10.44Zm0,36.94V761.33l15.2-.08c5.67,0,9.24,5.48,9.24,11.81,0,7-3.92,12.6-9.17,12.6ZM42.68,799.41H74.54c5.81,0,8.61-1.36,11.69-4.32,4.41-4.24,7-10.65,7-19.22,0-11.09-4.62-19.22-12.25-22,6.3-2.45,10-9.29,10-18.07,0-8.07-2.59-14.19-7.07-18.07-2.52-2.16-4.9-3.39-10.43-3.39H42.68ZM114,752.25V728.64l14.21.07c3.36,0,4.34.58,5.67,1.73,2.45,2.16,4,6.26,4,10.22,0,6.34-3.64,11.81-10.15,11.74Zm-12.81,47.16H114l.07-33.62,11.2.07c4.48,0,7.56,2.67,9.45,7.06a32.62,32.62,0,0,1,1.26,5.33c1.26,7-.07,14.47,2.38,21.16h13a31.12,31.12,0,0,1-2-8.92l-1.05-14.91c-.42-6.19-1.47-8.85-3.15-11.3a11.58,11.58,0,0,0-8.2-5.19c8.06-1.22,13.52-9.5,13.52-20.88,0-13.39-7.7-24.69-20.8-23.83H101.21Zm69.52-92.3h12V690.55h-12Zm15.68,0h12l-.07-16.63-12,.07Zm-10.15,61.06,8.4-36.8,8,36.8ZM156,799.41h12.95l4.2-17.92,22.4-.08,4,18h13.09l-21.14-85-13.79-.07Zm61.32,0h12.4V742.1l25.41,57.31h13.09V714.53H255.65V772l-25.9-57.6H217.22Zm60.28,0H290V742.1l25.35,57.31h13.09V714.53H315.86V772L290,714.38H277.49Zm73-50.83V728h16.24c2.8,0,7,3.53,7,10.3,0,5.76-3.29,10.44-7.91,10.44Zm0,36.94V761.33l15.19-.08c5.67,0,9.24,5.48,9.24,11.81,0,7-3.92,12.6-9.17,12.6ZM337.7,799.41h31.85c5.74,0,8.61-1.36,11.69-4.32,4.42-4.24,7-10.65,7-19.22,0-11.09-4.69-19.22-12.26-22,6.31-2.45,10-9.29,10-18.07,0-8.07-2.6-14.19-7.08-18.07-2.52-2.16-5-3.39-10.43-3.39H337.7Zm70.64-31.32,8.4-36.79,8.05,36.79ZM388,799.41h13l4.13-17.92h22.47l4,17.92h13.09l-21.21-85H409.81Zm74.2-47.16V728.64l14.22.07c3.36,0,4.34.58,5.67,1.73,2.52,2.16,4,6.26,4,10.22,0,6.34-3.64,11.81-10.08,11.74Zm-12.81,47.16h12.81l.07-33.62,11.21.07c4.48,0,7.56,2.67,9.45,7.06a26.72,26.72,0,0,1,1.26,5.33c1.26,7-.07,14.47,2.38,21.16h12.95a31.12,31.12,0,0,1-2-8.92l-1.05-14.91c-.35-6.19-1.47-8.85-3.08-11.3a11.84,11.84,0,0,0-8.19-5.19c8-1.22,13.51-9.5,13.51-20.88,0-13.39-7.77-24.69-20.86-23.83H449.5Zm71.76,0h12.74V728.64H552.7V714.38H502.36v14.26h18.83Z"/><path class="b" d="M505,459.32H359.23l.65-29.59-45,86.66,49,82.57,1.36-31.55h99.39c10.06,0,19.47-4.68,26.87-11.42A54.21,54.21,0,0,0,509,532.49l30.9-86.6c-1.37.65-2.73,2-4,2.66C527.11,454.59,515.69,459.32,505,459.32Zm48.36-61.79c-.7-8-4-15.45-8.76-24.21l-53-86.6-86.66,57.72L470.7,449.91l34.27.66c9.41,0,18.11-4,26.17-9.42,6.74-4.67,12.07-11.42,16.1-18.76C552,414.28,553.33,405.58,553.33,397.53ZM135.59,456.6h0L196,366l24.81,16.75-47.66-85.29-96-4.68,26.17,18.82-55,82.58c-4,6.69-6.75,16.81-6,28.23A49.36,49.36,0,0,0,52.3,449.91h0l55.06,73.88v-4.74a51.87,51.87,0,0,1,8-31.55Zm-12.78,35.63c-4,6-6.7,19.48-6.7,26.17,0,8.7,2.67,16.81,6.7,24.15s9.41,14.15,16.1,18.17c7.4,4.68,15.45,6.69,25.51,6.69H273.93V463.35H142.28ZM303.47,158.45l50.37,113.48L325,282l96.72,13.43,61.8-74.52L452.58,231,419,161.12h-.65A43.77,43.77,0,0,0,399.49,139a50.68,50.68,0,0,0-27.53-8H279.32C290.69,137,298.08,146.32,303.47,158.45ZM280,141.64a50,50,0,0,0-23.5-10.71c-9.41-1.36-18.82-.71-27.53,3.31a50.52,50.52,0,0,0-18.82,15.45L151,229l83.23,62.45L308.86,192l-13.44-30.9A54.23,54.23,0,0,0,280,141.64Z"/></svg>