<svg xmlns="http://www.w3.org/2000/svg" viewBox="0 0 595.3 841.9"><defs><style>.a{fill:#007d59;}.a,.b{fill-rule:evenodd;}.b{fill:#fff;}</style></defs><title>RC001F</title><path class="a" d="M0,785.23A56.63,56.63,0,0,0,56.66,841.9h481.9a56.7,56.7,0,0,0,56.74-56.67V56.66A56.69,56.69,0,0,0,538.56,0H56.66A56.62,56.62,0,0,0,0,56.66Z"/><path class="b" d="M81.4,799.44H97.68V738.31l18,61.13h17l18-61.2v61.2h16.49l-.08-85-25.34.08L124.17,776.4l-17.49-61.92-25.28.07Zm98.5,0h63.43V784.82H197.54V761.49h40v-14h-40V728.66h45.07V714.4H179.9Zm95.69,0H293V728.66h25.71V714.4h-69v14.26h25.85Zm57.89-31.32,11.59-36.8L356,768.12Zm-27.8,31.32h17.86l5.69-17.93H360l5.47,17.93h18l-29.08-85H335.49Zm84.17,0h58.9V784.75H407.49V714.4H389.85Zm65.23,0H514V784.75H472.72V714.4H455.08Z"/><path class="b" d="M505,459.32H359.23l.65-29.59-45,86.66,49,82.57,1.36-31.55h99.39c10.06,0,19.47-4.68,26.87-11.42A54.21,54.21,0,0,0,509,532.49l30.89-86.6c-1.35.65-2.71,2-4,2.66C527.11,454.59,515.69,459.32,505,459.32Zm48.36-61.79c-.7-8-4-15.45-8.76-24.21l-53-86.6-86.66,57.72L470.7,449.91l34.27.66c9.41,0,18.12-4,26.17-9.41,6.74-4.68,12.07-11.43,16.1-18.77C552,414.28,553.33,405.58,553.33,397.53ZM135.59,456.6h0L196,366l24.81,16.75-47.66-85.29-96-4.68,26.17,18.82-55,82.58c-4,6.69-6.75,16.81-6,28.23A49.34,49.34,0,0,0,52.3,449.91h0l55.06,73.87v-4.73a51.87,51.87,0,0,1,8-31.55Zm-12.78,35.63c-4,6-6.7,19.48-6.7,26.17,0,8.7,2.67,16.81,6.7,24.15s9.41,14.14,16.1,18.17c7.4,4.68,15.45,6.69,25.51,6.69H273.93V463.35H142.28ZM303.47,158.45l50.38,113.48L325,282l96.72,13.43,61.8-74.52L452.58,231,419,161.12h-.65A43.77,43.77,0,0,0,399.49,139a50.68,50.68,0,0,0-27.53-8H279.32C290.69,137,298.09,146.32,303.47,158.45ZM280,141.64a50,50,0,0,0-23.5-10.71c-9.41-1.36-18.82-.71-27.53,3.31a50.52,50.52,0,0,0-18.82,15.45L151,229l83.23,62.45L308.86,192l-13.44-30.9A54.23,54.23,0,0,0,280,141.64Z"/></svg>