<svg xmlns="http://www.w3.org/2000/svg" viewBox="0 0 992.96 113.82"><defs><style>.a,.d{fill:#fff;}.a{stroke:#000;stroke-miterlimit:10;stroke-width:0.5px;}.a,.c,.d{fill-rule:evenodd;}.b,.c{fill:#007d59;}</style></defs><title>V001_C</title><polygon class="a" points="80.62 113.57 0.43 55.84 80.62 0.26 912.33 0.25 992.52 57.98 912.33 113.56 80.62 113.57"/><rect class="b" x="88.99" y="8.12" width="815.53" height="97.53"/><polygon class="c" points="911.41 8.12 980.43 56.88 911.41 105.65 911.41 8.12"/><polygon class="c" points="81.65 8.12 12.63 56.88 81.65 105.65 81.65 8.12"/><path class="d" d="M396.87,84.7h11.37l19.44-56.88H415.3L402.7,70.08,390.24,27.82H377.86Zm54.64-21.53-.07,5.19c0,5.83-3.6,9.28-9.93,9.28-4.61,0-6.77-2.59-6.77-5.18,0-2,.57-4,7.56-6l4.89-1.22A18.3,18.3,0,0,0,451.51,63.17ZM451.44,80a12.8,12.8,0,0,0,1.23,4.75H463.9A7,7,0,0,1,462,80.45l.21-22.32c0-9.79-5.18-15.84-18.5-15.84-12.46,0-17.57,6.84-17.43,13.61l9.8.36c0-3.1,2.3-6,7.84-6s7.28,2.52,7.28,4.47c0,1.73-.94,3.24-4,3.81l-6.41,1c-9,1.66-11.45,3.39-13.18,4.83A11.13,11.13,0,0,0,423.87,73c0,6.69,5.32,12.81,15.69,12.81C445.54,85.85,449.14,83.91,451.44,80Zm42.27,4.75V76.28h-4.18a3.79,3.79,0,0,1-3.1-1.59c-.36-.21-.57-.93-.57-3.09V51.22h7.34V43.73h-7.34l-.15-13h-11v13h-5.62v7.49h5.83V72.46c0,9.22,3.68,12.24,9.8,12.24Zm30.38,0V76.28h-4a3.84,3.84,0,0,1-3.24-1.59c-.22-.21-.58-.93-.58-3.09V51.22h7.49V43.73h-7.49l-.07-13H505.23v13h-5.76v7.49h5.83V72.46c0,9.22,3.74,12.24,9.79,12.24Zm17.14-25.34a9.42,9.42,0,0,1,9-8.43c4.53,0,8.42,3,9.14,8.43Zm-.44,7.92h30.32c0-12-5.4-25-20.67-25-15.77,0-20.59,12.46-20.59,21.89,0,13.46,9,21.89,20.52,21.89s18.29-6.12,20-13.25l-11-.79c-2.09,3.81-4.9,5.4-8.42,5.4C545.62,77.43,541.37,73.9,540.79,67.28Zm38,17.42H590V61.8a9.82,9.82,0,0,1,1.51-6,8,8,0,0,1,6.7-3.6c3.67,0,6.55,2.52,6.55,7.13V84.7h10.94V55.83c0-7.78-5.68-13.54-14-13.54-5.9,0-10.08,3.17-11.44,6.34l-.44-4.83H578.88Z"/></svg>