<svg xmlns="http://www.w3.org/2000/svg" viewBox="0 0 992.96 113.82"><defs><style>.a,.d{fill:#fff;}.a{stroke:#000;stroke-miterlimit:10;stroke-width:0.5px;}.a,.c,.d{fill-rule:evenodd;}.b,.c{fill:#007d59;}</style></defs><title>V002_C</title><polygon class="a" points="80.62 113.57 0.43 55.84 80.62 0.26 912.33 0.25 992.52 57.98 912.33 113.56 80.62 113.57"/><rect class="b" x="88.99" y="8.05" width="815.53" height="97.53"/><polygon class="c" points="911.41 8.04 980.43 56.81 911.41 105.58 911.41 8.04"/><polygon class="c" points="81.65 8.04 12.63 56.81 81.65 105.58 81.65 8.04"/><path class="d" d="M272.74,63.75l7.85-24.63L288,63.75Zm-18.51,21h12l3.81-12h20.59l3.75,12h12.09l-19.58-57H274.18Zm63.08,0h10.87l14-40.9H331.06l-8.21,26.93L314.71,43.8H303.55Zm36.07,0h10.94V51.08h8.07V43.73h-8.07v-.86c0-3.67.72-4.68,1.37-5.4.94-.94,2.09-1.73,4.82-1.59h1.88v-8.2h-6.34c-3.67,0-13.82.72-12.67,16h-6v7.35h6ZM405,63.17v5.19c0,5.76-3.67,9.43-9.93,9.43-4.61,0-6.92-2.74-6.92-5.33,0-1.94.72-4.1,7.64-6l4.82-1.36A14.11,14.11,0,0,0,405,63.17Zm0,16.92a10,10,0,0,0,1.23,4.61h11.3a6.41,6.41,0,0,1-1.94-4.25L415.73,58c0-9.79-5.18-15.7-18.43-15.7-12.46,0-17.64,6.84-17.43,13.61l9.8.22c0-3,2.16-6,7.84-6,5.4,0,7.28,2.66,7.28,4.61,0,1.73-1.08,3.24-4,3.81l-6.33,1c-9,1.66-11.45,3.39-13.25,4.83A11.26,11.26,0,0,0,377.43,73c0,6.77,5.32,12.89,15.69,12.89C399.1,85.85,402.55,83.76,405,80.09Zm20.45,4.61h11.09v-57H425.45Zm19.58,0h11.09v-57H445Zm18.8-13.61c.21,7.71,6.69,15,19.22,15,12.82,0,18.36-6.77,18.36-14a12,12,0,0,0-2.59-7.27c-1.44-1.8-3.46-3.32-8.28-4.47L478.8,57.56c-2.45-.58-3.45-2.09-3.45-3.6s1.51-4.18,6.76-4.18c5.91,0,8.43,3.17,8.57,6.48l9.58-.22a14.31,14.31,0,0,0-5.76-10.72c-2.31-1.73-6.12-3.24-12.1-3.24-11.88,0-17.06,6.48-17.06,13.46a10.35,10.35,0,0,0,2.88,7.63c1.37,1.59,3.24,2.88,7.7,3.82l9,2c5,1.16,5.76,2.81,5.76,4.61s-1.73,4.75-7.85,4.75c-5.76,0-8.64-3.24-9-7.34ZM520.49,84.7h10.8L545.4,43.8H534.17L526,70.73l-8.2-26.93H506.67Zm54.29-21.53v5.19c0,5.76-3.75,9.43-9.94,9.43-4.61,0-6.91-2.74-6.91-5.33,0-1.94.72-4.1,7.63-6l4.83-1.36A14.34,14.34,0,0,0,574.78,63.17Zm0,16.92A10,10,0,0,0,576,84.7h11.31a6.07,6.07,0,0,1-1.95-4.25L585.43,58c0-9.79-5.18-15.7-18.43-15.7-12.38,0-17.57,6.84-17.35,13.61l9.79.22c0-3,2.16-6,7.85-6,5.4,0,7.2,2.66,7.2,4.61,0,1.73-1,3.24-4,3.81l-6.34,1c-8.93,1.66-11.37,3.39-13.25,4.83A11.48,11.48,0,0,0,547.2,73c0,6.77,5.33,12.89,15.7,12.89C568.87,85.85,572.33,83.76,574.78,80.09ZM616.9,84.7V76.28h-4a3.84,3.84,0,0,1-3.24-1.59c-.22-.36-.58-.93-.58-3.09V51.22h7.49V43.73h-7.35l-.14-13H598.11v13h-5.76v7.56l5.76-.07V72.39c0,9.29,3.81,12.31,9.93,12.31Zm30.6,0V76.28h-4a3.71,3.71,0,0,1-3.17-1.59c-.29-.36-.58-.93-.58-3.09V51.22h7.49V43.73h-7.42l-.07-13H628.78v13H623v7.56l5.76-.07V72.39c0,9.29,3.74,12.31,9.86,12.31Zm17.21-25.49a9.33,9.33,0,0,1,9-8.35c4.46,0,8.28,3.1,9.07,8.35Zm-.51,8.07h30.46c0-12-5.55-25-20.88-25-15.63,0-20.52,12.46-20.52,21.82,0,13.68,9,22.1,20.52,22.1s18.43-6.26,20-13.39l-11-.79c-2.09,3.81-5,5.4-8.5,5.4C669.1,77.43,664.78,73.9,664.2,67.28ZM702.36,84.7h11V61.8a9.82,9.82,0,0,1,1.51-6,8.66,8.66,0,0,1,6.84-3.46c3.74,0,6.41,2.38,6.41,7V84.7h11.09V55.83c0-7.63-5.69-13.54-14.19-13.54-5.9,0-10,3.17-11.37,6.34l-.51-4.83h-10.8Z"/></svg>