<svg xmlns="http://www.w3.org/2000/svg" viewBox="0 0 992.96 113.82"><defs><style>.a,.d{fill:#fff;}.a{stroke:#000;stroke-miterlimit:10;stroke-width:0.5px;}.a,.c,.d{fill-rule:evenodd;}.b,.c{fill:#007d59;}</style></defs><title>V003_C</title><polygon class="a" points="80.62 113.57 0.43 55.84 80.62 0.26 912.33 0.25 992.52 57.98 912.33 113.56 80.62 113.57"/><rect class="b" x="88.99" y="8.05" width="815.53" height="97.53"/><polygon class="c" points="911.41 8.04 980.43 56.81 911.41 105.58 911.41 8.04"/><polygon class="c" points="81.65 8.04 12.63 56.81 81.65 105.58 81.65 8.04"/><path class="d" d="M213.91,63.6,221.76,39l7.35,24.62Zm-18.5,21h12l3.82-12h20.59l3.67,12h12.1L228,27.53H215.28Zm63.07,0h10.8l14.11-40.9H272.16L264,70.59l-8.21-26.93H244.66Zm30.89,0h10.94l.08-22.47c0-6.69,3.6-9.86,8.2-9.86,3.89,0,6.56,2.3,6.56,7.41V84.56h11.08V56.33c0-5-1.72-8.42-4.39-10.73a15.93,15.93,0,0,0-9.65-3.45c-5.9,0-10.08,2.81-11.88,6.62V27.53H289.37Zm50.4-45.94,10.94.07.15-11.16H339.77Zm14.4.07h10.94l.15-11.16H354.17Zm6.62,24.12v6C360.43,74,357,77.5,351,77.5c-4.61,0-6.91-2.59-6.91-5.18,0-1.8,1-4.32,7.56-6l4.75-1.22A10.65,10.65,0,0,0,360.79,62.81Zm0,17.14a13.89,13.89,0,0,0,1.37,4.61h11.16c-.72-.58-1.73-2.45-1.73-5.76l-.14-21a21.33,21.33,0,0,0-.58-5.54c-1.72-5.62-6.33-10.15-17.35-10.15-12.81,0-17.85,6.48-17.85,13.75l9.79.07c.36-2.73.79-3.17,1.73-4.1s3.09-1.95,6.33-1.95c5.19,0,7.13,2.74,7.13,4.68s-1.3,3.39-4.25,3.89l-11.09,1.87c-8.28,1.52-12.09,6.92-12.09,12.32,0,7,5.4,13,15.33,13C355.47,85.71,359.14,83,360.79,80Zm20.45,4.61h11.09V66.34c0-6.12,1.51-8.93,3.31-10.8a9.56,9.56,0,0,1,7.49-3.24,9.07,9.07,0,0,1,1.87.14V42.72a16.06,16.06,0,0,0-2.3-.21,10.65,10.65,0,0,0-10.3,7.27l-.29-6.12H381.24Zm48.53-8.21c-5.33,0-9.79-3.67-9.79-12.31,0-9.8,4.68-13.11,9.29-13.11s9.21,3.31,9.21,12.75C438.48,72.82,433.8,76.35,429.77,76.35Zm8.64,4,.43,4.18h11v-57H438.7V48.27c-2-3.24-6.63-6-11.81-6-9.22,0-18.22,7.71-18.22,22A24.67,24.67,0,0,0,414,80.09a15.36,15.36,0,0,0,12.39,5.83A14.87,14.87,0,0,0,438.41,80.38ZM484.78,63v5.18c0,5.76-3.67,9.43-9.87,9.43-4.6,0-6.91-2.73-6.91-5.32,0-1.95.65-4.11,7.56-6L480.39,65A14.13,14.13,0,0,0,484.78,63Zm0,16.92a10,10,0,0,0,1.29,4.61h11.16a7.16,7.16,0,0,1-1.87-4.25l.15-22.47c0-9.79-5.19-15.69-18.44-15.69-12.45,0-17.64,6.84-17.35,13.61l9.79.21c0-2.95,2.16-6,7.78-6,5.4,0,7.27,2.66,7.27,4.6,0,1.73-1,3.24-4,3.82l-6.34,1c-9,1.65-11.37,3.38-13.24,4.82a11.47,11.47,0,0,0-3.68,8.57c0,6.77,5.33,12.89,15.63,12.89C479,85.71,482.4,83.62,484.78,80Zm42.05,4.61V76.13h-4a3.89,3.89,0,0,1-3.24-1.58c-.21-.36-.57-.94-.57-3.1V51.08h7.49V43.59h-7.35l-.14-13H508v13h-5.76v7.56l5.76-.07V72.24c0,9.29,3.82,12.32,9.94,12.32Zm52.48,0h10.88l14-40.9H593.07l-8.21,26.93-8.14-26.93H565.56ZM633.6,63v5.18c0,5.76-3.67,9.43-9.93,9.43-4.61,0-6.92-2.73-6.92-5.32,0-1.95.72-4.11,7.64-6L629.21,65A13.91,13.91,0,0,0,633.6,63Zm0,16.92a10,10,0,0,0,1.23,4.61h11.3a6.43,6.43,0,0,1-1.94-4.25l.14-22.47c0-9.79-5.18-15.69-18.43-15.69-12.46,0-17.64,6.84-17.43,13.61l9.8.21c0-2.95,2.23-6,7.84-6,5.4,0,7.28,2.66,7.28,4.6,0,1.73-1.08,3.24-4,3.82l-6.33,1c-9,1.65-11.45,3.38-13.25,4.82a11.22,11.22,0,0,0-3.67,8.57c0,6.77,5.25,12.89,15.62,12.89C627.7,85.71,631.15,83.62,633.6,80Zm42.12,4.61V76.13h-4a3.74,3.74,0,0,1-3.17-1.58c-.29-.36-.57-.94-.57-3.1V51.08h7.48V43.59H668l-.07-13H657v13h-5.76v7.56l5.76-.07V72.24c0,9.29,3.75,12.32,9.87,12.32Zm30.67,0V76.13h-4a3.87,3.87,0,0,1-3.24-1.58c-.21-.36-.57-.94-.57-3.1V51.08H706V43.59h-7.34l-.14-13H687.6v13h-5.76v7.56l5.76-.07V72.24c0,9.29,3.82,12.32,9.94,12.32Zm17.14-25.49a9.38,9.38,0,0,1,9-8.35c4.46,0,8.28,3.09,9.07,8.35Zm-.43,8.06h30.38c0-12-5.54-25-20.81-25C717,42.15,712.15,54.6,712.15,64c0,13.68,9,22.11,20.52,22.11s18.36-6.27,20-13.39l-11.09-.8c-2.09,3.82-5,5.4-8.49,5.4C727.92,77.28,723.67,73.76,723.1,67.13Zm38.09,17.43h11.08V61.66c0-3.24.65-4.75,1.52-6a8.43,8.43,0,0,1,6.76-3.45c3.82,0,6.41,2.37,6.41,7V84.56h11.09V55.68c0-7.63-5.62-13.53-14.18-13.53-5.84,0-10,3.17-11.38,6.33l-.43-4.82H761.19Z"/></svg>