<svg xmlns="http://www.w3.org/2000/svg" viewBox="0 0 992.96 113.82"><defs><style>.a,.d{fill:#fff;}.a{stroke:#000;stroke-miterlimit:10;stroke-width:0.5px;}.a,.c,.d{fill-rule:evenodd;}.b,.c{fill:#007d59;}</style></defs><title>V004_C</title><polygon class="a" points="80.62 113.57 0.43 55.84 80.62 0.26 912.33 0.25 992.52 57.98 912.33 113.56 80.62 113.57"/><rect class="b" x="88.99" y="8.12" width="815.53" height="97.53"/><polygon class="c" points="911.41 8.12 980.43 56.88 911.41 105.65 911.41 8.12"/><polygon class="c" points="81.65 8.12 12.63 56.88 81.65 105.65 81.65 8.12"/><path class="d" d="M169.2,63.68l7.85-24.63,7.42,24.63ZM150.7,84.63h12l3.82-11.95h20.59l3.74,11.95h12.1l-19.59-57H170.64Zm63.07,0h10.87l14-40.9H227.52l-8.21,26.93-8.13-26.93H200Zm35.06-47.09h11V27.6h-11ZM241.92,89v9l7.56-.14c7.06,0,10.37-3.32,10.37-10.73V43.66h-11V82.47c0,5.76-1.72,6.55-4.39,6.55Zm47.23-11.45c-5.18,0-10.29-4-10.29-13.25,0-9.64,5-13.53,10.37-13.53S299.52,54.68,299.52,64,294.55,77.57,289.15,77.57Zm.08,8.57c12.45,0,21.52-8.78,21.52-22.1,0-12.89-8.92-21.89-21.6-21.89C276.7,42.15,267.7,51,267.7,64,267.7,77.5,276.77,86.14,289.23,86.14Zm29.23-1.51h11.09V61.73a9.82,9.82,0,0,1,1.51-6,8.51,8.51,0,0,1,6.77-3.46c3.81,0,6.48,2.38,6.48,7V84.63h11V55.76c0-7.64-5.61-13.54-14.11-13.54-5.9,0-10.08,3.17-11.45,6.34l-.43-4.83H318.46Zm45.29-47.09h11.08V27.6H363.75Zm0,47.09h10.94v-41H363.75ZM382.54,71c.21,7.7,6.69,15,19.22,15,12.82,0,18.43-6.77,18.43-14a12.35,12.35,0,0,0-2.52-7.28c-1.51-1.8-3.6-3.31-8.42-4.46l-11.74-2.74c-2.44-.57-3.45-2.08-3.45-3.6s1.51-4.17,6.77-4.17c5.9,0,8.42,3.17,8.56,6.48L419,56a14,14,0,0,0-5.9-10.73C410.83,43.52,407.09,42,401,42c-11.81,0-17,6.48-17,13.47a10.08,10.08,0,0,0,2.88,7.63c1.37,1.58,3.17,2.88,7.7,3.82l9,2c5,1.15,5.76,2.81,5.76,4.61s-1.72,4.75-7.84,4.75c-5.76,0-8.64-3.24-9-7.34Zm56.3-11.88a9.38,9.38,0,0,1,9-8.35c4.47,0,8.28,3.09,9.07,8.35Zm-.43,8.06h30.38c0-12-5.54-25-20.88-25-15.62,0-20.44,12.46-20.44,21.82,0,13.68,8.92,22.1,20.44,22.1S466.35,79.88,468,72.75L456.91,72c-2.08,3.81-5,5.4-8.49,5.4C443.23,77.36,439,73.83,438.41,67.2ZM476.5,84.63h11.09V66.41c0-6.12,1.44-8.93,3.31-10.8a9.45,9.45,0,0,1,7.34-3.24,8.48,8.48,0,0,1,1.87.15V42.8a13.54,13.54,0,0,0-2.3-.22,10.52,10.52,0,0,0-10.15,7.27l-.36-6.12H476.5Zm53-21.53v5.18c0,5.76-3.67,9.44-9.94,9.44-4.6,0-6.91-2.74-6.91-5.33,0-2,.72-4.11,7.63-6L525.1,65A14,14,0,0,0,529.49,63.1Zm0,16.92a10.11,10.11,0,0,0,1.22,4.61H542a6.49,6.49,0,0,1-1.95-4.25l.15-22.46c0-9.8-5.19-15.7-18.43-15.7-12.46,0-17.64,6.84-17.43,13.61l9.79.21c0-2.95,2.24-6,7.85-6,5.4,0,7.27,2.66,7.27,4.61,0,1.72-1.08,3.24-4,3.81l-6.33,1c-9,1.66-11.45,3.38-13.25,4.82A11.23,11.23,0,0,0,502,72.89c0,6.77,5.25,12.89,15.62,12.89C523.59,85.78,527,83.69,529.49,80Zm42.12,4.61V76.2h-4a3.72,3.72,0,0,1-3.17-1.58c-.29-.36-.58-.94-.58-3.1V51.15h7.49V43.66h-7.41l-.08-13H552.89v13h-5.76v7.56l5.76-.07V72.32c0,9.28,3.74,12.31,9.86,12.31Zm52.56,0H635l14-40.9H637.85l-8.21,26.93-8.13-26.93H610.35ZM678.39,63.1v5.18c0,5.76-3.68,9.44-9.87,9.44-4.61,0-6.91-2.74-6.91-5.33,0-2,.65-4.11,7.56-6L674,65A14.09,14.09,0,0,0,678.39,63.1Zm0,16.92a10,10,0,0,0,1.29,4.61h11.23A6.78,6.78,0,0,1,689,80.38l.14-22.46c0-9.8-5.18-15.7-18.43-15.7-12.45,0-17.64,6.84-17.42,13.61l9.79.21c0-2.95,2.23-6,7.85-6,5.4,0,7.27,2.66,7.27,4.61,0,1.72-1,3.24-4,3.81l-6.34,1c-9,1.66-11.37,3.38-13.25,4.82a11.27,11.27,0,0,0-3.67,8.57c0,6.77,5.26,12.89,15.63,12.89C672.55,85.78,676,83.69,678.39,80Zm42.19,4.61V76.2h-4a3.74,3.74,0,0,1-3.24-1.58c-.22-.36-.58-.94-.58-3.1V51.15h7.49V43.66H712.8l-.07-13H701.79v13H696v7.56l5.76-.07V72.32c0,9.28,3.81,12.31,9.86,12.31Zm30.6,0V76.2h-4a3.83,3.83,0,0,1-3.24-1.58c-.22-.36-.58-.94-.58-3.1V51.15h7.49V43.66h-7.35l-.14-13H732.39v13h-5.76v7.56l5.76-.07V72.32c0,9.28,3.81,12.31,9.93,12.31Zm17.13-25.49a9.39,9.39,0,0,1,9-8.35c4.54,0,8.28,3.09,9.08,8.35Zm-.43,8.06h30.39c0-12-5.55-25-20.81-25-15.7,0-20.52,12.46-20.52,21.82,0,13.68,9,22.1,20.52,22.1s18.43-6.26,20-13.39L786.39,72c-2,3.81-4.9,5.4-8.5,5.4C772.71,77.36,768.46,73.83,767.88,67.2ZM806,84.63h11.09V61.73a9.82,9.82,0,0,1,1.51-6,8.51,8.51,0,0,1,6.77-3.46c3.81,0,6.48,2.38,6.48,7V84.63h11V55.76c0-7.64-5.61-13.54-14.11-13.54-5.9,0-10.08,3.17-11.45,6.34l-.43-4.83H806Z"/></svg>