<svg xmlns="http://www.w3.org/2000/svg" viewBox="0 0 992.96 113.82"><defs><style>.a,.d{fill:#fff;}.a{stroke:#000;stroke-miterlimit:10;stroke-width:0.5px;}.a,.c,.d{fill-rule:evenodd;}.b,.c{fill:#007d59;}</style></defs><title>V005_C</title><polygon class="a" points="80.62 113.57 0.43 55.84 80.62 0.26 912.33 0.25 992.52 57.98 912.33 113.56 80.62 113.57"/><rect class="b" x="89.07" y="8.12" width="815.53" height="97.53"/><polygon class="c" points="911.49 8.12 980.51 56.88 911.49 105.65 911.49 8.12"/><polygon class="c" points="81.72 8.12 12.7 56.88 81.72 105.65 81.72 8.12"/><path class="d" d="M184.83,50.57V36.75h15a6.86,6.86,0,0,1,6.48,6.91,7,7,0,0,1-7.34,7Zm0,24.7V59.07h14c5.19,0,8.5,3.67,8.5,7.92a8.2,8.2,0,0,1-8.35,8.42ZM173,84.63h29.23c5.4,0,7.92-.94,10.8-2.88,4-2.88,6.34-7.13,6.34-12.89,0-7.42-4.25-12.89-11.16-14.76A12,12,0,0,0,217.44,42a13.59,13.59,0,0,0-6.55-12.09c-2.3-1.51-4.46-2.31-9.58-2.31H173Zm64.73-25.49a9.36,9.36,0,0,1,8.92-8.35c4.54,0,8.36,3.09,9.15,8.35Zm-.51,8.06h30.39c0-12-5.48-25-20.67-25-15.84,0-20.66,12.46-20.66,21.82,0,13.68,9,22.1,20.52,22.1S265.25,79.88,267,72.75L255.82,72c-2.09,3.81-5,5.4-8.57,5.4C242.07,77.36,237.82,73.83,237.24,67.2ZM275.4,84.63h11V62.16c0-6.69,3.67-9.86,8.21-9.86,3.88,0,6.55,2.3,6.55,7.42V84.63h11.09V56.4c0-5-1.73-8.42-4.4-10.72a15.46,15.46,0,0,0-9.57-3.46c-6,0-10.15,2.81-11.95,6.62l.07-21.24h-11ZM346.75,63.1v5.18c0,5.76-3.67,9.44-9.86,9.44-4.61,0-6.84-2.74-6.84-5.33,0-2,.58-4.11,7.63-6L342.43,65A12.69,12.69,0,0,0,346.75,63.1Zm0,16.92a15.41,15.41,0,0,0,1.3,4.61h11.3a6.35,6.35,0,0,1-1.87-4.25V57.92c0-9.8-5-15.7-18.43-15.7-12.46,0-17.64,6.84-17.35,13.61l9.79.21c0-2.95,2.3-6,7.92-6,5.33,0,7.13,2.66,7.13,4.61,0,1.72-1,3.24-4,3.81l-6.34,1c-9,1.66-11.38,3.38-13.1,4.82a11.37,11.37,0,0,0-3.82,8.57c0,6.77,5.33,12.89,15.7,12.89C340.92,85.78,344.45,83.69,346.75,80Zm20.52,4.61h11.09V61.73c0-3.24.65-4.75,1.59-6a8.16,8.16,0,0,1,6.69-3.46c3.82,0,6.55,2.38,6.55,7l-.14,25.35h11.09V55.76c0-7.64-5.62-13.54-14.19-13.54-5.83,0-9.86,3.17-11.3,6.34l-.43-4.83h-10.8Zm65.45-8.21c-5.18,0-9.79-3.67-9.79-12.31,0-9.79,4.82-13.11,9.29-13.11s9.36,3.32,9.36,12.75C441.58,72.89,436.75,76.42,432.72,76.42Zm8.64,4,.43,4.18h10.95v-57H441.65V48.34c-1.94-3.24-6.62-6-11.81-6-9.14,0-18.21,7.71-18.21,22A24.67,24.67,0,0,0,417,80.16,15.43,15.43,0,0,0,429.48,86,14.59,14.59,0,0,0,441.36,80.45Zm19.87,4.18h11.09v-57H461.38Zm46-21.53v5.18c0,5.76-3.74,9.44-9.93,9.44-4.47,0-6.7-2.74-6.7-5.33,0-2,.58-4.11,7.49-6L502.85,65A13.18,13.18,0,0,0,507.24,63.1Zm0,16.92a13.71,13.71,0,0,0,1.23,4.61h11.3a6.3,6.3,0,0,1-1.87-4.25V57.92c0-9.8-5-15.7-18.43-15.7-12.32,0-17.5,6.84-17.28,13.61L492,56c0-2.95,2.3-6,7.85-6,5.32,0,7.12,2.66,7.12,4.61,0,1.72-1,3.24-4,3.81l-6.19,1c-9,1.66-11.38,3.38-13.1,4.82a11.37,11.37,0,0,0-3.82,8.57c0,6.77,5.26,12.89,15.62,12.89C501.34,85.78,504.94,83.69,507.24,80Zm42.12,4.61V76.2h-4a3.85,3.85,0,0,1-3.24-1.58c-.22-.36-.43-.94-.43-3.1V51.15H549V43.66h-7.34l-.15-13H530.57v13h-5.76v7.56l5.76-.07V72.32c0,9.28,3.82,12.31,9.94,12.31Zm52.49,0h10.87l14-40.9H615.6l-8.21,26.93-8.13-26.93H588ZM656.14,63.1v5.18c0,5.76-3.67,9.44-9.94,9.44-4.61,0-6.77-2.74-6.77-5.33,0-2,.58-4.11,7.56-6L651.75,65A12.62,12.62,0,0,0,656.14,63.1Zm0,16.92a13.73,13.73,0,0,0,1.22,4.61h11.31a6.18,6.18,0,0,1-1.8-4.25V57.92c0-9.8-5.12-15.7-18.44-15.7-12.45,0-17.64,6.84-17.42,13.61l9.79.21c0-2.95,2.31-6,7.92-6,5.33,0,7.2,2.66,7.2,4.61,0,1.72-1.08,3.24-4,3.81l-6.34,1c-9,1.66-11.44,3.38-13.17,4.82a11.62,11.62,0,0,0-3.82,8.57c0,6.77,5.33,12.89,15.7,12.89C650.23,85.78,653.83,83.69,656.14,80Zm42.12,4.61V76.2h-4A3.83,3.83,0,0,1,691,74.62c-.22-.36-.44-.94-.44-3.1V51.15h7.35V43.66h-7.35l-.14-13H679.54v13h-5.76v7.56l5.76-.07V72.32c0,9.28,3.74,12.31,9.86,12.31Zm30.67,0V76.2h-4a3.83,3.83,0,0,1-3.24-1.58c-.22-.36-.43-.94-.43-3.1V51.15h7.34V43.66h-7.34l-.15-13H710.14v13h-5.76v7.56l5.76-.07V72.32c0,9.28,3.81,12.31,9.93,12.31Zm17.14-25.49c.72-4.9,4.75-8.35,9-8.35,4.46,0,8.28,3.09,9.07,8.35Zm-.44,8.06H776c0-12-5.55-25-20.74-25-15.77,0-20.59,12.46-20.59,21.82,0,13.68,8.93,22.1,20.45,22.1s18.43-6.26,20.16-13.39L764.14,72c-2.09,3.81-5,5.4-8.5,5.4C750.46,77.36,746.21,73.83,745.63,67.2Zm38.09,17.43h11.09V61.73c0-3.24.65-4.75,1.58-6a8.2,8.2,0,0,1,6.7-3.46c3.82,0,6.55,2.38,6.55,7l-.14,25.35h11.09V55.76c0-7.64-5.62-13.54-14.19-13.54-5.83,0-9.86,3.17-11.3,6.34l-.43-4.83h-10.8Z"/></svg>