<svg xmlns="http://www.w3.org/2000/svg" viewBox="0 0 992.96 113.82"><defs><style>.a,.d{fill:#fff;}.a{stroke:#000;stroke-miterlimit:10;stroke-width:0.5px;}.a,.c,.d{fill-rule:evenodd;}.b,.c{fill:#007d59;}</style></defs><title>V006_C</title><polygon class="a" points="80.62 113.57 0.43 55.84 80.62 0.26 912.33 0.25 992.52 57.98 912.33 113.56 80.62 113.57"/><rect class="b" x="89.07" y="8.19" width="815.53" height="97.53"/><polygon class="c" points="911.49 8.19 980.51 56.96 911.49 105.72 911.49 8.19"/><polygon class="c" points="81.72 8.19 12.7 56.96 81.72 105.72 81.72 8.19"/><path class="d" d="M286.56,50.5V36.68h15A6.85,6.85,0,0,1,308,43.59a7,7,0,0,1-7.35,7Zm0,24.7V59h13.9c5.18,0,8.57,3.67,8.57,7.92a8.26,8.26,0,0,1-8.43,8.42Zm-11.88,9.36h29.23c5.48,0,8-.94,10.88-2.88,4-2.88,6.33-7.13,6.33-12.89,0-7.42-4.32-12.89-11.16-14.76a12.08,12.08,0,0,0,9.15-12.1,13.43,13.43,0,0,0-6.56-12.09c-2.3-1.52-4.46-2.31-9.5-2.31H274.68Zm53.79,0h11.08v-57H328.61ZM374.55,63v5.18c0,5.76-3.68,9.43-9.94,9.43-4.61,0-6.77-2.73-6.77-5.32,0-1.95.58-4.11,7.56-6L370.15,65A12.69,12.69,0,0,0,374.55,63Zm0,16.92a13.56,13.56,0,0,0,1.22,4.61h11.3a6.23,6.23,0,0,1-1.8-4.25V57.84c0-9.79-5.11-15.69-18.43-15.69-12.45,0-17.64,6.84-17.42,13.61l9.79.21c0-2.95,2.3-6,7.92-6,5.33,0,7.2,2.66,7.2,4.6,0,1.73-1.08,3.24-4,3.82l-6.34,1c-9,1.65-11.45,3.38-13.17,4.82A11.54,11.54,0,0,0,347,72.82c0,6.77,5.26,12.89,15.63,12.89C368.64,85.71,372.24,83.62,374.55,80Zm20.52,4.61h11V61.66c0-3.24.72-4.75,1.66-6a8.16,8.16,0,0,1,6.62-3.45c3.82,0,6.55,2.37,6.55,7l-.07,25.35h11V55.68c0-7.63-5.62-13.53-14.11-13.53-5.91,0-9.94,3.17-11.31,6.33L406,43.66H395.14Zm65.37-8.21c-5.18,0-9.79-3.67-9.79-12.31,0-9.8,4.82-13.11,9.36-13.11s9.29,3.31,9.29,12.75C469.3,72.82,464.47,76.35,460.44,76.35Zm8.64,4,.51,4.18h10.87v-57h-11V48.27c-1.94-3.24-6.69-6-11.88-6-9.07,0-18.21,7.71-18.21,22a24.67,24.67,0,0,0,5.32,15.84,15.56,15.56,0,0,0,12.53,5.83A14.59,14.59,0,0,0,469.08,80.38Zm31.11,4.18H511l14-40.9H513.87l-8.14,26.93-8.21-26.93h-11ZM554.4,63v5.18c0,5.76-3.67,9.43-9.86,9.43-4.61,0-6.84-2.73-6.84-5.32,0-1.95.57-4.11,7.63-6L550.08,65A12.69,12.69,0,0,0,554.4,63Zm0,16.92a15.5,15.5,0,0,0,1.3,4.61H567a6.3,6.3,0,0,1-1.87-4.25V57.84c0-9.79-5-15.69-18.43-15.69-12.46,0-17.64,6.84-17.35,13.61l9.79.21c0-2.95,2.3-6,7.92-6,5.33,0,7.13,2.66,7.13,4.6,0,1.73-1,3.24-4,3.82l-6.33,1c-9,1.65-11.38,3.38-13.11,4.82a11.38,11.38,0,0,0-3.81,8.57c0,6.77,5.33,12.89,15.69,12.89C548.57,85.71,552.1,83.62,554.4,80Zm42.19,4.61V76.13h-4a3.87,3.87,0,0,1-3.24-1.58c-.21-.36-.43-.94-.43-3.1V51.08h7.34V43.59h-7.34l-.14-13h-11v13H572v7.56l5.76-.07V72.24c0,9.29,3.82,12.32,9.94,12.32Zm30.6,0V76.13h-4A3.74,3.74,0,0,1,620,74.55c-.28-.36-.5-.94-.5-3.1V51.08h7.42V43.59h-7.42l-.07-13H608.47v13h-5.76v7.56l5.76-.07V72.24c0,9.29,3.75,12.32,9.87,12.32ZM644.4,59.07a9.37,9.37,0,0,1,8.93-8.35c4.54,0,8.35,3.09,9.14,8.35Zm-.5,8.06h30.45c0-12-5.54-25-20.73-25C637.78,42.15,633,54.6,633,64c0,13.68,9,22.11,20.52,22.11s18.44-6.27,20.16-13.39l-11.16-.8c-2.08,3.82-5,5.4-8.56,5.4C648.72,77.28,644.47,73.76,643.9,67.13Zm38.16,17.43h11V61.66c0-3.24.72-4.75,1.66-6a8.16,8.16,0,0,1,6.62-3.45c3.82,0,6.63,2.37,6.63,7l-.15,25.35h11.09V55.68c0-7.63-5.69-13.53-14.18-13.53-5.91,0-9.94,3.17-11.31,6.33L693,43.66H682.13Z"/></svg>