<svg xmlns="http://www.w3.org/2000/svg" viewBox="0 0 992.96 113.82"><defs><style>.a,.d{fill:#fff;}.a{stroke:#000;stroke-miterlimit:10;stroke-width:0.5px;}.a,.c,.d{fill-rule:evenodd;}.b,.c{fill:#007d59;}</style></defs><title>V007_C</title><polygon class="a" points="80.62 113.57 0.43 55.84 80.62 0.26 912.33 0.25 992.52 57.98 912.33 113.56 80.62 113.57"/><rect class="b" x="89.07" y="8.27" width="815.53" height="97.53"/><polygon class="c" points="911.49 8.26 980.51 57.03 911.49 105.8 911.49 8.26"/><polygon class="c" points="81.72 8.26 12.7 57.03 81.72 105.8 81.72 8.26"/><path class="d" d="M284.11,50.57V36.75h15a6.85,6.85,0,0,1,6.41,6.91,6.92,6.92,0,0,1-7.27,7Zm0,24.7V59.07h14c5.19,0,8.5,3.67,8.5,7.92a8.31,8.31,0,0,1-8.5,8.42Zm-11.88,9.36h29.38c5.26,0,7.92-.94,10.73-2.88,4.1-2.88,6.41-7.13,6.41-12.89,0-7.42-4.25-12.89-11.31-14.76A12.06,12.06,0,0,0,316.66,42c0-5.4-2.31-9.57-6.41-12.09-2.45-1.51-4.61-2.31-9.72-2.31h-28.3Zm54.22,0h11.09l.07-18.22c0-6.12,1.51-8.93,3.24-10.8a10,10,0,0,1,7.49-3.24,8.17,8.17,0,0,1,1.94.15V42.8a15.44,15.44,0,0,0-2.3-.22,10.56,10.56,0,0,0-10.23,7.27l-.36-6.12h-10.8ZM382.11,80l.57,4.61h10.37V43.73H382.11V66.56c0,6.33-3.68,9.57-8.21,9.57-4.11,0-6.7-2.23-6.7-8V43.73H356.33V71.81c0,5.47,1.44,8.35,4,10.66,2.31,2.16,5.69,3.53,10.08,3.53A13.36,13.36,0,0,0,382.11,80Zm19.44,4.61h11.08l.08-22.9c0-3.24.57-4.75,1.51-6a8.38,8.38,0,0,1,6.69-3.46c3.82,0,6.56,2.38,6.56,7V84.63h10.94V55.76c0-7.64-5.54-13.54-14-13.54-5.9,0-10,3.17-11.38,6.34l-.5-4.83h-10.8ZM446,71c.22,7.7,6.77,15,19.3,15,12.81,0,18.43-6.77,18.43-14a12.41,12.41,0,0,0-2.52-7.28c-1.58-1.8-3.6-3.31-8.42-4.46l-11.74-2.74c-2.52-.57-3.46-2.08-3.46-3.6s1.37-4.17,6.84-4.17c5.84,0,8.36,3.17,8.5,6.48l9.65-.22a14.63,14.63,0,0,0-5.83-10.73c-2.45-1.72-6.27-3.24-12.24-3.24-11.74,0-16.92,6.48-16.92,13.47a10.88,10.88,0,0,0,2.73,7.63c1.51,1.58,3.24,2.88,7.85,3.82l8.86,2c5.18,1.15,5.9,2.81,5.9,4.61s-1.73,4.75-7.85,4.75c-5.76,0-8.71-3.24-9.07-7.34Zm56.67,13.61h10.94l14-40.9h-11.3l-8.21,26.93-8.07-26.93H489ZM557.07,63.1l-.15,5.18c0,5.76-3.6,9.44-9.93,9.44-4.61,0-6.77-2.74-6.77-5.33,0-2,.72-4.11,7.63-6L552.53,65A13.68,13.68,0,0,0,557.07,63.1ZM556.92,80a12.1,12.1,0,0,0,1.37,4.61h11.16a6.52,6.52,0,0,1-1.8-4.25V57.92c0-9.8-5.11-15.7-18.43-15.7-12.31,0-17.5,6.84-17.28,13.61l9.65.21c0-2.95,2.3-6,8-6,5.4,0,7.2,2.66,7.2,4.61,0,1.72-1,3.24-4,3.81l-6.34,1c-9.07,1.66-11.52,3.38-13.25,4.82a11.52,11.52,0,0,0-3.67,8.57c0,6.77,5.33,12.89,15.7,12.89C551.16,85.78,554.62,83.69,556.92,80Zm42.27,4.61V76.2H595a3.79,3.79,0,0,1-3.1-1.58c-.21-.36-.57-.94-.57-3.1V51.15h7.49V43.66h-7.49v-13h-11v13h-5.76v7.56l5.83-.07V72.32c0,9.28,3.82,12.31,9.8,12.31Zm30.6,0V76.2h-4.11a3.66,3.66,0,0,1-3.09-1.58c-.22-.36-.58-.94-.58-3.1V51.15h7.49V43.66H622v-13H610.92v13h-5.76v7.56l5.91-.07V72.32c0,9.28,3.81,12.31,9.79,12.31Zm17.06-25.49c.72-4.9,4.82-8.35,9-8.35a9.05,9.05,0,0,1,9.07,8.35Zm-.43,8.06H676.8c0-12-5.4-25-20.73-25-15.63,0-20.52,12.46-20.52,21.82,0,13.68,9,22.1,20.44,22.1,11.6,0,18.44-6.26,20.16-13.39L665.07,72c-2.09,3.81-5,5.4-8.5,5.4C651.24,77.36,647,73.83,646.42,67.2Zm38.09,17.43h11.08l.08-22.9c0-3.24.57-4.75,1.51-6a8.38,8.38,0,0,1,6.69-3.46c3.82,0,6.56,2.38,6.56,7V84.63h10.94V55.76c0-7.64-5.54-13.54-14-13.54-5.9,0-10,3.17-11.38,6.34l-.5-4.83h-10.8Z"/></svg>