<svg xmlns="http://www.w3.org/2000/svg" viewBox="0 0 992.96 113.82"><defs><style>.a,.d{fill:#fff;}.a{stroke:#000;stroke-miterlimit:10;stroke-width:0.5px;}.a,.c,.d{fill-rule:evenodd;}.b,.c{fill:#007d59;}</style></defs><title>V008_C</title><polygon class="a" points="80.62 113.57 0.43 55.84 80.62 0.26 912.33 0.25 992.52 57.98 912.33 113.56 80.62 113.57"/><rect class="b" x="88.99" y="8.19" width="815.53" height="97.53"/><polygon class="c" points="911.41 8.19 980.43 56.96 911.41 105.72 911.41 8.19"/><polygon class="c" points="81.65 8.19 12.63 56.96 81.65 105.72 81.65 8.19"/><path class="d" d="M181.87,74.69V36.89h7.92c7.13,0,10.3,1.87,12.89,5.19,2.23,3,4.18,7.63,4.18,15.12,0,12.67-6,17.49-14,17.49ZM170,84.48h24.92c12,0,23.54-10,23.54-28.08,0-19-11.45-28.94-23.69-28.94H170ZM236.67,59c.72-4.9,4.82-8.36,9-8.36A9.06,9.06,0,0,1,254.74,59Zm-.44,8.06h30.39c0-12-5.55-25-20.74-25-15.77,0-20.59,12.45-20.59,21.81,0,13.68,9.07,22.11,20.52,22.11s18.36-6.27,20.09-13.4l-11-.79c-2.16,3.82-5,5.4-8.49,5.4C241.06,77.21,236.81,73.68,236.23,67.06Zm37.3,3.82c.22,7.7,6.7,15,19.37,15s18.29-6.77,18.29-14a12.38,12.38,0,0,0-2.52-7.27c-1.52-1.8-3.46-3.31-8.28-4.46l-11.88-2.74c-2.45-.58-3.46-2.09-3.46-3.6s1.51-4.18,6.91-4.18c5.76,0,8.43,3.17,8.43,6.48l9.79-.21a14.69,14.69,0,0,0-5.91-10.73c-2.37-1.73-6.19-3.24-12.16-3.24C280.3,41.86,275,48.34,275,55.32A10.41,10.41,0,0,0,277.92,63c1.51,1.58,3.24,2.88,7.85,3.81l8.86,2c5.18,1.15,5.76,2.81,5.76,4.61s-1.66,4.75-7.71,4.75c-5.76,0-8.78-3.24-9.14-7.35Zm68.9,13.6V76.06h-4.17a3.7,3.7,0,0,1-3.1-1.58c-.21-.36-.57-.94-.57-3.1V51h7.48V43.52h-7.48l-.15-13H323.5v13h-5.76v7.56l5.9-.08-.14,21.17c0,9.29,3.81,12.31,9.93,12.31Zm7.78-47.08h10.94V27.46H350.21Zm-.07,47.08h11v-41h-11Zm19.58,0h11v-57H369.79Zm19.59,0h11v-57H389.38ZM419.47,59c.65-4.9,4.83-8.36,8.93-8.36,4.54,0,8.43,3.1,9.15,8.36Zm-.5,8.06h30.46c0-12-5.55-25-20.74-25C412.92,42.08,408,54.53,408,63.89,408,77.57,417.17,86,428.55,86c11.66,0,18.43-6.27,20.16-13.4l-11.09-.79c-2.16,3.82-4.9,5.4-8.5,5.4C423.79,77.21,419.55,73.68,419,67.06Zm38.16,17.42h11V66.27c0-6.12,1.51-8.93,3.38-10.8A9.76,9.76,0,0,1,479,52.23a7.52,7.52,0,0,1,1.8.14l.14-9.72a19.66,19.66,0,0,0-2.45-.21,10.44,10.44,0,0,0-10.08,7.27l-.36-6.12H457.2ZM510.19,63l-.07,5.18c0,5.76-3.6,9.43-9.93,9.43-4.47,0-6.7-2.73-6.7-5.33,0-1.94.72-4.1,7.49-6l4.75-1.37A14.14,14.14,0,0,0,510.19,63Zm-.07,16.92a13.65,13.65,0,0,0,1.23,4.6h11.3a6.28,6.28,0,0,1-1.87-4.24V57.77c0-9.79-5-15.69-18.43-15.69-12.32,0-17.36,6.84-17.14,13.6l9.65.22c0-2.95,2.23-6,7.85-6,5.4,0,7.12,2.67,7.12,4.61,0,1.73-1,3.24-4,3.82l-6.19,1c-9,1.65-11.38,3.38-13.1,4.82a11.34,11.34,0,0,0-3.82,8.57c0,6.77,5.26,12.89,15.55,12.89C504.22,85.64,507.82,83.55,510.12,79.88Zm42.27,4.6V76.06h-4.18a3.7,3.7,0,0,1-3.1-1.58c-.21-.36-.57-.94-.57-3.1V51H552V43.52h-7.49l-.15-13H533.45v13h-5.76v7.56l5.9-.08-.14,21.17c0,9.29,3.82,12.31,9.94,12.31Zm52.34,0h10.94l14-40.89H618.48l-8.21,26.93-8.06-26.93h-11.3ZM659.09,63,659,68.14c0,5.76-3.6,9.43-9.94,9.43-4.61,0-6.77-2.73-6.77-5.33,0-1.94.65-4.1,7.56-6l4.76-1.37A13.42,13.42,0,0,0,659.09,63ZM659,79.88a13.67,13.67,0,0,0,1.22,4.6h11.31a6.16,6.16,0,0,1-1.8-4.24V57.77c0-9.79-5.12-15.69-18.44-15.69-12.45,0-17.56,6.84-17.28,13.6l9.65.22c0-2.95,2.31-6,7.92-6s7.2,2.67,7.2,4.61c0,1.73-1.08,3.24-4,3.82l-6.26,1C639.43,61,637,62.74,635.26,64.18a11.59,11.59,0,0,0-3.82,8.57c0,6.77,5.33,12.89,15.7,12.89C653.11,85.64,656.71,83.55,659,79.88Zm42.26,4.6V76.06h-4.17a3.8,3.8,0,0,1-3.1-1.58c-.22-.36-.58-.94-.58-3.1V51h7.49V43.52h-7.49l-.14-13H682.35v13h-5.69v7.56l5.83-.08-.14,21.17c0,9.29,3.81,12.31,9.93,12.31Zm30.6,0V76.06h-4.1a3.7,3.7,0,0,1-3.1-1.58c-.29-.36-.57-.94-.57-3.1V51h7.48V43.52h-7.48l-.15-13H713v13h-5.76v7.56l5.9-.08L713,72.17c0,9.29,3.81,12.31,9.93,12.31ZM749,59c.72-4.9,4.82-8.36,9-8.36A9.06,9.06,0,0,1,767,59Zm-.44,8.06H778.9c0-12-5.55-25-20.74-25-15.77,0-20.59,12.45-20.59,21.81C737.57,77.57,746.64,86,758,86c11.66,0,18.43-6.27,20.16-13.4l-11-.79c-2.23,3.82-5,5.4-8.57,5.4C753.34,77.21,749.09,73.68,748.51,67.06ZM786.6,84.48h11.09l.07-22.89c0-3.24.58-4.75,1.51-6a8.4,8.4,0,0,1,6.7-3.45c3.82,0,6.55,2.37,6.55,7V84.48h11V55.61c0-7.63-5.62-13.53-14-13.53-5.91,0-10,3.16-11.45,6.33l-.43-4.82h-10.8Z"/></svg>