<svg xmlns="http://www.w3.org/2000/svg" viewBox="0 0 992.96 113.82"><defs><style>.a,.d{fill:#fff;}.a{stroke:#000;stroke-miterlimit:10;stroke-width:0.5px;}.a,.c,.d{fill-rule:evenodd;}.b,.c{fill:#007d59;}</style></defs><title>V009_C</title><polygon class="a" points="80.62 113.57 0.43 55.84 80.62 0.26 912.33 0.25 992.52 57.98 912.33 113.56 80.62 113.57"/><rect class="b" x="88.99" y="8.05" width="815.53" height="97.53"/><polygon class="c" points="911.41 8.04 980.43 56.81 911.41 105.58 911.41 8.04"/><polygon class="c" points="81.65 8.04 12.63 56.81 81.65 105.58 81.65 8.04"/><path class="d" d="M271.59,74.76V37h7.92c7.12,0,10.29,1.88,12.88,5.19,2.24,3,4.18,7.63,4.18,15.12,0,12.67-6,17.49-14,17.49Zm-11.88,9.8h24.91c11.95,0,23.61-10,23.61-28.08,0-19-11.52-28.95-23.76-28.95H259.71Zm56.23,0h11V66.34c0-6.12,1.52-8.93,3.39-10.8a9.75,9.75,0,0,1,7.49-3.24,7.56,7.56,0,0,1,1.8.14l.14-9.72a19.84,19.84,0,0,0-2.45-.21,10.6,10.6,0,0,0-10.15,7.27l-.29-6.12H316Zm29.95-47.09h10.94V27.53H345.89Zm-.14,47.09h11.08v-41H345.75ZM394.2,69.72c-.57,3.1-1.44,4.47-3.09,5.62a8,8,0,0,1-5.4,1.73c-5,0-9.44-3.6-9.44-12.82,0-10,4.83-13.68,9.87-13.68A7.93,7.93,0,0,1,394,57.63l10.58-.58c-.86-8.57-7.49-15.12-18.72-15.12-8,0-13.75,3.1-17.42,8.57a23.15,23.15,0,0,0-3.89,13.68c0,8.42,3.31,14.47,8.49,18.43,3.24,2.31,7.13,3.67,12.68,3.67a20.92,20.92,0,0,0,8.2-1.36c6.2-2.24,10-6.84,10.8-14.76Zm18.22,14.84h11.09V71.09l4.6-4.53,11.24,18h13.53L436,59.36l14.62-15.77-13,.07L423.51,59.21V27.53H412.42ZM458.35,71c.29,7.7,6.7,15,19.37,15S496,79.16,496,71.88a11.86,11.86,0,0,0-2.52-7.27c-1.51-1.8-3.46-3.31-8.28-4.46l-11.88-2.74c-2.38-.57-3.46-2.09-3.46-3.6s1.52-4.17,6.92-4.17c5.76,0,8.42,3.16,8.42,6.48L495,55.9a14.68,14.68,0,0,0-5.9-10.73c-2.38-1.73-6.19-3.24-12.17-3.24-11.74,0-17.06,6.48-17.06,13.47A10.35,10.35,0,0,0,462.75,63c1.51,1.58,3.24,2.88,7.84,3.81l8.86,2c5.18,1.15,5.76,2.81,5.76,4.61s-1.58,4.75-7.7,4.75c-5.76,0-8.79-3.24-9.08-7.34ZM515,84.56H526l14-40.9H528.77l-8.21,26.93L512.5,43.66H501.19ZM569.38,63l-.07,5.18c0,5.76-3.6,9.43-9.94,9.43-4.61,0-6.77-2.73-6.77-5.32,0-1.95.65-4.11,7.56-6L564.91,65A13.18,13.18,0,0,0,569.38,63ZM569.31,80a13.56,13.56,0,0,0,1.22,4.61h11.3A6.35,6.35,0,0,1,580,80.31V57.84c0-9.79-5-15.69-18.36-15.69-12.45,0-17.57,6.84-17.28,13.61L554,56c0-2.95,2.3-6,7.92-6s7.2,2.66,7.2,4.6c0,1.73-1.08,3.24-4,3.82l-6.27,1c-9.07,1.65-11.52,3.38-13.24,4.82a11.6,11.6,0,0,0-3.82,8.57c0,6.77,5.33,12.89,15.7,12.89C563.4,85.71,567,83.62,569.31,80Zm42.26,4.61V76.13h-4.18a3.78,3.78,0,0,1-3.09-1.58c-.22-.36-.58-.94-.58-3.1V51.08h7.49V43.59h-7.49l-.14-13h-11v13h-5.76v7.56l5.91-.07-.15,21.16c0,9.29,3.82,12.32,9.94,12.32Zm30.6,0V76.13h-4.1a3.82,3.82,0,0,1-3.17-1.58c-.22-.36-.58-.94-.58-3.1V51.08h7.49V43.59h-7.49l-.07-13H623.31v13h-5.76v7.56l5.9-.07-.14,21.16c0,9.29,3.81,12.32,9.86,12.32Zm17.06-25.49c.72-4.9,4.83-8.35,9-8.35a9.05,9.05,0,0,1,9.08,8.35Zm-.43,8.06h30.39c0-12-5.55-25-20.74-25-15.77,0-20.59,12.45-20.59,21.81,0,13.68,9.07,22.11,20.45,22.11,11.66,0,18.43-6.27,20.16-13.39l-11-.8c-2.23,3.82-5,5.4-8.57,5.4C663.63,77.28,659.38,73.76,658.8,67.13Zm38.09,17.43H708l.07-22.9c0-3.24.58-4.75,1.51-6a8.4,8.4,0,0,1,6.7-3.45c3.81,0,6.55,2.37,6.55,7V84.56h10.94V55.68c0-7.63-5.61-13.53-14-13.53-5.9,0-10,3.17-11.44,6.33l-.44-4.82H697Z"/></svg>