<svg xmlns="http://www.w3.org/2000/svg" viewBox="0 0 992.96 113.82"><defs><style>.a,.d{fill:#fff;}.a{stroke:#000;stroke-miterlimit:10;stroke-width:0.5px;}.a,.c,.d{fill-rule:evenodd;}.b,.c{fill:#007d59;}</style></defs><title>V010_C</title><polygon class="a" points="80.62 113.57 0.43 55.84 80.62 0.26 912.33 0.25 992.52 57.98 912.33 113.56 80.62 113.57"/><rect class="b" x="89.07" y="8.05" width="815.53" height="97.53"/><polygon class="c" points="911.49 8.04 980.51 56.81 911.49 105.58 911.49 8.04"/><polygon class="c" points="81.72 8.04 12.7 56.81 81.72 105.58 81.72 8.04"/><path class="d" d="M209.52,84.63H252V74.84H221.33V59.14h26.86V49.85H221.33V37.18h30.24V27.6h-42Zm54.79-47.09H275.4V27.6H264.31ZM257.4,89v9l7.63-.14c7,0,10.44-3.32,10.44-10.73l-.07-43.49H264.46l-.15,38.81c0,5.76-1.72,6.55-4.39,6.55Zm80.28-12.6c-5.18,0-9.79-3.67-9.79-12.31,0-9.79,4.82-13.11,9.36-13.11s9.29,3.32,9.29,12.75C346.54,72.89,341.71,76.42,337.68,76.42Zm8.64,4,.43,4.18H357.7v-57h-11V48.34c-1.94-3.24-6.55-6-11.88-6-9.07,0-18.21,7.71-18.21,22a24.67,24.67,0,0,0,5.32,15.84A15.62,15.62,0,0,0,334.44,86,14.59,14.59,0,0,0,346.32,80.45Zm19.95,4.18h11V66.41c0-6.12,1.51-8.93,3.39-10.8a9.74,9.74,0,0,1,7.48-3.24,7.26,7.26,0,0,1,1.8.15l.15-9.72a17.84,17.84,0,0,0-2.45-.22,10.61,10.61,0,0,0-10.22,7.27l-.36-6.12H366.34Zm30-47.09h10.94V27.6H396.22Zm-.15,47.09h11.09v-41H396.07ZM444.53,69.8c-.58,3.09-1.44,4.46-3.1,5.61a8,8,0,0,1-5.4,1.73c-5,0-9.43-3.6-9.43-12.82,0-10,4.83-13.68,9.87-13.68a7.91,7.91,0,0,1,7.84,7.06l10.59-.58C454,48.56,447.41,42,436.18,42c-8.07,0-13.75,3.1-17.43,8.57a23.74,23.74,0,0,0-3.88,13.68c0,8.43,3.31,14.47,8.49,18.43,3.24,2.31,7.13,3.68,12.67,3.68A20.91,20.91,0,0,0,444.24,85c6.19-2.23,10-6.84,10.8-14.76Zm18.22,14.83h11.08V71.16l4.61-4.53,11.23,18h13.4l-16.85-25.2,14.69-15.77-13,.07L473.83,59.28l-.14-31.68H462.75ZM508.61,71c.22,7.7,6.7,15,19.22,15,12.75,0,18.44-6.77,18.44-14a12.41,12.41,0,0,0-2.52-7.28c-1.52-1.8-3.46-3.31-8.36-4.46l-11.8-2.74c-2.45-.57-3.46-2.08-3.46-3.6s1.51-4.17,6.91-4.17c5.76,0,8.35,3.17,8.35,6.48l9.8-.22a14.61,14.61,0,0,0-5.84-10.73c-2.44-1.72-6.26-3.24-12.24-3.24-11.8,0-17,6.48-17,13.47A10.11,10.11,0,0,0,513,63.1c1.44,1.58,3.17,2.88,7.78,3.82l8.85,2c5.19,1.15,5.76,2.81,5.76,4.61s-1.72,4.75-7.7,4.75c-5.76,0-8.71-3.24-9.07-7.34Zm56.74,13.61h10.94l14-40.9H579.1l-8.21,26.93-8.14-26.93H551.52ZM619.63,63.1v5.18c0,5.76-3.6,9.44-9.93,9.44-4.61,0-6.77-2.74-6.77-5.33,0-2,.58-4.11,7.56-6L615.24,65A12.53,12.53,0,0,0,619.63,63.1Zm0,16.92a13.71,13.71,0,0,0,1.23,4.61h11.3a6.3,6.3,0,0,1-1.87-4.25V57.92c0-9.8-5-15.7-18.36-15.7-12.46,0-17.64,6.84-17.42,13.61l9.79.21c0-2.95,2.3-6,7.92-6s7.2,2.66,7.2,4.61c0,1.72-1.08,3.24-4,3.81l-6.27,1c-9.07,1.66-11.52,3.38-13.25,4.82a11.65,11.65,0,0,0-3.81,8.57c0,6.77,5.33,12.89,15.69,12.89C613.73,85.78,617.33,83.69,619.63,80Zm42.27,4.61V76.2h-4.18a3.85,3.85,0,0,1-3.24-1.58,8.53,8.53,0,0,1-.43-3.1V51.15h7.34V43.66h-7.34l-.14-13H643v13H637.2v7.56l5.91-.07L643,72.32c0,9.28,3.82,12.31,9.94,12.31Zm30.6,0V76.2h-4.11a3.76,3.76,0,0,1-3.24-1.58,6.49,6.49,0,0,1-.5-3.1V51.15h7.42V43.66h-7.42l-.07-13h-11v13h-5.76v7.56l5.91-.07-.15,21.17c0,9.28,3.82,12.31,9.87,12.31Zm17.06-25.49c.72-4.9,4.83-8.35,9-8.35a9,9,0,0,1,9.07,8.35Zm-.43,8.06h30.38c0-12-5.54-25-20.73-25C703,42.22,698.19,54.68,698.19,64c0,13.68,8.92,22.1,20.44,22.1s18.44-6.26,20.16-13.39l-11-.79c-2.23,3.81-5.11,5.4-8.64,5.4C714,77.36,709.71,73.83,709.13,67.2Zm38.09,17.43h11.09V61.73c0-3.24.64-4.75,1.58-6a8.18,8.18,0,0,1,6.7-3.46c3.81,0,6.55,2.38,6.55,7V84.63h10.94V55.76c0-7.64-5.61-13.54-14-13.54-5.9,0-10,3.17-11.45,6.34l-.43-4.83h-10.8Z"/></svg>