<svg xmlns="http://www.w3.org/2000/svg" viewBox="0 0 992.96 113.82"><defs><style>.a,.d{fill:#fff;}.a{stroke:#000;stroke-miterlimit:10;stroke-width:0.5px;}.a,.c,.d{fill-rule:evenodd;}.b,.c{fill:#007d59;}</style></defs><title>V011_C</title><polygon class="a" points="80.62 113.57 0.43 55.84 80.62 0.26 912.33 0.25 992.52 57.98 912.33 113.56 80.62 113.57"/><rect class="b" x="88.99" y="7.98" width="815.53" height="97.53"/><polygon class="c" points="911.41 7.97 980.43 56.74 911.41 105.51 911.41 7.97"/><polygon class="c" points="81.65 7.97 12.63 56.74 81.65 105.51 81.65 7.97"/><path class="d" d="M217.51,84.48h11.74V60.15h24.84V50.86H229.25V37h29.38V27.46H217.51ZM262.87,37.4h11V27.46h-11Zm0,47.08h11v-41h-11Zm19.59,0h11v-57H282.53Zm42.33,0V76.06h-4a3.74,3.74,0,0,1-3.17-1.58c-.28-.36-.5-.94-.5-3.1V51h7.42V43.52h-7.42l-.07-13H306.07v13h-5.76v7.56l5.76-.08V72.17c0,9.29,3.82,12.31,9.87,12.31Zm8.36,0h11V66.27c0-6.12,1.51-8.93,3.39-10.8A9.54,9.54,0,0,1,355,52.23a7.77,7.77,0,0,1,1.8.14V42.65a14.93,14.93,0,0,0-2.3-.21,10.48,10.48,0,0,0-10.22,7.27L344,43.59h-10.8ZM372,59a9.38,9.38,0,0,1,8.93-8.36c4.54,0,8.35,3.1,9.15,8.36Zm-.5,8.06h30.46c0-12-5.55-25-20.74-25-15.84,0-20.66,12.45-20.66,21.81,0,13.68,9,22.11,20.52,22.11s18.43-6.27,20-13.4l-11-.79c-2.09,3.82-5,5.4-8.57,5.4C376.27,77.21,372,73.68,371.45,67.06Zm38.16,17.42h11V66.27c0-6.12,1.51-8.93,3.38-10.8a9.56,9.56,0,0,1,7.49-3.24,7.85,7.85,0,0,1,1.8.14V42.65a15.09,15.09,0,0,0-2.31-.21,10.48,10.48,0,0,0-10.22,7.27l-.36-6.12h-10.8ZM462.67,63v5.18c0,5.76-3.67,9.43-9.86,9.43-4.61,0-6.84-2.73-6.84-5.33,0-1.94.58-4.1,7.63-6l4.68-1.37A12.91,12.91,0,0,0,462.67,63Zm0,16.92a13.53,13.53,0,0,0,1.3,4.6H475.2a5.86,5.86,0,0,1-1.8-4.24V57.77c0-9.79-5-15.69-18.43-15.69-12.46,0-17.64,6.84-17.42,13.6l9.79.22c0-2.95,2.3-6,8-6,5.26,0,7.13,2.67,7.13,4.61,0,1.73-1,3.24-4,3.82l-6.34,1c-9,1.65-11.38,3.38-13.1,4.82a11.34,11.34,0,0,0-3.82,8.57c0,6.77,5.26,12.89,15.62,12.89C456.84,85.64,460.3,83.55,462.67,79.88Zm42.05,4.6V76.06h-4a3.87,3.87,0,0,1-3.24-1.58c-.22-.36-.43-.94-.43-3.1V51h7.34V43.52H497l-.15-13h-10.8v13h-5.76v7.56l5.76-.08V72.17c0,9.29,3.82,12.31,9.87,12.31Zm52.49,0h10.87l14-40.89H571l-8.21,26.93-8.13-26.93H543.39ZM611.5,63v5.18c0,5.76-3.67,9.43-9.94,9.43-4.61,0-6.77-2.73-6.77-5.33,0-1.94.58-4.1,7.56-6l4.76-1.37A13,13,0,0,0,611.5,63Zm0,16.92a13.67,13.67,0,0,0,1.22,4.6H624a5.55,5.55,0,0,1-1.8-4.24V57.77c0-9.79-5.12-15.69-18.44-15.69-12.45,0-17.64,6.84-17.42,13.6l9.79.22c0-2.95,2.31-6,7.92-6,5.33,0,7.2,2.67,7.2,4.61,0,1.73-1.08,3.24-4,3.82l-6.34,1c-9,1.65-11.44,3.38-13.17,4.82a11.59,11.59,0,0,0-3.82,8.57c0,6.77,5.33,12.89,15.7,12.89C605.59,85.64,609.05,83.55,611.5,79.88Zm42.12,4.6V76.06h-4a3.86,3.86,0,0,1-3.24-1.58c-.22-.36-.44-.94-.44-3.1V51h7.35V43.52h-7.35l-.14-13H634.83v13h-5.76v7.56l5.76-.08V72.17c0,9.29,3.81,12.31,9.93,12.31Zm30.67,0V76.06h-4A3.86,3.86,0,0,1,677,74.48c-.22-.36-.43-.94-.43-3.1V51h7.34V43.52h-7.34l-.15-13H665.5v13h-5.76v7.56L665.5,51V72.17c0,9.29,3.81,12.31,9.93,12.31ZM701.43,59c.72-4.9,4.75-8.36,9-8.36,4.46,0,8.28,3.1,9.07,8.36ZM701,67.06h30.39c0-12-5.55-25-20.74-25-15.77,0-20.59,12.45-20.59,21.81C690.05,77.57,699,86,710.5,86s18.43-6.27,20.09-13.4l-11.09-.79c-2.09,3.82-5,5.4-8.5,5.4C705.82,77.21,701.57,73.68,701,67.06Zm38.09,17.42h11.09V61.59c0-3.24.65-4.75,1.58-6a8.19,8.19,0,0,1,6.7-3.45c3.82,0,6.55,2.37,6.55,7l-.14,25.34H776V55.61c0-7.63-5.62-13.53-14.19-13.53-5.83,0-9.86,3.16-11.37,6.33L750,43.59h-10.8Z"/></svg>