<svg xmlns="http://www.w3.org/2000/svg" viewBox="0 0 992.96 113.82"><defs><style>.a,.d{fill:#fff;}.a{stroke:#000;stroke-miterlimit:10;stroke-width:0.5px;}.a,.c,.d{fill-rule:evenodd;}.b,.c{fill:#007d59;}</style></defs><title>V012_C</title><polygon class="a" points="80.62 113.57 0.43 55.84 80.62 0.26 912.33 0.25 992.52 57.98 912.33 113.56 80.62 113.57"/><rect class="b" x="89.07" y="8.12" width="815.53" height="97.53"/><polygon class="c" points="911.49 8.12 980.51 56.88 911.49 105.65 911.49 8.12"/><polygon class="c" points="81.72 8.12 12.7 56.88 81.72 105.65 81.72 8.12"/><path class="d" d="M180.15,84.63H192V60.29h24.84V51H192V37.18h29.23V27.6H180.15Zm51.62-45.87h11l-.08-11.16H231.77Zm14.4,0h11l-.08-11.16H246.17Zm-1.51,38.81c-5.76,0-10.73-4-10.73-13.53,0-9.22,5-13.4,10.58-13.4,5.33,0,10.3,3.68,10.3,13.68C254.81,74,249.48,77.57,244.66,77.57Zm-.72,8.64c13.25,0,22.1-8.85,22.1-22.17s-8.93-22-21.74-22c-12.46,0-21.67,8.86-21.67,22S231.84,86.21,243.94,86.21Zm29.88-1.58h11L285,66.41c0-6.12,1.51-8.93,3.24-10.8a9.75,9.75,0,0,1,7.49-3.24,7.07,7.07,0,0,1,1.8.15l.14-9.72a15.58,15.58,0,0,0-2.3-.22,10.65,10.65,0,0,0-10.3,7.27l-.29-6.12H273.89Zm48.89-7.06c-5.19,0-10.23-4-10.23-13.25,0-9.64,5-13.53,10.37-13.53S333.07,54.68,333.07,64,328.18,77.57,322.71,77.57Zm.14,8.57c12.46,0,21.53-8.78,21.53-22.1,0-12.89-9-21.89-21.67-21.89-12.39,0-21.53,8.85-21.53,21.89C301.18,77.5,310.32,86.14,322.85,86.14ZM352,84.63h11l.14-18.22c0-6.12,1.51-8.93,3.24-10.8a9.76,9.76,0,0,1,7.49-3.24,7,7,0,0,1,1.8.15l.14-9.72a15.44,15.44,0,0,0-2.3-.22,10.49,10.49,0,0,0-10.23,7.27L363,43.73H352.08Zm38.81-25.49a9.49,9.49,0,0,1,9-8.35c4.46,0,8.35,3.09,9.07,8.35Zm-.51,8.06h30.46c0-12-5.4-25-20.74-25-15.69,0-20.66,12.46-20.66,21.82,0,13.68,9.14,22.1,20.52,22.1,11.66,0,18.43-6.26,20.16-13.39L409,72c-2.08,3.81-5,5.4-8.56,5.4C395.21,77.36,390.89,73.83,390.31,67.2Zm38.16,17.43h11l.14-22.9c0-3.24.58-4.75,1.52-6a8.38,8.38,0,0,1,6.69-3.46c3.75,0,6.55,2.38,6.55,7V84.63h10.95V55.76c0-7.64-5.55-13.54-14-13.54-5.91,0-10.08,3.17-11.45,6.34l-.43-4.83H428.55ZM500.19,63.1l-.08,5.18c0,5.76-3.45,9.44-9.79,9.44-4.61,0-6.84-2.74-6.84-5.33,0-2,.72-4.11,7.63-6L495.87,65A13.6,13.6,0,0,0,500.19,63.1ZM500.11,80a11,11,0,0,0,1.37,4.61h11.16a6.52,6.52,0,0,1-1.8-4.25V57.92c0-9.8-5.11-15.7-18.36-15.7-12.31,0-17.49,6.84-17.28,13.61l9.72.21c0-2.95,2.31-6,7.92-6,5.33,0,7.13,2.66,7.13,4.61,0,1.72-1.15,3.24-3.89,3.81l-6.33,1c-9.15,1.66-11.52,3.38-13.25,4.82a11.37,11.37,0,0,0-3.82,8.57c0,6.77,5.4,12.89,15.77,12.89C494.35,85.78,497.81,83.69,500.11,80Zm42.27,4.61V76.2H538.2a3.75,3.75,0,0,1-3.09-1.58c-.22-.36-.58-.94-.58-3.1V51.15H542V43.66h-7.49v-13H523.44v13h-5.69v7.56l5.84-.07V72.32c0,9.28,3.81,12.31,9.79,12.31Zm52.41,0h11l14-40.9H608.47l-8.2,26.93L592.2,43.73H581ZM649.15,63.1,649,68.28c0,5.76-3.6,9.44-9.94,9.44-4.6,0-6.76-2.74-6.76-5.33,0-2,.72-4.11,7.63-6L644.62,65A13.51,13.51,0,0,0,649.15,63.1ZM649,80a12.1,12.1,0,0,0,1.37,4.61h11.16a6.52,6.52,0,0,1-1.8-4.25V57.92c0-9.8-5.11-15.7-18.43-15.7-12.32,0-17.5,6.84-17.28,13.61l9.64.21c0-2.95,2.31-6,8-6,5.4,0,7.2,2.66,7.2,4.61,0,1.72-1.16,3.24-4,3.81l-6.33,1c-9.07,1.66-11.45,3.38-13.18,4.82a11.36,11.36,0,0,0-3.81,8.57c0,6.77,5.4,12.89,15.76,12.89C643.11,85.78,646.71,83.69,649,80Zm42.26,4.61V76.2H687.1a3.77,3.77,0,0,1-3.1-1.58c-.21-.36-.57-.94-.57-3.1V51.15h7.48V43.66h-7.48v-13h-11v13h-5.76v7.56l5.83-.07V72.32c0,9.28,3.82,12.31,9.79,12.31Zm30.68,0V76.2h-4.18a3.68,3.68,0,0,1-3.1-1.58c-.21-.36-.57-.94-.57-3.1V51.15h7.49V43.66H714.1v-13H703v13h-5.76v7.56l5.9-.07V72.32c0,9.28,3.82,12.31,9.8,12.31Zm17-25.49c.72-4.9,4.82-8.35,9-8.35A9.05,9.05,0,0,1,757,59.14Zm-.43,8.06h30.38c0-12-5.4-25-20.74-25-15.62,0-20.59,12.46-20.59,21.82,0,13.68,9.07,22.1,20.52,22.1s18.43-6.26,20.16-13.39L757.15,72c-2.08,3.81-5,5.4-8.49,5.4C743.33,77.36,739.08,73.83,738.51,67.2Zm38.08,17.43h11.09l.07-22.9c0-3.24.58-4.75,1.52-6A8.38,8.38,0,0,1,796,52.3c3.82,0,6.55,2.38,6.55,7V84.63h11V55.76c0-7.64-5.55-13.54-14-13.54-5.91,0-10,3.17-11.38,6.34l-.5-4.83h-10.8Z"/></svg>