<svg xmlns="http://www.w3.org/2000/svg" viewBox="0 0 992.96 113.82"><defs><style>.a,.d{fill:#fff;}.a{stroke:#000;stroke-miterlimit:10;stroke-width:0.5px;}.a,.c,.d{fill-rule:evenodd;}.b,.c{fill:#007d59;}</style></defs><title>V013_C</title><polygon class="a" points="80.62 113.57 0.43 55.84 80.62 0.26 912.33 0.25 992.52 57.98 912.33 113.56 80.62 113.57"/><rect class="b" x="88.99" y="8.27" width="815.53" height="97.53"/><polygon class="c" points="911.41 8.26 980.43 57.03 911.41 105.8 911.41 8.26"/><polygon class="c" points="81.65 8.26 12.63 57.03 81.65 105.8 81.65 8.26"/><path class="d" d="M183.53,84.7h11.59V59.57h22.61V84.7h11.74v-57H217.73v22.6H195.12V27.68H183.53Zm61.7-45.86h11.09V27.68H245.23Zm14.4,0h11.09V27.68H259.63Zm-1.51,38.8c-5.76,0-10.58-4-10.58-13.53,0-9.22,4.82-13.39,10.51-13.39,5.26,0,10.22,3.67,10.22,13.68C268.27,74.12,263.09,77.64,258.12,77.64Zm-.65,8.64c13.25,0,22.11-8.85,22.11-22.17s-9-22-21.75-22c-12.45,0-21.6,8.85-21.6,22S245.38,86.28,257.47,86.28Zm50-12.31c-5.33,0-9.79-3.89-9.79-11.52,0-6.55,4.61-10.65,9.58-10.65,5.18,0,9.64,4.1,9.64,11C316.87,69.94,312.19,74,307.44,74ZM288.79,86.86a12.19,12.19,0,0,0,4,8.35c2.37,2.31,7.12,4.61,15,4.61,8.86,0,14.62-3.24,17.35-6.84C327,90.46,328,88.3,328,82L328,43.8l-10.51-.07-.36,4.9c-.79-1.15-2.95-6.34-12.1-6.34-9.86,0-18.5,7.85-18.5,20.52s8.64,20.59,18.43,20.59c6.55,0,10.59-3,12.17-6L317,81.68c0,6.91-3.17,9.79-9.43,9.79-4.9,0-7.06-2.38-7.49-4.9Zm71.07-2.16V76.28h-4a3.84,3.84,0,0,1-3.24-1.59c-.22-.36-.58-.93-.58-3.09V51.22h7.49V43.73h-7.35l-.14-13H341.07v13h-5.76v7.56l5.76-.07V72.39c0,9.29,3.81,12.31,9.93,12.31Zm8.28,0h11V66.48c0-6.12,1.52-8.92,3.39-10.8A9.54,9.54,0,0,1,390,52.44a7.63,7.63,0,0,1,1.8.15V42.87a15,15,0,0,0-2.31-.22,10.56,10.56,0,0,0-10.22,7.27l-.36-6.12h-10.8Zm32.47,4.61V98h8.06c9.65,0,11.88-7.49,12.75-10L437,43.8H425.38L417.17,69l-8.64-25.27H396.72l12.67,34.49a15.67,15.67,0,0,1,1,5.69c0,3.31-1.73,5.54-6.55,5.54Zm69.77-19.44c-.65,3.09-1.59,4.46-3.17,5.61a8.13,8.13,0,0,1-5.33,1.73c-5,0-9.57-3.6-9.57-12.81,0-10,5-13.68,9.93-13.68a8,8,0,0,1,7.92,7.05l10.59-.57c-.94-8.57-7.56-15.12-18.72-15.12-8.07,0-13.76,3.09-17.43,8.56-2.52,3.53-3.89,7.92-3.89,13.68,0,8.43,3.32,14.48,8.36,18.44,3.24,2.3,7.27,3.67,12.81,3.67a21.21,21.21,0,0,0,8.21-1.37c6.19-2.23,10-6.84,10.8-14.76ZM488.59,84.7h11V71.24l4.61-4.54,11.3,18h13.46L512,59.5l14.69-15.77-13,.07L499.54,59.36l-.15-31.68h-10.8Zm45.87-13.61c.21,7.71,6.62,15,19.22,15,12.75,0,18.43-6.77,18.43-14a12.29,12.29,0,0,0-2.52-7.27c-1.51-1.8-3.6-3.32-8.42-4.47l-11.74-2.73C547,57,546,55.47,546,54s1.44-4.18,6.77-4.18c5.9,0,8.42,3.17,8.49,6.48L571,56a14,14,0,0,0-5.9-10.72c-2.31-1.73-6.12-3.24-12.1-3.24-11.88,0-17.06,6.48-17.06,13.46a10.35,10.35,0,0,0,2.88,7.63c1.44,1.59,3.24,2.88,7.77,3.82l8.93,2c5.11,1.16,5.76,2.81,5.76,4.61s-1.73,4.75-7.77,4.75c-5.76,0-8.64-3.24-9-7.34ZM591.19,84.7h10.88l14-40.9H605l-8.21,26.93L588.53,43.8H577.37Zm54.29-21.53v5.19c0,5.76-3.74,9.43-9.93,9.43-4.61,0-6.92-2.74-6.92-5.33,0-1.94.72-4.1,7.64-6l4.82-1.36A14.11,14.11,0,0,0,645.48,63.17Zm0,16.92a10,10,0,0,0,1.23,4.61H658a6.09,6.09,0,0,1-1.94-4.25L656.14,58c0-9.79-5.19-15.7-18.43-15.7-12.39,0-17.57,6.84-17.36,13.61l9.8.22c0-3,2.16-6,7.84-6,5.4,0,7.2,2.66,7.2,4.61,0,1.73-1,3.24-4,3.81l-6.33,1c-8.93,1.66-11.38,3.39-13.18,4.83A11.26,11.26,0,0,0,617.91,73c0,6.77,5.32,12.89,15.69,12.89C639.58,85.85,643,83.76,645.48,80.09ZM687.6,84.7V76.28h-4a3.85,3.85,0,0,1-3.24-1.59c-.22-.36-.58-.93-.58-3.09V51.22h7.49V43.73H679.9l-.15-13H668.81v13h-5.76v7.56l5.76-.07V72.39c0,9.29,3.82,12.31,9.94,12.31Zm30.67,0V76.28h-4A3.76,3.76,0,0,1,711,74.69c-.21-.36-.57-.93-.57-3.09V51.22h7.48V43.73H710.5l-.07-13H699.48v13h-5.76v7.56l5.76-.07V72.39c0,9.29,3.82,12.31,9.87,12.31Zm17.14-25.49a9.34,9.34,0,0,1,9-8.35c4.46,0,8.28,3.1,9.07,8.35Zm-.5,8.07h30.45c0-12-5.54-25-20.88-25C728.86,42.29,724,54.75,724,64.11c0,13.68,8.93,22.1,20.45,22.1S762.91,80,764.57,72.82L753.48,72c-2.09,3.81-5,5.4-8.49,5.4C739.8,77.43,735.48,73.9,734.91,67.28ZM773.07,84.7h11.08V61.8c0-3.24.65-4.75,1.44-6a8.68,8.68,0,0,1,6.84-3.46c3.75,0,6.41,2.38,6.41,7V84.7h11.09V55.83c0-7.63-5.69-13.54-14.18-13.54-5.91,0-10,3.17-11.38,6.34l-.5-4.83h-10.8Z"/></svg>