<svg xmlns="http://www.w3.org/2000/svg" viewBox="0 0 992.96 113.82"><defs><style>.a,.d{fill:#fff;}.a{stroke:#000;stroke-miterlimit:10;stroke-width:0.5px;}.a,.c,.d{fill-rule:evenodd;}.b,.c{fill:#007d59;}</style></defs><title>V014_C</title><polygon class="a" points="80.62 113.57 0.43 55.84 80.62 0.26 912.33 0.25 992.52 57.98 912.33 113.56 80.62 113.57"/><rect class="b" x="88.99" y="8.12" width="815.53" height="97.53"/><polygon class="c" points="911.41 8.12 980.43 56.88 911.41 105.65 911.41 8.12"/><polygon class="c" points="81.65 8.12 12.63 56.88 81.65 105.65 81.65 8.12"/><path class="d" d="M239.11,84.63h12v-57h-12Zm20.52,0h11l.14-22.9c0-3.24.58-4.75,1.44-6a8.41,8.41,0,0,1,6.7-3.46c3.82,0,6.55,2.38,6.55,7V84.63h10.95V55.76c0-7.64-5.62-13.54-14-13.54-5.84,0-10,3.17-11.38,6.34l-.5-4.83h-10.8ZM325,76.42c-5.18,0-9.65-3.67-9.65-12.31,0-9.79,4.68-13.11,9.22-13.11s9.29,3.32,9.29,12.75C333.87,72.89,329.19,76.42,325,76.42Zm8.78,4,.44,4.18H345v-57H334V48.34c-1.94-3.24-6.55-6-11.88-6-9.07,0-18.22,7.71-18.22,22a24.67,24.67,0,0,0,5.33,15.84A15.82,15.82,0,0,0,321.77,86,15.06,15.06,0,0,0,333.79,80.45ZM379.37,80l.58,4.61h10.36V43.73H379.37V66.56c0,6.33-3.82,9.57-8.21,9.57-4.1,0-6.62-2.23-6.62-8V43.73H353.45V71.81c0,5.47,1.66,8.35,4,10.66A15.14,15.14,0,0,0,367.71,86,13.34,13.34,0,0,0,379.37,80ZM398,71c.21,7.7,6.69,15,19.37,15s18.28-6.77,18.28-14a12.35,12.35,0,0,0-2.52-7.28c-1.51-1.8-3.45-3.31-8.28-4.46l-11.73-2.74c-2.52-.57-3.6-2.08-3.6-3.6s1.51-4.17,6.91-4.17c5.76,0,8.42,3.17,8.42,6.48l9.8-.22a14.69,14.69,0,0,0-5.91-10.73c-2.37-1.72-6.19-3.24-12.17-3.24-11.73,0-17.06,6.48-17.06,13.47a10.39,10.39,0,0,0,2.88,7.63c1.51,1.58,3.24,2.88,7.85,3.82l8.85,2c5.19,1.15,5.76,2.81,5.76,4.61s-1.65,4.75-7.7,4.75c-5.76,0-8.78-3.24-9.14-7.34Zm68.9,13.61V76.2h-4.17a3.77,3.77,0,0,1-3.1-1.58c-.22-.36-.58-.94-.58-3.1V51.15h7.49V43.66h-7.49l-.14-13H448v13h-5.76v7.56l5.9-.07V72.32c0,9.28,3.67,12.31,9.79,12.31Zm8.14,0h11.09V66.41c0-6.12,1.51-8.93,3.31-10.8a9.93,9.93,0,0,1,7.41-3.24,7,7,0,0,1,1.8.15l.15-9.72a17.8,17.8,0,0,0-2.31-.22,10.53,10.53,0,0,0-10.15,7.27L486,43.73H475.2Zm29.88-47.09h10.94V27.6H504.94Zm-.15,47.09h11.09v-41H504.79Zm30.89,0h11l14-40.9H549.36l-8.21,26.93-8.06-26.93H521.86ZM590,63.1l-.14,5.18c0,5.76-3.6,9.44-9.94,9.44-4.53,0-6.77-2.74-6.77-5.33,0-2,.72-4.11,7.64-6L585.51,65A13.51,13.51,0,0,0,590,63.1ZM589.9,80a11.93,11.93,0,0,0,1.37,4.61h11.16a6.18,6.18,0,0,1-1.8-4.25V57.92c0-9.8-5.12-15.7-18.44-15.7-12.45,0-17.49,6.84-17.28,13.61l9.65.21c0-2.95,2.31-6,8-6,5.4,0,7.13,2.66,7.13,4.61,0,1.72-1.08,3.24-4,3.81l-6.26,1c-9.08,1.66-11.45,3.38-13.18,4.82a11.37,11.37,0,0,0-3.82,8.57c0,6.77,5.26,12.89,15.63,12.89C584,85.78,587.59,83.69,589.9,80Zm42.26,4.61V76.2h-4.1a3.81,3.81,0,0,1-3.17-1.58c-.22-.36-.58-.94-.58-3.1V51.15h7.49V43.66h-7.49l-.07-13H613.3v13h-5.76v7.56l5.83-.07V72.32c0,9.28,3.74,12.31,9.79,12.31Zm30.67,0V76.2h-4.17a3.68,3.68,0,0,1-3.1-1.58c-.21-.36-.57-.94-.57-3.1V51.15h7.48V43.66H655l-.15-13H643.9v13h-5.76v7.56l5.9-.07V72.32c0,9.28,3.67,12.31,9.79,12.31Zm17-25.49c.72-4.9,4.82-8.35,9-8.35a9.05,9.05,0,0,1,9.07,8.35Zm-.44,8.06h30.39c0-12-5.4-25-20.74-25-15.62,0-20.59,12.46-20.59,21.82,0,13.68,9.07,22.1,20.52,22.1s18.43-6.26,20.16-13.39L698,72c-2.16,3.81-5,5.4-8.49,5.4C684.22,77.36,680,73.83,679.39,67.2Zm38.09,17.43h11.09l.14-22.9c0-3.24.58-4.75,1.44-6a8.41,8.41,0,0,1,6.7-3.46c3.82,0,6.55,2.38,6.55,7V84.63h11V55.76c0-7.64-5.62-13.54-14-13.54-5.91,0-10,3.17-11.38,6.34l-.5-4.83h-10.8Z"/></svg>