<svg xmlns="http://www.w3.org/2000/svg" viewBox="0 0 992.96 113.82"><defs><style>.a,.d{fill:#fff;}.a{stroke:#000;stroke-miterlimit:10;stroke-width:0.5px;}.a,.c,.d{fill-rule:evenodd;}.b,.c{fill:#007d59;}</style></defs><title>V015_C</title><polygon class="a" points="80.62 113.57 0.43 55.84 80.62 0.26 912.33 0.25 992.52 57.98 912.33 113.56 80.62 113.57"/><rect class="b" x="88.99" y="8.12" width="815.53" height="97.53"/><polygon class="c" points="911.41 8.12 980.43 56.88 911.41 105.65 911.41 8.12"/><polygon class="c" points="81.65 8.12 12.63 56.88 81.65 105.65 81.65 8.12"/><path class="d" d="M310.83,84.7h11.88V64l5.9-6.12L347,84.7H361.3L336.89,50.28l21.53-22.6-14.55.14L322.71,50.36l-.15-22.54-11.73-.14Zm82.36-21.53-.14,5.19c0,5.76-3.53,9.43-9.86,9.43-4.61,0-6.84-2.74-6.84-5.33,0-1.94.72-4.1,7.63-6l4.75-1.36A13.89,13.89,0,0,0,393.19,63.17Zm-.14,16.92a12,12,0,0,0,1.44,4.61h11.16a7,7,0,0,1-1.87-4.25V58c0-9.79-5-15.7-18.43-15.7-12.32,0-17.5,6.84-17.28,13.61l9.72.22c0-3,2.3-6,7.92-6,5.4,0,7.27,2.66,7.27,4.61,0,1.73-1.15,3.24-4,3.81l-6.34,1c-9.14,1.66-11.52,3.39-13.25,4.83A11.32,11.32,0,0,0,365.55,73c0,6.77,5.4,12.89,15.76,12.89C387.22,85.85,390.75,83.76,393.05,80.09Zm20.52,4.61h11.09v-57h-11Zm19.58,0h11.09v-57H433.3Zm30.89,0H475l14-40.9H477.72l-8.13,26.93L461.52,43.8h-11.3Zm54.22-21.53-.07,5.19c0,5.76-3.6,9.43-9.94,9.43-4.61,0-6.77-2.74-6.77-5.33,0-1.94.65-4.1,7.56-6l4.75-1.36A14.07,14.07,0,0,0,518.26,63.17Zm-.07,16.92a10.8,10.8,0,0,0,1.36,4.61h11.16a7.14,7.14,0,0,1-1.87-4.25V58c0-9.79-5-15.7-18.43-15.7-12.31,0-17.35,6.84-17.14,13.61l9.58.22c0-3,2.3-6,7.92-6,5.4,0,7.27,2.66,7.27,4.61,0,1.73-1.15,3.24-4,3.81l-6.34,1c-9.07,1.66-11.37,3.39-13.1,4.83A11.33,11.33,0,0,0,490.75,73c0,6.77,5.4,12.89,15.63,12.89C512.28,85.85,515.88,83.76,518.19,80.09Zm42.26,4.61V76.28h-4.18a3.67,3.67,0,0,1-3.09-1.59c-.22-.36-.58-.93-.58-3.09V51.22h7.49V43.73H552.6v-13H541.51v13h-5.76v7.56l5.91-.07V72.39c0,9.29,3.81,12.31,9.79,12.31Zm30.6,0V76.28h-4.18a3.76,3.76,0,0,1-3.09-1.59c-.22-.36-.58-.93-.58-3.09V51.22h7.49V43.73H583.2v-13h-11v13h-5.76v7.56l5.83-.07V72.39c0,9.29,3.81,12.31,9.79,12.31Zm17.06-25.49a9.51,9.51,0,0,1,9-8.35c4.47,0,8.36,3.1,9.08,8.35Zm-.5,8.07h30.46c0-12-5.48-25-20.74-25-15.7,0-20.66,12.46-20.66,21.82,0,13.68,9.14,22.1,20.52,22.1,11.66,0,18.43-6.26,20.16-13.39l-11-.79c-2.09,3.81-5,5.4-8.57,5.4C612.51,77.43,608.19,73.9,607.61,67.28ZM645.77,84.7h11l.14-22.9c0-3.24.58-4.75,1.51-6a8.38,8.38,0,0,1,6.7-3.46c3.74,0,6.55,2.38,6.55,7V84.7h10.94V55.83c0-7.63-5.54-13.54-14-13.54-5.9,0-10.08,3.17-11.44,6.34l-.44-4.83H645.84Z"/></svg>