<svg xmlns="http://www.w3.org/2000/svg" viewBox="0 0 992.96 113.82"><defs><style>.a,.d{fill:#fff;}.a{stroke:#000;stroke-miterlimit:10;stroke-width:0.5px;}.a,.c,.d{fill-rule:evenodd;}.b,.c{fill:#007d59;}</style></defs><title>V016_C</title><polygon class="a" points="80.62 113.57 0.43 55.84 80.62 0.26 912.33 0.25 992.52 57.98 912.33 113.56 80.62 113.57"/><rect class="b" x="88.99" y="8.19" width="815.53" height="97.53"/><polygon class="c" points="911.41 8.19 980.43 56.96 911.41 105.72 911.41 8.19"/><polygon class="c" points="81.65 8.19 12.63 56.96 81.65 105.72 81.65 8.19"/><path class="d" d="M304.35,84.77h11.73V64l5.83-6.12,18.44,26.85h14.4L330.34,50.36l21.53-22.61-14.62.14L316.08,50.43l-.14-22.54-11.59-.14Zm54.72,0h11v-57H359.14Zm40.24-7c-5.25,0-10.36-4-10.36-13.25,0-9.65,5-13.54,10.36-13.54s10.37,3.89,10.37,13.25S404.64,77.72,399.31,77.72Zm0,8.56c12.46,0,21.53-8.78,21.53-22.1,0-12.89-8.85-21.89-21.6-21.89-12.31,0-21.45,8.86-21.45,21.89C377.79,77.64,386.93,86.28,399.31,86.28Zm29.31-1.51h11V66.56c0-6.12,1.52-8.93,3.39-10.8a9.54,9.54,0,0,1,7.49-3.24,7.85,7.85,0,0,1,1.8.14V42.94a15,15,0,0,0-2.31-.22A10.49,10.49,0,0,0,439.78,50l-.36-6.12h-10.8Zm41.9,0h10.8l14-40.89H484.2L476.07,70.8l-8.21-26.92H456.7Zm54.15-21.53v5.19c0,5.76-3.68,9.43-9.94,9.43-4.61,0-6.77-2.74-6.77-5.33,0-1.94.58-4.1,7.56-6l4.75-1.37A13.54,13.54,0,0,0,524.67,63.24Zm0,16.92a13.43,13.43,0,0,0,1.22,4.61h11.3a5.7,5.7,0,0,1-1.87-4.25V58.06c0-9.79-5-15.7-18.36-15.7-12.45,0-17.64,6.84-17.42,13.61l9.79.22c0-2.95,2.3-6,7.92-6,5.33,0,7.13,2.67,7.13,4.61,0,1.73-1,3.24-4,3.82l-6.34,1c-9,1.66-11.45,3.39-13.17,4.83A11.59,11.59,0,0,0,497.09,73c0,6.76,5.33,12.88,15.7,12.88C518.76,85.92,522.22,83.84,524.67,80.16Zm42.12,4.61V76.35h-4a3.87,3.87,0,0,1-3.24-1.59c-.21-.36-.43-.93-.43-3.09V51.29h7.35V43.8h-7.35l-.14-13H548v13h-5.76v7.56l5.76-.07V72.46c0,9.29,3.82,12.31,9.94,12.31Zm30.67,0V76.35h-4a3.75,3.75,0,0,1-3.24-1.59c-.22-.36-.51-.93-.51-3.09V51.29h7.42V43.8h-7.42l-.07-13H578.67v13h-5.76v7.56l5.76-.07V72.46c0,9.29,3.81,12.31,9.86,12.31Zm17.13-25.49c.72-4.89,4.76-8.35,9-8.35,4.47,0,8.28,3.1,9.08,8.35Zm-.43,8.07h30.39c0-12-5.55-25-20.74-25-15.77,0-20.59,12.46-20.59,21.82,0,13.68,8.93,22.1,20.45,22.1S642.1,80,643.75,72.89l-11.08-.79c-2.09,3.82-5,5.4-8.5,5.4C619,77.5,614.74,74,614.16,67.35Zm38.09,17.42h11.09V61.88c0-3.24.65-4.76,1.58-6a8.18,8.18,0,0,1,6.7-3.46c3.81,0,6.55,2.38,6.55,7L678,84.77h11.08V55.9c0-7.63-5.68-13.54-14.18-13.54-5.83,0-9.86,3.17-11.38,6.34l-.36-4.82h-10.8Z"/></svg>