<svg xmlns="http://www.w3.org/2000/svg" viewBox="0 0 992.96 113.82"><defs><style>.a,.d{fill:#fff;}.a{stroke:#000;stroke-miterlimit:10;stroke-width:0.5px;}.a,.c,.d{fill-rule:evenodd;}.b,.c{fill:#007d59;}</style></defs><title>V017_C</title><polygon class="a" points="80.62 113.57 0.43 55.84 80.62 0.26 912.33 0.25 992.52 57.98 912.33 113.56 80.62 113.57"/><rect class="b" x="88.99" y="8.12" width="815.53" height="97.53"/><polygon class="c" points="911.41 8.12 980.43 56.88 911.41 105.65 911.41 8.12"/><polygon class="c" points="81.65 8.12 12.63 56.88 81.65 105.65 81.65 8.12"/><path class="d" d="M262.44,76.85c-13.75,0-16-15.48-16-20.59,0-14.33,8.21-20.88,15.69-20.88s15.77,6.55,15.77,20.88A24.91,24.91,0,0,1,273.53,71,13.44,13.44,0,0,1,262.44,76.85Zm-.29,9.58C282,86.43,289.87,69,289.87,56c0-13.68-8.64-30.17-27.28-30.17-10,0-17.07,3.82-22,10.59a33.46,33.46,0,0,0-6.27,19.87C234.36,72,244.51,86.43,262.15,86.43Zm35.43-1.87h11.09V66.34c0-6.12,1.51-8.93,3.31-10.8a10,10,0,0,1,7.49-3.24,7.82,7.82,0,0,1,1.87.14l.07-9.72a18.56,18.56,0,0,0-2.38-.21,10.53,10.53,0,0,0-10.15,7.27l-.36-6.12h-10.8Zm38.81-25.49c.72-4.9,4.89-8.35,9-8.35,4.53,0,8.42,3.09,9.14,8.35ZM336,67.13h30.39c0-12-5.47-25-20.74-25C329.83,42.15,325,54.6,325,64c0,13.68,9.07,22.11,20.52,22.11S364,79.8,365.69,72.68l-11.09-.8c-2.16,3.82-5,5.4-8.49,5.4C340.78,77.28,336.53,73.76,336,67.13ZM374,84.56h11.09l.14-22.9c0-3.24.58-4.75,1.44-6a8.43,8.43,0,0,1,6.7-3.45c3.82,0,6.55,2.37,6.55,7V84.56h11V55.68c0-7.63-5.62-13.53-14-13.53-5.84,0-10,3.17-11.38,6.33l-.5-4.82h-10.8ZM446,63l-.14,5.18c0,5.76-3.6,9.43-9.94,9.43-4.61,0-6.77-2.73-6.77-5.32,0-1.95.72-4.11,7.63-6L441.43,65A13.59,13.59,0,0,0,446,63ZM445.83,80a13.68,13.68,0,0,0,1.29,4.61h11.23a6.23,6.23,0,0,1-1.8-4.25V57.84c0-9.79-5.11-15.69-18.43-15.69-12.45,0-17.49,6.84-17.28,13.61l9.65.21c0-2.95,2.3-6,8-6,5.4,0,7.13,2.66,7.13,4.6,0,1.73-1.08,3.24-4,3.82l-6.27,1c-9.07,1.65-11.52,3.38-13.24,4.82a11.54,11.54,0,0,0-3.75,8.57c0,6.77,5.26,12.89,15.63,12.89C439.92,85.71,443.52,83.62,445.83,80Zm42.26,4.61V76.13h-4.18a3.78,3.78,0,0,1-3.09-1.58c-.22-.36-.58-.94-.58-3.1V51.08h7.42V43.59h-7.42l-.07-13H469.23v13h-5.76v7.56l5.83-.07-.07,21.16c0,9.29,3.74,12.32,9.86,12.32Zm52.27,0h10.95l14-40.9H554.11l-8.2,26.93-8.07-26.93h-11.3ZM594.72,63l-.07,5.18c0,5.76-3.6,9.43-9.94,9.43-4.6,0-6.76-2.73-6.76-5.32,0-1.95.64-4.11,7.56-6L590.26,65A13.69,13.69,0,0,0,594.72,63ZM594.65,80a14,14,0,0,0,1.22,4.61h11.31a6.3,6.3,0,0,1-1.87-4.25V57.84c0-9.79-5-15.69-18.44-15.69-12.38,0-17.49,6.84-17.2,13.61l9.64.21c0-2.95,2.31-6,7.92-6,5.4,0,7.13,2.66,7.13,4.6,0,1.73-1,3.24-4,3.82l-6.19,1c-9.07,1.65-11.52,3.38-13.25,4.82a11.6,11.6,0,0,0-3.82,8.57c0,6.77,5.33,12.89,15.7,12.89C588.75,85.71,592.35,83.62,594.65,80Zm42.26,4.61V76.13h-4.17a3.7,3.7,0,0,1-3.1-1.58c-.21-.36-.57-.94-.57-3.1V51.08h7.34V43.59h-7.34l-.15-13H618v13h-5.76v7.56l5.9-.07L618,72.24c0,9.29,3.81,12.32,9.93,12.32Zm30.6,0V76.13h-4.1a3.83,3.83,0,0,1-3.17-1.58c-.21-.36-.57-.94-.57-3.1V51.08h7.41V43.59h-7.41l-.08-13H648.65v13h-5.76v7.56l5.83-.07-.07,21.16c0,9.29,3.82,12.32,9.86,12.32Zm17.07-25.49a9.49,9.49,0,0,1,9-8.35c4.46,0,8.35,3.09,9.07,8.35Zm-.51,8.06h30.46c0-12-5.54-25-20.74-25C678,42.15,673.2,54.6,673.2,64c0,13.68,9.07,22.11,20.45,22.11,11.66,0,18.43-6.27,20.16-13.39l-11-.8c-2.23,3.82-5,5.4-8.56,5.4C689,77.28,684.65,73.76,684.07,67.13Zm38.16,17.43h11.09l.07-22.9c0-3.24.58-4.75,1.52-6a8.39,8.39,0,0,1,6.69-3.45c3.75,0,6.55,2.37,6.55,7V84.56h11V55.68c0-7.63-5.69-13.53-14-13.53-5.91,0-10.08,3.17-11.45,6.33l-.43-4.82h-10.8Z"/></svg>