<svg xmlns="http://www.w3.org/2000/svg" viewBox="0 0 992.96 113.82"><defs><style>.a,.d{fill:#fff;}.a{stroke:#000;stroke-miterlimit:10;stroke-width:0.5px;}.a,.c,.d{fill-rule:evenodd;}.b,.c{fill:#007d59;}</style></defs><title>V018_C</title><polygon class="a" points="80.62 113.57 0.43 55.84 80.62 0.26 912.33 0.25 992.52 57.98 912.33 113.56 80.62 113.57"/><rect class="b" x="89.07" y="8.12" width="815.53" height="97.53"/><polygon class="c" points="911.49 8.12 980.51 56.88 911.49 105.65 911.49 8.12"/><polygon class="c" points="81.72 8.12 12.7 56.88 81.72 105.65 81.72 8.12"/><path class="d" d="M296.64,53.09l-.14-15.91h13.17c3.1,0,4,.43,5.19,1.15a8.42,8.42,0,0,1,3.67,6.91c0,4.25-3.38,7.92-9.36,7.85ZM284.76,84.63h11.88V62l10.23.14c4.17,0,7.05,1.73,8.78,4.76a16.51,16.51,0,0,1,1.15,3.52c1.15,4.76-.14,9.72,2.16,14.19h12a13.92,13.92,0,0,1-1.88-6l-.93-10c-.43-4.17-1.37-5.9-2.95-7.48a11.2,11.2,0,0,0-7.49-3.6,13.45,13.45,0,0,0,12.38-13.9c0-9-7.13-16.63-19.08-16.06H284.91Zm62.93-25.49a9.37,9.37,0,0,1,8.93-8.35c4.53,0,8.35,3.09,9.14,8.35Zm-.5,8.06h30.38c0-12-5.47-25-20.66-25-15.84,0-20.67,12.46-20.67,21.82,0,13.68,9,22.1,20.52,22.1s18.43-6.26,20.16-13.39L365.76,72c-2.09,3.81-5,5.4-8.57,5.4C352,77.36,347.76,73.83,347.19,67.2Zm58.32,6.7c-5.48,0-9.94-3.89-9.94-11.52,0-6.55,4.61-10.66,9.65-10.66s9.57,4.11,9.57,11C414.79,69.87,410.19,73.9,405.51,73.9Zm-18.8,12.89c.58,4,1.73,6.12,4,8.35,2.52,2.3,7.12,4.61,15,4.61,8.93,0,14.55-3.24,17.28-6.84C425,90.39,426,88.23,426,82V43.73l-10.58-.07-.36,4.9c-.79-1.16-2.95-6.34-12.1-6.34-9.86,0-18.5,7.85-18.5,20.52s8.64,20.59,18.43,20.59c6.55,0,10.59-3,12.17-6V81.6c0,6.92-3.17,9.8-9.5,9.8-4.76,0-7.06-2.38-7.42-4.9Zm47.81-2.16h11V61.73c0-3.24.72-4.75,1.65-6a8.16,8.16,0,0,1,6.63-3.46c3.81,0,6.62,2.38,6.62,7l-.14,25.35h11V55.76c0-7.64-5.61-13.54-14.11-13.54-5.9,0-9.93,3.17-11.3,6.34l-.43-4.83H434.59Zm55.8,0h10.73l14-40.9H503.93l-8.06,26.93-8.14-26.93H476.5ZM544.47,63.1v5.18c0,5.76-3.68,9.44-9.87,9.44-4.61,0-6.84-2.74-6.84-5.33,0-2,.58-4.11,7.63-6L540.07,65A12.69,12.69,0,0,0,544.47,63.1Zm0,16.92a13.61,13.61,0,0,0,1.29,4.61h11.31a6,6,0,0,1-1.88-4.25V57.92c0-9.8-5-15.7-18.43-15.7-12.45,0-17.64,6.84-17.35,13.61l9.72.21c0-2.95,2.3-6,8-6,5.26,0,7.13,2.66,7.13,4.61,0,1.72-1,3.24-4,3.81l-6.34,1c-9,1.66-11.37,3.38-13.1,4.82A11.37,11.37,0,0,0,517,72.89c0,6.77,5.33,12.89,15.63,12.89C538.63,85.78,542.16,83.69,544.47,80Zm42.26,4.61V76.2h-4.1a3.74,3.74,0,0,1-3.24-1.58c-.22-.36-.51-.94-.51-3.1V51.15h7.42V43.66h-7.42l-.07-13H567.87v13h-5.76v7.56l5.9-.07-.14,21.17c0,9.28,3.81,12.31,9.86,12.31Zm30.67,0V76.2h-4.17A3.83,3.83,0,0,1,610,74.62c-.22-.36-.44-.94-.44-3.1V51.15h7.35V43.66h-7.35l-.14-13H598.47v13h-5.76v7.56l5.9-.07-.14,21.17c0,9.28,3.81,12.31,9.93,12.31Zm17-25.49c.72-4.9,4.76-8.35,9-8.35,4.54,0,8.28,3.09,9.15,8.35ZM634,67.2h30.39c0-12-5.48-25-20.74-25C627.84,42.22,623,54.68,623,64c0,13.68,9,22.1,20.52,22.1S662,79.88,663.7,72.75L652.54,72c-2.09,3.81-5,5.4-8.57,5.4C638.79,77.36,634.54,73.83,634,67.2Zm38.16,17.43h11V61.73c0-3.24.72-4.75,1.58-6a8.28,8.28,0,0,1,6.7-3.46c3.81,0,6.55,2.38,6.55,7l-.07,25.35h11V55.76c0-7.64-5.61-13.54-14.11-13.54-5.9,0-9.93,3.17-11.3,6.34L683,43.73h-10.8Z"/></svg>