<svg xmlns="http://www.w3.org/2000/svg" viewBox="0 0 992.96 113.82"><defs><style>.a,.d{fill:#fff;}.a{stroke:#000;stroke-miterlimit:10;stroke-width:0.5px;}.a,.c,.d{fill-rule:evenodd;}.b,.c{fill:#007d59;}</style></defs><title>V019_C</title><polygon class="a" points="80.62 113.57 0.43 55.84 80.62 0.26 912.33 0.25 992.52 57.98 912.33 113.56 80.62 113.57"/><rect class="b" x="88.99" y="8.19" width="815.53" height="97.53"/><polygon class="c" points="911.41 8.19 980.43 56.96 911.41 105.72 911.41 8.19"/><polygon class="c" points="81.65 8.19 12.63 56.96 81.65 105.72 81.65 8.19"/><path class="d" d="M290.52,53.24l-.14-15.92h13.17c3.1,0,4,.44,5.19,1.16a8.41,8.41,0,0,1,3.67,6.91c0,4.25-3.38,7.92-9.36,7.85ZM278.64,84.77h11.88V62.16l10.23.15c4.17,0,7.05,1.73,8.78,4.75a16.61,16.61,0,0,1,1.15,3.53c1.15,4.75-.14,9.72,2.16,14.18h12a15.11,15.11,0,0,1-1.8-6l-.93-10c-.43-4.18-1.37-5.91-3-7.49a11.19,11.19,0,0,0-7.41-3.6C319,56.91,324,51.36,324,43.8c0-9-7.13-16.63-19.08-16H278.79ZM341.5,59.28c.72-4.89,4.75-8.35,9-8.35,4.53,0,8.28,3.1,9.14,8.35Zm-.43,8.07h30.38c0-12-5.54-25-20.74-25-15.76,0-20.59,12.46-20.59,21.82,0,13.68,9,22.1,20.52,22.1S369.07,80,370.8,72.89l-11.16-.79c-2.09,3.82-5,5.4-8.57,5.4C345.89,77.5,341.64,74,341.07,67.35ZM401,84.77V76.35h-4.18a3.87,3.87,0,0,1-3.24-1.59c-.21-.36-.43-.93-.43-3.09V51.29h7.35V43.8h-7.35l-.14-13H382v13h-5.76v7.56l5.91-.07L382,72.46c0,9.29,3.82,12.31,9.94,12.31Zm33.7-4.61.57,4.61h10.51l-.14-40.89H434.67V66.7c0,6.34-3.68,9.58-8.14,9.58-4,0-6.55-2.24-6.55-8V43.88H408.89V72c0,5.47,1.66,8.35,4,10.65a15.14,15.14,0,0,0,10.23,3.53C428.26,86.14,432.29,84,434.67,80.16Zm19.58,4.61h11.09V66.56c0-6.12,1.51-8.93,3.31-10.8a9.76,9.76,0,0,1,7.49-3.24,8.47,8.47,0,0,1,1.87.14l.07-9.72a18.13,18.13,0,0,0-2.37-.22A10.5,10.5,0,0,0,465.48,50l-.36-6.12H454.25Zm42,0h10.65L521,43.88H509.76L501.63,70.8l-8.07-26.92H482.4ZM550.3,63.24v5.19c0,5.76-3.67,9.43-9.87,9.43-4.6,0-6.84-2.74-6.84-5.33,0-1.94.58-4.1,7.64-6L546,65.19A13,13,0,0,0,550.3,63.24Zm0,16.92a15.65,15.65,0,0,0,1.29,4.61H562.9A6.28,6.28,0,0,1,561,80.52V58.06c0-9.79-5-15.7-18.44-15.7C530.14,42.36,525,49.2,525.24,56l9.79.22c0-2.95,2.31-6,7.92-6,5.33,0,7.13,2.67,7.13,4.61,0,1.73-1,3.24-4,3.82l-6.34,1c-9,1.66-11.37,3.39-13.1,4.83A11.34,11.34,0,0,0,522.79,73c0,6.76,5.33,12.88,15.7,12.88C544.47,85.92,548,83.84,550.3,80.16Zm42.26,4.61V76.35h-4.1a3.84,3.84,0,0,1-3.24-1.59c-.22-.36-.43-.93-.43-3.09V51.29h7.34V43.8h-7.34l-.15-13H573.7v13h-5.76v7.56l5.9-.07-.14,21.17c0,9.29,3.81,12.31,9.93,12.31Zm30.67,0V76.35h-4.17a3.72,3.72,0,0,1-3.17-1.59c-.29-.36-.5-.93-.5-3.09V51.29h7.41V43.8h-7.41l-.08-13H604.37v13h-5.76v7.56l5.83-.07-.07,21.17c0,9.29,3.74,12.31,9.86,12.31ZM640.3,59.28a9.38,9.38,0,0,1,8.93-8.35c4.53,0,8.35,3.1,9.14,8.35Zm-.51,8.07h30.46c0-12-5.54-25-20.74-25-15.84,0-20.66,12.46-20.66,21.82,0,13.68,9,22.1,20.52,22.1S667.8,80,669.53,72.89l-11.16-.79c-2.09,3.82-5,5.4-8.57,5.4C644.62,77.5,640.37,74,639.79,67.35ZM678,84.77h11V61.88c0-3.24.72-4.76,1.66-6a8.13,8.13,0,0,1,6.62-3.46c3.82,0,6.62,2.38,6.62,7l-.14,25.34h11.09V55.9c0-7.63-5.69-13.54-14.19-13.54-5.9,0-9.93,3.17-11.3,6.34l-.43-4.82H678Z"/></svg>