<svg xmlns="http://www.w3.org/2000/svg" viewBox="0 0 992.96 113.82"><defs><style>.a,.d{fill:#fff;}.a{stroke:#000;stroke-miterlimit:10;stroke-width:0.5px;}.a,.c,.d{fill-rule:evenodd;}.b,.c{fill:#007d59;}</style></defs><title>V020_C</title><polygon class="a" points="80.62 113.57 0.43 55.84 80.62 0.26 912.33 0.25 992.52 57.98 912.33 113.56 80.62 113.57"/><rect class="b" x="89.07" y="8.12" width="815.53" height="97.53"/><polygon class="c" points="911.49 8.12 980.51 56.88 911.49 105.65 911.49 8.12"/><polygon class="c" points="81.72 8.12 12.7 56.88 81.72 105.65 81.72 8.12"/><path class="d" d="M268.71,66.7c0,10.51,7.84,19.8,24.4,19.8s24-8.86,24-18.5c0-7.2-4.54-13.76-14.33-16.13l-13.53-3.46c-4-1.08-4.54-1.51-5.33-2.45a5.47,5.47,0,0,1-1.51-3.81c0-3.17,2.88-7.13,10.94-7.13,4,0,7.06,1.37,8.64,3a9.37,9.37,0,0,1,2.81,6.12l11.23.08c-.43-6.2-2.52-10-5.76-12.89s-9.29-5.62-17.57-5.62c-15.12,0-22,8.35-22,17.71,0,7.28,4,13.25,14,15.77l11.66,2.88c2.09.58,5,.94,7,3.31a6.9,6.9,0,0,1,1.44,3.82c0,3.67-2.81,7.85-12,7.85-9,0-12.67-4.61-12.52-10.37Zm78.4,17.86V76.13h-4a3.87,3.87,0,0,1-3.24-1.58c-.21-.36-.57-.94-.57-3.1V51.08h7.48V43.59h-7.34l-.14-13H328.32v13h-5.76v7.56l5.76-.07V72.24c0,9.29,3.82,12.32,9.94,12.32ZM381.82,63v5.18c0,5.76-3.75,9.43-9.94,9.43-4.61,0-6.91-2.73-6.91-5.32,0-1.95.72-4.11,7.63-6L377.43,65A14.13,14.13,0,0,0,381.82,63Zm0,16.92A11.12,11.12,0,0,0,383,84.56h11.31a5.69,5.69,0,0,1-1.88-4.25V57.84c0-9.79-5-15.69-18.43-15.69-12.38,0-17.57,6.84-17.35,13.61l9.79.21c0-2.95,2.31-6,7.85-6s7.2,2.66,7.2,4.6c0,1.73-1,3.24-4,3.82l-6.34,1c-8.93,1.65-11.37,3.38-13.1,4.82a11.11,11.11,0,0,0-3.82,8.57c0,6.77,5.33,12.89,15.7,12.89C375.91,85.71,379.37,83.62,381.82,80Zm40-3.6c-5.33,0-9.79-3.67-9.79-12.31,0-9.8,4.68-13.11,9.28-13.11s9.22,3.31,9.22,12.75C430.49,72.82,425.81,76.35,421.78,76.35Zm8.64,4,.43,4.18h10.94v-57H430.71V48.27c-2-3.24-6.63-6-11.81-6-9.22,0-18.22,7.71-18.22,22A24.67,24.67,0,0,0,406,80.09a15.35,15.35,0,0,0,12.38,5.83A14.68,14.68,0,0,0,430.42,80.38ZM449.5,71c.21,7.7,6.69,15,19.22,15,12.82,0,18.43-6.76,18.43-14a12.32,12.32,0,0,0-2.52-7.27c-1.51-1.8-3.6-3.31-8.42-4.46l-11.74-2.74c-2.37-.57-3.45-2.09-3.45-3.6s1.51-4.17,6.84-4.17c5.83,0,8.35,3.16,8.49,6.48L486,55.9a13.92,13.92,0,0,0-5.83-10.73c-2.3-1.73-6.12-3.24-12.1-3.24C456.19,41.93,451,48.41,451,55.4A10.39,10.39,0,0,0,453.89,63c1.37,1.58,3.24,2.88,7.85,3.81l8.85,2c5.19,1.15,5.76,2.81,5.76,4.61s-1.72,4.75-7.84,4.75c-5.76,0-8.64-3.24-9-7.34Zm56.66,13.61H517l14-40.9H519.91l-8.2,26.93L503.5,43.66h-11ZM560.45,63v5.18c0,5.76-3.74,9.43-9.94,9.43-4.6,0-6.91-2.73-6.91-5.32,0-1.95.72-4.11,7.63-6L556.06,65A14,14,0,0,0,560.45,63Zm0,16.92a11.12,11.12,0,0,0,1.22,4.61H573a5.71,5.71,0,0,1-1.87-4.25V57.84c0-9.79-5-15.69-18.44-15.69-12.38,0-17.56,6.84-17.35,13.61l9.79.21c0-2.95,2.31-6,7.85-6s7.2,2.66,7.2,4.6c0,1.73-1,3.24-4,3.82l-6.34,1c-8.92,1.65-11.37,3.38-13.1,4.82a11.11,11.11,0,0,0-3.82,8.57c0,6.77,5.33,12.89,15.7,12.89C554.55,85.71,558,83.62,560.45,80Zm42.12,4.61V76.13h-4a3.86,3.86,0,0,1-3.24-1.58c-.22-.36-.58-.94-.58-3.1V51.08h7.49V43.59h-7.34l-.15-13H583.78v13H578v7.56l5.76-.07V72.24c0,9.29,3.81,12.32,9.93,12.32Zm30.6,0V76.13h-4A3.74,3.74,0,0,1,626,74.55c-.22-.36-.58-.94-.58-3.1V51.08h7.49V43.59h-7.41l-.08-13H614.45v13h-5.76v7.56l5.76-.07V72.24c0,9.29,3.82,12.32,9.86,12.32Zm17.21-25.49a9.32,9.32,0,0,1,9-8.35c4.46,0,8.28,3.09,9.07,8.35Zm-.51,8.06h30.46c0-12-5.54-25-20.88-25-15.62,0-20.52,12.45-20.52,21.81,0,13.68,9,22.11,20.52,22.11s18.43-6.27,20.09-13.39l-11.09-.8c-2.09,3.82-5,5.4-8.5,5.4C654.77,77.28,650.45,73.76,649.87,67.13ZM688,84.56h11V61.66c0-3.24.72-4.75,1.66-6a8.18,8.18,0,0,1,6.69-3.45c3.75,0,6.41,2.37,6.41,7V84.56H724.9V55.68c0-7.63-5.69-13.53-14.19-13.53-5.9,0-10,3.17-11.37,6.33l-.51-4.82H688.11Z"/></svg>