<svg xmlns="http://www.w3.org/2000/svg" viewBox="0 0 992.96 113.82"><defs><style>.a,.d{fill:#fff;}.a{stroke:#000;stroke-miterlimit:10;stroke-width:0.5px;}.a,.c,.d{fill-rule:evenodd;}.b,.c{fill:#007d59;}</style></defs><title>V021_C</title><polygon class="a" points="80.62 113.57 0.43 55.84 80.62 0.26 912.33 0.25 992.52 57.98 912.33 113.56 80.62 113.57"/><rect class="b" x="89.07" y="8.12" width="815.53" height="97.53"/><polygon class="c" points="911.49 8.12 980.51 56.88 911.49 105.65 911.49 8.12"/><polygon class="c" points="81.72 8.12 12.7 56.88 81.72 105.65 81.72 8.12"/><path class="d" d="M314.64,66.63c0,10.51,7.85,19.8,24.41,19.8s24-8.86,24-18.51c0-7.2-4.47-13.75-14.26-16.12l-13.61-3.46c-4-1.08-4.53-1.51-5.33-2.45a5.53,5.53,0,0,1-1.51-3.81c0-3.17,2.88-7.13,10.95-7.13,4,0,7.05,1.37,8.64,3a9.36,9.36,0,0,1,2.8,6.12l11.31.07c-.51-6.19-2.59-10-5.76-12.88s-9.36-5.62-17.64-5.62c-15.12,0-22,8.35-22,17.71,0,7.27,4,13.25,14,15.77L342.29,62c2.09.58,5,.94,7.06,3.31a7.31,7.31,0,0,1,1.36,3.82c0,3.67-2.8,7.85-12,7.85-8.93,0-12.67-4.61-12.53-10.37Zm63.36-28h11V27.46H378Zm14.4,0h11V27.46h-11Zm-1.51,38.81c-5.76,0-10.58-4-10.58-13.54,0-9.21,5-13.39,10.44-13.39,5.32,0,10.29,3.67,10.29,13.68C401,73.9,395.86,77.43,390.89,77.43Zm-.72,8.64c13.25,0,22.18-8.86,22.18-22.18s-9-22-21.82-22c-12.46,0-21.53,8.86-21.53,22S378.07,86.07,390.17,86.07Zm50.69-1.59V76.06h-4a3.86,3.86,0,0,1-3.24-1.58c-.22-.36-.58-.94-.58-3.1V51h7.49V43.52h-7.35l-.14-13H422.07v13h-5.69v7.56l5.69-.08V72.17c0,9.29,3.81,12.31,9.93,12.31Zm19.51,0h10.8l14-40.89H474.05l-8.21,26.93-8.13-26.93H446.55ZM514.44,63v5.18c0,5.76-3.67,9.43-9.86,9.43-4.61,0-6.91-2.73-6.91-5.33,0-1.94.64-4.1,7.56-6l4.89-1.37A13.83,13.83,0,0,0,514.44,63Zm0,16.92a12.11,12.11,0,0,0,1.3,4.6H527a5.69,5.69,0,0,1-1.87-4.24V57.77c0-9.79-5-15.69-18.43-15.69-12.31,0-17.5,6.84-17.28,13.6l9.72.22c0-2.95,2.3-6,7.77-6s7.28,2.67,7.28,4.61c0,1.73-1,3.24-4,3.82l-6.33,1c-8.86,1.65-11.31,3.38-13,4.82a11,11,0,0,0-3.75,8.57c0,6.77,5.26,12.89,15.55,12.89C508.61,85.64,512.07,83.55,514.44,79.88Zm42.19,4.6V76.06h-4a3.87,3.87,0,0,1-3.24-1.58c-.21-.36-.57-.94-.57-3.1V51h7.48V43.52h-7.34l-.14-13H537.84v13h-5.76v7.56l5.76-.08V72.17c0,9.29,3.82,12.31,9.94,12.31Zm30.6,0V76.06h-4A3.87,3.87,0,0,1,580,74.48c-.21-.36-.57-.94-.57-3.1V51h7.48V43.52h-7.34l-.14-13H568.51v13h-5.76v7.56l5.76-.08V72.17c0,9.29,3.75,12.31,9.87,12.31ZM604.44,59a9.33,9.33,0,0,1,8.93-8.36c4.54,0,8.35,3.1,9.14,8.36Zm-.5,8.06h30.38c0-12-5.47-25-20.81-25C597.82,42.08,593,54.53,593,63.89,593,77.57,602,86,613.51,86s18.44-6.27,20-13.4l-11-.79c-2.08,3.82-5,5.4-8.56,5.4C608.76,77.21,604.51,73.68,603.94,67.06ZM642.1,84.48h11V61.59c0-3.24.72-4.75,1.66-6a8.14,8.14,0,0,1,6.62-3.45c3.82,0,6.48,2.37,6.48,7V84.48H679V55.61c0-7.63-5.69-13.53-14.18-13.53-5.91,0-10,3.16-11.45,6.33l-.43-4.82H642.17Z"/></svg>