<svg xmlns="http://www.w3.org/2000/svg" viewBox="0 0 992.96 113.82"><defs><style>.a,.d{fill:#fff;}.a{stroke:#000;stroke-miterlimit:10;stroke-width:0.5px;}.a,.c,.d{fill-rule:evenodd;}.b,.c{fill:#007d59;}</style></defs><title>V022_C</title><polygon class="a" points="80.62 113.57 0.43 55.84 80.62 0.26 912.33 0.25 992.52 57.98 912.33 113.56 80.62 113.57"/><rect class="b" x="88.99" y="8.05" width="815.53" height="97.53"/><polygon class="c" points="911.41 8.04 980.43 56.81 911.41 105.58 911.41 8.04"/><polygon class="c" points="81.65 8.04 12.63 56.81 81.65 105.58 81.65 8.04"/><path class="d" d="M272.74,84.63h11.59V37.18h17.28V27.6h-46.3v9.58h17.43ZM306,37.54H317V27.6H306Zm-.07,47.09h11v-41h-11Zm19.51,0h11.09v-57H325.59Zm19.59,0h11.08v-57H345.17Zm40.32-7.06c-5.19,0-10.23-4-10.23-13.25,0-9.64,4.83-13.53,10.23-13.53S395.71,54.68,395.71,64,390.75,77.57,385.35,77.57Zm.14,8.57C398,86.14,407,77.36,407,64c0-12.89-9-21.89-21.67-21.89-12.46,0-21.53,8.85-21.53,21.89C363.82,77.5,372.89,86.14,385.49,86.14Zm50.11-8.57c-5.33,0-9.79-3.53-9.79-12.38,0-9.94,4.82-13.39,9.29-13.39,4.75,0,9.57,3.67,9.57,12.81C444.67,70.59,442.15,77.5,435.6,77.57Zm-9.93,2.31c2.44,3.74,6.48,6.12,12.09,6.12,11.16,0,18.07-10.37,18.07-22.11,0-11-6.76-21.53-17.92-21.53A14.59,14.59,0,0,0,426,47.91l-.58-4.18-10.8.15V98h11ZM462.75,71c.21,7.7,6.69,15,19.36,15s18.22-6.77,18.22-14a12,12,0,0,0-2.59-7.28c-1.37-1.8-3.31-3.31-8.14-4.46l-11.73-2.74c-2.6-.57-3.6-2.08-3.6-3.6s1.51-4.17,6.91-4.17c5.76,0,8.42,3.17,8.42,6.48l9.65-.22a14.79,14.79,0,0,0-5.76-10.73C491.11,43.52,487.3,42,481.32,42c-11.73,0-17.06,6.48-17.06,13.47a10.35,10.35,0,0,0,2.88,7.63c1.51,1.58,3.24,2.88,7.85,3.82l8.85,2c5.19,1.15,5.76,2.81,5.76,4.61s-1.65,4.75-7.7,4.75c-5.76,0-8.79-3.24-9.15-7.34Zm56.66,13.61h10.94l14-40.9h-11.3L525,70.66l-8.06-26.93h-11.3ZM573.77,63.1l-.07,5.18c0,5.76-3.6,9.44-9.94,9.44-4.61,0-6.77-2.74-6.77-5.33,0-2,.65-4.11,7.56-6L569.31,65A13.8,13.8,0,0,0,573.77,63.1ZM573.7,80a10.84,10.84,0,0,0,1.37,4.61h11.16a6.32,6.32,0,0,1-1.88-4.25V57.92c0-9.8-5-15.7-18.43-15.7-12.38,0-17.49,6.84-17.28,13.61l9.72.21c0-2.95,2.31-6,7.92-6,5.4,0,7.13,2.66,7.13,4.61,0,1.72-1,3.24-4,3.81l-6.19,1c-9.08,1.66-11.52,3.38-13.25,4.82a11.37,11.37,0,0,0-3.82,8.57c0,6.77,5.33,12.89,15.7,12.89C567.79,85.78,571.39,83.69,573.7,80ZM616,84.63V76.2h-4.17a3.68,3.68,0,0,1-3.1-1.58c-.22-.36-.58-.94-.58-3.1V51.15h7.49V43.66h-7.49l-.14-13H597v13h-5.76v7.56l5.9-.07V72.32c0,9.28,3.67,12.31,9.79,12.31Zm30.6,0V76.2h-4.17a3.77,3.77,0,0,1-3.1-1.58c-.22-.36-.58-.94-.58-3.1V51.15h7.49V43.66h-7.49l-.07-13H627.7v13h-5.76v7.56l5.83-.07V72.32c0,9.28,3.67,12.31,9.79,12.31Zm17.07-25.49a9.49,9.49,0,0,1,9-8.35c4.46,0,8.35,3.09,9.07,8.35Zm-.51,8.06h30.46c0-12-5.47-25-20.74-25-15.69,0-20.66,12.46-20.66,21.82,0,13.68,9.14,22.1,20.52,22.1,11.66,0,18.43-6.26,20.16-13.39L681.77,72c-2.16,3.81-4.9,5.4-8.5,5.4C668,77.36,663.7,73.83,663.12,67.2Zm38.16,17.43h11l.14-22.9c0-3.24.58-4.75,1.51-6a8.41,8.41,0,0,1,6.7-3.46c3.74,0,6.55,2.38,6.55,7V84.63h10.95V55.76c0-7.64-5.69-13.54-14-13.54-5.91,0-10.08,3.17-11.45,6.34l-.43-4.83H701.35Z"/></svg>