<svg xmlns="http://www.w3.org/2000/svg" viewBox="0 0 992.96 113.82"><defs><style>.a,.d{fill:#fff;}.a{stroke:#000;stroke-miterlimit:10;stroke-width:0.5px;}.a,.c,.d{fill-rule:evenodd;}.b,.c{fill:#007d59;}</style></defs><title>V023_C</title><polygon class="a" points="80.62 113.57 0.43 55.84 80.62 0.26 912.33 0.25 992.52 57.99 912.33 113.56 80.62 113.57"/><rect class="b" x="88.99" y="8.19" width="815.53" height="97.53"/><polygon class="c" points="911.41 8.19 980.43 56.96 911.41 105.72 911.41 8.19"/><polygon class="c" points="81.65 8.19 12.63 56.96 81.65 105.72 81.65 8.19"/><path class="d" d="M305.5,84.7h11.3l19.66-57-12.67.14L311.4,69.94,299,27.68H286.42ZM360,63.17v5.19c0,5.76-3.6,9.43-9.93,9.43-4.61,0-6.77-2.74-6.77-5.33,0-1.94.57-4.1,7.56-6l4.75-1.36A12.69,12.69,0,0,0,360,63.17Zm0,16.92a13.65,13.65,0,0,0,1.23,4.61h11.3a6.28,6.28,0,0,1-1.87-4.25V58c0-9.79-5-15.7-18.36-15.7-12.46,0-17.64,6.84-17.43,13.61l9.8.22c0-3,2.3-6,7.92-6,5.32,0,7.2,2.66,7.2,4.61,0,1.73-1.08,3.24-4,3.81l-6.33,1c-9,1.66-11.45,3.39-13.18,4.83A11.61,11.61,0,0,0,332.43,73c0,6.77,5.32,12.89,15.69,12.89C354.1,85.85,357.7,83.76,360,80.09Zm20.45,4.61h11.09V66.48c0-6.12,1.51-8.92,3.31-10.8a9.76,9.76,0,0,1,7.49-3.24,7.92,7.92,0,0,1,1.87.15l.14-9.72a19.4,19.4,0,0,0-2.44-.22,10.57,10.57,0,0,0-10.23,7.27l-.36-6.12H380.45Zm29.88,0h11V61.08c0-6,3.38-8.85,7.7-8.85,3,0,4.75,1.37,5.54,3.45.22.36.51,1.3.51,4.47V84.7H446V60.36c0-5.25,3.31-8.28,7.56-8.28,3.82,0,6.27,2.24,6.27,7.06V84.7h10.87L470.67,56c-.22-8.64-5.62-13.6-13.11-13.6-5.69,0-10.15,2.66-12.6,7.12a13.63,13.63,0,0,0-12.09-7.12c-5.55,0-9.22,2.44-11.38,6.55l-.36-5.19-10.73-.07Zm78.19,0h10.8l14-40.9H502.13l-8.06,26.93L485.86,43.8H474.7Zm54.15-21.53v5.19c0,5.76-3.6,9.43-9.94,9.43-4.61,0-6.77-2.74-6.77-5.33,0-1.94.58-4.1,7.56-6l4.75-1.36A13.54,13.54,0,0,0,542.67,63.17Zm0,16.92a13.43,13.43,0,0,0,1.22,4.61h11.3a6.33,6.33,0,0,1-1.87-4.25V58c0-9.79-5-15.7-18.43-15.7-12.38,0-17.57,6.84-17.35,13.61l9.79.22c0-3,2.3-6,7.92-6,5.33,0,7.13,2.66,7.13,4.61,0,1.73-1,3.24-4,3.81l-6.34,1c-8.93,1.66-11.38,3.39-13.1,4.83A11.58,11.58,0,0,0,515.09,73c0,6.77,5.33,12.89,15.7,12.89C536.76,85.85,540.36,83.76,542.67,80.09Zm42.26,4.61V76.28h-4.18a3.87,3.87,0,0,1-3.24-1.59c-.21-.36-.43-.93-.43-3.09V51.22h7.35V43.73h-7.35l-.14-13H566v13h-5.76v7.56l5.91-.07L566,72.39c0,9.29,3.82,12.31,9.94,12.31Zm30.6,0V76.28h-4.1a3.75,3.75,0,0,1-3.24-1.59c-.22-.36-.51-.93-.51-3.09V51.22h7.42V43.73h-7.42l-.07-13H596.67v13h-5.76v7.56l5.83-.07-.07,21.17c0,9.29,3.81,12.31,9.86,12.31Zm17.06-25.49a9.39,9.39,0,0,1,9-8.35c4.47,0,8.28,3.1,9.08,8.35Zm-.5,8.07h30.46c0-12-5.55-25-20.74-25-15.77,0-20.59,12.46-20.59,21.82,0,13.68,8.93,22.1,20.45,22.1S660.1,80,661.83,72.82L650.67,72c-2.09,3.81-5,5.4-8.5,5.4C637,77.43,632.67,73.9,632.09,67.28ZM670.25,84.7h11V61.8c0-3.24.72-4.75,1.65-6a8.18,8.18,0,0,1,6.7-3.46c3.74,0,6.55,2.38,6.55,7L696,84.7h11.08V55.83c0-7.63-5.68-13.54-14-13.54-6,0-10.08,3.17-11.44,6.34l-.44-4.83h-10.8Z"/></svg>