<svg xmlns="http://www.w3.org/2000/svg" viewBox="0 0 992.96 113.82"><defs><style>.a,.d{fill:#fff;}.a{stroke:#000;stroke-miterlimit:10;stroke-width:0.5px;}.a,.c,.d{fill-rule:evenodd;}.b,.c{fill:#007d59;}</style></defs><title>V024_C</title><polygon class="a" points="80.62 113.57 0.43 55.84 80.62 0.26 912.33 0.25 992.52 57.98 912.33 113.56 80.62 113.57"/><rect class="b" x="89.07" y="8.05" width="815.53" height="97.53"/><polygon class="c" points="911.49 8.04 980.51 56.81 911.49 105.58 911.49 8.04"/><polygon class="c" points="81.72 8.04 12.7 56.81 81.72 105.58 81.72 8.04"/><path class="d" d="M171.87,20.48a3.35,3.35,0,1,1,0-6.7,3.26,3.26,0,0,1,3.31,3.31A3.42,3.42,0,0,1,171.87,20.48Zm-.15,2.3A5.86,5.86,0,0,0,177.63,17a5.71,5.71,0,0,0-5.69-5.69,5.73,5.73,0,0,0-.22,11.45Zm-7.49,40.75,7.71-24.62,7.41,24.62Zm-18.64,21h11.95l3.81-12,20.6-.14,3.74,12.09h11.95l-19.37-57H165.53Zm76.24,0V76.06h-4.17a3.86,3.86,0,0,1-3.24-1.58,8.53,8.53,0,0,1-.43-3.1V51h7.34V43.52H214l-.15-13H203v13h-5.76v7.56L203,51,203,72.17c0,9.29,3.74,12.31,9.86,12.31ZM238.9,59c.65-4.9,4.82-8.36,8.93-8.36,4.53,0,8.42,3.1,9.14,8.36Zm-.51,8.06h30.39c0-12-5.47-25-20.67-25-15.84,0-20.66,12.45-20.66,21.81,0,13.68,9,22.11,20.52,22.11s18.43-6.27,20.16-13.4L257,71.81c-2.16,3.82-5,5.4-8.64,5.4C243.22,77.21,239,73.68,238.39,67.06Zm38.16,17.42h11V66.27c0-6.12,1.51-8.93,3.38-10.8a9.78,9.78,0,0,1,7.49-3.24,7.77,7.77,0,0,1,1.8.14l.15-9.72a20,20,0,0,0-2.45-.21,10.63,10.63,0,0,0-10.23,7.27l-.36-6.12H276.63Zm41.91,0H329.4l13.9-40.89H332.14L324,70.52l-8.21-26.93H304.63Zm31-47.08h10.94V27.46H349.42Zm-.07,47.08h11v-41h-11Zm19.51,0H380V61.59c0-3.24.72-4.75,1.58-6a8.27,8.27,0,0,1,6.7-3.45c3.81,0,6.55,2.37,6.55,7V84.48h10.94V55.61c0-7.63-5.61-13.53-14-13.53-5.83,0-10,3.16-11.37,6.33l-.51-4.82H369Zm45.29,0h11.08V61.59c0-3.24.65-4.75,1.59-6a8.17,8.17,0,0,1,6.69-3.45c3.82,0,6.56,2.37,6.56,7V84.48H451V55.61c0-7.63-5.62-13.53-14-13.53-5.9,0-10,3.16-11.45,6.33l-.43-4.82h-10.8ZM459.51,37.4h10.94V27.46H459.51Zm-.08,47.08h11v-41h-11Zm19.59,0h11V61.59c0-3.24.72-4.75,1.66-6a8.11,8.11,0,0,1,6.55-3.45c3.82,0,6.55,2.37,6.55,7V84.48h10.95V55.61c0-7.63-5.62-13.53-14-13.53-5.76,0-9.94,3.16-11.31,6.33L490,43.59H479.09Zm65.3-10.72c-5.47,0-9.93-3.89-9.93-11.52,0-6.56,4.6-10.66,9.64-10.66s9.58,4.1,9.58,11C553.61,69.72,549,73.76,544.32,73.76ZM525.53,86.64c.58,4,1.73,6.12,4,8.36,2.52,2.3,7.13,4.6,15.05,4.6,8.93,0,14.54-3.24,17.28-6.84,1.87-2.52,2.88-4.68,2.88-10.94V43.59l-10.58-.07-.36,4.89c-.65-1.15-3-6.33-12.1-6.33-9.86,0-18.5,7.84-18.5,20.52s8.64,20.59,18.43,20.59c6.55,0,10.58-3,12.17-6v4.32c0,6.91-3.17,9.79-9.51,9.79-4.75,0-7.05-2.37-7.41-4.89Zm47-15.76c.21,7.7,6.62,15,19.22,15s18.43-6.77,18.43-14a11.94,11.94,0,0,0-2.59-7.27c-1.44-1.8-3.46-3.31-8.28-4.46l-11.88-2.74c-2.38-.58-3.46-2.09-3.46-3.6s1.52-4.18,6.92-4.18c5.76,0,8.42,3.17,8.42,6.48l9.79-.21a14.57,14.57,0,0,0-5.83-10.73c-2.45-1.73-6.26-3.24-12.24-3.24-11.88,0-17.06,6.48-17.06,13.46A10.37,10.37,0,0,0,576.87,63c1.51,1.58,3.24,2.88,7.84,3.81l8.86,2c5.18,1.15,5.76,2.81,5.76,4.61s-1.73,4.75-7.7,4.75c-5.76,0-8.79-3.24-9.08-7.35Zm56.73,13.6h11l14-40.89H643l-8.13,26.93-8.21-26.93H615.46ZM683.5,63v5.18c0,5.76-3.53,9.43-9.87,9.43-4.6,0-6.76-2.73-6.76-5.33,0-1.94.57-4.1,7.56-6l4.75-1.37A13.19,13.19,0,0,0,683.5,63Zm0,16.92a15.66,15.66,0,0,0,1.29,4.6H696.1a6.28,6.28,0,0,1-1.87-4.24V57.77c0-9.79-5-15.69-18.44-15.69-12.38,0-17.56,6.84-17.35,13.6l9.79.22c0-2.95,2.31-6,7.92-6,5.4,0,7.13,2.67,7.13,4.61,0,1.73-1,3.24-4,3.82l-6.19,1C664,61,661.54,62.74,659.81,64.18A11.34,11.34,0,0,0,656,72.75c0,6.77,5.33,12.89,15.7,12.89C677.67,85.64,681.19,83.55,683.5,79.88Zm42.33,4.6V76.06h-4.17a3.86,3.86,0,0,1-3.24-1.58,8.53,8.53,0,0,1-.43-3.1V51h7.34V43.52H718l-.15-13H706.9v13h-5.76v7.56L707,51l-.14,21.17c0,9.29,3.81,12.31,9.93,12.31Zm30.6,0V76.06h-4.17a3.74,3.74,0,0,1-3.17-1.58,6.49,6.49,0,0,1-.5-3.1V51H756V43.52h-7.41l-.08-13H737.57v13h-5.76v7.56l5.83-.08-.07,21.17c0,9.29,3.74,12.31,9.86,12.31ZM773.5,59a9.5,9.5,0,0,1,9-8.36c4.46,0,8.35,3.1,9.07,8.36ZM773,67.06h30.46c0-12-5.54-25-20.74-25-15.76,0-20.66,12.45-20.66,21.81,0,13.68,9,22.11,20.52,22.11S801,79.73,802.73,72.6l-11.09-.79c-2.16,3.82-5,5.4-8.57,5.4C777.89,77.21,773.57,73.68,773,67.06Zm38.16,17.42h11V61.59c0-3.24.72-4.75,1.66-6a8.16,8.16,0,0,1,6.69-3.45c3.75,0,6.55,2.37,6.55,7V84.48H848V55.61c0-7.63-5.69-13.53-14-13.53-5.91,0-10.08,3.16-11.45,6.33l-.43-4.82H811.23Z"/></svg>