<svg xmlns="http://www.w3.org/2000/svg" viewBox="0 0 992.95 113.82"><defs><style>.a{fill:#fff;stroke:#000;stroke-miterlimit:10;stroke-width:0.5px;}.a,.c,.d{fill-rule:evenodd;}.b,.c{fill:#9fa9a7;}.d{fill:#000b0d;}</style></defs><title>VA004_C</title><polygon class="a" points="80.62 113.57 0.43 55.84 80.62 0.26 912.32 0.25 992.51 57.98 912.32 113.56 80.62 113.57"/><rect class="b" x="88.99" y="8.05" width="815.53" height="97.53"/><polygon class="c" points="911.26 8.04 980.28 56.81 911.26 105.58 911.26 8.04"/><polygon class="c" points="81.58 8.04 12.56 56.81 81.58 105.58 81.58 8.04"/><path class="d" d="M214.63,84.63h39.53V74.84H226.37V27.6H214.63Zm63.08-48.17a3.31,3.31,0,0,1-3.53-3.31,3.72,3.72,0,0,1,3.45-3.46A3.39,3.39,0,0,1,281,33.15,3.29,3.29,0,0,1,277.71,36.46Zm.14,2.45a5.77,5.77,0,0,0-.22-11.52,5.82,5.82,0,0,0-5.76,5.76A5.74,5.74,0,0,0,277.85,38.91Zm8.06,24v6.05c-.36,5.19-3.81,8.64-9.79,8.64-4.61,0-6.77-2.59-6.77-5.18,0-1.8.87-4.32,7.49-6l4.68-1.22A9.77,9.77,0,0,0,285.91,62.88Zm0,17.14a15.76,15.76,0,0,0,1.37,4.61h11.16c-.57-.58-1.73-2.45-1.73-5.76l-.07-21a26.65,26.65,0,0,0-.57-5.55c-1.73-5.61-6.27-10.15-17.43-10.15-12.74,0-17.85,6.48-17.85,13.75l9.79.07c.36-2.73.79-3.16,1.73-4.1A9.46,9.46,0,0,1,278.64,50c5.19,0,7.13,2.73,7.13,4.68s-1.15,3.38-4.1,3.88l-11.16,1.88c-8.36,1.51-12.1,6.91-12.1,12.31,0,7,5.4,13,15.26,13C280.59,85.78,284.33,83.12,285.91,80Zm40-6.12c-5.4,0-9.93-3.89-9.93-11.52,0-6.55,4.61-10.66,9.57-10.66,5.19,0,9.72,4.11,9.72,11C335.23,69.87,330.63,73.9,325.87,73.9ZM307.08,86.79c.58,4,1.73,6.12,4,8.35,2.52,2.3,7.13,4.61,15.12,4.61,8.86,0,14.48-3.24,17.28-6.84,1.8-2.52,2.88-4.68,2.88-11V43.73l-10.58-.07-.36,4.9c-.79-1.16-3-6.34-12.1-6.34-9.93,0-18.57,7.85-18.57,20.52s8.64,20.59,18.43,20.59c6.55,0,10.58-3,12.24-6l-.14,4.32c0,6.92-3.1,9.8-9.44,9.8-4.75,0-7.05-2.38-7.34-4.9Zm71.07-2.16V76.2h-4a3.86,3.86,0,0,1-3.24-1.58c-.21-.36-.57-.94-.57-3.1V51.15h7.49V43.66h-7.35l-.14-13H359.43v13h-5.76v7.56l5.76-.07V72.32c0,9.28,3.74,12.31,9.86,12.31Zm8.28,0h11.08V66.41c0-6.12,1.52-8.93,3.32-10.8a9.74,9.74,0,0,1,7.48-3.24,8,8,0,0,1,1.88.15V42.8a13.8,13.8,0,0,0-2.31-.22,10.48,10.48,0,0,0-10.22,7.27l-.36-6.12H386.43Zm32.47,4.61v8.64H427c9.72,0,12-7.49,12.82-10l15.55-44.14H443.67l-8.14,25.2-8.64-25.27H415l12.67,34.49a16.3,16.3,0,0,1,1.15,5.69c0,3.31-1.87,5.54-6.69,5.54ZM488.74,69.8c-.58,3.09-1.66,4.46-3.1,5.61a8.45,8.45,0,0,1-5.47,1.73c-4.9,0-9.5-3.6-9.5-12.82,0-10,4.89-13.68,9.86-13.68a8.11,8.11,0,0,1,8,7.06L499,57.12C498,48.56,491.47,42,480.31,42c-8.06,0-13.68,3.1-17.35,8.57a23.17,23.17,0,0,0-4,13.68c0,8.43,3.39,14.47,8.43,18.43,3.24,2.31,7.27,3.68,12.74,3.68A20.44,20.44,0,0,0,488.38,85c6.19-2.23,9.93-6.84,10.73-14.76Zm18.07,14.83H517.9V71.16l4.61-4.53,11.23,18H547.2l-16.92-25.2L545,43.66l-13,.07L517.9,59.28l-.15-31.68H506.81ZM552.75,71c.21,7.7,6.69,15,19.22,15,12.82,0,18.43-6.77,18.43-14a12.35,12.35,0,0,0-2.52-7.28c-1.51-1.8-3.6-3.31-8.42-4.46l-11.74-2.74c-2.37-.57-3.45-2.08-3.45-3.6s1.51-4.17,6.84-4.17c5.83,0,8.35,3.17,8.49,6.48l9.65-.22a13.92,13.92,0,0,0-5.83-10.73c-2.31-1.72-6.12-3.24-12.1-3.24-11.88,0-17.06,6.48-17.06,13.47a10.35,10.35,0,0,0,2.88,7.63c1.37,1.58,3.24,2.88,7.85,3.82l8.85,2c5.19,1.15,5.76,2.81,5.76,4.61s-1.73,4.75-7.7,4.75-8.79-3.24-9.15-7.34Zm63.36-34.56a3.34,3.34,0,0,1-3.6-3.31A3.78,3.78,0,0,1,616,29.69a3.4,3.4,0,0,1,3.39,3.46A3.34,3.34,0,0,1,616.11,36.46Zm.14,2.45A5.77,5.77,0,0,0,616,27.39a5.87,5.87,0,0,0-5.76,5.76A5.8,5.8,0,0,0,616.25,38.91Zm8.06,24v6.05c-.36,5.19-3.81,8.64-9.79,8.64-4.61,0-6.84-2.59-6.84-5.18,0-1.8.94-4.32,7.49-6l4.75-1.22A10.65,10.65,0,0,0,624.31,62.88Zm0,17.14a13.89,13.89,0,0,0,1.37,4.61h11.16c-.57-.58-1.73-2.45-1.73-5.76l-.14-21a21.44,21.44,0,0,0-.58-5.55c-1.72-5.61-6.19-10.15-17.35-10.15-12.81,0-17.85,6.48-17.85,13.75L609,56c.36-2.73.79-3.16,1.73-4.1S613.8,50,617,50c5.19,0,7.13,2.73,7.13,4.68S623,58.06,620,58.56l-11.16,1.88c-8.28,1.51-12.09,6.91-12.09,12.31,0,7,5.4,13,15.33,13C619,85.78,622.66,83.12,624.31,80Zm20.45,4.61h11.09V61.73c0-3.24.65-4.75,1.58-6a8.2,8.2,0,0,1,6.7-3.46c3.82,0,6.55,2.38,6.55,7l-.07,25.35h11V55.76c0-7.64-5.62-13.54-14.19-13.54-5.83,0-9.86,3.17-11.37,6.34l-.44-4.83H644.91ZM710.21,73.9c-5.4,0-9.94-3.89-9.94-11.52,0-6.55,4.61-10.66,9.58-10.66,5.18,0,9.65,4.11,9.65,11C719.5,69.87,714.89,73.9,710.21,73.9ZM691.42,86.79c.57,4,1.73,6.12,4,8.35,2.52,2.3,7.13,4.61,15.12,4.61,8.86,0,14.47-3.24,17.28-6.84,1.8-2.52,2.88-4.68,2.88-11V43.73l-10.66-.07-.28,4.9c-.87-1.16-3-6.34-12.1-6.34-9.94,0-18.58,7.85-18.58,20.52s8.64,20.59,18.44,20.59c6.55,0,10.58-3,12.24-6l-.15,4.32c0,6.92-3.09,9.8-9.43,9.8-4.75,0-7.06-2.38-7.42-4.9Zm74.3-23.69v5.18c0,5.76-3.67,9.44-9.93,9.44-4.61,0-6.92-2.74-6.92-5.33,0-2,.72-4.11,7.64-6L761.33,65A13.91,13.91,0,0,0,765.72,63.1Zm0,16.92A13.71,13.71,0,0,0,767,84.63h11.3a5.61,5.61,0,0,1-1.8-4.25V57.92c0-9.8-5.11-15.7-18.43-15.7-12.46,0-17.64,6.84-17.43,13.61l9.8.21c0-2.95,2.3-6,7.84-6s7.28,2.66,7.28,4.61c0,1.72-1.08,3.24-4,3.81l-6.33,1c-9,1.66-11.45,3.38-13.18,4.82a11.12,11.12,0,0,0-3.81,8.57c0,6.77,5.32,12.89,15.69,12.89C759.82,85.78,763.27,83.69,765.72,80Z"/></svg>