<svg xmlns="http://www.w3.org/2000/svg" viewBox="0 0 992.95 113.82"><defs><style>.a{fill:#fff;stroke:#000;stroke-miterlimit:10;stroke-width:0.5px;}.a,.c,.d{fill-rule:evenodd;}.b,.c{fill:#9fa9a7;}.d{fill:#000b0d;}</style></defs><title>VA008_C</title><polygon class="a" points="80.62 113.57 0.43 55.84 80.62 0.26 912.32 0.25 992.51 57.98 912.32 113.56 80.62 113.57"/><rect class="b" x="88.99" y="8.19" width="815.53" height="97.53"/><polygon class="c" points="911.26 8.19 980.28 56.96 911.26 105.72 911.26 8.19"/><polygon class="c" points="81.58 8.19 12.56 56.96 81.58 105.72 81.58 8.19"/><path class="d" d="M304.42,20.69a3.32,3.32,0,0,1-3.31-3.38,3.31,3.31,0,1,1,6.62,0A3.51,3.51,0,0,1,304.42,20.69ZM304.27,23a5.81,5.81,0,0,0,5.91-5.76,5.73,5.73,0,0,0-5.62-5.69,5.79,5.79,0,0,0-5.9,5.69A5.71,5.71,0,0,0,304.27,23Zm-7.56,40.75,7.71-24.63,7.49,24.63Zm-18.57,21H290l3.89-12,20.66-.15,3.53,12.1h12.09l-19.44-57H298.08Zm58,0h10.94l.15-22.9a9.82,9.82,0,0,1,1.51-6,8.38,8.38,0,0,1,6.7-3.46c3.74,0,6.55,2.38,6.55,7V84.7h11V55.83c0-7.63-5.61-13.54-14.11-13.54-5.9,0-10.08,3.17-11.45,6.34L347,43.8H336.17ZM401.47,74c-5.25,0-9.79-3.89-9.79-11.52,0-6.55,4.54-10.65,9.58-10.65s9.72,4.1,9.72,11C411,69.94,406.23,74,401.47,74ZM382.83,86.86a12.43,12.43,0,0,0,4,8.35c2.45,2.31,7.13,4.61,15,4.61,8.86,0,14.62-3.24,17.43-6.84,1.8-2.52,2.88-4.68,2.88-10.94L422,43.8l-10.44-.07-.36,4.9c-.79-1.15-3-6.34-12.09-6.34-9.94,0-18.58,7.85-18.58,20.52S389.16,83.4,399,83.4c6.48,0,10.59-3,12.1-6v4.32c0,6.91-3.1,9.79-9.43,9.79-4.83,0-7.06-2.38-7.49-4.9Zm74.3-23.69L457,68.36c0,5.76-3.53,9.43-9.87,9.43-4.61,0-6.84-2.74-6.84-5.33,0-1.94.72-4.1,7.63-6l4.83-1.36A14.23,14.23,0,0,0,457.13,63.17ZM457,80.09a11.82,11.82,0,0,0,1.44,4.61h11.16a7.1,7.1,0,0,1-1.88-4.25L467.86,58c0-9.79-5.19-15.7-18.58-15.7C437,42.29,431.79,49.13,432,55.9l9.72.22c0-3,2.31-6,7.92-6,5.4,0,7.27,2.66,7.27,4.61,0,1.73-1.08,3.24-4,3.81l-6.33,1C437.4,61.23,435,63,433.3,64.4A11.2,11.2,0,0,0,429.63,73c0,6.77,5.25,12.89,15.62,12.89C451.23,85.85,454.68,83.76,457,80.09Zm76.75-2.88c-6.91,0-11.31-4.61-11.31-11.16s4.83-11.37,11-11.37,11.09,4.53,11.09,11.23S539.79,77.21,533.74,77.21ZM521.5,50.93c.57-7.56,2.16-10.37,4-12.38a11.15,11.15,0,0,1,8.78-3.82c5.26,0,8.5,3.1,9.08,6.7l10.94-.36c-1.15-7.63-8.64-15-21-15-10.37,0-18,5-21.75,17.14a49.41,49.41,0,0,0-2,13.75c0,20.45,10.65,29.23,23.83,29.23,13.75,0,22.25-9,22.25-20.3,0-11.74-8.64-20.38-20.52-20.38A19.37,19.37,0,0,0,521.5,50.93Zm94.89,25.56c-4.6,0-9.28-3.53-9.28-12.74s4.68-12.82,9.21-12.82c4.9,0,9.43,3.46,9.43,12.89C625.75,72.82,621.15,76.49,616.39,76.49ZM595.87,84.7h10.88l.57-4.18A14.27,14.27,0,0,0,619.06,86c9.07,0,18.07-7.42,18.07-21.89,0-14-9.07-21.82-17.93-21.82-5.9,0-10.08,2.67-12.24,6.27V27.68H595.87Zm74.67-21.53-.15,5.19c0,5.76-3.52,9.43-9.86,9.43-4.61,0-6.84-2.74-6.84-5.33,0-1.94.72-4.1,7.63-6l4.83-1.36A14.34,14.34,0,0,0,670.54,63.17Zm-.15,16.92a12,12,0,0,0,1.44,4.61H683a6.68,6.68,0,0,1-1.87-4.25L681.27,58c0-9.79-5.19-15.7-18.58-15.7-12.31,0-17.5,6.84-17.28,13.61l9.72.22c0-3,2.3-6,7.92-6,5.4,0,7.27,2.66,7.27,4.61,0,1.73-1.08,3.24-4,3.81l-6.34,1c-9.14,1.66-11.52,3.39-13.24,4.83A11.2,11.2,0,0,0,643,73c0,6.77,5.26,12.89,15.63,12.89C664.63,85.85,668.09,83.76,670.39,80.09Zm20.67,4.61H702l.07-18.22c0-6.12,1.52-8.92,3.24-10.8a9.88,9.88,0,0,1,7.49-3.24,8.25,8.25,0,0,1,2,.15V42.87a17.09,17.09,0,0,0-2.31-.22,10.49,10.49,0,0,0-10.22,7.27l-.36-6.12h-10.8Z"/></svg>