<svg xmlns="http://www.w3.org/2000/svg" viewBox="0 0 992.95 113.82"><defs><style>.a{fill:#fff;stroke:#000;stroke-miterlimit:10;stroke-width:0.5px;}.a,.c,.d{fill-rule:evenodd;}.b,.c{fill:#9fa9a7;}.d{fill:#000b0d;}</style></defs><title>VA007_C</title><polygon class="a" points="80.62 113.57 0.43 55.84 80.62 0.26 912.32 0.25 992.51 57.98 912.32 113.56 80.62 113.57"/><rect class="b" x="88.99" y="8.19" width="815.53" height="97.53"/><polygon class="c" points="911.26 8.19 980.28 56.96 911.26 105.72 911.26 8.19"/><polygon class="c" points="81.58 8.19 12.56 56.96 81.58 105.72 81.58 8.19"/><path class="d" d="M304.42,20.69a3.35,3.35,0,0,1,0-6.69,3.21,3.21,0,0,1,3.31,3.31A3.41,3.41,0,0,1,304.42,20.69ZM304.27,23a5.81,5.81,0,0,0,5.91-5.76,5.68,5.68,0,0,0-5.62-5.69A5.73,5.73,0,1,0,304.27,23Zm-7.48,40.75,7.77-24.63,7.35,24.63Zm-18.65,21h12l3.75-12,20.66-.15,3.67,12.1h11.95l-19.29-57H298.08Zm58,0h11.09V61.8c0-3.24.72-4.75,1.58-6a8.28,8.28,0,0,1,6.7-3.46c3.81,0,6.55,2.38,6.55,7V84.7H373V55.83c0-7.63-5.61-13.54-14-13.54-5.83,0-10,3.17-11.37,6.34l-.51-4.83h-10.8ZM401.62,74c-5.4,0-9.94-3.89-9.94-11.52,0-6.55,4.61-10.65,9.72-10.65s9.58,4.1,9.58,11C411,69.94,406.37,74,401.62,74ZM382.83,86.86c.57,4,1.72,6.12,4,8.35,2.52,2.31,7.13,4.61,15.12,4.61,8.85,0,14.47-3.24,17.28-6.84,1.8-2.52,2.88-4.68,2.88-10.94V43.8l-10.59-.07-.36,4.9c-.72-1.15-3-6.34-12.09-6.34-9.94,0-18.58,7.85-18.58,20.52S389.16,83.4,399,83.4c6.56,0,10.59-3,12.24-6v4.32c0,6.91-3.24,9.79-9.57,9.79-4.75,0-7.06-2.38-7.35-4.9Zm74.3-23.69v5.19c0,5.76-3.6,9.43-9.94,9.43-4.6,0-6.76-2.74-6.76-5.33,0-1.94.57-4.1,7.63-6l4.68-1.36A12.69,12.69,0,0,0,457.13,63.17Zm0,16.92a13.53,13.53,0,0,0,1.3,4.61h11.23a6.16,6.16,0,0,1-1.8-4.25V58c0-9.79-5.11-15.7-18.43-15.7C437,42.29,431.79,49.13,432,55.9l9.79.22c0-3,2.31-6,8-6,5.4,0,7.12,2.66,7.12,4.61,0,1.73-1.08,3.24-4,3.81l-6.26,1c-9.07,1.66-11.52,3.39-13.25,4.83A11.51,11.51,0,0,0,429.63,73c0,6.77,5.25,12.89,15.62,12.89C451.23,85.85,454.83,83.76,457.13,80.09Zm60.55-16.85,17.64-22.17V63.24Zm-9.07,9.22h26.71V84.7H547V72.46h8.13V63.24H547V27.68H534.53L508.61,60.36Zm107.71,4c-4.61,0-9.36-3.53-9.36-12.74s4.83-12.82,9.36-12.82c4.83,0,9.43,3.46,9.43,12.89C625.75,72.82,621,76.49,616.32,76.49ZM595.8,84.7h10.8l.72-4.18A14.27,14.27,0,0,0,619.06,86C628.13,86,637,78.58,637,64.11c0-14-8.93-21.82-17.79-21.82-6.05,0-10.15,2.67-12.38,6.27V27.68h-11Zm74.59-21.53v5.19c0,5.76-3.52,9.43-9.86,9.43-4.61,0-6.84-2.74-6.84-5.33,0-1.94.58-4.1,7.63-6l4.75-1.36A12.86,12.86,0,0,0,670.39,63.17Zm0,16.92a15.33,15.33,0,0,0,1.3,4.61H683a6,6,0,0,1-1.87-4.25V58c0-9.79-5-15.7-18.43-15.7-12.46,0-17.64,6.84-17.35,13.61l9.79.22c0-3,2.3-6,7.92-6,5.4,0,7.13,2.66,7.13,4.61,0,1.73-1,3.24-4,3.81l-6.2,1c-9.14,1.66-11.52,3.39-13.24,4.83A11.33,11.33,0,0,0,642.89,73c0,6.77,5.33,12.89,15.7,12.89C664.56,85.85,668.09,83.76,670.39,80.09Zm20.52,4.61H702V66.48c0-6.12,1.44-8.92,3.31-10.8a9.88,9.88,0,0,1,7.49-3.24,7.83,7.83,0,0,1,1.87.15l.08-9.72a19.82,19.82,0,0,0-2.38-.22,10.73,10.73,0,0,0-10.3,7.27l-.36-6.12H691.06Z"/></svg>