<svg xmlns="http://www.w3.org/2000/svg" viewBox="0 0 992.95 113.82"><defs><style>.a{fill:#fff;stroke:#000;stroke-miterlimit:10;stroke-width:0.5px;}.a,.c,.d{fill-rule:evenodd;}.b,.c{fill:#9fa9a7;}.d{fill:#000b0d;}</style></defs><title>VA001_C</title><polygon class="a" points="80.62 113.57 0.43 55.84 80.62 0.26 912.32 0.25 992.51 57.98 912.32 113.56 80.62 113.57"/><rect class="b" x="88.99" y="8.05" width="815.53" height="97.53"/><polygon class="c" points="911.26 8.04 980.28 56.81 911.26 105.58 911.26 8.04"/><polygon class="c" points="81.58 8.04 12.56 56.81 81.58 105.58 81.58 8.04"/><path class="d" d="M335.81,84.48H347.4V59.36H370V84.48h11.74v-57H370V50.07H347.4V27.46H335.81Zm67.46,0H415V37h17.28V27.46H386V37h17.28Zm33.27-23.61h32.83V51.08H436.54Zm58.53-24.55a3.34,3.34,0,0,1-3.6-3.32,3.78,3.78,0,0,1,3.46-3.45A3.41,3.41,0,0,1,498.17,33,3.27,3.27,0,0,1,495.07,36.32Zm.08,2.44a5.77,5.77,0,0,0-.22-11.52A5.83,5.83,0,0,0,489.17,33,5.74,5.74,0,0,0,495.15,38.76Zm8,24v6.05c-.36,5.18-3.82,8.64-9.72,8.64-4.61,0-6.91-2.59-6.91-5.19,0-1.8,1.08-4.32,7.63-6L498.75,65A10.11,10.11,0,0,0,503.14,62.74Zm0,17.14a13.54,13.54,0,0,0,1.37,4.6h11.16c-.65-.57-1.73-2.44-1.73-5.76l-.07-20.95a26.05,26.05,0,0,0-.58-5.54C511.56,46.61,507,42.08,496,42.08c-12.82,0-17.86,6.48-17.86,13.75l9.8.07c.28-2.74.79-3.17,1.72-4.1s3.1-1.95,6.34-1.95c5,0,7,2.74,7,4.68s-1.22,3.39-4.24,3.89L487.8,60.29c-8.28,1.51-12.09,6.91-12.09,12.31,0,7.06,5.4,13,15.33,13C497.81,85.64,501.48,83,503.14,79.88Zm20.45,4.6h11.08V61.59a9.8,9.8,0,0,1,1.52-6A8.5,8.5,0,0,1,543,52.16c3.82,0,6.48,2.37,6.48,7V84.48h11V55.61c0-7.63-5.62-13.53-14.11-13.53-5.91,0-10.08,3.16-11.45,6.33l-.43-4.82H523.59Zm65.3-10.72c-5.26,0-9.79-3.89-9.79-11.52,0-6.56,4.61-10.66,9.57-10.66,5.19,0,9.72,4.1,9.72,11C598.39,69.72,593.64,73.76,588.89,73.76ZM570.24,86.64a12.57,12.57,0,0,0,4,8.36c2.45,2.3,7.13,4.6,15,4.6,8.86,0,14.62-3.24,17.42-6.84,1.8-2.52,2.88-4.68,2.88-10.94l-.14-38.23L599,43.52l-.36,4.89c-.79-1.15-3-6.33-12.1-6.33-9.93,0-18.57,7.84-18.57,20.52s8.64,20.59,18.43,20.59c6.55,0,10.58-3,12.24-6l-.14,4.32c0,6.91-3.1,9.79-9.44,9.79-4.82,0-7-2.37-7.48-4.89ZM644.55,63v5.18c0,5.76-3.68,9.43-9.94,9.43-4.61,0-6.84-2.73-6.84-5.33,0-1.94.65-4.1,7.56-6l4.82-1.37A14.58,14.58,0,0,0,644.55,63Zm0,16.92a9.92,9.92,0,0,0,1.29,4.6h11.23a6.76,6.76,0,0,1-1.94-4.24l.14-22.47c0-9.79-5.18-15.69-18.43-15.69-12.45,0-17.64,6.84-17.42,13.6l9.79.22c0-2.95,2.23-6,7.85-6,5.4,0,7.27,2.67,7.27,4.61,0,1.73-1.08,3.24-4,3.82l-6.34,1c-9,1.65-11.37,3.38-13.25,4.82A11.24,11.24,0,0,0,617,72.75c0,6.77,5.26,12.89,15.63,12.89C638.64,85.64,642.1,83.55,644.55,79.88Z"/></svg>