<svg xmlns="http://www.w3.org/2000/svg" viewBox="0 0 992.95 113.82"><defs><style>.a{fill:#fff;stroke:#000;stroke-miterlimit:10;stroke-width:0.5px;}.a,.c,.d{fill-rule:evenodd;}.b,.c{fill:#9fa9a7;}.d{fill:#000b0d;}</style></defs><title>VA003_C</title><polygon class="a" points="80.62 113.57 0.43 55.84 80.62 0.26 912.32 0.25 992.51 57.98 912.32 113.56 80.62 113.57"/><rect class="b" x="88.99" y="8.12" width="815.53" height="97.53"/><polygon class="c" points="911.26 8.12 980.28 56.88 911.26 105.65 911.26 8.12"/><polygon class="c" points="81.58 8.12 12.56 56.88 81.58 105.65 81.58 8.12"/><path class="d" d="M346.18,84.63h39.45V74.84H357.91V27.6H346.18Zm46.73,0h11.73V37.18h17.28V27.6H375.63v9.58h17.28ZM426.17,61H459V51.22H426.17Zm58.54-24.55a3.34,3.34,0,0,1-3.6-3.31,3.78,3.78,0,0,1,3.45-3.46A3.4,3.4,0,0,1,488,33.15,3.34,3.34,0,0,1,484.71,36.46Zm.07,2.45a5.76,5.76,0,1,0-6-5.76A5.78,5.78,0,0,0,484.78,38.91Zm8.06,24v6.05c-.29,5.19-3.74,8.64-9.79,8.64-4.61,0-6.77-2.59-6.77-5.18,0-1.8.94-4.32,7.49-6l4.75-1.22A9.94,9.94,0,0,0,492.84,62.88Zm0,17.14a15.83,15.83,0,0,0,1.44,4.61h11c-.58-.58-1.73-2.45-1.73-5.76l-.07-21a26.3,26.3,0,0,0-.58-5.55c-1.73-5.61-6.26-10.15-17.28-10.15-12.81,0-17.85,6.48-17.85,13.75l9.79.07c.29-2.73.79-3.16,1.73-4.1S482.4,50,485.64,50c5.19,0,7.13,2.73,7.13,4.68s-1.15,3.38-4.18,3.88l-11.16,1.88c-8.28,1.51-12.09,6.91-12.09,12.31,0,7,5.4,13,15.33,13C487.59,85.78,491.26,83.12,492.84,80Zm20.45,4.61h11V61.73c0-3.24.72-4.75,1.58-6a8.28,8.28,0,0,1,6.7-3.46c3.81,0,6.55,2.38,6.55,7l-.07,25.35h11V55.76c0-7.64-5.61-13.54-14.11-13.54-5.9,0-9.94,3.17-11.45,6.34l-.43-4.83H513.36ZM578.67,73.9c-5.4,0-9.87-3.89-9.87-11.52,0-6.55,4.61-10.66,9.51-10.66,5.18,0,9.72,4.11,9.72,11C588,69.87,583.42,73.9,578.67,73.9Zm-18.8,12.89c.58,4,1.73,6.12,4,8.35,2.59,2.3,7.2,4.61,15.12,4.61,8.85,0,14.47-3.24,17.28-6.84,1.8-2.52,2.88-4.68,2.88-11V43.73l-10.59-.07-.36,4.9c-.79-1.16-3-6.34-12.09-6.34-9.94,0-18.58,7.85-18.58,20.52S566.21,83.33,576,83.33c6.55,0,10.59-3,12.24-6l-.14,4.32c0,6.92-3.1,9.8-9.43,9.8-4.68,0-7-2.38-7.35-4.9ZM634.18,63.1v5.18c0,5.76-3.67,9.44-9.87,9.44-4.6,0-6.91-2.74-6.91-5.33,0-2,.65-4.11,7.56-6L629.79,65A14.13,14.13,0,0,0,634.18,63.1Zm0,16.92a13.61,13.61,0,0,0,1.29,4.61h11.24a5.88,5.88,0,0,1-1.8-4.25V57.92c0-9.8-5.12-15.7-18.44-15.7-12.45,0-17.64,6.84-17.42,13.61l9.79.21c0-2.95,2.31-6,7.85-6S634,52.73,634,54.68c0,1.72-1.08,3.24-4,3.81l-6.34,1c-9,1.66-11.37,3.38-13.1,4.82a10.9,10.9,0,0,0-3.82,8.57c0,6.77,5.26,12.89,15.63,12.89C628.27,85.78,631.73,83.69,634.18,80Z"/></svg>