<svg xmlns="http://www.w3.org/2000/svg" viewBox="0 0 992.95 113.82"><defs><style>.a{fill:#fff;stroke:#000;stroke-miterlimit:10;stroke-width:0.5px;}.a,.c,.d{fill-rule:evenodd;}.b,.c{fill:#9fa9a7;}.d{fill:#000b0d;}</style></defs><title>VA002_C</title><polygon class="a" points="80.62 113.57 0.43 55.84 80.62 0.26 912.32 0.25 992.51 57.98 912.32 113.56 80.62 113.57"/><rect class="b" x="89.07" y="8.05" width="815.53" height="97.53"/><polygon class="c" points="911.33 8.04 980.35 56.81 911.33 105.58 911.33 8.04"/><polygon class="c" points="81.65 8.04 12.63 56.81 81.65 105.58 81.65 8.04"/><path class="d" d="M208.3,84.48H220V59.36h22.61V84.48h11.67v-57H242.5V50.07H220V27.46H208.44Zm61.77-45.86h11V27.46H270.15Zm14.48,0h10.94V27.46H284.55ZM283,77.43c-5.69,0-10.58-4-10.58-13.54,0-9.21,4.89-13.39,10.58-13.39,5.26,0,10.23,3.67,10.23,13.68C293.19,73.9,287.93,77.43,283,77.43Zm-.57,8.64c13.24,0,22.1-8.86,22.1-22.18s-9.07-22-21.74-22c-12.46,0-21.68,8.86-21.68,22S270.29,86.07,282.39,86.07Zm50-12.31c-5.4,0-9.93-3.89-9.93-11.52,0-6.56,4.61-10.66,9.72-10.66s9.65,4.1,9.65,11C341.79,69.72,337.11,73.76,332.35,73.76ZM313.71,86.64c.43,4,1.58,6.12,3.88,8.36,2.52,2.3,7.13,4.6,15.12,4.6,8.86,0,14.48-3.24,17.28-6.84,1.8-2.52,2.88-4.68,2.88-10.94V43.59l-10.51-.07-.43,4.89c-.72-1.15-3-6.33-12.1-6.33-9.93,0-18.57,7.84-18.57,20.52S320,83.19,329.69,83.19c6.55,0,10.58-3,12.24-6v4.32c0,6.91-3.24,9.79-9.58,9.79-4.75,0-7.05-2.37-7.34-4.89Zm71.06-2.16V76.06h-4.18a3.78,3.78,0,0,1-3.09-1.58c-.22-.36-.58-.94-.58-3.1V51h7.49V43.52h-7.49l-.14-13H365.83v13h-5.68v7.56L366,51l-.15,21.17c0,9.29,3.82,12.31,9.94,12.31Zm8.14,0H404V66.27c0-6.12,1.52-8.93,3.32-10.8a10,10,0,0,1,7.48-3.24,7.9,7.9,0,0,1,1.88.14l.14-9.72a19.84,19.84,0,0,0-2.45-.21,10.53,10.53,0,0,0-10.15,7.27l-.36-6.12h-10.8Zm32.47,4.61v8.64h8.21c9.57,0,11.88-7.49,12.67-10L462,43.59h-11.8L442,68.79l-8.64-25.27H421.49L434.16,78a13.54,13.54,0,0,1,1.15,5.69c0,3.31-1.87,5.55-6.55,5.55Zm69.84-19.44c-.58,3.1-1.51,4.47-3.1,5.62A8.32,8.32,0,0,1,486.65,77c-4.9,0-9.43-3.6-9.43-12.82,0-10,4.82-13.68,9.93-13.68A8,8,0,0,1,495,57.56L505.44,57c-.93-8.57-7.49-15.12-18.5-15.12-8.07,0-13.75,3.1-17.5,8.57a23.17,23.17,0,0,0-4,13.68c0,8.42,3.39,14.47,8.5,18.43,3.24,2.3,7.2,3.67,12.67,3.67a20.27,20.27,0,0,0,8.21-1.37c6.12-2.23,9.93-6.84,10.73-14.76Zm18.07,14.83h11V71l4.6-4.54,11.31,18h13.46l-16.77-25.2,14.61-15.76-13,.07L524.31,59.14V27.46h-11Zm45.94-13.6c.21,7.7,6.69,15,19.36,15s18.29-6.77,18.29-14a12.32,12.32,0,0,0-2.52-7.27c-1.51-1.8-3.45-3.31-8.28-4.46l-11.73-2.74c-2.52-.58-3.6-2.09-3.6-3.6s1.51-4.18,6.91-4.18c5.76,0,8.42,3.17,8.42,6.48l9.79-.21A14.65,14.65,0,0,0,590,45.1c-2.38-1.73-6.19-3.24-12.17-3.24-11.73,0-17.06,6.48-17.06,13.46A10.37,10.37,0,0,0,563.62,63c1.51,1.58,3.24,2.88,7.85,3.81l8.85,2c5.19,1.15,5.76,2.81,5.76,4.61s-1.65,4.75-7.7,4.75c-5.76,0-8.79-3.24-9.15-7.35Zm63.36-34.56A3.22,3.22,0,0,1,619.13,33a3.69,3.69,0,0,1,3.31-3.45A3.4,3.4,0,0,1,625.83,33,3.25,3.25,0,0,1,622.59,36.32Zm.14,2.44a5.76,5.76,0,0,0-.14-11.52A5.91,5.91,0,0,0,616.68,33,5.8,5.8,0,0,0,622.73,38.76Zm8,24v6.05C630.51,74,627,77.43,621,77.43c-4.61,0-6.84-2.59-6.84-5.19,0-1.8.94-4.32,7.49-6L626.4,65A9.83,9.83,0,0,0,630.72,62.74Zm0,17.14a21.93,21.93,0,0,0,1.44,4.6h11.16c-.57-.57-1.73-2.44-1.73-5.76l-.14-20.95a21.26,21.26,0,0,0-.58-5.54c-1.58-5.62-6.19-10.15-17.35-10.15-12.81,0-17.78,6.48-17.78,13.75l9.72.07c.43-2.74.93-3.17,1.73-4.1,1-.94,3.09-1.95,6.4-1.95,5.19,0,7.13,2.74,7.13,4.68s-1.22,3.39-4.25,3.89l-11,1.87c-8.28,1.51-12.24,6.91-12.24,12.31,0,7.06,5.54,13,15.48,13C625.47,85.64,629.28,83,630.72,79.88Zm20.52,4.6h11.09l.07-22.89c0-3.24.58-4.75,1.51-6a8.4,8.4,0,0,1,6.7-3.45c3.82,0,6.55,2.37,6.55,7V84.48h11V55.61c0-7.63-5.62-13.53-14-13.53-5.91,0-10,3.16-11.38,6.33l-.5-4.82h-10.8Zm65.45-10.72c-5.4,0-9.94-3.89-9.94-11.52,0-6.56,4.61-10.66,9.72-10.66s9.65,4.1,9.65,11C726.12,69.72,721.37,73.76,716.69,73.76ZM698,86.64c.43,4,1.59,6.12,3.89,8.36,2.52,2.3,7.13,4.6,15.12,4.6,8.86,0,14.47-3.24,17.21-6.84,1.87-2.52,2.88-4.68,2.88-10.94V43.59l-10.44-.07-.43,4.89c-.72-1.15-3-6.33-12.1-6.33-9.94,0-18.58,7.84-18.58,20.52S704.38,83.19,714,83.19c6.55,0,10.58-3,12.24-6v4.32c0,6.91-3.24,9.79-9.58,9.79-4.75,0-7.06-2.37-7.42-4.89ZM772.27,63l-.07,5.18c0,5.76-3.6,9.43-9.93,9.43-4.61,0-6.77-2.73-6.77-5.33,0-1.94.65-4.1,7.56-6l4.75-1.37A13.42,13.42,0,0,0,772.27,63Zm-.07,16.92a13.65,13.65,0,0,0,1.23,4.6h11.3a6.16,6.16,0,0,1-1.8-4.24V57.77c0-9.79-5.11-15.69-18.43-15.69-12.46,0-17.57,6.84-17.28,13.6l9.65.22c0-2.95,2.3-6,7.92-6s7.2,2.67,7.2,4.61c0,1.73-1.08,3.24-4,3.82l-6.26,1c-9.07,1.65-11.52,3.38-13.25,4.82a11.61,11.61,0,0,0-3.81,8.57c0,6.77,5.32,12.89,15.69,12.89C766.3,85.64,769.9,83.55,772.2,79.88Z"/></svg>