<svg xmlns="http://www.w3.org/2000/svg" viewBox="0 0 992.95 113.82"><defs><style>.a{fill:#fff;stroke:#000;stroke-miterlimit:10;stroke-width:0.5px;}.a,.c,.d{fill-rule:evenodd;}.b,.c{fill:#9fa9a7;}.d{fill:#000b0d;}</style></defs><title>VA009_C</title><polygon class="a" points="80.62 113.57 0.43 55.84 80.62 0.26 912.32 0.25 992.51 57.98 912.32 113.56 80.62 113.57"/><rect class="b" x="88.99" y="8.27" width="815.53" height="97.53"/><polygon class="c" points="911.26 8.26 980.28 57.03 911.26 105.8 911.26 8.26"/><polygon class="c" points="81.58 8.26 12.56 57.03 81.58 105.8 81.58 8.26"/><path class="d" d="M287.5,20.69a3.35,3.35,0,1,1,0-6.69,3.25,3.25,0,0,1,3.31,3.31A3.41,3.41,0,0,1,287.5,20.69ZM287.35,23a5.81,5.81,0,0,0,5.91-5.76,5.7,5.7,0,0,0-5.69-5.69A5.73,5.73,0,0,0,287.35,23Zm-7.48,40.75,7.7-24.63L295,63.75Zm-18.65,21h11.95l3.82-12,20.66-.15,3.67,12.1h11.95l-19.36-57H281.16Zm58,0h11.09V61.8c0-3.24.65-4.75,1.58-6a8.18,8.18,0,0,1,6.7-3.46c3.81,0,6.55,2.38,6.55,7V84.7h10.94V55.83c0-7.63-5.61-13.54-14-13.54-5.9,0-10,3.17-11.37,6.34l-.51-4.83h-10.8ZM384.7,74c-5.4,0-9.94-3.89-9.94-11.52,0-6.55,4.61-10.65,9.72-10.65s9.51,4.1,9.51,11C394,69.94,389.38,74,384.7,74ZM365.91,86.86c.57,4,1.72,6.12,4,8.35,2.52,2.31,7.13,4.61,15.12,4.61,8.85,0,14.47-3.24,17.28-6.84,1.8-2.52,2.88-4.68,2.88-10.94V43.8l-10.66-.07-.29,4.9c-.72-1.15-3-6.34-12.09-6.34-9.94,0-18.58,7.85-18.58,20.52S372.24,83.4,382,83.4c6.56,0,10.59-3,12.24-6v4.32c0,6.91-3.24,9.79-9.57,9.79-4.75,0-7.06-2.38-7.42-4.9Zm74.3-23.69v5.19c0,5.76-3.6,9.43-9.94,9.43-4.6,0-6.76-2.74-6.76-5.33,0-1.94.57-4.1,7.56-6l4.75-1.36A12.69,12.69,0,0,0,440.21,63.17Zm0,16.92a13.9,13.9,0,0,0,1.22,4.61h11.31a6.16,6.16,0,0,1-1.8-4.25V58c0-9.79-5.11-15.7-18.43-15.7-12.46,0-17.64,6.84-17.43,13.61l9.79.22c0-3,2.31-6,7.92-6s7.2,2.66,7.2,4.61c0,1.73-1.08,3.24-4,3.81l-6.26,1c-9.07,1.66-11.52,3.39-13.25,4.83A11.51,11.51,0,0,0,412.71,73c0,6.77,5.25,12.89,15.62,12.89C434.31,85.85,437.91,83.76,440.21,80.09Zm65.66,4.61h11.6v-57H507.31a10.77,10.77,0,0,1-6.19,8.42,23.46,23.46,0,0,1-10,2.16v7.06h14.62ZM548,77a10.78,10.78,0,0,1-7.63-4c-1.94-2.31-4.25-6.77-4.25-16.78,0-15.7,6-20.59,12.24-20.59,5.62,0,12.32,4.1,12.32,20.23C560.67,73,553.9,77,548,77Zm.58,9.21c12.46,0,24-9.43,24-30.09,0-20.38-11.52-30-24-30-13.1,0-24.34,9.43-24.34,30.17C524.23,76.85,535.68,86.21,548.57,86.21Zm84.67-9.72c-4.61,0-9.36-3.53-9.36-12.74s4.83-12.82,9.36-12.82c4.83,0,9.43,3.46,9.43,12.89C642.67,72.82,637.92,76.49,633.24,76.49ZM612.72,84.7h10.8l.72-4.18A14.27,14.27,0,0,0,636,86c9.07,0,18-7.42,18-21.89,0-14-9-21.82-17.86-21.82-6,0-10.15,2.67-12.31,6.27V27.68H612.72Zm74.59-21.53v5.19c0,5.76-3.52,9.43-9.86,9.43-4.61,0-6.77-2.74-6.77-5.33,0-1.94.58-4.1,7.56-6L683,65.12A12.86,12.86,0,0,0,687.31,63.17Zm0,16.92a15.33,15.33,0,0,0,1.3,4.61h11.3A6.33,6.33,0,0,1,698,80.45V58c0-9.79-5-15.7-18.43-15.7-12.38,0-17.57,6.84-17.35,13.61l9.79.22c0-3,2.3-6,7.92-6,5.4,0,7.13,2.66,7.13,4.61,0,1.73-1,3.24-4,3.81l-6.2,1c-9.07,1.66-11.52,3.39-13.24,4.83A11.33,11.33,0,0,0,659.81,73c0,6.77,5.33,12.89,15.7,12.89C681.48,85.85,685,83.76,687.31,80.09Zm20.52,4.61h11.09V66.48c0-6.12,1.51-8.92,3.31-10.8a10,10,0,0,1,7.49-3.24,7.83,7.83,0,0,1,1.87.15l.08-9.72a18.31,18.31,0,0,0-2.38-.22A10.73,10.73,0,0,0,719,49.92l-.28-6.12H708Z"/></svg>