<svg xmlns="http://www.w3.org/2000/svg" viewBox="0 0 992.95 113.82"><defs><style>.a{fill:#fff;stroke:#000;stroke-miterlimit:10;stroke-width:0.5px;}.a,.c,.d{fill-rule:evenodd;}.b,.c{fill:#9fa9a7;}.d{fill:#000b0d;}</style></defs><title>VA006_C</title><polygon class="a" points="80.62 113.57 0.43 55.84 80.62 0.26 912.32 0.25 992.51 57.98 912.32 113.56 80.62 113.57"/><rect class="b" x="88.99" y="8.12" width="815.53" height="97.53"/><polygon class="c" points="911.26 8.12 980.28 56.88 911.26 105.65 911.26 8.12"/><polygon class="c" points="81.58 8.12 12.56 56.88 81.58 105.65 81.58 8.12"/><path class="d" d="M427,20.62a3.35,3.35,0,0,1-.07-6.7,3.3,3.3,0,0,1,3.46,3.32A3.53,3.53,0,0,1,427,20.62Zm-.07,2.3a5.79,5.79,0,0,0,5.83-5.76,5.73,5.73,0,0,0-5.61-5.68,5.85,5.85,0,0,0-5.91,5.68A5.77,5.77,0,0,0,427,22.92Zm-7.63,40.76L427,39.05l7.49,24.63Zm-18.5,20.95h11.88l3.88-11.95,20.6-.15,3.6,12.1h12.09l-19.51-57H420.7Zm58,0H469.8l.15-22.9c0-3.24.64-4.75,1.44-6a8.38,8.38,0,0,1,6.69-3.46c3.82,0,6.55,2.38,6.55,7V84.63h11.09V55.76c0-7.64-5.69-13.54-14.18-13.54-5.91,0-10,3.17-11.38,6.34l-.5-4.83h-10.8ZM524,73.9c-5.26,0-9.79-3.89-9.79-11.52,0-6.55,4.53-10.66,9.57-10.66,5.19,0,9.65,4.11,9.65,11C533.45,69.87,528.77,73.9,524,73.9ZM505.37,86.79a12.48,12.48,0,0,0,4,8.35c2.45,2.3,7.13,4.61,15,4.61,8.85,0,14.61-3.24,17.42-6.84,1.8-2.52,2.88-4.68,2.88-11l-.14-38.23L534,43.66l-.29,4.9c-.87-1.16-3-6.34-12.1-6.34-9.93,0-18.57,7.85-18.57,20.52s8.64,20.59,18.43,20.59c6.48,0,10.58-3,12.09-6V81.6c0,6.92-3.09,9.8-9.43,9.8-4.82,0-7-2.38-7.49-4.9Zm74.3-23.69-.14,5.18c0,5.76-3.53,9.44-9.86,9.44-4.61,0-6.84-2.74-6.84-5.33,0-2,.72-4.11,7.63-6L575.28,65A13.91,13.91,0,0,0,579.67,63.1ZM579.53,80a12.1,12.1,0,0,0,1.37,4.61h11.23a6.65,6.65,0,0,1-1.87-4.25l.14-22.46c0-9.8-5.18-15.7-18.57-15.7-12.32,0-17.5,6.84-17.28,13.61l9.72.21c0-2.95,2.3-6,7.92-6,5.4,0,7.27,2.66,7.27,4.61,0,1.72-1.08,3.24-4,3.81l-6.34,1c-9.14,1.66-11.52,3.38-13.25,4.82a11.23,11.23,0,0,0-3.67,8.57c0,6.77,5.26,12.89,15.62,12.89C573.77,85.78,577.23,83.69,579.53,80Z"/></svg>