<svg xmlns="http://www.w3.org/2000/svg" viewBox="0 0 992.95 113.82"><defs><style>.a{fill:#fff;stroke:#000;stroke-miterlimit:10;stroke-width:0.5px;}.a,.c,.d{fill-rule:evenodd;}.b,.c{fill:#9fa9a7;}.d{fill:#000b0d;}</style></defs><title>VA005_C</title><polygon class="a" points="80.62 113.57 0.43 55.84 80.62 0.26 912.32 0.25 992.51 57.98 912.32 113.56 80.62 113.57"/><rect class="b" x="88.99" y="8.12" width="815.53" height="97.53"/><polygon class="c" points="911.26 8.12 980.28 56.88 911.26 105.65 911.26 8.12"/><polygon class="c" points="81.58 8.12 12.56 56.88 81.58 105.65 81.58 8.12"/><path class="d" d="M302.33,84.63h11.23l19.59-57-12.53.15L308.09,69.87,295.71,27.6H283ZM356.76,63.1l-.07,5.18c0,5.76-3.6,9.44-9.94,9.44-4.6,0-6.76-2.74-6.76-5.33,0-2,.64-4.11,7.56-6L352.3,65A13.69,13.69,0,0,0,356.76,63.1ZM356.69,80a11,11,0,0,0,1.37,4.61h11.16a7,7,0,0,1-1.87-4.25l.14-22.46c0-9.8-5.18-15.7-18.58-15.7-12.31,0-17.49,6.84-17.28,13.61l9.72.21c0-2.95,2.31-6,7.92-6,5.4,0,7.28,2.66,7.28,4.61,0,1.72-1,3.24-4,3.81l-6.33,1c-9.07,1.66-11.52,3.38-13.25,4.82a11.23,11.23,0,0,0-3.67,8.57c0,6.77,5.25,12.89,15.62,12.89C350.93,85.78,354.39,83.69,356.69,80ZM399,84.63V76.2h-4.17a3.68,3.68,0,0,1-3.1-1.58c-.21-.36-.57-.94-.57-3.1V51.15h7.48V43.66h-7.48v-13H380.16v13h-5.9v7.56l5.9-.07V72.32c0,9.28,3.82,12.31,9.79,12.31Zm30.6,0V76.2h-4.17a3.77,3.77,0,0,1-3.1-1.58c-.21-.36-.57-.94-.57-3.1V51.15h7.48V43.66h-7.48v-13H410.76v13h-5.83v7.56l5.83-.07V72.32c0,9.28,3.82,12.31,9.79,12.31Zm17.07-25.49a9.49,9.49,0,0,1,9-8.35c4.46,0,8.35,3.09,9.07,8.35Zm-.51,8.06h30.53c0-12-5.54-25-20.81-25-15.69,0-20.52,12.46-20.52,21.82,0,13.68,9,22.1,20.38,22.1,11.66,0,18.58-6.26,20.16-13.39l-11-.79c-2.08,3.81-5,5.4-8.56,5.4C451,77.36,446.69,73.83,446.11,67.2Zm38.16,17.43h11l.14-22.9c0-3.24.58-4.75,1.37-6a8.38,8.38,0,0,1,6.7-3.46c3.81,0,6.55,2.38,6.55,7V84.63h11.09V55.76c0-7.64-5.69-13.54-14.19-13.54-5.9,0-10,3.17-11.3,6.34l-.43-4.83H484.35Zm63.58-48.17a3.34,3.34,0,0,1-3.6-3.31,3.79,3.79,0,0,1,3.46-3.46,3.49,3.49,0,0,1,3.38,3.46A3.34,3.34,0,0,1,547.85,36.46Zm.07,2.45a5.76,5.76,0,1,0-6-5.76A5.69,5.69,0,0,0,547.92,38.91Zm8.07,24-.08,6.05c-.21,5.19-3.67,8.64-9.72,8.64-4.68,0-6.91-2.59-6.91-5.18,0-1.8,1.08-4.32,7.49-6l4.9-1.22A11.46,11.46,0,0,0,556,62.88ZM555.91,80a14.06,14.06,0,0,0,1.52,4.61h11.16c-.72-.58-1.73-2.45-1.73-5.76l-.15-21a17.89,17.89,0,0,0-.64-5.55c-1.66-5.61-6.27-10.15-17.28-10.15C536,42.22,530.93,48.7,530.93,56l9.65.07c.43-2.73.93-3.16,1.73-4.1,1-.94,3.09-1.94,6.48-1.94,5.18,0,7.12,2.73,7.12,4.68s-1.29,3.38-4.24,3.88l-11.09,1.88c-8.28,1.51-12.24,6.91-12.24,12.31,0,7,5.54,13,15.48,13C550.59,85.78,554.4,83.12,555.91,80Zm20.45,4.61h11.09l.14-22.9c0-3.24.58-4.75,1.44-6a8.41,8.41,0,0,1,6.7-3.46c3.82,0,6.55,2.38,6.55,7V84.63h11.09V55.76c0-7.64-5.62-13.54-14.18-13.54-5.84,0-10,3.17-11.38,6.34l-.5-4.83h-10.8ZM641.81,73.9C636.48,73.9,632,70,632,62.38c0-6.55,4.46-10.66,9.57-10.66s9.65,4.11,9.65,11C651.24,69.87,646.56,73.9,641.81,73.9ZM623.16,86.79a12.18,12.18,0,0,0,4,8.35c2.38,2.3,7,4.61,15,4.61,8.86,0,14.62-3.24,17.28-6.84,1.94-2.52,2.95-4.68,2.95-11l-.07-38.23-10.51-.07-.36,4.9c-.79-1.16-3-6.34-12.1-6.34-9.86,0-18.65,7.85-18.65,20.52s8.79,20.59,18.58,20.59c6.41,0,10.58-3,12.1-6V81.6c0,6.92-3.1,9.8-9.44,9.8-4.89,0-7.05-2.38-7.48-4.9ZM697.47,63.1l-.15,5.18c0,5.76-3.6,9.44-9.93,9.44-4.61,0-6.77-2.74-6.77-5.33,0-2,.72-4.11,7.63-6L692.93,65A13.68,13.68,0,0,0,697.47,63.1ZM697.32,80a12.1,12.1,0,0,0,1.37,4.61h11.16a6.52,6.52,0,0,1-1.8-4.25l.07-22.46c0-9.8-5.18-15.7-18.5-15.7-12.31,0-17.5,6.84-17.28,13.61L682,56c0-2.95,2.3-6,8-6,5.4,0,7.2,2.66,7.2,4.61,0,1.72-1,3.24-4,3.81l-6.34,1c-9.07,1.66-11.45,3.38-13.18,4.82a11.33,11.33,0,0,0-3.74,8.57c0,6.77,5.33,12.89,15.7,12.89C691.56,85.78,695,83.69,697.32,80Z"/></svg>