<svg xmlns="http://www.w3.org/2000/svg" viewBox="0 0 992.95 113.82"><defs><style>.a{fill:#fff;stroke:#000;stroke-miterlimit:10;stroke-width:0.5px;}.a,.c,.d{fill-rule:evenodd;}.b,.c{fill:#9fa9a7;}.d{fill:#000b0d;}</style></defs><title>VA010_C</title><polygon class="a" points="80.62 113.57 0.43 55.84 80.62 0.26 912.32 0.25 992.51 57.98 912.32 113.56 80.62 113.57"/><rect class="b" x="88.99" y="8.19" width="815.53" height="97.53"/><polygon class="c" points="911.26 8.19 980.28 56.96 911.26 105.72 911.26 8.19"/><polygon class="c" points="81.58 8.19 12.56 56.96 81.58 105.72 81.58 8.19"/><path class="d" d="M281.59,20.69a3.35,3.35,0,0,1-.07-6.69A3.29,3.29,0,0,1,285,17.31,3.53,3.53,0,0,1,281.59,20.69ZM281.52,23a5.8,5.8,0,0,0,5.83-5.76,5.73,5.73,0,0,0-5.61-5.69,5.79,5.79,0,0,0-5.91,5.69A5.72,5.72,0,0,0,281.52,23Zm-7.63,40.75,7.7-24.63,7.49,24.63Zm-18.5,21h11.8l4-12,20.6-.15,3.6,12.1h12.09l-19.51-57H275.26Zm58,0h10.94l.07-22.9c0-3.24.72-4.75,1.52-6a8.38,8.38,0,0,1,6.69-3.46c3.82,0,6.55,2.38,6.55,7V84.7h11.09V55.83c0-7.63-5.69-13.54-14.18-13.54-5.91,0-10,3.17-11.45,6.34l-.43-4.83h-10.8ZM378.72,74c-5.33,0-9.79-3.89-9.79-11.52,0-6.55,4.46-10.65,9.5-10.65s9.72,4.1,9.72,11C388.15,69.94,383.4,74,378.72,74ZM360.07,86.86a12.19,12.19,0,0,0,4,8.35c2.37,2.31,7.12,4.61,14.9,4.61,8.93,0,14.69-3.24,17.42-6.84,1.88-2.52,2.88-4.68,2.88-10.94l-.14-38.24-10.44-.07-.36,4.9c-.79-1.15-3-6.34-12.1-6.34-9.93,0-18.5,7.85-18.5,20.52s8.57,20.59,18.36,20.59c6.48,0,10.66-3,12.1-6v4.32c0,6.91-3.1,9.79-9.44,9.79-4.82,0-7-2.38-7.48-4.9Zm74.24-23.69-.08,5.19c0,5.76-3.6,9.43-9.93,9.43-4.61,0-6.77-2.74-6.77-5.33,0-1.94.65-4.1,7.56-6l4.82-1.36A14.3,14.3,0,0,0,434.31,63.17Zm-.08,16.92a10.93,10.93,0,0,0,1.37,4.61h11.16a7,7,0,0,1-1.87-4.25L445,58c0-9.79-5.18-15.7-18.57-15.7-12.31,0-17.5,6.84-17.21,13.61l9.65.22c0-3,2.3-6,7.92-6,5.4,0,7.27,2.66,7.27,4.61,0,1.73-1,3.24-4,3.81l-6.34,1c-9.07,1.66-11.52,3.39-13.25,4.83A11.48,11.48,0,0,0,406.8,73c0,6.77,5.33,12.89,15.63,12.89C428.47,85.85,431.93,83.76,434.23,80.09Zm52.71,4.61h41.9V75.34H501.48a23.8,23.8,0,0,1,5-5l9.22-6.55c4-2.88,12.31-8.21,12.31-18.29,0-10.94-7.71-19.15-20.31-19.15s-20,7.34-20,20.52v.57h10.58c.22-8.2,4.47-11.52,9.36-11.52S516,39.41,516,44.74c0,6.91-5.61,10.37-7.77,11.95l-7.78,6C494.35,67.42,487.66,73.9,486.94,84.7Zm53.57-21.46,17.64-22.17V63.24Zm-9,9.22h26.64V84.7h11.59V72.46H578V63.24h-8.07V27.68H557.35L531.51,60.36Zm107.71,4c-4.61,0-9.36-3.53-9.36-12.74s4.75-12.82,9.21-12.82c5,0,9.44,3.46,9.44,12.89C648.51,72.82,643.9,76.49,639.22,76.49ZM618.7,84.7h10.8l.57-4.18A14.4,14.4,0,0,0,641.88,86C651,86,660,78.58,660,64.11c0-14-9.14-21.82-18-21.82-5.83,0-10,2.67-12.16,6.27V27.68H618.7Zm74.66-21.53-.14,5.19c0,5.76-3.6,9.43-9.94,9.43-4.53,0-6.77-2.74-6.77-5.33,0-1.94.72-4.1,7.64-6L689,65.12A14.11,14.11,0,0,0,693.36,63.17Zm-.14,16.92a11.87,11.87,0,0,0,1.37,4.61h11.16a6.5,6.5,0,0,1-1.8-4.25L704,58c0-9.79-5.19-15.7-18.51-15.7-12.31,0-17.49,6.84-17.28,13.61l9.65.22c0-3,2.31-6,8-6,5.4,0,7.2,2.66,7.2,4.61,0,1.73-1,3.24-4,3.81l-6.33,1c-9.08,1.66-11.45,3.39-13.18,4.83A11.26,11.26,0,0,0,665.79,73c0,6.77,5.32,12.89,15.69,12.89C687.46,85.85,690.91,83.76,693.22,80.09Zm20.59,4.61h10.94l.15-18.22c0-6.12,1.51-8.92,3.24-10.8a9.87,9.87,0,0,1,7.49-3.24,8.82,8.82,0,0,1,1.94.15V42.87a17.08,17.08,0,0,0-2.3-.22A10.51,10.51,0,0,0,725,49.92l-.36-6.12H713.81Z"/></svg>