<svg xmlns="http://www.w3.org/2000/svg" viewBox="0 0 298.15 210.24"><defs><style>.a{fill:#fff;stroke:#000;stroke-width:0.5px;}.a,.b{stroke-miterlimit:10;}.b{fill:none;stroke:#000b0d;stroke-width:4.25px;fill-rule:evenodd;}</style></defs><title>VSM013_C</title><rect class="a" x="0.25" y="0.25" width="297.65" height="209.74"/><path class="b" d="M171.37,115.39A29.89,29.89,0,1,1,141.48,85.5,29.9,29.9,0,0,1,171.37,115.39Z"/><path class="b" d="M247.92,115.49a28.13,28.13,0,1,1-28.13-28.12A28.12,28.12,0,0,1,247.92,115.49Z"/><path class="b" d="M56.44,85.27a9.79,9.79,0,1,1,9.31-17.06L112,110.72"/><path class="b" d="M188.59,86A11.18,11.18,0,1,1,201.2,67.61l20.12,19.8"/><path class="b" d="M168,101.59a29.9,29.9,0,0,1,27,.54"/></svg>