<svg xmlns="http://www.w3.org/2000/svg" viewBox="0 0 298.15 210.24"><defs><style>.a,.d{fill:#fff;}.a{stroke:#000;stroke-width:0.5px;}.a,.b,.d{stroke-miterlimit:10;}.b{fill:none;}.b,.d{stroke:#000b0d;stroke-width:4.25px;}.b,.d,.e{fill-rule:evenodd;}.c,.e{fill:#000b0d;}</style></defs><title>VSM016_C</title><rect class="a" x="0.25" y="0.25" width="297.65" height="209.74"/><polyline class="b" points="40.78 98.88 230.58 98.88 230.58 123.08 40.78 123.08"/><rect class="c" x="56.72" y="98.88" width="19.08" height="24.2"/><rect class="c" x="193.99" y="98.88" width="19.08" height="24.2"/><rect class="c" x="94.89" y="98.88" width="19.08" height="24.2"/><polygon class="d" points="109.98 152.41 150.7 57.87 193.99 152.41 109.98 152.41"/><polygon class="e" points="226.73 139.6 226.73 82.64 257.49 110.98 226.73 139.6"/><polygon class="e" points="145.06 126.35 158.9 126.35 158.9 122.8 154.91 122.8 154.91 98.93 158.9 98.93 158.9 95.21 145.06 95.21 145.06 99.16 149.16 99.16 149.22 122.75 145.06 122.8 145.06 126.35"/></svg>