<svg xmlns="http://www.w3.org/2000/svg" viewBox="0 0 298.15 210.24"><defs><style>.a{fill:#fff;stroke:#000;stroke-miterlimit:10;stroke-width:0.5px;}.b,.c{fill:#000b0d;}.b{fill-rule:evenodd;}</style></defs><title>VSM019_C</title><rect class="a" x="0.25" y="0.25" width="297.65" height="209.74"/><polygon class="b" points="123.15 93.75 139.28 93.75 139.28 97.72 127.84 97.72 127.84 102.93 137.86 102.93 137.86 106.86 127.84 106.86 127.84 116.34 123.15 116.34 123.15 93.75"/><path class="b" d="M142.06,99.61h4.43v16.73h-4.43Zm4.43-2h-4.43v-4h4.43Z"/><path class="b" d="M157.65,93.51l.93.07v3.56c-.25,0-.66,0-1.24-.07a1.42,1.42,0,0,0-1.2.39,1.39,1.39,0,0,0-.33.9v1.41h2.87v3.08h-2.87v13.49h-4.34V102.85H149V99.77h2.4V98.69a5.69,5.69,0,0,1,.9-3.7c.64-1,2.16-1.5,4.59-1.5Z"/><path class="b" d="M171.65,111.88a6.31,6.31,0,0,0,1-3.88,6.25,6.25,0,0,0-1-3.86,3.44,3.44,0,0,0-2.94-1.36,3.49,3.49,0,0,0-3,1.36,6.25,6.25,0,0,0-1,3.86,6.31,6.31,0,0,0,1,3.88,3.5,3.5,0,0,0,3,1.37A3.45,3.45,0,0,0,171.65,111.88Zm3.5,2.42q-2.11,2.61-6.43,2.61c-2.87,0-5-.87-6.43-2.61a10.38,10.38,0,0,1,0-12.57c1.41-1.77,3.56-2.65,6.43-2.65s5,.88,6.43,2.65a10.34,10.34,0,0,1,0,12.57Z"/><rect class="c" x="93.69" y="102.82" width="16.99" height="4.74"/><rect class="c" x="24.47" y="65.22" width="249.48" height="8.5"/><rect class="c" x="24.31" y="136.65" width="249.48" height="8.5"/><rect class="c" x="188" y="102.83" width="16.99" height="4.74"/></svg>