<svg xmlns="http://www.w3.org/2000/svg" viewBox="0 0 298.15 210.24"><defs><style>.a{fill:#fff;stroke:#000;stroke-width:0.5px;}.a,.c{stroke-miterlimit:10;}.b,.d{fill:#000b0d;}.c{fill:none;stroke:#000b0d;stroke-width:4.25px;}.c,.d{fill-rule:evenodd;}</style></defs><title>VSM022_C</title><rect class="a" x="0.25" y="0.25" width="297.65" height="209.74"/><rect class="b" x="219.32" y="92.21" width="40.5" height="27.62"/><polyline class="c" points="206.28 128.3 219.32 128.3 219.32 70.49 206.06 56.5 124.31 56.5 124.31 69.02"/><polyline class="c" points="193.57 140.82 206.28 140.82 206.28 83.01 193.02 69.02 111.27 69.02 111.27 82.05"/><polygon class="c" points="98.57 153.85 193.57 153.85 193.57 96.04 180.32 82.05 98.57 82.05 98.57 153.85"/><polygon class="d" points="38.34 106.02 73.68 75.83 73.68 92.4 98.57 92.4 98.57 119.83 73.68 119.83 73.87 136.58 38.34 106.02"/></svg>