<svg xmlns="http://www.w3.org/2000/svg" viewBox="0 0 298.15 210.24"><defs><style>.a,.b{fill:#fff;stroke:#000;stroke-miterlimit:10;stroke-width:0.5px;}.a,.c{fill-rule:evenodd;}.c{fill:#000b0d;}</style></defs><title>VSM008_C</title><path class="a" d="M227,98.55"/><path class="a" d="M214.62,98.55"/><rect class="b" x="0.25" y="0.25" width="297.65" height="209.74"/><path class="c" d="M176.24,158.2a65.25,65.25,0,0,1-27.2,5.9h0A65.67,65.67,0,0,1,83.42,98.48h0A65.67,65.67,0,0,1,149,32.85h0A65.71,65.71,0,0,1,211,76.77l10.86-6.18A78,78,0,0,0,149.1,20.64h0A78,78,0,0,0,71.19,98.55h0a78,78,0,0,0,77.91,77.91h0a77.53,77.53,0,0,0,32.28-7Z"/><polygon class="c" points="181.41 189.7 194.83 152.71 163.78 142.62 181.41 189.7"/></svg>