<svg xmlns="http://www.w3.org/2000/svg" viewBox="0 0 298.15 210.24"><defs><style>.a,.d{fill:#fff;}.a{stroke:#000;stroke-width:0.5px;}.a,.b,.d{stroke-miterlimit:10;}.b{fill:none;}.b,.d{stroke:#000b0d;stroke-width:4.25px;}.c{fill:#000b0d;}.d{fill-rule:evenodd;}</style></defs><title>VSM015_C</title><rect class="a" x="0.25" y="0.25" width="297.65" height="209.74"/><rect class="b" x="47.62" y="51.92" width="91.7" height="87.43"/><rect class="b" x="158.4" y="51.92" width="92.2" height="87.43"/><rect class="c" x="139.32" y="106.03" width="19.08" height="4.84"/><path class="d" d="M87.48,141.7A16.73,16.73,0,1,1,70.75,125,16.73,16.73,0,0,1,87.48,141.7Z"/><path class="d" d="M132.72,141.7A16.73,16.73,0,1,1,116,125,16.73,16.73,0,0,1,132.72,141.7Z"/><path class="d" d="M199.83,141.7A16.73,16.73,0,1,1,183.1,125,16.73,16.73,0,0,1,199.83,141.7Z"/><path class="d" d="M244.59,141.7A16.73,16.73,0,1,1,227.86,125,16.73,16.73,0,0,1,244.59,141.7Z"/></svg>