<svg xmlns="http://www.w3.org/2000/svg" viewBox="0 0 595.28 850.36"><defs><style>.a{fill:#fcc00d;}.a,.b{fill-rule:evenodd;}.b{fill:#000100;}</style></defs><title>W002_C</title><polyline class="a" points="0 850.36 595.28 850.36 595.28 0 0 0 0 850.36"/><path class="b" d="M143.62,643.92h38v-8.78H154.2v-14h24v-8.35h-24v-11.3h27V593H143.62v51Zm307.93,0v-7.56h-3.67A3.7,3.7,0,0,1,445,635c-0.21-.29-0.5-0.86-0.5-2.88V614h6.7v-6.7h-6.63l-0.07-11.59H434.7v11.59h-5.18V614l5.18-.07v18.93c0,8.28,3.39,11,8.86,11h8Zm-48.45,0h9.72l12.52-36.64h-10L408,631.4l-7.27-24h-10Zm-27.57,0h9.86V607.28h-9.86v36.64Zm0.07-42.19h9.87V593h-9.87v8.78Zm-41,29.95c0.22,6.91,6,13.54,17.28,13.54s16.41-6.12,16.41-12.67a10.33,10.33,0,0,0-2.23-6.41c-1.36-1.73-3.17-3-7.49-4l-10.58-2.45c-2.16-.58-3.1-1.94-3.1-3.24s1.37-3.67,6.12-3.67c5.25,0,7.56,2.73,7.63,5.69l8.64-.14a12.78,12.78,0,0,0-5.25-9.65c-2.09-1.51-5.54-2.81-10.87-2.81-10.51,0-15.19,5.69-15.19,12a9.41,9.41,0,0,0,2.52,6.91c1.29,1.37,3,2.52,7,3.39l8,1.8c4.61,1,5.18,2.45,5.18,4.18s-1.58,4.1-7,4.1c-5.18,0-7.77-2.74-8.13-6.55Zm-25.34,13.61c11.16,0,19.29-7.85,19.29-19.8,0-11.59-8.06-19.58-19.37-19.58-11.09,0-19.15,7.92-19.15,19.51C290,637.52,298.05,645.29,309.21,645.29Zm-0.07-7.7c-4.68,0-9.14-3.6-9.14-11.74,0-8.78,4.39-12.24,9.22-12.24s9.22,3.53,9.22,11.88C318.43,634.06,314,637.59,309.14,637.59Zm-35.93,6.33h9.86V593h-9.79Zm-33.84-4.25c2.09,3.38,5.69,5.47,10.73,5.47,10,0,16.2-9.29,16.2-19.73,0-10-6-19.3-16.06-19.3a13.25,13.25,0,0,0-10.65,5l-0.43-3.74-9.72.07v48.45h9.87Zm8.78-2.09c-4.75,0-8.71-3.17-8.71-11.09,0-8.85,4.32-11.95,8.35-11.95s8.49,3.31,8.49,11.45C256.29,631.4,254,637.52,248.16,637.59Zm-61.34,6.33h10.94l7.63-11.45,6.77,11.45h11.74L211,624.77l11.45-17.49H212.09L206,617.5l-6-10.15H188.54l11.59,17.42Z"/><path class="b" d="M213,690h9.86L223,680h-9.87Zm147.81,25.41L388,715.46c0-10.87-4.9-22.39-18.58-22.39-14,0-18.44,11.16-18.44,19.51,0,12.17,8.06,19.73,18.36,19.73s16.49-5.55,18-12l-9.93-.65c-1.87,3.38-4.46,4.75-7.63,4.75C365.15,724.45,361.33,721.29,360.83,715.38Zm0.43-7.13a8.37,8.37,0,0,1,8-7.49c4,0,7.49,2.73,8.13,7.49H361.26Zm-50,22.75h9.86l0.07-20.52c0-2.88.58-4.25,1.37-5.4a7.39,7.39,0,0,1,6-3.1c3.45,0,5.9,2.23,5.9,6.34L334.4,731h9.86V705.16c0-6.84-5-12.1-12.6-12.1-5.26,0-8.93,2.81-10.22,5.69l-0.36-4.32-9.72-.07ZM250,731h9.87L260,709.84c0-5.26,3-7.92,6.91-7.92a4.89,4.89,0,0,1,4.9,3.1c0.14,0.36.43,1.15,0.43,4v22H282V709.26c0-4.75,3-7.49,6.84-7.49,3.31,0,5.54,2,5.54,6.33V731H304l-0.07-25.7c-0.21-7.7-5.11-12.1-11.66-12.1a12.33,12.33,0,0,0-11.3,6.41,11.76,11.76,0,0,0-10.73-6.41c-5,0-8.28,2.16-10.22,5.83l-0.36-4.61-9.58-.07Zm-18.29-4.18A14.83,14.83,0,0,0,233,731H243c-0.58-.5-1.51-2.16-1.51-5.18l-0.15-18.72a18.67,18.67,0,0,0-.5-5c-1.51-5-5.61-9.07-15.55-9.07-11.37,0-15.91,5.83-15.91,12.24l8.71,0.14c0.36-2.45.72-3,1.51-3.67s2.81-1.73,5.76-1.73c4.61,0,6.33,2.45,6.33,4.18s-1.08,3-3.74,3.46L218,709.41c-7.42,1.29-10.87,6.12-10.87,10.94,0,6.33,4.9,11.74,13.75,11.74C227,732.09,230.37,729.64,231.74,726.83Zm0-15.34V717c-0.22,4.61-3.38,7.77-8.71,7.77-4.17,0-6.12-2.45-6.12-4.61,0-1.73.86-4,6.7-5.4l4.25-1.15A7.76,7.76,0,0,0,231.74,711.49ZM225.83,690l9.94,0.07V680H225.9Z"/><path class="b" d="M462.3,495.55c-46.53-9.33-227.83-45.72-233.47-47.13l154.74,47.13H342.77c-1-2.63-2.38-5.07-3.09-5.55-3.78-2.5-8.4-1.61-12.68-2.86-2.4-.71-17.79-8.75-20.24-9.24s-5-.75-7.23.33l-2.69,2.41a1.33,1.33,0,0,0,0,.75,6.24,6.24,0,0,1,2,2.24c0.73,1.68,15.53,9.25,16.67,10.46a6.92,6.92,0,0,0,2.1,1.46H301.83l-46.82-23a27.42,27.42,0,0,0-.47-4.13c-0.38-2,1.38-3.76.78-5.26-0.75-1.91-3.44-2.18-5.37-3.07-1.52,1.63-4,.89-5.57,2.49a2.54,2.54,0,0,0-.35,2.07l0.22,2.62L223,456.86c1-.19,2.25-0.17,2.4-0.69,0.47-1.72-.35-3.83-1.39-5.53-0.86-1.4-2.55-1.6-4.18-1.93-1.37-.27-1.76-1.87-3-2.08a8.88,8.88,0,0,0-5.85,1.2c-0.45.83,0.42,1.57-.45,2.07-1,.64-2.36.65-3.42,1.17-0.44.22-.36,1.06-0.19,1.63a8.78,8.78,0,0,1,.44,4.13l6.35,4.27c0.9,0.1,1.89,1.19,2.27.28,0.05-.12.09-0.21,0.11-0.28-0.18.11,0.13-.38,0,0a1,1,0,0,0,.19-0.16l0.26-.24,60.75,34.84H78.65l76.49-132.64,17.06,38.63,2.82-3.65-14.88-43.64,7.56-13.11L176,383.51l1,0.5-0.58-5.73a114.43,114.43,0,0,0,4.23,15.23c0.47,0.84,1.65,1.12,1.89,2.2a4.22,4.22,0,0,0,2.36-2.25c0.93-2.92,8.48-6.4,8-9.48-0.42-2.6-7.68-3.77-7.4-6.54,0.07-.7,6.61-0.14,6-0.3-1.43-.38,5.36-9.11-4.1-6.82-1.3.32-9.32,2.67-10.78,2.8-0.38,0-.58.5-0.63,1.25l-4.09-40.56,38.79-67.27-6.78,64.72a3.58,3.58,0,0,1-2.55-.88c-1.34-1.28-2.13-3.17-3.53-4.33-0.32-.26-1.12.63-1.77,0.89-2.21.88-5.53,0.87-6.22,3.21-0.84,2.79.49,6.23-2,8.45a7.57,7.57,0,0,0-.73.61c-1.07,2-2.56,3.57-3.54,5.55a1.71,1.71,0,0,0,0,1.55c2.16,2.8,4,5.27,6.11,8.08,0.44,0.58,1.36-.66,2.16-0.31,2.64,1.21,5.14.2,7.49-1l2.09-2.58a13.35,13.35,0,0,1,0-1.85,2.31,2.31,0,0,1,.69-1l-4.58,43.69,37.87-167.85,62-107.48,18.34,31.79L205.69,393.59l129.5-212.08,25.23,43.75L249.27,361.86,365.86,234.68l12.52,21.7L210,412.94,389.14,275.06l15,26L211.13,424a8.36,8.36,0,0,1-2.85-1.2c-0.72-.57.5-1.85,0.05-2.78s-1.69-2.12-2.87-1.5c0,0-2.36,2.08-2.65,2.47-2.38,3.31-7.21,4.32-8.39,8.43-0.13.45,0.6,0.42,1,.48,1.57,0.3,3.49-.21,4.34,1.22a0.92,0.92,0,0,1,.05.13l-2.57,1.64,2.64-1.34c0,0.73-.6,1.65-0.52,2.46s0.48,2.58,1.38,2.47c1.48-.19,8.89-1.76,10.51-4,0.17-.24,3.22.12,4-0.48,1.68-1.26,3.72-3.69,2.59-5.58-0.41-.68-1.68-0.69-2.42-1.45a8.42,8.42,0,0,0-1.8-.44l29.42-15a1.8,1.8,0,0,0,.14.32c0.17,0.32.77,0.23,1,.59a3.76,3.76,0,0,0,1.42,1.67,5.6,5.6,0,0,0,2.76.2l1.21-.27a14.62,14.62,0,0,0,3.87-.77,1.65,1.65,0,0,0,.66-2c-0.61-1.38-.74-3-1.68-4.08a3,3,0,0,0-.24-0.26L416,321.63,445.06,372,240.89,419l216.47-25.68,16,27.74-185.79,4.37,0.69,1,190.34,3.69,9.59,16.63c-58.67-3.21-246.95-13.57-260.78-14.95l271.44,33.43,17.46,30.27h-54Zm95.29,8.55-247-428.17a15.16,15.16,0,0,0-26.26,0L37.33,504.1a15.21,15.21,0,0,0,13.12,22.84h494A15.21,15.21,0,0,0,557.59,504.1ZM493.9,456.69l1.78,3.08-42.8-6.53,37.86-1.8Zm-83-143.9-30.57,14.08,28.31-18Zm-26-45-42.09,33.27,39.81-37.21ZM327.7,168.5l-32.22,54.25,27.93-61.7Zm73.82,325.16L372,485.36l61.68,8.3H401.52Z"/><path class="b" d="M197.51,460.39c-0.37-1.92-.29-4.34-1.55-5.15-1.54-1-4.15-.34-5.94.87-0.6-2.19-2.54-3.24-3.77-5.07-1.08-1.61.21-3.64,1.46-4.93s3.59-1.14,4.53-2.48,0.28-3.18-.42-4.71c-0.62-1.35-2.33-1.48-3.35-1.59-1.45-.14-3.12.39-4.57-0.64s-1.88-2.42-2.91-3.57-2.82-1.13-4-2.48-2.49,0-3.64.08c-2.47.18-6.27,1.35-7.17-1.46s2.81-3.76,3.89-5.87a12.66,12.66,0,0,0,.61-9.68,6.78,6.78,0,0,0-1.77-2.4,16.49,16.49,0,0,0-1.36-1.13c-0.71-.55-0.25-2.61-0.72-2.52a35.71,35.71,0,1,0,34.4,59l-0.45-2.59c-0.83-1.64-2.94-1.84-3.29-3.72"/><path class="b" d="M186.79,420c1.56,0,1.92,1.81,3.15,2.43a4.55,4.55,0,0,0,3.25-.18,18.92,18.92,0,0,0,4.87-3,3.07,3.07,0,0,0-.17-4.9c-1.14-.65-2.36-0.66-3.56-1.44-1.66-1.07-3.41.55-5.12,0.2A22,22,0,0,1,186,412c-2.32-.8-4,1.22-5.26,3-0.37.52,0.38,1.43,0.33,2.26l-0.73-1c0,0.8-.25,1.87.14,2.26,1.6,1.55,4.08,1.37,6.28,1.38"/><path class="b" d="M155.11,408c0.75,0.52,2-.31,2.73-1,1-.91,2.3-0.79,3-1.87a2.24,2.24,0,0,0,0-2c-1-1.64-1.81-3.38-3.29-4.36s-3.46.21-4.94,1.35l-0.8,1.6c-1,2.7,1.43,4.88,3.36,6.29"/><path class="b" d="M164.25,395.13c-0.53.92-2,.55-2,1.8l0.26,0.8c-0.43,1.07-.71,2.38.11,3.1a5.06,5.06,0,0,0,4.45.85,3.89,3.89,0,0,1,0-.64,3.81,3.81,0,0,0,1.63-2.07c1-1.91-1.28-3.23-2.82-4.34a1.35,1.35,0,0,0-1.66.51"/><path class="b" d="M153.89,387.25c1.31,2.48,3.51,5.85,6.34,4.78,1.76-.65,5.58-2.26,4-4.69-1.7-2.63-1.8-5.67-3.73-8.08-1.71-2.12-4.78.73-6.31,2.14-0.17.17,0.06,0.75-.11,1a3.47,3.47,0,0,0-1,3l0.8,1.88"/><path class="b" d="M209.94,397.82c1.45-.24,3-1.27,4.13-0.31,0.64,0.52.16,1.81,0.56,2.64s1.21,2.05,2,1.66c1.22-.61,1.35-2.28,2.19-3.39,2.33,1.1,4.91-.88,5.62-3.29a1.41,1.41,0,0,1,1.07-.89,2.41,2.41,0,0,0,2.23-.8c1.05-1.64,2-4.35.48-5.63-0.57-.46-1.66-0.07-2.54-0.47a0.83,0.83,0,0,0-1,.19c-0.9,1.32.11,4.24-2,4.18a6.09,6.09,0,0,0-3.83-4.07c-0.79-.25-0.16-1.73-0.83-2.39s-2.12-1.3-2.94-.41l-1.24,1.59a6.79,6.79,0,0,1-.26,1.39c-1,3.59-4.87,6-4.58,9.88,0,0.43.64,0.18,1,.12"/><path class="b" d="M255.9,438.42c-2.53-1.35-5,.79-6.65,2.52-0.63.68,0,2.05,0.62,2.85,0.77,1,.48,2.37,1.45,3.15a2.2,2.2,0,0,0,2,.26c1.77-.81,3.61-1.36,4.77-2.68s0.24-3.49-.69-5.09l-1.5-1"/><path class="b" d="M333.24,453c-1-1.08-1.86-2.28-3.13-2.68a23.81,23.81,0,0,0-9.37-.82c-0.48,0-1-.36-1.61-0.4-2.61-.17-5.19.42-7.81,0.24v3.49l-1.34,3c1.18,1.11,2.32,2.26,2.5,4a1,1,0,0,0,.74.74c1.21,0,1.53.89,2.42,1.12,1.12,0.3,2.14-.27,3.26-0.18,2.3,0.21,4.54-.94,7-1.37,2.8-.5,5.12,1.39,7.79.91,2.37-.44,1.49-2.94,3.78-3.63-1.92-2.26-2.25-2.24-4.18-4.41"/><path class="b" d="M209.18,477.77a0.7,0.7,0,0,0,.38.63c0.81,0.24.89,0.88,1.45,1.2a15.78,15.78,0,0,0,2.23.43c1.54,0.52,3.25.15,5,.26,2,0.15,3.23,1.82,5.13,2,1.68,0.12,1.52-1.75,3.19-1.81-0.91-1.87-1.15-1.89-2.08-3.72a5.69,5.69,0,0,0-1.66-2.36,16.73,16.73,0,0,0-6.22-2.15c-0.33-.07-0.65-0.43-1-0.56-1.74-.57-3.59-0.6-5.32-1.17-0.2.8-.41,1.57-0.61,2.37l-1.42,1.78a4.45,4.45,0,0,1,1,3.15"/><path class="b" d="M286,445.52c-0.89-.55-0.87-1.76-1.88-2s-2.15.71-3.19,0.32a12.86,12.86,0,0,0-2.84-1.21c-1.37-.07-2.68,2.74-1.55,3.66s2,1.76,3.08,2.57l1.5,1.73c0.91,0.42,1.45,1.46,2.59,1.49-0.32-2.35,1.75-3.68,3.28-5.09,0.25-.22-0.49-1.14-1-1.46"/><path class="b" d="M220.49,333.42c1.7,0.82,4.51,1,5.25-.55,0.94-2,.91-5.41-1.11-7-0.69-.51-1.66,0-2.33.68l-2.42,3.22c0.06,1.42-.77,2.93.61,3.62"/><path class="b" d="M227.42,319.33l6.46-3.22c-0.35,0,.58-9.57.31-9.72-0.44-.24.62-0.15,0.21-0.45a5.64,5.64,0,0,1-2.41-3.79c-2.93.68-3.72,3.55-4.61,6.07-0.5,1.44-2.68,1.9-3.41,3.62-0.48,1.14.73,1.64,1.18,2.46,0.89,1.69.21,4.23,2.26,5"/><path class="b" d="M249,343.48c0.51,1.88,2.44,3.89,4.18,2.62s4.23-2.1,4.36-4.57a43.76,43.76,0,0,0-.22-6.21c-0.12-1.25-1.86-1.52-2.6-.76-1.07,1.14-1.22,3-2.67,4-0.72.5-1.54,0-2.19,0.59a2.56,2.56,0,0,0-1.07,2.39l0.21,1.94"/><path class="b" d="M202.13,407.76c0.51,1.89,2.44,3.89,4.18,2.62s4.23-2.1,4.35-4.57a44.56,44.56,0,0,0-.22-6.23c-0.12-1.24-1.87-1.53-2.59-.77-1.07,1.14-1.24,3-2.68,4-0.72.5-1.53,0-2.19,0.59a2.59,2.59,0,0,0-1.07,2.4l0.21,1.94"/><path class="b" d="M354.25,379.49c2,0.17,3.94.41,5.45,2a1.17,1.17,0,0,0,1.24.16c1.22-.87,2.18-0.28,3.2-0.76,1.28-.55,1.87-1.86,3-2.6,2.38-1.56,3.68-4.33,5.69-6.59,2.3-2.57,6-2.51,8.19-5,2-2.2-.78-4,0.94-6.36-3.58-.73-3.86-0.44-7.39-1.09-1.73-.3-3.5-0.81-5-0.24a29.82,29.82,0,0,0-9.67,6.29c-0.43.39-1.28,0.44-1.85,0.82-2.64,1.81-4.69,4.33-7.35,6.12,0.88,1.13,1.77,2.25,2.66,3.38l0.94,3.87"/><path class="b" d="M314.08,249.7l3.27,2.28c0.72,1.22,1.47,2.45,2.19,3.67,2.66-1.8,5.72-2.8,8.38-4.6,0.57-.39.93-1.16,1.43-1.42a29.81,29.81,0,0,0,9.37-6.72c1.1-1.24,1.29-3,1.63-4.77,0.67-3.52,1-3.68,1.66-7.26-2.85.7-3.49-2.5-6.27-1.46-3.11,1.15-4.38,4.58-7.62,5.79-2.83,1.07-6.81-2.11-9.14-.46-1.09.79-2.55,0.84-3.54,1.84-0.79.79-.58,1.89-1.84,2.7-0.3.2,0.45,4.26,0.6,4.6,0.94,2,.45,3.9-0.11,5.8"/><path class="b" d="M260.9,210.29l4.82,0.7,4.43,2.85c1.89-3.46,4.71-6.22,6.62-9.66,0.42-.75.38-1.77,0.82-2.34a36.31,36.31,0,0,0,6.56-12.5c0.52-1.95-.26-4.06-0.86-6.13-1.18-4.22-.85-4.59-2.17-8.87-2.73,2.35-5.19-.82-7.66,1.86-2.78,3-2.27,7.43-5.15,10.54-2.53,2.71-5.76,4.6-7.4,7.7-0.78,1.46-2.33,2.31-2.86,3.93-0.43,1.31.4,2.39-.54,4a1.52,1.52,0,0,0,.33,1.51c2.1,1.67,2.62,4,3.06,6.42"/><path class="b" d="M305.44,352.35c1.68,0.82,4.51,1,5.25-.53,0.94-2,.92-5.41-1.12-7-0.68-.53-1.66,0-2.33.67l-2.41,3.22c0.06,1.42-.77,2.92.62,3.6"/><path class="b" d="M227.4,431.83l-0.73-.09c0.12,0,.37.05,0.73,0.09"/></svg>