<?xml version="1.0" encoding="UTF-8"?>
<svg id="Lager_1" data-name="Lager 1" xmlns="http://www.w3.org/2000/svg" viewBox="0 0 153.09 218.69">
  <defs>
    <style>
      .cls-1 {
        fill: #fff;
      }

      .cls-1, .cls-2, .cls-3 {
        fill-rule: evenodd;
      }

      .cls-2 {
        fill: #fcbd0e;
      }

      .cls-3 {
        fill: #1d1f22;
      }
    </style>
  </defs>
  <polyline class="cls-1" points="0 218.69 153.09 218.69 153.09 0 0 0 0 218.69"/>
  <path class="cls-3" d="M143.4,118.53L79.87,8.42c-1.5-2.6-5.25-2.6-6.75,0L9.6,118.53c-1.5,2.6.36,5.87,3.37,5.87h127.04c3.01,0,4.88-3.27,3.38-5.87"/>
  <path class="cls-3" d="M58.48,99.94l-.19-.02s.1.01.19.02"/>
  <path class="cls-2" d="M118.89,116.33c-11.96-2.4-58.59-11.76-60.04-12.12l39.79,12.12h-10.49c-.26-.68-.61-1.3-.79-1.43-.97-.64-2.16-.41-3.26-.74-.62-.18-4.57-2.25-5.2-2.37-.61-.12-1.28-.19-1.86.08l-.69.62c0,.07-.02.17.01.19.22.17.42.34.52.58.19.43,3.99,2.38,4.29,2.69.15.16.33.28.54.38h-4.08l-12.04-5.91c-.02-.35-.05-.7-.12-1.06-.1-.51.35-.97.2-1.35-.19-.49-.89-.56-1.38-.79-.39.42-1.03.23-1.43.64-.12.12-.12.35-.09.53l.06.67-5.46-2.68c.25-.05.58-.05.62-.18.12-.44-.09-.99-.36-1.42-.22-.36-.66-.41-1.07-.5-.35-.07-.45-.48-.77-.54-.51-.09-1.03.05-1.5.31-.12.21.11.4-.12.53-.27.16-.61.17-.88.3-.11.06-.09.27-.05.42.09.36.19.7.11,1.06l1.63,1.1c.23.03.49.31.58.07.01-.03.02-.05.03-.07-.05.03.03-.1,0,0,0,0,.02-.02.05-.04.02-.02.04-.04.07-.06l15.62,8.96H20.23l19.67-34.11,4.39,9.94.72-.94-3.83-11.22,1.94-3.37,2.12,10.9.26.13-.15-1.47c.27,1.5,1,3.76,1.09,3.92.12.22.42.29.49.57.28-.11.54-.36.61-.58.24-.75,2.18-1.65,2.06-2.44-.11-.67-1.97-.97-1.9-1.68.02-.18,1.7-.04,1.55-.08-.37-.1,1.38-2.34-1.05-1.75-.34.08-2.4.69-2.77.72-.1,0-.15.13-.16.32l-1.05-10.43,9.98-17.3-1.74,16.64c-.24,0-.46-.05-.66-.23-.35-.33-.55-.81-.91-1.11-.08-.07-.29.16-.45.23-.57.23-1.42.22-1.6.82-.22.72.12,1.6-.51,2.17-.05.05-.17.12-.19.16-.27.52-.66.92-.91,1.43-.06.12-.07.3,0,.4.55.72,1.02,1.35,1.57,2.08.11.15.35-.17.56-.08.68.31,1.32.05,1.93-.25l.54-.66c0-.16-.01-.31,0-.47.01-.11.12-.17.18-.25l-1.18,11.23,9.74-43.17,15.94-27.64,4.72,8.18-28.32,63.19,33.31-54.54,6.49,11.25-28.59,35.13,29.98-32.71,3.22,5.58-43.3,40.26,46.07-35.46,3.86,6.68-49.64,31.62c-.29-.08-.57-.18-.73-.31-.18-.15.13-.48.01-.72-.12-.26-.43-.55-.74-.39,0,0-.61.54-.68.64-.61.85-1.85,1.11-2.16,2.17-.03.12.15.11.25.12.4.08.9-.05,1.12.31,0,.01,0,.02.01.03l-.66.42.68-.34c.01.19-.15.42-.13.64.02.24.12.66.35.63.38-.05,2.29-.45,2.7-1.02.04-.06.83.03,1.03-.12.43-.32.96-.95.67-1.43-.11-.18-.43-.18-.62-.37-.03-.03-.21-.06-.46-.11l7.57-3.85s.02.06.04.08c.04.08.2.06.25.15.1.18.24.39.37.43.21.05.47.12.71.05l.31-.07c.34-.05.69-.06.99-.2.17-.08.25-.33.17-.52-.16-.35-.19-.76-.43-1.05-.02-.02-.04-.04-.06-.07l42.15-21.43,7.47,12.96-52.51,12.09,55.67-6.6,4.11,7.13-47.78,1.12.18.27,48.95.95,2.47,4.28c-15.09-.83-63.51-3.49-67.07-3.84l69.81,8.6,4.49,7.79h-13.89"/>
  <path class="cls-2" d="M103.26,115.84l-7.58-2.14,15.86,2.14h-8.28ZM127.02,106.33l.46.79-11.01-1.68,9.74-.46.81,1.35ZM105.67,69.33l-7.86,3.62,7.28-4.63.58,1.01ZM99,57.75l-10.82,8.56,10.24-9.57.59,1.01ZM84.27,32.22l-8.29,13.95,7.18-15.87,1.11,1.92Z"/>
  <path class="cls-3" d="M50.79,107.29c-.1-.49-.07-1.12-.4-1.32-.4-.26-1.07-.09-1.53.22-.15-.56-.65-.83-.97-1.3-.28-.41.05-.94.38-1.27.31-.32.92-.29,1.17-.64.22-.32.07-.82-.11-1.21-.16-.35-.6-.38-.86-.41-.37-.04-.8.1-1.17-.16-.35-.25-.48-.62-.75-.92-.27-.3-.73-.29-1.02-.64-.26-.31-.64,0-.94.02-.64.05-1.61.35-1.84-.38-.23-.73.72-.97,1-1.51.4-.77.42-1.67.16-2.49-.07-.22-.27-.43-.46-.61-.09-.09-.23-.2-.35-.29-.18-.14-.07-.67-.19-.65-4.06.96-7.07,4.6-7.07,8.94,0,5.07,4.11,9.18,9.19,9.18,2.66,0,5.06-1.13,6.73-2.94l-.12-.66c-.21-.42-.76-.47-.85-.96"/>
  <path class="cls-3" d="M48.04,96.89c.4,0,.49.47.81.62.24.12.57.04.84-.05.47-.15.84-.48,1.25-.77.38-.26.41-1-.04-1.26-.29-.17-.61-.17-.92-.37-.43-.28-.88.14-1.32.05-.28-.05-.56-.18-.82-.28-.6-.21-1.02.31-1.35.77-.1.14.1.37.08.58l-.19-.25c0,.2-.07.48.04.58.41.4,1.05.35,1.61.35"/>
  <path class="cls-3" d="M39.89,93.82c.19.14.52-.08.7-.25.25-.23.59-.2.76-.48.08-.14.08-.38,0-.52-.26-.42-.46-.87-.85-1.12-.38-.25-.89.06-1.27.35l-.21.41c-.26.69.37,1.25.87,1.62"/>
  <path class="cls-3" d="M42.24,90.5c-.14.24-.52.14-.52.46l.07.21c-.11.28-.18.61.03.8.3.26.74.31,1.14.22.01,0-.01-.15.01-.16.25-.11.33-.37.42-.53.26-.49-.33-.83-.72-1.12-.13-.09-.37.02-.43.13"/>
  <path class="cls-3" d="M39.58,88.48c.34.64.9,1.5,1.63,1.23.45-.17,1.44-.58,1.03-1.21-.44-.68-.46-1.46-.96-2.08-.44-.55-1.23.19-1.62.55-.04.04.02.19-.03.25-.22.25-.3.46-.26.77l.21.48"/>
  <path class="cls-3" d="M53.99,91.2c.37-.06.76-.33,1.06-.08.17.13.04.47.15.68.1.2.31.53.5.43.32-.16.35-.59.56-.87.6.28,1.26-.22,1.45-.85.02-.07.14-.23.28-.23.23,0,.45-.01.57-.21.27-.42.52-1.12.12-1.45-.15-.12-.43-.02-.65-.12-.09-.04-.21-.02-.25.05-.23.34.03,1.09-.51,1.08-.13-.47-.49-.88-.98-1.05-.2-.06-.04-.44-.21-.61-.18-.18-.54-.33-.76-.11l-.32.41c0,.12-.04.25-.07.36-.27.92-1.25,1.54-1.18,2.54,0,.11.16.05.25.03"/>
  <path class="cls-3" d="M65.81,101.64c-.65-.35-1.29.2-1.71.65-.16.18,0,.53.16.73.2.27.12.61.37.81.13.1.36.14.52.07.46-.21.93-.35,1.23-.69.3-.34.06-.9-.18-1.31l-.39-.26"/>
  <path class="cls-3" d="M85.7,105.38c-.25-.28-.48-.59-.81-.69-.79-.25-1.57-.28-2.41-.21-.12,0-.27-.09-.41-.1-.67-.04-1.34.11-2.01.06v.9l-.35.76c.3.29.6.58.64,1.04,0,.08.12.18.19.19.31.01.39.23.62.29.29.07.55-.07.84-.05.59.05,1.17-.24,1.79-.35.72-.13,1.32.36,2,.23.61-.11.38-.76.97-.93-.49-.58-.58-.57-1.08-1.13"/>
  <path class="cls-3" d="M53.8,111.76c0,.06.05.15.1.16.21.06.23.23.37.31.18.09.38.04.57.11.4.14.83.04,1.28.07.51.04.83.47,1.32.51.43.03.39-.45.82-.47-.24-.48-.3-.49-.54-.96-.12-.23-.22-.48-.43-.61-.49-.3-1.02-.46-1.6-.55-.08-.02-.17-.11-.26-.14-.45-.15-.92-.16-1.37-.3-.05.2-.1.4-.16.61l-.37.46c.16.24.31.49.26.81"/>
  <path class="cls-3" d="M73.55,103.46c-.23-.14-.23-.45-.48-.52-.29-.07-.55.18-.82.08-.25-.1-.51-.29-.73-.31-.35-.02-.69.7-.4.94.27.21.5.45.79.66l.39.45c.23.11.37.38.67.38-.08-.6.45-.95.84-1.31.06-.06-.13-.29-.25-.38"/>
  <path class="cls-3" d="M56.71,74.63c.44.21,1.16.25,1.35-.14.24-.51.23-1.39-.28-1.79-.18-.13-.43,0-.6.18l-.62.83c.02.37-.2.75.16.93"/>
  <path class="cls-3" d="M58.49,71.01l1.66-.83c-.09,0,.15-2.46.08-2.5-.11-.06.16-.04.05-.12-.33-.25-.57-.57-.62-.98-.75.17-.96.91-1.18,1.56-.13.37-.69.49-.88.93-.12.29.19.42.3.63.23.43.05,1.09.58,1.3"/>
  <path class="cls-3" d="M64.04,77.22c.13.48.63,1,1.07.67.46-.33,1.09-.54,1.12-1.17.03-.53,0-1.06-.06-1.6-.03-.32-.48-.39-.67-.19-.27.29-.32.78-.69,1.03-.18.13-.39,0-.56.15-.19.17-.32.37-.27.61l.05.5"/>
  <path class="cls-3" d="M51.98,93.75c.13.49.63,1,1.08.67.46-.33,1.09-.54,1.12-1.18.03-.53,0-1.06-.06-1.6-.03-.32-.48-.39-.67-.2-.27.29-.32.78-.69,1.03-.18.13-.39,0-.56.15-.19.17-.32.37-.27.62l.05.5"/>
  <path class="cls-3" d="M91.1,86.48c.5.05,1.01.11,1.4.51.06.07.25.09.32.04.31-.23.56-.07.82-.2.33-.14.48-.48.77-.67.61-.4.95-1.11,1.46-1.69.59-.66,1.54-.64,2.11-1.28.51-.57-.2-1.02.24-1.64-.92-.19-.99-.11-1.9-.28-.45-.08-.9-.21-1.3-.06-.95.36-1.73.92-2.49,1.62-.11.1-.33.11-.48.21-.68.47-1.21,1.11-1.89,1.57.23.29.46.58.68.87l.24.99"/>
  <path class="cls-3" d="M80.77,53.1l.84.58c.19.32.38.63.56.95.68-.47,1.47-.72,2.15-1.19.15-.1.24-.3.37-.36.93-.46,1.73-.97,2.41-1.73.28-.32.33-.78.42-1.23.17-.91.27-.95.43-1.87-.73.18-.9-.64-1.61-.38-.8.3-1.13,1.18-1.96,1.49-.73.27-1.75-.54-2.35-.12-.28.2-.65.21-.91.47-.2.2-.15.49-.47.69-.08.05.12,1.1.15,1.18.24.51.11,1-.03,1.49"/>
  <path class="cls-3" d="M67.1,42.97l1.24.18c.38.24.76.49,1.14.73.49-.89,1.21-1.6,1.7-2.48.11-.19.1-.46.21-.6.76-1.01,1.36-2.02,1.69-3.21.13-.5-.07-1.04-.22-1.58-.3-1.08-.22-1.18-.56-2.28-.7.6-1.34-.21-1.97.48-.72.77-.58,1.91-1.33,2.71-.65.7-1.48,1.18-1.9,1.98-.2.38-.6.59-.74,1.01-.11.34.1.62-.14,1.02-.05.09,0,.32.08.39.54.43.67,1.04.79,1.65"/>
  <path class="cls-3" d="M78.55,79.5c.43.21,1.16.25,1.35-.14.24-.51.24-1.39-.29-1.79-.17-.14-.43,0-.6.17l-.62.83c.01.36-.2.75.16.93"/>
  <polyline class="cls-2" points="10.18 133.07 142.92 133.07 142.92 208.68 10.18 208.68 10.18 133.07"/>
  <path class="cls-3" d="M36.93,153.86h9.78v-2.26h-7.05v-3.59h6.18v-2.15h-6.18v-2.91h6.94v-2.2h-9.67v13.11ZM116.13,153.86v-1.94h-.94c-.31,0-.61-.17-.74-.35-.05-.07-.13-.22-.13-.74v-4.67h1.72v-1.72h-1.7l-.02-2.98h-2.52v2.98h-1.33v1.74l1.33-.02v4.87c0,2.13.87,2.83,2.28,2.83h2.05ZM103.66,153.86h2.5l3.22-9.42h-2.57l-1.89,6.2-1.87-6.18h-2.57l3.18,9.41ZM96.57,153.86h2.54v-9.42h-2.54v9.42ZM96.59,143.01h2.54v-2.26h-2.54v2.26ZM86.04,150.71c.06,1.78,1.54,3.48,4.44,3.48s4.22-1.57,4.22-3.26c0-.59-.2-1.18-.57-1.65-.35-.45-.81-.78-1.93-1.04l-2.72-.63c-.55-.15-.8-.5-.8-.83,0-.37.35-.94,1.57-.94,1.35,0,1.94.7,1.96,1.46l2.22-.04c-.04-.95-.54-1.89-1.35-2.48-.54-.39-1.43-.72-2.8-.72-2.7,0-3.91,1.46-3.91,3.07,0,.76.2,1.3.65,1.78.33.35.76.65,1.8.87l2.05.46c1.19.26,1.33.63,1.33,1.07,0,.41-.41,1.05-1.8,1.05s-2-.7-2.09-1.68l-2.3.02ZM79.52,154.21c2.87,0,4.96-2.02,4.96-5.09s-2.07-5.04-4.98-5.04-4.92,2.04-4.92,5.02,2.07,5.11,4.94,5.11ZM79.5,152.23c-1.2,0-2.35-.93-2.35-3.02,0-2.26,1.13-3.15,2.37-3.15s2.37.91,2.37,3.05-1.15,3.11-2.39,3.11ZM70.26,153.86h2.54v-13.11h-2.52l-.02,13.11ZM61.56,152.77c.54.87,1.46,1.41,2.76,1.41,2.57,0,4.17-2.39,4.17-5.07s-1.55-4.96-4.13-4.96c-1.15,0-2.07.46-2.74,1.28l-.11-.96-2.5.02v12.46h2.54l.02-4.17ZM63.82,152.23c-1.22,0-2.24-.82-2.24-2.85,0-2.28,1.11-3.07,2.15-3.07s2.18.85,2.18,2.94c0,1.39-.59,2.96-2.09,2.98ZM48.04,153.86h2.81l1.96-2.94,1.74,2.94h3.02l-3.31-4.92,2.94-4.5h-2.67l-1.56,2.63-1.55-2.61h-2.94l2.98,4.48-3.43,4.92Z"/>
  <path class="cls-3" d="M54.78,166.78h2.54l.02-2.57h-2.54l-.02,2.57ZM92.79,173.31l7,.02c0-2.8-1.26-5.76-4.78-5.76s-4.74,2.87-4.74,5.02c0,3.13,2.07,5.07,4.72,5.07s4.24-1.42,4.63-3.07l-2.55-.17c-.48.87-1.15,1.22-1.96,1.22-1.2,0-2.18-.81-2.31-2.33ZM92.91,171.48c.15-1.15,1.09-1.92,2.06-1.92,1.04,0,1.93.7,2.09,1.92h-4.15ZM80.06,177.33h2.54l.02-5.28c0-.74.15-1.09.35-1.39.33-.48.93-.8,1.54-.8.89,0,1.52.57,1.52,1.63l-.02,5.83h2.54v-6.65c0-1.76-1.3-3.11-3.24-3.11-1.35,0-2.3.72-2.63,1.46l-.09-1.11-2.5-.02-.02,9.42ZM64.3,177.33h2.54l.02-5.44c0-1.35.76-2.04,1.78-2.04.67,0,1.07.33,1.26.8.04.09.11.3.11,1.04v5.65h2.52v-5.59c0-1.22.76-1.92,1.76-1.92.85,0,1.43.52,1.43,1.63v5.89h2.48l-.02-6.61c-.05-1.98-1.31-3.11-3-3.11-1.32,0-2.33.61-2.91,1.65-.48-.98-1.52-1.65-2.76-1.65s-2.13.56-2.63,1.5l-.09-1.18-2.46-.02-.02,9.42ZM59.6,176.26c.05.37.18.78.33,1.07h2.55c-.15-.13-.39-.55-.39-1.33l-.04-4.81c-.02-.83-.07-1.07-.13-1.28-.39-1.3-1.44-2.33-4-2.33-2.93,0-4.09,1.5-4.09,3.15l2.24.04c.09-.63.18-.76.39-.94.24-.22.72-.45,1.48-.45,1.19,0,1.63.63,1.63,1.07s-.28.76-.96.89l-2.56.44c-1.91.33-2.8,1.57-2.8,2.82,0,1.63,1.26,3.02,3.54,3.02,1.57,0,2.44-.63,2.8-1.35ZM59.6,172.31v1.41c-.06,1.18-.87,2-2.24,2-1.07,0-1.57-.63-1.57-1.18,0-.44.22-1.02,1.72-1.39l1.09-.3c.43-.09.76-.3,1-.54ZM58.08,166.78l2.56.02v-2.57h-2.54l-.02,2.56Z"/>
</svg>