<svg xmlns="http://www.w3.org/2000/svg" viewBox="0 0 595.28 850.36"><defs><style>.a{fill:#fcc00d;}.a,.b{fill-rule:evenodd;}.b{fill:#000100;}</style></defs><title>W003b_C</title><polyline class="a" points="0 850.36 595.28 850.36 595.28 0 0 0 0 850.36"/><path class="b" d="M92.08,626.29v4.32c0,6.12,1.15,8.35,3.46,10.94,2.73,3,6.62,4.9,12.81,4.9,4.9,0,9.36-.94,13-4.46,2.66-2.74,3.89-5.62,3.89-10.23V593.89H114.69v36.94c-0.07,3.24-.51,3.88-1.22,4.9a6.38,6.38,0,0,1-5.18,2.38c-3.89,0-6.63-2.31-6.55-8l0.07-3.81H92.08Zm385.4,3,27.21,0.07c0-10.87-4.9-22.39-18.57-22.39-14,0-18.43,11.16-18.43,19.51,0,12.17,8.06,19.73,18.36,19.73s16.49-5.54,18-11.95l-9.93-.65c-1.87,3.38-4.46,4.75-7.63,4.75C481.8,638.32,478,635.15,477.48,629.24Zm0.43-7.13a8.37,8.37,0,0,1,8-7.49c4,0,7.49,2.73,8.13,7.49H477.91Zm-27.29,19,0.43,3.74h9.72v-51h-9.93V612.4c-1.73-2.88-5.9-5.33-10.58-5.33-8.13,0-16.27,6.84-16.27,19.66a21.4,21.4,0,0,0,4.76,14,13.88,13.88,0,0,0,11.16,5.33A13.19,13.19,0,0,0,450.62,641.12Zm-7.77-3.53c-4.68,0-8.71-3.31-8.71-11.09,0-8.71,4.25-11.81,8.28-11.81s8.35,3.1,8.35,11.52C450.77,634.28,446.52,637.53,442.85,637.6Zm-58.61,7.27h9.86l0.07-20.52c0-2.88.58-4.25,1.37-5.4a7.39,7.39,0,0,1,6-3.1c3.45,0,5.9,2.23,5.9,6.34l-0.07,22.68h9.87V619c0-6.84-5-12.1-12.6-12.1-5.26,0-8.93,2.81-10.23,5.69L394,608.29l-9.72-.07ZM366,640.69a11.57,11.57,0,0,0,1.15,4.18h10.08a5.47,5.47,0,0,1-1.66-3.81V621c0-8.78-4.53-14-16.49-14-11.09,0-15.69,6.05-15.48,12.24l8.71,0.14c0-2.74,2-5.33,7.05-5.33,4.83,0,6.48,2.38,6.48,4.1,0,1.51-.94,2.88-3.6,3.39l-5.69.93c-8.06,1.44-10.22,3-11.81,4.32a10.19,10.19,0,0,0-3.39,7.63c0,6,4.75,11.52,14,11.52C360.7,645.87,363.87,644.08,366,640.69ZM366,625.57L366,630.18c0,5.18-3.24,8.42-8.86,8.42-4.1,0-6.12-2.45-6.12-4.68,0-1.73.58-3.67,6.84-5.4l4.25-1.15A12.1,12.1,0,0,0,366,625.57Zm-47.59,19.29h9.87l0.07-16.27c0-5.47,1.29-8,3-9.72A8.72,8.72,0,0,1,338,616a13.28,13.28,0,0,1,1.66.14l0.07-8.71a14.07,14.07,0,0,0-2.09-.22,9.38,9.38,0,0,0-9.14,6.55l-0.36-5.54h-9.65Zm-34.05-15.62,27.15,0.07c0-10.87-4.9-22.39-18.5-22.39-14,0-18.43,11.16-18.43,19.51,0,12.17,8.06,19.73,18.36,19.73s16.41-5.54,17.93-11.95l-9.93-.65c-1.87,3.38-4.39,4.75-7.56,4.75C288.7,638.32,284.89,635.15,284.38,629.24Zm0.44-7.13a8.37,8.37,0,0,1,8-7.49c4,0,7.42,2.73,8.06,7.49H284.82Zm-50.4,10.51c0.22,6.91,6.05,13.54,17.28,13.54s16.42-6.12,16.42-12.67a10.35,10.35,0,0,0-2.23-6.41c-1.37-1.73-3.17-3-7.49-4l-10.51-2.45c-2.23-.58-3.1-1.94-3.1-3.24s1.29-3.67,6-3.67c5.26,0,7.56,2.73,7.63,5.69l8.71-.14a13.22,13.22,0,0,0-5.26-9.65c-2.16-1.51-5.54-2.81-10.94-2.81-10.51,0-15.19,5.69-15.19,12a9.44,9.44,0,0,0,2.59,6.91c1.29,1.37,2.88,2.52,7,3.39l7.92,1.8c4.61,1,5.18,2.45,5.18,4.18s-1.51,4.1-7,4.1c-5.18,0-7.78-2.74-8.06-6.55Zm-16.77,12.24h9.87V608.22h-9.79Zm0.07-42.19h9.86v-8.78h-9.86v8.78Zm-40.54,42.19H187l0.07-20.52c0-2.88.58-4.25,1.36-5.4a7.4,7.4,0,0,1,6-3.1c3.46,0,5.91,2.23,5.91,6.34l-0.07,22.68h9.86V619c0-6.84-5-12.1-12.6-12.1-5.25,0-8.93,2.81-10.22,5.69L187,608.29l-9.72-.07ZM151,646.24c11.16,0,19.29-7.85,19.29-19.8,0-11.59-8-19.58-19.37-19.58-11.09,0-19.22,7.92-19.22,19.51C131.67,638.46,139.81,646.24,151,646.24Zm-0.07-7.7c-4.68,0-9.14-3.6-9.14-11.74,0-8.78,4.39-12.24,9.22-12.24s9.22,3.53,9.22,11.88C160.19,635,155.72,638.53,150.9,638.53Z" transform="translate(-0.8 -0.95)"/><path class="b" d="M155.57,719.71c0.14,6.91,6,13.54,17.21,13.54,11.45,0,16.49-6.12,16.49-12.67a10.42,10.42,0,0,0-2.3-6.41c-1.37-1.73-3.1-3-7.49-4L169,707.68c-2.16-.58-3.1-1.94-3.1-3.24s1.29-3.67,6.12-3.67c5.18,0,7.49,2.74,7.56,5.69l8.71-.14a13,13,0,0,0-5.25-9.65c-2.16-1.51-5.54-2.81-10.87-2.81-10.58,0-15.19,5.69-15.19,12a9.42,9.42,0,0,0,2.52,6.91c1.29,1.36,2.88,2.52,7,3.38l7.92,1.8c4.68,1,5.18,2.45,5.18,4.18s-1.51,4.1-6.91,4.1c-5.18,0-7.85-2.74-8.13-6.55ZM406.19,734a10.73,10.73,0,0,0,3.6,7.34c2.16,2.16,6.34,4.18,13.39,4.18,8,0,13-3,15.48-6.12,1.73-2.23,2.59-4.25,2.59-9.72V695.3h-9.43l-0.36,4.46c-0.65-1.15-2.66-5.76-10.8-5.76-8.85,0-16.56,7.06-16.56,18.36s7.71,18.43,16.49,18.43c5.83,0,9.43-2.66,10.87-5.47v4c0,6.19-2.88,8.78-8.49,8.78-4.32,0-6.34-2.16-6.63-4.46Zm16.7-11.67c-4.83,0-8.78-3.46-8.78-10.22,0-5.9,4-9.65,8.57-9.65s8.64,3.74,8.64,9.93S427.14,722.3,422.9,722.3Zm-58.53,9.65h9.86l0.07-20.52c0-2.88.58-4.25,1.37-5.4a7.39,7.39,0,0,1,6-3.1c3.38,0,5.83,2.23,5.83,6.34v22.68h9.87V706.1c0-6.84-5-12.1-12.67-12.1-5.25,0-8.93,2.81-10.15,5.69l-0.43-4.32-9.65-.07Zm-17.5,0h9.87V695.3h-9.87v36.64Zm0-42.19h9.87V681h-9.87v8.78Zm-40.46,42.19h9.86l0.07-20.52c0-2.88.58-4.25,1.37-5.4a7.39,7.39,0,0,1,6-3.1c3.39,0,5.83,2.23,5.83,6.34v22.68h9.86V706.1c0-6.84-5-12.1-12.67-12.1-5.26,0-8.93,2.81-10.15,5.69l-0.43-4.32-9.65-.07Zm-17.42,0h9.79V681h-9.72Zm-17.21-4.18a15,15,0,0,0,1.3,4.18h10c-0.58-.5-1.58-2.16-1.58-5.18L281.43,708a17.12,17.12,0,0,0-.58-5c-1.44-5-5.54-9.07-15.48-9.07-11.45,0-15.91,5.83-15.91,12.24l8.64,0.14c0.44-2.45.79-3,1.59-3.67s2.73-1.73,5.69-1.73c4.61,0,6.4,2.45,6.4,4.18s-1.08,3-3.81,3.46l-9.86,1.73c-7.42,1.29-10.87,6.12-10.87,10.94,0,6.33,4.9,11.74,13.75,11.74C267.1,733,270.41,730.58,271.77,727.77Zm0.07-15.34-0.07,5.47c-0.21,4.61-3.31,7.77-8.71,7.77-4.1,0-6.12-2.45-6.12-4.61,0-1.73.86-4,6.7-5.4l4.32-1.15A8.09,8.09,0,0,0,271.85,712.44Zm-7.2-21.38a5.12,5.12,0,0,0-.21-10.22,5.19,5.19,0,0,0-5.18,5.11A5.11,5.11,0,0,0,264.65,691.05ZM264.5,689a3,3,0,0,1-3.1-3,3.16,3.16,0,0,1,3-3.1,3,3,0,0,1,3,3.1A3,3,0,0,1,264.5,689Zm-40.17,43h9.86V715.68c0-5.47,1.37-8,3-9.72a8.84,8.84,0,0,1,6.7-2.88,14.42,14.42,0,0,1,1.73.14v-8.71a14.74,14.74,0,0,0-2.09-.22,9.46,9.46,0,0,0-9.15,6.55L234,695.3h-9.72v36.64Zm-7.28,0v-7.56h-3.67a3.66,3.66,0,0,1-2.81-1.37c-0.21-.29-0.51-0.86-0.51-2.88V702h6.7v-6.7h-6.7L210,683.71h-9.79V695.3H195.1v6.77l5.18-.07v18.93c0,8.28,3.39,11,8.78,11h8Z" transform="translate(-0.8 -0.95)"/><path class="b" d="M558.37,505.07l-247-428.16a15.15,15.15,0,0,0-26.25,0l-247,428.16a15.21,15.21,0,0,0,13.12,22.84h494A15.21,15.21,0,0,0,558.37,505.07ZM79.45,496.52L298.27,117.07,517.1,496.52H79.45Z" transform="translate(-0.8 -0.95)"/><path class="b" d="M298.25,390.94a20.65,20.65,0,1,0-20.67-20.67,20.67,20.67,0,0,0,20.67,20.67" transform="translate(-0.8 -0.95)"/><path class="b" d="M194,370.29a104.11,104.11,0,0,1,52.14-90.22L281,340.49a34.42,34.42,0,0,0-17.18,29.79H194" transform="translate(-0.8 -0.95)"/><path class="b" d="M350.4,460.51a104.35,104.35,0,0,1-104.28,0l35-60.4a34.48,34.48,0,0,0,34.4,0l34.92,60.41" transform="translate(-0.8 -0.95)"/><path class="b" d="M350.4,280.07a104.06,104.06,0,0,1,52.15,90.21l-69.84,0a34.36,34.36,0,0,0-17.23-29.76l34.92-60.4" transform="translate(-0.8 -0.95)"/></svg>