<?xml version="1.0" encoding="UTF-8"?>
<svg id="Lager_1" data-name="Lager 1" xmlns="http://www.w3.org/2000/svg" viewBox="0 0 153.09 218.69">
  <defs>
    <style>
      .cls-1 {
        fill: #fff;
      }

      .cls-1, .cls-2, .cls-3 {
        fill-rule: evenodd;
      }

      .cls-2 {
        fill: #fcbd0e;
      }

      .cls-3 {
        fill: #1d1f22;
      }
    </style>
  </defs>
  <polyline class="cls-1" points="0 218.69 153.09 218.69 153.09 0 0 0 0 218.69"/>
  <path class="cls-3" d="M143.4,118.53L79.87,8.42c-1.5-2.6-5.25-2.6-6.75,0L9.6,118.53c-1.5,2.6.36,5.87,3.38,5.87h127.04c3.01,0,4.88-3.27,3.38-5.87"/>
  <polyline class="cls-2" points="20.23 116.33 76.5 18.74 132.78 116.33 20.23 116.33"/>
  <path class="cls-3" d="M76.5,89.18c2.94,0,5.32-2.38,5.32-5.32s-2.38-5.31-5.32-5.31-5.32,2.38-5.32,5.31,2.38,5.32,5.32,5.32"/>
  <path class="cls-3" d="M49.68,83.86c0-9.91,5.39-18.57,13.41-23.2l8.96,15.54c-2.64,1.53-4.42,4.39-4.42,7.66h-17.95"/>
  <path class="cls-3" d="M89.91,107.07c-8.6,4.96-18.79,4.62-26.82,0l8.99-15.53c2.65,1.52,6.01,1.63,8.85,0l8.98,15.53"/>
  <path class="cls-3" d="M89.91,60.66c8.6,4.96,13.4,13.95,13.41,23.2h-17.96c0-3.06-1.6-6.03-4.43-7.66l8.98-15.53"/>
  <polyline class="cls-2" points="10.2 133.08 142.93 133.08 142.93 208.69 10.2 208.69 10.2 133.08"/>
  <path class="cls-3" d="M30.4,147.93v-3.63h3c.72,0,.92.09,1.2.26.52.33.85.98.85,1.57,0,1-.78,1.83-2.15,1.82l-2.91-.02ZM125.4,155.21v-1.94h-.94c-.32,0-.59-.17-.74-.35-.04-.07-.11-.22-.11-.74v-4.67h1.7v-1.72h-1.7l-.02-2.98h-2.52v2.98h-1.33v1.74l1.35-.02-.02,4.87c0,2.13.87,2.83,2.28,2.83h2.06ZM112.94,155.21h2.5l3.22-9.42h-2.57l-1.87,6.2-1.87-6.18h-2.59l3.18,9.41ZM105.85,155.21h2.54v-9.42h-2.52l-.02,9.42ZM105.87,144.36h2.54v-2.26h-2.54v2.26ZM104.09,155.21v-1.94h-.94c-.31,0-.59-.17-.74-.35-.04-.07-.11-.22-.11-.74v-4.67h1.7v-1.72h-1.7l-.02-2.98h-2.52v2.98h-1.33v1.74l1.35-.02-.02,4.87c0,2.13.87,2.83,2.28,2.83h2.06ZM88.52,155.21h2.54l-.02-3.09,1.07-1.06,2.59,4.15h3.09l-3.87-5.8,3.37-3.63h-2.98l-3.26,3.59-.02-7.28h-2.54l.02,13.11ZM83.8,154.14c.06.46.15.8.3,1.07h2.59c-.33-.39-.43-.67-.43-.98v-5.17c0-2.26-1.17-3.61-4.24-3.61-2.85,0-4.04,1.55-3.98,3.15l2.24.04c0-.7.52-1.37,1.82-1.37s1.65.61,1.65,1.05c0,.39-.24.74-.91.87l-1.46.24c-2.07.37-2.63.76-3.04,1.11-.56.5-.87,1.2-.87,1.96,0,1.55,1.22,2.96,3.61,2.96,1.37,0,2.18-.46,2.72-1.33ZM83.82,150.25l-.02,1.18c0,1.33-.83,2.17-2.28,2.17-1.05,0-1.57-.63-1.57-1.2,0-.44.15-.94,1.76-1.39l1.09-.3c.48-.13.81-.32,1.02-.46ZM71.17,155.56c2.87,0,4.96-2.02,4.96-5.09s-2.05-5.04-4.98-5.04-4.94,2.04-4.94,5.02,2.09,5.11,4.96,5.11ZM71.15,153.58c-1.2,0-2.35-.92-2.35-3.02,0-2.26,1.13-3.15,2.37-3.15s2.37.91,2.37,3.05-1.15,3.11-2.39,3.11ZM61.89,155.21h2.54v-9.42h-2.52l-.02,9.42ZM61.91,144.36h2.54v-2.26h-2.54v2.26ZM57.32,154.25l.11.96h2.5v-13.11h-2.56v4.76c-.44-.74-1.52-1.37-2.72-1.37-2.09,0-4.18,1.76-4.18,5.06,0,1.5.48,2.74,1.22,3.61.78.95,1.76,1.37,2.87,1.37s2.09-.45,2.76-1.28ZM55.32,153.34c-1.2,0-2.24-.85-2.24-2.85,0-2.24,1.09-3.04,2.13-3.04s2.15.8,2.15,2.96-1.09,2.91-2.04,2.93ZM46.14,154.14c.06.46.15.8.3,1.07h2.59c-.33-.39-.43-.67-.43-.98v-5.17c0-2.26-1.17-3.61-4.24-3.61-2.85,0-4.04,1.55-3.98,3.15l2.24.04c0-.7.52-1.37,1.82-1.37s1.65.61,1.65,1.05c0,.39-.24.74-.91.87l-1.46.24c-2.07.37-2.63.76-3.04,1.11-.55.5-.87,1.2-.87,1.96,0,1.55,1.22,2.96,3.61,2.96,1.37,0,2.18-.46,2.72-1.33ZM46.15,150.25l-.02,1.18c0,1.33-.83,2.17-2.28,2.17-1.05,0-1.57-.63-1.57-1.2,0-.44.15-.94,1.76-1.39l1.09-.3c.48-.13.81-.32,1.02-.46ZM27.68,155.21h2.72l.02-5.18,2.35.02c.94,0,1.61.41,2,1.07.15.26.2.55.28.83.26,1.07-.02,2.24.5,3.26h2.74c-.17-.3-.35-.83-.41-1.37l-.22-2.32c-.09-.94-.32-1.35-.67-1.74-.41-.43-1.06-.74-1.72-.8,1.68-.19,2.85-1.46,2.85-3.22,0-2.05-1.65-3.81-4.41-3.67h-6.02l-.02,13.11Z"/>
  <path class="cls-3" d="M54.78,166.79h2.54l.02-2.57h-2.54l-.02,2.57ZM92.79,173.33l7,.02c0-2.8-1.26-5.76-4.78-5.76s-4.74,2.87-4.74,5.02c0,3.13,2.07,5.07,4.72,5.07s4.24-1.43,4.63-3.07l-2.55-.17c-.48.87-1.15,1.22-1.96,1.22-1.2,0-2.18-.81-2.32-2.33ZM92.9,171.5c.15-1.15,1.09-1.93,2.06-1.93,1.04,0,1.93.7,2.09,1.93h-4.15ZM80.06,177.35h2.54l.02-5.28c0-.74.15-1.09.35-1.39.33-.48.92-.8,1.54-.8.89,0,1.52.57,1.52,1.63l-.02,5.83h2.54v-6.65c0-1.76-1.3-3.11-3.24-3.11-1.35,0-2.3.72-2.63,1.46l-.09-1.11-2.5-.02-.02,9.43ZM64.3,177.35h2.54l.02-5.44c0-1.35.76-2.04,1.78-2.04.67,0,1.07.33,1.26.8.04.09.11.3.11,1.04v5.65h2.52v-5.59c0-1.22.76-1.93,1.76-1.93.85,0,1.42.52,1.42,1.63v5.89h2.48l-.02-6.61c-.06-1.98-1.32-3.11-3-3.11-1.31,0-2.33.61-2.91,1.65-.48-.98-1.52-1.65-2.76-1.65s-2.13.55-2.63,1.5l-.09-1.18-2.46-.02-.02,9.43ZM59.6,176.27c.05.37.18.78.33,1.07h2.55c-.15-.13-.39-.56-.39-1.33l-.04-4.82c-.02-.83-.07-1.07-.13-1.28-.39-1.3-1.45-2.33-4-2.33-2.93,0-4.09,1.5-4.09,3.15l2.24.04c.09-.63.18-.76.39-.95.24-.22.72-.44,1.48-.44,1.19,0,1.63.63,1.63,1.07s-.28.76-.96.89l-2.55.44c-1.91.33-2.8,1.57-2.8,2.81,0,1.63,1.26,3.02,3.54,3.02,1.57,0,2.44-.63,2.8-1.35ZM59.6,172.33v1.41c-.06,1.18-.87,2-2.24,2-1.07,0-1.57-.63-1.57-1.18,0-.45.22-1.02,1.72-1.39l1.09-.3c.43-.09.76-.3,1-.54ZM58.08,166.79l2.56.02v-2.57h-2.54l-.02,2.55Z"/>
</svg>