<?xml version="1.0" encoding="UTF-8"?>
<svg id="Lager_1" data-name="Lager 1" xmlns="http://www.w3.org/2000/svg" viewBox="0 0 153.09 218.69">
  <defs>
    <style>
      .cls-1 {
        fill: #fff;
      }

      .cls-1, .cls-2, .cls-3 {
        fill-rule: evenodd;
      }

      .cls-2 {
        fill: #fcbd0e;
      }

      .cls-3 {
        fill: #1d1f22;
      }
    </style>
  </defs>
  <polyline class="cls-1" points="0 218.69 153.09 218.69 153.09 0 0 0 0 218.69"/>
  <path class="cls-3" d="M143.39,118.53L79.87,8.42c-1.5-2.6-5.25-2.6-6.75,0L9.6,118.53c-1.5,2.6.36,5.87,3.38,5.87h127.04c3.01,0,4.88-3.27,3.38-5.87"/>
  <polyline class="cls-2" points="20.22 116.33 76.5 18.75 132.78 116.33 20.22 116.33"/>
  <path class="cls-3" d="M76.5,89.18c2.94,0,5.32-2.38,5.32-5.32s-2.38-5.31-5.32-5.31-5.32,2.38-5.32,5.31,2.38,5.32,5.32,5.32"/>
  <path class="cls-3" d="M49.68,83.87c0-9.91,5.39-18.57,13.41-23.2l8.96,15.54c-2.64,1.53-4.42,4.39-4.42,7.66h-17.95"/>
  <path class="cls-3" d="M89.91,107.07c-8.6,4.96-18.8,4.62-26.82,0l8.99-15.53c2.65,1.52,6.01,1.63,8.85,0l8.98,15.53"/>
  <path class="cls-3" d="M89.91,60.67c8.6,4.95,13.4,13.95,13.41,23.2h-17.96c0-3.06-1.59-6.03-4.43-7.67l8.98-15.53"/>
  <polyline class="cls-2" points="10.19 133.07 142.93 133.07 142.93 208.68 10.19 208.68 10.19 133.07"/>
  <path class="cls-3" d="M23.47,150.42v1.11c0,1.57.3,2.15.89,2.82.7.78,1.7,1.26,3.29,1.26,1.26,0,2.41-.24,3.33-1.15.68-.7,1-1.45,1-2.63v-9.74h-2.7v9.5c-.02.83-.13,1-.32,1.26-.3.37-.74.61-1.33.61-1,0-1.7-.59-1.68-2.05l.02-.98h-2.5ZM122.59,151.17l7,.02c0-2.8-1.26-5.76-4.78-5.76s-4.74,2.87-4.74,5.02c0,3.13,2.07,5.07,4.72,5.07s4.24-1.43,4.63-3.07l-2.55-.17c-.48.87-1.15,1.22-1.96,1.22-1.2,0-2.18-.81-2.31-2.33ZM122.7,149.34c.15-1.15,1.09-1.92,2.06-1.92,1.04,0,1.93.7,2.09,1.92h-4.15ZM115.68,154.23l.11.96h2.5v-13.11h-2.55v4.76c-.45-.74-1.52-1.37-2.72-1.37-2.09,0-4.18,1.76-4.18,5.05,0,1.5.48,2.74,1.22,3.61.78.94,1.76,1.37,2.87,1.37s2.09-.44,2.76-1.28ZM113.68,153.32c-1.2,0-2.24-.85-2.24-2.85,0-2.24,1.09-3.04,2.13-3.04s2.15.8,2.15,2.96-1.09,2.91-2.04,2.92ZM98.61,155.19h2.54l.02-5.28c0-.74.15-1.09.35-1.39.33-.48.93-.8,1.54-.8.89,0,1.52.57,1.52,1.63l-.02,5.83h2.54v-6.65c0-1.76-1.3-3.11-3.24-3.11-1.35,0-2.3.72-2.63,1.46l-.09-1.11-2.5-.02-.02,9.42ZM93.91,154.12c.05.46.15.8.3,1.07h2.59c-.33-.39-.43-.67-.43-.98v-5.17c0-2.26-1.17-3.61-4.24-3.61-2.85,0-4.04,1.55-3.98,3.15l2.24.04c0-.7.52-1.37,1.81-1.37s1.67.61,1.67,1.05c0,.39-.24.74-.93.87l-1.46.24c-2.07.37-2.63.76-3.04,1.11-.56.5-.87,1.2-.87,1.96,0,1.55,1.22,2.96,3.61,2.96,1.37,0,2.18-.46,2.72-1.33ZM93.93,150.23l-.02,1.18c0,1.33-.83,2.17-2.28,2.17-1.06,0-1.57-.63-1.57-1.2,0-.44.15-.94,1.76-1.39l1.09-.3c.48-.13.82-.32,1.02-.46ZM81.69,155.19h2.54l.02-4.18c0-1.41.33-2.05.76-2.5.48-.5,1.02-.74,1.72-.74.15,0,.28.02.43.04l.02-2.24c-.13-.02-.33-.05-.54-.05-1.11,0-2.07.7-2.35,1.68l-.09-1.43h-2.48l-.02,9.42ZM72.93,151.17l6.98.02c0-2.8-1.26-5.76-4.76-5.76s-4.74,2.87-4.74,5.02c0,3.13,2.07,5.07,4.72,5.07s4.22-1.43,4.61-3.07l-2.55-.17c-.48.87-1.13,1.22-1.94,1.22-1.2,0-2.18-.81-2.32-2.33ZM73.04,149.34c.15-1.15,1.09-1.92,2.06-1.92,1.04,0,1.91.7,2.07,1.92h-4.13ZM60.08,152.05c.06,1.78,1.56,3.48,4.44,3.48s4.22-1.57,4.22-3.26c0-.59-.2-1.18-.57-1.65-.35-.44-.82-.78-1.93-1.04l-2.7-.63c-.57-.15-.8-.5-.8-.83,0-.37.33-.94,1.55-.94,1.35,0,1.94.7,1.96,1.46l2.24-.04c-.05-.95-.55-1.89-1.35-2.48-.55-.39-1.42-.72-2.81-.72-2.7,0-3.91,1.46-3.91,3.07,0,.76.22,1.3.67,1.78.33.35.74.65,1.8.87l2.04.46c1.18.26,1.33.63,1.33,1.07,0,.41-.39,1.05-1.8,1.05-1.33,0-2-.7-2.07-1.68l-2.32.02ZM55.76,155.19h2.54v-9.42h-2.52l-.02,9.42ZM55.78,144.34h2.54v-2.26h-2.54v2.26ZM45.36,155.19h2.54l.02-5.28c0-.74.15-1.09.35-1.39.33-.48.93-.8,1.54-.8.89,0,1.52.57,1.52,1.63l-.02,5.83h2.54v-6.65c0-1.76-1.3-3.11-3.24-3.11-1.35,0-2.3.72-2.63,1.46l-.09-1.11-2.5-.02-.02,9.42ZM38.62,155.54c2.87,0,4.96-2.02,4.96-5.09s-2.05-5.04-4.98-5.04-4.94,2.04-4.94,5.02,2.09,5.11,4.96,5.11ZM38.6,153.56c-1.2,0-2.35-.93-2.35-3.02,0-2.26,1.13-3.15,2.37-3.15s2.37.91,2.37,3.05-1.15,3.11-2.39,3.11Z"/>
  <path class="cls-3" d="M39.8,172.66c.04,1.78,1.54,3.48,4.42,3.48s4.24-1.57,4.24-3.26c0-.59-.22-1.18-.59-1.65-.35-.44-.8-.78-1.93-1.04l-2.7-.63c-.56-.15-.8-.5-.8-.83,0-.37.33-.94,1.57-.94,1.33,0,1.92.7,1.94,1.46l2.24-.04c-.04-.94-.55-1.89-1.35-2.48-.56-.39-1.43-.72-2.8-.72-2.72,0-3.91,1.46-3.91,3.07,0,.76.2,1.3.65,1.78.33.35.74.65,1.8.87l2.04.46c1.2.26,1.33.63,1.33,1.07,0,.41-.39,1.06-1.78,1.06s-2.02-.7-2.09-1.68l-2.3.02ZM104.26,176.33c.11.89.39,1.39.93,1.89.56.55,1.63,1.07,3.44,1.07,2.05,0,3.35-.76,3.98-1.57.44-.57.67-1.09.67-2.5v-8.83h-2.43l-.09,1.15c-.17-.3-.68-1.48-2.78-1.48-2.28,0-4.26,1.82-4.26,4.72s1.98,4.74,4.24,4.74c1.5,0,2.43-.68,2.8-1.41v1.02c0,1.59-.74,2.26-2.18,2.26-1.11,0-1.63-.56-1.7-1.15l-2.61.09ZM108.55,173.33c-1.24,0-2.26-.89-2.26-2.63,0-1.52,1.04-2.48,2.2-2.48s2.22.96,2.22,2.56-1.07,2.55-2.17,2.55ZM93.5,175.81h2.54l.02-5.28c0-.74.15-1.09.35-1.39.33-.48.92-.8,1.54-.8.87,0,1.5.57,1.5,1.63v5.83h2.54v-6.65c0-1.76-1.3-3.11-3.26-3.11-1.35,0-2.3.72-2.61,1.46l-.11-1.11-2.48-.02-.02,9.42ZM89,175.81h2.54v-9.42h-2.54v9.42ZM89,164.96h2.54v-2.26h-2.54v2.26ZM78.59,175.81h2.54l.02-5.28c0-.74.15-1.09.35-1.39.33-.48.92-.8,1.54-.8.87,0,1.5.57,1.5,1.63v5.83h2.54v-6.65c0-1.76-1.3-3.11-3.26-3.11-1.35,0-2.3.72-2.61,1.46l-.11-1.11-2.48-.02-.02,9.42ZM74.11,175.81h2.52v-13.11h-2.5l-.02,13.11ZM69.69,174.74c.06.37.19.78.33,1.07h2.57c-.15-.13-.41-.56-.41-1.33l-.02-4.81c-.02-.83-.09-1.07-.15-1.28-.37-1.3-1.42-2.33-3.98-2.33-2.94,0-4.09,1.5-4.09,3.15l2.22.04c.11-.63.2-.76.41-.95.22-.22.7-.44,1.46-.44,1.18,0,1.65.63,1.65,1.07s-.28.76-.98.89l-2.54.44c-1.91.33-2.8,1.57-2.8,2.82,0,1.63,1.26,3.02,3.54,3.02,1.57,0,2.43-.63,2.78-1.35ZM69.71,170.79l-.02,1.41c-.05,1.18-.85,2-2.24,2-1.05,0-1.57-.63-1.57-1.18,0-.44.22-1.02,1.72-1.39l1.11-.3c.41-.09.76-.3,1-.54ZM67.85,165.29c.65,0,1.24-.59,1.24-1.32s-.59-1.31-1.3-1.31c-.74,0-1.33.61-1.33,1.31,0,.74.57,1.32,1.39,1.32ZM67.82,164.76c-.46,0-.8-.35-.8-.78s.35-.78.78-.8c.41,0,.76.33.76.8s-.35.78-.74.78ZM57.49,175.81h2.54v-4.18c0-1.41.35-2.05.76-2.5.48-.5,1.04-.74,1.72-.74.15,0,.3.02.45.04v-2.24c-.13-.02-.33-.06-.54-.06-1.11,0-2.06.7-2.35,1.68l-.07-1.43h-2.5v9.42ZM55.61,175.81v-1.94h-.94c-.3,0-.59-.17-.72-.35-.05-.07-.13-.22-.13-.74v-4.67h1.72v-1.72h-1.72l-.02-2.98h-2.52v2.98h-1.32v1.74l1.33-.02v4.87c0,2.13.87,2.83,2.26,2.83h2.05Z"/>
</svg>