<svg xmlns="http://www.w3.org/2000/svg" viewBox="0 0 595.28 850.36"><defs><style>.a{fill:#fcc00d;}.a,.b{fill-rule:evenodd;}.b{fill:#000100;}</style></defs><title>W003a_C</title><polyline class="a" points="0 850.36 595.28 850.36 595.28 0 0 0 0 850.36"/><path class="b" d="M119,616.57V602.46H130.7c2.81,0,3.6.36,4.68,1a7.59,7.59,0,0,1,3.31,6.12c0,3.89-3,7.13-8.35,7.06Zm369.42,28.3v-7.56h-3.67a3.82,3.82,0,0,1-2.88-1.37,5.85,5.85,0,0,1-.43-2.88V614.92h6.63v-6.7h-6.63l-0.07-11.59h-9.79v11.59h-5.19V615l5.26-.07-0.07,18.93c0,8.28,3.38,11,8.85,11h8Zm-48.45,0h9.72l12.53-36.64h-10L445,632.34l-7.27-24H427.61Zm-27.57,0h9.86V608.22h-9.79Zm0.07-42.19h9.86v-8.78h-9.86v8.78Zm-6.91,42.19v-7.56h-3.67a3.81,3.81,0,0,1-2.88-1.37,5.85,5.85,0,0,1-.43-2.88V614.92h6.62v-6.7H398.6l-0.07-11.59h-9.79v11.59h-5.18V615l5.26-.07-0.07,18.93c0,8.28,3.38,11,8.85,11h8Zm-60.55,0h9.86l-0.07-12,4.18-4.1,10.08,16.13h12l-15-22.53,13.1-14.11H367.57l-12.67,14-0.07-28.3H345Zm-18.36-4.18a11.64,11.64,0,0,0,1.15,4.18h10.08a5.48,5.48,0,0,1-1.66-3.81V621c0-8.78-4.53-14-16.49-14-11.09,0-15.7,6.05-15.48,12.24l8.71,0.14c0-2.74,2-5.33,7.06-5.33,4.83,0,6.41,2.38,6.41,4.1,0,1.51-.94,2.88-3.53,3.39l-5.69.93c-8.06,1.44-10.22,3-11.81,4.32a10.2,10.2,0,0,0-3.38,7.63c0,6,4.75,11.52,14,11.52C321.42,645.88,324.58,644.08,326.67,640.69Zm0.07-15.12-0.07,4.61c0,5.18-3.24,8.42-8.85,8.42-4.1,0-6.12-2.45-6.12-4.68,0-1.73.58-3.67,6.84-5.4l4.25-1.15A12.14,12.14,0,0,0,326.75,625.57Zm-49.17,20.66c11.16,0,19.29-7.85,19.29-19.8,0-11.59-8-19.58-19.37-19.58-11.09,0-19.22,7.92-19.22,19.51C258.27,638.46,266.41,646.24,277.57,646.24Zm-0.07-7.7c-4.68,0-9.14-3.6-9.14-11.74,0-8.78,4.39-12.24,9.22-12.24s9.22,3.53,9.22,11.88C286.79,635,282.32,638.53,277.5,638.53Zm-36,6.33h9.87V608.22h-9.79Zm0.07-42.19h9.86v-8.78h-9.86v8.78Zm-17.86,38.44,0.43,3.74h9.72v-51h-9.94V612.4c-1.73-2.88-5.9-5.33-10.58-5.33-8.14,0-16.27,6.84-16.27,19.66a21.4,21.4,0,0,0,4.75,14A13.89,13.89,0,0,0,213,646.09,13.19,13.19,0,0,0,223.72,641.12Zm-7.78-3.53c-4.68,0-8.71-3.31-8.71-11.09,0-8.71,4.25-11.81,8.28-11.81s8.35,3.1,8.35,11.52C223.86,634.28,219.61,637.53,215.94,637.6Zm-35.71,3.1a11.56,11.56,0,0,0,1.15,4.18h10.08a5.48,5.48,0,0,1-1.66-3.81V621c0-8.78-4.54-14-16.49-14-11.09,0-15.7,6.05-15.48,12.24l8.71,0.14c0-2.74,2-5.33,7.06-5.33,4.82,0,6.41,2.38,6.41,4.1,0,1.51-.94,2.88-3.53,3.39l-5.69.93c-8.06,1.44-10.22,3-11.81,4.32a10.21,10.21,0,0,0-3.38,7.63c0,6,4.75,11.52,14,11.52C175,645.88,178.14,644.08,180.23,640.69Zm0.07-15.12-0.07,4.61c0,5.18-3.24,8.42-8.85,8.42-4.1,0-6.12-2.45-6.12-4.68,0-1.73.58-3.67,6.84-5.4l4.25-1.15A12.14,12.14,0,0,0,180.3,625.57Zm-71.85,19.29H119l0.07-20.16,9.15,0.07A8.46,8.46,0,0,1,136,629a13.21,13.21,0,0,1,1.08,3.24c1,4.18-.07,8.71,1.94,12.67H149.7a15.09,15.09,0,0,1-1.59-5.33l-0.86-9c-0.36-3.67-1.22-5.26-2.59-6.77a10.8,10.8,0,0,0-6.7-3.1,12.09,12.09,0,0,0,11.09-12.53c0-8-6.41-14.83-17.14-14.26h-23.4Z" transform="translate(-0.83 -0.94)"/><path class="b" d="M213.85,690.91h9.86l0.07-10h-9.86Zm147.81,25.41,27.22,0.07c0-10.87-4.9-22.39-18.58-22.39-14,0-18.43,11.16-18.43,19.51,0,12.17,8.06,19.73,18.36,19.73s16.49-5.55,18-12l-9.93-.65c-1.87,3.38-4.46,4.75-7.63,4.75C366,725.4,362.16,722.23,361.66,716.33Zm0.43-7.13a8.38,8.38,0,0,1,8-7.49c4,0,7.49,2.73,8.13,7.49H362.09Zm-50,22.75H322l0.07-20.52c0-2.88.58-4.25,1.37-5.4a7.39,7.39,0,0,1,6-3.1c3.46,0,5.91,2.23,5.91,6.34L335.23,732h9.86V706.1c0-6.84-5-12.1-12.6-12.1-5.26,0-8.93,2.81-10.23,5.69l-0.36-4.32-9.72-.07Zm-61.27,0h9.86l0.07-21.17c0-5.26,3-7.92,6.91-7.92a4.88,4.88,0,0,1,4.9,3.1c0.14,0.36.43,1.15,0.43,4v22h9.8V710.21c0-4.75,3-7.49,6.84-7.49,3.31,0,5.54,2,5.54,6.33V732h9.65l-0.07-25.7c-0.22-7.7-5.11-12.1-11.67-12.1a12.34,12.34,0,0,0-11.3,6.41,11.75,11.75,0,0,0-10.72-6.41c-5,0-8.28,2.16-10.23,5.83l-0.36-4.61-9.58-.07Zm-18.29-4.18a14.83,14.83,0,0,0,1.29,4.18h9.93c-0.58-.5-1.51-2.16-1.51-5.18L242.14,708a18.67,18.67,0,0,0-.5-5c-1.51-5-5.62-9.07-15.55-9.07-11.37,0-15.91,5.83-15.91,12.24l8.71,0.14c0.36-2.45.72-3,1.51-3.67s2.81-1.73,5.76-1.73c4.61,0,6.33,2.45,6.33,4.18s-1.08,3-3.74,3.46l-9.93,1.73c-7.42,1.29-10.87,6.12-10.87,10.94,0,6.33,4.9,11.74,13.75,11.74C227.82,733,231.2,730.58,232.57,727.77Zm0-15.34v5.47c-0.22,4.61-3.39,7.77-8.71,7.77-4.18,0-6.12-2.45-6.12-4.61,0-1.73.87-4,6.7-5.4l4.25-1.15A7.76,7.76,0,0,0,232.57,712.44Zm-5.91-21.53L236.6,691V681h-9.87Z" transform="translate(-0.83 -0.94)"/><path class="b" d="M558.42,505l-247-428.17a15.16,15.16,0,0,0-26.26,0L38.16,505a15.21,15.21,0,0,0,13.12,22.84h494A15.21,15.21,0,0,0,558.42,505ZM79.49,496.49L298.31,117,517.15,496.49H79.49Z" transform="translate(-0.83 -0.94)"/><path class="b" d="M298.3,390.92a20.65,20.65,0,1,0-20.67-20.67,20.67,20.67,0,0,0,20.67,20.67" transform="translate(-0.83 -0.94)"/><path class="b" d="M194,370.26A104.1,104.1,0,0,1,246.17,280L281,340.47a34.42,34.42,0,0,0-17.18,29.79H194" transform="translate(-0.83 -0.94)"/><path class="b" d="M350.44,460.49a104.34,104.34,0,0,1-104.28,0l35-60.4a34.49,34.49,0,0,0,34.41,0l34.92,60.41" transform="translate(-0.83 -0.94)"/><path class="b" d="M350.44,280a104.07,104.07,0,0,1,52.15,90.21l-69.84,0a34.38,34.38,0,0,0-17.23-29.76L350.44,280" transform="translate(-0.83 -0.94)"/></svg>