<?xml version="1.0" encoding="UTF-8"?>
<svg id="Lager_1" data-name="Lager 1" xmlns="http://www.w3.org/2000/svg" viewBox="0 0 153.09 218.69">
  <defs>
    <style>
      .cls-1 {
        fill: #fff;
      }

      .cls-1, .cls-2, .cls-3 {
        fill-rule: evenodd;
      }

      .cls-2 {
        fill: #fcbd0e;
      }

      .cls-3 {
        fill: #1d1f22;
      }
    </style>
  </defs>
  <polyline class="cls-1" points="0 218.69 153.09 218.69 153.09 0 0 0 0 218.69"/>
  <path class="cls-3" d="M143.4,118.53L79.87,8.42c-1.5-2.6-5.25-2.6-6.75,0L9.6,118.53c-1.5,2.6.36,5.87,3.38,5.87h127.04c3.01,0,4.88-3.27,3.38-5.87"/>
  <path class="cls-2" d="M20.23,116.33L76.5,18.74l36.24,62.84h-26.54l8.9-2.06-.12-.43c.05-.27.04-.56-.03-.85-.08-.28-.22-.54-.41-.76l-.12-.45-9.44,2.88c-.06-.13-.11-.26-.17-.39l16.72-9.09-.24-.41c-.05-.37-.17-.72-.35-1.03-.17-.3-.4-.55-.7-.79l-.26-.45-16.31,9.97c-.08-.1-.17-.21-.26-.31l7.14-6.7-.31-.31c-.1-.27-.25-.52-.45-.72-.2-.21-.46-.37-.74-.46l-.33-.33-6.72,7.21c-.1-.07-.19-.14-.29-.21l9.92-16.21-.4-.23c-.22-.29-.51-.55-.83-.74-.29-.17-.62-.28-1-.33l-.45-.26-9.12,16.77c-.11-.05-.23-.09-.35-.13l2.84-9.39-.42-.11c-.21-.18-.47-.32-.76-.4-.28-.07-.57-.08-.85-.03l-.45-.12-2.21,9.61c-.12-.02-.23-.03-.35-.04l.48-18.98h-.47c-.66-.27-1.38-.3-2.11,0h-.52l.49,19.04c-.1.02-.21.03-.31.05l-2.19-9.54-.43.12c-.27-.05-.56-.04-.85.03-.28.08-.54.22-.76.41l-.45.12,2.84,9.39c-.08.03-.17.07-.25.11l-9.12-16.73-.41.23c-.38.05-.73.17-1.05.35-.3.17-.55.4-.78.7l-.45.26,9.97,16.26c-.09.07-.18.14-.27.21l-6.69-7.23-.31.32c-.27.1-.52.25-.72.45-.21.21-.36.46-.46.74l-.33.33,7.15,6.75c-.07.08-.14.17-.2.26l-16.26-9.93-.24.42c-.29.22-.53.49-.72.82-.17.3-.28.64-.33,1l-.26.45,16.72,9.08c-.04.09-.08.17-.11.26l-9.44-2.85-.11.42c-.18.22-.32.47-.4.75-.08.29-.09.59-.03.88l-.11.44,9.56,2.2c-.02.12-.04.24-.06.36l-19.12-.48v.48c-.14.34-.22.71-.22,1.08,0,.34.08.68.22,1.03v.52l19.07-.49c.01.1.02.2.03.3l-9.62,2.27.12.42c-.05.28-.04.58.03.86.08.28.22.54.41.76l.12.44,9.37-2.89c.04.12.09.24.13.36l-16.78,9.13.23.41c.05.36.16.71.35,1.04.17.3.4.55.69.78l.27.46,16.24-9.93c.07.1.14.2.21.3l-7.2,6.79.31.31c.1.27.25.52.45.72.21.21.46.36.73.46l.33.33,6.67-7.21c.12.11.25.21.37.31l-9.97,16.29.55.32c.2.24.45.44.72.6.26.15.54.25.85.3l.57.33,9.09-16.71c.12.06.24.11.37.16l-2.86,9.44.43.11c.22.19.47.32.75.4.16.04.33.06.49.06.13,0,.25-.02.38-.04l.45.12,2.2-9.54c.15.03.3.05.46.07l-.48,19.08h.55c.29.06.74.11,1.06.11.36,0,.74-.06,1.09-.12h.41s-.49-19.03-.49-19.03c.16-.02.31-.03.47-.06l2.27,9.61.42-.11c.12.02.23.04.35.04.17,0,.34-.02.5-.07.29-.08.55-.22.77-.41l.45-.12-2.9-9.4c.16-.06.31-.12.46-.18l9.12,16.73.55-.31c.32-.06.61-.17.87-.32.25-.14.47-.33.67-.56l.6-.34-9.95-16.25c.12-.09.24-.18.36-.28l6.75,7.19.32-.32c.26-.09.51-.24.72-.45.21-.21.36-.46.45-.74l.33-.33-7.21-6.71c.12-.14.23-.29.33-.44l16.26,9.94.24-.41c.29-.22.54-.5.74-.83.17-.3.27-.62.32-1.01l.26-.44-16.78-9.11c.05-.13.1-.26.15-.39l9.42,2.84.11-.42c.19-.22.33-.47.4-.75.07-.28.08-.57.03-.86l.12-.46-9.33-2.13h28.72l18.15,31.46H20.23"/>
  <polyline class="cls-2" points="10.19 133.06 142.93 133.06 142.93 208.67 10.19 208.67 10.19 133.06"/>
  <path class="cls-3" d="M15.29,153.67h9.07v-2.26h-6.37v-10.85h-2.7v13.11ZM128.75,154.19c.11.89.39,1.39.91,1.89.57.56,1.65,1.07,3.46,1.07,2.04,0,3.35-.76,3.98-1.57.43-.57.67-1.09.67-2.5v-8.83h-2.43l-.09,1.15c-.17-.3-.68-1.48-2.78-1.48-2.28,0-4.26,1.82-4.26,4.72s1.98,4.74,4.22,4.74c1.52,0,2.44-.68,2.81-1.41v1.02c0,1.59-.74,2.26-2.18,2.26-1.11,0-1.63-.56-1.72-1.15l-2.59.09ZM133.05,151.19c-1.24,0-2.28-.89-2.28-2.63,0-1.52,1.06-2.48,2.22-2.48s2.22.96,2.22,2.55-1.07,2.55-2.17,2.55ZM118,153.67h2.54v-5.28c0-.74.15-1.09.37-1.39.33-.48.93-.8,1.54-.8.87,0,1.5.57,1.5,1.63v5.83h2.52v-6.65c0-1.76-1.3-3.11-3.24-3.11-1.35,0-2.3.72-2.61,1.46l-.11-1.11-2.48-.02-.02,9.42ZM113.5,153.67h2.52v-9.42h-2.52v9.42ZM113.5,142.83h2.54v-2.26h-2.54v2.26ZM103.09,153.67h2.54v-5.28c0-.74.15-1.09.37-1.39.33-.48.93-.8,1.54-.8.87,0,1.5.57,1.5,1.63v5.83h2.52v-6.65c0-1.76-1.3-3.11-3.24-3.11-1.35,0-2.3.72-2.61,1.46l-.11-1.11-2.48-.02-.02,9.42ZM98.59,153.67h2.54v-13.11h-2.52l-.02,13.11ZM94.17,152.6c.05.37.18.78.33,1.07h2.57c-.15-.13-.41-.55-.41-1.33l-.04-4.81c-.02-.83-.07-1.07-.13-1.28-.39-1.3-1.43-2.33-4-2.33-2.93,0-4.09,1.5-4.09,3.15l2.24.04c.09-.63.2-.76.41-.94.22-.22.7-.45,1.46-.45,1.18,0,1.63.63,1.63,1.07s-.28.76-.96.89l-2.54.44c-1.91.33-2.8,1.57-2.8,2.82,0,1.63,1.24,3.02,3.54,3.02,1.56,0,2.43-.63,2.78-1.35ZM94.18,148.66l-.02,1.41c-.06,1.19-.85,2-2.24,2-1.05,0-1.57-.63-1.57-1.18,0-.44.22-1.02,1.72-1.39l1.09-.3c.43-.09.76-.3,1.02-.54ZM92.33,143.16c.65,0,1.24-.59,1.24-1.32s-.59-1.31-1.3-1.31c-.74,0-1.33.61-1.33,1.31,0,.74.57,1.32,1.39,1.32ZM92.3,142.62c-.48,0-.82-.35-.82-.78s.37-.78.78-.8c.43,0,.78.33.78.8s-.37.78-.74.78ZM81.96,153.67h2.54v-4.18c0-1.41.35-2.05.76-2.5.48-.5,1.02-.74,1.72-.74.15,0,.3.02.42.04l.02-2.24c-.13-.02-.33-.06-.54-.06-1.11,0-2.05.7-2.35,1.68l-.08-1.42h-2.5v9.42ZM80.09,153.67v-1.94h-.95c-.3,0-.59-.17-.72-.35-.05-.07-.13-.22-.13-.74v-4.67h1.7v-1.72h-1.7l-.02-2.98h-2.5v2.98h-1.32v1.74l1.33-.02-.02,4.87c0,2.13.87,2.83,2.26,2.83h2.05ZM64.3,150.53c.04,1.78,1.54,3.48,4.42,3.48s4.24-1.57,4.24-3.26c0-.59-.22-1.18-.59-1.65-.35-.45-.82-.78-1.93-1.04l-2.7-.63c-.57-.15-.8-.5-.8-.83,0-.37.33-.94,1.57-.94,1.33,0,1.93.7,1.95,1.46l2.24-.04c-.04-.94-.55-1.89-1.35-2.48-.55-.39-1.42-.72-2.8-.72-2.72,0-3.92,1.46-3.92,3.07,0,.76.22,1.3.67,1.78.33.35.74.65,1.8.87l2.04.46c1.18.26,1.33.63,1.33,1.07,0,.41-.39,1.06-1.78,1.06s-2.02-.7-2.09-1.68l-2.3.02ZM57.65,153.67h2.54v-4.18c0-1.41.35-2.05.76-2.5.48-.5,1.02-.74,1.72-.74.15,0,.3.02.43.04l.02-2.24c-.13-.02-.33-.06-.54-.06-1.11,0-2.05.7-2.35,1.68l-.07-1.42h-2.5v9.42ZM48.86,149.66l7,.02c0-2.8-1.26-5.76-4.78-5.76s-4.72,2.87-4.72,5.02c0,3.13,2.07,5.07,4.7,5.07s4.24-1.42,4.63-3.07l-2.55-.17c-.48.87-1.13,1.22-1.96,1.22-1.2,0-2.18-.82-2.31-2.33ZM48.97,147.82c.15-1.15,1.09-1.93,2.07-1.93s1.91.7,2.09,1.93h-4.17ZM36.03,150.53c.04,1.78,1.54,3.48,4.43,3.48s4.24-1.57,4.24-3.26c0-.59-.22-1.18-.59-1.65-.35-.45-.82-.78-1.93-1.04l-2.7-.63c-.57-.15-.8-.5-.8-.83,0-.37.33-.94,1.57-.94,1.33,0,1.92.7,1.94,1.46l2.24-.04c-.04-.94-.55-1.89-1.35-2.48-.56-.39-1.43-.72-2.8-.72-2.72,0-3.92,1.46-3.92,3.07,0,.76.22,1.3.67,1.78.33.35.74.65,1.8.87l2.04.46c1.18.26,1.33.63,1.33,1.07,0,.41-.39,1.06-1.78,1.06s-2.02-.7-2.09-1.68l-2.3.02ZM31.66,152.6c.05.46.17.8.31,1.07h2.57c-.32-.39-.41-.67-.43-.98v-5.17c0-2.26-1.17-3.61-4.24-3.61-2.85,0-4.04,1.56-3.98,3.15l2.24.04c0-.7.52-1.37,1.81-1.37s1.67.61,1.67,1.05c0,.39-.24.74-.93.87l-1.46.24c-2.07.37-2.63.76-3.04,1.11-.55.5-.85,1.2-.85,1.96,0,1.55,1.22,2.96,3.59,2.96,1.39,0,2.18-.46,2.72-1.33ZM31.68,148.71l-.02,1.18c0,1.33-.83,2.17-2.28,2.17-1.05,0-1.57-.63-1.57-1.2,0-.45.17-.95,1.76-1.39l1.09-.3c.48-.13.81-.31,1.02-.46Z"/>
</svg>