<svg xmlns="http://www.w3.org/2000/svg" viewBox="0 0 595.28 850.36"><defs><style>.a{fill:#fcc00d;}.a,.b{fill-rule:evenodd;}.b{fill:#000100;}</style></defs><title>W004_C</title><polyline class="a" points="0 850.36 595.28 850.36 595.28 0 0 0 0 850.36"/><path class="b" d="M60.23,644.87H95.5v-8.78H70.74V593.89H60.23v51Zm441.2,2a11,11,0,0,0,3.53,7.34c2.23,2.16,6.41,4.18,13.47,4.18,7.92,0,13-3,15.48-6.12,1.66-2.23,2.59-4.25,2.59-9.72V608.22h-9.43l-0.36,4.46c-0.65-1.15-2.66-5.76-10.8-5.76-8.86,0-16.56,7.06-16.56,18.36s7.7,18.43,16.42,18.43c5.9,0,9.5-2.66,10.94-5.47v4c0,6.19-2.88,8.78-8.5,8.78-4.32,0-6.33-2.16-6.7-4.46Zm16.7-11.67c-4.83,0-8.86-3.46-8.86-10.22,0-5.9,4.11-9.65,8.64-9.65s8.64,3.74,8.64,9.93S522.38,635.22,518.13,635.22Zm-58.53,9.65h9.86V624.35c0-2.88.58-4.25,1.44-5.4a7.4,7.4,0,0,1,6-3.1c3.39,0,5.83,2.23,5.83,6.34v22.68h9.79V619c0-6.84-5-12.1-12.6-12.1-5.26,0-8.93,2.81-10.15,5.69l-0.43-4.32-9.65-.07Zm-17.5,0h9.79V608.22H442.1v36.64Zm0-42.19H452v-8.78H442.1v8.78Zm-40.46,42.19h9.87V624.35c0-2.88.58-4.25,1.44-5.4a7.4,7.4,0,0,1,6-3.1c3.38,0,5.83,2.23,5.83,6.34v22.68h9.79V619c0-6.84-5-12.1-12.6-12.1-5.26,0-8.93,2.81-10.15,5.69l-0.43-4.32-9.65-.07Zm-17.49,0H394v-51h-9.79Zm-17.21-4.18a14.83,14.83,0,0,0,1.29,4.18h10c-0.58-.5-1.59-2.16-1.59-5.18L376.51,621a18.67,18.67,0,0,0-.5-5c-1.51-5-5.55-9.07-15.55-9.07-11.37,0-15.91,5.83-15.91,12.24l8.71,0.14c0.36-2.45.79-3,1.58-3.67s2.74-1.73,5.69-1.73c4.61,0,6.33,2.45,6.33,4.18s-1.08,3-3.74,3.46l-9.86,1.73c-7.42,1.3-10.87,6.12-10.87,10.95,0,6.33,4.82,11.74,13.75,11.74C362.18,645.95,365.57,643.5,366.94,640.69ZM367,625.36l-0.07,5.48c-0.22,4.61-3.31,7.77-8.71,7.77-4.1,0-6.12-2.45-6.12-4.61,0-1.73.87-4,6.7-5.4l4.25-1.15A8.32,8.32,0,0,0,367,625.36ZM359.81,604a5.12,5.12,0,0,0-.22-10.22,5.2,5.2,0,0,0-5.18,5.11A5.11,5.11,0,0,0,359.81,604Zm-0.14-2.09a3,3,0,0,1-3.17-3,3.21,3.21,0,0,1,3-3.1A3.06,3.06,0,0,1,359.66,601.89Zm-40.18,43h9.86V628.6c0-5.47,1.36-8,3-9.72A8.72,8.72,0,0,1,339,616a12,12,0,0,1,1.65.14l0.07-8.71a14.07,14.07,0,0,0-2.09-.22,9.45,9.45,0,0,0-9.14,6.55l-0.29-5.54h-9.72v36.64Zm-7.27,0v-7.56h-3.67a3.66,3.66,0,0,1-2.81-1.37c-0.21-.29-0.5-0.86-0.5-2.88V614.92h6.62v-6.7h-6.62l-0.07-11.59h-9.72v11.59h-5.11V615l5.18-.07-0.07,18.93c0,8.28,3.38,11,8.78,11h8ZM250.8,632.63c0.14,6.91,6,13.54,17.21,13.54,11.45,0,16.49-6.12,16.49-12.67a10.42,10.42,0,0,0-2.3-6.41c-1.37-1.73-3.17-3-7.49-4L264.2,620.6c-2.23-.58-3.1-1.94-3.1-3.24s1.29-3.67,6.12-3.67c5.19,0,7.49,2.73,7.56,5.69l8.71-.14a13,13,0,0,0-5.26-9.65c-2.16-1.51-5.54-2.81-10.87-2.81-10.58,0-15.26,5.69-15.26,12a9.44,9.44,0,0,0,2.59,6.91c1.29,1.37,2.88,2.52,7,3.39l7.92,1.8c4.61,1,5.19,2.45,5.19,4.18s-1.51,4.1-6.91,4.1c-5.18,0-7.85-2.74-8.13-6.55ZM225,644.87h9.86V628.6c0-5.47,1.37-8,3-9.72a8.73,8.73,0,0,1,6.7-2.88,12.06,12.06,0,0,1,1.66.14l0.07-8.71a14.07,14.07,0,0,0-2.09-.22,9.46,9.46,0,0,0-9.15,6.55l-0.29-5.54H225v36.64Zm-34.2-15.62L218,629.32c0-10.87-4.9-22.39-18.58-22.39-14,0-18.36,11.16-18.36,19.51,0,12.17,8.06,19.73,18.29,19.73s16.49-5.54,18-11.95l-9.93-.65c-1.87,3.38-4.39,4.75-7.63,4.75C195.08,638.32,191.26,635.15,190.76,629.24Zm0.43-7.13a8.38,8.38,0,0,1,8.06-7.49c4,0,7.42,2.73,8.13,7.49h-16.2Zm-50.33,10.51c0.14,6.91,6,13.54,17.21,13.54,11.45,0,16.49-6.12,16.49-12.67a10.42,10.42,0,0,0-2.31-6.41c-1.37-1.73-3.17-3-7.49-4l-10.51-2.45c-2.23-.58-3.1-1.94-3.1-3.24s1.29-3.67,6.12-3.67c5.18,0,7.49,2.73,7.56,5.69l8.71-.14a13,13,0,0,0-5.25-9.65c-2.16-1.51-5.55-2.81-10.87-2.81-10.58,0-15.26,5.69-15.26,12a9.45,9.45,0,0,0,2.59,6.91c1.29,1.37,2.88,2.52,7,3.39l7.92,1.8c4.61,1,5.18,2.45,5.18,4.18s-1.51,4.1-6.91,4.1c-5.19,0-7.85-2.74-8.14-6.55Zm-17,8.06a11.48,11.48,0,0,0,1.22,4.18h10a6.2,6.2,0,0,1-1.66-3.81V621c0-8.78-4.53-14-16.49-14-11.09,0-15.69,6.05-15.48,12.24l8.71,0.14c0-2.74,2-5.33,7.05-5.33,4.83,0,6.48,2.38,6.48,4.1,0,1.51-.94,2.88-3.6,3.39l-5.69.93c-8.06,1.44-10.22,3-11.81,4.32a10.14,10.14,0,0,0-3.31,7.63c0,6,4.75,11.52,14,11.52C118.69,645.88,121.78,644.08,123.87,640.69Zm0.07-15.12-0.07,4.61c0,5.18-3.24,8.42-8.86,8.42-4.1,0-6.12-2.45-6.12-4.68,0-1.73.65-3.67,6.84-5.4l4.25-1.15A12.14,12.14,0,0,0,123.94,625.57Z" transform="translate(-0.77 -0.94)"/><path class="b" d="M79.42,496.49L298.25,117,439.16,361.38H336l34.59-8-0.46-1.67a8.3,8.3,0,0,0-.12-3.31,7.5,7.5,0,0,0-1.58-2.94l-0.48-1.76-36.72,11.19c-0.22-.51-0.44-1-0.68-1.5l65-35.36-0.93-1.6a10.42,10.42,0,0,0-1.36-4,10,10,0,0,0-2.74-3.08l-1-1.75-63.42,38.78c-0.32-.4-0.66-0.8-1-1.19l27.76-26-1.19-1.19a7.53,7.53,0,0,0-1.74-2.78,7.22,7.22,0,0,0-2.87-1.8l-1.3-1.29-26.14,28c-0.37-.28-0.75-0.55-1.14-0.81l38.58-63-1.56-.91a11,11,0,0,0-3.23-2.86,10.18,10.18,0,0,0-3.88-1.28l-1.75-1-35.48,65.2c-0.45-.18-0.9-0.35-1.36-0.51l11.06-36.49-1.64-.44a7.64,7.64,0,0,0-3-1.57,8.19,8.19,0,0,0-3.32-.1l-1.77-.47-8.61,37.37-1.37-.15L303,259.19h-1.84a10.54,10.54,0,0,0-8.2,0h-2l1.91,74-1.22.2-8.53-37.09-1.68.46a8.18,8.18,0,0,0-3.32.12,7.54,7.54,0,0,0-3,1.59l-1.75.48,11.06,36.5-1,.42L248,270.82l-1.58.91a10.83,10.83,0,0,0-4.07,1.36,10.18,10.18,0,0,0-3,2.72l-1.76,1,38.76,63.24c-0.36.27-.72,0.55-1.06,0.84l-26-28.11L248,314a7.38,7.38,0,0,0-4.6,4.64l-1.26,1.27L270,346.16c-0.27.33-.53,0.66-0.79,1L206,308.54,205,310.16a11.11,11.11,0,0,0-2.8,3.18,10.26,10.26,0,0,0-1.27,3.91L200,319l65,35.3c-0.15.34-.3,0.67-0.44,1l-36.71-11.09-0.43,1.65a7.61,7.61,0,0,0-1.56,2.92,7.43,7.43,0,0,0-.11,3.42l-0.45,1.71,37.17,8.55c-0.08.46-.16,0.93-0.23,1.39L187.86,362v1.85a11,11,0,0,0-.85,4.2,10.31,10.31,0,0,0,.85,4v2L262,372.16c0,0.39.08,0.77,0.12,1.15l-37.4,8.82,0.45,1.65a7.58,7.58,0,0,0,.12,3.34,7.48,7.48,0,0,0,1.6,3l0.47,1.73,36.44-11.23c0.16,0.47.33,0.95,0.51,1.41l-65.26,35.49,0.91,1.59a10.86,10.86,0,0,0,1.36,4,10.06,10.06,0,0,0,2.7,3l1,1.8,63.14-38.62c0.27,0.39.54,0.79,0.83,1.17l-28,26.41,1.2,1.2a7.4,7.4,0,0,0,4.62,4.6l1.3,1.29,25.94-28c0.47,0.42,1,.82,1.45,1.21L236.84,460.5l2.14,1.23a10.82,10.82,0,0,0,2.79,2.33,10,10,0,0,0,3.3,1.17l2.22,1.28,35.35-65c0.47,0.22,1,.44,1.43.64L273,438.89l1.66,0.43a7.41,7.41,0,0,0,2.93,1.56,7.19,7.19,0,0,0,1.92.25,7.29,7.29,0,0,0,1.47-.17l1.73,0.45,8.55-37.12c0.59,0.11,1.19.21,1.78,0.29l-1.86,74.18h2.15a24.49,24.49,0,0,0,4.11.45,26.57,26.57,0,0,0,4.22-.45h1.59l-1.91-74c0.61-.05,1.22-0.12,1.82-0.21l8.82,37.36,1.63-.44a7.72,7.72,0,0,0,1.36.13,7.43,7.43,0,0,0,4.94-1.84l1.76-.47-11.29-36.55c0.61-.23,1.21-0.47,1.79-0.72l35.45,65,2.13-1.22a10.11,10.11,0,0,0,3.38-1.25,9.77,9.77,0,0,0,2.62-2.19l2.33-1.34-38.71-63.17c0.47-.35.94-0.71,1.4-1.08L347,424.77l1.23-1.24A7.67,7.67,0,0,0,351,421.8a7.54,7.54,0,0,0,1.77-2.86l1.28-1.29-28-26.09c0.45-.55.88-1.12,1.3-1.71l63.23,38.64,0.93-1.61a11.19,11.19,0,0,0,2.86-3.23,10.64,10.64,0,0,0,1.26-3.9l1-1.71-65.24-35.42c0.21-.5.4-1,0.59-1.5l36.61,11,0.44-1.63a7.53,7.53,0,0,0,1.56-2.93,7.69,7.69,0,0,0,.12-3.32l0.49-1.8-36.27-8.3H446.53l70.56,122.34H79.42ZM558.37,505l-247-428.17a15.16,15.16,0,0,0-26.26,0L38.1,505a15.21,15.21,0,0,0,13.12,22.84h494A15.21,15.21,0,0,0,558.37,505Z" transform="translate(-0.77 -0.94)"/></svg>