<?xml version="1.0" encoding="UTF-8"?>
<svg id="Lager_1" data-name="Lager 1" xmlns="http://www.w3.org/2000/svg" viewBox="0 0 153.09 218.69">
  <defs>
    <style>
      .cls-1 {
        fill: #fff;
      }

      .cls-1, .cls-2, .cls-3 {
        fill-rule: evenodd;
      }

      .cls-2 {
        fill: #fcbd0e;
      }

      .cls-3 {
        fill: #1d1f22;
      }
    </style>
  </defs>
  <polyline class="cls-1" points="0 218.69 153.09 218.69 153.09 0 0 0 0 218.69"/>
  <path class="cls-3" d="M143.39,118.53L79.87,8.42c-1.5-2.6-5.25-2.6-6.75,0L9.6,118.53c-1.5,2.6.36,5.88,3.37,5.88h127.04c3.02,0,4.88-3.27,3.38-5.88"/>
  <polyline class="cls-2" points="10.19 133.07 142.92 133.07 142.92 208.69 10.19 208.69 10.19 133.07"/>
  <path class="cls-3" d="M14.43,153.86h9.78v-2.26h-7.07v-3.59h6.18v-2.15h-6.17v-2.91h6.94v-2.2h-9.67v13.11ZM133.39,149.84l7,.02c0-2.8-1.26-5.76-4.78-5.76s-4.72,2.87-4.72,5.02c0,3.13,2.07,5.07,4.7,5.07s4.24-1.42,4.63-3.07l-2.55-.17c-.48.87-1.13,1.22-1.95,1.22-1.2,0-2.18-.81-2.33-2.33ZM133.5,148.01c.15-1.15,1.11-1.92,2.07-1.92,1.02,0,1.91.7,2.09,1.92h-4.17ZM126.49,152.9l.11.96h2.52l-.02-13.11h-2.54v4.76c-.46-.74-1.52-1.37-2.72-1.37-2.11,0-4.18,1.76-4.18,5.05,0,1.5.46,2.74,1.22,3.61.78.94,1.74,1.37,2.87,1.37s2.07-.44,2.74-1.28ZM124.49,151.99c-1.18,0-2.24-.85-2.24-2.85,0-2.24,1.09-3.04,2.15-3.04s2.13.8,2.13,2.96-1.09,2.91-2.04,2.92ZM109.43,153.86h2.54v-5.28c0-.74.15-1.09.37-1.39.33-.48.93-.8,1.54-.8.87,0,1.5.57,1.5,1.63v5.83h2.52v-6.65c0-1.76-1.3-3.11-3.24-3.11-1.35,0-2.3.72-2.61,1.46l-.11-1.11-2.48-.02-.02,9.42ZM104.71,152.79c.05.46.17.8.31,1.07h2.57c-.31-.39-.41-.67-.43-.98l.02-5.17c0-2.26-1.18-3.61-4.26-3.61-2.85,0-4.04,1.56-3.98,3.15l2.24.04c0-.7.52-1.37,1.81-1.37s1.67.61,1.67,1.05c0,.39-.24.74-.92.87l-1.45.24c-2.09.37-2.65.76-3.05,1.11-.56.5-.85,1.2-.85,1.96,0,1.55,1.22,2.96,3.59,2.96,1.39,0,2.19-.46,2.72-1.33ZM104.73,148.9l-.02,1.18c0,1.33-.83,2.17-2.28,2.17-1.05,0-1.55-.63-1.55-1.2,0-.45.15-.95,1.74-1.39l1.09-.3c.48-.13.81-.32,1.02-.46ZM92.51,153.86h2.54v-4.18c0-1.41.35-2.06.76-2.5.48-.5,1.02-.74,1.72-.74.15,0,.3.02.43.04l.02-2.24c-.13-.02-.33-.06-.54-.06-1.11,0-2.06.7-2.35,1.69l-.07-1.43h-2.5v9.42ZM83.71,149.84l7,.02c0-2.8-1.26-5.76-4.78-5.76s-4.72,2.87-4.72,5.02c0,3.13,2.07,5.07,4.7,5.07s4.24-1.42,4.63-3.07l-2.56-.17c-.48.87-1.13,1.22-1.94,1.22-1.2,0-2.18-.81-2.33-2.33ZM83.83,148.01c.15-1.15,1.11-1.92,2.07-1.92,1.02,0,1.91.7,2.09,1.92h-4.17ZM70.9,150.71c.04,1.78,1.54,3.48,4.43,3.48s4.22-1.57,4.22-3.26c0-.59-.22-1.18-.59-1.65-.35-.45-.82-.78-1.91-1.04l-2.7-.63c-.57-.15-.8-.5-.8-.83,0-.37.33-.94,1.57-.94,1.33,0,1.93.7,1.94,1.46l2.22-.04c-.04-.95-.56-1.89-1.35-2.48-.54-.39-1.41-.72-2.78-.72-2.72,0-3.93,1.46-3.93,3.07,0,.76.22,1.3.67,1.78.33.35.74.65,1.8.87l2.04.46c1.18.26,1.33.63,1.33,1.07,0,.41-.39,1.05-1.78,1.05s-2.02-.7-2.09-1.68l-2.3.02ZM66.59,153.86h2.52v-9.42h-2.52v9.42ZM66.59,143.01h2.54v-2.26h-2.54v2.26ZM56.18,153.86h2.54v-5.28c0-.74.15-1.09.37-1.39.33-.48.93-.8,1.54-.8.87,0,1.5.57,1.5,1.63v5.83h2.52v-6.65c0-1.76-1.3-3.11-3.24-3.11-1.35,0-2.3.72-2.61,1.46l-.11-1.11-2.48-.02-.02,9.42ZM49.44,154.21c2.85,0,4.94-2.02,4.94-5.09s-2.06-5.04-4.98-5.04-4.93,2.04-4.93,5.02,2.09,5.11,4.96,5.11ZM49.42,152.23c-1.2,0-2.37-.93-2.37-3.02,0-2.26,1.13-3.15,2.37-3.15s2.39.91,2.39,3.05-1.15,3.11-2.39,3.11ZM38.56,154.88v2.06l1.76-.02c1.59,0,2.39-.78,2.39-2.48l-.02-10h-2.54v8.91c0,1.33-.41,1.54-1.02,1.54h-.57ZM40.15,143.01h2.54v-2.26h-2.54v2.26ZM25.43,154.88v2.06l1.76-.02c1.59,0,2.39-.78,2.39-2.48l-.02-10h-2.54v8.91c0,1.33-.41,1.54-1.02,1.54h-.57ZM27.02,143.01h2.54v-2.26h-2.54v2.26Z"/>
  <path class="cls-3" d="M39.8,172.68c.04,1.78,1.54,3.48,4.43,3.48s4.24-1.57,4.24-3.26c0-.59-.22-1.18-.59-1.65-.35-.44-.8-.78-1.93-1.04l-2.7-.63c-.56-.15-.8-.5-.8-.83,0-.37.33-.94,1.57-.94,1.33,0,1.93.7,1.94,1.46l2.24-.04c-.04-.95-.56-1.89-1.35-2.48-.56-.39-1.43-.72-2.8-.72-2.72,0-3.91,1.46-3.91,3.07,0,.76.2,1.3.65,1.78.33.35.74.65,1.8.87l2.04.46c1.2.26,1.33.63,1.33,1.07,0,.41-.39,1.06-1.78,1.06s-2.02-.7-2.09-1.69l-2.3.02ZM104.26,176.35c.11.89.39,1.39.93,1.89.56.56,1.63,1.07,3.44,1.07,2.06,0,3.35-.76,3.98-1.57.44-.57.67-1.09.67-2.5v-8.83h-2.42l-.09,1.15c-.17-.3-.69-1.48-2.78-1.48-2.28,0-4.26,1.81-4.26,4.72s1.98,4.74,4.24,4.74c1.5,0,2.43-.68,2.8-1.41v1.02c0,1.59-.74,2.26-2.19,2.26-1.11,0-1.63-.55-1.7-1.15l-2.61.09ZM108.55,173.35c-1.24,0-2.26-.89-2.26-2.63,0-1.52,1.04-2.48,2.2-2.48s2.22.96,2.22,2.55-1.07,2.56-2.17,2.56ZM93.5,175.83h2.54l.02-5.28c0-.74.15-1.09.35-1.39.33-.48.93-.8,1.54-.8.87,0,1.5.57,1.5,1.63v5.83h2.54v-6.65c0-1.76-1.3-3.11-3.26-3.11-1.35,0-2.3.72-2.61,1.46l-.11-1.11-2.48-.02-.02,9.42ZM89,175.83h2.54v-9.42h-2.54v9.42ZM89,164.98h2.54v-2.26h-2.54v2.26ZM78.59,175.83h2.54l.02-5.28c0-.74.15-1.09.35-1.39.33-.48.93-.8,1.54-.8.87,0,1.5.57,1.5,1.63v5.83h2.54v-6.65c0-1.76-1.3-3.11-3.26-3.11-1.35,0-2.3.72-2.61,1.46l-.11-1.11-2.48-.02-.02,9.42ZM74.11,175.83h2.52v-13.11h-2.5l-.02,13.11ZM69.69,174.76c.06.37.18.78.33,1.07h2.57c-.15-.13-.41-.55-.41-1.33l-.02-4.81c-.02-.83-.09-1.07-.15-1.28-.37-1.3-1.43-2.33-3.98-2.33-2.94,0-4.09,1.5-4.09,3.15l2.22.04c.11-.63.2-.76.41-.94.22-.22.7-.44,1.46-.44,1.18,0,1.65.63,1.65,1.07s-.28.76-.98.89l-2.54.45c-1.91.33-2.8,1.57-2.8,2.81,0,1.63,1.26,3.02,3.54,3.02,1.57,0,2.42-.63,2.78-1.35ZM69.71,170.81l-.02,1.41c-.06,1.18-.85,2-2.24,2-1.06,0-1.57-.63-1.57-1.18,0-.45.22-1.02,1.72-1.39l1.11-.3c.41-.09.76-.3,1-.54ZM67.85,165.31c.65,0,1.24-.59,1.24-1.31s-.59-1.32-1.3-1.32c-.74,0-1.33.61-1.33,1.32,0,.74.57,1.31,1.39,1.31ZM67.82,164.78c-.46,0-.8-.35-.8-.78s.35-.78.78-.8c.41,0,.76.33.76.8s-.35.78-.74.78ZM57.48,175.83h2.54v-4.18c0-1.41.35-2.06.76-2.5.48-.5,1.04-.74,1.72-.74.15,0,.3.02.44.04v-2.24c-.13-.02-.33-.05-.54-.05-1.11,0-2.06.7-2.35,1.68l-.07-1.43h-2.5v9.42ZM55.61,175.83v-1.94h-.94c-.3,0-.59-.17-.72-.35-.06-.07-.13-.22-.13-.74v-4.67h1.72v-1.72h-1.72l-.02-2.98h-2.52v2.98h-1.31v1.74l1.33-.02v4.87c0,2.13.87,2.83,2.26,2.83h2.05Z"/>
  <polyline class="cls-2" points="20.22 116.33 76.49 18.75 132.77 116.33 20.22 116.33"/>
  <path class="cls-3" d="M76.49,82.95c2,0,3.61-1.62,3.61-3.61s-1.62-3.61-3.61-3.61-3.61,1.62-3.61,3.61,1.62,3.61,3.61,3.61"/>
  <path class="cls-3" d="M67.4,87.77c-2.16-2.28-3.34-5.26-3.34-8.39s1.22-6.2,3.43-8.49l3.59,3.47c-1.31,1.35-2.03,3.13-2.03,5.01s.7,3.61,1.97,4.96l-3.62,3.44"/>
  <path class="cls-3" d="M57.27,97.38c-4.61-4.87-7.15-11.24-7.15-17.95s2.61-13.25,7.34-18.15l3.59,3.47c-3.83,3.96-5.93,9.17-5.93,14.67s2.05,10.58,5.78,14.51l-3.62,3.44"/>
  <path class="cls-3" d="M62.42,92.66c-3.42-3.61-5.31-8.35-5.31-13.32s1.94-9.84,5.45-13.48l3.59,3.47c-2.61,2.7-4.05,6.25-4.05,10.01s1.4,7.21,3.94,9.89l-3.63,3.43"/>
  <path class="cls-3" d="M85.59,87.77l-3.62-3.44c1.28-1.35,1.98-3.1,1.98-4.96s-.72-3.66-2.03-5.01l3.59-3.47c2.21,2.29,3.43,5.3,3.43,8.48s-1.19,6.11-3.35,8.39"/>
  <path class="cls-3" d="M95.72,97.38l-3.62-3.44c3.73-3.93,5.79-9.09,5.79-14.51s-2.11-10.72-5.94-14.67l3.59-3.47c4.73,4.89,7.34,11.34,7.34,18.15s-2.54,13.08-7.15,17.95"/>
  <path class="cls-3" d="M90.57,92.67l-3.62-3.44c2.54-2.68,3.94-6.19,3.94-9.89s-1.44-7.31-4.05-10.01l3.59-3.47c3.52,3.63,5.45,8.42,5.45,13.48s-1.88,9.71-5.31,13.33"/>
  <polyline class="cls-3" points="85.53 111.77 79.21 86.48 73.79 86.48 67.46 111.77 85.53 111.77"/>
</svg>