<svg xmlns="http://www.w3.org/2000/svg" viewBox="0 0 595.28 850.36"><defs><style>.a{fill:#fcc00d;}.a,.b{fill-rule:evenodd;}.b{fill:#000100;}</style></defs><title>W005_C</title><polyline class="a" points="0 850.36 595.28 850.36 595.28 0 0 0 0 850.36"/><path class="b" d="M52.68,643.92h38v-8.78H63.19v-14H87.25v-8.35h-24v-11.3h27V593H52.68v51ZM515.27,628.3l27.21,0.07c0-10.87-4.9-22.39-18.58-22.39-14,0-18.36,11.16-18.36,19.51,0,12.17,8.06,19.73,18.29,19.73s16.49-5.54,18-11.95l-9.93-.65c-1.87,3.38-4.39,4.75-7.56,4.75C519.66,637.37,515.85,634.21,515.27,628.3Zm0.43-7.13a8.44,8.44,0,0,1,8.06-7.49c4,0,7.42,2.73,8.13,7.49H515.7Zm-27.29,19,0.44,3.74h9.79l-0.07-51H488.7v18.51c-1.8-2.88-5.91-5.33-10.58-5.33-8.21,0-16.27,6.84-16.27,19.66,0,5.83,1.8,10.66,4.75,14a13.8,13.8,0,0,0,11.16,5.33A13.14,13.14,0,0,0,488.41,640.18Zm-7.77-3.53c-4.61,0-8.71-3.31-8.71-11.09,0-8.71,4.25-11.81,8.35-11.81s8.28,3.1,8.28,11.52C488.56,633.34,484.31,636.58,480.64,636.65Zm-58.54,7.27H432V623.4c0-2.88.58-4.25,1.44-5.4a7.4,7.4,0,0,1,6-3.1c3.38,0,5.83,2.23,5.83,6.34v22.68H455V618.08c0-6.84-5-12.1-12.6-12.1-5.26,0-8.93,2.81-10.15,5.69l-0.43-4.32-9.65-.07Zm-18.36-4.18a11.48,11.48,0,0,0,1.22,4.18h10a6.19,6.19,0,0,1-1.65-3.81L413.39,620c0-8.78-4.61-14-16.56-14-11.09,0-15.69,6.05-15.48,12.24l8.71,0.14c0-2.74,2-5.33,7.05-5.33,4.83,0,6.48,2.38,6.48,4.1,0,1.51-.94,2.88-3.6,3.39l-5.61.93c-8.13,1.44-10.3,3-11.88,4.32a10.13,10.13,0,0,0-3.31,7.63c0,6,4.75,11.52,14,11.52C398.56,644.93,401.66,643.13,403.75,639.75Zm0.07-15.12-0.07,4.61c0,5.18-3.24,8.42-8.86,8.42-4.1,0-6-2.45-6-4.68,0-1.73.58-3.67,6.77-5.4l4.25-1.15A12.1,12.1,0,0,0,403.82,624.63ZM356.3,643.92h9.86V627.65c0-5.47,1.36-8,3-9.72a8.72,8.72,0,0,1,6.7-2.88,12.16,12.16,0,0,1,1.66.14l0.07-8.71a14,14,0,0,0-2.09-.22,9.45,9.45,0,0,0-9.14,6.55L366,607.28H356.3v36.64ZM322.1,628.3l27.22,0.07c0-10.87-4.9-22.39-18.58-22.39-14,0-18.36,11.16-18.36,19.51,0,12.17,8.07,19.73,18.29,19.73s16.49-5.54,18-11.95l-9.93-.65c-1.87,3.38-4.39,4.75-7.56,4.75C326.49,637.37,322.68,634.21,322.1,628.3Zm0.43-7.13a8.44,8.44,0,0,1,8.06-7.49c4,0,7.42,2.73,8.13,7.49h-16.2Zm-50.25,10.51c0.14,6.91,6,13.54,17.21,13.54s16.42-6.12,16.42-12.67a10.42,10.42,0,0,0-2.3-6.41c-1.37-1.73-3.17-3-7.42-4l-10.51-2.45c-2.23-.58-3.09-1.94-3.09-3.24s1.29-3.67,6.12-3.67c5.18,0,7.48,2.73,7.56,5.69l8.64-.14a13,13,0,0,0-5.26-9.65c-2.09-1.51-5.47-2.81-10.8-2.81-10.58,0-15.27,5.69-15.27,12a9.46,9.46,0,0,0,2.59,6.91c1.29,1.37,2.88,2.52,7,3.39l7.92,1.8c4.61,1,5.18,2.45,5.18,4.18s-1.51,4.1-6.91,4.1c-5.18,0-7.85-2.74-8.13-6.55ZM255.5,643.92h9.79V607.28H255.5v36.64Zm0-42.19h9.86V593H255.5v8.78ZM215,643.92h9.86V623.4c0-2.88.58-4.25,1.44-5.4a7.39,7.39,0,0,1,6-3.1c3.38,0,5.83,2.23,5.83,6.34v22.68h9.79V618.08c0-6.84-5-12.1-12.6-12.1-5.26,0-8.93,2.81-10.15,5.69l-0.43-4.32-9.65-.07Zm-26.21,1.37c11.09,0,19.22-7.85,19.22-19.8,0-11.59-8-19.58-19.37-19.58-11.09,0-19.15,7.92-19.15,19.51C169.54,637.52,177.67,645.29,188.83,645.29Zm-0.07-7.7c-4.68,0-9.22-3.6-9.22-11.74,0-8.78,4.39-12.24,9.22-12.24s9.29,3.53,9.29,11.88C198,634.06,193.58,637.59,188.76,637.59Zm-42.26,10.3v8l6.84-.07c6.19,0,9.29-3,9.29-9.65l-0.07-38.88h-9.86v34.63c0,5.18-1.58,6-4,6H146.5Zm6.19-46.15h9.86V593h-9.86v8.78ZM95.45,647.89v8l6.84-.07c6.19,0,9.29-3,9.29-9.65l-0.07-38.88h-9.86v34.63c0,5.18-1.59,6-4,6H95.45Zm6.19-46.15h9.86V593h-9.86v8.78Z"/><path class="b" d="M154.77,718.77c0.14,6.91,6,13.54,17.21,13.54,11.45,0,16.49-6.12,16.49-12.67a10.42,10.42,0,0,0-2.3-6.41c-1.37-1.73-3.1-3-7.49-4l-10.51-2.45c-2.16-.58-3.09-1.94-3.09-3.24s1.29-3.67,6.12-3.67c5.18,0,7.49,2.74,7.56,5.69l8.71-.14a13,13,0,0,0-5.26-9.65c-2.16-1.51-5.54-2.81-10.87-2.81-10.58,0-15.19,5.69-15.19,12a9.41,9.41,0,0,0,2.52,6.91c1.29,1.36,2.88,2.52,7,3.38l7.92,1.8c4.68,1,5.19,2.45,5.19,4.18s-1.51,4.1-6.91,4.1c-5.18,0-7.85-2.74-8.13-6.55ZM405.39,733a10.73,10.73,0,0,0,3.6,7.34c2.16,2.16,6.33,4.18,13.39,4.18,8,0,13-3,15.48-6.12,1.73-2.23,2.59-4.25,2.59-9.72V694.36H431l-0.36,4.46c-0.65-1.15-2.66-5.76-10.8-5.76-8.86,0-16.56,7.06-16.56,18.36s7.7,18.43,16.49,18.43c5.83,0,9.43-2.66,10.87-5.47v4c0,6.19-2.88,8.78-8.5,8.78-4.32,0-6.33-2.16-6.62-4.46Zm16.7-11.67c-4.83,0-8.78-3.46-8.78-10.22,0-5.9,4-9.65,8.57-9.65s8.64,3.74,8.64,9.93S426.35,721.36,422.1,721.36ZM363.56,731h9.86l0.07-20.52c0-2.88.58-4.25,1.37-5.4a7.4,7.4,0,0,1,6-3.1c3.38,0,5.83,2.23,5.83,6.34V731h9.86V705.16c0-6.84-5-12.1-12.67-12.1-5.26,0-8.93,2.81-10.15,5.69l-0.43-4.32-9.65-.07Zm-17.49,0h9.86V694.36h-9.86V731Zm0-42.19h9.86V680h-9.86v8.78ZM305.61,731h9.86l0.07-20.52c0-2.88.58-4.25,1.37-5.4a7.4,7.4,0,0,1,6-3.1c3.38,0,5.83,2.23,5.83,6.34V731h9.86V705.16c0-6.84-5-12.1-12.67-12.1-5.26,0-8.93,2.81-10.15,5.69l-0.43-4.32-9.65-.07Zm-17.42,0H298V680h-9.72ZM271,726.83a15,15,0,0,0,1.29,4.18h10c-0.58-.5-1.58-2.16-1.58-5.18l-0.07-18.72a17,17,0,0,0-.58-5c-1.44-5-5.55-9.07-15.48-9.07-11.45,0-15.91,5.83-15.91,12.24l8.64,0.14c0.43-2.45.79-3,1.59-3.67s2.73-1.73,5.69-1.73c4.61,0,6.41,2.45,6.41,4.18s-1.08,3-3.81,3.46l-9.87,1.73c-7.42,1.29-10.87,6.12-10.87,10.94,0,6.33,4.9,11.74,13.75,11.74C266.3,732.09,269.61,729.64,271,726.83ZM271,711.49L271,717c-0.21,4.61-3.31,7.77-8.71,7.77-4.11,0-6.12-2.45-6.12-4.61,0-1.73.86-4,6.7-5.4l4.32-1.15A8.1,8.1,0,0,0,271,711.49Zm-7.2-21.38a5.12,5.12,0,0,0-.21-10.22,5.2,5.2,0,0,0-5.19,5.11A5.11,5.11,0,0,0,263.85,690.11ZM263.7,688a3,3,0,0,1-3.1-3,3.16,3.16,0,0,1,3-3.1,3,3,0,0,1,3,3.1A3,3,0,0,1,263.7,688Zm-40.18,43h9.86V714.74c0-5.48,1.37-8,3-9.72a8.84,8.84,0,0,1,6.7-2.88,14.36,14.36,0,0,1,1.73.14v-8.71a14.62,14.62,0,0,0-2.09-.22,9.45,9.45,0,0,0-9.14,6.55l-0.29-5.54h-9.72V731Zm-7.27,0v-7.56h-3.67a3.65,3.65,0,0,1-2.81-1.37c-0.22-.29-0.51-0.86-0.51-2.88V701.06H216v-6.7h-6.7l-0.07-11.59h-9.79v11.59H194.3v6.77l5.18-.07V720c0,8.28,3.38,11,8.78,11h8Z"/><path class="b" d="M78.63,495.55L297.45,116.12,516.27,495.55H78.63Zm478.94,8.54L310.58,76a15.15,15.15,0,0,0-26.25,0L37.33,504.1a15.21,15.21,0,0,0,13.12,22.84h494A15.22,15.22,0,0,0,557.57,504.1Z"/><path class="b" d="M297.45,365.76a14.05,14.05,0,1,0-14-14.06,14.05,14.05,0,0,0,14,14.06"/><path class="b" d="M262.07,384.5a47.45,47.45,0,0,1,.35-65.63l14,13.5a28,28,0,0,0-.22,38.78L262.07,384.5"/><path class="b" d="M222.7,421.88a101.49,101.49,0,0,1,.73-140.35l14,13.5a82.08,82.08,0,0,0-.59,113.5L222.7,421.88"/><path class="b" d="M242.72,403.52a75.35,75.35,0,0,1,.56-104.21l14,13.5a55.95,55.95,0,0,0-.42,77.37l-14.1,13.34"/><path class="b" d="M332.81,384.5l-14.09-13.36a28,28,0,0,0-.21-38.76l14-13.5a47.43,47.43,0,0,1,.34,65.62"/><path class="b" d="M372.19,421.88L358.1,408.52a82.05,82.05,0,0,0-.59-113.5l14-13.5a101.5,101.5,0,0,1,.73,140.35"/><path class="b" d="M352.16,403.54l-14.09-13.36a55.92,55.92,0,0,0-.42-77.36l14-13.5a75.37,75.37,0,0,1,.56,104.22"/><polyline class="b" points="332.59 477.83 308 379.49 286.91 379.49 262.32 477.83 332.59 477.83"/></svg>