<svg xmlns="http://www.w3.org/2000/svg" viewBox="0 0 595.28 850.37"><defs><style>.a{fill:#fcc00d;}.a,.b{fill-rule:evenodd;}.b{fill:#000100;}</style></defs><title>W006_C</title><polyline class="a" points="0 850.37 595.28 850.37 595.28 0 0 0 0 850.37"/><path class="b" d="M117.91,643.92h9.72V607.28l10.8,36.64h10.23l10.8-36.72v36.72h9.93l-0.07-51H154.13L143.55,630.1,133,593l-15.12.07v50.9Zm359.34,0v-7.56h-3.67a3.65,3.65,0,0,1-2.81-1.37c-0.22-.29-0.51-0.86-0.51-2.88V614H477v-6.7h-6.62l-0.07-11.59h-9.86v11.59H455.3V614l5.18-.07v18.93c0,8.28,3.39,11,8.78,11h8Zm-37.94,0h9.86V593h-9.79Zm-17.57-4.18a12.72,12.72,0,0,0,1.22,4.18h10c-0.58-.5-1.51-2.16-1.51-5.18L431.32,620c-0.07-3.24-.29-4.18-0.58-5-1.44-5-5.54-9.07-15.48-9.07-11.45,0-15.91,5.83-15.91,12.24l8.64,0.14c0.43-2.45.79-3,1.59-3.67a8.39,8.39,0,0,1,5.69-1.73c4.68,0,6.41,2.45,6.41,4.18s-1.08,3-3.81,3.45L408,622.33c-7.42,1.29-10.87,6.12-10.87,10.94,0,6.33,4.9,11.74,13.75,11.74C417,645,420.3,642.56,421.75,639.75Zm0-15.33v5.47c-0.29,4.61-3.38,7.78-8.71,7.78-4.18,0-6.19-2.45-6.19-4.61,0-1.73.86-4,6.77-5.4l4.25-1.15A8.16,8.16,0,0,0,421.75,624.42Zm-5.91-21.53L425.7,603l0.07-10h-9.94v9.93Zm-12.81,0h9.79l0.07-10H403v10Zm-27.07,41h9.86V613.83h7.13v-6.55h-7.13v-0.72c0-3.31.58-4.25,1.22-4.9,0.79-.87,1.87-1.51,4.32-1.44h1.58V593h-5.62c-3.31,0-12.31.58-11.37,14.33h-5.33v6.55H376v30.09Zm-10.66,0v-7.56h-3.67a3.65,3.65,0,0,1-2.81-1.37c-0.22-.29-0.51-0.86-0.51-2.88V614H365v-6.7h-6.62l-0.07-11.59h-9.86v11.59h-5.11V614l5.18-.07v18.93c0,8.28,3.39,11,8.78,11h8ZM311.8,628.3l27.15,0.07c0-10.87-4.9-22.39-18.58-22.39-14,0-18.36,11.16-18.36,19.51,0,12.17,8.06,19.73,18.29,19.73s16.49-5.55,18-12l-9.86-.65c-1.87,3.39-4.46,4.75-7.63,4.75C316.12,637.37,312.31,634.21,311.8,628.3Zm0.36-7.13a8.49,8.49,0,0,1,8.06-7.49c4,0,7.49,2.73,8.13,7.49h-16.2Zm-49.82,22.75h9.86l0.07-20.52c0-2.88.58-4.25,1.37-5.4a7.39,7.39,0,0,1,6-3.1c3.38,0,5.83,2.23,5.83,6.33v22.68h9.86V618.08c0-6.84-5-12.09-12.67-12.09-5.25,0-8.93,2.81-10.15,5.68l-0.43-4.32-9.65-.07Zm-42.7,2a10.71,10.71,0,0,0,3.6,7.34c2.23,2.16,6.33,4.18,13.46,4.18,7.92,0,13-3,15.41-6.12,1.73-2.23,2.59-4.25,2.59-9.72V607.28h-9.43L245,611.74c-0.72-1.15-2.74-5.76-10.87-5.76-8.86,0-16.56,7.05-16.56,18.36s7.78,18.43,16.49,18.43c5.83,0,9.5-2.66,10.87-5.47v4c0,6.19-2.81,8.78-8.5,8.78-4.25,0-6.33-2.16-6.62-4.46Zm16.7-11.67c-4.75,0-8.78-3.45-8.78-10.22,0-5.9,4.1-9.65,8.57-9.65s8.64,3.74,8.64,9.94S240.6,634.28,236.35,634.28Zm-35.64,5.47a10.29,10.29,0,0,0,1.15,4.18h10.08a6,6,0,0,1-1.73-3.81L210.29,620c0-8.78-4.53-14-16.49-14-11.09,0-15.7,6-15.55,12.24l8.71,0.14c0-2.73,2.09-5.33,7.13-5.33,4.83,0,6.41,2.38,6.41,4.11,0,1.51-.94,2.88-3.6,3.38l-5.61.93c-8.13,1.44-10.3,3-11.81,4.32a10.2,10.2,0,0,0-3.38,7.63c0,6,4.75,11.52,14,11.52C195.46,644.94,198.62,643.13,200.71,639.75Zm0-15.12v4.61c0,5.18-3.24,8.43-8.85,8.43-4.18,0-6.12-2.45-6.12-4.68,0-1.73.58-3.67,6.77-5.4l4.25-1.15A11.38,11.38,0,0,0,200.71,624.63Z"/><path class="b" d="M78.62,495.58L297.44,116.14,516.27,495.58H78.62Zm478.94,8.54L310.57,76a15.15,15.15,0,0,0-26.25,0l-247,428.15A15.21,15.21,0,0,0,50.44,527h494A15.21,15.21,0,0,0,557.57,504.12Z"/><path class="b" d="M355.93,467.74H324.1l4.7-45.32h31.53Zm13.75-181.3c-7.48-17.77-25.38-39.29-71.6-39.29S234,268.67,226.46,286.44c-5.15,12.16-4.22,34.59-4.22,34.59l13.11,151.49h42.12S264.37,344.4,260.62,322c-4.68-43,29-43,37.45-43s42.12,0,37.45,43c-3.74,22.44-16.85,150.56-16.85,150.56h42.12L373.89,321S374.82,298.59,369.68,286.44Zm-101.89,136L272,467.74H240.22l-4-45.25h31.54Z"/><path class="b" d="M188.79,471.89c-0.39-1.07-9.36-26.43,1.78-57l9.58,3.49c-9.88,27.15-1.86,49.82-1.78,50l-9.58,3.49"/><path class="b" d="M208.5,471.89c-0.39-1.07-9.36-26.43,1.78-57l9.58,3.49c-9.88,27.15-1.86,49.82-1.78,50l-9.58,3.49"/><path class="b" d="M407.61,471.89L398,468.41c0.08-.23,8-23.09-1.77-50.06l9.57-3.49c11.13,30.6,2.16,56,1.77,57"/><path class="b" d="M387.9,471.89l-9.58-3.48c0.08-.23,8.06-23.09-1.78-50.06l9.58-3.49c11.16,30.6,2.17,56,1.78,57"/></svg>