<?xml version="1.0" encoding="UTF-8"?>
<svg id="Lager_1" data-name="Lager 1" xmlns="http://www.w3.org/2000/svg" viewBox="0 0 153.09 218.69">
  <defs>
    <style>
      .cls-1 {
        fill: #fff;
      }

      .cls-1, .cls-2, .cls-3 {
        fill-rule: evenodd;
      }

      .cls-2 {
        fill: #fcbd0e;
      }

      .cls-3 {
        fill: #1d1f22;
      }
    </style>
  </defs>
  <polyline class="cls-1" points="0 218.69 153.09 218.69 153.09 0 0 0 0 218.69"/>
  <path class="cls-3" d="M143.39,118.53L79.87,8.42c-1.5-2.6-5.25-2.6-6.75,0L9.6,118.53c-1.5,2.6.36,5.87,3.37,5.87h127.04c3.01,0,4.88-3.27,3.38-5.87"/>
  <polyline class="cls-2" points="10.19 133.08 142.93 133.08 142.93 208.69 10.19 208.69 10.19 133.08"/>
  <path class="cls-3" d="M30.32,153.66h2.5v-9.43l2.78,9.43h2.63l2.78-9.44v9.44h2.55l-.02-13.11h-3.91l-2.72,9.55-2.7-9.55-3.89.02v13.09ZM122.74,153.66v-1.94h-.94c-.3,0-.59-.17-.72-.35-.06-.07-.13-.22-.13-.74v-4.67h1.72v-1.72h-1.7l-.02-2.98h-2.54v2.98h-1.32v1.74l1.33-.02v4.87c0,2.13.87,2.83,2.26,2.83h2.06ZM112.98,153.66h2.54v-13.11h-2.52l-.02,13.11ZM108.46,152.58c.04.37.17.78.31,1.07h2.57c-.15-.13-.39-.56-.39-1.33l-.04-4.81c-.02-.83-.07-1.07-.15-1.28-.37-1.3-1.43-2.33-3.98-2.33-2.94,0-4.09,1.5-4.09,3.15l2.22.04c.11-.63.2-.76.41-.95.24-.22.72-.44,1.46-.44,1.2,0,1.65.63,1.65,1.07s-.28.76-.98.89l-2.54.44c-1.91.33-2.8,1.57-2.8,2.81,0,1.63,1.26,3.02,3.54,3.02,1.57,0,2.42-.63,2.8-1.35ZM108.46,148.64v1.41c-.07,1.18-.87,2-2.24,2-1.07,0-1.59-.63-1.59-1.18,0-.45.22-1.02,1.74-1.39l1.09-.3c.41-.09.76-.3,1-.54ZM106.94,143.1l2.54.02.02-2.57h-2.56v2.55ZM103.65,143.1h2.52l.02-2.57h-2.54v2.57ZM96.69,153.66h2.54v-7.74h1.83v-1.68h-1.83v-.18c0-.85.15-1.09.31-1.26.2-.22.48-.39,1.11-.37h.41v-1.87h-1.44c-.85,0-3.17.15-2.92,3.68h-1.37v1.68h1.37v7.74ZM93.94,153.66v-1.94h-.94c-.3,0-.59-.17-.72-.35-.06-.07-.13-.22-.13-.74v-4.67h1.72v-1.72h-1.7l-.02-2.98h-2.54v2.98h-1.32v1.74l1.33-.02v4.87c0,2.13.87,2.83,2.26,2.83h2.05ZM80.19,149.64l6.98.02c0-2.8-1.26-5.76-4.78-5.76s-4.72,2.87-4.72,5.02c0,3.13,2.07,5.07,4.7,5.07s4.24-1.43,4.63-3.07l-2.54-.17c-.48.87-1.15,1.22-1.96,1.22-1.2,0-2.19-.82-2.32-2.33ZM80.28,147.81c.17-1.15,1.11-1.93,2.07-1.93,1.04,0,1.93.7,2.09,1.93h-4.17ZM67.47,153.66h2.54l.02-5.28c0-.74.15-1.09.35-1.39.33-.48.93-.8,1.54-.8.87,0,1.5.57,1.5,1.63v5.83h2.54v-6.65c0-1.76-1.3-3.11-3.26-3.11-1.35,0-2.3.72-2.61,1.46l-.11-1.11-2.48-.02-.02,9.43ZM56.49,154.18c.11.89.39,1.39.93,1.89.57.55,1.63,1.07,3.46,1.07,2.04,0,3.33-.76,3.96-1.57.44-.57.67-1.09.67-2.5v-8.83h-2.43l-.07,1.15c-.19-.3-.7-1.48-2.8-1.48-2.28,0-4.26,1.81-4.26,4.72s2,4.74,4.24,4.74c1.5,0,2.44-.68,2.8-1.41v1.02c0,1.59-.72,2.26-2.19,2.26-1.09,0-1.63-.56-1.7-1.15l-2.61.09ZM60.78,151.18c-1.22,0-2.26-.89-2.26-2.63,0-1.52,1.05-2.48,2.2-2.48s2.22.96,2.22,2.55-1.07,2.56-2.17,2.56ZM51.62,152.58c.04.46.15.8.3,1.07h2.59c-.33-.39-.43-.67-.44-.98l.02-5.17c0-2.26-1.17-3.61-4.24-3.61-2.85,0-4.04,1.55-4,3.15l2.24.04c0-.7.54-1.37,1.83-1.37s1.65.61,1.65,1.06c0,.39-.24.74-.93.87l-1.44.24c-2.09.37-2.65.76-3.04,1.11-.56.5-.87,1.2-.87,1.96,0,1.56,1.22,2.96,3.61,2.96,1.37,0,2.18-.46,2.72-1.33ZM51.62,148.7v1.18c0,1.33-.83,2.17-2.28,2.17-1.07,0-1.57-.63-1.57-1.2,0-.44.15-.94,1.74-1.39l1.09-.3c.5-.13.82-.31,1.02-.46Z"/>
  <polyline class="cls-2" points="20.22 116.34 76.49 18.76 132.77 116.34 20.22 116.34"/>
  <path class="cls-3" d="M91.53,109.18h-8.19l1.21-11.65h8.11l-1.13,11.65ZM95.07,62.55c-1.92-4.57-6.53-10.1-18.41-10.1s-16.49,5.53-18.42,10.1c-1.32,3.13-1.08,8.9-1.08,8.9l3.37,38.96h10.83s-3.37-32.95-4.33-38.72c-1.2-11.06,7.45-11.06,9.63-11.06,2.14,0,10.83,0,9.63,11.06-.96,5.77-4.33,38.72-4.33,38.72h10.83l3.37-38.96s.24-5.77-1.08-8.9ZM68.87,97.54l1.09,11.64h-8.18l-1.02-11.64h8.11Z"/>
  <path class="cls-3" d="M48.55,110.24c-.1-.28-2.41-6.8.46-14.67l2.46.9c-2.54,6.98-.48,12.81-.46,12.87l-2.46.9"/>
  <path class="cls-3" d="M53.62,110.24c-.1-.28-2.41-6.8.46-14.67l2.46.9c-2.54,6.98-.48,12.81-.46,12.87l-2.46.9"/>
  <path class="cls-3" d="M104.83,110.24l-2.46-.9c.02-.06,2.07-5.94-.45-12.87l2.46-.9c2.86,7.87.56,14.39.46,14.67"/>
  <path class="cls-3" d="M99.76,110.24l-2.46-.9c.02-.06,2.07-5.94-.46-12.87l2.46-.9c2.87,7.87.56,14.39.46,14.67"/>
</svg>