<?xml version="1.0" encoding="UTF-8"?>
<svg id="Lager_1" data-name="Lager 1" xmlns="http://www.w3.org/2000/svg" viewBox="0 0 153.09 218.69">
  <defs>
    <style>
      .cls-1 {
        fill: #fff;
      }

      .cls-1, .cls-2, .cls-3 {
        fill-rule: evenodd;
      }

      .cls-2 {
        fill: #fcbd0e;
      }

      .cls-3 {
        fill: #1d1f22;
      }
    </style>
  </defs>
  <polyline class="cls-1" points="0 218.69 153.09 218.69 153.09 0 0 0 0 218.69"/>
  <path class="cls-3" d="M140.14,124.48c3.07,0,4.72-3.4,3.23-5.97L79.68,8.27c-1.43-2.47-4.99-2.47-6.42,0L9.62,118.5c-1.49,2.57.17,5.97,3.23,5.97h127.28"/>
  <polyline class="cls-2" points="132.79 116.4 76.5 18.9 20.2 116.4 132.79 116.4"/>
  <polyline class="cls-3" points="63.79 110.58 91 110.58 91 103.59 63.79 103.59 63.79 110.58"/>
  <path class="cls-3" d="M91.27,92.23l-6.39-6.89,4.84-8.04c.36-.6.41-1.34.15-2l-3.87-9.42c-.19-.47-.55-.85-.99-1.11l-9.4-5.52c-.64-.38-1.43-.47-2.12-.17l-10.05,4.37c-2.79,1.21-.78,5.18,1.87,4.03l8.93-3.87,7.11,4.18-14.07,5.79c-.53.22-1.01.57-1.31,1.06l-6.57,10.62-12.46-.69c-3.39-.19-3.68,4.9-.29,5.09l13.97.78c.93.05,1.82-.41,2.31-1.21l4.56-7.37-.37,11.59-9.9,7.96c-2.59,2.08.39,6.23,3.1,4.05l10.81-8.7c.65-.53,1.02-1.32,1.05-2.15l.38-12.17,11.79-4.85-4.16,6.91c-.51.85-.4,1.94.28,2.67l7.47,8.07c1.99,2.15,5.38-.76,3.32-2.98"/>
  <path class="cls-3" d="M88.76,68.43c0,2.47,1.99,4.46,4.46,4.46s4.46-1.99,4.46-4.46-1.99-4.46-4.46-4.46-4.46,1.99-4.46,4.46"/>
  <polyline class="cls-2" points="10.18 133.08 142.92 133.08 142.92 208.7 10.18 208.7 10.18 133.08"/>
  <path class="cls-3" d="M34.36,153.88h2.68v-5.8h5.2v5.8h2.69v-13.11h-2.69v5.17h-5.2l.02-5.17h-2.69l-.02,13.11ZM115.81,152.8c.06.37.19.78.33,1.07h2.56c-.15-.13-.39-.56-.39-1.33l-.04-4.81c-.02-.83-.07-1.07-.13-1.28-.39-1.3-1.44-2.33-4-2.33-2.93,0-4.09,1.5-4.09,3.15l2.24.04c.09-.63.18-.76.39-.94.24-.22.72-.45,1.48-.45,1.18,0,1.63.63,1.63,1.07s-.28.76-.96.89l-2.56.44c-1.91.33-2.8,1.57-2.8,2.82,0,1.63,1.26,3.02,3.54,3.02,1.57,0,2.44-.63,2.8-1.35ZM115.81,148.86v1.41c-.05,1.18-.87,2-2.24,2-1.07,0-1.57-.63-1.57-1.18,0-.44.22-1.02,1.72-1.39l1.09-.3c.43-.09.76-.3,1-.54ZM113.96,143.36c.67,0,1.26-.59,1.26-1.32s-.59-1.31-1.3-1.31c-.76,0-1.33.61-1.33,1.31,0,.74.57,1.32,1.37,1.32ZM113.94,142.83c-.48,0-.81-.35-.81-.78s.37-.78.78-.8c.43,0,.78.33.78.8s-.37.78-.74.78ZM101.2,152.79c.54.87,1.48,1.41,2.76,1.41,2.57,0,4.17-2.39,4.17-5.07s-1.56-4.96-4.13-4.96c-1.15,0-2.07.46-2.74,1.28l-.11-.96-2.5.02.02,12.46h2.52l.02-4.17ZM103.46,152.25c-1.2,0-2.24-.82-2.24-2.85,0-2.28,1.11-3.07,2.15-3.07s2.19.85,2.19,2.94c0,1.39-.59,2.96-2.09,2.98ZM84.13,153.88h2.54l.02-4.18c0-1.41.33-2.05.76-2.5.48-.5,1.02-.74,1.72-.74.15,0,.28.02.43.04l.02-2.24c-.13-.02-.33-.06-.54-.06-1.11,0-2.07.7-2.35,1.68l-.09-1.43h-2.48l-.02,9.42ZM75.37,149.86l6.98.02c0-2.8-1.26-5.76-4.78-5.76s-4.72,2.87-4.72,5.02c0,3.13,2.07,5.07,4.7,5.07s4.24-1.43,4.63-3.07l-2.56-.17c-.48.87-1.13,1.22-1.96,1.22-1.18,0-2.17-.82-2.3-2.33ZM75.48,148.03c.15-1.15,1.07-1.93,2.04-1.93,1.04,0,1.92.7,2.09,1.93h-4.13ZM68.47,152.92l.11.96h2.5v-13.11h-2.55v4.76c-.44-.74-1.52-1.37-2.72-1.37-2.09,0-4.18,1.76-4.18,5.05,0,1.5.48,2.74,1.22,3.61.78.94,1.76,1.37,2.87,1.37s2.09-.45,2.76-1.28ZM66.47,152.01c-1.2,0-2.24-.85-2.24-2.85,0-2.24,1.09-3.04,2.13-3.04s2.15.8,2.15,2.96-1.09,2.91-2.04,2.93ZM51.39,153.88h2.54l.02-5.28c0-.74.15-1.09.35-1.39.33-.48.94-.8,1.54-.8.89,0,1.52.57,1.52,1.63l-.02,5.83h2.54v-6.65c0-1.76-1.3-3.11-3.24-3.11-1.35,0-2.3.72-2.63,1.46l-.09-1.11-2.5-.02-.02,9.42ZM46.9,153.88h2.54v-9.42h-2.52l-.02,9.42ZM46.91,143.03h2.54v-2.26h-2.54v2.26Z"/>
  <path class="cls-3" d="M46.34,173.37c-1.22,0-2.26-.89-2.26-2.63,0-1.52,1.06-2.48,2.2-2.48s2.22.96,2.22,2.55-1.07,2.55-2.17,2.55ZM108.66,174.77c.05.37.17.78.31,1.07h2.57c-.15-.13-.39-.55-.39-1.33l-.04-4.81c-.02-.83-.07-1.07-.15-1.28-.37-1.3-1.43-2.33-3.98-2.33-2.94,0-4.09,1.5-4.09,3.15l2.22.04c.11-.63.2-.76.41-.94.24-.22.72-.44,1.48-.44,1.18,0,1.63.63,1.63,1.07s-.28.76-.96.89l-2.55.44c-1.91.33-2.8,1.57-2.8,2.82,0,1.63,1.26,3.02,3.54,3.02,1.57,0,2.43-.63,2.8-1.35ZM108.66,170.83v1.41c-.07,1.18-.87,2-2.24,2-1.07,0-1.59-.63-1.59-1.18,0-.44.22-1.02,1.74-1.39l1.09-.3c.41-.09.76-.3,1-.54ZM106.81,165.33c.65,0,1.26-.59,1.26-1.31s-.59-1.32-1.31-1.32-1.31.61-1.31,1.32c0,.74.57,1.31,1.37,1.31ZM106.79,164.79c-.48,0-.81-.35-.81-.78s.37-.78.78-.8c.41,0,.78.33.78.8s-.37.78-.74.78ZM96.18,175.85h2.52l3.22-9.42h-2.57l-1.89,6.2-1.87-6.18h-2.57l3.17,9.41ZM89.11,175.85h2.54v-9.42h-2.54v9.42ZM89.13,165h2.52v-2.26h-2.52v2.26ZM78.7,175.85h2.54l.02-5.28c0-.74.15-1.09.35-1.39.33-.48.93-.8,1.54-.8.87,0,1.5.57,1.5,1.63v5.83h2.54v-6.65c0-1.76-1.3-3.11-3.24-3.11-1.35,0-2.31.72-2.63,1.46l-.11-1.11-2.48-.02-.02,9.42ZM71.61,175.85h2.52l3.2-9.42h-2.56l-1.89,6.2-1.87-6.18h-2.57l3.17,9.41ZM64.54,175.85h2.54v-13.11h-2.52l-.02,13.11ZM57.8,176.2c2.87,0,4.96-2.02,4.96-5.09s-2.07-5.04-5-5.04-4.92,2.04-4.92,5.02,2.09,5.11,4.96,5.11ZM57.78,174.22c-1.2,0-2.35-.93-2.35-3.02,0-2.26,1.13-3.15,2.37-3.15s2.37.91,2.37,3.05-1.15,3.11-2.39,3.11ZM42.04,176.37c.11.89.39,1.39.93,1.89.57.56,1.63,1.07,3.46,1.07,2.04,0,3.33-.76,3.98-1.57.43-.57.65-1.09.65-2.5v-8.83h-2.43l-.07,1.15c-.18-.3-.68-1.48-2.79-1.48-2.28,0-4.26,1.82-4.26,4.72s2,4.74,4.24,4.74c1.5,0,2.44-.68,2.8-1.41v1.02c0,1.59-.72,2.26-2.19,2.26-1.09,0-1.61-.56-1.7-1.15l-2.61.09Z"/>
</svg>