<svg xmlns="http://www.w3.org/2000/svg" viewBox="0 0 595.28 850.37"><defs><style>.a{fill:#fcc00d;}.a,.b{fill-rule:evenodd;}.b{fill:#000100;}</style></defs><title>W007_C</title><polyline class="a" points="0 850.37 595.28 850.37 595.28 0 0 0 0 850.37"/><path class="b" d="M133.86,643.86H144.3V621.33h20.23v22.53H175v-51H164.53V613H144.3l0.07-20.09H133.93Zm316.72-4.18a14.84,14.84,0,0,0,1.3,4.18h9.94c-0.58-.5-1.51-2.16-1.51-5.18L460.16,620a18.49,18.49,0,0,0-.51-5c-1.51-5-5.61-9.07-15.55-9.07-11.38,0-15.91,5.83-15.91,12.24l8.71,0.14c0.36-2.45.72-3,1.51-3.67s2.81-1.73,5.76-1.73c4.61,0,6.34,2.45,6.34,4.18s-1.08,3-3.74,3.45l-9.94,1.73c-7.42,1.29-10.87,6.12-10.87,10.94,0,6.33,4.9,11.74,13.75,11.74C445.83,644.94,449.21,642.5,450.58,639.69Zm0-15.33v5.47c-0.21,4.61-3.38,7.78-8.71,7.78-4.18,0-6.12-2.45-6.12-4.61,0-1.73.86-4,6.7-5.4l4.25-1.15A7.81,7.81,0,0,0,450.58,624.35ZM443.38,603a5.11,5.11,0,0,0-.14-10.22,5.15,5.15,0,0,0-5.18,5.11A5.09,5.09,0,0,0,443.38,603Zm-0.07-2.09a3,3,0,0,1-3.17-3,3.2,3.2,0,0,1,3-3.1A3.06,3.06,0,0,1,443.31,600.88Zm-49.54,38.74c2.09,3.38,5.76,5.47,10.73,5.47,10,0,16.2-9.29,16.2-19.73,0-10-6-19.29-16.06-19.29A13.26,13.26,0,0,0,394,611l-0.43-3.74-9.72.07,0.07,48.45h9.79Zm8.78-2.09c-4.68,0-8.71-3.17-8.71-11.09,0-8.86,4.32-12,8.35-12s8.5,3.31,8.5,11.45C410.69,631.34,408.39,637.46,402.56,637.53Zm-75.16,6.33h9.86l0.07-16.27c0-5.47,1.29-8,3-9.72A8.73,8.73,0,0,1,347,615a12.5,12.5,0,0,1,1.66.14l0.07-8.71a14.65,14.65,0,0,0-2.08-.21,9.39,9.39,0,0,0-9.15,6.55l-0.36-5.54h-9.65Zm-34.06-15.62,27.14,0.07c0-10.87-4.9-22.39-18.58-22.39-14,0-18.36,11.16-18.36,19.51,0,12.17,8.06,19.73,18.29,19.73s16.49-5.55,18-12l-9.94-.65c-1.87,3.39-4.39,4.75-7.63,4.75C297.66,637.31,293.84,634.15,293.34,628.24Zm0.43-7.13a8.3,8.3,0,0,1,7.92-7.49c4,0,7.48,2.73,8.13,7.49H293.77Zm-27.29,19,0.43,3.74h9.72v-51H266.7v18.51c-1.73-2.88-5.9-5.33-10.58-5.33-8.13,0-16.27,6.84-16.27,19.65a21.4,21.4,0,0,0,4.75,14,13.88,13.88,0,0,0,11.16,5.33A13.2,13.2,0,0,0,266.48,640.12Zm-7.78-3.53c-4.68,0-8.71-3.31-8.71-11.09,0-8.71,4.25-11.81,8.28-11.81s8.35,3.1,8.35,11.52C266.63,633.28,262.38,636.52,258.71,636.59Zm-58.61,7.27H210L210,623.34c0-2.88.58-4.25,1.37-5.4a7.49,7.49,0,0,1,6-3.1c3.46,0,5.9,2.23,5.9,6.33l-0.07,22.68h9.86V618c0-6.84-5-12.09-12.6-12.09-5.26,0-8.93,2.81-10.22,5.68l-0.36-4.32-9.72-.07Zm-17.49,0h9.86V607.22h-9.79Zm0.07-42.19h9.86v-8.78h-9.86v8.78Z" transform="translate(-0.25 0.06)"/><path class="b" d="M180.44,721.3c-4.75,0-8.78-3.45-8.78-10.22,0-5.9,4.1-9.65,8.57-9.65s8.64,3.74,8.64,9.93S184.69,721.3,180.44,721.3Zm242.35,5.48a14.79,14.79,0,0,0,1.22,4.17h10c-0.58-.5-1.51-2.16-1.51-5.18L432.36,707c-0.07-3.24-.29-4.18-0.58-5-1.44-5-5.55-9.07-15.48-9.07-11.45,0-15.91,5.83-15.91,12.24l8.64,0.14c0.43-2.45.79-3,1.58-3.67s2.81-1.73,5.76-1.73c4.61,0,6.33,2.45,6.33,4.18s-1.08,3-3.74,3.45L409,709.35c-7.42,1.29-10.87,6.12-10.87,10.94,0,6.34,4.9,11.74,13.75,11.74C418,732,421.34,729.58,422.78,726.77Zm0-15.34v5.47c-0.29,4.61-3.39,7.78-8.71,7.78-4.18,0-6.19-2.45-6.19-4.61,0-1.73.86-4,6.77-5.4l4.25-1.15A8.16,8.16,0,0,0,422.78,711.44Zm-7.2-21.38a5.12,5.12,0,1,0-5.33-5.11A5.14,5.14,0,0,0,415.58,690.05ZM415.51,688a3,3,0,0,1-3.17-3,3.2,3.2,0,0,1,3-3.1,3.06,3.06,0,0,1,3,3.1A3,3,0,0,1,415.51,688Zm-41.25,43H384l12.53-36.64h-10l-7.35,24.12L372,694.37h-10Zm-27.5,0h9.86V694.3h-9.86v36.64Zm0.07-42.19h9.8V680h-9.8v8.78Zm-40.53,42.19h9.86l0.07-20.52c0-2.88.58-4.25,1.37-5.4a7.39,7.39,0,0,1,6-3.1c3.38,0,5.83,2.23,5.83,6.33v22.68h9.86V705.1c0-6.84-5-12.09-12.6-12.09-5.26,0-9,2.81-10.22,5.69L316,694.37l-9.65-.07Zm-27.57,0h9.79L301,694.3H291l-7.34,24.12-7.27-24.05h-10Zm-27.51,0h9.86V680h-9.79ZM225,732.31c11.16,0,19.29-7.85,19.29-19.8,0-11.59-8.06-19.58-19.44-19.58-11,0-19.15,7.92-19.15,19.51C205.71,724.54,213.85,732.31,225,732.31Zm-0.07-7.7c-4.68,0-9.14-3.6-9.14-11.74,0-8.78,4.39-12.24,9.22-12.24s9.22,3.53,9.22,11.88C234.22,721.08,229.76,724.61,224.93,724.61ZM163.74,733a10.73,10.73,0,0,0,3.6,7.35c2.23,2.16,6.33,4.17,13.46,4.17,7.92,0,13-3,15.48-6.12,1.66-2.23,2.52-4.25,2.52-9.72V694.3h-9.43l-0.29,4.46c-0.72-1.15-2.66-5.76-10.87-5.76-8.86,0-16.56,7.05-16.56,18.36s7.78,18.43,16.49,18.43c5.83,0,9.5-2.66,10.87-5.47v4c0,6.19-2.81,8.78-8.5,8.78-4.25,0-6.26-2.16-6.62-4.46Z" transform="translate(-0.25 0.06)"/><path class="b" d="M545.16,527.18c11.93,0,18.36-13.22,12.57-23.23L310.09,75.32a14.41,14.41,0,0,0-25,0L37.67,503.95c-5.78,10,.64,23.23,12.57,23.23H545.16Zm-28.57-31.43L297.71,116.64,78.82,495.75H516.59Z" transform="translate(-0.25 0.06)"/><polyline class="b" points="248.04 473.19 353.86 473.19 353.86 446.01 248.04 446.01 248.04 473.19"/><path class="b" d="M355.16,401.8L330.32,375l18.83-31.27a8.69,8.69,0,0,0,.57-7.77l-15-36.65a9,9,0,0,0-3.83-4.3l-36.54-21.47a9.1,9.1,0,0,0-8.23-.68l-39.09,17c-10.84,4.71-3,20.15,7.29,15.68l34.71-15,27.64,16.24-54.7,22.51a10.67,10.67,0,0,0-5.11,4.12l-25.56,41.29L182.77,372c-13.18-.73-14.31,19-1.11,19.78l54.33,3a9.92,9.92,0,0,0,9-4.7l17.72-28.66-1.42,45.06-38.49,31c-10.06,8.1,1.52,24.23,12.06,15.74l42-33.85a11.16,11.16,0,0,0,4.07-8.37l1.49-47.3,45.86-18.87L312.1,371.66A8.68,8.68,0,0,0,313.18,382l29.06,31.36c7.74,8.35,20.92-3,12.92-11.6" transform="translate(-0.25 0.06)"/><path class="b" d="M345.37,309.23a17.33,17.33,0,1,0,17.33-17.33,17.3,17.3,0,0,0-17.33,17.33" transform="translate(-0.25 0.06)"/></svg>