<svg xmlns="http://www.w3.org/2000/svg" viewBox="0 0 595.28 850.37"><defs><style>.a{fill:#fcc00d;}.a,.b{fill-rule:evenodd;}.b{fill:#000100;}</style></defs><title>W008_C</title><polyline class="a" points="0 850.37 595.28 850.37 595.28 0 0 0 0 850.37"/><path class="b" d="M180.27,643.86h10.51V622.12H213v-8.35H190.78V601.39H217v-8.5H180.27v51Zm199,0h9.86v-12l4.11-4.1,10.08,16.13h12.09L400.3,621.33l13.17-14.11H401.81l-12.67,14-0.07-28.3h-9.8v51Zm-41-12.24c0.14,6.91,6,13.54,17.21,13.54C367,645.16,372,639,372,632.49a10.42,10.42,0,0,0-2.3-6.41c-1.37-1.73-3.17-3-7.49-4L351.7,619.6c-2.23-.58-3.1-1.94-3.1-3.24s1.29-3.67,6.12-3.67c5.18,0,7.49,2.74,7.56,5.69l8.71-.14a13,13,0,0,0-5.26-9.65c-2.16-1.51-5.54-2.81-10.87-2.81-10.58,0-15.27,5.69-15.27,11.95a9.46,9.46,0,0,0,2.59,6.91c1.29,1.36,2.88,2.52,7,3.38l7.92,1.8c4.61,1,5.18,2.45,5.18,4.18s-1.51,4.1-6.91,4.1c-5.18,0-7.85-2.73-8.13-6.55Zm-16.77,12.24h9.79V607.22h-9.79v36.64Zm0-42.19h9.86v-8.78h-9.86v8.78ZM295,643.86h9.8V627.59c0-5.47,1.36-8,3-9.72a8.72,8.72,0,0,1,6.7-2.88,11.55,11.55,0,0,1,1.66.14l0.07-8.71a14.65,14.65,0,0,0-2.09-.21,9.44,9.44,0,0,0-9.14,6.55l-0.29-5.54H295v36.64Zm-17.49,0h9.87v-51h-9.79Zm-17.49,0h9.86v-51H260Zm-18.36-4.18a11.52,11.52,0,0,0,1.23,4.18h10a6.17,6.17,0,0,1-1.66-3.81L251.26,620c0-8.78-4.61-14-16.56-14-11.09,0-15.7,6-15.48,12.24l8.71,0.14c0-2.73,2.09-5.33,7.06-5.33s6.48,2.38,6.48,4.11c0,1.51-.93,2.88-3.6,3.38l-5.62.93c-8.13,1.44-10.29,3-11.81,4.32a10,10,0,0,0-3.39,7.63c0,6,4.75,11.52,14,11.52C236.43,644.87,239.52,643.07,241.61,639.69Zm0.07-15.12-0.07,4.61c0,5.18-3.24,8.43-8.85,8.43-4.11,0-6-2.45-6-4.68,0-1.73.58-3.67,6.77-5.4l4.25-1.15A12.12,12.12,0,0,0,241.69,624.57Z" transform="translate(-0.22 0.06)"/><path class="b" d="M545.13,527.18c11.94,0,18.36-13.23,12.57-23.25L310.05,75.32a14.41,14.41,0,0,0-25,0L37.63,503.94c-5.78,10,.63,23.25,12.57,23.25H545.13Zm-28.57-31.43L297.67,116.64,78.78,495.75H516.55Z" transform="translate(-0.22 0.06)"/><polyline class="b" points="209.98 472.44 198.88 472.44 198.88 420.9 155.35 420.9 155.35 409.85 209.98 409.85 209.98 472.44"/><path class="b" d="M409.81,391.35l-10.76-41.21a9.08,9.08,0,0,0-3-4.86l-33.14-26.46a10.13,10.13,0,0,0-2.29-1.47l-35.38-15.27-32.49-22.92-17.19-36.68c-5-10.6-20.27-2.63-15.48,7.59l18,38.53a9.34,9.34,0,0,0,3.18,3.58l36.25,25.35L296,367.33l-46.49-5.66a9.88,9.88,0,0,0-5,.68l-49.9,20.73c-12,5-4.87,23.4,7.4,18.3l47.68-19.82,46.94,5.7L267.8,402.71A10,10,0,0,0,265,405L230,445.89c-8.33,9.75,5.92,23.4,14.67,13.17l34.06-39.84,45.41-24.34a12,12,0,0,0,5.39-5.82l24-55.6L383,357l10.08,38.76c2.9,11.16,19.63,6.77,16.72-4.37" transform="translate(-0.22 0.06)"/><path class="b" d="M334,289.19A17.24,17.24,0,1,0,351.24,272,17.27,17.27,0,0,0,334,289.19" transform="translate(-0.22 0.06)"/></svg>