<?xml version="1.0" encoding="UTF-8"?>
<svg id="Lager_1" data-name="Lager 1" xmlns="http://www.w3.org/2000/svg" viewBox="0 0 153.09 218.69">
  <defs>
    <style>
      .cls-1 {
        fill: #fff;
      }

      .cls-1, .cls-2, .cls-3 {
        fill-rule: evenodd;
      }

      .cls-2 {
        fill: #fcbd0e;
      }

      .cls-3 {
        fill: #1d1f22;
      }
    </style>
  </defs>
  <polyline class="cls-1" points="0 218.69 153.09 218.69 153.09 0 0 0 0 218.69"/>
  <path class="cls-3" d="M140.13,124.48c3.07,0,4.72-3.4,3.23-5.98L79.68,8.27c-1.43-2.47-4.99-2.47-6.42,0L9.62,118.5c-1.49,2.58.16,5.98,3.23,5.98h127.28"/>
  <polyline class="cls-2" points="132.79 116.4 76.49 18.9 20.2 116.4 132.79 116.4"/>
  <polyline class="cls-3" points="54 110.39 51.15 110.39 51.15 97.13 39.95 97.13 39.95 94.29 54 94.29 54 110.39"/>
  <path class="cls-3" d="M105.33,89.55l-2.77-10.6c-.13-.49-.39-.93-.78-1.25l-8.52-6.81c-.18-.15-.37-.29-.59-.38l-9.1-3.93-8.35-5.89-4.42-9.43c-1.28-2.73-5.21-.68-3.98,1.95l4.64,9.91c.18.38.48.68.82.92l9.32,6.52-5.53,12.81-11.96-1.46c-.43-.05-.88,0-1.28.18l-12.83,5.33c-3.1,1.29-1.25,6.02,1.9,4.71l12.26-5.1,12.07,1.46-7.43,3.97c-.28.15-.53.35-.73.59l-8.98,10.51c-2.14,2.51,1.52,6.02,3.77,3.39l8.76-10.25,11.68-6.26c.62-.33,1.11-.85,1.39-1.5l6.18-14.3,7.56,6.04,2.59,9.97c.75,2.87,5.05,1.74,4.3-1.12"/>
  <path class="cls-3" d="M85.83,63.27c0,2.45,1.99,4.44,4.44,4.44s4.42-1.99,4.42-4.44-1.97-4.42-4.42-4.42-4.44,1.97-4.44,4.42"/>
  <polyline class="cls-2" points="10.19 133.07 142.93 133.07 142.93 208.68 10.19 208.68 10.19 133.07"/>
  <path class="cls-3" d="M46.3,155.23h2.7v-5.59h5.72v-2.15h-5.72v-3.18h6.74v-2.18h-9.44v13.11ZM97.48,155.23h2.54v-3.09l1.06-1.05,2.59,4.15h3.11l-3.89-5.8,3.39-3.63h-3l-3.26,3.59-.02-7.28h-2.52v13.11ZM86.94,152.08c.04,1.78,1.54,3.48,4.43,3.48s4.24-1.57,4.24-3.26c0-.59-.22-1.18-.59-1.65-.35-.44-.82-.78-1.93-1.04l-2.7-.63c-.57-.15-.8-.5-.8-.83,0-.37.33-.95,1.57-.95,1.33,0,1.93.7,1.94,1.46l2.24-.04c-.04-.94-.55-1.89-1.35-2.48-.56-.39-1.43-.72-2.8-.72-2.72,0-3.93,1.46-3.93,3.07,0,.76.22,1.3.67,1.78.33.35.74.65,1.8.87l2.04.46c1.19.26,1.33.63,1.33,1.07,0,.41-.39,1.05-1.78,1.05s-2.02-.7-2.09-1.68l-2.3.02ZM82.63,155.23h2.52v-9.42h-2.52v9.42ZM82.63,144.38h2.54v-2.26h-2.54v2.26ZM75.8,155.23h2.52v-4.18c0-1.41.35-2.05.76-2.5.48-.5,1.02-.74,1.72-.74.15,0,.3.02.43.04l.02-2.24c-.13-.02-.33-.06-.54-.06-1.11,0-2.05.7-2.35,1.68l-.07-1.43h-2.48v9.42ZM71.3,155.23h2.54v-13.11h-2.52l-.02,13.11ZM66.8,155.23h2.54v-13.11h-2.52l-.02,13.11ZM62.08,154.16c.06.46.17.8.32,1.07h2.57c-.32-.39-.41-.67-.43-.98l.02-5.17c0-2.26-1.18-3.61-4.26-3.61-2.85,0-4.04,1.55-3.98,3.15l2.24.04c0-.7.54-1.37,1.81-1.37s1.67.61,1.67,1.06c0,.39-.24.74-.93.87l-1.44.24c-2.09.37-2.65.76-3.04,1.11-.57.5-.87,1.2-.87,1.96,0,1.56,1.22,2.96,3.59,2.96,1.39,0,2.18-.46,2.72-1.33ZM62.1,150.27l-.02,1.18c0,1.33-.83,2.17-2.28,2.17-1.06,0-1.56-.63-1.56-1.2,0-.44.15-.94,1.74-1.39l1.09-.3c.48-.13.82-.32,1.02-.46Z"/>
</svg>