<?xml version="1.0" encoding="UTF-8"?>
<svg id="Lager_1" data-name="Lager 1" xmlns="http://www.w3.org/2000/svg" viewBox="0 0 153.09 218.69">
  <defs>
    <style>
      .cls-1 {
        fill: #fff;
      }

      .cls-1, .cls-2, .cls-3 {
        fill-rule: evenodd;
      }

      .cls-2 {
        fill: #fcbd0e;
      }

      .cls-3 {
        fill: #1d1f22;
      }
    </style>
  </defs>
  <polyline class="cls-1" points="0 218.69 153.09 218.69 153.09 0 0 0 0 218.69"/>
  <path class="cls-3" d="M143.4,118.55L79.88,8.43c-1.5-2.6-5.25-2.6-6.75,0L9.6,118.55c-1.5,2.6.36,5.87,3.37,5.87h127.05c3.01,0,4.88-3.27,3.38-5.87"/>
  <polyline class="cls-2" points="10.19 133.07 142.93 133.07 142.93 208.68 10.19 208.68 10.19 133.07"/>
  <path class="cls-3" d="M31.79,151.29c0,2.41,1.8,4.55,5.61,4.55s5.5-2.06,5.5-4.26c0-1.65-1.02-3.15-3.28-3.72l-3.11-.78c-.93-.24-1.02-.35-1.22-.56-.22-.24-.33-.54-.33-.87,0-.76.65-1.67,2.52-1.67.91,0,1.61.31,1.98.7.37.35.59.87.63,1.41l2.59.04c-.11-1.44-.59-2.31-1.32-2.98-.74-.67-2.15-1.31-4.05-1.31-3.46,0-5.07,1.94-5.07,4.11,0,1.67.94,3.02,3.24,3.59l2.67.68c.48.11,1.18.2,1.63.76.22.3.33.63.33.87,0,.85-.65,1.81-2.78,1.81s-2.93-1.07-2.89-2.37l-2.65-.02ZM112.02,155.4h2.54v-3.09l1.05-1.05,2.59,4.15h3.11l-3.89-5.79,3.39-3.63h-3l-3.26,3.59-.02-7.28h-2.52v13.11ZM101.48,152.25c.04,1.78,1.54,3.48,4.42,3.48s4.24-1.57,4.24-3.26c0-.59-.2-1.18-.59-1.65-.35-.45-.8-.78-1.91-1.04l-2.72-.63c-.56-.15-.8-.5-.8-.83,0-.37.33-.94,1.57-.94,1.35,0,1.94.7,1.94,1.46l2.24-.04c-.04-.95-.54-1.89-1.35-2.48-.54-.39-1.43-.72-2.8-.72-2.72,0-3.91,1.46-3.91,3.07,0,.76.2,1.3.65,1.78.33.35.74.65,1.8.87l2.04.46c1.2.26,1.33.63,1.33,1.07,0,.41-.39,1.05-1.78,1.05s-2.02-.7-2.09-1.68l-2.3.02ZM97.17,155.4h2.54v-9.42h-2.54v9.42ZM97.19,144.55h2.52v-2.26h-2.52v2.26ZM90.32,155.4h2.54v-4.18c0-1.41.35-2.06.76-2.5.48-.5,1.04-.74,1.74-.74.13,0,.28.02.43.04v-2.24c-.11-.02-.32-.06-.54-.06-1.09,0-2.06.7-2.35,1.68l-.07-1.42h-2.48l-.02,9.42ZM83.58,155.75c2.85,0,4.94-2.02,4.94-5.09s-2.06-5.04-4.98-5.04-4.93,2.04-4.93,5.02,2.09,5.11,4.96,5.11ZM83.56,153.77c-1.2,0-2.35-.93-2.35-3.02,0-2.26,1.11-3.15,2.37-3.15s2.37.91,2.37,3.05-1.15,3.11-2.39,3.11ZM77.3,155.4v-1.94h-.93c-.3,0-.59-.17-.72-.35-.05-.07-.13-.22-.13-.74v-4.67h1.7v-1.72h-1.68l-.02-2.98h-2.54v2.98h-1.31v1.74l1.33-.02v4.87c0,2.13.87,2.83,2.26,2.83h2.04ZM70.3,155.4v-1.94h-.94c-.3,0-.59-.17-.72-.35-.06-.07-.13-.22-.13-.74v-4.67h1.72v-1.72h-1.7l-.02-2.98h-2.54v2.98h-1.31v1.74l1.33-.02v4.87c0,2.13.87,2.83,2.26,2.83h2.06ZM60.54,155.4h2.54v-9.42h-2.54v9.42ZM60.56,144.55h2.52v-2.26h-2.52v2.26ZM44.77,155.4h2.54v-5.44c0-1.35.76-2.04,1.78-2.04.68,0,1.09.33,1.28.8.04.09.11.3.11,1.04v5.65h2.52v-5.59c0-1.22.74-1.92,1.74-1.92.87,0,1.43.52,1.43,1.63v5.89h2.52l-.02-6.61c-.06-1.98-1.32-3.11-3.04-3.11-1.3,0-2.33.61-2.89,1.65-.48-.98-1.54-1.65-2.78-1.65s-2.13.56-2.61,1.5l-.09-1.18-2.46-.02-.02,9.42Z"/>
  <polyline class="cls-2" points="20.22 116.35 76.5 18.76 132.78 116.35 20.22 116.35"/>
  <path class="cls-3" d="M73.08,84.86c-.09-.32-.14-.65-.14-1,0-1.7,1.19-3.13,2.79-3.48v-3.56c-7.02-.45-12.59-6.3-12.59-13.42,0-6.69,4.91-12.25,11.31-13.28v-.59c-9.48,1.12-16.85,9.21-16.85,18.98,0,1.55.18,3.05.53,4.49-8.06,2.25-13.98,9.65-13.98,18.42,0,2.78.6,5.43,1.67,7.82l.56-.32c-.64-1.57-.99-3.28-.99-5.07,0-7.41,6.03-13.44,13.45-13.44,4.7,0,8.85,2.43,11.26,6.1l2.98-1.64"/>
  <path class="cls-3" d="M70.89,87.9c.89,1.8,1.39,3.82,1.39,5.96,0,7.42-6.03,13.45-13.45,13.45-4.15,0-7.86-1.89-10.33-4.85l-.6.34c3.49,4.69,9.07,7.74,15.35,7.74,5.11,0,9.75-2.01,13.19-5.29,3.44,3.33,8.13,5.39,13.29,5.39,6.33,0,11.95-3.1,15.44-7.85l-.6-.35c-2.47,3.11-6.28,5.11-10.55,5.11-7.42,0-13.45-6.04-13.45-13.45,0-2.2.53-4.28,1.47-6.11l-2.94-1.7c-.65.7-1.58,1.13-2.61,1.13s-1.99-.45-2.65-1.18l-2.96,1.64"/>
  <path class="cls-3" d="M82.86,86.62c2.42-3.59,6.52-5.95,11.16-5.95,7.42,0,13.45,6.03,13.45,13.45,0,1.67-.31,3.27-.87,4.75l.63.36c1.04-2.36,1.62-4.96,1.62-7.7,0-8.63-5.75-15.94-13.61-18.31.38-1.5.58-3.08.58-4.7,0-9.92-7.59-18.09-17.27-19.03v.61c6.48.96,11.47,6.56,11.47,13.3,0,7.17-5.65,13.06-12.73,13.43v3.55c1.59.36,2.78,1.79,2.78,3.48,0,.37-.06.73-.16,1.06l2.96,1.7"/>
  <path class="cls-3" d="M84.5,100.54c6.2-2.99,10.49-9.34,10.49-16.67,0-.4-.01-.8-.04-1.2-.31-.03-.61-.04-.93-.04-1.88,0-3.66.44-5.23,1.25,0,4.58-2.53,8.58-6.25,10.69.08,2.2.79,4.25,1.95,5.97"/>
  <path class="cls-3" d="M86.86,68.55c-.96,1.92-2.45,3.52-4.27,4.64-1.79-1.03-3.87-1.62-6.08-1.62s-4.23.57-6.01,1.57c-1.8-1.13-3.28-2.75-4.22-4.67,2.93-1.96,6.45-3.1,10.24-3.1s7.39,1.17,10.35,3.17ZM68.25,100.43c-6.07-3.04-10.26-9.32-10.26-16.56,0-.5.02-.99.06-1.47.26-.02.51-.02.77-.02,1.93,0,3.76.48,5.36,1.32,0,.06,0,.11,0,.17,0,4.53,2.45,8.5,6.11,10.64-.12,2.19-.87,4.22-2.06,5.92Z"/>
</svg>