<svg xmlns="http://www.w3.org/2000/svg" viewBox="0 0 595.28 850.36"><defs><style>.a{fill:#fcc00d;}.a,.b{fill-rule:evenodd;}.b{fill:#000100;}</style></defs><title>W009_C</title><polyline class="a" points="0 850.36 595.28 850.36 595.28 0 0 0 0 850.36"/><path class="b" d="M123.8,627.88c0,9.36,7,17.71,21.82,17.71S167,637.6,167,629c0-6.41-4-12.24-12.75-14.47l-12.09-3c-3.6-.94-4-1.37-4.75-2.16a4.86,4.86,0,0,1-1.3-3.38c0-3,2.52-6.48,9.8-6.48,3.53,0,6.26,1.22,7.7,2.73a8.4,8.4,0,0,1,2.45,5.47l10.08,0.15c-0.44-5.62-2.31-9-5.11-11.6s-8.35-5.11-15.77-5.11c-13.46,0-19.73,7.56-19.73,16,0,6.48,3.67,11.74,12.6,14l10.37,2.67c1.87,0.43,4.61.79,6.34,3a6.07,6.07,0,0,1,1.29,3.38c0,3.31-2.52,7.05-10.8,7.05-8.06,0-11.38-4.17-11.23-9.22Zm312,16h9.87v-12l4.1-4.1,10.08,16.13h12.1l-15.12-22.53L470,607.22H458.3l-12.67,14-0.07-28.3h-9.79v51Zm-41-12.24c0.14,6.91,6,13.54,17.21,13.54,11.45,0,16.49-6.12,16.49-12.67a10,10,0,0,0-2.31-6.41c-1.36-1.73-3.09-3-7.42-4l-10.58-2.45c-2.16-.58-3.1-1.94-3.1-3.24s1.3-3.67,6.12-3.67c5.26,0,7.56,2.74,7.56,5.69l8.71-.14a12.76,12.76,0,0,0-5.26-9.65c-2.09-1.51-5.54-2.81-10.87-2.81-10.58,0-15.19,5.69-15.19,11.95a9.42,9.42,0,0,0,2.52,6.91c1.3,1.36,2.88,2.52,7,3.38l7.92,1.8c4.68,1,5.18,2.45,5.18,4.18s-1.51,4.1-6.91,4.1c-5.18,0-7.85-2.73-8.13-6.55ZM378,643.86h9.86V607.22H378v36.64Zm0.07-42.19h9.79v-8.78h-9.79v8.78Zm-26.71,42.19h9.86V627.59c0-5.47,1.37-8,3-9.72A8.88,8.88,0,0,1,371,615a13.68,13.68,0,0,1,1.66.14v-8.71a12.66,12.66,0,0,0-2.09-.21,9.52,9.52,0,0,0-9.15,6.55l-0.29-5.54h-9.65Zm-26.21,1.37c11.09,0,19.22-7.85,19.22-19.8,0-11.59-8-19.58-19.37-19.58-11,0-19.15,7.92-19.15,19.51C305.88,637.45,314,645.23,325.17,645.23Zm-0.07-7.7c-4.68,0-9.14-3.6-9.14-11.74,0-8.78,4.32-12.24,9.22-12.24s9.22,3.53,9.22,11.88C334.39,634,329.93,637.53,325.1,637.53Zm-24.33,6.33V636.3h-3.6a3.65,3.65,0,0,1-2.81-1.37c-0.21-.29-0.5-0.86-0.5-2.88V613.91h6.62v-6.7h-6.55l-0.07-11.59H284v11.59h-5.11V614l5.18-.07v18.93c0,8.28,3.39,11,8.78,11h7.92Zm-27.22,0V636.3h-3.67a3.64,3.64,0,0,1-2.81-1.37c-0.22-.29-0.51-0.86-0.51-2.88V613.91h6.7v-6.7h-6.62l-0.07-11.59H256.7v11.59h-5.11V614l5.18-.07v18.93c0,8.28,3.38,11,8.78,11h8Zm-37.94,0h9.86V607.22h-9.86v36.64Zm0.07-42.19h9.79v-8.78h-9.79v8.78Zm-61.41,42.19h9.86V622.7c0-5.26,3-7.92,6.91-7.92a4.92,4.92,0,0,1,5,3.1c0.14,0.36.43,1.15,0.43,4v22h9.79V622.12c0-4.75,2.88-7.49,6.77-7.49,3.39,0,5.54,2,5.54,6.33v22.9h9.79l-0.07-25.7c-0.22-7.7-5.11-12.09-11.81-12.09a12.22,12.22,0,0,0-11.23,6.41,11.86,11.86,0,0,0-10.8-6.41c-5,0-8.28,2.16-10.15,5.83l-0.36-4.61-9.58-.07Z" transform="translate(-0.19 0.06)"/><path class="b" d="M78.81,495.58L297.65,116.1,516.5,495.58H78.81Zm479,8.54-247-428.19a15.16,15.16,0,0,0-26.25,0l-247,428.19A15.21,15.21,0,0,0,50.64,527h494A15.21,15.21,0,0,0,557.81,504.13Z" transform="translate(-0.19 0.06)"/><path class="b" d="M284.36,373.14a13.89,13.89,0,0,1,10.28-17.43V341.86a52.29,52.29,0,0,1-5-103.81v-2.29A74.37,74.37,0,0,0,226.23,327a74.34,74.34,0,0,0-47.87,102l2.19-1.26a52.28,52.28,0,0,1,92.21-48.26l11.6-6.39" transform="translate(-0.19 0.06)"/><path class="b" d="M275.85,384.94a52.27,52.27,0,0,1-87,56.61l-2.33,1.35a74.25,74.25,0,0,0,111,9.54,74.24,74.24,0,0,0,111.72-9.55l-2.33-1.35a52.28,52.28,0,0,1-87.59-56.19l-11.44-6.61a13.87,13.87,0,0,1-20.44-.17l-11.53,6.38" transform="translate(-0.19 0.06)"/><path class="b" d="M322.39,380a52.29,52.29,0,0,1,92.34,47.61l2.43,1.4a74.36,74.36,0,0,0-46.64-101.14,74.41,74.41,0,0,0-64.88-92.26v2.37a52.29,52.29,0,0,1-4.92,103.94V355.7a13.89,13.89,0,0,1,10.16,17.67L322.39,380" transform="translate(-0.19 0.06)"/><path class="b" d="M328.77,434.09a72,72,0,0,0,40.81-64.83c0-1.57-.05-3.12-0.15-4.67-1.19-.09-2.39-0.14-3.6-0.14a44.51,44.51,0,0,0-20.32,4.85,47.84,47.84,0,0,1-24.32,41.58,44.42,44.42,0,0,0,7.59,23.22" transform="translate(-0.19 0.06)"/><path class="b" d="M337.94,309.69a44.94,44.94,0,0,1-16.59,18.05,47.72,47.72,0,0,0-47-.18,45.09,45.09,0,0,1-16.42-18.16A71.75,71.75,0,0,1,337.94,309.69Zm-72.35,124a72,72,0,0,1-39.88-64.38c0-1.93.08-3.84,0.23-5.74,1-.07,2-0.09,3-0.09a44.49,44.49,0,0,1,20.85,5.15c0,0.23,0,.45,0,0.68a47.83,47.83,0,0,0,23.78,41.36A44.51,44.51,0,0,1,265.6,433.66Z" transform="translate(-0.19 0.06)"/></svg>