<svg xmlns="http://www.w3.org/2000/svg" viewBox="0 0 595.28 850.37"><defs><style>.a{fill:#fcc00d;}.a,.b{fill-rule:evenodd;}.b{fill:#000100;}</style></defs><title>W010_C</title><polyline class="a" points="0 850.37 595.28 850.37 595.28 0 0 0 0 850.37"/><path class="b" d="M238.9,643.86h35.28v-8.78H249.41V592.89H238.9v51Zm82.58,2a11,11,0,0,0,3.53,7.34c2.23,2.16,6.41,4.18,13.46,4.18,7.92,0,13-3,15.48-6.12,1.66-2.23,2.59-4.25,2.59-9.72V607.22h-9.43l-0.36,4.46c-0.65-1.15-2.66-5.76-10.8-5.76-8.85,0-16.56,7.05-16.56,18.36s7.71,18.43,16.42,18.43c5.9,0,9.5-2.66,10.94-5.47v4c0,6.19-2.88,8.78-8.49,8.78-4.32,0-6.34-2.16-6.7-4.46Zm16.71-11.67c-4.82,0-8.85-3.45-8.85-10.22,0-5.9,4.1-9.65,8.64-9.65s8.64,3.74,8.64,9.94S342.44,634.22,338.19,634.22Zm-35.71,5.47a14.83,14.83,0,0,0,1.3,4.18h10c-0.58-.5-1.58-2.16-1.58-5.18L312.05,620a18.5,18.5,0,0,0-.51-5c-1.51-5-5.54-9.07-15.48-9.07-11.37,0-15.91,5.83-15.91,12.24l8.71,0.14c0.36-2.45.79-3,1.58-3.67s2.74-1.73,5.69-1.73c4.53,0,6.26,2.45,6.26,4.18s-1.08,3-3.74,3.45l-9.79,1.73c-7.42,1.29-10.87,6.12-10.87,10.94,0,6.33,4.82,11.74,13.75,11.74C297.72,644.94,301.1,642.5,302.47,639.69Zm0.07-15.33-0.07,5.47c-0.21,4.61-3.31,7.78-8.64,7.78-4.1,0-6.12-2.45-6.12-4.61,0-1.73.86-4,6.7-5.4l4.17-1.15A8.4,8.4,0,0,0,302.55,624.35ZM295.42,603a5.12,5.12,0,0,0-.22-10.22,5.2,5.2,0,0,0-5.18,5.11A5.11,5.11,0,0,0,295.42,603Zm-0.14-2.09a3,3,0,0,1-3.17-3,3.2,3.2,0,0,1,3-3.1A3.06,3.06,0,0,1,295.28,600.88Z" transform="translate(-0.1 0.06)"/><path class="b" d="M133,730.95v-7.56h-3.67a3.65,3.65,0,0,1-2.81-1.36c-0.21-.29-0.51-0.87-0.51-2.88V701h6.7v-6.7h-6.62L126,682.71h-9.79V694.3H111v6.77l5.18-.07v18.94c0,8.28,3.39,11,8.86,11H133Zm330,0h9.86L473,714.68c0-5.47,1.29-8,3-9.72a8.61,8.61,0,0,1,6.7-2.88,13.64,13.64,0,0,1,1.66.14l0.07-8.71a14.69,14.69,0,0,0-2.16-.21,9.52,9.52,0,0,0-9.15,6.55l-0.29-5.55h-9.65Zm-17.42-4.1,0.51,4.1h9.29V694.37l-9.79-.07v20.52c0,5.61-3.31,8.5-7.35,8.5-3.6,0-5.9-1.94-5.9-7.13V694.3h-9.86v25.2c0,4.83,1.37,7.42,3.6,9.51a13.26,13.26,0,0,0,9.15,3.17A11.9,11.9,0,0,0,445.6,726.84Zm-30.24,4.1v-7.56h-3.67a3.65,3.65,0,0,1-2.81-1.36c-0.22-.29-0.51-0.87-0.51-2.88V701h6.7v-6.7h-6.62l-0.07-11.59h-9.79V694.3H393.4v6.77l5.18-.07v18.94c0,8.28,3.38,11,8.86,11h7.92Zm-37.65-4.17a10.3,10.3,0,0,0,1.15,4.17h10.08a5.47,5.47,0,0,1-1.66-3.81V707c0-8.78-4.53-14-16.49-14-11.09,0-15.69,6-15.48,12.24l8.64,0.14c0-2.73,2.09-5.33,7.13-5.33,4.83,0,6.41,2.38,6.41,4.11,0,1.51-.94,2.88-3.6,3.38l-5.62.94c-8.06,1.44-10.3,3-11.81,4.32a10.21,10.21,0,0,0-3.38,7.63c0,6,4.75,11.52,14,11.52C372.45,732,375.62,730.16,377.71,726.77Zm0-15.12v4.61c0,5.18-3.24,8.43-8.86,8.43-4.18,0-6.12-2.45-6.12-4.68,0-1.73.58-3.67,6.77-5.4l4.32-1.15A11.55,11.55,0,0,0,377.71,711.65Zm-47.52,19.29h9.87l0.07-16.27c0-5.47,1.3-8,3-9.72a8.62,8.62,0,0,1,6.7-2.88,13.68,13.68,0,0,1,1.66.14l0.07-8.71a14.74,14.74,0,0,0-2.16-.21,9.51,9.51,0,0,0-9.14,6.55l-0.29-5.55h-9.65Zm-34.06-15.62,27.15,0.07c0-10.87-5-22.39-18.58-22.39-14,0-18.36,11.16-18.36,19.51,0,12.17,8.06,19.73,18.22,19.73,10.37,0,16.56-5.54,18-12l-9.86-.65c-1.87,3.39-4.46,4.76-7.63,4.76C300.38,724.4,296.64,721.23,296.13,715.33Zm0.43-7.13a8.31,8.31,0,0,1,7.92-7.49c4,0,7.49,2.73,8.13,7.49H296.56ZM253.29,726.7c2.09,3.38,5.69,5.47,10.73,5.47,10,0,16.2-9.29,16.2-19.73,0-10-6-19.29-16.13-19.29a13.12,13.12,0,0,0-10.58,5l-0.43-3.74-9.72.07V742.9h9.87Zm8.78-2.09c-4.75,0-8.78-3.17-8.78-11.09,0-8.86,4.39-12,8.43-12s8.5,3.31,8.5,11.45C270.22,718.42,267.91,724.54,262.08,724.61ZM182,730.95h9.86L192,709.78c0-5.26,2.88-7.92,6.84-7.92a4.92,4.92,0,0,1,5,3.1c0.15,0.36.44,1.15,0.44,4v22H214V709.2c0-4.75,2.88-7.49,6.77-7.49,3.38,0,5.62,2,5.62,6.33v22.9h9.72L236,705.24c-0.22-7.7-5.11-12.09-11.81-12.09A12.29,12.29,0,0,0,213,699.56a11.79,11.79,0,0,0-10.8-6.41c-5,0-8.28,2.16-10.15,5.83l-0.36-4.61-9.58-.07Zm-34.13-15.62,27.22,0.07c0-10.87-5-22.39-18.57-22.39-14,0-18.43,11.16-18.43,19.51,0,12.17,8.06,19.73,18.29,19.73s16.56-5.54,18-12l-9.87-.65c-1.87,3.39-4.46,4.76-7.63,4.76C152.21,724.4,148.39,721.23,147.89,715.33Zm0.43-7.13a8.38,8.38,0,0,1,8-7.49c4,0,7.48,2.73,8.13,7.49H148.32Z" transform="translate(-0.1 0.06)"/><path class="b" d="M78.71,495.58L297.56,116.11,516.41,495.58H78.71Zm479,8.53-247-428.19a15.15,15.15,0,0,0-26.25,0l-247,428.19A15.21,15.21,0,0,0,50.55,527h494A15.22,15.22,0,0,0,557.72,504.12Z" transform="translate(-0.1 0.06)"/><path class="b" d="M392.23,393.42l-5.34-20-41.45,11.09-23.19-13.38c0.07-.77.12-1.56,0.12-2.35s0-1.58-.12-2.36l23.21-13.38,41.44,11.09,5.34-20-21.45-5.74,22.3-12.87-10.33-17.9-22.32,12.87,5.75-21.41-20-5.36-11.1,41.38-23.23,13.4a24.6,24.6,0,0,0-4.07-2.35v-23.3l30.31-30.29L323.53,278l-15.69,15.69V264.49H287.18v29.24L271.44,278l-14.61,14.62,30.34,30.29v23.3a24.48,24.48,0,0,0-4.09,2.36l-20.23-11.67-11.09-41.39-20,5.35,5.75,21.44-25.34-14.62-10.33,17.9,25.32,14.61L205.75,346l5.35,20,41.43-11.09,20.21,11.65c-0.07.77-.11,1.55-0.11,2.34s0,1.57.11,2.34l-20.22,11.66-41.44-11.08-5.34,20,21.44,5.74L201.87,412l10.33,17.9,25.34-14.61-5.74,21.42,20,5.36,11.09-41.38,20.22-11.67a24.94,24.94,0,0,0,4.1,2.36V418.2L256.84,448.5l14.61,14.62,15.73-15.71v25.75h20.66V447.43l15.69,15.68,14.62-14.62L307.83,418.2V391.43a25.13,25.13,0,0,0,4.07-2.35l23.23,13.39,11.1,41.38,20-5.36-5.75-21.43,22.32,12.87L393.09,412l-22.32-12.87,21.46-5.75" transform="translate(-0.1 0.06)"/></svg>