<?xml version="1.0" encoding="UTF-8"?>
<svg id="Lager_1" data-name="Lager 1" xmlns="http://www.w3.org/2000/svg" viewBox="0 0 153.09 218.69">
  <defs>
    <style>
      .cls-1 {
        fill: #fff;
      }

      .cls-1, .cls-2, .cls-3 {
        fill-rule: evenodd;
      }

      .cls-2 {
        fill: #fcbd0e;
      }

      .cls-3 {
        fill: #1d1f22;
      }
    </style>
  </defs>
  <polyline class="cls-1" points="0 218.69 153.09 218.69 153.09 0 0 0 0 218.69"/>
  <path class="cls-3" d="M143.4,118.55L79.88,8.43c-1.5-2.6-5.25-2.6-6.75,0L9.6,118.55c-1.5,2.6.36,5.88,3.37,5.88h127.05c3.02,0,4.88-3.27,3.38-5.88"/>
  <polyline class="cls-2" points="10.2 133.07 142.93 133.07 142.93 208.69 10.2 208.69 10.2 133.07"/>
  <path class="cls-3" d="M61.41,153.68h9.07v-2.26h-6.37v-10.85h-2.7v13.11ZM82.65,154.19c.11.89.39,1.39.91,1.89.57.56,1.65,1.07,3.46,1.07,2.04,0,3.35-.76,3.98-1.57.43-.57.67-1.09.67-2.5v-8.83h-2.43l-.09,1.15c-.17-.3-.69-1.48-2.78-1.48-2.28,0-4.26,1.82-4.26,4.72s1.98,4.74,4.22,4.74c1.52,0,2.44-.68,2.81-1.41v1.02c0,1.59-.74,2.26-2.18,2.26-1.11,0-1.63-.55-1.72-1.15l-2.59.09ZM86.95,151.19c-1.24,0-2.28-.89-2.28-2.63,0-1.52,1.05-2.48,2.22-2.48s2.22.96,2.22,2.55-1.07,2.55-2.17,2.55ZM77.76,152.6c.06.37.19.78.33,1.07h2.57c-.15-.13-.41-.56-.41-1.33l-.04-4.81c-.02-.83-.07-1.07-.13-1.28-.39-1.3-1.43-2.33-3.98-2.33-2.93,0-4.09,1.5-4.09,3.15l2.24.04c.09-.63.2-.76.41-.94.22-.22.7-.45,1.46-.45,1.17,0,1.61.63,1.61,1.07s-.28.76-.96.89l-2.52.45c-1.91.33-2.8,1.57-2.8,2.81,0,1.63,1.24,3.02,3.54,3.02,1.54,0,2.41-.63,2.76-1.35ZM77.78,148.66l-.02,1.41c-.05,1.18-.85,2-2.22,2-1.06,0-1.57-.63-1.57-1.18,0-.44.22-1.02,1.72-1.39l1.07-.3c.43-.09.76-.3,1.02-.54ZM75.95,143.16c.63,0,1.22-.59,1.22-1.31s-.59-1.31-1.28-1.31c-.74,0-1.33.61-1.33,1.31,0,.74.57,1.31,1.39,1.31ZM75.91,142.62c-.48,0-.81-.35-.81-.78s.37-.78.78-.8c.43,0,.76.33.76.8s-.35.78-.72.78Z"/>
  <path class="cls-3" d="M34.17,175.7v-1.94h-.95c-.3,0-.59-.17-.72-.35-.06-.07-.13-.22-.13-.74v-4.67h1.72v-1.72h-1.7l-.02-2.98h-2.52v2.98h-1.33v1.74l1.33-.02v4.87c0,2.13.87,2.83,2.28,2.83h2.04ZM119.05,175.7h2.54l.02-4.18c0-1.41.33-2.05.76-2.5.46-.5,1.02-.74,1.72-.74.13,0,.28.02.43.04l.02-2.24c-.13-.02-.33-.06-.55-.06-1.09,0-2.06.7-2.35,1.68l-.07-1.43h-2.48l-.02,9.42ZM114.57,174.65l.13,1.05h2.39v-9.41l-2.52-.02v5.28c0,1.45-.85,2.18-1.89,2.18-.93,0-1.52-.5-1.52-1.83v-5.63h-2.54v6.48c0,1.24.35,1.91.93,2.44.56.5,1.33.82,2.35.82,1.17,0,2.09-.5,2.67-1.37ZM106.79,175.7v-1.94h-.94c-.3,0-.59-.17-.72-.35-.06-.07-.13-.22-.13-.74v-4.67h1.72v-1.72h-1.7l-.02-2.98h-2.52v2.98h-1.33v1.74l1.33-.02v4.87c0,2.13.87,2.83,2.28,2.83h2.04ZM97.11,174.63c.04.46.15.8.3,1.07h2.59c-.33-.39-.43-.67-.43-.98v-5.17c0-2.26-1.17-3.61-4.24-3.61-2.85,0-4.04,1.56-3.98,3.15l2.22.04c0-.7.54-1.37,1.83-1.37s1.65.61,1.65,1.05c0,.39-.24.74-.93.87l-1.44.24c-2.07.37-2.65.76-3.04,1.11-.55.5-.87,1.2-.87,1.96,0,1.55,1.22,2.96,3.61,2.96,1.37,0,2.19-.46,2.72-1.33ZM97.11,170.74v1.18c0,1.33-.83,2.17-2.28,2.17-1.07,0-1.57-.63-1.57-1.2,0-.45.15-.95,1.74-1.39l1.11-.3c.48-.13.8-.32,1-.46ZM84.89,175.7h2.54l.02-4.18c0-1.41.33-2.05.76-2.5.46-.5,1.02-.74,1.72-.74.13,0,.28.02.43.04l.02-2.24c-.13-.02-.33-.06-.56-.06-1.09,0-2.05.7-2.35,1.68l-.07-1.43h-2.48l-.02,9.42ZM76.13,171.68l6.98.02c0-2.8-1.28-5.76-4.78-5.76s-4.72,2.87-4.72,5.02c0,3.13,2.07,5.07,4.68,5.07s4.26-1.42,4.63-3.07l-2.54-.17c-.48.87-1.15,1.22-1.96,1.22-1.2,0-2.17-.82-2.3-2.33ZM76.24,169.85c.15-1.15,1.07-1.93,2.04-1.93,1.04,0,1.93.7,2.09,1.93h-4.13ZM65.11,174.61c.54.87,1.46,1.41,2.76,1.41,2.57,0,4.17-2.39,4.17-5.07s-1.56-4.96-4.15-4.96c-1.13,0-2.07.46-2.72,1.28l-.11-.96-2.5.02v12.46h2.54l.02-4.17ZM67.37,174.07c-1.22,0-2.26-.82-2.26-2.85,0-2.28,1.13-3.07,2.17-3.07s2.19.85,2.19,2.94c0,1.39-.59,2.96-2.09,2.98ZM46.78,175.7h2.54l.02-5.44c0-1.35.74-2.04,1.76-2.04.69,0,1.09.33,1.28.8.04.09.11.3.11,1.04v5.65h2.52v-5.59c0-1.22.74-1.92,1.74-1.92.87,0,1.44.52,1.44,1.63v5.89h2.5l-.02-6.61c-.06-1.98-1.31-3.11-3.04-3.11-1.3,0-2.32.61-2.89,1.65-.48-.98-1.52-1.65-2.78-1.65s-2.13.56-2.61,1.5l-.09-1.18-2.46-.02-.02,9.42ZM38.01,171.68l7,.02c0-2.8-1.28-5.76-4.78-5.76s-4.74,2.87-4.74,5.02c0,3.13,2.07,5.07,4.7,5.07s4.26-1.42,4.63-3.07l-2.54-.17c-.48.87-1.15,1.22-1.96,1.22-1.2,0-2.19-.82-2.32-2.33ZM38.12,169.85c.15-1.15,1.09-1.93,2.06-1.93,1.04,0,1.92.7,2.09,1.93h-4.15Z"/>
  <polyline class="cls-2" points="20.22 116.35 76.5 18.76 132.78 116.35 20.22 116.35"/>
  <path class="cls-3" d="M100.84,90.08l-1.37-5.13-10.66,2.85-5.97-3.44c.02-.2.03-.4.03-.61s-.01-.41-.03-.6l5.97-3.44,10.66,2.85,1.37-5.13-5.52-1.48,5.74-3.31-2.66-4.6-5.74,3.31,1.48-5.51-5.13-1.38-2.85,10.64-5.97,3.45c-.33-.23-.68-.44-1.05-.6v-5.99l7.8-7.79-3.76-3.76-4.04,4.03v-7.51h-5.31v7.52l-4.05-4.04-3.76,3.76,7.8,7.79v5.99c-.37.17-.72.37-1.05.61l-5.2-3-2.85-10.64-5.13,1.38,1.48,5.51-6.52-3.76-2.66,4.6,6.51,3.76-5.52,1.48,1.38,5.13,10.66-2.85,5.2,3c-.02.2-.03.4-.03.6s.01.4.03.6l-5.2,3-10.66-2.85-1.37,5.13,5.51,1.48-6.51,3.76,2.66,4.6,6.52-3.76-1.48,5.51,5.13,1.38,2.85-10.64,5.2-3c.33.23.68.44,1.05.61v6.89l-7.8,7.79,3.76,3.76,4.05-4.04v6.62h5.31v-6.62l4.04,4.03,3.76-3.76-7.8-7.79v-6.89c.37-.17.72-.37,1.05-.6l5.97,3.44,2.85,10.64,5.13-1.38-1.48-5.51,5.74,3.31,2.66-4.6-5.74-3.31,5.52-1.48"/>
</svg>