<?xml version="1.0" encoding="UTF-8"?>
<svg id="Lager_1" data-name="Lager 1" xmlns="http://www.w3.org/2000/svg" viewBox="0 0 153.09 218.69">
  <defs>
    <style>
      .cls-1 {
        fill: #fff;
      }

      .cls-1, .cls-2, .cls-3 {
        fill-rule: evenodd;
      }

      .cls-2 {
        fill: #fcbd0e;
      }

      .cls-3 {
        fill: #1d1f22;
      }
    </style>
  </defs>
  <polyline class="cls-1" points="0 218.69 153.09 218.69 153.09 0 0 0 0 218.69"/>
  <path class="cls-3" d="M140.13,124.48c3.07,0,4.72-3.4,3.23-5.97L79.68,8.28c-1.43-2.47-4.99-2.47-6.42,0L9.62,118.51c-1.49,2.57.17,5.97,3.23,5.97h127.28"/>
  <polyline class="cls-2" points="132.78 116.4 76.49 18.91 20.2 116.4 132.78 116.4"/>
  <polyline class="cls-3" points="34.47 110.58 118.52 110.58 118.52 106.34 34.47 106.34 34.47 110.58"/>
  <path class="cls-3" d="M92.96,65.33l-3.3,8.07-7.76,2.07-7.39-3.17-7.23-5.12-3.41-8.45c-.97-2.4-4.58-.96-3.61,1.45,1.31,3.25,2.44,5.97,3.62,8.97.15.38.4.67.7.88l8.23,5.78-4.82,11.25-10.49-1.27c-.45-.06-.89.06-1.3.24l-11.05,4.89c-2.85,1.26-.61,5.14,1.99,3.99l10.44-4.62,9.31,1.12-5.62,2.19c-.24.09-.45.24-.65.4l-9.56,7.22c-2.32,1.75.18,5.44,2.6,3.61l9.52-7.19,10.96-4.28c.61-.24,1.13-.67,1.39-1.28l5.46-12.75c.4.17.85.2,1.27.09h0s9.35-2.5,9.35-2.5c.59-.16,1.07-.58,1.31-1.15,1.21-2.96,2.79-6.85,3.62-8.89.96-2.35-2.57-4-3.57-1.55"/>
  <path class="cls-3" d="M76.5,69.4c0,2.14,1.75,3.89,3.89,3.89s3.89-1.75,3.89-3.89-1.75-3.89-3.89-3.89-3.89,1.75-3.89,3.89"/>
  <polyline class="cls-2" points="10.19 133.08 142.93 133.08 142.93 208.7 10.19 208.7 10.19 133.08"/>
  <path class="cls-3" d="M37.45,153.69h2.69v-5.79h5.2v5.79h2.67l.02-13.11h-2.7v5.17h-5.18v-5.17h-2.67l-.02,13.11ZM109.89,153.69h2.52l3.22-9.42h-2.57l-1.89,6.2-1.87-6.18h-2.57l3.17,9.41ZM102.81,153.69h2.54v-13.11h-2.52l-.02,13.11ZM96.07,154.05c2.85,0,4.94-2.02,4.94-5.09s-2.05-5.04-4.98-5.04-4.93,2.04-4.93,5.02,2.09,5.11,4.96,5.11ZM96.06,152.07c-1.2,0-2.37-.93-2.37-3.02,0-2.26,1.13-3.15,2.37-3.15s2.39.91,2.39,3.05-1.15,3.11-2.39,3.11ZM80.32,154.21c.11.89.39,1.39.93,1.89.57.56,1.63,1.07,3.44,1.07,2.06,0,3.35-.76,3.98-1.57.44-.57.67-1.09.67-2.5v-8.83h-2.43l-.07,1.15c-.19-.3-.7-1.48-2.8-1.48-2.28,0-4.26,1.82-4.26,4.72s2,4.74,4.24,4.74c1.5,0,2.44-.68,2.8-1.41v1.02c0,1.59-.74,2.26-2.18,2.26-1.09,0-1.63-.56-1.7-1.15l-2.61.09ZM84.61,151.21c-1.24,0-2.26-.89-2.26-2.63,0-1.52,1.06-2.48,2.2-2.48s2.22.96,2.22,2.56-1.07,2.55-2.17,2.55ZM70.54,153.69v-1.94h-.94c-.3,0-.59-.17-.72-.35-.06-.07-.13-.22-.13-.74v-4.67h1.72v-1.72h-1.7l-.04-2.98h-2.52v2.98h-1.31v1.74l1.33-.02v4.87c0,2.13.87,2.83,2.26,2.83h2.05ZM60.78,153.69h2.54v-13.11h-2.52l-.02,13.11ZM56.08,152.62c.04.46.15.8.3,1.07h2.57c-.32-.39-.41-.67-.43-.98l.02-5.17c0-2.26-1.19-3.61-4.24-3.61-2.85,0-4.04,1.56-4,3.15l2.24.04c0-.7.54-1.37,1.83-1.37s1.65.61,1.65,1.05c0,.39-.24.74-.93.87l-1.44.24c-2.09.37-2.65.76-3.04,1.11-.57.5-.87,1.2-.87,1.96,0,1.55,1.22,2.96,3.61,2.96,1.37,0,2.17-.46,2.72-1.33ZM56.08,148.73v1.18c0,1.33-.83,2.17-2.3,2.17-1.06,0-1.56-.63-1.56-1.2,0-.45.15-.95,1.74-1.39l1.09-.3c.5-.13.82-.32,1.02-.46Z"/>
</svg>