<svg xmlns="http://www.w3.org/2000/svg" viewBox="0 0 595.28 850.37"><defs><style>.a{fill:#fcc00d;}.a,.b{fill-rule:evenodd;}.b{fill:#000100;}</style></defs><title>W011_C</title><polyline class="a" points="0 850.37 595.28 850.37 595.28 0 0 0 0 850.37"/><path class="b" d="M145.69,643.86h10.44V621.33h20.23v22.54h10.37l0.07-51H176.29V613H156.13V592.89H145.76Zm281.66,0h9.79l12.53-36.65h-10l-7.34,24.12-7.27-24H415Zm-27.5,0h9.86v-51h-9.79Zm-26.21,1.36c11.09,0,19.22-7.85,19.22-19.8,0-11.59-8-19.59-19.37-19.59-11,0-19.15,7.92-19.15,19.51C354.34,637.45,362.47,645.23,373.63,645.23Zm-0.07-7.7c-4.68,0-9.22-3.6-9.22-11.74,0-8.78,4.39-12.24,9.22-12.24s9.29,3.53,9.29,11.88C382.85,634,378.38,637.52,373.56,637.52Zm-61.2,8.35a10.73,10.73,0,0,0,3.6,7.35c2.23,2.16,6.34,4.18,13.39,4.18,8,0,13-3,15.48-6.12,1.73-2.23,2.59-4.25,2.59-9.72V607.21H338l-0.29,4.46c-0.72-1.15-2.74-5.76-10.87-5.76-8.85,0-16.56,7.05-16.56,18.36s7.78,18.43,16.49,18.43c5.83,0,9.5-2.66,10.87-5.47v4c0,6.19-2.88,8.78-8.49,8.78-4.25,0-6.34-2.16-6.63-4.46Zm16.7-11.66c-4.83,0-8.78-3.46-8.78-10.23,0-5.9,4.11-9.65,8.57-9.65s8.64,3.74,8.64,9.93S333.31,634.22,329.07,634.22Zm-54.72,9.65V636.3h-3.67a3.65,3.65,0,0,1-2.81-1.36c-0.22-.29-0.51-0.87-0.51-2.88V613.91h6.7v-6.7h-6.62l-0.14-11.59h-9.8v11.59h-5.11V614l5.18-.07v18.94c0,8.28,3.38,11,8.78,11h8Zm-37.94,0h9.86v-51h-9.79Zm-18.29-4.18a10.24,10.24,0,0,0,1.16,4.18h10a6.21,6.21,0,0,1-1.66-3.82L227.7,620c0-8.78-4.61-14-16.49-14-11.09,0-15.7,6-15.55,12.24l8.71,0.14c0-2.74,2.09-5.33,7.13-5.33,4.82,0,6.41,2.38,6.41,4.11,0,1.51-.94,2.88-3.6,3.38l-5.62.94c-8.14,1.44-10.3,3-11.81,4.32a9.94,9.94,0,0,0-3.38,7.63c0,6.05,4.75,11.52,14,11.52C212.86,644.87,216,643.07,218.12,639.69Zm0-15.12v4.61c0,5.19-3.24,8.43-8.93,8.43-4.1,0-6-2.45-6-4.68,0-1.73.58-3.67,6.77-5.4l4.25-1.15A11.23,11.23,0,0,0,218.12,624.56Z" transform="translate(-0.06 0.06)"/><path class="b" d="M545,527.19c11.93,0,18.35-13.23,12.56-23.23L309.88,75.34a14.41,14.41,0,0,0-25,0L37.45,504c-5.78,10,.64,23.23,12.57,23.23H545Zm-28.58-31.43L297.5,116.67,78.61,495.76H516.37Z" transform="translate(-0.06 0.06)"/><polyline class="b" points="134.02 473.18 460.84 473.18 460.84 456.69 134.02 456.69 134.02 473.18"/><path class="b" d="M361.51,297.19l-12.83,31.39-30.16,8.06-28.74-12.33L261.66,304.4l-13.28-32.86c-3.78-9.34-17.82-3.72-14,5.65,5.1,12.63,9.49,23.21,14.07,34.88a7.33,7.33,0,0,0,2.73,3.42l32,22.46-18.74,43.74-40.81-5a9.66,9.66,0,0,0-5.07.95l-43,19c-11.07,4.9-2.37,20,7.73,15.5l40.59-18,36.19,4.36-21.84,8.51a10.81,10.81,0,0,0-2.54,1.54l-37.16,28.09c-9,6.8.71,21.15,10.12,14l37-28,42.61-16.66a9.53,9.53,0,0,0,5.42-5L315,351.58a7.7,7.7,0,0,0,4.93.37h0l36.34-9.72a7.61,7.61,0,0,0,5.08-4.47l14.09-34.55c3.73-9.15-10-15.55-13.9-6" transform="translate(-0.06 0.06)"/><path class="b" d="M297.52,313a15.14,15.14,0,1,0,15.13-15.13A15.17,15.17,0,0,0,297.52,313" transform="translate(-0.06 0.06)"/></svg>