<svg xmlns="http://www.w3.org/2000/svg" viewBox="0 0 595.28 850.36"><defs><style>.a{fill:#fcc00d;}.a,.b{fill-rule:evenodd;}.b{fill:#000100;}</style></defs><title>W012_C</title><polyline class="a" points="0 850.36 595.28 850.36 595.28 0 0 0 0 850.36"/><path class="b" d="M43.93,643.86H54.44V622.12H76.69v-8.35H54.51V601.38H80.65v-8.5H43.93v51Zm471.22,0h9.94l-0.07-12,4.18-4.1,10.08,16.13h12l-15.12-22.54,13.17-14.11H537.69l-12.6,14L525,592.88h-9.87v51Zm-41-12.24c0.21,6.91,6,13.54,17.28,13.54s16.42-6.12,16.42-12.67a10.36,10.36,0,0,0-2.23-6.41c-1.37-1.73-3.17-3-7.49-4l-10.51-2.45c-2.23-.58-3.17-1.94-3.17-3.24s1.37-3.67,6.12-3.67c5.26,0,7.56,2.74,7.63,5.69l8.64-.14a12.77,12.77,0,0,0-5.26-9.65c-2.09-1.51-5.47-2.81-10.87-2.81-10.51,0-15.19,5.69-15.19,11.95a9.41,9.41,0,0,0,2.52,6.91c1.3,1.37,3,2.52,7,3.38l8,1.8c4.61,1,5.18,2.45,5.18,4.18s-1.59,4.1-7,4.1c-5.18,0-7.78-2.73-8.06-6.55Zm-16.78,12.24h9.86V607.21h-9.86v36.65Zm0.07-42.19h9.86v-8.78h-9.86v8.78Zm-26.71,42.19h9.86l0.07-16.27c0-5.47,1.29-8,3-9.72a8.63,8.63,0,0,1,6.7-2.88,12.53,12.53,0,0,1,1.66.14l0.07-8.71a14.68,14.68,0,0,0-2.16-.21,9.51,9.51,0,0,0-9.15,6.55l-0.29-5.55h-9.65Zm-7.2,0V636.3H419.9a3.69,3.69,0,0,1-2.88-1.36c-0.22-.29-0.51-0.87-0.51-2.88V613.91h6.7v-6.7h-6.62l-0.07-11.59h-9.79v11.59h-5.18V614l5.18-.07v18.94c0,8.28,3.39,11,8.86,11h8Zm-60.62,0h9.93l-0.07-12,4.18-4.1,10.08,16.13h12L384,621.32l13.18-14.11H385.48l-12.6,14-0.07-28.3H363v51Zm-34.13-15.62L356,628.31c0-10.87-5-22.39-18.58-22.39-14,0-18.43,11.16-18.43,19.51,0,12.17,8.06,19.73,18.36,19.73s16.49-5.54,17.93-12l-9.86-.65c-1.87,3.38-4.46,4.75-7.63,4.75C333.14,637.31,329.33,634.14,328.82,628.24Zm0.43-7.13a8.38,8.38,0,0,1,8-7.49c4,0,7.49,2.74,8.13,7.49H329.25Zm-27,22.75h9.87v-51h-9.8ZM268.2,628.24l27.22,0.07c0-10.87-5-22.39-18.57-22.39-14,0-18.43,11.16-18.43,19.51,0,12.17,8.06,19.73,18.36,19.73s16.49-5.54,17.93-12l-9.87-.65c-1.87,3.38-4.46,4.75-7.63,4.75C272.52,637.31,268.71,634.14,268.2,628.24Zm0.43-7.13a8.37,8.37,0,0,1,8-7.49c4,0,7.49,2.74,8.14,7.49H268.63Zm-82,24.77c0.5,3.46,1.51,5.4,3.6,7.35,2.23,2.16,6.34,4.18,13.47,4.18,7.92,0,13-3,15.48-6.12,1.66-2.23,2.59-4.25,2.59-9.72l-0.07-34.34h-9.43L212,611.68c-0.72-1.15-2.66-5.76-10.8-5.76-8.93,0-16.63,7.05-16.63,18.36s7.77,18.43,16.49,18.43c5.83,0,9.5-2.66,10.87-5.47v4c0,6.19-2.81,8.78-8.5,8.78-4.25,0-6.26-2.16-6.63-4.46Zm16.77-11.66c-4.83,0-8.86-3.46-8.86-10.23,0-5.9,4.11-9.65,8.57-9.65s8.64,3.74,8.64,9.93S207.58,634.21,203.4,634.21Zm-35.64,9.65h9.86V607.21h-9.86v36.65Zm0.07-42.19h9.86v-8.78h-9.86v8.78Zm-17.57,42.19h9.86v-51h-9.79Zm-26.64,0h9.87l0.07-16.27c0-5.47,1.29-8,3-9.72a8.63,8.63,0,0,1,6.7-2.88,12.5,12.5,0,0,1,1.65.14l0.07-8.71a14.73,14.73,0,0,0-2.16-.21,9.51,9.51,0,0,0-9.15,6.55l-0.29-5.55H123.7Zm-18.29-4.18a10.25,10.25,0,0,0,1.15,4.18h10.08a5.48,5.48,0,0,1-1.66-3.82V620c0-8.78-4.54-14-16.49-14-11.09,0-15.7,6-15.48,12.24l8.71,0.14c0-2.74,2-5.33,7.06-5.33,4.82,0,6.41,2.38,6.41,4.11,0,1.51-.94,2.88-3.6,3.38l-5.62.94c-8.06,1.44-10.22,3-11.81,4.32a10.2,10.2,0,0,0-3.38,7.63c0,6.05,4.75,11.52,14,11.52C100.09,644.87,103.25,643.07,105.34,639.69Zm0.07-15.12-0.07,4.61c0,5.19-3.24,8.43-8.85,8.43-4.18,0-6.12-2.45-6.12-4.68,0-1.73.58-3.67,6.77-5.4l4.32-1.15A12.71,12.71,0,0,0,105.42,624.56Z" transform="translate(-0.03 0.06)"/><path class="b" d="M147,718.7c0.14,6.91,6,13.54,17.21,13.54,11.45,0,16.49-6.12,16.49-12.67a10.44,10.44,0,0,0-2.31-6.41c-1.37-1.73-3.1-3-7.49-4l-10.51-2.45c-2.16-.58-3.09-1.94-3.09-3.24s1.29-3.67,6.12-3.67c5.18,0,7.49,2.74,7.56,5.69l8.71-.14a13,13,0,0,0-5.25-9.65c-2.16-1.51-5.55-2.81-10.87-2.81-10.58,0-15.19,5.69-15.19,11.95a9.41,9.41,0,0,0,2.52,6.91c1.29,1.37,2.88,2.52,7,3.38l7.92,1.8c4.68,1,5.18,2.45,5.18,4.18s-1.51,4.1-6.91,4.1c-5.19,0-7.85-2.73-8.14-6.55ZM413.2,733a10.73,10.73,0,0,0,3.6,7.35c2.16,2.16,6.33,4.18,13.39,4.18,8,0,13-3,15.48-6.12,1.73-2.23,2.59-4.25,2.59-9.72V694.29h-9.43l-0.36,4.46c-0.65-1.15-2.66-5.76-10.8-5.76-8.86,0-16.56,7.05-16.56,18.36s7.7,18.43,16.49,18.43c5.83,0,9.43-2.66,10.87-5.47v4c0,6.19-2.88,8.78-8.5,8.78-4.32,0-6.33-2.16-6.62-4.46ZM429.9,721.3c-4.83,0-8.78-3.46-8.78-10.23,0-5.9,4-9.65,8.57-9.65s8.64,3.74,8.64,9.93S434.15,721.3,429.9,721.3Zm-58.54,9.65h9.87l0.07-20.52c0-2.88.58-4.25,1.36-5.4a7.41,7.41,0,0,1,6-3.1c3.38,0,5.83,2.23,5.83,6.33v22.68h9.87V705.1c0-6.84-5-12.1-12.67-12.1-5.26,0-8.93,2.81-10.15,5.69l-0.43-4.32-9.65-.07Zm-17.49,0h9.86V694.29h-9.86v36.65Zm0-42.19h9.86V680h-9.86v8.78Zm-40.46,42.19h9.86l0.07-20.52c0-2.88.58-4.25,1.37-5.4a7.4,7.4,0,0,1,6-3.1c3.38,0,5.83,2.23,5.83,6.33v22.68h9.86V705.1c0-6.84-5-12.1-12.67-12.1-5.26,0-8.93,2.81-10.15,5.69l-0.43-4.32-9.65-.07Zm-40.39,0h9.86L283,710.42c0-2.88.58-4.25,1.37-5.4a7.4,7.4,0,0,1,6-3.1c3.38,0,5.83,2.23,5.83,6.33v22.68h9.8V705.1c0-6.84-5-12.1-12.6-12.1-5.25,0-8.93,2.81-10.15,5.69l-0.44-4.32-9.65-.07Zm-18.36-4.18a14.91,14.91,0,0,0,1.3,4.18h10c-0.58-.51-1.58-2.16-1.58-5.18L264.3,707a17,17,0,0,0-.58-5c-1.44-5-5.54-9.07-15.48-9.07-11.45,0-15.91,5.83-15.91,12.24l8.64,0.14c0.43-2.45.79-3,1.59-3.67s2.73-1.73,5.68-1.73c4.61,0,6.41,2.45,6.41,4.18s-1.08,3-3.81,3.46L241,709.34c-7.42,1.29-10.87,6.12-10.87,10.94,0,6.34,4.9,11.74,13.75,11.74C250,732,253.29,729.57,254.66,726.77Zm0.07-15.34-0.07,5.47c-0.21,4.61-3.31,7.78-8.71,7.78-4.1,0-6.12-2.45-6.12-4.61,0-1.73.86-4,6.7-5.4l4.32-1.15A8.13,8.13,0,0,0,254.73,711.43Zm-5.9-21.53,9.86,0.07,0.07-10h-9.93v9.93Zm-12.89,0h9.86l0.07-10H236Zm-38.09,36.79c2.09,3.38,5.76,5.47,10.8,5.47,9.94,0,16.13-9.29,16.13-19.73,0-10-6-19.29-16.05-19.29a13.13,13.13,0,0,0-10.58,5l-0.5-3.74-9.65.07v48.45h9.86v-16.2Zm8.86-2.09c-4.75,0-8.78-3.17-8.78-11.09,0-8.86,4.32-12,8.42-12s8.5,3.31,8.5,11.45C214.84,718.41,212.54,724.54,206.71,724.61Z" transform="translate(-0.03 0.06)"/><path class="b" d="M557.6,504.07l-247-428.16a15.16,15.16,0,0,0-26.27,0l-247,428.16a15.21,15.21,0,0,0,13.13,22.84h494A15.21,15.21,0,0,0,557.6,504.07ZM78.66,495.46L297.48,116,516.32,495.46H78.66Z" transform="translate(-0.03 0.06)"/><polyline class="b" points="277.19 205.81 321.45 205.81 268.1 325.31 340.86 284.79 300.77 431.61 321.45 418.37 281.75 476.27 270.57 409.68 284.64 429.12 299.11 324.91 232.93 361.73 277.19 205.81"/></svg>