<?xml version="1.0" encoding="UTF-8"?>
<svg id="Lager_1" data-name="Lager 1" xmlns="http://www.w3.org/2000/svg" viewBox="0 0 153.09 218.69">
  <defs>
    <style>
      .cls-1 {
        fill: #fff;
      }

      .cls-1, .cls-2, .cls-3 {
        fill-rule: evenodd;
      }

      .cls-2 {
        fill: #fcbd0e;
      }

      .cls-3 {
        fill: #1d1f22;
      }
    </style>
  </defs>
  <polyline class="cls-1" points="0 218.69 153.09 218.69 153.09 0 0 0 0 218.69"/>
  <path class="cls-3" d="M143.39,118.54L79.87,8.42c-1.5-2.6-5.25-2.6-6.75,0L9.6,118.54c-1.5,2.6.36,5.87,3.38,5.87h127.04c3.01,0,4.88-3.27,3.38-5.87"/>
  <polyline class="cls-2" points="20.22 116.32 76.5 18.75 132.78 116.32 20.22 116.32"/>
  <polyline class="cls-3" points="71.29 41.82 82.67 41.82 68.95 72.55 87.66 62.13 77.35 99.88 82.67 96.48 72.46 111.37 69.58 94.25 73.2 99.24 76.92 72.44 59.9 81.91 71.29 41.82"/>
  <polyline class="cls-2" points="10.18 133.09 142.92 133.09 142.92 208.7 10.18 208.7 10.18 133.09"/>
  <path class="cls-3" d="M13.68,153.69h2.61v-5.59h5.54v-2.15h-5.52v-3.18h6.5v-2.18h-9.14v13.11ZM130.92,153.69h2.47l-.02-3.09,1.04-1.06,2.51,4.15h2.99l-3.76-5.8,3.28-3.63h-2.9l-3.13,3.59-.02-7.28h-2.45v13.11ZM120.73,150.54c.05,1.78,1.49,3.48,4.3,3.48s4.08-1.57,4.08-3.26c0-.59-.2-1.18-.56-1.65-.34-.44-.79-.78-1.86-1.04l-2.61-.63c-.55-.15-.79-.5-.79-.83,0-.37.34-.95,1.52-.95,1.31,0,1.88.7,1.9,1.46l2.15-.04c-.04-.94-.52-1.89-1.31-2.48-.52-.39-1.36-.72-2.71-.72-2.61,0-3.78,1.46-3.78,3.07,0,.76.2,1.3.63,1.78.32.35.73.65,1.74.87l1.99.46c1.15.26,1.29.63,1.29,1.07,0,.41-.39,1.05-1.74,1.05s-1.94-.7-2.01-1.68l-2.24.02ZM116.55,153.69h2.45v-9.42h-2.45v9.42ZM116.57,142.84h2.45v-2.26h-2.45v2.26ZM109.93,153.69h2.45l.02-4.18c0-1.41.32-2.05.73-2.5.45-.5.99-.74,1.67-.74.14,0,.27.02.41.04l.02-2.24c-.12-.02-.32-.05-.54-.05-1.06,0-1.99.7-2.27,1.68l-.07-1.43h-2.4l-.02,9.42ZM108.14,153.69v-1.94h-.91c-.3,0-.59-.17-.72-.35-.05-.07-.12-.22-.12-.74v-4.67h1.67v-1.72h-1.65l-.02-2.98h-2.44v2.98h-1.29v1.74l1.29-.02v4.87c0,2.13.84,2.83,2.2,2.83h1.99ZM93.05,153.69h2.47l-.02-3.09,1.04-1.06,2.51,4.15h2.99l-3.76-5.8,3.28-3.63h-2.9l-3.13,3.59-.02-7.28h-2.45v13.11ZM84.56,149.67l6.77.02c0-2.8-1.24-5.76-4.62-5.76s-4.59,2.87-4.59,5.02c0,3.13,2.01,5.07,4.57,5.07s4.1-1.43,4.46-3.07l-2.45-.17c-.47.87-1.11,1.22-1.9,1.22-1.16,0-2.11-.82-2.24-2.33ZM84.67,147.84c.14-1.15,1.06-1.93,1.99-1.93,1,0,1.86.7,2.02,1.93h-4.01ZM77.95,153.69h2.45v-13.11h-2.44l-.02,13.11ZM69.48,149.67l6.77.02c0-2.8-1.24-5.76-4.62-5.76s-4.58,2.87-4.58,5.02c0,3.13,2.01,5.07,4.57,5.07s4.1-1.43,4.46-3.07l-2.45-.17c-.47.87-1.11,1.22-1.9,1.22-1.16,0-2.11-.82-2.24-2.33ZM69.59,147.84c.14-1.15,1.06-1.93,1.99-1.93,1,0,1.86.7,2.02,1.93h-4.01ZM49.19,154.2c.12.89.38,1.39.9,1.89.56.55,1.58,1.07,3.35,1.07,1.97,0,3.24-.76,3.85-1.57.41-.57.65-1.09.65-2.5l-.02-8.83h-2.35l-.07,1.15c-.18-.3-.66-1.48-2.69-1.48-2.22,0-4.14,1.81-4.14,4.72s1.93,4.74,4.1,4.74c1.45,0,2.36-.68,2.71-1.41v1.02c0,1.59-.7,2.26-2.11,2.26-1.06,0-1.56-.56-1.65-1.15l-2.53.09ZM53.36,151.21c-1.2,0-2.2-.89-2.2-2.63,0-1.52,1.02-2.48,2.13-2.48s2.15.96,2.15,2.55-1.04,2.56-2.08,2.56ZM44.49,153.69h2.45v-9.42h-2.45v9.42ZM44.51,142.84h2.45v-2.26h-2.45v2.26ZM40.14,153.69h2.45v-13.11h-2.44l-.02,13.11ZM33.51,153.69h2.45l.02-4.18c0-1.41.32-2.05.74-2.5.45-.5.98-.74,1.67-.74.14,0,.27.02.41.04l.02-2.24c-.13-.02-.32-.05-.54-.05-1.06,0-1.99.7-2.27,1.68l-.07-1.43h-2.4l-.02,9.42ZM28.96,152.61c.03.46.14.8.29,1.07h2.51c-.32-.39-.41-.67-.41-.98v-5.17c0-2.26-1.13-3.61-4.1-3.61-2.76,0-3.91,1.55-3.85,3.15l2.17.04c0-.7.5-1.37,1.76-1.37s1.59.61,1.59,1.06c0,.39-.23.74-.9.87l-1.4.24c-2.01.37-2.54.76-2.94,1.11-.54.5-.84,1.2-.84,1.96,0,1.56,1.18,2.96,3.49,2.96,1.33,0,2.11-.46,2.63-1.33ZM28.98,148.72l-.02,1.19c0,1.33-.81,2.17-2.2,2.17-1.04,0-1.52-.63-1.52-1.2,0-.44.14-.94,1.68-1.39l1.07-.3c.47-.13.77-.31.99-.46Z"/>
  <path class="cls-3" d="M37.8,172.7c.04,1.78,1.54,3.48,4.43,3.48s4.24-1.57,4.24-3.26c0-.59-.22-1.18-.59-1.65-.35-.44-.8-.78-1.93-1.04l-2.7-.63c-.55-.15-.8-.5-.8-.83,0-.37.33-.94,1.57-.94,1.33,0,1.93.7,1.94,1.46l2.24-.04c-.04-.95-.56-1.89-1.35-2.48-.56-.39-1.43-.72-2.8-.72-2.72,0-3.91,1.46-3.91,3.07,0,.76.2,1.3.65,1.78.33.35.74.65,1.8.87l2.04.46c1.2.26,1.33.63,1.33,1.07,0,.41-.39,1.05-1.78,1.05s-2.02-.7-2.09-1.68l-2.3.02ZM106.26,176.37c.11.89.39,1.39.93,1.89.55.56,1.63,1.07,3.44,1.07,2.05,0,3.35-.76,3.98-1.57.44-.57.67-1.09.67-2.5v-8.83h-2.43l-.09,1.15c-.17-.3-.69-1.48-2.78-1.48-2.28,0-4.26,1.81-4.26,4.72s1.98,4.74,4.24,4.74c1.5,0,2.43-.68,2.8-1.41v1.02c0,1.59-.74,2.26-2.19,2.26-1.11,0-1.63-.55-1.7-1.15l-2.61.09ZM110.55,173.37c-1.24,0-2.26-.89-2.26-2.63,0-1.52,1.04-2.48,2.2-2.48s2.22.96,2.22,2.55-1.07,2.55-2.17,2.55ZM95.5,175.85h2.54l.02-5.28c0-.74.15-1.09.35-1.39.33-.48.93-.8,1.54-.8.87,0,1.5.57,1.5,1.63v5.83h2.54v-6.65c0-1.76-1.3-3.11-3.26-3.11-1.35,0-2.3.72-2.61,1.46l-.11-1.11-2.48-.02-.02,9.42ZM91,175.85h2.54v-9.42h-2.54v9.42ZM91,165h2.54v-2.26h-2.54v2.26ZM80.59,175.85h2.54l.02-5.28c0-.74.15-1.09.35-1.39.33-.48.93-.8,1.54-.8.87,0,1.5.57,1.5,1.63v5.83h2.54v-6.65c0-1.76-1.3-3.11-3.26-3.11-1.35,0-2.3.72-2.61,1.46l-.11-1.11-2.48-.02-.02,9.42ZM70.21,175.85h2.54l.02-5.28c0-.74.15-1.09.35-1.39.33-.48.93-.8,1.54-.8.87,0,1.5.57,1.5,1.63v5.83h2.52v-6.65c0-1.76-1.3-3.11-3.24-3.11-1.35,0-2.3.72-2.61,1.46l-.11-1.11-2.48-.02-.02,9.42ZM65.48,174.77c.06.37.19.78.33,1.07h2.57c-.15-.13-.41-.55-.41-1.33l-.02-4.81c-.02-.83-.09-1.07-.15-1.28-.37-1.3-1.43-2.33-3.98-2.33-2.94,0-4.09,1.5-4.09,3.15l2.22.04c.11-.63.2-.76.41-.94.22-.22.7-.44,1.46-.44,1.19,0,1.65.63,1.65,1.07s-.28.76-.98.89l-2.54.45c-1.91.33-2.8,1.57-2.8,2.81,0,1.63,1.26,3.02,3.54,3.02,1.57,0,2.43-.63,2.78-1.35ZM65.5,170.83l-.02,1.41c-.05,1.18-.85,2-2.24,2-1.05,0-1.57-.63-1.57-1.18,0-.44.22-1.02,1.72-1.39l1.11-.3c.41-.09.76-.3,1-.54ZM63.98,165.29l2.54.02.02-2.57h-2.55v2.55ZM60.67,165.29h2.54l.02-2.57h-2.54l-.02,2.57ZM50.88,174.76c.54.87,1.48,1.41,2.78,1.41,2.56,0,4.15-2.39,4.15-5.07s-1.55-4.96-4.13-4.96c-1.13,0-2.07.46-2.72,1.28l-.13-.96-2.48.02v12.46h2.54v-4.17ZM53.15,174.22c-1.22,0-2.26-.82-2.26-2.85,0-2.28,1.11-3.07,2.17-3.07s2.19.85,2.19,2.94c0,1.39-.59,2.96-2.09,2.98Z"/>
</svg>