<svg xmlns="http://www.w3.org/2000/svg" viewBox="0 0 595.28 850.37"><defs><style>.a{fill:#fcc00d;}.a,.b{fill-rule:evenodd;}.b{fill:#000100;}</style></defs><title>W013_C</title><polyline class="a" points="0 850.37 595.28 850.37 595.28 0 0 0 0 850.37"/><path class="b" d="M127.13,643.86h10.08l17.56-51-11.23.07-11.16,37.73-11.09-37.8H110.06Zm336.88,0h9.86V627.59c0-5.47,1.37-8,3-9.72a8.74,8.74,0,0,1,6.7-2.88,11.53,11.53,0,0,1,1.66.14l0.07-8.71a14.78,14.78,0,0,0-2.09-.21,9.45,9.45,0,0,0-9.14,6.55l-0.29-5.55H464v36.65Zm-26.71,1.44c11.81,0,19.73-7.92,19.73-19.87,0-11.74-8.06-19.66-19.44-19.66-11.16,0-19.29,7.92-19.29,19.66C418.29,637.38,426.42,645.3,437.29,645.3Zm0.58-7.7c-5.18,0-9.57-3.67-9.57-12.17,0-8.21,4.46-12,9.5-12,4.75,0,9.14,3.31,9.14,12.24C446.94,634.36,442.26,637.6,437.87,637.6Zm1.3-34.77h9.94L449,592.89l-9.86-.07v10Zm-12.89,0h9.93l-0.07-9.94-9.79-.07Zm-29.37,41h9.86v-30.1h7.13v-6.55h-7.2V606.5c0-3.31.58-4.25,1.22-4.9,0.79-.86,1.94-1.51,4.32-1.44h1.66v-7.28h-5.62c-3.38,0-12.31.58-11.37,14.33h-5.33v6.55h5.33v30.1Zm-76.32,2a11,11,0,0,0,3.53,7.35c2.23,2.16,6.41,4.18,13.47,4.18,7.92,0,13-3,15.48-6.12,1.66-2.23,2.59-4.25,2.59-9.72V607.21h-9.43l-0.36,4.46c-0.65-1.15-2.66-5.76-10.8-5.76-8.86,0-16.56,7.05-16.56,18.36s7.7,18.43,16.42,18.43c5.9,0,9.5-2.66,10.94-5.47l-0.07,4c0,6.19-2.81,8.78-8.5,8.78-4.25,0-6.26-2.16-6.63-4.46Zm16.7-11.66c-4.83,0-8.86-3.46-8.86-10.23,0-5.9,4.11-9.65,8.64-9.65s8.64,3.74,8.64,9.93S341.54,634.22,337.29,634.22Zm-58.46,9.65h9.86V623.34c0-2.88.58-4.25,1.37-5.4a7.64,7.64,0,0,1,6-3.1c3.31,0,5.76,2.23,5.76,6.33v22.68h9.79V618c0-6.84-5-12.09-12.6-12.09-5.18,0-8.85,2.81-10.08,5.69l-0.43-4.32-9.65-.07Zm-17.49,0h9.79V607.21h-9.79v36.65Zm0-42.19h9.86v-8.78h-9.86v8.78Zm-40.46,42.19h9.86V623.34c0-2.88.58-4.25,1.37-5.4a7.65,7.65,0,0,1,6.05-3.1c3.38,0,5.83,2.23,5.83,6.33v22.68h9.8V618c0-6.84-5-12.09-12.6-12.09-5.25,0-8.93,2.81-10.15,5.69l-0.43-4.32-9.65-.07Zm-26.64,0h9.87V627.59c0-5.47,1.37-8,3-9.72a8.73,8.73,0,0,1,6.7-2.88,11.59,11.59,0,0,1,1.66.14l0.07-8.71a14.63,14.63,0,0,0-2.09-.21,9.44,9.44,0,0,0-9.14,6.55L204,607.21h-9.72v36.65Zm-18.36-4.18a13.19,13.19,0,0,0,1.15,4.18H187.1a6.22,6.22,0,0,1-1.66-3.82V620c0-8.78-4.53-14-16.49-14-11.09,0-15.69,6-15.48,12.24l8.71,0.14c0-2.74,2-5.33,7.05-5.33,4.83,0,6.48,2.38,6.48,4.11,0,1.51-.93,2.88-3.6,3.38l-5.69.94c-8.06,1.44-10.22,3-11.81,4.32a10.13,10.13,0,0,0-3.31,7.63c0,6.05,4.75,11.52,14,11.52C170.69,644.87,173.78,643.07,175.87,639.69Zm0.07-15.12-0.07,4.61c0,5.19-3.24,8.43-8.86,8.43-4.1,0-6.12-2.45-6.12-4.68,0-1.73.65-3.67,6.84-5.4l4.25-1.15A12,12,0,0,0,175.94,624.56Z" transform="translate(0 0.07)"/><path class="b" d="M177.16,730.95H187V710.78c0-6,3.31-8.78,7.34-8.78,3.53,0,5.91,2,5.91,6.63v22.32h9.79V705.67c0-4.46-1.44-7.49-3.82-9.58a14.16,14.16,0,0,0-8.64-3.1c-5.33,0-8.93,2.52-10.66,5.9L187,680h-9.86v51Zm207.86,0h9.87L395,710.43c0-2.88.58-4.25,1.37-5.4a7.4,7.4,0,0,1,6-3.1c3.38,0,5.83,2.23,5.83,6.33v22.68H418V705.1c0-6.84-5-12.1-12.6-12.1-5.26,0-9,2.81-10.22,5.69l-0.43-4.32-9.65-.07Zm-34.12-15.62,27.22,0.07c0-10.87-5-22.39-18.58-22.39-14,0-18.44,11.16-18.44,19.51,0,12.17,8.06,19.73,18.29,19.73s16.56-5.55,18-12l-9.86-.65c-1.87,3.38-4.46,4.75-7.63,4.75C355.21,724.39,351.39,721.22,350.89,715.32Zm0.43-7.13a8.37,8.37,0,0,1,8-7.49c4,0,7.49,2.74,8.13,7.49H351.32ZM324,727.2l0.36,3.74h9.79V680h-9.93v18.5c-1.8-2.88-5.9-5.33-10.58-5.33-8.21,0-16.2,6.84-16.2,19.66a21.39,21.39,0,0,0,4.68,14,13.88,13.88,0,0,0,11.16,5.33A13.3,13.3,0,0,0,324,727.2Zm-7.77-3.53c-4.68,0-8.71-3.31-8.71-11.09,0-8.71,4.25-11.81,8.28-11.81s8.28,3.1,8.28,11.52C324.11,720.36,319.86,723.6,316.26,723.67Zm-58.54,7.27h9.86l0.07-20.52c0-2.88.58-4.25,1.37-5.4a7.41,7.41,0,0,1,6-3.1c3.38,0,5.83,2.23,5.83,6.33v22.68h9.86V705.1c0-6.84-5-12.1-12.6-12.1-5.25,0-9,2.81-10.22,5.69l-0.43-4.32-9.65-.07Zm-17.42-4.11,0.51,4.11h9.29V694.37l-9.79-.07v20.52c0,5.62-3.31,8.5-7.34,8.5-3.6,0-5.9-1.94-5.9-7.13V694.3h-9.87v25.2c0,4.82,1.37,7.42,3.6,9.5a13.23,13.23,0,0,0,9.14,3.17A11.89,11.89,0,0,0,240.3,726.84Z" transform="translate(0 0.07)"/><path class="b" d="M557.57,504.08L310.56,75.9a15.15,15.15,0,0,0-26.25,0l-247,428.18a15.2,15.2,0,0,0,13.12,22.83h494A15.2,15.2,0,0,0,557.57,504.08ZM78.64,495.5L297.47,116,516.3,495.5H78.64Z" transform="translate(0 0.07)"/><path class="b" d="M269.7,332.3l2.68,1a9.81,9.81,0,0,1,2.61,1.38l2.22,1.76,0.47,0.56,0.19,0.66a0.56,0.56,0,0,1-.38.64l-0.64.27-1.5.18-1.38-.09H269.6l-0.56.48a19.49,19.49,0,0,1-3.32,1.29,6.81,6.81,0,0,1-2,.83h-0.75l-0.73-.18a1.49,1.49,0,0,1-.83-1,10.24,10.24,0,0,1-.28-2.21c0-.72-0.63-1.27-0.75-2-0.33-1.79-.1-4.22,1.67-5.19a3.21,3.21,0,0,1,2.24,0A40.86,40.86,0,0,1,269.7,332.3Zm152.45,45.06L349.58,472.7h-9.63l78-102.57Zm-24.91-18.23-1.94-1.3-1.85-1.38c-14.1-9.27-31.9-35.19-44.51-41.42l-0.73-.83-0.57-1.12-0.18-1.1c-0.56-8.3,1.33-6.83,1-15.2l1.21-4.54,0.28-4.62c1.89-7.7,1.74-15.67,1.75-23.46l-0.56-.92L351,261.94l-0.09-.28c-0.08-.25-0.57-0.09-0.84,0l-1.12.37-0.82.74c-5.33,6.89-17.88,12.28-25.68,22.15l-1,.65-1.22.37c-5.27-.5-4.16-18.72-4-22l0.09-1.2-0.27-1.11a1.9,1.9,0,0,0-3-1l-1,.74a5,5,0,0,0-1.48,1.76,35.52,35.52,0,0,0-2,4.36l-1.57,4.36-1.86,4.35-3.34,8.71-1.75,4.35c-6.82,13.27-23.34,15.3-35.79,20.48l-4.26,1.76a40.2,40.2,0,0,1-4.45,1.57l-2.31.66a5.21,5.21,0,0,0-3.72,5.28l0.1,2.41-0.19,2.31-1.11,4.54a23.25,23.25,0,0,1-1.38,4.44l-1.12,2.15a6.2,6.2,0,0,1-3.61,3l-2.23.73-4.63.56-2.31.47-2.23.64-4.45,1.48L208.72,348c-1.79.64-6,1.5-9.08,2.12-0.78.16-4.7,0.47-7.05,0.65a10.17,10.17,0,0,0-3.33.93,5.75,5.75,0,0,0-3.43,6.68,20.06,20.06,0,0,0,2.12,5.46,14.62,14.62,0,0,0,1.67,1.68c0.63,0.57,1.57.33,2.32,0.64l0.47,0.19a5,5,0,0,1,1.11,1.3c0.45,0.65.7,1.41,1.2,2l0.75,0.92,1.76,1.57,3.89,2.6,2,1.12,2.31,0.75L224.19,377c1.27,0,4.7-.2,7-0.35a7.3,7.3,0,0,1,2.22.55,0.68,0.68,0,0,1,0,1.29c-0.95.28-1.93,0.37-2.88,0.65-4.69,1.42-10.57.85-14.46,4.36-2.08,1.87-3.13,5.65-.1,7l1.21,0.56a0.85,0.85,0,0,1,.47.92l-0.2,1.21c-0.23,2.44,1.56,3.57,3.71,3.9,1.54,0.24,3.09.22,4.64,0.35,5.73,0.49,7.28,2.11,14,.47l4.55-.93c3.09-.63,6.15-1.43,9.18-2.31s5.91-2,8.9-2.87l2.22-.65a43.55,43.55,0,0,1,12.89.56,2.83,2.83,0,0,1,1.77,1.38c3.42,6,7,11.13,10.28,17.16,1.67,3.1,4.12,5.75,5.57,9l0.45,1c1.16,4.53.9,6.88,3.34,11.32a29,29,0,0,0,2.6,3.88c4.15,5.33,10.53,10,13.35,16.3,1,2.13,1.11,4.52,1.76,6.75l0.66,2.23,1,2.12Z" transform="translate(0 0.07)"/><path class="b" d="M334.77,449.95a8,8,0,1,0,15.92,0,8,8,0,0,0-15.92,0" transform="translate(0 0.07)"/><path class="b" d="M360.76,415.75a8,8,0,1,0,15.92,0,8,8,0,0,0-15.92,0" transform="translate(0 0.07)"/><path class="b" d="M386.75,381.55a8,8,0,1,0,15.92,0,8,8,0,0,0-15.92,0" transform="translate(0 0.07)"/></svg>