<?xml version="1.0" encoding="UTF-8"?>
<svg id="Lager_1" data-name="Lager 1" xmlns="http://www.w3.org/2000/svg" viewBox="0 0 153.09 218.69">
  <defs>
    <style>
      .cls-1 {
        fill: #fff;
      }

      .cls-1, .cls-2, .cls-3 {
        fill-rule: evenodd;
      }

      .cls-2 {
        fill: #fcbd0e;
      }

      .cls-3 {
        fill: #1d1f22;
      }
    </style>
  </defs>
  <polyline class="cls-1" points="0 218.69 153.09 218.69 153.09 0 0 0 0 218.69"/>
  <path class="cls-3" d="M143.39,118.54L79.87,8.42c-1.5-2.6-5.25-2.6-6.75,0L9.6,118.54c-1.5,2.6.36,5.87,3.38,5.87h127.04c3.01,0,4.88-3.27,3.38-5.87"/>
  <polyline class="cls-2" points="20.22 116.33 76.5 18.75 132.78 116.33 20.22 116.33"/>
  <path class="cls-3" d="M69.36,74.36l.69.27c.24.09.47.2.67.35l.57.45.12.14.05.17c.02.07-.03.14-.1.16l-.16.07-.39.05-.35-.02h-1.12l-.15.12c-.09.08-.56.23-.85.33-.18.06-.33.21-.53.21h-.19l-.19-.05c-.12-.03-.17-.16-.21-.26-.04-.11-.06-.38-.07-.57-.01-.18-.16-.33-.19-.5-.09-.46-.03-1.08.43-1.33.17-.09.39-.04.58,0,.47.11.95.23,1.4.4ZM108.57,85.95l-18.66,24.52h-2.48l20.07-26.38,1.07,1.86ZM102.16,81.26l-.5-.34-.47-.35c-3.63-2.38-8.2-9.05-11.45-10.65l-.19-.21-.15-.29-.05-.28c-.14-2.14.34-1.76.26-3.91l.31-1.17.07-1.19c.49-1.98.45-4.03.45-6.03l-.14-.24-.04-.33-.02-.07c-.02-.07-.15-.02-.22,0l-.29.1-.21.19c-1.37,1.77-4.6,3.16-6.6,5.7l-.26.17-.31.1c-1.36-.13-1.07-4.82-1.02-5.65l.02-.31-.07-.29c-.08-.34-.49-.46-.77-.26l-.26.19c-.16.12-.29.28-.38.45-.19.36-.36.73-.5,1.12l-.4,1.12-.48,1.12-.86,2.24-.45,1.12c-1.75,3.41-6,3.94-9.2,5.27l-1.1.45c-.37.15-.75.29-1.14.4l-.59.17c-.6.17-.98.74-.96,1.36l.03.62-.05.59-.29,1.17c-.09.39-.21.87-.36,1.14l-.29.55c-.19.37-.53.63-.93.76l-.57.19-1.19.14-.59.12-.57.16-1.14.38-4.55,1.62c-.46.16-1.55.39-2.34.55-.2.04-1.21.12-1.81.17-.3.02-.58.11-.86.24-.66.3-1.08,1-.88,1.72.14.49.27.98.55,1.41.06.09.28.29.43.43.16.15.41.08.6.16l.12.05c.07.03.2.21.29.33.12.17.18.36.31.52l.19.24.45.41,1,.67.53.29.59.19,4.81.09c.33,0,1.21-.05,1.81-.09.14,0,.39.08.57.14.16.06.16.28,0,.33-.24.07-.5.09-.74.17-1.21.36-2.72.22-3.72,1.12-.53.48-.81,1.45-.03,1.81l.31.15c.09.04.14.14.12.24l-.05.31c-.06.63.4.92.95,1,.4.06.8.06,1.19.09,1.47.13,1.87.54,3.6.12l1.17-.24c.79-.16,1.58-.37,2.36-.59.77-.22,1.52-.51,2.29-.74l.57-.17c.94-.1,2.37-.08,3.31.14.2.05.35.18.45.35.88,1.54,1.81,2.86,2.64,4.41.43.8,1.06,1.48,1.43,2.31l.12.26c.3,1.16.23,1.77.86,2.91.19.35.42.68.67,1,1.07,1.37,2.71,2.58,3.43,4.19.25.55.28,1.16.45,1.73l.17.58.26.55,20.28-26.69Z"/>
  <path class="cls-3" d="M86.09,104.62c0,1.13.93,2.06,2.05,2.06s2.04-.93,2.04-2.06-.91-2.04-2.04-2.04-2.05.91-2.05,2.04"/>
  <path class="cls-3" d="M92.78,95.82c0,1.13.93,2.06,2.06,2.06s2.04-.92,2.04-2.06-.91-2.04-2.04-2.04-2.06.91-2.06,2.04"/>
  <path class="cls-3" d="M99.46,87.03c0,1.13.93,2.06,2.06,2.06s2.04-.93,2.04-2.06-.91-2.04-2.04-2.04-2.06.91-2.06,2.04"/>
  <polyline class="cls-2" points="10.2 133.08 142.93 133.08 142.93 208.7 10.2 208.7 10.2 133.08"/>
  <path class="cls-3" d="M32.69,153.71h2.59l4.52-13.11-2.89.02-2.87,9.7-2.85-9.72h-2.89l4.39,13.11ZM119.33,153.71h2.54v-4.18c0-1.41.35-2.06.76-2.5.48-.5,1.02-.74,1.72-.74.15,0,.3.02.43.04l.02-2.24c-.13-.02-.33-.05-.54-.05-1.11,0-2.05.7-2.35,1.68l-.07-1.43h-2.5v9.43ZM112.46,154.08c3.04,0,5.07-2.04,5.07-5.11s-2.07-5.05-5-5.05-4.96,2.04-4.96,5.05,2.09,5.11,4.89,5.11ZM112.61,152.1c-1.33,0-2.46-.95-2.46-3.13s1.15-3.07,2.44-3.07c1.22,0,2.35.85,2.35,3.15s-1.2,3.05-2.33,3.05ZM112.94,143.16h2.56l-.02-2.56-2.54-.02v2.57ZM109.63,143.16h2.55l-.02-2.56-2.52-.02-.02,2.57ZM102.07,153.71h2.54v-7.74h1.83v-1.68h-1.85v-.18c0-.85.15-1.09.31-1.26.2-.22.5-.39,1.11-.37h.43v-1.87h-1.44c-.87,0-3.17.15-2.93,3.68h-1.37v1.68h1.37v7.74ZM82.45,154.23c.11.89.39,1.39.91,1.89.57.55,1.65,1.07,3.46,1.07,2.04,0,3.35-.76,3.98-1.57.43-.57.67-1.09.67-2.5v-8.83h-2.43l-.09,1.15c-.17-.3-.69-1.48-2.78-1.48-2.28,0-4.26,1.81-4.26,4.72s1.98,4.74,4.22,4.74c1.52,0,2.44-.68,2.81-1.41l-.02,1.02c0,1.59-.72,2.26-2.19,2.26-1.09,0-1.61-.55-1.7-1.15l-2.59.09ZM86.74,151.23c-1.24,0-2.28-.89-2.28-2.63,0-1.52,1.06-2.48,2.22-2.48s2.22.96,2.22,2.55-1.07,2.56-2.17,2.56ZM71.71,153.71h2.54v-5.28c0-.74.15-1.09.35-1.39.35-.48.94-.8,1.55-.8.85,0,1.48.57,1.48,1.63v5.83h2.52v-6.65c0-1.76-1.3-3.11-3.24-3.11-1.33,0-2.28.72-2.59,1.46l-.11-1.11-2.48-.02-.02,9.43ZM67.21,153.71h2.52v-9.43h-2.52v9.43ZM67.21,142.86h2.54v-2.26h-2.54v2.26ZM56.8,153.71h2.54v-5.28c0-.74.15-1.09.35-1.39.35-.48.95-.8,1.56-.8.87,0,1.5.57,1.5,1.63v5.83h2.52v-6.65c0-1.76-1.3-3.11-3.24-3.11-1.35,0-2.3.72-2.61,1.46l-.11-1.11-2.48-.02-.02,9.43ZM49.95,153.71h2.54v-4.18c0-1.41.35-2.06.76-2.5.48-.5,1.02-.74,1.72-.74.15,0,.3.02.43.04l.02-2.24c-.13-.02-.33-.05-.54-.05-1.11,0-2.05.7-2.35,1.68l-.07-1.43h-2.5v9.43ZM45.23,152.64c.05.46.17.8.3,1.07h2.59c-.31-.39-.41-.67-.43-.98v-5.17c0-2.26-1.17-3.61-4.24-3.61-2.85,0-4.04,1.55-3.98,3.15l2.24.04c0-.7.52-1.37,1.81-1.37s1.67.61,1.67,1.06c0,.39-.24.74-.93.87l-1.46.24c-2.07.37-2.63.76-3.04,1.11-.55.5-.85,1.2-.85,1.96,0,1.56,1.22,2.96,3.59,2.96,1.39,0,2.18-.46,2.72-1.33ZM45.25,148.75l-.02,1.18c0,1.33-.83,2.17-2.28,2.17-1.05,0-1.57-.63-1.57-1.2,0-.44.17-.94,1.76-1.39l1.09-.3c.48-.13.81-.32,1.02-.46Z"/>
  <path class="cls-3" d="M45.56,177.42h2.54v-5.18c0-1.54.85-2.26,1.89-2.26.91,0,1.52.52,1.52,1.7v5.74h2.52v-6.5c0-1.15-.37-1.92-.98-2.46-.56-.46-1.41-.8-2.22-.8-1.37,0-2.3.65-2.74,1.52l.02-4.87h-2.54v13.11ZM99.02,177.42h2.54l.02-5.28c0-.74.15-1.09.35-1.39.33-.48.93-.8,1.54-.8.87,0,1.5.57,1.5,1.63v5.83h2.54v-6.65c0-1.76-1.3-3.11-3.24-3.11-1.35,0-2.31.72-2.63,1.46l-.11-1.11-2.48-.02-.02,9.42ZM90.24,173.4l7,.02c0-2.8-1.28-5.76-4.78-5.76s-4.74,2.87-4.74,5.02c0,3.13,2.07,5.07,4.7,5.07s4.26-1.42,4.63-3.07l-2.54-.17c-.48.87-1.15,1.22-1.96,1.22-1.2,0-2.19-.81-2.31-2.33ZM90.35,171.57c.15-1.15,1.09-1.92,2.05-1.92,1.04,0,1.93.7,2.09,1.92h-4.15ZM83.33,176.46l.09.96h2.52v-13.11h-2.55v4.76c-.46-.74-1.52-1.37-2.72-1.37-2.11,0-4.17,1.76-4.17,5.05,0,1.5.46,2.74,1.2,3.61.78.94,1.76,1.37,2.87,1.37s2.07-.44,2.76-1.28ZM81.33,175.55c-1.2,0-2.24-.85-2.24-2.85,0-2.24,1.09-3.04,2.13-3.04s2.13.8,2.13,2.96-1.09,2.91-2.02,2.92ZM66.28,177.42h2.54l.02-5.28c0-.74.15-1.09.35-1.39.33-.48.93-.8,1.54-.8.87,0,1.5.57,1.5,1.63v5.83h2.54v-6.65c0-1.76-1.3-3.11-3.24-3.11-1.35,0-2.31.72-2.63,1.46l-.11-1.11-2.48-.02-.02,9.42ZM61.8,176.37l.13,1.05h2.39v-9.41l-2.52-.02v5.28c0,1.44-.85,2.18-1.89,2.18-.93,0-1.52-.5-1.52-1.83v-5.63h-2.54v6.48c0,1.24.35,1.91.93,2.44.55.5,1.33.82,2.35.82,1.17,0,2.09-.5,2.67-1.37Z"/>
</svg>