<svg xmlns="http://www.w3.org/2000/svg" viewBox="0 0 595.28 850.37"><defs><style>.a{fill:#fcc00d;}.a,.b{fill-rule:evenodd;}.b{fill:#000100;}</style></defs><title>W014_C</title><polyline class="a" points="0 850.37 595.28 850.37 595.28 0 0 0 0 850.37"/><path class="b" d="M133.25,643.93h10.44V601.45h15.48V593h-41.4v8.5h15.48v42.48Zm308.08,0h9.86v-12l4.1-4.1,10.08,16.13h12.1l-15.12-22.54,13.18-14.11H463.86l-12.67,14L451.12,593h-9.79v51Zm-17.49,0h9.79V607.28h-9.79v36.65Zm0-42.19h9.86V593h-9.86v8.78Zm-23.91,42.19h9.86v-30.1h7.13v-6.55h-7.13v-0.72c0-3.31.58-4.25,1.22-4.9,0.79-.86,1.87-1.51,4.25-1.44h1.66V593h-5.61c-3.38,0-12.31.58-11.38,14.33H394.6v6.55h5.33v30.1Zm-21.53-4.18a11.57,11.57,0,0,0,1.22,4.18h10a6.18,6.18,0,0,1-1.66-3.82L388,620c0-8.78-4.61-14-16.56-14-11.09,0-15.7,6-15.48,12.24l8.71,0.14c0-2.74,2.09-5.33,7.13-5.33,4.75,0,6.41,2.38,6.41,4.11,0,1.51-.94,2.88-3.6,3.38l-5.62.94c-8.13,1.44-10.3,3-11.81,4.32a9.94,9.94,0,0,0-3.38,7.63c0,6.05,4.75,11.52,14,11.52C373.22,644.94,376.31,643.14,378.4,639.75Zm0.07-15.12-0.07,4.61c0,5.19-3.17,8.43-8.85,8.43-4.11,0-6.05-2.45-6.05-4.68,0-1.73.58-3.67,6.77-5.4l4.25-1.15A11.3,11.3,0,0,0,378.48,624.63ZM331,643.93h9.86V627.66c0-5.47,1.37-8,3-9.72a8.84,8.84,0,0,1,6.7-2.88,13.61,13.61,0,0,1,1.73.14v-8.71a14.64,14.64,0,0,0-2.09-.21,9.44,9.44,0,0,0-9.14,6.55l-0.29-5.55H331v36.65Zm-7.27,0v-7.56H320A3.65,3.65,0,0,1,317.2,635c-0.22-.29-0.51-0.87-0.51-2.88V614h6.7v-6.7h-6.7l-0.07-11.59h-9.8v11.59h-5.11V614l5.18-.07v18.94c0,8.28,3.38,11,8.78,11h8Zm-60.48,0h9.87v-12l4.1-4.1,10.08,16.13h12l-15-22.54,13.18-14.11H285.74l-12.67,14L273,593h-9.79v51Zm-16.27-13.32c-0.58,2.88-1.36,4-2.81,5.11a7.85,7.85,0,0,1-4.82,1.51c-4.39,0-8.5-3.17-8.5-11.38,0-9,4.39-12.31,8.85-12.31a7.19,7.19,0,0,1,7.06,6.26l9.5-.51c-0.86-7.63-6.77-13.54-16.77-13.54-7.2,0-12.24,2.81-15.62,7.7a21.06,21.06,0,0,0-3.46,12.24c0,7.42,3,13,7.56,16.42a21.47,21.47,0,0,0,18.72,2.16c5.55-2,8.93-6.19,9.65-13.25Zm-43.34,9.22,0.58,4.11h9.29V607.35l-9.8-.07V627.8c0,5.62-3.38,8.5-7.34,8.5-3.67,0-5.91-1.94-5.91-7.13V607.28h-9.86v25.2c0,4.82,1.37,7.42,3.6,9.5a13.23,13.23,0,0,0,9.14,3.17A11.69,11.69,0,0,0,203.59,639.82Zm-49.54,4.11h9.87V627.66c0-5.47,1.37-8,3-9.72a8.84,8.84,0,0,1,6.7-2.88,13.62,13.62,0,0,1,1.73.14v-8.71a14.66,14.66,0,0,0-2.09-.21,9.44,9.44,0,0,0-9.14,6.55l-0.29-5.55h-9.72v36.65Z"/><path class="b" d="M544.9,527.26c11.94,0,18.35-13.24,12.56-23.25L309.82,75.4a14.41,14.41,0,0,0-25,0L37.4,504C31.62,514,38,527.26,50,527.26H544.9Zm-28.58-31.44L297.44,116.72,78.55,495.82H516.32Z"/><path class="b" d="M294.46,391.75l7.91-26.16h7.27v26.16H294.46ZM332,444.65a16.27,16.27,0,1,0,16.27-16.27A16.25,16.25,0,0,0,332,444.65Zm-104,4.21a12.17,12.17,0,1,0,12.13-12.2A12.09,12.09,0,0,0,228,448.86Zm92.85-152.23a10.7,10.7,0,1,0,21.4,0A10.7,10.7,0,0,0,320.88,296.63Zm70.19,62H363.38V281.29a19.9,19.9,0,0,0-19.9-19.89H292.73a21.4,21.4,0,0,0-20,13.7L221,409.3H208.7l66.73-172.84-14-5.39L177.36,448.85,138.52,437l-4.45,14.34,52.25,15.93,7.22-18.63h22.31l0,1.82c3.27,30.21,45.41,30.22,48.69,0l0-1.82h55.51l0.34,2c7.25,30,48.62,30,55.83,0l0.34-2h32.82V377A18.38,18.38,0,0,0,391.07,358.67ZM284.17,279.52a9.16,9.16,0,0,1,8.54-5.88h50.13a7.65,7.65,0,0,1,7.64,7.67v77.38h-9.54l0.42-1.77,0.08-1.17V320.3c0-10.34-13.87-13.73-18.64-4.56l-10.21,19.63-21.16-6.69a5.33,5.33,0,0,0-7,5.13,5.44,5.44,0,0,0,1,3.14l-6-7.5c-2.56-3.2-7.35.65-4.78,3.84l4.78,5.95-35.74,52.53h-2.88ZM250.78,391.76L283.25,344l4.79,6c2.56,3.19,7.31-.67,4.77-3.84l-7-8.73a5.38,5.38,0,0,0,2.38,1.49l25.4,8.06a5.26,5.26,0,0,0,6.35-2.59l1.72-3.24v12.22H297.84a6.1,6.1,0,0,0-5.85,4.32l-9.79,32.26-0.19.85-0.08.94s0,0,0,0H250.78Z"/></svg>