<?xml version="1.0" encoding="UTF-8"?>
<svg id="Lager_1" data-name="Lager 1" xmlns="http://www.w3.org/2000/svg" viewBox="0 0 153.09 218.69">
  <defs>
    <style>
      .cls-1 {
        fill: #fff;
      }

      .cls-1, .cls-2, .cls-3 {
        fill-rule: evenodd;
      }

      .cls-2 {
        fill: #fcbd0e;
      }

      .cls-3 {
        fill: #1d1f22;
      }
    </style>
  </defs>
  <polyline class="cls-1" points="0 218.69 153.09 218.69 153.09 0 0 0 0 218.69"/>
  <path class="cls-3" d="M140.13,124.48c3.07,0,4.72-3.4,3.23-5.98L79.68,8.28c-1.43-2.47-4.99-2.47-6.42,0L9.62,118.51c-1.49,2.58.16,5.98,3.23,5.98h127.28"/>
  <polyline class="cls-2" points="132.78 116.4 76.49 18.91 20.2 116.4 132.78 116.4"/>
  <path class="cls-3" d="M75.73,89.64l2.03-6.73h1.87v6.73h-3.91ZM85.39,103.24c0,2.32,1.87,4.18,4.18,4.18s4.18-1.87,4.18-4.18-1.87-4.18-4.18-4.18-4.18,1.87-4.18,4.18ZM58.64,104.32c0,1.73,1.39,3.12,3.12,3.12s3.14-1.39,3.14-3.12-1.41-3.14-3.14-3.14-3.12,1.41-3.12,3.14ZM82.52,65.17c0,1.53,1.24,2.76,2.76,2.76s2.74-1.23,2.74-2.76-1.22-2.74-2.74-2.74-2.76,1.22-2.76,2.74ZM100.57,81.13h-7.12v-19.9c0-2.83-2.29-5.12-5.12-5.12h-13.05c-2.27,0-4.31,1.4-5.13,3.53l-13.32,34.51h-3.16l17.16-44.45-3.6-1.39-21.62,56-9.99-3.05-1.15,3.69,13.44,4.1,1.86-4.79h5.74v.47c.85,7.77,11.69,7.77,12.53,0v-.47h14.29l.09.52c1.86,7.72,12.5,7.71,14.36,0l.09-.52h8.44v-18.41c0-2.61-2.12-4.73-4.73-4.73ZM73.08,60.77c.35-.91,1.22-1.51,2.2-1.51h12.89c1.09,0,1.96.89,1.96,1.97v19.9h-2.45l.11-.46.02-.3v-9.12c0-2.66-3.57-3.53-4.79-1.17l-2.63,5.05-5.44-1.72c-.89-.28-1.82.37-1.8,1.32,0,.32.11.59.27.81l-1.54-1.93c-.66-.82-1.89.17-1.23.99l1.23,1.53-9.19,13.51h-.74l11.14-28.86ZM64.49,89.64l8.35-12.28,1.23,1.53c.66.82,1.88-.17,1.23-.99l-1.8-2.25c.17.18.38.31.61.38l6.53,2.07c.58.19,1.27,0,1.63-.67l.44-.83v3.14h-6.13c-.69,0-1.3.45-1.5,1.11l-2.52,8.3-.05.22-.02.24s0,0,0,.01h-8.01Z"/>
  <polyline class="cls-2" points="10.19 133.08 142.92 133.08 142.92 208.7 10.19 208.7 10.19 133.08"/>
  <path class="cls-3" d="M34.27,155.25h2.69v-10.92h3.98v-2.18h-10.65v2.18h3.98v10.92ZM113.5,155.25h2.54v-3.09l1.06-1.05,2.59,4.15h3.11l-3.89-5.79,3.39-3.63h-3l-3.26,3.59-.02-7.28h-2.52v13.11ZM109,155.25h2.52v-9.42h-2.52v9.42ZM109,144.4h2.54v-2.26h-2.54v2.26ZM102.85,155.25h2.54v-7.74h1.83v-1.68h-1.83v-.18c0-.85.15-1.09.31-1.26.2-.22.48-.39,1.09-.37h.43v-1.87h-1.44c-.87,0-3.17.15-2.93,3.68h-1.37v1.68h1.37v7.74ZM97.31,154.18c.06.46.17.8.31,1.07h2.57c-.32-.39-.41-.67-.43-.98l.02-5.17c0-2.26-1.18-3.61-4.26-3.61-2.85,0-4.04,1.55-3.98,3.15l2.24.04c0-.7.54-1.37,1.83-1.37,1.22,0,1.65.61,1.65,1.05,0,.39-.24.74-.93.87l-1.44.24c-2.09.37-2.65.76-3.04,1.11-.57.5-.87,1.2-.87,1.96,0,1.56,1.22,2.96,3.59,2.96,1.39,0,2.19-.46,2.72-1.33ZM97.33,150.29l-.02,1.18c0,1.33-.81,2.17-2.28,2.17-1.06,0-1.56-.63-1.56-1.2,0-.44.15-.94,1.74-1.39l1.09-.3c.5-.13.81-.32,1.02-.46ZM85.11,155.25h2.54v-4.18c0-1.41.35-2.05.76-2.5.48-.5,1.04-.74,1.72-.74.15,0,.3.02.44.04v-2.24c-.13-.02-.33-.05-.54-.05-1.11,0-2.06.7-2.35,1.68l-.07-1.43h-2.5v9.42ZM83.24,155.25v-1.94h-.94c-.3,0-.59-.17-.72-.35-.06-.07-.13-.22-.13-.74v-4.67h1.72v-1.72h-1.72l-.02-2.98h-2.52v2.98h-1.31v1.74l1.33-.02v4.87c0,2.13.87,2.83,2.26,2.83h2.05ZM67.69,155.25h2.54v-3.09l1.05-1.05,2.59,4.15h3.09l-3.87-5.79,3.39-3.63h-3l-3.26,3.59-.02-7.28h-2.52v13.11ZM63.5,151.82c-.15.74-.35,1.04-.72,1.32-.33.24-.72.39-1.24.39-1.13,0-2.19-.81-2.19-2.92,0-2.32,1.13-3.17,2.28-3.17.91,0,1.67.67,1.81,1.61l2.44-.13c-.22-1.96-1.74-3.48-4.31-3.48-1.85,0-3.15.72-4.02,1.98-.56.82-.89,1.83-.89,3.15,0,1.91.76,3.35,1.94,4.22.74.54,1.65.87,2.93.87.91,0,1.43-.13,1.89-.32,1.43-.52,2.3-1.59,2.48-3.41l-2.41-.11ZM52.36,154.19l.15,1.05h2.39v-9.41l-2.52-.02v5.28c0,1.44-.87,2.18-1.89,2.18-.95,0-1.52-.5-1.52-1.83v-5.63h-2.54v6.48c0,1.24.35,1.91.93,2.44.55.5,1.33.82,2.35.82,1.17,0,2.09-.5,2.65-1.37ZM39.62,155.25h2.54v-4.18c0-1.41.35-2.05.76-2.5.48-.5,1.04-.74,1.72-.74.15,0,.3.02.44.04v-2.24c-.13-.02-.33-.05-.54-.05-1.11,0-2.05.7-2.35,1.68l-.07-1.43h-2.5v9.42Z"/>
</svg>