<?xml version="1.0" encoding="UTF-8"?>
<svg id="Lager_1" data-name="Lager 1" xmlns="http://www.w3.org/2000/svg" viewBox="0 0 153.09 218.69">
  <defs>
    <style>
      .cls-1 {
        fill: #fff;
      }

      .cls-1, .cls-2, .cls-3 {
        fill-rule: evenodd;
      }

      .cls-2 {
        fill: #fcbd0e;
      }

      .cls-3 {
        fill: #1d1f22;
      }
    </style>
  </defs>
  <polyline class="cls-1" points="0 218.69 153.09 218.69 153.09 0 0 0 0 218.69"/>
  <path class="cls-3" d="M143.4,118.31L79.87,8.2c-1.5-2.6-5.25-2.6-6.75,0L9.6,118.31c-1.5,2.6.36,5.87,3.37,5.87h127.04c3.01,0,4.88-3.27,3.38-5.87"/>
  <polyline class="cls-2" points="20.23 116.11 76.5 18.52 132.78 116.11 20.23 116.11"/>
  <path class="cls-3" d="M88.83,88.24l1.84,1.29-1.84-1.29ZM88.83,88.25l-12.56-8.89-1.84-1.31-4.29-3.03-6.39,2.43v-.52l10.67-17.49v32.22l-18.14,6.46v-1.07l-4.89-2.72v-12.17l9.13-3.46,13.63-22.35-.55-.47c-1.41-1.43-1.56-3.65-.43-5.3l.48-.55-.02.76.14.76c.35,1.4,1.41,1.83,2.74,1.72l.4-.15.33-.26.21-.33.12-.4-.02-.43-.17-.38-1.91-3.05c-.15-.23-.24-.5-.24-.78v-3.08l-.48-.26c-1.69-1.24-1.69-3.6,0-4.84l.48-.28v-2.67h-.21c-.35,0-.65-.28-.65-.64v-1.62c0-.82.66-1.48,1.48-1.48h1.19c.81,0,1.46.67,1.46,1.48v1.62c0,.36-.29.64-.65.64h-.21v2.67l.48.28c1.69,1.23,1.69,3.6,0,4.84l-.48.26v2.62l.07.54c.39,1.32,1.36,1.12,2.1,2.07.29.36.53.76.69,1.2.69,1.78.31,3.89-.86,5.38l-.33.33-.38.26,11.71,32.72-1.84-1.29ZM90.67,89.53v11.79l-16.29,6.46,1.34.74.74-.31,3.74,2.07,16.81-6.17v-10.08l-6.34-4.5ZM88.83,88.24v11.34l-16.83,6.96v-.82l-9.54-5.26-1.5-.1-2-1.1,17.3-6.03v-36.15h.95l11.61,31.15Z"/>
  <polyline class="cls-2" points="10.19 133.07 142.92 133.07 142.92 208.69 10.19 208.69 10.19 133.07"/>
  <path class="cls-3" d="M13.12,153.64h2.69v-5.79h5.2v5.79h2.69v-13.11h-2.69v5.17h-5.2l.02-5.17h-2.69l-.02,13.11ZM139.96,153.64v-1.94h-.94c-.31,0-.59-.17-.74-.35-.04-.07-.11-.22-.11-.74v-4.67h1.7v-1.72h-1.7l-.02-2.98h-2.52v2.98h-1.33v1.74l1.35-.02-.02,4.87c0,2.13.87,2.83,2.28,2.83h2.06ZM124.12,150.49c.06,1.78,1.56,3.48,4.44,3.48s4.22-1.57,4.22-3.26c0-.59-.2-1.18-.57-1.65-.35-.45-.82-.78-1.93-1.04l-2.7-.63c-.57-.15-.8-.5-.8-.83,0-.37.33-.94,1.57-.94,1.33,0,1.93.7,1.94,1.46l2.24-.04c-.05-.95-.55-1.89-1.35-2.48-.56-.39-1.43-.72-2.8-.72-2.72,0-3.93,1.46-3.93,3.07,0,.76.22,1.3.67,1.78.33.35.74.65,1.8.87l2.04.46c1.18.26,1.33.63,1.33,1.07,0,.41-.39,1.05-1.8,1.05-1.33,0-2-.7-2.07-1.68l-2.31.02ZM119.77,152.56c.06.46.15.8.3,1.07h2.59c-.33-.39-.43-.67-.43-.98v-5.17c0-2.26-1.17-3.61-4.24-3.61-2.85,0-4.04,1.56-3.98,3.15l2.24.04c0-.7.52-1.37,1.81-1.37s1.67.61,1.67,1.05c0,.39-.24.74-.92.87l-1.46.24c-2.07.37-2.63.76-3.04,1.11-.56.5-.87,1.2-.87,1.96,0,1.55,1.22,2.96,3.61,2.96,1.37,0,2.18-.46,2.72-1.33ZM119.79,148.68l-.02,1.18c0,1.33-.83,2.17-2.28,2.17-1.06,0-1.57-.63-1.57-1.2,0-.44.17-.94,1.76-1.39l1.09-.3c.48-.13.81-.32,1.02-.46ZM109.18,153.64h2.54v-13.11h-2.52l-.02,13.11ZM92.74,149.62l7,.02c0-2.8-1.26-5.76-4.78-5.76s-4.74,2.87-4.74,5.02c0,3.13,2.07,5.07,4.72,5.07s4.24-1.43,4.63-3.07l-2.56-.17c-.48.87-1.13,1.22-1.96,1.22-1.2,0-2.18-.81-2.31-2.33ZM92.85,147.79c.15-1.15,1.09-1.92,2.06-1.92,1.04,0,1.93.7,2.09,1.92h-4.15ZM85.83,152.67l.11.96h2.5v-13.11h-2.56v4.76c-.44-.74-1.52-1.37-2.72-1.37-2.09,0-4.18,1.76-4.18,5.05,0,1.5.48,2.74,1.22,3.61.78.94,1.76,1.37,2.87,1.37s2.09-.44,2.76-1.28ZM83.83,151.77c-1.2,0-2.24-.85-2.24-2.85,0-2.24,1.09-3.04,2.13-3.04s2.15.8,2.15,2.96-1.09,2.91-2.04,2.92ZM68.78,153.64h2.54l.02-5.28c0-.74.15-1.09.35-1.39.33-.48.94-.8,1.54-.8.89,0,1.52.57,1.52,1.63l-.02,5.83h2.52v-6.65c0-1.76-1.28-3.11-3.22-3.11-1.35,0-2.3.72-2.63,1.46l-.09-1.11-2.5-.02-.02,9.42ZM64.08,152.56c.06.46.15.8.3,1.07h2.59c-.33-.39-.43-.67-.43-.98v-5.17c0-2.26-1.17-3.61-4.24-3.61-2.85,0-4.04,1.56-3.98,3.15l2.24.04c0-.7.52-1.37,1.81-1.37s1.67.61,1.67,1.05c0,.39-.24.74-.93.87l-1.46.24c-2.07.37-2.63.76-3.04,1.11-.56.5-.87,1.2-.87,1.96,0,1.55,1.22,2.96,3.61,2.96,1.37,0,2.18-.46,2.72-1.33ZM64.1,148.68l-.02,1.18c0,1.33-.83,2.17-2.28,2.17-1.06,0-1.57-.63-1.57-1.2,0-.44.17-.94,1.76-1.39l1.09-.3c.48-.13.81-.32,1.02-.46ZM47.03,154.16c.11.89.37,1.39.91,1.89.57.56,1.65,1.07,3.46,1.07,2.04,0,3.35-.76,3.98-1.57.43-.57.67-1.09.67-2.5l-.02-8.83h-2.41l-.09,1.15c-.17-.3-.69-1.48-2.78-1.48-2.28,0-4.28,1.82-4.28,4.72s2,4.74,4.24,4.74c1.5,0,2.44-.68,2.81-1.41l-.02,1.02c0,1.59-.72,2.26-2.18,2.26-1.09,0-1.61-.55-1.7-1.15l-2.59.09ZM51.32,151.16c-1.24,0-2.28-.89-2.28-2.63,0-1.52,1.06-2.48,2.22-2.48s2.22.96,2.22,2.55-1.09,2.55-2.17,2.55ZM36.25,153.64h2.54l.02-5.28c0-.74.15-1.09.35-1.39.33-.48.94-.8,1.54-.8.89,0,1.52.57,1.52,1.63l-.02,5.83h2.54v-6.65c0-1.76-1.3-3.11-3.24-3.11-1.35,0-2.3.72-2.63,1.46l-.09-1.11-2.5-.02-.02,9.42ZM31.55,152.56c.06.37.18.78.33,1.07h2.56c-.15-.13-.39-.55-.39-1.33l-.04-4.81c-.02-.83-.08-1.07-.13-1.28-.39-1.3-1.44-2.33-4-2.33-2.93,0-4.09,1.5-4.09,3.15l2.24.04c.09-.63.18-.76.39-.94.24-.22.72-.44,1.48-.44,1.18,0,1.63.63,1.63,1.07s-.28.76-.96.89l-2.56.45c-1.91.33-2.8,1.57-2.8,2.81,0,1.63,1.26,3.02,3.54,3.02,1.57,0,2.44-.63,2.8-1.35ZM31.55,148.62v1.41c-.06,1.18-.87,2-2.24,2-1.07,0-1.57-.63-1.57-1.18,0-.44.22-1.02,1.72-1.39l1.09-.3c.43-.09.76-.3,1-.54ZM30.05,143.08l2.54.02v-2.57h-2.54v2.55ZM26.73,143.08h2.54l.02-2.57h-2.54l-.02,2.57Z"/>
</svg>