<svg xmlns="http://www.w3.org/2000/svg" viewBox="0 0 595.28 850.37"><defs><style>.a{fill:#fcc00d;}.a,.b{fill-rule:evenodd;}.b{fill:#000100;}</style></defs><title>W015_C</title><polyline class="a" points="0 850.37 595.28 850.37 595.28 0 0 0 0 850.37"/><path class="b" d="M51,643.92H61.47V621.39H81.7v22.53H92.14V593H81.7V613H61.47L61.54,593H51.1Zm493.18,0v-7.56h-3.67a3.8,3.8,0,0,1-2.88-1.37,5.85,5.85,0,0,1-.43-2.88V614h6.62v-6.7h-6.62l-0.07-11.59h-9.79v11.59h-5.18V614l5.26-.07-0.07,18.93c0,8.28,3.38,11,8.85,11h8Zm-61.56-12.24c0.21,6.91,6,13.54,17.28,13.54s16.41-6.12,16.41-12.67a10.35,10.35,0,0,0-2.23-6.41c-1.37-1.73-3.17-3-7.49-4l-10.51-2.45c-2.23-.58-3.1-1.94-3.1-3.24s1.29-3.67,6.12-3.67c5.18,0,7.49,2.74,7.56,5.69l8.71-.14a13.22,13.22,0,0,0-5.25-9.65c-2.16-1.51-5.54-2.81-10.87-2.81-10.58,0-15.26,5.69-15.26,11.95a9.47,9.47,0,0,0,2.59,6.91c1.29,1.37,2.88,2.52,7,3.38l7.92,1.8c4.61,1,5.18,2.45,5.18,4.18s-1.51,4.1-7,4.1c-5.18,0-7.78-2.73-8.06-6.55Zm-16.92,8.06a11.55,11.55,0,0,0,1.15,4.18H477a5.47,5.47,0,0,1-1.66-3.81V620c0-8.78-4.53-14-16.49-14-11.09,0-15.69,6-15.48,12.24l8.71,0.14c0-2.73,2-5.33,7.05-5.33,4.83,0,6.48,2.38,6.48,4.11,0,1.51-.93,2.88-3.6,3.38l-5.69.93c-8.06,1.44-10.22,3-11.81,4.32a10.21,10.21,0,0,0-3.38,7.63c0,6,4.75,11.52,14,11.52C460.48,644.94,463.65,643.13,465.74,639.75Zm0.07-15.12-0.07,4.61c0,5.18-3.24,8.43-8.86,8.43-4.1,0-6.12-2.45-6.12-4.68,0-1.73.65-3.67,6.84-5.4l4.25-1.15A12.14,12.14,0,0,0,465.81,624.63Zm-41.25,19.29h9.86V593h-9.79ZM360.62,628.3l27.21,0.07c0-10.87-4.9-22.39-18.58-22.39-14,0-18.43,11.16-18.43,19.51,0,12.17,8.06,19.73,18.36,19.73s16.49-5.54,18-12l-9.94-.65c-1.87,3.39-4.39,4.75-7.63,4.75C364.94,637.37,361.12,634.21,360.62,628.3Zm0.43-7.13a8.37,8.37,0,0,1,8-7.49c4,0,7.49,2.73,8.13,7.49H361.05Zm-27.29,19,0.43,3.74h9.72V593H334v18.51c-1.73-2.88-5.91-5.33-10.58-5.33-8.13,0-16.27,6.84-16.27,19.65a21.42,21.42,0,0,0,4.75,14A13.89,13.89,0,0,0,323,645.15,13.19,13.19,0,0,0,333.76,640.18ZM326,636.65c-4.68,0-8.71-3.31-8.71-11.09,0-8.71,4.25-11.81,8.28-11.81s8.35,3.1,8.35,11.52C333.91,633.34,329.66,636.58,326,636.65Zm-58.53,7.27h9.87l0.07-20.52c0-2.88.58-4.25,1.37-5.4a7.49,7.49,0,0,1,6-3.1c3.46,0,5.9,2.23,5.9,6.33l-0.07,22.68h9.79V618.08c0-6.84-5-12.09-12.53-12.09-5.26,0-8.93,2.81-10.22,5.69l-0.36-4.32-9.72-.07Zm-18.29-4.18a11.62,11.62,0,0,0,1.15,4.18H260.4a5.45,5.45,0,0,1-1.66-3.81V620c0-8.78-4.54-14-16.49-14-11.09,0-15.7,6-15.48,12.24l8.71,0.14c0-2.73,2-5.33,7.06-5.33,4.82,0,6.48,2.38,6.48,4.11,0,1.51-.94,2.88-3.6,3.38l-5.68.93c-8.06,1.44-10.23,3-11.81,4.32a10.21,10.21,0,0,0-3.38,7.63c0,6,4.75,11.52,14,11.52C243.91,644.94,247.08,643.13,249.16,639.75Zm0.07-15.12-0.07,4.61c0,5.18-3.24,8.43-8.85,8.43-4.11,0-6.12-2.45-6.12-4.68,0-1.73.65-3.67,6.84-5.4l4.25-1.15A12.13,12.13,0,0,0,249.24,624.63Zm-66.38,21.31c0.43,3.46,1.44,5.4,3.53,7.34,2.23,2.16,6.41,4.18,13.47,4.18,7.92,0,13-3,15.48-6.12,1.66-2.23,2.59-4.25,2.59-9.72l-0.07-34.34h-9.36l-0.36,4.46c-0.65-1.15-2.66-5.76-10.8-5.76-8.86,0-16.63,7.05-16.63,18.36s7.77,18.43,16.49,18.43c5.83,0,9.5-2.66,10.94-5.47l-0.07,4c0,6.19-2.81,8.78-8.5,8.78-4.25,0-6.26-2.16-6.63-4.46Zm16.7-11.67c-4.83,0-8.86-3.45-8.86-10.22,0-5.9,4.11-9.65,8.64-9.65s8.64,3.74,8.64,9.93S203.74,634.28,199.56,634.28ZM141,643.92h9.87l0.07-20.52c0-2.88.58-4.25,1.37-5.4a7.49,7.49,0,0,1,6-3.1c3.45,0,5.9,2.23,5.9,6.33l-0.07,22.68h9.86V618.08c0-6.84-5-12.09-12.6-12.09-5.26,0-8.93,2.81-10.22,5.69l-0.36-4.32-9.72-.07Zm-18.29-4.18a15,15,0,0,0,1.29,4.18h9.94c-0.58-.5-1.51-2.16-1.51-5.18L132.24,620a18.69,18.69,0,0,0-.51-5c-1.51-5-5.61-9.07-15.55-9.07-11.38,0-15.91,5.83-15.91,12.24l8.71,0.14c0.36-2.45.72-3,1.51-3.67s2.81-1.73,5.76-1.73c4.61,0,6.33,2.45,6.33,4.18s-1.08,3-3.74,3.45l-9.94,1.73C101.5,623.62,98,628.45,98,633.27c0,6.33,4.9,11.74,13.75,11.74C117.91,645,121.3,642.56,122.67,639.75Zm0-15.33v5.47c-0.22,4.61-3.38,7.78-8.71,7.78-4.18,0-6.12-2.45-6.12-4.61,0-1.73.86-4,6.7-5.4l4.25-1.15A7.82,7.82,0,0,0,122.67,624.42Zm-5.83-21.53L126.7,603V593h-9.87v9.93Zm-12.89,0h9.87l0.07-10H104Z"/><path class="b" d="M557.59,504.1l-247-428.17a15.15,15.15,0,0,0-26.25,0L37.33,504.1a15.21,15.21,0,0,0,13.12,22.84h494A15.21,15.21,0,0,0,557.59,504.1ZM78.66,495.53L297.48,116.08,516.32,495.53H78.66Z"/><path class="b" d="M345.43,387.15l7.15,5Zm0,0.05-48.85-34.56-7.14-5.09-16.67-11.78-24.84,9.44v-2l41.51-68V400.46L218.9,425.57v-4.16l-19-10.58V363.49L235.4,350l53-86.92-2.14-1.84a16.22,16.22,0,0,1-1.67-20.59l1.86-2.12-0.09,3,0.56,3c1.37,5.44,5.47,7.1,10.66,6.68l1.57-.57,1.3-1,0.83-1.29,0.47-1.57-0.09-1.68-0.64-1.5-7.43-11.86a5.72,5.72,0,0,1-.92-3v-12l-1.86-1a11.44,11.44,0,0,1,0-18.81l1.86-1.09V185.39h-0.83a2.5,2.5,0,0,1-2.51-2.5v-6.29a5.75,5.75,0,0,1,5.74-5.75h4.64a5.7,5.7,0,0,1,5.66,5.75v6.29a2.51,2.51,0,0,1-2.52,2.5H302v10.39l1.86,1.09a11.45,11.45,0,0,1,0,18.81l-1.86,1v10.19l0.28,2.12c1.52,5.13,5.27,4.37,8.15,8.06a18.35,18.35,0,0,1,2.69,4.65,21.92,21.92,0,0,1-3.34,20.94l-1.3,1.29-1.48,1,45.52,127.24Zm7.15,5V438l-63.33,25.1,5.19,2.89,2.88-1.22,14.55,8.06,65.35-24V409.68Zm-7.15-5v44.11L280,458.31v-3.17l-37.08-20.45-5.84-.38L229.29,430l67.28-23.44V266h3.71Z"/></svg>