<svg xmlns="http://www.w3.org/2000/svg" viewBox="0 0 595.28 850.37"><defs><style>.a{fill:#fcc00d;}.a,.b{fill-rule:evenodd;}.b{fill:#000100;}</style></defs><title>W016_C</title><polyline class="a" points="0 850.37 595.28 850.37 595.28 0 0 0 0 850.37"/><path class="b" d="M110.71,624.85h12.67a13.45,13.45,0,0,1-13.54,12c-7.35,0-14.33-5.62-14.33-18.21,0-10.37,5.62-18.79,14.55-18.79a11.77,11.77,0,0,1,11.81,9.22l10.3-.29A20.15,20.15,0,0,0,126,597.2c-3.89-3.53-9.29-5.83-16.7-5.83-15.41,0-24.33,12.89-24.33,27.43,0,9.14,3,15.62,7.77,20.3A21.47,21.47,0,0,0,108,645.58a21.24,21.24,0,0,0,9.65-2.08,14.72,14.72,0,0,0,6.41-6.34l0.5,6.77h7.92L132.39,617H110.71v7.85Zm372.37,3.46,27.14,0.07c0-10.87-4.9-22.39-18.58-22.39-14,0-18.36,11.16-18.36,19.51,0,12.17,8.06,19.73,18.29,19.73s16.49-5.55,18-12l-9.87-.65c-1.94,3.38-4.46,4.75-7.63,4.75C487.41,637.38,483.59,634.21,483.09,628.3Zm0.36-7.13a8.5,8.5,0,0,1,8.06-7.49c4,0,7.49,2.74,8.13,7.49h-16.2Zm-49.89,22.75h9.86l0.07-20.52c0-2.88.58-4.25,1.37-5.4a7.4,7.4,0,0,1,6-3.1c3.38,0,5.83,2.23,5.83,6.33v22.68h9.87V618.08c0-6.84-5-12.09-12.67-12.09-5.25,0-8.93,2.81-10.15,5.69l-0.43-4.32-9.65-.07Zm-61.34,0h9.86V622.76c0-5.26,3-7.92,6.91-7.92a4.92,4.92,0,0,1,5,3.1c0.14,0.36.43,1.15,0.43,4v22h9.72V622.18c0-4.75,3-7.49,6.84-7.49,3.38,0,5.54,2,5.54,6.34v22.9h9.79l-0.07-25.7c-0.21-7.71-5.11-12.1-11.81-12.1a12.23,12.23,0,0,0-11.23,6.41,11.86,11.86,0,0,0-10.8-6.41c-5,0-8.28,2.16-10.15,5.83l-0.36-4.61-9.58-.07Zm-18.29-4.18a13,13,0,0,0,1.22,4.18h10c-0.58-.51-1.51-2.16-1.51-5.19L363.5,620a17,17,0,0,0-.58-5c-1.44-5-5.54-9.07-15.48-9.07-11.45,0-15.91,5.83-15.91,12.24l8.64,0.14c0.43-2.45.79-3,1.58-3.67s2.74-1.73,5.69-1.73c4.61,0,6.41,2.45,6.41,4.18s-1.08,3-3.81,3.46l-9.87,1.73c-7.42,1.29-10.87,6.12-10.87,10.94,0,6.34,4.9,11.74,13.75,11.74C349.17,645,352.48,642.56,353.92,639.75Zm0-15.34v5.47c-0.29,4.61-3.38,7.78-8.78,7.78-4.11,0-6.12-2.45-6.12-4.61,0-1.73.86-4,6.7-5.4L350,626.5A8.1,8.1,0,0,0,353.92,624.42ZM348,602.89l9.87,0.07L358,593H348v9.94Zm-12.89,0H345l0.07-10H335.2Zm-40.75,41v-7.56h-3.67A3.64,3.64,0,0,1,287.9,635c-0.22-.29-0.51-0.87-0.51-2.88V614h6.7v-6.7h-6.63l-0.14-11.59h-9.79v11.59h-5.11V614l5.18-.07v18.94c0,8.28,3.38,11,8.78,11h8Zm-63.5,2a10.73,10.73,0,0,0,3.6,7.35c2.23,2.16,6.33,4.18,13.39,4.18,8,0,13-3,15.48-6.12,1.73-2.23,2.59-4.25,2.59-9.72V607.28h-9.43l-0.36,4.46c-0.65-1.15-2.66-5.76-10.8-5.76-8.86,0-16.56,7.05-16.56,18.36s7.78,18.43,16.49,18.43c5.83,0,9.5-2.66,10.87-5.47v4c0,6.19-2.88,8.78-8.5,8.78-4.32,0-6.33-2.16-6.62-4.46Zm16.7-11.66c-4.83,0-8.78-3.46-8.78-10.23,0-5.9,4.1-9.65,8.57-9.65s8.64,3.74,8.64,9.93S251.83,634.28,247.58,634.28ZM212,643.93h9.87V607.28H212v36.65Zm0.07-42.19h9.8V593h-9.8v8.78Zm-7,42.19v-7.56h-3.67a3.66,3.66,0,0,1-2.81-1.36c-0.22-.29-0.51-0.87-0.51-2.88V614h6.7v-6.7h-6.62L198,595.69h-9.79v11.59h-5.11V614l5.18-.07v18.94c0,8.28,3.38,11,8.78,11h8Zm-44.28,0h9.87v-30.1h7.13v-6.55h-7.13v-0.72c0-3.31.58-4.25,1.22-4.9,0.79-.86,1.87-1.51,4.32-1.44h1.58V593H172.2c-3.31,0-12.31.58-11.38,14.33H155.5v6.55h5.33v30.1Zm-21.31,0h9.86V607.28h-9.86v36.65Zm0.07-42.19h9.79V593h-9.79v8.78Z"/><path class="b" d="M78.64,495.61l218.8-379.4,218.81,379.4H78.64Zm480.8,13.51-0.76-2.48-1.14-2.48-247-428.1L309,73.79l-1.89-1.72a14.89,14.89,0,0,0-15-2.66l-2.28,1.13-2.27,1.53-1.71,1.72-1.52,2.27-247,428.1-1.15,2.48-0.76,2.48-0.2,2.65,0.2,2.67,0.76,2.66,1.15,2.29,1.52,2.28,1.71,1.71,2.27,1.53,2.29,1.14,2.66,0.76L50.46,527H544.41l2.67-.19,2.46-.76a15.31,15.31,0,0,0,9.9-11.61l0.18-2.67Z"/><path class="b" d="M262.89,407.31l0.29,1.53c2.05,10.85,3.49,6.12,7.42,11.23v0.76L271,421h1.14l0.76,0.19,0.77,0.19h0.76l0.38,0.19,0.38,0.18,0.38,0.76,0.76,1.33,0.58,0.59,0.76,0.37,0.76,0.19,0.77-.19,1.51-.37,0.77,0.17L282,425l1.15,1.14,1.51,0.38h1.71l0.57-.38h0.76l1.53,0.76,2.84,1,1,0.18h0.76l0.58-.57,0.57-.57,0.56-.38h1l1.52,0.38,0.57,0.57,0.77,0.38,0.76-.2,0.76-.18,0.77-.18,0.77-.19,0.37-1L303,426h2.1l0.37,0.19v0.38l0.19,0.38,0.39,0.19h1.71l1.52-.57,0.76-.19,0.38-.19,0.18-.19,0.2-.38,0.19-.37,0.76,0.18,1.52-.18h1.52l1.53-.76,0.76-.2,0.76-.38,0.19-.19,0.19-.36-0.19-.39,0.19-.39,0.38-.18h1.34l1.5-.2,1.53-.38,1.32-.76,0.39-.57,0.21-.77,0.17-.74,0.57-.58,0.39-.19h1.14l0.76-.18,0.75-.21,0.76-.38,0.38-.76,0.76-3,0.77,0.18c4.11-.84,3.35-3.08,3.24-6.48v-0.36l0.75-.39,0.21-.38v-2.09l0.36-2.66,0.39-2.85,0.37-1.52v-1l0.21-.39,0.38-1,0.37-1.33,0.76-1.33,0.59-1.72,0.37-.75v-0.37l0.19-.39,0.18-.39,0.38-.38,0.75-1.15,0.2-.38,0.37-.38,0.57-.39-1.14,5.34-0.75,5.51c-0.8,26.67-13.54,49-42,51.38h-2.85l-5.33-.37c-27.68-3.62-31.59-36.82-36.72-58l-0.95-2.48-2.47-4.93,1.71,0.56,1.91,1c3.12,1.2,4.12,4.91,5.51,7.6l0.2,0.77,0.19,1,0.19,1.13,0.38,1.53,0.38,1.53,0.2,0.57,0.19,0.57,0.18,0.57v0.57l0.2,0.57,0.19,0.77,0.38,1.9,0.58,1.33,0.37,1.33Zm113.9,32.54-0.39-.18-0.77-.38c-1.5-1-3.47-1.07-5.14-1.71l-0.37-.19-0.76-.18c-6.53-3.13-12.76-5.52-19.41-8.38l-4.38-1.71-4.38-1.9,1.71-4.2,1.71-4.19,0.75-2.47,0.58-2.67,0.57-2.46,0.19-2.48,19.79-9.31,9.7-4.76,5.14-2.1c6.72-4,19.47.73,26.27,3.22l2.66,0.38h1.33c8.14-1.26,8.31-8.34,6.66-15L417.5,378l-0.76-1.14L416,375.74l-1.34-2.28c0.86-8.07-1.06-17-10.45-17.5l-1.35.19-2.67.74-1.14.57-1.33.57-1,.94-0.93,1-1,1-1,.95L391.43,363c-8.8,3.47-16.42,6.79-24.92,11L364,375l-2.68.95-2.47,1L353.94,379l1-1.14,1.14-1.52,1.14-1.72,0.75-1.91,0.57-2.08,0.58-1.72,0.57-3.42V362l-0.38-3.24-0.57-3.23-1-3,0.18-.39,0.21-.36,0.18-.39,0.39-.38,0.57-1.15,1.14-1.91,1.89-4c4.6-9.67,6.14-20.43,6.47-31l-0.18-4.38-0.19-2.48-0.19-2.28-0.38-2.09c-0.65-13.85-4.41-21.16-13.69-31.59l-1.72-1.52-1.33-1.53c-10.15-11.25-12.1-9.14-24-15.79l-2.1-.94-2.46-1-2.28-.77-2.29-.57-2.29-.38c-35.92-9.56-81.41,9.61-91,47.58l-0.94,4.57-1,4.57-0.19,4.76c-1.05,8.59,4.12,22,8.37,29.5l0.38,0.57L232,340l0.57,1,0.57,0.95-1,2.68-0.95,2.66-1,2.84-0.57,3.26-0.38,3.4c0.07,7.34,1.47,9.32,4.57,15.62L235.6,375l1.71,2.29,1.52,1.89,1.33,1.71,2.29,3.81-10.47-4-10.27-4.38-5.33-1.72-5.32-1.91L205.92,371l-2.66-.94-2.47-1.33-2.47-1.52-2.1-1.72L191.84,362l-1.33-.77-1.33-.58-1.33-.18h-1.33l-1.33.18-1.33.39-1.33.39-1.33.94-1,1-0.76,1.13-0.76,2.68-0.57,2.66-0.2,2.85v5.71l-0.19.57-0.57.39-0.94,1.15-0.77,1.14-0.76,1.13-0.58,1.33c-1.12,5.47.72,10.79,6.86,11.6l1.52,0.19,1.33-.19,1.33-.38,1.33-.58,2.47-.95,1.33-.38,1.52-.18h1.33l1.53,0.18,2.66,0.57L208,397.62,218.66,401l10.46,3.81,10.66,3.62,5.33,1.72,5.32,1.5,0.58,2.87,1,3,0.94,2.67,1,2.46-1.72.77-1.53.75-1.33.38c-16,4.59-36.79,20.69-50.41,16.37H197l-1.14.19c-3.5.79-6.57,4.32-5.91,8v1.35l0.38,0.76,0.19,0.56,0.19,0.4v0.38l0.19,0.18,0.19,0.18,0.2,0.38,0.19,0.57,0.76,1.14,0.57,0.78,0.19,0.37,0.38,0.56,0.19,0.77,0.19,0.95,0.2,1.33,0.19,1.14,0.18,0.75c-0.94,10.51,10.82,15.21,18.45,6.1l0.76-.57,1.52-.76c12.87-6.7,27.46-13.2,40.91-18.83l2.66-1.15,2.47-1.14,5-1.91,3,2.86c15.85,14.12,41.44,10.37,57.65-1.15l1.89-1.32,4.37,1.71,2.28,0.77,1.91,0.76c13.43,6.6,29.41,11.77,42.61,19l0.77,0.55,0.94,0.58c6.57,7,17.4,8.54,20.94-1.33l0.58-1.53v-1.14l0.18-1v-2.07l0.18-.2,0.38-.38,0.39-.76,0.36-.75,0.39-.77,0.38-.57c0.52-1.14,1.31-2,1.92-3.24l0.19-.75,0.18-.56,0.18-.76c1.23-6.59-4.72-10.4-10.65-8.95l-0.39.19H396v0.18h-0.18c-11.67,1-5.9.56-17.72-2.67l-0.94-.18ZM186.13,368.12l0.57-.18h0.76v0.18l0.38,0.21c10.59,10.43,41.74,18.06,57.46,24.92l1.52,0.56,0.58,2.1,0.38,2.47,1,5.13-4-1.32-4.2-1.33c-13.78-4.44-26.2-9.38-40.32-13.51l-2.48-.76-1.53-.38L194.7,386l-1.9-.18-1.91.18-1.91.21-1.71.38-1.72.57-1.13.57-1,.19-0.39.39h-1.7l-0.19-.39v-1.53l0.38-.57,0.57-.75,0.19-.21,0.2-.18,0.56-.38,0.57-1,0.58-.95,0.77-1.53,0.38-1.71,0.18-.76v-1.52l-0.18-.18v-5.33l0.18-.57V370Zm98.37,1.71,2.48-5.9,1.33-3c14.36-21.8,26.09,20.73,18.84,26.64l-1.53.77-1.33.57-1.52.39h-1.71l-1.52-.39-1.33-.77-1.33-.76-1-.19-0.76-.19h-0.38l-0.37.19-0.58.57-0.57.38-0.76.38-1.52.19-1.52.19c-7.12.3-8.08-5.86-7-11.42l0.37-1.52,0.75-3.06,0.2-1.7Zm-28.92-16.94-1.7-3.21-0.38-1.53c-7.15-18.72,27.49-25,34.25-12.17l0.76,1.53,0.38,1.71v7.23l-0.38,1.71L287,351.39l-0.76,1.5-1,1.55L284.5,356l-0.57.74-0.58.57-1.52.76-1.15,1.52-1.14,1.14c-5.54,5.92-13.33,4.54-19-.57L259.19,359,258,357.66l-0.95-1.5Zm86.57-7L342,347.76l-0.38,1.73-0.19,1.89c-1.55,7.39-5.14,12.45-12.93,13.31l-1.92.18-1.68-.18c-8.61-1.79-14.6-12.54-17.52-20L307.15,343V341.1l0.58-1.89,0.94-1.53,1.14-1.32,1-1.53,0.76-1.71,0.57-.57,0.76-.57,1.71-.76,1.73-.57,1.7-1,0.76-.37,0.76-.57,1.89-.39,3.45-.75,3.6-.76,1.9-.19c6.69-.21,12.61,2.56,12.17,10.07l0.18,1.92-0.57,3.62v3.61Zm63.56,18.06,0.57,1,0.38,0.57,0.19,0.19v1.14l0.19,1.54,0.19,1.12v1l0.19,1.15-0.19.37V374l0.19,0.77,0.18,1,0.38,1,0.37,0.57,0.18,0.56,0.39,0.38,0.19,0.38,0.18,0.2,0.19,0.37,0.19,0.57,0.39,0.57,0.76,1.14,0.57,0.57,0.18,0.77v1.15l0.21,0.75v0.57l-0.21,1v0.56h-0.75c-2.28.39-6.37-2.54-9.9-2.83l-1.72-.58-2.08-.57c-14.48-5.55-29.91,7.14-43.2,12.37l-3.42,1.71-3.24,1.53,0.18-2.28,0.38-2.46,0.39-2.48,0.57-2.28,0.75-.19,0.76-.37,1-.2c1.81-1.24,4.11-1.55,6.08-2.47l4-1.52,1.53-.95c3.74-1.43,7.75-2.66,11.24-4.57l1.52-.76,3.23-1.52,7.06-3.06,3.42-1.32c3.2-1.59,6.94-2.36,9.7-4.75l0.78-.76,0.57-.58,0.37-.38,0.58-.38,0.38-.57,0.19-.18,0.19-.19,0.37-.2,0.95-.19,1.14-.37,0.58,0.37Zm-67.94,67.94,8.56,3.43,8.76,3.8,8.57,3.81,2.1,1,2.28,0.75,2.28,0.57,1.14,0.2,1.14,0.57,1,0.57,1.14,0.38,2.28,0.77,2.1,0.57,2.28,0.75,4.57,1.53,2.27,0.37,2.48-.18,4.56-.38,2.29-.21,1.15-.38h1.71l0.17,0.19v0.39l-0.74.94-1,2.08-2.48,4L396,458.51l-0.18,1.14v2.47l-0.2,1.14-0.39,1-0.37.57-0.57.39-1.15.37-1.15-.19-0.93-.38-2.1-1.14L385.16,461l-1.89-1.33-1.92-1.33-13.13-5.7-17.12-7.43-4.37-1.71-4.19-2.1-4.37-1.89L333.78,438l2.08-3Zm-76.48,5.51L252.73,441l-4.19,1.53C235,449.46,220,454,207.43,462.69l-1.52,1.52-1,.75-0.38.21-0.57.18-1.14-.38-0.76-.18-0.19-.39-0.19-1.14-0.19-1.32-0.2-2.1c-0.5-4.21-.87-5.95-3.41-9.51l-0.57-1.16V448.6l0.57-.18c16.65,4.54,36.66-11.7,54.6-16.94l4.38-1.89,0.77,1.89,1.13,1.92ZM236.55,333.31l-0.94-1.53-0.77-1.89c-19.56-43.09,24.88-80.95,66.41-77.06l3.82,0.56,4,0.57c42.36,7.62,62.22,41,48.31,82.41L356,340l-1.72,3.6-0.56-2.64-0.57-2.86-0.2-2.84c-0.48-15,6.93-18.5,2.86-36.92l-1.14-3.81-0.56-2.1-0.78-1.7-0.75-1.14-1.16-.76-1.5-.38-1.53.38-1.14.76-0.76,1.14-0.19,1.52c1.22,4.6,2.66,8.31,3.24,13.5v5l-0.18,2.47-0.57,2.47-0.57,2.27c-7.91,25.08,2.54,28,4,46.24L352,366.61l-0.59,2.47-1.13,2.28c-2.66,3-7.13,3.56-9.91,5.7l-0.75.76-0.75.76c-3.45,3.16-3.79,2.38-6.09,7.23l-0.78,1.91-1.52,3.81-0.76,2.11-0.38,2.07-4.37.19-1.13.19-0.57.37-0.39.38-0.37,1-0.19.39-0.37.38h-1.14l-1-.2-0.58-.18c-3.52.27-2.05,2.28-4.76,2.85h-1.33v-0.57l-0.2-.19h-0.76l-0.57.19-0.95.38-2.1.58-0.38.37-0.38.38-0.18.57-0.39.18-0.57.2H306.2l-0.58-.2-0.38-.57-0.38-.18-0.58.18-1.13.21-0.38.18-0.37.38-1,.56-1,.19h-2.28l-1-.57-1.15.18-0.94.39-0.57.19H294.2l-1.14-.39-0.38-.19-0.39-.57-0.37-.18h-3.24l-0.38.38-0.58.18h-0.57l-2.09-.18-0.57-.2-0.19-.57-0.38-.38-0.39-.18-2.08-.37h-2.09l-0.57-1.15-0.75-.57-0.58-.37-0.38-.21h-3.42l-0.19-.37c-1-1.42-3-1.36-4.38-.56l-1,.75-0.38-2.48L267,394l-1.14-4.95c-6.46-18.49-19.46-11.18-24.54-19L240,367.94l-1.15-2.11-1-2.09c-1.26-5.51-1.52-6.27-.37-11.79l0.76-2.46,1.71-4.38c3.46-7.34,4.31-10.28,4.94-18.47l-0.18-4.76,0.18-2.29-0.18-2.47-0.95-4.75-0.58-4.75L243,305.14V304l0.38-1.14,0.94-2.09,0.39-1.13V297l-0.58-1.33L243,294.5l-1.34-.38h-1.33l-1.33.57-0.95.94-0.57,1.53-0.2.94-0.37,1-0.58,1.33c-2.31,7.26,1.89,15.14.95,22.08v2.09l0.2,1.91-0.2,3.22Z"/></svg>