<?xml version="1.0" encoding="UTF-8"?>
<svg id="Lager_1" data-name="Lager 1" xmlns="http://www.w3.org/2000/svg" viewBox="0 0 153.09 218.69">
  <defs>
    <style>
      .cls-1 {
        fill: #fff;
      }

      .cls-1, .cls-2, .cls-3 {
        fill-rule: evenodd;
      }

      .cls-2 {
        fill: #fcbd0e;
      }

      .cls-3 {
        fill: #1d1f22;
      }
    </style>
  </defs>
  <polyline class="cls-1" points="0 218.69 153.09 218.69 153.09 0 0 0 0 218.69"/>
  <path class="cls-3" d="M143.87,119.61l-.2-.64-.29-.64L79.87,8.23l-.39-.58-.49-.44c-1.06-.91-2.56-1.2-3.87-.68l-.59.29-.58.39-.44.44-.39.58L9.6,118.33l-.29.64-.19.64-.05.68.05.68.19.68.29.59.39.59.44.44.58.39.59.29.68.2.68.05h127.03l.69-.05.63-.2c1.35-.51,2.25-1.57,2.55-2.98l.05-.68-.05-.68"/>
  <polyline class="cls-2" points="10.19 133.08 142.93 133.08 142.93 208.7 10.19 208.7 10.19 133.08"/>
  <path class="cls-3" d="M28.47,148.93h3.26c-.09,1.2-1.18,3.09-3.48,3.09-1.89,0-3.68-1.45-3.68-4.68,0-2.67,1.45-4.83,3.74-4.83,1.54,0,2.74,1,3.04,2.37l2.65-.08c-.26-1.33-.8-2.24-1.59-2.98-1-.91-2.39-1.5-4.3-1.5-3.96,0-6.26,3.31-6.26,7.05,0,2.35.78,4.02,2,5.22,1.2,1.17,2.56,1.67,3.93,1.67.87,0,1.7-.15,2.48-.54.81-.44,1.35-1.02,1.65-1.63l.13,1.74h2.04l-.02-6.92h-5.57v2.02ZM124.24,149.82l6.98.02c0-2.8-1.26-5.76-4.78-5.76s-4.72,2.87-4.72,5.02c0,3.13,2.07,5.07,4.7,5.07s4.24-1.43,4.63-3.07l-2.54-.17c-.5.87-1.15,1.22-1.96,1.22-1.2,0-2.18-.81-2.31-2.33ZM124.33,147.99c.17-1.15,1.11-1.92,2.07-1.92,1.04,0,1.93.7,2.09,1.92h-4.17ZM111.5,153.84h2.54l.02-5.28c0-.74.15-1.09.35-1.39.33-.48.93-.8,1.54-.8.87,0,1.5.57,1.5,1.63v5.83h2.54v-6.65c0-1.76-1.3-3.11-3.26-3.11-1.35,0-2.3.72-2.61,1.46l-.11-1.11-2.48-.02-.02,9.42ZM95.72,153.84h2.54v-5.44c0-1.35.76-2.04,1.78-2.04.68,0,1.09.33,1.28.8.04.09.11.3.11,1.04v5.65h2.5v-5.59c0-1.22.76-1.92,1.76-1.92.87,0,1.43.52,1.43,1.63v5.89h2.52l-.02-6.61c-.05-1.98-1.31-3.11-3.04-3.11-1.3,0-2.33.61-2.89,1.65-.48-.98-1.54-1.65-2.78-1.65s-2.13.56-2.61,1.5l-.09-1.18-2.46-.02-.02,9.42ZM91.02,152.77c.04.37.17.78.32,1.07h2.57c-.15-.13-.39-.55-.39-1.33l-.04-4.81c-.02-.83-.09-1.07-.15-1.28-.37-1.3-1.43-2.33-3.98-2.33-2.94,0-4.09,1.5-4.09,3.15l2.22.04c.11-.63.2-.76.41-.94.22-.22.7-.45,1.46-.45,1.18,0,1.65.63,1.65,1.07s-.28.76-.98.89l-2.54.44c-1.91.33-2.8,1.57-2.8,2.82,0,1.63,1.26,3.02,3.54,3.02,1.57,0,2.43-.63,2.8-1.35ZM91.02,148.82v1.41c-.07,1.18-.87,2-2.26,2-1.06,0-1.57-.63-1.57-1.18,0-.44.22-1.02,1.72-1.39l1.11-.3c.41-.09.76-.3,1-.54ZM89.5,143.29l2.54.02.02-2.57h-2.55v2.55ZM86.19,143.29h2.54l.02-2.57h-2.54l-.02,2.57ZM75.71,153.84v-1.94h-.94c-.3,0-.59-.17-.72-.35-.06-.07-.13-.22-.13-.74v-4.67h1.72v-1.72h-1.7l-.04-2.98h-2.52v2.98h-1.31v1.74l1.33-.02v4.87c0,2.13.87,2.83,2.26,2.83h2.05ZM59.38,154.36c.11.89.39,1.39.93,1.89.57.56,1.63,1.07,3.44,1.07,2.06,0,3.35-.76,3.98-1.57.44-.57.67-1.09.67-2.5v-8.83h-2.42l-.09,1.15c-.17-.3-.68-1.48-2.78-1.48-2.28,0-4.26,1.82-4.26,4.72s2,4.74,4.24,4.74c1.5,0,2.44-.68,2.8-1.41v1.02c0,1.59-.74,2.26-2.18,2.26-1.11,0-1.63-.56-1.7-1.15l-2.61.09ZM63.67,151.36c-1.24,0-2.26-.89-2.26-2.63,0-1.52,1.05-2.48,2.2-2.48s2.22.96,2.22,2.55-1.07,2.55-2.17,2.55ZM54.52,153.84h2.54v-9.42h-2.54v9.42ZM54.54,142.99h2.52v-2.26h-2.52v2.26ZM52.75,153.84v-1.94h-.94c-.3,0-.59-.17-.72-.35-.06-.07-.13-.22-.13-.74v-4.67h1.72v-1.72h-1.7l-.04-2.98h-2.52v2.98h-1.32v1.74l1.33-.02v4.87c0,2.13.87,2.83,2.26,2.83h2.05ZM41.36,153.84h2.54v-7.74h1.83v-1.68h-1.83v-.19c0-.85.15-1.09.32-1.26.2-.22.48-.39,1.11-.37h.41v-1.87h-1.44c-.85,0-3.17.15-2.93,3.68h-1.37v1.68h1.37v7.74ZM35.88,153.84h2.54v-9.42h-2.54v9.42ZM35.9,142.99h2.52v-2.26h-2.52v2.26Z"/>
  <polyline class="cls-2" points="20.23 116.13 76.49 18.56 132.77 116.13 20.23 116.13"/>
  <path class="cls-3" d="M67.61,93.42l.08.39c.53,2.79.9,1.57,1.91,2.89v.2l.1.05h.29l.2.05.2.05h.19l.1.05.1.05.1.2.2.34.15.15.19.09.2.05.2-.05.39-.09.2.04.15.1.3.29.39.1h.44l.15-.1h.2l.39.2.73.25.25.05h.19l.15-.15.15-.15.14-.1h.25l.39.1.15.15.2.1.2-.05.19-.05.2-.05.2-.05.1-.25.05-.05h.54l.1.05v.1l.05.1.1.05h.44l.39-.15.2-.05.1-.05.05-.05.05-.1.05-.1.2.05.39-.05h.39l.39-.19.2-.05.2-.1.05-.05.05-.09-.05-.1.05-.1.1-.05h.35l.39-.05.39-.1.34-.2.1-.15.05-.2.04-.19.15-.15.1-.05h.29l.2-.05.19-.05.2-.1.1-.2.2-.78.2.05c1.06-.22.86-.79.83-1.67v-.09l.19-.1.05-.1v-.54l.09-.68.1-.73.09-.39v-.25l.05-.1.1-.25.1-.34.2-.34.15-.44.1-.19v-.09l.05-.1.05-.1.1-.1.19-.3.05-.1.1-.1.15-.1-.29,1.37-.19,1.42c-.2,6.86-3.48,12.61-10.81,13.21h-.73l-1.37-.1c-7.12-.93-8.12-9.47-9.44-14.93l-.24-.64-.64-1.27.44.14.49.25c.8.31,1.06,1.26,1.42,1.96l.05.2.05.25.05.29.1.39.1.39.05.15.05.15.05.15v.15l.05.15.05.2.1.49.15.34.1.34.12.49ZM96.9,101.79l-.1-.05-.2-.1c-.39-.26-.89-.27-1.32-.44l-.09-.05-.2-.05c-1.68-.8-3.28-1.42-4.99-2.15l-1.13-.44-1.13-.49.44-1.08.44-1.08.19-.64.15-.69.15-.63.05-.64,5.09-2.4,2.49-1.22,1.32-.54c1.73-1.03,5.01.19,6.75.83l.68.1h.34c2.09-.32,2.14-2.15,1.71-3.86l-.2-.29-.2-.29-.19-.29-.34-.59c.22-2.08-.27-4.36-2.69-4.5l-.35.05-.69.19-.29.15-.34.15-.25.24-.24.25-.25.25-.25.24-.64.3c-2.26.89-4.22,1.75-6.41,2.84l-.64.25-.69.24-.63.25-1.27.54.25-.29.29-.39.29-.44.19-.49.15-.54.15-.44.15-.88v-.88l-.1-.83-.15-.83-.25-.78.05-.1.05-.09.05-.1.1-.1.15-.3.29-.49.49-1.02c1.18-2.49,1.58-5.25,1.67-7.98l-.05-1.13-.05-.64-.05-.59-.1-.54c-.17-3.56-1.13-5.44-3.52-8.12l-.44-.39-.34-.39c-2.61-2.89-3.11-2.35-6.17-4.06l-.54-.24-.63-.25-.59-.2-.59-.15-.59-.1c-9.24-2.46-20.94,2.47-23.39,12.24l-.24,1.17-.25,1.17-.05,1.22c-.27,2.21,1.06,5.66,2.15,7.59l.1.15.15.19.15.25.15.24-.25.69-.24.68-.25.73-.15.84-.1.87c.02,1.89.38,2.4,1.17,4.02l.44.68.44.59.39.49.34.44.59.98-2.69-1.03-2.64-1.13-1.37-.44-1.37-.49-1.32-.44-.68-.24-.63-.34-.64-.39-.54-.44-1.13-.88-.34-.2-.34-.15-.34-.05h-.34l-.34.05-.34.1-.34.1-.34.24-.25.25-.2.29-.19.69-.15.68-.05.73v1.47l-.05.15-.15.1-.24.29-.2.29-.19.29-.15.34c-.29,1.41.19,2.78,1.76,2.98l.39.05.34-.05.34-.1.34-.15.64-.24.34-.1.39-.05h.34l.39.05.69.15,2.74.93,2.74.88,2.69.98,2.74.93,1.37.44,1.37.39.15.74.25.78.24.69.25.63-.44.2-.39.19-.34.1c-4.11,1.18-9.46,5.32-12.96,4.21h-.49l-.29.05c-.9.2-1.69,1.11-1.52,2.05v.35l.1.2.05.14.05.1v.1l.05.05.05.05.05.1.05.15.2.29.15.2.05.1.1.14.05.2.05.24.05.34.05.29.05.19c-.24,2.7,2.78,3.91,4.75,1.57l.2-.15.39-.2c3.31-1.72,7.06-3.39,10.52-4.84l.68-.3.64-.29,1.27-.49.78.74c4.08,3.63,10.66,2.67,14.83-.3l.49-.34,1.12.44.59.2.49.2c3.45,1.7,7.56,3.03,10.96,4.9l.2.14.24.15c1.69,1.79,4.48,2.2,5.39-.34l.15-.39v-.29l.05-.25v-.53l.05-.05.1-.1.1-.2.09-.19.1-.2.1-.15c.14-.29.34-.52.49-.83l.05-.19.05-.14.05-.2c.32-1.69-1.21-2.67-2.74-2.3l-.1.05h-.19v.05h-.05c-3,.27-1.52.14-4.56-.68l-.24-.05-.1-.05ZM47.87,83.34l.15-.05h.2v.05l.1.05c2.72,2.68,10.74,4.64,14.78,6.41l.39.14.15.54.1.64.25,1.32-1.03-.34-1.08-.34c-3.54-1.14-6.74-2.41-10.37-3.47l-.64-.2-.39-.1-.39-.05-.49-.05-.49.05-.49.05-.44.1-.44.15-.29.15-.25.05-.1.1h-.44l-.05-.1v-.39l.1-.15.15-.19.05-.05.05-.05.14-.1.15-.25.15-.24.2-.39.1-.44.05-.2v-.39l-.05-.05v-1.37l.05-.15v-.2l.15-.49ZM73.17,83.78l.64-1.52.34-.78c3.69-5.61,6.71,5.33,4.85,6.85l-.39.2-.34.15-.39.1h-.44l-.39-.1-.34-.2-.34-.2-.25-.05-.2-.05h-.1l-.1.05-.15.15-.15.1-.2.1-.39.05-.39.05c-1.83.08-2.08-1.51-1.81-2.94l.1-.39.19-.79.05-.44.19-.34ZM65.73,79.43l-.44-.83-.1-.39c-1.84-4.81,7.07-6.43,8.81-3.13l.2.39.1.44v1.86l-.1.44-.39.83-.2.39-.25.4-.2.39-.15.19-.15.15-.39.2-.3.39-.29.29c-1.43,1.52-3.43,1.17-4.89-.15l-.34-.29-.29-.34-.24-.39-.39-.84ZM87.99,77.62l-.05.49-.1.44-.05.49c-.4,1.9-1.32,3.2-3.33,3.42l-.49.05-.43-.05c-2.21-.46-3.76-3.22-4.51-5.14l-.05-.44v-.49l.15-.49.24-.39.29-.34.25-.39.2-.44.15-.15.2-.15.44-.2.44-.15.44-.25.2-.1.2-.15.49-.1.89-.19.93-.2.49-.05c1.72-.05,3.24.66,3.13,2.59l.05.49-.15.93v.93ZM104.34,82.26l.15.25.1.15.05.05v.29l.05.4.05.29v.25l.05.3-.05.1v.54l.05.2.05.25.1.25.09.15.05.14.1.1.05.1.05.05.05.1.05.15.1.15.2.29.15.15.05.2v.3l.05.19v.15l-.05.25v.14h-.19c-.59.1-1.64-.65-2.55-.73l-.44-.15-.53-.15c-3.72-1.43-7.69,1.83-11.11,3.18l-.88.44-.83.39.05-.59.1-.63.1-.64.15-.59.19-.05.2-.1.25-.05c.47-.32,1.06-.4,1.56-.64l1.03-.39.39-.24c.96-.37,1.99-.68,2.89-1.18l.39-.2.83-.39,1.82-.78.88-.34c.82-.41,1.79-.61,2.49-1.22l.2-.2.15-.15.09-.1.15-.1.1-.15.05-.05.05-.05.1-.05.24-.05.29-.1.15.1.15.05ZM86.86,99.74l2.2.88,2.25.98,2.2.98.54.25.59.19.59.15.29.05.29.15.25.15.29.1.59.2.54.15.59.19,1.18.39.58.1.64-.05,1.17-.1.59-.05.3-.1h.44l.04.05v.1l-.19.24-.25.54-.64,1.03-.09.3-.05.29v.64l-.05.29-.1.25-.09.15-.15.1-.3.09-.3-.05-.24-.1-.54-.29-.98-.73-.49-.34-.49-.34-3.38-1.47-4.4-1.91-1.12-.44-1.08-.54-1.12-.49-1.13-.39.54-.78.49-.78ZM67.2,101.16l-2.2.93-1.08.39c-3.48,1.78-7.33,2.96-10.57,5.19l-.39.39-.25.19-.1.05-.15.05-.29-.1-.2-.05-.05-.1-.05-.29-.05-.34-.05-.54c-.13-1.08-.23-1.53-.88-2.45l-.15-.3v-.15l.15-.05c4.28,1.17,9.43-3.01,14.04-4.36l1.13-.49.2.49.29.49.64,1.03ZM60.83,74.39l-.24-.39-.2-.49c-5.03-11.08,6.4-20.82,17.08-19.82l.98.14,1.03.15c10.89,1.96,16,10.55,12.42,21.19l-.34.93-.44.93-.14-.68-.15-.74-.05-.73c-.12-3.86,1.78-4.76.74-9.49l-.29-.98-.14-.54-.2-.44-.19-.29-.3-.2-.39-.1-.39.1-.29.2-.2.29-.05.39c.31,1.18.68,2.14.83,3.47v1.27l-.05.64-.15.64-.15.58c-2.03,6.45.65,7.2,1.03,11.89l-.05.64-.15.64-.29.59c-.68.76-1.83.91-2.55,1.47l-.19.2-.19.2c-.89.81-.97.61-1.57,1.86l-.2.49-.39.98-.2.54-.1.53-1.12.05-.29.05-.15.1-.1.1-.1.25-.05.1-.09.1h-.29l-.25-.05-.15-.05c-.91.07-.53.59-1.22.73h-.34v-.15l-.05-.05h-.2l-.15.05-.24.1-.54.15-.1.09-.1.1-.05.15-.1.05-.15.05h-.15l-.15-.05-.1-.15-.1-.05-.15.05-.29.05-.1.05-.1.1-.25.14-.25.05h-.59l-.24-.15-.3.05-.24.1-.15.05h-.1l-.29-.1-.1-.05-.1-.15-.1-.05h-.83l-.1.1-.15.05h-.15l-.54-.05-.15-.05-.05-.15-.1-.1-.1-.05-.54-.09h-.54l-.15-.3-.19-.15-.15-.1-.1-.05h-.88l-.05-.1c-.26-.36-.76-.35-1.13-.14l-.25.19-.1-.64-.2-.64-.29-1.27c-1.66-4.76-5.01-2.88-6.31-4.89l-.34-.54-.29-.54-.25-.54c-.32-1.42-.39-1.61-.1-3.03l.19-.63.44-1.12c.89-1.89,1.11-2.64,1.27-4.75l-.05-1.22.05-.59-.05-.64-.24-1.22-.15-1.22-.05-.64v-.29l.1-.29.24-.54.1-.29v-.69l-.15-.34-.29-.29-.34-.1h-.34l-.34.15-.24.24-.15.39-.05.24-.1.25-.15.34c-.59,1.87.49,3.89.24,5.68v.54l.05.49-.05.83-.2.93Z"/>
</svg>