<svg xmlns="http://www.w3.org/2000/svg" viewBox="0 0 595.28 850.36"><defs><style>.a{fill:#fcc00d;}.a,.b{fill-rule:evenodd;}.b{fill:#000100;}</style></defs><title>W017_C</title><polyline class="a" points="0 850.36 595.28 850.36 595.28 0 0 0 0 850.36"/><path class="b" d="M78.65,495.61L297.48,116.15,516.31,495.61H78.65Zm478.93,8.58L310.58,76a15.15,15.15,0,0,0-26.25,0l-247,428.17A15.21,15.21,0,0,0,50.44,527h494A15.21,15.21,0,0,0,557.59,504.19Z"/><path class="b" d="M172,643.92h10.44V621.39h20.23v22.54H213l0.07-51H202.58V613H182.43V592.95H172.06Zm240-4.18a10.31,10.31,0,0,0,1.15,4.18h10a6.21,6.21,0,0,1-1.66-3.82L421.53,620c0-8.78-4.61-14-16.49-14-11.09,0-15.69,6-15.55,12.24l8.71,0.14c0-2.74,2.09-5.33,7.13-5.33,4.83,0,6.41,2.38,6.41,4.11,0,1.51-.93,2.88-3.6,3.38l-5.62.94c-8.13,1.44-10.29,3-11.81,4.32a9.94,9.94,0,0,0-3.38,7.63c0,6.05,4.75,11.52,14,11.52C406.69,644.93,409.79,643.13,412,639.75Zm0-15.12v4.61c0,5.19-3.24,8.43-8.93,8.43-4.1,0-6-2.45-6-4.68,0-1.73.58-3.67,6.77-5.4l4.25-1.15A11.31,11.31,0,0,0,412,624.63Zm-31,19.3v-7.56h-3.67a3.65,3.65,0,0,1-2.81-1.36c-0.22-.29-0.51-0.87-0.51-2.88V614h6.7v-6.7h-6.62l-0.14-11.59h-9.79v11.59H359V614l5.18-.07v18.94c0,8.28,3.38,11,8.78,11h8Zm-58.75,4.18v7.7h7.27c8.64,0,10.66-6.77,11.45-9l13.9-39.53H344.42L337.08,630l-7.71-22.68H318.79l11.37,30.89a13.73,13.73,0,0,1,.94,5c0,3-1.59,5-5.91,4.9h-3Zm-39-4.18v-7.56h-3.67a3.65,3.65,0,0,1-2.81-1.36c-0.22-.29-0.51-0.87-0.51-2.88V614H283v-6.7h-6.62l-0.14-11.59h-9.79v11.59h-5.11V614l5.18-.07v18.94c0,8.28,3.38,11,8.78,11h8ZM229.8,628.3l27.15,0.07c0-10.87-4.9-22.39-18.58-22.39-14,0-18.36,11.16-18.36,19.51,0,12.17,8.06,19.73,18.29,19.73s16.49-5.54,18-12l-9.87-.65c-1.94,3.38-4.46,4.75-7.63,4.75C234.12,637.37,230.3,634.2,229.8,628.3Zm0.36-7.13a8.5,8.5,0,0,1,8.06-7.49c4,0,7.49,2.74,8.14,7.49h-16.2Z"/><path class="b" d="M358.91,437.59l3.51-5.1c43.51-81.27-44.17-86.26-6.75-154.92l3.24-4.6-11.84-9.18-3.64,5.08C300,350.32,387.71,355.13,350.2,423.8l-3.13,4.6ZM193.71,450.7H407.24v22.49H193.71V450.7ZM254,437.59l3.52-5.1c43.53-81.27-44.19-86.26-6.76-154.92L254,273l-11.84-9.18-3.63,5.08c-43.34,81.58,44.06,85.88,6.85,154.93l-3.22,4.6Zm52.44,0,3.53-5.1c43.52-81.22-44.19-86.28-6.75-154.92l3.22-4.6-11.82-9.18L291,268.87c-43.4,81.47,44.23,86.3,6.73,154.93l-3.11,4.6Z"/></svg>