<?xml version="1.0" encoding="UTF-8"?>
<svg id="Lager_1" data-name="Lager 1" xmlns="http://www.w3.org/2000/svg" viewBox="0 0 153.09 218.69">
  <defs>
    <style>
      .cls-1 {
        fill: #fff;
      }

      .cls-1, .cls-2, .cls-3 {
        fill-rule: evenodd;
      }

      .cls-2 {
        fill: #fcbd0e;
      }

      .cls-3 {
        fill: #1d1f22;
      }
    </style>
  </defs>
  <polyline class="cls-1" points="0 218.69 153.09 218.69 153.09 0 0 0 0 218.69"/>
  <path class="cls-3" d="M143.4,118.34L79.87,8.22c-1.5-2.6-5.25-2.6-6.75,0L9.6,118.34c-1.5,2.6.36,5.87,3.37,5.87h127.04c3.02,0,4.88-3.27,3.38-5.87"/>
  <polyline class="cls-2" points="10.19 133.07 142.93 133.07 142.93 208.69 10.19 208.69 10.19 133.07"/>
  <path class="cls-3" d="M44.23,153.84h2.68v-5.8h5.2v5.8h2.67l.02-13.11h-2.7v5.17h-5.18v-5.17h-2.67l-.02,13.11ZM105.94,152.77c.04.46.15.8.3,1.07h2.57c-.32-.39-.41-.67-.43-.98l.02-5.17c0-2.26-1.18-3.61-4.24-3.61-2.85,0-4.04,1.56-4,3.15l2.24.04c0-.7.54-1.37,1.83-1.37s1.65.61,1.65,1.05c0,.39-.24.74-.92.87l-1.45.24c-2.09.37-2.65.76-3.04,1.11-.57.5-.87,1.2-.87,1.96,0,1.55,1.22,2.96,3.61,2.96,1.37,0,2.17-.46,2.72-1.33ZM105.94,148.88v1.18c0,1.33-.83,2.17-2.3,2.17-1.05,0-1.55-.63-1.55-1.2,0-.45.15-.95,1.74-1.39l1.09-.3c.5-.13.81-.32,1.02-.46ZM97.98,153.84v-1.94h-.94c-.3,0-.59-.17-.72-.35-.06-.07-.13-.22-.13-.74v-4.67h1.72v-1.72h-1.7l-.04-2.98h-2.52v2.98h-1.31v1.74l1.33-.02v4.87c0,2.13.87,2.83,2.26,2.83h2.06ZM82.87,154.92v1.98h1.87c2.22,0,2.74-1.74,2.94-2.31l3.57-10.16h-2.68l-1.89,5.83-1.98-5.83h-2.72l2.92,7.94c.18.52.24.87.24,1.3,0,.76-.41,1.28-1.52,1.26h-.76ZM72.86,153.84v-1.94h-.94c-.3,0-.59-.17-.72-.35-.06-.07-.13-.22-.13-.74v-4.67h1.72v-1.72h-1.7l-.04-2.98h-2.52v2.98h-1.32v1.74l1.33-.02v4.87c0,2.13.87,2.83,2.26,2.83h2.05ZM59.1,149.82l6.98.02c0-2.8-1.26-5.76-4.78-5.76s-4.72,2.87-4.72,5.02c0,3.13,2.07,5.07,4.7,5.07s4.24-1.43,4.63-3.07l-2.54-.17c-.5.87-1.15,1.22-1.96,1.22-1.2,0-2.18-.81-2.32-2.33ZM59.19,147.99c.17-1.15,1.11-1.92,2.07-1.92,1.04,0,1.93.7,2.09,1.92h-4.17Z"/>
  <polyline class="cls-2" points="20.23 116.13 76.5 18.54 132.78 116.13 20.23 116.13"/>
  <path class="cls-3" d="M92.3,101.21l.9-1.31c11.19-20.9-11.36-22.18-1.74-39.84l.83-1.18-3.05-2.36-.94,1.31c-11.17,20.95,11.39,22.18,1.74,39.84l-.81,1.18,3.05,2.36ZM49.82,104.58h54.92v5.79h-54.92v-5.79ZM65.32,101.21l.91-1.31c11.2-20.9-11.36-22.18-1.74-39.84l.83-1.18-3.04-2.36-.93,1.31c-11.15,20.98,11.33,22.09,1.76,39.84l-.83,1.18,3.04,2.36ZM78.81,101.21l.91-1.31c11.19-20.89-11.36-22.19-1.74-39.84l.83-1.18-3.04-2.36-.93,1.31c-11.16,20.95,11.38,22.19,1.73,39.84l-.8,1.18,3.04,2.36Z"/>
</svg>