<?xml version="1.0" encoding="UTF-8"?>
<svg id="Lager_1" data-name="Lager 1" xmlns="http://www.w3.org/2000/svg" viewBox="0 0 153.09 218.69">
  <defs>
    <style>
      .cls-1 {
        fill: #fff;
      }

      .cls-1, .cls-2, .cls-3 {
        fill-rule: evenodd;
      }

      .cls-2 {
        fill: #fcbd0e;
      }

      .cls-3 {
        fill: #1d1f22;
      }
    </style>
  </defs>
  <polyline class="cls-1" points="0 218.69 153.09 218.69 153.09 0 0 0 0 218.69"/>
  <path class="cls-3" d="M143.39,118.32L79.87,8.21c-1.5-2.6-5.25-2.6-6.75,0L9.6,118.32c-1.5,2.6.36,5.87,3.38,5.87h127.04c3.01,0,4.88-3.26,3.38-5.87"/>
  <polyline class="cls-2" points="10.2 133.08 142.93 133.08 142.93 208.69 10.2 208.69 10.2 133.08"/>
  <path class="cls-3" d="M46.01,151.27c0,2.41,1.82,4.55,5.63,4.55s5.5-2.05,5.5-4.26c0-1.65-1.04-3.15-3.28-3.72l-3.11-.78c-.93-.24-1.04-.35-1.22-.55-.22-.24-.35-.54-.35-.87,0-.76.65-1.67,2.52-1.67.91,0,1.61.32,2,.7.35.35.59.87.61,1.41l2.61.04c-.11-1.44-.59-2.31-1.32-2.98-.74-.67-2.15-1.32-4.05-1.32-3.48,0-5.07,1.95-5.07,4.11,0,1.67.93,3.02,3.24,3.59l2.67.68c.48.11,1.18.2,1.61.76.22.3.33.63.33.87,0,.85-.65,1.82-2.78,1.82s-2.91-1.07-2.87-2.37l-2.67-.02ZM101.57,155.38h2.56v-4.18c0-1.41.35-2.05.76-2.5.48-.5,1.02-.74,1.72-.74.15,0,.3.02.43.04l.02-2.24c-.13-.02-.33-.06-.54-.06-1.11,0-2.07.7-2.35,1.68l-.09-1.43h-2.48l-.02,9.42ZM96.87,154.31c.06.46.15.8.3,1.07h2.59c-.33-.39-.41-.67-.43-.98v-5.17c0-2.26-1.17-3.61-4.24-3.61-2.85,0-4.04,1.55-3.98,3.15l2.24.04c0-.7.52-1.37,1.82-1.37s1.67.61,1.67,1.05c0,.39-.24.74-.93.87l-1.46.24c-2.07.37-2.63.76-3.04,1.11-.56.5-.85,1.2-.85,1.96,0,1.55,1.22,2.96,3.59,2.96,1.37,0,2.18-.46,2.72-1.33ZM96.89,150.42l-.02,1.18c0,1.33-.83,2.17-2.28,2.17-1.06,0-1.57-.63-1.57-1.2,0-.44.17-.94,1.76-1.39l1.09-.3c.48-.13.81-.32,1.02-.46ZM88.93,155.38v-1.94h-.94c-.31,0-.59-.17-.74-.35-.04-.07-.11-.22-.11-.74v-4.67h1.7v-1.72h-1.7l-.02-2.98h-2.52v2.98h-1.33v1.74l1.35-.02-.02,4.87c0,2.13.87,2.83,2.28,2.83h2.06ZM76.71,155.38h2.55v-4.18c0-1.41.35-2.05.76-2.5.48-.5,1.02-.74,1.72-.74.15,0,.3.02.42.04l.02-2.24c-.13-.02-.33-.06-.54-.06-1.11,0-2.07.7-2.35,1.68l-.09-1.43h-2.48l-.02,9.42ZM72.02,154.31c.05.46.15.8.3,1.07h2.59c-.33-.39-.41-.67-.43-.98v-5.17c0-2.26-1.17-3.61-4.24-3.61-2.85,0-4.04,1.55-3.98,3.15l2.24.04c0-.7.52-1.37,1.81-1.37s1.67.61,1.67,1.05c0,.39-.24.74-.93.87l-1.46.24c-2.07.37-2.63.76-3.04,1.11-.56.5-.85,1.2-.85,1.96,0,1.55,1.22,2.96,3.59,2.96,1.37,0,2.18-.46,2.72-1.33ZM72.04,150.42l-.02,1.18c0,1.33-.83,2.17-2.28,2.17-1.05,0-1.57-.63-1.57-1.2,0-.44.17-.94,1.76-1.39l1.09-.3c.48-.13.82-.32,1.02-.46ZM64.08,155.38v-1.94h-.95c-.32,0-.59-.17-.74-.35-.04-.07-.11-.22-.11-.74v-4.67h1.7v-1.72h-1.7l-.02-2.98h-2.52v2.98h-1.33v1.74l1.35-.02-.02,4.87c0,2.13.87,2.83,2.28,2.83h2.06Z"/>
  <path class="cls-3" d="M31.17,172.33v1.18c0,1.33-.83,2.17-2.28,2.17-1.07,0-1.57-.63-1.57-1.2,0-.44.15-.94,1.74-1.39l1.09-.3c.5-.13.82-.32,1.02-.46ZM128.22,177.29v-1.95h-.94c-.3,0-.59-.17-.72-.35-.06-.07-.13-.22-.13-.74v-4.67h1.72v-1.72h-1.7l-.02-2.98h-2.52v2.98h-1.33v1.74l1.33-.02v4.87c0,2.13.87,2.83,2.26,2.83h2.05ZM112.64,177.29h2.54v-3.09l1.06-1.05,2.59,4.15h3.11l-3.89-5.8,3.39-3.63h-3l-3.26,3.59-.02-7.28h-2.52v13.11ZM102.11,174.15c.06,1.78,1.54,3.48,4.43,3.48s4.24-1.57,4.24-3.26c0-.59-.2-1.18-.59-1.65-.35-.44-.8-.78-1.91-1.04l-2.72-.63c-.55-.15-.8-.5-.8-.83,0-.37.35-.95,1.57-.95,1.35,0,1.94.7,1.94,1.46l2.24-.04c-.04-.94-.54-1.89-1.35-2.48-.54-.39-1.43-.72-2.8-.72-2.72,0-3.91,1.46-3.91,3.07,0,.76.2,1.3.65,1.78.33.35.74.65,1.8.87l2.04.46c1.2.26,1.33.63,1.33,1.07,0,.41-.39,1.05-1.78,1.05s-2.02-.7-2.09-1.68l-2.3.02ZM97.79,177.29h2.54v-9.42h-2.54v9.42ZM97.81,166.44h2.52v-2.26h-2.52v2.26ZM96.02,177.29v-1.95h-.95c-.3,0-.59-.17-.72-.35-.05-.07-.13-.22-.13-.74v-4.67h1.72v-1.72h-1.7l-.02-2.98h-2.52v2.98h-1.33v1.74l1.33-.02v4.87c0,2.13.87,2.83,2.26,2.83h2.06ZM86.33,176.22c.04.46.15.8.3,1.07h2.59c-.33-.39-.43-.67-.43-.98v-5.17c0-2.26-1.17-3.61-4.24-3.61-2.85,0-4.04,1.55-3.98,3.15l2.22.04c0-.7.54-1.37,1.83-1.37s1.65.61,1.65,1.06c0,.39-.24.74-.93.87l-1.44.24c-2.09.37-2.65.76-3.04,1.11-.56.5-.87,1.2-.87,1.96,0,1.56,1.22,2.96,3.61,2.96,1.37,0,2.18-.46,2.72-1.33ZM86.33,172.33v1.18c0,1.33-.83,2.17-2.28,2.17-1.07,0-1.57-.63-1.57-1.2,0-.44.15-.94,1.74-1.39l1.09-.3c.5-.13.82-.32,1.02-.46ZM64.48,177.29h2.54v-5.44c0-1.35.76-2.04,1.78-2.04.68,0,1.09.33,1.28.8.04.09.11.3.11,1.04v5.65h2.52v-5.59c0-1.22.74-1.93,1.74-1.93.87,0,1.42.52,1.42,1.63v5.89h2.5l-.02-6.61c-.06-1.98-1.32-3.11-3.02-3.11-1.3,0-2.33.61-2.89,1.65-.48-.98-1.54-1.65-2.78-1.65s-2.13.55-2.61,1.5l-.09-1.18-2.46-.02-.02,9.42ZM57.74,177.64c2.87,0,4.94-2.02,4.94-5.09s-2.05-5.04-4.98-5.04-4.92,2.04-4.92,5.02,2.09,5.11,4.96,5.11ZM57.73,175.66c-1.2,0-2.35-.93-2.35-3.02,0-2.26,1.13-3.15,2.37-3.15s2.37.91,2.37,3.06-1.15,3.11-2.39,3.11ZM51.47,177.29v-1.95h-.95c-.3,0-.59-.17-.72-.35-.05-.07-.13-.22-.13-.74v-4.67h1.72v-1.72h-1.7l-.02-2.98h-2.52v2.98h-1.33v1.74l1.33-.02v4.87c0,2.13.87,2.83,2.26,2.83h2.06ZM41.64,176.24l.13,1.06h2.39v-9.41l-2.52-.02v5.28c0,1.44-.85,2.18-1.89,2.18-.93,0-1.52-.5-1.52-1.83v-5.63h-2.54v6.48c0,1.24.35,1.91.93,2.44.55.5,1.33.81,2.35.81,1.17,0,2.09-.5,2.67-1.37ZM31.17,176.22c.04.46.15.8.3,1.07h2.59c-.33-.39-.43-.67-.43-.98v-5.17c0-2.26-1.17-3.61-4.24-3.61-2.85,0-4.04,1.55-3.98,3.15l2.22.04c0-.7.54-1.37,1.83-1.37s1.65.61,1.65,1.06c0,.39-.24.74-.93.87l-1.44.24c-2.09.37-2.65.76-3.04,1.11-.55.5-.87,1.2-.87,1.96,0,1.56,1.22,2.96,3.61,2.96,1.37,0,2.18-.46,2.72-1.33Z"/>
  <polyline class="cls-2" points="20.23 116.11 76.5 18.53 132.78 116.11 20.23 116.11"/>
  <path class="cls-3" d="M69.72,95.75l1.47.75c25.86,10,40.08-26.86,14.24-36.85l-1.57-.42-1.05,2.72,1.45.38c14.55,4.68,16.25,24.13,2.69,31.21l-1.34.62.97-.94.9-1.03c7.36-9.49.24-24.28-10.85-27.4l-1.6-.45-1.62-.28c-12.89-1.78-23.96,9.16-22.33,22.07l.28,1.64.4,1.6,2.89-.47-.4-1.42c-3.26-14.96,12.77-26.14,25.7-17.98l1.2.87-1.3-.38-1.35-.27c-11.95-1.6-21.13,11.94-18.31,23.11l.42,1.59.57,1.57c4.97,12.06,19.84,16.14,30.29,8.28l1.27-1.05,1.17-1.15-1.85-2.26-1.05,1.05c-11.24,10.32-29.06,1.98-28.39-13.27l.15-1.47.32,1.32c.71,2.59,2.32,5.05,4.39,6.76l1.08.85,1.15.7ZM87.57,83.56l-.05-1.25-.22-1.22c-2.92-11.49-18.68-11.47-21.61,0l-.2,1.22-.08,1.25c.37,12.5,17.09,15.34,21.53,3.64l.35-1.17.22-1.25.05-1.22Z"/>
</svg>