<svg xmlns="http://www.w3.org/2000/svg" viewBox="0 0 595.28 850.37"><defs><style>.a{fill:#fcc00d;}.a,.b{fill-rule:evenodd;}.b{fill:#000100;}</style></defs><title>W018_C</title><polyline class="a" points="0 850.37 595.28 850.37 595.28 0 0 0 0 850.37"/><path class="b" d="M78.65,495.55L297.47,116.1,516.31,495.55H78.65Zm478.93,8.58L310.57,76a15.15,15.15,0,0,0-26.25,0l-247,428.18A15.2,15.2,0,0,0,50.44,527h494A15.21,15.21,0,0,0,557.58,504.13Z"/><path class="b" d="M178.9,627.94c0,9.36,7.06,17.71,21.89,17.71s21.38-8,21.38-16.56c0-6.41-4-12.24-12.74-14.47l-12.1-3c-3.6-.94-4-1.37-4.75-2.16a4.93,4.93,0,0,1-1.37-3.39c0-3,2.52-6.48,9.79-6.48a11,11,0,0,1,7.77,2.74,8.29,8.29,0,0,1,2.38,5.47l10.15,0.14c-0.43-5.62-2.31-9-5.11-11.59s-8.35-5.11-15.77-5.11c-13.54,0-19.73,7.56-19.73,16,0,6.48,3.6,11.74,12.6,14l10.37,2.66c1.87,0.43,4.61.79,6.26,3a6,6,0,0,1,1.3,3.38c0,3.31-2.52,7.06-10.8,7.06-8,0-11.3-4.18-11.16-9.22Zm216.07,16h9.94V627.65c0-5.47,1.37-8,3-9.72a8.74,8.74,0,0,1,6.7-2.88,11.54,11.54,0,0,1,1.66.14l0.07-8.71a14.77,14.77,0,0,0-2.09-.21,9.38,9.38,0,0,0-9.15,6.55l-0.36-5.54H395Zm-18.29-4.18a11.64,11.64,0,0,0,1.15,4.18H387.9a5.81,5.81,0,0,1-1.65-3.82V620c0-8.78-4.54-14-16.49-14-11.09,0-15.69,6-15.48,12.24l8.71,0.14c0-2.74,2-5.33,7.06-5.33,4.82,0,6.48,2.38,6.48,4.11,0,1.51-.94,2.88-3.6,3.38l-5.69.94c-8.06,1.44-10.22,3-11.81,4.32a10.12,10.12,0,0,0-3.31,7.63c0,6.05,4.75,11.52,14,11.52C371.42,644.94,374.59,643.13,376.67,639.75Zm0.07-15.12-0.07,4.61c0,5.19-3.24,8.43-8.85,8.43-4.11,0-6.12-2.45-6.12-4.68,0-1.73.65-3.67,6.84-5.4l4.25-1.15A11.9,11.9,0,0,0,376.74,624.63Zm-31,19.3v-7.56h-3.67a3.81,3.81,0,0,1-2.88-1.36,5.88,5.88,0,0,1-.43-2.88V614h6.62v-6.7H338.8l-0.07-11.59h-9.79v11.59h-5.18V614L329,614l-0.07,18.94c0,8.28,3.38,11,8.85,11h8Zm-47.52,0h9.93V627.65c0-5.47,1.37-8,3-9.72a8.73,8.73,0,0,1,6.7-2.88,11.48,11.48,0,0,1,1.65.14l0.07-8.71a14.71,14.71,0,0,0-2.09-.21,9.38,9.38,0,0,0-9.14,6.55L308,607.28h-9.65Zm-18.21-4.18a11.57,11.57,0,0,0,1.15,4.18h10.08a5.83,5.83,0,0,1-1.66-3.82V620c0-8.78-4.53-14-16.49-14-11.09,0-15.69,6-15.48,12.24l8.71,0.14c0-2.74,2-5.33,7.05-5.33,4.83,0,6.48,2.38,6.48,4.11,0,1.51-.94,2.88-3.6,3.38l-5.69.94c-8.06,1.44-10.22,3-11.81,4.32a10.12,10.12,0,0,0-3.31,7.63c0,6.05,4.75,11.52,14,11.52C274.8,644.94,278,643.13,280.05,639.75Zm0.07-15.12-0.07,4.61c0,5.19-3.24,8.43-8.86,8.43-4.1,0-6.12-2.45-6.12-4.68,0-1.73.65-3.67,6.84-5.4l4.25-1.15A11.94,11.94,0,0,0,280.12,624.63Zm-31,19.3v-7.56h-3.67a3.8,3.8,0,0,1-2.88-1.36,5.88,5.88,0,0,1-.43-2.88V614h6.62v-6.7h-6.62l-0.07-11.59h-9.79v11.59h-5.18V614l5.25-.07-0.07,18.94c0,8.28,3.38,11,8.85,11h8Z"/><path class="b" d="M121.22,711.71v4.61c0,5.19-3.24,8.43-8.85,8.43-4.18,0-6.12-2.45-6.12-4.68,0-1.73.58-3.67,6.77-5.4l4.25-1.15A11.24,11.24,0,0,0,121.22,711.71ZM498.56,731v-7.56h-3.67a3.66,3.66,0,0,1-2.81-1.37c-0.22-.29-0.51-0.86-0.51-2.88V701.06h6.7v-6.7h-6.62l-0.07-11.59h-9.79v11.59H476.6v6.77l5.18-.07V720c0,8.28,3.39,11,8.78,11h8ZM438,731h9.86V719l4.11-4.11L462.06,731h12.1L459,708.47l13.18-14.11H460.54l-12.67,14L447.8,680H438v51Zm-41-12.24c0.22,6.91,6,13.54,17.21,13.54,11.45,0,16.49-6.12,16.49-12.67a10,10,0,0,0-2.31-6.41c-1.37-1.73-3.1-3-7.42-4l-10.58-2.45c-2.16-.58-3.1-1.94-3.1-3.24s1.37-3.67,6.12-3.67c5.25,0,7.56,2.74,7.56,5.69l8.71-.14a12.78,12.78,0,0,0-5.25-9.65c-2.09-1.51-5.55-2.81-10.87-2.81-10.58,0-15.19,5.69-15.19,11.95a9.41,9.41,0,0,0,2.52,6.91c1.29,1.37,2.88,2.52,7,3.38l7.92,1.8c4.68,1,5.18,2.45,5.18,4.18s-1.51,4.1-6.91,4.1c-5.18,0-7.85-2.73-8.13-6.55ZM380.27,731h9.87V694.36h-9.87V731Zm0.07-42.19h9.79V680h-9.79v8.78Zm-7,42.19v-7.56h-3.67a3.66,3.66,0,0,1-2.81-1.37c-0.21-.29-0.5-0.86-0.5-2.88V701.06h6.7v-6.7h-6.63l-0.07-11.59h-9.79v11.59H351.4v6.77l5.18-.07V720c0,8.28,3.39,11,8.78,11h8Zm-37.66-4.18a10.32,10.32,0,0,0,1.15,4.18h10.08a5.48,5.48,0,0,1-1.66-3.82V707.1c0-8.78-4.53-14-16.49-14-11.09,0-15.69,6-15.48,12.24l8.64,0.14c0-2.74,2.09-5.33,7.13-5.33,4.83,0,6.41,2.38,6.41,4.11,0,1.51-.93,2.88-3.6,3.38l-5.61.94c-8.13,1.44-10.29,3-11.81,4.32a10.19,10.19,0,0,0-3.39,7.63c0,6.05,4.75,11.52,14,11.52C330.44,732,333.61,730.22,335.7,726.83Zm0-15.12v4.61c0,5.19-3.24,8.43-8.86,8.43-4.18,0-6.12-2.45-6.12-4.68,0-1.73.58-3.67,6.77-5.4l4.25-1.15A11.3,11.3,0,0,0,335.7,711.71Zm-85,19.3h9.87V709.84c0-5.26,3-7.92,6.91-7.92a4.92,4.92,0,0,1,5,3.1c0.14,0.36.43,1.15,0.43,4v22h9.79V709.27c0-4.75,2.88-7.49,6.77-7.49,3.38,0,5.54,2,5.54,6.34V731h9.72l-0.07-25.7c-0.22-7.71-5.11-12.1-11.74-12.1a12.22,12.22,0,0,0-11.23,6.41,11.86,11.86,0,0,0-10.8-6.41c-5,0-8.28,2.16-10.15,5.83l-0.36-4.61-9.57-.07Zm-26.21,1.36c11.16,0,19.22-7.85,19.22-19.8,0-11.59-8-19.59-19.37-19.59-11,0-19.15,7.92-19.15,19.51C205.24,724.6,213.38,732.37,224.53,732.37Zm-0.07-7.7c-4.68,0-9.15-3.6-9.15-11.74,0-8.78,4.39-12.24,9.22-12.24s9.22,3.53,9.22,11.88C233.75,721.14,229.29,724.67,224.46,724.67ZM200.13,731v-7.56h-3.67a3.66,3.66,0,0,1-2.81-1.37c-0.21-.29-0.5-0.86-0.5-2.88V701.06h6.7v-6.7h-6.63l-0.07-11.59h-9.79v11.59h-5.18v6.77l5.18-.07V720c0,8.28,3.39,11,8.78,11h8ZM161.9,726.9l0.5,4.11h9.29V694.44l-9.79-.07v20.52c0,5.61-3.31,8.5-7.35,8.5-3.6,0-5.9-1.94-5.9-7.13V694.36h-9.86v25.2c0,4.82,1.37,7.42,3.6,9.5a13.23,13.23,0,0,0,9.15,3.17A11.89,11.89,0,0,0,161.9,726.9Zm-40.68-.07a10.31,10.31,0,0,0,1.15,4.18h10.08a5.48,5.48,0,0,1-1.66-3.82V707.1c0-8.78-4.54-14-16.49-14-11.09,0-15.7,6-15.48,12.24l8.64,0.14c0-2.74,2.09-5.33,7.13-5.33,4.82,0,6.41,2.38,6.41,4.11,0,1.51-.94,2.88-3.6,3.38l-5.62.94c-8.13,1.44-10.3,3-11.81,4.32a10.2,10.2,0,0,0-3.38,7.63c0,6.05,4.75,11.52,14,11.52C116,732,119.13,730.22,121.22,726.83Z"/><path class="b" d="M271.08,416.36l5.73,2.9C377.35,458.17,432.68,314.81,332.2,276l-6.11-1.65L322,284.88l5.63,1.46c56.59,18.19,63.18,93.84,10.46,121.38l-5.22,2.43,3.76-3.67,3.5-4c28.63-36.92.93-94.43-42.19-106.55l-6.21-1.74-6.3-1.08c-50.12-6.93-93.16,35.61-86.83,85.81l1.07,6.4,1.56,6.2,11.24-1.83-1.56-5.53c-12.66-58.16,49.67-101.63,99.93-69.9l4.66,3.4-5-1.46-5.24-1.06C258.76,308.91,223.08,361.58,234,405l1.64,6.2,2.23,6.11a76.91,76.91,0,0,0,117.78,32.2l4.93-4.08,4.56-4.47-7.19-8.8-4.07,4.07c-43.72,40.12-113,7.69-110.39-51.59l0.58-5.72,1.26,5.13a53.17,53.17,0,0,0,17.07,26.29l4.18,3.28Zm69.44-47.42-0.18-4.86-0.87-4.74c-11.37-44.68-72.65-44.61-84,0l-0.77,4.74-0.29,4.86c1.42,48.61,66.45,59.64,83.71,14.16l1.37-4.56,0.87-4.86Z"/></svg>