<svg xmlns="http://www.w3.org/2000/svg" viewBox="0 0 595.28 850.37"><defs><style>.a{fill:#fcc00d;}.a,.b{fill-rule:evenodd;}.b{fill:#000100;}</style></defs><title>W019_C</title><polyline class="a" points="0 850.37 595.28 850.37 595.28 0 0 0 0 850.37"/><path class="b" d="M152.91,643.93h10.58V625.35l5.25-5.47,16.42,24.05H198l-21.82-30.82L195.46,593l-13.1.07-18.86,20.23L163.35,593,152.91,593v51Zm253.29,0h9.87l-0.07-12,4.18-4.11,10.08,16.13h12l-15-22.54,13.1-14.11H428.66l-12.6,14L416,593h-9.86Zm-41-12.24c0.22,6.91,6,13.54,17.28,13.54s16.42-6.12,16.42-12.67a10.36,10.36,0,0,0-2.23-6.41c-1.37-1.73-3.17-3-7.49-4l-10.51-2.45c-2.23-.58-3.17-1.94-3.17-3.24s1.37-3.67,6.12-3.67c5.25,0,7.56,2.74,7.63,5.69l8.64-.14a12.78,12.78,0,0,0-5.25-9.65c-2.09-1.51-5.47-2.81-10.87-2.81-10.51,0-15.19,5.69-15.19,11.95A9.7,9.7,0,0,0,369,624.7c1.29,1.37,3,2.52,7,3.38l8,1.8c4.61,1,5.18,2.45,5.18,4.18s-1.58,4.1-7,4.1c-5.18,0-7.77-2.73-8.06-6.55Zm-16.77,12.24h9.86V607.28h-9.79Zm0.07-42.19h9.86V593h-9.86v8.78Zm-26.71,42.19h9.86l0.07-16.27c0-5.47,1.3-8,3-9.72a8.62,8.62,0,0,1,6.69-2.88,12.49,12.49,0,0,1,1.66.14l0.07-8.71a14.71,14.71,0,0,0-2.09-.21,9.54,9.54,0,0,0-9.22,6.55l-0.29-5.54h-9.65Zm-61.27,0h9.86l0.07-21.17c0-5.26,3-7.92,6.91-7.92a4.89,4.89,0,0,1,4.9,3.1c0.14,0.36.43,1.15,0.43,4v22h9.79V622.18c0-4.75,2.88-7.49,6.7-7.49,3.38,0,5.61,2,5.61,6.34v22.9h9.72l-0.07-25.7c-0.22-7.71-5.11-12.1-11.81-12.1a12.27,12.27,0,0,0-11.16,6.41,11.75,11.75,0,0,0-10.73-6.41c-5,0-8.28,2.16-10.22,5.83l-0.36-4.61-9.57-.07Zm-18.29-4.18a12.93,12.93,0,0,0,1.3,4.18h9.93c-0.58-.51-1.51-2.16-1.51-5.19L251.76,620a18.5,18.5,0,0,0-.51-5c-1.51-5-5.61-9.07-15.55-9.07-11.38,0-15.91,5.83-15.91,12.24l8.71,0.14c0.36-2.45.72-3,1.51-3.67s2.81-1.73,5.76-1.73c4.61,0,6.34,2.45,6.34,4.18s-1.08,3-3.74,3.46l-9.93,1.73c-7.42,1.29-10.87,6.12-10.87,10.94,0,6.34,4.9,11.74,13.75,11.74C237.43,645,240.81,642.56,242.18,639.75Zm0-15.34v5.47c-0.29,4.61-3.38,7.78-8.71,7.78-4.18,0-6.12-2.45-6.12-4.61,0-1.73.86-4,6.7-5.4l4.25-1.15A8.09,8.09,0,0,0,242.18,624.42Zm-5.9-21.53,9.93,0.07V593h-9.86Zm-12.82,0h9.86l0.07-10h-9.86Zm-21.67,41h9.86V593h-9.79Z"/><path class="b" d="M544.9,527.24c11.94,0,18.36-13.23,12.57-23.25L309.83,75.38a14.41,14.41,0,0,0-25,0L37.41,504C31.62,514,38,527.24,50,527.24H544.9ZM516.33,495.8L297.45,116.7,78.56,495.8H516.33Z"/><path class="b" d="M319.62,313.67v61.55c0,10.53,15.8,10.53,15.8,0v-63a22.89,22.89,0,0,0-22.89-22.89H282.4a22.89,22.89,0,0,0-22.9,22.89v63c0,10.54,15.8,10.54,15.8,0V313.67a1.38,1.38,0,1,1,2.76,0v147c0,12,18.05,12,18.05,0V371.85a1.36,1.36,0,1,1,2.73,0v88.86c0,12,18,12,18,0v-147a1.36,1.36,0,1,1,2.73,0"/><polyline class="b" points="185.31 396.06 185.31 405.43 150.59 405.43 150.59 418.71 185.31 418.71 185.31 428.14 203.12 412.07 185.31 396.06"/><polyline class="b" points="409.59 396.06 409.59 405.43 444.27 405.43 444.27 418.71 409.59 418.71 409.59 428.14 391.78 412.07 409.59 396.06"/><path class="b" d="M182.8,349.69l-3,5.23h24.68V464.41H116.58l-3,5.28h137v-120H182.8Zm29.12,22.8v20.17l31.14-31.17v-6.56H229.51Zm31.14,9.15v20.17l-31.14,31.14V412.79Zm0,60.46-22.33,22.31h-8.81V453.1l31.14-31.17V442.1Z"/><path class="b" d="M344.32,349.69v120h137l-3-5.28H390.47V354.92h24.67l-3-5.23H344.32Zm38.62,22.8v20.17l-31.11-31.17v-6.56H365.4Zm-31.11,9.15,31.11,31.15v20.16l-31.11-31.14V381.64Zm31.11,71.46v11.31h-8.82l-22.3-22.31V421.94Z"/><path class="b" d="M281.65,269a15.77,15.77,0,1,0,15.8-15.74A15.79,15.79,0,0,0,281.65,269"/></svg>