<?xml version="1.0" encoding="UTF-8"?>
<svg id="Lager_1" data-name="Lager 1" xmlns="http://www.w3.org/2000/svg" viewBox="0 0 153.09 218.69">
  <defs>
    <style>
      .cls-1 {
        fill: #fff;
      }

      .cls-1, .cls-2, .cls-3 {
        fill-rule: evenodd;
      }

      .cls-2 {
        fill: #fcbd0e;
      }

      .cls-3 {
        fill: #1d1f22;
      }
    </style>
  </defs>
  <polyline class="cls-1" points="0 218.69 153.09 218.69 153.09 0 0 0 0 218.69"/>
  <path class="cls-3" d="M140.13,124.34c3.07,0,4.72-3.4,3.23-5.98L79.68,8.13c-1.43-2.47-4.99-2.47-6.42,0L9.62,118.36c-1.49,2.58.16,5.98,3.23,5.98h127.28"/>
  <polyline class="cls-2" points="132.79 116.25 76.5 18.76 20.2 116.25 132.79 116.25"/>
  <path class="cls-3" d="M82.2,69.41v15.83c0,2.71,4.06,2.71,4.06,0v-16.21c0-3.25-2.64-5.89-5.89-5.89h-7.75c-3.25,0-5.89,2.63-5.89,5.89v16.21c0,2.71,4.06,2.71,4.06,0v-15.83c0-.47.71-.47.71,0v37.81c0,3.09,4.64,3.09,4.64,0v-22.85c0-.47.7-.47.7,0v22.85c0,3.09,4.64,3.09,4.64,0v-37.81c0-.47.7-.47.7,0"/>
  <polyline class="cls-3" points="47.66 90.6 47.66 93.01 38.73 93.01 38.73 96.43 47.66 96.43 47.66 98.85 52.24 94.72 47.66 90.6"/>
  <polyline class="cls-3" points="105.34 90.6 105.34 93.01 114.25 93.01 114.25 96.43 105.34 96.43 105.34 98.85 100.76 94.72 105.34 90.6"/>
  <path class="cls-3" d="M47.01,78.68l-.78,1.35h6.35v28.16h-22.59l-.77,1.36h35.22v-30.86h-17.42ZM54.5,84.54v5.19l8.01-8.02v-1.69h-3.49l-4.52,4.52ZM62.51,86.89v5.19l-8.01,8.01v-5.18l8.01-8.01ZM62.51,102.44l-5.74,5.74h-2.27v-2.91l8.01-8.02v5.19Z"/>
  <path class="cls-3" d="M88.55,78.68v30.86h35.23l-.78-1.36h-22.59v-28.16h6.34l-.78-1.35h-17.43ZM98.48,84.54v5.19l-8-8.02v-1.69h3.49l4.51,4.52ZM90.48,86.89l8,8.01v5.18l-8-8.01v-5.19ZM98.48,105.27v2.91h-2.27l-5.73-5.74v-5.19l8,8.02Z"/>
  <path class="cls-3" d="M72.43,57.92c0,2.25,1.82,4.06,4.06,4.06s4.05-1.82,4.05-4.06-1.8-4.05-4.05-4.05-4.06,1.8-4.06,4.05"/>
  <polyline class="cls-2" points="10.2 133.07 142.93 133.07 142.93 208.68 10.2 208.68 10.2 133.07"/>
  <path class="cls-3" d="M39.32,155.21h2.72v-4.78l1.35-1.41,4.22,6.18h3.3l-5.61-7.92,4.96-5.18-3.37.02-4.85,5.2-.04-5.2-2.68-.02v13.11ZM104.46,155.21h2.54l-.02-3.09,1.07-1.06,2.59,4.15h3.09l-3.87-5.79,3.37-3.63h-3l-3.24,3.59-.02-7.28h-2.54l.02,13.11ZM93.91,152.07c.06,1.78,1.54,3.48,4.44,3.48s4.22-1.57,4.22-3.26c0-.59-.2-1.18-.57-1.65-.35-.44-.82-.78-1.93-1.04l-2.7-.63c-.57-.15-.82-.5-.82-.83,0-.37.35-.94,1.57-.94,1.35,0,1.94.7,1.96,1.46l2.22-.04c-.04-.95-.54-1.89-1.35-2.48-.54-.39-1.41-.72-2.8-.72-2.7,0-3.91,1.46-3.91,3.07,0,.76.22,1.3.65,1.78.33.35.76.65,1.8.87l2.05.46c1.18.26,1.33.63,1.33,1.07,0,.41-.41,1.05-1.8,1.05s-2-.7-2.07-1.68l-2.32.02ZM89.59,155.21h2.54v-9.42h-2.52l-.02,9.42ZM89.61,144.36h2.54v-2.26h-2.54v2.26ZM82.74,155.21h2.54l.02-4.18c0-1.41.33-2.06.76-2.5.46-.5,1.02-.74,1.72-.74.15,0,.28.02.43.04l.02-2.24c-.13-.02-.33-.05-.54-.05-1.11,0-2.07.7-2.37,1.68l-.07-1.42h-2.48l-.02,9.42ZM66.99,155.21h2.54l.02-5.44c0-1.35.76-2.04,1.78-2.04.67,0,1.07.33,1.26.8.04.09.11.3.11,1.04v5.65h2.52v-5.59c0-1.22.74-1.93,1.72-1.93.87,0,1.44.52,1.44,1.63v5.89h2.5l-.02-6.61c-.06-1.98-1.32-3.11-3.04-3.11-1.28,0-2.3.61-2.87,1.65-.48-.98-1.52-1.65-2.76-1.65s-2.13.55-2.63,1.5l-.09-1.18-2.46-.02-.02,9.42ZM62.28,154.14c.06.37.17.78.33,1.07h2.55c-.15-.13-.39-.55-.39-1.33l-.04-4.81c-.02-.83-.07-1.07-.13-1.28-.39-1.3-1.44-2.33-4-2.33-2.93,0-4.09,1.5-4.09,3.15l2.24.04c.09-.63.18-.76.39-.94.24-.22.72-.44,1.48-.44,1.18,0,1.63.63,1.63,1.07s-.28.76-.96.89l-2.55.45c-1.91.33-2.8,1.57-2.8,2.81,0,1.63,1.26,3.02,3.54,3.02,1.57,0,2.44-.63,2.8-1.35ZM62.28,150.2v1.41c-.07,1.18-.87,2-2.24,2-1.07,0-1.57-.63-1.57-1.18,0-.44.22-1.02,1.72-1.39l1.09-.3c.41-.09.76-.3,1-.54ZM60.76,144.66l2.55.02v-2.57h-2.54l-.02,2.55ZM57.47,144.66h2.54l.02-2.57h-2.54l-.02,2.57ZM51.9,155.21h2.54v-13.11h-2.52l-.02,13.11Z"/>
</svg>