<svg xmlns="http://www.w3.org/2000/svg" viewBox="0 0 595.28 850.37"><defs><style>.a{fill:#fcc00d;}.a,.b{fill-rule:evenodd;}.b{fill:#000100;}</style></defs><title>W020_C</title><polyline class="a" points="0 850.37 595.28 850.37 595.28 0 0 0 0 850.37"/><path class="b" d="M167.66,643.93H178.1V621.39h20.23v22.54h10.44V593H198.33V613H178.1L178.18,593H167.74Zm250,0h9.86V607.28h-9.79Zm0.07-42.19h9.86V593h-9.86v8.78Zm-56.52,42.19h9.86l0.07-16.27c0-5.47,1.29-8,3-9.72a8.74,8.74,0,0,1,6.7-2.88,12.55,12.55,0,0,1,1.66.14l0.07-8.71a14.65,14.65,0,0,0-2.08-.21,9.38,9.38,0,0,0-9.15,6.55l-0.36-5.54h-9.65ZM327.07,628.3l27.22,0.07c0-10.87-4.9-22.39-18.58-22.39-14,0-18.43,11.16-18.43,19.51,0,12.17,8.07,19.73,18.36,19.73s16.49-5.55,18-12l-9.94-.65c-1.87,3.38-4.39,4.75-7.63,4.75C331.39,637.38,327.57,634.21,327.07,628.3Zm0.43-7.13a8.38,8.38,0,0,1,8-7.49c4,0,7.49,2.74,8.13,7.49H327.5Zm-27.29,19,0.43,3.74h9.72V593h-9.94v18.51c-1.73-2.88-5.83-5.33-10.51-5.33-8.13,0-16.27,6.84-16.27,19.66a21.4,21.4,0,0,0,4.75,14,13.87,13.87,0,0,0,11.16,5.33A13.05,13.05,0,0,0,300.21,640.18Zm-7.7-3.53c-4.68,0-8.71-3.31-8.71-11.09,0-8.71,4.25-11.81,8.28-11.81s8.28,3.1,8.28,11.52C300.36,633.34,296.18,636.58,292.51,636.66Zm-58.61,7.27h9.86l0.07-20.52c0-2.88.58-4.25,1.37-5.4a7.5,7.5,0,0,1,6-3.1c3.45,0,5.9,2.23,5.9,6.33L257,643.93h9.86V618.08c0-6.84-5-12.09-12.6-12.09-5.26,0-8.93,2.81-10.22,5.69l-0.36-4.32-9.72-.07Zm-17.49,0h9.86V607.28h-9.79Zm0.07-42.19h9.87V593h-9.87v8.78Z"/><path class="b" d="M125.68,731h9.79l0.07-20.16c0-6,3.24-8.78,7.34-8.78,3.46,0,5.91,2,5.91,6.63L148.72,731h9.86V705.74c0-4.46-1.51-7.49-3.89-9.58a14,14,0,0,0-8.57-3.1c-5.33,0-9,2.52-10.66,5.9V680h-9.79v51Zm333.57-3.74,0.43,3.74h9.72V680h-9.86v18.5c-1.8-2.88-5.91-5.33-10.58-5.33-8.21,0-16.27,6.84-16.27,19.66a21.37,21.37,0,0,0,4.68,14,13.91,13.91,0,0,0,11.23,5.33A13.16,13.16,0,0,0,459.25,727.27Zm-7.78-3.53c-4.61,0-8.71-3.31-8.71-11.09,0-8.71,4.25-11.81,8.35-11.81s8.28,3.1,8.28,11.52C459.39,720.43,455.14,723.66,451.47,723.74ZM409.64,735v8l6.77-.07c6.26,0,9.29-3,9.29-9.65V694.36h-9.86V729c0,5.18-1.59,6-4,6h-2.23Zm6.19-46.15h9.86V680h-9.86v8.78Zm-29.52,43.63c11.81,0,19.73-7.92,19.73-19.87,0-11.74-8.06-19.66-19.44-19.66-11.09,0-19.29,7.92-19.29,19.66C367.31,724.53,375.52,732.45,386.31,732.45Zm0.58-7.7c-5.18,0-9.57-3.67-9.57-12.17,0-8.21,4.46-12,9.5-12,4.75,0,9.14,3.31,9.14,12.24C396,721.51,391.28,724.75,386.89,724.75Zm1.3-34.77h9.94L398,680l-9.86-.07v10Zm-12.89,0h9.94L385.16,680l-9.79-.07Zm-47.37,41h9.79l0.07-20.16c0-6,3.24-8.78,7.35-8.78,3.46,0,5.9,2,5.9,6.63L351,731h9.86V705.74c0-4.46-1.51-7.49-3.89-9.58a14,14,0,0,0-8.57-3.1c-5.33,0-9,2.52-10.65,5.9V680h-9.79v51Zm-17.86-3.74L310.5,731h9.72V680h-9.86v18.5c-1.8-2.88-5.9-5.33-10.58-5.33-8.13,0-16.2,6.84-16.2,19.66a21.37,21.37,0,0,0,4.68,14,13.87,13.87,0,0,0,11.16,5.33A13.16,13.16,0,0,0,310.07,727.27Zm-7.78-3.53c-4.61,0-8.64-3.31-8.64-11.09,0-8.71,4.18-11.81,8.28-11.81s8.28,3.1,8.28,11.52C310.21,720.43,306,723.66,302.29,723.74ZM266.8,726.9l0.58,4.11h9.29l-0.07-36.57-9.72-.07v20.52c0,5.61-3.38,8.5-7.34,8.5-3.67,0-6-1.94-6-7.13V694.36h-9.79v25.2c0,4.82,1.37,7.42,3.6,9.5a13.11,13.11,0,0,0,9.14,3.17A11.68,11.68,0,0,0,266.8,726.9ZM216.26,731H226l12.6-36.65H228.5l-7.28,24.12-7.27-24h-10Zm-27.5-4.11,0.58,4.11h9.29l-0.07-36.57-9.72-.07v20.52c0,5.61-3.38,8.5-7.34,8.5-3.67,0-6-1.94-6-7.13V694.36h-9.79v25.2c0,4.82,1.37,7.42,3.6,9.5a13.11,13.11,0,0,0,9.14,3.17A11.68,11.68,0,0,0,188.75,726.9Z"/><path class="b" d="M544.9,527.24c11.94,0,18.36-13.23,12.57-23.25L309.83,75.38a14.41,14.41,0,0,0-25,0L37.41,504C31.63,514,38,527.24,50,527.24H544.9Zm-28.57-31.44L297.45,116.7,78.56,495.81H516.33Z"/><polyline class="b" points="357.93 266.51 282.27 266.51 282.27 248.03 247.56 248.03 257.6 230.65 337.26 230.65 357.93 266.51"/><polyline class="b" points="347.46 333.51 348.29 289.65 363.7 276.41 355.75 270.67 343.13 270.67 349.7 275.41 337.12 284.04 336.87 307.53 318.83 289.49 299 321.03 297.45 288.34 249.25 293.45 274.67 266.76 274.67 252.44 210.91 312.2 286.74 301.79 289.74 354.6 320.66 307.11 347.46 333.51"/><path class="b" d="M390.95,403.78L369.6,345.72c-5.72-15.57-29.1-7-23.37,8.57l16.36,44.48-45.71,9.36-56,5.81a12.72,12.72,0,0,0-7.69,3.77l-55,55.54h35l30.65-30.92L267,473.24h57.14L320,432.81l61.16-12.45c7.53-1.54,12.53-9.19,9.81-16.58"/><path class="b" d="M260.83,379.27A24.87,24.87,0,1,0,285.7,354.4a24.87,24.87,0,0,0-24.87,24.87"/></svg>