<?xml version="1.0" encoding="UTF-8"?>
<svg id="Lager_1" data-name="Lager 1" xmlns="http://www.w3.org/2000/svg" viewBox="0 0 153.09 218.69">
  <defs>
    <style>
      .cls-1 {
        fill: #fff;
      }

      .cls-1, .cls-2, .cls-3 {
        fill-rule: evenodd;
      }

      .cls-2 {
        fill: #fcbd0e;
      }

      .cls-3 {
        fill: #1d1f22;
      }
    </style>
  </defs>
  <polyline class="cls-1" points="0 218.69 153.09 218.69 153.09 0 0 0 0 218.69"/>
  <path class="cls-3" d="M140.13,124.34c3.07,0,4.72-3.4,3.23-5.98L79.68,8.13c-1.43-2.47-4.99-2.47-6.42,0L9.62,118.36c-1.49,2.58.16,5.98,3.23,5.98h127.28"/>
  <polyline class="cls-2" points="132.79 116.25 76.5 18.76 20.2 116.25 132.79 116.25"/>
  <polyline class="cls-3" points="92.05 57.29 72.59 57.29 72.59 52.53 63.67 52.53 66.25 48.07 86.74 48.07 92.05 57.29"/>
  <polyline class="cls-3" points="89.36 74.52 89.57 63.24 93.53 59.83 91.49 58.36 88.24 58.36 89.93 59.58 86.7 61.79 86.63 67.84 81.99 63.2 76.89 71.31 76.5 62.9 64.1 64.22 70.64 57.35 70.64 53.67 54.24 69.04 73.74 66.36 74.51 79.94 82.46 67.73 89.36 74.52"/>
  <path class="cls-3" d="M100.54,92.59l-5.49-14.93c-1.47-4-7.48-1.8-6.01,2.2l4.21,11.44-11.76,2.41-14.41,1.49c-.75.08-1.45.43-1.98.97l-14.15,14.28h9l7.88-7.95.83,7.95h14.7l-1.08-10.4,15.73-3.2c1.94-.4,3.22-2.37,2.52-4.27"/>
  <path class="cls-3" d="M67.08,86.28c0,3.53,2.86,6.4,6.4,6.4s6.4-2.86,6.4-6.4-2.86-6.4-6.4-6.4-6.4,2.86-6.4,6.4"/>
  <polyline class="cls-2" points="10.19 133.07 142.92 133.07 142.92 208.69 10.19 208.69 10.19 133.07"/>
  <path class="cls-3" d="M43.12,155.21h2.69v-5.79h5.2v5.79h2.68v-13.11h-2.68v5.17h-5.2l.02-5.17h-2.68l-.02,13.11ZM107.41,155.21h2.54v-9.42h-2.52l-.02,9.42ZM107.42,144.36h2.54v-2.26h-2.54v2.26ZM92.89,155.21h2.54l.02-4.18c0-1.41.33-2.06.76-2.5.48-.5,1.02-.74,1.72-.74.15,0,.28.02.43.04l.02-2.24c-.13-.02-.33-.05-.54-.05-1.11,0-2.07.7-2.35,1.68l-.09-1.42h-2.48l-.02,9.42ZM84.11,151.19l7,.02c0-2.8-1.26-5.76-4.78-5.76s-4.74,2.87-4.74,5.02c0,3.13,2.07,5.07,4.72,5.07s4.24-1.43,4.63-3.07l-2.56-.17c-.48.87-1.13,1.22-1.96,1.22-1.2,0-2.18-.81-2.31-2.33ZM84.22,149.36c.15-1.15,1.09-1.92,2.06-1.92,1.04,0,1.93.7,2.09,1.92h-4.15ZM77.21,154.25l.11.96h2.5v-13.11h-2.56v4.76c-.44-.74-1.5-1.37-2.7-1.37-2.09,0-4.18,1.76-4.18,5.05,0,1.5.48,2.74,1.22,3.61.78.94,1.76,1.37,2.87,1.37s2.07-.44,2.74-1.28ZM75.23,153.34c-1.2,0-2.24-.85-2.24-2.85,0-2.24,1.09-3.04,2.13-3.04s2.13.8,2.13,2.96-1.07,2.91-2.02,2.92ZM60.15,155.21h2.54l.02-5.28c0-.74.15-1.09.35-1.39.33-.48.94-.8,1.54-.8.89,0,1.52.57,1.52,1.63l-.02,5.83h2.54v-6.65c0-1.76-1.3-3.11-3.24-3.11-1.35,0-2.3.72-2.63,1.46l-.09-1.11-2.5-.02-.02,9.42ZM55.65,155.21h2.54v-9.42h-2.52l-.02,9.42ZM55.67,144.36h2.54v-2.26h-2.54v2.26Z"/>
  <path class="cls-3" d="M32.32,175.94h2.52l.02-5.18c0-1.54.83-2.26,1.89-2.26.89,0,1.52.52,1.52,1.7l-.02,5.74h2.54v-6.5c0-1.15-.39-1.93-1-2.46-.56-.46-1.39-.8-2.2-.8-1.37,0-2.32.65-2.74,1.52v-4.87h-2.52v13.11ZM118.11,174.98l.11.96h2.5v-13.11h-2.54v4.76c-.46-.74-1.52-1.37-2.72-1.37-2.11,0-4.18,1.76-4.18,5.05,0,1.5.46,2.74,1.2,3.61.78.94,1.76,1.37,2.89,1.37s2.07-.45,2.74-1.28ZM116.11,174.07c-1.19,0-2.24-.85-2.24-2.85,0-2.24,1.09-3.04,2.15-3.04s2.13.8,2.13,2.96-1.09,2.91-2.04,2.93ZM105.35,176.96v2.06l1.74-.02c1.61,0,2.39-.78,2.39-2.48v-10h-2.54v8.91c0,1.33-.41,1.54-1.02,1.54h-.57ZM106.94,165.09h2.54v-2.26h-2.54v2.26ZM99.35,176.31c3.04,0,5.07-2.04,5.07-5.11s-2.07-5.05-5-5.05-4.96,2.04-4.96,5.05,2.11,5.11,4.89,5.11ZM99.5,174.33c-1.33,0-2.46-.94-2.46-3.13s1.15-3.07,2.44-3.07c1.22,0,2.35.85,2.35,3.15s-1.2,3.05-2.33,3.05ZM99.83,165.39h2.56l-.02-2.55-2.54-.02v2.57ZM96.52,165.39h2.56l-.02-2.55-2.52-.02-.02,2.57ZM84.33,175.94h2.52l.02-5.18c0-1.54.83-2.26,1.89-2.26.89,0,1.52.52,1.52,1.7l-.02,5.74h2.54v-6.5c0-1.15-.39-1.93-1-2.46-.56-.46-1.39-.8-2.2-.8-1.37,0-2.31.65-2.74,1.52v-4.87h-2.52v13.11ZM79.74,174.98l.11.96h2.5v-13.11h-2.54v4.76c-.46-.74-1.52-1.37-2.72-1.37-2.09,0-4.17,1.76-4.17,5.05,0,1.5.46,2.74,1.2,3.61.78.94,1.76,1.37,2.87,1.37s2.07-.45,2.74-1.28ZM77.74,174.07c-1.19,0-2.22-.85-2.22-2.85,0-2.24,1.07-3.04,2.13-3.04s2.13.8,2.13,2.96-1.09,2.91-2.04,2.93ZM68.61,174.89l.15,1.06h2.39l-.02-9.41-2.5-.02v5.28c0,1.45-.87,2.18-1.89,2.18-.94,0-1.54-.5-1.54-1.83v-5.63h-2.52v6.48c0,1.24.35,1.91.93,2.44.54.5,1.33.82,2.35.82,1.17,0,2.09-.5,2.65-1.37ZM55.61,175.94h2.5l3.24-9.42h-2.59l-1.87,6.2-1.87-6.18h-2.57l3.17,9.41ZM48.54,174.89l.15,1.06h2.39l-.02-9.41-2.5-.02v5.28c0,1.45-.87,2.18-1.89,2.18-.94,0-1.54-.5-1.54-1.83v-5.63h-2.52v6.48c0,1.24.35,1.91.93,2.44.54.5,1.33.82,2.35.82,1.17,0,2.09-.5,2.65-1.37Z"/>
</svg>