<?xml version="1.0" encoding="UTF-8"?>
<svg id="Lager_1" data-name="Lager 1" xmlns="http://www.w3.org/2000/svg" viewBox="0 0 153.09 218.69">
  <defs>
    <style>
      .cls-1 {
        fill: #fff;
      }

      .cls-1, .cls-2, .cls-3 {
        fill-rule: evenodd;
      }

      .cls-2 {
        fill: #fcbd0e;
      }

      .cls-3 {
        fill: #1d1f22;
      }
    </style>
  </defs>
  <polyline class="cls-1" points="0 218.69 153.09 218.69 153.09 0 0 0 0 218.69"/>
  <path class="cls-3" d="M143.39,118.32L79.87,8.21c-1.5-2.6-5.25-2.6-6.75,0L9.6,118.32c-1.5,2.6.36,5.88,3.38,5.88h127.04c3.02,0,4.88-3.27,3.38-5.88"/>
  <polyline class="cls-2" points="10.19 133.08 142.93 133.08 142.93 208.7 10.19 208.7 10.19 133.08"/>
  <path class="cls-3" d="M28.71,145.81v-3.17h3.44c.59,0,1.48.54,1.48,1.59,0,.89-.7,1.61-1.68,1.61l-3.24-.04ZM127.11,153.66v-1.94h-.96c-.3,0-.59-.17-.72-.35-.06-.07-.13-.22-.13-.74v-4.67h1.72v-1.72h-1.7l-.02-2.98h-2.52v2.98h-1.33v1.74l1.33-.02v4.87c0,2.13.87,2.83,2.28,2.83h2.06ZM110.76,154.17c.13.89.39,1.39.93,1.89.57.56,1.63,1.07,3.46,1.07,2.04,0,3.35-.76,3.98-1.57.42-.57.65-1.09.65-2.5v-8.83h-2.43l-.07,1.15c-.18-.3-.68-1.48-2.78-1.48-2.3,0-4.28,1.82-4.28,4.72s2,4.74,4.24,4.74c1.5,0,2.44-.69,2.8-1.41v1.02c0,1.59-.72,2.26-2.18,2.26-1.09,0-1.61-.56-1.7-1.15l-2.61.09ZM115.05,151.17c-1.22,0-2.26-.89-2.26-2.63,0-1.52,1.06-2.48,2.2-2.48s2.22.96,2.22,2.55-1.07,2.55-2.17,2.55ZM105.9,153.66h2.54v-9.42h-2.54v9.42ZM105.92,142.81h2.54v-2.26h-2.54v2.26ZM101.41,153.66h2.54v-13.11h-2.52l-.02,13.11ZM94.55,153.66h2.54l.02-4.18c0-1.41.33-2.06.76-2.5.46-.5,1.02-.74,1.72-.74.15,0,.28.02.43.04l.02-2.24c-.13-.02-.33-.06-.56-.06-1.09,0-2.06.7-2.35,1.68l-.07-1.43h-2.48l-.02,9.42ZM89.85,152.58c.04.46.15.8.3,1.07h2.59c-.33-.39-.43-.67-.43-.98v-5.17c0-2.26-1.17-3.61-4.24-3.61-2.85,0-4.04,1.56-3.98,3.15l2.24.04c0-.7.52-1.37,1.81-1.37s1.65.61,1.65,1.05c0,.39-.24.74-.93.87l-1.44.24c-2.07.37-2.65.76-3.04,1.11-.55.5-.87,1.2-.87,1.96,0,1.55,1.22,2.96,3.61,2.96,1.37,0,2.18-.46,2.72-1.33ZM89.85,148.69v1.18c0,1.33-.83,2.17-2.28,2.17-1.07,0-1.57-.63-1.57-1.2,0-.45.15-.95,1.74-1.39l1.11-.3c.48-.13.8-.32,1-.46ZM77.98,153.66h2.54v-7.74h1.83v-1.68h-1.83v-.18c0-.85.15-1.09.32-1.26.2-.22.48-.39,1.11-.37h.41v-1.87h-1.44c-.85,0-3.17.15-2.92,3.68h-1.37v1.68h1.37v7.74ZM72.45,152.69l.09.96h2.52v-13.11h-2.56v4.76c-.44-.74-1.52-1.37-2.72-1.37-2.09,0-4.19,1.76-4.19,5.05,0,1.5.48,2.74,1.22,3.61.78.94,1.76,1.37,2.87,1.37s2.09-.44,2.76-1.28ZM70.45,151.79c-1.2,0-2.24-.85-2.24-2.85,0-2.24,1.09-3.04,2.13-3.04s2.13.8,2.13,2.96-1.09,2.91-2.02,2.92ZM55.38,153.66h2.54l.02-5.28c0-.74.15-1.09.35-1.39.33-.48.93-.8,1.54-.8.87,0,1.5.57,1.5,1.63v5.83h2.54v-6.65c0-1.76-1.3-3.11-3.24-3.11-1.35,0-2.32.72-2.63,1.46l-.11-1.11-2.48-.02-.02,9.42ZM50.67,152.58c.04.46.15.8.3,1.07h2.59c-.33-.39-.43-.67-.43-.98v-5.17c0-2.26-1.17-3.61-4.24-3.61-2.85,0-4.04,1.56-3.98,3.15l2.24.04c0-.7.52-1.37,1.81-1.37s1.65.61,1.65,1.05c0,.39-.24.74-.93.87l-1.44.24c-2.07.37-2.65.76-3.04,1.11-.56.5-.87,1.2-.87,1.96,0,1.55,1.22,2.96,3.61,2.96,1.37,0,2.19-.46,2.72-1.33ZM50.67,148.69v1.18c0,1.33-.83,2.17-2.28,2.17-1.07,0-1.57-.63-1.57-1.2,0-.45.15-.95,1.74-1.39l1.11-.3c.48-.13.8-.32,1-.46ZM38.45,153.66h2.54l.02-4.18c0-1.41.33-2.06.76-2.5.46-.5,1.02-.74,1.72-.74.15,0,.28.02.43.04l.02-2.24c-.13-.02-.33-.06-.56-.06-1.09,0-2.06.7-2.35,1.68l-.07-1.43h-2.48l-.02,9.42ZM25.99,153.66h6.74c1.22,0,1.81-.2,2.48-.67.93-.65,1.46-1.65,1.46-2.96,0-1.7-.98-2.96-2.57-3.39,1.31-.37,2.11-1.43,2.11-2.78,0-1.26-.54-2.2-1.5-2.8-.54-.33-1.04-.52-2.2-.52h-6.52v13.11ZM28.71,151.53v-3.74l3.22-.02c1.19,0,1.96.85,1.96,1.83,0,1.07-.83,1.93-1.96,1.93h-3.22Z"/>
  <path class="cls-3" d="M54.78,166.76h2.54l.02-2.57h-2.54l-.02,2.57ZM92.79,173.29l7,.02c0-2.8-1.26-5.76-4.78-5.76s-4.74,2.87-4.74,5.02c0,3.13,2.07,5.07,4.72,5.07s4.24-1.43,4.63-3.07l-2.56-.17c-.48.87-1.15,1.22-1.96,1.22-1.2,0-2.19-.81-2.32-2.33ZM92.91,171.46c.15-1.15,1.09-1.93,2.05-1.93,1.04,0,1.93.7,2.09,1.93h-4.15ZM80.06,177.31h2.54l.02-5.28c0-.74.15-1.09.35-1.39.33-.48.93-.8,1.54-.8.89,0,1.52.57,1.52,1.63l-.02,5.83h2.54v-6.65c0-1.76-1.3-3.11-3.24-3.11-1.35,0-2.3.72-2.63,1.46l-.09-1.11-2.5-.02-.02,9.42ZM64.3,177.31h2.54l.02-5.44c0-1.35.76-2.04,1.78-2.04.67,0,1.07.33,1.26.8.04.09.11.3.11,1.04v5.65h2.52v-5.59c0-1.22.76-1.93,1.76-1.93.85,0,1.43.52,1.43,1.63v5.89h2.48l-.02-6.61c-.06-1.98-1.32-3.11-3-3.11-1.31,0-2.33.61-2.91,1.65-.48-.98-1.52-1.65-2.76-1.65s-2.13.55-2.63,1.5l-.09-1.18-2.46-.02-.02,9.42ZM59.6,176.24c.06.37.19.78.33,1.07h2.56c-.15-.13-.39-.56-.39-1.33l-.04-4.81c-.02-.83-.07-1.07-.13-1.28-.39-1.3-1.44-2.33-4-2.33-2.93,0-4.09,1.5-4.09,3.15l2.24.04c.09-.63.18-.76.39-.94.24-.22.72-.44,1.48-.44,1.18,0,1.63.63,1.63,1.07s-.28.76-.96.89l-2.55.45c-1.91.33-2.8,1.57-2.8,2.81,0,1.63,1.26,3.02,3.54,3.02,1.57,0,2.44-.63,2.8-1.35ZM59.6,172.29v1.41c-.06,1.18-.87,2-2.24,2-1.07,0-1.57-.63-1.57-1.18,0-.44.22-1.02,1.72-1.39l1.09-.3c.43-.09.76-.3,1-.54ZM58.08,166.76l2.56.02v-2.57h-2.54l-.02,2.56Z"/>
  <polyline class="cls-2" points="20.22 116.11 76.5 18.53 132.77 116.11 20.22 116.11"/>
  <path class="cls-3" d="M56.97,87.93c0,4.4,2.45,8.47,5.33,10.57,3.67,2.74,7.78,2.05,7.98,2.05l1.03-.19-.83-.63c-5.68-4.65-6.85-11.06-7.1-13.9.64.69,1.27,1.12,1.32,1.17l.79.49-.05-.93c-.05-.24-.05-.49-.05-.73,0-2.84.73-4.65,1.37-5.68.1,6.26,3.97,10.91,4.16,11.11l.78-.49c-.59-1.57-.78-3.18-.78-4.75,0-2.15.39-4.11.83-5.48.64,2.74,2.44,5.24,2.54,5.39l.54.78.3-.93c1.03-3.43,1.27-7.88,1.27-11.46,0-1.95-.1-3.67-.15-4.74,3.52,3.52,4.36,7.68,4.36,10.72,0,2.4-.49,4.06-.54,4.11l-.49,1.71,1.27-1.22c1.42-1.27,2.59-3.72,3.23-5.28.2,1.03.34,2.05.34,2.94,0,2.3-.49,3.96-.49,4.01l-.34,1.13,1.03-.59c.73-.44,1.37-.88,1.81-1.27-.83,9.5-9.64,13.75-9.74,13.8l-1.57.73,1.71.19c14.83,1.42,17.82-8.8,18.41-13.26.54-3.72-.93-6.56-1.03-6.12l-.09,1.27c-.25.93-1.13,1.62-1.71,2.01-.1-.49-.1-.98-.1-1.51,0-1.76.29-3.57.29-3.57.59-2.74.79-4.94.79-6.7,0-5.43-2.06-6.85-2.2-6.9l-.59-.44-.09.73c0,2.59-1.72,3.57-1.72,3.57-.34-10.04-5.34-14.39-5.58-14.68-.29-.25-.88-.54-.88-.54l.15.98c.2,1.76-.24,3.38-.54,3.67-.59-3.67-.98-5.09-3.97-7.73-2.74-2.5-3.62-8.17-3.62-8.17l-.54,1.12c-1.42,2.84-1.66,6.22-1.61,7.2.1,1.91-.39,4.16-.68,5.48-1.42-2.05-3.67-4.3-3.77-4.41l-.93-.93.1,1.27c.25,2.65.34,4.89.34,6.76,0,4.65-.59,7.05-1.03,8.17-.93-1.71-3.23-3.92-3.77-4.45l-.93-.83.1,1.27c.05.34.05.74.05,1.08,0,2.99-.19,4.31-.93,6.17-.98,2.4-.69,5.67-.69,5.82-1.13-1.13-2.74-1.96-2.99-2.06l-1.08-.54.39,1.12c.88,2.35.59,8.17.59,12.53ZM48.85,109.85h53.58v-5.38h-53.58v5.38Z"/>
</svg>