<svg xmlns="http://www.w3.org/2000/svg" viewBox="0 0 595.28 850.36"><defs><style>.a{fill:#fcc00d;}.a,.b{fill-rule:evenodd;}.b{fill:#000100;}</style></defs><title>W021_C</title><polyline class="a" points="0 850.36 595.28 850.36 595.28 0 0 0 0 850.36"/><path class="b" d="M78.63,495.55L297.46,116.11,516.29,495.55H78.63Zm478.94,8.57L310.57,76a15.16,15.16,0,0,0-26.26,0l-247,428.15A15.21,15.21,0,0,0,50.44,527h494A15.22,15.22,0,0,0,557.57,504.12Z"/><path class="b" d="M111.65,613.4V601.09H125a6.09,6.09,0,0,1,5.76,6.19,6.29,6.29,0,0,1-6.55,6.26Zm382.6,30.53v-7.56H490.5a3.66,3.66,0,0,1-2.81-1.37c-0.22-.29-0.51-0.86-0.51-2.88V614h6.7v-6.7h-6.62l-0.07-11.59H477.4v11.59h-5.18V614l5.18-.07v18.94c0,8.28,3.38,11,8.86,11h8Zm-63.58,2c0.51,3.46,1.51,5.4,3.6,7.35,2.23,2.16,6.34,4.18,13.47,4.18,7.92,0,13-3,15.48-6.12,1.65-2.23,2.52-4.25,2.52-9.72V607.28H456.3L456,611.74c-0.72-1.15-2.66-5.76-10.8-5.76-8.93,0-16.63,7.06-16.63,18.36s7.78,18.43,16.49,18.43c5.83,0,9.5-2.66,10.87-5.48v4c0,6.19-2.81,8.78-8.49,8.78-4.25,0-6.26-2.16-6.63-4.46Zm16.7-11.66c-4.75,0-8.78-3.46-8.78-10.22,0-5.91,4.11-9.65,8.57-9.65s8.64,3.74,8.64,9.94S451.62,634.28,447.37,634.28Zm-35.57,9.65h9.86V607.28h-9.86v36.65Zm0.07-42.19h9.86V593h-9.86v8.78Zm-17.57,42.19h9.86V593h-9.8Zm-26.64,0h9.86l0.07-16.27c0-5.47,1.3-8,3-9.72a8.62,8.62,0,0,1,6.7-2.88,13.16,13.16,0,0,1,1.66.14l0.07-8.71a14.15,14.15,0,0,0-2.16-.22,9.52,9.52,0,0,0-9.14,6.55l-0.29-5.55h-9.65Zm-18.29-4.18a10.31,10.31,0,0,0,1.15,4.18h10.08a5.46,5.46,0,0,1-1.66-3.81V620c0-8.78-4.54-14-16.49-14-11.09,0-15.7,6-15.48,12.24l8.71,0.14c0-2.74,2-5.33,7.06-5.33,4.82,0,6.41,2.38,6.41,4.1,0,1.51-.94,2.88-3.6,3.38l-5.61.94c-8.07,1.44-10.3,3-11.81,4.32a10.2,10.2,0,0,0-3.38,7.63c0,6,4.75,11.52,14,11.52C344.13,644.93,347.3,643.13,349.39,639.75Zm0-15.12v4.61c0,5.18-3.24,8.42-8.85,8.42-4.18,0-6.12-2.45-6.12-4.68,0-1.73.58-3.67,6.77-5.4l4.32-1.15A11.59,11.59,0,0,0,349.39,624.63Zm-46.15,19.29h9.86v-30.1h7.13v-6.55H313.1v-0.72c0-3.31.58-4.25,1.23-4.9,0.79-.86,1.87-1.51,4.32-1.44h1.58V593h-5.61c-3.31,0-12.31.58-11.37,14.33h-5.33v6.55h5.33v30.1Zm-21.53-3.74,0.36,3.74h9.79V593h-9.94v18.5c-1.73-2.88-5.9-5.33-10.58-5.33-8.13,0-16.27,6.84-16.27,19.66a21.39,21.39,0,0,0,4.76,14A13.87,13.87,0,0,0,271,645.15,13.2,13.2,0,0,0,281.71,640.18Zm-7.77-3.53c-4.68,0-8.71-3.31-8.71-11.09,0-8.71,4.25-11.81,8.28-11.81s8.28,3.1,8.28,11.52C281.78,633.34,277.53,636.58,273.93,636.65Zm-58.61,7.27h9.86l0.07-20.52c0-2.88.58-4.25,1.37-5.4a7.4,7.4,0,0,1,6-3.1c3.38,0,5.83,2.23,5.83,6.33v22.68h9.86V618.08c0-6.84-5-12.1-12.6-12.1-5.26,0-9,2.81-10.22,5.69L225,607.35l-9.65-.07ZM197,639.75a10.31,10.31,0,0,0,1.15,4.18h10.08a5.48,5.48,0,0,1-1.66-3.81V620c0-8.78-4.53-14-16.49-14-11.09,0-15.69,6-15.48,12.24l8.71,0.14c0-2.74,2-5.33,7.05-5.33,4.83,0,6.41,2.38,6.41,4.1,0,1.51-.93,2.88-3.6,3.38l-5.61.94c-8.06,1.44-10.3,3-11.81,4.32a10.19,10.19,0,0,0-3.39,7.63c0,6,4.75,11.52,14,11.52C191.78,644.93,195,643.13,197,639.75Zm0-15.12v4.61c0,5.18-3.24,8.42-8.86,8.42-4.18,0-6.12-2.45-6.12-4.68,0-1.73.58-3.67,6.77-5.4l4.32-1.15A11.64,11.64,0,0,0,197,624.63Zm-47.52,19.29h9.86l0.07-16.27c0-5.47,1.29-8,3-9.72a8.62,8.62,0,0,1,6.7-2.88,13.28,13.28,0,0,1,1.66.14l0.07-8.71a14.16,14.16,0,0,0-2.16-.22,9.52,9.52,0,0,0-9.15,6.55l-0.29-5.55h-9.65Zm-48.45,0h26.21c4.75,0,7.06-.79,9.65-2.59a13.37,13.37,0,0,0,5.69-11.52c0-6.63-3.81-11.52-10-13.18a10.81,10.81,0,0,0,8.21-10.8A12.06,12.06,0,0,0,135,595c-2.09-1.29-4-2-8.57-2H101.06v51Zm10.58-8.28V621.1l12.53-.07c4.61,0,7.63,3.31,7.63,7.13a7.43,7.43,0,0,1-7.63,7.49H111.65Z"/><path class="b" d="M213,690h9.86L223,680h-9.86Zm147.81,25.41L388,715.46c0-10.87-4.9-22.39-18.58-22.39-14,0-18.43,11.16-18.43,19.51,0,12.17,8.06,19.73,18.36,19.73s16.49-5.54,18-11.95l-9.94-.65c-1.87,3.38-4.46,4.75-7.63,4.75C365.15,724.45,361.33,721.29,360.83,715.38Zm0.44-7.13a8.37,8.37,0,0,1,8-7.49c4,0,7.49,2.74,8.13,7.49H361.26Zm-50,22.75h9.86l0.07-20.52c0-2.88.58-4.25,1.37-5.4a7.39,7.39,0,0,1,6-3.1c3.46,0,5.91,2.23,5.91,6.33L334.4,731h9.86V705.16c0-6.84-5-12.1-12.6-12.1-5.26,0-8.93,2.81-10.23,5.69l-0.36-4.32-9.72-.07ZM250,731h9.86L260,709.84c0-5.25,3-7.92,6.91-7.92a4.88,4.88,0,0,1,4.9,3.1c0.15,0.36.44,1.15,0.44,4v22H282V709.26c0-4.75,3-7.49,6.84-7.49,3.31,0,5.54,2,5.54,6.33V731H304l-0.07-25.7c-0.22-7.7-5.11-12.1-11.67-12.1a12.34,12.34,0,0,0-11.3,6.41,11.75,11.75,0,0,0-10.72-6.41c-5,0-8.28,2.16-10.23,5.83l-0.36-4.61-9.58-.07Zm-18.29-4.18A14.88,14.88,0,0,0,233,731H243c-0.58-.51-1.51-2.16-1.51-5.18l-0.14-18.72a18.63,18.63,0,0,0-.5-5c-1.51-5-5.62-9.07-15.55-9.07-11.37,0-15.91,5.83-15.91,12.24l8.71,0.14c0.36-2.45.72-3,1.51-3.67s2.81-1.73,5.76-1.73c4.61,0,6.33,2.45,6.33,4.18s-1.08,3-3.74,3.46L218,709.41c-7.42,1.29-10.87,6.12-10.87,10.95,0,6.33,4.9,11.74,13.75,11.74C227,732.09,230.37,729.64,231.74,726.83Zm0-15.34V717c-0.22,4.61-3.39,7.78-8.71,7.78-4.18,0-6.12-2.45-6.12-4.61,0-1.73.87-4,6.7-5.4l4.25-1.15A7.76,7.76,0,0,0,231.74,711.49ZM225.83,690l9.94,0.07V680H225.9Z"/><path class="b" d="M221.53,385.94c0,17.12,9.51,32.92,20.74,41.09,14.29,10.66,30.26,8,31,8l4-.75-3.23-2.46c-22.08-18.07-26.64-43-27.6-54a39.63,39.63,0,0,0,5.14,4.56l3.06,1.91-0.21-3.62a15.19,15.19,0,0,1-.18-2.85c0-11,2.85-18.09,5.32-22.07C260,380,275,398.12,275.76,398.89l3-1.91a52.23,52.23,0,0,1-3-18.47A71.57,71.57,0,0,1,279,357.19c2.47,10.67,9.5,20.39,9.88,21l2.08,3,1.15-3.6c4-13.33,4.95-30.65,4.95-44.55,0-7.6-.38-14.25-0.57-18.45,13.69,13.7,16.94,29.86,16.94,41.67,0,9.33-1.9,15.79-2.11,16l-1.91,6.66,5-4.77c5.52-4.95,10.09-14.46,12.56-20.54A63.54,63.54,0,0,1,328.27,365a64.52,64.52,0,0,1-1.9,15.6L325,385l4-2.29a49,49,0,0,0,7-4.95c-3.24,36.93-37.49,53.46-37.87,53.65l-6.09,2.85,6.65,0.75c57.68,5.54,69.28-34.23,71.57-51.56,2.09-14.45-3.62-25.49-4-23.78L366,364.62c-1,3.62-4.38,6.28-6.67,7.8a29.86,29.86,0,0,1-.38-5.89,101.22,101.22,0,0,1,1.13-13.9,123.64,123.64,0,0,0,3.06-26.06c0-21.12-8-26.63-8.56-26.83l-2.29-1.7-0.37,2.85c0,10.09-6.67,13.89-6.67,13.89-1.33-39-20.75-55.94-21.7-57.09a22.17,22.17,0,0,0-3.43-2.09l0.57,3.8c0.77,6.84-.95,13.12-2.08,14.27-2.29-14.27-3.81-19.79-15.43-30.07-10.66-9.71-14.08-31.78-14.08-31.78L287,216.19c-5.51,11-6.46,24.16-6.27,28,0.38,7.41-1.52,16.16-2.66,21.3-5.53-8-14.29-16.74-14.66-17.12l-3.62-3.61,0.38,4.94c1,10.29,1.33,19,1.33,26.27,0,18.08-2.28,27.4-4,31.78-3.62-6.66-12.56-15.23-14.66-17.32l-3.61-3.23,0.39,4.93a32.17,32.17,0,0,1,.18,4.19c0,11.61-.75,16.75-3.62,24-3.81,9.33-2.67,22.06-2.67,22.64a45.58,45.58,0,0,0-11.61-8l-4.18-2.09,1.52,4.36C222.67,346.36,221.53,369,221.53,385.94Zm-31.59,85.25H398.29V450.26H189.94v20.94Z"/></svg>