<svg xmlns="http://www.w3.org/2000/svg" viewBox="0 0 595.28 850.36"><defs><style>.a{fill:#fcc00d;}.a,.b{fill-rule:evenodd;}.b{fill:#000100;}</style></defs><title>W022_C</title><polyline class="a" points="0 850.36 595.28 850.36 595.28 0 0 0 0 850.36"/><path class="b" d="M78.62,495.55L297.45,116.1,516.29,495.55H78.62Zm478.94,8.58L310.57,76a15.15,15.15,0,0,0-26.25,0l-247,428.17A15.21,15.21,0,0,0,50.44,527h494A15.21,15.21,0,0,0,557.57,504.13Z"/><path class="b" d="M78.53,643.92H88.61l17.49-51L94.87,593,83.71,630.75,72.62,593H61.39Zm445.52,0h9.86V593h-9.79Zm-17.14-4.18a15,15,0,0,0,1.22,4.18h10c-0.58-.51-1.51-2.16-1.51-5.18L516.49,620c-0.07-3.24-.29-4.18-0.58-5-1.44-5-5.54-9.07-15.48-9.07-11.45,0-15.91,5.83-15.91,12.24l8.64,0.14c0.43-2.45.79-3,1.58-3.67s2.81-1.73,5.76-1.73c4.61,0,6.34,2.45,6.34,4.18s-1.08,3-3.74,3.46l-9.94,1.73c-7.42,1.29-10.87,6.12-10.87,10.95,0,6.33,4.9,11.74,13.75,11.74C502.16,645,505.48,642.56,506.91,639.75Zm0-15.34v5.47c-0.29,4.61-3.38,7.78-8.71,7.78-4.18,0-6.19-2.45-6.19-4.61,0-1.73.86-4,6.77-5.4L503,626.5A8.09,8.09,0,0,0,506.91,624.41ZM499.72,603a5.11,5.11,0,1,0-5.33-5.11A5.14,5.14,0,0,0,499.72,603Zm-0.07-2.09a3,3,0,0,1-3.17-3,3.21,3.21,0,0,1,3-3.1,3.06,3.06,0,0,1,3,3.1A3,3,0,0,1,499.64,600.94Zm-77.76,43h9.87V622.76c0-5.25,3-7.92,6.91-7.92a4.92,4.92,0,0,1,5,3.1c0.14,0.36.43,1.15,0.43,4v22h9.79V622.18c0-4.75,2.88-7.49,6.77-7.49,3.38,0,5.54,2,5.54,6.34v22.9H476l-0.07-25.7c-0.21-7.7-5.11-12.1-11.81-12.1a12.3,12.3,0,0,0-11.23,6.41,11.87,11.87,0,0,0-10.8-6.41c-5,0-8.28,2.16-10.15,5.83l-0.36-4.61-9.57-.07ZM387.76,628.3L415,628.37C415,617.5,410,606,396.4,606,382.29,606,378,617.14,378,625.49c0,12.17,8.06,19.73,18.29,19.73s16.56-5.54,18-11.95l-9.86-.65c-1.87,3.38-4.46,4.75-7.63,4.75C392.08,637.37,388.26,634.2,387.76,628.3Zm0.36-7.13a8.5,8.5,0,0,1,8.06-7.49c4,0,7.49,2.74,8.13,7.49h-16.2Zm-34.63,22.75h9.86V627.65c0-5.47,1.37-8,3-9.72a8.62,8.62,0,0,1,6.7-2.88,14.48,14.48,0,0,1,1.65.14l0.07-8.71a14.16,14.16,0,0,0-2.16-.22,9.52,9.52,0,0,0-9.14,6.55l-0.29-5.55h-9.65Zm-26.71,1.44c11.81,0,19.73-7.92,19.73-19.87,0-11.74-8.06-19.66-19.44-19.66-11.09,0-19.29,7.92-19.29,19.66C307.77,637.44,316,645.36,326.78,645.36Zm0.58-7.7c-5.11,0-9.5-3.67-9.5-12.17,0-8.21,4.39-12,9.43-12,4.75,0,9.14,3.31,9.14,12.24C336.43,634.42,331.75,637.66,327.35,637.66Zm1.37-34.77h9.86V593l-9.86-.07v10Zm-12.89,0h9.86V593l-9.86-.07v10Zm-29.38,41h9.87v-30.1h7.05v-6.55h-7.05v-0.72c0-3.31.58-4.25,1.22-4.9,0.72-.86,1.8-1.51,4.25-1.44h1.58V593h-5.61c-3.24,0-12.24.58-11.3,14.33h-5.33v6.55h5.33v30.1Zm-40.53,0v-7.56h-3.67a3.66,3.66,0,0,1-2.81-1.37c-0.21-.29-0.5-0.86-0.5-2.88V614h6.7v-6.7H239l-0.07-11.59h-9.79v11.59H224V614l5.19-.07v18.94c0,8.28,3.38,11,8.85,11h7.92Zm-61.49-12.24c0.22,6.91,6,13.54,17.21,13.54,11.45,0,16.49-6.12,16.49-12.67a10.36,10.36,0,0,0-2.23-6.41c-1.37-1.73-3.17-3-7.49-4l-10.58-2.45c-2.16-.58-3.1-1.94-3.1-3.24s1.37-3.67,6.12-3.67c5.26,0,7.56,2.73,7.56,5.68l8.71-.14a12.78,12.78,0,0,0-5.25-9.65c-2.09-1.51-5.55-2.81-10.87-2.81-10.51,0-15.19,5.69-15.19,12a9.41,9.41,0,0,0,2.52,6.91c1.29,1.37,2.88,2.52,7,3.38l7.92,1.8c4.68,1,5.18,2.45,5.18,4.18s-1.51,4.11-6.91,4.11c-5.19,0-7.78-2.74-8.14-6.55Zm-40.25,0c0.22,6.91,6,13.54,17.21,13.54,11.45,0,16.49-6.12,16.49-12.67a10.34,10.34,0,0,0-2.23-6.41c-1.36-1.73-3.17-3-7.48-4l-10.58-2.45c-2.16-.58-3.1-1.94-3.1-3.24s1.37-3.67,6.12-3.67c5.25,0,7.56,2.73,7.56,5.68l8.71-.14a12.77,12.77,0,0,0-5.26-9.65c-2.08-1.51-5.54-2.81-10.87-2.81-10.51,0-15.19,5.69-15.19,12a9.39,9.39,0,0,0,2.52,6.91c1.29,1.37,2.88,2.52,7,3.38l7.92,1.8c4.68,1,5.18,2.45,5.18,4.18s-1.51,4.11-6.91,4.11c-5.18,0-7.77-2.74-8.13-6.55Zm-16.92,8.06a10.31,10.31,0,0,0,1.15,4.18H138.5a5.48,5.48,0,0,1-1.66-3.81V620c0-8.78-4.53-14-16.49-14-11.09,0-15.69,6-15.48,12.24l8.64,0.14c0-2.74,2.09-5.33,7.13-5.33,4.83,0,6.41,2.38,6.41,4.1,0,1.51-.93,2.88-3.6,3.38l-5.61.94c-8.07,1.44-10.3,3-11.81,4.32a10.19,10.19,0,0,0-3.39,7.63c0,6,4.75,11.52,14,11.52C122,644.93,125.18,643.13,127.27,639.75Zm0-15.12v4.61c0,5.18-3.24,8.42-8.86,8.42-4.18,0-6.12-2.45-6.12-4.68,0-1.73.58-3.67,6.77-5.4l4.25-1.15A11.44,11.44,0,0,0,127.27,624.63Z"/><path class="b" d="M278.93,291.63L265.2,349h13.74V291.63Zm21.22,61.15c-5.33,14.49-21.6,45-31.5,60.82v59.22h32.56v-120h37.84a8,8,0,0,0,0-15.94H323.58l1.16-4.89h34.37a7.58,7.58,0,1,0,0-15.16H328.4l1.15-4.9h41.67c10-.38,10.05-14.65,0-15.16h-38l1.15-4.89h24.39c10.56,0,10.56-15.84,0-15.84h-86a1.63,1.63,0,0,1-.77-3.07c7-3.82,19.54-10.7,20.75-11.81l3.46-3.17c4.84-4.42,3.47-11.8.87-16.8l-62.92,34.65a14.93,14.93,0,0,0-7.77,13.05V337.8a15,15,0,0,0,15,15h58.87Zm15.76-61.15L302.18,349h13.74V291.63Zm-14.8-11.89H315l-13.84,57.39V279.74Zm-18.44,0h13.73l-13.73,57.39V279.74Zm37,0h13.73l-13.73,57.39V279.74Zm-22.29,11.89L283.64,349h13.73V291.63Z"/></svg>