<?xml version="1.0" encoding="UTF-8"?>
<svg id="Lager_1" data-name="Lager 1" xmlns="http://www.w3.org/2000/svg" viewBox="0 0 153.09 218.69">
  <defs>
    <style>
      .cls-1 {
        fill: #fff;
      }

      .cls-1, .cls-2, .cls-3 {
        fill-rule: evenodd;
      }

      .cls-2 {
        fill: #fcbd0e;
      }

      .cls-3 {
        fill: #1d1f22;
      }
    </style>
  </defs>
  <polyline class="cls-1" points="0 218.69 153.09 218.69 153.09 0 0 0 0 218.69"/>
  <path class="cls-3" d="M143.39,118.32L79.87,8.21c-1.5-2.6-5.25-2.6-6.75,0L9.6,118.32c-1.5,2.6.36,5.87,3.38,5.87h127.04c3.01,0,4.88-3.27,3.38-5.87"/>
  <polyline class="cls-2" points="10.18 133.09 142.92 133.09 142.92 208.7 10.18 208.7 10.18 133.09"/>
  <path class="cls-3" d="M20.2,155.23h2.59l4.5-13.11-2.89.02-2.87,9.7-2.85-9.72h-2.89l4.41,13.11ZM134.77,155.23h2.54v-13.11h-2.52l-.02,13.11ZM130.36,154.16c.06.37.17.78.31,1.07h2.57c-.15-.13-.39-.56-.39-1.33l-.04-4.81c-.02-.83-.07-1.07-.15-1.28-.37-1.3-1.43-2.33-3.98-2.33-2.94,0-4.09,1.5-4.09,3.15l2.22.04c.11-.63.2-.76.41-.94.24-.22.72-.45,1.48-.45,1.19,0,1.63.63,1.63,1.07s-.28.76-.96.89l-2.56.44c-1.91.33-2.8,1.57-2.8,2.82,0,1.63,1.26,3.02,3.54,3.02,1.57,0,2.43-.63,2.8-1.35ZM130.36,150.21v1.41c-.07,1.18-.87,2-2.24,2-1.07,0-1.59-.63-1.59-1.18,0-.44.22-1.02,1.74-1.39l1.09-.3c.41-.09.76-.3,1-.54ZM128.51,144.71c.65,0,1.26-.59,1.26-1.32s-.59-1.31-1.31-1.31-1.31.61-1.31,1.31c0,.74.57,1.32,1.37,1.32ZM128.49,144.18c-.48,0-.81-.35-.81-.78s.37-.78.78-.8c.41,0,.78.33.78.8s-.37.78-.74.78ZM108.5,155.23h2.54v-5.44c0-1.35.76-2.04,1.78-2.04.69,0,1.09.33,1.28.8.04.09.11.3.11,1.04v5.65h2.52v-5.59c0-1.22.74-1.92,1.74-1.92.87,0,1.43.52,1.43,1.63v5.89h2.52l-.02-6.61c-.06-1.98-1.32-3.11-3.04-3.11-1.3,0-2.31.61-2.89,1.65-.48-.98-1.54-1.65-2.78-1.65s-2.13.56-2.61,1.5l-.09-1.18-2.46-.02-.02,9.42ZM99.72,151.21l7,.02c0-2.8-1.28-5.76-4.78-5.76s-4.74,2.87-4.74,5.02c0,3.13,2.07,5.07,4.7,5.07s4.26-1.42,4.63-3.07l-2.54-.17c-.48.87-1.15,1.22-1.96,1.22-1.2,0-2.19-.82-2.31-2.33ZM99.81,149.38c.17-1.15,1.11-1.93,2.07-1.93,1.04,0,1.93.7,2.09,1.93h-4.17ZM90.91,155.23h2.54v-4.18c0-1.41.35-2.06.78-2.5.46-.5,1.02-.74,1.72-.74.13,0,.28.02.43.04l.02-2.24c-.13-.02-.33-.06-.56-.06-1.09,0-2.06.7-2.35,1.68l-.07-1.42h-2.48l-.02,9.42ZM84.04,155.6c3.04,0,5.07-2.04,5.07-5.11s-2.07-5.05-5-5.05-4.96,2.04-4.96,5.05,2.11,5.11,4.89,5.11ZM84.19,153.62c-1.32,0-2.44-.94-2.44-3.13s1.13-3.07,2.43-3.07c1.22,0,2.35.85,2.35,3.15s-1.2,3.05-2.33,3.05ZM84.54,144.68h2.54v-2.55l-2.54-.02v2.57ZM81.22,144.68h2.54v-2.55l-2.54-.02v2.57ZM73.67,155.23h2.54v-7.74h1.81v-1.68h-1.81v-.19c0-.85.15-1.09.31-1.26.19-.22.46-.39,1.09-.37h.41v-1.87h-1.44c-.83,0-3.15.15-2.91,3.68h-1.37v1.68h1.37v7.74ZM63.24,155.23v-1.94h-.94c-.3,0-.59-.17-.72-.35-.06-.07-.13-.22-.13-.74v-4.67h1.72v-1.72h-1.7l-.02-2.98h-2.52v2.98h-1.33v1.74l1.33-.02v4.87c0,2.13.87,2.83,2.28,2.83h2.04ZM47.43,152.08c.06,1.78,1.54,3.48,4.43,3.48s4.24-1.57,4.24-3.26c0-.59-.2-1.18-.57-1.65-.35-.45-.82-.78-1.93-1.04l-2.72-.63c-.55-.15-.8-.5-.8-.83,0-.37.35-.94,1.57-.94,1.35,0,1.94.7,1.94,1.46l2.24-.04c-.04-.94-.54-1.89-1.35-2.48-.54-.39-1.43-.72-2.8-.72-2.7,0-3.91,1.46-3.91,3.07,0,.76.2,1.3.65,1.78.33.35.74.65,1.8.87l2.04.46c1.2.26,1.33.63,1.33,1.07,0,.41-.39,1.06-1.78,1.06s-2-.7-2.09-1.68l-2.3.02ZM37.08,152.08c.06,1.78,1.54,3.48,4.42,3.48s4.24-1.57,4.24-3.26c0-.59-.2-1.18-.57-1.65-.35-.45-.81-.78-1.92-1.04l-2.72-.63c-.56-.15-.8-.5-.8-.83,0-.37.35-.94,1.57-.94,1.35,0,1.94.7,1.94,1.46l2.24-.04c-.04-.94-.54-1.89-1.35-2.48-.54-.39-1.42-.72-2.8-.72-2.7,0-3.91,1.46-3.91,3.07,0,.76.2,1.3.65,1.78.33.35.74.65,1.8.87l2.04.46c1.2.26,1.33.63,1.33,1.07,0,.41-.39,1.06-1.78,1.06s-2-.7-2.09-1.68l-2.3.02ZM32.73,154.16c.04.46.15.8.3,1.07h2.59c-.33-.39-.43-.67-.43-.98v-5.17c0-2.26-1.17-3.61-4.24-3.61-2.85,0-4.04,1.56-3.98,3.15l2.22.04c0-.7.54-1.37,1.83-1.37s1.65.61,1.65,1.05c0,.39-.24.74-.93.87l-1.44.24c-2.07.37-2.65.76-3.04,1.11-.56.5-.87,1.2-.87,1.96,0,1.55,1.22,2.96,3.61,2.96,1.37,0,2.18-.46,2.72-1.33ZM32.73,150.27v1.18c0,1.33-.83,2.17-2.28,2.17-1.07,0-1.57-.63-1.57-1.2,0-.45.15-.95,1.74-1.39l1.09-.3c.5-.13.81-.32,1.02-.46Z"/>
  <polyline class="cls-2" points="20.22 116.11 76.5 18.53 132.77 116.11 20.22 116.11"/>
  <path class="cls-3" d="M71.73,63.67l-3.53,14.76h3.53v-14.76ZM77.19,79.4c-1.37,3.73-5.56,11.56-8.1,15.64v15.23h8.37v-30.87h9.73c2.69-.15,2.76-3.92,0-4.1h-3.98l.3-1.26h8.84c2.61-.13,2.61-3.77,0-3.9h-7.9l.3-1.26h10.72c2.58-.1,2.58-3.77,0-3.9h-9.78l.3-1.26h6.27c2.72,0,2.72-4.08,0-4.08h-22.13c-.44,0-.58-.58-.2-.79,1.8-.98,5.03-2.75,5.34-3.04l.89-.81c1.24-1.14.89-3.03.22-4.32l-16.18,8.91c-1.22.67-2,1.96-2,3.36v12.59c0,2.13,1.72,3.85,3.85,3.85h15.14ZM81.24,63.67l-3.53,14.76h3.53v-14.76ZM77.44,60.61h3.56l-3.56,14.76v-14.76ZM72.7,60.61h3.53l-3.53,14.76v-14.76ZM82.21,60.61h3.53l-3.53,14.76v-14.76ZM76.47,63.67l-3.53,14.76h3.53v-14.76Z"/>
</svg>