<?xml version="1.0" encoding="UTF-8"?>
<svg id="Lager_1" data-name="Lager 1" xmlns="http://www.w3.org/2000/svg" viewBox="0 0 153.09 218.69">
  <defs>
    <style>
      .cls-1 {
        fill: #fff;
      }

      .cls-1, .cls-2, .cls-3 {
        fill-rule: evenodd;
      }

      .cls-2 {
        fill: #fcbd0e;
      }

      .cls-3 {
        fill: #1d1f22;
      }
    </style>
  </defs>
  <polyline class="cls-1" points="0 218.69 153.09 218.69 153.09 0 0 0 0 218.69"/>
  <path class="cls-3" d="M143.39,118.32L79.87,8.21c-1.5-2.6-5.25-2.6-6.75,0L9.6,118.32c-1.5,2.6.36,5.87,3.38,5.87h127.04c3.01,0,4.88-3.26,3.38-5.87"/>
  <polyline class="cls-2" points="10.19 133.08 142.93 133.08 142.93 208.69 10.19 208.69 10.19 133.08"/>
  <path class="cls-3" d="M14.68,155.22h2.57v-5.59h5.44v-2.15h-5.42v-3.18h6.39v-2.18h-8.98v13.11ZM132.93,151.2l6.66.02c0-2.8-1.21-5.76-4.54-5.76s-4.51,2.87-4.51,5.02c0,3.13,1.97,5.07,4.49,5.07s4.03-1.43,4.39-3.07l-2.41-.17c-.46.87-1.09,1.22-1.87,1.22-1.15,0-2.08-.82-2.2-2.33ZM133.04,149.37c.14-1.15,1.04-1.93,1.96-1.93.99,0,1.83.7,1.99,1.93h-3.95ZM120.81,155.22h2.41l.02-5.28c0-.74.14-1.09.33-1.39.32-.48.88-.8,1.46-.8.83,0,1.44.57,1.44,1.63l-.02,5.83h2.41v-6.65c0-1.76-1.23-3.11-3.08-3.11-1.29,0-2.18.72-2.5,1.46l-.1-1.11-2.36-.02-.02,9.43ZM105.81,155.22h2.41l.02-5.44c0-1.35.71-2.04,1.69-2.04.63,0,1.02.33,1.2.8.04.09.11.3.11,1.04v5.65h2.4v-5.59c0-1.22.7-1.93,1.66-1.93.83,0,1.37.52,1.37,1.63v5.89h2.38l-.02-6.61c-.05-1.98-1.25-3.11-2.89-3.11-1.23,0-2.2.61-2.75,1.65-.46-.98-1.44-1.65-2.62-1.65s-2.04.55-2.5,1.5l-.09-1.18-2.34-.02-.02,9.43ZM101.34,154.15c.05.37.16.78.32,1.07h2.43c-.14-.13-.37-.56-.37-1.33l-.03-4.82c-.02-.83-.07-1.07-.12-1.28-.37-1.3-1.37-2.33-3.8-2.33-2.8,0-3.89,1.5-3.89,3.15l2.13.04c.09-.63.18-.76.37-.95.23-.22.69-.44,1.41-.44,1.13,0,1.55.63,1.55,1.07s-.26.76-.91.89l-2.43.44c-1.81.33-2.66,1.57-2.66,2.81,0,1.63,1.2,3.02,3.36,3.02,1.5,0,2.31-.63,2.66-1.35ZM101.34,150.2v1.41c-.07,1.18-.83,2-2.13,2-1.02,0-1.5-.63-1.5-1.18,0-.45.21-1.02,1.64-1.39l1.04-.3c.39-.09.72-.3.95-.54ZM99.89,144.67l2.41.02.02-2.57h-2.41l-.02,2.55ZM96.76,144.67h2.41l.02-2.57h-2.43v2.57ZM80.1,151.2l6.66.02c0-2.8-1.22-5.76-4.54-5.76s-4.51,2.87-4.51,5.02c0,3.13,1.97,5.07,4.49,5.07s4.03-1.43,4.39-3.07l-2.41-.17c-.46.87-1.09,1.22-1.87,1.22-1.15,0-2.08-.82-2.2-2.33ZM80.2,149.37c.14-1.15,1.04-1.93,1.96-1.93.99,0,1.83.7,1.99,1.93h-3.95ZM73.55,154.26l.09.96h2.4v-13.11h-2.43v4.76c-.42-.74-1.44-1.37-2.59-1.37-1.99,0-3.98,1.76-3.98,5.05,0,1.5.46,2.74,1.16,3.61.74.95,1.67,1.37,2.73,1.37s1.99-.44,2.62-1.28ZM71.65,153.35c-1.15,0-2.13-.85-2.13-2.85,0-2.24,1.04-3.04,2.03-3.04s2.03.8,2.03,2.96-1.02,2.91-1.92,2.93ZM57.31,155.22h2.41l.02-5.28c0-.74.14-1.09.33-1.39.32-.48.88-.8,1.46-.8.83,0,1.44.57,1.44,1.63l-.02,5.83h2.41v-6.65c0-1.76-1.23-3.11-3.08-3.11-1.29,0-2.18.72-2.5,1.46l-.11-1.11-2.36-.02-.02,9.43ZM52.84,154.15c.04.46.14.8.28,1.07h2.47c-.32-.39-.41-.67-.41-.98v-5.17c0-2.26-1.11-3.61-4.03-3.61-2.71,0-3.84,1.56-3.79,3.15l2.13.04c0-.7.49-1.37,1.73-1.37s1.57.61,1.57,1.06c0,.39-.23.74-.88.87l-1.37.24c-1.97.37-2.5.76-2.89,1.11-.53.5-.83,1.2-.83,1.96,0,1.56,1.16,2.96,3.43,2.96,1.3,0,2.08-.46,2.59-1.33ZM52.85,150.26l-.02,1.18c0,1.33-.79,2.17-2.17,2.17-1.02,0-1.5-.63-1.5-1.2,0-.44.14-.94,1.66-1.39l1.06-.3c.46-.13.76-.31.97-.46ZM45.28,155.22v-1.94h-.9c-.3,0-.58-.17-.7-.35-.05-.07-.12-.22-.12-.74v-4.67h1.64v-1.72h-1.62l-.02-2.98h-2.4v2.98h-1.27v1.74l1.27-.02v4.87c0,2.13.83,2.83,2.17,2.83h1.96ZM36.21,154.15c.05.37.16.78.32,1.07h2.43c-.14-.13-.37-.56-.37-1.33l-.04-4.82c-.02-.83-.07-1.07-.12-1.28-.37-1.3-1.37-2.33-3.8-2.33-2.8,0-3.89,1.5-3.89,3.15l2.13.04c.09-.63.18-.76.37-.95.23-.22.69-.44,1.41-.44,1.13,0,1.55.63,1.55,1.07s-.26.76-.92.89l-2.43.44c-1.81.33-2.66,1.57-2.66,2.81,0,1.63,1.2,3.02,3.36,3.02,1.5,0,2.31-.63,2.66-1.35ZM36.21,150.2v1.41c-.07,1.18-.83,2-2.13,2-1.02,0-1.5-.63-1.5-1.18,0-.45.21-1.02,1.64-1.39l1.04-.3c.39-.09.72-.3.95-.54ZM34.77,144.67l2.41.02.02-2.57h-2.41l-.02,2.55ZM31.64,144.67h2.41l.02-2.57h-2.43v2.57ZM24.59,155.22h2.41l.02-4.18c0-1.41.32-2.06.72-2.5.44-.5.97-.74,1.64-.74.14,0,.27.02.41.04l.02-2.24c-.12-.02-.32-.06-.53-.06-1.04,0-1.95.7-2.24,1.68l-.07-1.43h-2.36l-.02,9.43Z"/>
  <polyline class="cls-2" points="20.22 116.12 76.5 18.53 132.78 116.12 20.22 116.12"/>
  <path class="cls-3" d="M55.12,78.25l18.22,2.12c4.86.33,5.61-6.52.79-7.24l-18.24-1.88v-.2c-.04-1.14-1.65-1.05-1.77,0l-.77,7c-.12,1.05,1.42,1.46,1.72.39l.05-.19ZM74.01,74.38l-18.24-1.94-.51,4.61h20.87l.02-.32c0-.96-.62-1.88-1.52-2.21-.2-.07-.41-.13-.62-.15Z"/>
  <path class="cls-3" d="M48.86,102.94c.05,0,.11,0,.16.02,1.3.42,2.27,5.48,5.12,3,.21-.19.39-.41.59-.6.86-.83,1.6-.16,2.08-.86.03-.04.06-.09.08-.14.35-1.04.67-1.26,1.8-1.4.17-.02.35-.02.53-.02h7.83v7.33h-32.52v-7.33h14.35"/>
  <path class="cls-3" d="M53.37,80.75c.4,0,.61.42.71.78l1.52,5.46c.42,1.5-.54,3.26-2.22,3.26s-2.59-1.7-2.18-3.26l1.44-5.46c.1-.36.3-.78.73-.78"/>
  <path class="cls-3" d="M88.59,61.7l-1.55-6.87c-.28-1.02-1.71-.87-1.76.19l.03.2-17.91,3.93c-4.71,1.28-3.2,7.98,1.6,7.12l17.86-4.18.07.19c.39,1.1,1.91.46,1.67-.58ZM85.57,56.38l-17.92,4c-.72.13-1.38.69-1.66,1.35l-.11.31h15.8l4.91-1.13-1.02-4.52Z"/>
  <path class="cls-3" d="M89.29,65.28c.42,0,.63.41.72.77l1.45,5.51c.4,1.51-.51,3.24-2.17,3.23-1.61-.01-2.58-1.72-2.18-3.23l1.45-5.51c.1-.36.31-.77.73-.77"/>
  <path class="cls-3" d="M89.34,79.99c.4,0,.56.42.66.78l1.45,5.45c.39,1.48-.53,3.28-2.1,3.28-1.7,0-2.65-1.76-2.24-3.28l1.45-5.45c.1-.36.39-.78.79-.78"/>
  <path class="cls-3" d="M92.18,93.33c-.5-.56-.8-1.29-.79-2.04l.02-.06-.08.04c-2.89,1.64-6.15-.56-6.6-3.61l-.04-.23-5.99-.99c-.19-.03-.37-.11-.56-.13-5.21-.67-10.54-.02-15.81-.03-3.9,0-3.89,5.84,0,5.84h14.89c.66,0,7,4.82,10.43,7.34,1.09.8,1.43,2.07.38,3.04-.04.04-.09.08-.15.09-4.1.79-8.09.38-9.33,5.01-.11.42-.15.85-.11,1.27.04.51-.04.8.32,1.17.04.04.08.05.12.09.38.3.86.07,1.28.03.42-.04.83-.15,1.24-.21,8.5-1.16,10.09-2.05,17.88-5.8.15-.07.31-.15.46-.22l15.21-7.04-7.06-12.26-6.57,3.75c-1.32.67-2.73,1.3-4.25,1.07l-.23-.02.17.38c1.71,2.9-1.92,5.94-4.51,3.83-.11-.09-.22-.19-.32-.3"/>
  <path class="cls-3" d="M71.09,100.66l-.06-.09-.05-.09c-.2-.36-.28-.78-.25-1.19l.04-.2.05-.2c.3-.94.85-1.16,1.65-1.71l7.24-1.94,1.43.95-7.12,5.03c-.82.57-1.91.43-2.65-.23l-.14-.16-.13-.16"/>
  <path class="cls-3" d="M78.59,94.48l-1.81-1.22h-10.71c-.81.46-1.29,1.45-1.09,2.37l.04.18.06.22c.34.96,1.31,1.55,2.32,1.42l.11-.02.11-.02,10.98-2.93"/>
  <path class="cls-3" d="M53.35,91.99c.4,0,.61.42.71.78l1.52,5.46c.42,1.5-.54,3.26-2.22,3.26s-2.59-1.7-2.18-3.26l1.44-5.46c.1-.36.3-.78.73-.78"/>
</svg>