<svg xmlns="http://www.w3.org/2000/svg" viewBox="0 0 595.28 850.36"><defs><style>.a{fill:#fcc00d;}.a,.b{fill-rule:evenodd;}.b{fill:#000100;}</style></defs><title>W023_C</title><polyline class="a" points="0 850.36 595.28 850.36 595.28 0 0 0 0 850.36"/><path class="b" d="M78.63,495.56L297.46,116.11,516.29,495.56H78.63Zm478.93,8.58L310.57,76a15.15,15.15,0,0,0-26.25,0l-247,428.17A15.2,15.2,0,0,0,50.44,527h494A15.21,15.21,0,0,0,557.56,504.14Z"/><path class="b" d="M42.24,643.92H52.76V622.18H75v-8.35H52.83V601.44H79v-8.5H42.24v51ZM525.71,628.3l27.22,0.07c0-10.87-5-22.39-18.57-22.39-14,0-18.43,11.16-18.43,19.51,0,12.17,8.06,19.73,18.36,19.73s16.49-5.54,17.93-11.95l-9.87-.65c-1.87,3.38-4.46,4.75-7.63,4.75C530,637.37,526.21,634.2,525.71,628.3Zm0.43-7.13a8.37,8.37,0,0,1,8-7.49c4,0,7.49,2.74,8.13,7.49H526.14Zm-50,22.75H486l0.07-20.52c0-2.88.58-4.25,1.37-5.4a7.4,7.4,0,0,1,6-3.1c3.38,0,5.9,2.23,5.9,6.33l-0.07,22.68h9.87V618.07c0-6.84-5-12.1-12.6-12.1-5.26,0-8.93,2.81-10.22,5.69l-0.43-4.32-9.65-.07Zm-61.34,0h9.86l0.07-21.17c0-5.25,2.88-7.92,6.91-7.92a4.88,4.88,0,0,1,4.9,3.1c0.14,0.36.43,1.15,0.43,4v22h9.79V622.18c0-4.75,2.88-7.49,6.77-7.49,3.38,0,5.61,2,5.61,6.34v22.9h9.72l-0.07-25.7c-0.21-7.7-5.11-12.1-11.81-12.1a12.3,12.3,0,0,0-11.23,6.41,11.75,11.75,0,0,0-10.73-6.41c-5,0-8.35,2.16-10.22,5.83l-0.36-4.61-9.58-.07Zm-18.29-4.18a12.89,12.89,0,0,0,1.3,4.18h9.93c-0.58-.51-1.51-2.16-1.51-5.18L406.12,620a18.36,18.36,0,0,0-.51-5c-1.51-5-5.61-9.07-15.55-9.07-11.45,0-15.91,5.83-15.91,12.24l8.71,0.14c0.36-2.45.72-3,1.51-3.67s2.81-1.73,5.76-1.73c4.61,0,6.33,2.45,6.33,4.18s-1.08,3-3.74,3.46l-9.94,1.73c-7.42,1.29-10.87,6.12-10.87,10.95,0,6.33,4.9,11.74,13.75,11.74C391.79,645,395.1,642.55,396.54,639.74Zm0-15.34v5.47c-0.29,4.61-3.38,7.78-8.71,7.78-4.18,0-6.12-2.45-6.12-4.61,0-1.73.86-4,6.7-5.4l4.25-1.15A8.09,8.09,0,0,0,396.54,624.41Zm-5.9-21.53L400.5,603l0.07-10h-9.86Zm-12.82,0h9.86l0.07-10h-9.94v10ZM309.71,628.3l27.22,0.07c0-10.87-5-22.39-18.57-22.39-14,0-18.43,11.16-18.43,19.51,0,12.17,8.06,19.73,18.36,19.73s16.49-5.54,17.93-11.95l-9.86-.65c-1.87,3.38-4.46,4.75-7.63,4.75C314,637.37,310.22,634.2,309.71,628.3Zm0.44-7.13a8.37,8.37,0,0,1,8-7.49c4,0,7.49,2.74,8.13,7.49H310.15Zm-27.22,19,0.36,3.74h9.79v-51h-9.94v18.5c-1.73-2.88-5.9-5.33-10.58-5.33-8.13,0-16.27,6.84-16.27,19.66a21.39,21.39,0,0,0,4.75,14,13.88,13.88,0,0,0,11.16,5.33A13.2,13.2,0,0,0,282.93,640.18Zm-7.78-3.53c-4.68,0-8.71-3.31-8.71-11.09,0-8.71,4.25-11.81,8.28-11.81s8.28,3.1,8.28,11.52C283,633.34,278.83,636.57,275.16,636.65Zm-58.61,7.27h9.86l0.07-20.52c0-2.88.58-4.25,1.37-5.4a7.4,7.4,0,0,1,6-3.1c3.38,0,5.9,2.23,5.9,6.33l-0.07,22.68h9.86V618.07c0-6.84-5-12.1-12.6-12.1-5.26,0-8.93,2.81-10.22,5.69l-0.43-4.32-9.65-.07Zm-18.29-4.18a10.31,10.31,0,0,0,1.15,4.18H209.5a5.46,5.46,0,0,1-1.66-3.81V620c0-8.78-4.54-14-16.49-14-11.09,0-15.7,6-15.48,12.24l8.71,0.14c0-2.74,2-5.33,7.06-5.33,4.82,0,6.41,2.38,6.41,4.1,0,1.51-.94,2.88-3.6,3.38l-5.62.94c-8.06,1.44-10.23,3-11.81,4.32a10.18,10.18,0,0,0-3.38,7.63c0,6,4.75,11.52,14,11.52C193,644.93,196.18,643.13,198.26,639.74Zm0.07-15.12-0.07,4.61c0,5.18-3.24,8.42-8.85,8.42-4.18,0-6.12-2.45-6.12-4.68,0-1.73.58-3.67,6.77-5.4l4.32-1.15A12.94,12.94,0,0,0,198.34,624.63Zm-31,19.29v-7.56h-3.67a3.69,3.69,0,0,1-2.88-1.37c-0.22-.29-0.51-0.86-0.51-2.88V614H167v-6.7h-6.62l-0.07-11.59h-9.79v11.59h-5.18V614l5.18-.07V632.9c0,8.28,3.38,11,8.86,11h8Zm-37.08-4.18a13,13,0,0,0,1.29,4.18h9.94c-0.58-.51-1.51-2.16-1.51-5.18L139.87,620a18.55,18.55,0,0,0-.51-5c-1.51-5-5.61-9.07-15.55-9.07-11.45,0-15.91,5.83-15.91,12.24l8.71,0.14c0.36-2.45.72-3,1.51-3.67s2.81-1.73,5.76-1.73c4.61,0,6.34,2.45,6.34,4.18s-1.08,3-3.74,3.46l-9.94,1.73c-7.42,1.29-10.87,6.12-10.87,10.95,0,6.33,4.9,11.74,13.75,11.74C125.55,645,128.86,642.55,130.3,639.74Zm0-15.34v5.47c-0.29,4.61-3.38,7.78-8.71,7.78-4.18,0-6.12-2.45-6.12-4.61,0-1.73.86-4,6.7-5.4l4.25-1.15A8.11,8.11,0,0,0,130.3,624.41Zm-5.9-21.53,9.86,0.07,0.07-10h-9.86Zm-12.82,0h9.86l0.07-10h-9.93v10Zm-28.8,41h9.86l0.07-16.27c0-5.47,1.29-8,3-9.72a8.62,8.62,0,0,1,6.7-2.88,13.22,13.22,0,0,1,1.66.14l0.07-8.71a14.1,14.1,0,0,0-2.16-.22,9.52,9.52,0,0,0-9.15,6.55l-0.29-5.54H82.85Z"/><path class="b" d="M214.34,348.31l70.83,8.27c18.91,1.26,21.82-25.34,3.08-28.18l-70.92-7.31,0-.76c-0.14-4.43-6.41-4.1-6.86,0l-3,27.2c-0.45,4.08,5.51,5.69,6.68,1.51Zm73.43-15-70.93-7.55-2,17.95H296l0.09-1.23a9.27,9.27,0,0,0-5.92-8.58A10.34,10.34,0,0,0,287.78,333.26Z"/><path class="b" d="M190,444.31a1.88,1.88,0,0,1,.61.09c5,1.65,8.82,21.32,19.89,11.67,0.83-.72,1.52-1.59,2.31-2.35,3.36-3.23,6.21-.64,8.07-3.34a2.36,2.36,0,0,0,.3-0.56c1.38-4.06,2.61-4.9,7-5.42a17.11,17.11,0,0,1,2-.09h30.45v28.51H134.22V444.31H190"/><path class="b" d="M207.53,358c1.54,0,2.38,1.63,2.77,3l5.89,21.24c1.62,5.83-2.09,12.69-8.62,12.69s-10.07-6.61-8.47-12.69l5.59-21.24c0.37-1.42,1.16-3,2.83-3"/><path class="b" d="M344.46,283.95l-6-26.7a3.46,3.46,0,0,0-6.83.75l0.1,0.77L262,274c-18.31,5-12.46,31,6.23,27.67l69.43-16.25L338,286.2C339.49,290.49,345.37,288,344.46,283.95Zm-11.74-20.67-69.66,15.53a9.15,9.15,0,0,0-6.46,5.27l-0.42,1.19h61.42l19.08-4.4Z"/><path class="b" d="M347.19,297.87c1.63,0,2.44,1.59,2.81,3l5.62,21.42c1.54,5.87-2,12.59-8.43,12.55-6.25,0-10-6.67-8.47-12.55l5.63-21.42c0.37-1.42,1.21-3,2.84-3"/><path class="b" d="M347.39,355.08c1.54,0,2.19,1.63,2.56,3l5.62,21.17c1.53,5.76-2.05,12.74-8.19,12.74-6.59,0-10.28-6.83-8.71-12.74l5.63-21.17c0.38-1.42,1.52-3,3.08-3"/><path class="b" d="M358.44,407a11.92,11.92,0,0,1-3.09-7.95l0.09-.24-0.32.17c-11.22,6.37-23.91-2.18-25.67-14l-0.14-.9L306,380.17c-0.74-.12-1.44-0.43-2.19-0.52-20.26-2.62-41-.08-61.48-0.13-15.17,0-15.14,22.71,0,22.71h57.88c2.55,0,27.23,18.75,40.55,28.54,4.25,3.12,5.55,8.06,1.49,11.83a1.21,1.21,0,0,1-.58.34c-16,3.09-31.47,1.48-36.26,19.47a14.31,14.31,0,0,0-.42,4.95c0.17,2-.16,3.13,1.23,4.55a4.58,4.58,0,0,0,.48.33c1.47,1.15,3.35.26,5,.12s3.21-.59,4.83-0.81c33-4.51,39.23-8,69.54-22.56,0.6-.29,1.19-0.59,1.79-0.87L447,420.75l-27.46-47.65L394,387.66c-5.14,2.62-10.61,5-16.52,4.16l-0.9-.08,0.66,1.49c6.65,11.26-7.48,23.11-17.55,14.89a11.78,11.78,0,0,1-1.25-1.16"/><path class="b" d="M276.42,435.47l-0.23-.34-0.19-.33a8,8,0,0,1-1-4.62l0.14-.8,0.18-.77c1.15-3.66,3.32-4.51,6.43-6.65l28.14-7.56,5.56,3.68-27.71,19.54a8.33,8.33,0,0,1-10.3-.9l-0.56-.63-0.5-.64"/><path class="b" d="M305.6,411.42l-7-4.73H256.9a8.75,8.75,0,0,0-4.23,9.2l0.15,0.7,0.23,0.84a8.42,8.42,0,0,0,9,5.54l0.42-.07,0.42-.07,42.69-11.41"/><path class="b" d="M207.46,401.75c1.54,0,2.38,1.63,2.77,3L216.12,426c1.62,5.83-2.08,12.69-8.62,12.69S197.43,432.09,199,426l5.59-21.24c0.37-1.42,1.17-3,2.84-3"/></svg>