<svg xmlns="http://www.w3.org/2000/svg" viewBox="0 0 595.28 850.36"><defs><style>.a{fill:#fcc00d;}.a,.b{fill-rule:evenodd;}.b{fill:#000100;}</style></defs><title>W024_C</title><polyline class="a" points="0 850.36 595.28 850.36 595.28 0 0 0 0 850.36"/><path class="b" d="M78.63,495.62L297.46,116.18,516.29,495.62H78.63Zm478.94,8.58L310.57,76a15.15,15.15,0,0,0-26.25,0L37.32,504.2A15.21,15.21,0,0,0,50.44,527h494A15.21,15.21,0,0,0,557.57,504.2Z"/><path class="b" d="M152.91,643.92h10.58V625.35l5.25-5.47,16.42,24H198l-21.82-30.82L195.46,593l-13.1.07-18.86,20.23L163.35,593,152.91,593v51Zm253.29,0h9.86l-0.07-12,4.18-4.11,10.08,16.13h12l-15-22.54,13.1-14.11H428.66l-12.6,14L416,593h-9.86Zm-41-12.24c0.22,6.91,6,13.54,17.28,13.54s16.42-6.12,16.42-12.67a10.36,10.36,0,0,0-2.23-6.41c-1.37-1.73-3.17-3-7.49-4l-10.51-2.45c-2.23-.58-3.17-1.94-3.17-3.24s1.37-3.67,6.12-3.67c5.26,0,7.56,2.73,7.63,5.68l8.64-.14a12.79,12.79,0,0,0-5.26-9.65c-2.09-1.51-5.47-2.81-10.87-2.81-10.51,0-15.19,5.69-15.19,12A9.7,9.7,0,0,0,369,624.7c1.29,1.37,3,2.52,7,3.38l8,1.8c4.61,1,5.19,2.45,5.19,4.18s-1.59,4.11-7,4.11c-5.19,0-7.78-2.74-8.07-6.55Zm-16.77,12.24h9.86V607.28h-9.79Zm0.07-42.19h9.86V593h-9.86v8.78Zm-26.71,42.19h9.86l0.07-16.27c0-5.47,1.29-8,3-9.72a8.62,8.62,0,0,1,6.7-2.88,13.17,13.17,0,0,1,1.65.14l0.07-8.71a14.1,14.1,0,0,0-2.09-.22,9.54,9.54,0,0,0-9.22,6.55l-0.29-5.55h-9.65Zm-61.27,0h9.86l0.07-21.17c0-5.25,3-7.92,6.91-7.92a4.88,4.88,0,0,1,4.9,3.1c0.14,0.36.43,1.15,0.43,4v22h9.79V622.18c0-4.75,2.88-7.49,6.7-7.49,3.39,0,5.62,2,5.62,6.34v22.9h9.72l-0.07-25.7c-0.22-7.7-5.11-12.1-11.81-12.1a12.27,12.27,0,0,0-11.16,6.41,11.75,11.75,0,0,0-10.73-6.41c-5,0-8.28,2.16-10.22,5.83l-0.36-4.61-9.58-.07Zm-18.29-4.18a12.9,12.9,0,0,0,1.3,4.18h9.94c-0.58-.51-1.51-2.16-1.51-5.18L251.76,620a18.38,18.38,0,0,0-.51-5c-1.51-5-5.61-9.07-15.55-9.07-11.37,0-15.91,5.83-15.91,12.24l8.71,0.14c0.36-2.45.72-3,1.51-3.67s2.81-1.73,5.76-1.73c4.61,0,6.33,2.45,6.33,4.18s-1.08,3-3.74,3.46l-9.93,1.73c-7.42,1.29-10.87,6.12-10.87,10.95,0,6.33,4.9,11.74,13.75,11.74C237.43,645,240.82,642.56,242.18,639.75Zm0-15.34v5.47c-0.29,4.61-3.38,7.78-8.71,7.78-4.18,0-6.12-2.45-6.12-4.61,0-1.73.86-4,6.7-5.4l4.25-1.15A8.09,8.09,0,0,0,242.18,624.41Zm-5.9-21.53,9.94,0.07V593h-9.86Zm-12.82,0h9.86l0.07-10h-9.86Zm-21.67,41h9.86V593h-9.79Z"/><path class="b" d="M247.62,439.63l71.73,0.24c2.69,0,2.16,3.8-.23,3.8H269.87c-10.9,0-10.9,16.35,0,16.35h90.55c15.22,0,31.43-3.36,41.2-15.83l0.86-1.1h24V381.25h-24c-10.44-13.63-27.71-17-44-16.93H283.58l0.09,0.79a16.08,16.08,0,0,0,14.71,14.15c1,0.09,13.83.08,20.74,0.08,2.39,0,2.93,3.8.23,3.8H249.68c-10.66,0-11.57,16.37-.39,16.37h69.82c2.39,0,2.93,3.8.23,3.8H238.26c-10.66,0-11.6,16.38-.4,16.38h81.25c2.41,0,2.94,3.82.23,3.82H249.68c-9.61,0-12.68,14.64-2.06,16.12"/><polyline class="b" points="176.25 474.86 279.97 474.86 279.97 464 176.25 464 176.25 474.86"/><polyline class="b" points="175.88 379.33 279.79 379.33 279.79 368.31 175.88 368.31 175.88 379.33"/><polyline class="b" points="237.09 294.16 237.09 337.85 249.96 337.85 227.99 362.22 206.07 337.85 218.91 337.85 218.91 294.16 237.09 294.16"/></svg>