<?xml version="1.0" encoding="UTF-8"?>
<svg id="Lager_1" data-name="Lager 1" xmlns="http://www.w3.org/2000/svg" viewBox="0 0 153.09 218.69">
  <defs>
    <style>
      .cls-1 {
        fill: #fff;
      }

      .cls-1, .cls-2, .cls-3 {
        fill-rule: evenodd;
      }

      .cls-2 {
        fill: #fcbd0e;
      }

      .cls-3 {
        fill: #1d1f22;
      }
    </style>
  </defs>
  <polyline class="cls-1" points="0 218.69 153.09 218.69 153.09 0 0 0 0 218.69"/>
  <path class="cls-3" d="M143.39,118.34L79.87,8.22c-1.5-2.6-5.25-2.6-6.75,0L9.6,118.34c-1.5,2.6.36,5.87,3.38,5.87h127.04c3.01,0,4.88-3.27,3.38-5.87"/>
  <polyline class="cls-2" points="10.18 133.07 142.92 133.07 142.92 208.69 10.18 208.69 10.18 133.07"/>
  <path class="cls-3" d="M39.32,155.25h2.72v-4.78l1.35-1.41,4.22,6.18h3.3l-5.61-7.92,4.96-5.18-3.37.02-4.85,5.2-.04-5.2-2.68-.02v13.11ZM104.46,155.25h2.54l-.02-3.09,1.07-1.05,2.59,4.15h3.09l-3.87-5.8,3.37-3.63h-3l-3.24,3.59-.02-7.28h-2.54l.02,13.11ZM93.91,152.1c.06,1.78,1.54,3.48,4.44,3.48s4.22-1.57,4.22-3.26c0-.59-.2-1.18-.57-1.65-.35-.44-.81-.78-1.93-1.04l-2.7-.63c-.57-.15-.82-.5-.82-.83,0-.37.35-.95,1.57-.95,1.35,0,1.94.7,1.96,1.46l2.22-.04c-.04-.94-.54-1.89-1.35-2.48-.54-.39-1.41-.72-2.8-.72-2.7,0-3.91,1.46-3.91,3.07,0,.76.22,1.3.65,1.78.33.35.76.65,1.8.87l2.05.46c1.19.26,1.33.63,1.33,1.07,0,.41-.41,1.05-1.8,1.05s-2-.7-2.07-1.68l-2.31.02ZM89.59,155.25h2.54v-9.42h-2.52l-.02,9.42ZM89.61,144.4h2.54v-2.26h-2.54v2.26ZM82.74,155.25h2.54l.02-4.18c0-1.41.33-2.05.76-2.5.46-.5,1.02-.74,1.72-.74.15,0,.28.02.43.04l.02-2.24c-.13-.02-.33-.05-.54-.05-1.11,0-2.07.7-2.37,1.68l-.07-1.43h-2.48l-.02,9.42ZM66.98,155.25h2.54l.02-5.44c0-1.35.76-2.04,1.78-2.04.67,0,1.07.33,1.26.8.04.09.11.3.11,1.04v5.65h2.52v-5.59c0-1.22.74-1.93,1.72-1.93.87,0,1.44.52,1.44,1.63v5.89h2.5l-.02-6.61c-.06-1.98-1.32-3.11-3.04-3.11-1.28,0-2.3.61-2.87,1.65-.48-.98-1.52-1.65-2.76-1.65s-2.13.55-2.63,1.5l-.09-1.18-2.46-.02-.02,9.42ZM62.28,154.17c.06.37.17.78.33,1.07h2.56c-.15-.13-.39-.56-.39-1.33l-.04-4.81c-.02-.83-.07-1.07-.13-1.28-.39-1.3-1.44-2.33-4-2.33-2.93,0-4.09,1.5-4.09,3.15l2.24.04c.09-.63.19-.76.39-.94.24-.22.72-.44,1.48-.44,1.18,0,1.63.63,1.63,1.07s-.28.76-.96.89l-2.55.45c-1.91.33-2.8,1.57-2.8,2.81,0,1.63,1.26,3.02,3.54,3.02,1.57,0,2.44-.63,2.8-1.35ZM62.28,150.23v1.41c-.07,1.18-.87,2-2.24,2-1.07,0-1.57-.63-1.57-1.18,0-.45.22-1.02,1.72-1.39l1.09-.3c.41-.09.76-.3,1-.54ZM60.76,144.7l2.56.02v-2.57h-2.54l-.02,2.56ZM57.47,144.7h2.54l.02-2.57h-2.54l-.02,2.57ZM51.9,155.25h2.54v-13.11h-2.52l-.02,13.11Z"/>
  <polyline class="cls-2" points="20.22 116.13 76.5 18.55 132.77 116.13 20.22 116.13"/>
  <path class="cls-3" d="M63.68,101.73l18.45.06c.69,0,.56.98-.06.98h-12.66c-2.8,0-2.8,4.2,0,4.2h23.29c3.91,0,8.08-.86,10.6-4.07l.22-.28h6.17v-15.9h-6.17c-2.68-3.51-7.13-4.36-11.31-4.36h-19.27l.02.2c.23,1.96,1.82,3.48,3.78,3.64.27.02,3.56.02,5.33.02.61,0,.75.98.06.98h-17.92c-2.74,0-2.97,4.21-.1,4.21h17.96c.61,0,.75.98.06.98h-20.85c-2.74,0-2.98,4.21-.1,4.21h20.9c.62,0,.76.98.06.98h-17.92c-2.47,0-3.26,3.77-.53,4.15"/>
  <polyline class="cls-3" points="45.33 110.79 72 110.79 72 108 45.33 108 45.33 110.79"/>
  <polyline class="cls-3" points="45.23 86.23 71.95 86.23 71.95 83.39 45.23 83.39 45.23 86.23"/>
  <polyline class="cls-3" points="60.97 64.32 60.97 75.56 64.28 75.56 58.63 81.83 52.99 75.56 56.3 75.56 56.3 64.32 60.97 64.32"/>
</svg>