<?xml version="1.0" encoding="UTF-8"?>
<svg id="Lager_1" data-name="Lager 1" xmlns="http://www.w3.org/2000/svg" viewBox="0 0 153.09 218.69">
  <defs>
    <style>
      .cls-1 {
        fill: #fff;
      }

      .cls-1, .cls-2, .cls-3 {
        fill-rule: evenodd;
      }

      .cls-2 {
        fill: #fcbd0e;
      }

      .cls-3 {
        fill: #1d1f22;
      }
    </style>
  </defs>
  <polyline class="cls-1" points="0 218.69 153.09 218.69 153.09 0 0 0 0 218.69"/>
  <path class="cls-3" d="M140.08,124.16H12.92c-2.96,0-4.81-3.21-3.33-5.77L73.12,8.26c1.49-2.58,5.22-2.58,6.71,0l63.58,110.13c1.48,2.56-.36,5.77-3.33,5.77"/>
  <polyline class="cls-2" points="132.73 116.08 76.49 18.62 20.25 116.08 132.73 116.08"/>
  <path class="cls-3" d="M76.47,105.5c-9.59,0-17.42-7.79-17.42-17.37s7.83-17.43,17.42-17.43,17.42,7.79,17.42,17.43-7.78,17.37-17.42,17.37ZM76.47,108.64c-11.31,0-20.51-9.2-20.51-20.51s9.2-20.56,20.51-20.56,20.55,9.2,20.55,20.56-9.2,20.51-20.55,20.51Z"/>
  <path class="cls-3" d="M68.24,54.21c.39-4.55,4.41-7.93,8.96-7.49,4.55.39,7.88,4.41,7.48,8.91-.39,4.55-4.4,7.93-8.91,7.54-4.55-.39-7.93-4.4-7.54-8.96ZM65.3,53.97c.54-6.22,5.97-10.77,12.14-10.23,6.21.54,10.77,5.98,10.23,12.19-.54,6.17-5.97,10.72-12.19,10.18-6.17-.54-10.72-5.97-10.18-12.14Z"/>
  <path class="cls-3" d="M71.42,99.14l-.15-.1c-4.11-1.91-7-6.07-7-10.91,0-3.77,1.71-7.1,4.4-9.35l.3-.15-5.44,1.47-.24-.93,8.66-2.35-2.35,8.66-.88-.24,1.76-6.56c-3.18,1.96-5.29,5.43-5.29,9.45,0,4.45,2.64,8.32,6.46,10.08l.14.1-.39.83"/>
  <path class="cls-3" d="M72.5,59.01c-1.08-1.03-1.71-2.49-1.71-4.06,0-2.3,1.32-4.26,3.28-5.19l.2-.1.34.68-.25.1c-1.71.78-2.89,2.5-2.89,4.5,0,1.62.83,3.09,2.06,3.96l-.78-2.74.73-.2,1.18,4.36-4.35-1.17.14-.69,2.06.54"/>
  <polyline class="cls-2" points="10.19 133.08 142.93 133.08 142.93 208.69 10.19 208.69 10.19 133.08"/>
  <path class="cls-3" d="M34.75,147.95v-3.63h3c.72,0,.93.09,1.22.26.52.33.83.98.83,1.57,0,1-.78,1.83-2.15,1.82l-2.91-.02ZM114.05,151.21l6.98.02c0-2.8-1.26-5.76-4.78-5.76s-4.72,2.87-4.72,5.02c0,3.13,2.07,5.07,4.7,5.07s4.24-1.42,4.63-3.07l-2.54-.17c-.5.87-1.15,1.22-1.96,1.22-1.2,0-2.19-.82-2.31-2.33ZM114.15,149.38c.17-1.15,1.11-1.93,2.07-1.93,1.04,0,1.93.7,2.09,1.93h-4.17ZM107.13,154.27l.11.96h2.52l-.02-13.11h-2.54v4.76c-.46-.74-1.52-1.37-2.72-1.37-2.11,0-4.18,1.76-4.18,5.05,0,1.5.48,2.74,1.22,3.61.78.94,1.74,1.37,2.87,1.37s2.07-.45,2.74-1.28ZM105.13,153.36c-1.18,0-2.24-.85-2.24-2.85,0-2.24,1.09-3.04,2.15-3.04s2.13.8,2.13,2.96-1.09,2.91-2.04,2.93ZM90.07,155.23h2.54l.02-5.28c0-.74.15-1.09.35-1.39.33-.48.93-.8,1.54-.8.87,0,1.5.57,1.5,1.63v5.83h2.54v-6.65c0-1.76-1.3-3.11-3.26-3.11-1.35,0-2.3.72-2.61,1.46l-.11-1.11-2.48-.02-.02,9.42ZM85.35,154.16c.06.46.17.8.31,1.07h2.57c-.31-.39-.41-.67-.43-.98l.02-5.17c0-2.26-1.19-3.61-4.24-3.61-2.85,0-4.04,1.56-4,3.15l2.24.04c0-.7.54-1.37,1.83-1.37s1.65.61,1.65,1.05c0,.39-.24.74-.92.87l-1.45.24c-2.09.37-2.65.76-3.04,1.11-.57.5-.87,1.2-.87,1.96,0,1.55,1.22,2.96,3.61,2.96,1.37,0,2.17-.46,2.7-1.33ZM85.37,150.27l-.02,1.18c0,1.33-.81,2.17-2.28,2.17-1.05,0-1.55-.63-1.55-1.2,0-.45.15-.95,1.74-1.39l1.09-.3c.5-.13.81-.32,1.02-.46ZM73.17,155.23h2.54v-4.18c0-1.41.35-2.06.76-2.5.46-.5,1.02-.74,1.7-.74.15,0,.3.02.45.04v-2.24c-.13-.02-.33-.06-.54-.06-1.11,0-2.04.7-2.33,1.68l-.07-1.42h-2.5v9.42ZM64.39,151.21l6.98.02c0-2.8-1.26-5.76-4.78-5.76s-4.72,2.87-4.72,5.02c0,3.13,2.07,5.07,4.7,5.07s4.24-1.42,4.63-3.07l-2.54-.17c-.5.87-1.15,1.22-1.96,1.22-1.2,0-2.19-.82-2.31-2.33ZM64.49,149.38c.17-1.15,1.11-1.93,2.07-1.93,1.04,0,1.93.7,2.09,1.93h-4.17ZM60.56,155.23v-1.94h-.94c-.3,0-.59-.17-.72-.35-.05-.07-.13-.22-.13-.74v-4.67h1.72v-1.72h-1.72l-.02-2.98h-2.52v2.98h-1.31v1.74l1.33-.02v4.87c0,2.13.87,2.83,2.26,2.83h2.05ZM48.84,155.58c2.85,0,4.94-2.02,4.94-5.09s-2.05-5.04-4.98-5.04-4.93,2.04-4.93,5.02,2.09,5.11,4.96,5.11ZM48.82,153.6c-1.2,0-2.37-.93-2.37-3.02,0-2.26,1.13-3.15,2.37-3.15s2.39.91,2.39,3.05-1.15,3.11-2.39,3.11ZM32.05,155.23h2.7l.02-5.18,2.37.02c.95,0,1.61.41,2,1.07.15.26.2.56.26.83.28,1.07-.02,2.24.5,3.26h2.76c-.19-.3-.37-.83-.43-1.37l-.22-2.32c-.07-.94-.3-1.35-.65-1.74-.43-.43-1.07-.74-1.74-.8,1.7-.18,2.85-1.46,2.85-3.22,0-2.06-1.63-3.81-4.41-3.67h-6l-.02,13.11Z"/>
  <path class="cls-3" d="M54.08,177.31h2.5l3.22-9.42h-2.57l-1.89,6.2-1.87-6.19h-2.57l3.19,9.41ZM96.68,177.31h2.54l.02-4.18c0-1.41.33-2.05.76-2.5.46-.5,1.02-.74,1.72-.74.15,0,.28.02.43.04l.02-2.24c-.13-.02-.33-.05-.56-.05-1.09,0-2.06.7-2.35,1.68l-.07-1.43h-2.48l-.02,9.42ZM91.98,176.24c.04.46.15.8.3,1.07h2.59c-.33-.39-.43-.67-.43-.98v-5.17c0-2.26-1.17-3.61-4.24-3.61-2.85,0-4.04,1.55-3.98,3.15l2.24.04c0-.7.52-1.37,1.82-1.37s1.65.61,1.65,1.05c0,.39-.24.74-.93.87l-1.44.24c-2.07.37-2.63.76-3.04,1.11-.56.5-.87,1.2-.87,1.96,0,1.55,1.22,2.96,3.61,2.96,1.37,0,2.18-.46,2.72-1.33ZM92,172.35l-.02,1.18c0,1.33-.83,2.17-2.28,2.17-1.07,0-1.57-.63-1.57-1.2,0-.44.15-.94,1.74-1.39l1.11-.3c.48-.13.8-.32,1.02-.46ZM75.56,174.16c.06,1.78,1.52,3.48,4.43,3.48s4.22-1.57,4.22-3.26c0-.59-.2-1.18-.57-1.65-.35-.44-.81-.78-1.93-1.04l-2.7-.63c-.57-.15-.81-.5-.81-.83,0-.37.35-.94,1.57-.94,1.35,0,1.94.7,1.96,1.46l2.22-.04c-.04-.94-.54-1.89-1.35-2.48-.54-.39-1.41-.72-2.8-.72-2.7,0-3.89,1.46-3.89,3.07,0,.76.22,1.3.63,1.78.33.35.76.65,1.8.87l2.06.46c1.19.26,1.33.63,1.33,1.07,0,.41-.41,1.05-1.8,1.05s-2-.7-2.07-1.68l-2.3.02ZM71.24,177.31h2.54v-13.11h-2.52l-.02,13.11ZM66.54,176.24c.04.46.15.8.3,1.07h2.59c-.33-.39-.43-.67-.43-.98v-5.17c0-2.26-1.17-3.61-4.24-3.61-2.85,0-4.04,1.55-3.98,3.15l2.24.04c0-.7.52-1.37,1.81-1.37s1.65.61,1.65,1.05c0,.39-.24.74-.93.87l-1.44.24c-2.07.37-2.63.76-3.04,1.11-.56.5-.87,1.2-.87,1.96,0,1.55,1.22,2.96,3.61,2.96,1.37,0,2.18-.46,2.72-1.33ZM66.56,172.35l-.02,1.18c0,1.33-.83,2.17-2.28,2.17-1.07,0-1.57-.63-1.57-1.2,0-.44.15-.94,1.74-1.39l1.11-.3c.48-.13.8-.32,1.02-.46Z"/>
</svg>