<svg xmlns="http://www.w3.org/2000/svg" viewBox="0 0 595.28 850.36"><defs><style>.a{fill:#fcc00d;}.a,.b{fill-rule:evenodd;}.b{fill:#000100;}</style></defs><title>W025_C</title><polyline class="a" points="0 850.36 595.28 850.36 595.28 0 0 0 0 850.36"/><path class="b" d="M135.12,615.62V601.51h11.66c2.81,0,3.6.36,4.75,1a7.52,7.52,0,0,1,3.24,6.12c0,3.89-3,7.13-8.35,7.06ZM443.49,628.3l27.14,0.07c0-10.87-4.9-22.39-18.57-22.39-14,0-18.36,11.16-18.36,19.51,0,12.17,8.06,19.73,18.29,19.73s16.49-5.54,18-11.95l-9.86-.65c-1.94,3.38-4.46,4.75-7.63,4.75C447.81,637.37,444,634.2,443.49,628.3Zm0.36-7.13a8.5,8.5,0,0,1,8.06-7.49c4,0,7.49,2.74,8.13,7.49h-16.2Zm-27.29,19,0.43,3.74h9.79l-0.07-51h-9.87v18.5c-1.8-2.88-5.9-5.33-10.58-5.33-8.21,0-16.27,6.84-16.27,19.66a21.39,21.39,0,0,0,4.75,14,13.78,13.78,0,0,0,11.16,5.33A13.06,13.06,0,0,0,416.56,640.17Zm-7.78-3.53c-4.61,0-8.71-3.31-8.71-11.09,0-8.71,4.25-11.81,8.35-11.81s8.28,3.1,8.28,11.52C416.7,633.34,412.46,636.57,408.78,636.65Zm-58.53,7.27h9.87l0.07-20.52c0-2.88.58-4.25,1.37-5.4a7.4,7.4,0,0,1,6-3.1c3.38,0,5.83,2.23,5.83,6.33v22.68h9.86V618.07c0-6.84-5-12.1-12.67-12.1-5.25,0-8.93,2.81-10.15,5.69L360,607.34l-9.65-.07Zm-18.36-4.18a11.55,11.55,0,0,0,1.22,4.18h10a6.21,6.21,0,0,1-1.66-3.81L341.54,620c0-8.78-4.61-14-16.49-14-11.09,0-15.69,6-15.55,12.24l8.71,0.14c0-2.74,2.09-5.33,7.13-5.33,4.83,0,6.41,2.38,6.41,4.1,0,1.51-.93,2.88-3.6,3.38l-5.62.94c-8.13,1.44-10.29,3-11.81,4.32a9.94,9.94,0,0,0-3.38,7.63c0,6,4.75,11.52,14,11.52C326.71,644.93,329.8,643.13,331.89,639.74ZM332,624.63l-0.07,4.61c0,5.18-3.17,8.42-8.85,8.42-4.1,0-6-2.45-6-4.68,0-1.73.58-3.67,6.77-5.4l4.25-1.15A11.46,11.46,0,0,0,332,624.63Zm-47.45,19.29h9.87V627.65c0-5.47,1.37-8,3-9.72A8.57,8.57,0,0,1,304,615a14.42,14.42,0,0,1,1.73.14v-8.71a14.17,14.17,0,0,0-2.09-.22,9.36,9.36,0,0,0-9.07,6.55l-0.29-5.54h-9.72v36.65ZM250.39,628.3l27.14,0.07c0-10.87-4.9-22.39-18.58-22.39-14,0-18.36,11.16-18.36,19.51,0,12.17,8.06,19.73,18.29,19.73s16.49-5.54,18-11.95l-9.86-.65c-1.94,3.38-4.46,4.75-7.63,4.75C254.71,637.37,250.89,634.2,250.39,628.3Zm0.36-7.13a8.5,8.5,0,0,1,8.06-7.49c4,0,7.49,2.74,8.13,7.49h-16.2Zm-15.26,22.75v-7.56h-3.67A3.66,3.66,0,0,1,229,635c-0.21-.29-0.5-0.86-0.5-2.88V614h6.7v-6.7h-6.7l-0.07-11.59h-9.79v11.59h-5.11V614l5.18-.07V632.9c0,8.28,3.38,11,8.78,11h8Zm-45.58,1.37c11.09,0,19.22-7.85,19.22-19.8,0-11.59-8-19.58-19.37-19.58-11.09,0-19.15,7.92-19.15,19.51C170.62,637.51,178.75,645.29,189.91,645.29Zm-0.07-7.71c-4.68,0-9.22-3.6-9.22-11.74,0-8.78,4.39-12.24,9.22-12.24s9.29,3.53,9.29,11.88C199.13,634.05,194.66,637.58,189.84,637.58Zm-65.23,6.34h10.51l0.07-20.16,9.22,0.07a8.45,8.45,0,0,1,7.78,4.18,10.51,10.51,0,0,1,1,3.24c1.08,4.18-.07,8.71,1.94,12.67h10.73a13.7,13.7,0,0,1-1.66-5.33l-0.86-9c-0.29-3.67-1.15-5.25-2.52-6.77a11.17,11.17,0,0,0-6.77-3.1c6.62-.72,11.09-5.69,11.09-12.53,0-8-6.33-14.83-17.14-14.26H124.68Z"/><path class="b" d="M210.28,731H220l12.53-36.65h-10l-7.34,24.12-7.27-24h-10Zm165.66,0h9.86l0.07-16.27c0-5.47,1.29-8,3-9.72a8.62,8.62,0,0,1,6.7-2.88,13.29,13.29,0,0,1,1.66.14l0.07-8.71a14.15,14.15,0,0,0-2.16-.22A9.52,9.52,0,0,0,386,699.9l-0.29-5.54H376Zm-18.29-4.18a10.3,10.3,0,0,0,1.16,4.18h10.08a5.48,5.48,0,0,1-1.66-3.81V707.1c0-8.78-4.54-14-16.49-14-11.09,0-15.7,6-15.48,12.24l8.71,0.14c0-2.74,2-5.33,7.06-5.33,4.82,0,6.41,2.38,6.41,4.1,0,1.51-.94,2.88-3.6,3.38l-5.62.94c-8.06,1.44-10.22,3-11.81,4.32a10.2,10.2,0,0,0-3.38,7.63c0,6,4.75,11.52,14,11.52C352.4,732,355.57,730.21,357.66,726.82Zm0.07-15.12-0.07,4.61c0,5.18-3.24,8.42-8.85,8.42-4.18,0-6.12-2.45-6.12-4.68,0-1.73.58-3.67,6.77-5.4l4.32-1.15A12.9,12.9,0,0,0,357.73,711.71Zm-63.93,7.05c0.21,6.91,5.9,13.54,17.21,13.54s16.42-6.12,16.42-12.67a10.34,10.34,0,0,0-2.23-6.4c-1.37-1.73-3.17-3-7.49-4l-10.51-2.45c-2.23-.58-3.17-1.94-3.17-3.24s1.37-3.67,6.12-3.67c5.26,0,7.56,2.73,7.63,5.68l8.64-.14a12.78,12.78,0,0,0-5.26-9.65c-2.09-1.51-5.47-2.81-10.87-2.81-10.51,0-15.12,5.69-15.12,12a10,10,0,0,0,2.45,6.91c1.3,1.37,3,2.52,7,3.38l8,1.8c4.61,1,5.18,2.45,5.18,4.18s-1.59,4.11-7,4.11c-5.19,0-7.78-2.74-8.06-6.55ZM277,731h9.86V680h-9.79Zm-18.29-4.18a10.31,10.31,0,0,0,1.15,4.18H270a5.48,5.48,0,0,1-1.66-3.81V707.1c0-8.78-4.53-14-16.49-14-11.09,0-15.69,6-15.48,12.24l8.71,0.14c0-2.74,2-5.33,7.05-5.33,4.83,0,6.41,2.38,6.41,4.1,0,1.51-.94,2.88-3.6,3.38l-5.62.94c-8.06,1.44-10.22,3-11.81,4.32a10.19,10.19,0,0,0-3.39,7.63c0,6,4.75,11.52,14,11.52C253.48,732,256.65,730.21,258.74,726.82Zm0.07-15.12-0.07,4.61c0,5.18-3.24,8.42-8.86,8.42-4.18,0-6.12-2.45-6.12-4.68,0-1.73.58-3.67,6.77-5.4l4.32-1.15A12.91,12.91,0,0,0,258.81,711.71Z"/><path class="b" d="M544.69,526.82H50.24A15,15,0,0,1,37.3,504.36l247-428.21a15.06,15.06,0,0,1,26.08,0L557.63,504.36A15,15,0,0,1,544.69,526.82ZM516.1,495.39L297.43,116.47,78.76,495.39H516.1Z"/><path class="b" d="M297.34,454.29a67.66,67.66,0,1,1,67.75-67.55A67.74,67.74,0,0,1,297.34,454.29Zm0,12.19a79.84,79.84,0,1,1,79.92-79.74A79.85,79.85,0,0,1,297.34,466.48Z"/><path class="b" d="M265.36,254.84a32.09,32.09,0,1,1,29.3,34.84A31.93,31.93,0,0,1,265.36,254.84Zm-11.42-.95a43.65,43.65,0,1,1,39.58,47.19A43.58,43.58,0,0,1,253.93,253.89Z"/><path class="b" d="M277.72,429.56l-0.57-.38a46.89,46.89,0,0,1-10.09-78.79l1.15-.57-21.14,5.7-0.94-3.61,33.68-9.15-9.13,33.67-3.43-.93,6.86-25.5a43.12,43.12,0,0,0,4.56,75.93l0.56,0.39-1.52,3.24"/><path class="b" d="M281.91,273.49a21.82,21.82,0,0,1-6.66-15.79A22.2,22.2,0,0,1,288,237.52l0.77-.37,1.33,2.66-1,.37a19.08,19.08,0,0,0-3.24,32.92l-3-10.66,2.85-.76,4.57,16.95-16.93-4.55,0.56-2.68,8,2.1"/></svg>