<svg xmlns="http://www.w3.org/2000/svg" viewBox="0 0 595.28 850.36"><defs><style>.a{fill:#fcc00d;}.a,.b{fill-rule:evenodd;}.b{fill:#000100;}</style></defs><title>W026_C</title><polyline class="a" points="0 850.36 595.28 850.36 595.28 0 0 0 0 850.36"/><path class="b" d="M53,613.39V601.08H66.36a6.09,6.09,0,0,1,5.69,6.19,6.23,6.23,0,0,1-6.48,6.26Zm464.82,32.55a11,11,0,0,0,3.53,7.34c2.23,2.16,6.41,4.18,13.47,4.18,7.92,0,13-3,15.48-6.12,1.65-2.23,2.59-4.25,2.59-9.72V607.28h-9.43l-0.36,4.46c-0.65-1.15-2.66-5.76-10.8-5.76-8.86,0-16.56,7.06-16.56,18.36s7.7,18.43,16.42,18.43c5.9,0,9.5-2.66,10.94-5.47v4c0,6.19-2.88,8.78-8.5,8.78-4.32,0-6.33-2.16-6.7-4.46Zm16.7-11.67c-4.83,0-8.86-3.46-8.86-10.22,0-5.91,4.11-9.65,8.64-9.65s8.64,3.74,8.64,9.93S538.74,634.27,534.49,634.27ZM476,643.92h9.87V623.4c0-2.88.58-4.25,1.44-5.4a7.41,7.41,0,0,1,6-3.1c3.38,0,5.83,2.23,5.83,6.34v22.68h9.79V618.07c0-6.84-5-12.1-12.6-12.1-5.26,0-8.93,2.81-10.15,5.69l-0.43-4.32-9.65-.07Zm-17.49,0h9.79V607.28h-9.79v36.64Zm0-42.19h9.87v-8.78h-9.87v8.78ZM418,643.92h9.87V623.4c0-2.88.58-4.25,1.44-5.4a7.4,7.4,0,0,1,6-3.1c3.38,0,5.83,2.23,5.83,6.34v22.68h9.79V618.07c0-6.84-5-12.1-12.6-12.1-5.26,0-8.93,2.81-10.15,5.69l-0.43-4.32-9.65-.07Zm-17.85-3.74,0.43,3.74h9.8l-0.07-51h-9.86v18.5c-1.8-2.88-5.9-5.33-10.58-5.33-8.21,0-16.27,6.84-16.27,19.66a21.4,21.4,0,0,0,4.68,14,14,14,0,0,0,11.23,5.33A13.15,13.15,0,0,0,400.14,640.18Zm-7.77-3.53c-4.61,0-8.71-3.31-8.71-11.09,0-8.71,4.25-11.81,8.35-11.81s8.28,3.1,8.28,11.52C400.29,633.34,396,636.57,392.37,636.65Zm-35.93,3.53,0.43,3.74h9.79l-0.07-51h-9.86v18.5c-1.8-2.88-5.9-5.33-10.58-5.33-8.2,0-16.27,6.84-16.27,19.66a21.4,21.4,0,0,0,4.68,14,14,14,0,0,0,11.23,5.33A13.15,13.15,0,0,0,356.44,640.18Zm-7.77-3.53c-4.61,0-8.71-3.31-8.71-11.09,0-8.71,4.25-11.81,8.35-11.81s8.28,3.1,8.28,11.52C356.58,633.34,352.34,636.57,348.67,636.65ZM313,639.74a11.48,11.48,0,0,0,1.22,4.18h10a6.21,6.21,0,0,1-1.66-3.81L322.6,620c0-8.78-4.61-14-16.56-14-11,0-15.62,6.05-15.41,12.24l8.64,0.14c0-2.74,2-5.33,7.05-5.33,4.83,0,6.48,2.38,6.48,4.1,0,1.51-.94,2.88-3.6,3.38l-5.62.94c-8.06,1.44-10.23,3-11.81,4.32a10.14,10.14,0,0,0-3.31,7.63c0,6,4.75,11.52,13.9,11.52C307.77,644.93,310.87,643.13,313,639.74ZM313,624.63L313,629.23c0,5.18-3.24,8.42-8.86,8.42-4.1,0-6-2.45-6-4.68,0-1.73.58-3.67,6.77-5.4l4.25-1.15A12.1,12.1,0,0,0,313,624.63Zm-41.11,19.29h9.86v-51H272Zm-17.5,0h9.8V607.28h-9.8v36.64Zm0-42.19h9.86v-8.78h-9.86v8.78Zm-26.64,42.19h9.86V627.65c0-5.47,1.37-8,3-9.72a8.73,8.73,0,0,1,6.7-2.88,12.12,12.12,0,0,1,1.66.14l0.07-8.71a14.14,14.14,0,0,0-2.09-.22,9.46,9.46,0,0,0-9.15,6.55l-0.29-5.54h-9.72v36.64Zm-34.2-15.62,27.22,0.07c0-10.87-4.9-22.39-18.58-22.39-14,0-18.36,11.16-18.36,19.51,0,12.17,8.06,19.73,18.29,19.73s16.49-5.54,18-11.95l-9.93-.65c-1.87,3.38-4.39,4.75-7.63,4.75C198,637.37,194.16,634.2,193.59,628.3Zm0.43-7.13a8.39,8.39,0,0,1,8.06-7.49c4,0,7.42,2.74,8.14,7.49H194Zm-15.27,22.75v-7.56h-3.67a3.66,3.66,0,0,1-2.81-1.37c-0.22-.29-0.51-0.86-0.51-2.88V614h6.63v-6.7h-6.63l-0.07-11.59h-9.79v11.59h-5.11V614L162,614V632.9c0,8.28,3.38,11,8.78,11h8Zm-27.29,0v-7.56h-3.67A3.66,3.66,0,0,1,145,635c-0.21-.29-0.5-0.86-0.5-2.88V614h6.62v-6.7h-6.62l-0.07-11.59h-9.79v11.59h-5.11V614l5.18-.07V632.9c0,8.28,3.38,11,8.78,11h8Zm-37.73-4.18a11.48,11.48,0,0,0,1.22,4.18h10a6.21,6.21,0,0,1-1.66-3.81L123.39,620c0-8.78-4.61-14-16.56-14-11.09,0-15.69,6.05-15.48,12.24l8.71,0.14c0-2.74,2-5.33,7.05-5.33,4.83,0,6.48,2.38,6.48,4.1,0,1.51-.94,2.88-3.6,3.38l-5.61.94c-8.14,1.44-10.3,3-11.88,4.32a10.14,10.14,0,0,0-3.31,7.63c0,6,4.75,11.52,14,11.52C108.55,644.93,111.65,643.13,113.74,639.74Zm0.07-15.12-0.07,4.61c0,5.18-3.24,8.42-8.86,8.42-4.1,0-6-2.45-6-4.68,0-1.73.58-3.67,6.77-5.4l4.25-1.15A12.13,12.13,0,0,0,113.81,624.63ZM42.39,643.92H68.53c4.82,0,7.13-.79,9.65-2.59a13.27,13.27,0,0,0,5.76-11.52,13,13,0,0,0-10.08-13.17,10.74,10.74,0,0,0,8.21-10.8A12.06,12.06,0,0,0,76.23,595c-2-1.29-4-2-8.57-2H42.39v51ZM53,635.64V621.1L65.43,621c4.68,0,7.63,3.31,7.63,7.13a7.41,7.41,0,0,1-7.56,7.49H53Z"/><path class="b" d="M544.64,526.84H50.22a15,15,0,0,1-12.93-22.46l247-428.17a15,15,0,0,1,26.07,0L557.6,504.38A15,15,0,0,1,544.64,526.84Zm-28.57-31.41L297.4,116.53,78.75,495.42H516.07Z"/><path class="b" d="M256.28,367.29v-9.35H244.45V346.13h-9.34v11.81h-11.8v9.35h11.8v11.83h9.34V367.29h11.83ZM432.83,472.6c11.32-1.91,15.69-2.36,17.47-14.45,0.7-4.79-2.48-9-6.68-11-5.49-2.65-6.92-3.49-10.49-8.43-1-1.44-2.53-3.52-2.59-4.65-0.3-6.92,1-10.75-3.05-16.44a14.55,14.55,0,0,0-12-5.94H393.79a11.25,11.25,0,0,1-11.25-11.25v-76a5.6,5.6,0,0,0-5.6-5.61h-31l-2.37-2.37v-1.76H319.23v13.85H260.06V314.68H235.71v13.85h-30V431.2h80.15l1.29,1.26c10.27,8.06,6.31,18.56,28.48,25.8,17.83,5.83,37.6-2.18,55.31,4.23,7.85,2.85,14.49,8.8,22.86,10.17A119.12,119.12,0,0,0,432.83,472.6ZM363.05,339H216.17v81.7H363.05V339Zm-7.14,19h-33v9.35h33v-9.35Z"/><path class="b" d="M240.16,289.78c2,0.88,4,1.85,6,2.75,0.36,0.16.73,0.31,1.1,0.45a17.27,17.27,0,0,0,9.31.65,1.3,1.3,0,0,0,1.19-.83c1-4.74-3.86-6.92-5.07-11.14l-0.47-1.11-0.87.1c-0.54.07-1.14,0.14-1.6,0.24-2.25.48-4.43,1.21-6.68,1.68a6.9,6.9,0,0,0-2.36.77,2.38,2.38,0,0,0-.84,1.06,8.53,8.53,0,0,0-.3.93,6.23,6.23,0,0,0-.16,3.16A2,2,0,0,0,240.16,289.78Zm22.4-9.66H264c21.42-.9,59.44,5.6,67.28-21.25,0.19-.67.35-1.35,0.52-2,3.85-14.61-7.72-28.37-21.6-31.31l-0.41-.1-0.45-.12,0.69-1.45c7.32-17.79,3.43-28.64-6.11-44.51l-1.76-2.75-7.88,5.07,0.91,1.38c8.41,14,13.07,23,5.37,38.87l-0.37.76-0.69-.3a30.5,30.5,0,0,1-6.68-4.77L291,216.06l-3-2.59-0.23-.2,0-.33c-0.09-.89-0.27-1.77-0.27-2.67v-1h-9.39l0.07,1.82c-1,8.95,9.9,14.7,16.49,19.36l0.84,0.43-0.45.49c-11.46,11.58-47.8,19.31-44.5,39l0,0.94-1.45.2-1.45.27c-15.89.84-23,14.14-13.74,25a9.16,9.16,0,0,0,1.22.84c13.33,8.29,39.36,10.3,30.41-13.31a7.93,7.93,0,0,0-1.17-1.87Zm-2.6-9.19,0.38,0h0.5c12.21-1.36,52.65,4.46,59.82-10.9,0.36-.77.79-1.5,1.11-2.29,5.09-12.32-4.82-22-16.56-23.76l-0.27,0-0.2.26c-4.6,8.41-21.51,14.93-29,19.79-1.41.91-3,1.55-4.35,2.55-4.73,3.5-12.4,5.66-11.48,12.94V270l0,0.5Z"/></svg>