<?xml version="1.0" encoding="UTF-8"?>
<svg id="Lager_1" data-name="Lager 1" xmlns="http://www.w3.org/2000/svg" viewBox="0 0 153.09 218.69">
  <defs>
    <style>
      .cls-1 {
        fill: #fff;
      }

      .cls-1, .cls-2, .cls-3 {
        fill-rule: evenodd;
      }

      .cls-2 {
        fill: #fcbd0e;
      }

      .cls-3 {
        fill: #1d1f22;
      }
    </style>
  </defs>
  <polyline class="cls-1" points="0 218.69 153.09 218.69 153.09 0 0 0 0 218.69"/>
  <path class="cls-3" d="M140.07,124.16H12.92c-2.96,0-4.8-3.21-3.33-5.77L73.12,8.27c1.49-2.58,5.21-2.58,6.7,0l63.58,110.12c1.48,2.57-.37,5.77-3.33,5.77"/>
  <polyline class="cls-2" points="132.72 116.08 76.48 18.64 20.25 116.08 132.72 116.08"/>
  <path class="cls-3" d="M65.91,83.13v-2.4h-3.04v-3.04h-2.4v3.04h-3.03v2.4h3.03v3.04h2.4v-3.04h3.04ZM111.31,110.21c2.91-.49,4.04-.61,4.49-3.72.18-1.23-.64-2.3-1.72-2.82-1.41-.68-1.78-.9-2.7-2.17-.27-.37-.65-.9-.67-1.2-.08-1.78.25-2.76-.78-4.23-.7-.99-1.87-1.53-3.08-1.53h-5.59c-1.6,0-2.89-1.29-2.89-2.89v-19.56c0-.8-.64-1.44-1.44-1.44h-7.97l-.61-.61v-.45h-6.26v3.56h-15.22v-3.56h-6.26v3.56h-7.72v26.4h20.61l.33.33c2.64,2.07,1.62,4.77,7.32,6.64,4.59,1.5,9.67-.56,14.23,1.09,2.02.73,3.73,2.26,5.88,2.61,3.32.54,6.72.54,10.04-.02ZM93.37,75.85h-37.77v21.01h37.77v-21.01ZM91.53,80.72h-8.48v2.4h8.48v-2.4Z"/>
  <path class="cls-3" d="M61.76,63.2c.52.23,1.03.48,1.55.71.09.04.19.08.28.12.76.29,1.59.32,2.39.17.13-.02.27-.07.31-.21.27-1.22-.99-1.78-1.3-2.86l-.12-.29-.22.03c-.14.02-.29.03-.41.06-.58.12-1.14.31-1.72.43-.21.04-.48.1-.61.2-.11.09-.16.14-.22.27-.03.08-.05.16-.08.24-.07.23-.11.58-.04.81.04.12.08.29.19.33ZM67.52,60.71h.37c5.51-.23,15.29,1.44,17.3-5.46.05-.17.09-.35.13-.52.99-3.76-1.99-7.3-5.56-8.05l-.11-.03-.12-.03.18-.37c1.88-4.58.88-7.37-1.57-11.45l-.45-.71-2.03,1.3.23.36c2.16,3.6,3.36,5.92,1.38,9.99l-.09.19-.18-.08c-.58-.26-1.18-.77-1.72-1.23-.16-.13-.31-.27-.47-.4-.26-.22-.52-.44-.77-.67l-.06-.05v-.09c-.03-.23-.08-.46-.08-.69v-.26h-2.42l.02.47c-.25,2.3,2.55,3.78,4.24,4.98l.22.11-.12.13c-2.95,2.98-12.29,4.97-11.44,10.03v.24s-.36.05-.36.05l-.37.07c-4.09.22-5.91,3.64-3.53,6.44.04.04.21.15.31.22,3.43,2.13,10.12,2.65,7.82-3.42-.06-.17-.19-.33-.3-.48l-.46-.61ZM66.85,58.35h.1s.13-.01.13-.01c3.14-.35,13.54,1.15,15.39-2.8.09-.2.2-.39.28-.59,1.31-3.17-1.24-5.65-4.26-6.11h-.07s-.05.06-.05.06c-1.18,2.16-5.53,3.84-7.46,5.09-.36.23-.77.4-1.12.66-1.22.9-3.19,1.45-2.95,3.33v.28s.02.11.02.11Z"/>
  <polyline class="cls-2" points="10.19 133.08 142.93 133.08 142.93 208.7 10.19 208.7 10.19 133.08"/>
  <path class="cls-3" d="M16.86,145.82v-3.17h3.29c.55,0,1.4.54,1.4,1.59,0,.89-.65,1.61-1.59,1.61l-3.09-.04ZM131,154.19c.11.89.37,1.39.87,1.89.55.56,1.57,1.07,3.31,1.07,1.95,0,3.2-.76,3.8-1.57.41-.57.64-1.09.64-2.5v-8.83h-2.32l-.09,1.15c-.16-.3-.65-1.48-2.65-1.48-2.18,0-4.07,1.81-4.07,4.72s1.89,4.74,4.03,4.74c1.45,0,2.33-.68,2.69-1.41v1.02c0,1.59-.71,2.26-2.09,2.26-1.06,0-1.56-.55-1.64-1.15l-2.48.09ZM135.1,151.19c-1.18,0-2.17-.89-2.17-2.63,0-1.52,1.01-2.48,2.12-2.48s2.12.96,2.12,2.55-1.03,2.55-2.07,2.55ZM120.73,153.67h2.42v-5.28c0-.74.14-1.09.35-1.39.32-.48.88-.8,1.47-.8.83,0,1.43.57,1.43,1.63v5.83h2.41v-6.65c0-1.76-1.24-3.11-3.09-3.11-1.29,0-2.19.72-2.49,1.46l-.11-1.11-2.37-.02-.02,9.42ZM116.43,153.67h2.4v-9.42h-2.4v9.42ZM116.43,142.82h2.42v-2.26h-2.42v2.26ZM106.5,153.67h2.42v-5.28c0-.74.14-1.09.35-1.39.32-.48.88-.8,1.47-.8.83,0,1.43.57,1.43,1.63v5.83h2.4v-6.65c0-1.76-1.24-3.11-3.09-3.11-1.29,0-2.19.72-2.49,1.46l-.11-1.11-2.37-.02-.02,9.42ZM102.11,152.71l.11.96h2.4l-.02-13.11h-2.42v4.76c-.44-.74-1.45-1.37-2.6-1.37-2.02,0-4,1.76-4,5.05,0,1.5.44,2.74,1.15,3.61.76.94,1.68,1.37,2.76,1.37s1.98-.44,2.62-1.28ZM100.2,151.8c-1.13,0-2.14-.85-2.14-2.85,0-2.24,1.04-3.04,2.05-3.04s2.03.8,2.03,2.96-1.04,2.91-1.95,2.92ZM91.38,152.71l.11.96h2.4l-.02-13.11h-2.42v4.76c-.44-.74-1.45-1.37-2.6-1.37-2.01,0-3.99,1.76-3.99,5.05,0,1.5.44,2.74,1.15,3.61.76.94,1.68,1.37,2.76,1.37s1.98-.44,2.62-1.28ZM89.47,151.8c-1.13,0-2.14-.85-2.14-2.85,0-2.24,1.04-3.04,2.05-3.04s2.03.8,2.03,2.96-1.04,2.91-1.94,2.92ZM80.7,152.6c.05.46.16.8.3,1.07h2.46c-.3-.39-.39-.67-.41-.98l.02-5.17c0-2.26-1.13-3.61-4.07-3.61-2.71,0-3.84,1.55-3.78,3.15l2.12.04c0-.7.5-1.37,1.73-1.37s1.59.61,1.59,1.06c0,.39-.23.74-.88.87l-1.38.24c-1.98.37-2.51.76-2.9,1.11-.53.5-.81,1.2-.81,1.96,0,1.55,1.17,2.96,3.41,2.96,1.33,0,2.09-.46,2.6-1.33ZM80.72,148.71l-.02,1.18c0,1.33-.8,2.17-2.18,2.17-1.01,0-1.48-.63-1.48-1.2,0-.44.14-.94,1.66-1.39l1.04-.3c.46-.13.78-.32.97-.46ZM70.62,153.67h2.42v-13.11h-2.4l-.02,13.11ZM66.33,153.67h2.4v-9.42h-2.4v9.42ZM66.33,142.82h2.42v-2.26h-2.42v2.26ZM59.78,153.67h2.42v-4.18c0-1.41.34-2.05.73-2.5.46-.5.97-.74,1.64-.74.14,0,.28.02.41.04l.02-2.24c-.12-.02-.32-.05-.51-.05-1.06,0-1.96.7-2.25,1.68l-.07-1.43h-2.39v9.42ZM51.39,149.65l6.68.02c0-2.8-1.2-5.76-4.56-5.76s-4.51,2.87-4.51,5.02c0,3.13,1.98,5.07,4.49,5.07s4.05-1.43,4.42-3.07l-2.44-.17c-.46.87-1.08,1.22-1.87,1.22-1.13,0-2.07-.81-2.21-2.33ZM51.49,147.82c.14-1.15,1.04-1.92,1.98-1.92s1.82.7,2,1.92h-3.98ZM47.74,153.67v-1.94h-.9c-.28,0-.57-.17-.69-.35-.05-.07-.12-.22-.12-.74v-4.67h1.63v-1.72h-1.63l-.02-2.98h-2.41v2.98h-1.26v1.74l1.27-.02v4.87c0,2.13.83,2.83,2.16,2.83h1.96ZM41.04,153.67v-1.94h-.9c-.28,0-.57-.17-.69-.35-.05-.07-.12-.22-.12-.74v-4.67h1.63v-1.72h-1.63l-.02-2.98h-2.4v2.98h-1.26v1.74l1.27-.02v4.87c0,2.13.83,2.83,2.16,2.83h1.96ZM31.78,152.6c.05.46.16.8.3,1.07h2.46c-.3-.39-.39-.67-.41-.98l.02-5.17c0-2.26-1.13-3.61-4.07-3.61-2.72,0-3.85,1.55-3.8,3.15l2.14.04c0-.7.49-1.37,1.73-1.37s1.59.61,1.59,1.06c0,.39-.23.74-.88.87l-1.38.24c-2,.37-2.53.76-2.92,1.11-.53.5-.81,1.2-.81,1.96,0,1.55,1.17,2.96,3.43,2.96,1.33,0,2.09-.46,2.6-1.33ZM31.8,148.71l-.02,1.18c0,1.33-.79,2.17-2.17,2.17-1.01,0-1.49-.63-1.49-1.2,0-.44.14-.94,1.66-1.39l1.04-.3c.46-.13.78-.32.97-.46ZM14.26,153.67h6.42c1.19,0,1.75-.2,2.37-.67.9-.65,1.42-1.65,1.42-2.96,0-1.7-.94-2.96-2.48-3.39,1.27-.37,2.02-1.43,2.02-2.78,0-1.26-.51-2.2-1.43-2.8-.49-.33-.99-.52-2.1-.52h-6.21v13.11ZM16.86,151.54v-3.74l3.06-.02c1.15,0,1.87.85,1.87,1.83,0,1.07-.8,1.93-1.86,1.93h-3.08Z"/>
</svg>