<?xml version="1.0" encoding="UTF-8"?>
<svg id="Lager_1" data-name="Lager 1" xmlns="http://www.w3.org/2000/svg" viewBox="0 0 153.09 218.69">
  <defs>
    <style>
      .cls-1 {
        fill: #fff;
      }

      .cls-1, .cls-2, .cls-3 {
        fill-rule: evenodd;
      }

      .cls-2 {
        fill: #fcbd0e;
      }

      .cls-3 {
        fill: #1d1f22;
      }
    </style>
  </defs>
  <polyline class="cls-1" points="0 218.69 153.09 218.69 153.09 0 0 0 0 218.69"/>
  <path class="cls-3" d="M143.39,118.32L79.87,8.21c-1.5-2.6-5.25-2.6-6.75,0L9.6,118.32c-1.5,2.6.36,5.87,3.38,5.87h127.04c3.01,0,4.88-3.27,3.38-5.87"/>
  <polyline class="cls-2" points="10.19 133.08 142.93 133.08 142.93 208.7 10.19 208.7 10.19 133.08"/>
  <path class="cls-3" d="M54.64,152.29c-3.17,0-3.68-3.52-3.68-4.72,0-3.3,1.87-4.78,3.61-4.78s3.63,1.5,3.63,4.78c0,1.42-.43,2.59-1,3.37-.67.92-1.52,1.35-2.56,1.35ZM95.59,154.08h2.54v-3.09l1.05-1.05,2.59,4.15h3.11l-3.89-5.79,3.39-3.63h-3l-3.26,3.59-.02-7.28h-2.54l.02,13.11ZM85.04,150.93c.06,1.78,1.56,3.48,4.44,3.48s4.22-1.57,4.22-3.26c0-.59-.2-1.18-.57-1.65-.35-.44-.81-.78-1.93-1.04l-2.7-.63c-.57-.15-.8-.5-.8-.83,0-.37.33-.94,1.57-.94,1.33,0,1.93.7,1.95,1.46l2.24-.04c-.06-.95-.55-1.89-1.35-2.48-.55-.39-1.42-.72-2.8-.72-2.72,0-3.93,1.46-3.93,3.07,0,.76.22,1.3.67,1.78.33.35.74.65,1.8.87l2.04.46c1.19.26,1.33.63,1.33,1.07,0,.41-.39,1.06-1.8,1.06-1.31,0-2-.7-2.07-1.68l-2.32.02ZM80.72,154.08h2.54v-9.42h-2.52l-.02,9.42ZM80.74,143.23h2.54v-2.26h-2.54v2.26ZM78.96,154.08v-1.94h-.94c-.31,0-.59-.17-.72-.35-.06-.07-.13-.22-.13-.74v-4.67h1.7v-1.72h-1.7l-.02-2.98h-2.5v2.98h-1.33v1.74l1.35-.02-.02,4.87c0,2.13.87,2.83,2.26,2.83h2.05ZM65.28,152.99c.54.87,1.48,1.41,2.76,1.41,2.57,0,4.17-2.39,4.17-5.07s-1.56-4.96-4.13-4.96c-1.13,0-2.07.46-2.74,1.28l-.11-.96-2.5.02.02,12.46h2.54v-4.17ZM67.56,152.45c-1.22,0-2.26-.82-2.26-2.85,0-2.28,1.11-3.07,2.15-3.07s2.19.85,2.19,2.94c0,1.39-.59,2.96-2.07,2.98ZM54.56,154.49c4.59,0,6.39-3.98,6.39-6.98,0-3.15-1.98-6.94-6.28-6.94-2.31,0-3.92.89-5.07,2.44-.85,1.15-1.41,2.8-1.41,4.55,0,3.63,2.31,6.92,6.37,6.92Z"/>
  <path class="cls-3" d="M39.8,172.61c.04,1.78,1.54,3.48,4.43,3.48s4.24-1.57,4.24-3.26c0-.59-.22-1.18-.59-1.65-.35-.45-.8-.78-1.93-1.04l-2.7-.63c-.56-.15-.8-.5-.8-.83,0-.37.33-.94,1.57-.94,1.33,0,1.93.7,1.94,1.46l2.24-.04c-.04-.95-.56-1.89-1.35-2.48-.55-.39-1.43-.72-2.8-.72-2.72,0-3.91,1.46-3.91,3.07,0,.76.2,1.3.65,1.78.33.35.74.65,1.8.87l2.04.46c1.2.26,1.33.63,1.33,1.07,0,.41-.39,1.05-1.78,1.05s-2.02-.7-2.09-1.68l-2.3.02ZM104.26,176.27c.11.89.39,1.39.93,1.89.56.56,1.63,1.07,3.44,1.07,2.05,0,3.35-.76,3.98-1.57.44-.57.67-1.09.67-2.5v-8.83h-2.43l-.09,1.15c-.17-.3-.68-1.48-2.78-1.48-2.28,0-4.26,1.82-4.26,4.72s1.98,4.74,4.24,4.74c1.5,0,2.43-.68,2.8-1.41v1.02c0,1.59-.74,2.26-2.18,2.26-1.11,0-1.63-.55-1.7-1.15l-2.61.09ZM108.55,173.27c-1.24,0-2.26-.89-2.26-2.63,0-1.52,1.04-2.48,2.2-2.48s2.22.96,2.22,2.55-1.07,2.55-2.17,2.55ZM93.5,175.75h2.54l.02-5.28c0-.74.15-1.09.35-1.39.33-.48.93-.8,1.54-.8.87,0,1.5.57,1.5,1.63v5.83h2.54v-6.65c0-1.76-1.3-3.11-3.26-3.11-1.35,0-2.3.72-2.61,1.46l-.11-1.11-2.48-.02-.02,9.42ZM89,175.75h2.54v-9.42h-2.54v9.42ZM89,164.9h2.54v-2.26h-2.54v2.26ZM78.59,175.75h2.54l.02-5.28c0-.74.15-1.09.35-1.39.33-.48.93-.8,1.54-.8.87,0,1.5.57,1.5,1.63v5.83h2.54v-6.65c0-1.76-1.3-3.11-3.26-3.11-1.35,0-2.3.72-2.61,1.46l-.11-1.11-2.48-.02-.02,9.42ZM74.11,175.75h2.52v-13.11h-2.5l-.02,13.11ZM69.69,174.68c.06.37.19.78.33,1.07h2.57c-.15-.13-.41-.55-.41-1.33l-.02-4.81c-.02-.83-.09-1.07-.15-1.28-.37-1.3-1.43-2.33-3.98-2.33-2.94,0-4.09,1.5-4.09,3.15l2.22.04c.11-.63.2-.76.41-.94.22-.22.7-.45,1.46-.45,1.18,0,1.65.63,1.65,1.07s-.28.76-.98.89l-2.54.45c-1.91.33-2.8,1.57-2.8,2.81,0,1.63,1.26,3.02,3.54,3.02,1.57,0,2.43-.63,2.78-1.35ZM69.71,170.74l-.02,1.41c-.06,1.19-.85,2-2.24,2-1.06,0-1.57-.63-1.57-1.18,0-.44.22-1.02,1.72-1.39l1.11-.3c.41-.09.76-.3,1-.54ZM67.85,165.24c.65,0,1.24-.59,1.24-1.31s-.59-1.32-1.3-1.32c-.74,0-1.33.61-1.33,1.32,0,.74.57,1.31,1.39,1.31ZM67.82,164.7c-.46,0-.8-.35-.8-.78s.35-.78.78-.8c.41,0,.76.33.76.8s-.35.78-.74.78ZM57.48,175.75h2.54v-4.18c0-1.41.35-2.06.76-2.5.48-.5,1.04-.74,1.72-.74.15,0,.3.02.44.04v-2.24c-.13-.02-.33-.06-.54-.06-1.11,0-2.05.7-2.35,1.68l-.07-1.42h-2.5v9.42ZM55.61,175.75v-1.94h-.94c-.3,0-.59-.17-.72-.35-.06-.07-.13-.22-.13-.74v-4.67h1.72v-1.72h-1.72l-.02-2.98h-2.52v2.98h-1.31v1.74l1.33-.02v4.87c0,2.13.87,2.83,2.26,2.83h2.05Z"/>
  <polyline class="cls-2" points="20.22 116.12 76.5 18.54 132.77 116.12 20.22 116.12"/>
  <path class="cls-3" d="M69.95,77.92l-18.35-5.69,16.32,10.14-18.51,5.13,19.2-.3-12.8,14.33,16-10.63-3.03,18.96,7.71-17.59,7.71,17.59-3.02-18.96,16,10.63-12.81-14.33,19.21.3-18.51-5.13,16.32-10.14-18.35,5.69,8.25-17.34-12.36,14.71-2.45-19.06-2.44,19.06-12.36-14.71,8.25,17.34ZM68.62,83.58c0,4.35,3.55,7.9,7.9,7.9s7.88-3.55,7.88-7.9-3.53-7.88-7.88-7.88-7.9,3.53-7.9,7.88ZM69.98,83.61c0,3.6,2.91,6.51,6.51,6.51s6.51-2.91,6.51-6.51-2.91-6.51-6.51-6.51-6.51,2.91-6.51,6.51Z"/>
</svg>