<svg xmlns="http://www.w3.org/2000/svg" viewBox="0 0 595.28 850.36"><defs><style>.a{fill:#fcc00d;}.a,.b{fill-rule:evenodd;}.b{fill:#000100;}</style></defs><title>W027_C</title><polyline class="a" points="0 850.36 595.28 850.36 595.28 0 0 0 0 850.36"/><path class="b" d="M78.62,495.57L297.45,116.14,516.29,495.57H78.62Zm478.95,8.58L310.57,76a15.16,15.16,0,0,0-26.27,0l-247,428.17A15.21,15.21,0,0,0,50.44,527h494A15.21,15.21,0,0,0,557.57,504.15Z"/><path class="b" d="M212.45,636.94c-12.31,0-14.33-13.68-14.33-18.36,0-12.82,7.27-18.58,14-18.58s14.11,5.83,14.11,18.58a22.13,22.13,0,0,1-3.88,13.1A11.65,11.65,0,0,1,212.45,636.94Zm159.26,7h9.86v-12l4.1-4.1,10.08,16.13h12.09l-15.12-22.53,13.17-14.11H394.24l-12.67,14L381.5,593h-9.86Zm-41-12.24c0.22,6.91,6.05,13.54,17.28,13.54,11.45,0,16.42-6.12,16.42-12.67a10.35,10.35,0,0,0-2.23-6.41c-1.37-1.73-3.17-3-7.49-4l-10.51-2.45c-2.23-.58-3.1-1.94-3.1-3.24s1.29-3.67,6.12-3.67c5.19,0,7.49,2.73,7.56,5.69l8.71-.15a13.23,13.23,0,0,0-5.26-9.65c-2.16-1.51-5.54-2.81-10.87-2.81-10.58,0-15.26,5.69-15.26,12a9.44,9.44,0,0,0,2.59,6.91c1.29,1.37,2.88,2.52,7,3.39l7.92,1.8c4.61,1,5.19,2.45,5.19,4.17s-1.51,4.11-7,4.11c-5.11,0-7.78-2.74-8.06-6.55Zm-16.77,12.24h9.87V607.28H314ZM314,601.73h9.86V593H314v8.78Zm-6.91,42.19v-7.56h-3.67a3.53,3.53,0,0,1-2.81-1.37c-0.22-.29-0.51-0.86-0.51-2.88V614h6.63v-6.7h-6.63L300,595.69h-9.72v11.59h-5.18V614l5.26-.07-0.07,18.93c0,8.28,3.38,11,8.78,11h8Zm-53.21-4.25c2.09,3.38,5.76,5.47,10.73,5.47,10,0,16.2-9.29,16.2-19.73,0-10-6-19.3-16.06-19.3a13.35,13.35,0,0,0-10.65,5l-0.43-3.74-9.72.07L244,655.88h9.87v-16.2Zm8.85-2.09c-4.75,0-8.78-3.17-8.78-11.09,0-8.85,4.32-11.95,8.35-11.95s8.5,3.31,8.5,11.45C270.77,631.4,268.46,637.52,262.7,637.59Zm-50.54,7.92C230,645.51,237,630,237,618.37c0-12.24-7.7-27-24.41-27-9,0-15.26,3.45-19.73,9.5a30.28,30.28,0,0,0-5.47,17.71C187.39,632.69,196.39,645.51,212.16,645.51Z"/><path class="b" d="M154.77,718.77c0.14,6.91,6,13.54,17.21,13.54,11.45,0,16.49-6.12,16.49-12.67a10.42,10.42,0,0,0-2.3-6.41c-1.37-1.73-3.1-3-7.49-4l-10.51-2.45c-2.16-.58-3.1-1.94-3.1-3.24s1.3-3.67,6.12-3.67c5.18,0,7.49,2.73,7.56,5.69l8.71-.14a13,13,0,0,0-5.26-9.65c-2.16-1.51-5.55-2.81-10.87-2.81-10.59,0-15.19,5.69-15.19,12a9.39,9.39,0,0,0,2.52,6.91c1.29,1.37,2.88,2.52,7,3.39l7.92,1.8c4.68,1,5.18,2.45,5.18,4.17s-1.51,4.11-6.91,4.11c-5.18,0-7.85-2.74-8.13-6.55ZM405.39,733a10.73,10.73,0,0,0,3.6,7.34c2.16,2.16,6.33,4.18,13.39,4.18,8,0,13-3,15.48-6.12,1.73-2.23,2.59-4.25,2.59-9.72V694.36H431l-0.36,4.46c-0.65-1.15-2.66-5.76-10.8-5.76-8.86,0-16.56,7.06-16.56,18.36s7.7,18.43,16.49,18.43c5.83,0,9.43-2.66,10.87-5.47v4c0,6.19-2.88,8.78-8.5,8.78-4.32,0-6.33-2.16-6.62-4.46Zm16.71-11.67c-4.83,0-8.78-3.46-8.78-10.22,0-5.9,4-9.65,8.57-9.65s8.64,3.74,8.64,9.93S426.35,721.36,422.1,721.36ZM363.56,731h9.86l0.07-20.52c0-2.88.58-4.25,1.37-5.4a7.41,7.41,0,0,1,6-3.1c3.38,0,5.83,2.23,5.83,6.34V731h9.87V705.16c0-6.84-5-12.1-12.67-12.1-5.26,0-8.93,2.81-10.15,5.69l-0.43-4.32-9.65-.07Zm-17.49,0h9.86V694.36h-9.86V731Zm0-42.19h9.86V680h-9.86v8.78ZM305.61,731h9.86l0.07-20.52c0-2.88.58-4.25,1.37-5.4a7.4,7.4,0,0,1,6-3.1c3.38,0,5.83,2.23,5.83,6.34V731h9.86V705.16c0-6.84-5-12.1-12.67-12.1-5.26,0-8.93,2.81-10.15,5.69l-0.43-4.32-9.65-.07Zm-17.42,0H298V680h-9.72ZM271,726.83a15,15,0,0,0,1.29,4.18h10c-0.58-.5-1.58-2.16-1.58-5.18l-0.07-18.72a17.07,17.07,0,0,0-.58-5c-1.44-5-5.55-9.07-15.48-9.07-11.45,0-15.91,5.83-15.91,12.24l8.64,0.14c0.43-2.45.79-3,1.58-3.67s2.74-1.73,5.69-1.73c4.61,0,6.41,2.45,6.41,4.18s-1.08,3-3.81,3.46l-9.87,1.73c-7.42,1.3-10.87,6.12-10.87,10.95,0,6.33,4.89,11.74,13.75,11.74C266.3,732.09,269.61,729.64,271,726.83ZM271,711.49L271,717c-0.21,4.61-3.31,7.77-8.71,7.77-4.11,0-6.12-2.45-6.12-4.61,0-1.73.86-4,6.7-5.4l4.32-1.15A8.1,8.1,0,0,0,271,711.49Zm-7.2-21.38a5.12,5.12,0,0,0-.22-10.22,5.2,5.2,0,0,0-5.18,5.11A5.11,5.11,0,0,0,263.85,690.11ZM263.7,688a3,3,0,0,1-3.09-3,3.16,3.16,0,0,1,3-3.1,3,3,0,0,1,3,3.1A3,3,0,0,1,263.7,688Zm-40.18,43h9.87V714.74c0-5.48,1.37-8,3-9.72a8.83,8.83,0,0,1,6.7-2.88,14.36,14.36,0,0,1,1.73.14v-8.71a14,14,0,0,0-2.09-.22,9.45,9.45,0,0,0-9.14,6.55l-0.29-5.54h-9.72V731Zm-7.27,0v-7.56h-3.67a3.65,3.65,0,0,1-2.81-1.37c-0.22-.29-0.51-0.86-0.51-2.88V701.06H216v-6.7h-6.7l-0.07-11.59h-9.8v11.59H194.3v6.77l5.18-.07V720c0,8.28,3.38,11,8.78,11h8Z"/><path class="b" d="M272,347L200.63,324.9l63.45,39.43-72,19.95,74.67-1.16L217,438.81l62.23-41.31-11.77,73.72,30-68.38,30,68.38L315.68,397.5l62.23,41.31-49.8-55.7,74.7,1.16-72-19.95,63.46-39.43L322.93,347,355,279.6l-48,57.18-9.52-74.1-9.49,74.1-48-57.18Zm-5.16,22a30.67,30.67,0,1,0,30.71-30.64A30.76,30.76,0,0,0,266.82,369Zm5.31,0.12a25.31,25.31,0,1,0,25.31-25.31A25.3,25.3,0,0,0,272.13,369.17Z"/></svg>