<svg xmlns="http://www.w3.org/2000/svg" viewBox="0 0 595.28 850.36"><defs><style>.a{fill:#fcc00d;}.a,.b{fill-rule:evenodd;}.b{fill:#000100;}</style></defs><title>W028_C</title><polyline class="a" points="0 850.36 595.28 850.36 595.28 0 0 0 0 850.36"/><path class="b" d="M78.61,495.6L297.44,116.14,516.27,495.6H78.61Zm479,8.56L310.58,76a15.16,15.16,0,0,0-26.27,0l-247,428.18A15.21,15.21,0,0,0,50.44,527h494A15.21,15.21,0,0,0,557.58,504.16Z"/><path class="b" d="M129.87,636.94c-12.31,0-14.26-13.68-14.26-18.36,0-12.82,7.27-18.58,14-18.58s14,5.83,14,18.58a22.13,22.13,0,0,1-3.89,13.1A11.47,11.47,0,0,1,129.87,636.94Zm333.28-8.64,27.15,0.07c0-10.87-4.9-22.39-18.5-22.39-14.11,0-18.43,11.16-18.43,19.51,0,12.17,8.06,19.73,18.29,19.73s16.49-5.54,18-11.95l-9.86-.65c-1.87,3.38-4.46,4.75-7.63,4.75C467.46,637.37,463.65,634.2,463.14,628.3Zm0.36-7.13a8.5,8.5,0,0,1,8.06-7.49c4,0,7.49,2.74,8.14,7.49H463.5Zm-27.29,19,0.43,3.74h9.79V593H436.5v18.5c-1.8-2.88-5.9-5.33-10.59-5.33-8.2,0-16.27,6.84-16.27,19.66a21.41,21.41,0,0,0,4.75,14,13.89,13.89,0,0,0,11.16,5.33A13.05,13.05,0,0,0,436.21,640.18Zm-7.78-3.53c-4.61,0-8.64-3.31-8.64-11.09,0-8.71,4.25-11.81,8.28-11.81s8.28,3.1,8.28,11.52C436.36,633.34,432.11,636.58,428.44,636.65Zm-58.53,7.27h9.87l0.07-20.52c0-2.88.58-4.25,1.37-5.4a7.4,7.4,0,0,1,6-3.1c3.38,0,5.83,2.23,5.83,6.34v22.68h9.86V618.08c0-6.84-5-12.1-12.67-12.1-5.26,0-8.93,2.81-10.15,5.69l-0.43-4.32-9.65-.07Zm-18.29-4.18a10.31,10.31,0,0,0,1.15,4.18h10.08a6,6,0,0,1-1.73-3.81L361.19,620c0-8.78-4.54-14-16.49-14-11.09,0-15.7,6.05-15.48,12.24l8.64,0.14c0-2.74,2.09-5.33,7.13-5.33,4.82,0,6.41,2.38,6.41,4.1,0,1.51-.94,2.88-3.6,3.38l-5.62.94c-8.14,1.44-10.3,3-11.81,4.32a10.2,10.2,0,0,0-3.38,7.63c0,6,4.75,11.52,14,11.52C346.36,644.93,349.53,643.13,351.62,639.75Zm0-15.12v4.61c0,5.18-3.24,8.42-8.85,8.42-4.18,0-6.12-2.45-6.12-4.68,0-1.73.58-3.67,6.77-5.4l4.25-1.15A11.42,11.42,0,0,0,351.62,624.63ZM304.1,643.92H314V627.66c0-5.48,1.37-8,3-9.72a8.62,8.62,0,0,1,6.7-2.88,14.45,14.45,0,0,1,1.66.14v-8.71a12.15,12.15,0,0,0-2.09-.22,9.52,9.52,0,0,0-9.15,6.55l-0.29-5.54h-9.65ZM270,628.3l27.14,0.07c0-10.87-4.9-22.39-18.5-22.39-14.11,0-18.43,11.16-18.43,19.51,0,12.17,8.06,19.73,18.29,19.73s16.49-5.54,18-11.95l-9.86-.65c-1.87,3.38-4.46,4.75-7.63,4.75C274.37,637.37,270.55,634.2,270,628.3Zm0.36-7.13a8.5,8.5,0,0,1,8.06-7.49c4,0,7.49,2.74,8.13,7.49H270.4Zm-27.29,19,0.43,3.74h9.79V593h-9.94v18.5c-1.8-2.88-5.9-5.33-10.58-5.33-8.21,0-16.27,6.84-16.27,19.66a21.41,21.41,0,0,0,4.75,14,13.88,13.88,0,0,0,11.16,5.33A13.06,13.06,0,0,0,243.12,640.18Zm-7.78-3.53c-4.61,0-8.64-3.31-8.64-11.09,0-8.71,4.25-11.81,8.28-11.81s8.28,3.1,8.28,11.52C243.26,633.34,239,636.58,235.34,636.65Zm-35.57,7.27h9.87V607.28h-9.87v36.64Zm0.07-42.19h9.79V593h-9.79v8.78Zm-42.7,42.19H168.1l7.63-11.45,6.7,11.45h11.81l-13-19.15,11.52-17.49H182.42l-6,10.22-6.05-10.15H158.88l11.6,17.42Zm-27.5,1.58c17.78,0,24.84-15.48,24.84-27.14,0-12.24-7.78-27-24.48-27-9,0-15.27,3.45-19.73,9.5a30.81,30.81,0,0,0-5.47,17.71C104.81,632.69,113.81,645.51,129.65,645.51Z"/><path class="b" d="M213,690h9.86L223,680h-9.86Zm147.81,25.41L388,715.46c0-10.87-4.9-22.39-18.57-22.39-14,0-18.43,11.16-18.43,19.51,0,12.17,8.06,19.73,18.36,19.73s16.49-5.54,18-11.95l-9.93-.65c-1.87,3.38-4.46,4.75-7.63,4.75C365.15,724.45,361.33,721.29,360.83,715.38Zm0.43-7.13a8.37,8.37,0,0,1,8-7.49c4,0,7.49,2.73,8.13,7.49H361.26Zm-50,22.75h9.86l0.07-20.52c0-2.88.58-4.25,1.37-5.4a7.39,7.39,0,0,1,6-3.1c3.46,0,5.91,2.23,5.91,6.34L334.4,731h9.86V705.16c0-6.84-5-12.1-12.6-12.1-5.26,0-8.93,2.81-10.23,5.69l-0.36-4.32-9.72-.07ZM250,731h9.86L260,709.84c0-5.26,3-7.92,6.91-7.92a4.89,4.89,0,0,1,4.9,3.1c0.14,0.36.43,1.15,0.43,4v22H282V709.26c0-4.75,3-7.49,6.84-7.49,3.31,0,5.54,2,5.54,6.33V731H304l-0.07-25.7c-0.21-7.7-5.11-12.1-11.66-12.1a12.33,12.33,0,0,0-11.3,6.41,11.76,11.76,0,0,0-10.73-6.41c-5,0-8.28,2.16-10.23,5.83l-0.36-4.61-9.58-.07Zm-18.29-4.18A14.86,14.86,0,0,0,233,731H243c-0.58-.5-1.51-2.16-1.51-5.18l-0.14-18.72a18.67,18.67,0,0,0-.5-5c-1.51-5-5.61-9.07-15.55-9.07-11.37,0-15.91,5.83-15.91,12.24l8.71,0.14c0.36-2.45.72-3,1.51-3.67s2.81-1.73,5.76-1.73c4.61,0,6.33,2.45,6.33,4.18s-1.08,3-3.74,3.46L218,709.41c-7.42,1.3-10.87,6.12-10.87,10.95,0,6.33,4.9,11.74,13.75,11.74C227,732.09,230.37,729.64,231.74,726.83Zm0-15.34V717c-0.22,4.61-3.38,7.77-8.71,7.77-4.18,0-6.12-2.45-6.12-4.61,0-1.73.86-4,6.69-5.4l4.25-1.15A7.76,7.76,0,0,0,231.74,711.49ZM225.83,690l9.94,0.07V680H225.9Z"/><path class="b" d="M329.75,421.28l-0.3-4.55-0.81-4.49c-10.36-38.35-63.15-38.35-73.51,0l-0.82,4.49L254,421.28c1.07,42.17,57.26,52.47,73.24,13.44l1.37-4.38,0.81-4.51Zm22.48,51.62H231.55V461.69h33.53l-4.09-3-3.73-3.41a48.54,48.54,0,0,1,27.06-81.9l5-.52h5.06a48.52,48.52,0,0,1,32.08,82.42l-3.69,3.41-4.08,3h33.52v11.22Z"/><path class="b" d="M230.62,321.06l-3.87-1.93,1.38,4c7,25.68-6,52.58,13.07,75l0.32,0.4,2.35-4.57,2.72-4.3,3.13-4.09,3.48-3.7,3.8-3.42-0.11-.41a80.51,80.51,0,0,1-3.52-16.5l-0.07-1,0.4,0.45a39.36,39.36,0,0,0,4.34,3.76l2.81,1.77-0.19-3.35c-0.77-6.93.86-16.6,4.52-22.68l0.22-.34,0.06,2.08a65.45,65.45,0,0,0,7.28,26.05l0.5,1,7.36-2.09-0.05-.64a66.43,66.43,0,0,1,2.46-24l0.31-1,0.22,0.93a60.49,60.49,0,0,0,8.9,18.4l1.93,2.8,1.06-3.34c5.08-17.85,5-39,4.08-57.41l0-.74,1.14,1.17c13.07,13.55,17.48,34.13,12.55,52.06l-1.77,6.16,4.59-4.4c5-4.59,8.52-11.78,11.12-17.9l0.48-1.07,0.26,1.39a53.9,53.9,0,0,1-.79,23.55l-1.23,4,3.69-2.13a48.6,48.6,0,0,0,5.86-4l0.63-.56-0.35,3.13a56.52,56.52,0,0,1-5.07,16.58L330,381.38l3.9,4.13,3.45,4.5,3,4.79,2.46,5.13,1.93,5.32,0.6-.34,2.37-1.71c14.76-10.67,24-36,18.95-53.9a22.65,22.65,0,0,0-.86-2.65,17.48,17.48,0,0,0-1-2.14,2.21,2.21,0,0,0-.6-0.73h-0.1a0.14,0.14,0,0,0-.11.15l-0.37,4.56a4.39,4.39,0,0,1-.31.95,13.8,13.8,0,0,1-4.55,5.37c-0.28.21-.56,0.41-0.86,0.61l-0.42.29-0.11-.63-0.09-.71c-1.07-12.71,2.74-22.21,3.48-34.61,0.06-.88.09-1.77,0.15-2.65,0.51-8-.51-23.19-7.75-28.5l-0.06,0L351,287l-0.35,2.66c0.09,4.87-2,10-6.06,12.77l-0.07,0-0.19-3.31c0-14.48-9.15-43.64-22.93-51.26l-0.09,0,0.53,3.51a25,25,0,0,1-.09,7.17c-0.29,2-.61,4.31-1.73,5.88l-0.09.13-0.38-2.41c-4.08-28.81-20.18-17.3-26.81-54.5l0-.23-1.93,4.06c-8.53,17.31-3.64,27.37-8.07,44.57l-0.2.95-0.47-.69a135.82,135.82,0,0,0-13.07-15.14l-3.33-3.32,0.35,4.58c1.26,15.84,2.75,37.43-2.18,52.76l-0.28.79-0.32-.57c-3.58-5.75-8.43-10.68-13.22-15.4l-3.32-3,0.35,4.59c3.15,16.35-7.73,30.48-5.66,46.65l0,0.26-0.39-.37a41,41,0,0,0-10.33-7"/></svg>