<?xml version="1.0" encoding="UTF-8"?>
<svg id="Lager_1" data-name="Lager 1" xmlns="http://www.w3.org/2000/svg" viewBox="0 0 153.09 218.69">
  <defs>
    <style>
      .cls-1 {
        fill: #fff;
      }

      .cls-1, .cls-2, .cls-3 {
        fill-rule: evenodd;
      }

      .cls-2 {
        fill: #fcbd0e;
      }

      .cls-3 {
        fill: #1d1f22;
      }
    </style>
  </defs>
  <polyline class="cls-1" points="0 218.69 153.09 218.69 153.09 0 0 0 0 218.69"/>
  <path class="cls-3" d="M143.39,118.33L79.87,8.21c-1.5-2.6-5.25-2.6-6.76,0L9.59,118.33c-1.5,2.61.36,5.87,3.38,5.87h127.04c3.01,0,4.88-3.26,3.38-5.87"/>
  <polyline class="cls-2" points="10.19 133.08 142.93 133.08 142.93 208.7 10.19 208.7 10.19 133.08"/>
  <path class="cls-3" d="M33.4,153.62c-3.17,0-3.67-3.52-3.67-4.72,0-3.3,1.87-4.78,3.61-4.78s3.61,1.5,3.61,4.78c0,1.43-.43,2.59-1,3.37-.65.93-1.5,1.35-2.56,1.35ZM119.11,151.4l6.98.02c0-2.8-1.26-5.76-4.76-5.76s-4.74,2.87-4.74,5.02c0,3.13,2.07,5.07,4.7,5.07s4.24-1.43,4.63-3.07l-2.54-.17c-.48.87-1.15,1.22-1.96,1.22-1.2,0-2.19-.81-2.32-2.33ZM119.2,149.56c.17-1.15,1.11-1.92,2.07-1.92,1.04,0,1.93.7,2.09,1.92h-4.17ZM112.18,154.45l.11.96h2.52v-13.11h-2.55v4.76c-.46-.74-1.52-1.37-2.72-1.37-2.11,0-4.18,1.76-4.18,5.05,0,1.5.48,2.74,1.22,3.61.78.94,1.76,1.37,2.87,1.37s2.07-.44,2.74-1.28ZM110.18,153.54c-1.18,0-2.22-.85-2.22-2.85,0-2.24,1.09-3.04,2.13-3.04s2.13.8,2.13,2.96-1.09,2.91-2.04,2.92ZM95.13,155.41h2.54l.02-5.28c0-.74.15-1.09.35-1.39.33-.48.93-.8,1.54-.8.87,0,1.5.57,1.5,1.63v5.83h2.54v-6.65c0-1.76-1.3-3.11-3.26-3.11-1.35,0-2.3.72-2.61,1.46l-.11-1.11-2.48-.02-.02,9.42ZM90.43,154.34c.04.46.15.8.3,1.07h2.59c-.33-.39-.43-.67-.44-.98l.02-5.17c0-2.26-1.17-3.61-4.24-3.61-2.85,0-4.04,1.56-3.98,3.15l2.22.04c0-.7.54-1.37,1.83-1.37s1.65.61,1.65,1.06c0,.39-.24.74-.93.87l-1.44.24c-2.09.37-2.65.76-3.04,1.11-.56.5-.87,1.2-.87,1.96,0,1.55,1.22,2.96,3.61,2.96,1.37,0,2.18-.46,2.72-1.33ZM90.43,150.45v1.18c0,1.33-.83,2.17-2.28,2.17-1.07,0-1.57-.63-1.57-1.2,0-.44.15-.94,1.74-1.39l1.09-.3c.5-.13.81-.32,1.02-.46ZM78.21,155.41h2.54v-4.18c0-1.41.35-2.05.78-2.5.46-.5,1.02-.74,1.72-.74.13,0,.28.02.43.04v-2.24c-.11-.02-.31-.05-.54-.05-1.09,0-2.06.7-2.35,1.68l-.07-1.43h-2.48l-.02,9.42ZM69.45,151.4l6.98.02c0-2.8-1.26-5.76-4.76-5.76s-4.74,2.87-4.74,5.02c0,3.13,2.07,5.07,4.7,5.07s4.24-1.43,4.63-3.07l-2.54-.17c-.48.87-1.15,1.22-1.96,1.22-1.2,0-2.19-.81-2.31-2.33ZM69.54,149.56c.17-1.15,1.11-1.92,2.07-1.92,1.04,0,1.93.7,2.09,1.92h-4.17ZM62.52,154.45l.11.96h2.52v-13.11h-2.56v4.76c-.46-.74-1.52-1.37-2.72-1.37-2.11,0-4.18,1.76-4.18,5.05,0,1.5.48,2.74,1.22,3.61.78.94,1.76,1.37,2.87,1.37s2.07-.44,2.74-1.28ZM60.52,153.54c-1.19,0-2.22-.85-2.22-2.85,0-2.24,1.09-3.04,2.13-3.04s2.13.8,2.13,2.96-1.09,2.91-2.04,2.92ZM51.38,155.41h2.54v-9.42h-2.54v9.42ZM51.4,144.57h2.52v-2.26h-2.52v2.26ZM40.42,155.41h2.81l1.96-2.94,1.72,2.94h3.04l-3.33-4.92,2.96-4.5h-2.67l-1.56,2.63-1.56-2.61h-2.94l2.98,4.48-3.43,4.92ZM33.34,155.82c4.57,0,6.39-3.98,6.39-6.98,0-3.15-2-6.94-6.29-6.94-2.31,0-3.93.89-5.07,2.44-.83,1.15-1.41,2.8-1.41,4.56,0,3.63,2.31,6.92,6.39,6.92Z"/>
  <path class="cls-3" d="M54.78,166.76h2.54l.02-2.57h-2.54l-.02,2.57ZM92.79,173.29l7,.02c0-2.8-1.26-5.76-4.78-5.76s-4.74,2.87-4.74,5.02c0,3.13,2.07,5.07,4.72,5.07s4.24-1.43,4.63-3.07l-2.55-.17c-.48.87-1.15,1.22-1.96,1.22-1.2,0-2.18-.82-2.31-2.33ZM92.91,171.46c.15-1.15,1.09-1.93,2.05-1.93,1.04,0,1.93.7,2.09,1.93h-4.15ZM80.06,177.31h2.54l.02-5.28c0-.74.15-1.09.35-1.39.33-.48.93-.8,1.54-.8.89,0,1.52.57,1.52,1.63l-.02,5.83h2.54v-6.65c0-1.76-1.3-3.11-3.24-3.11-1.35,0-2.3.72-2.63,1.46l-.09-1.11-2.5-.02-.02,9.42ZM64.3,177.31h2.54l.02-5.44c0-1.35.76-2.04,1.78-2.04.67,0,1.07.33,1.26.8.04.09.11.3.11,1.04v5.65h2.52v-5.59c0-1.22.76-1.93,1.76-1.93.85,0,1.43.52,1.43,1.63v5.89h2.48l-.02-6.61c-.05-1.98-1.31-3.11-3-3.11-1.31,0-2.33.61-2.91,1.65-.48-.98-1.52-1.65-2.76-1.65s-2.13.55-2.63,1.5l-.09-1.18-2.46-.02-.02,9.42ZM59.6,176.24c.06.37.19.78.33,1.07h2.55c-.15-.13-.39-.56-.39-1.33l-.04-4.81c-.02-.83-.07-1.07-.13-1.28-.39-1.3-1.44-2.33-4-2.33-2.93,0-4.09,1.5-4.09,3.15l2.24.04c.09-.63.18-.76.39-.94.24-.22.72-.44,1.48-.44,1.19,0,1.63.63,1.63,1.07s-.28.76-.96.89l-2.55.45c-1.91.33-2.8,1.57-2.8,2.81,0,1.63,1.26,3.02,3.54,3.02,1.57,0,2.44-.63,2.8-1.35ZM59.6,172.29v1.41c-.06,1.18-.87,2-2.24,2-1.07,0-1.57-.63-1.57-1.18,0-.45.22-1.02,1.72-1.39l1.09-.3c.43-.09.76-.3,1-.54ZM58.08,166.76l2.56.02v-2.57h-2.54l-.02,2.56Z"/>
  <polyline class="cls-2" points="20.22 116.13 76.49 18.54 132.77 116.13 20.22 116.13"/>
  <path class="cls-3" d="M84.8,97.01l-.08-1.17-.21-1.16c-2.67-9.86-16.24-9.86-18.91,0l-.21,1.16-.07,1.17c.27,10.85,14.73,13.49,18.83,3.46l.35-1.13.21-1.16.08-1.17ZM90.58,110.29h-31.04v-2.89h8.62l-1.05-.77-.96-.88c-7.05-7.35-3.09-19.38,6.96-21.06l1.29-.13h1.3c10.78.69,15.72,13.4,8.25,21.2l-.95.88-1.05.77h8.62v2.89Z"/>
  <path class="cls-3" d="M59.31,71.24l-.99-.49.36,1.04c1.8,6.6-1.55,13.52,3.36,19.29l.08.1.6-1.18.7-1.11.8-1.05.89-.95.98-.88-.03-.11c-.46-1.38-.75-2.81-.9-4.24l-.02-.26.1.12c.37.36.7.67,1.12.97l.72.46-.05-.86c-.2-1.78.22-4.27,1.16-5.83l.06-.09v.54c.15,2.34.82,4.61,1.89,6.7l.13.25,1.89-.54v-.16c-.19-2.06.04-4.19.62-6.18l.08-.25.06.24c.45,1.7,1.3,3.28,2.29,4.73l.5.72.27-.86c1.31-4.59,1.28-10.03,1.05-14.76v-.19s.29.3.29.3c3.36,3.49,4.49,8.78,3.23,13.39l-.46,1.58,1.18-1.13c1.28-1.18,2.19-3.03,2.86-4.6l.12-.28.07.36c.41,2.1.28,3.98-.2,6.06l-.32,1.04.95-.55c.52-.31,1.03-.65,1.51-1.03l.16-.14-.09.81c-.2,1.49-.66,2.9-1.3,4.26l-.15.28,1,1.06.89,1.15.76,1.23.63,1.32.5,1.37.16-.09.61-.44c3.8-2.74,6.18-9.27,4.87-13.86-.06-.23-.15-.53-.22-.68-.08-.17-.16-.4-.26-.55-.04-.07-.12-.19-.16-.19h-.03s-.03.02-.03.04l-.09,1.17c0,.05-.05.16-.08.24-.22.55-.71,1.03-1.17,1.38-.07.05-.15.11-.22.16l-.11.07-.03-.16-.02-.18c-.27-3.27.7-5.71.89-8.9.01-.23.02-.45.04-.68.13-2.05-.13-5.96-1.99-7.33h-.02s-.55-.41-.55-.41l-.09.68c.02,1.25-.5,2.57-1.56,3.29h-.02s-.05-.85-.05-.85c.01-3.72-2.35-11.22-5.9-13.18h-.02s.14.89.14.89c.09.61.06,1.23-.02,1.84-.07.52-.16,1.11-.45,1.51l-.02.03-.1-.62c-1.05-7.41-5.19-4.45-6.9-14.02v-.06s-.5,1.04-.5,1.04c-2.19,4.45-.94,7.04-2.07,11.46l-.05.24-.12-.18c-1.03-1.41-2.14-2.65-3.36-3.89l-.86-.85.09,1.18c.32,4.07.71,9.63-.56,13.57l-.07.2-.08-.15c-.92-1.48-2.17-2.75-3.4-3.96l-.85-.77.09,1.18c.81,4.21-1.99,7.84-1.45,12v.07s-.09-.1-.09-.1c-.78-.75-1.69-1.32-2.66-1.8"/>
</svg>