<?xml version="1.0" encoding="UTF-8"?>
<svg id="Lager_1" data-name="Lager 1" xmlns="http://www.w3.org/2000/svg" viewBox="0 0 153.09 218.69">
  <defs>
    <style>
      .cls-1 {
        fill: #fff;
      }

      .cls-1, .cls-2, .cls-3 {
        fill-rule: evenodd;
      }

      .cls-2 {
        fill: #fcbd0e;
      }

      .cls-3 {
        fill: #1d1f22;
      }
    </style>
  </defs>
  <polyline class="cls-1" points="0 218.69 153.09 218.69 153.09 0 0 0 0 218.69"/>
  <path class="cls-3" d="M143.4,118.38L79.82,8.27c-1.49-2.58-5.22-2.58-6.71,0L9.59,118.38c-1.48,2.57.36,5.78,3.33,5.78h127.15c2.97,0,4.81-3.21,3.33-5.78"/>
  <polyline class="cls-2" points="10.19 133.08 142.93 133.08 142.93 208.7 10.19 208.7 10.19 133.08"/>
  <path class="cls-3" d="M40.16,153.88h2.7v-10.92h3.96v-2.18h-10.65v2.18h3.98v10.92ZM116.9,153.88v-1.95h-.94c-.31,0-.61-.17-.74-.35-.04-.07-.11-.22-.11-.74v-4.67h1.7v-1.72h-1.7l-.02-2.98h-2.52v2.98h-1.33v1.74l1.33-.02v4.87c0,2.13.87,2.83,2.28,2.83h2.05ZM109.89,153.88v-1.95h-.94c-.32,0-.61-.17-.74-.35-.04-.07-.11-.22-.11-.74v-4.67h1.7v-1.72h-1.7l-.02-2.98h-2.52v2.98h-1.33v1.74l1.33-.02v4.87c0,2.13.87,2.83,2.28,2.83h2.05ZM100.18,152.8c.05.46.15.8.3,1.07h2.59c-.33-.39-.43-.67-.43-.98v-5.17c0-2.26-1.17-3.61-4.24-3.61-2.85,0-4.04,1.55-3.98,3.15l2.24.04c0-.7.52-1.37,1.81-1.37s1.65.61,1.65,1.06c0,.39-.24.74-.93.87l-1.44.24c-2.07.37-2.63.76-3.04,1.11-.56.5-.87,1.2-.87,1.96,0,1.56,1.22,2.96,3.61,2.96,1.37,0,2.18-.46,2.72-1.33ZM100.2,148.92l-.02,1.18c0,1.33-.83,2.17-2.28,2.17-1.05,0-1.57-.63-1.57-1.2,0-.44.15-.94,1.76-1.39l1.09-.3c.48-.13.81-.31,1.02-.46ZM83.74,150.73c.06,1.78,1.54,3.48,4.44,3.48s4.22-1.57,4.22-3.26c0-.59-.2-1.18-.57-1.65-.35-.44-.81-.78-1.93-1.04l-2.7-.63c-.57-.15-.81-.5-.81-.83,0-.37.35-.95,1.57-.95,1.35,0,1.94.7,1.96,1.46l2.22-.04c-.04-.94-.54-1.89-1.35-2.48-.54-.39-1.41-.72-2.8-.72-2.7,0-3.91,1.46-3.91,3.07,0,.76.22,1.3.65,1.78.33.35.76.65,1.81.87l2.04.46c1.19.26,1.33.63,1.33,1.07,0,.41-.41,1.05-1.8,1.05s-2-.7-2.07-1.68l-2.31.02ZM73.21,153.88h2.54l-.02-3.09,1.06-1.06,2.59,4.15h3.09l-3.87-5.8,3.37-3.63h-3l-3.22,3.59-.02-7.28h-2.54l.02,13.11ZM69,150.45c-.13.74-.35,1.04-.72,1.32-.31.24-.7.39-1.22.39-1.15,0-2.19-.82-2.19-2.93,0-2.31,1.11-3.17,2.28-3.17.91,0,1.67.67,1.8,1.61l2.44-.13c-.2-1.96-1.72-3.48-4.31-3.48-1.85,0-3.15.72-4,1.98-.57.82-.91,1.83-.91,3.15,0,1.91.78,3.35,1.96,4.22.74.54,1.65.87,2.93.87.89,0,1.41-.13,1.87-.32,1.43-.52,2.3-1.59,2.48-3.41l-2.41-.11ZM52.97,154.95v1.98h1.87c2.2,0,2.72-1.74,2.93-2.32l3.59-10.16h-2.7l-1.87,5.83-1.98-5.83h-2.74l2.93,7.94c.19.52.24.87.24,1.3,0,.76-.41,1.28-1.5,1.26h-.76ZM45.51,153.88h2.54l.02-4.18c0-1.41.33-2.05.76-2.5.46-.5,1.02-.74,1.72-.74.15,0,.28.02.43.04l.02-2.24c-.13-.02-.33-.05-.54-.05-1.11,0-2.07.7-2.37,1.68l-.07-1.43h-2.48l-.02,9.42Z"/>
  <path class="cls-3" d="M51.61,173.26c-1.22,0-2.26-.89-2.26-2.63,0-1.52,1.06-2.48,2.2-2.48s2.22.96,2.22,2.56-1.07,2.56-2.17,2.56ZM96.79,175.74h2.5l.13-.96c.67.83,1.57,1.26,2.72,1.26,2.07,0,4.13-1.7,4.13-5.04s-2.07-5-4.11-5c-1.37,0-2.33.59-2.81,1.41l-.02-4.78h-2.54v13.11ZM101.52,173.85c-1.06,0-2.15-.83-2.15-2.94s1.09-2.94,2.13-2.94c1.13,0,2.17.8,2.17,2.98s-1.05,2.91-2.15,2.91ZM92.31,174.68l.13,1.06h2.39v-9.41l-2.52-.02v5.28c0,1.44-.85,2.18-1.89,2.18-.93,0-1.52-.5-1.52-1.83v-5.63h-2.54v6.48c0,1.24.35,1.91.93,2.44.56.5,1.33.81,2.35.81,1.17,0,2.09-.5,2.67-1.37ZM84.54,175.74v-1.94h-.94c-.3,0-.59-.17-.72-.35-.06-.07-.13-.22-.13-.74v-4.67h1.72v-1.72h-1.7l-.02-2.98h-2.52v2.98h-1.33v1.74l1.33-.02v4.87c0,2.13.87,2.83,2.28,2.83h2.04ZM68.74,172.59c.06,1.78,1.54,3.48,4.43,3.48s4.22-1.57,4.22-3.26c0-.59-.2-1.18-.57-1.65-.33-.44-.8-.78-1.91-1.04l-2.72-.63c-.55-.15-.8-.5-.8-.83,0-.37.35-.95,1.57-.95,1.35,0,1.94.7,1.94,1.46l2.22-.04c-.04-.94-.54-1.89-1.33-2.48-.54-.39-1.43-.72-2.8-.72-2.7,0-3.91,1.46-3.91,3.07,0,.76.2,1.3.65,1.78.33.35.74.65,1.8.87l2.04.46c1.2.26,1.33.63,1.33,1.07,0,.41-.39,1.05-1.78,1.05s-2-.7-2.09-1.68l-2.3.02ZM64.39,174.66c.04.46.15.8.3,1.07h2.59c-.33-.39-.43-.67-.43-.98v-5.17c0-2.26-1.17-3.61-4.24-3.61-2.85,0-4.04,1.55-3.98,3.15l2.22.04c0-.7.54-1.37,1.83-1.37s1.65.61,1.65,1.06c0,.39-.24.74-.93.87l-1.44.24c-2.07.37-2.65.76-3.04,1.11-.56.5-.87,1.2-.87,1.96,0,1.56,1.22,2.96,3.61,2.96,1.37,0,2.19-.46,2.72-1.33ZM64.39,170.77v1.18c0,1.33-.83,2.17-2.28,2.17-1.07,0-1.57-.63-1.57-1.2,0-.44.15-.94,1.74-1.39l1.09-.3c.5-.13.81-.31,1.02-.46ZM47.32,176.25c.11.89.39,1.39.93,1.89.57.55,1.63,1.07,3.46,1.07,2.04,0,3.33-.76,3.98-1.57.43-.57.65-1.09.65-2.5v-8.83h-2.43l-.07,1.15c-.19-.3-.69-1.48-2.8-1.48-2.28,0-4.26,1.81-4.26,4.72s2,4.74,4.24,4.74c1.5,0,2.44-.68,2.8-1.41v1.02c0,1.59-.72,2.26-2.19,2.26-1.09,0-1.61-.56-1.7-1.15l-2.61.09Z"/>
  <path class="cls-2" d="M90.57,43.04l-9.39,21.84c-.15-.05-.39-.05-.54.05-.1.1-.14.29-.14.44,0,.19.14.34.2.54.05.09.05.19.05.34l-.54,1.62-.05.1s-.05,0-.09,0c-.1,0-.1-.15-.25-.2-.15-.1-.34-.2-.54-.2l1.23-4.85,6.36-26.12,3.71,6.43ZM72.86,36.5l-1.75-8.56,1.11-1.93.63,10.49ZM68.07,33.21l2.1,11.9-3.18-10.03,1.08-1.88ZM58.92,62.54l.64-.98,5.68,4.11-6.31-3.14ZM47.12,71.94l1.12-1.91,10.52,1.72-11.65.2Z"/>
  <path class="cls-2" d="M20.25,116.08l24.63-42.67,13.74-.29,12.72.24c-.2-.44-.15-.98.1-1.42l-1.96-.2-.3.78c-.2.3-.54.54-.93.64-.49,0-.98-.29-1.32-.59-.34-.15-.74-.05-1.03-.24-.19-.15-.34-.39-.29-.69v-.44c-.1-.05-.2-.05-.29-.05l-17.73-2.44,5.22-9.05,20.83,11.01s.15,0,.2-.05v-.15s-.05-.1-.1-.15c-.15-.15-.35-.3-.39-.44-.2-.39.19-.78.1-1.22,0-.19-.1-.34-.25-.54-.25-.29-.49-.54-.83-.78-.19,0-.34.25-.34.44l.44.79c-.34,0-.59.24-.88.34l-9.4-6.36v-.1c.29,0,.59-.24.68-.54.05-.15,0-.34-.05-.49-.15-.49-.34-.98-.54-1.37-.14-.15-.29-.15-.44-.2-.34-.1-.54-.39-.88-.39-.15,0-.25.05-.39.19,0,.1-.1.2-.1.3.05.15.24.29.39.44.05.1.05.24.1.39.05.25.05.44.05.69l-.1.15-6.53-4.68,1.52-2.63,14.02,11.67c.09.1.15.1.19.15v-.1s-.05-.05-.05-.05l-7.34-8.42-5.02-6.39.77-1.33,16.48,19.22v-.05l-4.94-7.1c.1-.34.15-.68.15-1.02-.05-.2-.25-.35-.44-.29-.2.05-.2.24-.29.39l-8.95-14.62,1.32-2.29,12.08,21.51-5.97-14.73-2.83-12.46.75-1.29,9.23,27.55c.05.1.05.15.14.2l-6.06-33.49.83-1.44,6.46,30.72-2.64-37.34,2.69-4.65h0s.69,47.77.69,47.77l3.47-40.56,3.23,5.6-.88,7.37-2.25,19.62-2.25,11.3c.2.15.34.39.49.59.1.15.25.29.39.34l.73-1.32,13.51-20.99-1-1.75,40.1,69.48H20.25"/>
  <polyline class="cls-3" points="66.06 76.88 63.56 75.26 73.45 73.4 73.45 73.45 66.06 76.88"/>
  <path class="cls-3" d="M97.48,66.21l-5.77,3.52c-1.76-1.42-4.26-1.66-6.32-.35l-4.5,2.79-.64.39c-.05-.3-.15-.59-.29-.88-.2-.25-.39-.49-.59-.74-.34.05-.69.15-.93.34-.1.1-.2.25-.15.39.05.15.15.24.09.39-.05.2-.25.29-.49.25-.05,0-.15-.05-.2-.1-.25-.15-.44-.34-.68-.49-.1.05-.2.1-.25.25-.05.1-.05.29-.1.44l-.54.68c.15.34.24.78,0,1.08-.2.2-.49-.05-.74-.2-.15-.1-.34-.24-.54-.19-.44.05-.68.54-.64.97.05.49.34.88.69,1.18l-1.23.74-38.17,23.88c-2.55,1.61-3.52,5.14-2.01,7.73,1.56,2.44,4.75,3.23,7.24,1.9l50.51-31.51c2-1.27,2.89-3.67,2.4-5.88l5.72-3.52c.59-.39.59-1.32.1-2.25-.59-.83-1.52-1.22-2.01-.83"/>
  <path class="cls-3" d="M80.01,70.52s.05.05.05.05c.09.1.29.1.39.05l.1-.1s.1-.05.1-.1l.05-.39.44-.44-.09-.39c-.05-.24-.35-.24-.54-.1-.15.1-.29.29-.39.49-.1.15-.19.29-.25.49,0,.15.05.34.15.44"/>
  <path class="cls-3" d="M81.72,61.85l.15-.1c.2-.49.64-.83.73-1.32,0-.2-.05-.39-.05-.64,0-.39.05-.78.1-1.17.15-.2.29-.44.29-.73-.05-.2-.15-.44-.34-.39-.15,0-.24.15-.39.29-.05.3-.15.64-.29.93-.1.2-.25.39-.3.64-.15.29-.2.64-.15.98-.05.1-.15.19-.2.29-.15.2-.24.39-.24.64.05.34.34.73.69.59"/>
  <path class="cls-3" d="M73.65,75.26l.15-.1.1-.24c0-.15-.1-.3-.25-.4-.15,0-.29.1-.44.15-.1.05-.1.15-.1.25l.05.19.25.15c.1,0,.15.05.24,0"/>
  <path class="cls-3" d="M73.84,76.24l.24-.1.2-.3v-.2l-.29-.34c-.05-.05-.15,0-.25,0l-.19.15c-.1.15-.15.3-.1.44,0,.15.1.24.25.34h.15"/>
  <path class="cls-3" d="M75.51,66.21l.25-.05-.15-.39.05-.44c0-.1-.09-.15-.15-.15h-.15l-.15.1c-.05.24.1.49.2.79.05,0,.05.1.1.15"/>
  <path class="cls-3" d="M77.95,66.6l.19-.1s.1-.1.15-.15l.05-.39c-.05-.2-.2-.54-.39-.39-.15.1-.24.29-.34.44v.35c.05.15.2.24.34.24"/>
  <path class="cls-3" d="M74.14,70.22l.19-.15c.1-.1.15-.2.15-.34,0-.25-.1-.54-.29-.59-.2-.05-.34.05-.49.15l-.2.29v.25c.05.15.1.24.2.34.15.05.29.09.44.05"/>
  <path class="cls-3" d="M69.58,70.22l.1-.05c.1-.05.15-.15.15-.2l-.09-.54-.1-.25c-.2-.15-.39-.1-.59-.05-.15.05-.2.15-.29.29v.25c.15.19.29.39.44.54l.15.1c.1,0,.2-.05.25-.1"/>
  <path class="cls-3" d="M74.57,67.33l.2-.15c.2-.1.34-.29.39-.49l.05-.49c0-.15-.15-.2-.25-.2-.24,0-.49.05-.64.2l-.19.44-.05.3.24.34c.05,0,.15.05.25.05"/>
  <path class="cls-3" d="M79.18,63.96h.15c.1,0,.15-.05.24-.15-.1-.3-.1-.64-.05-.93-.05-.19-.15-.34-.34-.39-.2,0-.34.2-.44.29l-.19.4c.05.34.29.68.64.78"/>
  <path class="cls-3" d="M67.43,66.01l.2.05c.25.1.49.05.69-.1.09-.1.15-.2.09-.29-.05-.2-.15-.29-.29-.4l-.59-.68c-.15-.05-.29-.05-.44,0-.1.1-.15.19-.15.34l.15.63c.1.19.19.34.34.44"/>
  <path class="cls-3" d="M67.68,69.88h.2c.24-.05.39-.29.44-.54,0-.25-.05-.54-.25-.74l-1.17-.39c-.1-.05-.1,0-.15.05-.2.1-.25.3-.25.49,0,.24.1.44.25.63l.64.4c.1.05.2.1.29.1"/>
  <path class="cls-3" d="M77.51,71.35l.1-.15c0-.1.05-.15.05-.25.05-.39.1-.78-.1-1.12-.19-.29-.64-.34-.98-.34-.05-.1-.1-.19-.2-.25-.15-.05-.25.05-.29.15-.1.1-.1.2-.15.3-.05.34-.15.68-.15,1.07.05.15.2.3.29.44l1.22.29c.1-.05.15-.1.2-.15"/>
  <path class="cls-3" d="M74.82,73.31l.1.15c.1.05.24,0,.29,0l.49-1.03s.1-.15.1-.2c.05-.2,0-.34-.1-.49-.15-.25-.29-.44-.39-.68-.19-.15-.49-.05-.64.2-.05.14.05.24.05.44-.1.1-.25.25-.2.44.05.05.05.1.1.15-.1.35-.1.79.2,1.03"/>
  <path class="cls-3" d="M78.88,61.61h.29c.25-.05.34-.19.44-.34.15-.64.25-1.37.05-2.01,0-.15-.05-.29-.15-.39-.24-.19-.58.15-.73.39l-.39,1.37c-.15.39.1.93.49.98"/>
  <path class="cls-3" d="M60.24,66.85l.1.29c.1.19.24.39.49.49.39,0,.93-.05,1.12-.44.2-.34.1-.83-.15-1.17-.2-.25-.54-.39-.83-.59-.25-.25-.49-.49-.78-.64-.15-.09-.29-.14-.49-.19-.1.05-.2.1-.25.19-.15.49-.15.98-.05,1.47.24.25.64.3.83.59"/>
  <path class="cls-3" d="M53.14,67.38l.24.1.34-.2.29.2s.2-.1.34-.15c.15,0,.1-.05.15-.24.1-.2.25-.49.39-.49.1,0,.24-.29.24-.29l-.15-.44s-.15-.34-.15-.49c.05-.1-.19-.54-.19-.54l-.1-.29s-.15,0-.19-.24c-.05-.25-.2-.69-.2-.69,0,0,.1-.19.15-.34.05-.15.05-.44.05-.44l-.39-.34-.49-.05h-.2l-.25.58s-.34.15-.34.25c-.05.15-.24.39-.24.49,0,.15-.05.59-.05.59.1.25-.15.69,0,.78.2.05.15.1.25.25.1.1.05.39.05.39l-.05.64.15.34s0,.3.1.39c.14.05.24.25.24.25"/>
  <path class="cls-3" d="M83.92,67.09s-.15.05-.19.05h-.15c-.1,0,0,0-.2-.05-.15,0-.25.05-.25.05,0,0,0,.1-.1.1-.1.05-.2.1-.2.1,0,0,.05.15,0,.25,0,.05.05.29.05.29l.1.2.05.15v.29l-.2.15-.15.25-.05.2.2.25v.19l.29-.29.3-.1.19-.09.2-.2s.09-.1.09-.2c-.05-.09.05-.29.05-.29,0,0,.15-.05.15-.15s.09-.15.05-.2c0-.05.1-.15.1-.15l.05-.15.05-.15v-.15q-.05-.05-.1-.1c0-.05-.05-.1-.05-.1l-.09-.05-.1-.1h-.1"/>
  <polyline class="cls-3" points="92 110.7 113.39 110.7 113.39 108.54 92 108.54 92 110.7"/>
  <path class="cls-3" d="M105.46,89.55c.05-.59-.1-.98-.1-.98.25-.05.88.74,1.32,1.42,1.37,2.59,1.27,4.65,1.27,4.65.78-.54.73-1.76.73-1.76,0,0,.59.34.78.98.2.54.34,1.52.34,2.35-.05.83-.14,1.56-.34,2.64-.24,1.08-.05,1.71-.05,1.71,0,0,.69-.34.73-1.37,0,0,.64.78.39,2.54-.2,1.76-1.03,2.84-1.47,3.33-.44.59-.88,1.12-3.13,1.81-1.22.29-3.42.05-3.42.05l1.17-.64s.83-.64,1.42-1.18c.54-.54.78-.93,1.17-1.56.73-1.47.69-2.4.69-2.4-.69.59-1.08.68-1.08.68,0,0,.25-1.17.29-1.81,0-.54-.05-1.22-.1-1.32-.1,0-.3.68-.68,1.27-.34.59-1.13,1.27-1.13,1.27,0,0,.74-2.15.29-3.72-.44-1.52-.93-2.21-1.61-2.84,0,0,.09,2.1.05,2.93,0,1.27-.29,2.94-.59,3.82,0,0-.44-.59-.59-.83-.39-.73-.49-.98-.49-.98l-.19-.58s-.29.73-.29,1.91.15,1.96.34,2.15c0,0-.05,0-.2.05-.2.1-.15.15-.15.15-.88-1.02-1.18-1.86-1.42-2.69-.29-.83-.29-1.72-.29-1.72,0,0-.64.93-.49,2.84,0,.1-.15-.05-.44-.24l-.4-.34s.2,1.32.34,1.57c.1.24.25,1.22,1.17,2.49.74,1.03,1.66,1.66,1.66,1.66,0,0-1.37.59-3.48-.59-1.37-1.08-2.2-2.74-2.2-3.62-.1-1.03-.05-2.79-.1-4.65,0,0-.2-1.27-.4-1.52,0,0,.54.1,1.62.98,0,0-.15.34,0-.98.15-1.32.54-1.91.64-2.35.1-.39.05-2.25,0-2.4,0,0,.44.44,1.32,1.37l.53.78s.2-.54.35-1.52c.1-.93.05-1.37.05-3.18,0,0-.05-.88-.15-1.76,0,0,.83.73,1.86,2.16,0,0,.15-.35.25-1.52.05-1.27.19-2.2.19-2.2,0,0,.34-1.42.74-1.81,0,0,.15,1.17.39,1.52,0,0,.44,1.12.64,1.27.64.84,1.42,1.37,1.71,2.21.15.73.25,1.37.25,1.37,0,0,.2-.25.24-.88"/>
  <path class="cls-3" d="M72.47,59.99l.2.05c.15,0,.2-.1.29-.2.1-.05.15-.24.2-.39l-.2-.64c.15-.19.1-.44.05-.58l-.54-.69c-.1-.15-.24-.05-.39.05-.1.05-.15.15-.25.2-.25.39-.34.88-.19,1.32.19.39.44.78.83.88"/>
</svg>