<svg xmlns="http://www.w3.org/2000/svg" viewBox="0 0 595.28 850.36"><defs><style>.a{fill:#fcc00d;}.a,.b{fill-rule:evenodd;}.b{fill:#000100;}</style></defs><title>W029_C</title><polyline class="a" points="0 850.36 595.28 850.36 595.28 0 0 0 0 850.36"/><path class="b" d="M229.09,287.22l2.47-3.8,22.07,16ZM557.6,504.37L310.38,76.19a15.05,15.05,0,0,0-26.07,0l-247,428.17a15,15,0,0,0,12.94,22.47H544.64A15,15,0,0,0,557.6,504.37ZM352.17,211.42l-36.5,84.94a2.76,2.76,0,0,0-2.1.19,2.67,2.67,0,0,0-.56,1.71,9.18,9.18,0,0,0,.76,2.11,2.75,2.75,0,0,1,.19,1.32L311.87,308l-0.2.37c0,0.19-.18,0-0.37,0-0.39,0-.39-0.57-1-0.76a4,4,0,0,0-2.1-.75L313,288l24.73-101.58ZM283.32,186l-6.8-33.27,4.34-7.51Zm-18.62-12.79,8.16,46.29-12.37-39ZM78.75,495.42l95.76-165.94,53.43-1.14,49.47,0.95a6.26,6.26,0,0,1,.39-5.51l-7.61-.77L269,326a6.16,6.16,0,0,1-3.61,2.47,8.53,8.53,0,0,1-5.14-2.28c-1.33-.57-2.86-0.19-4-0.94a2.77,2.77,0,0,1-1.14-2.68v-1.71a2.42,2.42,0,0,0-1.15-.19l-69-9.5L205.35,276l81,42.8a1.13,1.13,0,0,0,.76-0.19v-0.57a1,1,0,0,0-.37-0.57,5.94,5.94,0,0,1-1.52-1.72c-0.77-1.52.75-3,.38-4.76a3.47,3.47,0,0,0-1-2.08,16.72,16.72,0,0,0-3.24-3,1.67,1.67,0,0,0-1.33,1.71l1.71,3.06c-1.32,0-2.28.94-3.41,1.32l-36.53-24.74v-0.38a3,3,0,0,0,2.66-2.1,3.35,3.35,0,0,0-.19-1.9,32.56,32.56,0,0,0-2.1-5.32,3.33,3.33,0,0,0-1.7-.78c-1.34-.37-2.09-1.51-3.43-1.51a2,2,0,0,0-1.52.75c0,0.39-.38.76-0.38,1.15a6.1,6.1,0,0,0,1.52,1.71c0.19,0.38.19,0.94,0.38,1.52a12.63,12.63,0,0,1,.19,2.68l-0.39.57-25.4-18.2,5.91-10.25,54.52,45.39a8,8,0,0,0,.75.57v-0.38a0.18,0.18,0,0,0-.19-0.19l-28.55-32.73L224.41,243l3-5.19,64.08,74.73v-0.19l-19.21-27.59a14.18,14.18,0,0,0,.58-4,1.47,1.47,0,0,0-1.72-1.14c-0.76.18-.76,0.95-1.15,1.52L235.2,224.29l5.15-8.92,47,83.65L264.1,241.76l-11-48.45,2.9-5L291.89,295.4a1.23,1.23,0,0,0,.56.77L268.87,165.94l3.23-5.6L297.21,279.8,287,134.61l10.44-18.1h0l2.67,185.74,13.5-157.73,12.56,21.77-3.41,28.64L314,271.25l-8.76,44a10.16,10.16,0,0,1,1.91,2.29,3.46,3.46,0,0,0,1.52,1.33l2.86-5.14L364,232l-3.87-6.82L516.06,495.42H78.75ZM183.22,323.77l4.37-7.44L228.51,323Z"/><path class="b" d="M156.14,643.92h10.51V601.45h15.41v-8.5h-41.4v8.5h15.48v42.48Zm298.43,0v-7.56H450.9A3.68,3.68,0,0,1,448,635a5.79,5.79,0,0,1-.43-2.88V614h6.63v-6.7h-6.63l-0.07-11.59h-9.79v11.59h-5.18V614l5.18-.07v18.93c0,8.28,3.38,11,8.85,11h8Zm-27.29,0v-7.56h-3.67a3.7,3.7,0,0,1-2.88-1.37,5.85,5.85,0,0,1-.43-2.88V614h6.62v-6.7H420.3l-0.07-11.59h-9.79v11.59h-5.18V614l5.18-.07v18.93c0,8.28,3.39,11,8.86,11h8Zm-37.73-4.18a11.57,11.57,0,0,0,1.15,4.18h10.08a5.48,5.48,0,0,1-1.66-3.81V620c0-8.78-4.53-14-16.49-14-11.09,0-15.69,6.05-15.48,12.24l8.71,0.14c0-2.74,2-5.33,7.05-5.33,4.83,0,6.41,2.38,6.41,4.1,0,1.51-.94,2.88-3.6,3.38l-5.62.94c-8.06,1.44-10.22,3-11.8,4.32a10.19,10.19,0,0,0-3.39,7.63c0,6,4.75,11.52,14,11.52C384.3,644.93,387.47,643.13,389.56,639.75Zm0.07-15.12-0.07,4.61c0,5.18-3.24,8.42-8.86,8.42-4.1,0-6.12-2.45-6.12-4.68,0-1.73.58-3.67,6.84-5.4l4.25-1.15A12.1,12.1,0,0,0,389.63,624.63Zm-64,7.05c0.21,6.91,6,13.54,17.28,13.54s16.41-6.12,16.41-12.67a10.35,10.35,0,0,0-2.23-6.41c-1.37-1.73-3.17-3-7.49-4l-10.51-2.45c-2.23-.58-3.17-1.94-3.17-3.24s1.37-3.67,6.12-3.67c5.26,0,7.56,2.73,7.63,5.69l8.64-.15a12.77,12.77,0,0,0-5.26-9.65c-2.09-1.51-5.47-2.81-10.87-2.81-10.51,0-15.19,5.69-15.19,12a9.71,9.71,0,0,0,2.52,6.91c1.29,1.37,3,2.52,7.05,3.39l7.92,1.8c4.61,1,5.18,2.45,5.18,4.17s-1.58,4.11-7,4.11c-5.18,0-7.78-2.74-8.06-6.55Zm-41,12.24h9.87l-0.07-12,4.11-4.1,10.08,16.13h12l-15-22.53,13.1-14.11H307.05l-12.53,14-0.07-28.3h-9.86Zm-16.34-13.32c-0.5,2.88-1.37,4-2.81,5.11a7.5,7.5,0,0,1-4.75,1.51c-4.46,0-8.5-3.17-8.5-11.37,0-9,4.32-12.31,8.86-12.31a7.07,7.07,0,0,1,7,6.26l9.5-.5c-0.79-7.63-6.7-13.54-16.77-13.54-7.2,0-12.24,2.81-15.55,7.7a20.56,20.56,0,0,0-3.53,12.24c0,7.42,3,13,7.63,16.41a18.42,18.42,0,0,0,11.37,3.38,18.17,18.17,0,0,0,7.27-1.22c5.55-2,8.93-6.19,9.65-13.25ZM206,648.1v7.7h7.27c8.57,0,10.58-6.77,11.37-9l14-39.53H228.07L220.8,630l-7.7-22.68H202.44l11.38,30.89a13.68,13.68,0,0,1,.93,5c0,3-1.58,5-5.83,4.9h-3Zm-29-4.18h9.86l0.07-16.27c0-5.48,1.29-8,3-9.72a8.62,8.62,0,0,1,6.7-2.88,13.21,13.21,0,0,1,1.66.14l0.07-8.71a14,14,0,0,0-2.09-.22,9.54,9.54,0,0,0-9.22,6.55l-0.29-5.54H177Z"/><path class="b" d="M200.7,721.36c-4.75,0-8.78-3.46-8.78-10.22,0-5.9,4.11-9.65,8.57-9.65s8.64,3.74,8.64,9.93S205,721.36,200.7,721.36ZM376.38,731h9.72l0.51-3.74a12.85,12.85,0,0,0,10.58,4.9c8.06,0,16.06-6.62,16.06-19.58,0-12.6-8.07-19.44-16-19.44-5.33,0-9.07,2.3-10.94,5.47L386.24,680h-9.86v51Zm18.36-7.34c-4.1,0-8.35-3.24-8.35-11.45s4.25-11.45,8.28-11.45c4.39,0,8.42,3.1,8.42,11.59C403.09,720.42,399,723.66,394.74,723.66ZM359,726.9l0.5,4.1h9.29V694.43l-9.79-.07v20.52c0,5.61-3.31,8.49-7.34,8.49-3.6,0-5.9-1.94-5.9-7.13V694.36h-9.86v25.2c0,4.83,1.37,7.42,3.6,9.5a13.24,13.24,0,0,0,9.14,3.17A11.9,11.9,0,0,0,359,726.9ZM328.71,731v-7.56H325a3.65,3.65,0,0,1-2.81-1.37c-0.22-.29-0.51-0.86-0.51-2.88V701.06h6.7v-6.7H321.8l-0.07-11.59h-9.79v11.59h-5.18v6.77l5.18-.07V720c0,8.28,3.38,11,8.85,11h7.92ZM267.3,718.76c0.22,6.91,6,13.54,17.21,13.54,11.45,0,16.41-6.12,16.41-12.67a10.35,10.35,0,0,0-2.23-6.41c-1.29-1.73-3.09-3-7.42-4l-10.58-2.45c-2.16-.58-3.09-1.94-3.09-3.24s1.37-3.67,6.12-3.67c5.26,0,7.56,2.73,7.56,5.69l8.64-.14a12.93,12.93,0,0,0-5.18-9.65c-2.09-1.51-5.55-2.81-10.87-2.81-10.51,0-15.19,5.69-15.19,12a9.41,9.41,0,0,0,2.52,6.91c1.29,1.37,2.88,2.52,7,3.39l7.92,1.8c4.68,1,5.18,2.45,5.18,4.17s-1.51,4.11-6.91,4.11c-5.19,0-7.78-2.74-8.14-6.55Zm-16.92,8.06a10.31,10.31,0,0,0,1.15,4.18h10.08a5.46,5.46,0,0,1-1.66-3.81V707.1c0-8.78-4.54-14-16.49-14-11.09,0-15.7,6.05-15.48,12.24l8.64,0.14c0-2.74,2.09-5.33,7.13-5.33,4.82,0,6.41,2.38,6.41,4.1,0,1.51-.94,2.88-3.6,3.39l-5.62.93c-8.06,1.44-10.3,3-11.81,4.32a10.19,10.19,0,0,0-3.38,7.63c0,6,4.75,11.52,14,11.52C245.12,732,248.29,730.21,250.38,726.83Zm0-15.12v4.61c0,5.18-3.24,8.42-8.85,8.42-4.18,0-6.12-2.45-6.12-4.68,0-1.73.58-3.67,6.77-5.4l4.25-1.15A11.42,11.42,0,0,0,250.38,711.71ZM184,733a10.73,10.73,0,0,0,3.6,7.34c2.23,2.16,6.34,4.18,13.47,4.18,7.92,0,13-3,15.48-6.12,1.66-2.23,2.52-4.25,2.52-9.72V694.36h-9.43l-0.29,4.46c-0.72-1.15-2.66-5.76-10.87-5.76-8.85,0-16.56,7.06-16.56,18.36s7.77,18.43,16.49,18.43c5.83,0,9.5-2.66,10.87-5.47v4c0,6.19-2.81,8.78-8.5,8.78-4.25,0-6.26-2.16-6.63-4.46Z"/><polyline class="b" points="256.87 342.98 247.16 336.69 285.61 329.46 285.61 329.66 256.87 342.98"/><path class="b" d="M379,301.51l-22.46,13.7A20.88,20.88,0,0,0,332,313.86l-17.49,10.86-2.47,1.53a12.21,12.21,0,0,0-1.14-3.43c-0.77-1-1.53-1.9-2.28-2.86A7.42,7.42,0,0,0,305,321.3a1.53,1.53,0,0,0-.57,1.52,2.29,2.29,0,0,1,.37,1.52,1.49,1.49,0,0,1-1.9,1,1.44,1.44,0,0,1-.76-0.39c-1-.57-1.71-1.33-2.66-1.9a1.63,1.63,0,0,0-1,1c-0.18.38-.18,1.14-0.38,1.72l-2.09,2.65c0.57,1.33.94,3,0,4.18-0.77.78-1.92-.18-2.86-0.76a2.84,2.84,0,0,0-2.1-.74c-1.71.18-2.66,2.08-2.47,3.79a7,7,0,0,0,2.67,4.58l-4.77,2.86L138.12,435.11c-9.9,6.26-13.7,20-7.8,30.07a21.55,21.55,0,0,0,28.16,7.4L354.88,350a21.56,21.56,0,0,0,9.32-22.84l22.26-13.7c2.29-1.52,2.29-5.13.39-8.75-2.29-3.24-5.9-4.75-7.8-3.24"/><path class="b" d="M311.1,318.25a0.2,0.2,0,0,0,.2.19,1.48,1.48,0,0,0,1.51.18l0.39-.38a0.4,0.4,0,0,0,.37-0.37l0.19-1.53,1.72-1.71-0.37-1.53c-0.19-.94-1.35-0.94-2.09-0.37a5,5,0,0,0-1.52,1.9,5.88,5.88,0,0,0-1,1.9,2.7,2.7,0,0,0,.57,1.71"/><path class="b" d="M317.77,284.56l0.57-.39c0.76-1.9,2.47-3.22,2.85-5.12,0-.77-0.19-1.52-0.19-2.48a36,36,0,0,1,.39-4.57,4.82,4.82,0,0,0,1.14-2.86c-0.19-.77-0.57-1.71-1.33-1.52-0.58,0-.94.57-1.51,1.14a13.88,13.88,0,0,1-1.14,3.62,9.92,9.92,0,0,0-1.15,2.48,6.46,6.46,0,0,0-.57,3.8c-0.19.39-.58,0.75-0.76,1.14a4,4,0,0,0-.95,2.47c0.19,1.33,1.32,2.85,2.67,2.29"/><path class="b" d="M286.36,336.7l0.58-.38,0.38-.94a2,2,0,0,0-1-1.54,6,6,0,0,0-1.71.58,0.92,0.92,0,0,0-.37,1l0.19,0.75,1,0.57a1.48,1.48,0,0,0,.94,0"/><path class="b" d="M287.13,340.51l0.94-.37,0.77-1.15v-0.76l-1.14-1.32a1.57,1.57,0,0,0-1,0l-0.76.57a2,2,0,0,0-.39,1.72,1.62,1.62,0,0,0,1,1.32h0.57"/><path class="b" d="M293.6,301.51l1-.19L294,299.79l0.18-1.71a0.6,0.6,0,0,0-.57-0.57H293l-0.58.37c-0.18.95,0.39,1.91,0.77,3.05a1.4,1.4,0,0,1,.38.57"/><path class="b" d="M303.11,303l0.76-.37,0.58-.57,0.19-1.53c-0.19-.76-0.77-2.09-1.52-1.52a6.08,6.08,0,0,0-1.33,1.71v1.34a1.42,1.42,0,0,0,1.33.94"/><path class="b" d="M288.27,317.11l0.75-.57a1.71,1.71,0,0,0,.58-1.33c0-1-.37-2.1-1.14-2.29a2.34,2.34,0,0,0-1.91.58l-0.76,1.14v1a3.13,3.13,0,0,0,.76,1.33,2.79,2.79,0,0,0,1.71.18"/><path class="b" d="M270.57,317.11l0.38-.18a1,1,0,0,0,.57-0.76l-0.37-2.1-0.39-1a2.49,2.49,0,0,0-2.28-.19,2.29,2.29,0,0,0-1.14,1.15v1a22.6,22.6,0,0,0,1.71,2.08l0.57,0.39a1.52,1.52,0,0,0,1-.39"/><path class="b" d="M290,305.88l0.76-.57a3.09,3.09,0,0,0,1.53-1.9l0.18-1.9a0.85,0.85,0,0,0-1-.76,3.53,3.53,0,0,0-2.47.76l-0.75,1.71-0.19,1.15,0.95,1.32a8.93,8.93,0,0,0,1,.19"/><path class="b" d="M307.87,292.75h0.57a1.32,1.32,0,0,0,.95-0.57,7.89,7.89,0,0,1-.19-3.62,1.82,1.82,0,0,0-1.33-1.51,2.82,2.82,0,0,0-1.71,1.13l-0.75,1.54a3.74,3.74,0,0,0,2.47,3"/><path class="b" d="M262.19,300.73l0.76,0.19a2.7,2.7,0,0,0,2.67-.38,1,1,0,0,0,.37-1.14,2.37,2.37,0,0,0-1.14-1.54l-2.29-2.66a2.61,2.61,0,0,0-1.7,0,1.72,1.72,0,0,0-.58,1.33l0.58,2.47a4.16,4.16,0,0,0,1.33,1.71"/><path class="b" d="M263.15,315.77h0.76a2.45,2.45,0,0,0,1.71-2.08,4,4,0,0,0-1-2.86l-4.56-1.52c-0.38-.18-0.38,0-0.57.18a2,2,0,0,0-1,1.91,4,4,0,0,0,1,2.46L262,315.4a2.71,2.71,0,0,0,1.14.37"/><path class="b" d="M301.4,321.48l0.38-.57c0-.39.19-0.57,0.19-1,0.19-1.51.37-3-.38-4.37-0.75-1.14-2.47-1.33-3.8-1.33a1.94,1.94,0,0,0-.76-1,0.94,0.94,0,0,0-1.14.57,3.21,3.21,0,0,0-.57,1.15,27.1,27.1,0,0,0-.57,4.18,8.85,8.85,0,0,0,1.14,1.72l4.75,1.14a2.68,2.68,0,0,0,.77-0.57"/><path class="b" d="M290.93,329.1l0.39,0.57a2.31,2.31,0,0,0,1.13,0l1.91-4a1.48,1.48,0,0,0,.37-0.76,2.19,2.19,0,0,0-.37-1.9,19,19,0,0,1-1.53-2.66,1.74,1.74,0,0,0-2.47.76c-0.19.56,0.2,0.94,0.2,1.71a1.85,1.85,0,0,0-.77,1.71c0.2,0.2.2,0.38,0.38,0.57-0.38,1.35-.38,3.06.76,4"/><path class="b" d="M281.8,277.33l0.76,0.21a1.53,1.53,0,0,0,1.14-.77,2.71,2.71,0,0,0,.76-1.51l-0.76-2.5a2.4,2.4,0,0,0,.19-2.26l-2.09-2.67c-0.38-.58-0.94-0.19-1.52.18-0.38.19-.57,0.57-1,0.77a6.12,6.12,0,0,0-.76,5.12c0.76,1.53,1.71,3.05,3.23,3.43"/><path class="b" d="M306.73,283.6h1.14a2.48,2.48,0,0,0,1.71-1.33c0.57-2.47,1-5.33.19-7.8a2.16,2.16,0,0,0-.58-1.53c-0.94-.75-2.27.57-2.84,1.53l-1.53,5.33c-0.57,1.52.37,3.62,1.9,3.8"/><path class="b" d="M234.22,304l0.38,1.14a3.66,3.66,0,0,0,1.9,1.91c1.51,0,3.61-.19,4.37-1.71a4.44,4.44,0,0,0-.57-4.57,13.36,13.36,0,0,0-3.24-2.28,12.94,12.94,0,0,0-3-2.49,6.19,6.19,0,0,0-1.9-.75,2,2,0,0,0-1,.75,11.59,11.59,0,0,0-.19,5.72c0.94,1,2.47,1.15,3.23,2.29"/><path class="b" d="M206.63,306.06l0.94,0.38,1.34-.77,1.14,0.77a12.51,12.51,0,0,1,1.33-.58c0.57,0,.38-0.19.57-0.95,0.39-.77,1-1.91,1.53-1.91a2.54,2.54,0,0,0,.94-1.14l-0.57-1.72a7.64,7.64,0,0,1-.58-1.9c0.2-.38-0.75-2.1-0.75-2.1L212.15,295a0.93,0.93,0,0,1-.75-0.95c-0.19-1-.77-2.68-0.77-2.68a13.44,13.44,0,0,0,.58-1.33,7.47,7.47,0,0,0,.19-1.71L209.86,287l-1.9-.18H207.2l-1,2.26s-1.33.58-1.33,1A19,19,0,0,0,204,292c0,0.57-.2,2.29-0.2,2.29,0.39,1-.57,2.67,0,3,0.77,0.21.58,0.39,1,1a2.27,2.27,0,0,1,.19,1.52l-0.19,2.48,0.58,1.33a2.84,2.84,0,0,0,.38,1.51,2.24,2.24,0,0,1,.95,1"/><path class="b" d="M326.33,304.92a4.65,4.65,0,0,1-.75.18H325a2,2,0,0,1-.76-0.18,2.46,2.46,0,0,0-1,.18,0.38,0.38,0,0,1-.38.39l-0.76.38a1.56,1.56,0,0,1,0,1c0,0.2.18,1.14,0.18,1.14l0.39,0.76,0.19,0.57v1.14l-0.76.57-0.58,1-0.18.76,0.76,1v0.75l1.14-1.14,1.15-.38,0.75-.37,0.77-.76a1.38,1.38,0,0,0,.37-0.78,1.81,1.81,0,0,1,.19-1.14,0.8,0.8,0,0,0,.58-0.57c0-.38.36-0.57,0.18-0.76a1.51,1.51,0,0,1,.38-0.57l0.19-.57,0.19-.57v-0.57l-0.38-.38a0.63,0.63,0,0,0-.2-0.38l-0.36-.18-0.39-.38h-0.38"/><polyline class="b" points="357.73 474.48 440.91 474.48 440.91 466.11 357.73 466.11 357.73 474.48"/><path class="b" d="M410.07,392.28a9.71,9.71,0,0,0-.38-3.82c1-.19,3.43,2.87,5.15,5.53,5.33,10.09,4.94,18.07,4.94,18.07,3.05-2.08,2.85-6.84,2.85-6.84a7.39,7.39,0,0,1,3.05,3.8,30.69,30.69,0,0,1,1.32,9.15,76.47,76.47,0,0,1-1.32,10.27,14,14,0,0,0-.18,6.66s2.66-1.33,2.85-5.33c0,0,2.48,3,1.52,9.9a22.74,22.74,0,0,1-5.72,12.94c-1.71,2.29-3.41,4.37-12.18,7-4.74,1.14-13.31.19-13.31,0.19l4.57-2.47s3.24-2.47,5.53-4.58a28.42,28.42,0,0,0,4.57-6.08c2.85-5.72,2.67-9.32,2.67-9.32a12.26,12.26,0,0,1-4.19,2.66s1-4.57,1.14-7a26.14,26.14,0,0,0-.38-5.15c-0.38,0-1.15,2.67-2.66,4.95a26,26,0,0,1-4.39,5s2.86-8.37,1.14-14.45c-1.71-5.92-3.61-8.57-6.26-11,0,0,.37,8.19.18,11.41a55.53,55.53,0,0,1-2.28,14.85s-1.72-2.28-2.3-3.24c-1.5-2.86-1.89-3.81-1.89-3.81l-0.75-2.27a21.6,21.6,0,0,0-1.15,7.42c0,4.76.57,7.62,1.33,8.37a3,3,0,0,0-.76.19c-0.76.37-.57,0.57-0.57,0.57a25.43,25.43,0,0,1-5.53-10.46,22.91,22.91,0,0,1-1.14-6.67s-2.48,3.63-1.92,11c0,0.38-.57-0.18-1.7-0.95l-1.54-1.33s0.76,5.14,1.34,6.09a27.83,27.83,0,0,0,4.57,9.71,29.52,29.52,0,0,0,6.47,6.47s-5.33,2.28-13.52-2.28c-5.33-4.19-8.56-10.66-8.56-14.08-0.38-4-.19-10.85-0.38-18.09,0,0-.76-5-1.54-5.9,0,0,2.11.39,6.28,3.8,0,0-.57,1.33,0-3.8s2.1-7.42,2.48-9.13a49.67,49.67,0,0,0,0-9.33s1.71,1.71,5.15,5.33l2.07,3.05a32.66,32.66,0,0,0,1.35-5.91c0.37-3.61.19-5.33,0.19-12.37,0,0-.19-3.43-0.58-6.86a55.93,55.93,0,0,1,7.24,8.38s0.57-1.34,1-5.91a80.53,80.53,0,0,1,.75-8.57s1.32-5.51,2.86-7c0,0,.57,4.57,1.51,5.9,0,0,1.71,4.37,2.48,4.94,2.47,3.25,5.51,5.33,6.66,8.58,0.57,2.86,1,5.33,1,5.33a6.64,6.64,0,0,0,.94-3.43"/></svg>