<?xml version="1.0" encoding="UTF-8"?>
<svg id="Lager_1" data-name="Lager 1" xmlns="http://www.w3.org/2000/svg" viewBox="0 0 153.09 218.69">
  <defs>
    <style>
      .cls-1 {
        fill: #fff;
      }

      .cls-1, .cls-2, .cls-3 {
        fill-rule: evenodd;
      }

      .cls-2 {
        fill: #fcbd0e;
      }

      .cls-3 {
        fill: #1d1f22;
      }
    </style>
  </defs>
  <polyline class="cls-1" points="0 218.69 153.09 218.69 153.09 0 0 0 0 218.69"/>
  <path class="cls-3" d="M140.13,124.41c3.07,0,4.72-3.4,3.23-5.98L79.68,8.2c-1.43-2.47-4.99-2.47-6.42,0L9.62,118.43c-1.49,2.58.16,5.98,3.23,5.98h127.28"/>
  <polyline class="cls-2" points="132.77 116.32 76.48 18.83 20.19 116.32 132.77 116.32"/>
  <path class="cls-3" d="M72.18,57.61h-8.33v8.22c2.19,1.64,3.48,4.22,3.48,6.96s-1.29,5.31-3.48,6.95l4.13,4.14,4.2-4.2v-22.06ZM70.95,58.85v20.32l-2.97,2.97-2.32-2.33c1.95-1.96,3-4.65,2.89-7.41-.11-2.76-1.37-5.36-3.47-7.15v-6.4h5.86Z"/>
  <path class="cls-3" d="M77.12,94.2h-2.65l-6.49,6.49-6.49-6.49h-2.64v16.3h18.28v-16.3ZM75.89,109.26h-15.81v-13.83h.9l7,7.01,7-7.01h.9v13.83Z"/>
  <path class="cls-3" d="M53.67,94.3c1.76.94,3.94.46,5.13-1.14l.81-1.19,3.13-.9c.19-.05.4-.04.58.03l4.79,1.79c.22.08.47.08.69-.01l3.99-1.67c.19-.08.4-.09.6-.04l5.9,1.61c.46.13.75.59.67,1.06l-1.77,9.97c-.52,2.27.75,4.57,2.96,5.32.51.17,1.06-.1,1.23-.61,0,0,0,0,0-.01l6.47-19.89,11.7-16.43-7.93-13.74-13.01,21.64h-6.51l-4.96,4.96-9.29.71c-.28.02-.53.16-.69.39l-1.37,1.93-5.78,1.54c-.5.13-.79.64-.66,1.14.01.04.03.08.04.11.49,1.2,1.53,2.1,2.8,2.4-.1.41.09.83.46,1.04"/>
  <path class="cls-3" d="M66.98,84.19l-3.01-3.01-3.59-2.68c-.25-.18-.58-.24-.87-.13l-6.59,2.41c-.37.13-.62.49-.61.89l.12,5.77c.01.51.44.91.95.91.04,0,.09,0,.13-.01,1.82-.31,3.17-1.85,3.24-3.7.01-.38.26-.71.61-.84l1.42-.52c.3-.11.62-.06.88.13l1.62,1.21,5.69-.43"/>
  <path class="cls-3" d="M63.85,74.37l-2.24-1.62c-.06-.04-.11-.07-.18-.1l-6.71-2.89c-.47-.2-1.02.01-1.22.49-.05.11-.07.23-.08.36-.02,1.28.46,2.52,1.33,3.46l2.61,1.07c.07.03.14.07.21.12l5.36,4c.32-.21.62-.45.91-.71v-4.16"/>
  <polyline class="cls-3" points="79.93 67.99 86.57 60.62 82.7 60.62 82.7 47.02 77.17 47.02 77.17 60.62 73.29 60.62 79.93 67.99"/>
  <polyline class="cls-2" points="10.2 133.08 142.94 133.08 142.94 208.69 10.2 208.69 10.2 133.08"/>
  <path class="cls-3" d="M13.11,149.71c0,2.41,1.68,4.56,5.26,4.56s5.16-2.06,5.16-4.26c0-1.65-.95-3.15-3.07-3.72l-2.92-.78c-.87-.24-.96-.35-1.15-.56-.21-.24-.31-.54-.31-.87,0-.76.61-1.67,2.36-1.67.85,0,1.51.31,1.86.7.35.35.56.87.59,1.41l2.43.04c-.1-1.44-.56-2.31-1.23-2.98-.69-.67-2.01-1.31-3.8-1.31-3.25,0-4.76,1.94-4.76,4.11,0,1.67.88,3.02,3.04,3.59l2.5.69c.45.11,1.11.2,1.53.76.21.3.31.63.31.87,0,.85-.61,1.81-2.61,1.81s-2.74-1.07-2.71-2.37l-2.48-.02ZM131.27,153.82h2.38v-3.09l.99-1.06,2.43,4.15h2.92l-3.65-5.8,3.18-3.63h-2.81l-3.06,3.59-.02-7.28h-2.36v13.11ZM121.39,150.68c.04,1.78,1.44,3.48,4.15,3.48s3.98-1.57,3.98-3.26c0-.59-.19-1.18-.56-1.65-.33-.44-.75-.78-1.79-1.04l-2.55-.63c-.52-.15-.75-.5-.75-.83,0-.37.31-.94,1.48-.94,1.27,0,1.82.7,1.82,1.46l2.1-.04c-.04-.94-.5-1.89-1.27-2.48-.5-.39-1.34-.72-2.62-.72-2.55,0-3.67,1.46-3.67,3.07,0,.76.19,1.3.61,1.78.31.35.69.65,1.68.87l1.91.46c1.13.26,1.25.63,1.25,1.07,0,.41-.36,1.06-1.67,1.06s-1.89-.7-1.96-1.68l-2.15.02ZM117.34,153.82h2.38v-9.42h-2.38v9.42ZM117.36,142.97h2.36v-2.26h-2.36v2.26ZM110.92,153.82h2.38v-4.18c0-1.41.33-2.06.71-2.5.45-.5.97-.74,1.63-.74.12,0,.26.02.4.04v-2.24c-.1-.02-.29-.06-.5-.06-1.03,0-1.93.7-2.21,1.68l-.07-1.43h-2.33l-.02,9.42ZM101.04,150.68c.03,1.78,1.44,3.48,4.15,3.48s3.98-1.57,3.98-3.26c0-.59-.19-1.18-.56-1.65-.33-.44-.75-.78-1.79-1.04l-2.55-.63c-.52-.15-.75-.5-.75-.83,0-.37.31-.94,1.48-.94,1.27,0,1.82.7,1.82,1.46l2.1-.04c-.04-.94-.5-1.89-1.27-2.48-.5-.39-1.34-.72-2.62-.72-2.55,0-3.66,1.46-3.66,3.07,0,.76.19,1.3.61,1.78.31.35.69.65,1.69.87l1.91.46c1.13.26,1.25.63,1.25,1.07,0,.41-.36,1.06-1.67,1.06s-1.89-.7-1.96-1.68l-2.15.02ZM90.91,154.34c.1.89.36,1.39.87,1.89.54.56,1.53,1.07,3.25,1.07,1.91,0,3.13-.76,3.72-1.57.42-.57.62-1.09.62-2.5v-8.83h-2.28l-.07,1.15c-.17-.3-.66-1.48-2.62-1.48-2.14,0-3.99,1.82-3.99,4.72s1.88,4.74,3.98,4.74c1.41,0,2.29-.68,2.62-1.41v1.02c0,1.59-.68,2.26-2.05,2.26-1.02,0-1.53-.56-1.6-1.15l-2.45.09ZM94.94,151.34c-1.15,0-2.12-.89-2.12-2.63,0-1.52.99-2.48,2.07-2.48s2.08.96,2.08,2.56-1.01,2.56-2.03,2.56ZM80.82,153.82h2.38l.02-5.28c0-.74.14-1.09.33-1.39.31-.48.87-.8,1.44-.8.82,0,1.41.57,1.41,1.63v5.83h2.38v-6.65c0-1.76-1.22-3.11-3.06-3.11-1.27,0-2.15.72-2.45,1.46l-.1-1.11-2.33-.02-.02,9.42ZM76.6,153.82h2.38v-9.42h-2.38v9.42ZM76.62,142.97h2.36v-2.26h-2.36v2.26ZM66.86,153.82h2.38l.02-5.28c0-.74.14-1.09.33-1.39.31-.48.87-.8,1.44-.8.82,0,1.41.57,1.41,1.63v5.83h2.38v-6.65c0-1.76-1.22-3.11-3.06-3.11-1.27,0-2.15.72-2.45,1.46l-.1-1.11-2.33-.02-.02,9.42ZM58.68,152.73c.5.87,1.39,1.41,2.6,1.41,2.41,0,3.91-2.39,3.91-5.07s-1.46-4.96-3.89-4.96c-1.06,0-1.94.46-2.55,1.28l-.1-.96-2.34.02v12.46h2.38v-4.17ZM60.82,152.19c-1.15,0-2.12-.81-2.12-2.85,0-2.28,1.06-3.07,2.03-3.07s2.05.85,2.05,2.94c0,1.39-.56,2.96-1.96,2.98ZM41.5,153.82h2.38v-5.44c0-1.35.71-2.04,1.67-2.04.64,0,1.02.33,1.2.8.03.09.1.3.1,1.04v5.65h2.36v-5.59c0-1.22.69-1.93,1.63-1.93.82,0,1.34.52,1.34,1.63v5.89h2.36l-.02-6.61c-.05-1.98-1.23-3.11-2.85-3.11-1.22,0-2.19.61-2.71,1.65-.45-.98-1.44-1.65-2.6-1.65s-2,.56-2.45,1.5l-.09-1.19-2.31-.02-.02,9.42ZM32.35,154.9v1.98h1.75c2.08,0,2.57-1.74,2.76-2.31l3.35-10.17h-2.52l-1.77,5.83-1.86-5.83h-2.55l2.74,7.94c.17.52.23.87.23,1.3,0,.76-.38,1.28-1.42,1.26h-.71ZM30.04,153.82v-1.94h-.89c-.28,0-.56-.17-.68-.35-.05-.07-.12-.22-.12-.74v-4.67h1.61v-1.72h-1.6l-.02-2.98h-2.38v2.98h-1.23v1.74l1.25-.02v4.87c0,2.13.82,2.83,2.12,2.83h1.93Z"/>
  <path class="cls-3" d="M48.97,177.26h2.54l.02-5.44c0-1.35.76-2.04,1.78-2.04.67,0,1.07.33,1.26.8.04.09.11.3.11,1.04v5.65h2.52v-5.59c0-1.22.76-1.93,1.76-1.93.85,0,1.43.52,1.43,1.63v5.89h2.5l-.02-6.61c-.06-1.98-1.32-3.11-3.02-3.11-1.31,0-2.33.61-2.91,1.65-.48-.98-1.52-1.65-2.76-1.65s-2.13.56-2.63,1.5l-.09-1.19-2.46-.02-.02,9.43ZM95.61,177.26h2.54l.02-5.28c0-.74.15-1.09.35-1.39.33-.48.94-.8,1.54-.8.89,0,1.52.57,1.52,1.63l-.02,5.83h2.54v-6.65c0-1.76-1.3-3.11-3.24-3.11-1.35,0-2.3.72-2.63,1.46l-.09-1.11-2.5-.02-.02,9.43ZM90.91,176.18c.06.46.15.8.3,1.07h2.59c-.33-.39-.43-.67-.43-.98v-5.17c0-2.26-1.17-3.61-4.24-3.61-2.85,0-4.04,1.56-3.98,3.15l2.24.04c0-.7.52-1.37,1.82-1.37s1.67.61,1.67,1.06c0,.39-.24.74-.93.87l-1.46.24c-2.07.37-2.63.76-3.04,1.11-.56.5-.87,1.2-.87,1.96,0,1.56,1.22,2.96,3.61,2.96,1.37,0,2.18-.46,2.72-1.33ZM90.93,172.29l-.02,1.18c0,1.33-.83,2.17-2.28,2.17-1.06,0-1.57-.63-1.57-1.2,0-.44.17-.94,1.76-1.39l1.09-.3c.48-.13.81-.31,1.02-.46ZM80.32,177.26h2.54v-13.11h-2.52l-.02,13.11ZM75.83,177.26h2.52v-13.11h-2.5l-.02,13.11ZM67.06,173.24l7,.02c0-2.8-1.26-5.76-4.78-5.76s-4.74,2.87-4.74,5.02c0,3.13,2.07,5.07,4.72,5.07s4.24-1.43,4.63-3.07l-2.56-.17c-.48.87-1.13,1.22-1.96,1.22-1.2,0-2.18-.81-2.32-2.33ZM67.17,171.41c.15-1.15,1.09-1.93,2.06-1.93,1.04,0,1.93.7,2.09,1.93h-4.15Z"/>
  <path class="cls-3" d="M33.1,197.96h2.54l-.02-3.09,1.07-1.06,2.59,4.15h3.09l-3.87-5.79,3.37-3.63h-3l-3.24,3.59-.02-7.28h-2.54l.02,13.11ZM111.29,194.81c.06,1.78,1.54,3.48,4.44,3.48s4.22-1.57,4.22-3.26c0-.59-.2-1.18-.57-1.65-.35-.44-.82-.78-1.93-1.04l-2.7-.63c-.57-.15-.82-.5-.82-.83,0-.37.35-.94,1.57-.94,1.35,0,1.94.7,1.96,1.46l2.22-.04c-.04-.94-.54-1.89-1.35-2.48-.54-.39-1.41-.72-2.8-.72-2.7,0-3.91,1.46-3.91,3.07,0,.76.22,1.3.65,1.78.33.35.76.65,1.82.87l2.04.46c1.18.26,1.33.63,1.33,1.07,0,.41-.41,1.06-1.8,1.06s-2-.7-2.07-1.68l-2.32.02ZM100.94,194.81c.06,1.78,1.54,3.48,4.44,3.48s4.22-1.57,4.22-3.26c0-.59-.2-1.18-.57-1.65-.35-.44-.81-.78-1.93-1.04l-2.7-.63c-.57-.15-.81-.5-.81-.83,0-.37.35-.94,1.57-.94,1.35,0,1.94.7,1.96,1.46l2.22-.04c-.04-.94-.54-1.89-1.35-2.48-.54-.39-1.41-.72-2.8-.72-2.7,0-3.91,1.46-3.91,3.07,0,.76.22,1.3.65,1.78.33.35.76.65,1.81.87l2.04.46c1.19.26,1.33.63,1.33,1.07,0,.41-.41,1.06-1.8,1.06s-2-.7-2.07-1.68l-2.32.02ZM92.39,193.94l7,.02c0-2.8-1.28-5.76-4.78-5.76s-4.74,2.87-4.74,5.02c0,3.13,2.07,5.07,4.72,5.07s4.24-1.42,4.63-3.07l-2.56-.17c-.48.87-1.15,1.22-1.96,1.22-1.2,0-2.19-.82-2.31-2.33ZM92.5,192.11c.15-1.15,1.09-1.93,2.06-1.93,1.04,0,1.93.7,2.09,1.93h-4.15ZM83.57,197.96h2.54l.02-4.18c0-1.41.33-2.06.76-2.5.46-.5,1.02-.74,1.72-.74.15,0,.28.02.43.04l.02-2.24c-.13-.02-.33-.06-.54-.06-1.11,0-2.07.7-2.37,1.69l-.07-1.43h-2.48l-.02,9.42ZM74.89,196.87c.54.87,1.46,1.41,2.74,1.41,2.57,0,4.17-2.39,4.17-5.07s-1.56-4.96-4.13-4.96c-1.13,0-2.06.46-2.72,1.28l-.11-.96-2.5.02.02,12.46h2.52l.02-4.17ZM77.13,196.33c-1.2,0-2.22-.81-2.22-2.85,0-2.28,1.11-3.07,2.13-3.07,1.07,0,2.18.85,2.18,2.94,0,1.39-.59,2.96-2.09,2.98ZM70.48,197.96v-1.94h-.94c-.31,0-.61-.17-.74-.35-.04-.07-.11-.22-.11-.74v-4.67h1.7v-1.72h-1.7l-.02-2.98h-2.52v2.98h-1.33v1.74l1.33-.02v4.87c0,2.13.87,2.83,2.28,2.83h2.06ZM54.84,197.96h2.54l.02-5.28c0-.74.15-1.09.35-1.39.33-.48.93-.8,1.54-.8.87,0,1.52.57,1.52,1.63l-.02,5.83h2.54v-6.65c0-1.76-1.3-3.11-3.24-3.11-1.35,0-2.3.72-2.63,1.46l-.09-1.11-2.5-.02-.02,9.42ZM50.14,196.89c.04.46.15.8.3,1.07h2.59c-.33-.39-.43-.67-.43-.98v-5.17c0-2.26-1.17-3.61-4.24-3.61-2.85,0-4.04,1.56-3.98,3.15l2.24.04c0-.7.52-1.37,1.81-1.37s1.65.61,1.65,1.06c0,.39-.24.74-.93.87l-1.44.24c-2.07.37-2.63.76-3.04,1.11-.56.5-.87,1.2-.87,1.96,0,1.56,1.22,2.96,3.61,2.96,1.37,0,2.19-.46,2.72-1.33ZM50.15,193l-.02,1.19c0,1.33-.83,2.17-2.28,2.17-1.06,0-1.57-.63-1.57-1.2,0-.44.15-.94,1.76-1.39l1.09-.3c.48-.13.81-.32,1.02-.46Z"/>
</svg>