<svg xmlns="http://www.w3.org/2000/svg" viewBox="0 0 595.28 850.36"><defs><style>.a{fill:#fcc00d;}.a,.b{fill-rule:evenodd;}.b{fill:#000100;}</style></defs><title>W030_C</title><polyline class="a" points="0 850.36 595.28 850.36 595.28 0 0 0 0 850.36"/><path class="b" d="M34.61,627.94c0,9.36,7,17.71,21.81,17.71s21.38-8,21.38-16.56c0-6.4-4-12.24-12.74-14.47l-12.1-3c-3.6-.94-4-1.37-4.75-2.16a4.86,4.86,0,0,1-1.29-3.39c0-3,2.52-6.48,9.79-6.48a10.71,10.71,0,0,1,7.7,2.74,8.36,8.36,0,0,1,2.45,5.47l10.08,0.14c-0.43-5.61-2.3-9-5.11-11.59s-8.35-5.11-15.77-5.11c-13.47,0-19.73,7.56-19.73,16,0,6.48,3.67,11.74,12.6,14l10.37,2.66c1.87,0.43,4.61.79,6.33,3a6.07,6.07,0,0,1,1.29,3.38c0,3.31-2.52,7.06-10.8,7.06-8.06,0-11.37-4.18-11.23-9.22Zm489.87,16h9.86v-12l4.1-4.11,10.08,16.13h12.1l-15.12-22.54,13.17-14.11H547l-12.67,14L534.27,593h-9.79v51Zm-41-12.24c0.14,6.91,6,13.54,17.21,13.54,11.45,0,16.49-6.12,16.49-12.67a10,10,0,0,0-2.31-6.41c-1.36-1.73-3.1-3-7.42-4l-10.58-2.45c-2.16-.58-3.1-1.94-3.1-3.24s1.3-3.67,6.12-3.67c5.26,0,7.56,2.74,7.56,5.69l8.71-.14a12.77,12.77,0,0,0-5.26-9.65c-2.09-1.51-5.54-2.81-10.87-2.81-10.58,0-15.19,5.69-15.19,11.95a9.41,9.41,0,0,0,2.52,6.91c1.3,1.37,2.88,2.52,7,3.38l7.92,1.8c4.68,1,5.18,2.45,5.18,4.18s-1.51,4.1-6.91,4.1c-5.18,0-7.85-2.73-8.13-6.55Zm-16.78,12.24h9.86V607.28h-9.86v36.65Zm0.07-42.19h9.79V593h-9.79v8.78ZM440.1,643.92H450V627.65c0-5.47,1.37-8,3-9.72a8.88,8.88,0,0,1,6.77-2.88,13.64,13.64,0,0,1,1.66.14v-8.71a12.17,12.17,0,0,0-2.09-.22,9.52,9.52,0,0,0-9.15,6.55l-0.29-5.54h-9.65Zm-41-12.24c0.14,6.91,6,13.54,17.21,13.54,11.45,0,16.49-6.12,16.49-12.67a10,10,0,0,0-2.31-6.41c-1.37-1.73-3.1-3-7.42-4l-10.58-2.45c-2.16-.58-3.1-1.94-3.1-3.24s1.29-3.67,6.12-3.67c5.25,0,7.56,2.74,7.56,5.69l8.71-.14a12.78,12.78,0,0,0-5.25-9.65c-2.09-1.51-5.54-2.81-10.87-2.81-10.58,0-15.19,5.69-15.19,11.95A9.41,9.41,0,0,0,403,624.7c1.29,1.37,2.88,2.52,7,3.38l7.92,1.8c4.68,1,5.18,2.45,5.18,4.18s-1.51,4.1-6.91,4.1c-5.18,0-7.85-2.73-8.13-6.55Zm-42,14.25a10.75,10.75,0,0,0,3.6,7.35c2.23,2.16,6.34,4.18,13.47,4.18,7.92,0,13-3,15.41-6.12,1.73-2.23,2.59-4.25,2.59-9.72V607.28h-9.43l-0.29,4.46c-0.72-1.15-2.74-5.76-10.87-5.76-8.85,0-16.56,7.05-16.56,18.36s7.77,18.43,16.49,18.43c5.83,0,9.5-2.66,10.87-5.47v4c0,6.19-2.81,8.78-8.49,8.78-4.25,0-6.34-2.16-6.63-4.46Zm16.7-11.66c-4.75,0-8.78-3.46-8.78-10.23,0-5.9,4.11-9.65,8.57-9.65s8.64,3.74,8.64,9.93S378.11,634.28,373.86,634.28Zm-58.53,9.65h9.86l0.07-20.52c0-2.88.58-4.25,1.37-5.4a7.4,7.4,0,0,1,6-3.1c3.38,0,5.83,2.23,5.83,6.33v22.68h9.86V618.08c0-6.84-5-12.1-12.67-12.1-5.25,0-8.93,2.81-10.15,5.69L325,607.35l-9.65-.07Zm-17.5,0h9.86V607.28h-9.86v36.65Zm0.07-42.19h9.79V593h-9.79v8.78Zm-40.46,42.19h9.86l0.07-20.52c0-2.88.58-4.25,1.37-5.4a7.4,7.4,0,0,1,6-3.1c3.38,0,5.83,2.23,5.83,6.33v22.68h9.86V618.08c0-6.84-5-12.1-12.67-12.1-5.26,0-8.93,2.81-10.15,5.69l-0.43-4.32-9.65-.07Zm-33.91-4.25c2.09,3.39,5.76,5.47,10.8,5.47,10,0,16.2-9.29,16.2-19.73,0-10-6.05-19.29-16.13-19.29a13.12,13.12,0,0,0-10.58,5l-0.43-3.74-9.72.07v48.45h9.86v-16.2Zm8.86-2.09c-4.75,0-8.78-3.17-8.78-11.09,0-8.86,4.39-12,8.42-12s8.5,3.31,8.5,11.45C240.53,631.4,238.22,637.52,232.39,637.59Zm-80.06,6.34h9.86V622.76c0-5.26,3-7.92,6.91-7.92a4.92,4.92,0,0,1,5,3.1c0.14,0.36.43,1.15,0.43,4v22h9.79V622.18c0-4.75,2.88-7.49,6.77-7.49,3.38,0,5.54,2,5.54,6.34v22.9h9.79l-0.07-25.7c-0.22-7.71-5.11-12.1-11.81-12.1a12.22,12.22,0,0,0-11.23,6.41,11.86,11.86,0,0,0-10.8-6.41c-5,0-8.28,2.16-10.15,5.83L162,607.35l-9.57-.07Zm-37.94,4.18v7.7h7.27c8.64,0,10.66-6.77,11.45-9L147,607.28H136.56L129.22,630l-7.71-22.68H110.93l11.37,30.89a13.73,13.73,0,0,1,.94,5c0,3-1.59,5-5.91,4.9h-3Zm-9.57-4.18v-7.56h-3.67A3.66,3.66,0,0,1,98.33,635c-0.21-.29-0.5-0.86-0.5-2.88V614h6.7v-6.7H97.9l-0.07-11.59H88v11.59H82.85V614L88,614v18.94c0,8.28,3.38,11,8.78,11h8Z"/><path class="b" d="M190.41,731h9.86l0.07-21.17c0-5.26,3-7.92,6.91-7.92a4.88,4.88,0,0,1,4.9,3.1c0.14,0.36.43,1.15,0.43,4v22h9.79V709.26c0-4.75,3-7.49,6.84-7.49,3.31,0,5.54,2,5.54,6.34V731h9.72l-0.07-25.7c-0.21-7.71-5.11-12.1-11.74-12.1a12.33,12.33,0,0,0-11.3,6.41,11.75,11.75,0,0,0-10.73-6.41c-5,0-8.28,2.16-10.22,5.83l-0.36-4.61-9.57-.07Zm181.36,0h9.86l0.07-20.52c0-2.88.58-4.25,1.36-5.4a7.51,7.51,0,0,1,6-3.1c3.46,0,5.91,2.23,5.91,6.33L394.88,731h9.86V705.16c0-6.84-5-12.1-12.6-12.1-5.25,0-8.93,2.81-10.22,5.69l-0.36-4.32-9.72-.07Zm-18.29-4.18a11.64,11.64,0,0,0,1.15,4.18h10.08a5.48,5.48,0,0,1-1.66-3.82V707.1c0-8.78-4.53-14-16.49-14-11.09,0-15.69,6-15.48,12.24l8.71,0.14c0-2.74,2-5.33,7.06-5.33,4.83,0,6.48,2.38,6.48,4.1,0,1.51-.93,2.88-3.6,3.38l-5.69.94c-8.06,1.44-10.22,3-11.81,4.32a10.2,10.2,0,0,0-3.38,7.63c0,6.05,4.75,11.52,14,11.52C348.23,732,351.4,730.21,353.48,726.83Zm0.07-15.12-0.07,4.61c0,5.18-3.24,8.42-8.85,8.42-4.1,0-6.12-2.45-6.12-4.68,0-1.73.65-3.67,6.84-5.4l4.25-1.15A12.06,12.06,0,0,0,353.56,711.71ZM312.3,731h9.86V680h-9.79Zm-17.42,0h9.79V680h-9.72Zm-34.13-15.62L288,715.45c0-10.87-4.9-22.39-18.58-22.39-14,0-18.43,11.16-18.43,19.51,0,12.17,8.06,19.73,18.36,19.73s16.49-5.54,18-12l-9.93-.65c-1.87,3.38-4.39,4.75-7.63,4.75C265.07,724.45,261.26,721.28,260.75,715.38Zm0.43-7.13a8.38,8.38,0,0,1,8-7.49c4,0,7.49,2.74,8.13,7.49H261.18Z"/><path class="b" d="M128.71,818.13h9.86l-0.07-12,4.18-4.1,10.08,16.13h12l-15-22.54,13.1-14.11H151.17l-12.6,14-0.07-28.3h-9.86Zm304-12.24c0.22,6.91,6,13.54,17.28,13.54s16.42-6.12,16.42-12.67a10.36,10.36,0,0,0-2.23-6.41c-1.37-1.73-3.17-3-7.49-4l-10.51-2.45c-2.23-.58-3.17-1.94-3.17-3.24s1.37-3.67,6.12-3.67c5.26,0,7.56,2.74,7.63,5.69l8.64-.14a12.76,12.76,0,0,0-5.25-9.65c-2.09-1.51-5.47-2.81-10.87-2.81-10.51,0-15.19,5.69-15.19,11.95a9.71,9.71,0,0,0,2.52,6.91c1.29,1.37,3,2.52,7.06,3.38l7.92,1.8c4.61,1,5.19,2.45,5.19,4.18s-1.59,4.1-7,4.1c-5.19,0-7.78-2.73-8.06-6.55Zm-40.25,0c0.22,6.91,6,13.54,17.28,13.54s16.41-6.12,16.41-12.67a10.34,10.34,0,0,0-2.23-6.41c-1.36-1.73-3.17-3-7.49-4L406,793.87c-2.23-.58-3.17-1.94-3.17-3.24s1.37-3.67,6.12-3.67c5.25,0,7.56,2.74,7.63,5.69l8.64-.14a12.78,12.78,0,0,0-5.25-9.65c-2.09-1.51-5.47-2.81-10.87-2.81-10.51,0-15.19,5.69-15.19,11.95a9.71,9.71,0,0,0,2.52,6.91c1.29,1.37,3,2.52,7.05,3.38l7.92,1.8c4.61,1,5.18,2.45,5.18,4.18s-1.58,4.1-7,4.1c-5.18,0-7.77-2.73-8.06-6.55Zm-33.26-3.38,27.22,0.07c0-10.87-5-22.39-18.58-22.39-14,0-18.43,11.16-18.43,19.51,0,12.17,8.06,19.73,18.36,19.73s16.49-5.54,18-12l-9.93-.65c-1.87,3.38-4.46,4.75-7.63,4.75C363.56,811.58,359.75,808.41,359.24,802.51Zm0.43-7.13a8.37,8.37,0,0,1,8-7.49c4,0,7.49,2.74,8.13,7.49H359.68ZM325,818.13h9.86l0.07-16.27c0-5.47,1.3-8,3-9.72a8.62,8.62,0,0,1,6.7-2.88,12.48,12.48,0,0,1,1.65.14l0.07-8.71a14.71,14.71,0,0,0-2.09-.21A9.54,9.54,0,0,0,335,787l-0.29-5.54H325Zm-33.77-4.25c2.09,3.38,5.69,5.47,10.66,5.47,10,0,16.2-9.29,16.2-19.73,0-10-6.05-19.29-16.06-19.29a13.22,13.22,0,0,0-10.58,5L291,781.56l-9.72.07,0.07,48.45h9.79Zm8.71-2.09c-4.68,0-8.64-3.17-8.64-11.09,0-8.86,4.32-12,8.28-12,4.18,0,8.5,3.31,8.5,11.45C308.05,805.6,305.75,811.72,299.92,811.79Zm-25.85,6.34v-7.56H270.4a3.69,3.69,0,0,1-2.88-1.36,5.88,5.88,0,0,1-.43-2.88V788.18h6.62v-6.7h-6.62L267,769.89h-9.79v11.59H252v6.77l5.18-.07v18.94c0,8.28,3.38,11,8.85,11h8Zm-60.84,0h9.86l0.07-20.52c0-2.88.58-4.25,1.37-5.4a7.4,7.4,0,0,1,6-3.1c3.38,0,5.9,2.23,5.9,6.33l-0.07,22.68h9.86V792.28c0-6.84-5-12.09-12.6-12.09-5.26,0-8.93,2.81-10.22,5.69L223,781.56l-9.72-.07ZM194.95,814a10.31,10.31,0,0,0,1.15,4.18h10.08a5.48,5.48,0,0,1-1.66-3.82V794.23c0-8.78-4.53-14-16.49-14-11.09,0-15.69,6-15.48,12.24l8.71,0.14c0-2.74,2-5.33,7.05-5.33,4.83,0,6.41,2.38,6.41,4.11,0,1.51-.93,2.88-3.6,3.38l-5.61.94c-8.06,1.44-10.22,3-11.81,4.32a10.19,10.19,0,0,0-3.39,7.63c0,6.05,4.75,11.52,14,11.52C189.69,819.14,192.86,817.34,194.95,814ZM195,798.83l-0.07,4.61c0,5.19-3.24,8.43-8.86,8.43-4.1,0-6.12-2.45-6.12-4.68,0-1.73.58-3.67,6.84-5.4l4.25-1.15A11.94,11.94,0,0,0,195,798.83Z"/><path class="b" d="M544.89,527.15c11.94,0,18.36-13.24,12.57-23.26L309.82,75.28a14.4,14.4,0,0,0-24.95,0L37.41,503.89c-5.78,10,.63,23.26,12.57,23.26H544.89ZM516.27,495.7L297.37,116.61,78.5,495.7H516.27Z"/><path class="b" d="M280.68,267.4H248.28v32a33.82,33.82,0,0,1,0,54.09l16.06,16.08,16.33-16.35V267.4Zm-4.79,4.81v79l-11.54,11.54-9-9a38.65,38.65,0,0,0-2.23-56.64V272.21h22.8Z"/><path class="b" d="M299.89,409.67h-10.3l-25.23,25.25-25.25-25.25H228.83V473h71.06V409.67Zm-4.79,58.57H233.62V414.46h3.51l27.22,27.24,27.22-27.24h3.52v53.77Z"/><path class="b" d="M208.68,410.05a15.65,15.65,0,0,0,20-4.45L231.8,401,244,397.47a3.69,3.69,0,0,1,2.27.1l18.61,7a3.51,3.51,0,0,0,2.66,0L283,398a3.65,3.65,0,0,1,2.35-.16l22.93,6.26a3.63,3.63,0,0,1,2.61,4.13L304,447a17.67,17.67,0,0,0,11.51,20.69,3.76,3.76,0,0,0,4.79-2.36,0.06,0.06,0,0,1,0,0l25.17-77.34L391,324l-30.82-53.43-50.6,84.14H284.29L265,374l-36.13,2.78a3.62,3.62,0,0,0-2.69,1.52l-5.32,7.51-22.46,6a3.63,3.63,0,0,0-2.57,4.44c0.05,0.14.1,0.3,0.16,0.44A15.65,15.65,0,0,0,206.87,406a3.6,3.6,0,0,0,1.81,4"/><path class="b" d="M260.44,370.75L248.73,359l-14-10.42a3.63,3.63,0,0,0-3.39-.49l-25.61,9.36a3.6,3.6,0,0,0-2.37,3.46l0.49,22.44a3.62,3.62,0,0,0,3.69,3.52c0.17,0,.35,0,0.51,0a15.16,15.16,0,0,0,12.61-14.37,3.62,3.62,0,0,1,2.36-3.26l5.52-2a3.61,3.61,0,0,1,3.41.49l6.31,4.71,22.14-1.69"/><path class="b" d="M248.28,332.58l-8.69-6.29a4.5,4.5,0,0,0-.69-0.41l-26.1-11.25a3.62,3.62,0,0,0-4.75,1.89,3.69,3.69,0,0,0-.3,1.38,19.33,19.33,0,0,0,5.19,13.47l10.15,4.15a4.46,4.46,0,0,1,.8.45l20.86,15.57a30.58,30.58,0,0,0,3.53-2.77V332.58"/><polyline class="b" points="310.81 307.76 336.63 279.1 321.56 279.1 321.56 226.2 300.07 226.2 300.07 279.1 285 279.1 310.81 307.76"/></svg>