<svg xmlns="http://www.w3.org/2000/svg" viewBox="0 0 595.28 850.36"><defs><style>.a{fill:#fcc00d;}.a,.b{fill-rule:evenodd;}.b{fill:#000100;}</style></defs><title>W031_C</title><polyline class="a" points="0 850.36 595.28 850.36 595.28 0 0 0 0 850.36"/><path class="b" d="M28.35,643.92H38.86V625.34l5.26-5.47,16.49,24H73.42L51.53,613.1l19.29-20.16-13,.07L38.86,613.25,38.79,593l-10.44-.07v51Zm505.57,0h9.86l0.07-20.52c0-2.88.58-4.25,1.37-5.4a7.39,7.39,0,0,1,6-3.1c3.39,0,5.83,2.23,5.83,6.33v22.68h9.79V618.07c0-6.84-5-12.1-12.6-12.1-5.26,0-8.93,2.81-10.15,5.69l-0.43-4.32-9.65-.07Zm-18.36-4.18a11.55,11.55,0,0,0,1.22,4.18h10a6.19,6.19,0,0,1-1.66-3.81L525.2,620c0-8.78-4.61-14-16.56-14-11.09,0-15.7,6-15.48,12.24l8.71,0.14c0-2.74,2.09-5.33,7.13-5.33,4.75,0,6.41,2.38,6.41,4.1,0,1.51-.94,2.88-3.6,3.38l-5.61.94c-8.13,1.44-10.3,3-11.81,4.32a9.94,9.94,0,0,0-3.38,7.63c0,6,4.75,11.52,14,11.52C510.37,644.93,513.47,643.13,515.56,639.74Zm0.07-15.12-0.07,4.61c0,5.18-3.17,8.42-8.85,8.42-4.11,0-6.05-2.45-6.05-4.68,0-1.73.58-3.67,6.77-5.4l4.25-1.15A11.44,11.44,0,0,0,515.63,624.63Zm-41.18,19.29h9.86v-51h-9.79Zm-17.5,0h9.87v-51H457ZM422.82,628.3L450,628.37c0-10.87-4.9-22.39-18.58-22.39-14,0-18.36,11.16-18.36,19.51,0,12.17,8.06,19.73,18.29,19.73s16.49-5.54,18-11.95l-9.87-.65c-1.94,3.38-4.46,4.75-7.63,4.75C427.14,637.37,423.33,634.2,422.82,628.3Zm0.36-7.13a8.44,8.44,0,0,1,8.06-7.49c4,0,7.49,2.74,8.13,7.49h-16.2Zm-70.7,22.75h9.87V622.75c0-5.25,3-7.92,6.91-7.92a5,5,0,0,1,5,3.1c0.14,0.36.43,1.15,0.43,4v22h9.72V622.18c0-4.75,3-7.49,6.84-7.49,3.31,0,5.54,2,5.54,6.33v22.9h9.79l-0.14-25.7c-0.14-7.7-5-12.1-11.74-12.1a12.22,12.22,0,0,0-11.23,6.41,11.87,11.87,0,0,0-10.8-6.41c-5,0-8.28,2.16-10.15,5.83l-0.36-4.61-9.58-.07Zm-70.85,0h9.87v-12l4.1-4.11,10,16.13h12.1l-15.12-22.54,13.18-14.11H304.1l-12.6,14-0.07-28.29h-9.79v51Zm-41-12.24c0.14,6.91,6,13.54,17.21,13.54,11.45,0,16.49-6.12,16.49-12.67a10.41,10.41,0,0,0-2.3-6.4c-1.37-1.73-3.1-3-7.49-4l-10.51-2.45c-2.23-.58-3.1-1.94-3.1-3.24s1.29-3.67,6.12-3.67c5.19,0,7.49,2.73,7.56,5.68l8.71-.14a13,13,0,0,0-5.26-9.65c-2.16-1.51-5.54-2.81-10.87-2.81-10.58,0-15.27,5.69-15.27,12a9.44,9.44,0,0,0,2.59,6.91c1.29,1.37,2.88,2.52,7,3.38l7.92,1.8c4.61,1,5.18,2.45,5.18,4.18s-1.51,4.11-6.91,4.11c-5.18,0-7.85-2.74-8.13-6.55ZM223.9,643.92h9.79V607.27H223.9v36.65Zm0-42.19h9.86v-8.78H223.9v8.78Zm-26.64,42.19h9.86V627.65c0-5.47,1.36-8,3-9.72a8.83,8.83,0,0,1,6.7-2.88,14.35,14.35,0,0,1,1.73.14v-8.71a14.1,14.1,0,0,0-2.09-.22,9.45,9.45,0,0,0-9.14,6.55L207,607.27h-9.72v36.65Zm-61.34,0h9.86V622.75c0-5.25,3-7.92,6.91-7.92a5,5,0,0,1,5,3.1c0.14,0.36.43,1.15,0.43,4v22h9.72V622.18c0-4.75,3-7.49,6.84-7.49,3.31,0,5.54,2,5.54,6.33v22.9H190l-0.14-25.7c-0.14-7.7-5-12.1-11.74-12.1a12.23,12.23,0,0,0-11.23,6.41,11.87,11.87,0,0,0-10.8-6.41c-5,0-8.28,2.16-10.15,5.83l-0.36-4.61-9.58-.07Zm-18.36-4.18a14.87,14.87,0,0,0,1.29,4.18h10c-0.58-.51-1.58-2.16-1.58-5.18L127.2,620a20.69,20.69,0,0,0-.58-5c-1.44-5-5.54-9.07-15.48-9.07-11.45,0-15.91,5.83-15.91,12.24l8.64,0.14c0.43-2.45.79-3,1.58-3.67s2.74-1.73,5.69-1.73c4.61,0,6.41,2.45,6.41,4.18s-1.15,3-3.81,3.46l-9.86,1.73C96.46,623.61,93,628.44,93,633.27,93,639.6,97.83,645,106.76,645,112.8,645,116.19,642.55,117.55,639.74Zm0.07-15.34-0.07,5.47c-0.22,4.61-3.31,7.78-8.71,7.78-4.11,0-6.12-2.45-6.12-4.61,0-1.73.86-4,6.7-5.4l4.32-1.15A8.06,8.06,0,0,0,117.62,624.41Zm-5.9-21.53,9.86,0.07,0.07-10h-9.93v9.93Zm-12.89,0h9.86l0.07-10H98.91Zm-21.6,41H87.1v-51H77.31Z"/><path class="b" d="M50.3,731h9.86L60.1,719l4.18-4.11L74.35,731h12l-15-22.53,13.1-14.11H72.76l-12.6,14L60.1,680H50.23ZM512,731h9.86V710.84c0-6,3.31-8.78,7.35-8.78,3.53,0,5.9,2,5.9,6.62V731h9.86V705.73c0-4.46-1.51-7.49-3.89-9.58a14,14,0,0,0-8.64-3.1c-5.33,0-8.93,2.52-10.58,5.9V680H512v51Zm-16.27-13.32c-0.51,2.88-1.37,4-2.81,5.11a7.5,7.5,0,0,1-4.75,1.51c-4.46,0-8.5-3.17-8.5-11.37,0-9,4.32-12.31,8.85-12.31a7.06,7.06,0,0,1,7,6.26l9.51-.5c-0.79-7.63-6.77-13.54-16.78-13.54-7.2,0-12.24,2.81-15.55,7.7a20.56,20.56,0,0,0-3.53,12.24c0,7.42,3,13,7.63,16.42a18.44,18.44,0,0,0,11.38,3.38,18.18,18.18,0,0,0,7.27-1.22c5.54-2,8.93-6.19,9.65-13.25Zm-52,14.69c11.16,0,19.29-7.85,19.29-19.8C463,701,455,693,443.62,693c-11.09,0-19.22,7.92-19.22,19.51C424.4,724.59,432.54,732.37,443.7,732.37Zm-0.07-7.7c-4.68,0-9.14-3.6-9.14-11.74,0-8.78,4.39-12.24,9.22-12.24s9.22,3.53,9.22,11.88C452.91,721.14,448.45,724.67,443.62,724.67Zm-89.27-5.91c0.21,6.91,6,13.54,17.28,13.54S388,726.18,388,719.62a10.34,10.34,0,0,0-2.23-6.4c-1.37-1.73-3.17-3-7.49-4l-10.51-2.45c-2.23-.58-3.17-1.94-3.17-3.24s1.37-3.67,6.12-3.67c5.26,0,7.56,2.73,7.63,5.68l8.64-.14a12.78,12.78,0,0,0-5.26-9.65c-2.09-1.51-5.47-2.81-10.87-2.81-10.51,0-15.19,5.69-15.19,12a9.72,9.72,0,0,0,2.52,6.91c1.3,1.37,3,2.52,7.06,3.39l7.92,1.8c4.61,1,5.18,2.45,5.18,4.18s-1.59,4.11-7,4.11c-5.18,0-7.78-2.74-8.06-6.55Zm-40.25,0c0.22,6.91,6,13.54,17.28,13.54s16.42-6.12,16.42-12.67a10.34,10.34,0,0,0-2.23-6.4c-1.37-1.73-3.17-3-7.49-4l-10.51-2.45c-2.23-.58-3.17-1.94-3.17-3.24s1.37-3.67,6.12-3.67c5.26,0,7.56,2.73,7.63,5.68l8.64-.14a12.78,12.78,0,0,0-5.25-9.65c-2.09-1.51-5.47-2.81-10.87-2.81-10.51,0-15.19,5.69-15.19,12a9.7,9.7,0,0,0,2.52,6.91c1.29,1.37,3,2.52,7.06,3.39L333,717c4.61,1,5.19,2.45,5.19,4.18s-1.59,4.11-7,4.11c-5.19,0-7.78-2.74-8.06-6.55Zm-33.19-3.38,27.14,0.07c0-10.87-5-22.39-18.51-22.39-14,0-18.43,11.16-18.43,19.51,0,12.17,8.06,19.73,18.36,19.73s16.41-5.54,17.93-11.95l-9.86-.65c-1.87,3.38-4.46,4.75-7.63,4.75C285.23,724.45,281.41,721.28,280.91,715.38Zm0.43-7.13a8.37,8.37,0,0,1,8-7.49c4,0,7.49,2.74,8.13,7.49H281.34ZM246.64,731h9.87l0.07-16.27c0-5.47,1.29-8,3-9.72a8.62,8.62,0,0,1,6.7-2.88,13.23,13.23,0,0,1,1.66.14l0.07-8.71a14.16,14.16,0,0,0-2.09-.22,9.54,9.54,0,0,0-9.22,6.55l-0.29-5.54h-9.65Zm-33.84-4.25c2.09,3.38,5.68,5.47,10.72,5.47,10,0,16.2-9.29,16.2-19.73,0-10-6.05-19.29-16.06-19.29a13.26,13.26,0,0,0-10.65,5l-0.43-3.74-9.72.07L202.94,743h9.79Zm8.78-2.09c-4.76,0-8.71-3.17-8.71-11.09,0-8.85,4.32-11.95,8.35-11.95s8.5,3.31,8.5,11.45C229.72,718.47,227.41,724.59,221.59,724.67ZM195.67,731v-7.56H192a3.7,3.7,0,0,1-2.88-1.37,5.86,5.86,0,0,1-.43-2.88V701h6.62v-6.7h-6.62l-0.07-11.59h-9.79v11.59h-5.18v6.77l5.18-.07V720c0,8.28,3.38,11,8.86,11h8Zm-60.84,0h9.86l0.07-20.52c0-2.88.58-4.25,1.37-5.4a7.4,7.4,0,0,1,6-3.1c3.38,0,5.9,2.23,5.9,6.34L157.94,731h9.86V705.15c0-6.84-5-12.1-12.6-12.1-5.26,0-8.93,2.81-10.22,5.69l-0.36-4.32-9.72-.07Zm-18.29-4.18a10.31,10.31,0,0,0,1.15,4.18h10.08a5.46,5.46,0,0,1-1.66-3.81V707.1c0-8.78-4.54-14-16.49-14-11.09,0-15.7,6.05-15.48,12.24l8.71,0.14c0-2.74,2-5.33,7.06-5.33,4.82,0,6.4,2.38,6.4,4.1,0,1.51-.93,2.88-3.6,3.38l-5.62.94c-8.06,1.44-10.22,3-11.81,4.32a10.19,10.19,0,0,0-3.38,7.63c0,6,4.75,11.52,14,11.52C111.28,732,114.45,730.21,116.54,726.83Zm0.07-15.12-0.07,4.61c0,5.18-3.24,8.42-8.85,8.42-4.11,0-6.12-2.45-6.12-4.68,0-1.73.58-3.67,6.84-5.4l4.25-1.15A12.12,12.12,0,0,0,116.61,711.71Z"/><path class="b" d="M163.77,818.13h9.86L173.71,797c0-5.25,3-7.92,6.91-7.92a4.88,4.88,0,0,1,4.9,3.1c0.14,0.36.43,1.15,0.43,4v22h9.79V796.39c0-4.75,3-7.49,6.84-7.49,3.31,0,5.54,2,5.54,6.34v22.9h9.72l-0.07-25.7c-0.21-7.7-5.11-12.1-11.74-12.1a12.34,12.34,0,0,0-11.3,6.41A11.75,11.75,0,0,0,184,780.33c-5,0-8.28,2.16-10.22,5.83l-0.36-4.61-9.58-.07Zm257.75,0h9.86v-51h-9.79ZM403.23,814a11.57,11.57,0,0,0,1.15,4.18h10.08a5.48,5.48,0,0,1-1.66-3.81V794.23c0-8.78-4.53-14-16.49-14-11.09,0-15.69,6-15.48,12.24l8.71,0.14c0-2.74,2-5.33,7.05-5.33,4.83,0,6.48,2.38,6.48,4.1,0,1.51-.94,2.88-3.6,3.38l-5.69.94c-8.06,1.44-10.22,3-11.81,4.32a10.19,10.19,0,0,0-3.39,7.63c0,6,4.75,11.52,14,11.52C398,819.14,401.15,817.34,403.23,814Zm0.07-15.12-0.07,4.61c0,5.18-3.24,8.42-8.86,8.42-4.1,0-6.12-2.45-6.12-4.68,0-1.73.65-3.67,6.84-5.4l4.25-1.15A12.1,12.1,0,0,0,403.3,798.83Zm-41.25,19.29h9.86V781.48h-9.79Zm0.07-42.19H372v-8.78h-9.87v8.78Zm-26.71,42.19h9.86l0.07-16.27c0-5.47,1.29-8,3-9.72a8.73,8.73,0,0,1,6.7-2.88,13.23,13.23,0,0,1,1.66.14l0.07-8.71a14.16,14.16,0,0,0-2.09-.22,9.39,9.39,0,0,0-9.15,6.55l-0.36-5.54h-9.65Zm-34.12-15.62,27.21,0.07c0-10.87-4.9-22.39-18.57-22.39-14,0-18.36,11.16-18.36,19.51,0,12.17,8,19.73,18.29,19.73s16.49-5.54,18-11.95l-9.93-.65c-1.87,3.38-4.39,4.75-7.63,4.75C305.6,811.58,301.79,808.41,301.29,802.51Zm0.43-7.13a8.37,8.37,0,0,1,8-7.49c4,0,7.49,2.74,8.13,7.49H301.72Zm-15.19,22.75v-7.56h-3.67A3.81,3.81,0,0,1,280,809.2a5.86,5.86,0,0,1-.43-2.88V788.18h6.62v-6.7h-6.62l-0.07-11.59h-9.79v11.59h-5.18v6.77l5.26-.07-0.07,18.94c0,8.28,3.38,11,8.86,11h8ZM248.8,814a11.57,11.57,0,0,0,1.15,4.18H260a5.48,5.48,0,0,1-1.66-3.81V794.23c0-8.78-4.53-14-16.49-14-11.09,0-15.69,6-15.48,12.24l8.71,0.14c0-2.74,2-5.33,7.05-5.33,4.83,0,6.48,2.38,6.48,4.1,0,1.51-.93,2.88-3.6,3.38l-5.69.94c-8.06,1.44-10.22,3-11.81,4.32a10.2,10.2,0,0,0-3.38,7.63c0,6,4.75,11.52,14,11.52C243.54,819.14,246.71,817.34,248.8,814Zm0.07-15.12-0.07,4.61c0,5.18-3.24,8.42-8.86,8.42-4.1,0-6.12-2.45-6.12-4.68,0-1.73.65-3.67,6.84-5.4l4.25-1.15A12.13,12.13,0,0,0,248.87,798.83Z"/><path class="b" d="M544.88,527.16c11.95,0,18.36-13.24,12.58-23.26L309.81,75.28a14.41,14.41,0,0,0-25,0L37.4,503.9c-5.78,10,.63,23.26,12.57,23.26H544.88Zm-28.63-31.44L297.36,116.63,78.49,495.72H516.25Z"/><path class="b" d="M180.58,473.06V433h10.81l37.79,37.82s36.14-36.2,37.76-37.82h10.82v40.08h5.81v-45.9h-19s-31.69,31.71-35.35,35.4l-35.37-35.4h-19v45.9h5.82"/><path class="b" d="M249.28,274.22h-16.8L229.12,280h17.25V403c-1.4,1.41-14.06,14.07-17.21,17.24l-13.82-13.84c0.08-.09.35-0.35,0.35-0.35a55.65,55.65,0,0,0,16.21-39.24c0-.72,0-1.43,0-2.15a55.61,55.61,0,0,0-19.37-40l-0.17-.15V309.16l-5.82,10.08v8l2.21,1.89A49.66,49.66,0,0,1,211.57,402l-4.46,4.47,22.06,22.08,23-23.06V274.22h-2.9"/><path class="b" d="M348.55,392.79l11.63-11.63L318.85,379,321,420.32l11.16-11.18c13.27,13.4,23.2,28.74,27.79,42.55a209.77,209.77,0,0,0,21.67-8.13c-5.88-17.07-17.51-35.05-33.1-50.78"/><path class="b" d="M288.24,335.66l4.51-3.11c1-.65,1.93-1.28,2.92-2a8.13,8.13,0,0,0-3.64-3.06l-6.24-2.62,2.78-11,8.59-6.27,10.68,2a7.78,7.78,0,0,0-.29-1.57l-1.08-4.32c-1.36-.24-20.18-3.54-21.06-3.71l-9.65,6.8c-0.23.37-6.85,10.8-7.21,11.39,0,0.16,0,.3,0,0.52a43.89,43.89,0,0,1-1.09,8.66,12.28,12.28,0,0,1-6.84,8.75c0.66,3.64,1.2,6.69,1.2,6.69a13.47,13.47,0,0,0,8.75-6.05c1.93,3.77,3.64,7.17,3.64,7.17a13.23,13.23,0,0,0,6.76-8.75l5.56,2a15,15,0,0,1,1.71-1.54"/><path class="b" d="M376.76,299.36c-9.37-5-21.32-11.22-25.24-12.7a30.3,30.3,0,0,0-10.39-2l-6.76-.46c-7.67-.59-19.27-1.48-29.71-1.53a194.5,194.5,0,0,0-22.06,1.2c-3.69.49-6.42,3.3-9.08,6l-0.12.14-4.21,3.83-3.81,3.45c-1,1-3.29,5.58-4.78,8.6-1,2.13-1.88,3.8-2.34,4.5-2.22,3.29-2.54,4.21-2.61,7.63-0.06,3.13-.56,13.59-0.75,17.25,4.4-.35,9.1-2.66,10.27-8.32a41.79,41.79,0,0,0,1-8.2c0-.46,0-0.68,0-0.7l0-.41L274,305.21l10.83-7.61,21,3.68c-0.06-.21-0.24-1-0.24-1l2.25-.57,1.95,7.74a11.72,11.72,0,0,1,.43,3.33c0,5.74-3.12,13.34-7.43,17.2a70.86,70.86,0,0,1-8.76,6.5l-4.37,3a11.82,11.82,0,0,0-4.89,9.32,14,14,0,0,0,1,4.8c3.79-1.8,15.9-7.58,19-9.56,0.54-.34,6.44-4.56,12.68-9l7.88-5.6-9.92-10.16,13-12.72,0.83-.8,13.55,13.51a9.93,9.93,0,0,1,3.62.58c2.34,0.89,46.14,29.18,64.84,41.3l-34.49-59.81"/><path class="b" d="M329.24,307l-10.52,10.3c0.6,0.61,14.53,14.88,14.53,14.88L229.18,436.41l-52.93-53c-1.28,1.31-7.61,7.77-8.85,9L229.18,456c1.64-1.62,123.18-122.62,124.82-124.23L329.24,307"/></svg>