<?xml version="1.0" encoding="UTF-8"?>
<svg id="Lager_1" data-name="Lager 1" xmlns="http://www.w3.org/2000/svg" viewBox="0 0 153.09 218.69">
  <defs>
    <style>
      .cls-1 {
        fill: #fff;
      }

      .cls-1, .cls-2, .cls-3 {
        fill-rule: evenodd;
      }

      .cls-2 {
        fill: #fcbd0e;
      }

      .cls-3 {
        fill: #1d1f22;
      }
    </style>
  </defs>
  <polyline class="cls-1" points="0 218.69 153.09 218.69 153.09 0 0 0 0 218.69"/>
  <path class="cls-3" d="M140.13,124.41c3.07,0,4.72-3.4,3.23-5.98L79.67,8.2c-1.43-2.47-4.99-2.47-6.42,0L9.62,118.43c-1.49,2.58.16,5.98,3.23,5.98h127.28"/>
  <polyline class="cls-2" points="132.76 116.33 76.47 18.83 20.18 116.33 132.76 116.33"/>
  <path class="cls-3" d="M46.44,110.5v-10.31h2.78c.42.42,9.72,9.73,9.72,9.73,0,0,9.29-9.31,9.71-9.73h2.78v10.31h1.49v-11.8h-4.9s-8.15,8.16-9.09,9.1c-.95-.95-9.1-9.1-9.1-9.1h-4.9v11.8h1.5"/>
  <path class="cls-3" d="M64.11,59.36h-4.32l-.86,1.5h4.44v31.63c-.36.36-3.61,3.62-4.42,4.43-.72-.72-2.83-2.84-3.55-3.56.02-.02.09-.09.09-.09,2.67-2.67,4.17-6.32,4.17-10.09,0-.18,0-.37-.01-.55-.16-3.96-1.97-7.71-4.98-10.28,0,0-.03-.03-.04-.04v-3.97l-1.5,2.59v2.06l.57.49c2.69,2.31,4.32,5.66,4.46,9.2.14,3.54-1.22,7.02-3.72,9.52l-1.15,1.15,5.67,5.68,5.92-5.93v-33.75h-.75"/>
  <path class="cls-3" d="M89.64,89.86l2.99-2.99-10.63-.56.56,10.62,2.87-2.87c3.41,3.44,5.97,7.39,7.15,10.94,1.86-.63,3.76-1.25,5.57-2.09-1.51-4.39-4.5-9.01-8.51-13.06"/>
  <path class="cls-3" d="M74.13,75.17l1.16-.8c.25-.17.5-.33.75-.5-.18-.3-.48-.57-.94-.79l-1.6-.67.71-2.83,2.21-1.61,2.75.51c-.01-.15-.04-.28-.07-.4,0,0-.14-.56-.28-1.11-.35-.06-5.19-.91-5.42-.95-.19.13-2.39,1.68-2.48,1.75-.06.09-1.76,2.78-1.85,2.93,0,.04,0,.08,0,.14,0,.35-.04,1.07-.28,2.23-.21,1.02-.85,1.81-1.76,2.25.17.93.31,1.72.31,1.72.94-.22,1.78-.75,2.25-1.56.5.97.94,1.84.94,1.84.87-.49,1.56-1.29,1.74-2.25l1.43.51c.17-.18.33-.31.44-.4"/>
  <path class="cls-3" d="M96.89,65.83c-2.41-1.28-5.48-2.88-6.49-3.26-.87-.33-1.67-.49-2.67-.52l-1.74-.12c-1.97-.15-4.96-.38-7.64-.39-3.11-.01-5.65.31-5.67.31-.95.13-1.65.85-2.33,1.55l-.03.04-1.08.99-.98.89c-.26.26-.85,1.44-1.23,2.21-.27.55-.48.98-.6,1.16-.57.84-.65,1.08-.67,1.96-.01.81-.14,3.49-.19,4.44,1.13-.09,2.34-.68,2.64-2.14.23-1.12.26-1.81.26-2.11,0-.12,0-.18,0-.18v-.11s2.01-3.2,2.01-3.2l2.78-1.96s4.62.81,5.4.95c-.01-.05-.06-.25-.06-.25l.58-.15.5,1.99c.08.26.11.54.11.86,0,1.47-.8,3.43-1.91,4.42-.81.72-1.58,1.23-2.25,1.67l-1.12.78c-.44.33-1.26,1.13-1.26,2.4,0,.37.09.79.26,1.23.97-.46,4.09-1.95,4.88-2.46.14-.09,1.66-1.17,3.26-2.32l2.03-1.44c-1.1-1.13-2.55-2.61-2.55-2.61l3.35-3.27.21-.21,3.48,3.47c.31,0,.63.04.93.15.6.23,11.87,7.5,16.67,10.62l-8.87-15.38"/>
  <path class="cls-3" d="M84.67,67.8c-.34.34-2.36,2.31-2.71,2.65.15.16,3.74,3.83,3.74,3.83l-26.77,26.79s-13.2-13.22-13.61-13.63c-.33.34-1.96,2-2.28,2.32.39.4,15.49,15.92,15.89,16.33.42-.42,31.68-31.53,32.1-31.95-.21-.21-6.26-6.24-6.37-6.35"/>
  <polyline class="cls-2" points="10.2 133.08 142.93 133.08 142.93 208.7 10.2 208.7 10.2 133.08"/>
  <path class="cls-3" d="M12.53,155.2h2.5v-4.78l1.25-1.41,3.92,6.18h3.05l-5.2-7.92,4.59-5.19-3.1.02-4.5,5.2-.02-5.2-2.48-.02v13.11ZM132.73,155.2h2.35l.02-5.28c0-.74.14-1.09.32-1.39.31-.48.86-.8,1.42-.8.8,0,1.39.57,1.39,1.63v5.83h2.33v-6.65c0-1.76-1.18-3.11-3-3.11-1.25,0-2.12.72-2.41,1.46l-.1-1.11-2.29-.02-.02,9.42ZM128.36,154.12c.05.46.15.8.29,1.07h2.38c-.29-.39-.38-.67-.39-.98l.02-5.17c0-2.26-1.1-3.61-3.94-3.61-2.64,0-3.73,1.56-3.68,3.15l2.07.04c0-.7.5-1.37,1.7-1.37,1.13,0,1.52.61,1.52,1.06,0,.39-.22.74-.86.87l-1.33.24c-1.93.37-2.45.76-2.81,1.11-.53.5-.8,1.2-.8,1.96,0,1.56,1.13,2.96,3.32,2.96,1.28,0,2.02-.46,2.52-1.33ZM128.38,150.23l-.02,1.18c0,1.33-.75,2.17-2.1,2.17-.98,0-1.44-.63-1.44-1.2,0-.44.14-.94,1.61-1.39l1.01-.3c.46-.13.75-.31.94-.46ZM118.59,155.2h2.35v-13.11h-2.33l-.02,13.11ZM114.43,155.2h2.35v-13.11h-2.33l-.02,13.11ZM106.31,151.18l6.45.02c0-2.8-1.16-5.76-4.42-5.76s-4.37,2.87-4.37,5.02c0,3.13,1.92,5.07,4.35,5.07s3.92-1.43,4.28-3.07l-2.35-.17c-.46.87-1.06,1.22-1.82,1.22-1.11,0-2.02-.82-2.14-2.33ZM106.4,149.35c.14-1.15,1.03-1.93,1.92-1.93.94,0,1.78.7,1.93,1.93h-3.85ZM89.59,155.2h2.35v-5.44c0-1.35.7-2.04,1.64-2.04.63,0,.99.33,1.18.8.03.09.1.3.1,1.04v5.65h2.31v-5.59c0-1.22.7-1.93,1.63-1.93.79,0,1.32.52,1.32,1.63v5.89h2.33l-.03-6.61c-.03-1.98-1.2-3.11-2.79-3.11-1.2,0-2.16.61-2.67,1.65-.44-.98-1.42-1.65-2.57-1.65s-1.97.56-2.41,1.5l-.09-1.18-2.28-.02-.02,9.42ZM72.75,155.2h2.35v-3.09l.98-1.06,2.38,4.15h2.88l-3.59-5.8,3.13-3.63h-2.77l-3,3.59-.02-7.28h-2.33v13.11ZM63.01,152.05c.04,1.78,1.42,3.48,4.09,3.48s3.92-1.57,3.92-3.26c0-.59-.21-1.19-.55-1.65-.33-.44-.74-.78-1.78-1.04l-2.5-.63c-.53-.15-.74-.5-.74-.83,0-.37.31-.94,1.46-.94,1.23,0,1.78.7,1.8,1.46l2.07-.04c-.03-.94-.51-1.89-1.25-2.48-.51-.39-1.32-.72-2.58-.72-2.52,0-3.63,1.46-3.63,3.07,0,.76.21,1.3.62,1.78.31.35.68.65,1.66.87l1.88.46c1.1.26,1.23.63,1.23,1.07,0,.41-.36,1.06-1.64,1.06s-1.87-.7-1.93-1.69l-2.12.02ZM59.02,155.2h2.33v-9.42h-2.33v9.42ZM59.02,144.35h2.34v-2.26h-2.34v2.26ZM52.69,155.2h2.35v-4.18c0-1.41.32-2.06.7-2.5.45-.5.96-.74,1.59-.74.14,0,.27.02.41.04v-2.24c-.12-.02-.31-.06-.5-.06-1.03,0-1.9.7-2.17,1.68l-.07-1.43h-2.31v9.42ZM38.1,155.2h2.35v-5.44c0-1.35.7-2.04,1.64-2.04.63,0,.99.33,1.18.8.03.09.1.3.1,1.04v5.65h2.31v-5.59c0-1.22.7-1.93,1.63-1.93.79,0,1.32.52,1.32,1.63v5.89h2.33l-.03-6.61c-.03-1.98-1.2-3.11-2.79-3.11-1.2,0-2.16.61-2.67,1.65-.45-.98-1.42-1.65-2.57-1.65s-1.97.56-2.41,1.5l-.09-1.18-2.28-.02-.02,9.42ZM33.74,154.12c.05.37.17.78.31,1.07h2.38c-.14-.13-.38-.56-.38-1.33l-.02-4.81c-.03-.83-.08-1.07-.14-1.28-.34-1.3-1.32-2.33-3.68-2.33-2.72,0-3.78,1.5-3.78,3.15l2.05.04c.1-.63.19-.76.38-.94.2-.22.65-.44,1.35-.44,1.1,0,1.52.63,1.52,1.07s-.27.76-.91.89l-2.35.44c-1.76.33-2.58,1.57-2.58,2.81,0,1.63,1.15,3.02,3.27,3.02,1.44,0,2.24-.63,2.57-1.35ZM33.76,150.18l-.02,1.41c-.05,1.19-.79,2-2.07,2-.97,0-1.45-.63-1.45-1.18,0-.44.21-1.02,1.59-1.39l1.03-.3c.38-.09.7-.3.93-.54ZM32.35,144.64l2.35.02.02-2.57h-2.36v2.56ZM29.29,144.64h2.35l.02-2.57h-2.35l-.02,2.57ZM24.15,155.2h2.35v-13.11h-2.33l-.02,13.11Z"/>
  <path class="cls-3" d="M12.94,175.88h2.54l-.02-3.09,1.07-1.06,2.59,4.15h3.09l-3.87-5.8,3.37-3.63h-3l-3.24,3.59-.02-7.28h-2.54l.02,13.11ZM131.66,175.88h2.54v-5.19c0-1.54.85-2.26,1.89-2.26.91,0,1.52.52,1.52,1.7v5.74h2.54v-6.5c0-1.15-.39-1.93-1-2.46-.56-.46-1.39-.8-2.22-.8-1.37,0-2.3.65-2.72,1.52v-4.87h-2.54v13.11ZM127.48,172.46c-.13.74-.35,1.04-.72,1.32-.32.24-.7.39-1.22.39-1.15,0-2.18-.82-2.18-2.93,0-2.31,1.11-3.17,2.28-3.17.91,0,1.67.67,1.8,1.61l2.45-.13c-.2-1.96-1.74-3.48-4.32-3.48-1.85,0-3.15.72-4,1.98-.57.81-.91,1.83-.91,3.15,0,1.91.78,3.35,1.96,4.22.74.54,1.65.87,2.93.87.89,0,1.41-.13,1.87-.31,1.43-.52,2.3-1.59,2.48-3.41l-2.41-.11ZM114.11,176.24c2.87,0,4.96-2.02,4.96-5.09s-2.05-5.04-4.98-5.04-4.94,2.04-4.94,5.02,2.09,5.11,4.96,5.11ZM114.09,174.25c-1.2,0-2.35-.92-2.35-3.02,0-2.26,1.13-3.15,2.37-3.15s2.37.91,2.37,3.06-1.15,3.11-2.39,3.11ZM91.13,172.74c.05,1.78,1.54,3.48,4.44,3.48s4.22-1.57,4.22-3.26c0-.59-.2-1.18-.57-1.65-.35-.44-.82-.78-1.93-1.04l-2.7-.63c-.57-.15-.82-.5-.82-.83,0-.37.35-.94,1.57-.94,1.35,0,1.94.7,1.96,1.46l2.22-.04c-.04-.94-.54-1.89-1.35-2.48-.54-.39-1.41-.72-2.8-.72-2.7,0-3.91,1.46-3.91,3.07,0,.76.22,1.3.65,1.78.33.35.76.65,1.82.87l2.04.46c1.18.26,1.33.63,1.33,1.07,0,.41-.41,1.06-1.8,1.06s-2-.7-2.07-1.68l-2.31.02ZM80.78,172.74c.06,1.78,1.54,3.48,4.44,3.48s4.22-1.57,4.22-3.26c0-.59-.2-1.18-.57-1.65-.35-.44-.82-.78-1.93-1.04l-2.7-.63c-.57-.15-.82-.5-.82-.83,0-.37.35-.94,1.57-.94,1.35,0,1.94.7,1.96,1.46l2.22-.04c-.04-.94-.54-1.89-1.35-2.48-.54-.39-1.41-.72-2.8-.72-2.7,0-3.91,1.46-3.91,3.07,0,.76.22,1.3.65,1.78.33.35.76.65,1.82.87l2.04.46c1.18.26,1.33.63,1.33,1.07,0,.41-.41,1.06-1.8,1.06s-2-.7-2.07-1.68l-2.32.02ZM72.24,171.87l6.98.02c0-2.8-1.28-5.76-4.76-5.76s-4.74,2.87-4.74,5.02c0,3.13,2.07,5.07,4.72,5.07s4.22-1.43,4.61-3.07l-2.54-.17c-.48.87-1.15,1.22-1.96,1.22-1.2,0-2.18-.81-2.31-2.33ZM72.35,170.03c.15-1.15,1.09-1.93,2.05-1.93,1.04,0,1.92.7,2.09,1.93h-4.15ZM63.43,175.88h2.54l.02-4.19c0-1.41.33-2.06.76-2.5.46-.5,1.02-.74,1.72-.74.15,0,.28.02.43.04l.02-2.24c-.13-.02-.33-.06-.54-.06-1.11,0-2.07.7-2.37,1.69l-.07-1.43h-2.48l-.02,9.43ZM54.73,174.79c.54.87,1.46,1.41,2.76,1.41,2.57,0,4.17-2.39,4.17-5.07s-1.56-4.96-4.13-4.96c-1.15,0-2.07.46-2.74,1.28l-.11-.96-2.5.02.02,12.46h2.52l.02-4.17ZM56.99,174.25c-1.22,0-2.24-.81-2.24-2.85,0-2.28,1.11-3.07,2.15-3.07s2.18.85,2.18,2.94c0,1.39-.59,2.96-2.09,2.98ZM50.32,175.88v-1.94h-.94c-.31,0-.61-.17-.74-.35-.04-.07-.11-.22-.11-.74v-4.67h1.7v-1.72h-1.7l-.02-2.98h-2.52v2.98h-1.33v1.74l1.33-.02v4.87c0,2.13.87,2.83,2.28,2.83h2.05ZM34.67,175.88h2.54l.02-5.28c0-.74.15-1.09.35-1.39.33-.48.93-.8,1.54-.8.87,0,1.52.57,1.52,1.63l-.02,5.83h2.54v-6.65c0-1.76-1.3-3.11-3.24-3.11-1.35,0-2.3.72-2.63,1.46l-.09-1.11-2.5-.02-.02,9.43ZM29.97,174.81c.04.46.15.8.3,1.07h2.59c-.33-.39-.43-.67-.43-.98v-5.17c0-2.26-1.17-3.61-4.24-3.61-2.85,0-4.04,1.56-3.98,3.15l2.24.04c0-.7.52-1.37,1.82-1.37s1.65.61,1.65,1.06c0,.39-.24.74-.92.87l-1.45.24c-2.07.37-2.63.76-3.04,1.11-.56.5-.87,1.2-.87,1.96,0,1.56,1.22,2.96,3.61,2.96,1.37,0,2.19-.46,2.72-1.33ZM29.99,170.92l-.02,1.19c0,1.33-.83,2.17-2.28,2.17-1.06,0-1.57-.63-1.57-1.2,0-.44.15-.94,1.76-1.39l1.09-.3c.48-.13.82-.31,1.02-.46Z"/>
  <path class="cls-3" d="M42.12,199.35h2.54l.02-5.44c0-1.35.76-2.04,1.78-2.04.67,0,1.07.33,1.26.8.04.09.11.3.11,1.04v5.65h2.52v-5.59c0-1.22.76-1.93,1.76-1.93.85,0,1.43.52,1.43,1.63v5.89h2.5l-.02-6.61c-.05-1.98-1.31-3.11-3.02-3.11-1.31,0-2.33.61-2.91,1.65-.48-.98-1.52-1.65-2.76-1.65s-2.13.56-2.63,1.5l-.09-1.19-2.46-.02-.02,9.42ZM108.4,199.35h2.54v-13.11h-2.52l-.02,13.11ZM103.7,198.27c.06.46.15.8.3,1.07h2.59c-.33-.39-.43-.67-.43-.98v-5.17c0-2.26-1.17-3.61-4.24-3.61-2.85,0-4.04,1.56-3.98,3.15l2.24.04c0-.7.52-1.37,1.81-1.37s1.67.61,1.67,1.06c0,.39-.24.74-.93.87l-1.46.24c-2.07.37-2.63.76-3.04,1.11-.56.5-.87,1.2-.87,1.96,0,1.56,1.22,2.96,3.61,2.96,1.37,0,2.18-.46,2.72-1.33ZM103.72,194.38l-.02,1.19c0,1.33-.83,2.17-2.28,2.17-1.05,0-1.57-.63-1.57-1.2,0-.44.17-.94,1.76-1.39l1.09-.3c.48-.13.82-.32,1.02-.46ZM93.11,199.35h2.54v-9.42h-2.52l-.02,9.42ZM93.13,188.5h2.54v-2.26h-2.54v2.26ZM86.26,199.35h2.54l.02-4.18c0-1.41.33-2.06.76-2.5.48-.5,1.02-.74,1.72-.74.15,0,.28.02.43.04l.02-2.24c-.13-.02-.33-.06-.54-.06-1.11,0-2.07.7-2.35,1.69l-.09-1.43h-2.48l-.02,9.42ZM77.48,195.33l7,.02c0-2.8-1.26-5.76-4.78-5.76s-4.72,2.87-4.72,5.02c0,3.13,2.05,5.07,4.7,5.07s4.24-1.42,4.63-3.07l-2.55-.17c-.48.87-1.13,1.22-1.96,1.22-1.2,0-2.18-.82-2.31-2.33ZM77.59,193.5c.15-1.15,1.09-1.93,2.05-1.93,1.04,0,1.93.7,2.09,1.93h-4.15ZM73.69,199.35v-1.94h-.95c-.31,0-.59-.17-.74-.35-.04-.07-.11-.22-.11-.74v-4.67h1.7v-1.72h-1.7l-.02-2.98h-2.52v2.98h-1.33v1.74l1.35-.02-.02,4.87c0,2.13.87,2.83,2.28,2.83h2.06ZM63.98,198.27c.06.46.15.8.3,1.07h2.59c-.33-.39-.43-.67-.43-.98v-5.17c0-2.26-1.17-3.61-4.24-3.61-2.85,0-4.04,1.56-3.98,3.15l2.24.04c0-.7.52-1.37,1.81-1.37s1.67.61,1.67,1.06c0,.39-.24.74-.92.87l-1.46.24c-2.07.37-2.63.76-3.04,1.11-.56.5-.87,1.2-.87,1.96,0,1.56,1.22,2.96,3.61,2.96,1.37,0,2.18-.46,2.72-1.33ZM64,194.38l-.02,1.19c0,1.33-.83,2.17-2.28,2.17-1.05,0-1.57-.63-1.57-1.2,0-.44.17-.94,1.76-1.39l1.09-.3c.48-.13.81-.32,1.02-.46Z"/>
</svg>