<svg xmlns="http://www.w3.org/2000/svg" viewBox="0 0 595.28 850.36"><defs><style>.a{fill:#fcc00d;}.a,.b{fill-rule:evenodd;}.b{fill:#000100;}</style></defs><title>W032_C</title><polyline class="a" points="0 850.36 595.28 850.36 595.28 0 0 0 0 850.36"/><path class="b" d="M56.21,627.94c0,9.36,7.06,17.71,21.89,17.71s21.38-8,21.38-16.56c0-6.41-4-12.24-12.74-14.47l-12.1-3c-3.6-.93-4-1.36-4.75-2.16a4.93,4.93,0,0,1-1.37-3.38c0-3,2.52-6.48,9.8-6.48a11,11,0,0,1,7.77,2.74,8.3,8.3,0,0,1,2.38,5.47l10.15,0.14c-0.43-5.61-2.3-9-5.11-11.59s-8.35-5.11-15.77-5.11c-13.53,0-19.73,7.56-19.73,16,0,6.48,3.6,11.74,12.6,14L81,623.84c1.87,0.43,4.61.79,6.26,3a6.08,6.08,0,0,1,1.29,3.38c0,3.31-2.52,7.06-10.8,7.06-8,0-11.3-4.18-11.16-9.22Zm455.53,0.36L539,628.37c0-10.87-4.9-22.39-18.58-22.39-14,0-18.36,11.16-18.36,19.51,0,12.17,8,19.73,18.29,19.73s16.49-5.54,18-11.95l-9.94-.65c-1.87,3.38-4.39,4.75-7.63,4.75C516.06,637.37,512.25,634.2,511.74,628.3Zm0.44-7.13a8.37,8.37,0,0,1,8-7.49c4,0,7.49,2.74,8.21,7.49h-16.2Zm-50.4,10.51c0.21,6.91,6,13.54,17.28,13.54,11.45,0,16.42-6.12,16.42-12.67a10.34,10.34,0,0,0-2.23-6.4c-1.37-1.73-3.17-3-7.49-4l-10.51-2.45c-2.23-.58-3.1-1.94-3.1-3.24s1.29-3.67,6.12-3.67c5.18,0,7.49,2.73,7.56,5.68l8.71-.14a13.23,13.23,0,0,0-5.25-9.65c-2.16-1.51-5.55-2.81-10.87-2.81-10.58,0-15.27,5.69-15.27,12a9.46,9.46,0,0,0,2.59,6.91c1.29,1.37,2.88,2.52,7,3.38l7.92,1.8c4.61,1,5.18,2.45,5.18,4.18s-1.51,4.11-7,4.11c-5.11,0-7.78-2.74-8.06-6.55ZM445,643.92h9.94V593h-9.86ZM410.87,628.3l27.22,0.07c0-10.87-4.9-22.39-18.58-22.39-14,0-18.36,11.16-18.36,19.51,0,12.17,8,19.73,18.29,19.73s16.49-5.54,18-11.95l-9.93-.65c-1.87,3.38-4.39,4.75-7.63,4.75C415.19,637.37,411.38,634.2,410.87,628.3Zm0.43-7.13a8.37,8.37,0,0,1,8-7.49c4,0,7.49,2.74,8.21,7.49h-16.2Zm-34.7,22.75h9.94V627.65c0-5.47,1.36-8,3-9.72a8.72,8.72,0,0,1,6.7-2.88,12.16,12.16,0,0,1,1.66.14l0.07-8.71a14.1,14.1,0,0,0-2.09-.22,9.38,9.38,0,0,0-9.14,6.55l-0.36-5.54h-9.65Zm-26.71,1.44c11.88,0,19.8-7.92,19.8-19.87,0-11.74-8.06-19.66-19.44-19.66-11.16,0-19.37,7.92-19.37,19.66C330.88,637.45,339.09,645.36,349.89,645.36Zm0.58-7.7c-5.11,0-9.5-3.67-9.5-12.17,0-8.21,4.46-12,9.5-12,4.68,0,9.15,3.31,9.15,12.24C359.61,634.42,354.93,637.66,350.47,637.66Zm1.37-34.77h9.86V593l-9.86-.07v10Zm-12.89,0h9.86V593l-9.79-.07Zm-32.54,41h9.94V627.65c0-5.47,1.37-8,3-9.72a8.72,8.72,0,0,1,6.7-2.88,12.16,12.16,0,0,1,1.66.14l0.07-8.71a14,14,0,0,0-2.09-.22,9.38,9.38,0,0,0-9.14,6.55l-0.36-5.54h-9.65Zm-73.51,0h9.72l0.58-3.74a12.81,12.81,0,0,0,10.51,4.9c8.13,0,16.13-6.62,16.13-19.58,0-12.6-8.14-19.44-16.06-19.44-5.26,0-9,2.3-10.95,5.47V593h-9.94v51Zm18.36-7.35c-4.1,0-8.28-3.24-8.28-11.45s4.25-11.45,8.28-11.45c4.39,0,8.43,3.1,8.43,11.59C259.68,633.34,255.5,636.58,251.25,636.58Zm-62.13,7.35h9.72l0.58-3.74a12.82,12.82,0,0,0,10.51,4.9c8.14,0,16.13-6.62,16.13-19.58,0-12.6-8.13-19.44-16.06-19.44-5.26,0-9,2.3-10.94,5.47V593h-9.94v51Zm18.36-7.35c-4.11,0-8.28-3.24-8.28-11.45s4.25-11.45,8.28-11.45c4.39,0,8.42,3.1,8.42,11.59C215.9,633.34,211.73,636.58,207.48,636.58Zm-36.65,3.17a11.56,11.56,0,0,0,1.15,4.18h10.08a5.81,5.81,0,0,1-1.66-3.81V620c0-8.78-4.54-14-16.49-14-11.09,0-15.7,6-15.48,12.24l8.71,0.14c0-2.74,2-5.33,7.06-5.33,4.82,0,6.48,2.38,6.48,4.1,0,1.51-.93,2.88-3.6,3.38l-5.69.94c-8.06,1.44-10.22,3-11.81,4.32a10.13,10.13,0,0,0-3.31,7.63c0,6,4.76,11.52,14,11.52C165.58,644.93,168.74,643.13,170.83,639.75Zm0.07-15.12-0.07,4.61c0,5.18-3.24,8.42-8.85,8.42-4.1,0-6.12-2.45-6.12-4.68,0-1.73.65-3.67,6.84-5.4l4.25-1.15A12.14,12.14,0,0,0,170.91,624.63Zm-64.22,19.29h9.93V623.4c0-2.88.58-4.25,1.37-5.4a7.53,7.53,0,0,1,6-3.1c3.38,0,5.83,2.23,5.83,6.33l-0.07,22.68h9.86V618.08c0-6.84-5-12.1-12.6-12.1-5.26,0-8.93,2.81-10.22,5.69l-0.36-4.32-9.72-.07Z"/><path class="b" d="M134,711.71l-0.07,4.61c0,5.18-3.24,8.42-8.85,8.42-4.11,0-6.12-2.45-6.12-4.68,0-1.73.65-3.67,6.84-5.4l4.25-1.15A12.13,12.13,0,0,0,134,711.71ZM476,731h9.94V680h-9.79Zm-18.29-4.18a13.28,13.28,0,0,0,1.15,4.18H468.9a5.83,5.83,0,0,1-1.66-3.81V707.1c0-8.78-4.53-14-16.49-14-11.09,0-15.7,6.05-15.48,12.24l8.71,0.14c0-2.74,2-5.33,7.06-5.33,4.83,0,6.48,2.38,6.48,4.1,0,1.51-.93,2.88-3.6,3.38l-5.69.94c-8.06,1.44-10.22,3-11.81,4.32a10.14,10.14,0,0,0-3.31,7.63c0,6,4.75,11.52,14,11.52C452.48,732,455.58,730.21,457.66,726.83Zm0.07-15.12-0.07,4.61c0,5.18-3.24,8.42-8.85,8.42-4.1,0-6.12-2.45-6.12-4.68,0-1.73.65-3.67,6.84-5.4l4.25-1.15A12.14,12.14,0,0,0,457.74,711.71ZM416.48,731h9.86V694.36h-9.79Zm0.07-42.19h9.87V680h-9.87v8.78ZM389.84,731h9.93V714.73c0-5.47,1.37-8,3-9.72a8.72,8.72,0,0,1,6.7-2.88,12.17,12.17,0,0,1,1.66.14l0.07-8.71a14,14,0,0,0-2.09-.22,9.45,9.45,0,0,0-9.14,6.55l-0.36-5.54h-9.65Zm-34.13-15.62,27.22,0.07c0-10.87-4.9-22.39-18.58-22.39-14,0-18.36,11.16-18.36,19.51,0,12.17,8.06,19.73,18.29,19.73s16.49-5.54,18-11.95l-9.93-.65c-1.87,3.38-4.39,4.75-7.63,4.75C360,724.45,356.22,721.28,355.72,715.38Zm0.43-7.13a8.38,8.38,0,0,1,8-7.49c4,0,7.49,2.74,8.21,7.49h-16.2ZM340.89,731v-7.56h-3.67a3.55,3.55,0,0,1-2.81-1.37c-0.21-.29-0.5-0.86-0.5-2.88V701.05h6.62v-6.7H333.9l-0.07-11.59H324v11.59h-5.18v6.77l5.26-.07L324,720c0,8.28,3.46,11,8.86,11h8Zm-37.73-4.18a13.19,13.19,0,0,0,1.15,4.18h10.08a5.83,5.83,0,0,1-1.66-3.81V707.1c0-8.78-4.53-14-16.41-14-11.09,0-15.7,6.05-15.48,12.24l8.71,0.14c0-2.74,2-5.33,7.06-5.33,4.75,0,6.41,2.38,6.41,4.1,0,1.51-.94,2.88-3.6,3.38l-5.61.94c-8.06,1.44-10.23,3-11.81,4.32a10.14,10.14,0,0,0-3.31,7.63c0,6,4.75,11.52,14,11.52C298,732,301.07,730.21,303.16,726.83Zm0.07-15.12-0.07,4.61c0,5.18-3.24,8.42-8.78,8.42-4.11,0-6.12-2.45-6.12-4.68,0-1.73.65-3.67,6.84-5.4l4.18-1.15A12.14,12.14,0,0,0,303.23,711.71ZM218.2,731h9.93V709.84c0-5.25,3-7.92,6.91-7.92a4.89,4.89,0,0,1,4.9,3.1c0.14,0.36.43,1.15,0.43,4v22h9.79V709.26c0-4.75,3-7.49,6.84-7.49,3.31,0,5.54,2,5.54,6.33V731h9.72l-0.07-25.7c-0.22-7.7-5.11-12.1-11.74-12.1a12.23,12.23,0,0,0-11.23,6.41,11.86,11.86,0,0,0-10.8-6.41c-5,0-8.28,2.16-10.22,5.83l-0.36-4.61-9.5-.07Zm-57.38,0h9.72l12.6-36.65H173.06l-7.27,24.12-7.28-24H148.43Zm-26.93-4.18A13.39,13.39,0,0,0,135,731h10.08a5.79,5.79,0,0,1-1.66-3.81V707.1c0-8.78-4.54-14-16.49-14-11.09,0-15.7,6.05-15.48,12.24l8.71,0.14c0-2.74,2-5.33,7.06-5.33,4.82,0,6.48,2.38,6.48,4.1,0,1.51-.94,2.88-3.6,3.38l-5.68.94c-8.06,1.44-10.23,3-11.81,4.32a10.13,10.13,0,0,0-3.31,7.63c0,6,4.75,11.52,14,11.52C128.71,732,131.8,730.21,133.89,726.83Z"/><path class="b" d="M90.55,811.8c-4.75,0-8.78-3.17-8.78-11.09,0-8.85,4.39-12,8.42-12s8.5,3.31,8.5,11.45C98.69,805.61,96.38,811.73,90.55,811.8Zm399.08-5.9c0.15,6.91,6,13.54,17.21,13.54,11.45,0,16.49-6.12,16.49-12.67a10.41,10.41,0,0,0-2.31-6.41c-1.36-1.73-3.1-3-7.42-4L503,793.87c-2.16-.58-3.1-1.94-3.1-3.24S501.23,787,506,787c5.26,0,7.56,2.73,7.56,5.68l8.71-.14a13,13,0,0,0-5.26-9.65c-2.16-1.51-5.54-2.81-10.87-2.81-10.58,0-15.19,5.69-15.19,12a9.41,9.41,0,0,0,2.52,6.91c1.3,1.37,2.88,2.52,7,3.38l7.92,1.8c4.68,1,5.18,2.45,5.18,4.18s-1.51,4.11-6.91,4.11c-5.18,0-7.85-2.74-8.14-6.55Zm-40.25,0c0.14,6.91,6,13.54,17.21,13.54,11.45,0,16.49-6.12,16.49-12.67a10.43,10.43,0,0,0-2.31-6.41c-1.37-1.73-3.1-3-7.42-4l-10.58-2.45c-2.16-.58-3.1-1.94-3.1-3.24S461,787,465.8,787c5.25,0,7.56,2.73,7.56,5.68l8.71-.14a13,13,0,0,0-5.25-9.65c-2.16-1.51-5.55-2.81-10.87-2.81-10.58,0-15.19,5.69-15.19,12a9.41,9.41,0,0,0,2.52,6.91c1.29,1.37,2.88,2.52,7,3.38l7.92,1.8c4.68,1,5.18,2.45,5.18,4.18s-1.51,4.11-6.91,4.11c-5.18,0-7.85-2.74-8.13-6.55Zm-33.26-3.38,27.14,0.07c0-10.87-4.9-22.39-18.58-22.39-14,0-18.36,11.16-18.36,19.51,0,12.17,8.06,19.73,18.29,19.73s16.49-5.54,18-11.95l-9.86-.65c-1.94,3.38-4.46,4.75-7.63,4.75C420.44,811.58,416.62,808.41,416.12,802.51Zm0.36-7.13a8.5,8.5,0,0,1,8.06-7.49c4,0,7.49,2.74,8.14,7.49h-16.2Zm-34.63,22.75h9.86V801.86c0-5.47,1.37-8,3-9.72a8.88,8.88,0,0,1,6.77-2.88,14.62,14.62,0,0,1,1.66.14V780.7a12.21,12.21,0,0,0-2.09-.22,9.52,9.52,0,0,0-9.15,6.55l-0.29-5.54h-9.65Zm-33.91-4.25c2.09,3.39,5.76,5.47,10.8,5.47,10,0,16.2-9.29,16.2-19.73,0-10-6-19.29-16.13-19.29a13.11,13.11,0,0,0-10.58,5l-0.44-3.74-9.72.07v48.45h9.86v-16.2Zm8.86-2.09c-4.75,0-8.78-3.17-8.78-11.09,0-8.85,4.39-12,8.42-12s8.5,3.31,8.5,11.45C364.93,805.61,362.63,811.73,356.8,811.8Zm-26,6.34v-7.56h-3.67a3.66,3.66,0,0,1-2.81-1.37c-0.21-.29-0.5-0.86-0.5-2.88V788.18h6.7v-6.7h-6.63l-0.07-11.59H314v11.59h-5.11v6.77l5.19-.07v18.94c0,8.28,3.38,11,8.78,11h8Zm-60.69,0H280L280,797.62c0-2.88.58-4.25,1.37-5.4a7.4,7.4,0,0,1,6-3.1c3.38,0,5.83,2.23,5.83,6.33v22.68H303V792.29c0-6.84-5-12.1-12.6-12.1-5.25,0-8.93,2.81-10.15,5.69l-0.43-4.32-9.65-.07ZM251.82,814a10.31,10.31,0,0,0,1.15,4.18h10a6.21,6.21,0,0,1-1.66-3.81l0.07-20.09c0-8.78-4.61-14-16.49-14-11.09,0-15.69,6-15.55,12.24l8.71,0.14c0-2.74,2.09-5.33,7.13-5.33,4.83,0,6.41,2.38,6.41,4.1,0,1.51-.93,2.88-3.6,3.38l-5.62.94c-8.13,1.44-10.29,3-11.81,4.32a10.18,10.18,0,0,0-3.38,7.63c0,6,4.75,11.52,14,11.52C246.57,819.14,249.74,817.34,251.82,814Zm0-15.12v4.61c0,5.18-3.24,8.42-8.93,8.42-4.1,0-6-2.45-6-4.68,0-1.73.58-3.67,6.77-5.4l4.25-1.15A11.45,11.45,0,0,0,251.82,798.84Zm-66.31,19.29h9.87v-12l4.1-4.11,10.08,16.13h12.1L206.54,795.6l13.17-14.11H208l-12.67,14-0.07-28.29h-9.79v51ZM138.57,814a12.83,12.83,0,0,0,1.22,4.18h10c-0.58-.51-1.51-2.16-1.51-5.18l-0.14-18.72c-0.07-3.24-.29-4.18-0.58-5-1.44-5-5.54-9.07-15.48-9.07-11.45,0-15.91,5.83-15.91,12.24l8.64,0.14c0.43-2.45.79-3,1.58-3.67a8.41,8.41,0,0,1,5.69-1.73c4.68,0,6.41,2.45,6.41,4.18s-1.08,3-3.81,3.46l-9.86,1.73c-7.42,1.29-10.87,6.12-10.87,10.95,0,6.33,4.9,11.74,13.75,11.74C133.82,819.22,137.13,816.77,138.57,814Zm0-15.34v5.47c-0.29,4.61-3.39,7.78-8.78,7.78-4.11,0-6.12-2.45-6.12-4.61,0-1.73.86-4,6.77-5.4l4.25-1.15A8.13,8.13,0,0,0,138.57,798.62Zm-7.2-21.38a5.11,5.11,0,1,0-5.33-5.11A5.08,5.08,0,0,0,131.37,777.24Zm-0.07-2.09a3,3,0,0,1-3.17-3,3.16,3.16,0,0,1,3-3.1,3,3,0,0,1,3,3.1A3,3,0,0,1,131.3,775.15ZM81.69,813.88c2.09,3.39,5.76,5.47,10.8,5.47,10,0,16.2-9.29,16.2-19.73,0-10-6.05-19.29-16.13-19.29a13.12,13.12,0,0,0-10.58,5l-0.43-3.74-9.72.07v48.45h9.86v-16.2Z"/><path class="b" d="M544.91,527.16c11.95,0,18.36-13.24,12.58-23.26L309.83,75.28a14.41,14.41,0,0,0-25,0L37.4,503.9c-5.78,10,.63,23.26,12.57,23.26H544.91Zm-28.58-31.43L297.45,116.61,78.55,495.73H516.33Z"/><path class="b" d="M255.65,334.08l4.18-10L234,333.14l11.75,24.74,4-9.66c11.5,4.86,21.44,11.74,27.74,19a140.84,140.84,0,0,0,10.68-11c-7.9-9-19.06-16.58-32.53-22.21"/><path class="b" d="M325.21,402.8c-5.62-13.45-13.06-24.52-22-32.42-3.76,3.48-7.81,6.77-11.14,10.6,7.29,6.29,14.18,16.22,19,27.72l-9.64,4,24.72,11.74,9.1-25.83-10,4.17"/><path class="b" d="M377.32,299.42a32.79,32.79,0,0,0-61.56,14.27h0c0,0.1,0,.22,0,0.33,0,0.66,0,1.32,0,2l0.08,0c0.06,0.89.15,1.78,0.28,2.66l2.36-.35c-0.17-1.15-.25-2.3-0.31-3.47l7.67-3.76,2,7.78,7.38-3.19,1.19,7.78,1.19,5.38,7.21-4.18,4,5.38-1.21,9,7.78,2,0,6.24c0.23,0,.44-0.11.68-0.18l1-.19,0,0a32.72,32.72,0,0,0,20.34-47.37"/><path class="b" d="M317.19,323.48a33.1,33.1,0,0,0,1.8,4.65l2.16-1a32.09,32.09,0,0,1-1.68-4.32l-2.28.7"/><path class="b" d="M328,339.76a34,34,0,0,0,4,2.89l1.26-2a29.91,29.91,0,0,1-3.75-2.68L328,339.76"/><path class="b" d="M336.44,344.9a35.77,35.77,0,0,0,4.7,1.61l0.59-2.33a32.09,32.09,0,0,1-4.36-1.48l-0.93,2.2"/><path class="b" d="M346.26,345l-0.25,2.4a33.86,33.86,0,0,0,4.95.18l-0.08-2.4a29.47,29.47,0,0,1-4.62-.18"/><path class="b" d="M357.56,368.42l-2.22-.93a40.36,40.36,0,0,0-1.61,4.72L356,372.8a31.1,31.1,0,0,1,1.52-4.38"/><path class="b" d="M362.36,360.6l-1.83-1.55a31.23,31.23,0,0,0-2.92,4l2,1.27a27.14,27.14,0,0,1,2.7-3.73"/><polyline class="b" points="355.04 377.45 352.71 376.9 351.6 381.55 353.92 382.11 355.04 377.45"/><polyline class="b" points="352.82 386.76 350.49 386.2 349.37 390.88 351.71 391.42 352.82 386.76"/><path class="b" d="M460.55,458.27l-51.22-94a29.84,29.84,0,0,0-40.51-11.93,29.11,29.11,0,0,0-7.3,5.58l4.67,6.63-3.4,6,5.77,6.38L363,380.32l-3.19,7,4.6,5.38-1.21,4.37-8.38-1.78-4.59,2.76,0.45-1.92-2.33-.54-1,4.19h0l-8.87,36.94-67.69-.12a16.26,16.26,0,1,0-.05,32.52l80.59,0.14c8,0,14.24-6.08,16.05-13.64l7.26-30.23,26,47.69h63.69a34,34,0,0,0-3.74-14.82"/><polyline class="b" points="233.13 436.36 204.28 465.23 175.44 436.36 159.24 436.36 159.24 473.05 164.85 473.05 164.85 441.98 173.12 441.98 204.28 473.05 235.45 441.98 243.73 441.98 243.73 473.05 249.35 473.05 249.35 436.36 233.13 436.36"/><path class="b" d="M207.73,317.26l-3.24,5.61h11.88V423.17l-12.05,12.05c-2.35-2.37-6.91-6.93-9.27-9.28a41.75,41.75,0,0,0,12-29.19c0-.53,0-1.08,0-1.61a41.74,41.74,0,0,0-14.41-29.88V343.52l-5.62,9.74v14.59l1.86,1.57a36,36,0,0,1,2.07,52.76L187.13,426l17.19,17.2L222,425.51V317.26H207.73"/><polyline class="b" points="164.89 420.05 170.51 414.32 204.34 448.23 327.91 324.57 334.22 331.09 204.35 460.63 164.89 420.05"/></svg>