<?xml version="1.0" encoding="UTF-8"?>
<svg id="Lager_1" data-name="Lager 1" xmlns="http://www.w3.org/2000/svg" viewBox="0 0 153.09 218.69">
  <defs>
    <style>
      .cls-1 {
        fill: #fff;
      }

      .cls-1, .cls-2, .cls-3 {
        fill-rule: evenodd;
      }

      .cls-2 {
        fill: #fcbd0e;
      }

      .cls-3 {
        fill: #1d1f22;
      }
    </style>
  </defs>
  <polyline class="cls-1" points="0 218.69 153.09 218.69 153.09 0 0 0 0 218.69"/>
  <path class="cls-3" d="M140.13,124.41c3.07,0,4.72-3.4,3.23-5.98L79.68,8.2c-1.43-2.47-4.99-2.47-6.42,0L9.62,118.43c-1.49,2.58.16,5.98,3.23,5.98h127.28"/>
  <polyline class="cls-2" points="132.79 116.33 76.5 18.83 20.2 116.33 132.79 116.33"/>
  <path class="cls-3" d="M65.74,74.76l1.08-2.58-6.64,2.34,3.02,6.36,1.03-2.48c2.96,1.25,5.51,3.02,7.13,4.89.98-.85,1.85-1.85,2.75-2.82-2.03-2.31-4.9-4.26-8.37-5.71"/>
  <path class="cls-3" d="M83.63,92.43c-1.45-3.46-3.36-6.31-5.67-8.34-.97.9-2.01,1.74-2.86,2.73,1.88,1.62,3.65,4.17,4.9,7.13l-2.48,1.03,6.36,3.02,2.34-6.64-2.58,1.07"/>
  <path class="cls-3" d="M97.04,65.85c-2.23-4.1-7.35-5.6-11.45-3.37-2.69,1.47-4.26,4.19-4.39,7.04h0s0,.06,0,.09c0,.17-.01.34,0,.52h.02c.02.22.04.44.07.67l.61-.09c-.04-.3-.06-.59-.08-.89l1.97-.97.52,2,1.9-.82.31,2,.31,1.38,1.85-1.08,1.03,1.38-.31,2.31,2,.51v1.6c.05-.01.11-.03.17-.05l.26-.05h0c.64-.18,1.25-.42,1.86-.75,4.09-2.23,5.6-7.35,3.37-11.45"/>
  <path class="cls-3" d="M81.57,72.03c.12.4.28.8.46,1.2l.56-.26c-.17-.36-.31-.74-.43-1.11l-.59.18"/>
  <path class="cls-3" d="M84.35,76.22c.33.28.67.52,1.04.74l.32-.53c-.34-.21-.66-.43-.96-.69l-.39.47"/>
  <path class="cls-3" d="M86.52,77.54c.39.17.8.3,1.21.41l.15-.6c-.38-.1-.76-.23-1.12-.38l-.24.57"/>
  <path class="cls-3" d="M89.05,77.57l-.06.62c.42.05.85.06,1.27.05l-.02-.62c-.4.01-.79,0-1.19-.05"/>
  <path class="cls-3" d="M91.95,83.59l-.57-.24c-.16.4-.3.8-.41,1.21l.6.15c.1-.38.23-.76.39-1.12"/>
  <path class="cls-3" d="M93.19,81.58l-.47-.4c-.27.32-.53.67-.75,1.03l.52.32c.21-.34.44-.66.7-.96"/>
  <polyline class="cls-3" points="91.31 85.91 90.71 85.77 90.42 86.97 91.02 87.11 91.31 85.91"/>
  <polyline class="cls-3" points="90.73 88.31 90.14 88.16 89.85 89.36 90.45 89.51 90.73 88.31"/>
  <path class="cls-3" d="M118.44,106.7l-13.17-24.17c-2.03-3.73-6.69-5.1-10.42-3.07-.72.39-1.34.87-1.88,1.44l1.2,1.71-.87,1.54,1.48,1.64-1.43.87-.82,1.8,1.18,1.38-.31,1.13-2.15-.46-1.18.71.12-.49-.6-.14-.26,1.08h0l-2.28,9.5-17.41-.03c-2.31,0-4.18,1.86-4.19,4.18,0,2.31,1.87,4.19,4.17,4.19l20.73.04c2.05,0,3.66-1.56,4.13-3.51l1.87-7.77,6.69,12.27h16.38c-.02-1.2-.35-2.67-.96-3.81"/>
  <polyline class="cls-3" points="59.95 101.06 52.54 108.48 45.12 101.06 40.95 101.06 40.95 110.5 42.4 110.5 42.4 102.51 44.52 102.51 52.54 110.5 60.55 102.51 62.68 102.51 62.68 110.5 64.12 110.5 64.12 101.06 59.95 101.06"/>
  <path class="cls-3" d="M53.42,70.43l-.83,1.44h3.06v25.8c-.32.33-2.38,2.38-3.1,3.1-.6-.61-1.78-1.78-2.38-2.39,1.97-2,3.08-4.71,3.08-7.51,0-.14,0-.28,0-.41-.12-2.96-1.47-5.75-3.71-7.68v-5.59l-1.44,2.5v3.75l.48.4c1.95,1.67,3.13,4.1,3.23,6.67.1,2.56-.88,5.08-2.7,6.9l-.97.97,4.42,4.42,4.54-4.54v-27.84h-3.67"/>
  <polyline class="cls-3" points="42.4 96.87 43.85 95.39 52.55 104.11 84.33 72.31 85.95 73.99 52.55 107.3 42.4 96.87"/>
  <polyline class="cls-2" points="10.2 133.08 142.93 133.08 142.93 208.7 10.2 208.7 10.2 133.08"/>
  <path class="cls-3" d="M14.46,151.23c0,2.41,1.82,4.55,5.63,4.55s5.5-2.06,5.5-4.26c0-1.65-1.04-3.15-3.28-3.72l-3.11-.78c-.92-.24-1.04-.35-1.22-.56-.22-.24-.35-.54-.35-.87,0-.76.65-1.67,2.52-1.67.91,0,1.61.32,2,.7.35.35.59.87.61,1.41l2.61.04c-.11-1.44-.59-2.31-1.32-2.98-.74-.67-2.15-1.31-4.05-1.31-3.48,0-5.07,1.94-5.07,4.11,0,1.67.93,3.02,3.24,3.59l2.67.69c.48.11,1.18.2,1.61.76.22.3.33.63.33.87,0,.85-.65,1.81-2.78,1.81s-2.91-1.07-2.87-2.37l-2.67-.02ZM131.61,151.32l7,.02c0-2.8-1.26-5.76-4.78-5.76s-4.72,2.87-4.72,5.02c0,3.13,2.05,5.07,4.7,5.07s4.24-1.42,4.63-3.07l-2.56-.17c-.48.87-1.13,1.22-1.96,1.22-1.2,0-2.18-.81-2.32-2.33ZM131.72,149.49c.15-1.15,1.09-1.92,2.05-1.92,1.04,0,1.92.7,2.11,1.92h-4.17ZM118.76,152.19c.06,1.78,1.56,3.48,4.44,3.48s4.22-1.57,4.22-3.26c0-.59-.2-1.18-.57-1.65-.35-.44-.82-.78-1.93-1.04l-2.7-.63c-.57-.15-.8-.5-.8-.83,0-.37.33-.94,1.57-.94,1.33,0,1.92.7,1.94,1.46l2.24-.04c-.05-.94-.55-1.89-1.35-2.48-.56-.39-1.43-.72-2.8-.72-2.72,0-3.93,1.46-3.93,3.07,0,.76.22,1.3.67,1.78.33.35.74.65,1.8.87l2.04.46c1.18.26,1.33.63,1.33,1.07,0,.41-.39,1.06-1.8,1.06-1.32,0-2-.7-2.07-1.68l-2.31.02ZM114.44,155.34h2.56v-13.11h-2.54l-.02,13.11ZM105.66,151.32l7,.02c0-2.8-1.26-5.76-4.78-5.76s-4.72,2.87-4.72,5.02c0,3.13,2.06,5.07,4.7,5.07s4.24-1.42,4.63-3.07l-2.55-.17c-.48.87-1.13,1.22-1.96,1.22-1.2,0-2.18-.81-2.31-2.33ZM105.78,149.49c.15-1.15,1.09-1.92,2.05-1.92,1.04,0,1.93.7,2.11,1.92h-4.17ZM96.85,155.34h2.56v-4.18c0-1.41.35-2.06.76-2.5.48-.5,1.02-.74,1.72-.74.15,0,.3.02.43.04l.02-2.24c-.13-.02-.33-.06-.54-.06-1.11,0-2.07.7-2.35,1.69l-.09-1.43h-2.48l-.02,9.42ZM89.98,155.71c3.05,0,5.09-2.04,5.09-5.11s-2.07-5.06-5-5.06-4.98,2.04-4.98,5.06,2.11,5.11,4.89,5.11ZM90.13,153.73c-1.31,0-2.44-.94-2.44-3.13s1.15-3.07,2.44-3.07c1.2,0,2.35.85,2.35,3.15s-1.2,3.06-2.35,3.06ZM90.48,144.79h2.54v-2.56l-2.54-.02v2.57ZM87.17,144.79h2.54v-2.56l-2.52-.02-.02,2.57ZM78.8,155.34h2.56v-4.18c0-1.41.35-2.06.76-2.5.48-.5,1.02-.74,1.72-.74.15,0,.3.02.43.04l.02-2.24c-.13-.02-.33-.06-.54-.06-1.11,0-2.07.7-2.35,1.69l-.09-1.43h-2.48l-.02,9.42ZM59.89,155.34h2.5l.15-.96c.67.83,1.57,1.26,2.7,1.26,2.09,0,4.15-1.7,4.15-5.04s-2.09-5-4.13-5c-1.35,0-2.31.59-2.81,1.41v-4.78h-2.56v13.11ZM64.61,153.45c-1.05,0-2.13-.83-2.13-2.94s1.09-2.94,2.13-2.94c1.13,0,2.17.8,2.17,2.98s-1.07,2.91-2.17,2.91ZM48.64,155.34h2.5l.15-.96c.67.83,1.57,1.26,2.7,1.26,2.09,0,4.15-1.7,4.15-5.04s-2.09-5-4.13-5c-1.35,0-2.32.59-2.81,1.41v-4.78h-2.56v13.11ZM53.36,153.45c-1.06,0-2.13-.83-2.13-2.94s1.09-2.94,2.13-2.94c1.13,0,2.17.8,2.17,2.98s-1.07,2.91-2.17,2.91ZM43.93,154.27c.06.46.15.8.3,1.07h2.59c-.33-.39-.41-.67-.43-.98v-5.17c0-2.26-1.17-3.61-4.24-3.61-2.85,0-4.04,1.56-3.98,3.15l2.24.04c0-.7.52-1.37,1.82-1.37s1.67.61,1.67,1.06c0,.39-.24.74-.93.87l-1.46.24c-2.07.37-2.63.76-3.04,1.11-.55.5-.85,1.2-.85,1.96,0,1.56,1.22,2.96,3.59,2.96,1.37,0,2.18-.46,2.72-1.33ZM43.95,150.38l-.02,1.19c0,1.33-.83,2.17-2.28,2.17-1.06,0-1.57-.63-1.57-1.2,0-.44.17-.94,1.76-1.39l1.09-.3c.48-.13.81-.32,1.02-.46ZM27.44,155.34h2.55v-5.28c0-.74.15-1.09.35-1.39.33-.48.94-.8,1.55-.8.87,0,1.5.57,1.5,1.63l-.02,5.83h2.54v-6.65c0-1.76-1.3-3.11-3.24-3.11-1.35,0-2.3.72-2.63,1.46l-.09-1.11-2.5-.02-.02,9.42Z"/>
  <path class="cls-3" d="M34.45,172.29l-.02,1.19c0,1.33-.83,2.17-2.28,2.17-1.06,0-1.57-.63-1.57-1.2,0-.44.17-.94,1.76-1.39l1.09-.3c.48-.13.82-.31,1.02-.46ZM122.4,177.25h2.56v-13.11h-2.52l-.04,13.11ZM117.7,176.18c.06.46.17.8.3,1.07h2.59c-.33-.39-.41-.67-.43-.98v-5.17c0-2.26-1.17-3.61-4.24-3.61-2.85,0-4.04,1.56-3.98,3.15l2.24.04c0-.7.52-1.37,1.82-1.37s1.67.61,1.67,1.06c0,.39-.24.74-.92.87l-1.46.24c-2.07.37-2.63.76-3.04,1.11-.55.5-.85,1.2-.85,1.96,0,1.56,1.22,2.96,3.59,2.96,1.39,0,2.18-.46,2.72-1.33ZM117.72,172.29l-.02,1.19c0,1.33-.83,2.17-2.28,2.17-1.05,0-1.57-.63-1.57-1.2,0-.44.17-.94,1.76-1.39l1.09-.3c.48-.13.81-.31,1.02-.46ZM107.11,177.25h2.54v-9.42h-2.52l-.02,9.42ZM107.13,166.4h2.54v-2.26h-2.54v2.26ZM100.26,177.25h2.55v-4.19c0-1.41.35-2.06.76-2.5.48-.5,1.02-.74,1.72-.74.15,0,.3.02.43.04l.02-2.24c-.13-.02-.33-.06-.54-.06-1.11,0-2.05.7-2.35,1.69l-.09-1.43h-2.48l-.02,9.42ZM91.48,173.24l7,.02c0-2.8-1.26-5.76-4.78-5.76s-4.72,2.87-4.72,5.02c0,3.13,2.07,5.07,4.7,5.07s4.24-1.43,4.63-3.07l-2.55-.17c-.48.87-1.13,1.22-1.96,1.22-1.2,0-2.18-.81-2.32-2.33ZM91.59,171.4c.15-1.15,1.09-1.93,2.05-1.93,1.04,0,1.93.7,2.11,1.93h-4.17ZM87.67,177.25v-1.94h-.94c-.32,0-.59-.17-.72-.35-.05-.07-.13-.22-.13-.74v-4.67h1.7v-1.72h-1.7l-.02-2.98h-2.52v2.98h-1.33v1.74l1.35-.02-.02,4.87c0,2.13.89,2.83,2.28,2.83h2.05ZM77.96,176.18c.05.46.17.8.3,1.07h2.59c-.33-.39-.41-.67-.43-.98v-5.17c0-2.26-1.17-3.61-4.22-3.61-2.85,0-4.04,1.56-3.98,3.15l2.24.04c0-.7.52-1.37,1.82-1.37,1.22,0,1.65.61,1.65,1.06,0,.39-.24.74-.93.87l-1.44.24c-2.07.37-2.63.76-3.04,1.11-.55.5-.85,1.2-.85,1.96,0,1.56,1.22,2.96,3.59,2.96,1.37,0,2.17-.46,2.7-1.33ZM77.98,172.29l-.02,1.19c0,1.33-.83,2.17-2.26,2.17-1.06,0-1.57-.63-1.57-1.2,0-.44.17-.94,1.76-1.39l1.07-.3c.48-.13.81-.31,1.02-.46ZM56.11,177.25h2.55v-5.44c0-1.35.76-2.04,1.78-2.04.67,0,1.07.33,1.26.8.04.09.11.3.11,1.04v5.65h2.52v-5.59c0-1.22.76-1.93,1.76-1.93.85,0,1.43.52,1.43,1.63v5.89h2.5l-.02-6.61c-.06-1.98-1.32-3.11-3.02-3.11-1.3,0-2.33.61-2.89,1.65-.48-.98-1.54-1.65-2.78-1.65s-2.13.56-2.63,1.5l-.09-1.19-2.44-.02-.04,9.42ZM41.36,177.25h2.5l3.24-9.42h-2.59l-1.87,6.2-1.87-6.18h-2.59l3.18,9.41ZM34.43,176.18c.06.46.17.8.3,1.07h2.59c-.33-.39-.41-.67-.43-.98v-5.17c0-2.26-1.17-3.61-4.24-3.61-2.85,0-4.04,1.56-3.98,3.15l2.24.04c0-.7.52-1.37,1.82-1.37s1.67.61,1.67,1.06c0,.39-.24.74-.93.87l-1.46.24c-2.07.37-2.63.76-3.04,1.11-.56.5-.85,1.2-.85,1.96,0,1.56,1.22,2.96,3.59,2.96,1.39,0,2.18-.46,2.72-1.33Z"/>
  <path class="cls-3" d="M23.29,196.37c-1.22,0-2.26-.82-2.26-2.85,0-2.28,1.13-3.07,2.17-3.07s2.18.85,2.18,2.94c0,1.39-.59,2.96-2.09,2.98ZM125.92,194.85c.04,1.78,1.54,3.48,4.43,3.48s4.24-1.57,4.24-3.26c0-.59-.22-1.19-.59-1.65-.35-.44-.8-.78-1.91-1.04l-2.72-.63c-.55-.15-.8-.5-.8-.83,0-.37.33-.94,1.57-.94,1.35,0,1.94.7,1.94,1.46l2.24-.04c-.04-.94-.56-1.89-1.35-2.48-.55-.39-1.43-.72-2.8-.72-2.72,0-3.91,1.46-3.91,3.07,0,.76.2,1.3.65,1.78.33.35.74.65,1.8.87l2.04.46c1.2.26,1.33.63,1.33,1.07,0,.41-.39,1.05-1.78,1.05s-2.02-.7-2.09-1.68l-2.3.02ZM115.57,194.85c.04,1.78,1.54,3.48,4.42,3.48s4.24-1.57,4.24-3.26c0-.59-.22-1.19-.59-1.65-.35-.44-.8-.78-1.91-1.04l-2.72-.63c-.56-.15-.8-.5-.8-.83,0-.37.33-.94,1.57-.94,1.35,0,1.94.7,1.94,1.46l2.24-.04c-.04-.94-.55-1.89-1.35-2.48-.56-.39-1.43-.72-2.8-.72-2.72,0-3.91,1.46-3.91,3.07,0,.76.2,1.3.65,1.78.33.35.74.65,1.8.87l2.04.46c1.2.26,1.33.63,1.33,1.07,0,.41-.39,1.05-1.78,1.05s-2.02-.7-2.09-1.68l-2.3.02ZM107.01,193.98l6.98.02c0-2.8-1.26-5.76-4.78-5.76s-4.72,2.87-4.72,5.02c0,3.13,2.07,5.07,4.7,5.07s4.24-1.43,4.63-3.07l-2.54-.17c-.5.87-1.15,1.22-1.96,1.22-1.2,0-2.18-.81-2.31-2.33ZM107.11,192.14c.17-1.15,1.11-1.93,2.07-1.93,1.04,0,1.93.7,2.09,1.93h-4.17ZM98.2,197.99h2.54v-4.18c0-1.41.35-2.06.76-2.5.48-.5,1.04-.74,1.74-.74.13,0,.28.02.43.04v-2.24c-.11-.02-.32-.06-.54-.06-1.09,0-2.06.7-2.35,1.68l-.07-1.42h-2.48l-.02,9.42ZM89.48,196.9c.54.87,1.48,1.41,2.78,1.41,2.57,0,4.17-2.39,4.17-5.07s-1.55-4.96-4.15-4.96c-1.13,0-2.07.46-2.72,1.28l-.11-.96-2.5.02v12.46h2.54v-4.17ZM91.76,196.37c-1.22,0-2.26-.82-2.26-2.85,0-2.28,1.13-3.07,2.17-3.07s2.19.85,2.19,2.94c0,1.39-.59,2.96-2.09,2.98ZM85.07,197.99v-1.94h-.95c-.3,0-.59-.17-.72-.35-.05-.07-.13-.22-.13-.74v-4.67h1.72v-1.72h-1.7l-.02-2.98h-2.54v2.98h-1.32v1.74l1.33-.02v4.87c0,2.13.87,2.83,2.26,2.83h2.06ZM69.46,197.99h2.54l.02-5.28c0-.74.15-1.09.35-1.39.33-.48.93-.8,1.54-.8.87,0,1.5.57,1.5,1.63v5.83h2.52v-6.65c0-1.76-1.3-3.11-3.24-3.11-1.35,0-2.3.72-2.61,1.46l-.11-1.11-2.48-.02-.02,9.42ZM64.76,196.92c.04.46.15.8.3,1.07h2.57c-.32-.39-.41-.67-.43-.98l.02-5.17c0-2.26-1.19-3.61-4.24-3.61-2.85,0-4.04,1.56-4,3.15l2.24.04c0-.7.54-1.37,1.83-1.37s1.65.61,1.65,1.06c0,.39-.24.74-.92.87l-1.45.24c-2.09.37-2.65.76-3.04,1.11-.56.5-.87,1.2-.87,1.96,0,1.55,1.22,2.96,3.61,2.96,1.37,0,2.19-.46,2.72-1.33ZM64.76,193.03v1.18c0,1.33-.83,2.17-2.3,2.17-1.06,0-1.56-.63-1.56-1.2,0-.44.15-.94,1.74-1.39l1.09-.3c.5-.13.81-.31,1.02-.46ZM47.71,197.99h2.54v-3.09l1.05-1.05,2.59,4.15h3.11l-3.89-5.8,3.39-3.63h-3l-3.26,3.59-.02-7.28h-2.52v13.11ZM35.64,196.92c.04.37.17.78.31,1.07h2.57c-.15-.13-.39-.56-.39-1.33l-.04-4.81c-.02-.83-.07-1.07-.15-1.28-.37-1.3-1.43-2.33-3.98-2.33-2.94,0-4.09,1.5-4.09,3.15l2.22.04c.11-.63.2-.76.41-.94.24-.22.72-.44,1.46-.44,1.2,0,1.65.63,1.65,1.07s-.28.76-.98.89l-2.54.44c-1.91.33-2.8,1.57-2.8,2.81,0,1.63,1.26,3.02,3.54,3.02,1.57,0,2.42-.63,2.8-1.35ZM35.64,192.98v1.41c-.07,1.19-.87,2-2.26,2-1.06,0-1.57-.63-1.57-1.18,0-.44.22-1.02,1.74-1.39l1.09-.3c.41-.09.76-.3,1-.54ZM33.79,187.48c.65,0,1.24-.59,1.24-1.31s-.59-1.32-1.3-1.32c-.74,0-1.32.61-1.32,1.32,0,.74.56,1.31,1.37,1.31ZM33.77,186.94c-.48,0-.82-.35-.82-.78s.35-.78.78-.8c.41,0,.76.33.76.8s-.35.78-.72.78ZM21.01,196.9c.54.87,1.48,1.41,2.78,1.41,2.57,0,4.17-2.39,4.17-5.07s-1.56-4.96-4.15-4.96c-1.13,0-2.07.46-2.72,1.28l-.11-.96-2.5.02v12.46h2.54v-4.17Z"/>
</svg>