<?xml version="1.0" encoding="UTF-8"?>
<svg id="Lager_1" data-name="Lager 1" xmlns="http://www.w3.org/2000/svg" viewBox="0 0 153.09 218.69">
  <defs>
    <style>
      .cls-1 {
        fill: #fff;
      }

      .cls-1, .cls-2, .cls-3 {
        fill-rule: evenodd;
      }

      .cls-2 {
        fill: #fcbd0e;
      }

      .cls-3 {
        fill: #1d1f22;
      }
    </style>
  </defs>
  <polyline class="cls-1" points="0 218.69 153.09 218.69 153.09 0 0 0 0 218.69"/>
  <path class="cls-3" d="M140.13,124.41c3.07,0,4.72-3.4,3.23-5.98L79.68,8.21c-1.43-2.47-4.99-2.47-6.42,0L9.62,118.43c-1.49,2.58.16,5.98,3.23,5.98h127.28"/>
  <polyline class="cls-2" points="132.77 116.33 76.47 18.84 20.18 116.33 132.77 116.33"/>
  <path class="cls-3" d="M98.44,90.71l-3,6.73c-.36.79-1.28,1.15-2.08.8-.79-.36-1.15-1.28-.8-2.08l2.99-6.72c.36-.79,1.29-1.15,2.08-.8.8.35,1.15,1.29.8,2.08"/>
  <path class="cls-3" d="M95.02,89.19l-3,6.73c-.35.79-1.28,1.15-2.08.79-.79-.35-1.15-1.29-.8-2.08l3-6.72c.35-.8,1.28-1.16,2.08-.8s1.15,1.29.8,2.08"/>
  <path class="cls-3" d="M101.84,92.21l-6.03,13.56c-2.31,1.43-.05,0-2.35,1.39-.64-2.69.03.04-.53-2.67l6.04-13.56c.35-.79,1.28-1.15,2.08-.79.79.35,1.15,1.29.8,2.08"/>
  <path class="cls-3" d="M85.73,93.1l6.04-13.56c2.31-1.43.05,0,2.34-1.39.64,2.69-.04-.04.54,2.67l-6.04,13.55c-.36.79-1.28,1.15-2.08.8-.8-.35-1.16-1.28-.8-2.08"/>
  <path class="cls-3" d="M85.18,92.97c-2.25-.78-4.32,4.26-11.98.77-1.49-.68-4.15-1.37-5.69-.4l-1.6-4.06c2.54-1.59,6.02-.96,8.57.21,5.92,2.69,5.86-.85,9.62-1.1,1-.07,1.94.06,2.71.8,0,0-1.68,3.74-1.62,3.79"/>
  <path class="cls-3" d="M61.36,89.54l2.64,6.88c.31.81-.09,1.72-.91,2.03-.81.31-1.72-.09-2.03-.9l-2.64-6.87c-.31-.81.09-1.72.9-2.04.81-.31,1.72.1,2.04.91"/>
  <path class="cls-3" d="M57.87,90.88l2.64,6.87c.31.81-.09,1.72-.91,2.04-.81.31-1.72-.09-2.03-.91l-2.64-6.87c-.31-.82.09-1.72.9-2.04.81-.31,1.72.09,2.04.91"/>
  <path class="cls-3" d="M64.84,88.17l5.32,13.85c-.62,2.64-.03.04-.67,2.64-2.36-1.45.05,0-2.27-1.51l-5.32-13.85c-.31-.81.09-1.72.9-2.03.81-.31,1.72.09,2.03.9"/>
  <path class="cls-3" d="M54.09,100.19l-5.32-13.85c.62-2.64.03-.04.67-2.63,2.36,1.45-.05,0,2.27,1.51l5.32,13.85c.31.81-.09,1.72-.9,2.04-.81.31-1.72-.1-2.04-.91"/>
  <path class="cls-3" d="M112.78,94.06c-6.41-.55-5.28,2.74-8.85,3.96-.95.33-3.16.56-4.09.04,0,0,1.93-4.15,1.86-4.19,2.03.14,3.59-3.76,8.89-3.6l2.18,3.79"/>
  <path class="cls-3" d="M41.45,91.86c1.34.12,2.44.53,4.37,1.62,1.43.81,3.93,1.72,5.55.89l1.52,4.19c-2.67,1.36-6.27.43-8.71-.95-3.29-1.54-3.74-1.72-5.05-1.74l2.33-4.01"/>
  <polyline class="cls-2" points="10.2 133.08 142.93 133.08 142.93 208.7 10.2 208.7 10.2 133.08"/>
  <path class="cls-3" d="M42.62,153.62h2.68v-10.92h3.98v-2.18h-10.65v2.18h3.98v10.92ZM111.83,152.66l.11.96h2.52l-.02-13.11h-2.54v4.76c-.46-.74-1.52-1.37-2.72-1.37-2.11,0-4.18,1.76-4.18,5.06,0,1.5.48,2.74,1.22,3.61.78.94,1.74,1.37,2.87,1.37s2.07-.44,2.74-1.28ZM109.83,151.75c-1.18,0-2.24-.85-2.24-2.85,0-2.24,1.09-3.04,2.15-3.04s2.13.8,2.13,2.96-1.09,2.91-2.04,2.93ZM100.65,152.54c.05.37.18.78.33,1.07h2.57c-.15-.13-.41-.56-.41-1.33l-.02-4.81c-.04-.83-.09-1.07-.15-1.28-.37-1.3-1.43-2.33-3.98-2.33-2.94,0-4.09,1.5-4.09,3.15l2.22.04c.11-.63.2-.76.41-.94.22-.22.7-.44,1.46-.44,1.18,0,1.65.63,1.65,1.07s-.3.76-.98.89l-2.54.44c-1.91.33-2.8,1.57-2.8,2.81,0,1.63,1.26,3.02,3.54,3.02,1.55,0,2.42-.63,2.78-1.35ZM100.67,148.6l-.02,1.41c-.06,1.18-.85,2-2.24,2-1.05,0-1.57-.63-1.57-1.19,0-.44.22-1.02,1.72-1.39l1.11-.3c.41-.09.76-.3,1-.54ZM98.81,143.1c.65,0,1.24-.59,1.24-1.31s-.59-1.32-1.3-1.32c-.74,0-1.33.61-1.33,1.32,0,.74.57,1.31,1.39,1.31ZM98.78,142.56c-.46,0-.82-.35-.82-.78s.37-.78.8-.8c.41,0,.76.33.76.8s-.37.78-.74.78ZM88.45,153.62h2.54v-4.18c0-1.41.35-2.06.76-2.5.48-.5,1.04-.74,1.72-.74.15,0,.3.02.44.04v-2.24c-.13-.02-.33-.06-.54-.06-1.11,0-2.05.7-2.35,1.69l-.07-1.43h-2.5v9.42ZM86.58,153.62v-1.94h-.94c-.3,0-.59-.17-.72-.35-.05-.07-.13-.22-.13-.74v-4.67h1.72v-1.72h-1.72l-.02-2.98h-2.52v2.98h-1.31v1.74l1.33-.02v4.87c0,2.13.87,2.83,2.26,2.83h2.05ZM70.26,154.14c.11.89.39,1.39.91,1.89.57.56,1.65,1.07,3.46,1.07,2.04,0,3.33-.76,3.96-1.57.42-.57.67-1.09.67-2.5v-8.83h-2.42l-.09,1.15c-.17-.3-.67-1.48-2.76-1.48-2.28,0-4.26,1.82-4.26,4.72s1.98,4.74,4.24,4.74c1.5,0,2.42-.68,2.78-1.41v1.02c0,1.59-.72,2.26-2.17,2.26-1.11,0-1.63-.56-1.7-1.15l-2.61.09ZM74.56,151.14c-1.24,0-2.26-.89-2.26-2.63,0-1.52,1.04-2.48,2.2-2.48s2.2.96,2.2,2.56-1.05,2.56-2.15,2.56ZM58.93,154.14c.11.89.39,1.39.91,1.89.57.56,1.65,1.07,3.46,1.07,2.05,0,3.35-.76,3.98-1.57.43-.57.67-1.09.67-2.5v-8.83h-2.43l-.09,1.15c-.17-.3-.68-1.48-2.78-1.48-2.28,0-4.26,1.82-4.26,4.72s1.98,4.74,4.24,4.74c1.5,0,2.43-.68,2.8-1.41v1.02c0,1.59-.74,2.26-2.18,2.26-1.11,0-1.63-.56-1.7-1.15l-2.61.09ZM63.23,151.14c-1.24,0-2.26-.89-2.26-2.63,0-1.52,1.04-2.48,2.2-2.48s2.22.96,2.22,2.56-1.07,2.56-2.17,2.56ZM54.04,152.54c.05.46.17.8.31,1.07h2.57c-.32-.39-.41-.67-.43-.98l.02-5.17c0-2.26-1.18-3.61-4.26-3.61-2.85,0-4.04,1.56-3.98,3.15l2.24.04c0-.7.54-1.37,1.83-1.37,1.22,0,1.65.61,1.65,1.06,0,.39-.24.74-.93.87l-1.44.24c-2.09.37-2.65.76-3.04,1.11-.57.5-.87,1.2-.87,1.96,0,1.56,1.22,2.96,3.59,2.96,1.39,0,2.19-.46,2.72-1.33ZM54.06,148.66l-.02,1.19c0,1.33-.82,2.17-2.28,2.17-1.05,0-1.55-.63-1.55-1.2,0-.44.15-.94,1.74-1.39l1.09-.3c.5-.13.82-.32,1.02-.46Z"/>
</svg>