<svg xmlns="http://www.w3.org/2000/svg" viewBox="0 0 595.28 850.36"><defs><style>.a{fill:#fcc00d;}.a,.b{fill-rule:evenodd;}.b{fill:#000100;}</style></defs><title>W033_C</title><polyline class="a" points="0 850.36 595.28 850.36 595.28 0 0 0 0 850.36"/><path class="b" d="M165.72,643.92h10.44V601.45h15.48V593h-41.4v8.5h15.48v42.48Zm269.13-3.74,0.43,3.74h9.79L445,593h-9.87v18.5c-1.8-2.88-5.9-5.33-10.58-5.33-8.21,0-16.27,6.84-16.27,19.66a21.41,21.41,0,0,0,4.75,14,13.79,13.79,0,0,0,11.16,5.33A13.05,13.05,0,0,0,434.85,640.18Zm-7.77-3.53c-4.61,0-8.71-3.31-8.71-11.09,0-8.71,4.25-11.81,8.35-11.81s8.28,3.1,8.28,11.52C435,633.34,430.74,636.58,427.07,636.65Zm-35.71,3.1a14.86,14.86,0,0,0,1.29,4.18h10c-0.58-.51-1.58-2.16-1.58-5.18L401,620a20.69,20.69,0,0,0-.58-5C399,610,394.89,606,385,606c-11.45,0-15.91,5.83-15.91,12.24l8.64,0.14c0.43-2.45.79-3,1.58-3.67S382,613,385,613c4.61,0,6.41,2.45,6.41,4.18s-1.15,3-3.81,3.46l-9.86,1.73c-7.42,1.29-10.87,6.12-10.87,10.95,0,6.33,4.9,11.74,13.75,11.74C386.61,645,390,642.56,391.36,639.75Zm0.07-15.34-0.07,5.47c-0.22,4.61-3.31,7.78-8.71,7.78-4.1,0-6.12-2.45-6.12-4.61,0-1.73.86-4,6.7-5.4l4.32-1.15A8.06,8.06,0,0,0,391.43,624.41ZM384.23,603a5.12,5.12,0,0,0-.22-10.22,5.19,5.19,0,0,0-5.18,5.11A5.12,5.12,0,0,0,384.23,603Zm-0.14-2.09a3.08,3.08,0,0,1-3.17-3,3.22,3.22,0,0,1,3.1-3.1A3.06,3.06,0,0,1,384.09,600.94Zm-40.18,43h9.86V627.65c0-5.47,1.36-8,3-9.72a8.83,8.83,0,0,1,6.7-2.88,14.36,14.36,0,0,1,1.73.14v-8.71a14,14,0,0,0-2.09-.22,9.45,9.45,0,0,0-9.14,6.55l-0.29-5.54h-9.72v36.65Zm-7.27,0v-7.56H333a3.66,3.66,0,0,1-2.81-1.37c-0.21-.29-0.5-0.86-0.5-2.88V614h6.7v-6.7h-6.7l-0.07-11.59h-9.79v11.59h-5.11V614l5.18-.07v18.94c0,8.28,3.38,11,8.78,11h8Zm-63.43,2a11,11,0,0,0,3.53,7.35c2.23,2.16,6.41,4.18,13.46,4.18,7.92,0,13-3,15.41-6.12,1.65-2.23,2.59-4.25,2.59-9.72V607.28h-9.43l-0.36,4.46c-0.65-1.15-2.59-5.76-10.73-5.76-8.85,0-16.56,7.06-16.56,18.36s7.7,18.43,16.49,18.43c5.83,0,9.43-2.66,10.8-5.47v4c0,6.19-2.81,8.78-8.42,8.78-4.32,0-6.34-2.16-6.63-4.46Zm16.7-11.66c-4.82,0-8.78-3.46-8.78-10.22,0-5.91,4-9.65,8.57-9.65s8.57,3.74,8.57,9.94S294.17,634.28,289.92,634.28Zm-60.76,11.66a11,11,0,0,0,3.53,7.35c2.23,2.16,6.41,4.18,13.47,4.18,8,0,13-3,15.48-6.12,1.66-2.23,2.59-4.25,2.59-9.72V607.28h-9.43l-0.36,4.46c-0.65-1.15-2.66-5.76-10.8-5.76-8.86,0-16.56,7.06-16.56,18.36s7.7,18.43,16.49,18.43c5.83,0,9.43-2.66,10.87-5.47v4c0,6.19-2.88,8.78-8.5,8.78-4.32,0-6.33-2.16-6.62-4.46Zm16.7-11.66c-4.83,0-8.78-3.46-8.78-10.22,0-5.91,4-9.65,8.57-9.65s8.64,3.74,8.64,9.94S250.1,634.28,245.86,634.28Zm-35.71,5.47a11.48,11.48,0,0,0,1.22,4.18h10a6.21,6.21,0,0,1-1.66-3.81L219.79,620c0-8.78-4.61-14-16.56-14-11.09,0-15.69,6-15.48,12.24l8.71,0.14c0-2.74,2.09-5.33,7.13-5.33,4.75,0,6.41,2.38,6.41,4.1,0,1.51-.94,2.88-3.6,3.38l-5.62.94c-8.14,1.44-10.3,3-11.81,4.32a9.94,9.94,0,0,0-3.38,7.63c0,6,4.75,11.52,14,11.52C205,644.93,208.06,643.13,210.14,639.75Zm0.07-15.12-0.07,4.61c0,5.18-3.17,8.42-8.86,8.42-4.1,0-6-2.45-6-4.68,0-1.73.58-3.67,6.77-5.4l4.25-1.15A11.38,11.38,0,0,0,210.21,624.63Z"/><path class="b" d="M544.89,527.16c11.94,0,18.36-13.24,12.57-23.26L309.82,75.3a14.41,14.41,0,0,0-25,0L37.4,503.9c-5.78,10,.63,23.26,12.58,23.26H544.89Zm-28.63-31.44L297.37,116.63,78.49,495.72H516.25Z"/><path class="b" d="M382.77,396.12l-11.65,26.15a6.13,6.13,0,0,1-11.19-5l11.63-26.15a6.14,6.14,0,0,1,11.22,5"/><path class="b" d="M369.48,390.19l-11.65,26.17a6.13,6.13,0,0,1-11.19-5l11.65-26.14a6.12,6.12,0,0,1,11.19,5"/><path class="b" d="M396,401.93l-23.46,52.71c-9,5.56-.21,0-9.12,5.4-2.48-10.46.12,0.16-2.08-10.39l23.47-52.72a6.12,6.12,0,0,1,11.18,5"/><path class="b" d="M333.37,405.38l23.47-52.72c9-5.55.21,0,9.11-5.4,2.49,10.48-.14-0.15,2.08,10.4l-23.47,52.71a6.13,6.13,0,0,1-11.19-5"/><path class="b" d="M331.23,404.89c-8.75-3-16.81,16.55-46.59,3-5.81-2.64-16.14-5.32-22.12-1.57l-6.23-15.78c9.88-6.18,23.42-3.71,33.32.81,23,10.48,22.78-3.31,37.4-4.29,3.88-.28,7.53.23,10.53,3.12,0,0-6.53,14.52-6.31,14.73"/><path class="b" d="M238.61,391.56l10.26,26.74a6.12,6.12,0,0,1-11.43,4.37L227.18,396a6.12,6.12,0,1,1,11.43-4.4"/><path class="b" d="M225,396.77L235.3,423.5a6.12,6.12,0,1,1-11.43,4.38l-10.26-26.72A6.12,6.12,0,1,1,225,396.77"/><path class="b" d="M252.14,386.24l20.67,53.87c-2.4,10.26-.12.14-2.61,10.26-9.17-5.64.21,0-8.82-5.88l-20.67-53.85a6.12,6.12,0,0,1,11.43-4.4"/><path class="b" d="M210.32,433L189.65,379.1c2.41-10.27.13-.15,2.62-10.25,9.18,5.63-.21,0,8.81,5.87l20.67,53.86A6.12,6.12,0,1,1,210.32,433"/><path class="b" d="M438.53,409.13c-24.92-2.15-20.53,10.67-34.4,15.4-3.67,1.27-12.29,2.19-15.92.15,0,0,7.5-16.14,7.24-16.29,7.9,0.55,13.94-14.61,34.58-14l8.49,14.73"/><path class="b" d="M161.16,400.58c5.22,0.45,9.49,2.07,17,6.31,5.56,3.15,15.27,6.68,21.56,3.46l5.9,16.28c-10.37,5.29-24.38,1.67-33.86-3.69-12.81-6-14.54-6.68-19.64-6.77l9.06-15.59"/></svg>