<svg xmlns="http://www.w3.org/2000/svg" viewBox="0 0 595.28 850.36"><defs><style>.a{fill:#fcc00d;}.a,.b{fill-rule:evenodd;}.b{fill:#000100;}</style></defs><title>W034_C</title><polyline class="a" points="0 850.36 595.28 850.36 595.28 0 0 0 0 850.36"/><path class="b" d="M249,643.92h10.51V601.45h15.41V593h-41.4v8.5H249v42.48Zm91.29,0h9.87l0.07-16.27c0-5.47,1.29-8,3-9.72a8.62,8.62,0,0,1,6.7-2.88,13.23,13.23,0,0,1,1.66.14l0.07-8.71a14.16,14.16,0,0,0-2.09-.22,9.54,9.54,0,0,0-9.22,6.55L350,607.28h-9.65Zm-17.42-4.1,0.51,4.1h9.29V607.35l-9.79-.07v20.52c0,5.62-3.31,8.5-7.27,8.5-3.67,0-6-1.94-6-7.13V607.28h-9.86v25.2c0,4.82,1.44,7.42,3.67,9.5a13.11,13.11,0,0,0,9.14,3.17A11.86,11.86,0,0,0,322.89,639.82Zm-46.58,8.06-0.07,8,6.84-.07c6.26,0,9.29-3,9.29-9.65l-0.07-38.88H282.5l-0.07,34.63c0,5.19-1.51,6-3.89,6h-2.23Zm6.12-46.15h9.93L292.29,593h-9.86v8.78Z"/><path class="b" d="M544.89,527.16c11.94,0,18.36-13.24,12.57-23.26L309.82,75.3a14.41,14.41,0,0,0-25,0L37.4,503.9c-5.78,10,.63,23.26,12.58,23.26H544.89Zm-28.64-31.44L297.36,116.63,78.49,495.72H516.25Z"/><path class="b" d="M363.73,434.84a11.06,11.06,0,0,0,2.26-2.5,8.74,8.74,0,0,0,1.24-4.8c0-4.38-2.14-9.69-4.08-14.55a51.4,51.4,0,0,1-2.83-8.22,71.7,71.7,0,0,1-1.21-13.21c0-9.47,1.67-19.23,4.15-30.17a79.55,79.55,0,0,0,2.1-17.41c0-10.3-2.69-21.22-11.74-28.09,8-4,12.32-1.89,16.48,1.33s11.49,8.53,15.07,8.54a3,3,0,0,0,3.31-2.7c0.81-6.3-14.77-26.46-20.22-27.83l-6.49-1.73c-11.11-3.06-23.59-6.4-33.51-2.41C321.68,281,321,280.4,313.46,277l-0.38-.17-4.79-2.29c-5.4-2.64-8.72-4.26-19.29-4.9-8.1-7.66-16.66-12.64-25.71-17.89l-13.2-8-0.76,1.3-131.6,228H243.44l-2.86-13-1.93-9.32c-2.08-8.62-2.37-13.93,1.39-22.67,3.06-7.18,8.1-6.42,15.7-5.29l1.71,0.26,1.95,0.25c8.45,1.22,9.76,1.39,16.09,7.1,6.94,6.26,12.65,9.05,22.94,6,7.67-2.25,11.34-3.09,18.2.28l2.9,1.46c5.79,2.93,10.37,5.26,18,4.72,0.93-.07,2.08-0.19,3.41-0.36,0.71,6.84,5.71,12.19,11.79,12.24,6.63,0.06,12.07-6.14,12.14-13.82A15.72,15.72,0,0,0,363.73,434.84ZM303.8,347.9c4.69-2.48,22.41-1.52,15.37,6.75-3.66,4.32-15.28,1-15.51-4.59ZM267.07,314c-13.7,4.25-27,10.76-29,26.63-1.24,9.62,2.82,25.85,10.92,31.5,2.14-5.89,1.66-11.14,2.77-17.28,1.87-10.37,12.12-13.76,21.41-16.45,12.53-3.64,14.39-7.33,5.16-17.33-2.8-3-7.4-8.41-10.55-7.09Zm85.73,136c-4,0-7.21-4.17-7.17-9.21s3.35-9.13,7.34-9.1a6.38,6.38,0,0,1,4.47,2,10,10,0,0,1,2.69,7.18C360.11,446,356.81,450,352.81,450Z"/></svg>