<?xml version="1.0" encoding="UTF-8"?>
<svg id="Lager_1" data-name="Lager 1" xmlns="http://www.w3.org/2000/svg" viewBox="0 0 153.09 218.69">
  <defs>
    <style>
      .cls-1 {
        fill: #fff;
      }

      .cls-1, .cls-2, .cls-3 {
        fill-rule: evenodd;
      }

      .cls-2 {
        fill: #fcbd0e;
      }

      .cls-3 {
        fill: #1d1f22;
      }
    </style>
  </defs>
  <polyline class="cls-1" points="0 218.69 153.09 218.69 153.09 0 0 0 0 218.69"/>
  <path class="cls-3" d="M140.13,124.41c3.07,0,4.72-3.4,3.23-5.98L79.68,8.21c-1.43-2.47-4.99-2.47-6.42,0L9.62,118.43c-1.49,2.58.16,5.98,3.23,5.98h127.28"/>
  <polyline class="cls-2" points="132.76 116.33 76.47 18.84 20.18 116.33 132.76 116.33"/>
  <path class="cls-3" d="M93.54,100.67c.24-.2.43-.41.58-.64.23-.35.32-.77.32-1.23,0-1.13-.55-2.49-1.05-3.74-.32-.8-.62-1.55-.73-2.11-.21-1.13-.31-2.26-.31-3.4,0-2.44.43-4.95,1.07-7.76.28-1.23.54-2.82.54-4.48,0-2.65-.69-5.46-3.02-7.22,2.07-1.03,3.17-.49,4.24.34,1.05.82,2.96,2.19,3.88,2.2.47.01.79-.25.85-.69.21-1.62-3.8-6.81-5.2-7.16l-1.67-.45c-2.86-.79-6.07-1.64-8.62-.62-1.69-2.61-1.86-2.75-3.8-3.62l-.1-.04-1.23-.59c-1.39-.68-2.24-1.1-4.96-1.26-2.08-1.97-4.28-3.25-6.61-4.6l-3.39-2.05-.2.33-33.84,58.64h32.33l-.73-3.34-.5-2.4c-.53-2.22-.61-3.58.36-5.83.79-1.85,2.08-1.65,4.04-1.36l.44.07.5.06c2.17.31,2.51.36,4.14,1.83,1.78,1.61,3.25,2.33,5.9,1.55,1.97-.58,2.92-.8,4.68.07l.74.38c1.49.75,2.67,1.35,4.64,1.21.24-.02.53-.05.88-.09.18,1.76,1.47,3.14,3.03,3.15,1.7.01,3.1-1.58,3.12-3.55,0-.55-.1-1.09-.3-1.58ZM78.13,78.31c1.21-.64,5.76-.39,3.95,1.74-.94,1.11-3.93.26-3.99-1.18l.04-.55ZM68.68,69.6c-3.52,1.09-6.93,2.77-7.46,6.85-.32,2.47.73,6.65,2.81,8.1.55-1.51.43-2.86.71-4.44.48-2.67,3.12-3.54,5.51-4.23,3.22-.93,3.7-1.88,1.33-4.46-.72-.78-1.9-2.16-2.71-1.82h-.18ZM90.73,104.57c-1.03,0-1.85-1.07-1.84-2.37.01-1.3.86-2.35,1.89-2.34.53,0,.92.29,1.15.52.45.45.7,1.13.69,1.85,0,1.3-.86,2.35-1.89,2.34Z"/>
  <polyline class="cls-2" points="10.2 133.08 142.93 133.08 142.93 208.7 10.2 208.7 10.2 133.08"/>
  <path class="cls-3" d="M64.04,153.8h2.7v-10.92h3.96v-2.18h-10.65v2.18h3.98v10.92ZM87.52,153.8h2.54l.02-4.18c0-1.41.33-2.06.76-2.5.46-.5,1.02-.74,1.72-.74.15,0,.28.02.43.04l.02-2.24c-.13-.02-.33-.06-.54-.06-1.11,0-2.07.7-2.37,1.68l-.07-1.43h-2.48l-.02,9.42ZM83.04,152.75l.13,1.06h2.39v-9.41l-2.52-.02v5.28c0,1.44-.85,2.19-1.87,2.19-.94,0-1.54-.5-1.54-1.83v-5.63h-2.54v6.48c0,1.24.37,1.91.94,2.44.54.5,1.33.82,2.35.82,1.15,0,2.07-.5,2.65-1.37ZM71.06,154.82l-.02,2.06,1.76-.02c1.61,0,2.39-.78,2.39-2.48l-.02-10h-2.52l-.02,8.91c0,1.33-.39,1.54-1,1.54h-.57ZM72.63,142.95h2.55l-.02-2.26h-2.54v2.26Z"/>
</svg>