<svg xmlns="http://www.w3.org/2000/svg" viewBox="0 0 595.28 850.36"><defs><style>.a{fill:#fcc00d;}.a,.b{fill-rule:evenodd;}.b{fill:#000100;}</style></defs><title>W035_C</title><polyline class="a" points="0 850.36 595.28 850.36 595.28 0 0 0 0 850.36"/><path class="b" d="M159.1,643.92h10.51V622.18h22.25v-8.35H169.61V601.45h26.21V593H159.1v51ZM408.86,628.3l27.22,0.07c0-10.87-4.9-22.39-18.58-22.39-14,0-18.36,11.16-18.36,19.51,0,12.17,8.06,19.73,18.29,19.73s16.49-5.54,18-11.95l-9.94-.65c-1.87,3.38-4.39,4.75-7.56,4.75C413.25,637.37,409.43,634.2,408.86,628.3Zm0.43-7.13a8.44,8.44,0,0,1,8.06-7.49c4,0,7.42,2.74,8.13,7.49h-16.2Zm-27.29,19,0.43,3.74h9.79l-0.07-51h-9.86v18.5c-1.8-2.88-5.91-5.33-10.58-5.33-8.21,0-16.27,6.84-16.27,19.66,0,5.83,1.8,10.65,4.75,14a13.79,13.79,0,0,0,11.16,5.33A13.07,13.07,0,0,0,382,640.18Zm-7.78-3.53c-4.61,0-8.71-3.31-8.71-11.09,0-8.71,4.25-11.81,8.35-11.81s8.28,3.1,8.28,11.52C382.15,633.34,377.9,636.58,374.22,636.65Zm-58.53,7.27h9.86V623.4c0-2.88.58-4.25,1.44-5.4a7.41,7.41,0,0,1,6-3.1c3.39,0,5.83,2.23,5.83,6.33v22.68h9.79V618.08c0-6.84-5-12.1-12.6-12.1-5.26,0-8.93,2.81-10.15,5.69l-0.43-4.32-9.65-.07Zm-18.29-4.18a11.56,11.56,0,0,0,1.15,4.18h10a6.2,6.2,0,0,1-1.65-3.81L307,620c0-8.78-4.61-14-16.49-14-11.09,0-15.69,6-15.48,12.24l8.71,0.14c0-2.74,2.08-5.33,7.05-5.33s6.48,2.38,6.48,4.1c0,1.51-.93,2.88-3.6,3.38l-5.62.94c-8.13,1.44-10.29,3-11.81,4.32a9.94,9.94,0,0,0-3.38,7.63c0,6,4.75,11.52,14,11.52C292.22,644.93,295.32,643.13,297.4,639.75Zm0.07-15.12-0.07,4.61c0,5.18-3.24,8.42-8.86,8.42-4.1,0-6-2.45-6-4.68,0-1.73.58-3.67,6.77-5.4l4.25-1.15A12.14,12.14,0,0,0,297.47,624.63Zm-41.18,19.29h9.86V593h-9.79Zm-17.49,0h9.86V593h-9.79Zm-18.36-4.18a11.55,11.55,0,0,0,1.23,4.18h10a6.19,6.19,0,0,1-1.66-3.81L230.08,620c0-8.78-4.61-14-16.56-14-11.09,0-15.7,6-15.48,12.24l8.71,0.14c0-2.74,2.09-5.33,7.06-5.33s6.48,2.38,6.48,4.1c0,1.51-.94,2.88-3.6,3.38l-5.61.94c-8.13,1.44-10.3,3-11.81,4.32a10,10,0,0,0-3.39,7.63c0,6,4.75,11.52,14,11.52C215.25,644.93,218.35,643.13,220.44,639.75Zm0.07-15.12-0.07,4.61c0,5.18-3.24,8.42-8.85,8.42-4.11,0-6.05-2.45-6.05-4.68,0-1.73.58-3.67,6.77-5.4l4.25-1.15A12.12,12.12,0,0,0,220.51,624.63Z"/><path class="b" d="M209.77,724.67c-4.68,0-9.22-3.6-9.22-11.74,0-8.78,4.39-12.24,9.22-12.24s9.22,3.53,9.22,11.88C219,721.14,214.6,724.67,209.77,724.67Zm195,6.33v-7.56h-3.67a3.55,3.55,0,0,1-2.81-1.37c-0.21-.29-0.5-0.86-0.5-2.88V701.05h6.62v-6.7h-6.62l-0.07-11.59H387.9v11.59h-5.18v6.77l5.26-.07L387.9,720c0,8.28,3.46,11,8.86,11h8Zm-60.55,0h9.86V719l4.1-4.11L368.24,731h12.1l-15.12-22.53,13.17-14.12H366.73l-12.67,14L354,680h-9.86ZM310,715.38l27.22,0.07c0-10.87-4.9-22.39-18.58-22.39-14,0-18.36,11.16-18.36,19.51,0,12.17,8.07,19.73,18.29,19.73s16.49-5.54,18-11.95l-9.93-.65c-1.87,3.38-4.39,4.75-7.63,4.75C314.32,724.45,310.5,721.28,310,715.38Zm0.43-7.13a8.38,8.38,0,0,1,8-7.49c4,0,7.49,2.74,8.21,7.49h-16.2ZM277.31,735l-0.07,8,6.84-.07c6.26,0,9.29-3,9.29-9.65V694.36H283.5V729c0,5.18-1.58,6-4,6h-2.23Zm6.19-46.15h9.86V680H283.5v8.78ZM236,731h9.72l0.58-3.74a12.81,12.81,0,0,0,10.51,4.9c8.13,0,16.13-6.62,16.13-19.58,0-12.6-8.06-19.44-16.06-19.44-5.25,0-9,2.3-10.94,5.47V680H236v51Zm18.36-7.35c-4.1,0-8.28-3.24-8.28-11.45s4.25-11.45,8.28-11.45c4.39,0,8.43,3.1,8.43,11.59C262.77,720.42,258.59,723.66,254.34,723.66Zm-44.49,8.71c11.09,0,19.22-7.85,19.22-19.8,0-11.59-8-19.58-19.36-19.58-11.09,0-19.22,7.92-19.22,19.51C190.48,724.6,198.69,732.37,209.85,732.37Z"/><path class="b" d="M544.89,527.16c11.94,0,18.36-13.24,12.57-23.26L309.82,75.3a14.41,14.41,0,0,0-25,0L37.4,503.9c-5.78,10,.63,23.26,12.58,23.26H544.89Zm-28.63-31.44L297.36,116.63,78.49,495.72H516.25Z"/><path class="b" d="M342.14,360l23.14,44.2a10.06,10.06,0,0,1-5,13.92l-47,19.63,10.54,35.35H276l-5.73-19.23-12.41,19.23H233.93L258,435.77a10.1,10.1,0,0,1,5.59-4.2l43.43-13,35.43-14.8-18.07-34.49c-6.2-11.83,11.54-21.2,17.76-9.33"/><path class="b" d="M298.19,400.32c0.26-11.07-8.83-19.89-19.8-20-11.16-.14-20.71,8.69-20.33,20,0.43,13.14,10.57,20.22,20.61,20,10.88-.21,19.27-9.26,19.52-20"/><path class="b" d="M237.91,271.88v54.21a1.88,1.88,0,0,1-3.76,0V271.88a1.88,1.88,0,0,1,3.76,0"/><path class="b" d="M272.39,215.7V285c0,3.75-5.62,3.75-5.62,0V215.7c0-3.75,5.62-3.75,5.62,0"/><path class="b" d="M303.43,232.34V275.1a1.88,1.88,0,1,1-3.77,0V232.34a1.88,1.88,0,1,1,3.77,0"/><path class="b" d="M339.73,235.92v65.79c0,3.77-5.65,3.77-5.65,0V235.92c0-3.77,5.65-3.77,5.65,0"/><polyline class="b" points="313.54 280.44 252.8 300.97 258.73 321.54 264.73 324.42 325.45 303.45 320.25 282.6 313.54 280.44"/><path class="b" d="M251.75,344.42c-0.28,3.24-.3,7.12-1.87,10s-5,4.09-8.22,4.09a4.88,4.88,0,0,0-.93,0,25.27,25.27,0,0,1-2.47,1.13c-6.62,2.48-14.07-3-16.79-8.61-0.93-1.93-.32-4.08.47-6l0.54-1.29a0.73,0.73,0,0,0,.27-0.54,3.28,3.28,0,0,1-.23-0.9,5.5,5.5,0,0,1,1.71-5.26A8.45,8.45,0,0,1,226,336c4.82-2.32,11.87-2.19,17.07-2,2.44,0.06,7.13.07,7.32,0.42l1.84,3.41a65.12,65.12,0,0,1-.47,6.67"/><polyline class="b" points="359.98 307.84 356.26 311.61 361.45 316.71 365.17 313 359.98 307.84"/><polyline class="b" points="358.5 307.07 354.62 310.95 349.77 310.95 353.65 307.13 358.5 307.07"/><path class="b" d="M312.93,332.56h-5.78l0.09,5.78,6.43,6.38h5.47l0-6Zm-3.07,2.59a1.1,1.1,0,0,1,.36-0.19c2.11-.66,7,4.28,6.35,6.4a0.69,0.69,0,0,1-.19.34c-2.59,1.52-7.36-2.84-6.8-6A0.89,0.89,0,0,1,309.86,335.15Z"/><path class="b" d="M331.82,339.66c-0.44-.48-2.13-2.63-1.5-3.36l0.18-.11v-1.63h1.7v-1.47h1.63V331.5h1.48v-1.64h1.47V328.4h1.59v-1.63h1.74v-1.63h1.63v-1.48h1.57v-1.58h1.75v-1.61h1.5v-1.59H348l0.11,0,0-5.78h5.72l6.21,6.3v5.91h-5.42l-0.15,0v1.62H353v1.64h-1.74v1.58h-1.59v1.47H348v1.62h-1.73v1.64h-1.6v1.47h-1.48v1.58h-1.46v1.62h-1.63V341H340l-2,.39,0,0v0l0.38,1.07v0.08h-1.71l-0.12.08c-1.21.84-3.45-1.65-4.73-3.07"/><polyline class="b" points="324.1 332.64 320.34 336.37 315.22 331.17 318.94 327.44 324.1 332.64"/><polyline class="b" points="317.39 326.77 313.51 330.68 308.67 330.68 312.54 326.77 317.39 326.77"/><polyline class="b" points="321.23 342.92 321.19 337.93 325.02 334.08 325.07 339.08 321.23 342.92"/><polyline class="b" points="365.85 314.65 365.85 319.76 362.23 323.41 362.23 318.29 365.85 314.65"/></svg>