<?xml version="1.0" encoding="UTF-8"?>
<svg id="Lager_1" data-name="Lager 1" xmlns="http://www.w3.org/2000/svg" viewBox="0 0 153.09 218.69">
  <defs>
    <style>
      .cls-1 {
        fill: #fff;
      }

      .cls-1, .cls-2, .cls-3 {
        fill-rule: evenodd;
      }

      .cls-2 {
        fill: #fcbd0e;
      }

      .cls-3 {
        fill: #1d1f22;
      }
    </style>
  </defs>
  <polyline class="cls-1" points="0 218.69 153.09 218.69 153.09 0 0 0 0 218.69"/>
  <path class="cls-3" d="M140.13,124.41c3.07,0,4.72-3.4,3.23-5.98L79.68,8.21c-1.43-2.47-4.99-2.47-6.42,0L9.62,118.43c-1.49,2.58.16,5.98,3.23,5.98h127.28"/>
  <polyline class="cls-2" points="132.77 116.33 76.47 18.84 20.18 116.33 132.77 116.33"/>
  <path class="cls-3" d="M87.99,81.42l5.95,11.37c.71,1.32.09,3-1.29,3.58l-12.08,5.05,2.71,9.09h-12.31l-1.47-4.95-3.19,4.95h-6.14l6.19-9.6c.34-.52.84-.9,1.44-1.08l11.17-3.33,9.11-3.81-4.65-8.87c-1.59-3.04,2.97-5.45,4.57-2.4"/>
  <path class="cls-3" d="M76.69,91.79c.07-2.85-2.27-5.11-5.09-5.15-2.87-.03-5.32,2.23-5.23,5.15.11,3.38,2.72,5.2,5.3,5.15,2.8-.06,4.95-2.38,5.02-5.15"/>
  <path class="cls-3" d="M61.18,58.76v13.94c0,.65-.97.65-.97,0v-13.94c0-.65.97-.65.97,0"/>
  <path class="cls-3" d="M70.05,44.31v17.81c0,.96-1.45.96-1.45,0v-17.81c0-.96,1.45-.96,1.45,0"/>
  <path class="cls-3" d="M78.03,48.59v11c0,.65-.97.65-.97,0v-11c0-.65.97-.65.97,0"/>
  <path class="cls-3" d="M87.37,49.52v16.92c0,.97-1.45.97-1.45,0v-16.92c0-.97,1.45-.97,1.45,0"/>
  <polyline class="cls-3" points="80.63 60.96 65.01 66.24 66.54 71.53 68.08 72.27 83.7 66.88 82.36 61.52 80.63 60.96"/>
  <path class="cls-3" d="M64.74,77.42c-.07.83-.08,1.83-.48,2.58-.41.76-1.28,1.05-2.11,1.05-.08,0-.22,0-.24.01-.21.11-.42.21-.64.29-1.7.64-3.62-.76-4.32-2.21-.24-.49-.08-1.05.12-1.53l.14-.33s.09-.08.07-.14c-.03-.07-.05-.15-.06-.23-.07-.52.03-1,.44-1.35.14-.12.29-.23.46-.31,1.24-.6,3.05-.56,4.39-.53.63.02,1.83.02,1.88.11l.47.88c.04.08-.07,1.14-.12,1.71"/>
  <polyline class="cls-3" points="92.58 68.01 91.62 68.98 92.96 70.29 93.91 69.34 92.58 68.01"/>
  <polyline class="cls-3" points="92.19 67.81 91.2 68.81 89.95 68.81 90.95 67.83 92.19 67.81"/>
  <path class="cls-3" d="M80.48,74.37h-1.49l.02,1.49,1.65,1.64h1.41v-1.54s-1.6-1.58-1.6-1.58ZM79.69,75.03s.06-.04.09-.05c.54-.17,1.81,1.1,1.63,1.65-.01.03-.03.07-.05.09-.67.39-1.89-.73-1.75-1.54.01-.05.03-.11.07-.15Z"/>
  <path class="cls-3" d="M85.33,76.19c-.11-.12-.55-.68-.39-.87l.05-.03v-.42h.44v-.38h.42v-.41h.38v-.42h.38v-.38h.41v-.42h.45v-.42h.42v-.38h.41v-.41h.45v-.42h.39v-.41h.4s0-1.5,0-1.5h1.47l1.6,1.62v1.52h-1.43v.43h-.38v.42h-.45v.41h-.41v.38h-.42v.42h-.45v.42h-.41v.38h-.38v.41h-.38v.42h-.42v.38h-.02l-.52.1h0v.02l.1.28v.02h-.44l-.03.02c-.31.22-.89-.42-1.22-.79"/>
  <polyline class="cls-3" points="83.35 74.39 82.38 75.35 81.06 74.01 82.02 73.05 83.35 74.39"/>
  <polyline class="cls-3" points="81.62 72.88 80.63 73.88 79.38 73.88 80.38 72.88 81.62 72.88"/>
  <polyline class="cls-3" points="82.61 77.03 82.6 75.75 83.59 74.76 83.6 76.04 82.61 77.03"/>
  <polyline class="cls-3" points="94.08 69.76 94.08 71.08 93.16 72.01 93.16 70.7 94.08 69.76"/>
  <polyline class="cls-2" points="10.2 133.08 142.93 133.08 142.93 208.7 10.2 208.7 10.2 133.08"/>
  <path class="cls-3" d="M40.91,155.19h2.7v-5.59h5.72v-2.15h-5.72v-3.18h6.74v-2.18h-9.44v13.11ZM105.15,151.17l7,.02c0-2.8-1.26-5.76-4.78-5.76s-4.72,2.87-4.72,5.02c0,3.13,2.07,5.07,4.7,5.07s4.24-1.43,4.63-3.07l-2.56-.17c-.48.87-1.13,1.22-1.94,1.22-1.2,0-2.19-.82-2.33-2.33ZM105.26,149.34c.15-1.15,1.11-1.93,2.07-1.93,1.02,0,1.91.7,2.09,1.93h-4.17ZM98.24,154.23l.11.96h2.52l-.02-13.11h-2.54v4.76c-.46-.74-1.52-1.37-2.72-1.37-2.11,0-4.18,1.76-4.18,5.06,0,1.5.46,2.74,1.22,3.61.78.94,1.74,1.37,2.87,1.37s2.07-.44,2.74-1.28ZM96.24,153.32c-1.19,0-2.24-.85-2.24-2.85,0-2.24,1.09-3.04,2.15-3.04s2.13.8,2.13,2.96-1.09,2.91-2.04,2.93ZM81.19,155.19h2.54v-5.28c0-.74.15-1.09.37-1.39.33-.48.93-.8,1.54-.8.87,0,1.5.57,1.5,1.63v5.83h2.52v-6.65c0-1.76-1.28-3.11-3.24-3.11-1.35,0-2.3.72-2.61,1.46l-.11-1.11-2.48-.02-.02,9.42ZM76.48,154.12c.05.46.15.8.3,1.07h2.57c-.31-.39-.41-.67-.43-.98l.02-5.17c0-2.26-1.18-3.61-4.24-3.61-2.85,0-4.04,1.56-3.98,3.15l2.24.04c0-.7.54-1.37,1.81-1.37s1.67.61,1.67,1.06c0,.39-.24.74-.92.87l-1.45.24c-2.09.37-2.65.76-3.04,1.11-.57.5-.87,1.2-.87,1.96,0,1.56,1.22,2.96,3.59,2.96,1.39,0,2.19-.46,2.72-1.33ZM76.5,150.23l-.02,1.18c0,1.33-.83,2.17-2.28,2.17-1.05,0-1.55-.63-1.55-1.2,0-.44.15-.94,1.74-1.39l1.09-.3c.48-.13.81-.32,1.02-.46ZM65.91,155.19h2.54v-13.11h-2.52l-.02,13.11ZM61.41,155.19h2.54v-13.11h-2.52l-.02,13.11ZM56.69,154.12c.06.46.17.8.32,1.07h2.57c-.32-.39-.41-.67-.43-.98l.02-5.17c0-2.26-1.19-3.61-4.26-3.61-2.85,0-4.04,1.56-3.98,3.15l2.24.04c0-.7.54-1.37,1.81-1.37s1.67.61,1.67,1.06c0,.39-.24.74-.93.87l-1.44.24c-2.09.37-2.65.76-3.04,1.11-.57.5-.87,1.2-.87,1.96,0,1.56,1.22,2.96,3.59,2.96,1.39,0,2.18-.46,2.72-1.33ZM56.71,150.23l-.02,1.18c0,1.33-.83,2.17-2.28,2.17-1.06,0-1.56-.63-1.56-1.2,0-.44.15-.94,1.74-1.39l1.09-.3c.48-.13.82-.32,1.02-.46Z"/>
  <path class="cls-3" d="M53.95,174.25c-1.2,0-2.37-.92-2.37-3.02,0-2.26,1.13-3.15,2.37-3.15s2.37.91,2.37,3.06-1.13,3.11-2.37,3.11ZM104.09,175.88v-1.94h-.94c-.32,0-.59-.17-.72-.35-.06-.07-.13-.22-.13-.74v-4.67h1.7v-1.72h-1.7l-.02-2.98h-2.52v2.98h-1.33v1.74l1.35-.02-.02,4.87c0,2.13.89,2.83,2.28,2.83h2.06ZM88.52,175.88h2.54v-3.09l1.06-1.06,2.59,4.15h3.11l-3.89-5.8,3.39-3.63h-3l-3.26,3.59-.02-7.28h-2.54l.02,13.11ZM79.72,171.87l7,.02c0-2.8-1.26-5.76-4.78-5.76s-4.72,2.87-4.72,5.02c0,3.13,2.07,5.07,4.7,5.07s4.24-1.43,4.63-3.07l-2.55-.17c-.48.87-1.13,1.22-1.96,1.22-1.2,0-2.19-.81-2.32-2.33ZM79.83,170.03c.15-1.15,1.09-1.93,2.05-1.93,1.04,0,1.93.7,2.11,1.93h-4.17ZM71.32,176.9l-.02,2.06,1.76-.02c1.61,0,2.39-.78,2.39-2.48v-10h-2.54v8.91c0,1.33-.41,1.54-1.02,1.54h-.57ZM72.91,165.03h2.54v-2.26h-2.54v2.26ZM60.69,175.88h2.5l.15-.96c.67.83,1.57,1.26,2.7,1.26,2.09,0,4.15-1.7,4.15-5.04s-2.07-5-4.13-5c-1.35,0-2.31.59-2.81,1.41v-4.78h-2.55v13.11ZM65.41,174c-1.05,0-2.13-.83-2.13-2.94s1.09-2.94,2.13-2.94c1.13,0,2.17.8,2.17,2.98s-1.07,2.91-2.17,2.91ZM53.97,176.24c2.85,0,4.94-2.02,4.94-5.09s-2.06-5.04-4.98-5.04-4.94,2.04-4.94,5.02,2.11,5.11,4.98,5.11Z"/>
</svg>