<?xml version="1.0" encoding="UTF-8"?>
<svg id="Lager_1" data-name="Lager 1" xmlns="http://www.w3.org/2000/svg" viewBox="0 0 153.09 218.69">
  <defs>
    <style>
      .cls-1 {
        fill: #fff;
      }

      .cls-1, .cls-2, .cls-3 {
        fill-rule: evenodd;
      }

      .cls-2 {
        fill: #fcbd0e;
      }

      .cls-3 {
        fill: #1d1f22;
      }
    </style>
  </defs>
  <polyline class="cls-1" points="0 218.69 153.09 218.69 153.09 0 0 0 0 218.69"/>
  <path class="cls-3" d="M140.13,124.4c3.07,0,4.72-3.4,3.23-5.98L79.68,8.19c-1.43-2.47-4.99-2.47-6.42,0L9.62,118.42c-1.49,2.57.17,5.98,3.23,5.98h127.28"/>
  <polyline class="cls-2" points="132.78 116.32 76.49 18.82 20.2 116.32 132.78 116.32"/>
  <path class="cls-3" d="M40.67,100.28l.3.07.29.05c1.24.18,1.88-.54,2.91-.66h.17l.18.02c1.05.2,2.07.8,3.17.63l.28-.05.26-.08.23-.08c2.54-1.39,3.15,1.24,6.21-.22l.19-.07.18-.07.16-.04.16-.03h.16c1.05.04,2.01.7,3.14.67h.15s.28-.05.28-.05c.81-.11,1.54-.76,2.38-.62l.2.04.23.06.23.07c4.35,1.55,2.69-1.26,6.88.37l.28.07.3.04.3.02v-1.29h-.18s-.19-.04-.19-.04l-.22-.05c-4.65-1.71-3.27,1.05-6.73-.33l-.27-.08-.27-.08-.28-.06c-1.2-.21-1.81.31-2.83.59l-.16.03h-.14c-1.08-.03-2.13-.76-3.27-.66l-.29.04-.27.06-.24.07-.23.09-.22.08c-2.34,1.18-2.83-1.43-6.3.24l-.17.05-.16.03h-.15c-1.04-.03-2.14-.75-3.23-.66l-.31.03-.26.06c-.67.14-1.42.69-2.09.57l-.2-.03-.21-.06-.24-.06-.25-.08-.65,1.15.54.16.27.08"/>
  <path class="cls-3" d="M38.81,103.03l.31.08c4.34,1.5,3.62-.81,6.16.08l.21.07.46.15c3.02.94,2.53-1.29,5.57-.01l.49.13.25.06.26.04.26.02c3.9-.63.87-1.15,5.61,0h.26s.25-.02.25-.02c3.9-1.37,1.87-.18,5.6,0l.24-.04.23-.06.21-.06v-1.38l-.17.07-.16.07-.16.05c-2.31.38-2.29-1.51-5.8.04l-.14.03-.14.02h-.14c-1.02-.08-2.05-.73-3.13-.67l-.25.02-.25.04c-.66.14-1.23.55-1.91.61h-.14l-.17-.02-.18-.03-.2-.04-.2-.06c-3.85-1.5-3.48.8-5.85-.07l-.45-.14-.47-.15c-2.52-.74-2.63,1.07-4.8.29l-.32-.08-.66-.18-.65-.17-.68,1.16.28.07.3.08"/>
  <path class="cls-3" d="M103.41,99.1l-.19-.04-.21-.06c-3.98-1.55-3.52.85-6.01-.11l-.48-.15-.51-.14c-3.27-.64-1.67,1.5-6.03-.1l-.28-.03-.28-.02v1.29h.16s.18.03.18.03c4.51,1.56,3.37-.27,5.85.05l.21.05.21.07c3.67,1.44,3.32-.95,5.92.09l.49.15.5.15-.64,1.68-.5-.16c-3.6-.7-1.55,1.47-6.36-.15l-.27-.03v1.29l.17.02c4.76,1.68,3.65-.59,6.28.15l.23.07-.96,2.49h-.1s-.12-.03-.12-.03l-.14-.02-.15-.03c-6.06-2.09-3.39,1.1-8.09-.67l-.31-.06-.33-.03h-.16c-1.09-.05-1.82.73-2.71.66h-.11s-.13-.03-.13-.03l-4.08-3.51,9.65.89-10.37-3.22,4.02-2.66.26.02h.26l.24-.02c1.13-.18,1.62-.91,2.8-.55l.35.1.36.12c1.61.5,1.95.53,3.51-.13l.27-.1.26-.07.14-.02h.13c1.11.08,2.12.76,3.25.67l.21-.02.2-.04c1.44-.36,1.48-.89,2.96-.41l.35.1.46.15.48.13-.85,2.19ZM108.5,85.9l-.62,1.63h-29.55l.48,1.28h28.59l-.33.84-.15-.06-.2-.07-.12-.04c-3.31-.41-1.39,1.55-5.96-.05l-.22-.03h-.22s-.22,0-.22,0c-.92.05-1.69.75-2.48.69l-.16-.03-.16-.03c-1.1-.27-2.08-.85-3.25-.57l-.2.06-.19.06-.18.08-.35.15-.26.11-.26.09c-.9.29-1.82-.34-2.68-.5l-.21-.05-.21-.03c-1.15-.2-1.76.39-2.77.64l-.13.02h-.28c-4.99-1.76-3.69.54-6.35-.16l-.21-.06-.23-.06-.24-.07.55,1.49.26.06.26.05.24.03h.24c1.01.02,1.63-.59,2.45-.68h.13s.14,0,.14,0c1,.13,1.9.7,2.92.69h.23s.22-.03.22-.03l.2-.04.19-.05c.69-.2,1.33-.7,2.04-.55l.16.03.16.04c1.04.28,1.97.8,3.07.52l.19-.05.36-.13.33-.13.28-.12.26-.11.27-.06c.7-.15,1.78.42,2.44.55l.21.05.22.04c1.2.17,1.71-.38,2.74-.65h.13s.13-.02.13-.02h.14s.16.03.16.03c.98.18,1.93.75,2.96.67l.2-.03.21-.04c.77-.15,1.46-.75,2.28-.6h.07s.12.04.12.04l.11.05.17.06-.75,1.96-.24-.05-.26-.07-.55-.18c-3.33-1.27-3.05,1.11-5.63,0l-.43-.14-.44-.12c-3.13-.59-1.64,1.55-5.83-.06l-.21-.03-.21-.03h-.23s-.23,0-.23,0c-4.22,1.33-1.47.41-5.63,0l-.2.03-.21.04c-3.11,1.28-1.97.24-5.08-.08h-.19s-.23.05-.23.05l.46,1.24h.1l.16.02.16.03c.89.2,1.73.66,2.65.66h.23s.21-.04.21-.04c.68-.08,1.4-.6,2.03-.65h.13s.14,0,.14,0l.16.02.16.03c.87.2,1.71.65,2.62.65h.2s.21-.04.21-.04c.78-.11,1.44-.66,2.16-.66h.15s.15.03.15.03l.15.03.17.04.34.1c3.36,1.39,3.33-.6,5.27-.1l.35.11.35.12c3.26,1.25,3.03-1.13,5.63,0l.5.15.25.08.24.06-.63,1.67-.25-.06-.25-.07-.52-.16-.42-.14c-.71-.21-1.21-.32-1.93-.16l-.2.05-.2.06c-.6.19-1.2.6-1.87.47l-.16-.03-.16-.04-.35-.1c-3.14-1.19-2.85.16-4.95.17l-.16-.03-.16-.04-.35-.1-.35-.12-.43-.14c-.69-.21-1.25-.32-1.96-.16l-.19.05-.2.06c-.6.2-1.19.6-1.86.47l-.16-.03-.16-.04-.35-.11c-3.23-1.23-3.04.33-5.05.17l-.16-.03-.33-.09-.34-.11.55,1.47.22.04c.51.04.89.01,1.19-.06.49-.1.75-.29,1.06-.42.18-.07.38-.13.64-.15.3-.01.7.03,1.27.18.29.08.61.19,1,.33l.26.07-3.9,1.86-1.19-.45-.91.33h0s-3.94-10.66-3.94-10.66l-4.11-8.72,9.54-5.51c.05.09.1.16.16.24.11.14.26.26.4.37l7.02,5.34,6.64,5.83c1.84,1.62,4.12-1.19,2.34-2.75l-6.6-5.79-7-5.34-3.96-6.85c-.2-.35-.53-.59-.88-.77l-7.98-3.9c-.26-.12-.54-.17-.82-.17h-8.96c-2.42-.01-2.41,3.61,0,3.61h8.57l6.62,3.22-10.75,6.21c-.26.15-.51.34-.7.57l-6.21,7.4-8.61-4.38c-2.43-1.24-4.41,2.4-1.92,3.66l10.1,5.14c.89.45,1.95.17,2.59-.58l5.71-6.81-.03.15c-.07.39,0,.79.18,1.15l4.81,10.19,3.92,10.59-.91.34-1.27-3.42-2.49-.49.24-.09c.65-.28,1.29-.03,1.92.17l.2.07-.56-1.52-.33-.07-.33-.05-.16-.02h-.17c-1.01-.05-1.85.82-2.86.65l-.16-.03-.18-.04c-1.39-.38-2.2-.9-3.62-.33l-.33.13-.27.11-.26.1-.26.06c-.87.16-2.12-.62-3.09-.64h-.2s-.23,0-.23,0c-1.09.05-1.82.89-2.85.61l-.18-.04-.36-.11-.36-.12-.42-.13-.42-.12-.22-.05c-1.35-.29-1.94.39-3.1.6h-.12s-.16,0-.16,0c-1.19-.14-2.31-.92-3.54-.6l-.21.05-.18.06-.19.07-.35.14c-1.3.63-1.88.02-3.21-.28l-.22-.05-.21-.04c-1.3-.18-1.84.47-2.92.64h-.09s-.1,0-.1,0l-.23-.02-.25-.05-.65,1.15.37.09.37.08.19.02h.18c.23.03.44,0,.65-.04,0,0,0,0,0,0,.1-.02.2-.05.3-.08,0,0,0,0,0,0,.1-.03.19-.06.29-.1,0,0,0,0,0,0,.1-.04.2-.08.3-.12.08-.03.16-.06.24-.09.02,0,.04-.01.06-.02.08-.03.16-.06.24-.08.03-.01.06-.02.09-.03.05-.01.09-.03.14-.04.08-.02.16-.04.24-.05h.14c.09,0,.19.02.28.04.04,0,.09.01.13.02.07.01.14.03.21.05.05.01.1.03.15.04.07.02.13.04.19.05.06.02.12.04.18.06.07.02.15.05.23.07.08.02.16.05.23.07.07.02.14.04.22.07.05.01.1.03.15.04.08.02.16.04.23.06.04.01.08.02.12.03.09.02.19.04.28.05.02,0,.04,0,.07,0,.05,0,.09.02.14.02h.21s.22,0,.22,0l.2-.03.21-.04c.06-.01.11-.03.17-.04h.02s.02-.01.03-.01c.32-.1.63-.24.93-.36.26-.1.53-.18.8-.19.15,0,.3,0,.46.05l.16.04.33.09.35.11c.53.18.99.32,1.46.37,0,0,.01,0,.02,0,.02,0,.04,0,.07,0,.32.03.64,0,.98-.09.03,0,.05-.01.07-.02,0,0,0,0,0,0h0c.12-.04.24-.08.36-.13l.34-.14.27-.12.26-.09.26-.07.13-.02c.08,0,.16,0,.23.01.07,0,.14.01.21.02.02,0,.05,0,.07.01.32.06.64.16.96.26.24.08.47.16.72.22.02,0,.04,0,.06.01.08.02.15.04.23.05.08.02.16.03.25.04,0,0,.01,0,.02,0l.22.03h.22c.07,0,.13,0,.2,0h.02c.48-.03.98-.27,1.46-.45.3-.12.6-.21.9-.22.05,0,.11,0,.16.01l.15.02.16.03c.76.28,1.36.45,1.86.53.06.01.12.02.17.03.01,0,.02,0,.03,0,.6.09,1.03.04,1.37-.07.01,0,.03,0,.04-.01.02,0,.05-.01.07-.02.34-.11.6-.27.9-.38.3-.11.65-.17,1.14-.1.25.04.55.12.9.25l.52.17.26.07.26.07h0l4.45,2.96-8.68,3.22h8.19l-2.75,2.4c-1.07-.12-2.2-.84-3.34-.63l-.3.06-.27.08-.26.09-.23.1-.21.09-.19.08-.19.07-.18.05c-.96.21-2.39-.72-3.53-.65h-.16s-.16.03-.16.03c-1.01.13-1.69.87-2.72.59l-.24-.07-.26-.08-.28-.09-.28-.09c-1.7-.53-1.98-.29-3.54.29l-.18.05-.18.04c-1.06.08-2.31-.79-3.49-.66l-.16.02-.14.03-.29.07-.26.08-.24.09-.23.09c-1.28.63-1.86.05-3.21-.26l-.3-.07-.31-.04c-1.2-.14-1.86.57-2.88.67h-.19s-.22-.04-.22-.04l-.23-.06c-1.28-.32-2.19-.89-3.52-.38l-.25.09-.23.1c-.47.21-1.03.41-1.54.21l-.04-.03-.05-.02-.07-.03-.07-.03-.18-.06-.69,1.2h.17s.06,0,.06,0h.04c2.55,1.12,2.78-1.12,5.22-.05l.6.18.3.08c1.39.35,1.92-.18,3.16-.53l.18-.02h.16c1.25.11,2.34.92,3.66.6l.28-.08.26-.09.24-.1.23-.09.2-.09.2-.06c1.01-.4,2.4.59,3.53.57h.33c1-.05,1.78-.8,2.66-.65l.22.05.24.06.26.08.28.09c1.43.49,2.08.56,3.47-.06l.21-.08.19-.07c.97-.38,2.45.64,3.58.58h.32s.16-.03.16-.03l.15-.03.28-.08.26-.09.24-.09.22-.09c1.16-.53,1.64-.15,2.72.17l-.54.47.88-.38.21.05.32.06c1.26.23,1.88-.44,2.97-.63h.26s.1.02.1.02l.23.04c1.61.4,2.42,1.01,4.07.28l.22-.1.14-.05.49,1.2.52-1.38c.8.07,1.63.55,2.46.63l.33.03h.33l.16-.02.15-.03.28-.06c1.49-.5,1.48-.83,3.1-.26l.29.09.3.08c.9.26,1.41.25,1.97.09l.48.19-.29-.25c.31-.1.65-.25,1.09-.42l.19-.05.17-.03h.18s.19,0,.19,0c1.16.18,2.27.88,3.47.61l.29-.08.26-.09c1.23-.47,1.21-.6,2.47-.26l.35.1.38.11.75.22.37.09.36.08-.59,1.53-.2.05-.19.07-.16.09-.14.08-.1.08-.08.06c-.12.08-.14.13-.28.13h-.11s-.13,0-.13,0c-.32,0-.71-.15-1.02-.24l-.42-.15-.44-.13-.23-.06c-1.43-.34-1.91.15-3.13.55l-.13.03h-.12s-.11,0-.11,0h-.15c-1.38-.21-2.36-1.03-3.85-.54l-.2.07-.18.08c-1.29.56-1.33.5-2.7.06l-.44-.14-.45-.13-.23-.05-.24-.03-.25-.02h-.24c-.99.01-1.81.89-2.82.66l-.17-.04-.18-.05c-1.92-.6-2.35-.89-4.2-.05l-.15.06-.14.04-.14.04-.14.03c-1.23.09-2.43-.92-3.83-.65l-.22.05-.2.07c-1.08.35-1.3.77-2.49.39l-.41-.13-.42-.13-.45-.14-.23-.06-.23-.05-.24-.03-.26-.02h-.24c-.93.03-1.67.8-2.61.69l-.17-.03-.17-.04c-1.47-.4-2.41-1-3.92-.29l-.18.07-.16.07-.14.06-.15.06c-.92.43-2.25-.46-3.23-.54l-.25-.03h-.25c-1-.02-1.77.71-2.58.69h-.19s-.11-.02-.11-.02l-.12-.02-.26-.06-.28-.08c-1.96-.66-2.22-.74-4.11.06l-.2.07-.18.04c-.97.15-2.26-.69-3.33-.68h-.2s-.18.03-.18.03l-.19.03-.17.05c-2.19.79-1.56.79-3.83.08l-.36-.08-.18-.04c-1.48-.31-2.16.65-3.29.64l-.13-.02-.13-.02-.15-.03-.16-.04-.32-.09-.95,1.67h67.2l7.65-19.89,5.29,19.89h.99l-6.55-24.61ZM76.57,105.35l-.27-.08-.28-.09-.6-.18-.31-.07c-.08-.02-.15-.03-.23-.04l3.26-1.42.69,1.67c-.72.28-1.19.58-2.26.2ZM84.42,105.17l-.23.09-.21.08-.2.08-.18.05-.17.04-.16.02c-.83-.02-1.64-.45-2.49-.61l.57-1.52,3.86,1.53c-.24.05-.5.13-.79.25Z"/>
  <path class="cls-3" d="M43.96,94.1h.17s.16.01.16.01c.29,0,.57-.07.83-.18.29-.11.55-.24.83-.35.03-.01.06-.02.08-.03,0,0,.02,0,.02,0,.26-.09.53-.15.81-.13l.15.02.15.03c.65.15,1.21.4,1.8.54.01,0,.02,0,.03,0,.05.01.11.02.16.03.03,0,.06,0,.09.01.04,0,.07.01.11.02.04,0,.08,0,.12.01.03,0,.06,0,.08,0,.04,0,.08,0,.12,0,.03,0,.06,0,.09,0,.03,0,.05,0,.08,0,.18,0,.37-.03.56-.07l.2-.05.37-.13.34-.15.29-.12s.09-.04.14-.06c.24-.08.44-.11.64-.12.17,0,.34.02.51.06.29.07.6.19.99.32.22.08.45.15.68.21l.22.05.22.04c.15.02.3.03.43.03,0,0,0,0,.01,0,.03,0,.05,0,.08,0,.04,0,.09,0,.13,0,.02,0,.04,0,.06,0,.04,0,.08,0,.12-.02.03,0,.06-.01.08-.02.03,0,.06-.01.09-.02.04,0,.08-.02.12-.03.02,0,.03,0,.05-.01.05-.01.1-.03.14-.04,0,0,.01,0,.02,0,.05-.01.09-.03.14-.05.01,0,.02,0,.04-.01.02,0,.05-.02.07-.03.26-.1.53-.22.85-.33.15-.05.3-.09.46-.12h.13s.14,0,.14,0l.15.02.16.03c.95.36,1.65.54,2.19.6.57.07.95.02,1.27-.09.41-.13.7-.33,1.08-.45.32-.09.71-.13,1.3-.03.4.08.9.23,1.53.49l.23.05.22.04.22.02c.07,0,.14.01.2.01h.01c.62.01,1.13-.24,1.62-.44.26-.11.53-.2.83-.25.04,0,.09-.01.13-.01h.14c.2.04.39.08.58.13.04.01.09.03.14.04,0,0,.02,0,.02,0,.4.12.79.27,1.19.38.39.11.79.18,1.21.14l.21-.03.19-.04.2-.05.37-.13.33-.15.27-.12-.45-1.2-.33.14-.26.12-.26.09-.25.07c-.84.13-2.01-.57-2.88-.64l-.22-.03h-.2c-.98-.05-1.77.67-2.58.69h-.15l-.16-.03-.16-.03c-5.02-1.88-3.03,1.22-7.36-.52l-.21-.06-.22-.03-.22-.03h-.21s-.23,0-.23,0c-.9.04-1.69.76-2.49.69l-.16-.03-.17-.03c-1.09-.26-2.06-.85-3.22-.57l-.2.06-.37.13-.35.15-.27.11c-.99.52-1.94-.2-2.95-.39l-.21-.06-.2-.03c-1.06-.17-1.66.28-2.59.61l-.15.04-.14.02h-.31s-.68,1.18-.68,1.18l.33.06.32.04"/>
  <path class="cls-3" d="M45.64,91.14l.44.13c2.96.57,1.85-1.52,5.59,0l.23.05.22.04c3.34.01,1.13-1.49,5.63,0l.23.02h.21s.21,0,.21,0l.22-.03.19-.04c.77-.14,1.43-.76,2.24-.6l.16.03.17.04c.87.24,1.72.68,2.65.6l.22-.03.2-.04.2-.05c2.91-1.51,2.97.62,5.65,0l.18-.07.19-.06.34-.14.24-.11.22-.09s.08-.03.13-.04c.11-.03.22-.05.32-.06.03,0,.06,0,.09,0,.02,0,.03,0,.05,0,.04,0,.08,0,.12,0,.02,0,.03,0,.04,0,.04,0,.08.01.12.02.02,0,.05,0,.07.01.03,0,.06.01.09.02.09.02.19.05.29.08l.32.1-.37-1.01-.23-.47-.27-.04h-.29s-.28,0-.28,0l-.26.05c-.7.13-1.57.81-2.27.6l-.16-.03-.17-.04c-.92-.25-1.85-.74-2.83-.57l-.21.04-.2.05-.38.14c-2.43,1.4-3.16-1.21-6,.15l-.26.12-.26.09-.25.07-.12.02h-.13c-.91-.04-1.85-.63-2.82-.69h-.21s-.23,0-.23,0c-.82.04-1.67.68-2.37.69h-.15l-.16-.03-.16-.03c-4.06-1.52-3.22.15-5.54,0l-.16-.03-.34-.09-.34-.12-.66,1.14.16.05.43.15"/>
  <polyline class="cls-3" points="72.22 88.81 71.62 87.53 47.01 87.53 46.27 88.81 72.22 88.81"/>
  <path class="cls-3" d="M88.03,69.69c2.01.01,3.59-1.57,3.59-3.61,0-1.92-1.59-3.61-3.55-3.6-2.02,0-3.68,1.53-3.69,3.6,0,1.99,1.65,3.6,3.65,3.61"/>
  <polyline class="cls-2" points="10.19 133.09 142.93 133.09 142.93 208.7 10.19 208.7 10.19 133.09"/>
  <path class="cls-3" d="M37.23,149.71c0,2.41,1.82,4.56,5.63,4.56s5.5-2.06,5.5-4.26c0-1.65-1.04-3.15-3.28-3.72l-3.11-.78c-.93-.24-1.04-.35-1.22-.56-.22-.24-.35-.54-.35-.87,0-.76.65-1.67,2.52-1.67.91,0,1.61.32,2,.7.35.35.59.87.61,1.41l2.61.04c-.11-1.44-.59-2.31-1.31-2.98-.74-.67-2.15-1.31-4.06-1.31-3.48,0-5.07,1.94-5.07,4.11,0,1.67.93,3.02,3.24,3.59l2.67.68c.48.11,1.18.2,1.61.76.22.3.33.63.33.87,0,.85-.65,1.81-2.78,1.81s-2.91-1.07-2.87-2.37l-2.67-.02ZM106.55,153.82h2.54v-3.09l1.06-1.06,2.59,4.15h3.09l-3.87-5.79,3.39-3.63h-3l-3.26,3.59-.02-7.28h-2.54l.02,13.11ZM101.83,152.75c.05.46.15.8.3,1.07h2.59c-.33-.39-.41-.67-.43-.98v-5.17c0-2.26-1.17-3.61-4.24-3.61-2.85,0-4.04,1.56-3.98,3.15l2.24.04c0-.7.52-1.37,1.81-1.37s1.67.61,1.67,1.06c0,.39-.24.74-.92.87l-1.46.24c-2.07.37-2.63.76-3.04,1.11-.56.5-.85,1.2-.85,1.96,0,1.56,1.22,2.96,3.59,2.96,1.37,0,2.19-.46,2.72-1.33ZM101.85,148.86l-.02,1.18c0,1.33-.83,2.17-2.28,2.17-1.05,0-1.57-.63-1.57-1.2,0-.44.17-.94,1.76-1.39l1.09-.3c.48-.13.81-.32,1.02-.46ZM93.89,153.82v-1.94h-.94c-.31,0-.59-.17-.74-.35-.04-.07-.11-.22-.11-.74v-4.67h1.7v-1.72h-1.7l-.02-2.98h-2.52v2.98h-1.33v1.74l1.35-.02-.02,4.87c0,2.13.87,2.83,2.28,2.83h2.05ZM70,154.34c.11.89.37,1.39.91,1.89.57.56,1.65,1.07,3.46,1.07,2.04,0,3.33-.76,3.96-1.57.43-.57.67-1.09.67-2.5l-.02-8.83h-2.41l-.07,1.15c-.17-.3-.68-1.48-2.78-1.48-2.28,0-4.28,1.82-4.28,4.72s2,4.74,4.24,4.74c1.52,0,2.44-.69,2.81-1.41l-.02,1.02c0,1.59-.72,2.26-2.18,2.26-1.09,0-1.61-.56-1.7-1.15l-2.59.09ZM74.3,151.34c-1.24,0-2.28-.89-2.28-2.63,0-1.52,1.06-2.48,2.22-2.48s2.22.96,2.22,2.55-1.09,2.56-2.17,2.56ZM65.12,152.75c.06.46.15.8.3,1.07h2.59c-.33-.39-.41-.67-.43-.98v-5.17c0-2.26-1.17-3.61-4.24-3.61-2.85,0-4.04,1.56-3.98,3.15l2.24.04c0-.7.52-1.37,1.81-1.37s1.67.61,1.67,1.06c0,.39-.24.74-.93.87l-1.46.24c-2.07.37-2.63.76-3.04,1.11-.56.5-.85,1.2-.85,1.96,0,1.56,1.22,2.96,3.59,2.96,1.37,0,2.19-.46,2.72-1.33ZM65.13,148.86l-.02,1.18c0,1.33-.83,2.17-2.28,2.17-1.06,0-1.57-.63-1.57-1.2,0-.44.17-.94,1.76-1.39l1.09-.3c.48-.13.82-.32,1.02-.46ZM52.66,153.82h2.5l3.24-9.42h-2.59l-1.87,6.2-1.87-6.18h-2.59l3.19,9.41Z"/>
</svg>