<svg xmlns="http://www.w3.org/2000/svg" viewBox="0 0 595.28 850.36"><defs><style>.a{fill:#fcc00d;}.a,.b{fill-rule:evenodd;}.b{fill:#000100;}</style></defs><title>W036_C</title><polyline class="a" points="0 850.36 595.28 850.36 595.28 0 0 0 0 850.36"/><path class="b" d="M144.77,627.94c0,9.36,7.06,17.71,21.89,17.71s21.38-8,21.38-16.56c0-6.41-4-12.24-12.74-14.47l-12.1-3c-3.6-.94-4-1.37-4.75-2.16a4.93,4.93,0,0,1-1.37-3.38c0-3,2.52-6.48,9.79-6.48a11,11,0,0,1,7.78,2.74,8.3,8.3,0,0,1,2.38,5.47l10.15,0.14c-0.43-5.61-2.31-9-5.11-11.59s-8.35-5.11-15.77-5.11c-13.54,0-19.73,7.56-19.73,16,0,6.48,3.6,11.74,12.6,14l10.37,2.66c1.87,0.43,4.61.79,6.26,3a6.07,6.07,0,0,1,1.3,3.39c0,3.31-2.52,7.05-10.8,7.05-8,0-11.3-4.18-11.16-9.22Zm269.56,16h9.86v-12l4.1-4.1,10.08,16.13h12l-15-22.53,13.17-14.11H436.86l-12.67,14-0.07-28.3h-9.86ZM396,639.74a11.56,11.56,0,0,0,1.15,4.18H407.2a5.83,5.83,0,0,1-1.66-3.81V620c0-8.78-4.53-14-16.49-14-11.09,0-15.69,6.05-15.48,12.24l8.71,0.14c0-2.74,2-5.33,7.05-5.33,4.83,0,6.48,2.38,6.48,4.1,0,1.51-.93,2.88-3.6,3.39l-5.69.93c-8.06,1.44-10.22,3-11.81,4.32a10.14,10.14,0,0,0-3.31,7.63c0,6,4.75,11.52,14,11.52C390.71,644.93,393.88,643.13,396,639.74ZM396,624.63L396,629.23c0,5.18-3.24,8.42-8.86,8.42-4.1,0-6.12-2.45-6.12-4.68,0-1.73.65-3.67,6.84-5.4l4.25-1.15A12.14,12.14,0,0,0,396,624.63Zm-31,19.29v-7.56h-3.67a3.81,3.81,0,0,1-2.88-1.37,5.86,5.86,0,0,1-.43-2.88V614h6.63v-6.7H358.1L358,595.68h-9.79v11.59H343V614l5.26-.07-0.07,18.93c0,8.28,3.38,11,8.85,11h8Zm-92.87,2a10.67,10.67,0,0,0,3.53,7.34c2.23,2.16,6.41,4.18,13.47,4.18,7.92,0,13-3,15.41-6.12,1.66-2.23,2.59-4.25,2.59-9.72l-0.07-34.34h-9.36l-0.29,4.46c-0.65-1.15-2.66-5.76-10.8-5.76C277.82,606,270,613,270,624.34s7.78,18.43,16.49,18.43c5.9,0,9.5-2.66,10.94-5.47l-0.07,4c0,6.19-2.81,8.78-8.49,8.78-4.25,0-6.26-2.16-6.63-4.46Zm16.7-11.67c-4.83,0-8.86-3.46-8.86-10.22,0-5.9,4.11-9.65,8.64-9.65s8.64,3.74,8.64,9.93S293.09,634.27,288.91,634.27Zm-35.71,5.47a11.57,11.57,0,0,0,1.15,4.18h10.08a5.82,5.82,0,0,1-1.66-3.81V620c0-8.78-4.53-14-16.49-14-11.09,0-15.69,6.05-15.48,12.24l8.71,0.14c0-2.74,2-5.33,7.05-5.33,4.83,0,6.48,2.38,6.48,4.1,0,1.51-.94,2.88-3.6,3.39l-5.69.93c-8.06,1.44-10.22,3-11.81,4.32a10.13,10.13,0,0,0-3.31,7.63c0,6,4.75,11.52,14,11.52C247.94,644.93,251.11,643.13,253.2,639.74Zm0.07-15.12-0.07,4.61c0,5.18-3.24,8.42-8.86,8.42-4.1,0-6.12-2.45-6.12-4.68,0-1.73.65-3.67,6.84-5.4l4.25-1.15A12.09,12.09,0,0,0,253.27,624.63Zm-48.52,19.29h9.72l12.6-36.64H217l-7.27,24.12-7.27-24H192.36Z"/><path class="b" d="M544.9,527.1c11.93,0,18.34-13.22,12.56-23.23L309.82,75.23a14.41,14.41,0,0,0-25,0L37.39,503.87C31.61,513.88,38,527.1,50,527.1H544.9Zm-28.57-31.43L297.45,116.58,78.55,495.67H516.32Z"/><path class="b" d="M158.14,433.33l1.15,0.27,1.13,0.18c4.82,0.68,7.32-2.1,11.32-2.55h0.65l0.69,0.07c4.1,0.79,8,3.11,12.33,2.44l1.07-.19,1-.31,0.9-.3c9.87-5.39,12.23,4.83,24.16-.87l0.73-.27,0.68-.26,0.64-.15,0.61-.11,0.61,0c4.09,0.22,7.81,2.76,12.22,2.66l0.57,0,1.1-.16c3.15-.43,6-2.94,9.24-2.39l0.76,0.16,0.88,0.23,0.91,0.27c16.93,6,10.46-4.9,26.73,1.43l1.1,0.28,1.18,0.15,1.17,0.07v-5l-0.68,0-0.75-.12-0.84-.18c-18.07-6.65-12.71,4.08-26.17-1.28l-1.06-.32-1.06-.31-1.1-.22c-4.67-.82-7,1.21-11,2.3l-0.6.12-0.56,0c-4.21-.16-8.3-3-12.72-2.62l-1.11.16-1.06.22-0.95.26-0.91.36-0.84.33c-9.11,4.59-11-5.58-24.49.94l-0.65.18-0.61.12-0.58,0c-4-.16-8.33-3-12.55-2.62l-1.19.11-1,.23c-2.62.56-5.52,2.67-8.14,2.21l-0.79-.12-0.83-.23-0.93-.22-1-.32L155,432.39l2.09,0.64,1.06,0.31"/><path class="b" d="M150.93,444l1.22,0.3c16.88,5.84,14.06-3.17,24,.31l0.83,0.26,1.79,0.57c11.75,3.67,9.83-5,21.68,0l1.91,0.5,1,0.23,1,0.16,1,0.07c15.16-2.44,3.39-4.5,21.83,0l1,0,1-.11c15.15-5.31,7.26-.7,21.77,0l0.94-.15,0.89-.24,0.82-.25v-5.36l-0.65.27-0.61.26-0.6.19c-9,1.49-8.9-5.88-22.57.15l-0.52.11-0.54.08h-0.52c-4-.3-8-2.85-12.16-2.62l-1,.08-1,.15c-2.55.55-4.8,2.15-7.42,2.39h-0.54l-0.65-.08-0.68-.11-0.76-.15-0.79-.24c-15-5.84-13.55,3.11-22.75-.26l-1.76-.53-1.81-.57c-9.78-2.87-10.21,4.14-18.68,1.14l-1.26-.31-2.55-.7-2.53-.67-2.64,4.52,1.1,0.26,1.18,0.31"/><path class="b" d="M402.1,428.72l-0.75-.14-0.8-.23c-15.47-6-13.68,3.31-23.35-.44l-1.86-.57-2-.54c-12.72-2.5-6.47,5.81-23.46-.39l-1.08-.11-1.09-.08v5l0.6,0,0.69,0.08c17.55,6,13.11-1,22.76.19l0.83,0.19,0.83,0.26c14.27,5.6,12.91-3.71,23,.34l1.89,0.57,1.94,0.57-2.5,6.53-1.94-.61c-14-2.71-6,5.72-24.74-.57l-1.06-.1v5l0.65,0.09c18.5,6.53,14.17-2.28,24.42.59l0.88,0.26-3.72,9.68-0.39,0-0.45-.07-0.52-.08-0.57-.11c-23.56-8.12-13.19,4.27-31.45-2.59l-1.21-.22-1.3-.11-0.64,0c-4.25-.14-7.09,2.87-10.53,2.62l-0.42,0-0.5-.08-15.86-13.67L366,443.38l-40.33-12.53,15.64-10.36,1,0.07h1l0.94-.09c4.39-.7,6.31-3.52,10.9-2.13l1.36,0.38,1.4,0.45c6.27,1.94,7.58,2.06,13.63-.51l1-.37,1-.26,0.54-.08h0.49c4.32,0.31,8.24,3,12.65,2.61l0.83-.09,0.77-.17c5.6-1.41,5.74-3.46,11.5-1.58l1.37,0.41,1.78,0.58,1.87,0.49Zm19.78-51.31-2.43,6.34H304.55l1.86,5H417.57L416.31,392l-0.57-.24-0.79-.28-0.45-.14c-12.86-1.6-5.42,6-23.19-.19l-0.84-.12-0.84,0-0.87,0c-3.58.19-6.57,2.93-9.64,2.7l-0.63-.12-0.64-.1c-4.3-1-8.1-3.32-12.65-2.21l-0.76.24-0.75.22-0.72.3-1.38.57-1,.42-1,.37c-3.49,1.13-7.06-1.32-10.41-2l-0.83-.19-0.82-.11c-4.47-.77-6.84,1.53-10.76,2.5l-0.51.09h-1.09c-19.42-6.85-14.34,2.1-24.69-.61l-0.83-.23-0.91-.23-0.95-.27,2.12,5.79,1,0.22,1,0.19,0.95,0.11,0.95,0c3.92,0,6.34-2.31,9.54-2.68l0.5,0,0.52,0c3.88,0.49,7.38,2.73,11.35,2.68l0.91,0,0.84-.11,0.8-.16,0.75-.18c2.69-.76,5.17-2.71,7.94-2.13l0.61,0.12,0.64,0.15c4,1.07,7.66,3.11,11.94,2l0.72-.18,1.4-.5,1.29-.52,1.1-.45,1-.43,1.06-.21c2.71-.58,6.91,1.63,9.5,2.15l0.83,0.19,0.87,0.15c4.67,0.66,6.63-1.48,10.67-2.53l0.49,0,0.49,0,0.53,0,0.61,0.07c3.81,0.69,7.5,2.92,11.51,2.58l0.79-.11,0.8-.16c3-.59,5.68-2.92,8.86-2.35l0.26,0,0.45,0.12,0.41,0.19,0.65,0.23-2.93,7.63-0.94-.19-1-.26-2.12-.7c-12.94-4.93-11.84,4.31-21.91,0l-1.68-.55-1.7-.45c-12.17-2.28-6.39,6-22.65-.24l-0.82-.1-0.83-.11-0.88,0-0.88,0c-16.42,5.18-5.71,1.59-21.91,0l-0.8.11-0.8.15c-12.09,5-7.66.93-19.75-.31h-0.22l-0.5,0-0.88.15,1.79,4.82h0.37l0.62,0.07,0.64,0.11c3.44,0.77,6.72,2.57,10.29,2.55l0.88,0,0.83-.12c2.66-.3,5.45-2.32,7.9-2.54l0.49,0,0.53,0,0.61,0.07,0.61,0.12c3.37,0.79,6.67,2.53,10.18,2.51l0.79,0,0.8-.12c3-.41,5.6-2.56,8.4-2.57l0.57,0,0.57,0.07,0.6,0.12,0.65,0.14,1.33,0.38c13.07,5.4,12.94-2.33,20.5-.38l1.38,0.43L384,407.9c12.68,4.88,11.78-4.37,21.9,0l1.93,0.59,1,0.32,0.95,0.23-2.46,6.48-1-.24-1-.25-2-.62-1.62-.52c-2.75-.82-4.7-1.24-7.51-0.61l-0.76.19-0.77.24c-2.35.74-4.68,2.31-7.26,1.81l-0.64-.11-0.64-.15-1.37-.38c-12.22-4.63-11.1.61-19.23,0.65l-0.64-.11-0.64-.15-1.37-.38-1.37-.46-1.66-.52a13.8,13.8,0,0,0-7.61-.61l-0.74.19-0.77.24c-2.35.79-4.64,2.31-7.22,1.81l-0.64-.11-0.64-.15-1.38-.43c-12.54-4.78-11.83,1.28-19.64.65l-0.6-.1L317.3,415,316,414.6l2.12,5.73,0.84,0.17a15,15,0,0,0,4.62-.22,17.53,17.53,0,0,0,4.13-1.63,7.69,7.69,0,0,1,2.47-.57,16.33,16.33,0,0,1,4.92.69c1.12,0.31,2.39.73,3.87,1.3l1,0.26-15.18,7.22-4.64-1.75-3.53,1.3h0L301.3,385.65l-16-33.9,37.08-21.41a7.59,7.59,0,0,0,.62.92,8.75,8.75,0,0,0,1.57,1.42l27.3,20.77,25.82,22.65c7.16,6.28,16-4.64,9.09-10.71l-25.66-22.53-27.21-20.75-15.38-26.64a7.75,7.75,0,0,0-3.43-3l-31-15.15a7.31,7.31,0,0,0-3.2-.68l-34.86,0c-9.4,0-9.39,14.08,0,14.08h33.32l25.73,12.54-41.81,24.13a10.16,10.16,0,0,0-2.73,2.23L236.4,358.36l-33.46-17c-9.45-4.81-17.14,9.33-7.47,14.25l39.29,20a8.29,8.29,0,0,0,10.06-2.27L267,346.84l-0.1.59a7.44,7.44,0,0,0,.68,4.48l18.71,39.63,15.25,41.16L298.05,434l-4.93-13.28-9.7-1.89,0.94-.34c2.52-1.1,5-.12,7.48.67l0.8,0.27-2.17-5.91-1.29-.26-1.29-.2-0.6-.07h-0.66c-3.93-.18-7.18,3.19-11.11,2.54l-0.61-.11-0.69-.15c-5.41-1.48-8.57-3.49-14.09-1.29l-1.29.52-1.06.42-1,.38-1,.21c-3.39.63-8.23-2.39-12-2.49L243,413l-0.88,0c-4.25.21-7.08,3.44-11.09,2.38l-0.68-.15-1.4-.41-1.42-.47-1.63-.49-1.63-.45-0.84-.18c-5.26-1.12-7.53,1.53-12.06,2.34l-0.49.06-0.61-.06c-4.62-.54-9-3.57-13.75-2.31l-0.8.21-0.72.23-0.73.26-1.36.56c-5,2.45-7.3.07-12.49-1.1l-0.84-.18-0.83-.16c-5.06-.68-7.16,1.85-11.35,2.5l-0.35.06-0.4-.06-0.88-.07-1-.18-2.54,4.48,1.45,0.37,1.45,0.32,0.72,0.07,0.72,0a9.39,9.39,0,0,0,2.52-.21h0c0.39-.08.77-0.19,1.15-0.3l0,0c0.37-.12.75-0.24,1.11-0.38h0l1.19-.46,0.94-.37,0.22-.08,0.92-.33,0.37-.11,0.53-.15c0.32-.08.63-0.16,0.95-0.21h0.54c0.36,0,.72.08,1.08,0.14l0.51,0.09,0.83,0.18,0.59,0.15,0.75,0.22,0.72,0.21,0.88,0.28,0.91,0.29,0.84,0.26,0.58,0.17,0.91,0.23,0.46,0.11c0.37,0.08.73,0.14,1.09,0.19l0.26,0c0.18,0,.36.06,0.54,0.08l0.82,0,0.84,0,0.8-.11,0.8-.16,0.65-.17,0.07,0,0.13,0c1.26-.38,2.43-0.93,3.61-1.38a10.58,10.58,0,0,1,3.1-.73,6,6,0,0,1,1.79.18l0.6,0.16,1.3,0.36,1.35,0.44a26.38,26.38,0,0,0,5.66,1.43h0.08l0.26,0a11.09,11.09,0,0,0,3.83-.35l0.28-.07h0l0,0a14.77,14.77,0,0,0,1.4-.49l1.33-.52,1.06-.45,1-.34,1-.28,0.49-.08a8.92,8.92,0,0,1,.91,0c0.27,0,.54.05,0.81,0.1l0.28,0.05a28.47,28.47,0,0,1,3.73,1c0.92,0.31,1.85.61,2.79,0.86l0.22,0.06,0.9,0.2c0.32,0.07.64,0.12,1,.17h0.06l0.87,0.11,0.87,0c0.26,0,.52,0,0.77,0h0.08c1.86-.1,3.81-1,5.67-1.75a10.8,10.8,0,0,1,3.48-.87,3.8,3.8,0,0,1,.63,0l0.57,0.08,0.64,0.12a41.31,41.31,0,0,0,7.23,2.06l0.67,0.11,0.13,0a12.1,12.1,0,0,0,5.32-.26l0.16,0,0.26-.09c1.32-.44,2.35-1,3.51-1.47a8.81,8.81,0,0,1,4.45-.37,18.62,18.62,0,0,1,3.48,1l2,0.66,1,0.25,1,0.28h0l17.3,11.49-33.74,12.54H289.4l-10.7,9.34c-4.15-.46-8.54-3.28-13-2.44l-1.17.22-1.06.31-1,.34-0.91.38-0.83.34-0.75.31-0.73.26-0.68.19c-3.71.84-9.3-2.8-13.71-2.51l-0.61,0-0.6.07c-3.93.5-6.59,3.4-10.57,2.28l-0.94-.28-1-.3-1.09-.34-1.1-.34c-6.63-2-7.7-1.14-13.76,1.14l-0.71.18-0.68.16c-4.13.3-9-3.08-13.56-2.58l-0.62.07-0.56.11-1.14.28-1,.3-0.95.37-0.91.37c-5,2.46-7.25.19-12.46-1l-1.17-.28-1.22-.16c-4.67-.55-7.24,2.2-11.21,2.59h-0.34l-0.38,0-0.84-.12-0.91-.23c-5-1.25-8.53-3.44-13.69-1.48l-1,.34-0.88.39c-1.85.8-4,1.59-6,.82l-0.15-.1-0.19-.08-0.26-.11-0.26-.12-0.68-.23-2.67,4.67h0.35l0.31,0h0.25l0.16,0.05c9.9,4.31,10.82-4.4,20.3-.23l2.33,0.68,1.16,0.3c5.4,1.37,7.48-.71,12.28-2.08l0.68-.09,0.64,0c4.86,0.45,9.11,3.61,14.21,2.35l1.1-.3,1-.35,0.95-.38,0.88-.34,0.79-.34,0.77-.25c3.91-1.55,9.32,2.28,13.74,2.22h1.3c3.88-.19,6.92-3.11,10.33-2.54l0.87,0.2,0.94,0.22,1,0.3,1.1,0.34c5.57,1.89,8.08,2.15,13.49-.22l0.81-.3,0.75-.26c3.78-1.46,9.53,2.48,13.91,2.27h0.64l0.61,0,0.61-.07,0.57-.11,1.1-.31,1-.34,0.95-.36,0.84-.36c4.51-2,6.38-.58,10.58.65l-2.12,1.85,3.44-1.49,0.82,0.21,1.24,0.23c4.9,0.89,7.32-1.7,11.54-2.46h0.7l0.33,0,0.39,0,0.88,0.16c6.28,1.54,9.43,3.91,15.82,1.09l0.87-.39,0.53-.18,1.91,4.67,2-5.36c3.13,0.27,6.33,2.12,9.58,2.44l1.28,0.1h1.29l0.62-.07,0.57-.13,1.09-.25c5.81-1.95,5.75-3.22,12-1l1.14,0.34,1.17,0.33c3.5,1,5.47,1,7.64.33l1.85,0.74-1.12-1c1.2-.4,2.52-1,4.23-1.61l0.73-.19,0.67-.12,0.7,0,0.75,0c4.5,0.71,8.83,3.42,13.49,2.37l1.11-.31,1-.34c4.79-1.84,4.7-2.32,9.62-1l1.37,0.41,1.48,0.42,2.92,0.86,1.45,0.34,1.4,0.31-2.28,5.93-0.79.19-0.73.26-0.6.34-0.54.31-0.39.33-0.3.24a1.66,1.66,0,0,1-1.1.52l-0.41,0h-0.5a17.45,17.45,0,0,1-4-.94l-1.63-.57-1.72-.52-0.91-.24c-5.56-1.31-7.41.61-12.19,2.13l-0.5.11-0.46,0H361l-0.58,0c-5.37-.81-9.2-4-15-2.1l-0.76.27-0.72.3c-5,2.19-5.18,1.94-10.52.24l-1.71-.54L330,465l-0.91-.19-0.95-.11-1-.07-0.95,0c-3.85,0-7.06,3.41-11,2.54l-0.67-.15-0.7-.2c-7.48-2.32-9.12-3.46-16.33-.18l-0.57.22-0.54.16-0.54.15-0.53.11c-4.8.34-9.43-3.59-14.91-2.51l-0.84.19-0.8.26c-4.2,1.35-5,3-9.68,1.53l-1.6-.5-1.62-.52-1.75-.54-0.91-.22-0.91-.19-0.95-.11-1-.07-0.95,0c-3.6.08-6.51,3.06-10.14,2.66l-0.66-.11-0.67-.15c-5.71-1.56-9.36-3.88-15.23-1.14l-0.69.26-0.61.26-0.56.24-0.57.22c-3.56,1.65-8.75-1.78-12.58-2.11l-1-.12-1,0c-3.88,0-6.86,2.78-10,2.71h-0.39l-0.36,0-0.42-.07-0.46-.09-1-.21-1.09-.31c-7.62-2.56-8.64-2.87-16,.23l-0.77.26-0.7.15c-3.76.58-8.79-2.69-13-2.64l-0.77,0-0.72.08-0.73.11-0.67.18c-8.53,3.07-6.07,3.06-14.9.3l-1.39-.33-0.72-.15c-5.77-1.2-8.38,2.51-12.79,2.48l-0.51-.07-0.52-.07-0.57-.12-0.61-.14-1.26-.34-3.68,6.48H393.14l29.74-77.35,20.59,77.35h3.87ZM297.73,453l-1.06-.32-1.1-.37-2.32-.68L292,451.4c-0.31-.06-0.6-0.12-0.88-0.16l12.69-5.51,2.66,6.51C303.73,453.34,301.88,454.51,297.73,453Zm30.54-.68-0.88.37-0.82.32-0.76.31-0.72.19-0.65.14-0.64.08c-3.21-.06-6.38-1.75-9.69-2.39l2.21-5.92,15,5.95A17.73,17.73,0,0,0,328.27,452.34Z"/><path class="b" d="M170.94,409.3l0.65,0h0.64a9,9,0,0,0,3.24-.68c1.13-.41,2.15-0.93,3.21-1.35l0.33-.12,0.09,0a7.84,7.84,0,0,1,3.16-.52l0.57,0.07,0.6,0.12c2.53,0.59,4.71,1.57,7,2.11l0.12,0,0.62,0.13,0.33,0.05,0.42,0.06,0.45,0.05,0.32,0,0.45,0h0.65A11.11,11.11,0,0,0,196,409l0.76-.19,1.43-.5,1.32-.57,1.12-.46c0.17-.09.35-0.16,0.53-0.23a8,8,0,0,1,2.48-.46,9.18,9.18,0,0,1,2,.23c1.13,0.27,2.32.73,3.85,1.23a22,22,0,0,0,2.63.8l0.84,0.18,0.87,0.15a11.78,11.78,0,0,0,1.68.12h0.34l0.49,0,0.24,0,0.49-.06,0.32-.06,0.35-.07,0.46-.11,0.18,0,0.56-.18,0.06,0,0.52-.19,0.14-.05,0.27-.1c1-.4,2.06-0.87,3.29-1.29a12.79,12.79,0,0,1,1.81-.45l0.5,0,0.55,0,0.57,0.07,0.6,0.12a36.94,36.94,0,0,0,8.51,2.34,10.57,10.57,0,0,0,4.92-.34c1.58-.5,2.72-1.29,4.2-1.75a10.72,10.72,0,0,1,5-.1,32.18,32.18,0,0,1,5.93,1.92l0.88,0.18,0.84,0.15,0.87,0.08c0.27,0,.53,0,0.79,0h0c2.42,0,4.38-.93,6.3-1.73a14.35,14.35,0,0,1,3.21-1l0.52-.05,0.53,0a16.69,16.69,0,0,1,2.27.47l0.53,0.16,0.09,0c1.54,0.47,3.07,1,4.62,1.47a13,13,0,0,0,4.71.54l0.81-.12,0.75-.14,0.76-.19,1.44-.5,1.29-.57,1.07-.46-1.74-4.66-1.3.53-1,.46-1,.34-1,.26c-3.27.52-7.8-2.22-11.21-2.51l-0.84-.1-0.79,0c-3.81-.14-6.89,2.66-10,2.73h-0.57l-0.61-.1-0.61-.12c-19.52-7.32-11.77,4.76-28.63-2l-0.83-.22-0.84-.11-0.84-.1-0.81,0-0.89,0c-3.51.15-6.58,2.94-9.67,2.68l-0.61-.1-0.65-.12c-4.25-1-8-3.29-12.53-2.21l-0.76.23-1.45.5-1.37.57-1.06.41c-3.86,2-7.54-.77-11.47-1.53l-0.83-.22-0.8-.11c-4.1-.67-6.45,1.08-10.07,2.36l-0.57.15-0.54.07h-0.57l-0.64,0-2.63,4.61,1.3,0.25,1.25,0.16"/><path class="b" d="M177.46,397.76l1.71,0.5c11.49,2.22,7.18-5.93,21.75,0l0.88,0.18,0.84,0.16c13,0,4.41-5.79,21.9,0l0.88,0.07,0.83,0,0.83,0,0.84-.12,0.75-.15c3-.55,5.56-3,8.69-2.32l0.6,0.12,0.65,0.15c3.38,0.92,6.7,2.63,10.29,2.31l0.84-.12,0.79-.15,0.76-.19c11.31-5.86,11.55,2.42,22,0l0.71-.27,0.73-.25,1.33-.54,0.95-.41,0.86-.34,0.49-.15a7,7,0,0,1,1.24-.24l0.36,0h0.19l0.49,0,0.17,0,0.49,0.07,0.26,0.05,0.35,0.08c0.35,0.09.72,0.19,1.13,0.31l1.26,0.39L282.84,393,282,391.15,280.9,391l-1.12,0-1.09.07-1,.19c-2.74.51-6.12,3.14-8.81,2.35l-0.64-.1-0.65-.16c-3.58-1-7.18-2.87-11-2.2l-0.8.15-0.78.18-1.47.55c-9.45,5.42-12.3-4.72-23.32.57l-1,.45-1,.34-1,.26-0.46.08h-0.49c-3.53-.16-7.21-2.46-11-2.69l-0.83,0-0.88,0c-3.2.15-6.51,2.64-9.22,2.69h-0.57l-0.6-.12-0.6-.1c-15.8-5.89-12.54.59-21.55,0l-0.64-.13L179,393l-1.32-.45L175.16,397l0.62,0.19,1.68,0.57"/><polyline class="b" points="280.84 388.72 278.47 383.75 182.78 383.75 179.93 388.72 280.84 388.72"/><path class="b" d="M342.3,314.37a13.78,13.78,0,0,0,14-14,14.07,14.07,0,1,0-14,14"/></svg>