<?xml version="1.0" encoding="UTF-8"?>
<svg id="Lager_1" data-name="Lager 1" xmlns="http://www.w3.org/2000/svg" viewBox="0 0 153.09 218.69">
  <defs>
    <style>
      .cls-1 {
        fill: #fff;
      }

      .cls-1, .cls-2, .cls-3 {
        fill-rule: evenodd;
      }

      .cls-2 {
        fill: #fcbd0e;
      }

      .cls-3 {
        fill: #1d1f22;
      }
    </style>
  </defs>
  <polyline class="cls-1" points="0 218.69 153.09 218.69 153.09 0 0 0 0 218.69"/>
  <path class="cls-3" d="M143.44,118.48L79.92,8.39l-.39-.59-.49-.44c-1.04-.91-2.57-1.2-3.87-.68l-.59.29-.58.4-.44.44-.39.59L9.66,118.48l-.3.64-.2.64-.05.68.05.68.2.69.3.59.39.58.44.44.58.39.59.29.69.2.68.05h127.03l.68-.05.64-.2c1.34-.5,2.26-1.57,2.55-2.98l.05-.68-.05-.68-.19-.64-.29-.64"/>
  <polyline class="cls-2" points="76.55 18.71 132.82 116.28 20.28 116.28 76.55 18.71"/>
  <path class="cls-3" d="M76.55,95.95c-3.51,0-6.37,2.86-6.37,6.37s2.86,6.36,6.37,6.36,6.37-2.85,6.37-6.36-2.86-6.37-6.37-6.37"/>
  <path class="cls-3" d="M76.55,43.43c-2.58,0-5.21,1.24-7.04,3.31-1.5,1.7-2.24,3.74-2.01,5.59l4.81,35.39c.41,2.74,2,4.38,4.24,4.38s3.83-1.64,4.25-4.39l4.81-35.39c.22-1.84-.51-3.88-2.01-5.58-1.83-2.07-4.47-3.31-7.04-3.31"/>
  <polyline class="cls-2" points="10.2 133.09 142.93 133.09 142.93 208.7 10.2 208.7 10.2 133.09"/>
  <path class="cls-3" d="M25.96,146.55v-3.63h3c.72,0,.93.09,1.2.26.52.33.85.98.85,1.57,0,1-.78,1.83-2.15,1.81l-2.91-.02ZM121.53,154.9v1.98h1.87c2.2,0,2.72-1.74,2.93-2.31l3.59-10.16h-2.7l-1.87,5.83-1.98-5.83h-2.74l2.93,7.94c.19.52.26.87.26,1.3,0,.76-.43,1.28-1.52,1.26h-.76ZM110.02,153.82h2.5l.15-.96c.67.83,1.57,1.26,2.7,1.26,2.09,0,4.15-1.7,4.15-5.04s-2.09-5-4.13-5c-1.35,0-2.31.59-2.81,1.41v-4.78h-2.56v13.11ZM114.74,151.94c-1.06,0-2.15-.83-2.15-2.94s1.11-2.94,2.15-2.94c1.11,0,2.17.8,2.17,2.98s-1.07,2.91-2.17,2.91ZM95.5,153.82h2.54l.02-4.18c0-1.41.33-2.06.76-2.5.46-.5,1.02-.74,1.72-.74.15,0,.28.02.43.04l.02-2.24c-.13-.02-.33-.06-.54-.06-1.11,0-2.07.7-2.35,1.68l-.09-1.42h-2.48l-.02,9.42ZM86.72,149.81l7,.02c0-2.8-1.26-5.76-4.78-5.76s-4.74,2.87-4.74,5.02c0,3.13,2.07,5.07,4.72,5.07s4.24-1.43,4.63-3.07l-2.56-.17c-.48.87-1.15,1.22-1.96,1.22-1.2,0-2.18-.81-2.31-2.33ZM86.84,147.97c.15-1.15,1.09-1.93,2.05-1.93,1.04,0,1.93.7,2.09,1.93h-4.15ZM77.65,153.82h2.5l3.22-9.42h-2.57l-1.87,6.2-1.87-6.18h-2.57l3.17,9.41ZM68.71,154.18c2.87,0,4.96-2.02,4.96-5.09s-2.06-5.04-4.98-5.04-4.94,2.04-4.94,5.02,2.09,5.11,4.96,5.11ZM68.69,152.19c-1.2,0-2.35-.93-2.35-3.02,0-2.26,1.13-3.15,2.37-3.15s2.37.91,2.37,3.06-1.15,3.11-2.39,3.11ZM45.86,153.82h2.54l.02-5.28c0-.74.15-1.09.35-1.39.33-.48.93-.8,1.54-.8.89,0,1.52.57,1.52,1.63l-.02,5.83h2.54v-6.65c0-1.76-1.3-3.11-3.24-3.11-1.35,0-2.3.72-2.63,1.46l-.09-1.11-2.5-.02-.02,9.42ZM41.38,152.77l.15,1.06h2.37v-9.41l-2.52-.02v5.28c0,1.44-.85,2.18-1.87,2.18-.94,0-1.54-.5-1.54-1.83v-5.63h-2.54v6.48c0,1.24.37,1.91.94,2.44.54.5,1.33.82,2.35.82,1.17,0,2.07-.5,2.65-1.37ZM23.23,153.82h2.72l.02-5.18,2.35.02c.94,0,1.61.41,2,1.07.15.26.2.56.28.83.26,1.07-.02,2.24.5,3.26h2.74c-.17-.3-.35-.83-.41-1.37l-.22-2.31c-.09-.94-.31-1.35-.67-1.74-.41-.43-1.06-.74-1.72-.8,1.69-.18,2.85-1.46,2.85-3.22,0-2.06-1.65-3.81-4.41-3.67h-6.02l-.02,13.11Z"/>
  <path class="cls-3" d="M12.82,175.53h2.24v-4.18c0-1.41.32-2.06.68-2.5.42-.5.9-.74,1.51-.74.13,0,.27.02.38.04l.02-2.24c-.12-.02-.3-.06-.48-.06-.98,0-1.81.7-2.07,1.68l-.07-1.43h-2.19l-.02,9.42ZM135.44,175.53h2.24v-4.18c0-1.41.3-2.06.66-2.5.43-.5.91-.74,1.53-.74.13,0,.25.02.38.04l.02-2.24c-.12-.02-.3-.06-.48-.06-.98,0-1.83.7-2.08,1.68l-.07-1.43h-2.21v9.42ZM129.48,175.88c2.54,0,4.38-2.02,4.38-5.09s-1.83-5.04-4.4-5.04-4.37,2.04-4.37,5.02,1.86,5.11,4.38,5.11ZM129.46,173.9c-1.05,0-2.08-.93-2.08-3.02,0-2.26,1-3.15,2.09-3.15s2.09.91,2.09,3.06-1.01,3.11-2.11,3.11ZM123.95,175.53v-1.94h-.83c-.27,0-.53-.17-.65-.35-.05-.07-.12-.22-.12-.74v-4.67h1.51v-1.72h-1.49l-.02-2.98h-2.22v2.98h-1.18v1.74l1.18-.02v4.87c0,2.13.76,2.83,2.01,2.83h1.81ZM115.38,174.46c.05.46.15.8.27,1.07h2.29c-.28-.39-.36-.67-.38-.98l.02-5.17c0-2.26-1.05-3.61-3.75-3.61-2.52,0-3.57,1.56-3.52,3.15l1.98.04c0-.7.46-1.37,1.61-1.37s1.46.61,1.46,1.06c0,.39-.22.74-.81.87l-1.28.24c-1.84.37-2.34.76-2.69,1.11-.5.5-.76,1.2-.76,1.96,0,1.56,1.08,2.96,3.19,2.96,1.21,0,1.93-.46,2.39-1.33ZM115.4,170.57l-.02,1.18c0,1.33-.73,2.17-2.01,2.17-.93,0-1.38-.63-1.38-1.2,0-.44.13-.94,1.54-1.39l.96-.3c.43-.13.71-.31.9-.46ZM104.61,175.53h2.24v-4.18c0-1.41.32-2.06.68-2.5.42-.5.9-.74,1.51-.74.13,0,.27.02.38.04l.02-2.24c-.12-.02-.3-.06-.48-.06-.98,0-1.81.7-2.08,1.68l-.07-1.43h-2.19l-.02,9.42ZM96.85,171.51l6.18.02c0-2.8-1.11-5.76-4.22-5.76s-4.18,2.87-4.18,5.02c0,3.13,1.84,5.07,4.17,5.07s3.74-1.43,4.08-3.07l-2.24-.17c-.43.87-1.01,1.22-1.74,1.22-1.06,0-1.93-.82-2.04-2.33ZM96.95,169.68c.13-1.15.96-1.93,1.81-1.93.91,0,1.71.7,1.86,1.93h-3.67ZM87.12,174.44c.48.87,1.29,1.41,2.44,1.41,2.28,0,3.67-2.39,3.67-5.07s-1.36-4.96-3.64-4.96c-1.01,0-1.84.46-2.42,1.28l-.1-.96-2.19.02v12.46h2.24v-4.17ZM89.13,173.9c-1.08,0-1.99-.81-1.99-2.85,0-2.28.98-3.07,1.89-3.07s1.94.85,1.94,2.94c0,1.39-.53,2.96-1.84,2.98ZM78.92,175.88c2.52,0,4.38-2.02,4.38-5.09s-1.83-5.04-4.4-5.04-4.35,2.04-4.35,5.02,1.86,5.11,4.37,5.11ZM78.9,173.9c-1.06,0-2.08-.93-2.08-3.02,0-2.26,1-3.15,2.09-3.15s2.09.91,2.09,3.06-1.01,3.11-2.11,3.11ZM60.21,171.51l6.18.02c0-2.8-1.13-5.76-4.22-5.76s-4.18,2.87-4.18,5.02c0,3.13,1.83,5.07,4.17,5.07s3.74-1.43,4.08-3.07l-2.26-.17c-.43.87-1,1.22-1.73,1.22-1.06,0-1.93-.82-2.04-2.33ZM60.29,169.68c.15-1.15.98-1.93,1.83-1.93.91,0,1.69.7,1.86,1.93h-3.69ZM56.84,175.53v-1.94h-.85c-.27,0-.52-.17-.63-.35-.05-.07-.12-.22-.12-.74v-4.67h1.51v-1.72h-1.51l-.02-2.98h-2.23v2.98h-1.16v1.74l1.18-.02v4.87c0,2.13.76,2.83,1.99,2.83h1.83ZM46.47,175.88c2.52,0,4.37-2.02,4.37-5.09s-1.81-5.04-4.4-5.04-4.35,2.04-4.35,5.02,1.86,5.11,4.38,5.11ZM46.46,173.9c-1.06,0-2.08-.93-2.08-3.02,0-2.26,1-3.15,2.09-3.15s2.09.91,2.09,3.06-1.01,3.11-2.11,3.11ZM28.34,175.53h2.24l.02-5.44c0-1.35.66-2.04,1.56-2.04.6,0,.95.33,1.11.8.03.09.1.3.1,1.04v5.65h2.22v-5.59c0-1.22.66-1.93,1.54-1.93.76,0,1.26.52,1.26,1.63v5.89h2.21l-.02-6.61c-.03-1.98-1.15-3.11-2.67-3.11-1.15,0-2.04.61-2.54,1.65-.43-.98-1.36-1.65-2.46-1.65s-1.88.56-2.31,1.5l-.08-1.18-2.18-.02-.02,9.42ZM20.59,171.51l6.18.02c0-2.8-1.11-5.76-4.22-5.76s-4.17,2.87-4.17,5.02c0,3.13,1.83,5.07,4.15,5.07s3.75-1.43,4.08-3.07l-2.24-.17c-.43.87-1.01,1.22-1.73,1.22-1.06,0-1.94-.82-2.06-2.33ZM20.69,169.68c.13-1.15.96-1.93,1.83-1.93.91,0,1.69.7,1.84,1.93h-3.67Z"/>
  <path class="cls-3" d="M18.11,195.88c-.12.74-.27,1.04-.55,1.31-.25.24-.55.39-.93.39-.86,0-1.66-.81-1.66-2.92,0-2.32.85-3.17,1.72-3.17.68,0,1.26.67,1.36,1.61l1.84-.13c-.15-1.96-1.31-3.48-3.25-3.48-1.39,0-2.37.72-3.02,1.98-.43.81-.68,1.83-.68,3.15,0,1.91.58,3.35,1.48,4.22.55.54,1.24.87,2.2.87.66,0,1.06-.13,1.41-.31,1.08-.52,1.74-1.59,1.87-3.41l-1.81-.11ZM134.85,195.29l5.27.02c0-2.8-.94-5.76-3.59-5.76s-3.56,2.87-3.56,5.02c0,3.13,1.56,5.07,3.55,5.07s3.2-1.42,3.5-3.07l-1.92-.17c-.36.87-.86,1.22-1.47,1.22-.91,0-1.66-.82-1.76-2.33ZM134.94,193.46c.12-1.15.83-1.93,1.56-1.93.78,0,1.44.7,1.57,1.93h-3.13ZM125.26,199.31h1.91l.02-5.28c0-.74.12-1.09.27-1.39.25-.48.7-.8,1.16-.8.66,0,1.14.57,1.14,1.63l-.02,5.83h1.91v-6.65c0-1.76-.96-3.11-2.44-3.11-1.03,0-1.74.72-1.97,1.46l-.08-1.11-1.87-.02-.02,9.42ZM121.86,199.31h1.91v-9.42h-1.89l-.02,9.42ZM121.88,188.46h1.91v-2.26h-1.91v2.26ZM114.08,199.31h1.92v-5.18c0-1.54.63-2.26,1.42-2.26.68,0,1.14.52,1.14,1.7l-.02,5.74h1.92v-6.5c0-1.15-.3-1.93-.76-2.46-.41-.46-1.04-.8-1.66-.8-1.04,0-1.74.65-2.07,1.52l.02-4.87h-1.92v13.11ZM110.93,195.88c-.1.74-.27,1.04-.55,1.31-.23.24-.53.39-.93.39-.84,0-1.64-.81-1.64-2.92,0-2.32.84-3.17,1.71-3.17.7,0,1.26.67,1.38,1.61l1.84-.13c-.17-1.96-1.31-3.48-3.25-3.48-1.41,0-2.39.72-3.03,1.98-.41.81-.68,1.83-.68,3.15,0,1.91.58,3.35,1.47,4.22.56.54,1.24.87,2.2.87.68,0,1.08-.13,1.43-.31,1.08-.52,1.72-1.59,1.87-3.41l-1.82-.11ZM102.51,198.23c.03.46.12.8.23,1.07h1.94c-.23-.39-.32-.67-.32-.98v-5.17c0-2.26-.88-3.61-3.2-3.61-2.14,0-3.03,1.56-3,3.15l1.69.04c0-.7.4-1.37,1.38-1.37s1.24.61,1.24,1.06c0,.39-.18.74-.7.87l-1.09.24c-1.57.37-1.99.76-2.29,1.11-.43.5-.66,1.2-.66,1.96,0,1.56.93,2.96,2.72,2.96,1.04,0,1.66-.46,2.05-1.33ZM102.53,194.34l-.02,1.19c0,1.33-.63,2.17-1.72,2.17-.8,0-1.18-.63-1.18-1.2,0-.44.12-.94,1.33-1.39l.81-.3c.38-.13.61-.32.78-.46ZM86.04,199.31h1.91l.02-5.44c0-1.35.56-2.04,1.32-2.04.51,0,.81.33.96.8.03.09.08.3.08,1.04v5.65h1.89v-5.59c0-1.22.58-1.93,1.33-1.93.65,0,1.08.52,1.08,1.63v5.89h1.89l-.02-6.61c-.03-1.98-.98-3.11-2.29-3.11-.98,0-1.74.61-2.17,1.65-.36-.98-1.16-1.65-2.09-1.65s-1.61.56-1.97,1.5l-.07-1.19-1.85-.02-.02,9.42ZM76.81,198.34l.08.96h1.89v-13.11h-1.92v4.76c-.33-.74-1.13-1.37-2.04-1.37-1.59,0-3.15,1.76-3.15,5.06,0,1.5.35,2.74.91,3.61.58.94,1.32,1.37,2.17,1.37s1.56-.44,2.06-1.28ZM75.32,197.44c-.91,0-1.69-.85-1.69-2.85,0-2.24.83-3.04,1.61-3.04s1.59.8,1.59,2.96-.8,2.91-1.51,2.93ZM65.2,195.29l5.29.02c0-2.8-.96-5.76-3.61-5.76s-3.56,2.87-3.56,5.02c0,3.13,1.57,5.07,3.55,5.07s3.2-1.42,3.5-3.07l-1.92-.17c-.36.87-.86,1.22-1.47,1.22-.91,0-1.66-.82-1.76-2.33ZM65.28,193.46c.12-1.15.83-1.93,1.56-1.93.78,0,1.46.7,1.57,1.93h-3.13ZM60.06,199.31h1.9v-13.11h-1.89l-.02,13.11ZM56.66,199.31h1.92v-13.11h-1.91l-.02,13.11ZM51.59,199.66c2.15,0,3.73-2.02,3.73-5.09s-1.56-5.04-3.76-5.04-3.71,2.04-3.71,5.02,1.57,5.11,3.74,5.11ZM51.58,197.68c-.91,0-1.77-.93-1.77-3.02,0-2.26.84-3.15,1.77-3.15s1.79.91,1.79,3.06-.86,3.11-1.79,3.11ZM43.11,199.31h1.91l.02-4.18c0-1.41.25-2.06.56-2.5.37-.5.78-.74,1.29-.74.12,0,.23.02.33.04l.02-2.24c-.1-.02-.25-.06-.41-.06-.83,0-1.56.7-1.77,1.69l-.07-1.43h-1.87v9.42ZM41.7,199.31v-1.94h-.71c-.23,0-.45-.17-.55-.35-.03-.07-.1-.22-.1-.74v-4.67h1.29v-1.72h-1.28l-.02-2.98h-1.91v2.98h-.99v1.74l1.01-.02-.02,4.87c0,2.13.66,2.83,1.72,2.83h1.54ZM29.92,199.31h1.91l.02-5.28c0-.74.12-1.09.27-1.39.25-.48.7-.8,1.16-.8.66,0,1.14.57,1.14,1.63l-.02,5.83h1.91v-6.65c0-1.76-.96-3.11-2.44-3.11-1.03,0-1.74.72-1.97,1.46l-.08-1.11-1.87-.02-.02,9.42ZM24.83,199.66c2.17,0,3.74-2.02,3.74-5.09s-1.56-5.04-3.76-5.04-3.71,2.04-3.71,5.02,1.57,5.11,3.73,5.11ZM24.83,197.68c-.91,0-1.79-.93-1.79-3.02,0-2.26.86-3.15,1.79-3.15s1.79.91,1.79,3.06-.86,3.11-1.79,3.11Z"/>
</svg>