<svg xmlns="http://www.w3.org/2000/svg" viewBox="0 0 595.28 850.36"><defs><style>.a{fill:#fcc00d;}.a,.b{fill-rule:evenodd;}.b{fill:#000100;}</style></defs><title>W038_C</title><polyline class="a" points="0 850.36 595.28 850.36 595.28 0 0 0 0 850.36"/><path class="b" d="M173.21,617.65l0.07-16.42h9.07c6.26,0,8.85,4.25,8.85,8.28,0,4.61-3.17,8.28-9.5,8.2Zm259.62,26.28v-7.56h-3.67a3.65,3.65,0,0,1-2.81-1.37c-0.22-.29-0.51-0.86-0.51-2.88V614h6.7v-6.7h-6.7l-0.07-11.59H416v11.59h-5.11V614l5.18-.07v18.93c0,8.28,3.38,11,8.78,11h8Zm-63.5,2a11,11,0,0,0,3.53,7.34c2.23,2.16,6.41,4.18,13.47,4.18,8,0,13-3,15.48-6.12,1.66-2.23,2.59-4.25,2.59-9.72V607.28H395l-0.36,4.46c-0.65-1.15-2.66-5.76-10.8-5.76-8.86,0-16.56,7.06-16.56,18.36s7.7,18.43,16.49,18.43c5.83,0,9.43-2.66,10.87-5.47v4c0,6.19-2.88,8.78-8.5,8.78-4.32,0-6.33-2.16-6.62-4.46ZM386,634.28c-4.83,0-8.78-3.46-8.78-10.22,0-5.9,4-9.65,8.57-9.65s8.64,3.74,8.64,9.93S390.28,634.28,386,634.28Zm-35.57,9.65h9.79V607.28h-9.79v36.64Zm0-42.19h9.86V593h-9.86v8.78ZM333,643.92h9.86V593H333Zm-40.89-12.24c0.14,6.91,5.9,13.54,17.14,13.54,11.45,0,16.49-6.12,16.49-12.67a10.42,10.42,0,0,0-2.31-6.41c-1.37-1.73-3.1-3-7.49-4l-10.51-2.45c-2.23-.58-3.1-1.94-3.1-3.24s1.29-3.67,6.12-3.67c5.18,0,7.49,2.73,7.56,5.69l8.71-.14a13,13,0,0,0-5.25-9.65c-2.16-1.51-5.54-2.81-10.87-2.81-10.58,0-15.19,5.69-15.19,12A9.44,9.44,0,0,0,296,624.7c1.29,1.37,2.81,2.52,6.91,3.39l7.92,1.8c4.61,1,5.18,2.45,5.18,4.17s-1.51,4.11-6.91,4.11c-5.19,0-7.85-2.74-8.14-6.55Zm-6.55,12.24v-7.56h-3.67A3.66,3.66,0,0,1,279,635c-0.21-.29-0.5-0.86-0.5-2.88V614h6.7v-6.7h-6.7l-0.07-11.59h-9.79v11.59h-5.11V614l5.18-.07v18.93c0,8.28,3.38,11,8.78,11h8Zm-45.29,1.44c11.81,0,19.73-7.92,19.73-19.87,0-11.74-8.06-19.66-19.44-19.66-11.09,0-19.3,7.92-19.3,19.66C221.23,637.45,229.44,645.36,240.24,645.36Zm0.58-7.7c-5.11,0-9.51-3.67-9.51-12.17,0-8.21,4.39-11.95,9.43-11.95,4.75,0,9.15,3.31,9.15,12.24C249.89,634.42,245.21,637.66,240.82,637.66Zm1.37-34.77H252L252,593l-9.79-.07v10Zm-12.89,0h9.87L239.09,593l-9.79-.07v10Zm-24,41h9.86V593h-9.79Zm-42.48,0h10.44v-18h10.44c7.13,0,11.3-2.3,13.9-5.61a17.29,17.29,0,0,0,3.67-10.8c0-9.87-6.48-16.56-17.35-16.56h-21.1v51Z"/><path class="b" d="M146.92,731h9.86V710.85c0-6,3.31-8.78,7.35-8.78,3.53,0,5.9,2,5.9,6.62V731h9.79V705.73c0-4.46-1.44-7.49-3.81-9.57a14.18,14.18,0,0,0-8.64-3.1c-5.33,0-8.93,2.52-10.66,5.91L156.79,680h-9.86v51Zm291.59-3.74,0.36,3.74h9.79V680h-9.93v18.51c-1.8-2.88-5.91-5.33-10.58-5.33-8.21,0-16.27,6.84-16.27,19.66a21.42,21.42,0,0,0,4.75,14,13.89,13.89,0,0,0,11.16,5.33A13.29,13.29,0,0,0,438.51,727.26Zm-7.78-3.53c-4.68,0-8.71-3.31-8.71-11.09,0-8.71,4.25-11.81,8.28-11.81s8.28,3.1,8.28,11.52C438.59,720.42,434.34,723.66,430.74,723.73Zm-35.56,3.17,0.5,4.1H405V694.43l-9.79-.07v20.52c0,5.61-3.31,8.5-7.35,8.5-3.6,0-5.9-1.94-5.9-7.13V694.36h-9.86v25.2c0,4.83,1.37,7.42,3.6,9.5a13.23,13.23,0,0,0,9.14,3.17A11.9,11.9,0,0,0,395.17,726.9ZM348.44,735v8l6.84-.07c6.26,0,9.29-3,9.29-9.65l-0.07-38.88h-9.87V729c0,5.18-1.51,6-3.89,6h-2.3Zm6.19-46.15h9.94L364.5,680h-9.87v8.78ZM333.47,731h9.86V680h-9.79Zm-36.65,0v-7.56h-3.67a3.65,3.65,0,0,1-2.81-1.37c-0.22-.29-0.51-0.86-0.51-2.88V701.06h6.7v-6.7h-6.62l-0.07-11.59H280v11.59h-5.18v6.77l5.18-.07V720c0,8.28,3.38,11,8.85,11h7.92Zm-63.5,2a10.73,10.73,0,0,0,3.6,7.34c2.23,2.16,6.33,4.18,13.46,4.18,7.92,0,13-3,15.48-6.12,1.66-2.23,2.52-4.25,2.52-9.72V694.36H259l-0.29,4.46c-0.72-1.15-2.66-5.76-10.87-5.76-8.86,0-16.56,7.06-16.56,18.36s7.78,18.43,16.49,18.43c5.83,0,9.5-2.66,10.87-5.47v4c0,6.19-2.81,8.78-8.5,8.78-4.25,0-6.26-2.16-6.62-4.46ZM250,721.36c-4.75,0-8.78-3.46-8.78-10.22,0-5.9,4.1-9.65,8.57-9.65s8.64,3.74,8.64,9.93S254.27,721.36,250,721.36Zm-44.71,11.09c11.81,0,19.73-7.92,19.73-19.87,0-11.74-8-19.66-19.44-19.66-11.09,0-19.3,7.92-19.3,19.66C186.3,724.53,194.51,732.45,205.31,732.45Zm0.58-7.71c-5.11,0-9.5-3.67-9.5-12.17,0-8.21,4.39-11.95,9.43-11.95,4.75,0,9.15,3.31,9.15,12.24C215,721.5,210.28,724.74,205.89,724.74ZM207.26,690h9.86V680l-9.86-.07v10Zm-12.89,0h9.86V680l-9.86-.07v10Z"/><path class="b" d="M545.11,527.1c11.94,0,18.35-13.23,12.56-23.24L310,75.23a14.41,14.41,0,0,0-25,0L37.61,503.86c-5.78,10,.64,23.24,12.57,23.24H545.11Zm-28.57-31.43L297.66,116.56,78.77,495.68H516.54Z"/><path class="b" d="M308.41,334.94a10,10,0,0,1,9-5.18L313.64,323c-3.86.16-5.23,2.9-6.27,5C306.43,330.24,307.72,333.71,308.41,334.94Zm9.28-1.4c4.09,8.69,5.26,12.72,7.68,24.44,3.78,14.84,2.9,11.25,2.2,27-0.21,4.85-.63,13.82-0.63,14.54-0.82,5.35-1.93,12-2.77,17.33-1.37,21.46-10.48,32.34,1,56.16H291c-2.71-9.92-11.75-18.56-9.45-30.66,0.12-.9.35-1.85,0.57-2.77,3.83-16,16.44-31.91,20.6-45.7,1.06-3.5,2.62-6.83,3.45-10.4,0.89-3.84,1.31-7.79,2-11.79,0.23-2.49.22-5,.26-7.54,0.14-8.83,1.78-15.89,7.89-15.16l2,15.89,0.45,18.16L315,400.19l3.68,0.78,3.82-17.58L322,364.64l-2.21-17.7c-3-2.87-6.26-1.89-8.65-.67C309.79,340,310.8,333.3,317.69,333.54Z"/><path class="b" d="M225.36,287c39.13,14.16,49.22,51.89,43.26,77.89a3.73,3.73,0,0,0,3,4.45c4.44,0.91,3.75-5.65,8.73-2.51,2.58,1.77,3.51,13.53-3.77,28.7-2.63,5.11-6.73,12.46-10.73,12.7-1.61.1-2.64-1.52-4.11-1.91-2.54-.67-4.72,1.4-5.06,3.85-10,67.21-87.14,79.61-105.44,5.31l-5.32,9.25c24,73.1,104.77,59.62,117.51-9.35,18.19,5.83,41-57.63,13.77-55.74,3.4-22.82-5.78-63.07-48-79.26L225.36,287"/><path class="b" d="M383.68,437.95a107.78,107.78,0,0,1,0-106.95c2.46-4.26-4-8.09-6.53-3.75-9.36,16-15.21,37.31-15.18,57.46s5.61,41,15.64,57.55C379.81,445.89,386.05,442,383.68,437.95Zm11.24-10.75a96.1,96.1,0,0,1-10.44-43.15,93.26,93.26,0,0,1,10.44-42.27c2.32-4.51,8.75-.92,6.63,3.44A90.06,90.06,0,0,0,392,384.05c-0.07,13.81,3.59,27.55,9.67,40.14C403.65,428.35,397,431.42,394.91,427.2Zm-35.34,28.86a138.07,138.07,0,0,1-20.05-71.33A135.47,135.47,0,0,1,360,312.35c2.29-3.64,8.34.62,6,4.44a130.08,130.08,0,0,0,0,135.37C368.63,456.43,362.18,460.36,359.57,456.06Z"/></svg>