<?xml version="1.0" encoding="UTF-8"?>
<svg id="Lager_1" data-name="Lager 1" xmlns="http://www.w3.org/2000/svg" viewBox="0 0 153.09 218.69">
  <defs>
    <style>
      .cls-1 {
        fill: #fff;
      }

      .cls-1, .cls-2, .cls-3 {
        fill-rule: evenodd;
      }

      .cls-2 {
        fill: #fcbd0e;
      }

      .cls-3 {
        fill: #1d1f22;
      }
    </style>
  </defs>
  <polyline class="cls-1" points="0 218.69 153.09 218.69 153.09 0 0 0 0 218.69"/>
  <path class="cls-3" d="M140.19,124.4c3.07,0,4.72-3.4,3.23-5.98L79.73,8.19c-1.43-2.47-4.99-2.47-6.42,0L9.67,118.42c-1.49,2.57.16,5.98,3.23,5.98h127.28"/>
  <polyline class="cls-2" points="132.84 116.32 76.55 18.82 20.26 116.32 132.84 116.32"/>
  <path class="cls-3" d="M79.31,74.98c.45-.86,1.44-1.37,2.31-1.33l-.96-1.73c-.99.04-1.34.75-1.61,1.28-.24.58.09,1.47.27,1.79ZM81.7,74.62c1.05,2.24,1.35,3.27,1.98,6.29.97,3.82.74,2.89.57,6.95-.05,1.25-.16,3.55-.16,3.74-.21,1.38-.5,3.08-.71,4.46-.35,5.52-2.7,8.31.25,14.44h-8.79c-.7-2.55-3.02-4.77-2.43-7.89.03-.23.09-.48.15-.71.98-4.11,4.23-8.21,5.3-11.75.27-.9.67-1.76.89-2.67.23-.99.34-2,.52-3.03.06-.64.06-1.3.07-1.94.04-2.27.46-4.09,2.03-3.9l.51,4.09.12,4.67-.97,4.41.95.2.98-4.52-.12-4.82-.57-4.55c-.77-.74-1.61-.49-2.22-.17-.35-1.61-.09-3.33,1.69-3.27Z"/>
  <path class="cls-3" d="M57.96,62.66c10.06,3.64,12.66,13.34,11.12,20.03-.12.53.23,1.04.76,1.14,1.14.23.96-1.45,2.25-.65.66.45.9,3.48-.97,7.38-.68,1.31-1.73,3.21-2.76,3.27-.41.03-.68-.39-1.06-.49-.65-.17-1.21.36-1.3.99-2.57,17.29-22.41,20.47-27.12,1.36l-1.37,2.38c6.18,18.8,26.95,15.33,30.22-2.4,4.68,1.5,10.55-14.82,3.54-14.34.87-5.87-1.49-16.22-12.34-20.38l-.98,1.7"/>
  <path class="cls-3" d="M98.67,101.47c-2.37-4.06-3.64-8.89-3.65-13.69-.01-4.84,1.24-9.64,3.65-13.81.63-1.1-1.03-2.08-1.68-.96-2.41,4.12-3.91,9.6-3.9,14.78,0,5.2,1.44,10.55,4.02,14.8.57.94,2.17-.06,1.56-1.11ZM101.56,98.71c-1.72-3.45-2.7-7.23-2.69-11.1.02-3.79.95-7.5,2.69-10.87.6-1.16,2.25-.24,1.7.88-1.52,3.12-2.44,6.51-2.46,9.99-.02,3.55.92,7.08,2.49,10.32.52,1.07-1.19,1.86-1.73.77ZM92.47,106.13c-3.35-5.52-5.15-11.87-5.16-18.35-.01-6.57,1.78-13.06,5.27-18.61.59-.93,2.15.16,1.54,1.14-3.2,5.19-4.89,11.31-4.89,17.47,0,6.12,1.69,12.15,4.89,17.34.67,1.1-.98,2.11-1.65,1Z"/>
  <polyline class="cls-2" points="10.19 133.09 142.93 133.09 142.93 208.7 10.19 208.7 10.19 133.09"/>
  <path class="cls-3" d="M44.54,146.86l.02-4.22h2.33c1.61,0,2.28,1.09,2.28,2.13,0,1.19-.81,2.13-2.44,2.11l-2.19-.02ZM111.31,153.62v-1.94h-.94c-.3,0-.59-.17-.72-.35-.06-.07-.13-.22-.13-.74v-4.67h1.72v-1.72h-1.72l-.02-2.98h-2.52v2.98h-1.31v1.74l1.33-.02v4.87c0,2.13.87,2.83,2.26,2.83h2.06ZM94.98,154.14c.11.89.39,1.39.91,1.89.57.55,1.65,1.07,3.46,1.07,2.06,0,3.35-.76,3.98-1.57.43-.57.67-1.09.67-2.5v-8.83h-2.42l-.09,1.15c-.17-.3-.69-1.48-2.78-1.48-2.28,0-4.26,1.81-4.26,4.72s1.98,4.74,4.24,4.74c1.5,0,2.43-.68,2.8-1.41v1.02c0,1.59-.74,2.26-2.19,2.26-1.11,0-1.63-.55-1.7-1.15l-2.61.09ZM99.28,151.14c-1.24,0-2.26-.89-2.26-2.63,0-1.52,1.04-2.48,2.2-2.48s2.22.96,2.22,2.56-1.07,2.56-2.17,2.56ZM90.13,153.62h2.52v-9.42h-2.52v9.42ZM90.13,142.77h2.54v-2.26h-2.54v2.26ZM85.63,153.62h2.54v-13.11h-2.52l-.02,13.11ZM75.11,150.47c.04,1.78,1.52,3.48,4.41,3.48s4.24-1.57,4.24-3.26c0-.59-.22-1.19-.59-1.65-.35-.44-.8-.78-1.93-1.04l-2.7-.63c-.57-.15-.8-.5-.8-.83,0-.37.33-.94,1.57-.94,1.33,0,1.93.7,1.94,1.46l2.24-.04c-.04-.94-.56-1.89-1.35-2.48-.56-.39-1.43-.72-2.8-.72-2.72,0-3.91,1.46-3.91,3.07,0,.76.22,1.3.67,1.78.33.35.72.65,1.78.87l2.04.46c1.18.26,1.33.63,1.33,1.07,0,.41-.39,1.06-1.78,1.06s-2.02-.7-2.09-1.69l-2.28.02ZM73.43,153.62v-1.94h-.94c-.3,0-.59-.17-.72-.35-.06-.07-.13-.22-.13-.74v-4.67h1.72v-1.72h-1.72l-.02-2.98h-2.52v2.98h-1.31v1.74l1.33-.02v4.87c0,2.13.87,2.83,2.26,2.83h2.06ZM61.78,153.99c3.04,0,5.07-2.04,5.07-5.11s-2.07-5.05-5-5.05-4.96,2.04-4.96,5.05,2.11,5.11,4.89,5.11ZM61.93,152.01c-1.31,0-2.44-.94-2.44-3.13s1.13-3.07,2.43-3.07c1.22,0,2.35.85,2.35,3.15s-1.2,3.06-2.33,3.06ZM62.28,143.07h2.54l-.02-2.55-2.52-.02v2.57ZM58.97,143.07h2.54l-.02-2.55-2.52-.02v2.57ZM52.78,153.62h2.54v-13.11h-2.52l-.02,13.11ZM41.86,153.62h2.68v-4.63h2.69c1.83,0,2.91-.59,3.57-1.44.57-.7.94-1.7.94-2.78,0-2.54-1.67-4.26-4.46-4.26h-5.43v13.11Z"/>
  <path class="cls-3" d="M37.78,175.7h2.54v-5.18c0-1.54.85-2.26,1.89-2.26.91,0,1.52.52,1.52,1.7v5.74h2.52v-6.5c0-1.15-.37-1.93-.98-2.46-.56-.46-1.41-.8-2.22-.8-1.37,0-2.3.65-2.74,1.52l.02-4.87h-2.54v13.11ZM112.77,174.74l.09.96h2.52v-13.11h-2.55v4.76c-.46-.74-1.52-1.37-2.72-1.37-2.11,0-4.18,1.76-4.18,5.06,0,1.5.48,2.74,1.22,3.61.78.94,1.76,1.37,2.87,1.37s2.07-.44,2.76-1.28ZM110.77,173.83c-1.2,0-2.24-.85-2.24-2.85,0-2.24,1.09-3.04,2.13-3.04s2.13.8,2.13,2.96-1.09,2.91-2.02,2.93ZM101.63,174.64l.13,1.06h2.39v-9.41l-2.52-.02v5.28c0,1.44-.85,2.19-1.89,2.19-.93,0-1.52-.5-1.52-1.83v-5.63h-2.54v6.48c0,1.24.35,1.91.93,2.44.55.5,1.33.82,2.35.82,1.17,0,2.09-.5,2.67-1.37ZM89.61,176.72v2.06l1.76-.02c1.61,0,2.39-.78,2.39-2.48l-.02-10h-2.54v8.91c0,1.33-.39,1.54-1,1.54h-.59ZM91.2,164.85h2.56l-.02-2.26h-2.54v2.26ZM85.76,175.7h2.54v-13.11h-2.52l-.02,13.11ZM76.33,175.7v-1.94h-.94c-.3,0-.59-.17-.72-.35-.06-.07-.13-.22-.13-.74v-4.67h1.72v-1.72h-1.7l-.02-2.98h-2.52v2.98h-1.33v1.74l1.33-.02v4.87c0,2.13.87,2.83,2.28,2.83h2.04ZM60,176.22c.11.89.39,1.39.93,1.89.57.56,1.63,1.07,3.46,1.07,2.04,0,3.33-.76,3.98-1.57.43-.57.65-1.09.65-2.5v-8.83h-2.42l-.07,1.15c-.19-.3-.69-1.48-2.8-1.48-2.28,0-4.26,1.81-4.26,4.72s2,4.74,4.24,4.74c1.5,0,2.44-.69,2.8-1.41v1.02c0,1.59-.72,2.26-2.19,2.26-1.09,0-1.61-.56-1.7-1.15l-2.61.09ZM64.3,173.22c-1.22,0-2.26-.89-2.26-2.63,0-1.52,1.06-2.48,2.2-2.48s2.22.96,2.22,2.56-1.07,2.56-2.17,2.56ZM52.8,176.07c3.04,0,5.07-2.04,5.07-5.11s-2.05-5.06-5-5.06-4.96,2.04-4.96,5.06,2.11,5.11,4.89,5.11ZM52.95,174.09c-1.32,0-2.44-.94-2.44-3.13s1.13-3.07,2.42-3.07c1.22,0,2.35.85,2.35,3.15s-1.2,3.05-2.33,3.05ZM53.3,165.15h2.54v-2.56l-2.54-.02v2.57ZM49.99,165.15h2.54v-2.56l-2.54-.02v2.57Z"/>
</svg>