<?xml version="1.0" encoding="UTF-8"?>
<svg id="Lager_1" data-name="Lager 1" xmlns="http://www.w3.org/2000/svg" viewBox="0 0 153.09 218.69">
  <defs>
    <style>
      .cls-1 {
        fill: #fff;
      }

      .cls-1, .cls-2, .cls-3 {
        fill-rule: evenodd;
      }

      .cls-2 {
        fill: #fcbd0e;
      }

      .cls-3 {
        fill: #1d1f22;
      }
    </style>
  </defs>
  <polyline class="cls-1" points="0 218.69 153.09 218.69 153.09 0 0 0 0 218.69"/>
  <path class="cls-3" d="M143.4,118.48L79.89,8.39l-.39-.59-.49-.44c-1.04-.91-2.57-1.2-3.87-.68l-.59.29-.58.4-.44.44-.39.59L9.62,118.48l-.29.64-.2.64-.05.68.05.68.2.69.29.59.39.58.44.44.58.39.59.29.68.2.68.05h127.03l.68-.05.64-.2c1.34-.5,2.26-1.57,2.55-2.98l.05-.68-.05-.68-.19-.64-.29-.64"/>
  <polyline class="cls-2" points="76.51 18.71 132.78 116.28 20.24 116.28 76.51 18.71"/>
  <path class="cls-3" d="M76.51,95.95c-3.51,0-6.37,2.86-6.37,6.37s2.86,6.36,6.37,6.36,6.37-2.85,6.37-6.36-2.86-6.37-6.37-6.37"/>
  <path class="cls-3" d="M76.51,43.43c-2.57,0-5.21,1.24-7.04,3.31-1.5,1.7-2.24,3.74-2.01,5.59l4.81,35.39c.41,2.74,2,4.38,4.24,4.38s3.83-1.64,4.25-4.39l4.81-35.39c.22-1.84-.51-3.88-2.01-5.58-1.83-2.07-4.47-3.31-7.04-3.31"/>
  <polyline class="cls-2" points="10.19 133.09 142.93 133.09 142.93 208.7 10.19 208.7 10.19 133.09"/>
  <path class="cls-3" d="M32.53,153.6h2.7v-5.59h5.72v-2.15h-5.72v-3.18h6.74v-2.19h-9.44v13.11ZM113.53,149.58l7,.02c0-2.8-1.26-5.76-4.78-5.76s-4.72,2.87-4.72,5.02c0,3.13,2.07,5.07,4.7,5.07s4.24-1.43,4.63-3.07l-2.55-.17c-.48.87-1.13,1.22-1.94,1.22-1.2,0-2.18-.82-2.33-2.33ZM113.65,147.75c.15-1.15,1.11-1.93,2.07-1.93,1.02,0,1.91.7,2.09,1.93h-4.17ZM107.05,150.18c-.15.74-.35,1.04-.72,1.31-.33.24-.72.39-1.24.39-1.13,0-2.19-.82-2.19-2.93,0-2.31,1.11-3.17,2.28-3.17.91,0,1.67.67,1.82,1.61l2.44-.13c-.22-1.96-1.74-3.48-4.31-3.48-1.85,0-3.17.72-4.02,1.98-.56.81-.89,1.83-.89,3.15,0,1.91.76,3.35,1.94,4.22.74.54,1.65.87,2.93.87.89,0,1.42-.13,1.89-.31,1.43-.52,2.3-1.59,2.48-3.41l-2.41-.11ZM95.91,153.6h2.52v-9.43h-2.52v9.43ZM95.91,142.75h2.54v-2.26h-2.54v2.26ZM77.26,154.12c.11.89.39,1.39.91,1.89.57.56,1.65,1.07,3.46,1.07,2.04,0,3.35-.76,3.98-1.57.43-.57.67-1.09.67-2.5v-8.83h-2.43l-.09,1.15c-.17-.3-.69-1.48-2.78-1.48-2.28,0-4.26,1.81-4.26,4.72s1.98,4.74,4.24,4.74c1.5,0,2.43-.69,2.8-1.41v1.02c0,1.59-.74,2.26-2.18,2.26-1.11,0-1.63-.56-1.72-1.15l-2.59.09ZM81.56,151.12c-1.24,0-2.26-.89-2.26-2.63,0-1.52,1.04-2.48,2.2-2.48s2.22.96,2.22,2.56-1.07,2.56-2.17,2.56ZM66.52,153.6h2.54v-5.28c0-.74.15-1.09.37-1.39.33-.48.93-.8,1.54-.8.87,0,1.5.57,1.5,1.63v5.83h2.52v-6.65c0-1.76-1.28-3.11-3.24-3.11-1.35,0-2.3.72-2.61,1.46l-.11-1.11-2.48-.02-.02,9.43ZM62.02,153.6h2.52v-9.43h-2.52v9.43ZM62.02,142.75h2.54v-2.26h-2.54v2.26ZM57.52,153.6h2.54v-13.11h-2.52l-.02,13.11ZM53.02,153.6h2.54v-13.11h-2.52l-.02,13.11ZM48.3,152.53c.06.46.17.8.31,1.07h2.57c-.32-.39-.41-.67-.43-.98l.02-5.17c0-2.26-1.19-3.61-4.26-3.61-2.85,0-4.04,1.55-3.98,3.15l2.24.04c0-.7.54-1.37,1.81-1.37s1.67.61,1.67,1.06c0,.39-.24.74-.93.87l-1.44.24c-2.09.37-2.65.76-3.04,1.11-.57.5-.87,1.2-.87,1.96,0,1.56,1.22,2.96,3.59,2.96,1.39,0,2.18-.46,2.72-1.33ZM48.32,148.64l-.02,1.18c0,1.33-.83,2.17-2.28,2.17-1.06,0-1.56-.63-1.56-1.2,0-.44.15-.94,1.74-1.39l1.09-.3c.48-.13.82-.32,1.02-.46Z"/>
</svg>