<?xml version="1.0" encoding="UTF-8"?>
<svg id="Lager_1" data-name="Lager 1" xmlns="http://www.w3.org/2000/svg" viewBox="0 0 153.09 218.69">
  <defs>
    <style>
      .cls-1 {
        fill: #fff;
      }

      .cls-1, .cls-2, .cls-3 {
        fill-rule: evenodd;
      }

      .cls-2 {
        fill: #fcbd0e;
      }

      .cls-3 {
        fill: #1d1f22;
      }
    </style>
  </defs>
  <polyline class="cls-1" points="0 218.69 153.09 218.69 153.09 0 0 0 0 218.69"/>
  <path class="cls-3" d="M143.4,118.48L79.89,8.39l-.39-.59-.49-.44c-1.05-.91-2.57-1.2-3.87-.68l-.59.29-.58.4-.44.44-.39.59L9.62,118.48l-.3.64-.19.64-.05.68.05.68.19.69.3.59.39.58.44.44.58.39.59.29.69.2.68.05h127.03l.68-.05.64-.2c1.34-.5,2.26-1.57,2.55-2.98l.05-.68-.05-.68-.19-.64-.29-.64"/>
  <polyline class="cls-2" points="76.51 18.71 132.78 116.28 20.24 116.28 76.51 18.71"/>
  <path class="cls-3" d="M76.51,95.95c-3.51,0-6.37,2.86-6.37,6.37s2.86,6.36,6.37,6.36,6.37-2.85,6.37-6.36-2.86-6.37-6.37-6.37"/>
  <path class="cls-3" d="M76.51,43.43c-2.58,0-5.21,1.24-7.04,3.31-1.5,1.7-2.24,3.74-2.01,5.59l4.81,35.39c.41,2.74,2,4.38,4.24,4.38s3.83-1.64,4.25-4.39l4.81-35.39c.23-1.84-.51-3.88-2.01-5.58-1.83-2.07-4.47-3.31-7.04-3.31"/>
  <polyline class="cls-2" points="10.19 133.09 142.93 133.09 142.93 208.7 10.19 208.7 10.19 133.09"/>
  <path class="cls-3" d="M15.1,147.87v-3.63h2.82c.68,0,.87.09,1.13.26.49.33.8.98.8,1.57,0,1-.73,1.83-2.02,1.82l-2.74-.02ZM133.97,151.13l6.59.02c0-2.8-1.18-5.76-4.5-5.76s-4.46,2.87-4.46,5.02c0,3.13,1.95,5.07,4.45,5.07s3.99-1.43,4.36-3.07l-2.41-.17c-.45.87-1.08,1.22-1.85,1.22-1.13,0-2.06-.82-2.18-2.33ZM134.07,149.3c.14-1.15,1.03-1.93,1.94-1.93.98,0,1.81.7,1.97,1.93h-3.91ZM122.06,155.15h2.39v-5.19c0-1.54.8-2.26,1.8-2.26.84,0,1.41.52,1.41,1.7v5.74h2.39v-6.5c0-1.15-.37-1.93-.94-2.46-.52-.46-1.31-.8-2.07-.8-1.31,0-2.18.65-2.58,1.52v-4.87h-2.39v13.11ZM118.12,151.72c-.12.74-.33,1.04-.68,1.31-.3.24-.66.39-1.15.39-1.08,0-2.06-.81-2.06-2.93,0-2.31,1.05-3.17,2.14-3.17.85,0,1.57.67,1.69,1.61l2.3-.13c-.19-1.96-1.62-3.48-4.06-3.48-1.74,0-2.96.72-3.77,1.98-.54.81-.85,1.83-.85,3.15,0,1.91.73,3.35,1.85,4.22.7.54,1.55.87,2.75.87.84,0,1.32-.13,1.76-.31,1.34-.52,2.16-1.59,2.33-3.41l-2.27-.11ZM102.07,155.15h2.39l.02-5.28c0-.74.14-1.09.33-1.39.31-.48.87-.8,1.45-.8.84,0,1.43.57,1.43,1.63l-.02,5.83h2.39v-6.65c0-1.76-1.22-3.11-3.05-3.11-1.27,0-2.16.72-2.47,1.46l-.09-1.11-2.35-.02-.02,9.42ZM97.64,154.07c.05.46.14.8.28,1.07h2.44c-.31-.39-.4-.67-.4-.98v-5.17c0-2.26-1.1-3.61-3.99-3.61-2.68,0-3.8,1.56-3.75,3.15l2.11.04c0-.7.49-1.37,1.71-1.37s1.55.61,1.55,1.06c0,.39-.23.74-.85.87l-1.38.24c-1.95.37-2.47.76-2.86,1.11-.52.5-.82,1.2-.82,1.96,0,1.56,1.15,2.96,3.4,2.96,1.29,0,2.06-.46,2.56-1.33ZM97.66,150.18l-.02,1.18c0,1.33-.79,2.17-2.14,2.17-.99,0-1.48-.63-1.48-1.2,0-.44.14-.94,1.66-1.39l1.03-.3c.45-.13.77-.31.96-.46ZM87.67,155.15h2.39v-13.11h-2.37l-.02,13.11ZM83.24,154.07c.05.46.14.8.28,1.07h2.44c-.31-.39-.4-.67-.4-.98v-5.17c0-2.26-1.1-3.61-3.99-3.61-2.68,0-3.8,1.56-3.75,3.15l2.11.04c0-.7.49-1.37,1.71-1.37s1.55.61,1.55,1.06c0,.39-.23.74-.85.87l-1.38.24c-1.95.37-2.48.76-2.86,1.11-.52.5-.82,1.2-.82,1.96,0,1.56,1.15,2.96,3.4,2.96,1.29,0,2.06-.46,2.56-1.33ZM83.26,150.18l-.02,1.18c0,1.33-.78,2.17-2.14,2.17-.99,0-1.48-.63-1.48-1.2,0-.44.14-.94,1.66-1.39l1.03-.3c.45-.13.77-.31.96-.46ZM71.53,155.15h2.35l3.01-9.42h-2.41l-1.76,6.2-1.76-6.18h-2.44l3,9.41ZM65.01,154.07c.05.46.14.8.28,1.07h2.44c-.31-.39-.4-.67-.4-.98v-5.17c0-2.26-1.1-3.61-3.99-3.61-2.68,0-3.8,1.56-3.75,3.15l2.11.04c0-.7.49-1.37,1.71-1.37s1.55.61,1.55,1.06c0,.39-.23.74-.85.87l-1.38.24c-1.95.37-2.48.76-2.86,1.11-.52.5-.82,1.2-.82,1.96,0,1.56,1.15,2.96,3.4,2.96,1.29,0,2.06-.46,2.56-1.33ZM65.03,150.18l-.02,1.18c0,1.33-.78,2.17-2.14,2.17-.99,0-1.48-.63-1.48-1.2,0-.44.14-.94,1.66-1.39l1.03-.3c.45-.13.77-.31.96-.46ZM46.29,155.15h2.37v-7.74h1.74v-1.68h-1.74v-.19c0-.85.14-1.09.3-1.26.19-.22.47-.39,1.05-.37h.4v-1.87h-1.38c-.8,0-2.98.15-2.74,3.68h-1.31l.02,1.68h1.29v7.74ZM39.17,155.5c2.7,0,4.67-2.02,4.67-5.09s-1.93-5.04-4.69-5.04-4.65,2.04-4.65,5.02,1.97,5.11,4.67,5.11ZM39.16,153.52c-1.13,0-2.21-.93-2.21-3.02,0-2.26,1.06-3.15,2.23-3.15s2.23.91,2.23,3.06-1.08,3.11-2.25,3.11ZM28.35,155.5c2.7,0,4.67-2.02,4.67-5.09s-1.94-5.04-4.69-5.04-4.65,2.04-4.65,5.02,1.97,5.11,4.67,5.11ZM28.33,153.52c-1.13,0-2.21-.93-2.21-3.02,0-2.26,1.06-3.15,2.23-3.15s2.23.91,2.23,3.06-1.08,3.11-2.25,3.11ZM12.54,155.15h2.56l.02-5.19,2.21.02c.89,0,1.52.41,1.88,1.07.14.26.19.56.26.83.24,1.07-.02,2.24.47,3.26h2.58c-.16-.3-.33-.83-.38-1.37l-.21-2.32c-.09-.94-.3-1.35-.63-1.74-.38-.43-.99-.74-1.62-.8,1.59-.19,2.69-1.46,2.69-3.22,0-2.06-1.55-3.81-4.15-3.67h-5.67l-.02,13.11Z"/>
</svg>