<?xml version="1.0" encoding="UTF-8"?>
<svg id="Lager_2" xmlns="http://www.w3.org/2000/svg" version="1.1" viewBox="0 0 600.78 396.59">
  <!-- Generator: Adobe Illustrator 29.4.0, SVG Export Plug-In . SVG Version: 2.1.0 Build 152)  -->
  <defs>
    <style>
      .st0 {
        isolation: isolate;
      }

      .st1 {
        fill: #900;
      }

      .st2 {
        fill: #004fa2;
      }
    </style>
  </defs>
  <g class="st0">
    <g class="st0">
      <path class="st1" d="M28.53,209.44l7.8-17.52c7.44,4.92,18,8.28,27.72,8.28s13.68-2.76,13.68-6.84c0-13.32-47.76-3.6-47.76-34.8,0-15,12.24-27.24,37.2-27.24,10.92,0,22.2,2.52,30.48,7.32l-7.32,17.64c-8.04-4.32-15.96-6.48-23.28-6.48-9.96,0-13.56,3.36-13.56,7.56,0,12.84,47.64,3.24,47.64,34.2,0,14.64-12.24,27.12-37.2,27.12-13.8,0-27.48-3.72-35.4-9.24Z"/>
      <path class="st1" d="M171.93,180.88v36.12h-21.24v-8.4c-3.24,6.24-9.72,9.48-19.2,9.48-15.6,0-24.24-8.76-24.24-20.04,0-12,8.76-19.44,28.92-19.44h12.96c-.36-6.6-4.8-10.32-13.8-10.32-6.24,0-13.2,2.16-17.64,5.64l-7.68-15.48c7.44-4.92,18.48-7.56,28.68-7.56,21.12,0,33.24,9.36,33.24,30ZM149.13,196.12v-5.64h-9.84c-7.32,0-9.96,2.64-9.96,6.6s3.12,6.6,8.52,6.6c5.04,0,9.48-2.4,11.28-7.56Z"/>
      <path class="st1" d="M211.17,154.36h15.48v17.04h-14.88v45.6h-22.8v-45.6h-9.48v-17.04h9.48v-1.68c0-15.6,9.72-25.8,27.12-25.8,5.52,0,11.4,1.08,15.12,3.36l-5.64,16.08c-1.92-1.08-4.44-1.92-6.84-1.92-4.8,0-7.56,2.76-7.56,8.52v1.44Z"/>
      <path class="st1" d="M300.44,190.24h-47.28c1.92,6.6,7.56,10.44,15.96,10.44,6.36,0,10.56-1.8,15-5.64l12,12.48c-6.24,6.96-15.36,10.56-27.72,10.56-23.16,0-38.16-14.28-38.16-33.72s15.24-33.48,35.76-33.48c19.2,0,34.8,12.24,34.8,33.72,0,1.68-.24,3.84-.36,5.64ZM252.81,178.24h26.64c-1.2-6.84-6.24-11.16-13.32-11.16s-12,4.32-13.32,11.16Z"/>
      <path class="st1" d="M388.16,164.08c0,19.08-14.4,30.96-37.32,30.96h-14.64v21.96h-23.76v-84h38.4c22.92,0,37.32,11.88,37.32,31.08ZM364.16,164.08c0-7.8-4.92-12.36-14.76-12.36h-13.2v24.6h13.2c9.84,0,14.76-4.56,14.76-12.24Z"/>
      <path class="st1" d="M442.77,150.88v20.52c-2.04-.24-3.48-.36-5.16-.36-9.24,0-15.6,4.68-15.6,16.08v29.88h-22.8v-65.04h21.72v7.8c4.68-5.88,12.24-8.88,21.84-8.88Z"/>
      <path class="st1" d="M449.61,132.64c0-6.84,5.52-12.12,13.92-12.12s13.92,4.92,13.92,11.76c0,7.2-5.52,12.48-13.92,12.48s-13.92-5.28-13.92-12.12ZM452.13,151.96h22.8v65.04h-22.8v-65.04Z"/>
      <path class="st1" d="M485.61,184.36c0-19.56,15.48-33.48,36.72-33.48s36.72,13.92,36.72,33.48-15.24,33.72-36.72,33.72-36.72-14.04-36.72-33.72ZM536,184.36c0-9.84-5.88-15.36-13.68-15.36s-13.68,5.52-13.68,15.36,6,15.6,13.68,15.6,13.68-5.64,13.68-15.6Z"/>
    </g>
  </g>
  <g class="st0">
    <g class="st0">
      <path d="M271.64,242.44c3.19,0,5.58,1,7.2,3.01s2.42,4.94,2.42,8.79-.85,6.71-2.55,8.76c-1.7,2.05-4.08,3.08-7.16,3.08-1.62,0-3.08-.33-4.38-1.01s-2.33-1.62-3.08-2.85h-.19l-.59,3.44h-1.3v-32.61h2.08v8.19c0,1.23-.03,2.36-.08,3.4l-.06,1.78h.15c.87-1.37,1.91-2.38,3.13-3.02,1.22-.64,2.69-.96,4.41-.96ZM271.6,244.33c-2.68,0-4.6.77-5.76,2.3-1.16,1.54-1.74,4.07-1.74,7.61v.36c0,3.44.6,5.9,1.81,7.4s3.09,2.24,5.65,2.24,4.36-.87,5.62-2.61c1.26-1.74,1.89-4.22,1.89-7.43,0-6.58-2.49-9.87-7.46-9.87Z"/>
      <path d="M283.76,242.88h2.14l4.82,12.78c1.47,3.93,2.4,6.57,2.79,7.94h.13c.59-1.8,1.54-4.49,2.87-8.07l4.82-12.66h2.14l-10.21,26.47c-.82,2.15-1.52,3.6-2.07,4.36-.56.75-1.21,1.32-1.96,1.7-.75.38-1.65.57-2.71.57-.8,0-1.68-.15-2.66-.44v-1.8c.81.22,1.68.33,2.62.33.71,0,1.34-.17,1.89-.5.54-.33,1.04-.86,1.48-1.56.44-.71.95-1.82,1.53-3.35.58-1.53.95-2.53,1.12-2.99l-8.72-22.78Z"/>
    </g>
    <g class="st0">
      <path class="st2" d="M343.11,265.66h-7.38l-8.03-12.91-2.75,1.97v10.94h-6.5v-30.64h6.5v14.02l2.56-3.6,8.3-10.42h7.21l-10.69,13.56,10.77,17.08Z"/>
      <path class="st2" d="M367.76,253.9c0,3.81-1.01,6.8-3.02,8.95-2.01,2.15-4.81,3.23-8.4,3.23-2.25,0-4.23-.49-5.95-1.48-1.72-.98-3.04-2.4-3.96-4.24-.92-1.84-1.38-4-1.38-6.46,0-3.83,1-6.8,3-8.93s4.81-3.19,8.42-3.19c2.25,0,4.23.49,5.95,1.47,1.72.98,3.04,2.38,3.96,4.21s1.38,3.97,1.38,6.43ZM351.56,253.9c0,2.32.38,4.07,1.14,5.26.76,1.19,2,1.78,3.72,1.78s2.93-.59,3.68-1.77c.75-1.18,1.12-2.94,1.12-5.27s-.38-4.06-1.13-5.22c-.75-1.16-1.99-1.74-3.71-1.74s-2.93.58-3.69,1.73c-.75,1.15-1.13,2.9-1.13,5.23Z"/>
      <path class="st2" d="M386.12,241.79c.87,0,1.59.06,2.16.19l-.48,5.99c-.52-.14-1.15-.21-1.89-.21-2.04,0-3.63.52-4.77,1.57-1.14,1.05-1.71,2.51-1.71,4.4v11.92h-6.39v-23.43h4.84l.94,3.94h.31c.73-1.31,1.71-2.37,2.94-3.17s2.58-1.21,4.03-1.21Z"/>
      <path class="st2" d="M402.4,260.99c1.12,0,2.46-.24,4.02-.73v4.76c-1.59.71-3.55,1.07-5.87,1.07-2.56,0-4.42-.65-5.58-1.94-1.17-1.29-1.75-3.23-1.75-5.82v-11.3h-3.06v-2.7l3.52-2.14,1.84-4.95h4.09v4.99h6.56v4.8h-6.56v11.3c0,.91.25,1.58.77,2.01.51.43,1.18.65,2.02.65Z"/>
      <path class="st2" d="M427.51,258.7c0,2.4-.83,4.23-2.5,5.49-1.67,1.26-4.17,1.89-7.49,1.89-1.7,0-3.16-.12-4.36-.35-1.2-.23-2.33-.57-3.38-1.02v-5.28c1.19.56,2.53,1.03,4.01,1.4s2.8.57,3.93.57c2.32,0,3.48-.67,3.48-2.01,0-.5-.15-.91-.46-1.23s-.84-.67-1.59-1.07c-.75-.4-1.76-.86-3.02-1.39-1.8-.75-3.13-1.45-3.97-2.09s-1.46-1.38-1.84-2.21c-.38-.83-.58-1.85-.58-3.07,0-2.08.81-3.69,2.42-4.83,1.61-1.14,3.9-1.71,6.86-1.71s5.57.62,8.24,1.84l-1.93,4.61c-1.17-.5-2.27-.92-3.29-1.24-1.02-.32-2.06-.48-3.12-.48-1.89,0-2.83.51-2.83,1.53,0,.57.3,1.07.91,1.49.61.42,1.94,1.04,3.99,1.87,1.83.74,3.17,1.43,4.02,2.08.85.64,1.48,1.38,1.89,2.22.41.84.61,1.84.61,3Z"/>
      <path class="st2" d="M429.14,242.23h7l4.42,13.18c.38,1.15.64,2.5.78,4.07h.13c.15-1.44.45-2.79.9-4.07l4.34-13.18h6.85l-9.91,26.43c-.91,2.44-2.2,4.28-3.89,5.49-1.68,1.22-3.65,1.82-5.9,1.82-1.1,0-2.19-.12-3.25-.36v-5.07c.77.18,1.61.27,2.51.27,1.13,0,2.12-.35,2.97-1.04.84-.69,1.5-1.74,1.98-3.13l.38-1.15-9.3-23.26Z"/>
      <path class="st2" d="M473.25,258.7c0,2.4-.83,4.23-2.5,5.49-1.67,1.26-4.17,1.89-7.49,1.89-1.71,0-3.16-.12-4.36-.35-1.2-.23-2.33-.57-3.37-1.02v-5.28c1.19.56,2.53,1.03,4.01,1.4,1.49.38,2.8.57,3.93.57,2.32,0,3.48-.67,3.48-2.01,0-.5-.15-.91-.46-1.23-.31-.31-.84-.67-1.59-1.07-.75-.4-1.76-.86-3.02-1.39-1.8-.75-3.13-1.45-3.97-2.09-.85-.64-1.46-1.38-1.84-2.21-.38-.83-.58-1.85-.58-3.07,0-2.08.81-3.69,2.42-4.83,1.61-1.14,3.9-1.71,6.86-1.71s5.57.62,8.24,1.84l-1.93,4.61c-1.17-.5-2.27-.92-3.29-1.24s-2.06-.48-3.12-.48c-1.89,0-2.83.51-2.83,1.53,0,.57.3,1.07.91,1.49s1.94,1.04,3.99,1.87c1.83.74,3.17,1.43,4.02,2.08.85.64,1.48,1.38,1.89,2.22.41.84.61,1.84.61,3Z"/>
      <path class="st2" d="M488.11,260.99c1.12,0,2.46-.24,4.02-.73v4.76c-1.59.71-3.55,1.07-5.87,1.07-2.56,0-4.42-.65-5.59-1.94-1.17-1.29-1.75-3.23-1.75-5.82v-11.3h-3.06v-2.7l3.52-2.14,1.84-4.95h4.09v4.99h6.56v4.8h-6.56v11.3c0,.91.25,1.58.76,2.01.51.43,1.18.65,2.02.65Z"/>
      <path class="st2" d="M507.48,266.08c-3.77,0-6.72-1.04-8.84-3.12-2.12-2.08-3.19-5.03-3.19-8.84s.98-6.96,2.94-9.11,4.68-3.22,8.14-3.22,5.89.94,7.73,2.83c1.84,1.89,2.77,4.49,2.77,7.82v3.1h-15.11c.07,1.82.61,3.23,1.61,4.25,1.01,1.02,2.42,1.53,4.23,1.53,1.41,0,2.75-.15,4-.44,1.26-.29,2.57-.76,3.94-1.4v4.95c-1.12.56-2.31.97-3.58,1.25s-2.82.41-4.65.41ZM506.58,246.34c-1.36,0-2.42.43-3.19,1.29s-1.21,2.08-1.32,3.66h8.97c-.03-1.58-.44-2.8-1.24-3.66-.8-.86-1.87-1.29-3.23-1.29Z"/>
      <path class="st2" d="M543.21,265.66h-6.39v-13.68c0-1.69-.28-2.96-.85-3.8-.57-.85-1.46-1.27-2.67-1.27-1.63,0-2.82.6-3.56,1.8-.74,1.2-1.11,3.18-1.11,5.93v11.02h-6.39v-23.43h4.88l.86,3h.36c.63-1.08,1.54-1.92,2.72-2.52,1.19-.61,2.55-.91,4.09-.91,3.51,0,5.88,1.15,7.13,3.44h.57c.63-1.09,1.55-1.93,2.78-2.54s2.6-.9,4.14-.9c2.65,0,4.66.68,6.03,2.04,1.36,1.36,2.04,3.55,2.04,6.55v15.28h-6.41v-13.68c0-1.69-.28-2.96-.85-3.8-.57-.85-1.46-1.27-2.67-1.27-1.57,0-2.74.56-3.51,1.68-.78,1.12-1.16,2.89-1.16,5.32v11.76Z"/>
    </g>
  </g>
</svg>